<svg width="562" height="109" viewBox="0 0 562 109" fill="none" xmlns="http://www.w3.org/2000/svg">
<path d="M559.774 102.193C559.176 102.193 558.664 101.99 558.238 101.585C557.811 101.158 557.598 100.625 557.598 99.9846C557.598 99.3446 557.811 98.8219 558.238 98.4166C558.664 98.0113 559.176 97.8086 559.774 97.8086C560.35 97.8086 560.84 98.0113 561.246 98.4166C561.672 98.8219 561.886 99.3446 561.886 99.9846C561.886 100.625 561.672 101.158 561.246 101.585C560.84 101.99 560.35 102.193 559.774 102.193Z" fill="white"/>
<path d="M550.057 101.999V85.0391H553.129V101.999H550.057ZM540.937 90.7991C543.092 90.8204 544.724 91.3111 545.833 92.2711C546.964 93.2311 547.529 94.5857 547.529 96.3351C547.529 98.1697 546.91 99.5884 545.673 100.591C544.457 101.572 542.708 102.052 540.425 102.031L533.289 101.999V85.0391H536.361V90.7671L540.937 90.7991ZM540.201 99.6951C541.566 99.7164 542.612 99.4391 543.337 98.8631C544.062 98.2871 544.425 97.4337 544.425 96.3031C544.425 95.1937 544.062 94.3831 543.337 93.8711C542.633 93.3591 541.588 93.0924 540.201 93.0711L536.361 93.0071V99.6631L540.201 99.6951Z" fill="white"/>
<path d="M513.633 101.999V85.0391H521.505C523.489 85.0391 525.046 85.4231 526.177 86.1911C527.329 86.9377 527.905 88.0044 527.905 89.3911C527.905 90.7777 527.361 91.8551 526.273 92.6231C525.206 93.3697 523.787 93.7431 522.017 93.7431L522.497 92.9111C524.523 92.9111 526.027 93.2844 527.009 94.0311C527.99 94.7777 528.481 95.8764 528.481 97.3271C528.481 98.7991 527.926 99.9511 526.817 100.783C525.729 101.594 524.054 101.999 521.793 101.999H513.633ZM516.641 99.6311H521.569C522.849 99.6311 523.809 99.4391 524.449 99.0551C525.089 98.6497 525.409 98.0097 525.409 97.1351C525.409 96.2391 525.11 95.5884 524.513 95.1831C523.937 94.7564 523.019 94.5431 521.761 94.5431H516.641V99.6311ZM516.641 92.3351H521.249C522.422 92.3351 523.307 92.1217 523.905 91.6951C524.523 91.2471 524.833 90.6284 524.833 89.8391C524.833 89.0284 524.523 88.4204 523.905 88.0151C523.307 87.6097 522.422 87.4071 521.249 87.4071H516.641V92.3351Z" fill="white"/>
<path d="M506.796 101.999L500.236 93.7431L502.764 92.2071L510.412 101.999H506.796ZM494.508 101.999V85.0391H497.58V101.999H494.508ZM496.652 94.8311V92.2071H502.252V94.8311H496.652ZM503.02 93.8711L500.172 93.4871L506.668 85.0391H509.964L503.02 93.8711Z" fill="white"/>
<path d="M483.618 102.191C481.89 102.191 480.344 101.818 478.978 101.071C477.634 100.324 476.578 99.3002 475.81 97.9989C475.042 96.6976 474.658 95.2042 474.658 93.5189C474.658 91.8336 475.042 90.3402 475.81 89.0389C476.578 87.7376 477.634 86.7242 478.978 85.9989C480.344 85.2522 481.89 84.8789 483.618 84.8789C485.154 84.8789 486.52 85.1882 487.714 85.8069C488.93 86.4042 489.869 87.3002 490.53 88.4949L488.194 89.9989C487.64 89.1669 486.957 88.5589 486.146 88.1749C485.357 87.7696 484.504 87.5669 483.586 87.5669C482.477 87.5669 481.485 87.8122 480.61 88.3029C479.736 88.7936 479.042 89.4869 478.53 90.3829C478.018 91.2576 477.762 92.3029 477.762 93.5189C477.762 94.7349 478.018 95.7909 478.53 96.6869C479.042 97.5829 479.736 98.2762 480.61 98.7669C481.485 99.2576 482.477 99.5029 483.586 99.5029C484.504 99.5029 485.357 99.3109 486.146 98.9269C486.957 98.5216 487.64 97.9029 488.194 97.0709L490.53 98.5429C489.869 99.7162 488.93 100.623 487.714 101.263C486.52 101.882 485.154 102.191 483.618 102.191Z" fill="white"/>
<path d="M462.99 102.191C461.284 102.191 459.769 101.818 458.446 101.071C457.124 100.324 456.078 99.3002 455.31 97.9989C454.542 96.6762 454.158 95.1829 454.158 93.5189C454.158 91.8336 454.542 90.3402 455.31 89.0389C456.078 87.7376 457.124 86.7242 458.446 85.9989C459.769 85.2522 461.284 84.8789 462.99 84.8789C464.676 84.8789 466.18 85.2522 467.502 85.9989C468.846 86.7242 469.892 87.7376 470.638 89.0389C471.406 90.3189 471.79 91.8122 471.79 93.5189C471.79 95.2042 471.406 96.6976 470.638 97.9989C469.892 99.3002 468.846 100.324 467.502 101.071C466.18 101.818 464.676 102.191 462.99 102.191ZM462.99 99.5029C464.078 99.5029 465.049 99.2576 465.902 98.7669C466.777 98.2762 467.46 97.5829 467.95 96.6869C468.441 95.7696 468.686 94.7136 468.686 93.5189C468.686 92.3029 468.441 91.2576 467.95 90.3829C467.46 89.4869 466.777 88.7936 465.902 88.3029C465.049 87.8122 464.078 87.5669 462.99 87.5669C461.902 87.5669 460.932 87.8122 460.078 88.3029C459.225 88.7936 458.542 89.4869 458.03 90.3829C457.518 91.2576 457.262 92.3029 457.262 93.5189C457.262 94.7136 457.518 95.7696 458.03 96.6869C458.542 97.5829 459.225 98.2762 460.078 98.7669C460.932 99.2576 461.902 99.5029 462.99 99.5029Z" fill="white"/>
<path d="M425.426 102V79.5996H428.05L438.098 96.5276H436.69L446.61 79.5996H449.234L449.266 102H446.194L446.162 84.4316H446.898L438.066 99.2796H436.594L427.698 84.4316H428.498V102H425.426Z" fill="white"/>
<path d="M396.319 101.999L403.615 92.5271L403.583 94.0951L396.639 85.0391H400.063L405.375 92.0151H404.063L409.375 85.0391H412.735L405.695 94.1591L405.727 92.5271L413.087 101.999H409.599L403.999 94.5751L405.247 94.7671L399.743 101.999H396.319Z" fill="white"/>
<path d="M390.564 101.999V98.4149L390.404 97.7429V91.6309C390.404 90.3296 390.02 89.3269 389.252 88.6229C388.505 87.8976 387.374 87.5349 385.86 87.5349C384.857 87.5349 383.876 87.7056 382.916 88.0469C381.956 88.3669 381.145 88.8042 380.484 89.3589L379.204 87.0549C380.078 86.3509 381.124 85.8176 382.34 85.4549C383.577 85.0709 384.868 84.8789 386.212 84.8789C388.537 84.8789 390.329 85.4442 391.588 86.5749C392.846 87.7056 393.476 89.4336 393.476 91.7589V101.999H390.564ZM384.996 102.191C383.737 102.191 382.628 101.978 381.668 101.551C380.729 101.124 380.004 100.538 379.492 99.7909C378.98 99.0229 378.724 98.1589 378.724 97.1989C378.724 96.2816 378.937 95.4496 379.364 94.7029C379.812 93.9562 380.526 93.3589 381.508 92.9109C382.51 92.4629 383.854 92.2389 385.54 92.2389H390.916V94.4469H385.668C384.132 94.4469 383.097 94.7029 382.564 95.2149C382.03 95.7269 381.764 96.3456 381.764 97.0709C381.764 97.9029 382.094 98.5749 382.756 99.0869C383.417 99.5776 384.334 99.8229 385.508 99.8229C386.66 99.8229 387.662 99.5669 388.516 99.0549C389.39 98.5429 390.02 97.7962 390.404 96.8149L391.012 98.9269C390.606 99.9296 389.892 100.73 388.868 101.327C387.844 101.903 386.553 102.191 384.996 102.191Z" fill="white"/>
<path d="M358.383 101.999V85.0391H361.455V92.2391H371.119V85.0391H374.191V101.999H371.119V94.8951H361.455V101.999H358.383Z" fill="white"/>
<path d="M345.146 102.191C343.44 102.191 341.925 101.818 340.602 101.071C339.28 100.324 338.234 99.3002 337.466 97.9989C336.698 96.6762 336.314 95.1829 336.314 93.5189C336.314 91.8336 336.698 90.3402 337.466 89.0389C338.234 87.7376 339.28 86.7242 340.602 85.9989C341.925 85.2522 343.44 84.8789 345.146 84.8789C346.832 84.8789 348.336 85.2522 349.658 85.9989C351.002 86.7242 352.048 87.7376 352.794 89.0389C353.562 90.3189 353.946 91.8122 353.946 93.5189C353.946 95.2042 353.562 96.6976 352.794 97.9989C352.048 99.3002 351.002 100.324 349.658 101.071C348.336 101.818 346.832 102.191 345.146 102.191ZM345.146 99.5029C346.234 99.5029 347.205 99.2576 348.058 98.7669C348.933 98.2762 349.616 97.5829 350.106 96.6869C350.597 95.7696 350.842 94.7136 350.842 93.5189C350.842 92.3029 350.597 91.2576 350.106 90.3829C349.616 89.4869 348.933 88.7936 348.058 88.3029C347.205 87.8122 346.234 87.5669 345.146 87.5669C344.058 87.5669 343.088 87.8122 342.234 88.3029C341.381 88.7936 340.698 89.4869 340.186 90.3829C339.674 91.2576 339.418 92.3029 339.418 93.5189C339.418 94.7136 339.674 95.7696 340.186 96.6869C340.698 97.5829 341.381 98.2762 342.234 98.7669C343.088 99.2576 344.058 99.5029 345.146 99.5029Z" fill="white"/>
<path d="M315.664 102V85.04H318.736V97.392L329.136 85.04H331.92V102H328.848V89.648L318.48 102H315.664ZM323.6 82.832C322.043 82.832 320.816 82.4587 319.92 81.712C319.045 80.944 318.597 79.8453 318.576 78.416H320.656C320.677 79.2267 320.944 79.8667 321.456 80.336C321.989 80.8053 322.693 81.04 323.568 81.04C324.443 81.04 325.147 80.8053 325.68 80.336C326.213 79.8667 326.491 79.2267 326.512 78.416H328.656C328.635 79.8453 328.176 80.944 327.28 81.712C326.384 82.4587 325.157 82.832 323.6 82.832Z" fill="white"/>
<path d="M307.22 101.999V98.4149L307.06 97.7429V91.6309C307.06 90.3296 306.676 89.3269 305.908 88.6229C305.161 87.8976 304.031 87.5349 302.516 87.5349C301.513 87.5349 300.532 87.7056 299.572 88.0469C298.612 88.3669 297.801 88.8042 297.14 89.3589L295.86 87.0549C296.735 86.3509 297.78 85.8176 298.996 85.4549C300.233 85.0709 301.524 84.8789 302.868 84.8789C305.193 84.8789 306.985 85.4442 308.244 86.5749C309.503 87.7056 310.132 89.4336 310.132 91.7589V101.999H307.22ZM301.652 102.191C300.393 102.191 299.284 101.978 298.324 101.551C297.385 101.124 296.66 100.538 296.148 99.7909C295.636 99.0229 295.38 98.1589 295.38 97.1989C295.38 96.2816 295.593 95.4496 296.02 94.7029C296.468 93.9562 297.183 93.3589 298.164 92.9109C299.167 92.4629 300.511 92.2389 302.196 92.2389H307.572V94.4469H302.324C300.788 94.4469 299.753 94.7029 299.22 95.2149C298.687 95.7269 298.42 96.3456 298.42 97.0709C298.42 97.9029 298.751 98.5749 299.412 99.0869C300.073 99.5776 300.991 99.8229 302.164 99.8229C303.316 99.8229 304.319 99.5669 305.172 99.0549C306.047 98.5429 306.676 97.7962 307.06 96.8149L307.668 98.9269C307.263 99.9296 306.548 100.73 305.524 101.327C304.5 101.903 303.209 102.191 301.652 102.191Z" fill="white"/>
<path d="M283.937 102.191C282.529 102.191 281.239 101.871 280.065 101.231C278.913 100.57 277.985 99.5989 277.281 98.3189C276.599 97.0389 276.257 95.4389 276.257 93.5189C276.257 91.5989 276.588 89.9989 277.249 88.7189C277.932 87.4389 278.849 86.4789 280.001 85.8389C281.175 85.1989 282.487 84.8789 283.937 84.8789C285.601 84.8789 287.073 85.2416 288.353 85.9669C289.633 86.6922 290.647 87.7056 291.393 89.0069C292.14 90.2869 292.513 91.7909 292.513 93.5189C292.513 95.2469 292.14 96.7616 291.393 98.0629C290.647 99.3642 289.633 100.378 288.353 101.103C287.073 101.828 285.601 102.191 283.937 102.191ZM274.945 108.207V85.0389H277.889V89.6149L277.697 93.5509L278.017 97.4869V108.207H274.945ZM283.681 99.5029C284.769 99.5029 285.74 99.2576 286.593 98.7669C287.468 98.2762 288.151 97.5829 288.641 96.6869C289.153 95.7696 289.409 94.7136 289.409 93.5189C289.409 92.3029 289.153 91.2576 288.641 90.3829C288.151 89.4869 287.468 88.7936 286.593 88.3029C285.74 87.8122 284.769 87.5669 283.681 87.5669C282.615 87.5669 281.644 87.8122 280.769 88.3029C279.916 88.7936 279.233 89.4869 278.721 90.3829C278.231 91.2576 277.985 92.3029 277.985 93.5189C277.985 94.7136 278.231 95.7696 278.721 96.6869C279.233 97.5829 279.916 98.2762 280.769 98.7669C281.644 99.2576 282.615 99.5029 283.681 99.5029Z" fill="white"/>
<path d="M246.351 101.999L253.647 92.5271L253.615 94.0951L246.671 85.0391H250.095L255.407 92.0151H254.095L259.407 85.0391H262.767L255.727 94.1591L255.759 92.5271L263.119 101.999H259.631L254.031 94.5751L255.279 94.7671L249.775 101.999H246.351Z" fill="white"/>
<path d="M239.995 101.999V85.0391H243.067V101.999H239.995ZM230.875 90.7991C233.029 90.8204 234.661 91.3111 235.771 92.2711C236.901 93.2311 237.467 94.5857 237.467 96.3351C237.467 98.1697 236.848 99.5884 235.611 100.591C234.395 101.572 232.645 102.052 230.363 102.031L223.227 101.999V85.0391H226.299V90.7671L230.875 90.7991ZM230.139 99.6951C231.504 99.7164 232.549 99.4391 233.275 98.8631C234 98.2871 234.363 97.4337 234.363 96.3031C234.363 95.1937 234 94.3831 233.275 93.8711C232.571 93.3591 231.525 93.0924 230.139 93.0711L226.299 93.0071V99.6631L230.139 99.6951Z" fill="white"/>
<path d="M201.445 101.999V85.0391H204.517V92.2391H214.181V85.0391H217.253V101.999H214.181V94.8951H204.517V101.999H201.445Z" fill="white"/>
<path d="M188.999 102.223C187.719 102.223 186.46 102.063 185.223 101.743C184.007 101.402 182.919 100.922 181.959 100.303L182.887 97.967C183.698 98.479 184.626 98.8843 185.671 99.183C186.716 99.4603 187.772 99.599 188.839 99.599C189.82 99.599 190.663 99.4817 191.367 99.247C192.092 99.0123 192.647 98.6923 193.031 98.287C193.415 97.8603 193.607 97.3697 193.607 96.815C193.607 96.0257 193.255 95.4177 192.551 94.991C191.847 94.5643 190.866 94.351 189.607 94.351H186.535V92.143H189.415C190.162 92.143 190.812 92.0577 191.367 91.887C191.922 91.7163 192.348 91.4603 192.647 91.119C192.967 90.7563 193.127 90.3403 193.127 89.871C193.127 89.359 192.946 88.9217 192.583 88.559C192.22 88.1963 191.708 87.919 191.047 87.727C190.407 87.535 189.65 87.439 188.775 87.439C187.922 87.4603 187.047 87.5777 186.151 87.791C185.276 88.0043 184.38 88.335 183.463 88.783L182.631 86.383C183.655 85.8923 184.658 85.519 185.639 85.263C186.642 84.9857 187.634 84.8363 188.615 84.815C190.087 84.7723 191.399 84.943 192.551 85.327C193.703 85.6897 194.61 86.223 195.271 86.927C195.954 87.631 196.295 88.463 196.295 89.423C196.295 90.2337 196.039 90.959 195.527 91.599C195.015 92.2177 194.332 92.7083 193.479 93.071C192.626 93.4337 191.644 93.615 190.535 93.615L190.663 92.879C192.562 92.879 194.055 93.2523 195.143 93.999C196.231 94.7457 196.775 95.759 196.775 97.039C196.775 98.063 196.434 98.9697 195.751 99.759C195.068 100.527 194.14 101.135 192.967 101.583C191.815 102.01 190.492 102.223 188.999 102.223Z" fill="white"/>
<path d="M175.876 101.999V98.4149L175.716 97.7429V91.6309C175.716 90.3296 175.332 89.3269 174.564 88.6229C173.817 87.8976 172.687 87.5349 171.172 87.5349C170.169 87.5349 169.188 87.7056 168.228 88.0469C167.268 88.3669 166.457 88.8042 165.796 89.3589L164.516 87.0549C165.391 86.3509 166.436 85.8176 167.652 85.4549C168.889 85.0709 170.18 84.8789 171.524 84.8789C173.849 84.8789 175.641 85.4442 176.9 86.5749C178.159 87.7056 178.788 89.4336 178.788 91.7589V101.999H175.876ZM170.308 102.191C169.049 102.191 167.94 101.978 166.98 101.551C166.041 101.124 165.316 100.538 164.804 99.7909C164.292 99.0229 164.036 98.1589 164.036 97.1989C164.036 96.2816 164.249 95.4496 164.676 94.7029C165.124 93.9562 165.839 93.3589 166.82 92.9109C167.823 92.4629 169.167 92.2389 170.852 92.2389H176.228V94.4469H170.98C169.444 94.4469 168.409 94.7029 167.876 95.2149C167.343 95.7269 167.076 96.3456 167.076 97.0709C167.076 97.9029 167.407 98.5749 168.068 99.0869C168.729 99.5776 169.647 99.8229 170.82 99.8229C171.972 99.8229 172.975 99.5669 173.828 99.0549C174.703 98.5429 175.332 97.7962 175.716 96.8149L176.324 98.9269C175.919 99.9296 175.204 100.73 174.18 101.327C173.156 101.903 171.865 102.191 170.308 102.191Z" fill="white"/>
<path d="M152.594 102.191C151.186 102.191 149.895 101.871 148.722 101.231C147.57 100.57 146.642 99.5989 145.938 98.3189C145.255 97.0389 144.914 95.4389 144.914 93.5189C144.914 91.5989 145.244 89.9989 145.906 88.7189C146.588 87.4389 147.506 86.4789 148.658 85.8389C149.831 85.1989 151.143 84.8789 152.594 84.8789C154.258 84.8789 155.73 85.2416 157.01 85.9669C158.29 86.6922 159.303 87.7056 160.05 89.0069C160.796 90.2869 161.17 91.7909 161.17 93.5189C161.17 95.2469 160.796 96.7616 160.05 98.0629C159.303 99.3642 158.29 100.378 157.01 101.103C155.73 101.828 154.258 102.191 152.594 102.191ZM143.602 108.207V85.0389H146.546V89.6149L146.354 93.5509L146.674 97.4869V108.207H143.602ZM152.338 99.5029C153.426 99.5029 154.396 99.2576 155.25 98.7669C156.124 98.2762 156.807 97.5829 157.298 96.6869C157.81 95.7696 158.066 94.7136 158.066 93.5189C158.066 92.3029 157.81 91.2576 157.298 90.3829C156.807 89.4869 156.124 88.7936 155.25 88.3029C154.396 87.8122 153.426 87.5669 152.338 87.5669C151.271 87.5669 150.3 87.8122 149.426 88.3029C148.572 88.7936 147.89 89.4869 147.378 90.3829C146.887 91.2576 146.642 92.3029 146.642 93.5189C146.642 94.7136 146.887 95.7696 147.378 96.6869C147.89 97.5829 148.572 98.2762 149.426 98.7669C150.3 99.2576 151.271 99.5029 152.338 99.5029Z" fill="white"/>
<path d="M115.007 101.999L122.303 92.5271L122.271 94.0951L115.327 85.0391H118.751L124.063 92.0151H122.751L128.063 85.0391H131.423L124.383 94.1591L124.415 92.5271L131.775 101.999H128.287L122.687 94.5751L123.935 94.7671L118.431 101.999H115.007Z" fill="white"/>
<path d="M108.651 101.999V85.0391H111.723V101.999H108.651ZM99.5308 90.7991C101.685 90.8204 103.317 91.3111 104.427 92.2711C105.557 93.2311 106.123 94.5857 106.123 96.3351C106.123 98.1697 105.504 99.5884 104.267 100.591C103.051 101.572 101.301 102.052 99.0188 102.031L91.8828 101.999V85.0391H94.9548V90.7671L99.5308 90.7991ZM98.7948 99.6951C100.16 99.7164 101.205 99.4391 101.931 98.8631C102.656 98.2871 103.019 97.4337 103.019 96.3031C103.019 95.1937 102.656 94.3831 101.931 93.8711C101.227 93.3591 100.181 93.0924 98.7948 93.0711L94.9548 93.0071V99.6631L98.7948 99.6951Z" fill="white"/>
<path d="M66.3516 101.999V85.0391H69.5196L76.8156 97.5831H75.5356L83.0236 85.0391H85.9036V101.999H83.1196V88.4951L83.6316 88.7831L76.7836 100.079H75.4396L68.5596 88.5591L69.1676 88.4311V101.999H66.3516Z" fill="white"/>
<path d="M57.9074 101.999V98.4149L57.7474 97.7429V91.6309C57.7474 90.3296 57.3634 89.3269 56.5954 88.6229C55.8487 87.8976 54.7181 87.5349 53.2034 87.5349C52.2007 87.5349 51.2194 87.7056 50.2594 88.0469C49.2994 88.3669 48.4887 88.8042 47.8274 89.3589L46.5474 87.0549C47.422 86.3509 48.4674 85.8176 49.6834 85.4549C50.9207 85.0709 52.2114 84.8789 53.5554 84.8789C55.8807 84.8789 57.6727 85.4442 58.9314 86.5749C60.1901 87.7056 60.8194 89.4336 60.8194 91.7589V101.999H57.9074ZM52.3394 102.191C51.0807 102.191 49.9714 101.978 49.0114 101.551C48.0727 101.124 47.3474 100.538 46.8354 99.7909C46.3234 99.0229 46.0674 98.1589 46.0674 97.1989C46.0674 96.2816 46.2807 95.4496 46.7074 94.7029C47.1554 93.9562 47.87 93.3589 48.8514 92.9109C49.8541 92.4629 51.1981 92.2389 52.8834 92.2389H58.2594V94.4469H53.0114C51.4754 94.4469 50.4407 94.7029 49.9074 95.2149C49.374 95.7269 49.1074 96.3456 49.1074 97.0709C49.1074 97.9029 49.4381 98.5749 50.0994 99.0869C50.7607 99.5776 51.678 99.8229 52.8514 99.8229C54.0034 99.8229 55.006 99.5669 55.8594 99.0549C56.734 98.5429 57.3634 97.7962 57.7474 96.8149L58.3554 98.9269C57.9501 99.9296 57.2354 100.73 56.2114 101.327C55.1874 101.903 53.8967 102.191 52.3394 102.191Z" fill="white"/>
<path d="M36.6182 102.191C34.8902 102.191 33.3435 101.818 31.9782 101.071C30.6342 100.324 29.5782 99.3002 28.8102 97.9989C28.0422 96.6976 27.6582 95.2042 27.6582 93.5189C27.6582 91.8336 28.0422 90.3402 28.8102 89.0389C29.5782 87.7376 30.6342 86.7242 31.9782 85.9989C33.3435 85.2522 34.8902 84.8789 36.6182 84.8789C38.1542 84.8789 39.5195 85.1882 40.7142 85.8069C41.9302 86.4042 42.8689 87.3002 43.5302 88.4949L41.1942 89.9989C40.6395 89.1669 39.9569 88.5589 39.1462 88.1749C38.3569 87.7696 37.5035 87.5669 36.5862 87.5669C35.4769 87.5669 34.4849 87.8122 33.6102 88.3029C32.7355 88.7936 32.0422 89.4869 31.5302 90.3829C31.0182 91.2576 30.7622 92.3029 30.7622 93.5189C30.7622 94.7349 31.0182 95.7909 31.5302 96.6869C32.0422 97.5829 32.7355 98.2762 33.6102 98.7669C34.4849 99.2576 35.4769 99.5029 36.5862 99.5029C37.5035 99.5029 38.3569 99.3109 39.1462 98.9269C39.9569 98.5216 40.6395 97.9029 41.1942 97.0709L43.5302 98.5429C42.8689 99.7162 41.9302 100.623 40.7142 101.263C39.5195 101.882 38.1542 102.191 36.6182 102.191Z" fill="white"/>
<path d="M0.976562 101.999V85.0391H8.84856C10.8326 85.0391 12.3899 85.4231 13.5206 86.1911C14.6726 86.9377 15.2486 88.0044 15.2486 89.3911C15.2486 90.7777 14.7046 91.8551 13.6166 92.6231C12.5499 93.3697 11.1312 93.7431 9.36056 93.7431L9.84056 92.9111C11.8672 92.9111 13.3712 93.2844 14.3526 94.0311C15.3339 94.7777 15.8246 95.8764 15.8246 97.3271C15.8246 98.7991 15.2699 99.9511 14.1606 100.783C13.0726 101.594 11.3979 101.999 9.13656 101.999H0.976562ZM3.98456 99.6311H8.91256C10.1926 99.6311 11.1526 99.4391 11.7926 99.0551C12.4326 98.6497 12.7526 98.0097 12.7526 97.1351C12.7526 96.2391 12.4539 95.5884 11.8566 95.1831C11.2806 94.7564 10.3632 94.5431 9.10456 94.5431H3.98456V99.6311ZM3.98456 92.3351H8.59256C9.7659 92.3351 10.6512 92.1217 11.2486 91.6951C11.8672 91.2471 12.1766 90.6284 12.1766 89.8391C12.1766 89.0284 11.8672 88.4204 11.2486 88.0151C10.6512 87.6097 9.7659 87.4071 8.59256 87.4071H3.98456V92.3351Z" fill="white"/>
<path d="M468.915 67.7366L470.515 61.2726L470.931 63.1286C470.312 63.1286 469.79 62.9366 469.363 62.5526C468.958 62.1686 468.755 61.6459 468.755 60.9846C468.755 60.3446 468.958 59.8219 469.363 59.4166C469.79 59.0113 470.302 58.8086 470.899 58.8086C471.518 58.8086 472.019 59.0219 472.403 59.4486C472.787 59.8539 472.979 60.3659 472.979 60.9846C472.979 61.1979 472.958 61.4113 472.915 61.6246C472.894 61.8166 472.84 62.0513 472.755 62.3286C472.691 62.5846 472.584 62.9046 472.435 63.2886L470.931 67.7366H468.915Z" fill="white"/>
<path d="M459.848 51.7991C462.002 51.8204 463.645 52.3111 464.776 53.2711C465.906 54.2311 466.472 55.5857 466.472 57.3351C466.472 59.1697 465.853 60.5884 464.616 61.5911C463.378 62.5724 461.629 63.0524 459.368 63.0311L452.008 62.9991V46.0391H455.08V51.7671L459.848 51.7991ZM459.112 60.6951C460.498 60.7164 461.544 60.4391 462.248 59.8631C462.973 59.2871 463.336 58.4337 463.336 57.3031C463.336 56.1937 462.984 55.3831 462.28 54.8711C461.576 54.3591 460.52 54.0924 459.112 54.0711L455.08 54.0071V60.6631L459.112 60.6951Z" fill="white"/>
<path d="M433.147 60.3111L432.443 61.1111V46.0391H435.515V61.1111L434.747 60.3111H443.707L442.971 61.1111V46.0391H446.043V62.9991H421.883V46.0391H424.955V61.1111L424.219 60.3111H433.147ZM445.659 66.6151V62.1991L446.395 62.9991H442.811V60.3111H448.539V66.6151H445.659Z" fill="white"/>
<path d="M408.646 63.1909C406.94 63.1909 405.425 62.8176 404.102 62.0709C402.78 61.3242 401.734 60.3002 400.966 58.9989C400.198 57.6762 399.814 56.1829 399.814 54.5189C399.814 52.8336 400.198 51.3402 400.966 50.0389C401.734 48.7376 402.78 47.7242 404.102 46.9989C405.425 46.2522 406.94 45.8789 408.646 45.8789C410.332 45.8789 411.836 46.2522 413.158 46.9989C414.502 47.7242 415.548 48.7376 416.294 50.0389C417.062 51.3189 417.446 52.8122 417.446 54.5189C417.446 56.2042 417.062 57.6976 416.294 58.9989C415.548 60.3002 414.502 61.3242 413.158 62.0709C411.836 62.8176 410.332 63.1909 408.646 63.1909ZM408.646 60.5029C409.734 60.5029 410.705 60.2576 411.558 59.7669C412.433 59.2762 413.116 58.5829 413.606 57.6869C414.097 56.7696 414.342 55.7136 414.342 54.5189C414.342 53.3029 414.097 52.2576 413.606 51.3829C413.116 50.4869 412.433 49.7936 411.558 49.3029C410.705 48.8122 409.734 48.5669 408.646 48.5669C407.558 48.5669 406.588 48.8122 405.734 49.3029C404.881 49.7936 404.198 50.4869 403.686 51.3829C403.174 52.2576 402.918 53.3029 402.918 54.5189C402.918 55.7136 403.174 56.7696 403.686 57.6869C404.198 58.5829 404.881 59.2762 405.734 59.7669C406.588 60.2576 407.558 60.5029 408.646 60.5029Z" fill="white"/>
<path d="M375.852 62.9991V46.0391H379.02L386.316 58.5831H385.036L392.524 46.0391H395.404V62.9991H392.62V49.4951L393.132 49.7831L386.284 61.0791H384.94L378.06 49.5591L378.668 49.4311V62.9991H375.852Z" fill="white"/>
<path d="M362.615 63.1909C360.909 63.1909 359.394 62.8176 358.071 62.0709C356.749 61.3242 355.703 60.3002 354.935 58.9989C354.167 57.6762 353.783 56.1829 353.783 54.5189C353.783 52.8336 354.167 51.3402 354.935 50.0389C355.703 48.7376 356.749 47.7242 358.071 46.9989C359.394 46.2522 360.909 45.8789 362.615 45.8789C364.301 45.8789 365.805 46.2522 367.127 46.9989C368.471 47.7242 369.517 48.7376 370.263 50.0389C371.031 51.3189 371.415 52.8122 371.415 54.5189C371.415 56.2042 371.031 57.6976 370.263 58.9989C369.517 60.3002 368.471 61.3242 367.127 62.0709C365.805 62.8176 364.301 63.1909 362.615 63.1909ZM362.615 60.5029C363.703 60.5029 364.674 60.2576 365.527 59.7669C366.402 59.2762 367.085 58.5829 367.575 57.6869C368.066 56.7696 368.311 55.7136 368.311 54.5189C368.311 53.3029 368.066 52.2576 367.575 51.3829C367.085 50.4869 366.402 49.7936 365.527 49.3029C364.674 48.8122 363.703 48.5669 362.615 48.5669C361.527 48.5669 360.557 48.8122 359.703 49.3029C358.85 49.7936 358.167 50.4869 357.655 51.3829C357.143 52.2576 356.887 53.3029 356.887 54.5189C356.887 55.7136 357.143 56.7696 357.655 57.6869C358.167 58.5829 358.85 59.2762 359.703 59.7669C360.557 60.2576 361.527 60.5029 362.615 60.5029Z" fill="white"/>
<path d="M333.695 62.9991V46.0391H349.407V62.9991H346.335V47.9591L347.071 48.7271H336.031L336.767 47.9591V62.9991H333.695Z" fill="white"/>
<path d="M316.355 62.9991V57.0471L316.835 57.6231H311.427C309.166 57.6231 307.395 57.1431 306.115 56.1831C304.857 55.2231 304.227 53.8257 304.227 51.9911C304.227 50.0284 304.899 48.5457 306.243 47.5431C307.609 46.5404 309.422 46.0391 311.683 46.0391H319.107V62.9991H316.355ZM304.067 62.9991L308.675 56.5031H311.843L307.363 62.9991H304.067ZM316.355 56.0871V47.8631L316.835 48.7271H311.779C310.371 48.7271 309.283 48.9937 308.515 49.5271C307.747 50.0391 307.363 50.8924 307.363 52.0871C307.363 54.3057 308.793 55.4151 311.651 55.4151H316.835L316.355 56.0871Z" fill="white"/>
<path d="M295.149 63.1909C293.421 63.1909 291.875 62.8176 290.509 62.0709C289.165 61.3242 288.109 60.3002 287.341 58.9989C286.573 57.6976 286.189 56.2042 286.189 54.5189C286.189 52.8336 286.573 51.3402 287.341 50.0389C288.109 48.7376 289.165 47.7242 290.509 46.9989C291.875 46.2522 293.421 45.8789 295.149 45.8789C296.685 45.8789 298.051 46.1882 299.245 46.8069C300.461 47.4042 301.4 48.3002 302.061 49.4949L299.725 50.9989C299.171 50.1669 298.488 49.5589 297.677 49.1749C296.888 48.7696 296.035 48.5669 295.117 48.5669C294.008 48.5669 293.016 48.8122 292.141 49.3029C291.267 49.7936 290.573 50.4869 290.061 51.3829C289.549 52.2576 289.293 53.3029 289.293 54.5189C289.293 55.7349 289.549 56.7909 290.061 57.6869C290.573 58.5829 291.267 59.2762 292.141 59.7669C293.016 60.2576 294.008 60.5029 295.117 60.5029C296.035 60.5029 296.888 60.3109 297.677 59.9269C298.488 59.5216 299.171 58.9029 299.725 58.0709L302.061 59.5429C301.4 60.7162 300.461 61.6229 299.245 62.2629C298.051 62.8816 296.685 63.1909 295.149 63.1909Z" fill="white"/>
<path d="M276.087 62.9991V47.9271L276.855 48.7271H269.879V46.0391H285.367V48.7271H278.423L279.159 47.9271V62.9991H276.087Z" fill="white"/>
<path d="M260.903 63.1909C259.09 63.1909 257.49 62.8176 256.103 62.0709C254.738 61.3242 253.671 60.3002 252.903 58.9989C252.157 57.6976 251.783 56.2042 251.783 54.5189C251.783 52.8336 252.146 51.3402 252.871 50.0389C253.618 48.7376 254.631 47.7242 255.911 46.9989C257.213 46.2522 258.674 45.8789 260.295 45.8789C261.938 45.8789 263.389 46.2416 264.647 46.9669C265.906 47.6922 266.887 48.7162 267.591 50.0389C268.317 51.3402 268.679 52.8656 268.679 54.6149C268.679 54.7429 268.669 54.8922 268.647 55.0629C268.647 55.2336 268.637 55.3936 268.615 55.5429H254.183V53.3349H267.015L265.767 54.1029C265.789 53.0149 265.565 52.0442 265.095 51.1909C264.626 50.3376 263.975 49.6762 263.143 49.2069C262.333 48.7162 261.383 48.4709 260.295 48.4709C259.229 48.4709 258.279 48.7162 257.447 49.2069C256.615 49.6762 255.965 50.3482 255.495 51.2229C255.026 52.0762 254.791 53.0576 254.791 54.1669V54.6789C254.791 55.8096 255.047 56.8229 255.559 57.7189C256.093 58.5936 256.829 59.2762 257.767 59.7669C258.706 60.2576 259.783 60.5029 260.999 60.5029C262.002 60.5029 262.909 60.3322 263.719 59.9909C264.551 59.6496 265.277 59.1376 265.895 58.4549L267.591 60.4389C266.823 61.3349 265.863 62.0176 264.711 62.4869C263.581 62.9562 262.311 63.1909 260.903 63.1909Z" fill="white"/>
<path d="M236.403 69.3991C235.592 69.3991 234.803 69.2604 234.035 68.9831C233.267 68.7271 232.605 68.3431 232.051 67.8311L233.363 65.5271C233.789 65.9324 234.259 66.2417 234.771 66.4551C235.283 66.6684 235.827 66.7751 236.403 66.7751C237.149 66.7751 237.768 66.5831 238.259 66.1991C238.749 65.8151 239.208 65.1324 239.635 64.1511L240.691 61.8151L241.011 61.4311L247.667 46.0391H250.675L242.451 64.6951C241.96 65.8897 241.405 66.8284 240.787 67.5111C240.189 68.1937 239.528 68.6737 238.803 68.9511C238.077 69.2497 237.277 69.3991 236.403 69.3991ZM240.435 63.5431L232.691 46.0391H235.891L242.483 61.1431L240.435 63.5431Z" fill="white"/>
<path d="M222.66 63.2561C221.252 63.2561 220.004 63.0321 218.916 62.5841C217.849 62.1361 216.932 61.4748 216.164 60.6001C215.396 59.7041 214.809 58.5841 214.404 57.2401C214.02 55.8748 213.828 54.2748 213.828 52.4401C213.828 50.9895 213.956 49.6881 214.212 48.5361C214.468 47.3841 214.831 46.3601 215.3 45.4641C215.791 44.5681 216.388 43.7895 217.092 43.1281C217.817 42.4668 218.628 41.9228 219.524 41.4961C220.441 41.0481 221.444 40.7068 222.532 40.4721L230.276 38.7441L230.724 41.5921L223.588 43.1281C223.161 43.2135 222.649 43.3415 222.052 43.5121C221.455 43.6828 220.847 43.9495 220.228 44.3121C219.609 44.6535 219.033 45.1335 218.5 45.7521C217.967 46.3708 217.54 47.1815 217.22 48.1841C216.9 49.1655 216.74 50.3815 216.74 51.8321C216.74 52.2375 216.751 52.5468 216.772 52.7601C216.793 52.9735 216.815 53.1868 216.836 53.4001C216.879 53.6135 216.911 53.9335 216.932 54.3601L215.652 53.0481C215.993 51.8748 216.537 50.8508 217.284 49.9761C218.031 49.1015 218.927 48.4295 219.972 47.9601C221.039 47.4695 222.201 47.2241 223.46 47.2241C225.039 47.2241 226.436 47.5655 227.652 48.2481C228.889 48.9308 229.86 49.8695 230.564 51.0641C231.268 52.2588 231.62 53.6241 231.62 55.1601C231.62 56.7175 231.247 58.1148 230.5 59.3521C229.775 60.5681 228.74 61.5281 227.396 62.2321C226.052 62.9148 224.473 63.2561 222.66 63.2561ZM222.948 60.6961C224.036 60.6961 224.996 60.4615 225.828 59.9921C226.66 59.5015 227.311 58.8508 227.78 58.0401C228.249 57.2081 228.484 56.2801 228.484 55.2561C228.484 54.2321 228.249 53.3255 227.78 52.5361C227.311 51.7468 226.66 51.1281 225.828 50.6801C224.996 50.2108 224.015 49.9761 222.884 49.9761C221.817 49.9761 220.857 50.2001 220.004 50.6481C219.151 51.0748 218.489 51.6828 218.02 52.4721C217.551 53.2401 217.316 54.1361 217.316 55.1601C217.316 56.1841 217.551 57.1228 218.02 57.9761C218.511 58.8081 219.172 59.4695 220.004 59.9601C220.857 60.4508 221.839 60.6961 222.948 60.6961Z" fill="white"/>
<path d="M202.278 63.1909C200.465 63.1909 198.865 62.8176 197.478 62.0709C196.113 61.3242 195.046 60.3002 194.278 58.9989C193.532 57.6976 193.158 56.2042 193.158 54.5189C193.158 52.8336 193.521 51.3402 194.246 50.0389C194.993 48.7376 196.006 47.7242 197.286 46.9989C198.588 46.2522 200.049 45.8789 201.67 45.8789C203.313 45.8789 204.764 46.2416 206.022 46.9669C207.281 47.6922 208.262 48.7162 208.966 50.0389C209.692 51.3402 210.054 52.8656 210.054 54.6149C210.054 54.7429 210.044 54.8922 210.022 55.0629C210.022 55.2336 210.012 55.3936 209.99 55.5429H195.558V53.3349H208.39L207.142 54.1029C207.164 53.0149 206.94 52.0442 206.47 51.1909C206.001 50.3376 205.35 49.6762 204.518 49.2069C203.708 48.7162 202.758 48.4709 201.67 48.4709C200.604 48.4709 199.654 48.7162 198.822 49.2069C197.99 49.6762 197.34 50.3482 196.87 51.2229C196.401 52.0762 196.166 53.0576 196.166 54.1669V54.6789C196.166 55.8096 196.422 56.8229 196.934 57.7189C197.468 58.5936 198.204 59.2762 199.142 59.7669C200.081 60.2576 201.158 60.5029 202.374 60.5029C203.377 60.5029 204.284 60.3322 205.094 59.9909C205.926 59.6496 206.652 59.1376 207.27 58.4549L208.966 60.4389C208.198 61.3349 207.238 62.0176 206.086 62.4869C204.956 62.9562 203.686 63.1909 202.278 63.1909Z" fill="white"/>
<path d="M181.687 63.1909C180.279 63.1909 178.989 62.8709 177.815 62.2309C176.663 61.5696 175.735 60.5989 175.031 59.3189C174.349 58.0389 174.007 56.4389 174.007 54.5189C174.007 52.5989 174.338 50.9989 174.999 49.7189C175.682 48.4389 176.599 47.4789 177.751 46.8389C178.925 46.1989 180.237 45.8789 181.687 45.8789C183.351 45.8789 184.823 46.2416 186.103 46.9669C187.383 47.6922 188.397 48.7056 189.143 50.0069C189.89 51.2869 190.263 52.7909 190.263 54.5189C190.263 56.2469 189.89 57.7616 189.143 59.0629C188.397 60.3642 187.383 61.3776 186.103 62.1029C184.823 62.8282 183.351 63.1909 181.687 63.1909ZM172.695 69.2069V46.0389H175.639V50.6149L175.447 54.5509L175.767 58.4869V69.2069H172.695ZM181.431 60.5029C182.519 60.5029 183.49 60.2576 184.343 59.7669C185.218 59.2762 185.901 58.5829 186.391 57.6869C186.903 56.7696 187.159 55.7136 187.159 54.5189C187.159 53.3029 186.903 52.2576 186.391 51.3829C185.901 50.4869 185.218 49.7936 184.343 49.3029C183.49 48.8122 182.519 48.5669 181.431 48.5669C180.365 48.5669 179.394 48.8122 178.519 49.3029C177.666 49.7936 176.983 50.4869 176.471 51.3829C175.981 52.2576 175.735 53.3029 175.735 54.5189C175.735 55.7136 175.981 56.7696 176.471 57.6869C176.983 58.5829 177.666 59.2762 178.519 59.7669C179.394 60.2576 180.365 60.5029 181.431 60.5029Z" fill="white"/>
<path d="M160.274 62.9991V47.9271L161.042 48.7271H154.066V46.0391H169.554V48.7271H162.61L163.346 47.9271V62.9991H160.274Z" fill="white"/>
<path d="M122.789 62.9991V46.0391H125.957L133.253 58.5831H131.973L139.461 46.0391H142.341V62.9991H139.557V49.4951L140.069 49.7831L133.221 61.0791H131.877L124.997 49.5591L125.605 49.4311V62.9991H122.789Z" fill="white"/>
<path d="M113.745 62.9991V46.0391H116.817V62.9991H113.745ZM104.625 51.7991C106.779 51.8204 108.411 52.3111 109.521 53.2711C110.651 54.2311 111.217 55.5857 111.217 57.3351C111.217 59.1697 110.598 60.5884 109.361 61.5911C108.145 62.5724 106.395 63.0524 104.113 63.0311L96.9766 62.9991V46.0391H100.049V51.7671L104.625 51.7991ZM103.889 60.6951C105.254 60.7164 106.299 60.4391 107.025 59.8631C107.75 59.2871 108.113 58.4337 108.113 57.3031C108.113 56.1937 107.75 55.3831 107.025 54.8711C106.321 54.3591 105.275 54.0924 103.889 54.0711L100.049 54.0071V60.6631L103.889 60.6951Z" fill="white"/>
<path d="M83.9373 63.1909C82.5293 63.1909 81.2386 62.8709 80.0653 62.2309C78.9133 61.5696 77.9853 60.5989 77.2813 59.3189C76.5986 58.0389 76.2573 56.4389 76.2573 54.5189C76.2573 52.5989 76.588 50.9989 77.2493 49.7189C77.932 48.4389 78.8493 47.4789 80.0013 46.8389C81.1746 46.1989 82.4867 45.8789 83.9373 45.8789C85.6013 45.8789 87.0733 46.2416 88.3533 46.9669C89.6333 47.6922 90.6467 48.7056 91.3933 50.0069C92.14 51.2869 92.5133 52.7909 92.5133 54.5189C92.5133 56.2469 92.14 57.7616 91.3933 59.0629C90.6467 60.3642 89.6333 61.3776 88.3533 62.1029C87.0733 62.8282 85.6013 63.1909 83.9373 63.1909ZM74.9453 69.2069V46.0389H77.8893V50.6149L77.6973 54.5509L78.0173 58.4869V69.2069H74.9453ZM83.6813 60.5029C84.7693 60.5029 85.74 60.2576 86.5933 59.7669C87.468 59.2762 88.1506 58.5829 88.6413 57.6869C89.1533 56.7696 89.4093 55.7136 89.4093 54.5189C89.4093 53.3029 89.1533 52.2576 88.6413 51.3829C88.1506 50.4869 87.468 49.7936 86.5933 49.3029C85.74 48.8122 84.7693 48.5669 83.6813 48.5669C82.6146 48.5669 81.644 48.8122 80.7693 49.3029C79.916 49.7936 79.2333 50.4869 78.7213 51.3829C78.2306 52.2576 77.9853 53.3029 77.9853 54.5189C77.9853 55.7136 78.2306 56.7696 78.7213 57.6869C79.2333 58.5829 79.916 59.2762 80.7693 59.7669C81.644 60.2576 82.6146 60.5029 83.6813 60.5029Z" fill="white"/>
<path d="M61.709 63.1909C60.0023 63.1909 58.4876 62.8176 57.165 62.0709C55.8423 61.3242 54.797 60.3002 54.029 58.9989C53.261 57.6762 52.877 56.1829 52.877 54.5189C52.877 52.8336 53.261 51.3402 54.029 50.0389C54.797 48.7376 55.8423 47.7242 57.165 46.9989C58.4876 46.2522 60.0023 45.8789 61.709 45.8789C63.3943 45.8789 64.8983 46.2522 66.221 46.9989C67.565 47.7242 68.6103 48.7376 69.357 50.0389C70.125 51.3189 70.509 52.8122 70.509 54.5189C70.509 56.2042 70.125 57.6976 69.357 58.9989C68.6103 60.3002 67.565 61.3242 66.221 62.0709C64.8983 62.8176 63.3943 63.1909 61.709 63.1909ZM61.709 60.5029C62.797 60.5029 63.7676 60.2576 64.621 59.7669C65.4956 59.2762 66.1783 58.5829 66.6689 57.6869C67.1596 56.7696 67.405 55.7136 67.405 54.5189C67.405 53.3029 67.1596 52.2576 66.6689 51.3829C66.1783 50.4869 65.4956 49.7936 64.621 49.3029C63.7676 48.8122 62.797 48.5669 61.709 48.5669C60.621 48.5669 59.6503 48.8122 58.797 49.3029C57.9436 49.7936 57.261 50.4869 56.749 51.3829C56.237 52.2576 55.981 53.3029 55.981 54.5189C55.981 55.7136 56.237 56.7696 56.749 57.6869C57.261 58.5829 57.9436 59.2762 58.797 59.7669C59.6503 60.2576 60.621 60.5029 61.709 60.5029Z" fill="white"/>
<path d="M42.7744 62.9991V47.9271L43.5424 48.7271H36.5664V46.0391H52.0544V48.7271H45.1104L45.8464 47.9271V62.9991H42.7744Z" fill="white"/>
<path d="M26.8027 63.1909C25.096 63.1909 23.5814 62.8176 22.2587 62.0709C20.936 61.3242 19.8907 60.3002 19.1227 58.9989C18.3547 57.6762 17.9707 56.1829 17.9707 54.5189C17.9707 52.8336 18.3547 51.3402 19.1227 50.0389C19.8907 48.7376 20.936 47.7242 22.2587 46.9989C23.5814 46.2522 25.096 45.8789 26.8027 45.8789C28.488 45.8789 29.992 46.2522 31.3147 46.9989C32.6587 47.7242 33.704 48.7376 34.4507 50.0389C35.2187 51.3189 35.6027 52.8122 35.6027 54.5189C35.6027 56.2042 35.2187 57.6976 34.4507 58.9989C33.704 60.3002 32.6587 61.3242 31.3147 62.0709C29.992 62.8176 28.488 63.1909 26.8027 63.1909ZM26.8027 60.5029C27.8907 60.5029 28.8614 60.2576 29.7147 59.7669C30.5894 59.2762 31.272 58.5829 31.7627 57.6869C32.2534 56.7696 32.4987 55.7136 32.4987 54.5189C32.4987 53.3029 32.2534 52.2576 31.7627 51.3829C31.272 50.4869 30.5894 49.7936 29.7147 49.3029C28.8614 48.8122 27.8907 48.5669 26.8027 48.5669C25.7147 48.5669 24.744 48.8122 23.8907 49.3029C23.0374 49.7936 22.3547 50.4869 21.8427 51.3829C21.3307 52.2576 21.0747 53.3029 21.0747 54.5189C21.0747 55.7136 21.3307 56.7696 21.8427 57.6869C22.3547 58.5829 23.0374 59.2762 23.8907 59.7669C24.744 60.2576 25.7147 60.5029 26.8027 60.5029Z" fill="white"/>
<path d="M13.2646 62.9991L6.70456 54.7431L9.23256 53.2071L16.8806 62.9991H13.2646ZM0.976562 62.9991V46.0391H4.04856V62.9991H0.976562ZM3.12056 55.8311V53.2071H8.72056V55.8311H3.12056ZM9.48856 54.8711L6.64056 54.4871L13.1366 46.0391H16.4326L9.48856 54.8711Z" fill="white"/>
<path d="M505.477 28.7366L507.077 22.2726L507.493 24.1286C506.875 24.1286 506.352 23.9366 505.925 23.5526C505.52 23.1686 505.317 22.6459 505.317 21.9846C505.317 21.3446 505.52 20.8219 505.925 20.4166C506.352 20.0113 506.864 19.8086 507.461 19.8086C508.08 19.8086 508.581 20.0219 508.965 20.4486C509.349 20.8539 509.541 21.3659 509.541 21.9846C509.541 22.1979 509.52 22.4113 509.477 22.6246C509.456 22.8166 509.403 23.0513 509.317 23.3286C509.253 23.5846 509.147 23.9046 508.997 24.2886L507.493 28.7366H505.477Z" fill="white"/>
<path d="M484.539 24V7.04002H487.611V19.392L498.011 7.04002H500.795V24H497.723V11.648L487.355 24H484.539ZM492.475 4.83202C490.918 4.83202 489.691 4.45868 488.795 3.71201C487.92 2.94401 487.472 1.84535 487.451 0.416016H489.531C489.552 1.22668 489.819 1.86668 490.331 2.33601C490.864 2.80535 491.568 3.04002 492.443 3.04002C493.318 3.04002 494.022 2.80535 494.555 2.33601C495.088 1.86668 495.366 1.22668 495.387 0.416016H497.531C497.51 1.84535 497.051 2.94401 496.155 3.71201C495.259 4.45868 494.032 4.83202 492.475 4.83202Z" fill="white"/>
<path d="M471.997 24.1909C470.184 24.1909 468.584 23.8176 467.197 23.0709C465.832 22.3242 464.765 21.3002 463.997 19.9989C463.25 18.6976 462.877 17.2042 462.877 15.5189C462.877 13.8336 463.24 12.3402 463.965 11.0389C464.712 9.73758 465.725 8.72424 467.005 7.99891C468.306 7.25224 469.768 6.87891 471.389 6.87891C473.032 6.87891 474.482 7.24157 475.741 7.96691C477 8.69224 477.981 9.71624 478.685 11.0389C479.41 12.3402 479.773 13.8656 479.773 15.6149C479.773 15.7429 479.762 15.8922 479.741 16.0629C479.741 16.2336 479.73 16.3936 479.709 16.5429H465.277V14.3349H478.109L476.861 15.1029C476.882 14.0149 476.658 13.0442 476.189 12.1909C475.72 11.3376 475.069 10.6762 474.237 10.2069C473.426 9.71624 472.477 9.47091 471.389 9.47091C470.322 9.47091 469.373 9.71624 468.541 10.2069C467.709 10.6762 467.058 11.3482 466.589 12.2229C466.12 13.0762 465.885 14.0576 465.885 15.1669V15.6789C465.885 16.8096 466.141 17.8229 466.653 18.7189C467.186 19.5936 467.922 20.2762 468.861 20.7669C469.8 21.2576 470.877 21.5029 472.093 21.5029C473.096 21.5029 474.002 21.3322 474.813 20.9909C475.645 20.6496 476.37 20.1376 476.989 19.4549L478.685 21.4389C477.917 22.3349 476.957 23.0176 475.805 23.4869C474.674 23.9562 473.405 24.1909 471.997 24.1909Z" fill="white"/>
<path d="M454.78 22.5591V9.72706H447.42L447.26 12.9911C447.217 14.0577 447.142 15.0924 447.036 16.0951C446.95 17.0764 446.801 17.9831 446.588 18.8151C446.396 19.6471 446.108 20.3297 445.724 20.8631C445.34 21.3964 444.828 21.7271 444.188 21.8551L441.148 21.3111C441.809 21.3324 442.342 21.1191 442.748 20.6711C443.153 20.2017 443.462 19.5617 443.676 18.7511C443.91 17.9404 444.081 17.0231 444.188 15.9991C444.294 14.9537 444.38 13.8764 444.444 12.7671L444.7 7.03906H457.852V22.5591H454.78ZM440.476 27.9351V21.3111H460.444V27.9351H457.564V23.9991H443.388V27.9351H440.476Z" fill="white"/>
<path d="M415.289 23.9989V7.03891H418.361V13.9829H423.481V16.8309H418.361V23.9989H415.289ZM430.297 24.1909C428.633 24.1909 427.15 23.8176 425.849 23.0709C424.569 22.3242 423.556 21.3002 422.809 19.9989C422.062 18.6762 421.689 17.1829 421.689 15.5189C421.689 13.8336 422.062 12.3402 422.809 11.0389C423.556 9.71624 424.569 8.69224 425.849 7.96691C427.15 7.24157 428.633 6.87891 430.297 6.87891C431.94 6.87891 433.412 7.24157 434.713 7.96691C436.014 8.69224 437.038 9.71624 437.785 11.0389C438.532 12.3402 438.905 13.8336 438.905 15.5189C438.905 17.2042 438.532 18.6976 437.785 19.9989C437.038 21.3002 436.014 22.3242 434.713 23.0709C433.412 23.8176 431.94 24.1909 430.297 24.1909ZM430.297 21.5029C431.364 21.5029 432.313 21.2576 433.145 20.7669C433.977 20.2549 434.638 19.5616 435.129 18.6869C435.62 17.7909 435.865 16.7349 435.865 15.5189C435.865 14.3029 435.62 13.2576 435.129 12.3829C434.638 11.4869 433.977 10.7936 433.145 10.3029C432.313 9.81224 431.364 9.56691 430.297 9.56691C429.252 9.56691 428.302 9.81224 427.449 10.3029C426.617 10.7936 425.956 11.4869 425.465 12.3829C424.974 13.2576 424.729 14.3029 424.729 15.5189C424.729 16.7349 424.974 17.7909 425.465 18.6869C425.956 19.5616 426.617 20.2549 427.449 20.7669C428.302 21.2576 429.252 21.5029 430.297 21.5029Z" fill="white"/>
<path d="M391.973 23.9671L392.165 21.3751C392.314 21.3964 392.453 21.4177 392.581 21.4391C392.709 21.4604 392.826 21.4711 392.933 21.4711C393.615 21.4711 394.149 21.2364 394.533 20.7671C394.938 20.2977 395.237 19.6791 395.429 18.9111C395.621 18.1217 395.759 17.2364 395.845 16.2551C395.93 15.2737 395.994 14.2924 396.037 13.3111L396.325 7.03906H409.349V23.9991H406.277V8.83106L407.013 9.72706H398.309L399.013 8.79906L398.789 13.5031C398.725 14.9964 398.607 16.3937 398.437 17.6951C398.266 18.9964 397.999 20.1377 397.637 21.1191C397.295 22.1004 396.815 22.8684 396.197 23.4231C395.599 23.9777 394.821 24.2551 393.861 24.2551C393.583 24.2551 393.285 24.2231 392.965 24.1591C392.666 24.1164 392.335 24.0524 391.973 23.9671Z" fill="white"/>
<path d="M363.977 23.9991V7.03906H367.049V19.3911L377.449 7.03906H380.233V23.9991H377.161V11.6471L366.793 23.9991H363.977Z" fill="white"/>
<path d="M351.556 23.9991V8.92706L352.324 9.72706H345.348V7.03906H360.836V9.72706H353.892L354.628 8.92706V23.9991H351.556Z" fill="white"/>
<path d="M325.977 24V7.04002H329.049V19.392L339.449 7.04002H342.233V24H339.161V11.648L328.793 24H325.977ZM333.913 4.83202C332.355 4.83202 331.129 4.45868 330.233 3.71201C329.358 2.94401 328.91 1.84535 328.889 0.416016H330.969C330.99 1.22668 331.257 1.86668 331.769 2.33601C332.302 2.80535 333.006 3.04002 333.881 3.04002C334.755 3.04002 335.459 2.80535 335.993 2.33601C336.526 1.86668 336.803 1.22668 336.825 0.416016H338.969C338.947 1.84535 338.489 2.94401 337.593 3.71201C336.697 4.45868 335.47 4.83202 333.913 4.83202Z" fill="white"/>
<path d="M317.532 23.9989V20.4149L317.372 19.7429V13.6309C317.372 12.3296 316.988 11.3269 316.22 10.6229C315.474 9.89758 314.343 9.53491 312.828 9.53491C311.826 9.53491 310.844 9.70558 309.884 10.0469C308.924 10.3669 308.114 10.8042 307.452 11.3589L306.172 9.05491C307.047 8.35091 308.092 7.81758 309.308 7.45491C310.546 7.07091 311.836 6.87891 313.18 6.87891C315.506 6.87891 317.298 7.44424 318.556 8.57491C319.815 9.70558 320.444 11.4336 320.444 13.7589V23.9989H317.532ZM311.964 24.1909C310.706 24.1909 309.596 23.9776 308.636 23.5509C307.698 23.1242 306.972 22.5376 306.46 21.7909C305.948 21.0229 305.692 20.1589 305.692 19.1989C305.692 18.2816 305.906 17.4496 306.332 16.7029C306.78 15.9562 307.495 15.3589 308.476 14.9109C309.479 14.4629 310.823 14.2389 312.508 14.2389H317.884V16.4469H312.636C311.1 16.4469 310.066 16.7029 309.532 17.2149C308.999 17.7269 308.732 18.3456 308.732 19.0709C308.732 19.9029 309.063 20.5749 309.724 21.0869C310.386 21.5776 311.303 21.8229 312.476 21.8229C313.628 21.8229 314.631 21.5669 315.484 21.0549C316.359 20.5429 316.988 19.7962 317.372 18.8149L317.98 20.9269C317.575 21.9296 316.86 22.7296 315.836 23.3269C314.812 23.9029 313.522 24.1909 311.964 24.1909Z" fill="white"/>
<path d="M285.352 23.9991V7.03906H288.424V14.2391H298.088V7.03906H301.16V23.9991H298.088V16.8951H288.424V23.9991H285.352Z" fill="white"/>
<path d="M264.337 23.9991V8.92706L265.105 9.72706H258.129V7.03906H273.617V9.72706H266.673L267.409 8.92706V23.9991H264.337Z" fill="white"/>
<path d="M249.153 24.1909C247.34 24.1909 245.74 23.8176 244.353 23.0709C242.988 22.3242 241.921 21.3002 241.153 19.9989C240.407 18.6976 240.033 17.2042 240.033 15.5189C240.033 13.8336 240.396 12.3402 241.121 11.0389C241.868 9.73758 242.881 8.72424 244.161 7.99891C245.463 7.25224 246.924 6.87891 248.545 6.87891C250.188 6.87891 251.639 7.24157 252.897 7.96691C254.156 8.69224 255.137 9.71624 255.841 11.0389C256.567 12.3402 256.929 13.8656 256.929 15.6149C256.929 15.7429 256.919 15.8922 256.897 16.0629C256.897 16.2336 256.887 16.3936 256.865 16.5429H242.433V14.3349H255.265L254.017 15.1029C254.039 14.0149 253.815 13.0442 253.345 12.1909C252.876 11.3376 252.225 10.6762 251.393 10.2069C250.583 9.71624 249.633 9.47091 248.545 9.47091C247.479 9.47091 246.529 9.71624 245.697 10.2069C244.865 10.6762 244.215 11.3482 243.745 12.2229C243.276 13.0762 243.041 14.0576 243.041 15.1669V15.6789C243.041 16.8096 243.297 17.8229 243.809 18.7189C244.343 19.5936 245.079 20.2762 246.017 20.7669C246.956 21.2576 248.033 21.5029 249.249 21.5029C250.252 21.5029 251.159 21.3322 251.969 20.9909C252.801 20.6496 253.527 20.1376 254.145 19.4549L255.841 21.4389C255.073 22.3349 254.113 23.0176 252.961 23.4869C251.831 23.9562 250.561 24.1909 249.153 24.1909Z" fill="white"/>
<path d="M235.136 23.9991L229.728 15.7431L232.256 14.2071L238.784 23.9991H235.136ZM226.208 16.8311V14.2071H231.712V16.8311H226.208ZM232.544 15.8711L229.632 15.4871L235.04 7.03906H238.336L232.544 15.8711ZM216.096 23.9991H212.448L218.944 14.2071L221.472 15.7431L216.096 23.9991ZM227.136 23.9991H224.064V7.03906H227.136V23.9991ZM224.992 16.8311H219.52V14.2071H224.992V16.8311ZM218.688 15.8711L212.896 7.03906H216.16L221.568 15.4871L218.688 15.8711Z" fill="white"/>
<path d="M202.334 24.1909C200.627 24.1909 199.113 23.8176 197.79 23.0709C196.467 22.3242 195.422 21.3002 194.654 19.9989C193.886 18.6762 193.502 17.1829 193.502 15.5189C193.502 13.8336 193.886 12.3402 194.654 11.0389C195.422 9.73758 196.467 8.72424 197.79 7.99891C199.113 7.25224 200.627 6.87891 202.334 6.87891C204.019 6.87891 205.523 7.25224 206.846 7.99891C208.19 8.72424 209.235 9.73758 209.982 11.0389C210.75 12.3189 211.134 13.8122 211.134 15.5189C211.134 17.2042 210.75 18.6976 209.982 19.9989C209.235 21.3002 208.19 22.3242 206.846 23.0709C205.523 23.8176 204.019 24.1909 202.334 24.1909ZM202.334 21.5029C203.422 21.5029 204.393 21.2576 205.246 20.7669C206.121 20.2762 206.803 19.5829 207.294 18.6869C207.785 17.7696 208.03 16.7136 208.03 15.5189C208.03 14.3029 207.785 13.2576 207.294 12.3829C206.803 11.4869 206.121 10.7936 205.246 10.3029C204.393 9.81224 203.422 9.56691 202.334 9.56691C201.246 9.56691 200.275 9.81224 199.422 10.3029C198.569 10.7936 197.886 11.4869 197.374 12.3829C196.862 13.2576 196.606 14.3029 196.606 15.5189C196.606 16.7136 196.862 17.7696 197.374 18.6869C197.886 19.5829 198.569 20.2762 199.422 20.7669C200.275 21.2576 201.246 21.5029 202.334 21.5029Z" fill="white"/>
<path d="M169.539 23.9991V7.03906H172.707L180.003 19.5831H178.723L186.211 7.03906H189.091V23.9991H186.307V10.4951L186.819 10.7831L179.971 22.0791H178.627L171.747 10.5591L172.355 10.4311V23.9991H169.539Z" fill="white"/>
<path d="M147.906 24.1909C146.498 24.1909 145.207 23.8709 144.034 23.2309C142.882 22.5696 141.954 21.5989 141.25 20.3189C140.567 19.0389 140.226 17.4389 140.226 15.5189C140.226 13.5989 140.557 11.9989 141.218 10.7189C141.901 9.43891 142.818 8.47891 143.97 7.83891C145.143 7.19891 146.455 6.87891 147.906 6.87891C149.57 6.87891 151.042 7.24157 152.322 7.96691C153.602 8.69224 154.615 9.70558 155.362 11.0069C156.109 12.2869 156.482 13.7909 156.482 15.5189C156.482 17.2469 156.109 18.7616 155.362 20.0629C154.615 21.3642 153.602 22.3776 152.322 23.1029C151.042 23.8282 149.57 24.1909 147.906 24.1909ZM138.914 30.2069V7.03891H141.858V11.6149L141.666 15.5509L141.986 19.4869V30.2069H138.914ZM147.65 21.5029C148.738 21.5029 149.709 21.2576 150.562 20.7669C151.437 20.2762 152.119 19.5829 152.61 18.6869C153.122 17.7696 153.378 16.7136 153.378 15.5189C153.378 14.3029 153.122 13.2576 152.61 12.3829C152.119 11.4869 151.437 10.7936 150.562 10.3029C149.709 9.81224 148.738 9.56691 147.65 9.56691C146.583 9.56691 145.613 9.81224 144.738 10.3029C143.885 10.7936 143.202 11.4869 142.69 12.3829C142.199 13.2576 141.954 14.3029 141.954 15.5189C141.954 16.7136 142.199 17.7696 142.69 18.6869C143.202 19.5829 143.885 20.2762 144.738 20.7669C145.613 21.2576 146.583 21.5029 147.65 21.5029Z" fill="white"/>
<path d="M126.372 24.1909C124.559 24.1909 122.959 23.8176 121.572 23.0709C120.207 22.3242 119.14 21.3002 118.372 19.9989C117.625 18.6976 117.252 17.2042 117.252 15.5189C117.252 13.8336 117.615 12.3402 118.34 11.0389C119.087 9.73758 120.1 8.72424 121.38 7.99891C122.681 7.25224 124.143 6.87891 125.764 6.87891C127.407 6.87891 128.857 7.24157 130.116 7.96691C131.375 8.69224 132.356 9.71624 133.06 11.0389C133.785 12.3402 134.148 13.8656 134.148 15.6149C134.148 15.7429 134.137 15.8922 134.116 16.0629C134.116 16.2336 134.105 16.3936 134.084 16.5429H119.652V14.3349H132.484L131.236 15.1029C131.257 14.0149 131.033 13.0442 130.564 12.1909C130.095 11.3376 129.444 10.6762 128.612 10.2069C127.801 9.71624 126.852 9.47091 125.764 9.47091C124.697 9.47091 123.748 9.71624 122.916 10.2069C122.084 10.6762 121.433 11.3482 120.964 12.2229C120.495 13.0762 120.26 14.0576 120.26 15.1669V15.6789C120.26 16.8096 120.516 17.8229 121.028 18.7189C121.561 19.5936 122.297 20.2762 123.236 20.7669C124.175 21.2576 125.252 21.5029 126.468 21.5029C127.471 21.5029 128.377 21.3322 129.188 20.9909C130.02 20.6496 130.745 20.1376 131.364 19.4549L133.06 21.4389C132.292 22.3349 131.332 23.0176 130.18 23.4869C129.049 23.9562 127.78 24.1909 126.372 24.1909Z" fill="white"/>
<path d="M107.149 23.9991V8.92706L107.917 9.72706H100.941V7.03906H116.429V9.72706H109.485L110.221 8.92706V23.9991H107.149Z" fill="white"/>
<path d="M82.0078 23.9991V7.03906H85.0798V14.2391H94.7438V7.03906H97.8158V23.9991H94.7438V16.8951H85.0798V23.9991H82.0078Z" fill="white"/>
<path d="M68.7715 24.1909C67.0648 24.1909 65.5501 23.8176 64.2275 23.0709C62.9048 22.3242 61.8595 21.3002 61.0915 19.9989C60.3235 18.6762 59.9395 17.1829 59.9395 15.5189C59.9395 13.8336 60.3235 12.3402 61.0915 11.0389C61.8595 9.73758 62.9048 8.72424 64.2275 7.99891C65.5501 7.25224 67.0648 6.87891 68.7715 6.87891C70.4568 6.87891 71.9608 7.25224 73.2835 7.99891C74.6275 8.72424 75.6728 9.73758 76.4195 11.0389C77.1875 12.3189 77.5715 13.8122 77.5715 15.5189C77.5715 17.2042 77.1875 18.6976 76.4195 19.9989C75.6728 21.3002 74.6275 22.3242 73.2835 23.0709C71.9608 23.8176 70.4568 24.1909 68.7715 24.1909ZM68.7715 21.5029C69.8595 21.5029 70.8301 21.2576 71.6835 20.7669C72.5581 20.2762 73.2408 19.5829 73.7314 18.6869C74.2221 17.7696 74.4675 16.7136 74.4675 15.5189C74.4675 14.3029 74.2221 13.2576 73.7314 12.3829C73.2408 11.4869 72.5581 10.7936 71.6835 10.3029C70.8301 9.81224 69.8595 9.56691 68.7715 9.56691C67.6835 9.56691 66.7128 9.81224 65.8595 10.3029C65.0061 10.7936 64.3235 11.4869 63.8115 12.3829C63.2995 13.2576 63.0435 14.3029 63.0435 15.5189C63.0435 16.7136 63.2995 17.7696 63.8115 18.6869C64.3235 19.5829 65.0061 20.2762 65.8595 20.7669C66.7128 21.2576 67.6835 21.5029 68.7715 21.5029Z" fill="white"/>
<path d="M38.1914 23.9671L38.3834 21.3751C38.5327 21.3964 38.6714 21.4177 38.7994 21.4391C38.9274 21.4604 39.0447 21.4711 39.1514 21.4711C39.8341 21.4711 40.3674 21.2364 40.7514 20.7671C41.1567 20.2977 41.4554 19.6791 41.6474 18.9111C41.8394 18.1217 41.9781 17.2364 42.0634 16.2551C42.1487 15.2737 42.2127 14.2924 42.2554 13.3111L42.5434 7.03906H55.5674V23.9991H52.4954V8.83106L53.2314 9.72706H44.5274L45.2314 8.79906L45.0074 13.5031C44.9434 14.9964 44.8261 16.3937 44.6554 17.6951C44.4847 18.9964 44.2181 20.1377 43.8554 21.1191C43.5141 22.1004 43.0341 22.8684 42.4154 23.4231C41.8181 23.9777 41.0394 24.2551 40.0794 24.2551C39.8021 24.2551 39.5034 24.2231 39.1834 24.1591C38.8847 24.1164 38.5541 24.0524 38.1914 23.9671Z" fill="white"/>
<path d="M27.8965 24.1909C26.1898 24.1909 24.6751 23.8176 23.3525 23.0709C22.0298 22.3242 20.9845 21.3002 20.2165 19.9989C19.4485 18.6762 19.0645 17.1829 19.0645 15.5189C19.0645 13.8336 19.4485 12.3402 20.2165 11.0389C20.9845 9.73758 22.0298 8.72424 23.3525 7.99891C24.6751 7.25224 26.1898 6.87891 27.8965 6.87891C29.5818 6.87891 31.0858 7.25224 32.4085 7.99891C33.7525 8.72424 34.7978 9.73758 35.5445 11.0389C36.3125 12.3189 36.6965 13.8122 36.6965 15.5189C36.6965 17.2042 36.3125 18.6976 35.5445 19.9989C34.7978 21.3002 33.7525 22.3242 32.4085 23.0709C31.0858 23.8176 29.5818 24.1909 27.8965 24.1909ZM27.8965 21.5029C28.9845 21.5029 29.9551 21.2576 30.8085 20.7669C31.6831 20.2762 32.3658 19.5829 32.8565 18.6869C33.3471 17.7696 33.5925 16.7136 33.5925 15.5189C33.5925 14.3029 33.3471 13.2576 32.8565 12.3829C32.3658 11.4869 31.6831 10.7936 30.8085 10.3029C29.9551 9.81224 28.9845 9.56691 27.8965 9.56691C26.8085 9.56691 25.8378 9.81224 24.9845 10.3029C24.1311 10.7936 23.4485 11.4869 22.9365 12.3829C22.4245 13.2576 22.1685 14.3029 22.1685 15.5189C22.1685 16.7136 22.4245 17.7696 22.9365 18.6869C23.4485 19.5829 24.1311 20.2762 24.9845 20.7669C25.8378 21.2576 26.8085 21.5029 27.8965 21.5029Z" fill="white"/>
<path d="M0.976562 23.9991V7.03906H8.84856C10.8326 7.03906 12.3899 7.42306 13.5206 8.19106C14.6726 8.93773 15.2486 10.0044 15.2486 11.3911C15.2486 12.7777 14.7046 13.8551 13.6166 14.6231C12.5499 15.3697 11.1312 15.7431 9.36056 15.7431L9.84056 14.9111C11.8672 14.9111 13.3712 15.2844 14.3526 16.0311C15.3339 16.7777 15.8246 17.8764 15.8246 19.3271C15.8246 20.7991 15.2699 21.9511 14.1606 22.7831C13.0726 23.5937 11.3979 23.9991 9.13656 23.9991H0.976562ZM3.98456 21.6311H8.91256C10.1926 21.6311 11.1526 21.4391 11.7926 21.0551C12.4326 20.6497 12.7526 20.0097 12.7526 19.1351C12.7526 18.2391 12.4539 17.5884 11.8566 17.1831C11.2806 16.7564 10.3632 16.5431 9.10456 16.5431H3.98456V21.6311ZM3.98456 14.3351H8.59256C9.7659 14.3351 10.6512 14.1217 11.2486 13.6951C11.8672 13.2471 12.1766 12.6284 12.1766 11.8391C12.1766 11.0284 11.8672 10.4204 11.2486 10.0151C10.6512 9.60973 9.7659 9.40706 8.59256 9.40706H3.98456V14.3351Z" fill="white"/>
</svg>
