<svg width="662" height="109" viewBox="0 0 662 109" fill="none" xmlns="http://www.w3.org/2000/svg">
<path d="M373.529 102.224C372.804 102.224 372.185 101.979 371.673 101.488C371.161 100.976 370.905 100.336 370.905 99.5681C370.905 98.7574 371.161 98.1174 371.673 97.6481C372.185 97.1574 372.804 96.9121 373.529 96.9121C374.255 96.9121 374.873 97.1574 375.385 97.6481C375.897 98.1174 376.153 98.7574 376.153 99.5681C376.153 100.336 375.897 100.976 375.385 101.488C374.873 101.979 374.255 102.224 373.529 102.224Z" fill="white"/>
<path d="M346.532 102V84.9121H350.724L357.604 97.0401H355.94L363.172 84.9121H366.916L366.948 102H363.332V89.2001L363.972 89.6161L357.572 100.208H355.844L349.412 89.3281L350.18 89.1361V102H346.532Z" fill="white"/>
<path d="M337.567 102V96.1761L338.143 96.8481H333.023C330.677 96.8481 328.831 96.3574 327.487 95.3761C326.165 94.3734 325.503 92.9334 325.503 91.0561C325.503 89.0508 326.207 87.5254 327.615 86.4801C329.045 85.4348 330.943 84.9121 333.311 84.9121H341.151V102H337.567ZM325.279 102L329.887 95.4721H333.983L329.567 102H325.279ZM337.567 94.8961V87.2161L338.143 88.2721H333.439C332.202 88.2721 331.242 88.5068 330.559 88.9761C329.898 89.4241 329.567 90.1601 329.567 91.1841C329.567 93.1041 330.815 94.0641 333.311 94.0641H338.143L337.567 94.8961Z" fill="white"/>
<path d="M314.053 102V87.3441L314.981 88.3041H308.037V84.9121H324.037V88.3041H317.125L318.053 87.3441V102H314.053Z" fill="white"/>
<path d="M299.809 102.223C298.017 102.223 296.417 101.849 295.009 101.103C293.622 100.335 292.534 99.2894 291.745 97.9668C290.955 96.6441 290.561 95.1401 290.561 93.4547C290.561 91.7481 290.955 90.2441 291.745 88.9427C292.534 87.6201 293.622 86.5854 295.009 85.8387C296.417 85.0921 298.017 84.7188 299.809 84.7188C301.473 84.7188 302.934 85.0601 304.193 85.7428C305.473 86.4041 306.443 87.3854 307.105 88.6868L304.033 90.4787C303.521 89.6681 302.891 89.0708 302.145 88.6868C301.419 88.3028 300.63 88.1107 299.777 88.1107C298.795 88.1107 297.91 88.3241 297.121 88.7507C296.331 89.1774 295.713 89.7961 295.265 90.6068C294.817 91.3961 294.593 92.3454 294.593 93.4547C294.593 94.5641 294.817 95.5241 295.265 96.3347C295.713 97.1241 296.331 97.7321 297.121 98.1588C297.91 98.5854 298.795 98.7987 299.777 98.7987C300.63 98.7987 301.419 98.6067 302.145 98.2227C302.891 97.8387 303.521 97.2414 304.033 96.4308L307.105 98.2227C306.443 99.5027 305.473 100.495 304.193 101.199C302.934 101.881 301.473 102.223 299.809 102.223Z" fill="white"/>
<path d="M278.961 102.223C277.212 102.223 275.654 101.849 274.289 101.103C272.924 100.335 271.846 99.2894 271.057 97.9668C270.268 96.6441 269.873 95.1401 269.873 93.4547C269.873 91.7481 270.268 90.2441 271.057 88.9427C271.846 87.6201 272.924 86.5854 274.289 85.8387C275.654 85.0921 277.212 84.7188 278.961 84.7188C280.732 84.7188 282.3 85.0921 283.665 85.8387C285.052 86.5854 286.129 87.6094 286.897 88.9108C287.686 90.2121 288.081 91.7267 288.081 93.4547C288.081 95.1401 287.686 96.6441 286.897 97.9668C286.129 99.2894 285.052 100.335 283.665 101.103C282.3 101.849 280.732 102.223 278.961 102.223ZM278.961 98.7987C279.942 98.7987 280.817 98.5854 281.585 98.1588C282.353 97.7321 282.95 97.1134 283.377 96.3027C283.825 95.4921 284.049 94.5427 284.049 93.4547C284.049 92.3454 283.825 91.3961 283.377 90.6068C282.95 89.7961 282.353 89.1774 281.585 88.7507C280.817 88.3241 279.953 88.1107 278.993 88.1107C278.012 88.1107 277.137 88.3241 276.369 88.7507C275.622 89.1774 275.025 89.7961 274.577 90.6068C274.129 91.3961 273.905 92.3454 273.905 93.4547C273.905 94.5427 274.129 95.4921 274.577 96.3027C275.025 97.1134 275.622 97.7321 276.369 98.1588C277.137 98.5854 278.001 98.7987 278.961 98.7987Z" fill="white"/>
<path d="M249.376 102V84.9121H253.376V91.8561H261.984V84.9121H265.984V102H261.984V95.2481H253.376V102H249.376Z" fill="white"/>
<path d="M236.192 102.319C234.784 102.319 233.526 102.106 232.416 101.679C231.307 101.252 230.347 100.602 229.536 99.7269C228.747 98.8309 228.139 97.7003 227.712 96.3349C227.286 94.9696 227.072 93.3483 227.072 91.4709C227.072 90.1056 227.19 88.8576 227.424 87.7269C227.659 86.5963 228.011 85.5829 228.48 84.6869C228.95 83.7696 229.536 82.9589 230.24 82.2549C230.966 81.5509 231.808 80.9643 232.768 80.4949C233.728 80.0256 234.816 79.6629 236.032 79.4069L243.968 77.7109L244.544 81.2949L237.344 82.7669C236.939 82.8523 236.448 82.9803 235.872 83.1509C235.318 83.3003 234.742 83.5349 234.144 83.8549C233.568 84.1536 233.024 84.5909 232.512 85.1669C232.022 85.7216 231.616 86.4469 231.296 87.3429C230.998 88.2176 230.848 89.3163 230.848 90.6389C230.848 91.0443 230.859 91.3536 230.88 91.5669C230.923 91.7589 230.955 91.9723 230.976 92.2069C231.019 92.4203 231.04 92.7403 231.04 93.1669L229.536 91.5989C229.963 90.5109 230.55 89.5829 231.296 88.8149C232.064 88.0256 232.95 87.4283 233.952 87.0229C234.976 86.5963 236.086 86.3829 237.28 86.3829C238.88 86.3829 240.299 86.7136 241.536 87.3749C242.774 88.0363 243.744 88.9643 244.448 90.1589C245.152 91.3536 245.504 92.7083 245.504 94.2229C245.504 95.8016 245.12 97.1989 244.352 98.4149C243.584 99.6309 242.496 100.591 241.088 101.295C239.702 101.978 238.07 102.319 236.192 102.319ZM236.512 99.0869C237.472 99.0869 238.315 98.8843 239.04 98.4789C239.787 98.0523 240.363 97.4763 240.768 96.7509C241.195 96.0256 241.408 95.2149 241.408 94.3189C241.408 93.4229 241.195 92.6443 240.768 91.9829C240.363 91.3003 239.787 90.7563 239.04 90.3509C238.315 89.9456 237.451 89.7429 236.448 89.7429C235.488 89.7429 234.624 89.9349 233.856 90.3189C233.11 90.7029 232.523 91.2363 232.096 91.9189C231.691 92.5803 231.488 93.3483 231.488 94.2229C231.488 95.1189 231.702 95.9403 232.128 96.6869C232.555 97.4336 233.142 98.0203 233.888 98.4469C234.656 98.8736 235.531 99.0869 236.512 99.0869Z" fill="white"/>
<path d="M215.626 102.223C213.727 102.223 212.063 101.849 210.634 101.103C209.226 100.335 208.127 99.2894 207.338 97.9668C206.57 96.6441 206.186 95.1401 206.186 93.4547C206.186 91.7481 206.559 90.2441 207.306 88.9427C208.074 87.6201 209.119 86.5854 210.442 85.8387C211.786 85.0921 213.311 84.7188 215.018 84.7188C216.682 84.7188 218.164 85.0814 219.466 85.8067C220.767 86.5321 221.791 87.5561 222.538 88.8788C223.284 90.2014 223.658 91.7588 223.658 93.5508C223.658 93.7214 223.647 93.9134 223.626 94.1268C223.626 94.3401 223.615 94.5427 223.594 94.7347H209.354V92.0788H221.482L219.914 92.9108C219.935 91.9294 219.732 91.0654 219.306 90.3188C218.879 89.5721 218.292 88.9854 217.546 88.5587C216.82 88.1321 215.978 87.9187 215.018 87.9187C214.036 87.9187 213.172 88.1321 212.426 88.5587C211.7 88.9854 211.124 89.5828 210.698 90.3508C210.292 91.0974 210.09 91.9827 210.09 93.0067V93.6467C210.09 94.6707 210.324 95.5774 210.794 96.3667C211.263 97.1561 211.924 97.7641 212.778 98.1907C213.631 98.6174 214.612 98.8307 215.722 98.8307C216.682 98.8307 217.546 98.6814 218.314 98.3828C219.082 98.0841 219.764 97.6147 220.362 96.9747L222.506 99.4388C221.738 100.335 220.767 101.028 219.594 101.519C218.442 101.988 217.119 102.223 215.626 102.223Z" fill="white"/>
<path d="M195.004 102.223C193.618 102.223 192.348 101.903 191.196 101.263C190.066 100.623 189.159 99.6628 188.476 98.3828C187.815 97.0814 187.484 95.4387 187.484 93.4547C187.484 91.4494 187.804 89.8067 188.444 88.5267C189.106 87.2467 190.002 86.2974 191.132 85.6787C192.263 85.0387 193.554 84.7188 195.004 84.7188C196.69 84.7188 198.172 85.0814 199.452 85.8067C200.754 86.5321 201.778 87.5454 202.524 88.8467C203.292 90.1481 203.676 91.6841 203.676 93.4547C203.676 95.2254 203.292 96.7721 202.524 98.0948C201.778 99.3961 200.754 100.409 199.452 101.135C198.172 101.86 196.69 102.223 195.004 102.223ZM185.532 108.207V84.9108H189.34V88.9427L189.212 93.4868L189.532 98.0308V108.207H185.532ZM194.556 98.7987C195.516 98.7987 196.37 98.5854 197.116 98.1588C197.884 97.7321 198.492 97.1134 198.94 96.3027C199.388 95.4921 199.612 94.5427 199.612 93.4547C199.612 92.3454 199.388 91.3961 198.94 90.6068C198.492 89.7961 197.884 89.1774 197.116 88.7507C196.37 88.3241 195.516 88.1107 194.556 88.1107C193.596 88.1107 192.732 88.3241 191.964 88.7507C191.196 89.1774 190.588 89.7961 190.14 90.6068C189.692 91.3961 189.468 92.3454 189.468 93.4547C189.468 94.5427 189.692 95.4921 190.14 96.3027C190.588 97.1134 191.196 97.7321 191.964 98.1588C192.732 98.5854 193.596 98.7987 194.556 98.7987Z" fill="white"/>
<path d="M172.647 102V87.3441L173.575 88.3041H166.631V84.9121H182.631V88.3041H175.719L176.647 87.3441V102H172.647Z" fill="white"/>
<path d="M156.649 102.223C154.899 102.223 153.342 101.849 151.977 101.103C150.611 100.335 149.534 99.2894 148.745 97.9668C147.955 96.6441 147.561 95.1401 147.561 93.4547C147.561 91.7481 147.955 90.2441 148.745 88.9427C149.534 87.6201 150.611 86.5854 151.977 85.8387C153.342 85.0921 154.899 84.7188 156.649 84.7188C158.419 84.7188 159.987 85.0921 161.353 85.8387C162.739 86.5854 163.817 87.6094 164.585 88.9108C165.374 90.2121 165.769 91.7267 165.769 93.4547C165.769 95.1401 165.374 96.6441 164.585 97.9668C163.817 99.2894 162.739 100.335 161.353 101.103C159.987 101.849 158.419 102.223 156.649 102.223ZM156.649 98.7987C157.63 98.7987 158.505 98.5854 159.273 98.1588C160.041 97.7321 160.638 97.1134 161.065 96.3027C161.513 95.4921 161.737 94.5427 161.737 93.4547C161.737 92.3454 161.513 91.3961 161.065 90.6068C160.638 89.7961 160.041 89.1774 159.273 88.7507C158.505 88.3241 157.641 88.1107 156.681 88.1107C155.699 88.1107 154.825 88.3241 154.057 88.7507C153.31 89.1774 152.713 89.7961 152.265 90.6068C151.817 91.3961 151.593 92.3454 151.593 93.4547C151.593 94.5427 151.817 95.4921 152.265 96.3027C152.713 97.1134 153.31 97.7321 154.057 98.1588C154.825 98.5854 155.689 98.7987 156.649 98.7987Z" fill="white"/>
<path d="M127.251 102V84.9121H143.635V102H139.667V87.3761L140.595 88.3041H130.323L131.251 87.3761V102H127.251Z" fill="white"/>
<path d="M92.626 102V84.9121H96.818L103.698 97.0401H102.034L109.266 84.9121H113.01L113.042 102H109.426V89.2001L110.066 89.6161L103.666 100.208H101.938L95.506 89.3281L96.274 89.1361V102H92.626Z" fill="white"/>
<path d="M70.1572 102V84.9121H74.1572V96.1761L83.5972 84.9121H87.2452V102H83.2452V90.7361L73.8372 102H70.1572Z" fill="white"/>
<path d="M51.0827 98.6081L50.2187 99.5681V84.9121H54.2187V99.5681L53.2587 98.6081H61.7067L60.7787 99.5681V84.9121H64.7787V102H39.5947V84.9121H43.5947V99.5681L42.6667 98.6081H51.0827Z" fill="white"/>
<path d="M30.869 101.999V98.5428L30.645 97.8067V91.7587C30.645 90.5854 30.293 89.6787 29.589 89.0387C28.885 88.3774 27.8183 88.0468 26.389 88.0468C25.429 88.0468 24.4797 88.1961 23.541 88.4948C22.6237 88.7934 21.845 89.2094 21.205 89.7428L19.637 86.8307C20.5543 86.1267 21.6423 85.6041 22.901 85.2628C24.181 84.9001 25.5037 84.7188 26.869 84.7188C29.3437 84.7188 31.253 85.3161 32.597 86.5107C33.9623 87.6841 34.645 89.5081 34.645 91.9827V101.999H30.869ZM25.493 102.223C24.213 102.223 23.093 102.009 22.133 101.583C21.173 101.135 20.4263 100.527 19.893 99.7588C19.381 98.9694 19.125 98.0841 19.125 97.1028C19.125 96.1428 19.349 95.2787 19.797 94.5107C20.2663 93.7427 21.0237 93.1348 22.069 92.6868C23.1143 92.2388 24.501 92.0148 26.229 92.0148H31.189V94.6707H26.517C25.1517 94.6707 24.2343 94.8947 23.765 95.3427C23.2957 95.7694 23.061 96.3027 23.061 96.9427C23.061 97.6681 23.349 98.2441 23.925 98.6707C24.501 99.0974 25.301 99.3108 26.325 99.3108C27.3063 99.3108 28.181 99.0868 28.949 98.6388C29.7383 98.1908 30.3037 97.5294 30.645 96.6548L31.317 99.0547C30.933 100.057 30.2397 100.836 29.237 101.391C28.2557 101.945 27.0077 102.223 25.493 102.223Z" fill="white"/>
<path d="M0.688477 102V84.9121H9.04048C11.1098 84.9121 12.7311 85.2961 13.9045 86.0641C15.0991 86.8321 15.6965 87.9201 15.6965 89.3281C15.6965 90.7148 15.1418 91.8028 14.0325 92.5921C12.9231 93.3601 11.4511 93.7441 9.61648 93.7441L10.0965 92.7521C12.1658 92.7521 13.7018 93.1361 14.7045 93.9041C15.7285 94.6508 16.2405 95.7494 16.2405 97.2001C16.2405 98.7148 15.6751 99.8988 14.5445 100.752C13.4138 101.584 11.6965 102 9.39248 102H0.688477ZM4.49648 99.0881H9.07248C10.1605 99.0881 10.9818 98.9174 11.5365 98.5761C12.0911 98.2134 12.3685 97.6694 12.3685 96.9441C12.3685 96.1761 12.1125 95.6108 11.6005 95.2481C11.0885 94.8854 10.2885 94.7041 9.20048 94.7041H4.49648V99.0881ZM4.49648 92.0481H8.68848C9.71248 92.0481 10.4805 91.8668 10.9925 91.5041C11.5258 91.1201 11.7925 90.5868 11.7925 89.9041C11.7925 89.2001 11.5258 88.6774 10.9925 88.3361C10.4805 87.9948 9.71248 87.8241 8.68848 87.8241H4.49648V92.0481Z" fill="white"/>
<path d="M641.188 63.0001V45.9121H645.38L652.26 58.0401H650.596L657.828 45.9121H661.573L661.604 63.0001H657.988V50.2001L658.628 50.6161L652.229 61.2081H650.5L644.068 50.3281L644.836 50.1361V63.0001H641.188Z" fill="white"/>
<path d="M628.782 63.2227C626.883 63.2227 625.219 62.8494 623.79 62.1028C622.382 61.3348 621.283 60.2894 620.494 58.9668C619.726 57.6441 619.342 56.1401 619.342 54.4547C619.342 52.7481 619.715 51.2441 620.462 49.9427C621.23 48.6201 622.275 47.5854 623.598 46.8387C624.942 46.0921 626.467 45.7188 628.174 45.7188C629.838 45.7188 631.32 46.0814 632.622 46.8067C633.923 47.5321 634.947 48.5561 635.694 49.8788C636.44 51.2014 636.814 52.7588 636.814 54.5508C636.814 54.7214 636.803 54.9134 636.782 55.1268C636.782 55.3401 636.771 55.5427 636.75 55.7347H622.51V53.0788H634.638L633.07 53.9108C633.091 52.9294 632.888 52.0654 632.462 51.3188C632.035 50.5721 631.448 49.9854 630.702 49.5587C629.976 49.1321 629.134 48.9187 628.174 48.9187C627.192 48.9187 626.328 49.1321 625.582 49.5587C624.856 49.9854 624.28 50.5828 623.854 51.3508C623.448 52.0974 623.246 52.9827 623.246 54.0067V54.6467C623.246 55.6707 623.48 56.5774 623.95 57.3667C624.419 58.1561 625.08 58.7641 625.934 59.1908C626.787 59.6174 627.768 59.8307 628.878 59.8307C629.838 59.8307 630.702 59.6814 631.47 59.3828C632.238 59.0841 632.92 58.6147 633.518 57.9747L635.662 60.4388C634.894 61.3348 633.923 62.0281 632.75 62.5188C631.598 62.9881 630.275 63.2227 628.782 63.2227Z" fill="white"/>
<path d="M610.246 63.2227C608.454 63.2227 606.854 62.8494 605.446 62.1028C604.059 61.3348 602.971 60.2894 602.182 58.9668C601.393 57.6441 600.998 56.1401 600.998 54.4547C600.998 52.7481 601.393 51.2441 602.182 49.9427C602.971 48.6201 604.059 47.5854 605.446 46.8387C606.854 46.0921 608.454 45.7188 610.246 45.7188C611.91 45.7188 613.371 46.0601 614.63 46.7428C615.91 47.4041 616.881 48.3854 617.542 49.6868L614.47 51.4787C613.958 50.6681 613.329 50.0708 612.582 49.6868C611.857 49.3028 611.067 49.1107 610.214 49.1107C609.233 49.1107 608.347 49.3241 607.558 49.7507C606.769 50.1774 606.15 50.7961 605.702 51.6068C605.254 52.3961 605.03 53.3454 605.03 54.4547C605.03 55.5641 605.254 56.5241 605.702 57.3347C606.15 58.1241 606.769 58.7321 607.558 59.1588C608.347 59.5854 609.233 59.7988 610.214 59.7988C611.067 59.7988 611.857 59.6067 612.582 59.2227C613.329 58.8387 613.958 58.2414 614.47 57.4308L617.542 59.2227C616.881 60.5027 615.91 61.4947 614.63 62.1987C613.371 62.8814 611.91 63.2227 610.246 63.2227Z" fill="white"/>
<path d="M582.657 63.0001V45.9121H591.009C593.079 45.9121 594.7 46.2961 595.873 47.0641C597.068 47.8321 597.665 48.9201 597.665 50.3281C597.665 51.7148 597.111 52.8028 596.001 53.5921C594.892 54.3601 593.42 54.7441 591.585 54.7441L592.065 53.7521C594.135 53.7521 595.671 54.1361 596.673 54.9041C597.697 55.6508 598.209 56.7494 598.209 58.2001C598.209 59.7148 597.644 60.8988 596.513 61.7521C595.383 62.5841 593.665 63.0001 591.361 63.0001H582.657ZM586.465 60.0881H591.041C592.129 60.0881 592.951 59.9174 593.505 59.5761C594.06 59.2134 594.337 58.6694 594.337 57.9441C594.337 57.1761 594.081 56.6108 593.569 56.2481C593.057 55.8854 592.257 55.7041 591.169 55.7041H586.465V60.0881ZM586.465 53.0481H590.657C591.681 53.0481 592.449 52.8668 592.961 52.5041C593.495 52.1201 593.761 51.5868 593.761 50.9041C593.761 50.2001 593.495 49.6774 592.961 49.3361C592.449 48.9948 591.681 48.8241 590.657 48.8241H586.465V53.0481Z" fill="white"/>
<path d="M563.546 51.5441C565.743 51.5441 567.418 52.0348 568.57 53.0161C569.722 53.9974 570.298 55.3841 570.298 57.1761C570.298 59.0321 569.658 60.4828 568.378 61.5281C567.098 62.5521 565.295 63.0534 562.97 63.0321L554.97 63.0001V45.9121H558.97V51.5121L563.546 51.5441ZM562.618 60.0881C563.791 60.1094 564.687 59.8641 565.306 59.3521C565.924 58.8401 566.234 58.0934 566.234 57.1121C566.234 56.1308 565.924 55.4268 565.306 55.0001C564.708 54.5521 563.812 54.3174 562.618 54.2961L558.97 54.2641V60.0561L562.618 60.0881Z" fill="white"/>
<path d="M542.084 63.0001V48.3441L543.012 49.3041H536.068V45.9121H552.068V49.3041H545.156L546.084 48.3441V63.0001H542.084Z" fill="white"/>
<path d="M529.807 62.9987V59.5428L529.583 58.8067V52.7587C529.583 51.5854 529.23 50.6787 528.526 50.0387C527.822 49.3774 526.756 49.0468 525.326 49.0468C524.366 49.0468 523.417 49.1961 522.479 49.4948C521.561 49.7934 520.783 50.2094 520.143 50.7428L518.574 47.8307C519.492 47.1267 520.58 46.6041 521.839 46.2628C523.119 45.9001 524.441 45.7188 525.807 45.7188C528.281 45.7188 530.19 46.3161 531.534 47.5107C532.9 48.6841 533.583 50.5081 533.583 52.9827V62.9987H529.807ZM524.43 63.2227C523.15 63.2227 522.03 63.0094 521.07 62.5827C520.11 62.1347 519.364 61.5267 518.831 60.7587C518.319 59.9694 518.062 59.0841 518.062 58.1028C518.062 57.1428 518.286 56.2787 518.734 55.5107C519.204 54.7427 519.961 54.1348 521.006 53.6868C522.052 53.2388 523.439 53.0148 525.167 53.0148H530.126V55.6707H525.454C524.089 55.6707 523.172 55.8947 522.703 56.3427C522.233 56.7694 521.998 57.3027 521.998 57.9427C521.998 58.6681 522.286 59.2441 522.862 59.6707C523.438 60.0974 524.239 60.3107 525.263 60.3107C526.244 60.3107 527.118 60.0867 527.886 59.6387C528.676 59.1907 529.241 58.5294 529.583 57.6548L530.255 60.0547C529.871 61.0574 529.177 61.8361 528.174 62.3907C527.193 62.9454 525.945 63.2227 524.43 63.2227Z" fill="white"/>
<path d="M499.626 63.0001V45.9121H507.978C510.047 45.9121 511.669 46.2961 512.842 47.0641C514.037 47.8321 514.634 48.9201 514.634 50.3281C514.634 51.7148 514.079 52.8028 512.97 53.5921C511.861 54.3601 510.389 54.7441 508.554 54.7441L509.034 53.7521C511.103 53.7521 512.639 54.1361 513.642 54.9041C514.666 55.6508 515.178 56.7494 515.178 58.2001C515.178 59.7148 514.613 60.8988 513.482 61.7521C512.351 62.5841 510.634 63.0001 508.33 63.0001H499.626ZM503.434 60.0881H508.01C509.098 60.0881 509.919 59.9174 510.474 59.5761C511.029 59.2134 511.306 58.6694 511.306 57.9441C511.306 57.1761 511.05 56.6108 510.538 56.2481C510.026 55.8854 509.226 55.7041 508.138 55.7041H503.434V60.0881ZM503.434 53.0481H507.626C508.65 53.0481 509.418 52.8668 509.93 52.5041C510.463 52.1201 510.73 51.5868 510.73 50.9041C510.73 50.2001 510.463 49.6774 509.93 49.3361C509.418 48.9948 508.65 48.8241 507.626 48.8241H503.434V53.0481Z" fill="white"/>
<path d="M486.555 63.2227C484.805 63.2227 483.248 62.8494 481.883 62.1028C480.517 61.3348 479.44 60.2894 478.651 58.9668C477.861 57.6441 477.467 56.1401 477.467 54.4547C477.467 52.7481 477.861 51.2441 478.651 49.9427C479.44 48.6201 480.517 47.5854 481.883 46.8387C483.248 46.0921 484.805 45.7188 486.555 45.7188C488.325 45.7188 489.893 46.0921 491.259 46.8387C492.645 47.5854 493.723 48.6094 494.491 49.9108C495.28 51.2121 495.675 52.7267 495.675 54.4547C495.675 56.1401 495.28 57.6441 494.491 58.9668C493.723 60.2894 492.645 61.3348 491.259 62.1028C489.893 62.8494 488.325 63.2227 486.555 63.2227ZM486.555 59.7988C487.536 59.7988 488.411 59.5854 489.179 59.1588C489.947 58.7321 490.544 58.1134 490.971 57.3027C491.419 56.4921 491.643 55.5427 491.643 54.4547C491.643 53.3454 491.419 52.3961 490.971 51.6068C490.544 50.7961 489.947 50.1774 489.179 49.7507C488.411 49.3241 487.547 49.1107 486.587 49.1107C485.605 49.1107 484.731 49.3241 483.963 49.7507C483.216 50.1774 482.619 50.7961 482.171 51.6068C481.723 52.3961 481.499 53.3454 481.499 54.4547C481.499 55.5427 481.723 56.4921 482.171 57.3027C482.619 58.1134 483.216 58.7321 483.963 59.1588C484.731 59.5854 485.595 59.7988 486.555 59.7988Z" fill="white"/>
<path d="M459.126 63.0001V45.9121H467.478C469.547 45.9121 471.169 46.2961 472.342 47.0641C473.537 47.8321 474.134 48.9201 474.134 50.3281C474.134 51.7148 473.579 52.8028 472.47 53.5921C471.361 54.3601 469.889 54.7441 468.054 54.7441L468.534 53.7521C470.603 53.7521 472.139 54.1361 473.142 54.9041C474.166 55.6508 474.678 56.7494 474.678 58.2001C474.678 59.7148 474.113 60.8988 472.982 61.7521C471.851 62.5841 470.134 63.0001 467.83 63.0001H459.126ZM462.934 60.0881H467.51C468.598 60.0881 469.419 59.9174 469.974 59.5761C470.529 59.2134 470.806 58.6694 470.806 57.9441C470.806 57.1761 470.55 56.6108 470.038 56.2481C469.526 55.8854 468.726 55.7041 467.638 55.7041H462.934V60.0881ZM462.934 53.0481H467.126C468.15 53.0481 468.918 52.8668 469.43 52.5041C469.963 52.1201 470.23 51.5868 470.23 50.9041C470.23 50.2001 469.963 49.6774 469.43 49.3361C468.918 48.9948 468.15 48.8241 467.126 48.8241H462.934V53.0481Z" fill="white"/>
<path d="M446.241 63.0001V48.3441L447.169 49.3041H440.225V45.9121H456.225V49.3041H449.313L450.241 48.3441V63.0001H446.241Z" fill="white"/>
<path d="M431.996 63.2227C430.204 63.2227 428.604 62.8494 427.196 62.1028C425.809 61.3348 424.721 60.2894 423.932 58.9668C423.143 57.6441 422.748 56.1401 422.748 54.4547C422.748 52.7481 423.143 51.2441 423.932 49.9427C424.721 48.6201 425.809 47.5854 427.196 46.8387C428.604 46.0921 430.204 45.7188 431.996 45.7188C433.66 45.7188 435.121 46.0601 436.38 46.7428C437.66 47.4041 438.631 48.3854 439.292 49.6868L436.22 51.4787C435.708 50.6681 435.079 50.0708 434.332 49.6868C433.607 49.3028 432.817 49.1107 431.964 49.1107C430.983 49.1107 430.097 49.3241 429.308 49.7507C428.519 50.1774 427.9 50.7961 427.452 51.6068C427.004 52.3961 426.78 53.3454 426.78 54.4547C426.78 55.5641 427.004 56.5241 427.452 57.3347C427.9 58.1241 428.519 58.7321 429.308 59.1588C430.097 59.5854 430.983 59.7988 431.964 59.7988C432.817 59.7988 433.607 59.6067 434.332 59.2227C435.079 58.8387 435.708 58.2414 436.22 57.4308L439.292 59.2227C438.631 60.5027 437.66 61.4947 436.38 62.1987C435.121 62.8814 433.66 63.2227 431.996 63.2227Z" fill="white"/>
<path d="M412.084 63.0001V48.3441L413.012 49.3041H406.068V45.9121H422.068V49.3041H415.156L416.084 48.3441V63.0001H412.084Z" fill="white"/>
<path d="M396.782 63.2227C394.883 63.2227 393.219 62.8494 391.79 62.1028C390.382 61.3348 389.283 60.2894 388.494 58.9668C387.726 57.6441 387.342 56.1401 387.342 54.4547C387.342 52.7481 387.715 51.2441 388.462 49.9427C389.23 48.6201 390.275 47.5854 391.598 46.8387C392.942 46.0921 394.467 45.7188 396.174 45.7188C397.838 45.7188 399.32 46.0814 400.622 46.8067C401.923 47.5321 402.947 48.5561 403.694 49.8788C404.44 51.2014 404.814 52.7588 404.814 54.5508C404.814 54.7214 404.803 54.9134 404.782 55.1268C404.782 55.3401 404.771 55.5427 404.75 55.7347H390.51V53.0788H402.638L401.07 53.9108C401.091 52.9294 400.888 52.0654 400.462 51.3188C400.035 50.5721 399.448 49.9854 398.702 49.5587C397.976 49.1321 397.134 48.9187 396.174 48.9187C395.192 48.9187 394.328 49.1321 393.582 49.5587C392.856 49.9854 392.28 50.5828 391.854 51.3508C391.448 52.0974 391.246 52.9827 391.246 54.0067V54.6467C391.246 55.6707 391.48 56.5774 391.95 57.3667C392.419 58.1561 393.08 58.7641 393.934 59.1908C394.787 59.6174 395.768 59.8307 396.878 59.8307C397.838 59.8307 398.702 59.6814 399.47 59.3828C400.238 59.0841 400.92 58.6147 401.518 57.9747L403.662 60.4388C402.894 61.3348 401.923 62.0281 400.75 62.5188C399.598 62.9881 398.275 63.2227 396.782 63.2227Z" fill="white"/>
<path d="M369.001 63.0001V45.9121H377.353C379.422 45.9121 381.044 46.2961 382.217 47.0641C383.412 47.8321 384.009 48.9201 384.009 50.3281C384.009 51.7148 383.454 52.8028 382.345 53.5921C381.236 54.3601 379.764 54.7441 377.929 54.7441L378.409 53.7521C380.478 53.7521 382.014 54.1361 383.017 54.9041C384.041 55.6508 384.553 56.7494 384.553 58.2001C384.553 59.7148 383.988 60.8988 382.857 61.7521C381.726 62.5841 380.009 63.0001 377.705 63.0001H369.001ZM372.809 60.0881H377.385C378.473 60.0881 379.294 59.9174 379.849 59.5761C380.404 59.2134 380.681 58.6694 380.681 57.9441C380.681 57.1761 380.425 56.6108 379.913 56.2481C379.401 55.8854 378.601 55.7041 377.513 55.7041H372.809V60.0881ZM372.809 53.0481H377.001C378.025 53.0481 378.793 52.8668 379.305 52.5041C379.838 52.1201 380.105 51.5868 380.105 50.9041C380.105 50.2001 379.838 49.6774 379.305 49.3361C378.793 48.9948 378.025 48.8241 377.001 48.8241H372.809V53.0481Z" fill="white"/>
<path d="M356.116 63.0001V48.3441L357.044 49.3041H350.1V45.9121H366.1V49.3041H359.188L360.116 48.3441V63.0001H356.116Z" fill="white"/>
<path d="M340.117 63.2227C338.368 63.2227 336.811 62.8494 335.445 62.1028C334.08 61.3348 333.003 60.2894 332.213 58.9668C331.424 57.6441 331.029 56.1401 331.029 54.4547C331.029 52.7481 331.424 51.2441 332.213 49.9427C333.003 48.6201 334.08 47.5854 335.445 46.8387C336.811 46.0921 338.368 45.7188 340.117 45.7188C341.888 45.7188 343.456 46.0921 344.821 46.8387C346.208 47.5854 347.285 48.6094 348.053 49.9108C348.843 51.2121 349.237 52.7267 349.237 54.4547C349.237 56.1401 348.843 57.6441 348.053 58.9668C347.285 60.2894 346.208 61.3348 344.821 62.1028C343.456 62.8494 341.888 63.2227 340.117 63.2227ZM340.117 59.7988C341.099 59.7988 341.973 59.5854 342.741 59.1588C343.509 58.7321 344.107 58.1134 344.533 57.3027C344.981 56.4921 345.205 55.5427 345.205 54.4547C345.205 53.3454 344.981 52.3961 344.533 51.6068C344.107 50.7961 343.509 50.1774 342.741 49.7507C341.973 49.3241 341.109 49.1107 340.149 49.1107C339.168 49.1107 338.293 49.3241 337.525 49.7507C336.779 50.1774 336.181 50.7961 335.733 51.6068C335.285 52.3961 335.061 53.3454 335.061 54.4547C335.061 55.5427 335.285 56.4921 335.733 57.3027C336.181 58.1134 336.779 58.7321 337.525 59.1588C338.293 59.5854 339.157 59.7988 340.117 59.7988Z" fill="white"/>
<path d="M319.43 63.2227C317.68 63.2227 316.123 62.8494 314.758 62.1028C313.392 61.3348 312.315 60.2894 311.526 58.9668C310.736 57.6441 310.342 56.1401 310.342 54.4547C310.342 52.7481 310.736 51.2441 311.526 49.9427C312.315 48.6201 313.392 47.5854 314.758 46.8387C316.123 46.0921 317.68 45.7188 319.43 45.7188C321.2 45.7188 322.768 46.0921 324.134 46.8387C325.52 47.5854 326.598 48.6094 327.366 49.9108C328.155 51.2121 328.55 52.7267 328.55 54.4547C328.55 56.1401 328.155 57.6441 327.366 58.9668C326.598 60.2894 325.52 61.3348 324.134 62.1028C322.768 62.8494 321.2 63.2227 319.43 63.2227ZM319.43 59.7988C320.411 59.7988 321.286 59.5854 322.054 59.1588C322.822 58.7321 323.419 58.1134 323.846 57.3027C324.294 56.4921 324.518 55.5427 324.518 54.4547C324.518 53.3454 324.294 52.3961 323.846 51.6068C323.419 50.7961 322.822 50.1774 322.054 49.7507C321.286 49.3241 320.422 49.1107 319.462 49.1107C318.48 49.1107 317.606 49.3241 316.838 49.7507C316.091 50.1774 315.494 50.7961 315.046 51.6068C314.598 52.3961 314.374 53.3454 314.374 54.4547C314.374 55.5427 314.598 56.4921 315.046 57.3027C315.494 58.1134 316.091 58.7321 316.838 59.1588C317.606 59.5854 318.47 59.7988 319.43 59.7988Z" fill="white"/>
<path d="M301.246 63.2227C299.454 63.2227 297.854 62.8494 296.446 62.1028C295.059 61.3348 293.971 60.2894 293.182 58.9668C292.393 57.6441 291.998 56.1401 291.998 54.4547C291.998 52.7481 292.393 51.2441 293.182 49.9427C293.971 48.6201 295.059 47.5854 296.446 46.8387C297.854 46.0921 299.454 45.7188 301.246 45.7188C302.91 45.7188 304.371 46.0601 305.63 46.7428C306.91 47.4041 307.881 48.3854 308.542 49.6868L305.47 51.4787C304.958 50.6681 304.329 50.0708 303.582 49.6868C302.857 49.3028 302.067 49.1107 301.214 49.1107C300.233 49.1107 299.347 49.3241 298.558 49.7507C297.769 50.1774 297.15 50.7961 296.702 51.6068C296.254 52.3961 296.03 53.3454 296.03 54.4547C296.03 55.5641 296.254 56.5241 296.702 57.3347C297.15 58.1241 297.769 58.7321 298.558 59.1588C299.347 59.5854 300.233 59.7988 301.214 59.7988C302.067 59.7988 302.857 59.6067 303.582 59.2227C304.329 58.8387 304.958 58.2414 305.47 57.4308L308.542 59.2227C307.881 60.5027 306.91 61.4947 305.63 62.1987C304.371 62.8814 302.91 63.2227 301.246 63.2227Z" fill="white"/>
<path d="M271.741 63.0001V48.3441L272.669 49.3041H265.725V45.9121H281.725V49.3041H274.813L275.741 48.3441V63.0001H271.741Z" fill="white"/>
<path d="M256.438 63.2227C254.539 63.2227 252.875 62.8494 251.446 62.1028C250.038 61.3348 248.939 60.2894 248.15 58.9668C247.382 57.6441 246.998 56.1401 246.998 54.4547C246.998 52.7481 247.371 51.2441 248.118 49.9427C248.886 48.6201 249.931 47.5854 251.254 46.8387C252.598 46.0921 254.123 45.7188 255.83 45.7188C257.494 45.7188 258.977 46.0814 260.278 46.8067C261.579 47.5321 262.603 48.5561 263.35 49.8788C264.097 51.2014 264.47 52.7588 264.47 54.5508C264.47 54.7214 264.459 54.9134 264.438 55.1268C264.438 55.3401 264.427 55.5427 264.406 55.7347H250.166V53.0788H262.294L260.726 53.9108C260.747 52.9294 260.545 52.0654 260.118 51.3188C259.691 50.5721 259.105 49.9854 258.358 49.5587C257.633 49.1321 256.79 48.9187 255.83 48.9187C254.849 48.9187 253.985 49.1321 253.238 49.5587C252.513 49.9854 251.937 50.5828 251.51 51.3508C251.105 52.0974 250.902 52.9827 250.902 54.0067V54.6467C250.902 55.6707 251.137 56.5774 251.606 57.3667C252.075 58.1561 252.737 58.7641 253.59 59.1908C254.443 59.6174 255.425 59.8307 256.534 59.8307C257.494 59.8307 258.358 59.6814 259.126 59.3828C259.894 59.0841 260.577 58.6147 261.174 57.9747L263.318 60.4388C262.55 61.3348 261.579 62.0281 260.406 62.5188C259.254 62.9881 257.931 63.2227 256.438 63.2227Z" fill="white"/>
<path d="M241.291 63.0001L236.299 54.8081L239.563 52.7921L246.059 63.0001H241.291ZM233.067 56.1521V52.8241H238.795V56.1521H233.067ZM239.947 54.9361L236.171 54.4881L241.355 45.9121H245.611L239.947 54.9361ZM223.243 63.0001H218.507L224.971 52.7921L228.235 54.8081L223.243 63.0001ZM234.251 63.0001H230.283V45.9121H234.251V63.0001ZM231.467 56.1521H225.771V52.8241H231.467V56.1521ZM224.587 54.9361L218.923 45.9121H223.179L228.331 54.4881L224.587 54.9361Z" fill="white"/>
<path d="M208.399 63.2227C206.649 63.2227 205.092 62.8494 203.727 62.1028C202.361 61.3348 201.284 60.2894 200.495 58.9668C199.705 57.6441 199.311 56.1401 199.311 54.4547C199.311 52.7481 199.705 51.2441 200.495 49.9427C201.284 48.6201 202.361 47.5854 203.727 46.8387C205.092 46.0921 206.649 45.7188 208.399 45.7188C210.169 45.7188 211.737 46.0921 213.103 46.8387C214.489 47.5854 215.567 48.6094 216.335 49.9108C217.124 51.2121 217.519 52.7267 217.519 54.4547C217.519 56.1401 217.124 57.6441 216.335 58.9668C215.567 60.2894 214.489 61.3348 213.103 62.1028C211.737 62.8494 210.169 63.2227 208.399 63.2227ZM208.399 59.7988C209.38 59.7988 210.255 59.5854 211.023 59.1588C211.791 58.7321 212.388 58.1134 212.815 57.3027C213.263 56.4921 213.487 55.5427 213.487 54.4547C213.487 53.3454 213.263 52.3961 212.815 51.6068C212.388 50.7961 211.791 50.1774 211.023 49.7507C210.255 49.3241 209.391 49.1107 208.431 49.1107C207.449 49.1107 206.575 49.3241 205.807 49.7507C205.06 50.1774 204.463 50.7961 204.015 51.6068C203.567 52.3961 203.343 53.3454 203.343 54.4547C203.343 55.5427 203.567 56.4921 204.015 57.3027C204.463 58.1134 205.06 58.7321 205.807 59.1588C206.575 59.5854 207.439 59.7988 208.399 59.7988Z" fill="white"/>
<path d="M175.001 63.0001V45.9121H179.193L186.073 58.0401H184.409L191.641 45.9121H195.385L195.417 63.0001H191.801V50.2001L192.441 50.6161L186.041 61.2081H184.313L177.881 50.3281L178.649 50.1361V63.0001H175.001Z" fill="white"/>
<path d="M164.184 63.2227C162.392 63.2227 160.792 62.8494 159.384 62.1028C157.997 61.3348 156.909 60.2894 156.12 58.9668C155.33 57.6441 154.936 56.1401 154.936 54.4547C154.936 52.7481 155.33 51.2441 156.12 49.9427C156.909 48.6201 157.997 47.5854 159.384 46.8387C160.792 46.0921 162.392 45.7188 164.184 45.7188C165.848 45.7188 167.309 46.0601 168.568 46.7428C169.848 47.4041 170.818 48.3854 171.48 49.6868L168.408 51.4787C167.896 50.6681 167.266 50.0708 166.52 49.6868C165.794 49.3028 165.005 49.1107 164.152 49.1107C163.17 49.1107 162.285 49.3241 161.496 49.7507C160.706 50.1774 160.088 50.7961 159.64 51.6068C159.192 52.3961 158.968 53.3454 158.968 54.4547C158.968 55.5641 159.192 56.5241 159.64 57.3347C160.088 58.1241 160.706 58.7321 161.496 59.1588C162.285 59.5854 163.17 59.7988 164.152 59.7988C165.005 59.7988 165.794 59.6067 166.52 59.2227C167.266 58.8387 167.896 58.2414 168.408 57.4308L171.48 59.2227C170.818 60.5027 169.848 61.4947 168.568 62.1987C167.309 62.8814 165.848 63.2227 164.184 63.2227Z" fill="white"/>
<path d="M125.095 62.9994V45.9114H129.095V57.1754L138.535 45.9114H142.183V62.9994H138.183V51.7354L128.775 62.9994H125.095ZM133.383 43.8954C131.676 43.8954 130.364 43.5007 129.447 42.7114C128.529 41.9007 128.06 40.7274 128.039 39.1914H130.695C130.716 39.9594 130.951 40.5674 131.399 41.0154C131.868 41.4634 132.519 41.6874 133.351 41.6874C134.161 41.6874 134.801 41.4634 135.271 41.0154C135.761 40.5674 136.017 39.9594 136.039 39.1914H138.759C138.737 40.7274 138.257 41.9007 137.319 42.7114C136.401 43.5007 135.089 43.8954 133.383 43.8954Z" fill="white"/>
<path d="M115.718 63.0001V45.9121H119.718V63.0001H115.718ZM106.79 51.5441C108.987 51.5441 110.651 52.0348 111.782 53.0161C112.934 53.9974 113.51 55.3841 113.51 57.1761C113.51 59.0321 112.87 60.4828 111.59 61.5281C110.331 62.5521 108.539 63.0534 106.214 63.0321L98.4697 63.0001V45.9121H102.47V51.5121L106.79 51.5441ZM105.862 60.0881C107.035 60.1094 107.931 59.8641 108.55 59.3521C109.168 58.8401 109.478 58.0934 109.478 57.1121C109.478 56.1308 109.168 55.4268 108.55 55.0001C107.952 54.5521 107.056 54.3174 105.862 54.2961L102.47 54.2641V60.0561L105.862 60.0881Z" fill="white"/>
<path d="M85.8167 63.2227C84.4301 63.2227 83.1607 62.9028 82.0087 62.2628C80.8781 61.6228 79.9714 60.6628 79.2887 59.3828C78.6274 58.0814 78.2967 56.4387 78.2967 54.4547C78.2967 52.4494 78.6167 50.8067 79.2567 49.5267C79.9181 48.2467 80.8141 47.2974 81.9447 46.6787C83.0754 46.0387 84.3661 45.7188 85.8167 45.7188C87.5021 45.7188 88.9847 46.0814 90.2647 46.8067C91.5661 47.5321 92.5901 48.5454 93.3367 49.8467C94.1047 51.1481 94.4887 52.6841 94.4887 54.4547C94.4887 56.2254 94.1047 57.7721 93.3367 59.0947C92.5901 60.3961 91.5661 61.4094 90.2647 62.1348C88.9847 62.8601 87.5021 63.2227 85.8167 63.2227ZM76.3447 69.2068V45.9108H80.1527V49.9427L80.0247 54.4868L80.3447 59.0307V69.2068H76.3447ZM85.3687 59.7988C86.3287 59.7988 87.1821 59.5854 87.9287 59.1588C88.6967 58.7321 89.3047 58.1134 89.7527 57.3027C90.2007 56.4921 90.4247 55.5427 90.4247 54.4547C90.4247 53.3454 90.2007 52.3961 89.7527 51.6068C89.3047 50.7961 88.6967 50.1774 87.9287 49.7507C87.1821 49.3241 86.3287 49.1107 85.3687 49.1107C84.4087 49.1107 83.5447 49.3241 82.7767 49.7507C82.0087 50.1774 81.4007 50.7961 80.9527 51.6068C80.5047 52.3961 80.2807 53.3454 80.2807 54.4547C80.2807 55.5427 80.5047 56.4921 80.9527 57.3027C81.4007 58.1134 82.0087 58.7321 82.7767 59.1588C83.5447 59.5854 84.4087 59.7988 85.3687 59.7988Z" fill="white"/>
<path d="M63.2735 63.2227C61.5242 63.2227 59.9669 62.8494 58.6015 62.1028C57.2362 61.3348 56.1589 60.2894 55.3695 58.9668C54.5802 57.6441 54.1855 56.1401 54.1855 54.4547C54.1855 52.7481 54.5802 51.2441 55.3695 49.9427C56.1589 48.6201 57.2362 47.5854 58.6015 46.8387C59.9669 46.0921 61.5242 45.7188 63.2735 45.7188C65.0442 45.7188 66.6122 46.0921 67.9776 46.8387C69.3642 47.5854 70.4416 48.6094 71.2096 49.9108C71.9989 51.2121 72.3936 52.7267 72.3936 54.4547C72.3936 56.1401 71.9989 57.6441 71.2096 58.9668C70.4416 60.2894 69.3642 61.3348 67.9776 62.1028C66.6122 62.8494 65.0442 63.2227 63.2735 63.2227ZM63.2735 59.7988C64.2549 59.7988 65.1295 59.5854 65.8975 59.1588C66.6655 58.7321 67.2629 58.1134 67.6895 57.3027C68.1375 56.4921 68.3615 55.5427 68.3615 54.4547C68.3615 53.3454 68.1375 52.3961 67.6895 51.6068C67.2629 50.7961 66.6655 50.1774 65.8975 49.7507C65.1295 49.3241 64.2655 49.1107 63.3055 49.1107C62.3242 49.1107 61.4495 49.3241 60.6815 49.7507C59.9349 50.1774 59.3375 50.7961 58.8895 51.6068C58.4415 52.3961 58.2175 53.3454 58.2175 54.4547C58.2175 55.5427 58.4415 56.4921 58.8895 57.3027C59.3375 58.1134 59.9349 58.7321 60.6815 59.1588C61.4495 59.5854 62.3135 59.7988 63.2735 59.7988Z" fill="white"/>
<path d="M43.5219 63.0001V48.3441L44.4499 49.3041H37.5059V45.9121H53.5059V49.3041H46.5939L47.5219 48.3441V63.0001H43.5219Z" fill="white"/>
<path d="M27.5235 63.2227C25.7742 63.2227 24.2169 62.8494 22.8515 62.1028C21.4862 61.3348 20.4089 60.2894 19.6195 58.9668C18.8302 57.6441 18.4355 56.1401 18.4355 54.4547C18.4355 52.7481 18.8302 51.2441 19.6195 49.9427C20.4089 48.6201 21.4862 47.5854 22.8515 46.8387C24.2169 46.0921 25.7742 45.7188 27.5235 45.7188C29.2942 45.7188 30.8622 46.0921 32.2275 46.8387C33.6142 47.5854 34.6915 48.6094 35.4595 49.9108C36.2489 51.2121 36.6436 52.7267 36.6436 54.4547C36.6436 56.1401 36.2489 57.6441 35.4595 58.9668C34.6915 60.2894 33.6142 61.3348 32.2275 62.1028C30.8622 62.8494 29.2942 63.2227 27.5235 63.2227ZM27.5235 59.7988C28.5049 59.7988 29.3795 59.5854 30.1475 59.1588C30.9155 58.7321 31.5129 58.1134 31.9395 57.3027C32.3875 56.4921 32.6115 55.5427 32.6115 54.4547C32.6115 53.3454 32.3875 52.3961 31.9395 51.6068C31.5129 50.7961 30.9155 50.1774 30.1475 49.7507C29.3795 49.3241 28.5155 49.1107 27.5555 49.1107C26.5742 49.1107 25.6995 49.3241 24.9315 49.7507C24.1849 50.1774 23.5875 50.7961 23.1395 51.6068C22.6915 52.3961 22.4675 53.3454 22.4675 54.4547C22.4675 55.5427 22.6915 56.4921 23.1395 57.3027C23.5875 58.1134 24.1849 58.7321 24.9315 59.1588C25.6995 59.5854 26.5635 59.7988 27.5235 59.7988Z" fill="white"/>
<path d="M12.9445 63.0001L6.76848 54.8081L10.0325 52.7921L17.6485 63.0001H12.9445ZM0.688477 63.0001V45.9121H4.68848V63.0001H0.688477ZM3.50448 56.1521V52.8241H9.29648V56.1521H3.50448ZM10.4165 54.9361L6.67248 54.4881L12.9445 45.9121H17.2325L10.4165 54.9361Z" fill="white"/>
<path d="M530.131 28.8321L531.987 21.7601L532.531 24.1281C531.785 24.1281 531.155 23.9041 530.643 23.4561C530.153 22.9868 529.907 22.3574 529.907 21.5681C529.907 20.7574 530.153 20.1174 530.643 19.6481C531.155 19.1574 531.774 18.9121 532.499 18.9121C533.246 18.9121 533.865 19.1574 534.355 19.6481C534.846 20.1388 535.091 20.7788 535.091 21.5681C535.091 21.7814 535.07 22.0161 535.027 22.2721C534.985 22.5068 534.91 22.7841 534.803 23.1041C534.718 23.4241 534.569 23.8294 534.355 24.3201L532.723 28.8321H530.131Z" fill="white"/>
<path d="M523.726 24.0001L517.55 15.8081L520.814 13.7921L528.43 24.0001H523.726ZM511.47 24.0001V6.91211H515.47V24.0001H511.47ZM514.286 17.1521V13.8241H520.078V17.1521H514.286ZM521.198 15.9361L517.454 15.4881L523.726 6.91211H528.014L521.198 15.9361Z" fill="white"/>
<path d="M499.063 24.2227C497.164 24.2227 495.5 23.8494 494.071 23.1028C492.663 22.3348 491.564 21.2894 490.775 19.9668C490.007 18.6441 489.623 17.1401 489.623 15.4547C489.623 13.7481 489.996 12.2441 490.743 10.9427C491.511 9.62008 492.556 8.58541 493.879 7.83875C495.223 7.09208 496.748 6.71875 498.455 6.71875C500.119 6.71875 501.602 7.08141 502.903 7.80675C504.204 8.53208 505.228 9.55609 505.975 10.8788C506.722 12.2014 507.095 13.7588 507.095 15.5508C507.095 15.7214 507.084 15.9134 507.063 16.1268C507.063 16.3401 507.052 16.5427 507.031 16.7347H492.791V14.0788H504.919L503.351 14.9108C503.372 13.9294 503.17 13.0654 502.743 12.3188C502.316 11.5721 501.73 10.9854 500.983 10.5587C500.258 10.1321 499.415 9.91875 498.455 9.91875C497.474 9.91875 496.61 10.1321 495.863 10.5587C495.138 10.9854 494.562 11.5828 494.135 12.3508C493.73 13.0974 493.527 13.9827 493.527 15.0067V15.6467C493.527 16.6707 493.762 17.5774 494.231 18.3667C494.7 19.1561 495.362 19.7641 496.215 20.1908C497.068 20.6174 498.05 20.8307 499.159 20.8307C500.119 20.8307 500.983 20.6814 501.751 20.3828C502.519 20.0841 503.202 19.6147 503.799 18.9747L505.943 21.4388C505.175 22.3348 504.204 23.0281 503.031 23.5188C501.879 23.9881 500.556 24.2227 499.063 24.2227Z" fill="white"/>
<path d="M471.282 24.0001V6.91211H479.634C481.704 6.91211 483.325 7.2961 484.498 8.0641C485.693 8.8321 486.29 9.92011 486.29 11.3281C486.29 12.7148 485.736 13.8028 484.626 14.5921C483.517 15.3601 482.045 15.7441 480.21 15.7441L480.69 14.7521C482.76 14.7521 484.296 15.1361 485.298 15.9041C486.322 16.6508 486.834 17.7494 486.834 19.2001C486.834 20.7148 486.269 21.8988 485.138 22.7521C484.008 23.5841 482.29 24.0001 479.986 24.0001H471.282ZM475.09 21.0881H479.666C480.754 21.0881 481.576 20.9174 482.13 20.5761C482.685 20.2134 482.962 19.6694 482.962 18.9441C482.962 18.1761 482.706 17.6108 482.194 17.2481C481.682 16.8854 480.882 16.7041 479.794 16.7041H475.09V21.0881ZM475.09 14.0481H479.282C480.306 14.0481 481.074 13.8668 481.586 13.5041C482.12 13.1201 482.386 12.5868 482.386 11.9041C482.386 11.2001 482.12 10.6774 481.586 10.3361C481.074 9.99477 480.306 9.82411 479.282 9.82411H475.09V14.0481Z" fill="white"/>
<path d="M458.211 24.2227C456.462 24.2227 454.904 23.8494 453.539 23.1028C452.174 22.3348 451.096 21.2894 450.307 19.9668C449.518 18.6441 449.123 17.1401 449.123 15.4547C449.123 13.7481 449.518 12.2441 450.307 10.9427C451.096 9.62008 452.174 8.58541 453.539 7.83875C454.904 7.09208 456.462 6.71875 458.211 6.71875C459.982 6.71875 461.55 7.09208 462.915 7.83875C464.302 8.58541 465.379 9.60942 466.147 10.9108C466.936 12.2121 467.331 13.7267 467.331 15.4547C467.331 17.1401 466.936 18.6441 466.147 19.9668C465.379 21.2894 464.302 22.3348 462.915 23.1028C461.55 23.8494 459.982 24.2227 458.211 24.2227ZM458.211 20.7988C459.192 20.7988 460.067 20.5854 460.835 20.1588C461.603 19.7321 462.2 19.1134 462.627 18.3027C463.075 17.4921 463.299 16.5427 463.299 15.4547C463.299 14.3454 463.075 13.3961 462.627 12.6068C462.2 11.7961 461.603 11.1774 460.835 10.7507C460.067 10.3241 459.203 10.1107 458.243 10.1107C457.262 10.1107 456.387 10.3241 455.619 10.7507C454.872 11.1774 454.275 11.7961 453.827 12.6068C453.379 13.3961 453.155 14.3454 453.155 15.4547C453.155 16.5427 453.379 17.4921 453.827 18.3027C454.275 19.1134 454.872 19.7321 455.619 20.1588C456.387 20.5854 457.251 20.7988 458.211 20.7988Z" fill="white"/>
<path d="M427.224 23.9681L427.416 20.6081C427.565 20.6294 427.704 20.6508 427.832 20.6721C427.96 20.6934 428.077 20.7041 428.184 20.7041C428.845 20.7041 429.357 20.5014 429.72 20.0961C430.082 19.6908 430.349 19.1468 430.52 18.4641C430.712 17.7601 430.84 16.9814 430.904 16.1281C430.989 15.2534 431.053 14.3788 431.096 13.5041L431.384 6.91211H445.208V24.0001H441.208V9.21611L442.136 10.3041H434.008L434.872 9.18411L434.648 13.6961C434.584 15.2108 434.456 16.6188 434.264 17.9201C434.093 19.2001 433.816 20.3201 433.432 21.2801C433.069 22.2401 432.557 22.9868 431.896 23.5201C431.256 24.0534 430.434 24.3201 429.432 24.3201C429.112 24.3201 428.76 24.2881 428.376 24.2241C428.013 24.1601 427.629 24.0748 427.224 23.9681Z" fill="white"/>
<path d="M417.532 24.2227C415.633 24.2227 413.969 23.8494 412.54 23.1028C411.132 22.3348 410.033 21.2894 409.244 19.9668C408.476 18.6441 408.092 17.1401 408.092 15.4547C408.092 13.7481 408.465 12.2441 409.212 10.9427C409.98 9.62008 411.025 8.58541 412.348 7.83875C413.692 7.09208 415.217 6.71875 416.924 6.71875C418.588 6.71875 420.07 7.08141 421.372 7.80675C422.673 8.53208 423.697 9.55609 424.444 10.8788C425.19 12.2014 425.564 13.7588 425.564 15.5508C425.564 15.7214 425.553 15.9134 425.532 16.1268C425.532 16.3401 425.521 16.5427 425.5 16.7347H411.26V14.0788H423.388L421.82 14.9108C421.841 13.9294 421.638 13.0654 421.212 12.3188C420.785 11.5721 420.198 10.9854 419.452 10.5587C418.726 10.1321 417.884 9.91875 416.924 9.91875C415.942 9.91875 415.078 10.1321 414.332 10.5587C413.606 10.9854 413.03 11.5828 412.604 12.3508C412.198 13.0974 411.996 13.9827 411.996 15.0067V15.6467C411.996 16.6707 412.23 17.5774 412.7 18.3667C413.169 19.1561 413.83 19.7641 414.684 20.1908C415.537 20.6174 416.518 20.8307 417.628 20.8307C418.588 20.8307 419.452 20.6814 420.22 20.3828C420.988 20.0841 421.67 19.6147 422.268 18.9747L424.412 21.4388C423.644 22.3348 422.673 23.0281 421.5 23.5188C420.348 23.9881 419.025 24.2227 417.532 24.2227Z" fill="white"/>
<path d="M400.473 17.2481C399.662 17.6321 398.798 17.9521 397.881 18.2081C396.985 18.4428 396.035 18.5601 395.033 18.5601C392.878 18.5601 391.203 18.0588 390.009 17.0561C388.814 16.0534 388.217 14.4961 388.217 12.3841V6.91211H392.217V12.1281C392.217 13.2588 392.537 14.0801 393.177 14.5921C393.838 15.1041 394.745 15.3601 395.897 15.3601C396.665 15.3601 397.433 15.2641 398.201 15.0721C398.969 14.8801 399.726 14.6134 400.473 14.2721V17.2481ZM400.185 24.0001V6.91211H404.185V24.0001H400.185Z" fill="white"/>
<path d="M358.376 23.9994V6.91141H362.376V18.1754L371.816 6.91141H375.464V23.9994H371.464V12.7354L362.056 23.9994H358.376ZM366.664 4.8954C364.957 4.8954 363.645 4.50074 362.728 3.71141C361.811 2.90074 361.341 1.72741 361.32 0.191406H363.976C363.997 0.959407 364.232 1.5674 364.68 2.0154C365.149 2.4634 365.8 2.68741 366.632 2.68741C367.443 2.68741 368.083 2.4634 368.552 2.0154C369.043 1.5674 369.299 0.959407 369.32 0.191406H372.04C372.019 1.72741 371.539 2.90074 370.6 3.71141C369.683 4.50074 368.371 4.8954 366.664 4.8954Z" fill="white"/>
<path d="M348.999 24.0001V6.91211H352.999V24.0001H348.999ZM340.071 12.5441C342.268 12.5441 343.932 13.0348 345.063 14.0161C346.215 14.9974 346.791 16.3841 346.791 18.1761C346.791 20.0321 346.151 21.4828 344.871 22.5281C343.612 23.5521 341.82 24.0534 339.495 24.0321L331.751 24.0001V6.91211H335.751V12.5121L340.071 12.5441ZM339.143 21.0881C340.316 21.1094 341.212 20.8641 341.831 20.3521C342.45 19.8401 342.759 19.0934 342.759 18.1121C342.759 17.1308 342.45 16.4268 341.831 16.0001C341.234 15.5521 340.338 15.3174 339.143 15.2961L335.751 15.2641V21.0561L339.143 21.0881Z" fill="white"/>
<path d="M309.782 24.0001V6.91211H313.782V13.8561H322.39V6.91211H326.39V24.0001H322.39V17.2481H313.782V24.0001H309.782Z" fill="white"/>
<path d="M302.041 24.0001L297.049 15.8081L300.313 13.7921L306.809 24.0001H302.041ZM293.817 17.1521V13.8241H299.545V17.1521H293.817ZM300.697 15.9361L296.921 15.4881L302.105 6.91211H306.361L300.697 15.9361ZM283.993 24.0001H279.257L285.721 13.7921L288.985 15.8081L283.993 24.0001ZM295.001 24.0001H291.033V6.91211H295.001V24.0001ZM292.217 17.1521H286.521V13.8241H292.217V17.1521ZM285.337 15.9361L279.673 6.91211H283.929L289.081 15.4881L285.337 15.9361Z" fill="white"/>
<path d="M265.256 30.4321C264.424 30.4321 263.592 30.2934 262.76 30.0161C261.928 29.7388 261.234 29.3548 260.68 28.8641L262.28 25.9201C262.685 26.2828 263.144 26.5708 263.656 26.7841C264.168 26.9974 264.69 27.1041 265.224 27.1041C265.949 27.1041 266.536 26.9228 266.984 26.5601C267.432 26.1974 267.848 25.5894 268.232 24.7361L269.224 22.4961L269.544 22.0161L276.008 6.91211H279.848L271.848 25.3761C271.314 26.6561 270.717 27.6694 270.056 28.4161C269.416 29.1628 268.69 29.6854 267.88 29.9841C267.09 30.2828 266.216 30.4321 265.256 30.4321ZM268.776 24.6081L261.064 6.91211H265.224L271.496 21.6641L268.776 24.6081Z" fill="white"/>
<path d="M241.751 24.0001V6.91211H245.751V13.8561H254.359V6.91211H258.359V24.0001H254.359V17.2481H245.751V24.0001H241.751Z" fill="white"/>
<path d="M223.942 24.0001V18.1761L224.518 18.8481H219.398C217.052 18.8481 215.206 18.3574 213.862 17.3761C212.54 16.3734 211.878 14.9334 211.878 13.0561C211.878 11.0508 212.582 9.52544 213.99 8.4801C215.42 7.43477 217.318 6.91211 219.686 6.91211H227.526V24.0001H223.942ZM211.654 24.0001L216.262 17.4721H220.358L215.942 24.0001H211.654ZM223.942 16.8961V9.21611L224.518 10.2721H219.814C218.577 10.2721 217.617 10.5068 216.934 10.9761C216.273 11.4241 215.942 12.1601 215.942 13.1841C215.942 15.1041 217.19 16.0641 219.686 16.0641H224.518L223.942 16.8961Z" fill="white"/>
<path d="M202.746 24.2227C200.954 24.2227 199.354 23.8494 197.946 23.1028C196.559 22.3348 195.471 21.2894 194.682 19.9668C193.893 18.6441 193.498 17.1401 193.498 15.4547C193.498 13.7481 193.893 12.2441 194.682 10.9427C195.471 9.62008 196.559 8.58541 197.946 7.83875C199.354 7.09208 200.954 6.71875 202.746 6.71875C204.41 6.71875 205.871 7.06009 207.13 7.74275C208.41 8.40409 209.381 9.38542 210.042 10.6868L206.97 12.4787C206.458 11.6681 205.829 11.0708 205.082 10.6868C204.357 10.3028 203.567 10.1107 202.714 10.1107C201.733 10.1107 200.847 10.3241 200.058 10.7507C199.269 11.1774 198.65 11.7961 198.202 12.6068C197.754 13.3961 197.53 14.3454 197.53 15.4547C197.53 16.5641 197.754 17.5241 198.202 18.3347C198.65 19.1241 199.269 19.7321 200.058 20.1588C200.847 20.5854 201.733 20.7988 202.714 20.7988C203.567 20.7988 204.357 20.6067 205.082 20.2227C205.829 19.8387 206.458 19.2414 206.97 18.4308L210.042 20.2227C209.381 21.5027 208.41 22.4947 207.13 23.1987C205.871 23.8814 204.41 24.2227 202.746 24.2227Z" fill="white"/>
<path d="M182.834 24.0001V9.3441L183.762 10.3041H176.818V6.91211H192.818V10.3041H185.906L186.834 9.3441V24.0001H182.834Z" fill="white"/>
<path d="M167.532 24.2227C165.633 24.2227 163.969 23.8494 162.54 23.1028C161.132 22.3348 160.033 21.2894 159.244 19.9668C158.476 18.6441 158.092 17.1401 158.092 15.4547C158.092 13.7481 158.465 12.2441 159.212 10.9427C159.98 9.62008 161.025 8.58541 162.348 7.83875C163.692 7.09208 165.217 6.71875 166.924 6.71875C168.588 6.71875 170.07 7.08141 171.372 7.80675C172.673 8.53208 173.697 9.55609 174.444 10.8788C175.19 12.2014 175.564 13.7588 175.564 15.5508C175.564 15.7214 175.553 15.9134 175.532 16.1268C175.532 16.3401 175.521 16.5427 175.5 16.7347H161.26V14.0788H173.388L171.82 14.9108C171.841 13.9294 171.638 13.0654 171.212 12.3188C170.785 11.5721 170.198 10.9854 169.452 10.5587C168.726 10.1321 167.884 9.91875 166.924 9.91875C165.942 9.91875 165.078 10.1321 164.332 10.5587C163.606 10.9854 163.03 11.5828 162.604 12.3508C162.198 13.0974 161.996 13.9827 161.996 15.0067V15.6467C161.996 16.6707 162.23 17.5774 162.7 18.3667C163.169 19.1561 163.83 19.7641 164.684 20.1908C165.537 20.6174 166.518 20.8307 167.628 20.8307C168.588 20.8307 169.452 20.6814 170.22 20.3828C170.988 20.0841 171.67 19.6147 172.268 18.9747L174.412 21.4388C173.644 22.3348 172.673 23.0281 171.5 23.5188C170.348 23.9881 169.025 24.2227 167.532 24.2227Z" fill="white"/>
<path d="M149.463 22.1441V10.3041H142.903L142.807 13.0561C142.764 14.0374 142.7 14.9868 142.615 15.9041C142.529 16.8001 142.391 17.6321 142.199 18.4001C142.007 19.1468 141.729 19.7654 141.367 20.2561C141.004 20.7468 140.524 21.0668 139.927 21.2161L135.959 20.6081C136.599 20.6081 137.111 20.4054 137.495 20.0001C137.9 19.5734 138.209 18.9974 138.423 18.2721C138.657 17.5254 138.828 16.6828 138.935 15.7441C139.041 14.7841 139.116 13.7921 139.159 12.7681L139.383 6.91211H153.463V22.1441H149.463ZM135.351 27.8081V20.6081H155.991V27.8081H152.247V24.0001H139.063V27.8081H135.351Z" fill="white"/>
<path d="M115.282 23.9994V6.91141H119.282V18.1754L128.722 6.91141H132.37V23.9994H128.37V12.7354L118.962 23.9994H115.282ZM123.57 4.8954C121.864 4.8954 120.552 4.50074 119.634 3.71141C118.717 2.90074 118.248 1.72741 118.226 0.191406H120.882C120.904 0.959407 121.138 1.5674 121.586 2.0154C122.056 2.4634 122.706 2.68741 123.538 2.68741C124.349 2.68741 124.989 2.4634 125.458 2.0154C125.949 1.5674 126.205 0.959407 126.226 0.191406H128.946C128.925 1.72741 128.445 2.90074 127.506 3.71141C126.589 4.50074 125.277 4.8954 123.57 4.8954Z" fill="white"/>
<path d="M106.557 23.9987V20.5428L106.333 19.8067V13.7587C106.333 12.5854 105.981 11.6787 105.277 11.0387C104.573 10.3774 103.506 10.0468 102.077 10.0468C101.117 10.0468 100.167 10.1961 99.2285 10.4948C98.3112 10.7934 97.5325 11.2094 96.8925 11.7428L95.3245 8.83075C96.2418 8.12675 97.3298 7.60409 98.5885 7.26276C99.8685 6.90009 101.191 6.71875 102.557 6.71875C105.031 6.71875 106.941 7.31608 108.285 8.51074C109.65 9.68408 110.333 11.5081 110.333 13.9827V23.9987H106.557ZM101.181 24.2227C99.9005 24.2227 98.7805 24.0094 97.8205 23.5827C96.8605 23.1347 96.1138 22.5267 95.5805 21.7587C95.0685 20.9694 94.8125 20.0841 94.8125 19.1028C94.8125 18.1428 95.0365 17.2787 95.4845 16.5107C95.9538 15.7427 96.7112 15.1348 97.7565 14.6868C98.8018 14.2388 100.189 14.0148 101.917 14.0148H106.877V16.6707H102.205C100.839 16.6707 99.9218 16.8947 99.4525 17.3427C98.9832 17.7694 98.7485 18.3027 98.7485 18.9427C98.7485 19.6681 99.0365 20.2441 99.6125 20.6707C100.189 21.0974 100.989 21.3107 102.013 21.3107C102.994 21.3107 103.869 21.0867 104.637 20.6387C105.426 20.1907 105.991 19.5294 106.333 18.6548L107.005 21.0547C106.621 22.0574 105.927 22.8361 104.925 23.3907C103.943 23.9454 102.695 24.2227 101.181 24.2227Z" fill="white"/>
<path d="M74.2197 24.0001V6.91211H78.2197V13.8561H86.8277V6.91211H90.8277V24.0001H86.8277V17.2481H78.2197V24.0001H74.2197Z" fill="white"/>
<path d="M39.5947 24.0001V6.91211H43.7867L50.6667 19.0401H49.0027L56.2347 6.91211H59.9787L60.0107 24.0001H56.3947V11.2001L57.0347 11.6161L50.6347 22.2081H48.9067L42.4747 11.3281L43.2427 11.1361V24.0001H39.5947Z" fill="white"/>
<path d="M30.869 23.9987V20.5428L30.645 19.8067V13.7587C30.645 12.5854 30.293 11.6787 29.589 11.0387C28.885 10.3774 27.8183 10.0468 26.389 10.0468C25.429 10.0468 24.4797 10.1961 23.541 10.4948C22.6237 10.7934 21.845 11.2094 21.205 11.7428L19.637 8.83075C20.5543 8.12675 21.6423 7.60409 22.901 7.26276C24.181 6.90009 25.5037 6.71875 26.869 6.71875C29.3437 6.71875 31.253 7.31608 32.597 8.51074C33.9623 9.68408 34.645 11.5081 34.645 13.9827V23.9987H30.869ZM25.493 24.2227C24.213 24.2227 23.093 24.0094 22.133 23.5827C21.173 23.1347 20.4263 22.5267 19.893 21.7587C19.381 20.9694 19.125 20.0841 19.125 19.1028C19.125 18.1428 19.349 17.2787 19.797 16.5107C20.2663 15.7427 21.0237 15.1348 22.069 14.6868C23.1143 14.2388 24.501 14.0148 26.229 14.0148H31.189V16.6707H26.517C25.1517 16.6707 24.2343 16.8947 23.765 17.3427C23.2957 17.7694 23.061 18.3027 23.061 18.9427C23.061 19.6681 23.349 20.2441 23.925 20.6707C24.501 21.0974 25.301 21.3107 26.325 21.3107C27.3063 21.3107 28.181 21.0867 28.949 20.6387C29.7383 20.1907 30.3037 19.5294 30.645 18.6548L31.317 21.0547C30.933 22.0574 30.2397 22.8361 29.237 23.3907C28.2557 23.9454 27.0077 24.2227 25.493 24.2227Z" fill="white"/>
<path d="M0.688477 24.0001V6.91211H9.04048C11.1098 6.91211 12.7311 7.2961 13.9045 8.0641C15.0991 8.8321 15.6965 9.92011 15.6965 11.3281C15.6965 12.7148 15.1418 13.8028 14.0325 14.5921C12.9231 15.3601 11.4511 15.7441 9.61648 15.7441L10.0965 14.7521C12.1658 14.7521 13.7018 15.1361 14.7045 15.9041C15.7285 16.6508 16.2405 17.7494 16.2405 19.2001C16.2405 20.7148 15.6751 21.8988 14.5445 22.7521C13.4138 23.5841 11.6965 24.0001 9.39248 24.0001H0.688477ZM4.49648 21.0881H9.07248C10.1605 21.0881 10.9818 20.9174 11.5365 20.5761C12.0911 20.2134 12.3685 19.6694 12.3685 18.9441C12.3685 18.1761 12.1125 17.6108 11.6005 17.2481C11.0885 16.8854 10.2885 16.7041 9.20048 16.7041H4.49648V21.0881ZM4.49648 14.0481H8.68848C9.71248 14.0481 10.4805 13.8668 10.9925 13.5041C11.5258 13.1201 11.7925 12.5868 11.7925 11.9041C11.7925 11.2001 11.5258 10.6774 10.9925 10.3361C10.4805 9.99477 9.71248 9.82411 8.68848 9.82411H4.49648V14.0481Z" fill="white"/>
</svg>
