<svg width="296" height="259" viewBox="0 0 296 259" fill="none" xmlns="http://www.w3.org/2000/svg">
<path d="M242.009 252.003V246.361L242.567 247.012H237.607C235.334 247.012 233.546 246.537 232.244 245.586C230.963 244.615 230.322 243.22 230.322 241.401C230.322 239.459 231.004 237.981 232.368 236.968C233.753 235.956 235.592 235.449 237.886 235.449H245.481V252.003H242.009ZM230.105 252.003L234.569 245.679H238.537L234.259 252.003H230.105ZM242.009 245.121V237.681L242.567 238.704H238.01C236.812 238.704 235.882 238.932 235.22 239.386C234.58 239.82 234.259 240.533 234.259 241.525C234.259 243.385 235.468 244.315 237.886 244.315H242.567L242.009 245.121Z" fill="white"/>
<path d="M206.524 252.003V235.449H210.585L217.25 247.198H215.638L222.644 235.449H226.271L226.302 252.003H222.799V239.603L223.419 240.006L217.219 250.267H215.545L209.314 239.727L210.058 239.541V252.003H206.524Z" fill="white"/>
<path d="M194.505 252.219C192.666 252.219 191.054 251.857 189.669 251.134C188.305 250.39 187.241 249.377 186.476 248.096C185.732 246.814 185.36 245.357 185.36 243.725C185.36 242.071 185.722 240.614 186.445 239.354C187.189 238.072 188.202 237.07 189.483 236.347C190.785 235.623 192.263 235.262 193.916 235.262C195.528 235.262 196.965 235.613 198.225 236.316C199.486 237.018 200.478 238.01 201.201 239.292C201.925 240.573 202.286 242.082 202.286 243.818C202.286 243.983 202.276 244.169 202.255 244.376C202.255 244.582 202.245 244.779 202.224 244.965H188.429V242.392H200.178L198.659 243.198C198.68 242.247 198.484 241.41 198.07 240.687C197.657 239.963 197.089 239.395 196.365 238.982C195.663 238.568 194.846 238.362 193.916 238.362C192.966 238.362 192.129 238.568 191.405 238.982C190.703 239.395 190.145 239.974 189.731 240.718C189.339 241.441 189.142 242.299 189.142 243.291V243.911C189.142 244.903 189.37 245.781 189.824 246.546C190.279 247.31 190.92 247.899 191.746 248.313C192.573 248.726 193.524 248.933 194.598 248.933C195.528 248.933 196.365 248.788 197.109 248.499C197.853 248.209 198.515 247.755 199.093 247.135L201.17 249.522C200.426 250.39 199.486 251.061 198.349 251.537C197.233 251.991 195.952 252.219 194.505 252.219Z" fill="white"/>
<path d="M174.529 252.219C173.185 252.219 171.956 251.909 170.84 251.289C169.744 250.669 168.866 249.739 168.205 248.499C167.564 247.238 167.244 245.647 167.244 243.725C167.244 241.782 167.554 240.191 168.174 238.951C168.814 237.711 169.682 236.791 170.778 236.192C171.873 235.572 173.123 235.262 174.529 235.262C176.161 235.262 177.598 235.613 178.838 236.316C180.098 237.018 181.09 238 181.814 239.261C182.558 240.521 182.93 242.009 182.93 243.725C182.93 245.44 182.558 246.938 181.814 248.22C181.09 249.48 180.098 250.462 178.838 251.165C177.598 251.867 176.161 252.219 174.529 252.219ZM165.353 258.016V235.448H169.042V239.354L168.918 243.756L169.228 248.158V258.016H165.353ZM174.095 248.902C175.025 248.902 175.851 248.695 176.575 248.282C177.319 247.868 177.908 247.269 178.342 246.484C178.776 245.698 178.993 244.779 178.993 243.725C178.993 242.65 178.776 241.73 178.342 240.966C177.908 240.18 177.319 239.581 176.575 239.168C175.851 238.754 175.025 238.548 174.095 238.548C173.165 238.548 172.328 238.754 171.584 239.168C170.84 239.581 170.251 240.18 169.817 240.966C169.383 241.73 169.166 242.65 169.166 243.725C169.166 244.779 169.383 245.698 169.817 246.484C170.251 247.269 170.84 247.868 171.584 248.282C172.328 248.695 173.165 248.902 174.095 248.902Z" fill="white"/>
<path d="M146.159 252.003V235.449H154.25C156.255 235.449 157.826 235.821 158.962 236.565C160.12 237.309 160.698 238.363 160.698 239.727C160.698 241.071 160.161 242.125 159.086 242.889C158.012 243.633 156.586 244.005 154.808 244.005L155.273 243.044C157.278 243.044 158.766 243.416 159.737 244.16C160.729 244.884 161.225 245.948 161.225 247.353C161.225 248.821 160.678 249.968 159.582 250.794C158.487 251.6 156.823 252.003 154.591 252.003H146.159ZM149.848 249.182H154.281C155.335 249.182 156.131 249.017 156.668 248.686C157.206 248.335 157.474 247.808 157.474 247.105C157.474 246.361 157.226 245.814 156.73 245.462C156.234 245.111 155.459 244.935 154.405 244.935H149.848V249.182ZM149.848 242.362H153.909C154.901 242.362 155.645 242.187 156.141 241.835C156.658 241.463 156.916 240.947 156.916 240.285C156.916 239.603 156.658 239.097 156.141 238.766C155.645 238.436 154.901 238.27 153.909 238.27H149.848V242.362Z" fill="white"/>
<path d="M125.573 252.219C123.733 252.219 122.121 251.857 120.737 251.134C119.373 250.39 118.308 249.377 117.544 248.096C116.8 246.814 116.428 245.357 116.428 243.725C116.428 242.071 116.789 240.614 117.513 239.354C118.257 238.072 119.269 237.07 120.551 236.347C121.853 235.623 123.33 235.262 124.984 235.262C126.596 235.262 128.032 235.613 129.293 236.316C130.553 237.018 131.545 238.01 132.269 239.292C132.992 240.573 133.354 242.082 133.354 243.818C133.354 243.983 133.343 244.169 133.323 244.376C133.323 244.582 133.312 244.779 133.292 244.965H119.497V242.392H131.246L129.727 243.198C129.747 242.247 129.551 241.41 129.138 240.687C128.724 239.963 128.156 239.395 127.433 238.982C126.73 238.568 125.914 238.362 124.984 238.362C124.033 238.362 123.196 238.568 122.473 238.982C121.77 239.395 121.212 239.974 120.799 240.718C120.406 241.441 120.21 242.299 120.21 243.291V243.911C120.21 244.903 120.437 245.781 120.892 246.546C121.346 247.31 121.987 247.899 122.814 248.313C123.64 248.726 124.591 248.933 125.666 248.933C126.596 248.933 127.433 248.788 128.177 248.499C128.921 248.209 129.582 247.755 130.161 247.135L132.238 249.522C131.494 250.39 130.553 251.061 129.417 251.537C128.301 251.991 127.019 252.219 125.573 252.219Z" fill="white"/>
<path d="M105.191 252.219C103.496 252.219 101.987 251.857 100.665 251.134C99.3421 250.39 98.2984 249.377 97.5337 248.096C96.769 246.814 96.3867 245.357 96.3867 243.725C96.3867 242.071 96.769 240.614 97.5337 239.354C98.2984 238.072 99.3421 237.07 100.665 236.347C101.987 235.623 103.496 235.262 105.191 235.262C106.906 235.262 108.425 235.623 109.748 236.347C111.091 237.07 112.135 238.062 112.879 239.323C113.643 240.583 114.026 242.051 114.026 243.725C114.026 245.357 113.643 246.814 112.879 248.096C112.135 249.377 111.091 250.39 109.748 251.134C108.425 251.857 106.906 252.219 105.191 252.219ZM105.191 248.902C106.141 248.902 106.989 248.695 107.733 248.282C108.477 247.868 109.055 247.269 109.469 246.484C109.903 245.698 110.12 244.779 110.12 243.725C110.12 242.65 109.903 241.73 109.469 240.966C109.055 240.18 108.477 239.581 107.733 239.168C106.989 238.754 106.152 238.548 105.222 238.548C104.271 238.548 103.424 238.754 102.68 239.168C101.956 239.581 101.378 240.18 100.944 240.966C100.51 241.73 100.293 242.65 100.293 243.725C100.293 244.779 100.51 245.698 100.944 246.484C101.378 247.269 101.956 247.868 102.68 248.282C103.424 248.695 104.261 248.902 105.191 248.902Z" fill="white"/>
<path d="M85.0411 252.312C83.6771 252.312 82.4577 252.105 81.383 251.692C80.3084 251.278 79.3784 250.648 78.593 249.801C77.8284 248.933 77.2394 247.837 76.826 246.515C76.4127 245.192 76.2061 243.621 76.2061 241.803C76.2061 240.48 76.3197 239.271 76.5471 238.176C76.7744 237.08 77.1154 236.099 77.5701 235.231C78.0247 234.342 78.5931 233.557 79.2751 232.875C79.9777 232.193 80.7941 231.624 81.7241 231.17C82.6541 230.715 83.7081 230.364 84.8861 230.116L92.5741 228.473L93.132 231.945L86.1571 233.371C85.7644 233.453 85.289 233.577 84.731 233.743C84.1937 233.887 83.6357 234.115 83.0571 234.425C82.4991 234.714 81.9721 235.138 81.4761 235.696C81.0007 236.233 80.608 236.936 80.298 237.804C80.0087 238.651 79.8641 239.715 79.8641 240.997C79.8641 241.389 79.8744 241.689 79.8951 241.896C79.9364 242.082 79.9674 242.288 79.9881 242.516C80.0294 242.722 80.05 243.032 80.05 243.446L78.593 241.927C79.0064 240.873 79.5747 239.974 80.298 239.23C81.0421 238.465 81.8997 237.886 82.8711 237.494C83.8631 237.08 84.9377 236.874 86.0951 236.874C87.6451 236.874 89.0194 237.194 90.2181 237.835C91.4167 238.475 92.3571 239.374 93.0391 240.532C93.7211 241.689 94.062 243.001 94.062 244.469C94.062 245.998 93.6901 247.352 92.9461 248.53C92.2021 249.708 91.1481 250.638 89.784 251.32C88.4407 251.981 86.8597 252.312 85.0411 252.312ZM85.3511 249.181C86.2811 249.181 87.0974 248.984 87.8 248.592C88.5234 248.178 89.0814 247.62 89.4741 246.918C89.8874 246.215 90.0941 245.43 90.0941 244.562C90.0941 243.694 89.8874 242.939 89.4741 242.299C89.0814 241.637 88.5234 241.11 87.8 240.718C87.0974 240.325 86.2604 240.129 85.2891 240.129C84.3591 240.129 83.5221 240.315 82.7781 240.687C82.0547 241.059 81.4864 241.575 81.0731 242.237C80.6804 242.877 80.4841 243.621 80.4841 244.469C80.4841 245.337 80.6907 246.132 81.104 246.856C81.5174 247.579 82.0857 248.147 82.8091 248.561C83.5531 248.974 84.4004 249.181 85.3511 249.181Z" fill="white"/>
<path d="M49.5869 252.002V235.448H53.4619V241.865H58.3909V245.368H53.4619V252.002H49.5869ZM64.7149 252.219C63.0616 252.219 61.5839 251.857 60.2819 251.134C59.0006 250.39 57.9879 249.377 57.2439 248.096C56.4999 246.814 56.1279 245.357 56.1279 243.725C56.1279 242.071 56.4999 240.604 57.2439 239.323C57.9879 238.041 59.0006 237.049 60.2819 236.347C61.5839 235.623 63.0616 235.262 64.7149 235.262C66.3889 235.262 67.8666 235.623 69.1479 236.347C70.4499 237.049 71.4729 238.041 72.2169 239.323C72.9609 240.604 73.3329 242.071 73.3329 243.725C73.3329 245.357 72.9609 246.825 72.2169 248.127C71.4729 249.408 70.4499 250.41 69.1479 251.134C67.8666 251.857 66.3889 252.219 64.7149 252.219ZM64.7149 248.933C65.6449 248.933 66.4612 248.716 67.1639 248.282C67.8872 247.848 68.4556 247.248 68.8689 246.484C69.2822 245.719 69.4889 244.799 69.4889 243.725C69.4889 242.65 69.2822 241.73 68.8689 240.966C68.4556 240.18 67.8872 239.581 67.1639 239.168C66.4612 238.754 65.6552 238.548 64.7459 238.548C63.8366 238.548 63.0202 238.754 62.2969 239.168C61.5736 239.581 61.0052 240.18 60.5919 240.966C60.1786 241.73 59.9719 242.65 59.9719 243.725C59.9719 244.799 60.1786 245.719 60.5919 246.484C61.0052 247.248 61.5736 247.848 62.2969 248.282C63.0202 248.716 63.8263 248.933 64.7149 248.933Z" fill="white"/>
<path d="M26.9463 251.972L27.1323 248.717C27.277 248.738 27.4113 248.759 27.5353 248.779C27.6593 248.8 27.773 248.81 27.8763 248.81C28.517 248.81 29.013 248.614 29.3643 248.221C29.7156 247.829 29.974 247.302 30.1393 246.64C30.3253 245.958 30.4493 245.204 30.5113 244.377C30.594 243.53 30.656 242.683 30.6973 241.835L30.9763 235.449H44.3683V252.003H40.4933V237.681L41.3923 238.735H33.5183L34.3553 237.65L34.1383 242.021C34.0763 243.489 33.9523 244.853 33.7663 246.113C33.601 247.353 33.3323 248.438 32.9603 249.368C32.609 250.298 32.113 251.022 31.4723 251.538C30.8523 252.055 30.0566 252.313 29.0853 252.313C28.7753 252.313 28.4343 252.282 28.0623 252.22C27.711 252.158 27.339 252.076 26.9463 251.972Z" fill="white"/>
<path d="M1.60352 252.003V235.449H9.69452C11.6992 235.449 13.2698 235.821 14.4065 236.565C15.5639 237.309 16.1425 238.363 16.1425 239.727C16.1425 241.071 15.6052 242.125 14.5305 242.889C13.4558 243.633 12.0299 244.005 10.2525 244.005L10.7175 243.044C12.7222 243.044 14.2102 243.416 15.1815 244.16C16.1735 244.884 16.6695 245.948 16.6695 247.353C16.6695 248.821 16.1219 249.968 15.0265 250.794C13.9312 251.6 12.2675 252.003 10.0355 252.003H1.60352ZM5.29252 249.182H9.72552C10.7795 249.182 11.5752 249.017 12.1125 248.686C12.6498 248.335 12.9185 247.808 12.9185 247.105C12.9185 246.361 12.6705 245.814 12.1745 245.462C11.6785 245.111 10.9035 244.935 9.84952 244.935H5.29252V249.182ZM5.29252 242.362H9.35352C10.3455 242.362 11.0895 242.187 11.5855 241.835C12.1022 241.463 12.3605 240.947 12.3605 240.285C12.3605 239.603 12.1022 239.097 11.5855 238.766C11.0895 238.436 10.3455 238.27 9.35352 238.27H5.29252V242.362Z" fill="white"/>
<path d="M136.441 214.003V197.449H140.316V208.361L149.461 197.449H152.995V214.003H149.12V203.091L140.006 214.003H136.441Z" fill="white"/>
<path d="M129.151 214.003L123.168 206.067L126.33 204.114L133.708 214.003H129.151ZM117.278 214.003V197.449H121.153V214.003H117.278ZM120.006 207.369V204.145H125.617V207.369H120.006ZM126.702 206.191L123.075 205.757L129.151 197.449H133.305L126.702 206.191Z" fill="white"/>
<path d="M94.6377 213.972L94.8237 210.717C94.9684 210.738 95.1027 210.759 95.2267 210.779C95.3507 210.8 95.4644 210.81 95.5677 210.81C96.2084 210.81 96.7044 210.614 97.0557 210.221C97.407 209.829 97.6654 209.302 97.8307 208.64C98.0167 207.958 98.1407 207.204 98.2027 206.377C98.2854 205.53 98.3474 204.683 98.3887 203.835L98.6677 197.449H112.06V214.003H108.185V199.681L109.084 200.735H101.21L102.047 199.65L101.83 204.021C101.768 205.489 101.644 206.853 101.458 208.113C101.292 209.353 101.024 210.438 100.652 211.368C100.3 212.298 99.8044 213.022 99.1637 213.538C98.5437 214.055 97.748 214.313 96.7767 214.313C96.4667 214.313 96.1257 214.282 95.7537 214.22C95.4024 214.158 95.0304 214.076 94.6377 213.972Z" fill="white"/>
<path d="M81.2279 220.234C80.4219 220.234 79.6159 220.1 78.8099 219.831C78.0039 219.563 77.3323 219.191 76.7949 218.715L78.3449 215.863C78.7376 216.215 79.1819 216.494 79.6779 216.7C80.1739 216.907 80.6803 217.01 81.1969 217.01C81.8996 217.01 82.4679 216.835 82.9019 216.483C83.3359 216.132 83.7389 215.543 84.1109 214.716L85.0719 212.546L85.3819 212.081L91.6439 197.449H95.3639L87.6139 215.336C87.0973 216.576 86.5186 217.558 85.8779 218.281C85.2579 219.005 84.5553 219.511 83.7699 219.8C83.0053 220.09 82.1579 220.234 81.2279 220.234ZM84.6379 214.592L77.1669 197.449H81.1969L87.2729 211.74L84.6379 214.592Z" fill="white"/>
<path d="M64.1787 214.003V197.449H76.8887V200.735H67.1547L68.0537 199.867V214.003H64.1787Z" fill="white"/>
<path d="M51.5159 214.219C49.8212 214.219 48.3126 213.857 46.9899 213.134C45.6672 212.39 44.6236 211.377 43.8589 210.096C43.0942 208.814 42.7119 207.357 42.7119 205.725C42.7119 204.071 43.0942 202.614 43.8589 201.354C44.6236 200.072 45.6672 199.07 46.9899 198.347C48.3126 197.623 49.8212 197.262 51.5159 197.262C53.2312 197.262 54.7502 197.623 56.0729 198.347C57.4162 199.07 58.4599 200.062 59.2039 201.323C59.9686 202.583 60.3509 204.051 60.3509 205.725C60.3509 207.357 59.9686 208.814 59.2039 210.096C58.4599 211.377 57.4162 212.39 56.0729 213.134C54.7502 213.857 53.2312 214.219 51.5159 214.219ZM51.5159 210.902C52.4666 210.902 53.3139 210.695 54.0579 210.282C54.8019 209.868 55.3806 209.269 55.7939 208.484C56.2279 207.698 56.4449 206.779 56.4449 205.725C56.4449 204.65 56.2279 203.73 55.7939 202.966C55.3806 202.18 54.8019 201.581 54.0579 201.168C53.3139 200.754 52.4769 200.548 51.5469 200.548C50.5962 200.548 49.7489 200.754 49.0049 201.168C48.2816 201.581 47.7029 202.18 47.2689 202.966C46.8349 203.73 46.6179 204.65 46.6179 205.725C46.6179 206.779 46.8349 207.698 47.2689 208.484C47.7029 209.269 48.2816 209.868 49.0049 210.282C49.7489 210.695 50.5859 210.902 51.5159 210.902Z" fill="white"/>
<path d="M31.8801 214.219C30.5368 214.219 29.3071 213.909 28.1911 213.289C27.0958 212.669 26.2174 211.739 25.5561 210.499C24.9154 209.238 24.5951 207.647 24.5951 205.725C24.5951 203.782 24.9051 202.191 25.5251 200.951C26.1658 199.711 27.0338 198.791 28.1291 198.192C29.2244 197.572 30.4748 197.262 31.8801 197.262C33.5128 197.262 34.9491 197.613 36.1891 198.316C37.4498 199.018 38.4418 200 39.1651 201.261C39.9091 202.521 40.2811 204.009 40.2811 205.725C40.2811 207.44 39.9091 208.938 39.1651 210.22C38.4418 211.48 37.4498 212.462 36.1891 213.165C34.9491 213.867 33.5128 214.219 31.8801 214.219ZM22.7041 220.016V197.448H26.3931V201.354L26.2691 205.756L26.5791 210.158V220.016H22.7041ZM31.4461 210.902C32.3761 210.902 33.2028 210.695 33.9261 210.282C34.6701 209.868 35.2591 209.269 35.6931 208.484C36.1271 207.698 36.3441 206.779 36.3441 205.725C36.3441 204.65 36.1271 203.73 35.6931 202.966C35.2591 202.18 34.6701 201.581 33.9261 201.168C33.2028 200.754 32.3761 200.548 31.4461 200.548C30.5161 200.548 29.6791 200.754 28.9351 201.168C28.1911 201.581 27.6021 202.18 27.1681 202.966C26.7341 203.73 26.5171 204.65 26.5171 205.725C26.5171 206.779 26.7341 207.698 27.1681 208.484C27.6021 209.269 28.1911 209.868 28.9351 210.282C29.6791 210.695 30.5161 210.902 31.4461 210.902Z" fill="white"/>
<path d="M1.60352 214.003V197.449H17.4755V214.003H13.6315V199.836L14.5305 200.735H4.57952L5.47852 199.836V214.003H1.60352Z" fill="white"/>
<path d="M200.372 176.002V172.654L200.155 171.941V166.082C200.155 164.945 199.814 164.067 199.132 163.447C198.45 162.806 197.417 162.486 196.032 162.486C195.102 162.486 194.182 162.63 193.273 162.92C192.384 163.209 191.63 163.612 191.01 164.129L189.491 161.308C190.38 160.626 191.434 160.119 192.653 159.789C193.893 159.437 195.174 159.262 196.497 159.262C198.894 159.262 200.744 159.84 202.046 160.998C203.369 162.134 204.03 163.901 204.03 166.299V176.002H200.372ZM195.164 176.219C193.924 176.219 192.839 176.012 191.909 175.599C190.979 175.165 190.256 174.576 189.739 173.832C189.243 173.067 188.995 172.209 188.995 171.259C188.995 170.329 189.212 169.492 189.646 168.748C190.101 168.004 190.834 167.415 191.847 166.981C192.86 166.547 194.203 166.33 195.877 166.33H200.682V168.903H196.156C194.833 168.903 193.945 169.12 193.49 169.554C193.035 169.967 192.808 170.484 192.808 171.104C192.808 171.806 193.087 172.364 193.645 172.778C194.203 173.191 194.978 173.398 195.97 173.398C196.921 173.398 197.768 173.181 198.512 172.747C199.277 172.313 199.824 171.672 200.155 170.825L200.806 173.15C200.434 174.121 199.762 174.875 198.791 175.413C197.84 175.95 196.631 176.219 195.164 176.219Z" fill="white"/>
<path d="M169.046 176.003V159.449H172.921V166.176H181.26V159.449H185.135V176.003H181.26V169.462H172.921V176.003H169.046Z" fill="white"/>
<path d="M150.532 164.905C152.66 164.905 154.283 165.381 155.399 166.331C156.515 167.282 157.073 168.625 157.073 170.361C157.073 172.159 156.453 173.565 155.213 174.577C153.973 175.569 152.226 176.055 149.974 176.034L142.224 176.003V159.449H146.099V164.874L150.532 164.905ZM149.633 173.182C150.769 173.203 151.637 172.965 152.237 172.469C152.836 171.973 153.136 171.25 153.136 170.299C153.136 169.349 152.836 168.667 152.237 168.253C151.658 167.819 150.79 167.592 149.633 167.571L146.099 167.54V173.151L149.633 173.182Z" fill="white"/>
<path d="M129.741 176.003V161.805L130.64 162.735H123.913V159.449H139.413V162.735H132.717L133.616 161.805V176.003H129.741Z" fill="white"/>
<path d="M104.533 176.003V159.449H108.408V170.361L117.553 159.449H121.087V176.003H117.212V165.091L108.098 176.003H104.533Z" fill="white"/>
<path d="M94.7481 174.205V162.735H88.3932L88.3001 165.401C88.2588 166.352 88.1968 167.272 88.1142 168.16C88.0315 169.028 87.8972 169.834 87.7112 170.578C87.5252 171.302 87.2565 171.901 86.9052 172.376C86.5538 172.852 86.0888 173.162 85.5101 173.306L81.6661 172.717C82.2861 172.717 82.7822 172.521 83.1542 172.128C83.5468 171.715 83.8465 171.157 84.0531 170.454C84.2805 169.731 84.4458 168.915 84.5491 168.005C84.6525 167.075 84.7248 166.114 84.7662 165.122L84.9831 159.449H98.6232V174.205H94.7481ZM81.0771 179.692V172.717H101.072V179.692H97.4452V176.003H84.6731V179.692H81.0771Z" fill="white"/>
<path d="M70.9212 176.219C69.2265 176.219 67.7179 175.857 66.3952 175.134C65.0725 174.39 64.0288 173.377 63.2642 172.096C62.4995 170.814 62.1172 169.357 62.1172 167.725C62.1172 166.071 62.4995 164.614 63.2642 163.354C64.0288 162.072 65.0725 161.07 66.3952 160.347C67.7179 159.623 69.2265 159.262 70.9212 159.262C72.6365 159.262 74.1555 159.623 75.4782 160.347C76.8215 161.07 77.8652 162.062 78.6092 163.323C79.3739 164.583 79.7562 166.051 79.7562 167.725C79.7562 169.357 79.3739 170.814 78.6092 172.096C77.8652 173.377 76.8215 174.39 75.4782 175.134C74.1555 175.857 72.6365 176.219 70.9212 176.219ZM70.9212 172.902C71.8719 172.902 72.7192 172.695 73.4632 172.282C74.2072 171.868 74.7859 171.269 75.1992 170.484C75.6332 169.698 75.8502 168.779 75.8502 167.725C75.8502 166.65 75.6332 165.73 75.1992 164.966C74.7859 164.18 74.2072 163.581 73.4632 163.168C72.7192 162.754 71.8822 162.548 70.9522 162.548C70.0015 162.548 69.1542 162.754 68.4102 163.168C67.6869 163.581 67.1082 164.18 66.6742 164.966C66.2402 165.73 66.0232 166.65 66.0232 167.725C66.0232 168.779 66.2402 169.698 66.6742 170.484C67.1082 171.269 67.6869 171.868 68.4102 172.282C69.1542 172.695 69.9912 172.902 70.9212 172.902Z" fill="white"/>
<path d="M44.1406 176.003L51.4256 166.517L51.3636 168.594L44.4196 159.449H48.7286L53.5956 165.959H51.9526L56.8506 159.449H61.0356L54.0296 168.594L54.0606 166.517L61.3146 176.003H56.9436L51.8286 169.09L53.4406 169.307L48.4186 176.003H44.1406Z" fill="white"/>
<path d="M37.5059 176.003V159.449H41.3809V176.003H37.5059ZM28.8569 164.905C30.9855 164.905 32.5975 165.381 33.6929 166.331C34.8089 167.282 35.3669 168.625 35.3669 170.361C35.3669 172.159 34.7469 173.565 33.5069 174.577C32.2875 175.569 30.5515 176.055 28.2989 176.034L20.7969 176.003V159.449H24.6719V164.874L28.8569 164.905ZM27.9579 173.182C29.0945 173.203 29.9625 172.965 30.5619 172.469C31.1612 171.973 31.4609 171.25 31.4609 170.299C31.4609 169.349 31.1612 168.667 30.5619 168.253C29.9832 167.819 29.1152 167.592 27.9579 167.571L24.6719 167.54V173.151L27.9579 173.182Z" fill="white"/>
<path d="M1.60352 176.003V159.449H9.69452C11.6992 159.449 13.2698 159.821 14.4065 160.565C15.5639 161.309 16.1425 162.363 16.1425 163.727C16.1425 165.071 15.6052 166.125 14.5305 166.889C13.4558 167.633 12.0299 168.005 10.2525 168.005L10.7175 167.044C12.7222 167.044 14.2102 167.416 15.1815 168.16C16.1735 168.884 16.6695 169.948 16.6695 171.353C16.6695 172.821 16.1219 173.968 15.0265 174.794C13.9312 175.6 12.2675 176.003 10.0355 176.003H1.60352ZM5.29252 173.182H9.72552C10.7795 173.182 11.5752 173.017 12.1125 172.686C12.6498 172.335 12.9185 171.808 12.9185 171.105C12.9185 170.361 12.6705 169.814 12.1745 169.462C11.6785 169.111 10.9035 168.935 9.84952 168.935H5.29252V173.182ZM5.29252 166.362H9.35352C10.3455 166.362 11.0895 166.187 11.5855 165.835C12.1022 165.463 12.3605 164.947 12.3605 164.285C12.3605 163.603 12.1022 163.097 11.5855 162.766C11.0895 162.436 10.3455 162.27 9.35352 162.27H5.29252V166.362Z" fill="white"/>
<path d="M248.544 138.003V121.449H252.419V132.361L261.564 121.449H265.098V138.003H261.223V127.091L252.109 138.003H248.544Z" fill="white"/>
<path d="M223.568 138.003V121.449H227.629L234.294 133.198H232.682L239.688 121.449H243.315L243.346 138.003H239.843V125.603L240.463 126.006L234.263 136.267H232.589L226.358 125.727L227.102 125.541V138.003H223.568Z" fill="white"/>
<path d="M214.884 138.003V132.361L215.442 133.012H210.482C208.209 133.012 206.421 132.537 205.119 131.586C203.838 130.615 203.197 129.22 203.197 127.401C203.197 125.459 203.879 123.981 205.243 122.968C206.628 121.956 208.467 121.449 210.761 121.449H218.356V138.003H214.884ZM202.98 138.003L207.444 131.679H211.412L207.134 138.003H202.98ZM214.884 131.121V123.681L215.442 124.704H210.885C209.687 124.704 208.757 124.932 208.095 125.386C207.455 125.82 207.134 126.533 207.134 127.525C207.134 129.385 208.343 130.315 210.761 130.315H215.442L214.884 131.121Z" fill="white"/>
<path d="M192.104 138.003V123.805L193.003 124.735H186.276V121.449H201.776V124.735H195.08L195.979 123.805V138.003H192.104Z" fill="white"/>
<path d="M178.305 138.219C176.569 138.219 175.019 137.857 173.655 137.134C172.311 136.39 171.257 135.377 170.493 134.096C169.728 132.814 169.346 131.357 169.346 129.725C169.346 128.071 169.728 126.614 170.493 125.354C171.257 124.072 172.311 123.07 173.655 122.347C175.019 121.623 176.569 121.262 178.305 121.262C179.917 121.262 181.332 121.592 182.552 122.254C183.792 122.894 184.732 123.845 185.373 125.106L182.397 126.842C181.901 126.056 181.291 125.478 180.568 125.106C179.865 124.734 179.1 124.548 178.274 124.548C177.323 124.548 176.465 124.754 175.701 125.168C174.936 125.581 174.337 126.18 173.903 126.966C173.469 127.73 173.252 128.65 173.252 129.725C173.252 130.799 173.469 131.729 173.903 132.515C174.337 133.279 174.936 133.868 175.701 134.282C176.465 134.695 177.323 134.902 178.274 134.902C179.1 134.902 179.865 134.716 180.568 134.344C181.291 133.972 181.901 133.393 182.397 132.608L185.373 134.344C184.732 135.584 183.792 136.545 182.552 137.227C181.332 137.888 179.917 138.219 178.305 138.219Z" fill="white"/>
<path d="M158.109 138.219C156.414 138.219 154.905 137.857 153.583 137.134C152.26 136.39 151.216 135.377 150.452 134.096C149.687 132.814 149.305 131.357 149.305 129.725C149.305 128.071 149.687 126.614 150.452 125.354C151.216 124.072 152.26 123.07 153.583 122.347C154.905 121.623 156.414 121.262 158.109 121.262C159.824 121.262 161.343 121.623 162.666 122.347C164.009 123.07 165.053 124.062 165.797 125.323C166.561 126.583 166.944 128.051 166.944 129.725C166.944 131.357 166.561 132.814 165.797 134.096C165.053 135.377 164.009 136.39 162.666 137.134C161.343 137.857 159.824 138.219 158.109 138.219ZM158.109 134.902C159.059 134.902 159.907 134.695 160.651 134.282C161.395 133.868 161.973 133.269 162.387 132.484C162.821 131.698 163.038 130.779 163.038 129.725C163.038 128.65 162.821 127.73 162.387 126.966C161.973 126.18 161.395 125.581 160.651 125.168C159.907 124.754 159.07 124.548 158.14 124.548C157.189 124.548 156.342 124.754 155.598 125.168C154.874 125.581 154.296 126.18 153.862 126.966C153.428 127.73 153.211 128.65 153.211 129.725C153.211 130.779 153.428 131.698 153.862 132.484C154.296 133.269 154.874 133.868 155.598 134.282C156.342 134.695 157.179 134.902 158.109 134.902Z" fill="white"/>
<path d="M129.448 138.003V121.449H133.323V128.176H141.662V121.449H145.537V138.003H141.662V131.462H133.323V138.003H129.448Z" fill="white"/>
<path d="M121.949 138.003L117.113 130.067L120.275 128.114L126.568 138.003H121.949ZM113.982 131.369V128.145H119.531V131.369H113.982ZM120.647 130.191L116.989 129.757L122.011 121.449H126.134L120.647 130.191ZM104.465 138.003H99.877L106.139 128.114L109.301 130.067L104.465 138.003ZM115.129 138.003H111.285V121.449H115.129V138.003ZM112.432 131.369H106.914V128.145H112.432V131.369ZM105.767 130.191L100.28 121.449H104.403L109.394 129.757L105.767 130.191Z" fill="white"/>
<path d="M90.0843 138.219C88.3896 138.219 86.8809 137.857 85.5583 137.134C84.2356 136.39 83.1919 135.377 82.4273 134.096C81.6626 132.814 81.2803 131.357 81.2803 129.725C81.2803 128.071 81.6626 126.614 82.4273 125.354C83.1919 124.072 84.2356 123.07 85.5583 122.347C86.8809 121.623 88.3896 121.262 90.0843 121.262C91.7996 121.262 93.3186 121.623 94.6413 122.347C95.9846 123.07 97.0283 124.062 97.7723 125.323C98.5369 126.583 98.9193 128.051 98.9193 129.725C98.9193 131.357 98.5369 132.814 97.7723 134.096C97.0283 135.377 95.9846 136.39 94.6413 137.134C93.3186 137.857 91.7996 138.219 90.0843 138.219ZM90.0843 134.902C91.0349 134.902 91.8823 134.695 92.6263 134.282C93.3703 133.868 93.9489 133.269 94.3623 132.484C94.7963 131.698 95.0133 130.779 95.0133 129.725C95.0133 128.65 94.7963 127.73 94.3623 126.966C93.9489 126.18 93.3703 125.581 92.6263 125.168C91.8823 124.754 91.0453 124.548 90.1153 124.548C89.1646 124.548 88.3173 124.754 87.5733 125.168C86.8499 125.581 86.2713 126.18 85.8373 126.966C85.4033 127.73 85.1863 128.65 85.1863 129.725C85.1863 130.779 85.4033 131.698 85.8373 132.484C86.2713 133.269 86.8499 133.868 87.5733 134.282C88.3173 134.695 89.1543 134.902 90.0843 134.902Z" fill="white"/>
<path d="M57.7305 138.003V121.449H61.7915L68.4565 133.198H66.8445L73.8505 121.449H77.4775L77.5085 138.003H74.0055V125.603L74.6255 126.006L68.4255 136.267H66.7515L60.5205 125.727L61.2645 125.541V138.003H57.7305Z" fill="white"/>
<path d="M45.8346 138.282C44.5739 138.282 43.3236 138.137 42.0836 137.848C40.8643 137.538 39.7586 137.104 38.7666 136.546L39.8516 133.663C40.6576 134.117 41.5669 134.469 42.5796 134.717C43.5923 134.965 44.6049 135.089 45.6176 135.089C46.4856 135.089 47.2296 135.006 47.8496 134.841C48.4696 134.655 48.9449 134.386 49.2756 134.035C49.6269 133.683 49.8026 133.28 49.8026 132.826C49.8026 132.164 49.5133 131.668 48.9346 131.338C48.3766 130.986 47.5706 130.811 46.5166 130.811H43.3236V128.207H46.2066C46.8679 128.207 47.4259 128.134 47.8806 127.99C48.3559 127.845 48.7176 127.628 48.9656 127.339C49.2136 127.049 49.3376 126.708 49.3376 126.316C49.3376 125.923 49.1826 125.582 48.8726 125.293C48.5833 124.983 48.1596 124.755 47.6016 124.611C47.0436 124.445 46.3719 124.363 45.5866 124.363C44.7599 124.363 43.9023 124.466 43.0136 124.673C42.1456 124.879 41.2569 125.179 40.3476 125.572L39.3556 122.72C40.4096 122.244 41.4326 121.883 42.4246 121.635C43.4373 121.366 44.4396 121.221 45.4316 121.201C46.9403 121.139 48.2836 121.294 49.4616 121.666C50.6396 122.038 51.5696 122.575 52.2516 123.278C52.9336 123.98 53.2746 124.807 53.2746 125.758C53.2746 126.543 53.0266 127.256 52.5306 127.897C52.0553 128.517 51.3939 129.002 50.5466 129.354C49.7199 129.705 48.7693 129.881 47.6946 129.881L47.8186 129.044C49.6579 129.044 51.1046 129.416 52.1586 130.16C53.2126 130.883 53.7396 131.875 53.7396 133.136C53.7396 134.148 53.3986 135.047 52.7166 135.833C52.0346 136.597 51.0943 137.197 49.8956 137.631C48.7176 138.065 47.3639 138.282 45.8346 138.282Z" fill="white"/>
<path d="M28.1751 138.219C26.4804 138.219 24.9718 137.857 23.6491 137.134C22.3264 136.39 21.2828 135.377 20.5181 134.096C19.7534 132.814 19.3711 131.357 19.3711 129.725C19.3711 128.071 19.7534 126.614 20.5181 125.354C21.2828 124.072 22.3264 123.07 23.6491 122.347C24.9718 121.623 26.4804 121.262 28.1751 121.262C29.8904 121.262 31.4094 121.623 32.7321 122.347C34.0754 123.07 35.1191 124.062 35.8631 125.323C36.6278 126.583 37.0101 128.051 37.0101 129.725C37.0101 131.357 36.6278 132.814 35.8631 134.096C35.1191 135.377 34.0754 136.39 32.7321 137.134C31.4094 137.857 29.8904 138.219 28.1751 138.219ZM28.1751 134.902C29.1258 134.902 29.9731 134.695 30.7171 134.282C31.4611 133.868 32.0398 133.269 32.4531 132.484C32.8871 131.698 33.1041 130.779 33.1041 129.725C33.1041 128.65 32.8871 127.73 32.4531 126.966C32.0398 126.18 31.4611 125.581 30.7171 125.168C29.9731 124.754 29.1361 124.548 28.2061 124.548C27.2554 124.548 26.4081 124.754 25.6641 125.168C24.9408 125.581 24.3621 126.18 23.9281 126.966C23.4941 127.73 23.2771 128.65 23.2771 129.725C23.2771 130.779 23.4941 131.698 23.9281 132.484C24.3621 133.269 24.9408 133.868 25.6641 134.282C26.4081 134.695 27.2451 134.902 28.1751 134.902Z" fill="white"/>
<path d="M1.60352 138.003V121.449H9.69452C11.6992 121.449 13.2698 121.821 14.4065 122.565C15.5639 123.309 16.1425 124.363 16.1425 125.727C16.1425 127.071 15.6052 128.125 14.5305 128.889C13.4558 129.633 12.0299 130.005 10.2525 130.005L10.7175 129.044C12.7222 129.044 14.2102 129.416 15.1815 130.16C16.1735 130.884 16.6695 131.948 16.6695 133.353C16.6695 134.821 16.1219 135.968 15.0265 136.794C13.9312 137.6 12.2675 138.003 10.0355 138.003H1.60352ZM5.29252 135.182H9.72552C10.7795 135.182 11.5752 135.017 12.1125 134.686C12.6498 134.335 12.9185 133.808 12.9185 133.105C12.9185 132.361 12.6705 131.814 12.1745 131.462C11.6785 131.111 10.9035 130.935 9.84952 130.935H5.29252V135.182ZM5.29252 128.362H9.35352C10.3455 128.362 11.0895 128.187 11.5855 127.835C12.1022 127.463 12.3605 126.947 12.3605 126.285C12.3605 125.603 12.1022 125.097 11.5855 124.766C11.0895 124.436 10.3455 124.27 9.35352 124.27H5.29252V128.362Z" fill="white"/>
<path d="M278.848 100.003V83.4492H282.723V94.3612L291.868 83.4492H295.402V100.003H291.527V89.0912L282.413 100.003H278.848Z" fill="white"/>
<path d="M253.872 100.003V83.4492H257.933L264.598 95.1982H262.986L269.992 83.4492H273.619L273.65 100.003H270.147V87.6032L270.767 88.0062L264.567 98.2672H262.893L256.662 87.7272L257.406 87.5412V100.003H253.872Z" fill="white"/>
<path d="M244.788 100.003V83.4492H248.663V100.003H244.788ZM236.139 88.9052C238.268 88.9052 239.88 89.3806 240.975 90.3312C242.091 91.2819 242.649 92.6252 242.649 94.3612C242.649 96.1592 242.029 97.5646 240.789 98.5772C239.57 99.5692 237.834 100.055 235.581 100.034L228.079 100.003V83.4492H231.954V88.8742L236.139 88.9052ZM235.24 97.1822C236.377 97.2029 237.245 96.9652 237.844 96.4692C238.443 95.9732 238.743 95.2499 238.743 94.2992C238.743 93.3486 238.443 92.6666 237.844 92.2532C237.265 91.8192 236.397 91.5919 235.24 91.5712L231.954 91.5402V97.1512L235.24 97.1822Z" fill="white"/>
<path d="M206.797 100.003V83.4492H210.672V90.1762H219.011V83.4492H222.886V100.003H219.011V93.4622H210.672V100.003H206.797Z" fill="white"/>
<path d="M185.515 100.003V83.4492H189.39V90.1762H197.729V83.4492H201.604V100.003H197.729V93.4622H189.39V100.003H185.515Z" fill="white"/>
<path d="M173.496 100.219C171.656 100.219 170.044 99.8571 168.66 99.1337C167.296 98.3897 166.231 97.3771 165.467 96.0957C164.723 94.8144 164.351 93.3574 164.351 91.7247C164.351 90.0714 164.712 88.6144 165.436 87.3537C166.18 86.0724 167.192 85.0701 168.474 84.3467C169.776 83.6234 171.253 83.2617 172.907 83.2617C174.519 83.2617 175.955 83.613 177.216 84.3157C178.476 85.0184 179.468 86.0104 180.192 87.2917C180.915 88.5731 181.277 90.0817 181.277 91.8177C181.277 91.9831 181.266 92.1691 181.246 92.3757C181.246 92.5824 181.235 92.7787 181.215 92.9647H167.42V90.3917H179.169L177.65 91.1977C177.67 90.247 177.474 89.41 177.061 88.6867C176.647 87.9634 176.079 87.395 175.356 86.9817C174.653 86.5684 173.837 86.3617 172.907 86.3617C171.956 86.3617 171.119 86.5684 170.396 86.9817C169.693 87.395 169.135 87.9737 168.722 88.7177C168.329 89.441 168.133 90.2987 168.133 91.2907V91.9107C168.133 92.9027 168.36 93.781 168.815 94.5457C169.269 95.3104 169.91 95.8994 170.737 96.3127C171.563 96.726 172.514 96.9327 173.589 96.9327C174.519 96.9327 175.356 96.7881 176.1 96.4987C176.844 96.2094 177.505 95.7547 178.084 95.1347L180.161 97.5217C179.417 98.3897 178.476 99.0614 177.34 99.5367C176.224 99.9914 174.942 100.219 173.496 100.219Z" fill="white"/>
<path d="M156.97 93.4622C156.184 93.8342 155.347 94.1442 154.459 94.3922C153.591 94.6196 152.671 94.7332 151.7 94.7332C149.612 94.7332 147.99 94.2476 146.833 93.2762C145.675 92.3049 145.097 90.7962 145.097 88.7502V83.4492H148.972V88.5022C148.972 89.5976 149.282 90.3932 149.902 90.8892C150.542 91.3852 151.421 91.6332 152.537 91.6332C153.281 91.6332 154.025 91.5402 154.769 91.3542C155.513 91.1682 156.246 90.9099 156.97 90.5792V93.4622ZM156.691 100.003V83.4492H160.566V100.003H156.691Z" fill="white"/>
<path d="M124.756 100.003V83.4492H128.631V94.3612L137.776 83.4492H141.31V100.003H137.435V89.0912L128.321 100.003H124.756Z" fill="white"/>
<path d="M103.474 100.003V83.4492H107.349V90.1762H115.688V83.4492H119.563V100.003H115.688V93.4622H107.349V100.003H103.474Z" fill="white"/>
<path d="M95.0206 100.002V96.6537L94.8036 95.9407V90.0817C94.8036 88.9451 94.4626 88.0667 93.7806 87.4467C93.0986 86.806 92.0652 86.4857 90.6805 86.4857C89.7505 86.4857 88.8309 86.6304 87.9216 86.9197C87.0329 87.209 86.2786 87.612 85.6586 88.1287L84.1395 85.3077C85.0282 84.6257 86.0822 84.1194 87.3016 83.7887C88.5416 83.4374 89.8229 83.2617 91.1456 83.2617C93.5429 83.2617 95.3925 83.8404 96.6945 84.9977C98.0172 86.1344 98.6786 87.9014 98.6786 90.2987V100.002H95.0206ZM89.8126 100.219C88.5726 100.219 87.4875 100.012 86.5575 99.5987C85.6275 99.1647 84.9042 98.5757 84.3876 97.8317C83.8916 97.0671 83.6436 96.2094 83.6436 95.2587C83.6436 94.3287 83.8605 93.4917 84.2945 92.7477C84.7492 92.0037 85.4829 91.4147 86.4956 90.9807C87.5082 90.5467 88.8516 90.3297 90.5256 90.3297H95.3306V92.9027H90.8046C89.4819 92.9027 88.5932 93.1197 88.1385 93.5537C87.6839 93.9671 87.4566 94.4837 87.4566 95.1037C87.4566 95.8064 87.7355 96.3644 88.2935 96.7777C88.8515 97.1911 89.6266 97.3977 90.6186 97.3977C91.5692 97.3977 92.4166 97.1807 93.1606 96.7467C93.9252 96.3127 94.4729 95.672 94.8036 94.8247L95.4546 97.1497C95.0826 98.1211 94.4109 98.8754 93.4396 99.4127C92.4889 99.9501 91.2799 100.219 89.8126 100.219Z" fill="white"/>
<path d="M72.9309 100.219C71.5875 100.219 70.3579 99.9087 69.2419 99.2887C68.1465 98.6687 67.2682 97.7387 66.6069 96.4987C65.9662 95.2381 65.6459 93.6467 65.6459 91.7247C65.6459 89.782 65.9559 88.1907 66.5759 86.9507C67.2165 85.7107 68.0845 84.791 69.1799 84.1917C70.2752 83.5717 71.5255 83.2617 72.9309 83.2617C74.5635 83.2617 75.9999 83.613 77.2399 84.3157C78.5006 85.0184 79.4925 86.0001 80.2159 87.2607C80.9599 88.5214 81.3319 90.0094 81.3319 91.7247C81.3319 93.4401 80.9599 94.9384 80.2159 96.2197C79.4925 97.4804 78.5006 98.4621 77.2399 99.1647C75.9999 99.8674 74.5635 100.219 72.9309 100.219ZM63.7549 106.016V83.4477H67.4439V87.3537L67.3199 91.7557L67.6299 96.1577V106.016H63.7549ZM72.4969 96.9017C73.4269 96.9017 74.2535 96.695 74.9769 96.2817C75.7209 95.8684 76.3099 95.2691 76.7439 94.4837C77.1779 93.6984 77.3949 92.7787 77.3949 91.7247C77.3949 90.65 77.1779 89.7304 76.7439 88.9657C76.3099 88.1804 75.7209 87.5811 74.9769 87.1677C74.2535 86.7544 73.4269 86.5477 72.4969 86.5477C71.5669 86.5477 70.7299 86.7544 69.9859 87.1677C69.2419 87.5811 68.6529 88.1804 68.2189 88.9657C67.7849 89.7304 67.5679 90.65 67.5679 91.7247C67.5679 92.7787 67.7849 93.6984 68.2189 94.4837C68.6529 95.2691 69.2419 95.8684 69.9859 96.2817C70.7299 96.695 71.5669 96.9017 72.4969 96.9017Z" fill="white"/>
<path d="M48.2246 100.003V83.4492H60.9346V86.7352H51.2006L52.0996 85.8672V100.003H48.2246Z" fill="white"/>
<path d="M35.5618 100.219C33.8671 100.219 32.3585 99.8571 31.0358 99.1337C29.7131 98.3897 28.6695 97.3771 27.9048 96.0957C27.1401 94.8144 26.7578 93.3574 26.7578 91.7247C26.7578 90.0714 27.1401 88.6144 27.9048 87.3537C28.6695 86.0724 29.7131 85.0701 31.0358 84.3467C32.3585 83.6234 33.8671 83.2617 35.5618 83.2617C37.2771 83.2617 38.7961 83.6234 40.1188 84.3467C41.4621 85.0701 42.5058 86.062 43.2498 87.3227C44.0145 88.5834 44.3968 90.0507 44.3968 91.7247C44.3968 93.3574 44.0145 94.8144 43.2498 96.0957C42.5058 97.3771 41.4621 98.3897 40.1188 99.1337C38.7961 99.8571 37.2771 100.219 35.5618 100.219ZM35.5618 96.9017C36.5125 96.9017 37.3598 96.695 38.1038 96.2817C38.8478 95.8684 39.4265 95.2691 39.8398 94.4837C40.2738 93.6984 40.4908 92.7787 40.4908 91.7247C40.4908 90.65 40.2738 89.7304 39.8398 88.9657C39.4265 88.1804 38.8478 87.5811 38.1038 87.1677C37.3598 86.7544 36.5228 86.5477 35.5928 86.5477C34.6421 86.5477 33.7948 86.7544 33.0508 87.1677C32.3275 87.5811 31.7488 88.1804 31.3148 88.9657C30.8808 89.7304 30.6638 90.65 30.6638 91.7247C30.6638 92.7787 30.8808 93.6984 31.3148 94.4837C31.7488 95.2691 32.3275 95.8684 33.0508 96.2817C33.7948 96.695 34.6318 96.9017 35.5618 96.9017Z" fill="white"/>
<path d="M9.13673 100.219C7.40073 100.219 5.85073 99.8571 4.48673 99.1337C3.1434 98.3897 2.0894 97.3771 1.32473 96.0957C0.560068 94.8144 0.177734 93.3574 0.177734 91.7247C0.177734 90.0714 0.560068 88.6144 1.32473 87.3537C2.0894 86.0724 3.1434 85.0701 4.48673 84.3467C5.85073 83.6234 7.40073 83.2617 9.13673 83.2617C10.7487 83.2617 12.1644 83.5924 13.3837 84.2537C14.6237 84.8944 15.5641 85.845 16.2047 87.1057L13.2287 88.8417C12.7327 88.0564 12.1231 87.4777 11.3997 87.1057C10.6971 86.7337 9.9324 86.5477 9.10573 86.5477C8.15507 86.5477 7.2974 86.7544 6.53273 87.1677C5.76807 87.5811 5.16873 88.1804 4.73473 88.9657C4.30073 89.7304 4.08373 90.65 4.08373 91.7247C4.08373 92.7994 4.30073 93.7294 4.73473 94.5147C5.16873 95.2794 5.76807 95.8684 6.53273 96.2817C7.2974 96.695 8.15507 96.9017 9.10573 96.9017C9.9324 96.9017 10.6971 96.7157 11.3997 96.3437C12.1231 95.9717 12.7327 95.3931 13.2287 94.6077L16.2047 96.3437C15.5641 97.5837 14.6237 98.5447 13.3837 99.2267C12.1644 99.888 10.7487 100.219 9.13673 100.219Z" fill="white"/>
<path d="M238.493 62.0032V45.4492H242.554L249.219 57.1982H247.607L254.613 45.4492H258.24L258.271 62.0032H254.768V49.6032L255.388 50.0062L249.188 60.2672H247.514L241.283 49.7272L242.027 49.5412V62.0032H238.493Z" fill="white"/>
<path d="M229.809 62.0032V56.3612L230.367 57.0122H225.407C223.134 57.0122 221.346 56.5369 220.044 55.5862C218.763 54.6149 218.122 53.2199 218.122 51.4012C218.122 49.4586 218.804 47.9809 220.168 46.9682C221.553 45.9556 223.392 45.4492 225.686 45.4492H233.281V62.0032H229.809ZM217.905 62.0032L222.369 55.6792H226.337L222.059 62.0032H217.905ZM229.809 55.1212V47.6812L230.367 48.7042H225.81C224.612 48.7042 223.682 48.9316 223.02 49.3862C222.38 49.8202 222.059 50.5332 222.059 51.5252C222.059 53.3852 223.268 54.3152 225.686 54.3152H230.367L229.809 55.1212Z" fill="white"/>
<path d="M209.515 60.2052V48.7352H203.16L203.067 51.4012C203.025 52.3519 202.963 53.2716 202.881 54.1602C202.798 55.0282 202.664 55.8342 202.478 56.5782C202.292 57.3016 202.023 57.9009 201.672 58.3762C201.32 58.8516 200.855 59.1616 200.277 59.3062L196.433 58.7172C197.053 58.7172 197.549 58.5209 197.921 58.1282C198.313 57.7149 198.613 57.1569 198.82 56.4542C199.047 55.7309 199.212 54.9146 199.316 54.0052C199.419 53.0752 199.491 52.1142 199.533 51.1222L199.75 45.4492H213.39V60.2052H209.515ZM195.844 65.6922V58.7172H215.839V65.6922H212.212V62.0032H199.44V65.6922H195.844Z" fill="white"/>
<path d="M170.802 62.0017V45.4477H174.677V51.8647H179.606V55.3677H174.677V62.0017H170.802ZM185.93 62.2187C184.276 62.2187 182.799 61.8571 181.497 61.1337C180.215 60.3897 179.203 59.3771 178.459 58.0957C177.715 56.8144 177.343 55.3574 177.343 53.7247C177.343 52.0714 177.715 50.6041 178.459 49.3227C179.203 48.0414 180.215 47.0494 181.497 46.3467C182.799 45.6234 184.276 45.2617 185.93 45.2617C187.604 45.2617 189.081 45.6234 190.363 46.3467C191.665 47.0494 192.688 48.0414 193.432 49.3227C194.176 50.6041 194.548 52.0714 194.548 53.7247C194.548 55.3574 194.176 56.8247 193.432 58.1267C192.688 59.4081 191.665 60.4104 190.363 61.1337C189.081 61.8571 187.604 62.2187 185.93 62.2187ZM185.93 58.9327C186.86 58.9327 187.676 58.7157 188.379 58.2817C189.102 57.8477 189.67 57.2484 190.084 56.4837C190.497 55.7191 190.704 54.7994 190.704 53.7247C190.704 52.6501 190.497 51.7304 190.084 50.9657C189.67 50.1804 189.102 49.5811 188.379 49.1677C187.676 48.7544 186.87 48.5477 185.961 48.5477C185.051 48.5477 184.235 48.7544 183.512 49.1677C182.788 49.5811 182.22 50.1804 181.807 50.9657C181.393 51.7304 181.187 52.6501 181.187 53.7247C181.187 54.7994 181.393 55.7191 181.807 56.4837C182.22 57.2484 182.788 57.8477 183.512 58.2817C184.235 58.7157 185.041 58.9327 185.93 58.9327Z" fill="white"/>
<path d="M148.161 61.9722L148.347 58.7172C148.492 58.7379 148.626 58.7586 148.75 58.7792C148.874 58.7999 148.988 58.8102 149.091 58.8102C149.732 58.8102 150.228 58.6139 150.579 58.2212C150.93 57.8286 151.189 57.3016 151.354 56.6402C151.54 55.9582 151.664 55.2039 151.726 54.3772C151.809 53.5299 151.871 52.6826 151.912 51.8352L152.191 45.4492H165.583V62.0032H161.708V47.6812L162.607 48.7352H154.733L155.57 47.6502L155.353 52.0212C155.291 53.4886 155.167 54.8526 154.981 56.1132C154.816 57.3532 154.547 58.4382 154.175 59.3682C153.824 60.2982 153.328 61.0216 152.687 61.5382C152.067 62.0549 151.271 62.3132 150.3 62.3132C149.99 62.3132 149.649 62.2822 149.277 62.2202C148.926 62.1582 148.554 62.0756 148.161 61.9722Z" fill="white"/>
<path d="M119.371 61.9722L119.557 58.7172C119.702 58.7379 119.836 58.7586 119.96 58.7792C120.084 58.7999 120.198 58.8102 120.301 58.8102C120.942 58.8102 121.438 58.6139 121.789 58.2212C122.14 57.8286 122.399 57.3016 122.564 56.6402C122.75 55.9582 122.874 55.2039 122.936 54.3772C123.019 53.5299 123.081 52.6826 123.122 51.8352L123.401 45.4492H136.793V62.0032H132.918V47.6812L133.817 48.7352H125.943L126.78 47.6502L126.563 52.0212C126.501 53.4886 126.377 54.8526 126.191 56.1132C126.026 57.3532 125.757 58.4382 125.385 59.3682C125.034 60.2982 124.538 61.0216 123.897 61.5382C123.277 62.0549 122.481 62.3132 121.51 62.3132C121.2 62.3132 120.859 62.2822 120.487 62.2202C120.136 62.1582 119.764 62.0756 119.371 61.9722Z" fill="white"/>
<path d="M113.336 62.0017V58.6537L113.119 57.9407V52.0817C113.119 50.945 112.778 50.0667 112.096 49.4467C111.414 48.8061 110.381 48.4857 108.996 48.4857C108.066 48.4857 107.146 48.6304 106.237 48.9197C105.348 49.2091 104.594 49.6121 103.974 50.1287L102.455 47.3077C103.344 46.6257 104.398 46.1194 105.617 45.7887C106.857 45.4374 108.138 45.2617 109.461 45.2617C111.858 45.2617 113.708 45.8404 115.01 46.9977C116.333 48.1344 116.994 49.9014 116.994 52.2987V62.0017H113.336ZM108.128 62.2187C106.888 62.2187 105.803 62.0121 104.873 61.5987C103.943 61.1647 103.22 60.5757 102.703 59.8317C102.207 59.0671 101.959 58.2094 101.959 57.2587C101.959 56.3287 102.176 55.4917 102.61 54.7477C103.065 54.0037 103.798 53.4147 104.811 52.9807C105.824 52.5467 107.167 52.3297 108.841 52.3297H113.646V54.9027H109.12C107.797 54.9027 106.909 55.1197 106.454 55.5537C105.999 55.967 105.772 56.4837 105.772 57.1037C105.772 57.8064 106.051 58.3644 106.609 58.7777C107.167 59.1911 107.942 59.3977 108.934 59.3977C109.885 59.3977 110.732 59.1807 111.476 58.7467C112.241 58.3127 112.788 57.6721 113.119 56.8247L113.77 59.1497C113.398 60.1211 112.726 60.8754 111.755 61.4127C110.804 61.9501 109.595 62.2187 108.128 62.2187Z" fill="white"/>
<path d="M87.7617 62.0032V45.4492H100.472V48.7352H90.7377L91.6367 47.8672V62.0032H87.7617Z" fill="white"/>
<path d="M75.0989 62.2187C73.4043 62.2187 71.8956 61.8571 70.5729 61.1337C69.2503 60.3897 68.2066 59.3771 67.4419 58.0957C66.6773 56.8144 66.2949 55.3574 66.2949 53.7247C66.2949 52.0714 66.6773 50.6144 67.4419 49.3537C68.2066 48.0724 69.2503 47.0701 70.5729 46.3467C71.8956 45.6234 73.4043 45.2617 75.0989 45.2617C76.8143 45.2617 78.3333 45.6234 79.6559 46.3467C80.9993 47.0701 82.0429 48.0621 82.7869 49.3227C83.5516 50.5834 83.9339 52.0507 83.9339 53.7247C83.9339 55.3574 83.5516 56.8144 82.7869 58.0957C82.0429 59.3771 80.9993 60.3897 79.6559 61.1337C78.3333 61.8571 76.8143 62.2187 75.0989 62.2187ZM75.0989 58.9017C76.0496 58.9017 76.8969 58.6951 77.6409 58.2817C78.3849 57.8684 78.9636 57.2691 79.3769 56.4837C79.8109 55.6984 80.0279 54.7787 80.0279 53.7247C80.0279 52.6501 79.8109 51.7304 79.3769 50.9657C78.9636 50.1804 78.3849 49.5811 77.6409 49.1677C76.8969 48.7544 76.0599 48.5477 75.1299 48.5477C74.1793 48.5477 73.3319 48.7544 72.5879 49.1677C71.8646 49.5811 71.2859 50.1804 70.8519 50.9657C70.4179 51.7304 70.2009 52.6501 70.2009 53.7247C70.2009 54.7787 70.4179 55.6984 70.8519 56.4837C71.2859 57.2691 71.8646 57.8684 72.5879 58.2817C73.3319 58.6951 74.1689 58.9017 75.0989 58.9017Z" fill="white"/>
<path d="M42.7451 62.0032V45.4492H46.8061L53.4711 57.1982H51.8591L58.8651 45.4492H62.4921L62.5231 62.0032H59.0201V49.6032L59.6401 50.0062L53.4401 60.2672H51.7661L45.5351 49.7272L46.2791 49.5412V62.0032H42.7451Z" fill="white"/>
<path d="M30.0823 62.2187C28.3877 62.2187 26.879 61.8571 25.5563 61.1337C24.2337 60.3897 23.19 59.3771 22.4253 58.0957C21.6607 56.8144 21.2783 55.3574 21.2783 53.7247C21.2783 52.0714 21.6607 50.6144 22.4253 49.3537C23.19 48.0724 24.2337 47.0701 25.5563 46.3467C26.879 45.6234 28.3877 45.2617 30.0823 45.2617C31.7977 45.2617 33.3167 45.6234 34.6393 46.3467C35.9827 47.0701 37.0263 48.0621 37.7703 49.3227C38.535 50.5834 38.9173 52.0507 38.9173 53.7247C38.9173 55.3574 38.535 56.8144 37.7703 58.0957C37.0263 59.3771 35.9827 60.3897 34.6393 61.1337C33.3167 61.8571 31.7977 62.2187 30.0823 62.2187ZM30.0823 58.9017C31.033 58.9017 31.8803 58.6951 32.6243 58.2817C33.3683 57.8684 33.947 57.2691 34.3603 56.4837C34.7943 55.6984 35.0113 54.7787 35.0113 53.7247C35.0113 52.6501 34.7943 51.7304 34.3603 50.9657C33.947 50.1804 33.3683 49.5811 32.6243 49.1677C31.8803 48.7544 31.0433 48.5477 30.1133 48.5477C29.1627 48.5477 28.3153 48.7544 27.5713 49.1677C26.848 49.5811 26.2693 50.1804 25.8353 50.9657C25.4013 51.7304 25.1843 52.6501 25.1843 53.7247C25.1843 54.7787 25.4013 55.6984 25.8353 56.4837C26.2693 57.2691 26.848 57.8684 27.5713 58.2817C28.3153 58.6951 29.1523 58.9017 30.0823 58.9017Z" fill="white"/>
<path d="M1.60352 62.0032V45.4492H17.4755V62.0032H13.6315V47.8362L14.5305 48.7352H4.57952L5.47852 47.8362V62.0032H1.60352Z" fill="white"/>
<path d="M250.805 24.0032V9.80522L251.704 10.7352H244.977V7.44922H260.477V10.7352H253.781L254.68 9.80522V24.0032H250.805Z" fill="white"/>
<path d="M225.597 24.0015V7.4475H229.472V18.3595L238.617 7.4475H242.151V24.0015H238.276V13.0895L229.162 24.0015H225.597ZM233.626 5.4945C231.972 5.4945 230.701 5.11217 229.813 4.3475C228.924 3.56217 228.469 2.4255 228.449 0.9375H231.022C231.042 1.6815 231.27 2.2705 231.704 2.7045C232.158 3.1385 232.789 3.3555 233.595 3.3555C234.38 3.3555 235 3.1385 235.455 2.7045C235.93 2.2705 236.178 1.6815 236.199 0.9375H238.834C238.813 2.4255 238.348 3.56217 237.439 4.3475C236.55 5.11217 235.279 5.4945 233.626 5.4945Z" fill="white"/>
<path d="M217.144 24.0017V20.6537L216.927 19.9407V14.0817C216.927 12.9451 216.586 12.0667 215.904 11.4467C215.222 10.8061 214.188 10.4857 212.804 10.4857C211.874 10.4857 210.954 10.6304 210.045 10.9197C209.156 11.2091 208.402 11.6121 207.782 12.1287L206.263 9.30772C207.151 8.62572 208.205 8.11939 209.425 7.78872C210.665 7.43739 211.946 7.26172 213.269 7.26172C215.666 7.26172 217.516 7.84039 218.818 8.99772C220.14 10.1344 220.802 11.9014 220.802 14.2987V24.0017H217.144ZM211.936 24.2187C210.696 24.2187 209.611 24.0121 208.681 23.5987C207.751 23.1647 207.027 22.5757 206.511 21.8317C206.015 21.0671 205.767 20.2094 205.767 19.2587C205.767 18.3287 205.984 17.4917 206.418 16.7477C206.872 16.0037 207.606 15.4147 208.619 14.9807C209.631 14.5467 210.975 14.3297 212.649 14.3297H217.454V16.9027H212.928C211.605 16.9027 210.716 17.1197 210.262 17.5537C209.807 17.9671 209.58 18.4837 209.58 19.1037C209.58 19.8064 209.859 20.3644 210.417 20.7777C210.975 21.1911 211.75 21.3977 212.742 21.3977C213.692 21.3977 214.54 21.1807 215.284 20.7467C216.048 20.3127 216.596 19.6721 216.927 18.8247L217.578 21.1497C217.206 22.1211 216.534 22.8754 215.563 23.4127C214.612 23.9501 213.403 24.2187 211.936 24.2187Z" fill="white"/>
<path d="M196.62 24.2187C194.884 24.2187 193.334 23.8571 191.97 23.1337C190.627 22.3897 189.573 21.3771 188.808 20.0957C188.043 18.8144 187.661 17.3574 187.661 15.7247C187.661 14.0714 188.043 12.6144 188.808 11.3537C189.573 10.0724 190.627 9.07005 191.97 8.34672C193.334 7.62339 194.884 7.26172 196.62 7.26172C198.232 7.26172 199.648 7.59239 200.867 8.25372C202.107 8.89439 203.047 9.84505 203.688 11.1057L200.712 12.8417C200.216 12.0564 199.606 11.4777 198.883 11.1057C198.18 10.7337 197.416 10.5477 196.589 10.5477C195.638 10.5477 194.781 10.7544 194.016 11.1677C193.251 11.5811 192.652 12.1804 192.218 12.9657C191.784 13.7304 191.567 14.6501 191.567 15.7247C191.567 16.7994 191.784 17.7294 192.218 18.5147C192.652 19.2794 193.251 19.8684 194.016 20.2817C194.781 20.6951 195.638 20.9017 196.589 20.9017C197.416 20.9017 198.18 20.7157 198.883 20.3437C199.606 19.9717 200.216 19.3931 200.712 18.6077L203.688 20.3437C203.047 21.5837 202.107 22.5447 200.867 23.2267C199.648 23.8881 198.232 24.2187 196.62 24.2187Z" fill="white"/>
<path d="M162.041 20.7172L161.204 21.6472V7.44922H165.079V21.6472L164.149 20.7172H172.333L171.434 21.6472V7.44922H175.309V24.0032H150.912V7.44922H154.787V21.6472L153.888 20.7172H162.041Z" fill="white"/>
<path d="M142.459 24.0017V20.6537L142.242 19.9407V14.0817C142.242 12.9451 141.901 12.0667 141.219 11.4467C140.537 10.8061 139.504 10.4857 138.119 10.4857C137.189 10.4857 136.269 10.6304 135.36 10.9197C134.471 11.2091 133.717 11.6121 133.097 12.1287L131.578 9.30772C132.467 8.62572 133.521 8.11939 134.74 7.78872C135.98 7.43739 137.261 7.26172 138.584 7.26172C140.981 7.26172 142.831 7.84039 144.133 8.99772C145.456 10.1344 146.117 11.9014 146.117 14.2987V24.0017H142.459ZM137.251 24.2187C136.011 24.2187 134.926 24.0121 133.996 23.5987C133.066 23.1647 132.343 22.5757 131.826 21.8317C131.33 21.0671 131.082 20.2094 131.082 19.2587C131.082 18.3287 131.299 17.4917 131.733 16.7477C132.188 16.0037 132.921 15.4147 133.934 14.9807C134.947 14.5467 136.29 14.3297 137.964 14.3297H142.769V16.9027H138.243C136.92 16.9027 136.032 17.1197 135.577 17.5537C135.122 17.9671 134.895 18.4837 134.895 19.1037C134.895 19.8064 135.174 20.3644 135.732 20.7777C136.29 21.1911 137.065 21.3977 138.057 21.3977C139.008 21.3977 139.855 21.1807 140.599 20.7467C141.364 20.3127 141.911 19.6721 142.242 18.8247L142.893 21.1497C142.521 22.1211 141.849 22.8754 140.878 23.4127C139.927 23.9501 138.718 24.2187 137.251 24.2187Z" fill="white"/>
<path d="M111.133 24.0032V7.44922H115.008V14.1762H123.347V7.44922H127.222V24.0032H123.347V17.4622H115.008V24.0032H111.133Z" fill="white"/>
<path d="M93.4815 24.0032V7.44922H97.3565V24.0032H93.4815ZM84.8325 12.9052C86.9611 12.9052 88.5731 13.3806 89.6685 14.3312C90.7845 15.2819 91.3425 16.6252 91.3425 18.3612C91.3425 20.1592 90.7225 21.5646 89.4825 22.5772C88.2631 23.5692 86.5271 24.0549 84.2745 24.0342L76.7725 24.0032V7.44922H80.6475V12.8742L84.8325 12.9052ZM83.9335 21.1822C85.0701 21.2029 85.9381 20.9652 86.5375 20.4692C87.1368 19.9732 87.4365 19.2499 87.4365 18.2992C87.4365 17.3486 87.1368 16.6666 86.5375 16.2532C85.9588 15.8192 85.0908 15.5919 83.9335 15.5712L80.6475 15.5402V21.1512L83.9335 21.1822Z" fill="white"/>
<path d="M64.001 24.3117C62.637 24.3117 61.4177 24.105 60.343 23.6917C59.2684 23.2783 58.3384 22.648 57.553 21.8007C56.7883 20.9327 56.1993 19.8373 55.786 18.5147C55.3727 17.192 55.166 15.6213 55.166 13.8027C55.166 12.48 55.2797 11.271 55.507 10.1757C55.7343 9.08033 56.0754 8.09866 56.53 7.23066C56.9847 6.34199 57.553 5.55666 58.235 4.87466C58.9377 4.19266 59.754 3.62432 60.684 3.16966C61.614 2.71499 62.668 2.36366 63.846 2.11566L71.534 0.472656L72.092 3.94466L65.117 5.37066C64.7243 5.45332 64.249 5.57732 63.691 5.74266C63.1537 5.88732 62.5957 6.11466 62.017 6.42466C61.459 6.71399 60.932 7.13766 60.436 7.69566C59.9607 8.23299 59.568 8.93566 59.258 9.80366C58.9687 10.651 58.824 11.7153 58.824 12.9967C58.824 13.3893 58.8343 13.689 58.855 13.8957C58.8963 14.0817 58.9274 14.2883 58.948 14.5157C58.9894 14.7223 59.01 15.0323 59.01 15.4457L57.553 13.9267C57.9663 12.8727 58.5347 11.9737 59.258 11.2297C60.002 10.465 60.8597 9.88632 61.831 9.49366C62.823 9.08032 63.8977 8.87366 65.055 8.87366C66.605 8.87366 67.9794 9.19399 69.178 9.83466C70.3767 10.4753 71.317 11.3743 71.999 12.5317C72.681 13.689 73.022 15.0013 73.022 16.4687C73.022 17.998 72.65 19.3517 71.906 20.5297C71.162 21.7077 70.108 22.6377 68.744 23.3197C67.4007 23.981 65.8197 24.3117 64.001 24.3117ZM64.311 21.1807C65.241 21.1807 66.0573 20.9843 66.76 20.5917C67.4833 20.1783 68.0414 19.6203 68.434 18.9177C68.8474 18.215 69.054 17.4297 69.054 16.5617C69.054 15.6937 68.8474 14.9393 68.434 14.2987C68.0414 13.6373 67.4833 13.1103 66.76 12.7177C66.0573 12.325 65.2204 12.1287 64.249 12.1287C63.319 12.1287 62.482 12.3147 61.738 12.6867C61.0147 13.0587 60.4463 13.5753 60.033 14.2367C59.6403 14.8773 59.444 15.6213 59.444 16.4687C59.444 17.3367 59.6507 18.1323 60.064 18.8557C60.4773 19.579 61.0457 20.1473 61.769 20.5607C62.513 20.974 63.3603 21.1807 64.311 21.1807Z" fill="white"/>
<path d="M43.4329 24.2187C41.7382 24.2187 40.2296 23.8571 38.9069 23.1337C37.5842 22.3897 36.5406 21.3771 35.7759 20.0957C35.0112 18.8144 34.6289 17.3574 34.6289 15.7247C34.6289 14.0714 35.0112 12.6144 35.7759 11.3537C36.5406 10.0724 37.5842 9.07005 38.9069 8.34672C40.2296 7.62339 41.7382 7.26172 43.4329 7.26172C45.1482 7.26172 46.6672 7.62339 47.9899 8.34672C49.3332 9.07005 50.3769 10.0621 51.1209 11.3227C51.8856 12.5834 52.2679 14.0507 52.2679 15.7247C52.2679 17.3574 51.8856 18.8144 51.1209 20.0957C50.3769 21.3771 49.3332 22.3897 47.9899 23.1337C46.6672 23.8571 45.1482 24.2187 43.4329 24.2187ZM43.4329 20.9017C44.3836 20.9017 45.2309 20.6951 45.9749 20.2817C46.7189 19.8684 47.2976 19.2691 47.7109 18.4837C48.1449 17.6984 48.3619 16.7787 48.3619 15.7247C48.3619 14.6501 48.1449 13.7304 47.7109 12.9657C47.2976 12.1804 46.7189 11.5811 45.9749 11.1677C45.2309 10.7544 44.3939 10.5477 43.4639 10.5477C42.5132 10.5477 41.6659 10.7544 40.9219 11.1677C40.1986 11.5811 39.6199 12.1804 39.1859 12.9657C38.7519 13.7304 38.5349 14.6501 38.5349 15.7247C38.5349 16.7787 38.7519 17.6984 39.1859 18.4837C39.6199 19.2691 40.1986 19.8684 40.9219 20.2817C41.6659 20.6951 42.5029 20.9017 43.4329 20.9017Z" fill="white"/>
<path d="M24.2987 24.0032V9.80522L25.1977 10.7352H18.4707V7.44922H33.9707V10.7352H27.2747L28.1737 9.80522V24.0032H24.2987Z" fill="white"/>
<path d="M12.0507 17.4622C11.2654 17.8342 10.4284 18.1442 9.53973 18.3922C8.67173 18.6196 7.75207 18.7332 6.78074 18.7332C4.6934 18.7332 3.07107 18.2476 1.91373 17.2762C0.756401 16.3049 0.177734 14.7962 0.177734 12.7502V7.44922H4.05273V12.5022C4.05273 13.5976 4.36273 14.3932 4.98273 14.8892C5.6234 15.3852 6.50173 15.6332 7.61774 15.6332C8.36174 15.6332 9.10573 15.5402 9.84973 15.3542C10.5937 15.1682 11.3274 14.9099 12.0507 14.5792V17.4622ZM11.7717 24.0032V7.44922H15.6467V24.0032H11.7717Z" fill="white"/>
</svg>
