<svg width="566" height="100" viewBox="0 0 566 100" fill="none" xmlns="http://www.w3.org/2000/svg">
<path d="M208.056 96.0007V92.5447L207.832 91.8087V85.7607C207.832 84.5874 207.48 83.6807 206.776 83.0407C206.072 82.3794 205.005 82.0487 203.576 82.0487C202.616 82.0487 201.666 82.198 200.728 82.4967C199.81 82.7954 199.032 83.2114 198.392 83.7447L196.824 80.8327C197.741 80.1287 198.829 79.606 200.088 79.2647C201.368 78.902 202.69 78.7207 204.056 78.7207C206.53 78.7207 208.44 79.318 209.784 80.5127C211.149 81.686 211.832 83.51 211.832 85.9847V96.0007H208.056ZM202.68 96.2247C201.4 96.2247 200.28 96.0114 199.32 95.5847C198.36 95.1367 197.613 94.5287 197.08 93.7607C196.568 92.9714 196.312 92.086 196.312 91.1047C196.312 90.1447 196.536 89.2807 196.984 88.5127C197.453 87.7447 198.21 87.1367 199.256 86.6887C200.301 86.2407 201.688 86.0167 203.416 86.0167H208.376V88.6727H203.704C202.338 88.6727 201.421 88.8967 200.952 89.3447C200.482 89.7714 200.248 90.3047 200.248 90.9447C200.248 91.67 200.536 92.246 201.112 92.6727C201.688 93.0994 202.488 93.3127 203.512 93.3127C204.493 93.3127 205.368 93.0887 206.136 92.6407C206.925 92.1927 207.49 91.5314 207.832 90.6567L208.504 93.0567C208.12 94.0594 207.426 94.838 206.424 95.3927C205.442 95.9474 204.194 96.2247 202.68 96.2247Z" fill="white"/>
<path d="M171.906 96.0001V78.9121H176.098L182.978 91.0401H181.314L188.546 78.9121H192.29L192.322 96.0001H188.706V83.2001L189.346 83.6161L182.946 94.2081H181.218L174.786 83.3281L175.554 83.1361V96.0001H171.906Z" fill="white"/>
<path d="M158.835 96.2247C157.086 96.2247 155.528 95.8514 154.163 95.1047C152.798 94.3367 151.72 93.2914 150.931 91.9687C150.142 90.646 149.747 89.142 149.747 87.4567C149.747 85.75 150.142 84.246 150.931 82.9447C151.72 81.622 152.798 80.5874 154.163 79.8407C155.528 79.094 157.086 78.7207 158.835 78.7207C160.606 78.7207 162.174 79.094 163.539 79.8407C164.926 80.5874 166.003 81.6114 166.771 82.9127C167.56 84.214 167.955 85.7287 167.955 87.4567C167.955 89.142 167.56 90.646 166.771 91.9687C166.003 93.2914 164.926 94.3367 163.539 95.1047C162.174 95.8514 160.606 96.2247 158.835 96.2247ZM158.835 92.8007C159.816 92.8007 160.691 92.5874 161.459 92.1607C162.227 91.734 162.824 91.1154 163.251 90.3047C163.699 89.494 163.923 88.5447 163.923 87.4567C163.923 86.3474 163.699 85.398 163.251 84.6087C162.824 83.798 162.227 83.1794 161.459 82.7527C160.691 82.326 159.827 82.1127 158.867 82.1127C157.886 82.1127 157.011 82.326 156.243 82.7527C155.496 83.1794 154.899 83.798 154.451 84.6087C154.003 85.398 153.779 86.3474 153.779 87.4567C153.779 88.5447 154.003 89.494 154.451 90.3047C154.899 91.1154 155.496 91.734 156.243 92.1607C157.011 92.5874 157.875 92.8007 158.835 92.8007Z" fill="white"/>
<path d="M141.118 94.1441V82.3041H134.558L134.462 85.0561C134.419 86.0374 134.355 86.9868 134.27 87.9041C134.185 88.8001 134.046 89.6321 133.854 90.4001C133.662 91.1468 133.385 91.7654 133.022 92.2561C132.659 92.7468 132.179 93.0668 131.582 93.2161L127.614 92.6081C128.254 92.6081 128.766 92.4054 129.15 92.0001C129.555 91.5734 129.865 90.9974 130.078 90.2721C130.313 89.5254 130.483 88.6828 130.59 87.7441C130.697 86.7841 130.771 85.7921 130.814 84.7681L131.038 78.9121H145.118V94.1441H141.118ZM127.006 99.8081V92.6081H147.646V99.8081H143.902V96.0001H130.718V99.8081H127.006Z" fill="white"/>
<path d="M110.295 84.5441C112.492 84.5441 114.167 85.0348 115.319 86.0161C116.471 86.9974 117.047 88.3841 117.047 90.1761C117.047 92.0321 116.407 93.4828 115.127 94.5281C113.847 95.5521 112.044 96.0534 109.719 96.0321L101.719 96.0001V78.9121H105.719V84.5121L110.295 84.5441ZM109.367 93.0881C110.54 93.1094 111.436 92.8641 112.055 92.3521C112.673 91.8401 112.983 91.0934 112.983 90.1121C112.983 89.1308 112.673 88.4268 112.055 88.0001C111.457 87.5521 110.561 87.3174 109.367 87.2961L105.719 87.2641V93.0561L109.367 93.0881Z" fill="white"/>
<path d="M88.8334 96.0001V81.3441L89.7614 82.3041H82.8174V78.9121H98.8174V82.3041H91.9054L92.8334 81.3441V96.0001H88.8334Z" fill="white"/>
<path d="M73.5308 96.2247C71.6321 96.2247 69.9682 95.8514 68.5388 95.1047C67.1308 94.3367 66.0321 93.2914 65.2428 91.9687C64.4748 90.646 64.0908 89.142 64.0908 87.4567C64.0908 85.75 64.4641 84.246 65.2108 82.9447C65.9788 81.622 67.0242 80.5874 68.3468 79.8407C69.6908 79.094 71.2162 78.7207 72.9228 78.7207C74.5868 78.7207 76.0695 79.0834 77.3708 79.8087C78.6722 80.534 79.6962 81.558 80.4428 82.8807C81.1895 84.2034 81.5628 85.7607 81.5628 87.5527C81.5628 87.7234 81.5521 87.9154 81.5308 88.1287C81.5308 88.342 81.5202 88.5447 81.4988 88.7367H67.2588V86.0807H79.3868L77.8188 86.9127C77.8402 85.9314 77.6375 85.0674 77.2108 84.3207C76.7841 83.574 76.1975 82.9874 75.4508 82.5607C74.7255 82.134 73.8828 81.9207 72.9228 81.9207C71.9415 81.9207 71.0775 82.134 70.3308 82.5607C69.6055 82.9874 69.0295 83.5847 68.6028 84.3527C68.1975 85.0994 67.9948 85.9847 67.9948 87.0087V87.6487C67.9948 88.6727 68.2295 89.5794 68.6988 90.3687C69.1681 91.158 69.8295 91.766 70.6828 92.1927C71.5361 92.6194 72.5175 92.8327 73.6268 92.8327C74.5868 92.8327 75.4508 92.6834 76.2188 92.3847C76.9868 92.086 77.6695 91.6167 78.2668 90.9767L80.4108 93.4407C79.6428 94.3367 78.6722 95.03 77.4988 95.5207C76.3468 95.99 75.0241 96.2247 73.5308 96.2247Z" fill="white"/>
<path d="M55.4616 94.1441V82.3041H48.9016L48.8056 85.0561C48.7629 86.0374 48.6989 86.9868 48.6136 87.9041C48.5283 88.8001 48.3896 89.6321 48.1976 90.4001C48.0056 91.1468 47.7283 91.7654 47.3656 92.2561C47.0029 92.7468 46.5229 93.0668 45.9256 93.2161L41.9576 92.6081C42.5976 92.6081 43.1096 92.4054 43.4936 92.0001C43.8989 91.5734 44.2083 90.9974 44.4216 90.2721C44.6563 89.5254 44.8269 88.6828 44.9336 87.7441C45.0403 86.7841 45.1149 85.7921 45.1576 84.7681L45.3816 78.9121H59.4616V94.1441H55.4616ZM41.3496 99.8081V92.6081H61.9896V99.8081H58.2456V96.0001H45.0616V99.8081H41.3496Z" fill="white"/>
<path d="M21.2812 96.0001V78.9121H25.2812V90.1761L34.7212 78.9121H38.3693V96.0001H34.3693V84.7361L24.9613 96.0001H21.2812Z" fill="white"/>
<path d="M10.4638 96.2247C8.67182 96.2247 7.07182 95.8514 5.66382 95.1047C4.27715 94.3367 3.18915 93.2914 2.39982 91.9687C1.61049 90.646 1.21582 89.142 1.21582 87.4567C1.21582 85.75 1.61049 84.246 2.39982 82.9447C3.18915 81.622 4.27715 80.5874 5.66382 79.8407C7.07182 79.094 8.67182 78.7207 10.4638 78.7207C12.1278 78.7207 13.5892 79.062 14.8478 79.7447C16.1278 80.406 17.0985 81.3874 17.7598 82.6887L14.6878 84.4807C14.1758 83.67 13.5465 83.0727 12.7998 82.6887C12.0745 82.3047 11.2852 82.1127 10.4318 82.1127C9.45049 82.1127 8.56515 82.326 7.77582 82.7527C6.98649 83.1794 6.36782 83.798 5.91982 84.6087C5.47182 85.398 5.24782 86.3474 5.24782 87.4567C5.24782 88.566 5.47182 89.526 5.91982 90.3367C6.36782 91.126 6.98649 91.734 7.77582 92.1607C8.56515 92.5874 9.45049 92.8007 10.4318 92.8007C11.2852 92.8007 12.0745 92.6087 12.7998 92.2247C13.5465 91.8407 14.1758 91.2434 14.6878 90.4327L17.7598 92.2247C17.0985 93.5047 16.1278 94.4967 14.8478 95.2007C13.5892 95.8834 12.1278 96.2247 10.4638 96.2247Z" fill="white"/>
<path d="M557.968 57.2247C556.07 57.2247 554.406 56.8514 552.976 56.1047C551.568 55.3367 550.47 54.2914 549.68 52.9687C548.912 51.646 548.528 50.142 548.528 48.4567C548.528 46.75 548.902 45.246 549.648 43.9447C550.416 42.622 551.462 41.5874 552.784 40.8407C554.128 40.094 555.654 39.7207 557.36 39.7207C559.024 39.7207 560.507 40.0834 561.808 40.8087C563.11 41.534 564.134 42.558 564.88 43.8807C565.627 45.2034 566 46.7607 566 48.5527C566 48.7234 565.99 48.9154 565.968 49.1287C565.968 49.342 565.958 49.5447 565.936 49.7367H551.696V47.0807H563.824L562.256 47.9127C562.278 46.9314 562.075 46.0674 561.648 45.3207C561.222 44.574 560.635 43.9874 559.888 43.5607C559.163 43.134 558.32 42.9207 557.36 42.9207C556.379 42.9207 555.515 43.134 554.768 43.5607C554.043 43.9874 553.467 44.5847 553.04 45.3527C552.635 46.0994 552.432 46.9847 552.432 48.0087V48.6487C552.432 49.6727 552.667 50.5794 553.136 51.3687C553.606 52.158 554.267 52.766 555.12 53.1927C555.974 53.6194 556.955 53.8327 558.064 53.8327C559.024 53.8327 559.888 53.6834 560.656 53.3847C561.424 53.086 562.107 52.6167 562.704 51.9767L564.848 54.4407C564.08 55.3367 563.11 56.03 561.936 56.5207C560.784 56.99 559.462 57.2247 557.968 57.2247Z" fill="white"/>
<path d="M528.031 57.0001V39.9121H532.031V46.8561H540.639V39.9121H544.639V57.0001H540.639V50.2481H532.031V57.0001H528.031Z" fill="white"/>
<path d="M496.719 57.0001V39.9121H500.719V51.1761L510.159 39.9121H513.807V57.0001H509.807V45.7361L500.399 57.0001H496.719Z" fill="white"/>
<path d="M475.468 57.2247C473.57 57.2247 471.906 56.8514 470.476 56.1047C469.068 55.3367 467.97 54.2914 467.18 52.9687C466.412 51.646 466.028 50.142 466.028 48.4567C466.028 46.75 466.402 45.246 467.148 43.9447C467.916 42.622 468.962 41.5874 470.284 40.8407C471.628 40.094 473.154 39.7207 474.86 39.7207C476.524 39.7207 478.007 40.0834 479.308 40.8087C480.61 41.534 481.634 42.558 482.38 43.8807C483.127 45.2034 483.5 46.7607 483.5 48.5527C483.5 48.7234 483.49 48.9154 483.468 49.1287C483.468 49.342 483.458 49.5447 483.436 49.7367H469.196V47.0807H481.324L479.756 47.9127C479.778 46.9314 479.575 46.0674 479.148 45.3207C478.722 44.574 478.135 43.9874 477.388 43.5607C476.663 43.134 475.82 42.9207 474.86 42.9207C473.879 42.9207 473.015 43.134 472.268 43.5607C471.543 43.9874 470.967 44.5847 470.54 45.3527C470.135 46.0994 469.932 46.9847 469.932 48.0087V48.6487C469.932 49.6727 470.167 50.5794 470.636 51.3687C471.106 52.158 471.767 52.766 472.62 53.1927C473.474 53.6194 474.455 53.8327 475.564 53.8327C476.524 53.8327 477.388 53.6834 478.156 53.3847C478.924 53.086 479.607 52.6167 480.204 51.9767L482.348 54.4407C481.58 55.3367 480.61 56.03 479.436 56.5207C478.284 56.99 476.962 57.2247 475.468 57.2247Z" fill="white"/>
<path d="M445.531 57.0001V39.9121H449.531V46.8561H458.139V39.9121H462.139V57.0001H458.139V50.2481H449.531V57.0001H445.531Z" fill="white"/>
<path d="M432.46 57.2247C430.711 57.2247 429.153 56.8514 427.788 56.1047C426.423 55.3367 425.345 54.2914 424.556 52.9687C423.767 51.646 423.372 50.142 423.372 48.4567C423.372 46.75 423.767 45.246 424.556 43.9447C425.345 42.622 426.423 41.5874 427.788 40.8407C429.153 40.094 430.711 39.7207 432.46 39.7207C434.231 39.7207 435.799 40.094 437.164 40.8407C438.551 41.5874 439.628 42.6114 440.396 43.9127C441.185 45.214 441.58 46.7287 441.58 48.4567C441.58 50.142 441.185 51.646 440.396 52.9687C439.628 54.2914 438.551 55.3367 437.164 56.1047C435.799 56.8514 434.231 57.2247 432.46 57.2247ZM432.46 53.8007C433.441 53.8007 434.316 53.5874 435.084 53.1607C435.852 52.734 436.449 52.1154 436.876 51.3047C437.324 50.494 437.548 49.5447 437.548 48.4567C437.548 47.3474 437.324 46.398 436.876 45.6087C436.449 44.798 435.852 44.1794 435.084 43.7527C434.316 43.326 433.452 43.1127 432.492 43.1127C431.511 43.1127 430.636 43.326 429.868 43.7527C429.121 44.1794 428.524 44.798 428.076 45.6087C427.628 46.398 427.404 47.3474 427.404 48.4567C427.404 49.5447 427.628 50.494 428.076 51.3047C428.524 52.1154 429.121 52.734 429.868 53.1607C430.636 53.5874 431.5 53.8007 432.46 53.8007Z" fill="white"/>
<path d="M402.375 56.9994V39.9114H406.375V51.1754L415.815 39.9114H419.463V56.9994H415.463V45.7354L406.055 56.9994H402.375ZM410.663 37.8954C408.956 37.8954 407.644 37.5007 406.727 36.7114C405.81 35.9007 405.34 34.7274 405.319 33.1914H407.975C407.996 33.9594 408.231 34.5674 408.679 35.0154C409.148 35.4634 409.799 35.6874 410.631 35.6874C411.442 35.6874 412.082 35.4634 412.551 35.0154C413.042 34.5674 413.298 33.9594 413.319 33.1914H416.039C416.018 34.7274 415.538 35.9007 414.599 36.7114C413.682 37.5007 412.37 37.8954 410.663 37.8954Z" fill="white"/>
<path d="M393.649 57.0007V53.5447L393.425 52.8087V46.7607C393.425 45.5874 393.073 44.6807 392.369 44.0407C391.665 43.3794 390.599 43.0487 389.169 43.0487C388.209 43.0487 387.26 43.198 386.321 43.4967C385.404 43.7954 384.625 44.2114 383.985 44.7447L382.417 41.8327C383.335 41.1287 384.423 40.606 385.681 40.2647C386.961 39.902 388.284 39.7207 389.649 39.7207C392.124 39.7207 394.033 40.318 395.377 41.5127C396.743 42.686 397.425 44.51 397.425 46.9847V57.0007H393.649ZM388.273 57.2247C386.993 57.2247 385.873 57.0114 384.913 56.5847C383.953 56.1367 383.207 55.5287 382.673 54.7607C382.161 53.9714 381.905 53.086 381.905 52.1047C381.905 51.1447 382.129 50.2807 382.577 49.5127C383.047 48.7447 383.804 48.1367 384.849 47.6887C385.895 47.2407 387.281 47.0167 389.009 47.0167H393.969V49.6727H389.297C387.932 49.6727 387.015 49.8967 386.545 50.3447C386.076 50.7714 385.841 51.3047 385.841 51.9447C385.841 52.67 386.129 53.246 386.705 53.6727C387.281 54.0994 388.081 54.3127 389.105 54.3127C390.087 54.3127 390.961 54.0887 391.729 53.6407C392.519 53.1927 393.084 52.5314 393.425 51.6567L394.097 54.0567C393.713 55.0594 393.02 55.838 392.017 56.3927C391.036 56.9474 389.788 57.2247 388.273 57.2247Z" fill="white"/>
<path d="M370.847 57.2247C369.46 57.2247 368.191 56.9047 367.039 56.2647C365.908 55.6247 365.002 54.6647 364.319 53.3847C363.658 52.0834 363.327 50.4407 363.327 48.4567C363.327 46.4514 363.647 44.8087 364.287 43.5287C364.948 42.2487 365.844 41.2994 366.975 40.6807C368.106 40.0407 369.396 39.7207 370.847 39.7207C372.532 39.7207 374.015 40.0834 375.295 40.8087C376.596 41.534 377.62 42.5474 378.367 43.8487C379.135 45.15 379.519 46.686 379.519 48.4567C379.519 50.2274 379.135 51.774 378.367 53.0967C377.62 54.398 376.596 55.4114 375.295 56.1367C374.015 56.862 372.532 57.2247 370.847 57.2247ZM361.375 63.2087V39.9127H365.183V43.9447L365.055 48.4887L365.375 53.0327V63.2087H361.375ZM370.399 53.8007C371.359 53.8007 372.212 53.5874 372.959 53.1607C373.727 52.734 374.335 52.1154 374.783 51.3047C375.231 50.494 375.455 49.5447 375.455 48.4567C375.455 47.3474 375.231 46.398 374.783 45.6087C374.335 44.798 373.727 44.1794 372.959 43.7527C372.212 43.326 371.359 43.1127 370.399 43.1127C369.439 43.1127 368.575 43.326 367.807 43.7527C367.039 44.1794 366.431 44.798 365.983 45.6087C365.535 46.398 365.311 47.3474 365.311 48.4567C365.311 49.5447 365.535 50.494 365.983 51.3047C366.431 52.1154 367.039 52.734 367.807 53.1607C368.575 53.5874 369.439 53.8007 370.399 53.8007Z" fill="white"/>
<path d="M317.906 57.0001V39.9121H322.098L328.978 52.0401H327.314L334.546 39.9121H338.29L338.322 57.0001H334.706V44.2001L335.346 44.6161L328.946 55.2081H327.218L320.786 44.3281L321.554 44.1361V57.0001H317.906Z" fill="white"/>
<path d="M305.5 57.2247C303.601 57.2247 301.937 56.8514 300.508 56.1047C299.1 55.3367 298.001 54.2914 297.212 52.9687C296.444 51.646 296.06 50.142 296.06 48.4567C296.06 46.75 296.433 45.246 297.18 43.9447C297.948 42.622 298.993 41.5874 300.316 40.8407C301.66 40.094 303.185 39.7207 304.892 39.7207C306.556 39.7207 308.038 40.0834 309.34 40.8087C310.641 41.534 311.665 42.558 312.412 43.8807C313.158 45.2034 313.532 46.7607 313.532 48.5527C313.532 48.7234 313.521 48.9154 313.5 49.1287C313.5 49.342 313.489 49.5447 313.468 49.7367H299.228V47.0807H311.356L309.788 47.9127C309.809 46.9314 309.606 46.0674 309.18 45.3207C308.753 44.574 308.166 43.9874 307.42 43.5607C306.694 43.134 305.852 42.9207 304.892 42.9207C303.91 42.9207 303.046 43.134 302.3 43.5607C301.574 43.9874 300.998 44.5847 300.572 45.3527C300.166 46.0994 299.964 46.9847 299.964 48.0087V48.6487C299.964 49.6727 300.198 50.5794 300.668 51.3687C301.137 52.158 301.798 52.766 302.652 53.1927C303.505 53.6194 304.486 53.8327 305.596 53.8327C306.556 53.8327 307.42 53.6834 308.188 53.3847C308.956 53.086 309.638 52.6167 310.236 51.9767L312.38 54.4407C311.612 55.3367 310.641 56.03 309.468 56.5207C308.316 56.99 306.993 57.2247 305.5 57.2247Z" fill="white"/>
<path d="M284.46 57.2247C282.711 57.2247 281.153 56.8514 279.788 56.1047C278.423 55.3367 277.345 54.2914 276.556 52.9687C275.767 51.646 275.372 50.142 275.372 48.4567C275.372 46.75 275.767 45.246 276.556 43.9447C277.345 42.622 278.423 41.5874 279.788 40.8407C281.153 40.094 282.711 39.7207 284.46 39.7207C286.231 39.7207 287.799 40.094 289.164 40.8407C290.551 41.5874 291.628 42.6114 292.396 43.9127C293.185 45.214 293.58 46.7287 293.58 48.4567C293.58 50.142 293.185 51.646 292.396 52.9687C291.628 54.2914 290.551 55.3367 289.164 56.1047C287.799 56.8514 286.231 57.2247 284.46 57.2247ZM284.46 53.8007C285.441 53.8007 286.316 53.5874 287.084 53.1607C287.852 52.734 288.449 52.1154 288.876 51.3047C289.324 50.494 289.548 49.5447 289.548 48.4567C289.548 47.3474 289.324 46.398 288.876 45.6087C288.449 44.798 287.852 44.1794 287.084 43.7527C286.316 43.326 285.452 43.1127 284.492 43.1127C283.511 43.1127 282.636 43.326 281.868 43.7527C281.121 44.1794 280.524 44.798 280.076 45.6087C279.628 46.398 279.404 47.3474 279.404 48.4567C279.404 49.5447 279.628 50.494 280.076 51.3047C280.524 52.1154 281.121 52.734 281.868 53.1607C282.636 53.5874 283.5 53.8007 284.46 53.8007Z" fill="white"/>
<path d="M257.031 57.0001V39.9121H265.383C267.453 39.9121 269.074 40.2961 270.247 41.0641C271.442 41.8321 272.039 42.9201 272.039 44.3281C272.039 45.7148 271.485 46.8028 270.375 47.5921C269.266 48.3601 267.794 48.7441 265.959 48.7441L266.439 47.7521C268.509 47.7521 270.045 48.1361 271.047 48.9041C272.071 49.6508 272.583 50.7494 272.583 52.2001C272.583 53.7148 272.018 54.8988 270.887 55.7521C269.757 56.5841 268.039 57.0001 265.735 57.0001H257.031ZM260.839 54.0881H265.415C266.503 54.0881 267.325 53.9174 267.879 53.5761C268.434 53.2134 268.711 52.6694 268.711 51.9441C268.711 51.1761 268.455 50.6108 267.943 50.2481C267.431 49.8854 266.631 49.7041 265.543 49.7041H260.839V54.0881ZM260.839 47.0481H265.031C266.055 47.0481 266.823 46.8668 267.335 46.5041C267.869 46.1201 268.135 45.5868 268.135 44.9041C268.135 44.2001 267.869 43.6774 267.335 43.3361C266.823 42.9948 266.055 42.8241 265.031 42.8241H260.839V47.0481Z" fill="white"/>
<path d="M246.214 57.2247C244.422 57.2247 242.822 56.8514 241.414 56.1047C240.027 55.3367 238.939 54.2914 238.15 52.9687C237.36 51.646 236.966 50.142 236.966 48.4567C236.966 46.75 237.36 45.246 238.15 43.9447C238.939 42.622 240.027 41.5874 241.414 40.8407C242.822 40.094 244.422 39.7207 246.214 39.7207C247.878 39.7207 249.339 40.062 250.598 40.7447C251.878 41.406 252.848 42.3874 253.51 43.6887L250.438 45.4807C249.926 44.67 249.296 44.0727 248.55 43.6887C247.824 43.3047 247.035 43.1127 246.182 43.1127C245.2 43.1127 244.315 43.326 243.526 43.7527C242.736 44.1794 242.118 44.798 241.67 45.6087C241.222 46.398 240.998 47.3474 240.998 48.4567C240.998 49.566 241.222 50.526 241.67 51.3367C242.118 52.126 242.736 52.734 243.526 53.1607C244.315 53.5874 245.2 53.8007 246.182 53.8007C247.035 53.8007 247.824 53.6087 248.55 53.2247C249.296 52.8407 249.926 52.2434 250.438 51.4327L253.51 53.2247C252.848 54.5047 251.878 55.4967 250.598 56.2007C249.339 56.8834 247.878 57.2247 246.214 57.2247Z" fill="white"/>
<path d="M209.781 57.0001V39.9121H218.133C220.203 39.9121 221.824 40.2961 222.997 41.0641C224.192 41.8321 224.789 42.9201 224.789 44.3281C224.789 45.7148 224.235 46.8028 223.125 47.5921C222.016 48.3601 220.544 48.7441 218.709 48.7441L219.189 47.7521C221.259 47.7521 222.795 48.1361 223.797 48.9041C224.821 49.6508 225.333 50.7494 225.333 52.2001C225.333 53.7148 224.768 54.8988 223.637 55.7521C222.507 56.5841 220.789 57.0001 218.485 57.0001H209.781ZM213.589 54.0881H218.165C219.253 54.0881 220.075 53.9174 220.629 53.5761C221.184 53.2134 221.461 52.6694 221.461 51.9441C221.461 51.1761 221.205 50.6108 220.693 50.2481C220.181 49.8854 219.381 49.7041 218.293 49.7041H213.589V54.0881ZM213.589 47.0481H217.781C218.805 47.0481 219.573 46.8668 220.085 46.5041C220.619 46.1201 220.885 45.5868 220.885 44.9041C220.885 44.2001 220.619 43.6774 220.085 43.3361C219.573 42.9948 218.805 42.8241 217.781 42.8241H213.589V47.0481Z" fill="white"/>
<path d="M192.212 57.0007V53.5447L191.988 52.8087V46.7607C191.988 45.5874 191.636 44.6807 190.932 44.0407C190.228 43.3794 189.161 43.0487 187.732 43.0487C186.772 43.0487 185.822 43.198 184.884 43.4967C183.966 43.7954 183.188 44.2114 182.548 44.7447L180.98 41.8327C181.897 41.1287 182.985 40.606 184.244 40.2647C185.524 39.902 186.846 39.7207 188.212 39.7207C190.686 39.7207 192.596 40.318 193.94 41.5127C195.305 42.686 195.988 44.51 195.988 46.9847V57.0007H192.212ZM186.836 57.2247C185.556 57.2247 184.436 57.0114 183.476 56.5847C182.516 56.1367 181.769 55.5287 181.236 54.7607C180.724 53.9714 180.468 53.086 180.468 52.1047C180.468 51.1447 180.692 50.2807 181.14 49.5127C181.609 48.7447 182.366 48.1367 183.412 47.6887C184.457 47.2407 185.844 47.0167 187.572 47.0167H192.532V49.6727H187.86C186.494 49.6727 185.577 49.8967 185.108 50.3447C184.638 50.7714 184.404 51.3047 184.404 51.9447C184.404 52.67 184.692 53.246 185.268 53.6727C185.844 54.0994 186.644 54.3127 187.668 54.3127C188.649 54.3127 189.524 54.0887 190.292 53.6407C191.081 53.1927 191.646 52.5314 191.988 51.6567L192.66 54.0567C192.276 55.0594 191.582 55.838 190.58 56.3927C189.598 56.9474 188.35 57.2247 186.836 57.2247Z" fill="white"/>
<path d="M162.031 57.0001V39.9121H170.383C172.453 39.9121 174.074 40.2961 175.247 41.0641C176.442 41.8321 177.039 42.9201 177.039 44.3281C177.039 45.7148 176.485 46.8028 175.375 47.5921C174.266 48.3601 172.794 48.7441 170.959 48.7441L171.439 47.7521C173.509 47.7521 175.045 48.1361 176.047 48.9041C177.071 49.6508 177.583 50.7494 177.583 52.2001C177.583 53.7148 177.018 54.8988 175.887 55.7521C174.757 56.5841 173.039 57.0001 170.735 57.0001H162.031ZM165.839 54.0881H170.415C171.503 54.0881 172.325 53.9174 172.879 53.5761C173.434 53.2134 173.711 52.6694 173.711 51.9441C173.711 51.1761 173.455 50.6108 172.943 50.2481C172.431 49.8854 171.631 49.7041 170.543 49.7041H165.839V54.0881ZM165.839 47.0481H170.031C171.055 47.0481 171.823 46.8668 172.335 46.5041C172.869 46.1201 173.135 45.5868 173.135 44.9041C173.135 44.2001 172.869 43.6774 172.335 43.3361C171.823 42.9948 171.055 42.8241 170.031 42.8241H165.839V47.0481Z" fill="white"/>
<path d="M149.146 57.0001V42.3441L150.074 43.3041H143.13V39.9121H159.13V43.3041H152.218L153.146 42.3441V57.0001H149.146Z" fill="white"/>
<path d="M134.901 57.2247C133.109 57.2247 131.509 56.8514 130.101 56.1047C128.715 55.3367 127.627 54.2914 126.837 52.9687C126.048 51.646 125.653 50.142 125.653 48.4567C125.653 46.75 126.048 45.246 126.837 43.9447C127.627 42.622 128.715 41.5874 130.101 40.8407C131.509 40.094 133.109 39.7207 134.901 39.7207C136.565 39.7207 138.027 40.062 139.285 40.7447C140.565 41.406 141.536 42.3874 142.197 43.6887L139.125 45.4807C138.613 44.67 137.984 44.0727 137.237 43.6887C136.512 43.3047 135.723 43.1127 134.869 43.1127C133.888 43.1127 133.003 43.326 132.213 43.7527C131.424 44.1794 130.805 44.798 130.357 45.6087C129.909 46.398 129.685 47.3474 129.685 48.4567C129.685 49.566 129.909 50.526 130.357 51.3367C130.805 52.126 131.424 52.734 132.213 53.1607C133.003 53.5874 133.888 53.8007 134.869 53.8007C135.723 53.8007 136.512 53.6087 137.237 53.2247C137.984 52.8407 138.613 52.2434 139.125 51.4327L142.197 53.2247C141.536 54.5047 140.565 55.4967 139.285 56.2007C138.027 56.8834 136.565 57.2247 134.901 57.2247Z" fill="white"/>
<path d="M101.344 57.0001V39.9121H105.536L112.416 52.0401H110.752L117.984 39.9121H121.728L121.76 57.0001H118.144V44.2001L118.784 44.6161L112.384 55.2081H110.656L104.224 44.3281L104.992 44.1361V57.0001H101.344Z" fill="white"/>
<path d="M88.2726 57.2247C86.5232 57.2247 84.9659 56.8514 83.6006 56.1047C82.2352 55.3367 81.1579 54.2914 80.3686 52.9687C79.5792 51.646 79.1846 50.142 79.1846 48.4567C79.1846 46.75 79.5792 45.246 80.3686 43.9447C81.1579 42.622 82.2352 41.5874 83.6006 40.8407C84.9659 40.094 86.5232 39.7207 88.2726 39.7207C90.0432 39.7207 91.6112 40.094 92.9766 40.8407C94.3632 41.5874 95.4406 42.6114 96.2086 43.9127C96.9979 45.214 97.3926 46.7287 97.3926 48.4567C97.3926 50.142 96.9979 51.646 96.2086 52.9687C95.4406 54.2914 94.3632 55.3367 92.9766 56.1047C91.6112 56.8514 90.0432 57.2247 88.2726 57.2247ZM88.2726 53.8007C89.2539 53.8007 90.1286 53.5874 90.8966 53.1607C91.6646 52.734 92.2619 52.1154 92.6886 51.3047C93.1366 50.494 93.3606 49.5447 93.3606 48.4567C93.3606 47.3474 93.1366 46.398 92.6886 45.6087C92.2619 44.798 91.6646 44.1794 90.8966 43.7527C90.1286 43.326 89.2646 43.1127 88.3046 43.1127C87.3232 43.1127 86.4486 43.326 85.6806 43.7527C84.9339 44.1794 84.3366 44.798 83.8886 45.6087C83.4406 46.398 83.2166 47.3474 83.2166 48.4567C83.2166 49.5447 83.4406 50.494 83.8886 51.3047C84.3366 52.1154 84.9339 52.734 85.6806 53.1607C86.4486 53.5874 87.3126 53.8007 88.2726 53.8007Z" fill="white"/>
<path d="M73.6935 57.0001L67.5175 48.8081L70.7815 46.7921L78.3975 57.0001H73.6935ZM61.4375 57.0001V39.9121H65.4375V57.0001H61.4375ZM64.2535 50.1521V46.8241H70.0455V50.1521H64.2535ZM71.1655 48.9361L67.4215 48.4881L73.6935 39.9121H77.9815L71.1655 48.9361Z" fill="white"/>
<path d="M52.7118 57.0007V53.5447L52.4878 52.8087V46.7607C52.4878 45.5874 52.1358 44.6807 51.4318 44.0407C50.7278 43.3794 49.6611 43.0487 48.2318 43.0487C47.2718 43.0487 46.3224 43.198 45.3838 43.4967C44.4664 43.7954 43.6878 44.2114 43.0478 44.7447L41.4798 41.8327C42.3971 41.1287 43.4851 40.606 44.7438 40.2647C46.0238 39.902 47.3464 39.7207 48.7118 39.7207C51.1864 39.7207 53.0958 40.318 54.4398 41.5127C55.8051 42.686 56.4878 44.51 56.4878 46.9847V57.0007H52.7118ZM47.3358 57.2247C46.0558 57.2247 44.9358 57.0114 43.9758 56.5847C43.0158 56.1367 42.2691 55.5287 41.7358 54.7607C41.2238 53.9714 40.9678 53.086 40.9678 52.1047C40.9678 51.1447 41.1918 50.2807 41.6398 49.5127C42.1091 48.7447 42.8664 48.1367 43.9118 47.6887C44.9571 47.2407 46.3438 47.0167 48.0718 47.0167H53.0318V49.6727H48.3598C46.9944 49.6727 46.0771 49.8967 45.6078 50.3447C45.1384 50.7714 44.9038 51.3047 44.9038 51.9447C44.9038 52.67 45.1918 53.246 45.7678 53.6727C46.3438 54.0994 47.1438 54.3127 48.1678 54.3127C49.1491 54.3127 50.0238 54.0887 50.7918 53.6407C51.5811 53.1927 52.1464 52.5314 52.4878 51.6567L53.1598 54.0567C52.7758 55.0594 52.0824 55.838 51.0798 56.3927C50.0984 56.9474 48.8504 57.2247 47.3358 57.2247Z" fill="white"/>
<path d="M20.375 57.0001V39.9121H24.375V46.8561H32.983V39.9121H36.983V57.0001H32.983V50.2481H24.375V57.0001H20.375Z" fill="white"/>
<path d="M8.09581 57.2883C6.79447 57.2883 5.5038 57.139 4.2238 56.8403C2.96514 56.5203 1.8238 56.0723 0.799805 55.4963L1.9198 52.5203C2.7518 52.9896 3.69047 53.3523 4.7358 53.6083C5.78114 53.8643 6.82647 53.9923 7.8718 53.9923C8.76781 53.9923 9.5358 53.907 10.1758 53.7363C10.8158 53.5443 11.3065 53.267 11.6478 52.9043C12.0105 52.5416 12.1918 52.1256 12.1918 51.6563C12.1918 50.9736 11.8931 50.4616 11.2958 50.1203C10.7198 49.7576 9.8878 49.5763 8.7998 49.5763H5.5038V46.8883H8.4798C9.16247 46.8883 9.73847 46.8136 10.2078 46.6643C10.6985 46.515 11.0718 46.291 11.3278 45.9923C11.5838 45.6936 11.7118 45.3416 11.7118 44.9363C11.7118 44.531 11.5518 44.179 11.2318 43.8803C10.9331 43.5603 10.4958 43.3256 9.9198 43.1763C9.34381 43.0056 8.65047 42.9203 7.8398 42.9203C6.98647 42.9203 6.10114 43.027 5.1838 43.2403C4.2878 43.4536 3.37047 43.763 2.4318 44.1683L1.4078 41.2243C2.4958 40.7336 3.55181 40.3603 4.5758 40.1043C5.62114 39.827 6.6558 39.6776 7.6798 39.6563C9.23714 39.5923 10.6238 39.7523 11.8398 40.1363C13.0558 40.5203 14.0158 41.075 14.7198 41.8003C15.4238 42.5256 15.7758 43.379 15.7758 44.3603C15.7758 45.171 15.5198 45.907 15.0078 46.5683C14.5171 47.2083 13.8345 47.7096 12.9598 48.0723C12.1065 48.435 11.1251 48.6163 10.0158 48.6163L10.1438 47.7523C12.0425 47.7523 13.5358 48.1363 14.6238 48.9043C15.7118 49.651 16.2558 50.675 16.2558 51.9763C16.2558 53.0216 15.9038 53.9496 15.1998 54.7603C14.4958 55.5496 13.5251 56.1683 12.2878 56.6163C11.0718 57.0643 9.67447 57.2883 8.09581 57.2883Z" fill="white"/>
<path d="M446.937 18.2247C445.038 18.2247 443.374 17.8514 441.945 17.1047C440.537 16.3367 439.438 15.2914 438.649 13.9687C437.881 12.646 437.497 11.142 437.497 9.4567C437.497 7.75004 437.87 6.24604 438.617 4.9447C439.385 3.62204 440.43 2.58737 441.753 1.8407C443.097 1.09404 444.622 0.720703 446.329 0.720703C447.993 0.720703 449.476 1.08337 450.777 1.8087C452.078 2.53404 453.102 3.55804 453.849 4.8807C454.596 6.20337 454.969 7.7607 454.969 9.5527C454.969 9.72337 454.958 9.91537 454.937 10.1287C454.937 10.342 454.926 10.5447 454.905 10.7367H440.665V8.0807H452.793L451.225 8.9127C451.246 7.93137 451.044 7.06737 450.617 6.3207C450.19 5.57404 449.604 4.98737 448.857 4.5607C448.132 4.13404 447.289 3.9207 446.329 3.9207C445.348 3.9207 444.484 4.13404 443.737 4.5607C443.012 4.98737 442.436 5.5847 442.009 6.3527C441.604 7.09937 441.401 7.9847 441.401 9.0087V9.6487C441.401 10.6727 441.636 11.5794 442.105 12.3687C442.574 13.158 443.236 13.766 444.089 14.1927C444.942 14.6194 445.924 14.8327 447.033 14.8327C447.993 14.8327 448.857 14.6834 449.625 14.3847C450.393 14.086 451.076 13.6167 451.673 12.9767L453.817 15.4407C453.049 16.3367 452.078 17.03 450.905 17.5207C449.753 17.99 448.43 18.2247 446.937 18.2247Z" fill="white"/>
<path d="M429.592 18.0001V0.912109H433.592V18.0001H429.592ZM420.664 6.54411C422.861 6.54411 424.525 7.03478 425.656 8.01611C426.808 8.99744 427.384 10.3841 427.384 12.1761C427.384 14.0321 426.744 15.4828 425.464 16.5281C424.205 17.5521 422.413 18.0534 420.088 18.0321L412.344 18.0001V0.912109H416.344V6.51211L420.664 6.54411ZM419.736 15.0881C420.909 15.1094 421.805 14.8641 422.424 14.3521C423.042 13.8401 423.352 13.0934 423.352 12.1121C423.352 11.1308 423.042 10.4268 422.424 10.0001C421.826 9.55211 420.93 9.31744 419.736 9.29611L416.344 9.26411V15.0561L419.736 15.0881Z" fill="white"/>
<path d="M392.531 18.0001V0.912109H400.883C402.953 0.912109 404.574 1.29611 405.747 2.06411C406.942 2.83211 407.539 3.92011 407.539 5.32811C407.539 6.71478 406.985 7.80278 405.875 8.59211C404.766 9.36011 403.294 9.74411 401.459 9.74411L401.939 8.75211C404.009 8.75211 405.545 9.13611 406.547 9.90411C407.571 10.6508 408.083 11.7494 408.083 13.2001C408.083 14.7148 407.518 15.8988 406.387 16.7521C405.257 17.5841 403.539 18.0001 401.235 18.0001H392.531ZM396.339 15.0881H400.915C402.003 15.0881 402.825 14.9174 403.379 14.5761C403.934 14.2134 404.211 13.6694 404.211 12.9441C404.211 12.1761 403.955 11.6108 403.443 11.2481C402.931 10.8854 402.131 10.7041 401.043 10.7041H396.339V15.0881ZM396.339 8.04811H400.531C401.555 8.04811 402.323 7.86678 402.835 7.50411C403.369 7.12011 403.635 6.58678 403.635 5.90411C403.635 5.20011 403.369 4.67744 402.835 4.33611C402.323 3.99478 401.555 3.82411 400.531 3.82411H396.339V8.04811Z" fill="white"/>
<path d="M379.46 18.2247C377.711 18.2247 376.153 17.8514 374.788 17.1047C373.423 16.3367 372.345 15.2914 371.556 13.9687C370.767 12.646 370.372 11.142 370.372 9.4567C370.372 7.75004 370.767 6.24604 371.556 4.9447C372.345 3.62204 373.423 2.58737 374.788 1.8407C376.153 1.09404 377.711 0.720703 379.46 0.720703C381.231 0.720703 382.799 1.09404 384.164 1.8407C385.551 2.58737 386.628 3.61137 387.396 4.9127C388.185 6.21404 388.58 7.7287 388.58 9.4567C388.58 11.142 388.185 12.646 387.396 13.9687C386.628 15.2914 385.551 16.3367 384.164 17.1047C382.799 17.8514 381.231 18.2247 379.46 18.2247ZM379.46 14.8007C380.441 14.8007 381.316 14.5874 382.084 14.1607C382.852 13.734 383.449 13.1154 383.876 12.3047C384.324 11.494 384.548 10.5447 384.548 9.4567C384.548 8.34737 384.324 7.39804 383.876 6.6087C383.449 5.79804 382.852 5.17937 382.084 4.7527C381.316 4.32604 380.452 4.1127 379.492 4.1127C378.511 4.1127 377.636 4.32604 376.868 4.7527C376.121 5.17937 375.524 5.79804 375.076 6.6087C374.628 7.39804 374.404 8.34737 374.404 9.4567C374.404 10.5447 374.628 11.494 375.076 12.3047C375.524 13.1154 376.121 13.734 376.868 14.1607C377.636 14.5874 378.5 14.8007 379.46 14.8007Z" fill="white"/>
<path d="M349.875 18.0001V0.912109H353.875V7.85611H362.483V0.912109H366.483V18.0001H362.483V11.2481H353.875V18.0001H349.875Z" fill="white"/>
<path d="M318.562 18.0001V0.912109H322.562V12.1761L332.003 0.912109H335.651V18.0001H331.651V6.73611L322.243 18.0001H318.562Z" fill="white"/>
<path d="M305.677 18.0001V3.34411L306.605 4.30411H299.661V0.912109H315.661V4.30411H308.749L309.677 3.34411V18.0001H305.677Z" fill="white"/>
<path d="M291.433 18.2247C289.641 18.2247 288.041 17.8514 286.633 17.1047C285.246 16.3367 284.158 15.2914 283.369 13.9687C282.579 12.646 282.185 11.142 282.185 9.4567C282.185 7.75004 282.579 6.24604 283.369 4.9447C284.158 3.62204 285.246 2.58737 286.633 1.8407C288.041 1.09404 289.641 0.720703 291.433 0.720703C293.097 0.720703 294.558 1.06204 295.817 1.7447C297.097 2.40604 298.067 3.38737 298.729 4.6887L295.657 6.4807C295.145 5.67004 294.515 5.0727 293.769 4.6887C293.043 4.3047 292.254 4.1127 291.401 4.1127C290.419 4.1127 289.534 4.32604 288.745 4.7527C287.955 5.17937 287.337 5.79804 286.889 6.6087C286.441 7.39804 286.217 8.34737 286.217 9.4567C286.217 10.566 286.441 11.526 286.889 12.3367C287.337 13.126 287.955 13.734 288.745 14.1607C289.534 14.5874 290.419 14.8007 291.401 14.8007C292.254 14.8007 293.043 14.6087 293.769 14.2247C294.515 13.8407 295.145 13.2434 295.657 12.4327L298.729 14.2247C298.067 15.5047 297.097 16.4967 295.817 17.2007C294.558 17.8834 293.097 18.2247 291.433 18.2247Z" fill="white"/>
<path d="M271.25 18.2247C269.351 18.2247 267.687 17.8514 266.258 17.1047C264.85 16.3367 263.751 15.2914 262.962 13.9687C262.194 12.646 261.81 11.142 261.81 9.4567C261.81 7.75004 262.183 6.24604 262.93 4.9447C263.698 3.62204 264.743 2.58737 266.066 1.8407C267.41 1.09404 268.935 0.720703 270.642 0.720703C272.306 0.720703 273.788 1.08337 275.09 1.8087C276.391 2.53404 277.415 3.55804 278.162 4.8807C278.908 6.20337 279.282 7.7607 279.282 9.5527C279.282 9.72337 279.271 9.91537 279.25 10.1287C279.25 10.342 279.239 10.5447 279.218 10.7367H264.978V8.0807H277.106L275.538 8.9127C275.559 7.93137 275.356 7.06737 274.93 6.3207C274.503 5.57404 273.916 4.98737 273.17 4.5607C272.444 4.13404 271.602 3.9207 270.642 3.9207C269.66 3.9207 268.796 4.13404 268.05 4.5607C267.324 4.98737 266.748 5.5847 266.322 6.3527C265.916 7.09937 265.714 7.9847 265.714 9.0087V9.6487C265.714 10.6727 265.948 11.5794 266.418 12.3687C266.887 13.158 267.548 13.766 268.402 14.1927C269.255 14.6194 270.236 14.8327 271.346 14.8327C272.306 14.8327 273.17 14.6834 273.938 14.3847C274.706 14.086 275.388 13.6167 275.986 12.9767L278.13 15.4407C277.362 16.3367 276.391 17.03 275.218 17.5207C274.066 17.99 272.743 18.2247 271.25 18.2247Z" fill="white"/>
<path d="M243.469 18.0001V0.912109H251.821C253.89 0.912109 255.511 1.29611 256.685 2.06411C257.879 2.83211 258.477 3.92011 258.477 5.32811C258.477 6.71478 257.922 7.80278 256.813 8.59211C255.703 9.36011 254.231 9.74411 252.397 9.74411L252.877 8.75211C254.946 8.75211 256.482 9.13611 257.485 9.90411C258.509 10.6508 259.021 11.7494 259.021 13.2001C259.021 14.7148 258.455 15.8988 257.325 16.7521C256.194 17.5841 254.477 18.0001 252.173 18.0001H243.469ZM247.277 15.0881H251.853C252.941 15.0881 253.762 14.9174 254.317 14.5761C254.871 14.2134 255.149 13.6694 255.149 12.9441C255.149 12.1761 254.893 11.6108 254.381 11.2481C253.869 10.8854 253.069 10.7041 251.981 10.7041H247.277V15.0881ZM247.277 8.04811H251.469C252.493 8.04811 253.261 7.86678 253.773 7.50411C254.306 7.12011 254.573 6.58678 254.573 5.90411C254.573 5.20011 254.306 4.67744 253.773 4.33611C253.261 3.99478 252.493 3.82411 251.469 3.82411H247.277V8.04811Z" fill="white"/>
<path d="M234.743 18.0007V14.5447L234.519 13.8087V7.7607C234.519 6.58737 234.167 5.6807 233.463 5.0407C232.759 4.37937 231.692 4.0487 230.263 4.0487C229.303 4.0487 228.354 4.19804 227.415 4.4967C226.498 4.79537 225.719 5.21137 225.079 5.7447L223.511 2.8327C224.428 2.1287 225.516 1.60604 226.775 1.2647C228.055 0.902037 229.378 0.720703 230.743 0.720703C233.218 0.720703 235.127 1.31804 236.471 2.5127C237.836 3.68604 238.519 5.51004 238.519 7.9847V18.0007H234.743ZM229.367 18.2247C228.087 18.2247 226.967 18.0114 226.007 17.5847C225.047 17.1367 224.3 16.5287 223.767 15.7607C223.255 14.9714 222.999 14.086 222.999 13.1047C222.999 12.1447 223.223 11.2807 223.671 10.5127C224.14 9.7447 224.898 9.1367 225.943 8.6887C226.988 8.2407 228.375 8.0167 230.103 8.0167H235.063V10.6727H230.391C229.026 10.6727 228.108 10.8967 227.639 11.3447C227.17 11.7714 226.935 12.3047 226.935 12.9447C226.935 13.67 227.223 14.246 227.799 14.6727C228.375 15.0994 229.175 15.3127 230.199 15.3127C231.18 15.3127 232.055 15.0887 232.823 14.6407C233.612 14.1927 234.178 13.5314 234.519 12.6567L235.191 15.0567C234.807 16.0594 234.114 16.838 233.111 17.3927C232.13 17.9474 230.882 18.2247 229.367 18.2247Z" fill="white"/>
<path d="M212.096 18.2883C210.794 18.2883 209.504 18.139 208.224 17.8403C206.965 17.5203 205.824 17.0723 204.8 16.4963L205.92 13.5203C206.752 13.9896 207.69 14.3523 208.736 14.6083C209.781 14.8643 210.826 14.9923 211.872 14.9923C212.768 14.9923 213.536 14.907 214.176 14.7363C214.816 14.5443 215.306 14.267 215.648 13.9043C216.01 13.5416 216.192 13.1256 216.192 12.6563C216.192 11.9736 215.893 11.4616 215.296 11.1203C214.72 10.7576 213.888 10.5763 212.8 10.5763H209.504V7.88829H212.48C213.162 7.88829 213.738 7.81363 214.208 7.66429C214.698 7.51496 215.072 7.29096 215.328 6.99229C215.584 6.69363 215.712 6.34163 215.712 5.93629C215.712 5.53096 215.552 5.17896 215.232 4.88029C214.933 4.56029 214.496 4.32563 213.92 4.17629C213.344 4.00563 212.65 3.92029 211.84 3.92029C210.986 3.92029 210.101 4.02696 209.184 4.24029C208.288 4.45363 207.37 4.76296 206.432 5.16829L205.408 2.22429C206.496 1.73363 207.552 1.36029 208.576 1.10429C209.621 0.82696 210.656 0.677626 211.68 0.656292C213.237 0.592293 214.624 0.752293 215.84 1.13629C217.056 1.52029 218.016 2.07496 218.72 2.80029C219.424 3.52563 219.776 4.37896 219.776 5.36029C219.776 6.17096 219.52 6.90696 219.008 7.56829C218.517 8.20829 217.834 8.70963 216.96 9.07229C216.106 9.43496 215.125 9.61629 214.016 9.61629L214.144 8.75229C216.042 8.75229 217.536 9.13629 218.624 9.90429C219.712 10.651 220.256 11.675 220.256 12.9763C220.256 14.0216 219.904 14.9496 219.2 15.7603C218.496 16.5496 217.525 17.1683 216.288 17.6163C215.072 18.0643 213.674 18.2883 212.096 18.2883Z" fill="white"/>
<path d="M187.576 6.54411C189.773 6.54411 191.448 7.03478 192.6 8.01611C193.752 8.99744 194.328 10.3841 194.328 12.1761C194.328 14.0321 193.688 15.4828 192.408 16.5281C191.128 17.5521 189.325 18.0534 187 18.0321L179 18.0001V0.912109H183V6.51211L187.576 6.54411ZM186.648 15.0881C187.821 15.1094 188.717 14.8641 189.336 14.3521C189.955 13.8401 190.264 13.0934 190.264 12.1121C190.264 11.1308 189.955 10.4268 189.336 10.0001C188.739 9.55211 187.843 9.31744 186.648 9.29611L183 9.26411V15.0561L186.648 15.0881Z" fill="white"/>
<path d="M159.925 14.6081L159.061 15.5681V0.912109H163.061V15.5681L162.102 14.6081H170.549L169.622 15.5681V0.912109H173.622V18.0001H148.438V0.912109H152.438V15.5681L151.509 14.6081H159.925Z" fill="white"/>
<path d="M136.031 18.2247C134.132 18.2247 132.468 17.8514 131.039 17.1047C129.631 16.3367 128.532 15.2914 127.743 13.9687C126.975 12.646 126.591 11.142 126.591 9.4567C126.591 7.75004 126.964 6.24604 127.711 4.9447C128.479 3.62204 129.524 2.58737 130.847 1.8407C132.191 1.09404 133.716 0.720703 135.423 0.720703C137.087 0.720703 138.569 1.08337 139.871 1.8087C141.172 2.53404 142.196 3.55804 142.943 4.8807C143.689 6.20337 144.063 7.7607 144.063 9.5527C144.063 9.72337 144.052 9.91537 144.031 10.1287C144.031 10.342 144.02 10.5447 143.999 10.7367H129.759V8.0807H141.887L140.319 8.9127C140.34 7.93137 140.137 7.06737 139.711 6.3207C139.284 5.57404 138.697 4.98737 137.951 4.5607C137.225 4.13404 136.383 3.9207 135.423 3.9207C134.441 3.9207 133.577 4.13404 132.831 4.5607C132.105 4.98737 131.529 5.5847 131.103 6.3527C130.697 7.09937 130.495 7.9847 130.495 9.0087V9.6487C130.495 10.6727 130.729 11.5794 131.199 12.3687C131.668 13.158 132.329 13.766 133.183 14.1927C134.036 14.6194 135.017 14.8327 136.127 14.8327C137.087 14.8327 137.951 14.6834 138.719 14.3847C139.487 14.086 140.169 13.6167 140.767 12.9767L142.911 15.4407C142.143 16.3367 141.172 17.03 139.999 17.5207C138.847 17.99 137.524 18.2247 136.031 18.2247Z" fill="white"/>
<path d="M120.884 18.0001L115.892 9.80811L119.156 7.79211L125.652 18.0001H120.884ZM112.66 11.1521V7.82411H118.388V11.1521H112.66ZM119.54 9.93611L115.764 9.48811L120.948 0.912109H125.204L119.54 9.93611ZM102.836 18.0001H98.0996L104.564 7.79211L107.828 9.80811L102.836 18.0001ZM113.844 18.0001H109.876V0.912109H113.844V18.0001ZM111.06 11.1521H105.364V7.82411H111.06V11.1521ZM104.18 9.93611L98.5156 0.912109H102.772L107.924 9.48811L104.18 9.93611Z" fill="white"/>
<path d="M87.9913 18.2247C86.242 18.2247 84.6847 17.8514 83.3193 17.1047C81.954 16.3367 80.8767 15.2914 80.0873 13.9687C79.298 12.646 78.9033 11.142 78.9033 9.4567C78.9033 7.75004 79.298 6.24604 80.0873 4.9447C80.8767 3.62204 81.954 2.58737 83.3193 1.8407C84.6847 1.09404 86.242 0.720703 87.9913 0.720703C89.762 0.720703 91.33 1.09404 92.6953 1.8407C94.082 2.58737 95.1593 3.61137 95.9273 4.9127C96.7167 6.21404 97.1113 7.7287 97.1113 9.4567C97.1113 11.142 96.7167 12.646 95.9273 13.9687C95.1593 15.2914 94.082 16.3367 92.6953 17.1047C91.33 17.8514 89.762 18.2247 87.9913 18.2247ZM87.9913 14.8007C88.9727 14.8007 89.8473 14.5874 90.6153 14.1607C91.3833 13.734 91.9807 13.1154 92.4073 12.3047C92.8553 11.494 93.0793 10.5447 93.0793 9.4567C93.0793 8.34737 92.8553 7.39804 92.4073 6.6087C91.9807 5.79804 91.3833 5.17937 90.6153 4.7527C89.8473 4.32604 88.9833 4.1127 88.0233 4.1127C87.042 4.1127 86.1673 4.32604 85.3993 4.7527C84.6526 5.17937 84.0553 5.79804 83.6073 6.6087C83.1593 7.39804 82.9353 8.34737 82.9353 9.4567C82.9353 10.5447 83.1593 11.494 83.6073 12.3047C84.0553 13.1154 84.6526 13.734 85.3993 14.1607C86.1673 14.5874 87.0313 14.8007 87.9913 14.8007Z" fill="white"/>
<path d="M54.5938 18.0001V0.912109H58.7858L65.6658 13.0401H64.0018L71.2338 0.912109H74.9777L75.0098 18.0001H71.3937V5.20011L72.0337 5.61611L65.6337 16.2081H63.9058L57.4738 5.32811L58.2417 5.13611V18.0001H54.5938Z" fill="white"/>
<path d="M36.373 18.0001V0.912109H40.373V18.0001H36.373ZM27.445 6.54411C29.6423 6.54411 31.3063 7.03478 32.437 8.01611C33.589 8.99744 34.165 10.3841 34.165 12.1761C34.165 14.0321 33.525 15.4828 32.245 16.5281C30.9863 17.5521 29.1943 18.0534 26.869 18.0321L19.125 18.0001V0.912109H23.125V6.51211L27.445 6.54411ZM26.517 15.0881C27.6903 15.1094 28.5863 14.8641 29.205 14.3521C29.8237 13.8401 30.133 13.0934 30.133 12.1121C30.133 11.1308 29.8237 10.4268 29.205 10.0001C28.6077 9.55211 27.7117 9.31744 26.517 9.29611L23.125 9.26411V15.0561L26.517 15.0881Z" fill="white"/>
<path d="M6.23963 18.0001V3.34411L7.16763 4.30411H0.223633V0.912109H16.2236V4.30411H9.31163L10.2396 3.34411V18.0001H6.23963Z" fill="white"/>
</svg>
