<svg width="351" height="252" viewBox="0 0 351 252" fill="none" xmlns="http://www.w3.org/2000/svg">
<path d="M256.693 245.003V239.361L257.251 240.012H252.291C250.018 240.012 248.23 239.537 246.928 238.586C245.647 237.615 245.006 236.22 245.006 234.401C245.006 232.459 245.688 230.981 247.052 229.968C248.437 228.956 250.276 228.449 252.57 228.449H260.165V245.003H256.693ZM244.789 245.003L249.253 238.679H253.221L248.943 245.003H244.789ZM256.693 238.121V230.681L257.251 231.704H252.694C251.495 231.704 250.565 231.932 249.904 232.386C249.263 232.82 248.943 233.533 248.943 234.525C248.943 236.385 250.152 237.315 252.57 237.315H257.251L256.693 238.121Z" fill="#FFFBFB"/>
<path d="M236.158 245.219C234.422 245.219 232.872 244.857 231.508 244.134C230.165 243.39 229.111 242.377 228.346 241.096C227.582 239.814 227.199 238.357 227.199 236.725C227.199 235.071 227.582 233.614 228.346 232.354C229.111 231.072 230.165 230.07 231.508 229.347C232.872 228.623 234.422 228.262 236.158 228.262C237.77 228.262 239.186 228.592 240.405 229.254C241.645 229.894 242.586 230.845 243.226 232.106L240.25 233.842C239.754 233.056 239.145 232.478 238.421 232.106C237.719 231.734 236.954 231.548 236.127 231.548C235.177 231.548 234.319 231.754 233.554 232.168C232.79 232.581 232.19 233.18 231.756 233.966C231.322 234.73 231.105 235.65 231.105 236.725C231.105 237.799 231.322 238.729 231.756 239.515C232.19 240.279 232.79 240.868 233.554 241.282C234.319 241.695 235.177 241.902 236.127 241.902C236.954 241.902 237.719 241.716 238.421 241.344C239.145 240.972 239.754 240.393 240.25 239.608L243.226 241.344C242.586 242.584 241.645 243.545 240.405 244.227C239.186 244.888 237.77 245.219 236.158 245.219Z" fill="#FFFBFB"/>
<path d="M216.869 245.003V230.805L217.768 231.735H211.041V228.449H226.541V231.735H219.845L220.744 230.805V245.003H216.869Z" fill="#FFFBFB"/>
<path d="M202.045 245.219C200.206 245.219 198.594 244.857 197.209 244.134C195.845 243.39 194.781 242.377 194.016 241.096C193.272 239.814 192.9 238.357 192.9 236.725C192.9 235.071 193.262 233.614 193.985 232.354C194.729 231.072 195.742 230.07 197.023 229.347C198.325 228.623 199.803 228.262 201.456 228.262C203.068 228.262 204.505 228.613 205.765 229.316C207.026 230.018 208.018 231.01 208.741 232.292C209.465 233.573 209.826 235.082 209.826 236.818C209.826 236.983 209.816 237.169 209.795 237.376C209.795 237.582 209.785 237.779 209.764 237.965H195.969V235.392H207.718L206.199 236.198C206.22 235.247 206.024 234.41 205.61 233.687C205.197 232.963 204.629 232.395 203.905 231.982C203.203 231.568 202.386 231.362 201.456 231.362C200.506 231.362 199.669 231.568 198.945 231.982C198.243 232.395 197.685 232.974 197.271 233.718C196.879 234.441 196.682 235.299 196.682 236.291V236.911C196.682 237.903 196.91 238.781 197.364 239.546C197.819 240.31 198.46 240.899 199.286 241.313C200.113 241.726 201.064 241.933 202.138 241.933C203.068 241.933 203.905 241.788 204.649 241.499C205.393 241.209 206.055 240.755 206.633 240.135L208.71 242.522C207.966 243.39 207.026 244.061 205.889 244.537C204.773 244.991 203.492 245.219 202.045 245.219Z" fill="#FFFBFB"/>
<path d="M185.873 245.002V241.654L185.656 240.941V235.082C185.656 233.945 185.315 233.067 184.633 232.447C183.951 231.806 182.918 231.486 181.533 231.486C180.603 231.486 179.683 231.63 178.774 231.92C177.885 232.209 177.131 232.612 176.511 233.129L174.992 230.308C175.881 229.626 176.935 229.119 178.154 228.789C179.394 228.437 180.675 228.262 181.998 228.262C184.395 228.262 186.245 228.84 187.547 229.998C188.87 231.134 189.531 232.901 189.531 235.299V245.002H185.873ZM180.665 245.219C179.425 245.219 178.34 245.012 177.41 244.599C176.48 244.165 175.757 243.576 175.24 242.832C174.744 242.067 174.496 241.209 174.496 240.259C174.496 239.329 174.713 238.492 175.147 237.748C175.602 237.004 176.335 236.415 177.348 235.981C178.361 235.547 179.704 235.33 181.378 235.33H186.183V237.903H181.657C180.334 237.903 179.446 238.12 178.991 238.554C178.536 238.967 178.309 239.484 178.309 240.104C178.309 240.806 178.588 241.364 179.146 241.778C179.704 242.191 180.479 242.398 181.471 242.398C182.422 242.398 183.269 242.181 184.013 241.747C184.778 241.313 185.325 240.672 185.656 239.825L186.307 242.15C185.935 243.121 185.263 243.875 184.292 244.413C183.341 244.95 182.132 245.219 180.665 245.219Z" fill="#FFFBFB"/>
<path d="M166.044 243.205V231.735H159.689L159.596 234.401C159.555 235.352 159.493 236.272 159.41 237.16C159.327 238.028 159.193 238.834 159.007 239.578C158.821 240.302 158.552 240.901 158.201 241.376C157.85 241.852 157.385 242.162 156.806 242.306L152.962 241.717C153.582 241.717 154.078 241.521 154.45 241.128C154.843 240.715 155.142 240.157 155.349 239.454C155.576 238.731 155.742 237.915 155.845 237.005C155.948 236.075 156.021 235.114 156.062 234.122L156.279 228.449H169.919V243.205H166.044ZM152.373 248.692V241.717H172.368V248.692H168.741V245.003H155.969V248.692H152.373Z" fill="#FFFBFB"/>
<path d="M147.199 245.003L142.363 237.067L145.525 235.114L151.818 245.003H147.199ZM139.232 238.369V235.145H144.781V238.369H139.232ZM145.897 237.191L142.239 236.757L147.261 228.449H151.384L145.897 237.191ZM129.715 245.003H125.127L131.389 235.114L134.551 237.067L129.715 245.003ZM140.379 245.003H136.535V228.449H140.379V245.003ZM137.682 238.369H132.164V235.145H137.682V238.369ZM131.017 237.191L125.53 228.449H129.653L134.644 236.757L131.017 237.191Z" fill="#FFFBFB"/>
<path d="M111.563 251.234C110.757 251.234 109.951 251.1 109.145 250.831C108.339 250.563 107.667 250.191 107.13 249.715L108.68 246.863C109.073 247.215 109.517 247.494 110.013 247.7C110.509 247.907 111.015 248.01 111.532 248.01C112.235 248.01 112.803 247.835 113.237 247.483C113.671 247.132 114.074 246.543 114.446 245.716L115.407 243.546L115.717 243.081L121.979 228.449H125.699L117.949 246.336C117.432 247.576 116.854 248.558 116.213 249.281C115.593 250.005 114.89 250.511 114.105 250.8C113.34 251.09 112.493 251.234 111.563 251.234ZM114.973 245.592L107.502 228.449H111.532L117.608 242.74L114.973 245.592Z" fill="#FFFBFB"/>
<path d="M88.793 245.003V228.449H92.668V235.176H101.007V228.449H104.882V245.003H101.007V238.462H92.668V245.003H88.793Z" fill="#FFFBFB"/>
<path d="M55.25 245.003V228.449H59.311L65.976 240.198H64.364L71.37 228.449H74.997L75.028 245.003H71.525V232.603L72.145 233.006L65.945 243.267H64.271L58.04 232.727L58.784 232.541V245.003H55.25Z" fill="#FFFBFB"/>
<path d="M42.5872 245.219C40.8925 245.219 39.3839 244.857 38.0612 244.134C36.7385 243.39 35.6949 242.377 34.9302 241.096C34.1655 239.814 33.7832 238.357 33.7832 236.725C33.7832 235.071 34.1655 233.614 34.9302 232.354C35.6949 231.072 36.7385 230.07 38.0612 229.347C39.3839 228.623 40.8925 228.262 42.5872 228.262C44.3025 228.262 45.8215 228.623 47.1442 229.347C48.4875 230.07 49.5312 231.062 50.2752 232.323C51.0399 233.583 51.4222 235.051 51.4222 236.725C51.4222 238.357 51.0399 239.814 50.2752 241.096C49.5312 242.377 48.4875 243.39 47.1442 244.134C45.8215 244.857 44.3025 245.219 42.5872 245.219ZM42.5872 241.902C43.5379 241.902 44.3852 241.695 45.1292 241.282C45.8732 240.868 46.4519 240.269 46.8652 239.484C47.2992 238.698 47.5162 237.779 47.5162 236.725C47.5162 235.65 47.2992 234.73 46.8652 233.966C46.4519 233.18 45.8732 232.581 45.1292 232.168C44.3852 231.754 43.5482 231.548 42.6182 231.548C41.6675 231.548 40.8202 231.754 40.0762 232.168C39.3529 232.581 38.7742 233.18 38.3402 233.966C37.9062 234.73 37.6892 235.65 37.6892 236.725C37.6892 237.779 37.9062 238.698 38.3402 239.484C38.7742 240.269 39.3529 240.868 40.0762 241.282C40.8202 241.695 41.6572 241.902 42.5872 241.902Z" fill="#FFFBFB"/>
<path d="M23.453 245.003V230.805L24.352 231.735H17.625V228.449H33.125V231.735H26.429L27.328 230.805V245.003H23.453Z" fill="#FFFBFB"/>
<path d="M5.48759 238.026V235.236H14.4776V238.026H5.48759ZM7.75059 228.199C9.52793 228.199 11.0986 228.571 12.4626 229.315C13.8266 230.039 14.9013 231.041 15.6866 232.322C16.4719 233.583 16.8646 235.05 16.8646 236.724C16.8646 238.378 16.4719 239.855 15.6866 241.157C14.9013 242.439 13.8266 243.451 12.4626 244.195C11.0986 244.919 9.52793 245.28 7.75059 245.28C6.26259 245.28 4.89859 245.032 3.65859 244.536C2.41859 244.04 1.38526 243.327 0.558594 242.397L2.79059 240.227C3.45193 240.868 4.17526 241.354 4.96059 241.684C5.76659 242.015 6.64493 242.18 7.59559 242.18C8.71159 242.18 9.69326 241.953 10.5406 241.498C11.3879 241.023 12.0596 240.372 12.5556 239.545C13.0516 238.719 13.2996 237.778 13.2996 236.724C13.2996 235.65 13.0516 234.709 12.5556 233.903C12.0596 233.077 11.3879 232.436 10.5406 231.981C9.69326 231.506 8.71159 231.268 7.59559 231.268C6.64493 231.268 5.76659 231.434 4.96059 231.764C4.17526 232.095 3.45193 232.591 2.79059 233.252L0.558594 231.082C1.38526 230.152 2.41859 229.439 3.65859 228.943C4.89859 228.447 6.26259 228.199 7.75059 228.199Z" fill="#FFFBFB"/>
<path d="M255.66 207.003V190.449H263.751C265.756 190.449 267.326 190.821 268.463 191.565C269.62 192.309 270.199 193.363 270.199 194.727C270.199 196.071 269.662 197.125 268.587 197.889C267.512 198.633 266.086 199.005 264.309 199.005L264.774 198.044C266.779 198.044 268.267 198.416 269.238 199.16C270.23 199.884 270.726 200.948 270.726 202.353C270.726 203.821 270.178 204.968 269.083 205.794C267.988 206.6 266.324 207.003 264.092 207.003H255.66ZM259.349 204.182H263.782C264.836 204.182 265.632 204.017 266.169 203.686C266.706 203.335 266.975 202.808 266.975 202.105C266.975 201.361 266.727 200.814 266.231 200.462C265.735 200.111 264.96 199.935 263.906 199.935H259.349V204.182ZM259.349 197.362H263.41C264.402 197.362 265.146 197.187 265.642 196.835C266.159 196.463 266.417 195.947 266.417 195.285C266.417 194.603 266.159 194.097 265.642 193.766C265.146 193.436 264.402 193.27 263.41 193.27H259.349V197.362Z" fill="#FFFBFB"/>
<path d="M234.429 207.219C232.734 207.219 231.226 206.857 229.903 206.134C228.58 205.39 227.537 204.377 226.772 203.096C226.007 201.814 225.625 200.357 225.625 198.725C225.625 197.071 226.007 195.614 226.772 194.354C227.537 193.072 228.58 192.07 229.903 191.347C231.226 190.623 232.734 190.262 234.429 190.262C236.144 190.262 237.663 190.623 238.986 191.347C240.329 192.07 241.373 193.062 242.117 194.323C242.882 195.583 243.264 197.051 243.264 198.725C243.264 200.357 242.882 201.814 242.117 203.096C241.373 204.377 240.329 205.39 238.986 206.134C237.663 206.857 236.144 207.219 234.429 207.219ZM234.429 203.902C235.38 203.902 236.227 203.695 236.971 203.282C237.715 202.868 238.294 202.269 238.707 201.484C239.141 200.698 239.358 199.779 239.358 198.725C239.358 197.65 239.141 196.73 238.707 195.966C238.294 195.18 237.715 194.581 236.971 194.168C236.227 193.754 235.39 193.548 234.46 193.548C233.509 193.548 232.662 193.754 231.918 194.168C231.195 194.581 230.616 195.18 230.182 195.966C229.748 196.73 229.531 197.65 229.531 198.725C229.531 199.779 229.748 200.698 230.182 201.484C230.616 202.269 231.195 202.868 231.918 203.282C232.662 203.695 233.499 203.902 234.429 203.902Z" fill="#FFFBFB"/>
<path d="M205.77 207.003V190.449H209.645V197.176H217.984V190.449H221.859V207.003H217.984V200.462H209.645V207.003H205.77Z" fill="#FFFBFB"/>
<path d="M195.823 195.905C197.951 195.905 199.574 196.381 200.69 197.331C201.806 198.282 202.364 199.625 202.364 201.361C202.364 203.159 201.744 204.565 200.504 205.577C199.264 206.569 197.517 207.055 195.265 207.034L187.515 207.003V190.449H191.39V195.874L195.823 195.905ZM194.924 204.182C196.06 204.203 196.928 203.965 197.528 203.469C198.127 202.973 198.427 202.25 198.427 201.299C198.427 200.349 198.127 199.667 197.528 199.253C196.949 198.819 196.081 198.592 194.924 198.571L191.39 198.54V204.151L194.924 204.182Z" fill="#FFFBFB"/>
<path d="M164.874 206.972L165.06 203.717C165.205 203.738 165.339 203.759 165.463 203.779C165.587 203.8 165.701 203.81 165.804 203.81C166.445 203.81 166.941 203.614 167.292 203.221C167.643 202.829 167.902 202.302 168.067 201.64C168.253 200.958 168.377 200.204 168.439 199.377C168.522 198.53 168.584 197.683 168.625 196.835L168.904 190.449H182.296V207.003H178.421V192.681L179.32 193.735H171.446L172.283 192.65L172.066 197.021C172.004 198.489 171.88 199.853 171.694 201.113C171.529 202.353 171.26 203.438 170.888 204.368C170.537 205.298 170.041 206.022 169.4 206.538C168.78 207.055 167.984 207.313 167.013 207.313C166.703 207.313 166.362 207.282 165.99 207.22C165.639 207.158 165.267 207.076 164.874 206.972Z" fill="#FFFBFB"/>
<path d="M145.525 207.003V190.449H149.4V201.361L158.545 190.449H162.079V207.003H158.204V196.091L149.09 207.003H145.525Z" fill="#FFFBFB"/>
<path d="M135.045 207.219C133.309 207.219 131.759 206.857 130.395 206.134C129.052 205.39 127.998 204.377 127.233 203.096C126.468 201.814 126.086 200.357 126.086 198.725C126.086 197.071 126.468 195.614 127.233 194.354C127.998 193.072 129.052 192.07 130.395 191.347C131.759 190.623 133.309 190.262 135.045 190.262C136.657 190.262 138.073 190.592 139.292 191.254C140.532 191.894 141.472 192.845 142.113 194.106L139.137 195.842C138.641 195.056 138.031 194.478 137.308 194.106C136.605 193.734 135.841 193.548 135.014 193.548C134.063 193.548 133.206 193.754 132.441 194.168C131.676 194.581 131.077 195.18 130.643 195.966C130.209 196.73 129.992 197.65 129.992 198.725C129.992 199.799 130.209 200.729 130.643 201.515C131.077 202.279 131.676 202.868 132.441 203.282C133.206 203.695 134.063 203.902 135.014 203.902C135.841 203.902 136.605 203.716 137.308 203.344C138.031 202.972 138.641 202.393 139.137 201.608L142.113 203.344C141.472 204.584 140.532 205.545 139.292 206.227C138.073 206.888 136.657 207.219 135.045 207.219Z" fill="#FFFBFB"/>
<path d="M111.655 207.003L105.672 199.067L108.834 197.114L116.212 207.003H111.655ZM99.7822 207.003V190.449H103.657V207.003H99.7822ZM102.51 200.369V197.145H108.121V200.369H102.51ZM109.206 199.191L105.579 198.757L111.655 190.449H115.809L109.206 199.191Z" fill="#FFFBFB"/>
<path d="M91.3291 207.002V203.654L91.1121 202.941V197.082C91.1121 195.945 90.7711 195.067 90.0891 194.447C89.4071 193.806 88.3738 193.486 86.9891 193.486C86.0591 193.486 85.1395 193.63 84.2301 193.92C83.3415 194.209 82.5871 194.612 81.9671 195.129L80.4481 192.308C81.3368 191.626 82.3908 191.119 83.6101 190.789C84.8501 190.437 86.1315 190.262 87.4541 190.262C89.8515 190.262 91.7011 190.84 93.0031 191.998C94.3258 193.134 94.9871 194.901 94.9871 197.299V207.002H91.3291ZM86.1211 207.219C84.8811 207.219 83.7961 207.012 82.8661 206.599C81.9361 206.165 81.2128 205.576 80.6961 204.832C80.2001 204.067 79.9521 203.209 79.9521 202.259C79.9521 201.329 80.1691 200.492 80.6031 199.748C81.0578 199.004 81.7915 198.415 82.8041 197.981C83.8168 197.547 85.1601 197.33 86.8341 197.33H91.6391V199.903H87.1131C85.7905 199.903 84.9018 200.12 84.4471 200.554C83.9925 200.967 83.7651 201.484 83.7651 202.104C83.7651 202.806 84.0441 203.364 84.6021 203.778C85.1601 204.191 85.9351 204.398 86.9271 204.398C87.8778 204.398 88.7251 204.181 89.4691 203.747C90.2338 203.313 90.7815 202.672 91.1121 201.825L91.7631 204.15C91.3911 205.121 90.7195 205.875 89.7481 206.413C88.7975 206.95 87.5885 207.219 86.1211 207.219Z" fill="#FFFBFB"/>
<path d="M68.8026 207.003V192.805L69.7016 193.735H62.9746V190.449H78.4746V193.735H71.7786L72.6776 192.805V207.003H68.8026Z" fill="#FFFBFB"/>
<path d="M44.1302 207.219C42.4355 207.219 40.9268 206.857 39.6042 206.134C38.2815 205.39 37.2378 204.377 36.4732 203.096C35.7085 201.814 35.3262 200.357 35.3262 198.725C35.3262 197.071 35.7085 195.614 36.4732 194.354C37.2378 193.072 38.2815 192.07 39.6042 191.347C40.9268 190.623 42.4355 190.262 44.1302 190.262C45.8455 190.262 47.3645 190.623 48.6872 191.347C50.0305 192.07 51.0742 193.062 51.8182 194.323C52.5828 195.583 52.9652 197.051 52.9652 198.725C52.9652 200.357 52.5828 201.814 51.8182 203.096C51.0742 204.377 50.0305 205.39 48.6872 206.134C47.3645 206.857 45.8455 207.219 44.1302 207.219ZM44.1302 203.902C45.0808 203.902 45.9282 203.695 46.6722 203.282C47.4162 202.868 47.9948 202.269 48.4082 201.484C48.8422 200.698 49.0592 199.779 49.0592 198.725C49.0592 197.65 48.8422 196.73 48.4082 195.966C47.9948 195.18 47.4162 194.581 46.6722 194.168C45.9282 193.754 45.0912 193.548 44.1612 193.548C43.2105 193.548 42.3632 193.754 41.6192 194.168C40.8958 194.581 40.3172 195.18 39.8832 195.966C39.4492 196.73 39.2322 197.65 39.2322 198.725C39.2322 199.779 39.4492 200.698 39.8832 201.484C40.3172 202.269 40.8958 202.868 41.6192 203.282C42.3632 203.695 43.2002 203.902 44.1302 203.902Z" fill="#FFFBFB"/>
<path d="M24.996 207.003V192.805L25.895 193.735H19.168V190.449H34.668V193.735H27.972L28.871 192.805V207.003H24.996Z" fill="#FFFBFB"/>
<path d="M14.4775 207.003L8.49449 199.067L11.6565 197.114L19.0345 207.003H14.4775ZM2.60449 207.003V190.449H6.47949V207.003H2.60449ZM5.33249 200.369V197.145H10.9435V200.369H5.33249ZM12.0285 199.191L8.40149 198.757L14.4775 190.449H18.6315L12.0285 199.191Z" fill="#FFFBFB"/>
<path d="M193.664 173.684L195.462 166.833L195.989 169.127C195.266 169.127 194.656 168.91 194.16 168.476C193.685 168.022 193.447 167.412 193.447 166.647C193.447 165.862 193.685 165.242 194.16 164.787C194.656 164.312 195.256 164.074 195.958 164.074C196.682 164.074 197.281 164.312 197.756 164.787C198.232 165.263 198.469 165.883 198.469 166.647C198.469 166.854 198.449 167.081 198.407 167.329C198.366 167.557 198.294 167.825 198.19 168.135C198.108 168.445 197.963 168.838 197.756 169.313L196.175 173.684H193.664Z" fill="#FFFBFB"/>
<path d="M169.774 169.003V152.449H173.835L180.5 164.198H178.888L185.894 152.449H189.521L189.552 169.003H186.049V156.603L186.669 157.006L180.469 167.267H178.795L172.564 156.727L173.308 156.541V169.003H169.774Z" fill="#FFFBFB"/>
<path d="M157.754 169.219C155.915 169.219 154.303 168.857 152.918 168.134C151.554 167.39 150.49 166.377 149.725 165.096C148.981 163.814 148.609 162.357 148.609 160.725C148.609 159.071 148.971 157.614 149.694 156.354C150.438 155.072 151.451 154.07 152.732 153.347C154.034 152.623 155.512 152.262 157.165 152.262C158.777 152.262 160.214 152.613 161.474 153.316C162.735 154.018 163.727 155.01 164.45 156.292C165.174 157.573 165.535 159.082 165.535 160.818C165.535 160.983 165.525 161.169 165.504 161.376C165.504 161.582 165.494 161.779 165.473 161.965H151.678V159.392H163.427L161.908 160.198C161.929 159.247 161.733 158.41 161.319 157.687C160.906 156.963 160.338 156.395 159.614 155.982C158.912 155.568 158.095 155.362 157.165 155.362C156.215 155.362 155.378 155.568 154.654 155.982C153.952 156.395 153.394 156.974 152.98 157.718C152.588 158.441 152.391 159.299 152.391 160.291V160.911C152.391 161.903 152.619 162.781 153.073 163.546C153.528 164.31 154.169 164.899 154.995 165.313C155.822 165.726 156.773 165.933 157.847 165.933C158.777 165.933 159.614 165.788 160.358 165.499C161.102 165.209 161.764 164.755 162.342 164.135L164.419 166.522C163.675 167.39 162.735 168.061 161.598 168.537C160.482 168.991 159.201 169.219 157.754 169.219Z" fill="#FFFBFB"/>
<path d="M138.279 169.003V154.805L139.178 155.735H132.451V152.449H147.951V155.735H141.255L142.154 154.805V169.003H138.279Z" fill="#FFFBFB"/>
<path d="M116.325 157.905C118.453 157.905 120.076 158.381 121.192 159.331C122.308 160.282 122.866 161.625 122.866 163.361C122.866 165.159 122.246 166.565 121.006 167.577C119.766 168.569 118.019 169.055 115.767 169.034L108.017 169.003V152.449H111.892V157.874L116.325 157.905ZM115.426 166.182C116.562 166.203 117.43 165.965 118.03 165.469C118.629 164.973 118.929 164.25 118.929 163.299C118.929 162.349 118.629 161.667 118.03 161.253C117.451 160.819 116.583 160.592 115.426 160.571L111.892 160.54V166.151L115.426 166.182Z" fill="#FFFBFB"/>
<path d="M99.2089 162.462C98.4236 162.834 97.5866 163.144 96.6979 163.392C95.8299 163.62 94.9103 163.733 93.9389 163.733C91.8516 163.733 90.2293 163.248 89.0719 162.276C87.9146 161.305 87.3359 159.796 87.3359 157.75V152.449H91.2109V157.502C91.2109 158.598 91.5209 159.393 92.1409 159.889C92.7816 160.385 93.6599 160.633 94.7759 160.633C95.5199 160.633 96.2639 160.54 97.0079 160.354C97.7519 160.168 98.4856 159.91 99.2089 159.579V162.462ZM98.9299 169.003V152.449H102.805V169.003H98.9299Z" fill="#FFFBFB"/>
<path d="M76.0989 169.219C74.4043 169.219 72.8956 168.857 71.5729 168.134C70.2503 167.39 69.2066 166.377 68.4419 165.096C67.6773 163.814 67.2949 162.357 67.2949 160.725C67.2949 159.071 67.6773 157.614 68.4419 156.354C69.2066 155.072 70.2503 154.07 71.5729 153.347C72.8956 152.623 74.4043 152.262 76.0989 152.262C77.8143 152.262 79.3333 152.623 80.6559 153.347C81.9993 154.07 83.0429 155.062 83.7869 156.323C84.5516 157.583 84.9339 159.051 84.9339 160.725C84.9339 162.357 84.5516 163.814 83.7869 165.096C83.0429 166.377 81.9993 167.39 80.6559 168.134C79.3333 168.857 77.8143 169.219 76.0989 169.219ZM76.0989 165.902C77.0496 165.902 77.8969 165.695 78.6409 165.282C79.3849 164.868 79.9636 164.269 80.3769 163.484C80.8109 162.698 81.0279 161.779 81.0279 160.725C81.0279 159.65 80.8109 158.73 80.3769 157.966C79.9636 157.18 79.3849 156.581 78.6409 156.168C77.8969 155.754 77.0599 155.548 76.1299 155.548C75.1793 155.548 74.3319 155.754 73.5879 156.168C72.8646 156.581 72.2859 157.18 71.8519 157.966C71.4179 158.73 71.2009 159.65 71.2009 160.725C71.2009 161.779 71.4179 162.698 71.8519 163.484C72.2859 164.269 72.8646 164.868 73.5879 165.282C74.3319 165.695 75.1689 165.902 76.0989 165.902Z" fill="#FFFBFB"/>
<path d="M43.7461 169.003V152.449H47.8071L54.4721 164.198H52.8601L59.8661 152.449H63.4931L63.5241 169.003H60.0211V156.603L60.6411 157.006L54.4411 167.267H52.7671L46.5361 156.727L47.2801 156.541V169.003H43.7461Z" fill="#FFFBFB"/>
<path d="M31.0833 169.219C29.3886 169.219 27.88 168.857 26.5573 168.134C25.2346 167.39 24.191 166.377 23.4263 165.096C22.6616 163.814 22.2793 162.357 22.2793 160.725C22.2793 159.071 22.6616 157.614 23.4263 156.354C24.191 155.072 25.2346 154.07 26.5573 153.347C27.88 152.623 29.3886 152.262 31.0833 152.262C32.7986 152.262 34.3176 152.623 35.6403 153.347C36.9836 154.07 38.0273 155.062 38.7713 156.323C39.536 157.583 39.9183 159.051 39.9183 160.725C39.9183 162.357 39.536 163.814 38.7713 165.096C38.0273 166.377 36.9836 167.39 35.6403 168.134C34.3176 168.857 32.7986 169.219 31.0833 169.219ZM31.0833 165.902C32.034 165.902 32.8813 165.695 33.6253 165.282C34.3693 164.868 34.948 164.269 35.3613 163.484C35.7953 162.698 36.0123 161.779 36.0123 160.725C36.0123 159.65 35.7953 158.73 35.3613 157.966C34.948 157.18 34.3693 156.581 33.6253 156.168C32.8813 155.754 32.0443 155.548 31.1143 155.548C30.1636 155.548 29.3163 155.754 28.5723 156.168C27.849 156.581 27.2703 157.18 26.8363 157.966C26.4023 158.73 26.1853 159.65 26.1853 160.725C26.1853 161.779 26.4023 162.698 26.8363 163.484C27.2703 164.269 27.849 164.868 28.5723 165.282C29.3163 165.695 30.1533 165.902 31.0833 165.902Z" fill="#FFFBFB"/>
<path d="M2.60449 169.003V152.449H18.4765V169.003H14.6325V154.836L15.5315 155.735H5.58049L6.47949 154.836V169.003H2.60449Z" fill="#FFFBFB"/>
<path d="M330.254 131.003V114.449H334.315L340.98 126.198H339.368L346.374 114.449H350.001L350.032 131.003H346.529V118.603L347.149 119.006L340.949 129.267H339.275L333.044 118.727L333.788 118.541V131.003H330.254Z" fill="#FFFBFB"/>
<path d="M308.487 131.003V114.449H312.362V125.361L321.507 114.449H325.041V131.003H321.166V120.091L312.052 131.003H308.487Z" fill="#FFFBFB"/>
<path d="M296.004 131.003V116.805L296.903 117.735H290.176V114.449H305.676V117.735H298.98L299.879 116.805V131.003H296.004Z" fill="#FFFBFB"/>
<path d="M280.505 131.219C278.81 131.219 277.302 130.857 275.979 130.134C274.656 129.39 273.613 128.377 272.848 127.096C272.084 125.814 271.701 124.357 271.701 122.725C271.701 121.071 272.084 119.614 272.848 118.354C273.613 117.072 274.656 116.07 275.979 115.347C277.302 114.623 278.81 114.262 280.505 114.262C282.22 114.262 283.739 114.623 285.062 115.347C286.405 116.07 287.449 117.062 288.193 118.323C288.958 119.583 289.34 121.051 289.34 122.725C289.34 124.357 288.958 125.814 288.193 127.096C287.449 128.377 286.405 129.39 285.062 130.134C283.739 130.857 282.22 131.219 280.505 131.219ZM280.505 127.902C281.456 127.902 282.303 127.695 283.047 127.282C283.791 126.868 284.37 126.269 284.783 125.484C285.217 124.698 285.434 123.779 285.434 122.725C285.434 121.65 285.217 120.73 284.783 119.966C284.37 119.18 283.791 118.581 283.047 118.168C282.303 117.754 281.466 117.548 280.536 117.548C279.585 117.548 278.738 117.754 277.994 118.168C277.271 118.581 276.692 119.18 276.258 119.966C275.824 120.73 275.607 121.65 275.607 122.725C275.607 123.779 275.824 124.698 276.258 125.484C276.692 126.269 277.271 126.868 277.994 127.282C278.738 127.695 279.575 127.902 280.505 127.902Z" fill="#FFFBFB"/>
<path d="M253.726 131.003L261.011 121.517L260.949 123.594L254.005 114.449H258.314L263.181 120.959H261.538L266.436 114.449H270.621L263.615 123.594L263.646 121.517L270.9 131.003H266.529L261.414 124.09L263.026 124.307L258.004 131.003H253.726Z" fill="#FFFBFB"/>
<path d="M238.523 131.003V114.449H242.398V131.003H238.523ZM229.874 119.905C232.003 119.905 233.615 120.381 234.71 121.331C235.826 122.282 236.384 123.625 236.384 125.361C236.384 127.159 235.764 128.565 234.524 129.577C233.305 130.569 231.569 131.055 229.316 131.034L221.814 131.003V114.449H225.689V119.874L229.874 119.905ZM228.975 128.182C230.112 128.203 230.98 127.965 231.579 127.469C232.179 126.973 232.478 126.25 232.478 125.299C232.478 124.349 232.179 123.667 231.579 123.253C231.001 122.819 230.133 122.592 228.975 122.571L225.689 122.54V128.151L228.975 128.182Z" fill="#FFFBFB"/>
<path d="M196.839 131.003V114.449H200.9L207.565 126.198H205.953L212.959 114.449H216.586L216.617 131.003H213.114V118.603L213.734 119.006L207.534 129.267H205.86L199.629 118.727L200.373 118.541V131.003H196.839Z" fill="#FFFBFB"/>
<path d="M166.505 131.003V114.449H170.38V125.361L179.525 114.449H183.059V131.003H179.184V120.091L170.07 131.003H166.505Z" fill="#FFFBFB"/>
<path d="M149.484 131.002V127.654L149.267 126.941V121.082C149.267 119.945 148.926 119.067 148.244 118.447C147.562 117.806 146.529 117.486 145.144 117.486C144.214 117.486 143.295 117.63 142.385 117.92C141.497 118.209 140.742 118.612 140.122 119.129L138.603 116.308C139.492 115.626 140.546 115.119 141.765 114.789C143.005 114.437 144.287 114.262 145.609 114.262C148.007 114.262 149.856 114.84 151.158 115.998C152.481 117.134 153.142 118.901 153.142 121.299V131.002H149.484ZM144.276 131.219C143.036 131.219 141.951 131.012 141.021 130.599C140.091 130.165 139.368 129.576 138.851 128.832C138.355 128.067 138.107 127.209 138.107 126.259C138.107 125.329 138.324 124.492 138.758 123.748C139.213 123.004 139.947 122.415 140.959 121.981C141.972 121.547 143.315 121.33 144.989 121.33H149.794V123.903H145.268C143.946 123.903 143.057 124.12 142.602 124.554C142.148 124.967 141.92 125.484 141.92 126.104C141.92 126.806 142.199 127.364 142.757 127.778C143.315 128.191 144.09 128.398 145.082 128.398C146.033 128.398 146.88 128.181 147.624 127.747C148.389 127.313 148.937 126.672 149.267 125.825L149.918 128.15C149.546 129.121 148.875 129.875 147.903 130.413C146.953 130.95 145.744 131.219 144.276 131.219Z" fill="#FFFBFB"/>
<path d="M132.453 131.003L126.47 123.067L129.632 121.114L137.01 131.003H132.453ZM120.58 131.003V114.449H124.455V131.003H120.58ZM123.308 124.369V121.145H128.919V124.369H123.308ZM130.004 123.191L126.377 122.757L132.453 114.449H136.607L130.004 123.191Z" fill="#FFFBFB"/>
<path d="M108.561 131.219C106.722 131.219 105.11 130.857 103.725 130.134C102.361 129.39 101.297 128.377 100.532 127.096C99.788 125.814 99.416 124.357 99.416 122.725C99.416 121.071 99.7777 119.614 100.501 118.354C101.245 117.072 102.258 116.07 103.539 115.347C104.841 114.623 106.319 114.262 107.972 114.262C109.584 114.262 111.02 114.613 112.281 115.316C113.542 116.018 114.534 117.01 115.257 118.292C115.98 119.573 116.342 121.082 116.342 122.818C116.342 122.983 116.332 123.169 116.311 123.376C116.311 123.582 116.301 123.779 116.28 123.965H102.485V121.392H114.234L112.715 122.198C112.736 121.247 112.539 120.41 112.126 119.687C111.713 118.963 111.144 118.395 110.421 117.982C109.718 117.568 108.902 117.362 107.972 117.362C107.021 117.362 106.184 117.568 105.461 117.982C104.758 118.395 104.2 118.974 103.787 119.718C103.394 120.441 103.198 121.299 103.198 122.291V122.911C103.198 123.903 103.425 124.781 103.88 125.546C104.335 126.31 104.975 126.899 105.802 127.313C106.629 127.726 107.579 127.933 108.654 127.933C109.584 127.933 110.421 127.788 111.165 127.499C111.909 127.209 112.57 126.755 113.149 126.135L115.226 128.522C114.482 129.39 113.542 130.061 112.405 130.537C111.289 130.991 110.008 131.219 108.561 131.219Z" fill="#FFFBFB"/>
<path d="M81.6484 131.003V114.449H89.7394C91.7441 114.449 93.3148 114.821 94.4514 115.565C95.6088 116.309 96.1874 117.363 96.1874 118.727C96.1874 120.071 95.6501 121.125 94.5754 121.889C93.5008 122.633 92.0748 123.005 90.2974 123.005L90.7624 122.044C92.7671 122.044 94.2551 122.416 95.2264 123.16C96.2184 123.884 96.7144 124.948 96.7144 126.353C96.7144 127.821 96.1668 128.968 95.0714 129.794C93.9761 130.6 92.3124 131.003 90.0804 131.003H81.6484ZM85.3374 128.182H89.7704C90.8244 128.182 91.6201 128.017 92.1574 127.686C92.6948 127.335 92.9634 126.808 92.9634 126.105C92.9634 125.361 92.7154 124.814 92.2194 124.462C91.7234 124.111 90.9484 123.935 89.8944 123.935H85.3374V128.182ZM85.3374 121.362H89.3984C90.3904 121.362 91.1344 121.187 91.6304 120.835C92.1471 120.463 92.4054 119.947 92.4054 119.285C92.4054 118.603 92.1471 118.097 91.6304 117.766C91.1344 117.436 90.3904 117.27 89.3984 117.27H85.3374V121.362Z" fill="#FFFBFB"/>
<path d="M68.9856 131.219C67.291 131.219 65.7823 130.857 64.4596 130.134C63.137 129.39 62.0933 128.377 61.3286 127.096C60.564 125.814 60.1816 124.357 60.1816 122.725C60.1816 121.071 60.564 119.614 61.3286 118.354C62.0933 117.072 63.137 116.07 64.4596 115.347C65.7823 114.623 67.291 114.262 68.9856 114.262C70.701 114.262 72.22 114.623 73.5426 115.347C74.886 116.07 75.9296 117.062 76.6736 118.323C77.4383 119.583 77.8206 121.051 77.8206 122.725C77.8206 124.357 77.4383 125.814 76.6736 127.096C75.9296 128.377 74.886 129.39 73.5426 130.134C72.22 130.857 70.701 131.219 68.9856 131.219ZM68.9856 127.902C69.9363 127.902 70.7836 127.695 71.5276 127.282C72.2716 126.868 72.8503 126.269 73.2636 125.484C73.6976 124.698 73.9146 123.779 73.9146 122.725C73.9146 121.65 73.6976 120.73 73.2636 119.966C72.8503 119.18 72.2716 118.581 71.5276 118.168C70.7836 117.754 69.9466 117.548 69.0166 117.548C68.066 117.548 67.2186 117.754 66.4746 118.168C65.7513 118.581 65.1726 119.18 64.7386 119.966C64.3046 120.73 64.0876 121.65 64.0876 122.725C64.0876 123.779 64.3046 124.698 64.7386 125.484C65.1726 126.269 65.7513 126.868 66.4746 127.282C67.2186 127.695 68.0556 127.902 68.9856 127.902Z" fill="#FFFBFB"/>
<path d="M38.9668 130.972L39.1528 127.717C39.2975 127.738 39.4318 127.759 39.5558 127.779C39.6798 127.8 39.7935 127.81 39.8968 127.81C40.5375 127.81 41.0335 127.614 41.3848 127.221C41.7361 126.829 41.9945 126.302 42.1598 125.64C42.3458 124.958 42.4698 124.204 42.5318 123.377C42.6145 122.53 42.6765 121.683 42.7178 120.835L42.9968 114.449H56.3888V131.003H52.5138V116.681L53.4128 117.735H45.5388L46.3758 116.65L46.1588 121.021C46.0968 122.489 45.9728 123.853 45.7868 125.113C45.6215 126.353 45.3528 127.438 44.9808 128.368C44.6295 129.298 44.1335 130.022 43.4928 130.538C42.8728 131.055 42.0771 131.313 41.1058 131.313C40.7958 131.313 40.4548 131.282 40.0828 131.22C39.7315 131.158 39.3595 131.076 38.9668 130.972Z" fill="#FFFBFB"/>
<path d="M29.5766 131.219C27.7373 131.219 26.1253 130.857 24.7406 130.134C23.3766 129.39 22.3123 128.377 21.5476 127.096C20.8036 125.814 20.4316 124.357 20.4316 122.725C20.4316 121.071 20.7933 119.614 21.5166 118.354C22.2606 117.072 23.2733 116.07 24.5546 115.347C25.8566 114.623 27.3343 114.262 28.9876 114.262C30.5996 114.262 32.036 114.613 33.2966 115.316C34.5573 116.018 35.5493 117.01 36.2726 118.292C36.996 119.573 37.3576 121.082 37.3576 122.818C37.3576 122.983 37.3473 123.169 37.3266 123.376C37.3266 123.582 37.3163 123.779 37.2956 123.965H23.5006V121.392H35.2496L33.7306 122.198C33.7513 121.247 33.555 120.41 33.1416 119.687C32.7283 118.963 32.16 118.395 31.4366 117.982C30.734 117.568 29.9176 117.362 28.9876 117.362C28.037 117.362 27.2 117.568 26.4766 117.982C25.774 118.395 25.216 118.974 24.8026 119.718C24.41 120.441 24.2136 121.299 24.2136 122.291V122.911C24.2136 123.903 24.441 124.781 24.8956 125.546C25.3503 126.31 25.991 126.899 26.8176 127.313C27.6443 127.726 28.595 127.933 29.6696 127.933C30.5996 127.933 31.4366 127.788 32.1806 127.499C32.9246 127.209 33.586 126.755 34.1646 126.135L36.2416 128.522C35.4976 129.39 34.5573 130.061 33.4206 130.537C32.3046 130.991 31.0233 131.219 29.5766 131.219Z" fill="#FFFBFB"/>
<path d="M13.0507 124.462C12.2654 124.834 11.4284 125.144 10.5397 125.392C9.67173 125.62 8.75207 125.733 7.78074 125.733C5.6934 125.733 4.07107 125.248 2.91373 124.276C1.7564 123.305 1.17773 121.796 1.17773 119.75V114.449H5.05273V119.502C5.05273 120.598 5.36273 121.393 5.98273 121.889C6.6234 122.385 7.50173 122.633 8.61774 122.633C9.36174 122.633 10.1057 122.54 10.8497 122.354C11.5937 122.168 12.3274 121.91 13.0507 121.579V124.462ZM12.7717 131.003V114.449H16.6467V131.003H12.7717Z" fill="#FFFBFB"/>
<path d="M317.297 93.0032V76.4492H321.172V87.3612L330.317 76.4492H333.851V93.0032H329.976V82.0912L320.862 93.0032H317.297Z" fill="#FFFBFB"/>
<path d="M304.814 93.0032V78.8052L305.713 79.7352H298.986V76.4492H314.486V79.7352H307.79L308.689 78.8052V93.0032H304.814Z" fill="#FFFBFB"/>
<path d="M291.014 93.2187C289.278 93.2187 287.728 92.8571 286.364 92.1337C285.02 91.3897 283.966 90.3771 283.202 89.0957C282.437 87.8144 282.055 86.3574 282.055 84.7247C282.055 83.0714 282.437 81.6144 283.202 80.3537C283.966 79.0724 285.02 78.0701 286.364 77.3467C287.728 76.6234 289.278 76.2617 291.014 76.2617C292.626 76.2617 294.041 76.5924 295.261 77.2537C296.501 77.8944 297.441 78.845 298.082 80.1057L295.106 81.8417C294.61 81.0564 294 80.4777 293.277 80.1057C292.574 79.7337 291.809 79.5477 290.983 79.5477C290.032 79.5477 289.174 79.7544 288.41 80.1677C287.645 80.5811 287.046 81.1804 286.612 81.9657C286.178 82.7304 285.961 83.65 285.961 84.7247C285.961 85.7994 286.178 86.7294 286.612 87.5147C287.046 88.2794 287.645 88.8684 288.41 89.2817C289.174 89.695 290.032 89.9017 290.983 89.9017C291.809 89.9017 292.574 89.7157 293.277 89.3437C294 88.9717 294.61 88.3931 295.106 87.6077L298.082 89.3437C297.441 90.5837 296.501 91.5447 295.261 92.2267C294.041 92.888 292.626 93.2187 291.014 93.2187Z" fill="#FFFBFB"/>
<path d="M270.818 93.2187C269.123 93.2187 267.614 92.8571 266.292 92.1337C264.969 91.3897 263.925 90.3771 263.161 89.0957C262.396 87.8144 262.014 86.3574 262.014 84.7247C262.014 83.0714 262.396 81.6144 263.161 80.3537C263.925 79.0724 264.969 78.0701 266.292 77.3467C267.614 76.6234 269.123 76.2617 270.818 76.2617C272.533 76.2617 274.052 76.6234 275.375 77.3467C276.718 78.0701 277.762 79.062 278.506 80.3227C279.27 81.5834 279.653 83.0507 279.653 84.7247C279.653 86.3574 279.27 87.8144 278.506 89.0957C277.762 90.3771 276.718 91.3897 275.375 92.1337C274.052 92.8571 272.533 93.2187 270.818 93.2187ZM270.818 89.9017C271.768 89.9017 272.616 89.695 273.36 89.2817C274.104 88.8684 274.682 88.2691 275.096 87.4837C275.53 86.6984 275.747 85.7787 275.747 84.7247C275.747 83.65 275.53 82.7304 275.096 81.9657C274.682 81.1804 274.104 80.5811 273.36 80.1677C272.616 79.7544 271.779 79.5477 270.849 79.5477C269.898 79.5477 269.051 79.7544 268.307 80.1677C267.583 80.5811 267.005 81.1804 266.571 81.9657C266.137 82.7304 265.92 83.65 265.92 84.7247C265.92 85.7787 266.137 86.6984 266.571 87.4837C267.005 88.2691 267.583 88.8684 268.307 89.2817C269.051 89.695 269.888 89.9017 270.818 89.9017Z" fill="#FFFBFB"/>
<path d="M242.158 93.0032V76.4492H246.033V83.1762H254.372V76.4492H258.247V93.0032H254.372V86.4622H246.033V93.0032H242.158Z" fill="#FFFBFB"/>
<path d="M232.211 81.9052C234.34 81.9052 235.962 82.3806 237.078 83.3312C238.194 84.2819 238.752 85.6252 238.752 87.3612C238.752 89.1592 238.132 90.5646 236.892 91.5772C235.652 92.5692 233.906 93.0549 231.653 93.0342L223.903 93.0032V76.4492H227.778V81.8742L232.211 81.9052ZM231.312 90.1822C232.449 90.2029 233.317 89.9652 233.916 89.4692C234.516 88.9732 234.815 88.2499 234.815 87.2992C234.815 86.3486 234.516 85.6666 233.916 85.2532C233.338 84.8192 232.47 84.5919 231.312 84.5712L227.778 84.5402V90.1512L231.312 90.1822Z" fill="#FFFBFB"/>
<path d="M201.263 92.9722L201.449 89.7172C201.593 89.7379 201.728 89.7586 201.852 89.7792C201.976 89.7999 202.089 89.8102 202.193 89.8102C202.833 89.8102 203.329 89.6139 203.681 89.2212C204.032 88.8286 204.29 88.3016 204.456 87.6402C204.642 86.9582 204.766 86.2039 204.828 85.3772C204.91 84.5299 204.972 83.6826 205.014 82.8352L205.293 76.4492H218.685V93.0032H214.81V78.6812L215.709 79.7352H207.835L208.672 78.6502L208.455 83.0212C208.393 84.4886 208.269 85.8526 208.083 87.1132C207.917 88.3532 207.649 89.4382 207.277 90.3682C206.925 91.2982 206.429 92.0216 205.789 92.5382C205.169 93.0549 204.373 93.3132 203.402 93.3132C203.092 93.3132 202.751 93.2822 202.379 93.2202C202.027 93.1582 201.655 93.0756 201.263 92.9722Z" fill="#FFFBFB"/>
<path d="M191.874 93.2187C190.034 93.2187 188.422 92.8571 187.038 92.1337C185.674 91.3897 184.609 90.3771 183.845 89.0957C183.101 87.8144 182.729 86.3574 182.729 84.7247C182.729 83.0714 183.09 81.6144 183.814 80.3537C184.558 79.0724 185.57 78.0701 186.852 77.3467C188.154 76.6234 189.631 76.2617 191.285 76.2617C192.897 76.2617 194.333 76.613 195.594 77.3157C196.854 78.0184 197.846 79.0104 198.57 80.2917C199.293 81.5731 199.655 83.0817 199.655 84.8177C199.655 84.9831 199.644 85.1691 199.624 85.3757C199.624 85.5824 199.613 85.7787 199.593 85.9647H185.798V83.3917H197.547L196.028 84.1977C196.048 83.247 195.852 82.41 195.439 81.6867C195.025 80.9634 194.457 80.395 193.734 79.9817C193.031 79.5684 192.215 79.3617 191.285 79.3617C190.334 79.3617 189.497 79.5684 188.774 79.9817C188.071 80.395 187.513 80.9737 187.1 81.7177C186.707 82.441 186.511 83.2987 186.511 84.2907V84.9107C186.511 85.9027 186.738 86.781 187.193 87.5457C187.647 88.3104 188.288 88.8994 189.115 89.3127C189.941 89.726 190.892 89.9327 191.967 89.9327C192.897 89.9327 193.734 89.7881 194.478 89.4987C195.222 89.2094 195.883 88.7547 196.462 88.1347L198.539 90.5217C197.795 91.3897 196.854 92.0614 195.718 92.5367C194.602 92.9914 193.32 93.2187 191.874 93.2187Z" fill="#FFFBFB"/>
<path d="M172.398 93.0032V78.8052L173.297 79.7352H166.57V76.4492H182.07V79.7352H175.374L176.273 78.8052V93.0032H172.398Z" fill="#FFFBFB"/>
<path d="M160.272 93.0032V87.3612L160.83 88.0122H155.87C153.597 88.0122 151.809 87.5369 150.507 86.5862C149.226 85.6149 148.585 84.2199 148.585 82.4012C148.585 80.4586 149.267 78.9809 150.631 77.9682C152.016 76.9555 153.855 76.4492 156.149 76.4492H163.744V93.0032H160.272ZM148.368 93.0032L152.832 86.6792H156.8L152.522 93.0032H148.368ZM160.272 86.1212V78.6812L160.83 79.7042H156.273C155.074 79.7042 154.145 79.9316 153.483 80.3862C152.843 80.8202 152.522 81.5332 152.522 82.5252C152.522 84.3852 153.731 85.3152 156.149 85.3152H160.83L160.272 86.1212Z" fill="#FFFBFB"/>
<path d="M138.198 93.2187C136.358 93.2187 134.746 92.8571 133.362 92.1337C131.998 91.3897 130.933 90.3771 130.169 89.0957C129.425 87.8144 129.053 86.3574 129.053 84.7247C129.053 83.0714 129.414 81.6144 130.138 80.3537C130.882 79.0724 131.894 78.0701 133.176 77.3467C134.478 76.6234 135.955 76.2617 137.609 76.2617C139.221 76.2617 140.657 76.613 141.918 77.3157C143.178 78.0184 144.17 79.0104 144.894 80.2917C145.617 81.5731 145.979 83.0817 145.979 84.8177C145.979 84.9831 145.968 85.1691 145.948 85.3757C145.948 85.5824 145.937 85.7787 145.917 85.9647H132.122V83.3917H143.871L142.352 84.1977C142.372 83.247 142.176 82.41 141.763 81.6867C141.349 80.9634 140.781 80.395 140.058 79.9817C139.355 79.5684 138.539 79.3617 137.609 79.3617C136.658 79.3617 135.821 79.5684 135.098 79.9817C134.395 80.395 133.837 80.9737 133.424 81.7177C133.031 82.441 132.835 83.2987 132.835 84.2907V84.9107C132.835 85.9027 133.062 86.781 133.517 87.5457C133.971 88.3104 134.612 88.8994 135.439 89.3127C136.265 89.726 137.216 89.9327 138.291 89.9327C139.221 89.9327 140.058 89.7881 140.802 89.4987C141.546 89.2094 142.207 88.7547 142.786 88.1347L144.863 90.5217C144.119 91.3897 143.178 92.0614 142.042 92.5367C140.926 92.9914 139.644 93.2187 138.198 93.2187Z" fill="#FFFBFB"/>
<path d="M120.694 91.2052V79.7352H114.339L114.246 82.4012C114.205 83.3519 114.143 84.2716 114.06 85.1602C113.978 86.0282 113.843 86.8342 113.657 87.5782C113.471 88.3015 113.203 88.9009 112.851 89.3762C112.5 89.8516 112.035 90.1616 111.456 90.3062L107.612 89.7172C108.232 89.7172 108.728 89.5209 109.1 89.1282C109.493 88.7149 109.793 88.1569 109.999 87.4542C110.227 86.7309 110.392 85.9146 110.495 85.0052C110.599 84.0752 110.671 83.1142 110.712 82.1222L110.929 76.4492H124.569V91.2052H120.694ZM107.023 96.6922V89.7172H127.018V96.6922H123.391V93.0032H110.619V96.6922H107.023Z" fill="#FFFBFB"/>
<path d="M97.5415 93.2187C95.7021 93.2187 94.0901 92.8571 92.7055 92.1337C91.3415 91.3897 90.2771 90.3771 89.5125 89.0957C88.7685 87.8144 88.3965 86.3574 88.3965 84.7247C88.3965 83.0714 88.7582 81.6144 89.4815 80.3537C90.2255 79.0724 91.2382 78.0701 92.5195 77.3467C93.8215 76.6234 95.2992 76.2617 96.9525 76.2617C98.5645 76.2617 100.001 76.613 101.261 77.3157C102.522 78.0184 103.514 79.0104 104.237 80.2917C104.961 81.5731 105.322 83.0817 105.322 84.8177C105.322 84.9831 105.312 85.1691 105.291 85.3757C105.291 85.5824 105.281 85.7787 105.26 85.9647H91.4655V83.3917H103.214L101.695 84.1977C101.716 83.247 101.52 82.41 101.106 81.6867C100.693 80.9634 100.125 80.395 99.4015 79.9817C98.6988 79.5684 97.8825 79.3617 96.9525 79.3617C96.0018 79.3617 95.1648 79.5684 94.4415 79.9817C93.7388 80.395 93.1808 80.9737 92.7675 81.7177C92.3748 82.441 92.1785 83.2987 92.1785 84.2907V84.9107C92.1785 85.9027 92.4058 86.781 92.8605 87.5457C93.3151 88.3104 93.9558 88.8994 94.7825 89.3127C95.6092 89.726 96.5598 89.9327 97.6345 89.9327C98.5645 89.9327 99.4015 89.7881 100.145 89.4987C100.889 89.2094 101.551 88.7547 102.129 88.1347L104.206 90.5217C103.462 91.3897 102.522 92.0614 101.385 92.5367C100.269 92.9914 98.9881 93.2187 97.5415 93.2187Z" fill="#FFFBFB"/>
<path d="M68.54 93.0032V76.4492H72.415V83.1762H80.754V76.4492H84.629V93.0032H80.754V86.4622H72.415V93.0032H68.54Z" fill="#FFFBFB"/>
<path d="M56.6442 93.2818C55.3835 93.2818 54.1332 93.1371 52.8932 92.8478C51.6738 92.5378 50.5682 92.1038 49.5762 91.5458L50.6612 88.6628C51.4672 89.1175 52.3765 89.4688 53.3892 89.7168C54.4018 89.9648 55.4145 90.0888 56.4272 90.0888C57.2952 90.0888 58.0392 90.0061 58.6592 89.8408C59.2792 89.6548 59.7545 89.3861 60.0852 89.0348C60.4365 88.6835 60.6122 88.2805 60.6122 87.8258C60.6122 87.1645 60.3228 86.6685 59.7442 86.3378C59.1862 85.9865 58.3802 85.8108 57.3262 85.8108H54.1332V83.2068H57.0162C57.6775 83.2068 58.2355 83.1345 58.6902 82.9898C59.1655 82.8451 59.5272 82.6281 59.7752 82.3388C60.0232 82.0495 60.1472 81.7085 60.1472 81.3158C60.1472 80.9231 59.9922 80.5821 59.6822 80.2928C59.3928 79.9828 58.9692 79.7555 58.4112 79.6108C57.8532 79.4455 57.1815 79.3628 56.3962 79.3628C55.5695 79.3628 54.7118 79.4661 53.8232 79.6728C52.9552 79.8795 52.0665 80.1791 51.1572 80.5718L50.1652 77.7198C51.2192 77.2444 52.2422 76.8828 53.2342 76.6348C54.2468 76.3661 55.2492 76.2215 56.2412 76.2008C57.7498 76.1388 59.0932 76.2938 60.2712 76.6658C61.4492 77.0378 62.3792 77.5751 63.0612 78.2778C63.7432 78.9805 64.0842 79.8071 64.0842 80.7578C64.0842 81.5431 63.8362 82.2561 63.3402 82.8968C62.8648 83.5168 62.2035 84.0025 61.3562 84.3538C60.5295 84.7051 59.5788 84.8808 58.5042 84.8808L58.6282 84.0438C60.4675 84.0438 61.9142 84.4158 62.9682 85.1598C64.0222 85.8831 64.5492 86.8751 64.5492 88.1358C64.5492 89.1485 64.2082 90.0475 63.5262 90.8328C62.8442 91.5975 61.9038 92.1968 60.7052 92.6308C59.5272 93.0648 58.1735 93.2818 56.6442 93.2818Z" fill="#FFFBFB"/>
<path d="M29.8506 93.0032V76.4492H33.7256V87.3612L42.8706 76.4492H46.4046V93.0032H42.5296V82.0912L33.4156 93.0032H29.8506Z" fill="#FFFBFB"/>
<path d="M22.3513 93.0032L17.5153 85.0672L20.6773 83.1142L26.9703 93.0032H22.3513ZM14.3843 86.3692V83.1452H19.9333V86.3692H14.3843ZM21.0493 85.1912L17.3913 84.7572L22.4133 76.4492H26.5363L21.0493 85.1912ZM4.8673 93.0032H0.279297L6.5413 83.1142L9.7033 85.0672L4.8673 93.0032ZM15.5313 93.0032H11.6873V76.4492H15.5313V93.0032ZM12.8343 86.3692H7.3163V83.1452H12.8343V86.3692ZM6.1693 85.1912L0.682297 76.4492H4.8053L9.7963 84.7572L6.1693 85.1912Z" fill="#FFFBFB"/>
<path d="M305.904 55.0032V40.8052L306.803 41.7352H300.076V38.4492H315.576V41.7352H308.88L309.779 40.8052V55.0032H305.904Z" fill="#FFFBFB"/>
<path d="M295.385 55.0032L289.402 47.0672L292.564 45.1142L299.942 55.0032H295.385ZM283.512 55.0032V38.4492H287.387V55.0032H283.512ZM286.24 48.3692V45.1452H291.851V48.3692H286.24ZM292.936 47.1912L289.309 46.7572L295.385 38.4492H299.539L292.936 47.1912Z" fill="#FFFBFB"/>
<path d="M271.493 55.2187C269.653 55.2187 268.041 54.8571 266.657 54.1337C265.293 53.3897 264.228 52.3771 263.464 51.0957C262.72 49.8144 262.348 48.3574 262.348 46.7247C262.348 45.0714 262.709 43.6144 263.433 42.3537C264.177 41.0724 265.189 40.0701 266.471 39.3467C267.773 38.6234 269.25 38.2617 270.904 38.2617C272.516 38.2617 273.952 38.6131 275.213 39.3157C276.473 40.0184 277.465 41.0104 278.189 42.2917C278.912 43.5731 279.274 45.0817 279.274 46.8177C279.274 46.9831 279.263 47.1691 279.243 47.3757C279.243 47.5824 279.232 47.7787 279.212 47.9647H265.417V45.3917H277.166L275.647 46.1977C275.667 45.2471 275.471 44.4101 275.058 43.6867C274.644 42.9634 274.076 42.3951 273.353 41.9817C272.65 41.5684 271.834 41.3617 270.904 41.3617C269.953 41.3617 269.116 41.5684 268.393 41.9817C267.69 42.3951 267.132 42.9737 266.719 43.7177C266.326 44.4411 266.13 45.2987 266.13 46.2907V46.9107C266.13 47.9027 266.357 48.7811 266.812 49.5457C267.266 50.3104 267.907 50.8994 268.734 51.3127C269.56 51.7261 270.511 51.9327 271.586 51.9327C272.516 51.9327 273.353 51.7881 274.097 51.4987C274.841 51.2094 275.502 50.7547 276.081 50.1347L278.158 52.5217C277.414 53.3897 276.473 54.0614 275.337 54.5367C274.221 54.9914 272.939 55.2187 271.493 55.2187Z" fill="#FFFBFB"/>
<path d="M242.673 55.0032V38.4492H258.545V55.0032H254.701V40.8362L255.6 41.7352H245.649L246.548 40.8362V55.0032H242.673Z" fill="#FFFBFB"/>
<path d="M232.193 55.2187C230.457 55.2187 228.907 54.8571 227.543 54.1337C226.2 53.3897 225.146 52.3771 224.381 51.0957C223.617 49.8144 223.234 48.3574 223.234 46.7247C223.234 45.0714 223.617 43.6144 224.381 42.3537C225.146 41.0724 226.2 40.0701 227.543 39.3467C228.907 38.6234 230.457 38.2617 232.193 38.2617C233.805 38.2617 235.221 38.5924 236.44 39.2537C237.68 39.8944 238.621 40.8451 239.261 42.1057L236.285 43.8417C235.789 43.0564 235.18 42.4777 234.456 42.1057C233.754 41.7337 232.989 41.5477 232.162 41.5477C231.212 41.5477 230.354 41.7544 229.589 42.1677C228.825 42.5811 228.225 43.1804 227.791 43.9657C227.357 44.7304 227.14 45.6501 227.14 46.7247C227.14 47.7994 227.357 48.7294 227.791 49.5147C228.225 50.2794 228.825 50.8684 229.589 51.2817C230.354 51.6951 231.212 51.9017 232.162 51.9017C232.989 51.9017 233.754 51.7157 234.456 51.3437C235.18 50.9717 235.789 50.3931 236.285 49.6077L239.261 51.3437C238.621 52.5837 237.68 53.5447 236.44 54.2267C235.221 54.8881 233.805 55.2187 232.193 55.2187Z" fill="#FFFBFB"/>
<path d="M216.207 55.0017V51.6537L215.99 50.9407V45.0817C215.99 43.945 215.649 43.0667 214.967 42.4467C214.285 41.8061 213.252 41.4857 211.867 41.4857C210.937 41.4857 210.017 41.6304 209.108 41.9197C208.219 42.2091 207.465 42.6121 206.845 43.1287L205.326 40.3077C206.215 39.6257 207.269 39.1194 208.488 38.7887C209.728 38.4374 211.009 38.2617 212.332 38.2617C214.729 38.2617 216.579 38.8404 217.881 39.9977C219.204 41.1344 219.865 42.9014 219.865 45.2987V55.0017H216.207ZM210.999 55.2187C209.759 55.2187 208.674 55.0121 207.744 54.5987C206.814 54.1647 206.091 53.5757 205.574 52.8317C205.078 52.0671 204.83 51.2094 204.83 50.2587C204.83 49.3287 205.047 48.4917 205.481 47.7477C205.936 47.0037 206.669 46.4147 207.682 45.9807C208.695 45.5467 210.038 45.3297 211.712 45.3297H216.517V47.9027H211.991C210.668 47.9027 209.78 48.1197 209.325 48.5537C208.87 48.967 208.643 49.4837 208.643 50.1037C208.643 50.8064 208.922 51.3644 209.48 51.7777C210.038 52.1911 210.813 52.3977 211.805 52.3977C212.756 52.3977 213.603 52.1807 214.347 51.7467C215.112 51.3127 215.659 50.6721 215.99 49.8247L216.641 52.1497C216.269 53.1211 215.597 53.8754 214.626 54.4127C213.675 54.9501 212.466 55.2187 210.999 55.2187Z" fill="#FFFBFB"/>
<path d="M175.829 55.0015V38.4475H179.704V49.3595L188.849 38.4475H192.383V55.0015H188.508V44.0895L179.394 55.0015H175.829ZM183.858 36.4945C182.205 36.4945 180.934 36.1122 180.045 35.3475C179.156 34.5622 178.702 33.4255 178.681 31.9375H181.254C181.275 32.6815 181.502 33.2705 181.936 33.7045C182.391 34.1385 183.021 34.3555 183.827 34.3555C184.612 34.3555 185.232 34.1385 185.687 33.7045C186.162 33.2705 186.41 32.6815 186.431 31.9375H189.066C189.045 33.4255 188.58 34.5622 187.671 35.3475C186.782 36.1122 185.511 36.4945 183.858 36.4945Z" fill="#FFFBFB"/>
<path d="M166.745 55.0032V38.4492H170.62V55.0032H166.745ZM158.096 43.9052C160.225 43.9052 161.837 44.3806 162.932 45.3312C164.048 46.2819 164.606 47.6252 164.606 49.3612C164.606 51.1592 163.986 52.5646 162.746 53.5772C161.527 54.5692 159.791 55.0549 157.538 55.0342L150.036 55.0032V38.4492H153.911V43.8742L158.096 43.9052ZM157.197 52.1822C158.334 52.2029 159.202 51.9652 159.801 51.4692C160.4 50.9732 160.7 50.2499 160.7 49.2992C160.7 48.3486 160.4 47.6666 159.801 47.2532C159.222 46.8192 158.354 46.5919 157.197 46.5712L153.911 46.5402V52.1512L157.197 52.1822Z" fill="#FFFBFB"/>
<path d="M128.754 55.0032V38.4492H132.629V45.1762H140.968V38.4492H144.843V55.0032H140.968V48.4622H132.629V55.0032H128.754Z" fill="#FFFBFB"/>
<path d="M121.255 55.0032L116.419 47.0672L119.581 45.1142L125.874 55.0032H121.255ZM113.288 48.3692V45.1452H118.837V48.3692H113.288ZM119.953 47.1912L116.295 46.7572L121.317 38.4492H125.44L119.953 47.1912ZM103.771 55.0032H99.1826L105.445 45.1142L108.607 47.0672L103.771 55.0032ZM114.435 55.0032H110.591V38.4492H114.435V55.0032ZM111.738 48.3692H106.22V45.1452H111.738V48.3692ZM105.073 47.1912L99.5856 38.4492H103.709L108.7 46.7572L105.073 47.1912Z" fill="#FFFBFB"/>
<path d="M93.0547 55.0017V51.6537L92.8377 50.9407V45.0817C92.8377 43.945 92.4967 43.0667 91.8147 42.4467C91.1327 41.8061 90.0994 41.4857 88.7147 41.4857C87.7847 41.4857 86.8651 41.6304 85.9557 41.9197C85.0671 42.2091 84.3127 42.6121 83.6927 43.1287L82.1737 40.3077C83.0624 39.6257 84.1164 39.1194 85.3357 38.7887C86.5757 38.4374 87.8571 38.2617 89.1797 38.2617C91.5771 38.2617 93.4267 38.8404 94.7287 39.9977C96.0514 41.1344 96.7127 42.9014 96.7127 45.2987V55.0017H93.0547ZM87.8467 55.2187C86.6067 55.2187 85.5217 55.0121 84.5917 54.5987C83.6617 54.1647 82.9384 53.5757 82.4217 52.8317C81.9257 52.0671 81.6777 51.2094 81.6777 50.2587C81.6777 49.3287 81.8947 48.4917 82.3287 47.7477C82.7834 47.0037 83.5171 46.4147 84.5297 45.9807C85.5424 45.5467 86.8857 45.3297 88.5597 45.3297H93.3647V47.9027H88.8387C87.5161 47.9027 86.6274 48.1197 86.1727 48.5537C85.7181 48.967 85.4907 49.4837 85.4907 50.1037C85.4907 50.8064 85.7697 51.3644 86.3277 51.7777C86.8857 52.1911 87.6607 52.3977 88.6527 52.3977C89.6034 52.3977 90.4507 52.1807 91.1947 51.7467C91.9594 51.3127 92.5071 50.6721 92.8377 49.8247L93.4887 52.1497C93.1167 53.1211 92.4451 53.8754 91.4737 54.4127C90.5231 54.9501 89.3141 55.2187 87.8467 55.2187Z" fill="#FFFBFB"/>
<path d="M63.8174 55.0032V38.4492H71.9084C73.913 38.4492 75.4837 38.8212 76.6204 39.5652C77.7777 40.3092 78.3564 41.3632 78.3564 42.7272C78.3564 44.0706 77.819 45.1246 76.7444 45.8892C75.6697 46.6332 74.2437 47.0052 72.4664 47.0052L72.9314 46.0442C74.9361 46.0442 76.424 46.4162 77.3954 47.1602C78.3874 47.8836 78.8834 48.9479 78.8834 50.3532C78.8834 51.8206 78.3357 52.9676 77.2404 53.7942C76.1451 54.6002 74.4814 55.0032 72.2494 55.0032H63.8174ZM67.5064 52.1822H71.9394C72.9934 52.1822 73.789 52.0169 74.3264 51.6862C74.8637 51.3349 75.1324 50.8079 75.1324 50.1052C75.1324 49.3612 74.8844 48.8136 74.3884 48.4622C73.8924 48.1109 73.1174 47.9352 72.0634 47.9352H67.5064V52.1822ZM67.5064 45.3622H71.5674C72.5594 45.3622 73.3034 45.1866 73.7994 44.8352C74.316 44.4632 74.5744 43.9466 74.5744 43.2852C74.5744 42.6032 74.316 42.0969 73.7994 41.7662C73.3034 41.4356 72.5594 41.2702 71.5674 41.2702H67.5064V45.3622Z" fill="#FFFBFB"/>
<path d="M42.5872 55.2187C40.8925 55.2187 39.3839 54.8571 38.0612 54.1337C36.7385 53.3897 35.6949 52.3771 34.9302 51.0957C34.1655 49.8144 33.7832 48.3574 33.7832 46.7247C33.7832 45.0714 34.1655 43.6144 34.9302 42.3537C35.6949 41.0724 36.7385 40.0701 38.0612 39.3467C39.3839 38.6234 40.8925 38.2617 42.5872 38.2617C44.3025 38.2617 45.8215 38.6234 47.1442 39.3467C48.4875 40.0701 49.5312 41.0621 50.2752 42.3227C51.0399 43.5834 51.4222 45.0507 51.4222 46.7247C51.4222 48.3574 51.0399 49.8144 50.2752 51.0957C49.5312 52.3771 48.4875 53.3897 47.1442 54.1337C45.8215 54.8571 44.3025 55.2187 42.5872 55.2187ZM42.5872 51.9017C43.5379 51.9017 44.3852 51.6951 45.1292 51.2817C45.8732 50.8684 46.4519 50.2691 46.8652 49.4837C47.2992 48.6984 47.5162 47.7787 47.5162 46.7247C47.5162 45.6501 47.2992 44.7304 46.8652 43.9657C46.4519 43.1804 45.8732 42.5811 45.1292 42.1677C44.3852 41.7544 43.5482 41.5477 42.6182 41.5477C41.6675 41.5477 40.8202 41.7544 40.0762 42.1677C39.3529 42.5811 38.7742 43.1804 38.3402 43.9657C37.9062 44.7304 37.6892 45.6501 37.6892 46.7247C37.6892 47.7787 37.9062 48.6984 38.3402 49.4837C38.7742 50.2691 39.3529 50.8684 40.0762 51.2817C40.8202 51.6951 41.6572 51.9017 42.5872 51.9017Z" fill="#FFFBFB"/>
<path d="M23.453 55.0032V40.8052L24.352 41.7352H17.625V38.4492H33.125V41.7352H26.429L27.328 40.8052V55.0032H23.453Z" fill="#FFFBFB"/>
<path d="M5.48759 48.0262V45.2362H14.4776V48.0262H5.48759ZM7.75059 38.1992C9.52793 38.1992 11.0986 38.5712 12.4626 39.3152C13.8266 40.0386 14.9013 41.0409 15.6866 42.3222C16.4719 43.5829 16.8646 45.0502 16.8646 46.7242C16.8646 48.3776 16.4719 49.8552 15.6866 51.1572C14.9013 52.4386 13.8266 53.4512 12.4626 54.1952C11.0986 54.9186 9.52793 55.2802 7.75059 55.2802C6.26259 55.2802 4.89859 55.0322 3.65859 54.5362C2.41859 54.0402 1.38526 53.3272 0.558594 52.3972L2.79059 50.2272C3.45193 50.8679 4.17526 51.3536 4.96059 51.6842C5.76659 52.0149 6.64493 52.1802 7.59559 52.1802C8.71159 52.1802 9.69326 51.9529 10.5406 51.4982C11.3879 51.0229 12.0596 50.3719 12.5556 49.5452C13.0516 48.7186 13.2996 47.7782 13.2996 46.7242C13.2996 45.6496 13.0516 44.7092 12.5556 43.9032C12.0596 43.0766 11.3879 42.4359 10.5406 41.9812C9.69326 41.5059 8.71159 41.2682 7.59559 41.2682C6.64493 41.2682 5.76659 41.4336 4.96059 41.7642C4.17526 42.0949 3.45193 42.5909 2.79059 43.2522L0.558594 41.0822C1.38526 40.1522 2.41859 39.4392 3.65859 38.9432C4.89859 38.4472 6.26259 38.1992 7.75059 38.1992Z" fill="#FFFBFB"/>
<path d="M297.835 23.2342C297.029 23.2342 296.223 23.0999 295.417 22.8312C294.611 22.5626 293.94 22.1906 293.402 21.7152L294.952 18.8632C295.345 19.2146 295.789 19.4936 296.285 19.7002C296.781 19.9069 297.288 20.0102 297.804 20.0102C298.507 20.0102 299.075 19.8346 299.509 19.4832C299.943 19.1319 300.346 18.5429 300.718 17.7162L301.679 15.5462L301.989 15.0812L308.251 0.449219H311.971L304.221 18.3362C303.705 19.5762 303.126 20.5579 302.485 21.2812C301.865 22.0046 301.163 22.5109 300.377 22.8002C299.613 23.0896 298.765 23.2342 297.835 23.2342ZM301.245 17.5922L293.774 0.449219H297.804L303.88 14.7402L301.245 17.5922Z" fill="#FFFBFB"/>
<path d="M289.996 17.0032L284.013 9.06722L287.175 7.11422L294.553 17.0032H289.996ZM278.123 17.0032V0.449219H281.998V17.0032H278.123ZM280.851 10.3692V7.14522H286.462V10.3692H280.851ZM287.547 9.19122L283.92 8.75722L289.996 0.449219H294.15L287.547 9.19122Z" fill="#FFFBFB"/>
<path d="M255.482 16.9722L255.668 13.7172C255.813 13.7379 255.947 13.7586 256.071 13.7792C256.195 13.7999 256.309 13.8102 256.412 13.8102C257.053 13.8102 257.549 13.6139 257.9 13.2212C258.252 12.8286 258.51 12.3016 258.675 11.6402C258.861 10.9582 258.985 10.2039 259.047 9.37722C259.13 8.52989 259.192 7.68255 259.233 6.83522L259.512 0.449219H272.904V17.0032H269.029V2.68122L269.928 3.73522H262.054L262.891 2.65022L262.674 7.02122C262.612 8.48855 262.488 9.85255 262.302 11.1132C262.137 12.3532 261.868 13.4382 261.496 14.3682C261.145 15.2982 260.649 16.0216 260.008 16.5382C259.388 17.0549 258.593 17.3132 257.621 17.3132C257.311 17.3132 256.97 17.2822 256.598 17.2202C256.247 17.1582 255.875 17.0756 255.482 16.9722Z" fill="#FFFBFB"/>
<path d="M242.072 23.2342C241.266 23.2342 240.46 23.0999 239.654 22.8312C238.848 22.5626 238.176 22.1906 237.639 21.7152L239.189 18.8632C239.581 19.2146 240.026 19.4936 240.522 19.7002C241.018 19.9069 241.524 20.0102 242.041 20.0102C242.743 20.0102 243.312 19.8346 243.746 19.4832C244.18 19.1319 244.583 18.5429 244.955 17.7162L245.916 15.5462L246.226 15.0812L252.488 0.449219H256.208L248.458 18.3362C247.941 19.5762 247.362 20.5579 246.722 21.2812C246.102 22.0046 245.399 22.5109 244.614 22.8002C243.849 23.0896 243.002 23.2342 242.072 23.2342ZM245.482 17.5922L238.011 0.449219H242.041L248.117 14.7402L245.482 17.5922Z" fill="#FFFBFB"/>
<path d="M225.023 17.0032V0.449219H237.733V3.73522H227.999L228.898 2.86722V17.0032H225.023Z" fill="#FFFBFB"/>
<path d="M212.361 17.2187C210.666 17.2187 209.157 16.8571 207.835 16.1337C206.512 15.3897 205.468 14.3771 204.704 13.0957C203.939 11.8144 203.557 10.3574 203.557 8.72472C203.557 7.07139 203.939 5.61439 204.704 4.35372C205.468 3.07239 206.512 2.07005 207.835 1.34672C209.157 0.623386 210.666 0.261719 212.361 0.261719C214.076 0.261719 215.595 0.623386 216.918 1.34672C218.261 2.07005 219.305 3.06205 220.049 4.32272C220.813 5.58339 221.196 7.05072 221.196 8.72472C221.196 10.3574 220.813 11.8144 220.049 13.0957C219.305 14.3771 218.261 15.3897 216.918 16.1337C215.595 16.8571 214.076 17.2187 212.361 17.2187ZM212.361 13.9017C213.311 13.9017 214.159 13.6951 214.903 13.2817C215.647 12.8684 216.225 12.2691 216.639 11.4837C217.073 10.6984 217.29 9.77872 217.29 8.72472C217.29 7.65005 217.073 6.73039 216.639 5.96572C216.225 5.18039 215.647 4.58105 214.903 4.16772C214.159 3.75439 213.322 3.54772 212.392 3.54772C211.441 3.54772 210.594 3.75439 209.85 4.16772C209.126 4.58105 208.548 5.18039 208.114 5.96572C207.68 6.73039 207.463 7.65005 207.463 8.72472C207.463 9.77872 207.68 10.6984 208.114 11.4837C208.548 12.2691 209.126 12.8684 209.85 13.2817C210.594 13.6951 211.431 13.9017 212.361 13.9017Z" fill="#FFFBFB"/>
<path d="M192.725 17.2187C191.381 17.2187 190.152 16.9087 189.036 16.2887C187.94 15.6687 187.062 14.7387 186.401 13.4987C185.76 12.2381 185.44 10.6467 185.44 8.72472C185.44 6.78205 185.75 5.19072 186.37 3.95072C187.01 2.71072 187.878 1.79105 188.974 1.19172C190.069 0.571719 191.319 0.261719 192.725 0.261719C194.357 0.261719 195.794 0.613052 197.034 1.31572C198.294 2.01839 199.286 3.00005 200.01 4.26072C200.754 5.52139 201.126 7.00939 201.126 8.72472C201.126 10.4401 200.754 11.9384 200.01 13.2197C199.286 14.4804 198.294 15.4621 197.034 16.1647C195.794 16.8674 194.357 17.2187 192.725 17.2187ZM183.549 23.0157V0.447718H187.238V4.35372L187.114 8.75572L187.424 13.1577V23.0157H183.549ZM192.291 13.9017C193.221 13.9017 194.047 13.6951 194.771 13.2817C195.515 12.8684 196.104 12.2691 196.538 11.4837C196.972 10.6984 197.189 9.77872 197.189 8.72472C197.189 7.65005 196.972 6.73039 196.538 5.96572C196.104 5.18039 195.515 4.58105 194.771 4.16772C194.047 3.75439 193.221 3.54772 192.291 3.54772C191.361 3.54772 190.524 3.75439 189.78 4.16772C189.036 4.58105 188.447 5.18039 188.013 5.96572C187.579 6.73039 187.362 7.65005 187.362 8.72472C187.362 9.77872 187.579 10.6984 188.013 11.4837C188.447 12.2691 189.036 12.8684 189.78 13.2817C190.524 13.6951 191.361 13.9017 192.291 13.9017Z" fill="#FFFBFB"/>
<path d="M162.448 17.0032V0.449219H178.32V17.0032H174.476V2.83622L175.375 3.73522H165.424L166.323 2.83622V17.0032H162.448Z" fill="#FFFBFB"/>
<path d="M145.428 17.0017V13.6537L145.211 12.9407V7.08172C145.211 5.94505 144.87 5.06672 144.188 4.44672C143.506 3.80605 142.472 3.48572 141.088 3.48572C140.158 3.48572 139.238 3.63039 138.329 3.91972C137.44 4.20905 136.686 4.61205 136.066 5.12872L134.547 2.30772C135.435 1.62572 136.489 1.11939 137.709 0.788719C138.949 0.437385 140.23 0.261719 141.553 0.261719C143.95 0.261719 145.8 0.840386 147.102 1.99772C148.424 3.13439 149.086 4.90139 149.086 7.29872V17.0017H145.428ZM140.22 17.2187C138.98 17.2187 137.895 17.0121 136.965 16.5987C136.035 16.1647 135.311 15.5757 134.795 14.8317C134.299 14.0671 134.051 13.2094 134.051 12.2587C134.051 11.3287 134.268 10.4917 134.702 9.74772C135.156 9.00372 135.89 8.41472 136.903 7.98072C137.915 7.54672 139.259 7.32972 140.933 7.32972H145.738V9.90272H141.212C139.889 9.90272 139 10.1197 138.546 10.5537C138.091 10.9671 137.864 11.4837 137.864 12.1037C137.864 12.8064 138.143 13.3644 138.701 13.7777C139.259 14.1911 140.034 14.3977 141.026 14.3977C141.976 14.3977 142.824 14.1807 143.568 13.7467C144.332 13.3127 144.88 12.6721 145.211 11.8247L145.862 14.1497C145.49 15.1211 144.818 15.8754 143.847 16.4127C142.896 16.9501 141.687 17.2187 140.22 17.2187Z" fill="#FFFBFB"/>
<path d="M114.102 17.0032V0.449219H117.977V7.17622H126.316V0.449219H130.191V17.0032H126.316V10.4622H117.977V17.0032H114.102Z" fill="#FFFBFB"/>
<path d="M95.7491 15.2052V3.73522H89.3941L89.3011 6.40122C89.2598 7.35189 89.1978 8.27155 89.1151 9.16022C89.0325 10.0282 88.8981 10.8342 88.7121 11.5782C88.5261 12.3016 88.2575 12.9009 87.9061 13.3762C87.5548 13.8516 87.0898 14.1616 86.5111 14.3062L82.6671 13.7172C83.2871 13.7172 83.7831 13.5209 84.1551 13.1282C84.5478 12.7149 84.8475 12.1569 85.0541 11.4542C85.2815 10.7309 85.4468 9.91455 85.5501 9.00522C85.6535 8.07522 85.7258 7.11422 85.7671 6.12222L85.9841 0.449219H99.6241V15.2052H95.7491ZM82.0781 20.6922V13.7172H102.073V20.6922H98.4461V17.0032H85.6741V20.6922H82.0781Z" fill="#FFFBFB"/>
<path d="M71.9212 17.2187C70.2265 17.2187 68.7179 16.8571 67.3952 16.1337C66.0725 15.3897 65.0288 14.3771 64.2642 13.0957C63.4995 11.8144 63.1172 10.3574 63.1172 8.72472C63.1172 7.07139 63.4995 5.61439 64.2642 4.35372C65.0288 3.07239 66.0725 2.07005 67.3952 1.34672C68.7179 0.623386 70.2265 0.261719 71.9212 0.261719C73.6365 0.261719 75.1555 0.623386 76.4782 1.34672C77.8215 2.07005 78.8652 3.06205 79.6092 4.32272C80.3739 5.58339 80.7562 7.05072 80.7562 8.72472C80.7562 10.3574 80.3739 11.8144 79.6092 13.0957C78.8652 14.3771 77.8215 15.3897 76.4782 16.1337C75.1555 16.8571 73.6365 17.2187 71.9212 17.2187ZM71.9212 13.9017C72.8719 13.9017 73.7192 13.6951 74.4632 13.2817C75.2072 12.8684 75.7859 12.2691 76.1992 11.4837C76.6332 10.6984 76.8502 9.77872 76.8502 8.72472C76.8502 7.65005 76.6332 6.73039 76.1992 5.96572C75.7859 5.18039 75.2072 4.58105 74.4632 4.16772C73.7192 3.75439 72.8822 3.54772 71.9522 3.54772C71.0015 3.54772 70.1542 3.75439 69.4102 4.16772C68.6869 4.58105 68.1082 5.18039 67.6742 5.96572C67.2402 6.73039 67.0232 7.65005 67.0232 8.72472C67.0232 9.77872 67.2402 10.6984 67.6742 11.4837C68.1082 12.2691 68.6869 12.8684 69.4102 13.2817C70.1542 13.6951 70.9912 13.9017 71.9212 13.9017Z" fill="#FFFBFB"/>
<path d="M45.1416 17.0032L52.4266 7.51722L52.3646 9.59422L45.4206 0.449219H49.7296L54.5966 6.95922H52.9536L57.8516 0.449219H62.0366L55.0306 9.59422L55.0616 7.51722L62.3156 17.0032H57.9446L52.8296 10.0902L54.4416 10.3072L49.4196 17.0032H45.1416Z" fill="#FFFBFB"/>
<path d="M38.5069 17.0032V0.449219H42.3819V17.0032H38.5069ZM29.8579 5.90522C31.9865 5.90522 33.5985 6.38055 34.6939 7.33122C35.8099 8.28189 36.3679 9.62522 36.3679 11.3612C36.3679 13.1592 35.7479 14.5646 34.5079 15.5772C33.2885 16.5692 31.5525 17.0549 29.2999 17.0342L21.7979 17.0032V0.449219H25.6729V5.87422L29.8579 5.90522ZM28.9589 14.1822C30.0955 14.2029 30.9635 13.9652 31.5629 13.4692C32.1622 12.9732 32.4619 12.2499 32.4619 11.2992C32.4619 10.3486 32.1622 9.66655 31.5629 9.25322C30.9842 8.81922 30.1162 8.59189 28.9589 8.57122L25.6729 8.54022V14.1512L28.9589 14.1822Z" fill="#FFFBFB"/>
<path d="M2.60449 17.0032V0.449219H10.6955C12.7002 0.449219 14.2708 0.821219 15.4075 1.56522C16.5648 2.30922 17.1435 3.36322 17.1435 4.72722C17.1435 6.07055 16.6062 7.12455 15.5315 7.88922C14.4568 8.63322 13.0308 9.00522 11.2535 9.00522L11.7185 8.04422C13.7232 8.04422 15.2112 8.41622 16.1825 9.16022C17.1745 9.88355 17.6705 10.9479 17.6705 12.3532C17.6705 13.8206 17.1228 14.9676 16.0275 15.7942C14.9322 16.6002 13.2685 17.0032 11.0365 17.0032H2.60449ZM6.29349 14.1822H10.7265C11.7805 14.1822 12.5762 14.0169 13.1135 13.6862C13.6508 13.3349 13.9195 12.8079 13.9195 12.1052C13.9195 11.3612 13.6715 10.8136 13.1755 10.4622C12.6795 10.1109 11.9045 9.93522 10.8505 9.93522H6.29349V14.1822ZM6.29349 7.36222H10.3545C11.3465 7.36222 12.0905 7.18655 12.5865 6.83522C13.1032 6.46322 13.3615 5.94655 13.3615 5.28522C13.3615 4.60322 13.1032 4.09689 12.5865 3.76622C12.0905 3.43555 11.3465 3.27022 10.3545 3.27022H6.29349V7.36222Z" fill="#FFFBFB"/>
</svg>
