<svg width="650" height="149" viewBox="0 0 650 149" fill="none" xmlns="http://www.w3.org/2000/svg">
<path d="M512.586 142.193C511.989 142.193 511.477 141.99 511.05 141.585C510.624 141.158 510.41 140.625 510.41 139.985C510.41 139.345 510.624 138.822 511.05 138.417C511.477 138.011 511.989 137.809 512.586 137.809C513.162 137.809 513.653 138.011 514.058 138.417C514.485 138.822 514.698 139.345 514.698 139.985C514.698 140.625 514.485 141.158 514.058 141.585C513.653 141.99 513.162 142.193 512.586 142.193Z" fill="white"/>
<path d="M501.023 141.999V126.927L501.791 127.727H494.815V125.039H510.303V127.727H503.359L504.095 126.927V141.999H501.023Z" fill="white"/>
<path d="M485.841 142.191C484.027 142.191 482.427 141.818 481.041 141.071C479.675 140.324 478.609 139.3 477.841 137.999C477.094 136.698 476.721 135.204 476.721 133.519C476.721 131.834 477.083 130.34 477.809 129.039C478.555 127.738 479.569 126.724 480.849 125.999C482.15 125.252 483.611 124.879 485.233 124.879C486.875 124.879 488.326 125.242 489.585 125.967C490.843 126.692 491.825 127.716 492.529 129.039C493.254 130.34 493.617 131.866 493.617 133.615C493.617 133.743 493.606 133.892 493.585 134.063C493.585 134.234 493.574 134.394 493.553 134.543H479.121V132.335H491.953L490.705 133.103C490.726 132.015 490.502 131.044 490.033 130.191C489.563 129.338 488.913 128.676 488.081 128.207C487.27 127.716 486.321 127.471 485.233 127.471C484.166 127.471 483.217 127.716 482.385 128.207C481.553 128.676 480.902 129.348 480.433 130.223C479.963 131.076 479.729 132.058 479.729 133.167V133.679C479.729 134.81 479.985 135.823 480.497 136.719C481.03 137.594 481.766 138.276 482.705 138.767C483.643 139.258 484.721 139.503 485.937 139.503C486.939 139.503 487.846 139.332 488.657 138.991C489.489 138.65 490.214 138.138 490.833 137.455L492.529 139.439C491.761 140.335 490.801 141.018 489.649 141.487C488.518 141.956 487.249 142.191 485.841 142.191Z" fill="white"/>
<path d="M461.34 148.399C460.53 148.399 459.74 148.26 458.972 147.983C458.204 147.727 457.543 147.343 456.988 146.831L458.3 144.527C458.727 144.932 459.196 145.242 459.708 145.455C460.22 145.668 460.764 145.775 461.34 145.775C462.087 145.775 462.706 145.583 463.196 145.199C463.687 144.815 464.146 144.132 464.572 143.151L465.628 140.815L465.948 140.431L472.604 125.039H475.612L467.388 143.695C466.898 144.89 466.343 145.828 465.724 146.511C465.127 147.194 464.466 147.674 463.74 147.951C463.015 148.25 462.215 148.399 461.34 148.399ZM465.372 142.543L457.628 125.039H460.828L467.42 140.143L465.372 142.543Z" fill="white"/>
<path d="M449.806 142.191C448.078 142.191 446.531 141.818 445.166 141.071C443.822 140.324 442.766 139.3 441.998 137.999C441.23 136.698 440.846 135.204 440.846 133.519C440.846 131.834 441.23 130.34 441.998 129.039C442.766 127.738 443.822 126.724 445.166 125.999C446.531 125.252 448.078 124.879 449.806 124.879C451.342 124.879 452.707 125.188 453.902 125.807C455.118 126.404 456.056 127.3 456.718 128.495L454.382 129.999C453.827 129.167 453.144 128.559 452.334 128.175C451.544 127.77 450.691 127.567 449.774 127.567C448.664 127.567 447.672 127.812 446.798 128.303C445.923 128.794 445.23 129.487 444.718 130.383C444.206 131.258 443.95 132.303 443.95 133.519C443.95 134.735 444.206 135.791 444.718 136.687C445.23 137.583 445.923 138.276 446.798 138.767C447.672 139.258 448.664 139.503 449.774 139.503C450.691 139.503 451.544 139.311 452.334 138.927C453.144 138.522 453.827 137.903 454.382 137.071L456.718 138.543C456.056 139.716 455.118 140.623 453.902 141.263C452.707 141.882 451.342 142.191 449.806 142.191Z" fill="white"/>
<path d="M429.872 142.191C428.059 142.191 426.459 141.818 425.072 141.071C423.707 140.324 422.64 139.3 421.872 137.999C421.125 136.698 420.752 135.204 420.752 133.519C420.752 131.834 421.115 130.34 421.84 129.039C422.587 127.738 423.6 126.724 424.88 125.999C426.181 125.252 427.643 124.879 429.264 124.879C430.907 124.879 432.357 125.242 433.616 125.967C434.875 126.692 435.856 127.716 436.56 129.039C437.285 130.34 437.648 131.866 437.648 133.615C437.648 133.743 437.637 133.892 437.616 134.063C437.616 134.234 437.605 134.394 437.584 134.543H423.152V132.335H435.984L434.736 133.103C434.757 132.015 434.533 131.044 434.064 130.191C433.595 129.338 432.944 128.676 432.112 128.207C431.301 127.716 430.352 127.471 429.264 127.471C428.197 127.471 427.248 127.716 426.416 128.207C425.584 128.676 424.933 129.348 424.464 130.223C423.995 131.076 423.76 132.058 423.76 133.167V133.679C423.76 134.81 424.016 135.823 424.528 136.719C425.061 137.594 425.797 138.276 426.736 138.767C427.675 139.258 428.752 139.503 429.968 139.503C430.971 139.503 431.877 139.332 432.688 138.991C433.52 138.65 434.245 138.138 434.864 137.455L436.56 139.439C435.792 140.335 434.832 141.018 433.68 141.487C432.549 141.956 431.28 142.191 429.872 142.191Z" fill="white"/>
<path d="M409.281 142.191C407.873 142.191 406.582 141.871 405.409 141.231C404.257 140.57 403.329 139.599 402.625 138.319C401.942 137.039 401.601 135.439 401.601 133.519C401.601 131.599 401.932 129.999 402.593 128.719C403.276 127.439 404.193 126.479 405.345 125.839C406.518 125.199 407.83 124.879 409.281 124.879C410.945 124.879 412.417 125.242 413.697 125.967C414.977 126.692 415.99 127.706 416.737 129.007C417.484 130.287 417.857 131.791 417.857 133.519C417.857 135.247 417.484 136.762 416.737 138.063C415.99 139.364 414.977 140.378 413.697 141.103C412.417 141.828 410.945 142.191 409.281 142.191ZM400.289 148.207V125.039H403.233V129.615L403.041 133.551L403.361 137.487V148.207H400.289ZM409.025 139.503C410.113 139.503 411.084 139.258 411.937 138.767C412.812 138.276 413.494 137.583 413.985 136.687C414.497 135.77 414.753 134.714 414.753 133.519C414.753 132.303 414.497 131.258 413.985 130.383C413.494 129.487 412.812 128.794 411.937 128.303C411.084 127.812 410.113 127.567 409.025 127.567C407.958 127.567 406.988 127.812 406.113 128.303C405.26 128.794 404.577 129.487 404.065 130.383C403.574 131.258 403.329 132.303 403.329 133.519C403.329 134.714 403.574 135.77 404.065 136.687C404.577 137.583 405.26 138.276 406.113 138.767C406.988 139.258 407.958 139.503 409.025 139.503Z" fill="white"/>
<path d="M387.747 142.191C385.934 142.191 384.334 141.818 382.947 141.071C381.582 140.324 380.515 139.3 379.747 137.999C379 136.698 378.627 135.204 378.627 133.519C378.627 131.834 378.99 130.34 379.715 129.039C380.462 127.738 381.475 126.724 382.755 125.999C384.056 125.252 385.518 124.879 387.139 124.879C388.782 124.879 390.232 125.242 391.491 125.967C392.75 126.692 393.731 127.716 394.435 129.039C395.16 130.34 395.523 131.866 395.523 133.615C395.523 133.743 395.512 133.892 395.491 134.063C395.491 134.234 395.48 134.394 395.459 134.543H381.027V132.335H393.859L392.611 133.103C392.632 132.015 392.408 131.044 391.939 130.191C391.47 129.338 390.819 128.676 389.987 128.207C389.176 127.716 388.227 127.471 387.139 127.471C386.072 127.471 385.123 127.716 384.291 128.207C383.459 128.676 382.808 129.348 382.339 130.223C381.87 131.076 381.635 132.058 381.635 133.167V133.679C381.635 134.81 381.891 135.823 382.403 136.719C382.936 137.594 383.672 138.276 384.611 138.767C385.55 139.258 386.627 139.503 387.843 139.503C388.846 139.503 389.752 139.332 390.563 138.991C391.395 138.65 392.12 138.138 392.739 137.455L394.435 139.439C393.667 140.335 392.707 141.018 391.555 141.487C390.424 141.956 389.155 142.191 387.747 142.191Z" fill="white"/>
<path d="M368.523 141.999V126.927L369.291 127.727H362.315V125.039H377.803V127.727H370.859L371.595 126.927V141.999H368.523Z" fill="white"/>
<path d="M343.383 141.999V125.039H346.455V132.239H356.119V125.039H359.191V141.999H356.119V134.895H346.455V141.999H343.383Z" fill="white"/>
<path d="M321.164 141.999V125.039H324.236V137.391L334.636 125.039H337.42V141.999H334.348V129.647L323.98 141.999H321.164Z" fill="white"/>
<path d="M299.334 142.191C297.627 142.191 296.113 141.818 294.79 141.071C293.467 140.324 292.422 139.3 291.654 137.999C290.886 136.676 290.502 135.183 290.502 133.519C290.502 131.834 290.886 130.34 291.654 129.039C292.422 127.738 293.467 126.724 294.79 125.999C296.113 125.252 297.627 124.879 299.334 124.879C301.019 124.879 302.523 125.252 303.846 125.999C305.19 126.724 306.235 127.738 306.982 129.039C307.75 130.319 308.134 131.812 308.134 133.519C308.134 135.204 307.75 136.698 306.982 137.999C306.235 139.3 305.19 140.324 303.846 141.071C302.523 141.818 301.019 142.191 299.334 142.191ZM299.334 139.503C300.422 139.503 301.393 139.258 302.246 138.767C303.121 138.276 303.803 137.583 304.294 136.687C304.785 135.77 305.03 134.714 305.03 133.519C305.03 132.303 304.785 131.258 304.294 130.383C303.803 129.487 303.121 128.794 302.246 128.303C301.393 127.812 300.422 127.567 299.334 127.567C298.246 127.567 297.275 127.812 296.422 128.303C295.569 128.794 294.886 129.487 294.374 130.383C293.862 131.258 293.606 132.303 293.606 133.519C293.606 134.714 293.862 135.77 294.374 136.687C294.886 137.583 295.569 138.276 296.422 138.767C297.275 139.258 298.246 139.503 299.334 139.503Z" fill="white"/>
<path d="M277.195 141.999V125.039H289.675V127.727H279.531L280.267 127.023V141.999H277.195Z" fill="white"/>
<path d="M264.653 142.191C262.84 142.191 261.24 141.818 259.853 141.071C258.488 140.324 257.421 139.3 256.653 137.999C255.907 136.698 255.533 135.204 255.533 133.519C255.533 131.834 255.896 130.34 256.621 129.039C257.368 127.738 258.381 126.724 259.661 125.999C260.963 125.252 262.424 124.879 264.045 124.879C265.688 124.879 267.139 125.242 268.397 125.967C269.656 126.692 270.637 127.716 271.341 129.039C272.067 130.34 272.429 131.866 272.429 133.615C272.429 133.743 272.419 133.892 272.397 134.063C272.397 134.234 272.387 134.394 272.365 134.543H257.933V132.335H270.765L269.517 133.103C269.539 132.015 269.315 131.044 268.845 130.191C268.376 129.338 267.725 128.676 266.893 128.207C266.083 127.716 265.133 127.471 264.045 127.471C262.979 127.471 262.029 127.716 261.197 128.207C260.365 128.676 259.715 129.348 259.245 130.223C258.776 131.076 258.541 132.058 258.541 133.167V133.679C258.541 134.81 258.797 135.823 259.309 136.719C259.843 137.594 260.579 138.276 261.517 138.767C262.456 139.258 263.533 139.503 264.749 139.503C265.752 139.503 266.659 139.332 267.469 138.991C268.301 138.65 269.027 138.138 269.645 137.455L271.341 139.439C270.573 140.335 269.613 141.018 268.461 141.487C267.331 141.956 266.061 142.191 264.653 142.191Z" fill="white"/>
<path d="M235.271 142.191C233.565 142.191 232.05 141.818 230.727 141.071C229.405 140.324 228.359 139.3 227.591 137.999C226.823 136.676 226.439 135.183 226.439 133.519C226.439 131.834 226.823 130.34 227.591 129.039C228.359 127.738 229.405 126.724 230.727 125.999C232.05 125.252 233.565 124.879 235.271 124.879C236.957 124.879 238.461 125.252 239.783 125.999C241.127 126.724 242.173 127.738 242.919 129.039C243.687 130.319 244.071 131.812 244.071 133.519C244.071 135.204 243.687 136.698 242.919 137.999C242.173 139.3 241.127 140.324 239.783 141.071C238.461 141.818 236.957 142.191 235.271 142.191ZM235.271 139.503C236.359 139.503 237.33 139.258 238.183 138.767C239.058 138.276 239.741 137.583 240.231 136.687C240.722 135.77 240.967 134.714 240.967 133.519C240.967 132.303 240.722 131.258 240.231 130.383C239.741 129.487 239.058 128.794 238.183 128.303C237.33 127.812 236.359 127.567 235.271 127.567C234.183 127.567 233.213 127.812 232.359 128.303C231.506 128.794 230.823 129.487 230.311 130.383C229.799 131.258 229.543 132.303 229.543 133.519C229.543 134.714 229.799 135.77 230.311 136.687C230.823 137.583 231.506 138.276 232.359 138.767C233.213 139.258 234.183 139.503 235.271 139.503Z" fill="white"/>
<path d="M216.336 141.999V126.927L217.104 127.727H210.128V125.039H225.616V127.727H218.672L219.408 126.927V141.999H216.336Z" fill="white"/>
<path d="M204.165 135.055C203.269 135.482 202.341 135.823 201.381 136.079C200.442 136.314 199.471 136.431 198.469 136.431C196.421 136.431 194.799 135.951 193.605 134.991C192.431 134.031 191.845 132.548 191.845 130.543V125.039H194.917V130.351C194.917 131.567 195.29 132.463 196.037 133.039C196.805 133.615 197.829 133.903 199.109 133.903C199.919 133.903 200.751 133.796 201.605 133.583C202.479 133.37 203.333 133.071 204.165 132.687V135.055ZM203.941 141.999V125.039H207.013V141.999H203.941Z" fill="white"/>
<path d="M176.352 146.737L177.952 140.273L178.368 142.129C177.75 142.129 177.227 141.937 176.8 141.553C176.395 141.169 176.192 140.646 176.192 139.985C176.192 139.345 176.395 138.822 176.8 138.417C177.227 138.011 177.739 137.809 178.336 137.809C178.955 137.809 179.456 138.022 179.84 138.449C180.224 138.854 180.416 139.366 180.416 139.985C180.416 140.198 180.395 140.411 180.352 140.625C180.331 140.817 180.278 141.051 180.192 141.329C180.128 141.585 180.022 141.905 179.872 142.289L178.368 146.737H176.352Z" fill="white"/>
<path d="M164.771 142.191C163.065 142.191 161.55 141.818 160.227 141.071C158.905 140.324 157.859 139.3 157.091 137.999C156.323 136.676 155.939 135.183 155.939 133.519C155.939 131.834 156.323 130.34 157.091 129.039C157.859 127.738 158.905 126.724 160.227 125.999C161.55 125.252 163.065 124.879 164.771 124.879C166.457 124.879 167.961 125.252 169.283 125.999C170.627 126.724 171.673 127.738 172.419 129.039C173.187 130.319 173.571 131.812 173.571 133.519C173.571 135.204 173.187 136.698 172.419 137.999C171.673 139.3 170.627 140.324 169.283 141.071C167.961 141.818 166.457 142.191 164.771 142.191ZM164.771 139.503C165.859 139.503 166.83 139.258 167.683 138.767C168.558 138.276 169.241 137.583 169.731 136.687C170.222 135.77 170.467 134.714 170.467 133.519C170.467 132.303 170.222 131.258 169.731 130.383C169.241 129.487 168.558 128.794 167.683 128.303C166.83 127.812 165.859 127.567 164.771 127.567C163.683 127.567 162.713 127.812 161.859 128.303C161.006 128.794 160.323 129.487 159.811 130.383C159.299 131.258 159.043 132.303 159.043 133.519C159.043 134.714 159.299 135.77 159.811 136.687C160.323 137.583 161.006 138.276 161.859 138.767C162.713 139.258 163.683 139.503 164.771 139.503Z" fill="white"/>
<path d="M145.836 141.999V126.927L146.604 127.727H139.628V125.039H155.116V127.727H148.172L148.908 126.927V141.999H145.836Z" fill="white"/>
<path d="M120.646 142.191C118.94 142.191 117.425 141.818 116.102 141.071C114.78 140.324 113.734 139.3 112.966 137.999C112.198 136.676 111.814 135.183 111.814 133.519C111.814 131.834 112.198 130.34 112.966 129.039C113.734 127.738 114.78 126.724 116.102 125.999C117.425 125.252 118.94 124.879 120.646 124.879C122.332 124.879 123.836 125.252 125.158 125.999C126.502 126.724 127.548 127.738 128.294 129.039C129.062 130.319 129.446 131.812 129.446 133.519C129.446 135.204 129.062 136.698 128.294 137.999C127.548 139.3 126.502 140.324 125.158 141.071C123.836 141.818 122.332 142.191 120.646 142.191ZM120.646 139.503C121.734 139.503 122.705 139.258 123.558 138.767C124.433 138.276 125.116 137.583 125.606 136.687C126.097 135.77 126.342 134.714 126.342 133.519C126.342 132.303 126.097 131.258 125.606 130.383C125.116 129.487 124.433 128.794 123.558 128.303C122.705 127.812 121.734 127.567 120.646 127.567C119.558 127.567 118.588 127.812 117.734 128.303C116.881 128.794 116.198 129.487 115.686 130.383C115.174 131.258 114.918 132.303 114.918 133.519C114.918 134.714 115.174 135.77 115.686 136.687C116.198 137.583 116.881 138.276 117.734 138.767C118.588 139.258 119.558 139.503 120.646 139.503Z" fill="white"/>
<path d="M91.6016 141.999V125.039H94.6736V132.239H104.338V125.039H107.41V141.999H104.338V134.895H94.6736V141.999H91.6016Z" fill="white"/>
<path d="M69.8203 141.999V125.039H72.8923V132.239H82.5563V125.039H85.6283V141.999H82.5563V134.895H72.8923V141.999H69.8203Z" fill="white"/>
<path d="M57.2782 142.191C55.4649 142.191 53.8649 141.818 52.4782 141.071C51.1129 140.324 50.0462 139.3 49.2782 137.999C48.5315 136.698 48.1582 135.204 48.1582 133.519C48.1582 131.834 48.5209 130.34 49.2462 129.039C49.9929 127.738 51.0062 126.724 52.2862 125.999C53.5875 125.252 55.0489 124.879 56.6702 124.879C58.3129 124.879 59.7635 125.242 61.0222 125.967C62.2809 126.692 63.2622 127.716 63.9662 129.039C64.6915 130.34 65.0542 131.866 65.0542 133.615C65.0542 133.743 65.0435 133.892 65.0222 134.063C65.0222 134.234 65.0115 134.394 64.9902 134.543H50.5582V132.335H63.3902L62.1422 133.103C62.1635 132.015 61.9395 131.044 61.4702 130.191C61.0009 129.338 60.3502 128.676 59.5182 128.207C58.7075 127.716 57.7582 127.471 56.6702 127.471C55.6035 127.471 54.6542 127.716 53.8222 128.207C52.9902 128.676 52.3395 129.348 51.8702 130.223C51.4009 131.076 51.1662 132.058 51.1662 133.167V133.679C51.1662 134.81 51.4222 135.823 51.9342 136.719C52.4675 137.594 53.2035 138.276 54.1422 138.767C55.0809 139.258 56.1582 139.503 57.3742 139.503C58.3769 139.503 59.2835 139.332 60.0942 138.991C60.9262 138.65 61.6515 138.138 62.2702 137.455L63.9662 139.439C63.1982 140.335 62.2382 141.018 61.0862 141.487C59.9555 141.956 58.6862 142.191 57.2782 142.191Z" fill="white"/>
<path d="M24.1953 141.999V125.039H27.3633L34.6593 137.583H33.3793L40.8673 125.039H43.7473V141.999H40.9633V128.495L41.4753 128.783L34.6273 140.079H33.2833L26.4033 128.559L27.0113 128.431V141.999H24.1953Z" fill="white"/>
<path d="M1.97656 141.999V125.039H5.04856V137.391L15.4486 125.039H18.2326V141.999H15.1606V129.647L4.79256 141.999H1.97656Z" fill="white"/>
<path d="M556.195 102.999V86.0391H559.267V98.3911L569.667 86.0391H572.451V102.999H569.379V90.6471L559.011 102.999H556.195Z" fill="white"/>
<path d="M543.773 102.999V87.9271L544.541 88.7271H537.565V86.0391H553.053V88.7271H546.109L546.845 87.9271V102.999H543.773Z" fill="white"/>
<path d="M518.195 103V86.04H521.267V98.392L531.667 86.04H534.451V103H531.379V90.648L521.011 103H518.195ZM526.131 83.832C524.574 83.832 523.347 83.4587 522.451 82.712C521.577 81.944 521.129 80.8453 521.107 79.416H523.187C523.209 80.2267 523.475 80.8667 523.987 81.336C524.521 81.8053 525.225 82.04 526.099 82.04C526.974 82.04 527.678 81.8053 528.211 81.336C528.745 80.8667 529.022 80.2267 529.043 79.416H531.187C531.166 80.8453 530.707 81.944 529.811 82.712C528.915 83.4587 527.689 83.832 526.131 83.832Z" fill="white"/>
<path d="M509.751 102.999V99.4149L509.591 98.7429V92.6309C509.591 91.3296 509.207 90.3269 508.439 89.6229C507.692 88.8976 506.562 88.5349 505.047 88.5349C504.044 88.5349 503.063 88.7056 502.103 89.0469C501.143 89.3669 500.332 89.8042 499.671 90.3589L498.391 88.0549C499.266 87.3509 500.311 86.8176 501.527 86.4549C502.764 86.0709 504.055 85.8789 505.399 85.8789C507.724 85.8789 509.516 86.4442 510.775 87.5749C512.034 88.7056 512.663 90.4336 512.663 92.7589V102.999H509.751ZM504.183 103.191C502.924 103.191 501.815 102.978 500.855 102.551C499.916 102.124 499.191 101.538 498.679 100.791C498.167 100.023 497.911 99.1589 497.911 98.1989C497.911 97.2816 498.124 96.4496 498.551 95.7029C498.999 94.9562 499.714 94.3589 500.695 93.9109C501.698 93.4629 503.042 93.2389 504.727 93.2389H510.103V95.4469H504.855C503.319 95.4469 502.284 95.7029 501.751 96.2149C501.218 96.7269 500.951 97.3456 500.951 98.0709C500.951 98.9029 501.282 99.5749 501.943 100.087C502.604 100.578 503.522 100.823 504.695 100.823C505.847 100.823 506.85 100.567 507.703 100.055C508.578 99.5429 509.207 98.7962 509.591 97.8149L510.199 99.9269C509.794 100.93 509.079 101.73 508.055 102.327C507.031 102.903 505.74 103.191 504.183 103.191Z" fill="white"/>
<path d="M477.57 102.999V86.0391H480.642V93.2391H490.306V86.0391H493.378V102.999H490.306V95.8951H480.642V102.999H477.57Z" fill="white"/>
<path d="M446.758 102.999V86.0391H449.83V98.3911L460.23 86.0391H463.014V102.999H459.942V90.6471L449.574 102.999H446.758Z" fill="white"/>
<path d="M412.633 102.999V86.0391H415.801L423.097 98.5831H421.817L429.305 86.0391H432.185V102.999H429.401V89.4951L429.913 89.7831L423.065 101.079H421.721L414.841 89.5591L415.449 89.4311V102.999H412.633Z" fill="white"/>
<path d="M403.887 102.999V97.0471L404.367 97.6231H398.959C396.697 97.6231 394.927 97.1431 393.647 96.1831C392.388 95.2231 391.759 93.8257 391.759 91.9911C391.759 90.0284 392.431 88.5457 393.775 87.5431C395.14 86.5404 396.953 86.0391 399.215 86.0391H406.639V102.999H403.887ZM391.599 102.999L396.207 96.5031H399.375L394.895 102.999H391.599ZM403.887 96.0871V87.8631L404.367 88.7271H399.311C397.903 88.7271 396.815 88.9937 396.047 89.5271C395.279 90.0391 394.895 90.8924 394.895 92.0871C394.895 94.3057 396.324 95.4151 399.183 95.4151H404.367L403.887 96.0871Z" fill="white"/>
<path d="M370.82 102.999V86.0391H373.892V98.3911L384.292 86.0391H387.076V102.999H384.004V90.6471L373.636 102.999H370.82Z" fill="white"/>
<path d="M349.039 102.999V86.0391H352.111V93.2391H361.775V86.0391H364.847V102.999H361.775V95.8951H352.111V102.999H349.039Z" fill="white"/>
<path d="M336.497 103.191C334.684 103.191 333.084 102.818 331.697 102.071C330.332 101.324 329.265 100.3 328.497 98.9989C327.75 97.6976 327.377 96.2042 327.377 94.5189C327.377 92.8336 327.74 91.3402 328.465 90.0389C329.212 88.7376 330.225 87.7242 331.505 86.9989C332.806 86.2522 334.268 85.8789 335.889 85.8789C337.532 85.8789 338.982 86.2416 340.241 86.9669C341.5 87.6922 342.481 88.7162 343.185 90.0389C343.91 91.3402 344.273 92.8656 344.273 94.6149C344.273 94.7429 344.262 94.8922 344.241 95.0629C344.241 95.2336 344.23 95.3936 344.209 95.5429H329.777V93.3349H342.609L341.361 94.1029C341.382 93.0149 341.158 92.0442 340.689 91.1909C340.22 90.3376 339.569 89.6762 338.737 89.2069C337.926 88.7162 336.977 88.4709 335.889 88.4709C334.822 88.4709 333.873 88.7162 333.041 89.2069C332.209 89.6762 331.558 90.3482 331.089 91.2229C330.62 92.0762 330.385 93.0576 330.385 94.1669V94.6789C330.385 95.8096 330.641 96.8229 331.153 97.7189C331.686 98.5936 332.422 99.2762 333.361 99.7669C334.3 100.258 335.377 100.503 336.593 100.503C337.596 100.503 338.502 100.332 339.313 99.9909C340.145 99.6496 340.87 99.1376 341.489 98.4549L343.185 100.439C342.417 101.335 341.457 102.018 340.305 102.487C339.174 102.956 337.905 103.191 336.497 103.191Z" fill="white"/>
<path d="M317.273 102.999V87.9271L318.041 88.7271H311.065V86.0391H326.553V88.7271H319.609L320.345 87.9271V102.999H317.273Z" fill="white"/>
<path d="M305.102 96.0551C304.206 96.4817 303.278 96.8231 302.318 97.0791C301.38 97.3137 300.409 97.4311 299.406 97.4311C297.358 97.4311 295.737 96.9511 294.542 95.9911C293.369 95.0311 292.782 93.5484 292.782 91.5431V86.0391H295.854V91.3511C295.854 92.5671 296.228 93.4631 296.974 94.0391C297.742 94.6151 298.766 94.9031 300.046 94.9031C300.857 94.9031 301.689 94.7964 302.542 94.5831C303.417 94.3697 304.27 94.0711 305.102 93.6871V96.0551ZM304.878 102.999V86.0391H307.95V102.999H304.878Z" fill="white"/>
<path d="M281.178 103.191C279.471 103.191 277.956 102.818 276.634 102.071C275.311 101.324 274.266 100.3 273.498 98.9989C272.73 97.6762 272.346 96.1829 272.346 94.5189C272.346 92.8336 272.73 91.3402 273.498 90.0389C274.266 88.7376 275.311 87.7242 276.634 86.9989C277.956 86.2522 279.471 85.8789 281.178 85.8789C282.863 85.8789 284.367 86.2522 285.69 86.9989C287.034 87.7242 288.079 88.7376 288.826 90.0389C289.594 91.3189 289.978 92.8122 289.978 94.5189C289.978 96.2042 289.594 97.6976 288.826 98.9989C288.079 100.3 287.034 101.324 285.69 102.071C284.367 102.818 282.863 103.191 281.178 103.191ZM281.178 100.503C282.266 100.503 283.236 100.258 284.09 99.7669C284.964 99.2762 285.647 98.5829 286.138 97.6869C286.628 96.7696 286.874 95.7136 286.874 94.5189C286.874 93.3029 286.628 92.2576 286.138 91.3829C285.647 90.4869 284.964 89.7936 284.09 89.3029C283.236 88.8122 282.266 88.5669 281.178 88.5669C280.09 88.5669 279.119 88.8122 278.266 89.3029C277.412 89.7936 276.73 90.4869 276.218 91.3829C275.706 92.2576 275.45 93.3029 275.45 94.5189C275.45 95.7136 275.706 96.7696 276.218 97.6869C276.73 98.5829 277.412 99.2762 278.266 99.7669C279.119 100.258 280.09 100.503 281.178 100.503Z" fill="white"/>
<path d="M252.258 102.999V86.0391H267.97V102.999H264.898V87.9591L265.634 88.7271H254.594L255.33 87.9591V102.999H252.258Z" fill="white"/>
<path d="M242.591 101.559V88.7271H235.231L235.071 91.9911C235.028 93.0577 234.954 94.0924 234.847 95.0951C234.762 96.0764 234.612 96.9831 234.399 97.8151C234.207 98.6471 233.919 99.3297 233.535 99.8631C233.151 100.396 232.639 100.727 231.999 100.855L228.959 100.311C229.62 100.332 230.154 100.119 230.559 99.6711C230.964 99.2017 231.274 98.5617 231.487 97.7511C231.722 96.9404 231.892 96.0231 231.999 94.9991C232.106 93.9537 232.191 92.8764 232.255 91.7671L232.511 86.0391H245.663V101.559H242.591ZM228.287 106.935V100.311H248.255V106.935H245.375V102.999H231.199V106.935H228.287Z" fill="white"/>
<path d="M218.747 103.191C216.934 103.191 215.334 102.818 213.947 102.071C212.582 101.324 211.515 100.3 210.747 98.9989C210 97.6976 209.627 96.2042 209.627 94.5189C209.627 92.8336 209.99 91.3402 210.715 90.0389C211.462 88.7376 212.475 87.7242 213.755 86.9989C215.056 86.2522 216.518 85.8789 218.139 85.8789C219.782 85.8789 221.232 86.2416 222.491 86.9669C223.75 87.6922 224.731 88.7162 225.435 90.0389C226.16 91.3402 226.523 92.8656 226.523 94.6149C226.523 94.7429 226.512 94.8922 226.491 95.0629C226.491 95.2336 226.48 95.3936 226.459 95.5429H212.027V93.3349H224.859L223.611 94.1029C223.632 93.0149 223.408 92.0442 222.939 91.1909C222.47 90.3376 221.819 89.6762 220.987 89.2069C220.176 88.7162 219.227 88.4709 218.139 88.4709C217.072 88.4709 216.123 88.7162 215.291 89.2069C214.459 89.6762 213.808 90.3482 213.339 91.2229C212.87 92.0762 212.635 93.0576 212.635 94.1669V94.6789C212.635 95.8096 212.891 96.8229 213.403 97.7189C213.936 98.5936 214.672 99.2762 215.611 99.7669C216.55 100.258 217.627 100.503 218.843 100.503C219.846 100.503 220.752 100.332 221.563 99.9909C222.395 99.6496 223.12 99.1376 223.739 98.4549L225.435 100.439C224.667 101.335 223.707 102.018 222.555 102.487C221.424 102.956 220.155 103.191 218.747 103.191Z" fill="white"/>
<path d="M198.156 103.191C196.748 103.191 195.457 102.871 194.284 102.231C193.132 101.57 192.204 100.599 191.5 99.3189C190.817 98.0389 190.476 96.4389 190.476 94.5189C190.476 92.5989 190.807 90.9989 191.468 89.7189C192.151 88.4389 193.068 87.4789 194.22 86.8389C195.393 86.1989 196.705 85.8789 198.156 85.8789C199.82 85.8789 201.292 86.2416 202.572 86.9669C203.852 87.6922 204.865 88.7056 205.612 90.0069C206.359 91.2869 206.732 92.7909 206.732 94.5189C206.732 96.2469 206.359 97.7616 205.612 99.0629C204.865 100.364 203.852 101.378 202.572 102.103C201.292 102.828 199.82 103.191 198.156 103.191ZM189.164 109.207V86.0389H192.108V90.6149L191.916 94.5509L192.236 98.4869V109.207H189.164ZM197.9 100.503C198.988 100.503 199.959 100.258 200.812 99.7669C201.687 99.2762 202.369 98.5829 202.86 97.6869C203.372 96.7696 203.628 95.7136 203.628 94.5189C203.628 93.3029 203.372 92.2576 202.86 91.3829C202.369 90.4869 201.687 89.7936 200.812 89.3029C199.959 88.8122 198.988 88.5669 197.9 88.5669C196.833 88.5669 195.863 88.8122 194.988 89.3029C194.135 89.7936 193.452 90.4869 192.94 91.3829C192.449 92.2576 192.204 93.3029 192.204 94.5189C192.204 95.7136 192.449 96.7696 192.94 97.6869C193.452 98.5829 194.135 99.2762 194.988 99.7669C195.863 100.258 196.833 100.503 197.9 100.503Z" fill="white"/>
<path d="M167.508 102.999V86.0391H183.22V102.999H180.148V87.9591L180.884 88.7271H169.844L170.58 87.9591V102.999H167.508Z" fill="white"/>
<path d="M133.383 102.999V86.0391H136.551L143.847 98.5831H142.567L150.055 86.0391H152.935V102.999H150.151V89.4951L150.663 89.7831L143.815 101.079H142.471L135.591 89.5591L136.199 89.4311V102.999H133.383Z" fill="white"/>
<path d="M111.164 102.999V86.0391H114.236V98.3911L124.636 86.0391H127.42V102.999H124.348V90.6471L113.98 102.999H111.164Z" fill="white"/>
<path d="M97.9277 103.191C96.221 103.191 94.7064 102.818 93.3837 102.071C92.061 101.324 91.0157 100.3 90.2477 98.9989C89.4797 97.6762 89.0957 96.1829 89.0957 94.5189C89.0957 92.8336 89.4797 91.3402 90.2477 90.0389C91.0157 88.7376 92.061 87.7242 93.3837 86.9989C94.7064 86.2522 96.221 85.8789 97.9277 85.8789C99.613 85.8789 101.117 86.2522 102.44 86.9989C103.784 87.7242 104.829 88.7376 105.576 90.0389C106.344 91.3189 106.728 92.8122 106.728 94.5189C106.728 96.2042 106.344 97.6976 105.576 98.9989C104.829 100.3 103.784 101.324 102.44 102.071C101.117 102.818 99.613 103.191 97.9277 103.191ZM97.9277 100.503C99.0157 100.503 99.9864 100.258 100.84 99.7669C101.714 99.2762 102.397 98.5829 102.888 97.6869C103.378 96.7696 103.624 95.7136 103.624 94.5189C103.624 93.3029 103.378 92.2576 102.888 91.3829C102.397 90.4869 101.714 89.7936 100.84 89.3029C99.9864 88.8122 99.0157 88.5669 97.9277 88.5669C96.8397 88.5669 95.869 88.8122 95.0157 89.3029C94.1624 89.7936 93.4797 90.4869 92.9677 91.3829C92.4557 92.2576 92.1997 93.3029 92.1997 94.5189C92.1997 95.7136 92.4557 96.7696 92.9677 97.6869C93.4797 98.5829 94.1624 99.2762 95.0157 99.7669C95.869 100.258 96.8397 100.503 97.9277 100.503Z" fill="white"/>
<path d="M71.0078 102.999V86.0391H78.8798C80.8638 86.0391 82.4212 86.4231 83.5518 87.1911C84.7038 87.9377 85.2798 89.0044 85.2798 90.3911C85.2798 91.7777 84.7358 92.8551 83.6478 93.6231C82.5811 94.3697 81.1625 94.7431 79.3918 94.7431L79.8718 93.9111C81.8985 93.9111 83.4025 94.2844 84.3838 95.0311C85.3652 95.7777 85.8558 96.8764 85.8558 98.3271C85.8558 99.7991 85.3012 100.951 84.1918 101.783C83.1038 102.594 81.4291 102.999 79.1678 102.999H71.0078ZM74.0158 100.631H78.9438C80.2238 100.631 81.1838 100.439 81.8238 100.055C82.4638 99.6497 82.7838 99.0097 82.7838 98.1351C82.7838 97.2391 82.4852 96.5884 81.8878 96.1831C81.3118 95.7564 80.3945 95.5431 79.1358 95.5431H74.0158V100.631ZM74.0158 93.3351H78.6238C79.7972 93.3351 80.6825 93.1217 81.2798 92.6951C81.8985 92.2471 82.2078 91.6284 82.2078 90.8391C82.2078 90.0284 81.8985 89.4204 81.2798 89.0151C80.6825 88.6097 79.7972 88.4071 78.6238 88.4071H74.0158V93.3351Z" fill="white"/>
<path d="M60.1182 103.191C58.3902 103.191 56.8435 102.818 55.4782 102.071C54.1342 101.324 53.0782 100.3 52.3102 98.9989C51.5422 97.6976 51.1582 96.2042 51.1582 94.5189C51.1582 92.8336 51.5422 91.3402 52.3102 90.0389C53.0782 88.7376 54.1342 87.7242 55.4782 86.9989C56.8435 86.2522 58.3902 85.8789 60.1182 85.8789C61.6542 85.8789 63.0195 86.1882 64.2142 86.8069C65.4302 87.4042 66.3689 88.3002 67.0302 89.4949L64.6942 90.9989C64.1395 90.1669 63.4569 89.5589 62.6462 89.1749C61.8569 88.7696 61.0035 88.5669 60.0862 88.5669C58.9769 88.5669 57.9849 88.8122 57.1102 89.3029C56.2355 89.7936 55.5422 90.4869 55.0302 91.3829C54.5182 92.2576 54.2622 93.3029 54.2622 94.5189C54.2622 95.7349 54.5182 96.7909 55.0302 97.6869C55.5422 98.5829 56.2355 99.2762 57.1102 99.7669C57.9849 100.258 58.9769 100.503 60.0862 100.503C61.0035 100.503 61.8569 100.311 62.6462 99.9269C63.4569 99.5216 64.1395 98.9029 64.6942 98.0709L67.0302 99.5429C66.3689 100.716 65.4302 101.623 64.2142 102.263C63.0195 102.882 61.6542 103.191 60.1182 103.191Z" fill="white"/>
<path d="M30.8965 103.191C29.1898 103.191 27.6751 102.818 26.3525 102.071C25.0298 101.324 23.9845 100.3 23.2165 98.9989C22.4485 97.6762 22.0645 96.1829 22.0645 94.5189C22.0645 92.8336 22.4485 91.3402 23.2165 90.0389C23.9845 88.7376 25.0298 87.7242 26.3525 86.9989C27.6751 86.2522 29.1898 85.8789 30.8965 85.8789C32.5818 85.8789 34.0858 86.2522 35.4085 86.9989C36.7525 87.7242 37.7978 88.7376 38.5445 90.0389C39.3125 91.3189 39.6965 92.8122 39.6965 94.5189C39.6965 96.2042 39.3125 97.6976 38.5445 98.9989C37.7978 100.3 36.7525 101.324 35.4085 102.071C34.0858 102.818 32.5818 103.191 30.8965 103.191ZM30.8965 100.503C31.9845 100.503 32.9551 100.258 33.8085 99.7669C34.6831 99.2762 35.3658 98.5829 35.8565 97.6869C36.3471 96.7696 36.5925 95.7136 36.5925 94.5189C36.5925 93.3029 36.3471 92.2576 35.8565 91.3829C35.3658 90.4869 34.6831 89.7936 33.8085 89.3029C32.9551 88.8122 31.9845 88.5669 30.8965 88.5669C29.8085 88.5669 28.8378 88.8122 27.9845 89.3029C27.1311 89.7936 26.4485 90.4869 25.9365 91.3829C25.4245 92.2576 25.1685 93.3029 25.1685 94.5189C25.1685 95.7136 25.4245 96.7696 25.9365 97.6869C26.4485 98.5829 27.1311 99.2762 27.9845 99.7669C28.8378 100.258 29.8085 100.503 30.8965 100.503Z" fill="white"/>
<path d="M1.97656 102.999V86.0391H17.6886V102.999H14.6166V87.9591L15.3526 88.7271H4.31256L5.04856 87.9591V102.999H1.97656Z" fill="white"/>
<path d="M646.651 63.9991V47.0391H649.723V63.9991H646.651ZM637.531 52.7991C639.685 52.8204 641.317 53.3111 642.427 54.2711C643.557 55.2311 644.123 56.5857 644.123 58.3351C644.123 60.1697 643.504 61.5884 642.267 62.5911C641.051 63.5724 639.301 64.0524 637.019 64.0311L629.883 63.9991V47.0391H632.955V52.7671L637.531 52.7991ZM636.795 61.6951C638.16 61.7164 639.205 61.4391 639.931 60.8631C640.656 60.2871 641.019 59.4337 641.019 58.3031C641.019 57.1937 640.656 56.3831 639.931 55.8711C639.227 55.3591 638.181 55.0924 636.795 55.0711L632.955 55.0071V61.6631L636.795 61.6951Z" fill="white"/>
<path d="M618.993 64.1909C617.265 64.1909 615.719 63.8176 614.353 63.0709C613.009 62.3242 611.953 61.3002 611.185 59.9989C610.417 58.6976 610.033 57.2042 610.033 55.5189C610.033 53.8336 610.417 52.3402 611.185 51.0389C611.953 49.7376 613.009 48.7242 614.353 47.9989C615.719 47.2522 617.265 46.8789 618.993 46.8789C620.529 46.8789 621.895 47.1882 623.089 47.8069C624.305 48.4042 625.244 49.3002 625.905 50.4949L623.569 51.9989C623.014 51.1669 622.332 50.5589 621.521 50.1749C620.732 49.7696 619.879 49.5669 618.961 49.5669C617.852 49.5669 616.86 49.8122 615.985 50.3029C615.111 50.7936 614.417 51.4869 613.905 52.3829C613.393 53.2576 613.137 54.3029 613.137 55.5189C613.137 56.7349 613.393 57.7909 613.905 58.6869C614.417 59.5829 615.111 60.2762 615.985 60.7669C616.86 61.2576 617.852 61.5029 618.961 61.5029C619.879 61.5029 620.732 61.3109 621.521 60.9269C622.332 60.5216 623.014 59.9029 623.569 59.0709L625.905 60.5429C625.244 61.7162 624.305 62.6229 623.089 63.2629C621.895 63.8816 620.529 64.1909 618.993 64.1909Z" fill="white"/>
<path d="M598.365 64.1909C596.659 64.1909 595.144 63.8176 593.821 63.0709C592.499 62.3242 591.453 61.3002 590.685 59.9989C589.917 58.6762 589.533 57.1829 589.533 55.5189C589.533 53.8336 589.917 52.3402 590.685 51.0389C591.453 49.7376 592.499 48.7242 593.821 47.9989C595.144 47.2522 596.659 46.8789 598.365 46.8789C600.051 46.8789 601.555 47.2522 602.877 47.9989C604.221 48.7242 605.267 49.7376 606.013 51.0389C606.781 52.3189 607.165 53.8122 607.165 55.5189C607.165 57.2042 606.781 58.6976 606.013 59.9989C605.267 61.3002 604.221 62.3242 602.877 63.0709C601.555 63.8176 600.051 64.1909 598.365 64.1909ZM598.365 61.5029C599.453 61.5029 600.424 61.2576 601.277 60.7669C602.152 60.2762 602.835 59.5829 603.325 58.6869C603.816 57.7696 604.061 56.7136 604.061 55.5189C604.061 54.3029 603.816 53.2576 603.325 52.3829C602.835 51.4869 602.152 50.7936 601.277 50.3029C600.424 49.8122 599.453 49.5669 598.365 49.5669C597.277 49.5669 596.307 49.8122 595.453 50.3029C594.6 50.7936 593.917 51.4869 593.405 52.3829C592.893 53.2576 592.637 54.3029 592.637 55.5189C592.637 56.7136 592.893 57.7696 593.405 58.6869C593.917 59.5829 594.6 60.2762 595.453 60.7669C596.307 61.2576 597.277 61.5029 598.365 61.5029Z" fill="white"/>
<path d="M578.062 64.1909C576.654 64.1909 575.364 63.8709 574.19 63.2309C573.038 62.5696 572.11 61.5989 571.406 60.3189C570.724 59.0389 570.382 57.4389 570.382 55.5189C570.382 53.5989 570.713 51.9989 571.374 50.7189C572.057 49.4389 572.974 48.4789 574.126 47.8389C575.3 47.1989 576.612 46.8789 578.062 46.8789C579.726 46.8789 581.198 47.2416 582.478 47.9669C583.758 48.6922 584.772 49.7056 585.518 51.0069C586.265 52.2869 586.638 53.7909 586.638 55.5189C586.638 57.2469 586.265 58.7616 585.518 60.0629C584.772 61.3642 583.758 62.3776 582.478 63.1029C581.198 63.8282 579.726 64.1909 578.062 64.1909ZM569.07 70.2069V47.0389H572.014V51.6149L571.822 55.5509L572.142 59.4869V70.2069H569.07ZM577.806 61.5029C578.894 61.5029 579.865 61.2576 580.718 60.7669C581.593 60.2762 582.276 59.5829 582.766 58.6869C583.278 57.7696 583.534 56.7136 583.534 55.5189C583.534 54.3029 583.278 53.2576 582.766 52.3829C582.276 51.4869 581.593 50.7936 580.718 50.3029C579.865 49.8122 578.894 49.5669 577.806 49.5669C576.74 49.5669 575.769 49.8122 574.894 50.3029C574.041 50.7936 573.358 51.4869 572.846 52.3829C572.356 53.2576 572.11 54.3029 572.11 55.5189C572.11 56.7136 572.356 57.7696 572.846 58.6869C573.358 59.5829 574.041 60.2762 574.894 60.7669C575.769 61.2576 576.74 61.5029 577.806 61.5029Z" fill="white"/>
<path d="M547.414 63.9991V47.0391H563.126V63.9991H560.054V48.9591L560.79 49.7271H549.75L550.486 48.9591V63.9991H547.414Z" fill="white"/>
<path d="M538.97 63.9989V60.4149L538.81 59.7429V53.6309C538.81 52.3296 538.426 51.3269 537.658 50.6229C536.911 49.8976 535.781 49.5349 534.266 49.5349C533.263 49.5349 532.282 49.7056 531.322 50.0469C530.362 50.3669 529.551 50.8042 528.89 51.3589L527.61 49.0549C528.485 48.3509 529.53 47.8176 530.746 47.4549C531.983 47.0709 533.274 46.8789 534.618 46.8789C536.943 46.8789 538.735 47.4442 539.994 48.5749C541.253 49.7056 541.882 51.4336 541.882 53.7589V63.9989H538.97ZM533.402 64.1909C532.143 64.1909 531.034 63.9776 530.074 63.5509C529.135 63.1242 528.41 62.5376 527.898 61.7909C527.386 61.0229 527.13 60.1589 527.13 59.1989C527.13 58.2816 527.343 57.4496 527.77 56.7029C528.218 55.9562 528.933 55.3589 529.914 54.9109C530.917 54.4629 532.261 54.2389 533.946 54.2389H539.322V56.4469H534.074C532.538 56.4469 531.503 56.7029 530.97 57.2149C530.437 57.7269 530.17 58.3456 530.17 59.0709C530.17 59.9029 530.501 60.5749 531.162 61.0869C531.823 61.5776 532.741 61.8229 533.914 61.8229C535.066 61.8229 536.069 61.5669 536.922 61.0549C537.797 60.5429 538.426 59.7962 538.81 58.8149L539.418 60.9269C539.013 61.9296 538.298 62.7296 537.274 63.3269C536.25 63.9029 534.959 64.1909 533.402 64.1909Z" fill="white"/>
<path d="M516.124 64.223C514.844 64.223 513.585 64.063 512.348 63.743C511.132 63.4017 510.044 62.9217 509.084 62.303L510.012 59.967C510.823 60.479 511.751 60.8843 512.796 61.183C513.841 61.4603 514.897 61.599 515.964 61.599C516.945 61.599 517.788 61.4817 518.492 61.247C519.217 61.0123 519.772 60.6923 520.156 60.287C520.54 59.8603 520.732 59.3697 520.732 58.815C520.732 58.0257 520.38 57.4177 519.676 56.991C518.972 56.5643 517.991 56.351 516.732 56.351H513.66V54.143H516.54C517.287 54.143 517.937 54.0577 518.492 53.887C519.047 53.7163 519.473 53.4603 519.772 53.119C520.092 52.7563 520.252 52.3403 520.252 51.871C520.252 51.359 520.071 50.9217 519.708 50.559C519.345 50.1963 518.833 49.919 518.172 49.727C517.532 49.535 516.775 49.439 515.9 49.439C515.047 49.4603 514.172 49.5777 513.276 49.791C512.401 50.0043 511.505 50.335 510.588 50.783L509.756 48.383C510.78 47.8923 511.783 47.519 512.764 47.263C513.767 46.9857 514.759 46.8363 515.74 46.815C517.212 46.7723 518.524 46.943 519.676 47.327C520.828 47.6897 521.735 48.223 522.396 48.927C523.079 49.631 523.42 50.463 523.42 51.423C523.42 52.2337 523.164 52.959 522.652 53.599C522.14 54.2177 521.457 54.7083 520.604 55.071C519.751 55.4337 518.769 55.615 517.66 55.615L517.788 54.879C519.687 54.879 521.18 55.2523 522.268 55.999C523.356 56.7457 523.9 57.759 523.9 59.039C523.9 60.063 523.559 60.9697 522.876 61.759C522.193 62.527 521.265 63.135 520.092 63.583C518.94 64.0097 517.617 64.223 516.124 64.223Z" fill="white"/>
<path d="M492.004 52.7991C494.159 52.8204 495.801 53.3111 496.932 54.2711C498.063 55.2311 498.628 56.5857 498.628 58.3351C498.628 60.1697 498.009 61.5884 496.772 62.5911C495.535 63.5724 493.785 64.0524 491.524 64.0311L484.164 63.9991V47.0391H487.236V52.7671L492.004 52.7991ZM491.268 61.6951C492.655 61.7164 493.7 61.4391 494.404 60.8631C495.129 60.2871 495.492 59.4337 495.492 58.3031C495.492 57.1937 495.14 56.3831 494.436 55.8711C493.732 55.3591 492.676 55.0924 491.268 55.0711L487.236 55.0071V61.6631L491.268 61.6951Z" fill="white"/>
<path d="M471.742 63.9991V48.9271L472.51 49.7271H465.534V47.0391H481.022V49.7271H474.078L474.814 48.9271V63.9991H471.742Z" fill="white"/>
<path d="M459.939 63.9989V60.4149L459.779 59.7429V53.6309C459.779 52.3296 459.395 51.3269 458.627 50.6229C457.88 49.8976 456.749 49.5349 455.235 49.5349C454.232 49.5349 453.251 49.7056 452.291 50.0469C451.331 50.3669 450.52 50.8042 449.859 51.3589L448.579 49.0549C449.453 48.3509 450.499 47.8176 451.715 47.4549C452.952 47.0709 454.243 46.8789 455.587 46.8789C457.912 46.8789 459.704 47.4442 460.963 48.5749C462.221 49.7056 462.851 51.4336 462.851 53.7589V63.9989H459.939ZM454.371 64.1909C453.112 64.1909 452.003 63.9776 451.043 63.5509C450.104 63.1242 449.379 62.5376 448.867 61.7909C448.355 61.0229 448.099 60.1589 448.099 59.1989C448.099 58.2816 448.312 57.4496 448.739 56.7029C449.187 55.9562 449.901 55.3589 450.883 54.9109C451.885 54.4629 453.229 54.2389 454.915 54.2389H460.291V56.4469H455.043C453.507 56.4469 452.472 56.7029 451.939 57.2149C451.405 57.7269 451.139 58.3456 451.139 59.0709C451.139 59.9029 451.469 60.5749 452.131 61.0869C452.792 61.5776 453.709 61.8229 454.883 61.8229C456.035 61.8229 457.037 61.5669 457.891 61.0549C458.765 60.5429 459.395 59.7962 459.779 58.8149L460.387 60.9269C459.981 61.9296 459.267 62.7296 458.243 63.3269C457.219 63.9029 455.928 64.1909 454.371 64.1909Z" fill="white"/>
<path d="M429.883 63.9991V47.0391H437.755C439.739 47.0391 441.296 47.4231 442.427 48.1911C443.579 48.9377 444.155 50.0044 444.155 51.3911C444.155 52.7777 443.611 53.8551 442.523 54.6231C441.456 55.3697 440.037 55.7431 438.267 55.7431L438.747 54.9111C440.773 54.9111 442.277 55.2844 443.259 56.0311C444.24 56.7777 444.731 57.8764 444.731 59.3271C444.731 60.7991 444.176 61.9511 443.067 62.7831C441.979 63.5937 440.304 63.9991 438.043 63.9991H429.883ZM432.891 61.6311H437.819C439.099 61.6311 440.059 61.4391 440.699 61.0551C441.339 60.6497 441.659 60.0097 441.659 59.1351C441.659 58.2391 441.36 57.5884 440.763 57.1831C440.187 56.7564 439.269 56.5431 438.011 56.5431H432.891V61.6311ZM432.891 54.3351H437.499C438.672 54.3351 439.557 54.1217 440.155 53.6951C440.773 53.2471 441.083 52.6284 441.083 51.8391C441.083 51.0284 440.773 50.4204 440.155 50.0151C439.557 49.6097 438.672 49.4071 437.499 49.4071H432.891V54.3351Z" fill="white"/>
<path d="M416.646 64.1909C414.94 64.1909 413.425 63.8176 412.102 63.0709C410.78 62.3242 409.734 61.3002 408.966 59.9989C408.198 58.6762 407.814 57.1829 407.814 55.5189C407.814 53.8336 408.198 52.3402 408.966 51.0389C409.734 49.7376 410.78 48.7242 412.102 47.9989C413.425 47.2522 414.94 46.8789 416.646 46.8789C418.332 46.8789 419.836 47.2522 421.158 47.9989C422.502 48.7242 423.548 49.7376 424.294 51.0389C425.062 52.3189 425.446 53.8122 425.446 55.5189C425.446 57.2042 425.062 58.6976 424.294 59.9989C423.548 61.3002 422.502 62.3242 421.158 63.0709C419.836 63.8176 418.332 64.1909 416.646 64.1909ZM416.646 61.5029C417.734 61.5029 418.705 61.2576 419.558 60.7669C420.433 60.2762 421.116 59.5829 421.606 58.6869C422.097 57.7696 422.342 56.7136 422.342 55.5189C422.342 54.3029 422.097 53.2576 421.606 52.3829C421.116 51.4869 420.433 50.7936 419.558 50.3029C418.705 49.8122 417.734 49.5669 416.646 49.5669C415.558 49.5669 414.588 49.8122 413.734 50.3029C412.881 50.7936 412.198 51.4869 411.686 52.3829C411.174 53.2576 410.918 54.3029 410.918 55.5189C410.918 56.7136 411.174 57.7696 411.686 58.6869C412.198 59.5829 412.881 60.2762 413.734 60.7669C414.588 61.2576 415.558 61.5029 416.646 61.5029Z" fill="white"/>
<path d="M396.344 64.1909C394.936 64.1909 393.645 63.8709 392.472 63.2309C391.32 62.5696 390.392 61.5989 389.688 60.3189C389.005 59.0389 388.664 57.4389 388.664 55.5189C388.664 53.5989 388.994 51.9989 389.656 50.7189C390.338 49.4389 391.256 48.4789 392.408 47.8389C393.581 47.1989 394.893 46.8789 396.344 46.8789C398.008 46.8789 399.48 47.2416 400.76 47.9669C402.04 48.6922 403.053 49.7056 403.8 51.0069C404.546 52.2869 404.92 53.7909 404.92 55.5189C404.92 57.2469 404.546 58.7616 403.8 60.0629C403.053 61.3642 402.04 62.3776 400.76 63.1029C399.48 63.8282 398.008 64.1909 396.344 64.1909ZM387.352 70.2069V47.0389H390.296V51.6149L390.104 55.5509L390.424 59.4869V70.2069H387.352ZM396.088 61.5029C397.176 61.5029 398.146 61.2576 399 60.7669C399.874 60.2762 400.557 59.5829 401.048 58.6869C401.56 57.7696 401.816 56.7136 401.816 55.5189C401.816 54.3029 401.56 53.2576 401.048 52.3829C400.557 51.4869 399.874 50.7936 399 50.3029C398.146 49.8122 397.176 49.5669 396.088 49.5669C395.021 49.5669 394.05 49.8122 393.176 50.3029C392.322 50.7936 391.64 51.4869 391.128 52.3829C390.637 53.2576 390.392 54.3029 390.392 55.5189C390.392 56.7136 390.637 57.7696 391.128 58.6869C391.64 59.5829 392.322 60.2762 393.176 60.7669C394.05 61.2576 395.021 61.5029 396.088 61.5029Z" fill="white"/>
<path d="M374.93 63.9991V48.9271L375.698 49.7271H368.722V47.0391H384.21V49.7271H377.266L378.002 48.9271V63.9991H374.93Z" fill="white"/>
<path d="M362.66 52.7991C364.815 52.8204 366.458 53.3111 367.588 54.2711C368.719 55.2311 369.284 56.5857 369.284 58.3351C369.284 60.1697 368.666 61.5884 367.428 62.5911C366.191 63.5724 364.442 64.0524 362.18 64.0311L354.82 63.9991V47.0391H357.892V52.7671L362.66 52.7991ZM361.924 61.6951C363.311 61.7164 364.356 61.4391 365.06 60.8631C365.786 60.2871 366.148 59.4337 366.148 58.3031C366.148 57.1937 365.796 56.3831 365.092 55.8711C364.388 55.3591 363.332 55.0924 361.924 55.0711L357.892 55.0071V61.6631L361.924 61.6951Z" fill="white"/>
<path d="M331.504 63.9671L331.696 61.3751C331.845 61.3964 331.984 61.4177 332.112 61.4391C332.24 61.4604 332.357 61.4711 332.464 61.4711C333.147 61.4711 333.68 61.2364 334.064 60.7671C334.469 60.2977 334.768 59.6791 334.96 58.9111C335.152 58.1217 335.291 57.2364 335.376 56.2551C335.461 55.2737 335.525 54.2924 335.568 53.3111L335.856 47.0391H348.88V63.9991H345.808V48.8311L346.544 49.7271H337.84L338.544 48.7991L338.32 53.5031C338.256 54.9964 338.139 56.3937 337.968 57.6951C337.797 58.9964 337.531 60.1377 337.168 61.1191C336.827 62.1004 336.347 62.8684 335.728 63.4231C335.131 63.9777 334.352 64.2551 333.392 64.2551C333.115 64.2551 332.816 64.2231 332.496 64.1591C332.197 64.1164 331.867 64.0524 331.504 63.9671Z" fill="white"/>
<path d="M312.102 63.9991V47.0391H315.174V59.3911L325.574 47.0391H328.358V63.9991H325.286V51.6471L314.918 63.9991H312.102Z" fill="white"/>
<path d="M296.463 64.2559C296.442 64.2559 296.367 64.2559 296.239 64.2559C296.132 64.2559 296.026 64.2559 295.919 64.2559C295.812 64.2559 295.748 64.2559 295.727 64.2559C292.25 64.2132 289.551 63.4452 287.631 61.9519C285.711 60.4372 284.751 58.2825 284.751 55.4879C284.751 52.7145 285.711 50.5919 287.631 49.1199C289.572 47.6265 292.303 46.8692 295.823 46.8479C295.866 46.8479 295.93 46.8479 296.015 46.8479C296.122 46.8479 296.218 46.8479 296.303 46.8479C296.41 46.8479 296.474 46.8479 296.495 46.8479C300.058 46.8479 302.82 47.5945 304.783 49.0879C306.767 50.5812 307.759 52.7145 307.759 55.4879C307.759 58.3039 306.767 60.4692 304.783 61.9839C302.799 63.4985 300.026 64.2559 296.463 64.2559ZM296.399 61.5679C298.255 61.5679 299.791 61.3332 301.007 60.8639C302.244 60.3945 303.172 59.7119 303.791 58.8159C304.41 57.9199 304.719 56.8105 304.719 55.4879C304.719 54.1865 304.41 53.0985 303.791 52.2239C303.172 51.3492 302.244 50.6879 301.007 50.2399C299.791 49.7919 298.255 49.5679 296.399 49.5679C296.356 49.5679 296.271 49.5679 296.143 49.5679C296.015 49.5679 295.94 49.5679 295.919 49.5679C294.106 49.5679 292.591 49.8025 291.375 50.2719C290.18 50.7199 289.284 51.3812 288.687 52.2559C288.09 53.1305 287.791 54.2079 287.791 55.4879C287.791 56.7892 288.09 57.8879 288.687 58.7839C289.306 59.6799 290.212 60.3625 291.407 60.8319C292.623 61.3012 294.127 61.5465 295.919 61.5679C295.962 61.5679 296.036 61.5679 296.143 61.5679C296.271 61.5679 296.356 61.5679 296.399 61.5679ZM294.735 70.2079V40.2559H297.743V70.2079H294.735Z" fill="white"/>
<path d="M265.336 63.9991V48.9271L266.104 49.7271H259.128V47.0391H274.616V49.7271H267.672L268.408 48.9271V63.9991H265.336Z" fill="white"/>
<path d="M250.153 64.1909C248.34 64.1909 246.74 63.8176 245.353 63.0709C243.988 62.3242 242.921 61.3002 242.153 59.9989C241.407 58.6976 241.033 57.2042 241.033 55.5189C241.033 53.8336 241.396 52.3402 242.121 51.0389C242.868 49.7376 243.881 48.7242 245.161 47.9989C246.463 47.2522 247.924 46.8789 249.545 46.8789C251.188 46.8789 252.639 47.2416 253.897 47.9669C255.156 48.6922 256.137 49.7162 256.841 51.0389C257.567 52.3402 257.929 53.8656 257.929 55.6149C257.929 55.7429 257.919 55.8922 257.897 56.0629C257.897 56.2336 257.887 56.3936 257.865 56.5429H243.433V54.3349H256.265L255.017 55.1029C255.039 54.0149 254.815 53.0442 254.345 52.1909C253.876 51.3376 253.225 50.6762 252.393 50.2069C251.583 49.7162 250.633 49.4709 249.545 49.4709C248.479 49.4709 247.529 49.7162 246.697 50.2069C245.865 50.6762 245.215 51.3482 244.745 52.2229C244.276 53.0762 244.041 54.0576 244.041 55.1669V55.6789C244.041 56.8096 244.297 57.8229 244.809 58.7189C245.343 59.5936 246.079 60.2762 247.017 60.7669C247.956 61.2576 249.033 61.5029 250.249 61.5029C251.252 61.5029 252.159 61.3322 252.969 60.9909C253.801 60.6496 254.527 60.1376 255.145 59.4549L256.841 61.4389C256.073 62.3349 255.113 63.0176 253.961 63.4869C252.831 63.9562 251.561 64.1909 250.153 64.1909Z" fill="white"/>
<path d="M236.135 63.9991L230.727 55.7431L233.255 54.2071L239.783 63.9991H236.135ZM227.207 56.8311V54.2071H232.711V56.8311H227.207ZM233.543 55.8711L230.631 55.4871L236.039 47.0391H239.335L233.543 55.8711ZM217.095 63.9991H213.447L219.943 54.2071L222.471 55.7431L217.095 63.9991ZM228.135 63.9991H225.063V47.0391H228.135V63.9991ZM225.991 56.8311H220.519V54.2071H225.991V56.8311ZM219.687 55.8711L213.895 47.0391H217.159L222.567 55.4871L219.687 55.8711Z" fill="white"/>
<path d="M203.334 64.1909C201.627 64.1909 200.113 63.8176 198.79 63.0709C197.467 62.3242 196.422 61.3002 195.654 59.9989C194.886 58.6762 194.502 57.1829 194.502 55.5189C194.502 53.8336 194.886 52.3402 195.654 51.0389C196.422 49.7376 197.467 48.7242 198.79 47.9989C200.113 47.2522 201.627 46.8789 203.334 46.8789C205.019 46.8789 206.523 47.2522 207.846 47.9989C209.19 48.7242 210.235 49.7376 210.982 51.0389C211.75 52.3189 212.134 53.8122 212.134 55.5189C212.134 57.2042 211.75 58.6976 210.982 59.9989C210.235 61.3002 209.19 62.3242 207.846 63.0709C206.523 63.8176 205.019 64.1909 203.334 64.1909ZM203.334 61.5029C204.422 61.5029 205.393 61.2576 206.246 60.7669C207.121 60.2762 207.803 59.5829 208.294 58.6869C208.785 57.7696 209.03 56.7136 209.03 55.5189C209.03 54.3029 208.785 53.2576 208.294 52.3829C207.803 51.4869 207.121 50.7936 206.246 50.3029C205.393 49.8122 204.422 49.5669 203.334 49.5669C202.246 49.5669 201.275 49.8122 200.422 50.3029C199.569 50.7936 198.886 51.4869 198.374 52.3829C197.862 53.2576 197.606 54.3029 197.606 55.5189C197.606 56.7136 197.862 57.7696 198.374 58.6869C198.886 59.5829 199.569 60.2762 200.422 60.7669C201.275 61.2576 202.246 61.5029 203.334 61.5029Z" fill="white"/>
<path d="M170.539 63.9991V47.0391H173.707L181.003 59.5831H179.723L187.211 47.0391H190.091V63.9991H187.307V50.4951L187.819 50.7831L180.971 62.0791H179.627L172.747 50.5591L173.355 50.4311V63.9991H170.539Z" fill="white"/>
<path d="M148.906 64.1909C147.498 64.1909 146.207 63.8709 145.034 63.2309C143.882 62.5696 142.954 61.5989 142.25 60.3189C141.567 59.0389 141.226 57.4389 141.226 55.5189C141.226 53.5989 141.557 51.9989 142.218 50.7189C142.901 49.4389 143.818 48.4789 144.97 47.8389C146.143 47.1989 147.455 46.8789 148.906 46.8789C150.57 46.8789 152.042 47.2416 153.322 47.9669C154.602 48.6922 155.615 49.7056 156.362 51.0069C157.109 52.2869 157.482 53.7909 157.482 55.5189C157.482 57.2469 157.109 58.7616 156.362 60.0629C155.615 61.3642 154.602 62.3776 153.322 63.1029C152.042 63.8282 150.57 64.1909 148.906 64.1909ZM139.914 70.2069V47.0389H142.858V51.6149L142.666 55.5509L142.986 59.4869V70.2069H139.914ZM148.65 61.5029C149.738 61.5029 150.709 61.2576 151.562 60.7669C152.437 60.2762 153.119 59.5829 153.61 58.6869C154.122 57.7696 154.378 56.7136 154.378 55.5189C154.378 54.3029 154.122 53.2576 153.61 52.3829C153.119 51.4869 152.437 50.7936 151.562 50.3029C150.709 49.8122 149.738 49.5669 148.65 49.5669C147.583 49.5669 146.613 49.8122 145.738 50.3029C144.885 50.7936 144.202 51.4869 143.69 52.3829C143.199 53.2576 142.954 54.3029 142.954 55.5189C142.954 56.7136 143.199 57.7696 143.69 58.6869C144.202 59.5829 144.885 60.2762 145.738 60.7669C146.613 61.2576 147.583 61.5029 148.65 61.5029Z" fill="white"/>
<path d="M127.372 64.1909C125.559 64.1909 123.959 63.8176 122.572 63.0709C121.207 62.3242 120.14 61.3002 119.372 59.9989C118.625 58.6976 118.252 57.2042 118.252 55.5189C118.252 53.8336 118.615 52.3402 119.34 51.0389C120.087 49.7376 121.1 48.7242 122.38 47.9989C123.681 47.2522 125.143 46.8789 126.764 46.8789C128.407 46.8789 129.857 47.2416 131.116 47.9669C132.375 48.6922 133.356 49.7162 134.06 51.0389C134.785 52.3402 135.148 53.8656 135.148 55.6149C135.148 55.7429 135.137 55.8922 135.116 56.0629C135.116 56.2336 135.105 56.3936 135.084 56.5429H120.652V54.3349H133.484L132.236 55.1029C132.257 54.0149 132.033 53.0442 131.564 52.1909C131.095 51.3376 130.444 50.6762 129.612 50.2069C128.801 49.7162 127.852 49.4709 126.764 49.4709C125.697 49.4709 124.748 49.7162 123.916 50.2069C123.084 50.6762 122.433 51.3482 121.964 52.2229C121.495 53.0762 121.26 54.0576 121.26 55.1669V55.6789C121.26 56.8096 121.516 57.8229 122.028 58.7189C122.561 59.5936 123.297 60.2762 124.236 60.7669C125.175 61.2576 126.252 61.5029 127.468 61.5029C128.471 61.5029 129.377 61.3322 130.188 60.9909C131.02 60.6496 131.745 60.1376 132.364 59.4549L134.06 61.4389C133.292 62.3349 132.332 63.0176 131.18 63.4869C130.049 63.9562 128.78 64.1909 127.372 64.1909Z" fill="white"/>
<path d="M108.148 63.9991V48.9271L108.916 49.7271H101.94V47.0391H117.428V49.7271H110.484L111.22 48.9271V63.9991H108.148Z" fill="white"/>
<path d="M83.0078 63.9991V47.0391H86.0798V54.2391H95.7438V47.0391H98.8158V63.9991H95.7438V56.8951H86.0798V63.9991H83.0078Z" fill="white"/>
<path d="M69.7715 64.1909C68.0648 64.1909 66.5501 63.8176 65.2275 63.0709C63.9048 62.3242 62.8595 61.3002 62.0915 59.9989C61.3235 58.6762 60.9395 57.1829 60.9395 55.5189C60.9395 53.8336 61.3235 52.3402 62.0915 51.0389C62.8595 49.7376 63.9048 48.7242 65.2275 47.9989C66.5501 47.2522 68.0648 46.8789 69.7715 46.8789C71.4568 46.8789 72.9608 47.2522 74.2835 47.9989C75.6275 48.7242 76.6728 49.7376 77.4195 51.0389C78.1875 52.3189 78.5715 53.8122 78.5715 55.5189C78.5715 57.2042 78.1875 58.6976 77.4195 59.9989C76.6728 61.3002 75.6275 62.3242 74.2835 63.0709C72.9608 63.8176 71.4568 64.1909 69.7715 64.1909ZM69.7715 61.5029C70.8595 61.5029 71.8301 61.2576 72.6835 60.7669C73.5581 60.2762 74.2408 59.5829 74.7314 58.6869C75.2221 57.7696 75.4675 56.7136 75.4675 55.5189C75.4675 54.3029 75.2221 53.2576 74.7314 52.3829C74.2408 51.4869 73.5581 50.7936 72.6835 50.3029C71.8301 49.8122 70.8595 49.5669 69.7715 49.5669C68.6835 49.5669 67.7128 49.8122 66.8595 50.3029C66.0061 50.7936 65.3235 51.4869 64.8115 52.3829C64.2995 53.2576 64.0435 54.3029 64.0435 55.5189C64.0435 56.7136 64.2995 57.7696 64.8115 58.6869C65.3235 59.5829 66.0061 60.2762 66.8595 60.7669C67.7128 61.2576 68.6835 61.5029 69.7715 61.5029Z" fill="white"/>
<path d="M39.1914 63.9671L39.3834 61.3751C39.5327 61.3964 39.6714 61.4177 39.7994 61.4391C39.9274 61.4604 40.0447 61.4711 40.1514 61.4711C40.8341 61.4711 41.3674 61.2364 41.7514 60.7671C42.1567 60.2977 42.4554 59.6791 42.6474 58.9111C42.8394 58.1217 42.9781 57.2364 43.0634 56.2551C43.1487 55.2737 43.2127 54.2924 43.2554 53.3111L43.5434 47.0391H56.5674V63.9991H53.4954V48.8311L54.2314 49.7271H45.5274L46.2314 48.7991L46.0074 53.5031C45.9434 54.9964 45.8261 56.3937 45.6554 57.6951C45.4847 58.9964 45.2181 60.1377 44.8554 61.1191C44.5141 62.1004 44.0341 62.8684 43.4154 63.4231C42.8181 63.9777 42.0394 64.2551 41.0794 64.2551C40.8021 64.2551 40.5034 64.2231 40.1834 64.1591C39.8847 64.1164 39.5541 64.0524 39.1914 63.9671Z" fill="white"/>
<path d="M28.8965 64.1909C27.1898 64.1909 25.6751 63.8176 24.3525 63.0709C23.0298 62.3242 21.9845 61.3002 21.2165 59.9989C20.4485 58.6762 20.0645 57.1829 20.0645 55.5189C20.0645 53.8336 20.4485 52.3402 21.2165 51.0389C21.9845 49.7376 23.0298 48.7242 24.3525 47.9989C25.6751 47.2522 27.1898 46.8789 28.8965 46.8789C30.5818 46.8789 32.0858 47.2522 33.4085 47.9989C34.7525 48.7242 35.7978 49.7376 36.5445 51.0389C37.3125 52.3189 37.6965 53.8122 37.6965 55.5189C37.6965 57.2042 37.3125 58.6976 36.5445 59.9989C35.7978 61.3002 34.7525 62.3242 33.4085 63.0709C32.0858 63.8176 30.5818 64.1909 28.8965 64.1909ZM28.8965 61.5029C29.9845 61.5029 30.9551 61.2576 31.8085 60.7669C32.6831 60.2762 33.3658 59.5829 33.8565 58.6869C34.3471 57.7696 34.5925 56.7136 34.5925 55.5189C34.5925 54.3029 34.3471 53.2576 33.8565 52.3829C33.3658 51.4869 32.6831 50.7936 31.8085 50.3029C30.9551 49.8122 29.9845 49.5669 28.8965 49.5669C27.8085 49.5669 26.8378 49.8122 25.9845 50.3029C25.1311 50.7936 24.4485 51.4869 23.9365 52.3829C23.4245 53.2576 23.1685 54.3029 23.1685 55.5189C23.1685 56.7136 23.4245 57.7696 23.9365 58.6869C24.4485 59.5829 25.1311 60.2762 25.9845 60.7669C26.8378 61.2576 27.8085 61.5029 28.8965 61.5029Z" fill="white"/>
<path d="M1.97656 63.9991V47.0391H9.84856C11.8326 47.0391 13.3899 47.4231 14.5206 48.1911C15.6726 48.9377 16.2486 50.0044 16.2486 51.3911C16.2486 52.7777 15.7046 53.8551 14.6166 54.6231C13.5499 55.3697 12.1312 55.7431 10.3606 55.7431L10.8406 54.9111C12.8672 54.9111 14.3712 55.2844 15.3526 56.0311C16.3339 56.7777 16.8246 57.8764 16.8246 59.3271C16.8246 60.7991 16.2699 61.9511 15.1606 62.7831C14.0726 63.5937 12.3979 63.9991 10.1366 63.9991H1.97656ZM4.98456 61.6311H9.91256C11.1926 61.6311 12.1526 61.4391 12.7926 61.0551C13.4326 60.6497 13.7526 60.0097 13.7526 59.1351C13.7526 58.2391 13.4539 57.5884 12.8566 57.1831C12.2806 56.7564 11.3632 56.5431 10.1046 56.5431H4.98456V61.6311ZM4.98456 54.3351H9.59256C10.7659 54.3351 11.6512 54.1217 12.2486 53.6951C12.8672 53.2471 13.1766 52.6284 13.1766 51.8391C13.1766 51.0284 12.8672 50.4204 12.2486 50.0151C11.6512 49.6097 10.7659 49.4071 9.59256 49.4071H4.98456V54.3351Z" fill="white"/>
<path d="M607.759 29.7366L609.359 23.2726L609.775 25.1286C609.156 25.1286 608.633 24.9366 608.207 24.5526C607.801 24.1686 607.599 23.6459 607.599 22.9846C607.599 22.3446 607.801 21.8219 608.207 21.4166C608.633 21.0113 609.145 20.8086 609.743 20.8086C610.361 20.8086 610.863 21.0219 611.247 21.4486C611.631 21.8539 611.823 22.3659 611.823 22.9846C611.823 23.1979 611.801 23.4113 611.759 23.6246C611.737 23.8166 611.684 24.0513 611.599 24.3286C611.535 24.5846 611.428 24.9046 611.279 25.2886L609.775 29.7366H607.759Z" fill="white"/>
<path d="M600.595 24.9989V21.4149L600.435 20.7429V14.6309C600.435 13.3296 600.051 12.3269 599.283 11.6229C598.536 10.8976 597.406 10.5349 595.891 10.5349C594.888 10.5349 593.907 10.7056 592.947 11.0469C591.987 11.3669 591.176 11.8042 590.515 12.3589L589.235 10.0549C590.11 9.35091 591.155 8.81758 592.371 8.45491C593.608 8.07091 594.899 7.87891 596.243 7.87891C598.568 7.87891 600.36 8.44424 601.619 9.57491C602.878 10.7056 603.507 12.4336 603.507 14.7589V24.9989H600.595ZM595.027 25.1909C593.768 25.1909 592.659 24.9776 591.699 24.5509C590.76 24.1242 590.035 23.5376 589.523 22.7909C589.011 22.0229 588.755 21.1589 588.755 20.1989C588.755 19.2816 588.968 18.4496 589.395 17.7029C589.843 16.9562 590.558 16.3589 591.539 15.9109C592.542 15.4629 593.886 15.2389 595.571 15.2389H600.947V17.4469H595.699C594.163 17.4469 593.128 17.7029 592.595 18.2149C592.062 18.7269 591.795 19.3456 591.795 20.0709C591.795 20.9029 592.126 21.5749 592.787 22.0869C593.448 22.5776 594.366 22.8229 595.539 22.8229C596.691 22.8229 597.694 22.5669 598.547 22.0549C599.422 21.5429 600.051 20.7962 600.435 19.8149L601.043 21.9269C600.638 22.9296 599.923 23.7296 598.899 24.3269C597.875 24.9029 596.584 25.1909 595.027 25.1909Z" fill="white"/>
<path d="M583.671 24.9991L577.111 16.7431L579.639 15.2071L587.287 24.9991H583.671ZM571.383 24.9991V8.03906H574.455V24.9991H571.383ZM573.527 17.8311V15.2071H579.127V17.8311H573.527ZM579.895 16.8711L577.047 16.4871L583.543 8.03906H586.839L579.895 16.8711Z" fill="white"/>
<path d="M560.493 25.1909C558.765 25.1909 557.219 24.8176 555.853 24.0709C554.509 23.3242 553.453 22.3002 552.685 20.9989C551.917 19.6976 551.533 18.2042 551.533 16.5189C551.533 14.8336 551.917 13.3402 552.685 12.0389C553.453 10.7376 554.509 9.72424 555.853 8.99891C557.219 8.25224 558.765 7.87891 560.493 7.87891C562.029 7.87891 563.395 8.18824 564.589 8.80691C565.805 9.40424 566.744 10.3002 567.405 11.4949L565.069 12.9989C564.514 12.1669 563.832 11.5589 563.021 11.1749C562.232 10.7696 561.379 10.5669 560.461 10.5669C559.352 10.5669 558.36 10.8122 557.485 11.3029C556.611 11.7936 555.917 12.4869 555.405 13.3829C554.893 14.2576 554.637 15.3029 554.637 16.5189C554.637 17.7349 554.893 18.7909 555.405 19.6869C555.917 20.5829 556.611 21.2762 557.485 21.7669C558.36 22.2576 559.352 22.5029 560.461 22.5029C561.379 22.5029 562.232 22.3109 563.021 21.9269C563.832 21.5216 564.514 20.9029 565.069 20.0709L567.405 21.5429C566.744 22.7162 565.805 23.6229 564.589 24.2629C563.395 24.8816 562.029 25.1909 560.493 25.1909Z" fill="white"/>
<path d="M530.883 24.9991V8.03906H533.955V20.3911L544.355 8.03906H547.139V24.9991H544.067V12.6471L533.699 24.9991H530.883Z" fill="white"/>
<path d="M517.646 25.1909C515.94 25.1909 514.425 24.8176 513.102 24.0709C511.78 23.3242 510.734 22.3002 509.966 20.9989C509.198 19.6762 508.814 18.1829 508.814 16.5189C508.814 14.8336 509.198 13.3402 509.966 12.0389C510.734 10.7376 511.78 9.72424 513.102 8.99891C514.425 8.25224 515.94 7.87891 517.646 7.87891C519.332 7.87891 520.836 8.25224 522.158 8.99891C523.502 9.72424 524.548 10.7376 525.294 12.0389C526.062 13.3189 526.446 14.8122 526.446 16.5189C526.446 18.2042 526.062 19.6976 525.294 20.9989C524.548 22.3002 523.502 23.3242 522.158 24.0709C520.836 24.8176 519.332 25.1909 517.646 25.1909ZM517.646 22.5029C518.734 22.5029 519.705 22.2576 520.558 21.7669C521.433 21.2762 522.116 20.5829 522.606 19.6869C523.097 18.7696 523.342 17.7136 523.342 16.5189C523.342 15.3029 523.097 14.2576 522.606 13.3829C522.116 12.4869 521.433 11.7936 520.558 11.3029C519.705 10.8122 518.734 10.5669 517.646 10.5669C516.558 10.5669 515.588 10.8122 514.734 11.3029C513.881 11.7936 513.198 12.4869 512.686 13.3829C512.174 14.2576 511.918 15.3029 511.918 16.5189C511.918 17.7136 512.174 18.7696 512.686 19.6869C513.198 20.5829 513.881 21.2762 514.734 21.7669C515.588 22.2576 516.558 22.5029 517.646 22.5029Z" fill="white"/>
<path d="M488.727 24.9991V8.03906H504.439V24.9991H501.367V9.95906L502.103 10.7271H491.063L491.799 9.95906V24.9991H488.727Z" fill="white"/>
<path d="M467.591 25.1909C465.777 25.1909 464.177 24.8176 462.791 24.0709C461.425 23.3242 460.359 22.3002 459.591 20.9989C458.844 19.6976 458.471 18.2042 458.471 16.5189C458.471 14.8336 458.833 13.3402 459.559 12.0389C460.305 10.7376 461.319 9.72424 462.599 8.99891C463.9 8.25224 465.361 7.87891 466.983 7.87891C468.625 7.87891 470.076 8.24157 471.335 8.96691C472.593 9.69224 473.575 10.7162 474.279 12.0389C475.004 13.3402 475.367 14.8656 475.367 16.6149C475.367 16.7429 475.356 16.8922 475.335 17.0629C475.335 17.2336 475.324 17.3936 475.303 17.5429H460.871V15.3349H473.703L472.455 16.1029C472.476 15.0149 472.252 14.0442 471.783 13.1909C471.313 12.3376 470.663 11.6762 469.831 11.2069C469.02 10.7162 468.071 10.4709 466.983 10.4709C465.916 10.4709 464.967 10.7162 464.135 11.2069C463.303 11.6762 462.652 12.3482 462.183 13.2229C461.713 14.0762 461.479 15.0576 461.479 16.1669V16.6789C461.479 17.8096 461.735 18.8229 462.247 19.7189C462.78 20.5936 463.516 21.2762 464.455 21.7669C465.393 22.2576 466.471 22.5029 467.687 22.5029C468.689 22.5029 469.596 22.3322 470.407 21.9909C471.239 21.6496 471.964 21.1376 472.583 20.4549L474.279 22.4389C473.511 23.3349 472.551 24.0176 471.399 24.4869C470.268 24.9562 468.999 25.1909 467.591 25.1909Z" fill="white"/>
<path d="M434.508 24.9991V8.03906H437.676L444.972 20.5831H443.692L451.18 8.03906H454.06V24.9991H451.276V11.4951L451.788 11.7831L444.94 23.0791H443.596L436.716 11.5591L437.324 11.4311V24.9991H434.508Z" fill="white"/>
<path d="M421.966 25.1909C420.152 25.1909 418.552 24.8176 417.166 24.0709C415.8 23.3242 414.734 22.3002 413.966 20.9989C413.219 19.6976 412.846 18.2042 412.846 16.5189C412.846 14.8336 413.208 13.3402 413.934 12.0389C414.68 10.7376 415.694 9.72424 416.974 8.99891C418.275 8.25224 419.736 7.87891 421.358 7.87891C423 7.87891 424.451 8.24157 425.71 8.96691C426.968 9.69224 427.95 10.7162 428.654 12.0389C429.379 13.3402 429.742 14.8656 429.742 16.6149C429.742 16.7429 429.731 16.8922 429.71 17.0629C429.71 17.2336 429.699 17.3936 429.678 17.5429H415.246V15.3349H428.078L426.83 16.1029C426.851 15.0149 426.627 14.0442 426.158 13.1909C425.688 12.3376 425.038 11.6762 424.206 11.2069C423.395 10.7162 422.446 10.4709 421.358 10.4709C420.291 10.4709 419.342 10.7162 418.51 11.2069C417.678 11.6762 417.027 12.3482 416.558 13.2229C416.088 14.0762 415.854 15.0576 415.854 16.1669V16.6789C415.854 17.8096 416.11 18.8229 416.622 19.7189C417.155 20.5936 417.891 21.2762 418.83 21.7669C419.768 22.2576 420.846 22.5029 422.062 22.5029C423.064 22.5029 423.971 22.3322 424.782 21.9909C425.614 21.6496 426.339 21.1376 426.958 20.4549L428.654 22.4389C427.886 23.3349 426.926 24.0176 425.774 24.4869C424.643 24.9562 423.374 25.1909 421.966 25.1909Z" fill="white"/>
<path d="M402.742 24.9991V9.92706L403.51 10.7271H396.534V8.03906H412.022V10.7271H405.078L405.814 9.92706V24.9991H402.742Z" fill="white"/>
<path d="M388.712 25.1909C386.984 25.1909 385.437 24.8176 384.072 24.0709C382.728 23.3242 381.672 22.3002 380.904 20.9989C380.136 19.6976 379.752 18.2042 379.752 16.5189C379.752 14.8336 380.136 13.3402 380.904 12.0389C381.672 10.7376 382.728 9.72424 384.072 8.99891C385.437 8.25224 386.984 7.87891 388.712 7.87891C390.248 7.87891 391.613 8.18824 392.808 8.80691C394.024 9.40424 394.963 10.3002 395.624 11.4949L393.288 12.9989C392.733 12.1669 392.051 11.5589 391.24 11.1749C390.451 10.7696 389.597 10.5669 388.68 10.5669C387.571 10.5669 386.579 10.8122 385.704 11.3029C384.829 11.7936 384.136 12.4869 383.624 13.3829C383.112 14.2576 382.856 15.3029 382.856 16.5189C382.856 17.7349 383.112 18.7909 383.624 19.6869C384.136 20.5829 384.829 21.2762 385.704 21.7669C386.579 22.2576 387.571 22.5029 388.68 22.5029C389.597 22.5029 390.451 22.3109 391.24 21.9269C392.051 21.5216 392.733 20.9029 393.288 20.0709L395.624 21.5429C394.963 22.7162 394.024 23.6229 392.808 24.2629C391.613 24.8816 390.248 25.1909 388.712 25.1909Z" fill="white"/>
<path d="M359.102 24.9991V8.03906H362.174V20.3911L372.574 8.03906H375.358V24.9991H372.286V12.6471L361.918 24.9991H359.102Z" fill="white"/>
<path d="M348.212 25.1909C346.484 25.1909 344.937 24.8176 343.572 24.0709C342.228 23.3242 341.172 22.3002 340.404 20.9989C339.636 19.6976 339.252 18.2042 339.252 16.5189C339.252 14.8336 339.636 13.3402 340.404 12.0389C341.172 10.7376 342.228 9.72424 343.572 8.99891C344.937 8.25224 346.484 7.87891 348.212 7.87891C349.748 7.87891 351.113 8.18824 352.308 8.80691C353.524 9.40424 354.463 10.3002 355.124 11.4949L352.788 12.9989C352.233 12.1669 351.551 11.5589 350.74 11.1749C349.951 10.7696 349.097 10.5669 348.18 10.5669C347.071 10.5669 346.079 10.8122 345.204 11.3029C344.329 11.7936 343.636 12.4869 343.124 13.3829C342.612 14.2576 342.356 15.3029 342.356 16.5189C342.356 17.7349 342.612 18.7909 343.124 19.6869C343.636 20.5829 344.329 21.2762 345.204 21.7669C346.079 22.2576 347.071 22.5029 348.18 22.5029C349.097 22.5029 349.951 22.3109 350.74 21.9269C351.551 21.5216 352.233 20.9029 352.788 20.0709L355.124 21.5429C354.463 22.7162 353.524 23.6229 352.308 24.2629C351.113 24.8816 349.748 25.1909 348.212 25.1909Z" fill="white"/>
<path d="M310.008 25V8.04002H313.08V20.392L323.48 8.04002H326.264V25H323.192V12.648L312.824 25H310.008ZM317.944 5.83202C316.386 5.83202 315.16 5.45868 314.264 4.71201C313.389 3.94401 312.941 2.84535 312.92 1.41602H315C315.021 2.22668 315.288 2.86668 315.8 3.33601C316.333 3.80535 317.037 4.04002 317.912 4.04002C318.786 4.04002 319.49 3.80535 320.024 3.33601C320.557 2.86668 320.834 2.22668 320.856 1.41602H323C322.978 2.84535 322.52 3.94401 321.624 4.71201C320.728 5.45868 319.501 5.83202 317.944 5.83202Z" fill="white"/>
<path d="M296.771 25.1909C295.065 25.1909 293.55 24.8176 292.227 24.0709C290.905 23.3242 289.859 22.3002 289.091 20.9989C288.323 19.6762 287.939 18.1829 287.939 16.5189C287.939 14.8336 288.323 13.3402 289.091 12.0389C289.859 10.7376 290.905 9.72424 292.227 8.99891C293.55 8.25224 295.065 7.87891 296.771 7.87891C298.457 7.87891 299.961 8.25224 301.283 8.99891C302.627 9.72424 303.673 10.7376 304.419 12.0389C305.187 13.3189 305.571 14.8122 305.571 16.5189C305.571 18.2042 305.187 19.6976 304.419 20.9989C303.673 22.3002 302.627 23.3242 301.283 24.0709C299.961 24.8176 298.457 25.1909 296.771 25.1909ZM296.771 22.5029C297.859 22.5029 298.83 22.2576 299.683 21.7669C300.558 21.2762 301.241 20.5829 301.731 19.6869C302.222 18.7696 302.467 17.7136 302.467 16.5189C302.467 15.3029 302.222 14.2576 301.731 13.3829C301.241 12.4869 300.558 11.7936 299.683 11.3029C298.83 10.8122 297.859 10.5669 296.771 10.5669C295.683 10.5669 294.713 10.8122 293.859 11.3029C293.006 11.7936 292.323 12.4869 291.811 13.3829C291.299 14.2576 291.043 15.3029 291.043 16.5189C291.043 17.7136 291.299 18.7696 291.811 19.6869C292.323 20.5829 293.006 21.2762 293.859 21.7669C294.713 22.2576 295.683 22.5029 296.771 22.5029Z" fill="white"/>
<path d="M267.727 24.9991V8.03906H270.799V15.2391H280.463V8.03906H283.535V24.9991H280.463V17.8951H270.799V24.9991H267.727Z" fill="white"/>
<path d="M254.379 25.2561C252.971 25.2561 251.723 25.0321 250.635 24.5841C249.568 24.1361 248.651 23.4748 247.883 22.6001C247.115 21.7041 246.528 20.5841 246.123 19.2401C245.739 17.8748 245.547 16.2748 245.547 14.4401C245.547 12.9895 245.675 11.6881 245.931 10.5361C246.187 9.38414 246.55 8.36014 247.019 7.46414C247.51 6.56814 248.107 5.78947 248.811 5.12814C249.536 4.46681 250.347 3.92281 251.243 3.49614C252.16 3.04814 253.163 2.70681 254.251 2.47214L261.995 0.744141L262.443 3.59214L255.307 5.12814C254.88 5.21347 254.368 5.34148 253.771 5.51214C253.174 5.68281 252.566 5.94947 251.947 6.31214C251.328 6.65347 250.752 7.13347 250.219 7.75214C249.686 8.37081 249.259 9.18147 248.939 10.1841C248.619 11.1655 248.459 12.3815 248.459 13.8321C248.459 14.2375 248.47 14.5468 248.491 14.7601C248.512 14.9735 248.534 15.1868 248.555 15.4001C248.598 15.6135 248.63 15.9335 248.651 16.3601L247.371 15.0481C247.712 13.8748 248.256 12.8508 249.003 11.9761C249.75 11.1015 250.646 10.4295 251.691 9.96014C252.758 9.46947 253.92 9.22414 255.179 9.22414C256.758 9.22414 258.155 9.56548 259.371 10.2481C260.608 10.9308 261.579 11.8695 262.283 13.0641C262.987 14.2588 263.339 15.6241 263.339 17.1601C263.339 18.7175 262.966 20.1148 262.219 21.3521C261.494 22.5681 260.459 23.5281 259.115 24.2321C257.771 24.9148 256.192 25.2561 254.379 25.2561ZM254.667 22.6961C255.755 22.6961 256.715 22.4615 257.547 21.9921C258.379 21.5015 259.03 20.8508 259.499 20.0401C259.968 19.2081 260.203 18.2801 260.203 17.2561C260.203 16.2321 259.968 15.3255 259.499 14.5361C259.03 13.7468 258.379 13.1281 257.547 12.6801C256.715 12.2108 255.734 11.9761 254.603 11.9761C253.536 11.9761 252.576 12.2001 251.723 12.6481C250.87 13.0748 250.208 13.6828 249.739 14.4721C249.27 15.2401 249.035 16.1361 249.035 17.1601C249.035 18.1841 249.27 19.1228 249.739 19.9761C250.23 20.8081 250.891 21.4695 251.723 21.9601C252.576 22.4508 253.558 22.6961 254.667 22.6961Z" fill="white"/>
<path d="M233.303 25.1909C231.596 25.1909 230.081 24.8176 228.759 24.0709C227.436 23.3242 226.391 22.3002 225.623 20.9989C224.855 19.6762 224.471 18.1829 224.471 16.5189C224.471 14.8336 224.855 13.3402 225.623 12.0389C226.391 10.7376 227.436 9.72424 228.759 8.99891C230.081 8.25224 231.596 7.87891 233.303 7.87891C234.988 7.87891 236.492 8.25224 237.815 8.99891C239.159 9.72424 240.204 10.7376 240.951 12.0389C241.719 13.3189 242.103 14.8122 242.103 16.5189C242.103 18.2042 241.719 19.6976 240.951 20.9989C240.204 22.3002 239.159 23.3242 237.815 24.0709C236.492 24.8176 234.988 25.1909 233.303 25.1909ZM233.303 22.5029C234.391 22.5029 235.361 22.2576 236.215 21.7669C237.089 21.2762 237.772 20.5829 238.263 19.6869C238.753 18.7696 238.999 17.7136 238.999 16.5189C238.999 15.3029 238.753 14.2576 238.263 13.3829C237.772 12.4869 237.089 11.7936 236.215 11.3029C235.361 10.8122 234.391 10.5669 233.303 10.5669C232.215 10.5669 231.244 10.8122 230.391 11.3029C229.537 11.7936 228.855 12.4869 228.343 13.3829C227.831 14.2576 227.575 15.3029 227.575 16.5189C227.575 17.7136 227.831 18.7696 228.343 19.6869C228.855 20.5829 229.537 21.2762 230.391 21.7669C231.244 22.2576 232.215 22.5029 233.303 22.5029Z" fill="white"/>
<path d="M216.372 23.5591V10.7271H209.012L208.852 13.9911C208.81 15.0577 208.735 16.0924 208.628 17.0951C208.543 18.0764 208.394 18.9831 208.18 19.8151C207.988 20.6471 207.7 21.3297 207.316 21.8631C206.932 22.3964 206.42 22.7271 205.78 22.8551L202.74 22.3111C203.402 22.3324 203.935 22.1191 204.34 21.6711C204.746 21.2017 205.055 20.5617 205.268 19.7511C205.503 18.9404 205.674 18.0231 205.78 16.9991C205.887 15.9537 205.972 14.8764 206.036 13.7671L206.292 8.03906H219.444V23.5591H216.372ZM202.068 28.9351V22.3111H222.036V28.9351H219.156V24.9991H204.98V28.9351H202.068Z" fill="white"/>
<path d="M188.247 31.3991C187.436 31.3991 186.647 31.2604 185.879 30.9831C185.111 30.7271 184.449 30.3431 183.895 29.8311L185.207 27.5271C185.633 27.9324 186.103 28.2417 186.615 28.4551C187.127 28.6684 187.671 28.7751 188.247 28.7751C188.993 28.7751 189.612 28.5831 190.103 28.1991C190.593 27.8151 191.052 27.1324 191.479 26.1511L192.535 23.8151L192.855 23.4311L199.511 8.03906H202.519L194.295 26.6951C193.804 27.8897 193.249 28.8284 192.631 29.5111C192.033 30.1937 191.372 30.6737 190.647 30.9511C189.921 31.2497 189.121 31.3991 188.247 31.3991ZM192.279 25.5431L184.535 8.03906H187.735L194.327 23.1431L192.279 25.5431Z" fill="white"/>
<path d="M170.043 24.9991V19.0471L170.523 19.6231H165.115C162.854 19.6231 161.083 19.1431 159.803 18.1831C158.544 17.2231 157.915 15.8257 157.915 13.9911C157.915 12.0284 158.587 10.5457 159.931 9.54306C161.296 8.54039 163.11 8.03906 165.371 8.03906H172.795V24.9991H170.043ZM157.755 24.9991L162.363 18.5031H165.531L161.051 24.9991H157.755ZM170.043 18.0871V9.86306L170.523 10.7271H165.467C164.059 10.7271 162.971 10.9937 162.203 11.5271C161.435 12.0391 161.051 12.8924 161.051 14.0871C161.051 16.3057 162.48 17.4151 165.339 17.4151H170.523L170.043 18.0871Z" fill="white"/>
<path d="M146.719 25.1909C145.311 25.1909 144.02 24.8709 142.847 24.2309C141.695 23.5696 140.767 22.5989 140.063 21.3189C139.38 20.0389 139.039 18.4389 139.039 16.5189C139.039 14.5989 139.369 12.9989 140.031 11.7189C140.713 10.4389 141.631 9.47891 142.783 8.83891C143.956 8.19891 145.268 7.87891 146.719 7.87891C148.383 7.87891 149.855 8.24157 151.135 8.96691C152.415 9.69224 153.428 10.7056 154.175 12.0069C154.921 13.2869 155.295 14.7909 155.295 16.5189C155.295 18.2469 154.921 19.7616 154.175 21.0629C153.428 22.3642 152.415 23.3776 151.135 24.1029C149.855 24.8282 148.383 25.1909 146.719 25.1909ZM137.727 31.2069V8.03891H140.671V12.6149L140.479 16.5509L140.799 20.4869V31.2069H137.727ZM146.463 22.5029C147.551 22.5029 148.521 22.2576 149.375 21.7669C150.249 21.2762 150.932 20.5829 151.423 19.6869C151.935 18.7696 152.191 17.7136 152.191 16.5189C152.191 15.3029 151.935 14.2576 151.423 13.3829C150.932 12.4869 150.249 11.7936 149.375 11.3029C148.521 10.8122 147.551 10.5669 146.463 10.5669C145.396 10.5669 144.425 10.8122 143.551 11.3029C142.697 11.7936 142.015 12.4869 141.503 13.3829C141.012 14.2576 140.767 15.3029 140.767 16.5189C140.767 17.7136 141.012 18.7696 141.503 19.6869C142.015 20.5829 142.697 21.2762 143.551 21.7669C144.425 22.2576 145.396 22.5029 146.463 22.5029Z" fill="white"/>
<path d="M129.282 24.9989V21.4149L129.122 20.7429V14.6309C129.122 13.3296 128.738 12.3269 127.97 11.6229C127.224 10.8976 126.093 10.5349 124.578 10.5349C123.576 10.5349 122.594 10.7056 121.634 11.0469C120.674 11.3669 119.864 11.8042 119.202 12.3589L117.922 10.0549C118.797 9.35091 119.842 8.81758 121.058 8.45491C122.296 8.07091 123.586 7.87891 124.93 7.87891C127.256 7.87891 129.048 8.44424 130.306 9.57491C131.565 10.7056 132.194 12.4336 132.194 14.7589V24.9989H129.282ZM123.714 25.1909C122.456 25.1909 121.346 24.9776 120.386 24.5509C119.448 24.1242 118.722 23.5376 118.21 22.7909C117.698 22.0229 117.442 21.1589 117.442 20.1989C117.442 19.2816 117.656 18.4496 118.082 17.7029C118.53 16.9562 119.245 16.3589 120.226 15.9109C121.229 15.4629 122.573 15.2389 124.258 15.2389H129.634V17.4469H124.386C122.85 17.4469 121.816 17.7029 121.282 18.2149C120.749 18.7269 120.482 19.3456 120.482 20.0709C120.482 20.9029 120.813 21.5749 121.474 22.0869C122.136 22.5776 123.053 22.8229 124.226 22.8229C125.378 22.8229 126.381 22.5669 127.234 22.0549C128.109 21.5429 128.738 20.7962 129.122 19.8149L129.73 21.9269C129.325 22.9296 128.61 23.7296 127.586 24.3269C126.562 24.9029 125.272 25.1909 123.714 25.1909Z" fill="white"/>
<path d="M109.216 23.5591V10.7271H101.856L101.696 13.9911C101.653 15.0577 101.579 16.0924 101.472 17.0951C101.387 18.0764 101.237 18.9831 101.024 19.8151C100.832 20.6471 100.544 21.3297 100.16 21.8631C99.7761 22.3964 99.2641 22.7271 98.6241 22.8551L95.5841 22.3111C96.2454 22.3324 96.7788 22.1191 97.1841 21.6711C97.5894 21.2017 97.8988 20.5617 98.1121 19.7511C98.3468 18.9404 98.5174 18.0231 98.6241 16.9991C98.7308 15.9537 98.8161 14.8764 98.8801 13.7671L99.1361 8.03906H112.288V23.5591H109.216ZM94.9121 28.9351V22.3111H114.88V28.9351H112V24.9991H97.8241V28.9351H94.9121Z" fill="white"/>
<path d="M84.5215 25.1909C82.8148 25.1909 81.3001 24.8176 79.9775 24.0709C78.6548 23.3242 77.6095 22.3002 76.8415 20.9989C76.0735 19.6762 75.6895 18.1829 75.6895 16.5189C75.6895 14.8336 76.0735 13.3402 76.8415 12.0389C77.6095 10.7376 78.6548 9.72424 79.9775 8.99891C81.3001 8.25224 82.8148 7.87891 84.5215 7.87891C86.2068 7.87891 87.7108 8.25224 89.0335 8.99891C90.3775 9.72424 91.4228 10.7376 92.1695 12.0389C92.9375 13.3189 93.3215 14.8122 93.3215 16.5189C93.3215 18.2042 92.9375 19.6976 92.1695 20.9989C91.4228 22.3002 90.3775 23.3242 89.0335 24.0709C87.7108 24.8176 86.2068 25.1909 84.5215 25.1909ZM84.5215 22.5029C85.6095 22.5029 86.5801 22.2576 87.4335 21.7669C88.3081 21.2762 88.9908 20.5829 89.4815 19.6869C89.9721 18.7696 90.2175 17.7136 90.2175 16.5189C90.2175 15.3029 89.9721 14.2576 89.4815 13.3829C88.9908 12.4869 88.3081 11.7936 87.4335 11.3029C86.5801 10.8122 85.6095 10.5669 84.5215 10.5669C83.4335 10.5669 82.4628 10.8122 81.6095 11.3029C80.7561 11.7936 80.0735 12.4869 79.5615 13.3829C79.0495 14.2576 78.7935 15.3029 78.7935 16.5189C78.7935 17.7136 79.0495 18.7696 79.5615 19.6869C80.0735 20.5829 80.7561 21.2762 81.6095 21.7669C82.4628 22.2576 83.4335 22.5029 84.5215 22.5029Z" fill="white"/>
<path d="M62.3828 24.9991V8.03906H74.8628V10.7271H64.7188L65.4548 10.0231V24.9991H62.3828Z" fill="white"/>
<path d="M53.9386 24.9989V21.4149L53.7786 20.7429V14.6309C53.7786 13.3296 53.3946 12.3269 52.6266 11.6229C51.88 10.8976 50.7493 10.5349 49.2346 10.5349C48.232 10.5349 47.2506 10.7056 46.2906 11.0469C45.3306 11.3669 44.52 11.8042 43.8586 12.3589L42.5786 10.0549C43.4533 9.35091 44.4986 8.81758 45.7146 8.45491C46.952 8.07091 48.2426 7.87891 49.5866 7.87891C51.912 7.87891 53.704 8.44424 54.9626 9.57491C56.2213 10.7056 56.8506 12.4336 56.8506 14.7589V24.9989H53.9386ZM48.3706 25.1909C47.112 25.1909 46.0026 24.9776 45.0426 24.5509C44.104 24.1242 43.3786 23.5376 42.8666 22.7909C42.3546 22.0229 42.0986 21.1589 42.0986 20.1989C42.0986 19.2816 42.312 18.4496 42.7386 17.7029C43.1866 16.9562 43.9013 16.3589 44.8826 15.9109C45.8853 15.4629 47.2293 15.2389 48.9146 15.2389H54.2906V17.4469H49.0426C47.5066 17.4469 46.472 17.7029 45.9386 18.2149C45.4053 18.7269 45.1386 19.3456 45.1386 20.0709C45.1386 20.9029 45.4693 21.5749 46.1306 22.0869C46.792 22.5776 47.7093 22.8229 48.8826 22.8229C50.0346 22.8229 51.0373 22.5669 51.8906 22.0549C52.7653 21.5429 53.3946 20.7962 53.7786 19.8149L54.3866 21.9269C53.9813 22.9296 53.2666 23.7296 52.2426 24.3269C51.2186 24.9029 49.928 25.1909 48.3706 25.1909Z" fill="white"/>
<path d="M20.2227 24.9671L20.4147 22.3751C20.564 22.3964 20.7027 22.4177 20.8307 22.4391C20.9587 22.4604 21.076 22.4711 21.1827 22.4711C21.8653 22.4711 22.3987 22.2364 22.7827 21.7671C23.188 21.2977 23.4867 20.6791 23.6787 19.9111C23.8707 19.1217 24.0093 18.2364 24.0947 17.2551C24.18 16.2737 24.244 15.2924 24.2867 14.3111L24.5747 8.03906H37.5987V24.9991H34.5267V9.83106L35.2627 10.7271H26.5587L27.2627 9.79906L27.0387 14.5031C26.9747 15.9964 26.8573 17.3937 26.6867 18.6951C26.516 19.9964 26.2493 21.1377 25.8867 22.1191C25.5453 23.1004 25.0653 23.8684 24.4467 24.4231C23.8493 24.9777 23.0707 25.2551 22.1107 25.2551C21.8333 25.2551 21.5347 25.2231 21.2147 25.1591C20.916 25.1164 20.5853 25.0524 20.2227 24.9671Z" fill="white"/>
<path d="M9.81638 25.2561C8.40838 25.2561 7.16038 25.0321 6.07238 24.5841C5.00571 24.1361 4.08837 23.4748 3.32037 22.6001C2.55238 21.7041 1.96571 20.5841 1.56038 19.2401C1.17638 17.8748 0.984375 16.2748 0.984375 14.4401C0.984375 12.9895 1.11237 11.6881 1.36837 10.5361C1.62437 9.38414 1.98704 8.36014 2.45638 7.46414C2.94704 6.56814 3.54438 5.78947 4.24837 5.12814C4.97371 4.46681 5.78438 3.92281 6.68038 3.49614C7.59771 3.04814 8.60038 2.70681 9.68838 2.47214L17.4324 0.744141L17.8804 3.59214L10.7444 5.12814C10.3177 5.21347 9.80571 5.34148 9.20837 5.51214C8.61104 5.68281 8.00304 5.94947 7.38438 6.31214C6.76571 6.65347 6.18971 7.13347 5.65637 7.75214C5.12304 8.37081 4.69638 9.18147 4.37638 10.1841C4.05638 11.1655 3.89638 12.3815 3.89638 13.8321C3.89638 14.2375 3.90704 14.5468 3.92838 14.7601C3.94971 14.9735 3.97104 15.1868 3.99237 15.4001C4.03504 15.6135 4.06704 15.9335 4.08838 16.3601L2.80838 15.0481C3.14971 13.8748 3.69371 12.8508 4.44037 11.9761C5.18704 11.1015 6.08304 10.4295 7.12838 9.96014C8.19504 9.46947 9.35771 9.22414 10.6164 9.22414C12.195 9.22414 13.5924 9.56548 14.8084 10.2481C16.0457 10.9308 17.0164 11.8695 17.7204 13.0641C18.4244 14.2588 18.7764 15.6241 18.7764 17.1601C18.7764 18.7175 18.403 20.1148 17.6564 21.3521C16.931 22.5681 15.8964 23.5281 14.5524 24.2321C13.2084 24.9148 11.6297 25.2561 9.81638 25.2561ZM10.1044 22.6961C11.1924 22.6961 12.1524 22.4615 12.9844 21.9921C13.8164 21.5015 14.467 20.8508 14.9364 20.0401C15.4057 19.2081 15.6404 18.2801 15.6404 17.2561C15.6404 16.2321 15.4057 15.3255 14.9364 14.5361C14.467 13.7468 13.8164 13.1281 12.9844 12.6801C12.1524 12.2108 11.171 11.9761 10.0404 11.9761C8.97371 11.9761 8.01371 12.2001 7.16038 12.6481C6.30704 13.0748 5.64571 13.6828 5.17637 14.4721C4.70704 15.2401 4.47237 16.1361 4.47237 17.1601C4.47237 18.1841 4.70704 19.1228 5.17637 19.9761C5.66704 20.8081 6.32838 21.4695 7.16038 21.9601C8.01371 22.4508 8.99504 22.6961 10.1044 22.6961Z" fill="white"/>
</svg>
