<svg width="324" height="100" viewBox="0 0 324 100" fill="none" xmlns="http://www.w3.org/2000/svg">
<path d="M259.564 93.0032V76.4492H263.439V87.3612L272.584 76.4492H276.118V93.0032H272.243V82.0912L263.129 93.0032H259.564Z" fill="white"/>
<path d="M234.589 93.0032V76.4492H238.65L245.315 88.1982H243.703L250.709 76.4492H254.336L254.367 93.0032H250.864V80.6032L251.484 81.0062L245.284 91.2672H243.61L237.379 80.7272L238.123 80.5412V93.0032H234.589Z" fill="white"/>
<path d="M226.136 93.0017V89.6537L225.919 88.9407V83.0817C225.919 81.9451 225.578 81.0667 224.896 80.4467C224.214 79.806 223.18 79.4857 221.796 79.4857C220.866 79.4857 219.946 79.6304 219.037 79.9197C218.148 80.2091 217.394 80.6121 216.774 81.1287L215.255 78.3077C216.143 77.6257 217.197 77.1194 218.417 76.7887C219.657 76.4374 220.938 76.2617 222.261 76.2617C224.658 76.2617 226.508 76.8404 227.81 77.9977C229.132 79.1344 229.794 80.9014 229.794 83.2987V93.0017H226.136ZM220.928 93.2187C219.688 93.2187 218.603 93.0121 217.673 92.5987C216.743 92.1647 216.019 91.5757 215.503 90.8317C215.007 90.0671 214.759 89.2094 214.759 88.2587C214.759 87.3287 214.976 86.4917 215.41 85.7477C215.864 85.0037 216.598 84.4147 217.611 83.9807C218.623 83.5467 219.967 83.3297 221.641 83.3297H226.446V85.9027H221.92C220.597 85.9027 219.708 86.1197 219.254 86.5537C218.799 86.9671 218.572 87.4837 218.572 88.1037C218.572 88.8064 218.851 89.3644 219.409 89.7777C219.967 90.1911 220.742 90.3977 221.734 90.3977C222.684 90.3977 223.532 90.1807 224.276 89.7467C225.04 89.3127 225.588 88.6721 225.919 87.8247L226.57 90.1497C226.198 91.1211 225.526 91.8754 224.555 92.4127C223.604 92.9501 222.395 93.2187 220.928 93.2187Z" fill="white"/>
<path d="M209.104 93.0032L203.121 85.0672L206.283 83.1142L213.661 93.0032H209.104ZM197.231 93.0032V76.4492H201.106V93.0032H197.231ZM199.959 86.3692V83.1452H205.57V86.3692H199.959ZM206.655 85.1912L203.028 84.7572L209.104 76.4492H213.258L206.655 85.1912Z" fill="white"/>
<path d="M176.131 93.0032V76.4492H192.003V93.0032H188.159V78.8362L189.058 79.7352H179.107L180.006 78.8362V93.0032H176.131Z" fill="white"/>
<path d="M159.304 99.2342C158.498 99.2342 157.692 99.0999 156.886 98.8312C156.08 98.5626 155.408 98.1906 154.871 97.7152L156.421 94.8632C156.814 95.2146 157.258 95.4936 157.754 95.7002C158.25 95.9069 158.756 96.0102 159.273 96.0102C159.976 96.0102 160.544 95.8345 160.978 95.4832C161.412 95.1319 161.815 94.5429 162.187 93.7162L163.148 91.5462L163.458 91.0812L169.72 76.4492H173.44L165.69 94.3362C165.173 95.5762 164.595 96.5579 163.954 97.2812C163.334 98.0046 162.631 98.5109 161.846 98.8002C161.081 99.0896 160.234 99.2342 159.304 99.2342ZM162.714 93.5922L155.243 76.4492H159.273L165.349 90.7402L162.714 93.5922Z" fill="white"/>
<path d="M145.303 93.0032V78.8052L146.202 79.7352H139.475V76.4492H154.975V79.7352H148.279L149.178 78.8052V93.0032H145.303Z" fill="white"/>
<path d="M131.503 93.2187C129.767 93.2187 128.217 92.8571 126.853 92.1337C125.51 91.3897 124.456 90.3771 123.691 89.0957C122.926 87.8144 122.544 86.3574 122.544 84.7247C122.544 83.0714 122.926 81.6144 123.691 80.3537C124.456 79.0724 125.51 78.0701 126.853 77.3467C128.217 76.6234 129.767 76.2617 131.503 76.2617C133.115 76.2617 134.531 76.5924 135.75 77.2537C136.99 77.8944 137.93 78.8451 138.571 80.1057L135.595 81.8417C135.099 81.0564 134.489 80.4777 133.766 80.1057C133.063 79.7337 132.299 79.5477 131.472 79.5477C130.521 79.5477 129.664 79.7544 128.899 80.1677C128.134 80.5811 127.535 81.1804 127.101 81.9657C126.667 82.7304 126.45 83.65 126.45 84.7247C126.45 85.7994 126.667 86.7294 127.101 87.5147C127.535 88.2794 128.134 88.8684 128.899 89.2817C129.664 89.6951 130.521 89.9017 131.472 89.9017C132.299 89.9017 133.063 89.7157 133.766 89.3437C134.489 88.9717 135.099 88.3931 135.595 87.6077L138.571 89.3437C137.93 90.5837 136.99 91.5447 135.75 92.2267C134.531 92.8881 133.115 93.2187 131.503 93.2187Z" fill="white"/>
<path d="M111.307 93.2187C109.612 93.2187 108.104 92.8571 106.781 92.1337C105.458 91.3897 104.415 90.3771 103.65 89.0957C102.885 87.8144 102.503 86.3574 102.503 84.7247C102.503 83.0714 102.885 81.6144 103.65 80.3537C104.415 79.0724 105.458 78.0701 106.781 77.3467C108.104 76.6234 109.612 76.2617 111.307 76.2617C113.022 76.2617 114.541 76.6234 115.864 77.3467C117.207 78.0701 118.251 79.0621 118.995 80.3227C119.76 81.5834 120.142 83.0507 120.142 84.7247C120.142 86.3574 119.76 87.8144 118.995 89.0957C118.251 90.3771 117.207 91.3897 115.864 92.1337C114.541 92.8571 113.022 93.2187 111.307 93.2187ZM111.307 89.9017C112.258 89.9017 113.105 89.6951 113.849 89.2817C114.593 88.8684 115.172 88.2691 115.585 87.4837C116.019 86.6984 116.236 85.7787 116.236 84.7247C116.236 83.65 116.019 82.7304 115.585 81.9657C115.172 81.1804 114.593 80.5811 113.849 80.1677C113.105 79.7544 112.268 79.5477 111.338 79.5477C110.387 79.5477 109.54 79.7544 108.796 80.1677C108.073 80.5811 107.494 81.1804 107.06 81.9657C106.626 82.7304 106.409 83.65 106.409 84.7247C106.409 85.7787 106.626 86.6984 107.06 87.4837C107.494 88.2691 108.073 88.8684 108.796 89.2817C109.54 89.6951 110.377 89.9017 111.307 89.9017Z" fill="white"/>
<path d="M82.8281 93.0032V76.4492H98.7001V93.0032H94.8561V78.8362L95.7551 79.7352H85.8041L86.7031 78.8362V93.0032H82.8281Z" fill="white"/>
<path d="M52.4941 93.0032V76.4492H56.3691V87.3612L65.5141 76.4492H69.0481V93.0032H65.1731V82.0912L56.0591 93.0032H52.4941Z" fill="white"/>
<path d="M31.264 93.2187C29.5693 93.2187 28.0606 92.8571 26.738 92.1337C25.4153 91.3897 24.3716 90.3771 23.607 89.0957C22.8423 87.8144 22.46 86.3574 22.46 84.7247C22.46 83.0714 22.8423 81.6144 23.607 80.3537C24.3716 79.0724 25.4153 78.0701 26.738 77.3467C28.0606 76.6234 29.5693 76.2617 31.264 76.2617C32.9793 76.2617 34.4983 76.6234 35.821 77.3467C37.1643 78.0701 38.208 79.0621 38.952 80.3227C39.7166 81.5834 40.099 83.0507 40.099 84.7247C40.099 86.3574 39.7166 87.8144 38.952 89.0957C38.208 90.3771 37.1643 91.3897 35.821 92.1337C34.4983 92.8571 32.9793 93.2187 31.264 93.2187ZM31.264 89.9017C32.2146 89.9017 33.062 89.6951 33.806 89.2817C34.55 88.8684 35.1286 88.2691 35.542 87.4837C35.976 86.6984 36.193 85.7787 36.193 84.7247C36.193 83.65 35.976 82.7304 35.542 81.9657C35.1286 81.1804 34.55 80.5811 33.806 80.1677C33.062 79.7544 32.225 79.5477 31.295 79.5477C30.3443 79.5477 29.497 79.7544 28.753 80.1677C28.0296 80.5811 27.451 81.1804 27.017 81.9657C26.583 82.7304 26.366 83.65 26.366 84.7247C26.366 85.7787 26.583 86.6984 27.017 87.4837C27.451 88.2691 28.0296 88.8684 28.753 89.2817C29.497 89.6951 30.334 89.9017 31.264 89.9017Z" fill="white"/>
<path d="M2.60352 93.0032V76.4492H6.47852V83.1762H14.8175V76.4492H18.6925V93.0032H14.8175V86.4622H6.47852V93.0032H2.60352Z" fill="white"/>
<path d="M314.001 59.6842L315.799 52.8332L316.326 55.1272C315.603 55.1272 314.993 54.9102 314.497 54.4762C314.022 54.0216 313.784 53.4119 313.784 52.6472C313.784 51.8619 314.022 51.2419 314.497 50.7872C314.993 50.3119 315.592 50.0742 316.295 50.0742C317.018 50.0742 317.618 50.3119 318.093 50.7872C318.569 51.2625 318.806 51.8826 318.806 52.6472C318.806 52.8539 318.786 53.0812 318.744 53.3292C318.703 53.5565 318.631 53.8252 318.527 54.1352C318.445 54.4452 318.3 54.8379 318.093 55.3132L316.512 59.6842H314.001Z" fill="white"/>
<path d="M293.319 55.0032V38.4492H297.194V49.3612L306.339 38.4492H309.873V55.0032H305.998V44.0912L296.884 55.0032H293.319Z" fill="white"/>
<path d="M268.344 55.0032V38.4492H272.405L279.07 50.1982H277.458L284.464 38.4492H288.091L288.122 55.0032H284.619V42.6032L285.239 43.0062L279.039 53.2672H277.365L271.134 42.7272L271.878 42.5412V55.0032H268.344Z" fill="white"/>
<path d="M259.891 55.0017V51.6537L259.674 50.9407V45.0817C259.674 43.9451 259.333 43.0667 258.651 42.4467C257.969 41.806 256.935 41.4857 255.551 41.4857C254.621 41.4857 253.701 41.6304 252.792 41.9197C251.903 42.209 251.149 42.612 250.529 43.1287L249.01 40.3077C249.898 39.6257 250.952 39.1194 252.172 38.7887C253.412 38.4374 254.693 38.2617 256.016 38.2617C258.413 38.2617 260.263 38.8404 261.565 39.9977C262.887 41.1344 263.549 42.9014 263.549 45.2987V55.0017H259.891ZM254.683 55.2187C253.443 55.2187 252.358 55.0121 251.428 54.5987C250.498 54.1647 249.774 53.5757 249.258 52.8317C248.762 52.0671 248.514 51.2094 248.514 50.2587C248.514 49.3287 248.731 48.4917 249.165 47.7477C249.619 47.0037 250.353 46.4147 251.366 45.9807C252.378 45.5467 253.722 45.3297 255.396 45.3297H260.201V47.9027H255.675C254.352 47.9027 253.463 48.1197 253.009 48.5537C252.554 48.9671 252.327 49.4837 252.327 50.1037C252.327 50.8064 252.606 51.3644 253.164 51.7777C253.722 52.1911 254.497 52.3977 255.489 52.3977C256.439 52.3977 257.287 52.1807 258.031 51.7467C258.795 51.3127 259.343 50.672 259.674 49.8247L260.325 52.1497C259.953 53.1211 259.281 53.8754 258.31 54.4127C257.359 54.9501 256.15 55.2187 254.683 55.2187Z" fill="white"/>
<path d="M239.367 55.2187C237.631 55.2187 236.081 54.8571 234.717 54.1337C233.374 53.3897 232.32 52.3771 231.555 51.0957C230.791 49.8144 230.408 48.3574 230.408 46.7247C230.408 45.0714 230.791 43.6144 231.555 42.3537C232.32 41.0724 233.374 40.0701 234.717 39.3467C236.081 38.6234 237.631 38.2617 239.367 38.2617C240.979 38.2617 242.395 38.5924 243.614 39.2537C244.854 39.8944 245.795 40.845 246.435 42.1057L243.459 43.8417C242.963 43.0564 242.354 42.4777 241.63 42.1057C240.928 41.7337 240.163 41.5477 239.336 41.5477C238.386 41.5477 237.528 41.7544 236.763 42.1677C235.999 42.5811 235.399 43.1804 234.965 43.9657C234.531 44.7304 234.314 45.65 234.314 46.7247C234.314 47.7994 234.531 48.7294 234.965 49.5147C235.399 50.2794 235.999 50.8684 236.763 51.2817C237.528 51.695 238.386 51.9017 239.336 51.9017C240.163 51.9017 240.928 51.7157 241.63 51.3437C242.354 50.9717 242.963 50.3931 243.459 49.6077L246.435 51.3437C245.795 52.5837 244.854 53.5447 243.614 54.2267C242.395 54.888 240.979 55.2187 239.367 55.2187Z" fill="white"/>
<path d="M210.552 55.0032V38.4492H214.427V45.1762H222.766V38.4492H226.641V55.0032H222.766V48.4622H214.427V55.0032H210.552Z" fill="white"/>
<path d="M202.099 55.0017V51.6537L201.882 50.9407V45.0817C201.882 43.9451 201.541 43.0667 200.859 42.4467C200.177 41.806 199.143 41.4857 197.759 41.4857C196.829 41.4857 195.909 41.6304 195 41.9197C194.111 42.209 193.357 42.612 192.737 43.1287L191.218 40.3077C192.106 39.6257 193.16 39.1194 194.38 38.7887C195.62 38.4374 196.901 38.2617 198.224 38.2617C200.621 38.2617 202.471 38.8404 203.773 39.9977C205.095 41.1344 205.757 42.9014 205.757 45.2987V55.0017H202.099ZM196.891 55.2187C195.651 55.2187 194.566 55.0121 193.636 54.5987C192.706 54.1647 191.982 53.5757 191.466 52.8317C190.97 52.0671 190.722 51.2094 190.722 50.2587C190.722 49.3287 190.939 48.4917 191.373 47.7477C191.827 47.0037 192.561 46.4147 193.574 45.9807C194.586 45.5467 195.93 45.3297 197.604 45.3297H202.409V47.9027H197.883C196.56 47.9027 195.671 48.1197 195.217 48.5537C194.762 48.9671 194.535 49.4837 194.535 50.1037C194.535 50.8064 194.814 51.3644 195.372 51.7777C195.93 52.1911 196.705 52.3977 197.697 52.3977C198.647 52.3977 199.495 52.1807 200.239 51.7467C201.003 51.3127 201.551 50.672 201.882 49.8247L202.533 52.1497C202.161 53.1211 201.489 53.8754 200.518 54.4127C199.567 54.9501 198.358 55.2187 196.891 55.2187Z" fill="white"/>
<path d="M170.772 55.0032V38.4492H174.647V45.1762H182.986V38.4492H186.861V55.0032H182.986V48.4622H174.647V55.0032H170.772Z" fill="white"/>
<path d="M149.006 55.0032V38.4492H152.881V49.3612L162.026 38.4492H165.56V55.0032H161.685V44.0912L152.571 55.0032H149.006Z" fill="white"/>
<path d="M133.873 55.312C133.853 55.312 133.76 55.312 133.594 55.312C133.45 55.312 133.305 55.312 133.16 55.312C133.036 55.312 132.954 55.312 132.912 55.312C129.42 55.2707 126.712 54.5163 124.79 53.049C122.868 51.561 121.907 49.4427 121.907 46.694C121.907 43.966 122.868 41.8787 124.79 40.432C126.712 38.9853 129.451 38.2413 133.005 38.2C133.047 38.2 133.129 38.2 133.253 38.2C133.398 38.2 133.532 38.2 133.656 38.2C133.801 38.2 133.884 38.2 133.904 38.2C137.48 38.2 140.259 38.9337 142.243 40.401C144.248 41.8477 145.25 43.9453 145.25 46.694C145.25 49.4633 144.248 51.592 142.243 53.08C140.259 54.568 137.469 55.312 133.873 55.312ZM133.749 52.088C135.506 52.088 136.953 51.8917 138.089 51.499C139.226 51.0857 140.073 50.4863 140.631 49.701C141.189 48.895 141.468 47.8927 141.468 46.694C141.468 45.516 141.189 44.5447 140.631 43.78C140.073 42.9947 139.226 42.416 138.089 42.044C136.953 41.6513 135.506 41.455 133.749 41.455C133.708 41.455 133.605 41.455 133.439 41.455C133.295 41.455 133.202 41.455 133.16 41.455C131.445 41.455 130.04 41.6617 128.944 42.075C127.849 42.4677 127.033 43.0463 126.495 43.811C125.979 44.5757 125.72 45.5367 125.72 46.694C125.72 47.872 125.979 48.8537 126.495 49.639C127.033 50.4243 127.849 51.0237 128.944 51.437C130.06 51.8503 131.466 52.0673 133.16 52.088C133.202 52.088 133.295 52.088 133.439 52.088C133.605 52.088 133.708 52.088 133.749 52.088ZM131.734 61.016V32H135.392V61.016H131.734Z" fill="white"/>
<path d="M102.134 55.2187C100.439 55.2187 98.9307 54.8571 97.6081 54.1337C96.2854 53.3897 95.2417 52.3771 94.4771 51.0957C93.7124 49.8144 93.3301 48.3574 93.3301 46.7247C93.3301 45.0714 93.7124 43.6144 94.4771 42.3537C95.2417 41.0724 96.2854 40.0701 97.6081 39.3467C98.9307 38.6234 100.439 38.2617 102.134 38.2617C103.849 38.2617 105.368 38.6234 106.691 39.3467C108.034 40.0701 109.078 41.062 109.822 42.3227C110.587 43.5834 110.969 45.0507 110.969 46.7247C110.969 48.3574 110.587 49.8144 109.822 51.0957C109.078 52.3771 108.034 53.3897 106.691 54.1337C105.368 54.8571 103.849 55.2187 102.134 55.2187ZM102.134 51.9017C103.085 51.9017 103.932 51.695 104.676 51.2817C105.42 50.8684 105.999 50.2691 106.412 49.4837C106.846 48.6984 107.063 47.7787 107.063 46.7247C107.063 45.65 106.846 44.7304 106.412 43.9657C105.999 43.1804 105.42 42.5811 104.676 42.1677C103.932 41.7544 103.095 41.5477 102.165 41.5477C101.214 41.5477 100.367 41.7544 99.6231 42.1677C98.8997 42.5811 98.3211 43.1804 97.8871 43.9657C97.4531 44.7304 97.2361 45.65 97.2361 46.7247C97.2361 47.7787 97.4531 48.6984 97.8871 49.4837C98.3211 50.2691 98.8997 50.8684 99.6231 51.2817C100.367 51.695 101.204 51.9017 102.134 51.9017Z" fill="white"/>
<path d="M88.0107 55.0032L82.0277 47.0672L85.1897 45.1142L92.5677 55.0032H88.0107ZM76.1377 55.0032V38.4492H80.0127V55.0032H76.1377ZM78.8657 48.3692V45.1452H84.4767V48.3692H78.8657ZM85.5617 47.1912L81.9347 46.7572L88.0107 38.4492H92.1647L85.5617 47.1912Z" fill="white"/>
<path d="M66.1908 43.9052C68.3195 43.9052 69.9418 44.3806 71.0578 45.3312C72.1738 46.2819 72.7318 47.6252 72.7318 49.3612C72.7318 51.1592 72.1118 52.5646 70.8718 53.5772C69.6318 54.5692 67.8855 55.0549 65.6328 55.0342L57.8828 55.0032V38.4492H61.7578V43.8742L66.1908 43.9052ZM65.2918 52.1822C66.4285 52.2029 67.2965 51.9652 67.8958 51.4692C68.4951 50.9732 68.7948 50.2499 68.7948 49.2992C68.7948 48.3486 68.4951 47.6666 67.8958 47.2532C67.3171 46.8192 66.4491 46.5919 65.2918 46.5712L61.7578 46.5402V52.1512L65.2918 52.1822Z" fill="white"/>
<path d="M35.2422 54.9722L35.4282 51.7172C35.5729 51.7379 35.7072 51.7586 35.8312 51.7792C35.9552 51.7999 36.0689 51.8102 36.1722 51.8102C36.8129 51.8102 37.3089 51.6139 37.6602 51.2212C38.0115 50.8286 38.2699 50.3016 38.4352 49.6402C38.6212 48.9582 38.7452 48.2039 38.8072 47.3772C38.8899 46.5299 38.9519 45.6826 38.9932 44.8352L39.2722 38.4492H52.6642V55.0032H48.7892V40.6812L49.6882 41.7352H41.8142L42.6512 40.6502L42.4342 45.0212C42.3722 46.4886 42.2482 47.8526 42.0622 49.1132C41.8969 50.3532 41.6282 51.4382 41.2562 52.3682C40.9049 53.2982 40.4089 54.0216 39.7682 54.5382C39.1482 55.0549 38.3525 55.3132 37.3812 55.3132C37.0712 55.3132 36.7302 55.2822 36.3582 55.2202C36.0069 55.1582 35.6349 55.0756 35.2422 54.9722Z" fill="white"/>
<path d="M25.179 55.2187C23.4843 55.2187 21.9757 54.8571 20.653 54.1337C19.3303 53.3897 18.2867 52.3771 17.522 51.0957C16.7573 49.8144 16.375 48.3574 16.375 46.7247C16.375 45.0714 16.7573 43.6144 17.522 42.3537C18.2867 41.0724 19.3303 40.0701 20.653 39.3467C21.9757 38.6234 23.4843 38.2617 25.179 38.2617C26.8943 38.2617 28.4133 38.6234 29.736 39.3467C31.0793 40.0701 32.123 41.062 32.867 42.3227C33.6317 43.5834 34.014 45.0507 34.014 46.7247C34.014 48.3574 33.6317 49.8144 32.867 51.0957C32.123 52.3771 31.0793 53.3897 29.736 54.1337C28.4133 54.8571 26.8943 55.2187 25.179 55.2187ZM25.179 51.9017C26.1297 51.9017 26.977 51.695 27.721 51.2817C28.465 50.8684 29.0437 50.2691 29.457 49.4837C29.891 48.6984 30.108 47.7787 30.108 46.7247C30.108 45.65 29.891 44.7304 29.457 43.9657C29.0437 43.1804 28.465 42.5811 27.721 42.1677C26.977 41.7544 26.14 41.5477 25.21 41.5477C24.2593 41.5477 23.412 41.7544 22.668 42.1677C21.9447 42.5811 21.366 43.1804 20.932 43.9657C20.498 44.7304 20.281 45.65 20.281 46.7247C20.281 47.7787 20.498 48.6984 20.932 49.4837C21.366 50.2691 21.9447 50.8684 22.668 51.2817C23.412 51.695 24.249 51.9017 25.179 51.9017Z" fill="white"/>
<path d="M6.0448 55.0032V40.8052L6.9438 41.7352H0.216797V38.4492H15.7168V41.7352H9.0208L9.9198 40.8052V55.0032H6.0448Z" fill="white"/>
<path d="M316.145 17.2187C314.306 17.2187 312.694 16.8571 311.309 16.1337C309.945 15.3897 308.881 14.3771 308.116 13.0957C307.372 11.8144 307 10.3574 307 8.72472C307 7.07138 307.362 5.61438 308.085 4.35371C308.829 3.07238 309.842 2.07005 311.123 1.34672C312.425 0.623384 313.903 0.261719 315.556 0.261719C317.168 0.261719 318.604 0.613046 319.865 1.31571C321.126 2.01838 322.118 3.01038 322.841 4.29172C323.564 5.57305 323.926 7.08172 323.926 8.81772C323.926 8.98305 323.916 9.16905 323.895 9.37572C323.895 9.58238 323.885 9.77871 323.864 9.96471H310.069V7.39172H321.818L320.299 8.19772C320.32 7.24705 320.123 6.41005 319.71 5.68671C319.297 4.96338 318.728 4.39505 318.005 3.98171C317.302 3.56838 316.486 3.36172 315.556 3.36172C314.605 3.36172 313.768 3.56838 313.045 3.98171C312.342 4.39505 311.784 4.97371 311.371 5.71771C310.978 6.44105 310.782 7.29872 310.782 8.29072V8.91071C310.782 9.90271 311.009 10.781 311.464 11.5457C311.919 12.3104 312.559 12.8994 313.386 13.3127C314.213 13.726 315.163 13.9327 316.238 13.9327C317.168 13.9327 318.005 13.7881 318.749 13.4987C319.493 13.2094 320.154 12.7547 320.733 12.1347L322.81 14.5217C322.066 15.3897 321.126 16.0614 319.989 16.5367C318.873 16.9914 317.592 17.2187 316.145 17.2187Z" fill="white"/>
<path d="M287.144 17.0032V0.449219H291.019V7.17622H299.358V0.449219H303.233V17.0032H299.358V10.4622H291.019V17.0032H287.144Z" fill="white"/>
<path d="M265.913 17.2187C264.219 17.2187 262.71 16.8571 261.387 16.1337C260.065 15.3897 259.021 14.3771 258.256 13.0957C257.492 11.8144 257.109 10.3574 257.109 8.72472C257.109 7.07138 257.492 5.61438 258.256 4.35371C259.021 3.07238 260.065 2.07005 261.387 1.34672C262.71 0.623384 264.219 0.261719 265.913 0.261719C267.629 0.261719 269.148 0.623384 270.47 1.34672C271.814 2.07005 272.857 3.06205 273.601 4.32272C274.366 5.58338 274.748 7.05072 274.748 8.72472C274.748 10.3574 274.366 11.8144 273.601 13.0957C272.857 14.3771 271.814 15.3897 270.47 16.1337C269.148 16.8571 267.629 17.2187 265.913 17.2187ZM265.913 13.9017C266.864 13.9017 267.711 13.695 268.455 13.2817C269.199 12.8684 269.778 12.2691 270.191 11.4837C270.625 10.6984 270.842 9.77872 270.842 8.72472C270.842 7.65005 270.625 6.73038 270.191 5.96571C269.778 5.18038 269.199 4.58105 268.455 4.16772C267.711 3.75438 266.874 3.54771 265.944 3.54771C264.994 3.54771 264.146 3.75438 263.402 4.16772C262.679 4.58105 262.1 5.18038 261.666 5.96571C261.232 6.73038 261.015 7.65005 261.015 8.72472C261.015 9.77872 261.232 10.6984 261.666 11.4837C262.1 12.2691 262.679 12.8684 263.402 13.2817C264.146 13.695 264.983 13.9017 265.913 13.9017Z" fill="white"/>
<path d="M237.253 17.0032V0.449219H241.128V7.17622H249.467V0.449219H253.342V17.0032H249.467V10.4622H241.128V17.0032H237.253Z" fill="white"/>
<path d="M229.754 17.0032L224.918 9.06722L228.08 7.11422L234.373 17.0032H229.754ZM221.787 10.3692V7.14522H227.336V10.3692H221.787ZM228.452 9.19122L224.794 8.75722L229.816 0.449219H233.939L228.452 9.19122ZM212.27 17.0032H207.682L213.944 7.11422L217.106 9.06722L212.27 17.0032ZM222.934 17.0032H219.09V0.449219H222.934V17.0032ZM220.237 10.3692H214.719V7.14522H220.237V10.3692ZM213.572 9.19122L208.085 0.449219H212.208L217.199 8.75722L213.572 9.19122Z" fill="white"/>
<path d="M197.889 17.2187C196.194 17.2187 194.686 16.8571 193.363 16.1337C192.04 15.3897 190.997 14.3771 190.232 13.0957C189.467 11.8144 189.085 10.3574 189.085 8.72472C189.085 7.07138 189.467 5.61438 190.232 4.35371C190.997 3.07238 192.04 2.07005 193.363 1.34672C194.686 0.623384 196.194 0.261719 197.889 0.261719C199.604 0.261719 201.123 0.623384 202.446 1.34672C203.789 2.07005 204.833 3.06205 205.577 4.32272C206.342 5.58338 206.724 7.05072 206.724 8.72472C206.724 10.3574 206.342 11.8144 205.577 13.0957C204.833 14.3771 203.789 15.3897 202.446 16.1337C201.123 16.8571 199.604 17.2187 197.889 17.2187ZM197.889 13.9017C198.84 13.9017 199.687 13.695 200.431 13.2817C201.175 12.8684 201.754 12.2691 202.167 11.4837C202.601 10.6984 202.818 9.77872 202.818 8.72472C202.818 7.65005 202.601 6.73038 202.167 5.96571C201.754 5.18038 201.175 4.58105 200.431 4.16772C199.687 3.75438 198.85 3.54771 197.92 3.54771C196.969 3.54771 196.122 3.75438 195.378 4.16772C194.655 4.58105 194.076 5.18038 193.642 5.96571C193.208 6.73038 192.991 7.65005 192.991 8.72472C192.991 9.77872 193.208 10.6984 193.642 11.4837C194.076 12.2691 194.655 12.8684 195.378 13.2817C196.122 13.695 196.959 13.9017 197.889 13.9017Z" fill="white"/>
<path d="M165.535 17.0032V0.449219H169.596L176.261 12.1982H174.649L181.655 0.449219H185.282L185.313 17.0032H181.81V4.60322L182.43 5.00622L176.23 15.2672H174.556L168.325 4.72722L169.069 4.54122V17.0032H165.535Z" fill="white"/>
<path d="M147.021 5.90522C149.15 5.90522 150.772 6.38056 151.888 7.33122C153.004 8.28189 153.562 9.62522 153.562 11.3612C153.562 13.1592 152.942 14.5646 151.702 15.5772C150.462 16.5692 148.716 17.0549 146.463 17.0342L138.713 17.0032V0.449219H142.588V5.87422L147.021 5.90522ZM146.122 14.1822C147.259 14.2029 148.127 13.9652 148.726 13.4692C149.325 12.9732 149.625 12.2499 149.625 11.2992C149.625 10.3486 149.325 9.66655 148.726 9.25322C148.147 8.81922 147.279 8.59189 146.122 8.57122L142.588 8.54022V14.1512L146.122 14.1822Z" fill="white"/>
<path d="M126.23 17.0032V2.80522L127.129 3.73522H120.402V0.449219H135.902V3.73522H129.206L130.105 2.80522V17.0032H126.23Z" fill="white"/>
<path d="M114.336 17.0017V13.6537L114.119 12.9407V7.08172C114.119 5.94505 113.778 5.06672 113.096 4.44672C112.414 3.80605 111.381 3.48572 109.996 3.48572C109.066 3.48572 108.146 3.63038 107.237 3.91972C106.348 4.20905 105.594 4.61205 104.974 5.12872L103.455 2.30772C104.344 1.62572 105.398 1.11939 106.617 0.788719C107.857 0.437385 109.138 0.261719 110.461 0.261719C112.858 0.261719 114.708 0.840386 116.01 1.99772C117.333 3.13439 117.994 4.90138 117.994 7.29871V17.0017H114.336ZM109.128 17.2187C107.888 17.2187 106.803 17.0121 105.873 16.5987C104.943 16.1647 104.22 15.5757 103.703 14.8317C103.207 14.0671 102.959 13.2094 102.959 12.2587C102.959 11.3287 103.176 10.4917 103.61 9.74772C104.065 9.00372 104.798 8.41471 105.811 7.98071C106.824 7.54671 108.167 7.32972 109.841 7.32972H114.646V9.90272H110.12C108.797 9.90272 107.909 10.1197 107.454 10.5537C106.999 10.9671 106.772 11.4837 106.772 12.1037C106.772 12.8064 107.051 13.3644 107.609 13.7777C108.167 14.1911 108.942 14.3977 109.934 14.3977C110.885 14.3977 111.732 14.1807 112.476 13.7467C113.241 13.3127 113.788 12.672 114.119 11.8247L114.77 14.1497C114.398 15.1211 113.726 15.8754 112.755 16.4127C111.804 16.9501 110.595 17.2187 109.128 17.2187Z" fill="white"/>
<path d="M88.7617 17.0032V0.449219H101.472V3.73522H91.7377L92.6367 2.86722V17.0032H88.7617Z" fill="white"/>
<path d="M76.0989 17.2187C74.4043 17.2187 72.8956 16.8571 71.5729 16.1337C70.2503 15.3897 69.2066 14.3771 68.4419 13.0957C67.6773 11.8144 67.2949 10.3574 67.2949 8.72472C67.2949 7.07138 67.6773 5.61438 68.4419 4.35371C69.2066 3.07238 70.2503 2.07005 71.5729 1.34672C72.8956 0.623384 74.4043 0.261719 76.0989 0.261719C77.8143 0.261719 79.3333 0.623384 80.6559 1.34672C81.9993 2.07005 83.0429 3.06205 83.7869 4.32272C84.5516 5.58338 84.9339 7.05072 84.9339 8.72472C84.9339 10.3574 84.5516 11.8144 83.7869 13.0957C83.0429 14.3771 81.9993 15.3897 80.6559 16.1337C79.3333 16.8571 77.8143 17.2187 76.0989 17.2187ZM76.0989 13.9017C77.0496 13.9017 77.8969 13.695 78.6409 13.2817C79.3849 12.8684 79.9636 12.2691 80.3769 11.4837C80.8109 10.6984 81.0279 9.77872 81.0279 8.72472C81.0279 7.65005 80.8109 6.73038 80.3769 5.96571C79.9636 5.18038 79.3849 4.58105 78.6409 4.16772C77.8969 3.75438 77.0599 3.54771 76.1299 3.54771C75.1793 3.54771 74.3319 3.75438 73.5879 4.16772C72.8646 4.58105 72.2859 5.18038 71.8519 5.96571C71.4179 6.73038 71.2009 7.65005 71.2009 8.72472C71.2009 9.77872 71.4179 10.6984 71.8519 11.4837C72.2859 12.2691 72.8646 12.8684 73.5879 13.2817C74.3319 13.695 75.1689 13.9017 76.0989 13.9017Z" fill="white"/>
<path d="M43.7451 17.0032V0.449219H47.8061L54.4711 12.1982H52.8591L59.8651 0.449219H63.4921L63.5231 17.0032H60.0201V4.60322L60.6401 5.00622L54.4401 15.2672H52.7661L46.5351 4.72722L47.2791 4.54122V17.0032H43.7451Z" fill="white"/>
<path d="M31.0823 17.2187C29.3877 17.2187 27.879 16.8571 26.5563 16.1337C25.2337 15.3897 24.19 14.3771 23.4253 13.0957C22.6607 11.8144 22.2783 10.3574 22.2783 8.72472C22.2783 7.07138 22.6607 5.61438 23.4253 4.35371C24.19 3.07238 25.2337 2.07005 26.5563 1.34672C27.879 0.623384 29.3877 0.261719 31.0823 0.261719C32.7977 0.261719 34.3167 0.623384 35.6393 1.34672C36.9827 2.07005 38.0263 3.06205 38.7703 4.32272C39.535 5.58338 39.9173 7.05072 39.9173 8.72472C39.9173 10.3574 39.535 11.8144 38.7703 13.0957C38.0263 14.3771 36.9827 15.3897 35.6393 16.1337C34.3167 16.8571 32.7977 17.2187 31.0823 17.2187ZM31.0823 13.9017C32.033 13.9017 32.8803 13.695 33.6243 13.2817C34.3683 12.8684 34.947 12.2691 35.3603 11.4837C35.7943 10.6984 36.0113 9.77872 36.0113 8.72472C36.0113 7.65005 35.7943 6.73038 35.3603 5.96571C34.947 5.18038 34.3683 4.58105 33.6243 4.16772C32.8803 3.75438 32.0433 3.54771 31.1133 3.54771C30.1627 3.54771 29.3153 3.75438 28.5713 4.16772C27.848 4.58105 27.2693 5.18038 26.8353 5.96571C26.4013 6.73038 26.1843 7.65005 26.1843 8.72472C26.1843 9.77872 26.4013 10.6984 26.8353 11.4837C27.2693 12.2691 27.848 12.8684 28.5713 13.2817C29.3153 13.695 30.1523 13.9017 31.0823 13.9017Z" fill="white"/>
<path d="M2.60352 17.0032V0.449219H18.4755V17.0032H14.6315V2.83622L15.5305 3.73522H5.57952L6.47852 2.83622V17.0032H2.60352Z" fill="white"/>
</svg>
