<svg width="507" height="153" viewBox="0 0 507 153" fill="none" xmlns="http://www.w3.org/2000/svg">
<path d="M131.951 146.999V143.639L131.801 143.009V137.279C131.801 136.059 131.441 135.119 130.721 134.459C130.021 133.779 128.961 133.439 127.541 133.439C126.601 133.439 125.681 133.599 124.781 133.919C123.881 134.219 123.121 134.629 122.501 135.149L121.301 132.989C122.121 132.329 123.101 131.829 124.241 131.489C125.401 131.129 126.611 130.949 127.871 130.949C130.051 130.949 131.731 131.479 132.911 132.539C134.091 133.599 134.681 135.219 134.681 137.399V146.999H131.951ZM126.731 147.179C125.551 147.179 124.511 146.979 123.611 146.579C122.731 146.179 122.051 145.629 121.571 144.929C121.091 144.209 120.851 143.399 120.851 142.499C120.851 141.639 121.051 140.859 121.451 140.159C121.871 139.459 122.541 138.899 123.461 138.479C124.401 138.059 125.661 137.849 127.241 137.849H132.281V139.919H127.361C125.921 139.919 124.951 140.159 124.451 140.639C123.951 141.119 123.701 141.699 123.701 142.379C123.701 143.159 124.011 143.789 124.631 144.269C125.251 144.729 126.111 144.959 127.211 144.959C128.291 144.959 129.231 144.719 130.031 144.239C130.851 143.759 131.441 143.059 131.801 142.139L132.371 144.119C131.991 145.059 131.321 145.809 130.361 146.369C129.401 146.909 128.191 147.179 126.731 147.179Z" fill="#163C51"/>
<path d="M110.555 147V132.87L111.275 133.62H104.735V131.1H119.255V133.62H112.745L113.435 132.87V147H110.555Z" fill="#163C51"/>
<path d="M95.7669 147.179C94.4469 147.179 93.2369 146.879 92.1369 146.279C91.0569 145.659 90.1869 144.749 89.5269 143.549C88.8869 142.349 88.5669 140.849 88.5669 139.049C88.5669 137.249 88.8769 135.749 89.4969 134.549C90.1369 133.349 90.9969 132.449 92.0769 131.849C93.1769 131.249 94.4069 130.949 95.7669 130.949C97.3269 130.949 98.7069 131.289 99.9069 131.969C101.107 132.649 102.057 133.599 102.757 134.819C103.457 136.019 103.807 137.429 103.807 139.049C103.807 140.669 103.457 142.089 102.757 143.309C102.057 144.529 101.107 145.479 99.9069 146.159C98.7069 146.839 97.3269 147.179 95.7669 147.179ZM87.3369 152.819V131.099H90.0969V135.389L89.9169 139.079L90.2169 142.769V152.819H87.3369ZM95.5269 144.659C96.5469 144.659 97.4569 144.429 98.2569 143.969C99.0769 143.509 99.7169 142.859 100.177 142.019C100.657 141.159 100.897 140.169 100.897 139.049C100.897 137.909 100.657 136.929 100.177 136.109C99.7169 135.269 99.0769 134.619 98.2569 134.159C97.4569 133.699 96.5469 133.469 95.5269 133.469C94.5269 133.469 93.6169 133.699 92.7969 134.159C91.9969 134.619 91.3569 135.269 90.8769 136.109C90.4169 136.929 90.1869 137.909 90.1869 139.049C90.1869 140.169 90.4169 141.159 90.8769 142.019C91.3569 142.859 91.9969 143.509 92.7969 143.969C93.6169 144.429 94.5269 144.659 95.5269 144.659Z" fill="#163C51"/>
<path d="M74.9284 147.179C73.3284 147.179 71.9084 146.829 70.6684 146.129C69.4284 145.429 68.4484 144.469 67.7284 143.249C67.0084 142.009 66.6484 140.609 66.6484 139.049C66.6484 137.469 67.0084 136.069 67.7284 134.849C68.4484 133.629 69.4284 132.679 70.6684 131.999C71.9084 131.299 73.3284 130.949 74.9284 130.949C76.5084 130.949 77.9184 131.299 79.1584 131.999C80.4184 132.679 81.3984 133.629 82.0984 134.849C82.8184 136.049 83.1784 137.449 83.1784 139.049C83.1784 140.629 82.8184 142.029 82.0984 143.249C81.3984 144.469 80.4184 145.429 79.1584 146.129C77.9184 146.829 76.5084 147.179 74.9284 147.179ZM74.9284 144.659C75.9484 144.659 76.8584 144.429 77.6584 143.969C78.4784 143.509 79.1184 142.859 79.5784 142.019C80.0384 141.159 80.2684 140.169 80.2684 139.049C80.2684 137.909 80.0384 136.929 79.5784 136.109C79.1184 135.269 78.4784 134.619 77.6584 134.159C76.8584 133.699 75.9484 133.469 74.9284 133.469C73.9084 133.469 72.9984 133.699 72.1984 134.159C71.3984 134.619 70.7584 135.269 70.2784 136.109C69.7984 136.929 69.5584 137.909 69.5584 139.049C69.5584 140.169 69.7984 141.159 70.2784 142.019C70.7584 142.859 71.3984 143.509 72.1984 143.969C72.9984 144.429 73.9084 144.659 74.9284 144.659Z" fill="#163C51"/>
<path d="M47.8154 147V131.1H62.5454V147H59.6654V132.9L60.3554 133.62H50.0054L50.6954 132.9V147H47.8154Z" fill="#163C51"/>
<path d="M37.607 147.179C35.987 147.179 34.537 146.829 33.257 146.129C31.997 145.429 31.007 144.469 30.287 143.249C29.567 142.029 29.207 140.629 29.207 139.049C29.207 137.469 29.567 136.069 30.287 134.849C31.007 133.629 31.997 132.679 33.257 131.999C34.537 131.299 35.987 130.949 37.607 130.949C39.047 130.949 40.327 131.239 41.447 131.819C42.587 132.379 43.467 133.219 44.087 134.339L41.897 135.749C41.377 134.969 40.737 134.399 39.977 134.039C39.237 133.659 38.437 133.469 37.577 133.469C36.537 133.469 35.607 133.699 34.787 134.159C33.967 134.619 33.317 135.269 32.837 136.109C32.357 136.929 32.117 137.909 32.117 139.049C32.117 140.189 32.357 141.179 32.837 142.019C33.317 142.859 33.967 143.509 34.787 143.969C35.607 144.429 36.537 144.659 37.577 144.659C38.437 144.659 39.237 144.479 39.977 144.119C40.737 143.739 41.377 143.159 41.897 142.379L44.087 143.759C43.467 144.859 42.587 145.709 41.447 146.309C40.327 146.889 39.047 147.179 37.607 147.179Z" fill="#163C51"/>
<path d="M1.79004 147V131.1H4.67004V142.68L14.42 131.1H17.03V147H14.15V135.42L4.43004 147H1.79004Z" fill="#163C51"/>
<path d="M503.429 105V89.0996H506.309V105H503.429ZM494.879 94.4996C496.899 94.5196 498.429 94.9796 499.469 95.8796C500.529 96.7796 501.059 98.0496 501.059 99.6896C501.059 101.41 500.479 102.74 499.319 103.68C498.179 104.6 496.539 105.05 494.399 105.03L487.709 105V89.0996H490.589V94.4696L494.879 94.4996ZM494.189 102.84C495.469 102.86 496.449 102.6 497.129 102.06C497.809 101.52 498.149 100.72 498.149 99.6596C498.149 98.6196 497.809 97.8596 497.129 97.3796C496.469 96.8996 495.489 96.6496 494.189 96.6296L490.589 96.5696V102.81L494.189 102.84Z" fill="#163C51"/>
<path d="M475.485 105.179C474.165 105.179 472.955 104.879 471.855 104.279C470.775 103.659 469.905 102.749 469.245 101.549C468.605 100.349 468.285 98.8492 468.285 97.0492C468.285 95.2492 468.595 93.7492 469.215 92.5492C469.855 91.3492 470.715 90.4492 471.795 89.8492C472.895 89.2492 474.125 88.9492 475.485 88.9492C477.045 88.9492 478.425 89.2892 479.625 89.9692C480.825 90.6492 481.775 91.5992 482.475 92.8192C483.175 94.0192 483.525 95.4292 483.525 97.0492C483.525 98.6692 483.175 100.089 482.475 101.309C481.775 102.529 480.825 103.479 479.625 104.159C478.425 104.839 477.045 105.179 475.485 105.179ZM467.055 110.819V89.0992H469.815V93.3892L469.635 97.0792L469.935 100.769V110.819H467.055ZM475.245 102.659C476.265 102.659 477.175 102.429 477.975 101.969C478.795 101.509 479.435 100.859 479.895 100.019C480.375 99.1592 480.615 98.1692 480.615 97.0492C480.615 95.9092 480.375 94.9292 479.895 94.1092C479.435 93.2692 478.795 92.6192 477.975 92.1592C477.175 91.6992 476.265 91.4692 475.245 91.4692C474.245 91.4692 473.335 91.6992 472.515 92.1592C471.715 92.6192 471.075 93.2692 470.595 94.1092C470.135 94.9292 469.905 95.9092 469.905 97.0492C469.905 98.1692 470.135 99.1592 470.595 100.019C471.075 100.859 471.715 101.509 472.515 101.969C473.335 102.429 474.245 102.659 475.245 102.659Z" fill="#163C51"/>
<path d="M450.725 111C449.965 111 449.225 110.87 448.505 110.61C447.785 110.37 447.165 110.01 446.645 109.53L447.875 107.37C448.275 107.75 448.715 108.04 449.195 108.24C449.675 108.44 450.185 108.54 450.725 108.54C451.425 108.54 452.005 108.36 452.465 108C452.925 107.64 453.355 107 453.755 106.08L454.745 103.89L455.045 103.53L461.285 89.0996H464.105L456.395 106.59C455.935 107.71 455.415 108.59 454.835 109.23C454.275 109.87 453.655 110.32 452.975 110.58C452.295 110.86 451.545 111 450.725 111ZM454.505 105.51L447.245 89.0996H450.245L456.425 103.26L454.505 105.51Z" fill="#163C51"/>
<path d="M438.271 105V90.8696L438.991 91.6196H432.451V89.0996H446.971V91.6196H440.461L441.151 90.8696V105H438.271Z" fill="#163C51"/>
<path d="M426.768 94.4996C428.788 94.5196 430.328 94.9796 431.388 95.8796C432.448 96.7796 432.978 98.0496 432.978 99.6896C432.978 101.41 432.398 102.74 431.238 103.68C430.078 104.6 428.438 105.05 426.318 105.03L419.418 105V89.0996H422.298V94.4696L426.768 94.4996ZM426.078 102.84C427.378 102.86 428.358 102.6 429.018 102.06C429.698 101.52 430.038 100.72 430.038 99.6596C430.038 98.6196 429.708 97.8596 429.048 97.3796C428.388 96.8996 427.398 96.6496 426.078 96.6296L422.298 96.5696V102.81L426.078 102.84Z" fill="#163C51"/>
<path d="M397.559 104.97L397.739 102.54C397.879 102.56 398.009 102.58 398.129 102.6C398.249 102.62 398.359 102.63 398.459 102.63C399.099 102.63 399.599 102.41 399.959 101.97C400.339 101.53 400.619 100.95 400.799 100.23C400.979 99.4896 401.109 98.6596 401.189 97.7396C401.269 96.8196 401.329 95.8996 401.369 94.9796L401.639 89.0996H413.849V105H410.969V90.7796L411.659 91.6196H403.499L404.159 90.7496L403.949 95.1596C403.889 96.5596 403.779 97.8696 403.619 99.0896C403.459 100.31 403.209 101.38 402.869 102.3C402.549 103.22 402.099 103.94 401.519 104.46C400.959 104.98 400.229 105.24 399.329 105.24C399.069 105.24 398.789 105.21 398.489 105.15C398.209 105.11 397.899 105.05 397.559 104.97Z" fill="#163C51"/>
<path d="M384.689 111C383.929 111 383.189 110.87 382.469 110.61C381.749 110.37 381.129 110.01 380.609 109.53L381.839 107.37C382.239 107.75 382.679 108.04 383.159 108.24C383.639 108.44 384.149 108.54 384.689 108.54C385.389 108.54 385.969 108.36 386.429 108C386.889 107.64 387.319 107 387.719 106.08L388.709 103.89L389.009 103.53L395.249 89.0996H398.069L390.359 106.59C389.899 107.71 389.379 108.59 388.799 109.23C388.239 109.87 387.619 110.32 386.939 110.58C386.259 110.86 385.509 111 384.689 111ZM388.469 105.51L381.209 89.0996H384.209L390.389 103.26L388.469 105.51Z" fill="#163C51"/>
<path d="M378.379 105L372.229 97.2596L374.599 95.8196L381.769 105H378.379ZM366.859 105V89.0996H369.739V105H366.859ZM368.869 98.2796V95.8196H374.119V98.2796H368.869ZM374.839 97.3796L372.169 97.0196L378.259 89.0996H381.349L374.839 97.3796Z" fill="#163C51"/>
<path d="M337.972 105.001V89.1006H340.852V100.681L350.602 89.1006H353.212V105.001H350.332V93.4206L340.612 105.001H337.972ZM345.412 87.0306C343.952 87.0306 342.802 86.6806 341.962 85.9806C341.142 85.2606 340.722 84.2306 340.702 82.8906H342.652C342.672 83.6506 342.922 84.2506 343.402 84.6906C343.902 85.1306 344.562 85.3506 345.382 85.3506C346.202 85.3506 346.862 85.1306 347.362 84.6906C347.862 84.2506 348.122 83.6506 348.142 82.8906H350.152C350.132 84.2306 349.702 85.2606 348.862 85.9806C348.022 86.6806 346.872 87.0306 345.412 87.0306Z" fill="#163C51"/>
<path d="M325.563 105.179C323.963 105.179 322.543 104.829 321.303 104.129C320.063 103.429 319.083 102.469 318.363 101.249C317.643 100.009 317.283 98.6092 317.283 97.0492C317.283 95.4692 317.643 94.0692 318.363 92.8492C319.083 91.6292 320.063 90.6792 321.303 89.9992C322.543 89.2992 323.963 88.9492 325.563 88.9492C327.143 88.9492 328.553 89.2992 329.793 89.9992C331.053 90.6792 332.033 91.6292 332.733 92.8492C333.453 94.0492 333.813 95.4492 333.813 97.0492C333.813 98.6292 333.453 100.029 332.733 101.249C332.033 102.469 331.053 103.429 329.793 104.129C328.553 104.829 327.143 105.179 325.563 105.179ZM325.563 102.659C326.583 102.659 327.493 102.429 328.293 101.969C329.113 101.509 329.753 100.859 330.213 100.019C330.673 99.1592 330.903 98.1692 330.903 97.0492C330.903 95.9092 330.673 94.9292 330.213 94.1092C329.753 93.2692 329.113 92.6192 328.293 92.1592C327.493 91.6992 326.583 91.4692 325.563 91.4692C324.543 91.4692 323.633 91.6992 322.833 92.1592C322.033 92.6192 321.393 93.2692 320.913 94.1092C320.433 94.9292 320.193 95.9092 320.193 97.0492C320.193 98.1692 320.433 99.1592 320.913 100.019C321.393 100.859 322.033 101.509 322.833 101.969C323.633 102.429 324.543 102.659 325.563 102.659Z" fill="#163C51"/>
<path d="M312.871 105L306.721 97.2596L309.091 95.8196L316.261 105H312.871ZM301.351 105V89.0996H304.231V105H301.351ZM303.361 98.2796V95.8196H308.611V98.2796H303.361ZM309.331 97.3796L306.661 97.0196L312.751 89.0996H315.841L309.331 97.3796Z" fill="#163C51"/>
<path d="M291.142 105.179C289.522 105.179 288.072 104.829 286.792 104.129C285.532 103.429 284.542 102.469 283.822 101.249C283.102 100.029 282.742 98.6292 282.742 97.0492C282.742 95.4692 283.102 94.0692 283.822 92.8492C284.542 91.6292 285.532 90.6792 286.792 89.9992C288.072 89.2992 289.522 88.9492 291.142 88.9492C292.582 88.9492 293.862 89.2392 294.982 89.8192C296.122 90.3792 297.002 91.2192 297.622 92.3392L295.432 93.7492C294.912 92.9692 294.272 92.3992 293.512 92.0392C292.772 91.6592 291.972 91.4692 291.112 91.4692C290.072 91.4692 289.142 91.6992 288.322 92.1592C287.502 92.6192 286.852 93.2692 286.372 94.1092C285.892 94.9292 285.652 95.9092 285.652 97.0492C285.652 98.1892 285.892 99.1792 286.372 100.019C286.852 100.859 287.502 101.509 288.322 101.969C289.142 102.429 290.072 102.659 291.112 102.659C291.972 102.659 292.772 102.479 293.512 102.119C294.272 101.739 294.912 101.159 295.432 100.379L297.622 101.759C297.002 102.859 296.122 103.709 294.982 104.309C293.862 104.889 292.582 105.179 291.142 105.179Z" fill="#163C51"/>
<path d="M272.454 105.179C270.754 105.179 269.254 104.829 267.954 104.129C266.674 103.429 265.674 102.469 264.954 101.249C264.254 100.029 263.904 98.6292 263.904 97.0492C263.904 95.4692 264.244 94.0692 264.924 92.8492C265.624 91.6292 266.574 90.6792 267.774 89.9992C268.994 89.2992 270.364 88.9492 271.884 88.9492C273.424 88.9492 274.784 89.2892 275.964 89.9692C277.144 90.6492 278.064 91.6092 278.724 92.8492C279.404 94.0692 279.744 95.4992 279.744 97.1392C279.744 97.2592 279.734 97.3992 279.714 97.5592C279.714 97.7192 279.704 97.8692 279.684 98.0092H266.154V95.9392H278.184L277.014 96.6592C277.034 95.6392 276.824 94.7292 276.384 93.9292C275.944 93.1292 275.334 92.5092 274.554 92.0692C273.794 91.6092 272.904 91.3792 271.884 91.3792C270.884 91.3792 269.994 91.6092 269.214 92.0692C268.434 92.5092 267.824 93.1392 267.384 93.9592C266.944 94.7592 266.724 95.6792 266.724 96.7192V97.1992C266.724 98.2592 266.964 99.2092 267.444 100.049C267.944 100.869 268.634 101.509 269.514 101.969C270.394 102.429 271.404 102.659 272.544 102.659C273.484 102.659 274.334 102.499 275.094 102.179C275.874 101.859 276.554 101.379 277.134 100.739L278.724 102.599C278.004 103.439 277.104 104.079 276.024 104.519C274.964 104.959 273.774 105.179 272.454 105.179Z" fill="#163C51"/>
<path d="M257.113 98.4896C256.273 98.8896 255.403 99.2096 254.503 99.4496C253.623 99.6696 252.713 99.7796 251.773 99.7796C249.853 99.7796 248.333 99.3296 247.213 98.4296C246.113 97.5296 245.563 96.1396 245.563 94.2596V89.0996H248.443V94.0796C248.443 95.2196 248.793 96.0596 249.493 96.5996C250.213 97.1396 251.173 97.4096 252.373 97.4096C253.133 97.4096 253.913 97.3096 254.713 97.1096C255.533 96.9096 256.333 96.6296 257.113 96.2696V98.4896ZM256.903 105V89.0996H259.783V105H256.903Z" fill="#163C51"/>
<path d="M226.263 105V89.0996H229.143V100.68L238.893 89.0996H241.503V105H238.623V93.4196L228.903 105H226.263Z" fill="#163C51"/>
<path d="M214.594 105.211C213.394 105.211 212.214 105.061 211.054 104.761C209.914 104.441 208.894 103.991 207.994 103.411L208.864 101.221C209.624 101.701 210.494 102.081 211.474 102.361C212.454 102.621 213.444 102.751 214.444 102.751C215.364 102.751 216.154 102.641 216.814 102.421C217.494 102.201 218.014 101.901 218.374 101.521C218.734 101.121 218.914 100.661 218.914 100.141C218.914 99.4008 218.584 98.8308 217.924 98.4308C217.264 98.0308 216.344 97.8308 215.164 97.8308H212.284V95.7608H214.984C215.684 95.7608 216.294 95.6808 216.814 95.5208C217.334 95.3608 217.734 95.1208 218.014 94.8008C218.314 94.4608 218.464 94.0708 218.464 93.6308C218.464 93.1508 218.294 92.7408 217.954 92.4008C217.614 92.0608 217.134 91.8008 216.514 91.6208C215.914 91.4408 215.204 91.3508 214.384 91.3508C213.584 91.3708 212.764 91.4808 211.924 91.6808C211.104 91.8808 210.264 92.1908 209.404 92.6108L208.624 90.3608C209.584 89.9008 210.524 89.5508 211.444 89.3108C212.384 89.0508 213.314 88.9108 214.234 88.8908C215.614 88.8508 216.844 89.0108 217.924 89.3708C219.004 89.7108 219.854 90.2108 220.474 90.8708C221.114 91.5308 221.434 92.3108 221.434 93.2108C221.434 93.9708 221.194 94.6508 220.714 95.2508C220.234 95.8308 219.594 96.2908 218.794 96.6308C217.994 96.9708 217.074 97.1408 216.034 97.1408L216.154 96.4508C217.934 96.4508 219.334 96.8008 220.354 97.5008C221.374 98.2008 221.884 99.1508 221.884 100.351C221.884 101.311 221.564 102.161 220.924 102.901C220.284 103.621 219.414 104.191 218.314 104.611C217.234 105.011 215.994 105.211 214.594 105.211Z" fill="#163C51"/>
<path d="M189.378 105V89.0996H192.258V100.68L202.008 89.0996H204.618V105H201.738V93.4196L192.018 105H189.378Z" fill="#163C51"/>
<path d="M174.717 105.24C174.697 105.24 174.627 105.24 174.507 105.24C174.407 105.24 174.307 105.24 174.207 105.24C174.107 105.24 174.047 105.24 174.027 105.24C170.767 105.2 168.237 104.48 166.437 103.08C164.637 101.66 163.737 99.6402 163.737 97.0202C163.737 94.4202 164.637 92.4302 166.437 91.0502C168.257 89.6502 170.817 88.9402 174.117 88.9202C174.157 88.9202 174.217 88.9202 174.297 88.9202C174.397 88.9202 174.487 88.9202 174.567 88.9202C174.667 88.9202 174.727 88.9202 174.747 88.9202C178.087 88.9202 180.677 89.6202 182.517 91.0202C184.377 92.4202 185.307 94.4202 185.307 97.0202C185.307 99.6602 184.377 101.69 182.517 103.11C180.657 104.53 178.057 105.24 174.717 105.24ZM174.657 102.72C176.397 102.72 177.837 102.5 178.977 102.06C180.137 101.62 181.007 100.98 181.587 100.14C182.167 99.3002 182.457 98.2602 182.457 97.0202C182.457 95.8002 182.167 94.7802 181.587 93.9602C181.007 93.1402 180.137 92.5202 178.977 92.1002C177.837 91.6802 176.397 91.4702 174.657 91.4702C174.617 91.4702 174.537 91.4702 174.417 91.4702C174.297 91.4702 174.227 91.4702 174.207 91.4702C172.507 91.4702 171.087 91.6902 169.947 92.1302C168.827 92.5502 167.987 93.1702 167.427 93.9902C166.867 94.8102 166.587 95.8202 166.587 97.0202C166.587 98.2402 166.867 99.2702 167.427 100.11C168.007 100.95 168.857 101.59 169.977 102.03C171.117 102.47 172.527 102.7 174.207 102.72C174.247 102.72 174.317 102.72 174.417 102.72C174.537 102.72 174.617 102.72 174.657 102.72ZM173.097 110.82V82.7402H175.917V110.82H173.097Z" fill="#163C51"/>
<path d="M130.901 104.999V89.0992H133.781V95.6092H138.581V98.2792H133.781V104.999H130.901ZM144.971 105.179C143.411 105.179 142.021 104.829 140.801 104.129C139.601 103.429 138.651 102.469 137.951 101.249C137.251 100.009 136.901 98.6092 136.901 97.0492C136.901 95.4692 137.251 94.0692 137.951 92.8492C138.651 91.6092 139.601 90.6492 140.801 89.9692C142.021 89.2892 143.411 88.9492 144.971 88.9492C146.511 88.9492 147.891 89.2892 149.111 89.9692C150.331 90.6492 151.291 91.6092 151.991 92.8492C152.691 94.0692 153.041 95.4692 153.041 97.0492C153.041 98.6292 152.691 100.029 151.991 101.249C151.291 102.469 150.331 103.429 149.111 104.129C147.891 104.829 146.511 105.179 144.971 105.179ZM144.971 102.659C145.971 102.659 146.861 102.429 147.641 101.969C148.421 101.489 149.041 100.839 149.501 100.019C149.961 99.1792 150.191 98.1892 150.191 97.0492C150.191 95.9092 149.961 94.9292 149.501 94.1092C149.041 93.2692 148.421 92.6192 147.641 92.1592C146.861 91.6992 145.971 91.4692 144.971 91.4692C143.991 91.4692 143.101 91.6992 142.301 92.1592C141.521 92.6192 140.901 93.2692 140.441 94.1092C139.981 94.9292 139.751 95.9092 139.751 97.0492C139.751 98.1892 139.981 99.1792 140.441 100.019C140.901 100.839 141.521 101.489 142.301 101.969C143.101 102.429 143.991 102.659 144.971 102.659Z" fill="#163C51"/>
<path d="M110.071 105V89.0996H112.951V100.68L122.701 89.0996H125.311V105H122.431V93.4196L112.711 105H110.071Z" fill="#163C51"/>
<path d="M98.4264 105V90.8696L99.1464 91.6196H92.6064V89.0996H107.126V91.6196H100.616L101.306 90.8696V105H98.4264Z" fill="#163C51"/>
<path d="M74.4463 105V89.0996H77.3263V100.68L87.0763 89.0996H89.6863V105H86.8063V93.4196L77.0863 105H74.4463Z" fill="#163C51"/>
<path d="M56.0186 105V89.0996H63.3986C65.2586 89.0996 66.7186 89.4596 67.7786 90.1796C68.8586 90.8796 69.3986 91.8796 69.3986 93.1796C69.3986 94.4796 68.8886 95.4896 67.8686 96.2096C66.8686 96.9096 65.5386 97.2596 63.8786 97.2596L64.3286 96.4796C66.2286 96.4796 67.6386 96.8296 68.5586 97.5296C69.4786 98.2296 69.9386 99.2596 69.9386 100.62C69.9386 102 69.4186 103.08 68.3786 103.86C67.3586 104.62 65.7886 105 63.6686 105H56.0186ZM58.8386 102.78H63.4586C64.6586 102.78 65.5586 102.6 66.1586 102.24C66.7586 101.86 67.0586 101.26 67.0586 100.44C67.0586 99.5996 66.7786 98.9896 66.2186 98.6096C65.6786 98.2096 64.8186 98.0096 63.6386 98.0096H58.8386V102.78ZM58.8386 95.9396H63.1586C64.2586 95.9396 65.0886 95.7396 65.6486 95.3396C66.2286 94.9196 66.5186 94.3396 66.5186 93.5996C66.5186 92.8396 66.2286 92.2696 65.6486 91.8896C65.0886 91.5096 64.2586 91.3196 63.1586 91.3196H58.8386V95.9396Z" fill="#163C51"/>
<path d="M44.35 105.211C43.15 105.211 41.97 105.061 40.81 104.761C39.67 104.441 38.65 103.991 37.75 103.411L38.62 101.221C39.38 101.701 40.25 102.081 41.23 102.361C42.21 102.621 43.2 102.751 44.2 102.751C45.12 102.751 45.91 102.641 46.57 102.421C47.25 102.201 47.77 101.901 48.13 101.521C48.49 101.121 48.67 100.661 48.67 100.141C48.67 99.4008 48.34 98.8308 47.68 98.4308C47.02 98.0308 46.1 97.8308 44.92 97.8308H42.04V95.7608H44.74C45.44 95.7608 46.05 95.6808 46.57 95.5208C47.09 95.3608 47.49 95.1208 47.77 94.8008C48.07 94.4608 48.22 94.0708 48.22 93.6308C48.22 93.1508 48.05 92.7408 47.71 92.4008C47.37 92.0608 46.89 91.8008 46.27 91.6208C45.67 91.4408 44.96 91.3508 44.14 91.3508C43.34 91.3708 42.52 91.4808 41.68 91.6808C40.86 91.8808 40.02 92.1908 39.16 92.6108L38.38 90.3608C39.34 89.9008 40.28 89.5508 41.2 89.3108C42.14 89.0508 43.07 88.9108 43.99 88.8908C45.37 88.8508 46.6 89.0108 47.68 89.3708C48.76 89.7108 49.61 90.2108 50.23 90.8708C50.87 91.5308 51.19 92.3108 51.19 93.2108C51.19 93.9708 50.95 94.6508 50.47 95.2508C49.99 95.8308 49.35 96.2908 48.55 96.6308C47.75 96.9708 46.83 97.1408 45.79 97.1408L45.91 96.4508C47.69 96.4508 49.09 96.8008 50.11 97.5008C51.13 98.2008 51.64 99.1508 51.64 100.351C51.64 101.311 51.32 102.161 50.68 102.901C50.04 103.621 49.17 104.191 48.07 104.611C46.99 105.011 45.75 105.211 44.35 105.211Z" fill="#163C51"/>
<path d="M32.0482 104.999V101.639L31.8982 101.009V95.2792C31.8982 94.0592 31.5382 93.1192 30.8182 92.4592C30.1182 91.7792 29.0582 91.4392 27.6382 91.4392C26.6982 91.4392 25.7782 91.5992 24.8782 91.9192C23.9782 92.2192 23.2182 92.6292 22.5982 93.1492L21.3982 90.9892C22.2182 90.3292 23.1982 89.8292 24.3382 89.4892C25.4982 89.1292 26.7082 88.9492 27.9682 88.9492C30.1482 88.9492 31.8282 89.4792 33.0082 90.5392C34.1882 91.5992 34.7782 93.2192 34.7782 95.3992V104.999H32.0482ZM26.8282 105.179C25.6482 105.179 24.6082 104.979 23.7082 104.579C22.8282 104.179 22.1482 103.629 21.6682 102.929C21.1882 102.209 20.9482 101.399 20.9482 100.499C20.9482 99.6392 21.1482 98.8592 21.5482 98.1592C21.9682 97.4592 22.6382 96.8992 23.5582 96.4792C24.4982 96.0592 25.7582 95.8492 27.3382 95.8492H32.3782V97.9192H27.4582C26.0182 97.9192 25.0482 98.1592 24.5482 98.6392C24.0482 99.1192 23.7982 99.6992 23.7982 100.379C23.7982 101.159 24.1082 101.789 24.7282 102.269C25.3482 102.729 26.2082 102.959 27.3082 102.959C28.3882 102.959 29.3282 102.719 30.1282 102.239C30.9482 101.759 31.5382 101.059 31.8982 100.139L32.4682 102.119C32.0882 103.059 31.4182 103.809 30.4582 104.369C29.4982 104.909 28.2882 105.179 26.8282 105.179Z" fill="#163C51"/>
<path d="M10.22 105.179C8.90004 105.179 7.69004 104.879 6.59004 104.279C5.51004 103.659 4.64004 102.749 3.98004 101.549C3.34004 100.349 3.02004 98.8492 3.02004 97.0492C3.02004 95.2492 3.33004 93.7492 3.95004 92.5492C4.59004 91.3492 5.45004 90.4492 6.53004 89.8492C7.63004 89.2492 8.86004 88.9492 10.22 88.9492C11.78 88.9492 13.16 89.2892 14.36 89.9692C15.56 90.6492 16.51 91.5992 17.21 92.8192C17.91 94.0192 18.26 95.4292 18.26 97.0492C18.26 98.6692 17.91 100.089 17.21 101.309C16.51 102.529 15.56 103.479 14.36 104.159C13.16 104.839 11.78 105.179 10.22 105.179ZM1.79004 110.819V89.0992H4.55004V93.3892L4.37004 97.0792L4.67004 100.769V110.819H1.79004ZM9.98004 102.659C11 102.659 11.91 102.429 12.71 101.969C13.53 101.509 14.17 100.859 14.63 100.019C15.11 99.1592 15.35 98.1692 15.35 97.0492C15.35 95.9092 15.11 94.9292 14.63 94.1092C14.17 93.2692 13.53 92.6192 12.71 92.1592C11.91 91.6992 11 91.4692 9.98004 91.4692C8.98004 91.4692 8.07004 91.6992 7.25004 92.1592C6.45004 92.6192 5.81004 93.2692 5.33004 94.1092C4.87004 94.9292 4.64004 95.9092 4.64004 97.0492C4.64004 98.1692 4.87004 99.1592 5.33004 100.019C5.81004 100.859 6.45004 101.509 7.25004 101.969C8.07004 102.429 8.98004 102.659 9.98004 102.659Z" fill="#163C51"/>
<path d="M443.923 63.1792C442.323 63.1792 440.903 62.8292 439.663 62.1292C438.423 61.4292 437.443 60.4692 436.723 59.2492C436.003 58.0092 435.643 56.6092 435.643 55.0492C435.643 53.4692 436.003 52.0692 436.723 50.8492C437.443 49.6292 438.423 48.6792 439.663 47.9992C440.903 47.2992 442.323 46.9492 443.923 46.9492C445.503 46.9492 446.913 47.2992 448.153 47.9992C449.413 48.6792 450.393 49.6292 451.093 50.8492C451.813 52.0492 452.173 53.4492 452.173 55.0492C452.173 56.6292 451.813 58.0292 451.093 59.2492C450.393 60.4692 449.413 61.4292 448.153 62.1292C446.913 62.8292 445.503 63.1792 443.923 63.1792ZM443.923 60.6592C444.943 60.6592 445.853 60.4292 446.653 59.9692C447.473 59.5092 448.113 58.8592 448.573 58.0192C449.033 57.1592 449.263 56.1692 449.263 55.0492C449.263 53.9092 449.033 52.9292 448.573 52.1092C448.113 51.2692 447.473 50.6192 446.653 50.1592C445.853 49.6992 444.943 49.4692 443.923 49.4692C442.903 49.4692 441.993 49.6992 441.193 50.1592C440.393 50.6192 439.753 51.2692 439.273 52.1092C438.793 52.9292 438.553 53.9092 438.553 55.0492C438.553 56.1692 438.793 57.1592 439.273 58.0192C439.753 58.8592 440.393 59.5092 441.193 59.9692C441.993 60.4292 442.903 60.6592 443.923 60.6592Z" fill="#163C51"/>
<path d="M416.811 62.9996V47.0996H431.541V62.9996H428.661V48.8996L429.351 49.6196H419.001L419.691 48.8996V62.9996H416.811Z" fill="#163C51"/>
<path d="M400.275 62.9996V47.0996H403.155V62.9996H400.275ZM391.725 52.4996C393.745 52.5196 395.275 52.9796 396.315 53.8796C397.375 54.7796 397.905 56.0496 397.905 57.6896C397.905 59.4096 397.325 60.7396 396.165 61.6796C395.025 62.5996 393.385 63.0496 391.245 63.0296L384.555 62.9996V47.0996H387.435V52.4696L391.725 52.4996ZM391.035 60.8396C392.315 60.8596 393.295 60.5996 393.975 60.0596C394.655 59.5196 394.995 58.7196 394.995 57.6596C394.995 56.6196 394.655 55.8596 393.975 55.3796C393.315 54.8996 392.335 54.6496 391.035 54.6296L387.435 54.5696V60.8096L391.035 60.8396Z" fill="#163C51"/>
<path d="M372.91 62.9996V48.8696L373.63 49.6196H367.09V47.0996H381.61V49.6196H375.1L375.79 48.8696V62.9996H372.91Z" fill="#163C51"/>
<path d="M357.936 63.1792C356.336 63.1792 354.916 62.8292 353.676 62.1292C352.436 61.4292 351.456 60.4692 350.736 59.2492C350.016 58.0092 349.656 56.6092 349.656 55.0492C349.656 53.4692 350.016 52.0692 350.736 50.8492C351.456 49.6292 352.436 48.6792 353.676 47.9992C354.916 47.2992 356.336 46.9492 357.936 46.9492C359.516 46.9492 360.926 47.2992 362.166 47.9992C363.426 48.6792 364.406 49.6292 365.106 50.8492C365.826 52.0492 366.186 53.4492 366.186 55.0492C366.186 56.6292 365.826 58.0292 365.106 59.2492C364.406 60.4692 363.426 61.4292 362.166 62.1292C360.926 62.8292 359.516 63.1792 357.936 63.1792ZM357.936 60.6592C358.956 60.6592 359.866 60.4292 360.666 59.9692C361.486 59.5092 362.126 58.8592 362.586 58.0192C363.046 57.1592 363.276 56.1692 363.276 55.0492C363.276 53.9092 363.046 52.9292 362.586 52.1092C362.126 51.2692 361.486 50.6192 360.666 50.1592C359.866 49.6992 358.956 49.4692 357.936 49.4692C356.916 49.4692 356.006 49.6992 355.206 50.1592C354.406 50.6192 353.766 51.2692 353.286 52.1092C352.806 52.9292 352.566 53.9092 352.566 55.0492C352.566 56.1692 352.806 57.1592 353.286 58.0192C353.766 58.8592 354.406 59.5092 355.206 59.9692C356.006 60.4292 356.916 60.6592 357.936 60.6592Z" fill="#163C51"/>
<path d="M338.613 63.2398C337.293 63.2398 336.123 63.0298 335.103 62.6098C334.103 62.1898 333.243 61.5698 332.523 60.7498C331.803 59.9098 331.253 58.8598 330.873 57.5998C330.513 56.3198 330.333 54.8198 330.333 53.0998C330.333 51.7398 330.453 50.5198 330.693 49.4398C330.933 48.3598 331.273 47.3998 331.713 46.5598C332.173 45.7198 332.733 44.9898 333.393 44.3698C334.073 43.7498 334.833 43.2398 335.673 42.8398C336.533 42.4198 337.473 42.0998 338.493 41.8798L345.753 40.2598L346.173 42.9298L339.483 44.3698C339.083 44.4498 338.603 44.5698 338.043 44.7298C337.483 44.8898 336.913 45.1398 336.333 45.4798C335.753 45.7998 335.213 46.2498 334.713 46.8298C334.213 47.4098 333.813 48.1698 333.513 49.1098C333.213 50.0298 333.063 51.1698 333.063 52.5298C333.063 52.9098 333.073 53.1998 333.093 53.3998C333.113 53.5998 333.133 53.7998 333.153 53.9998C333.193 54.1998 333.223 54.4998 333.243 54.8998L332.043 53.6698C332.363 52.5698 332.873 51.6098 333.573 50.7898C334.273 49.9698 335.113 49.3398 336.093 48.8998C337.093 48.4398 338.183 48.2098 339.363 48.2098C340.843 48.2098 342.153 48.5298 343.293 49.1698C344.453 49.8098 345.363 50.6898 346.023 51.8098C346.683 52.9298 347.013 54.2098 347.013 55.6498C347.013 57.1098 346.663 58.4198 345.963 59.5798C345.283 60.7198 344.313 61.6198 343.053 62.2798C341.793 62.9198 340.313 63.2398 338.613 63.2398ZM338.883 60.8398C339.903 60.8398 340.803 60.6198 341.583 60.1798C342.363 59.7198 342.973 59.1098 343.413 58.3498C343.853 57.5698 344.073 56.6998 344.073 55.7398C344.073 54.7798 343.853 53.9298 343.413 53.1898C342.973 52.4498 342.363 51.8698 341.583 51.4498C340.803 51.0098 339.883 50.7898 338.823 50.7898C337.823 50.7898 336.923 50.9998 336.123 51.4198C335.323 51.8198 334.703 52.3898 334.263 53.1298C333.823 53.8498 333.603 54.6898 333.603 55.6498C333.603 56.6098 333.823 57.4898 334.263 58.2898C334.723 59.0698 335.343 59.6898 336.123 60.1498C336.923 60.6098 337.843 60.8398 338.883 60.8398Z" fill="#163C51"/>
<path d="M323.347 62.9992V59.6392L323.197 59.0092V53.2792C323.197 52.0592 322.837 51.1192 322.117 50.4592C321.417 49.7792 320.357 49.4392 318.937 49.4392C317.997 49.4392 317.077 49.5992 316.177 49.9192C315.277 50.2192 314.517 50.6292 313.897 51.1492L312.697 48.9892C313.517 48.3292 314.497 47.8292 315.637 47.4892C316.797 47.1292 318.007 46.9492 319.267 46.9492C321.447 46.9492 323.127 47.4792 324.307 48.5392C325.487 49.5992 326.077 51.2192 326.077 53.3992V62.9992H323.347ZM318.127 63.1792C316.947 63.1792 315.907 62.9792 315.007 62.5792C314.127 62.1792 313.447 61.6292 312.967 60.9292C312.487 60.2092 312.247 59.3992 312.247 58.4992C312.247 57.6392 312.447 56.8592 312.847 56.1592C313.267 55.4592 313.937 54.8992 314.857 54.4792C315.797 54.0592 317.057 53.8492 318.637 53.8492H323.677V55.9192H318.757C317.317 55.9192 316.347 56.1592 315.847 56.6392C315.347 57.1192 315.097 57.6992 315.097 58.3792C315.097 59.1592 315.407 59.7892 316.027 60.2692C316.647 60.7292 317.507 60.9592 318.607 60.9592C319.687 60.9592 320.627 60.7192 321.427 60.2392C322.247 59.7592 322.837 59.0592 323.197 58.1392L323.767 60.1192C323.387 61.0592 322.717 61.8092 321.757 62.3692C320.797 62.9092 319.587 63.1792 318.127 63.1792Z" fill="#163C51"/>
<path d="M301.519 63.1792C300.199 63.1792 298.989 62.8792 297.889 62.2792C296.809 61.6592 295.939 60.7492 295.279 59.5492C294.639 58.3492 294.319 56.8492 294.319 55.0492C294.319 53.2492 294.629 51.7492 295.249 50.5492C295.889 49.3492 296.749 48.4492 297.829 47.8492C298.929 47.2492 300.159 46.9492 301.519 46.9492C303.079 46.9492 304.459 47.2892 305.659 47.9692C306.859 48.6492 307.809 49.5992 308.509 50.8192C309.209 52.0192 309.559 53.4292 309.559 55.0492C309.559 56.6692 309.209 58.0892 308.509 59.3092C307.809 60.5292 306.859 61.4792 305.659 62.1592C304.459 62.8392 303.079 63.1792 301.519 63.1792ZM293.089 68.8192V47.0992H295.849V51.3892L295.669 55.0792L295.969 58.7692V68.8192H293.089ZM301.279 60.6592C302.299 60.6592 303.209 60.4292 304.009 59.9692C304.829 59.5092 305.469 58.8592 305.929 58.0192C306.409 57.1592 306.649 56.1692 306.649 55.0492C306.649 53.9092 306.409 52.9292 305.929 52.1092C305.469 51.2692 304.829 50.6192 304.009 50.1592C303.209 49.6992 302.299 49.4692 301.279 49.4692C300.279 49.4692 299.369 49.6992 298.549 50.1592C297.749 50.6192 297.109 51.2692 296.629 52.1092C296.169 52.9292 295.939 53.9092 295.939 55.0492C295.939 56.1692 296.169 57.1592 296.629 58.0192C297.109 58.8592 297.749 59.5092 298.549 59.9692C299.369 60.4292 300.279 60.6592 301.279 60.6592Z" fill="#163C51"/>
<path d="M264.202 63.0006V47.1006H267.082V58.6806L276.832 47.1006H279.442V63.0006H276.562V51.4206L266.842 63.0006H264.202ZM271.642 45.0306C270.182 45.0306 269.032 44.6806 268.192 43.9806C267.372 43.2606 266.952 42.2306 266.932 40.8906H268.882C268.902 41.6506 269.152 42.2506 269.632 42.6906C270.132 43.1306 270.792 43.3506 271.612 43.3506C272.432 43.3506 273.092 43.1306 273.592 42.6906C274.092 42.2506 274.352 41.6506 274.372 40.8906H276.382C276.362 42.2306 275.932 43.2606 275.092 43.9806C274.252 44.6806 273.102 45.0306 271.642 45.0306Z" fill="#163C51"/>
<path d="M251.794 63.1792C250.194 63.1792 248.774 62.8292 247.534 62.1292C246.294 61.4292 245.314 60.4692 244.594 59.2492C243.874 58.0092 243.514 56.6092 243.514 55.0492C243.514 53.4692 243.874 52.0692 244.594 50.8492C245.314 49.6292 246.294 48.6792 247.534 47.9992C248.774 47.2992 250.194 46.9492 251.794 46.9492C253.374 46.9492 254.784 47.2992 256.024 47.9992C257.284 48.6792 258.264 49.6292 258.964 50.8492C259.684 52.0492 260.044 53.4492 260.044 55.0492C260.044 56.6292 259.684 58.0292 258.964 59.2492C258.264 60.4692 257.284 61.4292 256.024 62.1292C254.784 62.8292 253.374 63.1792 251.794 63.1792ZM251.794 60.6592C252.814 60.6592 253.724 60.4292 254.524 59.9692C255.344 59.5092 255.984 58.8592 256.444 58.0192C256.904 57.1592 257.134 56.1692 257.134 55.0492C257.134 53.9092 256.904 52.9292 256.444 52.1092C255.984 51.2692 255.344 50.6192 254.524 50.1592C253.724 49.6992 252.814 49.4692 251.794 49.4692C250.774 49.4692 249.864 49.6992 249.064 50.1592C248.264 50.6192 247.624 51.2692 247.144 52.1092C246.664 52.9292 246.424 53.9092 246.424 55.0492C246.424 56.1692 246.664 57.1592 247.144 58.0192C247.624 58.8592 248.264 59.5092 249.064 59.9692C249.864 60.4292 250.774 60.6592 251.794 60.6592Z" fill="#163C51"/>
<path d="M224.563 62.9996V47.0996H227.443V53.8496H236.503V47.0996H239.383V62.9996H236.503V56.3396H227.443V62.9996H224.563Z" fill="#163C51"/>
<path d="M214.658 52.4996C216.678 52.5196 218.218 52.9796 219.278 53.8796C220.338 54.7796 220.868 56.0496 220.868 57.6896C220.868 59.4096 220.288 60.7396 219.128 61.6796C217.968 62.5996 216.328 63.0496 214.208 63.0296L207.308 62.9996V47.0996H210.188V52.4696L214.658 52.4996ZM213.968 60.8396C215.268 60.8596 216.248 60.5996 216.908 60.0596C217.588 59.5196 217.928 58.7196 217.928 57.6596C217.928 56.6196 217.598 55.8596 216.938 55.3796C216.278 54.8996 215.288 54.6496 213.968 54.6296L210.188 54.5696V60.8096L213.968 60.8396Z" fill="#163C51"/>
<path d="M185.449 62.9696L185.629 60.5396C185.769 60.5596 185.899 60.5796 186.019 60.5996C186.139 60.6196 186.249 60.6296 186.349 60.6296C186.989 60.6296 187.489 60.4096 187.849 59.9696C188.229 59.5296 188.509 58.9496 188.689 58.2296C188.869 57.4896 188.999 56.6596 189.079 55.7396C189.159 54.8196 189.219 53.8996 189.259 52.9796L189.529 47.0996H201.739V62.9996H198.859V48.7796L199.549 49.6196H191.389L192.049 48.7496L191.839 53.1596C191.779 54.5596 191.669 55.8696 191.509 57.0896C191.349 58.3096 191.099 59.3796 190.759 60.2996C190.439 61.2196 189.989 61.9396 189.409 62.4596C188.849 62.9796 188.119 63.2396 187.219 63.2396C186.959 63.2396 186.679 63.2096 186.379 63.1496C186.099 63.1096 185.789 63.0496 185.449 62.9696Z" fill="#163C51"/>
<path d="M176.595 63.1792C174.895 63.1792 173.395 62.8292 172.095 62.1292C170.815 61.4292 169.815 60.4692 169.095 59.2492C168.395 58.0292 168.045 56.6292 168.045 55.0492C168.045 53.4692 168.385 52.0692 169.065 50.8492C169.765 49.6292 170.715 48.6792 171.915 47.9992C173.135 47.2992 174.505 46.9492 176.025 46.9492C177.565 46.9492 178.925 47.2892 180.105 47.9692C181.285 48.6492 182.205 49.6092 182.865 50.8492C183.545 52.0692 183.885 53.4992 183.885 55.1392C183.885 55.2592 183.875 55.3992 183.855 55.5592C183.855 55.7192 183.845 55.8692 183.825 56.0092H170.295V53.9392H182.325L181.155 54.6592C181.175 53.6392 180.965 52.7292 180.525 51.9292C180.085 51.1292 179.475 50.5092 178.695 50.0692C177.935 49.6092 177.045 49.3792 176.025 49.3792C175.025 49.3792 174.135 49.6092 173.355 50.0692C172.575 50.5092 171.965 51.1392 171.525 51.9592C171.085 52.7592 170.865 53.6792 170.865 54.7192V55.1992C170.865 56.2592 171.105 57.2092 171.585 58.0492C172.085 58.8692 172.775 59.5092 173.655 59.9692C174.535 60.4292 175.545 60.6592 176.685 60.6592C177.625 60.6592 178.475 60.4992 179.235 60.1792C180.015 59.8592 180.695 59.3792 181.275 58.7392L182.865 60.5992C182.145 61.4392 181.245 62.0792 180.165 62.5192C179.105 62.9592 177.915 63.1792 176.595 63.1792Z" fill="#163C51"/>
<path d="M158.573 62.9996V48.8696L159.293 49.6196H152.753V47.0996H167.273V49.6196H160.763L161.453 48.8696V62.9996H158.573Z" fill="#163C51"/>
<path d="M134.593 62.9996V47.0996H137.473V58.6796L147.223 47.0996H149.833V62.9996H146.953V51.4196L137.233 62.9996H134.593Z" fill="#163C51"/>
<path d="M116.165 62.9996V47.0996H123.545C125.405 47.0996 126.865 47.4596 127.925 48.1796C129.005 48.8796 129.545 49.8796 129.545 51.1796C129.545 52.4796 129.035 53.4896 128.015 54.2096C127.015 54.9096 125.685 55.2596 124.025 55.2596L124.475 54.4796C126.375 54.4796 127.785 54.8296 128.705 55.5296C129.625 56.2296 130.085 57.2596 130.085 58.6196C130.085 59.9996 129.565 61.0796 128.525 61.8596C127.505 62.6196 125.935 62.9996 123.815 62.9996H116.165ZM118.985 60.7796H123.605C124.805 60.7796 125.705 60.5996 126.305 60.2396C126.905 59.8596 127.205 59.2596 127.205 58.4396C127.205 57.5996 126.925 56.9896 126.365 56.6096C125.825 56.2096 124.965 56.0096 123.785 56.0096H118.985V60.7796ZM118.985 53.9396H123.305C124.405 53.9396 125.235 53.7396 125.795 53.3396C126.375 52.9196 126.665 52.3396 126.665 51.5996C126.665 50.8396 126.375 50.2696 125.795 49.8896C125.235 49.5096 124.405 49.3196 123.305 49.3196H118.985V53.9396Z" fill="#163C51"/>
<path d="M103.757 63.1792C102.157 63.1792 100.737 62.8292 99.4966 62.1292C98.2566 61.4292 97.2766 60.4692 96.5566 59.2492C95.8366 58.0092 95.4766 56.6092 95.4766 55.0492C95.4766 53.4692 95.8366 52.0692 96.5566 50.8492C97.2766 49.6292 98.2566 48.6792 99.4966 47.9992C100.737 47.2992 102.157 46.9492 103.757 46.9492C105.337 46.9492 106.747 47.2992 107.987 47.9992C109.247 48.6792 110.227 49.6292 110.927 50.8492C111.647 52.0492 112.007 53.4492 112.007 55.0492C112.007 56.6292 111.647 58.0292 110.927 59.2492C110.227 60.4692 109.247 61.4292 107.987 62.1292C106.747 62.8292 105.337 63.1792 103.757 63.1792ZM103.757 60.6592C104.777 60.6592 105.687 60.4292 106.487 59.9692C107.307 59.5092 107.947 58.8592 108.407 58.0192C108.867 57.1592 109.097 56.1692 109.097 55.0492C109.097 53.9092 108.867 52.9292 108.407 52.1092C107.947 51.2692 107.307 50.6192 106.487 50.1592C105.687 49.6992 104.777 49.4692 103.757 49.4692C102.737 49.4692 101.827 49.6992 101.027 50.1592C100.227 50.6192 99.5866 51.2692 99.1066 52.1092C98.6266 52.9292 98.3866 53.9092 98.3866 55.0492C98.3866 56.1692 98.6266 57.1592 99.1066 58.0192C99.5866 58.8592 100.227 59.5092 101.027 59.9692C101.827 60.4292 102.737 60.6592 103.757 60.6592Z" fill="#163C51"/>
<path d="M84.722 63.1792C83.402 63.1792 82.192 62.8792 81.092 62.2792C80.012 61.6592 79.142 60.7492 78.482 59.5492C77.842 58.3492 77.522 56.8492 77.522 55.0492C77.522 53.2492 77.832 51.7492 78.452 50.5492C79.092 49.3492 79.952 48.4492 81.032 47.8492C82.132 47.2492 83.362 46.9492 84.722 46.9492C86.282 46.9492 87.662 47.2892 88.862 47.9692C90.062 48.6492 91.012 49.5992 91.712 50.8192C92.412 52.0192 92.762 53.4292 92.762 55.0492C92.762 56.6692 92.412 58.0892 91.712 59.3092C91.012 60.5292 90.062 61.4792 88.862 62.1592C87.662 62.8392 86.282 63.1792 84.722 63.1792ZM76.292 68.8192V47.0992H79.052V51.3892L78.872 55.0792L79.172 58.7692V68.8192H76.292ZM84.482 60.6592C85.502 60.6592 86.412 60.4292 87.212 59.9692C88.032 59.5092 88.672 58.8592 89.132 58.0192C89.612 57.1592 89.852 56.1692 89.852 55.0492C89.852 53.9092 89.612 52.9292 89.132 52.1092C88.672 51.2692 88.032 50.6192 87.212 50.1592C86.412 49.6992 85.502 49.4692 84.482 49.4692C83.482 49.4692 82.572 49.6992 81.752 50.1592C80.952 50.6192 80.312 51.2692 79.832 52.1092C79.372 52.9292 79.142 53.9092 79.142 55.0492C79.142 56.1692 79.372 57.1592 79.832 58.0192C80.312 58.8592 80.952 59.5092 81.752 59.9692C82.572 60.4292 83.482 60.6592 84.482 60.6592Z" fill="#163C51"/>
<path d="M63.8835 63.1792C62.2835 63.1792 60.8635 62.8292 59.6235 62.1292C58.3835 61.4292 57.4035 60.4692 56.6835 59.2492C55.9635 58.0092 55.6035 56.6092 55.6035 55.0492C55.6035 53.4692 55.9635 52.0692 56.6835 50.8492C57.4035 49.6292 58.3835 48.6792 59.6235 47.9992C60.8635 47.2992 62.2835 46.9492 63.8835 46.9492C65.4635 46.9492 66.8735 47.2992 68.1135 47.9992C69.3735 48.6792 70.3535 49.6292 71.0535 50.8492C71.7735 52.0492 72.1335 53.4492 72.1335 55.0492C72.1335 56.6292 71.7735 58.0292 71.0535 59.2492C70.3535 60.4692 69.3735 61.4292 68.1135 62.1292C66.8735 62.8292 65.4635 63.1792 63.8835 63.1792ZM63.8835 60.6592C64.9035 60.6592 65.8135 60.4292 66.6135 59.9692C67.4335 59.5092 68.0735 58.8592 68.5335 58.0192C68.9935 57.1592 69.2235 56.1692 69.2235 55.0492C69.2235 53.9092 68.9935 52.9292 68.5335 52.1092C68.0735 51.2692 67.4335 50.6192 66.6135 50.1592C65.8135 49.6992 64.9035 49.4692 63.8835 49.4692C62.8635 49.4692 61.9535 49.6992 61.1535 50.1592C60.3535 50.6192 59.7135 51.2692 59.2335 52.1092C58.7535 52.9292 58.5135 53.9092 58.5135 55.0492C58.5135 56.1692 58.7535 57.1592 59.2335 58.0192C59.7135 58.8592 60.3535 59.5092 61.1535 59.9692C61.9535 60.4292 62.8635 60.6592 63.8835 60.6592Z" fill="#163C51"/>
<path d="M48.0116 61.6496V49.6196H41.1116L40.9616 52.6796C40.9216 53.6796 40.8516 54.6496 40.7516 55.5896C40.6716 56.5096 40.5316 57.3596 40.3316 58.1396C40.1516 58.9196 39.8816 59.5596 39.5216 60.0596C39.1616 60.5596 38.6816 60.8696 38.0816 60.9896L35.2316 60.4796C35.8516 60.4996 36.3516 60.2996 36.7316 59.8796C37.1116 59.4396 37.4016 58.8396 37.6016 58.0796C37.8216 57.3196 37.9816 56.4596 38.0816 55.4996C38.1816 54.5196 38.2616 53.5096 38.3216 52.4696L38.5616 47.0996H50.8916V61.6496H48.0116ZM34.6016 66.6896V60.4796H53.3216V66.6896H50.6216V62.9996H37.3316V66.6896H34.6016Z" fill="#163C51"/>
<path d="M25.4828 63.2108C24.2828 63.2108 23.1028 63.0608 21.9428 62.7608C20.8028 62.4408 19.7828 61.9908 18.8828 61.4108L19.7528 59.2208C20.5128 59.7008 21.3828 60.0808 22.3628 60.3608C23.3428 60.6208 24.3328 60.7508 25.3328 60.7508C26.2528 60.7508 27.0428 60.6408 27.7028 60.4208C28.3828 60.2008 28.9028 59.9008 29.2628 59.5208C29.6228 59.1208 29.8028 58.6608 29.8028 58.1408C29.8028 57.4008 29.4728 56.8308 28.8128 56.4308C28.1528 56.0308 27.2328 55.8308 26.0528 55.8308H23.1728V53.7608H25.8728C26.5728 53.7608 27.1828 53.6808 27.7028 53.5208C28.2228 53.3608 28.6228 53.1208 28.9028 52.8008C29.2028 52.4608 29.3528 52.0708 29.3528 51.6308C29.3528 51.1508 29.1828 50.7408 28.8428 50.4008C28.5028 50.0608 28.0228 49.8008 27.4028 49.6208C26.8028 49.4408 26.0928 49.3508 25.2728 49.3508C24.4728 49.3708 23.6528 49.4808 22.8128 49.6808C21.9928 49.8808 21.1528 50.1908 20.2928 50.6108L19.5128 48.3608C20.4728 47.9008 21.4128 47.5508 22.3328 47.3108C23.2728 47.0508 24.2028 46.9108 25.1228 46.8908C26.5028 46.8508 27.7328 47.0108 28.8128 47.3708C29.8928 47.7108 30.7428 48.2108 31.3628 48.8708C32.0028 49.5308 32.3228 50.3108 32.3228 51.2108C32.3228 51.9708 32.0828 52.6508 31.6028 53.2508C31.1228 53.8308 30.4828 54.2908 29.6828 54.6308C28.8828 54.9708 27.9628 55.1408 26.9228 55.1408L27.0428 54.4508C28.8228 54.4508 30.2228 54.8008 31.2428 55.5008C32.2628 56.2008 32.7728 57.1508 32.7728 58.3508C32.7728 59.3108 32.4528 60.1608 31.8128 60.9008C31.1728 61.6208 30.3028 62.1908 29.2028 62.6108C28.1228 63.0108 26.8828 63.2108 25.4828 63.2108Z" fill="#163C51"/>
<path d="M8.60031 63.1792C7.00031 63.1792 5.58031 62.8292 4.34031 62.1292C3.10031 61.4292 2.12031 60.4692 1.40031 59.2492C0.680313 58.0092 0.320312 56.6092 0.320312 55.0492C0.320312 53.4692 0.680313 52.0692 1.40031 50.8492C2.12031 49.6292 3.10031 48.6792 4.34031 47.9992C5.58031 47.2992 7.00031 46.9492 8.60031 46.9492C10.1803 46.9492 11.5903 47.2992 12.8303 47.9992C14.0903 48.6792 15.0703 49.6292 15.7703 50.8492C16.4903 52.0492 16.8503 53.4492 16.8503 55.0492C16.8503 56.6292 16.4903 58.0292 15.7703 59.2492C15.0703 60.4692 14.0903 61.4292 12.8303 62.1292C11.5903 62.8292 10.1803 63.1792 8.60031 63.1792ZM8.60031 60.6592C9.62031 60.6592 10.5303 60.4292 11.3303 59.9692C12.1503 59.5092 12.7903 58.8592 13.2503 58.0192C13.7103 57.1592 13.9403 56.1692 13.9403 55.0492C13.9403 53.9092 13.7103 52.9292 13.2503 52.1092C12.7903 51.2692 12.1503 50.6192 11.3303 50.1592C10.5303 49.6992 9.62031 49.4692 8.60031 49.4692C7.58031 49.4692 6.67031 49.6992 5.87031 50.1592C5.07031 50.6192 4.43031 51.2692 3.95031 52.1092C3.47031 52.9292 3.23031 53.9092 3.23031 55.0492C3.23031 56.1692 3.47031 57.1592 3.95031 58.0192C4.43031 58.8592 5.07031 59.5092 5.87031 59.9692C6.67031 60.4292 7.58031 60.6592 8.60031 60.6592Z" fill="#163C51"/>
<path d="M379.842 14.0095V11.5195H387.912V14.0095H379.842Z" fill="#163C51"/>
<path d="M368.219 21.1792C366.619 21.1792 365.199 20.8292 363.959 20.1292C362.719 19.4292 361.739 18.4692 361.019 17.2492C360.299 16.0092 359.939 14.6092 359.939 13.0492C359.939 11.4692 360.299 10.0692 361.019 8.84922C361.739 7.62922 362.719 6.67922 363.959 5.99922C365.199 5.29922 366.619 4.94922 368.219 4.94922C369.799 4.94922 371.209 5.29922 372.449 5.99922C373.709 6.67922 374.689 7.62922 375.389 8.84922C376.109 10.0492 376.469 11.4492 376.469 13.0492C376.469 14.6292 376.109 16.0292 375.389 17.2492C374.689 18.4692 373.709 19.4292 372.449 20.1292C371.209 20.8292 369.799 21.1792 368.219 21.1792ZM368.219 18.6592C369.239 18.6592 370.149 18.4292 370.949 17.9692C371.769 17.5092 372.409 16.8592 372.869 16.0192C373.329 15.1592 373.559 14.1692 373.559 13.0492C373.559 11.9092 373.329 10.9292 372.869 10.1092C372.409 9.26922 371.769 8.61922 370.949 8.15922C370.149 7.69922 369.239 7.46922 368.219 7.46922C367.199 7.46922 366.289 7.69922 365.489 8.15922C364.689 8.61922 364.049 9.26922 363.569 10.1092C363.089 10.9292 362.849 11.9092 362.849 13.0492C362.849 14.1692 363.089 15.1592 363.569 16.0192C364.049 16.8592 364.689 17.5092 365.489 17.9692C366.289 18.4292 367.199 18.6592 368.219 18.6592Z" fill="#163C51"/>
<path d="M340.989 20.9996V5.09961H343.869V11.8496H352.929V5.09961H355.809V20.9996H352.929V14.3396H343.869V20.9996H340.989Z" fill="#163C51"/>
<path d="M322.562 20.9996V5.09961H329.942C331.802 5.09961 333.262 5.45961 334.322 6.17961C335.402 6.87961 335.942 7.87961 335.942 9.17961C335.942 10.4796 335.432 11.4896 334.412 12.2096C333.412 12.9096 332.082 13.2596 330.422 13.2596L330.872 12.4796C332.772 12.4796 334.182 12.8296 335.102 13.5296C336.022 14.2296 336.482 15.2596 336.482 16.6196C336.482 17.9996 335.962 19.0796 334.922 19.8596C333.902 20.6196 332.332 20.9996 330.212 20.9996H322.562ZM325.382 18.7796H330.002C331.202 18.7796 332.102 18.5996 332.702 18.2396C333.302 17.8596 333.602 17.2596 333.602 16.4396C333.602 15.5996 333.322 14.9896 332.762 14.6096C332.222 14.2096 331.362 14.0096 330.182 14.0096H325.382V18.7796ZM325.382 11.9396H329.702C330.802 11.9396 331.632 11.7396 332.192 11.3396C332.772 10.9196 333.062 10.3396 333.062 9.59961C333.062 8.83961 332.772 8.26961 332.192 7.88961C331.632 7.50961 330.802 7.31961 329.702 7.31961H325.382V11.9396Z" fill="#163C51"/>
<path d="M301.731 20.9996V5.09961H304.611V16.6796L314.361 5.09961H316.971V20.9996H314.091V9.41961L304.371 20.9996H301.731Z" fill="#163C51"/>
<path d="M290.087 20.9996V6.86961L290.807 7.61961H284.267V5.09961H298.787V7.61961H292.277L292.967 6.86961V20.9996H290.087Z" fill="#163C51"/>
<path d="M275.298 21.1792C273.978 21.1792 272.768 20.8792 271.668 20.2792C270.588 19.6592 269.718 18.7492 269.058 17.5492C268.418 16.3492 268.098 14.8492 268.098 13.0492C268.098 11.2492 268.408 9.74922 269.028 8.54922C269.668 7.34922 270.528 6.44922 271.608 5.84922C272.708 5.24922 273.938 4.94922 275.298 4.94922C276.858 4.94922 278.238 5.28922 279.438 5.96922C280.638 6.64922 281.588 7.59922 282.288 8.81922C282.988 10.0192 283.338 11.4292 283.338 13.0492C283.338 14.6692 282.988 16.0892 282.288 17.3092C281.588 18.5292 280.638 19.4792 279.438 20.1592C278.238 20.8392 276.858 21.1792 275.298 21.1792ZM266.868 26.8192V5.09922H269.628V9.38922L269.448 13.0792L269.748 16.7692V26.8192H266.868ZM275.058 18.6592C276.078 18.6592 276.988 18.4292 277.788 17.9692C278.608 17.5092 279.248 16.8592 279.708 16.0192C280.188 15.1592 280.428 14.1692 280.428 13.0492C280.428 11.9092 280.188 10.9292 279.708 10.1092C279.248 9.26922 278.608 8.61922 277.788 8.15922C276.988 7.69922 276.078 7.46922 275.058 7.46922C274.058 7.46922 273.148 7.69922 272.328 8.15922C271.528 8.61922 270.888 9.26922 270.408 10.1092C269.948 10.9292 269.718 11.9092 269.718 13.0492C269.718 14.1692 269.948 15.1592 270.408 16.0192C270.888 16.8592 271.528 17.5092 272.328 17.9692C273.148 18.4292 274.058 18.6592 275.058 18.6592Z" fill="#163C51"/>
<path d="M254.46 21.1792C252.86 21.1792 251.44 20.8292 250.2 20.1292C248.96 19.4292 247.98 18.4692 247.26 17.2492C246.54 16.0092 246.18 14.6092 246.18 13.0492C246.18 11.4692 246.54 10.0692 247.26 8.84922C247.98 7.62922 248.96 6.67922 250.2 5.99922C251.44 5.29922 252.86 4.94922 254.46 4.94922C256.04 4.94922 257.45 5.29922 258.69 5.99922C259.95 6.67922 260.93 7.62922 261.63 8.84922C262.35 10.0492 262.71 11.4492 262.71 13.0492C262.71 14.6292 262.35 16.0292 261.63 17.2492C260.93 18.4692 259.95 19.4292 258.69 20.1292C257.45 20.8292 256.04 21.1792 254.46 21.1792ZM254.46 18.6592C255.48 18.6592 256.39 18.4292 257.19 17.9692C258.01 17.5092 258.65 16.8592 259.11 16.0192C259.57 15.1592 259.8 14.1692 259.8 13.0492C259.8 11.9092 259.57 10.9292 259.11 10.1092C258.65 9.26922 258.01 8.61922 257.19 8.15922C256.39 7.69922 255.48 7.46922 254.46 7.46922C253.44 7.46922 252.53 7.69922 251.73 8.15922C250.93 8.61922 250.29 9.26922 249.81 10.1092C249.33 10.9292 249.09 11.9092 249.09 13.0492C249.09 14.1692 249.33 15.1592 249.81 16.0192C250.29 16.8592 250.93 17.5092 251.73 17.9692C252.53 18.4292 253.44 18.6592 254.46 18.6592Z" fill="#163C51"/>
<path d="M227.347 20.9996V5.09961H242.077V20.9996H239.197V6.89961L239.887 7.61961H229.537L230.227 6.89961V20.9996H227.347Z" fill="#163C51"/>
<path d="M217.138 21.1792C215.518 21.1792 214.068 20.8292 212.788 20.1292C211.528 19.4292 210.538 18.4692 209.818 17.2492C209.098 16.0292 208.738 14.6292 208.738 13.0492C208.738 11.4692 209.098 10.0692 209.818 8.84922C210.538 7.62922 211.528 6.67922 212.788 5.99922C214.068 5.29922 215.518 4.94922 217.138 4.94922C218.578 4.94922 219.858 5.23922 220.978 5.81922C222.118 6.37922 222.998 7.21922 223.618 8.33922L221.428 9.74922C220.908 8.96922 220.268 8.39922 219.508 8.03922C218.768 7.65922 217.968 7.46922 217.108 7.46922C216.068 7.46922 215.138 7.69922 214.318 8.15922C213.498 8.61922 212.848 9.26922 212.368 10.1092C211.888 10.9292 211.648 11.9092 211.648 13.0492C211.648 14.1892 211.888 15.1792 212.368 16.0192C212.848 16.8592 213.498 17.5092 214.318 17.9692C215.138 18.4292 216.068 18.6592 217.108 18.6592C217.968 18.6592 218.768 18.4792 219.508 18.1192C220.268 17.7392 220.908 17.1592 221.428 16.3792L223.618 17.7592C222.998 18.8592 222.118 19.7092 220.978 20.3092C219.858 20.8892 218.578 21.1792 217.138 21.1792Z" fill="#163C51"/>
<path d="M190.394 21.1792C188.694 21.1792 187.194 20.8292 185.894 20.1292C184.614 19.4292 183.614 18.4692 182.894 17.2492C182.194 16.0292 181.844 14.6292 181.844 13.0492C181.844 11.4692 182.184 10.0692 182.864 8.84922C183.564 7.62922 184.514 6.67922 185.714 5.99922C186.934 5.29922 188.304 4.94922 189.824 4.94922C191.364 4.94922 192.724 5.28922 193.904 5.96922C195.084 6.64922 196.004 7.60922 196.664 8.84922C197.344 10.0692 197.684 11.4992 197.684 13.1392C197.684 13.2592 197.674 13.3992 197.654 13.5592C197.654 13.7192 197.644 13.8692 197.624 14.0092H184.094V11.9392H196.124L194.954 12.6592C194.974 11.6392 194.764 10.7292 194.324 9.92922C193.884 9.12922 193.274 8.50922 192.494 8.06922C191.734 7.60922 190.844 7.37922 189.824 7.37922C188.824 7.37922 187.934 7.60922 187.154 8.06922C186.374 8.50922 185.764 9.13922 185.324 9.95922C184.884 10.7592 184.664 11.6792 184.664 12.7192V13.1992C184.664 14.2592 184.904 15.2092 185.384 16.0492C185.884 16.8692 186.574 17.5092 187.454 17.9692C188.334 18.4292 189.344 18.6592 190.484 18.6592C191.424 18.6592 192.274 18.4992 193.034 18.1792C193.814 17.8592 194.494 17.3792 195.074 16.7392L196.664 18.5992C195.944 19.4392 195.044 20.0792 193.964 20.5192C192.904 20.9592 191.714 21.1792 190.394 21.1792Z" fill="#163C51"/>
<path d="M162.483 20.9996V5.09961H165.363V16.6796L175.113 5.09961H177.723V20.9996H174.843V9.41961L165.123 20.9996H162.483Z" fill="#163C51"/>
<path d="M142.063 20.9996V5.09961H144.943V11.8496H154.003V5.09961H156.883V20.9996H154.003V14.3396H144.943V20.9996H142.063Z" fill="#163C51"/>
<path d="M130.306 21.1792C128.606 21.1792 127.106 20.8292 125.806 20.1292C124.526 19.4292 123.526 18.4692 122.806 17.2492C122.106 16.0292 121.756 14.6292 121.756 13.0492C121.756 11.4692 122.096 10.0692 122.776 8.84922C123.476 7.62922 124.426 6.67922 125.626 5.99922C126.846 5.29922 128.216 4.94922 129.736 4.94922C131.276 4.94922 132.636 5.28922 133.816 5.96922C134.996 6.64922 135.916 7.60922 136.576 8.84922C137.256 10.0692 137.596 11.4992 137.596 13.1392C137.596 13.2592 137.586 13.3992 137.566 13.5592C137.566 13.7192 137.556 13.8692 137.536 14.0092H124.006V11.9392H136.036L134.866 12.6592C134.886 11.6392 134.676 10.7292 134.236 9.92922C133.796 9.12922 133.186 8.50922 132.406 8.06922C131.646 7.60922 130.756 7.37922 129.736 7.37922C128.736 7.37922 127.846 7.60922 127.066 8.06922C126.286 8.50922 125.676 9.13922 125.236 9.95922C124.796 10.7592 124.576 11.6792 124.576 12.7192V13.1992C124.576 14.2592 124.816 15.2092 125.296 16.0492C125.796 16.8692 126.486 17.5092 127.366 17.9692C128.246 18.4292 129.256 18.6592 130.396 18.6592C131.336 18.6592 132.186 18.4992 132.946 18.1792C133.726 17.8592 134.406 17.3792 134.986 16.7392L136.576 18.5992C135.856 19.4392 134.956 20.0792 133.876 20.5192C132.816 20.9592 131.626 21.1792 130.306 21.1792Z" fill="#163C51"/>
<path d="M114.164 19.6496V7.61961H107.264L107.114 10.6796C107.074 11.6796 107.004 12.6496 106.904 13.5896C106.824 14.5096 106.684 15.3596 106.484 16.1396C106.304 16.9196 106.034 17.5596 105.674 18.0596C105.314 18.5596 104.834 18.8696 104.234 18.9896L101.384 18.4796C102.004 18.4996 102.504 18.2996 102.884 17.8796C103.264 17.4396 103.554 16.8396 103.754 16.0796C103.974 15.3196 104.134 14.4596 104.234 13.4996C104.334 12.5196 104.414 11.5096 104.474 10.4696L104.714 5.09961H117.044V19.6496H114.164ZM100.754 24.6896V18.4796H119.474V24.6896H116.774V20.9996H103.484V24.6896H100.754Z" fill="#163C51"/>
<path d="M91.8098 21.1792C90.1098 21.1792 88.6098 20.8292 87.3098 20.1292C86.0298 19.4292 85.0298 18.4692 84.3098 17.2492C83.6098 16.0292 83.2598 14.6292 83.2598 13.0492C83.2598 11.4692 83.5998 10.0692 84.2798 8.84922C84.9798 7.62922 85.9298 6.67922 87.1298 5.99922C88.3498 5.29922 89.7198 4.94922 91.2398 4.94922C92.7798 4.94922 94.1398 5.28922 95.3198 5.96922C96.4998 6.64922 97.4198 7.60922 98.0798 8.84922C98.7598 10.0692 99.0998 11.4992 99.0998 13.1392C99.0998 13.2592 99.0898 13.3992 99.0698 13.5592C99.0698 13.7192 99.0598 13.8692 99.0398 14.0092H85.5098V11.9392H97.5398L96.3698 12.6592C96.3898 11.6392 96.1798 10.7292 95.7398 9.92922C95.2998 9.12922 94.6898 8.50922 93.9098 8.06922C93.1498 7.60922 92.2598 7.37922 91.2398 7.37922C90.2398 7.37922 89.3498 7.60922 88.5698 8.06922C87.7898 8.50922 87.1798 9.13922 86.7398 9.95922C86.2998 10.7592 86.0798 11.6792 86.0798 12.7192V13.1992C86.0798 14.2592 86.3198 15.2092 86.7998 16.0492C87.2998 16.8692 87.9898 17.5092 88.8698 17.9692C89.7498 18.4292 90.7598 18.6592 91.8998 18.6592C92.8398 18.6592 93.6898 18.4992 94.4498 18.1792C95.2298 17.8592 95.9098 17.3792 96.4898 16.7392L98.0798 18.5992C97.3598 19.4392 96.4598 20.0792 95.3798 20.5192C94.3198 20.9592 93.1298 21.1792 91.8098 21.1792Z" fill="#163C51"/>
<path d="M66.3018 20.9996V5.09961H73.6818C75.5418 5.09961 77.0018 5.45961 78.0618 6.17961C79.1418 6.87961 79.6818 7.87961 79.6818 9.17961C79.6818 10.4796 79.1718 11.4896 78.1518 12.2096C77.1518 12.9096 75.8218 13.2596 74.1618 13.2596L74.6118 12.4796C76.5118 12.4796 77.9218 12.8296 78.8418 13.5296C79.7618 14.2296 80.2218 15.2596 80.2218 16.6196C80.2218 17.9996 79.7018 19.0796 78.6618 19.8596C77.6418 20.6196 76.0718 20.9996 73.9518 20.9996H66.3018ZM69.1218 18.7796H73.7418C74.9418 18.7796 75.8418 18.5996 76.4418 18.2396C77.0418 17.8596 77.3418 17.2596 77.3418 16.4396C77.3418 15.5996 77.0618 14.9896 76.5018 14.6096C75.9618 14.2096 75.1018 14.0096 73.9218 14.0096H69.1218V18.7796ZM69.1218 11.9396H73.4418C74.5418 11.9396 75.3718 11.7396 75.9318 11.3396C76.5118 10.9196 76.8018 10.3396 76.8018 9.59961C76.8018 8.83961 76.5118 8.26961 75.9318 7.88961C75.3718 7.50961 74.5418 7.31961 73.4418 7.31961H69.1218V11.9396Z" fill="#163C51"/>
<path d="M53.8933 21.1792C52.2933 21.1792 50.8733 20.8292 49.6333 20.1292C48.3933 19.4292 47.4133 18.4692 46.6933 17.2492C45.9733 16.0092 45.6133 14.6092 45.6133 13.0492C45.6133 11.4692 45.9733 10.0692 46.6933 8.84922C47.4133 7.62922 48.3933 6.67922 49.6333 5.99922C50.8733 5.29922 52.2933 4.94922 53.8933 4.94922C55.4733 4.94922 56.8833 5.29922 58.1233 5.99922C59.3833 6.67922 60.3633 7.62922 61.0633 8.84922C61.7833 10.0492 62.1433 11.4492 62.1433 13.0492C62.1433 14.6292 61.7833 16.0292 61.0633 17.2492C60.3633 18.4692 59.3833 19.4292 58.1233 20.1292C56.8833 20.8292 55.4733 21.1792 53.8933 21.1792ZM53.8933 18.6592C54.9133 18.6592 55.8233 18.4292 56.6233 17.9692C57.4433 17.5092 58.0833 16.8592 58.5433 16.0192C59.0033 15.1592 59.2333 14.1692 59.2333 13.0492C59.2333 11.9092 59.0033 10.9292 58.5433 10.1092C58.0833 9.26922 57.4433 8.61922 56.6233 8.15922C55.8233 7.69922 54.9133 7.46922 53.8933 7.46922C52.8733 7.46922 51.9633 7.69922 51.1633 8.15922C50.3633 8.61922 49.7233 9.26922 49.2433 10.1092C48.7633 10.9292 48.5233 11.9092 48.5233 13.0492C48.5233 14.1692 48.7633 15.1592 49.2433 16.0192C49.7233 16.8592 50.3633 17.5092 51.1633 17.9692C51.9633 18.4292 52.8733 18.6592 53.8933 18.6592Z" fill="#163C51"/>
<path d="M34.8587 21.1792C33.5387 21.1792 32.3287 20.8792 31.2287 20.2792C30.1487 19.6592 29.2787 18.7492 28.6187 17.5492C27.9787 16.3492 27.6587 14.8492 27.6587 13.0492C27.6587 11.2492 27.9687 9.74922 28.5887 8.54922C29.2287 7.34922 30.0887 6.44922 31.1687 5.84922C32.2687 5.24922 33.4987 4.94922 34.8587 4.94922C36.4187 4.94922 37.7987 5.28922 38.9987 5.96922C40.1987 6.64922 41.1487 7.59922 41.8487 8.81922C42.5487 10.0192 42.8987 11.4292 42.8987 13.0492C42.8987 14.6692 42.5487 16.0892 41.8487 17.3092C41.1487 18.5292 40.1987 19.4792 38.9987 20.1592C37.7987 20.8392 36.4187 21.1792 34.8587 21.1792ZM26.4287 26.8192V5.09922H29.1887V9.38922L29.0087 13.0792L29.3087 16.7692V26.8192H26.4287ZM34.6187 18.6592C35.6387 18.6592 36.5487 18.4292 37.3487 17.9692C38.1687 17.5092 38.8087 16.8592 39.2687 16.0192C39.7487 15.1592 39.9887 14.1692 39.9887 13.0492C39.9887 11.9092 39.7487 10.9292 39.2687 10.1092C38.8087 9.26922 38.1687 8.61922 37.3487 8.15922C36.5487 7.69922 35.6387 7.46922 34.6187 7.46922C33.6187 7.46922 32.7087 7.69922 31.8887 8.15922C31.0887 8.61922 30.4487 9.26922 29.9687 10.1092C29.5087 10.9292 29.2787 11.9092 29.2787 13.0492C29.2787 14.1692 29.5087 15.1592 29.9687 16.0192C30.4487 16.8592 31.0887 17.5092 31.8887 17.9692C32.7087 18.4292 33.6187 18.6592 34.6187 18.6592Z" fill="#163C51"/>
<path d="M2.27051 21V0H20.3605V21H17.4205V1.83L18.1405 2.61H4.49051L5.24051 1.83V21H2.27051Z" fill="#163C51"/>
</svg>
