<svg width="995" height="61" viewBox="0 0 995 61" fill="none" xmlns="http://www.w3.org/2000/svg">
<path d="M986.934 54.0013V48.6313L987.594 49.3813H983.124C980.804 49.3813 978.984 48.9013 977.664 47.9413C976.344 46.9813 975.684 45.6013 975.684 43.8013C975.684 41.8813 976.374 40.4113 977.754 39.3913C979.154 38.3713 981.034 37.8613 983.394 37.8613H991.104V54.0013H986.934ZM975.444 54.0013L979.734 47.8513H984.504L980.424 54.0013H975.444ZM986.934 47.1913V40.4713L987.594 41.6713H983.484C982.524 41.6713 981.774 41.8513 981.234 42.2113C980.714 42.5713 980.454 43.1513 980.454 43.9513C980.454 45.4913 981.444 46.2613 983.424 46.2613H987.594L986.934 47.1913Z" fill="#163C51"/>
<path d="M967.071 54.2411C965.331 54.2411 963.781 53.8911 962.421 53.1911C961.061 52.4711 959.991 51.4811 959.211 50.2211C958.451 48.9611 958.071 47.5311 958.071 45.9311C958.071 44.3111 958.451 42.8811 959.211 41.6411C959.991 40.3811 961.061 39.4011 962.421 38.7011C963.781 37.9811 965.331 37.6211 967.071 37.6211C968.771 37.6211 970.251 37.9811 971.511 38.7011C972.771 39.4011 973.701 40.4111 974.301 41.7311L970.671 43.6811C970.251 42.9211 969.721 42.3611 969.081 42.0011C968.461 41.6411 967.781 41.4611 967.041 41.4611C966.241 41.4611 965.521 41.6411 964.881 42.0011C964.241 42.3611 963.731 42.8711 963.351 43.5311C962.991 44.1911 962.811 44.9911 962.811 45.9311C962.811 46.8711 962.991 47.6711 963.351 48.3311C963.731 48.9911 964.241 49.5011 964.881 49.8611C965.521 50.2211 966.241 50.4011 967.041 50.4011C967.781 50.4011 968.461 50.2311 969.081 49.8911C969.721 49.5311 970.251 48.9611 970.671 48.1811L974.301 50.1611C973.701 51.4611 972.771 52.4711 971.511 53.1911C970.251 53.8911 968.771 54.2411 967.071 54.2411Z" fill="#163C51"/>
<path d="M934.929 54.0013V37.8613H939.819L945.909 48.9013H943.959L950.469 37.8613H954.849L954.909 54.0013H950.679V42.6613L951.399 43.1413L945.849 52.4413H943.869L938.289 42.8113L939.159 42.6013V54.0013H934.929Z" fill="#163C51"/>
<path d="M923.541 54.2411C921.701 54.2411 920.081 53.8811 918.681 53.1611C917.301 52.4411 916.231 51.4611 915.471 50.2211C914.711 48.9611 914.331 47.5311 914.331 45.9311C914.331 44.3111 914.701 42.8811 915.441 41.6411C916.201 40.3811 917.231 39.4011 918.531 38.7011C919.831 37.9811 921.301 37.6211 922.941 37.6211C924.521 37.6211 925.941 37.9611 927.201 38.6411C928.481 39.3011 929.491 40.2611 930.231 41.5211C930.971 42.7611 931.341 44.2511 931.341 45.9911C931.341 46.1711 931.331 46.3811 931.311 46.6211C931.291 46.8411 931.271 47.0511 931.251 47.2511H918.141V44.5211H928.791L926.991 45.3311C926.991 44.4911 926.821 43.7611 926.481 43.1411C926.141 42.5211 925.671 42.0411 925.071 41.7011C924.471 41.3411 923.771 41.1611 922.971 41.1611C922.171 41.1611 921.461 41.3411 920.841 41.7011C920.241 42.0411 919.771 42.5311 919.431 43.1711C919.091 43.7911 918.921 44.5311 918.921 45.3911V46.1111C918.921 46.9911 919.111 47.7711 919.491 48.4511C919.891 49.1111 920.441 49.6211 921.141 49.9811C921.861 50.3211 922.701 50.4911 923.661 50.4911C924.521 50.4911 925.271 50.3611 925.911 50.1011C926.571 49.8411 927.171 49.4511 927.711 48.9311L930.201 51.6311C929.461 52.4711 928.531 53.1211 927.411 53.5811C926.291 54.0211 925.001 54.2411 923.541 54.2411Z" fill="#163C51"/>
<path d="M908.167 54.0013L903.877 46.3513L907.657 44.1013L913.717 54.0013H908.167ZM901.117 47.8813V44.1313H906.727V47.8813H901.117ZM908.137 46.4713L903.727 45.9913L908.377 37.8613H913.327L908.137 46.4713ZM892.207 54.0013H886.687L892.717 44.1013L896.497 46.3513L892.207 54.0013ZM902.497 54.0013H897.877V37.8613H902.497V54.0013ZM899.257 47.8813H893.677V44.1313H899.257V47.8813ZM892.237 46.4713L887.047 37.8613H891.997L896.617 45.9913L892.237 46.4713Z" fill="#163C51"/>
<path d="M880.089 54.0013V48.6313L880.749 49.3813H876.279C873.959 49.3813 872.139 48.9013 870.819 47.9413C869.499 46.9813 868.839 45.6013 868.839 43.8013C868.839 41.8813 869.529 40.4113 870.909 39.3913C872.309 38.3713 874.189 37.8613 876.549 37.8613H884.259V54.0013H880.089ZM868.599 54.0013L872.889 47.8513H877.659L873.579 54.0013H868.599ZM880.089 47.1913V40.4713L880.749 41.6713H876.639C875.679 41.6713 874.929 41.8513 874.389 42.2113C873.869 42.5713 873.609 43.1513 873.609 43.9513C873.609 45.4913 874.599 46.2613 876.579 46.2613H880.749L880.089 47.1913Z" fill="#163C51"/>
<path d="M851.257 54.0013V37.8613H859.507C861.527 37.8613 863.107 38.2313 864.247 38.9713C865.387 39.6913 865.957 40.7113 865.957 42.0313C865.957 43.3513 865.417 44.3913 864.337 45.1513C863.277 45.8913 861.867 46.2613 860.107 46.2613L860.587 45.1813C862.547 45.1813 864.007 45.5413 864.967 46.2613C865.947 46.9813 866.437 48.0313 866.437 49.4113C866.437 50.8313 865.897 51.9513 864.817 52.7713C863.737 53.5913 862.087 54.0013 859.867 54.0013H851.257ZM855.547 50.8213H859.477C860.337 50.8213 860.977 50.6813 861.397 50.4013C861.837 50.1013 862.057 49.6513 862.057 49.0513C862.057 48.4313 861.857 47.9813 861.457 47.7013C861.057 47.4013 860.427 47.2513 859.567 47.2513H855.547V50.8213ZM855.547 44.4913H859.087C859.907 44.4913 860.517 44.3413 860.917 44.0413C861.337 43.7413 861.547 43.3113 861.547 42.7513C861.547 42.1713 861.337 41.7413 860.917 41.4613C860.517 41.1813 859.907 41.0413 859.087 41.0413H855.547V44.4913Z" fill="#163C51"/>
<path d="M841.183 54.2411C839.443 54.2411 837.893 53.8911 836.533 53.1911C835.173 52.4711 834.103 51.4811 833.323 50.2211C832.563 48.9611 832.183 47.5311 832.183 45.9311C832.183 44.3111 832.563 42.8811 833.323 41.6411C834.103 40.3811 835.173 39.4011 836.533 38.7011C837.893 37.9811 839.443 37.6211 841.183 37.6211C842.883 37.6211 844.363 37.9811 845.623 38.7011C846.883 39.4011 847.813 40.4111 848.413 41.7311L844.783 43.6811C844.363 42.9211 843.833 42.3611 843.193 42.0011C842.573 41.6411 841.893 41.4611 841.153 41.4611C840.353 41.4611 839.633 41.6411 838.993 42.0011C838.353 42.3611 837.843 42.8711 837.463 43.5311C837.103 44.1911 836.923 44.9911 836.923 45.9311C836.923 46.8711 837.103 47.6711 837.463 48.3311C837.843 48.9911 838.353 49.5011 838.993 49.8611C839.633 50.2211 840.353 50.4011 841.153 50.4011C841.893 50.4011 842.573 50.2311 843.193 49.8911C843.833 49.5311 844.363 48.9611 844.783 48.1811L848.413 50.1611C847.813 51.4611 846.883 52.4711 845.623 53.1911C844.363 53.8911 842.883 54.2411 841.183 54.2411Z" fill="#163C51"/>
<path d="M803.708 54.0013V37.8613H808.358V47.4613L816.218 37.8613H820.508V54.0013H815.858V44.4013L808.028 54.0013H803.708Z" fill="#163C51"/>
<path d="M779.245 54.0013V37.8613H784.135L790.225 48.9013H788.275L794.785 37.8613H799.165L799.225 54.0013H794.995V42.6613L795.715 43.1413L790.165 52.4413H788.185L782.605 42.8113L783.475 42.6013V54.0013H779.245Z" fill="#163C51"/>
<path d="M770.8 54.0011V50.8511L770.5 50.1611V44.5211C770.5 43.5211 770.19 42.7411 769.57 42.1811C768.97 41.6211 768.04 41.3411 766.78 41.3411C765.92 41.3411 765.07 41.4811 764.23 41.7611C763.41 42.0211 762.71 42.3811 762.13 42.8411L760.45 39.5711C761.33 38.9511 762.39 38.4711 763.63 38.1311C764.87 37.7911 766.13 37.6211 767.41 37.6211C769.87 37.6211 771.78 38.2011 773.14 39.3611C774.5 40.5211 775.18 42.3311 775.18 44.7911V54.0011H770.8ZM765.88 54.2411C764.62 54.2411 763.54 54.0311 762.64 53.6111C761.74 53.1711 761.05 52.5811 760.57 51.8411C760.09 51.1011 759.85 50.2711 759.85 49.3511C759.85 48.3911 760.08 47.5511 760.54 46.8311C761.02 46.1111 761.77 45.5511 762.79 45.1511C763.81 44.7311 765.14 44.5211 766.78 44.5211H771.07V47.2511H767.29C766.19 47.2511 765.43 47.4311 765.01 47.7911C764.61 48.1511 764.41 48.6011 764.41 49.1411C764.41 49.7411 764.64 50.2211 765.1 50.5811C765.58 50.9211 766.23 51.0911 767.05 51.0911C767.83 51.0911 768.53 50.9111 769.15 50.5511C769.77 50.1711 770.22 49.6211 770.5 48.9011L771.22 51.0611C770.88 52.1011 770.26 52.8911 769.36 53.4311C768.46 53.9711 767.3 54.2411 765.88 54.2411Z" fill="#163C51"/>
<path d="M742.478 54.0013V37.8613H750.728C752.748 37.8613 754.328 38.2313 755.468 38.9713C756.608 39.6913 757.178 40.7113 757.178 42.0313C757.178 43.3513 756.638 44.3913 755.558 45.1513C754.498 45.8913 753.088 46.2613 751.328 46.2613L751.808 45.1813C753.768 45.1813 755.228 45.5413 756.188 46.2613C757.168 46.9813 757.658 48.0313 757.658 49.4113C757.658 50.8313 757.118 51.9513 756.038 52.7713C754.958 53.5913 753.308 54.0013 751.088 54.0013H742.478ZM746.768 50.8213H750.698C751.558 50.8213 752.198 50.6813 752.618 50.4013C753.058 50.1013 753.278 49.6513 753.278 49.0513C753.278 48.4313 753.078 47.9813 752.678 47.7013C752.278 47.4013 751.648 47.2513 750.788 47.2513H746.768V50.8213ZM746.768 44.4913H750.308C751.128 44.4913 751.738 44.3413 752.138 44.0413C752.558 43.7413 752.768 43.3113 752.768 42.7513C752.768 42.1713 752.558 41.7413 752.138 41.4613C751.738 41.1813 751.128 41.0413 750.308 41.0413H746.768V44.4913Z" fill="#163C51"/>
<path d="M723.907 54.2411C722.167 54.2411 720.617 53.8911 719.257 53.1911C717.897 52.4711 716.827 51.4811 716.047 50.2211C715.287 48.9611 714.907 47.5311 714.907 45.9311C714.907 44.3111 715.287 42.8811 716.047 41.6411C716.827 40.3811 717.897 39.4011 719.257 38.7011C720.617 37.9811 722.167 37.6211 723.907 37.6211C725.607 37.6211 727.087 37.9811 728.347 38.7011C729.607 39.4011 730.537 40.4111 731.137 41.7311L727.507 43.6811C727.087 42.9211 726.557 42.3611 725.917 42.0011C725.297 41.6411 724.617 41.4611 723.877 41.4611C723.077 41.4611 722.357 41.6411 721.717 42.0011C721.077 42.3611 720.567 42.8711 720.187 43.5311C719.827 44.1911 719.647 44.9911 719.647 45.9311C719.647 46.8711 719.827 47.6711 720.187 48.3311C720.567 48.9911 721.077 49.5011 721.717 49.8611C722.357 50.2211 723.077 50.4011 723.877 50.4011C724.617 50.4011 725.297 50.2311 725.917 49.8911C726.557 49.5311 727.087 48.9611 727.507 48.1811L731.137 50.1611C730.537 51.4611 729.607 52.4711 728.347 53.1911C727.087 53.8911 725.607 54.2411 723.907 54.2411Z" fill="#163C51"/>
<path d="M698.57 54.0013V37.8613H703.22V54.0013H698.57ZM690.44 43.0213C692.56 43.0413 694.15 43.5213 695.21 44.4613C696.29 45.3813 696.83 46.6913 696.83 48.3913C696.83 50.1713 696.22 51.5613 695 52.5613C693.78 53.5413 692.05 54.0313 689.81 54.0313L681.95 54.0013V37.8613H686.6V43.0213H690.44ZM689.39 50.7013C690.29 50.7213 690.98 50.5313 691.46 50.1313C691.94 49.7313 692.18 49.1313 692.18 48.3313C692.18 47.5313 691.94 46.9613 691.46 46.6213C690.98 46.2613 690.29 46.0713 689.39 46.0513L686.6 46.0213V50.7013H689.39Z" fill="#163C51"/>
<path d="M657.487 54.0013V37.8613H662.377L668.467 48.9013H666.517L673.027 37.8613H677.407L677.467 54.0013H673.237V42.6613L673.957 43.1413L668.407 52.4413H666.427L660.847 42.8113L661.717 42.6013V54.0013H657.487Z" fill="#163C51"/>
<path d="M627.692 54.0013V37.8613H632.342V47.4613L640.202 37.8613H644.492V54.0013H639.842V44.4013L632.012 54.0013H627.692Z" fill="#163C51"/>
<path d="M606.862 54.0013V37.8613H611.512V44.1613H618.532V37.8613H623.212V54.0013H618.532V47.9713H611.512V54.0013H606.862Z" fill="#163C51"/>
<path d="M596.927 51.9013V41.7013H591.647L591.557 43.7713C591.517 44.6313 591.467 45.4513 591.407 46.2313C591.347 47.0113 591.227 47.7213 591.047 48.3613C590.887 48.9813 590.647 49.5113 590.327 49.9513C590.007 50.3713 589.577 50.6613 589.037 50.8213L584.417 50.1613C584.997 50.1613 585.467 49.9913 585.827 49.6513C586.187 49.2913 586.467 48.8013 586.667 48.1813C586.867 47.5413 587.017 46.8213 587.117 46.0213C587.217 45.2013 587.287 44.3413 587.327 43.4413L587.537 37.8613H601.607V51.9013H596.927ZM583.877 57.4813V50.1613H603.917V57.4813H599.567V54.0013H588.227V57.4813H583.877Z" fill="#163C51"/>
<path d="M565.943 54.2411C564.103 54.2411 562.483 53.8811 561.083 53.1611C559.703 52.4411 558.633 51.4611 557.873 50.2211C557.113 48.9611 556.733 47.5311 556.733 45.9311C556.733 44.3111 557.103 42.8811 557.843 41.6411C558.603 40.3811 559.633 39.4011 560.933 38.7011C562.233 37.9811 563.703 37.6211 565.343 37.6211C566.923 37.6211 568.343 37.9611 569.603 38.6411C570.883 39.3011 571.893 40.2611 572.633 41.5211C573.373 42.7611 573.743 44.2511 573.743 45.9911C573.743 46.1711 573.733 46.3811 573.713 46.6211C573.693 46.8411 573.673 47.0511 573.653 47.2511H560.543V44.5211H571.193L569.393 45.3311C569.393 44.4911 569.223 43.7611 568.883 43.1411C568.543 42.5211 568.073 42.0411 567.473 41.7011C566.873 41.3411 566.173 41.1611 565.373 41.1611C564.573 41.1611 563.863 41.3411 563.243 41.7011C562.643 42.0411 562.173 42.5311 561.833 43.1711C561.493 43.7911 561.323 44.5311 561.323 45.3911V46.1111C561.323 46.9911 561.513 47.7711 561.893 48.4511C562.293 49.1111 562.843 49.6211 563.543 49.9811C564.263 50.3211 565.103 50.4911 566.063 50.4911C566.923 50.4911 567.673 50.3611 568.313 50.1011C568.973 49.8411 569.573 49.4511 570.113 48.9311L572.603 51.6311C571.863 52.4711 570.933 53.1211 569.813 53.5811C568.693 54.0211 567.403 54.2411 565.943 54.2411Z" fill="#163C51"/>
<path d="M536.755 54.0013V37.8613H541.405V47.4613L549.265 37.8613H553.555V54.0013H548.905V44.4013L541.075 54.0013H536.755Z" fill="#163C51"/>
<path d="M518.644 50.1613L517.624 51.2413V37.8613H522.304V51.2413L521.224 50.1613H528.664L527.614 51.2413V37.8613H532.264V54.0013H507.634V37.8613H512.284V51.2413L511.234 50.1613H518.644Z" fill="#163C51"/>
<path d="M486.335 54.0007V37.8607H490.985V47.4607L498.845 37.8607H503.135V54.0007H498.485V44.4007L490.655 54.0007H486.335ZM494.435 36.1207C492.675 36.1207 491.355 35.7407 490.475 34.9807C489.595 34.2007 489.145 33.0307 489.125 31.4707H492.185C492.205 32.1507 492.395 32.6907 492.755 33.0907C493.115 33.4907 493.665 33.6907 494.405 33.6907C495.125 33.6907 495.675 33.4907 496.055 33.0907C496.455 32.6907 496.655 32.1507 496.655 31.4707H499.775C499.775 33.0307 499.325 34.2007 498.425 34.9807C497.525 35.7407 496.195 36.1207 494.435 36.1207Z" fill="#163C51"/>
<path d="M477.889 54.0011V50.8511L477.589 50.1611V44.5211C477.589 43.5211 477.279 42.7411 476.659 42.1811C476.059 41.6211 475.129 41.3411 473.869 41.3411C473.009 41.3411 472.159 41.4811 471.319 41.7611C470.499 42.0211 469.799 42.3811 469.219 42.8411L467.539 39.5711C468.419 38.9511 469.479 38.4711 470.719 38.1311C471.959 37.7911 473.219 37.6211 474.499 37.6211C476.959 37.6211 478.869 38.2011 480.229 39.3611C481.589 40.5211 482.269 42.3311 482.269 44.7911V54.0011H477.889ZM472.969 54.2411C471.709 54.2411 470.629 54.0311 469.729 53.6111C468.829 53.1711 468.139 52.5811 467.659 51.8411C467.179 51.1011 466.939 50.2711 466.939 49.3511C466.939 48.3911 467.169 47.5511 467.629 46.8311C468.109 46.1111 468.859 45.5511 469.879 45.1511C470.899 44.7311 472.229 44.5211 473.869 44.5211H478.159V47.2511H474.379C473.279 47.2511 472.519 47.4311 472.099 47.7911C471.699 48.1511 471.499 48.6011 471.499 49.1411C471.499 49.7411 471.729 50.2211 472.189 50.5811C472.669 50.9211 473.319 51.0911 474.139 51.0911C474.919 51.0911 475.619 50.9111 476.239 50.5511C476.859 50.1711 477.309 49.6211 477.589 48.9011L478.309 51.0611C477.969 52.1011 477.349 52.8911 476.449 53.4311C475.549 53.9711 474.389 54.2411 472.969 54.2411Z" fill="#163C51"/>
<path d="M460.54 54.0013L456.25 46.3513L460.03 44.1013L466.09 54.0013H460.54ZM453.49 47.8813V44.1313H459.1V47.8813H453.49ZM460.51 46.4713L456.1 45.9913L460.75 37.8613H465.7L460.51 46.4713ZM444.58 54.0013H439.06L445.09 44.1013L448.87 46.3513L444.58 54.0013ZM454.87 54.0013H450.25V37.8613H454.87V54.0013ZM451.63 47.8813H446.05V44.1313H451.63V47.8813ZM444.61 46.4713L439.42 37.8613H444.37L448.99 45.9913L444.61 46.4713Z" fill="#163C51"/>
<path d="M419.831 54.0013V37.8613H424.481V47.4613L432.341 37.8613H436.631V54.0013H431.981V44.4013L424.151 54.0013H419.831Z" fill="#163C51"/>
<path d="M397.811 53.9713L398.051 50.1313C398.171 50.1513 398.291 50.1713 398.411 50.1913C398.531 50.1913 398.641 50.1913 398.741 50.1913C399.301 50.1913 399.741 50.0313 400.061 49.7113C400.381 49.3913 400.621 48.9613 400.781 48.4213C400.941 47.8613 401.051 47.2313 401.111 46.5313C401.191 45.8313 401.251 45.1013 401.291 44.3413L401.531 37.8613H415.331V54.0013H410.651V40.5613L411.701 41.7013H404.621L405.611 40.5013L405.401 44.5513C405.341 45.9913 405.221 47.3113 405.041 48.5113C404.881 49.7113 404.611 50.7513 404.231 51.6313C403.851 52.4913 403.341 53.1613 402.701 53.6413C402.061 54.1013 401.241 54.3313 400.241 54.3313C399.881 54.3313 399.501 54.3013 399.101 54.2413C398.701 54.1813 398.271 54.0913 397.811 53.9713Z" fill="#163C51"/>
<path d="M387.909 54.3606C386.589 54.3606 385.389 54.1706 384.309 53.7906C383.229 53.3906 382.289 52.7806 381.489 51.9606C380.709 51.1206 380.099 50.0506 379.659 48.7506C379.239 47.4506 379.029 45.9006 379.029 44.1006C379.029 42.8206 379.139 41.6506 379.359 40.5906C379.579 39.5306 379.909 38.5706 380.349 37.7106C380.789 36.8306 381.349 36.0606 382.029 35.4006C382.729 34.7206 383.539 34.1606 384.459 33.7206C385.399 33.2606 386.459 32.9106 387.639 32.6706L395.319 31.1406L395.949 35.1606L389.169 36.5106C388.769 36.5906 388.309 36.7006 387.789 36.8406C387.289 36.9606 386.779 37.1506 386.259 37.4106C385.759 37.6706 385.289 38.0406 384.849 38.5206C384.429 38.9806 384.089 39.5906 383.829 40.3506C383.569 41.0906 383.439 42.0106 383.439 43.1106C383.439 43.4506 383.449 43.7106 383.469 43.8906C383.509 44.0706 383.539 44.2606 383.559 44.4606C383.599 44.6606 383.619 44.9706 383.619 45.3906L382.119 43.9206C382.559 42.9806 383.119 42.1806 383.799 41.5206C384.499 40.8606 385.299 40.3606 386.199 40.0206C387.119 39.6606 388.139 39.4806 389.259 39.4806C390.779 39.4806 392.109 39.7906 393.249 40.4106C394.409 41.0106 395.309 41.8606 395.949 42.9606C396.589 44.0606 396.909 45.3106 396.909 46.7106C396.909 48.2306 396.529 49.5706 395.769 50.7306C395.009 51.8706 393.949 52.7606 392.589 53.4006C391.249 54.0406 389.689 54.3606 387.909 54.3606ZM388.149 50.7306C388.929 50.7306 389.619 50.5606 390.219 50.2206C390.819 49.8606 391.279 49.3906 391.599 48.8106C391.939 48.2106 392.109 47.5406 392.109 46.8006C392.109 46.0806 391.939 45.4406 391.599 44.8806C391.279 44.3206 390.819 43.8806 390.219 43.5606C389.619 43.2406 388.919 43.0806 388.119 43.0806C387.339 43.0806 386.639 43.2406 386.019 43.5606C385.399 43.8606 384.919 44.2806 384.579 44.8206C384.239 45.3606 384.069 45.9906 384.069 46.7106C384.069 47.4506 384.239 48.1306 384.579 48.7506C384.939 49.3506 385.419 49.8306 386.019 50.1906C386.639 50.5506 387.349 50.7306 388.149 50.7306Z" fill="#163C51"/>
<path d="M352.741 54.0013V37.8613H360.991C363.011 37.8613 364.591 38.2313 365.731 38.9713C366.871 39.6913 367.441 40.7113 367.441 42.0313C367.441 43.3513 366.901 44.3913 365.821 45.1513C364.761 45.8913 363.351 46.2613 361.591 46.2613L362.071 45.1813C364.031 45.1813 365.491 45.5413 366.451 46.2613C367.431 46.9813 367.921 48.0313 367.921 49.4113C367.921 50.8313 367.381 51.9513 366.301 52.7713C365.221 53.5913 363.571 54.0013 361.351 54.0013H352.741ZM357.031 50.8213H360.961C361.821 50.8213 362.461 50.6813 362.881 50.4013C363.321 50.1013 363.541 49.6513 363.541 49.0513C363.541 48.4313 363.341 47.9813 362.941 47.7013C362.541 47.4013 361.911 47.2513 361.051 47.2513H357.031V50.8213ZM357.031 44.4913H360.571C361.391 44.4913 362.001 44.3413 362.401 44.0413C362.821 43.7413 363.031 43.3113 363.031 42.7513C363.031 42.1713 362.821 41.7413 362.401 41.4613C362.001 41.1813 361.391 41.0413 360.571 41.0413H357.031V44.4913Z" fill="#163C51"/>
<path d="M322.946 54.0013V37.8613H327.596V47.4613L335.456 37.8613H339.746V54.0013H335.096V44.4013L327.266 54.0013H322.946Z" fill="#163C51"/>
<path d="M305.698 58.6219L307.678 51.4219L308.338 54.1219C307.478 54.1219 306.768 53.8719 306.208 53.3719C305.668 52.8719 305.398 52.1819 305.398 51.3019C305.398 50.4219 305.678 49.7219 306.238 49.2019C306.798 48.6819 307.488 48.4219 308.308 48.4219C309.148 48.4219 309.838 48.6919 310.378 49.2319C310.918 49.7519 311.188 50.4419 311.188 51.3019C311.188 51.5619 311.168 51.8219 311.128 52.0819C311.088 52.3219 311.008 52.6219 310.888 52.9819C310.788 53.3219 310.618 53.7619 310.378 54.3019L308.668 58.6219H305.698Z" fill="#163C51"/>
<path d="M291.327 60.0613C290.487 60.0613 289.657 59.9313 288.837 59.6713C288.017 59.4113 287.347 59.0513 286.827 58.5913L288.537 55.2613C288.897 55.5813 289.307 55.8313 289.767 56.0113C290.247 56.1913 290.717 56.2813 291.177 56.2813C291.837 56.2813 292.357 56.1213 292.737 55.8013C293.137 55.5013 293.497 54.9913 293.817 54.2713L294.657 52.2913L295.017 51.7813L300.807 37.8613H305.307L298.017 54.9913C297.497 56.2913 296.897 57.3113 296.217 58.0513C295.557 58.7913 294.817 59.3113 293.997 59.6113C293.197 59.9113 292.307 60.0613 291.327 60.0613ZM294.087 54.6313L286.887 37.8613H291.717L297.297 51.3613L294.087 54.6313Z" fill="#163C51"/>
<path d="M282.228 54.0013L276.828 46.3513L280.638 44.1013L287.748 54.0013H282.228ZM270.798 54.0013V37.8613H275.478V54.0013H270.798ZM274.098 47.8813V44.1313H279.738V47.8813H274.098ZM281.088 46.4713L276.708 45.9913L282.378 37.8613H287.358L281.088 46.4713Z" fill="#163C51"/>
<path d="M252.136 54.0013V37.8613H260.386C262.406 37.8613 263.986 38.2313 265.126 38.9713C266.266 39.6913 266.836 40.7113 266.836 42.0313C266.836 43.3513 266.296 44.3913 265.216 45.1513C264.156 45.8913 262.746 46.2613 260.986 46.2613L261.466 45.1813C263.426 45.1813 264.886 45.5413 265.846 46.2613C266.826 46.9813 267.316 48.0313 267.316 49.4113C267.316 50.8313 266.776 51.9513 265.696 52.7713C264.616 53.5913 262.966 54.0013 260.746 54.0013H252.136ZM256.426 50.8213H260.356C261.216 50.8213 261.856 50.6813 262.276 50.4013C262.716 50.1013 262.936 49.6513 262.936 49.0513C262.936 48.4313 262.736 47.9813 262.336 47.7013C261.936 47.4013 261.306 47.2513 260.446 47.2513H256.426V50.8213ZM256.426 44.4913H259.966C260.786 44.4913 261.396 44.3413 261.796 44.0413C262.216 43.7413 262.426 43.3113 262.426 42.7513C262.426 42.1713 262.216 41.7413 261.796 41.4613C261.396 41.1813 260.786 41.0413 259.966 41.0413H256.426V44.4913Z" fill="#163C51"/>
<path d="M243.468 54.0013V48.6313L244.128 49.3813H239.658C237.338 49.3813 235.518 48.9013 234.198 47.9413C232.878 46.9813 232.218 45.6013 232.218 43.8013C232.218 41.8813 232.908 40.4113 234.288 39.3913C235.688 38.3713 237.568 37.8613 239.928 37.8613H247.638V54.0013H243.468ZM231.978 54.0013L236.268 47.8513H241.038L236.958 54.0013H231.978ZM243.468 47.1913V40.4713L244.128 41.6713H240.018C239.058 41.6713 238.308 41.8513 237.768 42.2113C237.248 42.5713 236.988 43.1513 236.988 43.9513C236.988 45.4913 237.978 46.2613 239.958 46.2613H244.128L243.468 47.1913Z" fill="#163C51"/>
<path d="M224.852 54.0011V50.8511L224.552 50.1611V44.5211C224.552 43.5211 224.242 42.7411 223.622 42.1811C223.022 41.6211 222.092 41.3411 220.832 41.3411C219.972 41.3411 219.122 41.4811 218.282 41.7611C217.462 42.0211 216.762 42.3811 216.182 42.8411L214.502 39.5711C215.382 38.9511 216.442 38.4711 217.682 38.1311C218.922 37.7911 220.182 37.6211 221.462 37.6211C223.922 37.6211 225.832 38.2011 227.192 39.3611C228.552 40.5211 229.232 42.3311 229.232 44.7911V54.0011H224.852ZM219.932 54.2411C218.672 54.2411 217.592 54.0311 216.692 53.6111C215.792 53.1711 215.102 52.5811 214.622 51.8411C214.142 51.1011 213.902 50.2711 213.902 49.3511C213.902 48.3911 214.132 47.5511 214.592 46.8311C215.072 46.1111 215.822 45.5511 216.842 45.1511C217.862 44.7311 219.192 44.5211 220.832 44.5211H225.122V47.2511H221.342C220.242 47.2511 219.482 47.4311 219.062 47.7911C218.662 48.1511 218.462 48.6011 218.462 49.1411C218.462 49.7411 218.692 50.2211 219.152 50.5811C219.632 50.9211 220.282 51.0911 221.102 51.0911C221.882 51.0911 222.582 50.9111 223.202 50.5511C223.822 50.1711 224.272 49.6211 224.552 48.9011L225.272 51.0611C224.932 52.1011 224.312 52.8911 223.412 53.4311C222.512 53.9711 221.352 54.2411 219.932 54.2411Z" fill="#163C51"/>
<path d="M203.806 54.3007C202.566 54.3007 201.326 54.1707 200.086 53.9107C198.866 53.6507 197.736 53.2607 196.696 52.7407L197.956 49.4707C198.776 49.8707 199.666 50.1807 200.626 50.4007C201.606 50.6007 202.596 50.7007 203.596 50.7007C204.316 50.7007 204.936 50.6307 205.456 50.4907C205.996 50.3307 206.406 50.1107 206.686 49.8307C206.966 49.5507 207.106 49.2107 207.106 48.8107C207.106 48.2907 206.886 47.9007 206.446 47.6407C206.006 47.3607 205.366 47.2207 204.526 47.2207H201.226V44.3107H204.136C204.676 44.3107 205.136 44.2507 205.516 44.1307C205.896 44.0107 206.176 43.8407 206.356 43.6207C206.556 43.3807 206.656 43.1007 206.656 42.7807C206.656 42.4407 206.536 42.1507 206.296 41.9107C206.056 41.6707 205.706 41.4907 205.246 41.3707C204.786 41.2307 204.206 41.1607 203.506 41.1607C202.706 41.1607 201.876 41.2607 201.016 41.4607C200.156 41.6407 199.276 41.9107 198.376 42.2707L197.236 39.0307C198.296 38.5907 199.346 38.2407 200.386 37.9807C201.426 37.7207 202.456 37.5807 203.476 37.5607C204.976 37.5207 206.326 37.6807 207.526 38.0407C208.726 38.4007 209.666 38.9207 210.346 39.6007C211.046 40.2807 211.396 41.1107 211.396 42.0907C211.396 42.8707 211.156 43.5707 210.676 44.1907C210.216 44.8107 209.576 45.3007 208.756 45.6607C207.936 46.0007 207.016 46.1707 205.996 46.1707L206.116 45.2407C207.896 45.2407 209.296 45.6007 210.316 46.3207C211.336 47.0207 211.846 47.9807 211.846 49.2007C211.846 50.2407 211.486 51.1507 210.766 51.9307C210.066 52.6907 209.106 53.2807 207.886 53.7007C206.686 54.1007 205.326 54.3007 203.806 54.3007Z" fill="#163C51"/>
<path d="M178.463 54.2411C176.623 54.2411 175.003 53.8811 173.603 53.1611C172.223 52.4411 171.153 51.4611 170.393 50.2211C169.633 48.9611 169.253 47.5311 169.253 45.9311C169.253 44.3111 169.623 42.8811 170.363 41.6411C171.123 40.3811 172.153 39.4011 173.453 38.7011C174.753 37.9811 176.223 37.6211 177.863 37.6211C179.443 37.6211 180.863 37.9611 182.123 38.6411C183.403 39.3011 184.413 40.2611 185.153 41.5211C185.893 42.7611 186.263 44.2511 186.263 45.9911C186.263 46.1711 186.253 46.3811 186.233 46.6211C186.213 46.8411 186.193 47.0511 186.173 47.2511H173.063V44.5211H183.713L181.913 45.3311C181.913 44.4911 181.743 43.7611 181.403 43.1411C181.063 42.5211 180.593 42.0411 179.993 41.7011C179.393 41.3411 178.693 41.1611 177.893 41.1611C177.093 41.1611 176.383 41.3411 175.763 41.7011C175.163 42.0411 174.693 42.5311 174.353 43.1711C174.013 43.7911 173.843 44.5311 173.843 45.3911V46.1111C173.843 46.9911 174.033 47.7711 174.413 48.4511C174.813 49.1111 175.363 49.6211 176.063 49.9811C176.783 50.3211 177.623 50.4911 178.583 50.4911C179.443 50.4911 180.193 50.3611 180.833 50.1011C181.493 49.8411 182.093 49.4511 182.633 48.9311L185.123 51.6311C184.383 52.4711 183.453 53.1211 182.333 53.5811C181.213 54.0211 179.923 54.2411 178.463 54.2411Z" fill="#163C51"/>
<path d="M158.642 54.0013V40.6213L159.692 41.7013H153.182V37.8613H168.752V41.7013H162.242L163.292 40.6213V54.0013H158.642Z" fill="#163C51"/>
<path d="M133.894 54.0007V37.8607H138.544V47.4607L146.404 37.8607H150.694V54.0007H146.044V44.4007L138.214 54.0007H133.894ZM141.994 36.1207C140.234 36.1207 138.914 35.7407 138.034 34.9807C137.154 34.2007 136.704 33.0307 136.684 31.4707H139.744C139.764 32.1507 139.954 32.6907 140.314 33.0907C140.674 33.4907 141.224 33.6907 141.964 33.6907C142.684 33.6907 143.234 33.4907 143.614 33.0907C144.014 32.6907 144.214 32.1507 144.214 31.4707H147.334C147.334 33.0307 146.884 34.2007 145.984 34.9807C145.084 35.7407 143.754 36.1207 141.994 36.1207Z" fill="#163C51"/>
<path d="M125.225 54.0013V48.6313L125.885 49.3813H121.415C119.095 49.3813 117.275 48.9013 115.955 47.9413C114.635 46.9813 113.975 45.6013 113.975 43.8013C113.975 41.8813 114.665 40.4113 116.045 39.3913C117.445 38.3713 119.325 37.8613 121.685 37.8613H129.395V54.0013H125.225ZM113.735 54.0013L118.025 47.8513H122.795L118.715 54.0013H113.735ZM125.225 47.1913V40.4713L125.885 41.6713H121.775C120.815 41.6713 120.065 41.8513 119.525 42.2113C119.005 42.5713 118.745 43.1513 118.745 43.9513C118.745 45.4913 119.735 46.2613 121.715 46.2613H125.885L125.225 47.1913Z" fill="#163C51"/>
<path d="M93.0352 53.9713L93.2752 50.1313C93.3952 50.1513 93.5152 50.1713 93.6352 50.1913C93.7552 50.1913 93.8652 50.1913 93.9652 50.1913C94.5252 50.1913 94.9652 50.0313 95.2852 49.7113C95.6052 49.3913 95.8452 48.9613 96.0052 48.4213C96.1652 47.8613 96.2752 47.2313 96.3352 46.5313C96.4152 45.8313 96.4752 45.1013 96.5152 44.3413L96.7552 37.8613H110.555V54.0013H105.875V40.5613L106.925 41.7013H99.8452L100.835 40.5013L100.625 44.5513C100.565 45.9913 100.445 47.3113 100.265 48.5113C100.105 49.7113 99.8352 50.7513 99.4552 51.6313C99.0752 52.4913 98.5652 53.1613 97.9252 53.6413C97.2852 54.1013 96.4652 54.3313 95.4652 54.3313C95.1052 54.3313 94.7252 54.3013 94.3252 54.2413C93.9252 54.1813 93.4952 54.0913 93.0352 53.9713Z" fill="#163C51"/>
<path d="M76.4131 54.0013V37.8613H84.6631C86.6831 37.8613 88.2631 38.2313 89.4031 38.9713C90.5431 39.6913 91.1131 40.7113 91.1131 42.0313C91.1131 43.3513 90.5731 44.3913 89.4931 45.1513C88.4331 45.8913 87.0231 46.2613 85.2631 46.2613L85.7431 45.1813C87.7031 45.1813 89.1631 45.5413 90.1231 46.2613C91.1031 46.9813 91.5931 48.0313 91.5931 49.4113C91.5931 50.8313 91.0531 51.9513 89.9731 52.7713C88.8931 53.5913 87.2431 54.0013 85.0231 54.0013H76.4131ZM80.7031 50.8213H84.6331C85.4931 50.8213 86.1331 50.6813 86.5531 50.4013C86.9931 50.1013 87.2131 49.6513 87.2131 49.0513C87.2131 48.4313 87.0131 47.9813 86.6131 47.7013C86.2131 47.4013 85.5831 47.2513 84.7231 47.2513H80.7031V50.8213ZM80.7031 44.4913H84.2431C85.0631 44.4913 85.6731 44.3413 86.0731 44.0413C86.4931 43.7413 86.7031 43.3113 86.7031 42.7513C86.7031 42.1713 86.4931 41.7413 86.0731 41.4613C85.6731 41.1813 85.0631 41.0413 84.2431 41.0413H80.7031V44.4913Z" fill="#163C51"/>
<path d="M67.9676 54.0011V50.8511L67.6676 50.1611V44.5211C67.6676 43.5211 67.3576 42.7411 66.7376 42.1811C66.1376 41.6211 65.2076 41.3411 63.9476 41.3411C63.0876 41.3411 62.2376 41.4811 61.3976 41.7611C60.5776 42.0211 59.8776 42.3811 59.2976 42.8411L57.6176 39.5711C58.4976 38.9511 59.5576 38.4711 60.7976 38.1311C62.0376 37.7911 63.2976 37.6211 64.5776 37.6211C67.0376 37.6211 68.9476 38.2011 70.3076 39.3611C71.6676 40.5211 72.3476 42.3311 72.3476 44.7911V54.0011H67.9676ZM63.0476 54.2411C61.7876 54.2411 60.7076 54.0311 59.8076 53.6111C58.9076 53.1711 58.2176 52.5811 57.7376 51.8411C57.2576 51.1011 57.0176 50.2711 57.0176 49.3511C57.0176 48.3911 57.2476 47.5511 57.7076 46.8311C58.1876 46.1111 58.9376 45.5511 59.9576 45.1511C60.9776 44.7311 62.3076 44.5211 63.9476 44.5211H68.2376V47.2511H64.4576C63.3576 47.2511 62.5976 47.4311 62.1776 47.7911C61.7776 48.1511 61.5776 48.6011 61.5776 49.1411C61.5776 49.7411 61.8076 50.2211 62.2676 50.5811C62.7476 50.9211 63.3976 51.0911 64.2176 51.0911C64.9976 51.0911 65.6976 50.9111 66.3176 50.5511C66.9376 50.1711 67.3876 49.6211 67.6676 48.9011L68.3876 51.0611C68.0476 52.1011 67.4276 52.8911 66.5276 53.4311C65.6276 53.9711 64.4676 54.2411 63.0476 54.2411Z" fill="#163C51"/>
<path d="M45.7022 54.0013V40.6213L46.7522 41.7013H40.2422V37.8613H55.8122V41.7013H49.3022L50.3522 40.6213V54.0013H45.7022Z" fill="#163C51"/>
<path d="M32.208 54.2411C30.468 54.2411 28.918 53.8911 27.558 53.1911C26.198 52.4711 25.128 51.4811 24.348 50.2211C23.588 48.9611 23.208 47.5311 23.208 45.9311C23.208 44.3111 23.588 42.8811 24.348 41.6411C25.128 40.3811 26.198 39.4011 27.558 38.7011C28.918 37.9811 30.468 37.6211 32.208 37.6211C33.908 37.6211 35.388 37.9811 36.648 38.7011C37.908 39.4011 38.838 40.4111 39.438 41.7311L35.808 43.6811C35.388 42.9211 34.858 42.3611 34.218 42.0011C33.598 41.6411 32.918 41.4611 32.178 41.4611C31.378 41.4611 30.658 41.6411 30.018 42.0011C29.378 42.3611 28.868 42.8711 28.488 43.5311C28.128 44.1911 27.948 44.9911 27.948 45.9311C27.948 46.8711 28.128 47.6711 28.488 48.3311C28.868 48.9911 29.378 49.5011 30.018 49.8611C30.658 50.2211 31.378 50.4011 32.178 50.4011C32.918 50.4011 33.598 50.2311 34.218 49.8911C34.858 49.5311 35.388 48.9611 35.808 48.1811L39.438 50.1611C38.838 51.4611 37.908 52.4711 36.648 53.1911C35.388 53.8911 33.908 54.2411 32.208 54.2411Z" fill="#163C51"/>
<path d="M12.4591 54.2411C10.7391 54.2411 9.2091 53.8811 7.8691 53.1611C6.5491 52.4411 5.4991 51.4611 4.7191 50.2211C3.9591 48.9611 3.5791 47.5311 3.5791 45.9311C3.5791 44.3111 3.9591 42.8811 4.7191 41.6411C5.4991 40.3811 6.5491 39.4011 7.8691 38.7011C9.2091 37.9811 10.7391 37.6211 12.4591 37.6211C14.1591 37.6211 15.6791 37.9811 17.0191 38.7011C18.3591 39.4011 19.4091 40.3711 20.1691 41.6111C20.9291 42.8511 21.3091 44.2911 21.3091 45.9311C21.3091 47.5311 20.9291 48.9611 20.1691 50.2211C19.4091 51.4611 18.3591 52.4411 17.0191 53.1611C15.6791 53.8811 14.1591 54.2411 12.4591 54.2411ZM12.4591 50.4011C13.2391 50.4011 13.9391 50.2211 14.5591 49.8611C15.1791 49.5011 15.6691 48.9911 16.0291 48.3311C16.3891 47.6511 16.5691 46.8511 16.5691 45.9311C16.5691 44.9911 16.3891 44.1911 16.0291 43.5311C15.6691 42.8711 15.1791 42.3611 14.5591 42.0011C13.9391 41.6411 13.2391 41.4611 12.4591 41.4611C11.6791 41.4611 10.9791 41.6411 10.3591 42.0011C9.7391 42.3611 9.2391 42.8711 8.8591 43.5311C8.4991 44.1911 8.3191 44.9911 8.3191 45.9311C8.3191 46.8511 8.4991 47.6511 8.8591 48.3311C9.2391 48.9911 9.7391 49.5011 10.3591 49.8611C10.9791 50.2211 11.6791 50.4011 12.4591 50.4011Z" fill="#163C51"/>
<path d="M977.717 17.0013V0.861328H982.367V10.4613L990.227 0.861328H994.517V17.0013H989.867V7.40133L982.037 17.0013H977.717Z" fill="#163C51"/>
<path d="M953.254 17.0013V0.861328H958.144L964.234 11.9013H962.284L968.794 0.861328H973.174L973.234 17.0013H969.004V5.66133L969.724 6.14133L964.174 15.4413H962.194L956.614 5.81133L957.484 5.60133V17.0013H953.254Z" fill="#163C51"/>
<path d="M944.808 17.0011V13.8511L944.508 13.1611V7.52109C944.508 6.52109 944.198 5.74109 943.578 5.18109C942.978 4.62109 942.048 4.34109 940.788 4.34109C939.928 4.34109 939.078 4.48109 938.238 4.76109C937.418 5.02109 936.718 5.38109 936.138 5.84109L934.458 2.57109C935.338 1.95109 936.398 1.47109 937.638 1.13109C938.878 0.791094 940.138 0.621094 941.418 0.621094C943.878 0.621094 945.788 1.20109 947.148 2.36109C948.508 3.52109 949.188 5.33109 949.188 7.79109V17.0011H944.808ZM939.888 17.2411C938.628 17.2411 937.548 17.0311 936.648 16.6111C935.748 16.1711 935.058 15.5811 934.578 14.8411C934.098 14.1011 933.858 13.2711 933.858 12.3511C933.858 11.3911 934.088 10.5511 934.548 9.83109C935.028 9.11109 935.778 8.55109 936.798 8.15109C937.818 7.73109 939.148 7.52109 940.788 7.52109H945.078V10.2511H941.298C940.198 10.2511 939.438 10.4311 939.018 10.7911C938.618 11.1511 938.418 11.6011 938.418 12.1411C938.418 12.7411 938.648 13.2211 939.108 13.5811C939.588 13.9211 940.238 14.0911 941.058 14.0911C941.838 14.0911 942.538 13.9111 943.158 13.5511C943.778 13.1711 944.228 12.6211 944.508 11.9011L945.228 14.0611C944.888 15.1011 944.268 15.8911 943.368 16.4311C942.468 16.9711 941.308 17.2411 939.888 17.2411Z" fill="#163C51"/>
<path d="M914.318 17.0013V0.861328H918.968V7.16133H925.988V0.861328H930.668V17.0013H925.988V10.9713H918.968V17.0013H914.318Z" fill="#163C51"/>
<path d="M895.748 17.2411C894.008 17.2411 892.458 16.8911 891.098 16.1911C889.738 15.4711 888.668 14.4811 887.888 13.2211C887.128 11.9611 886.748 10.5311 886.748 8.93109C886.748 7.31109 887.128 5.88109 887.888 4.64109C888.668 3.38109 889.738 2.40109 891.098 1.70109C892.458 0.981094 894.008 0.621094 895.748 0.621094C897.448 0.621094 898.928 0.981094 900.188 1.70109C901.448 2.40109 902.378 3.41109 902.978 4.73109L899.348 6.68109C898.928 5.92109 898.398 5.36109 897.758 5.00109C897.138 4.64109 896.458 4.46109 895.718 4.46109C894.918 4.46109 894.198 4.64109 893.558 5.00109C892.918 5.36109 892.408 5.87109 892.028 6.53109C891.668 7.19109 891.488 7.99109 891.488 8.93109C891.488 9.87109 891.668 10.6711 892.028 11.3311C892.408 11.9911 892.918 12.5011 893.558 12.8611C894.198 13.2211 894.918 13.4011 895.718 13.4011C896.458 13.4011 897.138 13.2311 897.758 12.8911C898.398 12.5311 898.928 11.9611 899.348 11.1811L902.978 13.1611C902.378 14.4611 901.448 15.4711 900.188 16.1911C898.928 16.8911 897.448 17.2411 895.748 17.2411Z" fill="#163C51"/>
<path d="M870.138 6.02133C872.258 6.04133 873.868 6.52133 874.968 7.46133C876.088 8.38133 876.648 9.69133 876.648 11.3913C876.648 13.1713 876.018 14.5613 874.758 15.5613C873.498 16.5413 871.748 17.0313 869.508 17.0313L861.408 17.0013V0.861328H866.058V6.02133H870.138ZM869.088 13.7013C869.988 13.7213 870.678 13.5313 871.158 13.1313C871.638 12.7313 871.878 12.1313 871.878 11.3313C871.878 10.5313 871.638 9.96133 871.158 9.62133C870.678 9.26133 869.988 9.07133 869.088 9.05133L866.058 9.02133V13.7013H869.088Z" fill="#163C51"/>
<path d="M848.803 17.0013V3.62133L849.853 4.70133H843.343V0.861328H858.913V4.70133H852.403L853.453 3.62133V17.0013H848.803Z" fill="#163C51"/>
<path d="M836.908 17.0011V13.8511L836.608 13.1611V7.52109C836.608 6.52109 836.298 5.74109 835.678 5.18109C835.078 4.62109 834.148 4.34109 832.888 4.34109C832.028 4.34109 831.178 4.48109 830.338 4.76109C829.518 5.02109 828.818 5.38109 828.238 5.84109L826.558 2.57109C827.438 1.95109 828.498 1.47109 829.738 1.13109C830.978 0.791094 832.238 0.621094 833.518 0.621094C835.978 0.621094 837.888 1.20109 839.248 2.36109C840.608 3.52109 841.288 5.33109 841.288 7.79109V17.0011H836.908ZM831.988 17.2411C830.728 17.2411 829.648 17.0311 828.748 16.6111C827.848 16.1711 827.158 15.5811 826.678 14.8411C826.198 14.1011 825.958 13.2711 825.958 12.3511C825.958 11.3911 826.188 10.5511 826.648 9.83109C827.128 9.11109 827.878 8.55109 828.898 8.15109C829.918 7.73109 831.248 7.52109 832.888 7.52109H837.178V10.2511H833.398C832.298 10.2511 831.538 10.4311 831.118 10.7911C830.718 11.1511 830.518 11.6011 830.518 12.1411C830.518 12.7411 830.748 13.2211 831.208 13.5811C831.688 13.9211 832.338 14.0911 833.158 14.0911C833.938 14.0911 834.638 13.9111 835.258 13.5511C835.878 13.1711 836.328 12.6211 836.608 11.9011L837.328 14.0611C836.988 15.1011 836.368 15.8911 835.468 16.4311C834.568 16.9711 833.408 17.2411 831.988 17.2411Z" fill="#163C51"/>
<path d="M818.404 10.8213C817.744 11.1813 817.014 11.4713 816.214 11.6913C815.414 11.9113 814.534 12.0213 813.574 12.0213C811.454 12.0213 809.824 11.5413 808.684 10.5813C807.544 9.60133 806.974 8.05133 806.974 5.93133V0.861328H811.654V5.63133C811.654 6.63133 811.914 7.35133 812.434 7.79133C812.954 8.21133 813.684 8.42133 814.624 8.42133C815.304 8.42133 815.954 8.34133 816.574 8.18133C817.214 8.02133 817.824 7.79133 818.404 7.49133V10.8213ZM818.074 17.0013V0.861328H822.754V17.0013H818.074Z" fill="#163C51"/>
<path d="M786.936 17.0013V0.861328H791.586V10.4613L799.446 0.861328H803.736V17.0013H799.086V7.40133L791.256 17.0013H786.936Z" fill="#163C51"/>
<path d="M766.105 17.0013V0.861328H770.755V7.16133H777.775V0.861328H782.455V17.0013H777.775V10.9713H770.755V17.0013H766.105Z" fill="#163C51"/>
<path d="M756.17 14.9013V4.70133H750.89L750.8 6.77133C750.76 7.63133 750.71 8.45133 750.65 9.23133C750.59 10.0113 750.47 10.7213 750.29 11.3613C750.13 11.9813 749.89 12.5113 749.57 12.9513C749.25 13.3713 748.82 13.6613 748.28 13.8213L743.66 13.1613C744.24 13.1613 744.71 12.9913 745.07 12.6513C745.43 12.2913 745.71 11.8013 745.91 11.1813C746.11 10.5413 746.26 9.82133 746.36 9.02133C746.46 8.20133 746.53 7.34133 746.57 6.44133L746.78 0.861328H760.85V14.9013H756.17ZM743.12 20.4813V13.1613H763.16V20.4813H758.81V17.0013H747.47V20.4813H743.12Z" fill="#163C51"/>
<path d="M729.975 23.0613C729.135 23.0613 728.305 22.9313 727.485 22.6713C726.665 22.4113 725.995 22.0513 725.475 21.5913L727.185 18.2613C727.545 18.5813 727.955 18.8313 728.415 19.0113C728.895 19.1913 729.365 19.2813 729.825 19.2813C730.485 19.2813 731.005 19.1213 731.385 18.8013C731.785 18.5013 732.145 17.9913 732.465 17.2713L733.305 15.2913L733.665 14.7813L739.455 0.861328H743.955L736.665 17.9913C736.145 19.2913 735.545 20.3113 734.865 21.0513C734.205 21.7913 733.465 22.3113 732.645 22.6113C731.845 22.9113 730.955 23.0613 729.975 23.0613ZM732.735 17.6313L725.535 0.861328H730.365L735.945 14.3613L732.735 17.6313Z" fill="#163C51"/>
<path d="M716.904 17.2411C715.544 17.2411 714.354 16.9411 713.334 16.3411C712.314 15.7411 711.514 14.8311 710.934 13.6111C710.374 12.3711 710.094 10.8111 710.094 8.93109C710.094 7.03109 710.364 5.47109 710.904 4.25109C711.444 3.03109 712.224 2.12109 713.244 1.52109C714.264 0.921093 715.484 0.621094 716.904 0.621094C718.424 0.621094 719.784 0.971094 720.984 1.67109C722.204 2.35109 723.164 3.31109 723.864 4.55109C724.584 5.79109 724.944 7.25109 724.944 8.93109C724.944 10.6311 724.584 12.1011 723.864 13.3411C723.164 14.5811 722.204 15.5411 720.984 16.2211C719.784 16.9011 718.424 17.2411 716.904 17.2411ZM707.364 22.8211V0.861093H711.834V4.16109L711.744 8.96109L712.044 13.7311V22.8211H707.364ZM716.094 13.4011C716.874 13.4011 717.564 13.2211 718.164 12.8611C718.784 12.5011 719.274 11.9911 719.634 11.3311C720.014 10.6511 720.204 9.85109 720.204 8.93109C720.204 7.99109 720.014 7.19109 719.634 6.53109C719.274 5.87109 718.784 5.36109 718.164 5.00109C717.564 4.64109 716.874 4.46109 716.094 4.46109C715.314 4.46109 714.614 4.64109 713.994 5.00109C713.374 5.36109 712.884 5.87109 712.524 6.53109C712.164 7.19109 711.984 7.99109 711.984 8.93109C711.984 9.85109 712.164 10.6511 712.524 11.3311C712.884 11.9911 713.374 12.5011 713.994 12.8611C714.614 13.2211 715.314 13.4011 716.094 13.4011Z" fill="#163C51"/>
<path d="M694.789 17.0013V3.62133L695.839 4.70133H689.329V0.861328H704.899V4.70133H698.389L699.439 3.62133V17.0013H694.789Z" fill="#163C51"/>
<path d="M679.857 17.2411C678.137 17.2411 676.607 16.8811 675.267 16.1611C673.947 15.4411 672.897 14.4611 672.117 13.2211C671.357 11.9611 670.977 10.5311 670.977 8.93109C670.977 7.31109 671.357 5.88109 672.117 4.64109C672.897 3.38109 673.947 2.40109 675.267 1.70109C676.607 0.981094 678.137 0.621094 679.857 0.621094C681.557 0.621094 683.077 0.981094 684.417 1.70109C685.757 2.40109 686.807 3.37109 687.567 4.61109C688.327 5.85109 688.707 7.29109 688.707 8.93109C688.707 10.5311 688.327 11.9611 687.567 13.2211C686.807 14.4611 685.757 15.4411 684.417 16.1611C683.077 16.8811 681.557 17.2411 679.857 17.2411ZM679.857 13.4011C680.637 13.4011 681.337 13.2211 681.957 12.8611C682.577 12.5011 683.067 11.9911 683.427 11.3311C683.787 10.6511 683.967 9.85109 683.967 8.93109C683.967 7.99109 683.787 7.19109 683.427 6.53109C683.067 5.87109 682.577 5.36109 681.957 5.00109C681.337 4.64109 680.637 4.46109 679.857 4.46109C679.077 4.46109 678.377 4.64109 677.757 5.00109C677.137 5.36109 676.637 5.87109 676.257 6.53109C675.897 7.19109 675.717 7.99109 675.717 8.93109C675.717 9.85109 675.897 10.6511 676.257 11.3311C676.637 11.9911 677.137 12.5011 677.757 12.8611C678.377 13.2211 679.077 13.4011 679.857 13.4011Z" fill="#163C51"/>
<path d="M662.428 17.2411C660.688 17.2411 659.138 16.8911 657.778 16.1911C656.418 15.4711 655.348 14.4811 654.568 13.2211C653.808 11.9611 653.428 10.5311 653.428 8.93109C653.428 7.31109 653.808 5.88109 654.568 4.64109C655.348 3.38109 656.418 2.40109 657.778 1.70109C659.138 0.981094 660.688 0.621094 662.428 0.621094C664.128 0.621094 665.608 0.981094 666.868 1.70109C668.128 2.40109 669.058 3.41109 669.658 4.73109L666.028 6.68109C665.608 5.92109 665.078 5.36109 664.438 5.00109C663.818 4.64109 663.138 4.46109 662.398 4.46109C661.598 4.46109 660.878 4.64109 660.238 5.00109C659.598 5.36109 659.088 5.87109 658.708 6.53109C658.348 7.19109 658.168 7.99109 658.168 8.93109C658.168 9.87109 658.348 10.6711 658.708 11.3311C659.088 11.9911 659.598 12.5011 660.238 12.8611C660.878 13.2211 661.598 13.4011 662.398 13.4011C663.138 13.4011 663.818 13.2311 664.438 12.8911C665.078 12.5311 665.608 11.9611 666.028 11.1811L669.658 13.1611C669.058 14.4611 668.128 15.4711 666.868 16.1911C665.608 16.8911 664.128 17.2411 662.428 17.2411Z" fill="#163C51"/>
<path d="M637.091 17.0013V0.861328H641.741V17.0013H637.091ZM628.961 6.02133C631.081 6.04133 632.671 6.52133 633.731 7.46133C634.811 8.38133 635.351 9.69133 635.351 11.3913C635.351 13.1713 634.741 14.5613 633.521 15.5613C632.301 16.5413 630.571 17.0313 628.331 17.0313L620.471 17.0013V0.861328H625.121V6.02133H628.961ZM627.911 13.7013C628.811 13.7213 629.501 13.5313 629.981 13.1313C630.461 12.7313 630.701 12.1313 630.701 11.3313C630.701 10.5313 630.461 9.96133 629.981 9.62133C629.501 9.26133 628.811 9.07133 627.911 9.05133L625.121 9.02133V13.7013H627.911Z" fill="#163C51"/>
<path d="M601.809 17.0013V0.861328H610.059C612.079 0.861328 613.659 1.23133 614.799 1.97133C615.939 2.69133 616.509 3.71133 616.509 5.03133C616.509 6.35133 615.969 7.39133 614.889 8.15133C613.829 8.89133 612.419 9.26133 610.659 9.26133L611.139 8.18133C613.099 8.18133 614.559 8.54133 615.519 9.26133C616.499 9.98133 616.989 11.0313 616.989 12.4113C616.989 13.8313 616.449 14.9513 615.369 15.7713C614.289 16.5913 612.639 17.0013 610.419 17.0013H601.809ZM606.099 13.8213H610.029C610.889 13.8213 611.529 13.6813 611.949 13.4013C612.389 13.1013 612.609 12.6513 612.609 12.0513C612.609 11.4313 612.409 10.9813 612.009 10.7013C611.609 10.4013 610.979 10.2513 610.119 10.2513H606.099V13.8213ZM606.099 7.49133H609.639C610.459 7.49133 611.069 7.34133 611.469 7.04133C611.889 6.74133 612.099 6.31133 612.099 5.75133C612.099 5.17133 611.889 4.74133 611.469 4.46133C611.069 4.18133 610.459 4.04133 609.639 4.04133H606.099V7.49133Z" fill="#163C51"/>
<path d="M589.739 17.2411C588.019 17.2411 586.489 16.8811 585.149 16.1611C583.829 15.4411 582.779 14.4611 581.999 13.2211C581.239 11.9611 580.859 10.5311 580.859 8.93109C580.859 7.31109 581.239 5.88109 581.999 4.64109C582.779 3.38109 583.829 2.40109 585.149 1.70109C586.489 0.981094 588.019 0.621094 589.739 0.621094C591.439 0.621094 592.959 0.981094 594.299 1.70109C595.639 2.40109 596.689 3.37109 597.449 4.61109C598.209 5.85109 598.589 7.29109 598.589 8.93109C598.589 10.5311 598.209 11.9611 597.449 13.2211C596.689 14.4611 595.639 15.4411 594.299 16.1611C592.959 16.8811 591.439 17.2411 589.739 17.2411ZM589.739 13.4011C590.519 13.4011 591.219 13.2211 591.839 12.8611C592.459 12.5011 592.949 11.9911 593.309 11.3311C593.669 10.6511 593.849 9.85109 593.849 8.93109C593.849 7.99109 593.669 7.19109 593.309 6.53109C592.949 5.87109 592.459 5.36109 591.839 5.00109C591.219 4.64109 590.519 4.46109 589.739 4.46109C588.959 4.46109 588.259 4.64109 587.639 5.00109C587.019 5.36109 586.519 5.87109 586.139 6.53109C585.779 7.19109 585.599 7.99109 585.599 8.93109C585.599 9.85109 585.779 10.6511 586.139 11.3311C586.519 11.9911 587.019 12.5011 587.639 12.8611C588.259 13.2211 588.959 13.4011 589.739 13.4011Z" fill="#163C51"/>
<path d="M570.248 17.0013V3.62133L571.298 4.70133H564.788V0.861328H580.358V4.70133H573.848L574.898 3.62133V17.0013H570.248Z" fill="#163C51"/>
<path d="M555.316 17.2411C553.596 17.2411 552.066 16.8811 550.726 16.1611C549.406 15.4411 548.356 14.4611 547.576 13.2211C546.816 11.9611 546.436 10.5311 546.436 8.93109C546.436 7.31109 546.816 5.88109 547.576 4.64109C548.356 3.38109 549.406 2.40109 550.726 1.70109C552.066 0.981094 553.596 0.621094 555.316 0.621094C557.016 0.621094 558.536 0.981094 559.876 1.70109C561.216 2.40109 562.266 3.37109 563.026 4.61109C563.786 5.85109 564.166 7.29109 564.166 8.93109C564.166 10.5311 563.786 11.9611 563.026 13.2211C562.266 14.4611 561.216 15.4411 559.876 16.1611C558.536 16.8811 557.016 17.2411 555.316 17.2411ZM555.316 13.4011C556.096 13.4011 556.796 13.2211 557.416 12.8611C558.036 12.5011 558.526 11.9911 558.886 11.3311C559.246 10.6511 559.426 9.85109 559.426 8.93109C559.426 7.99109 559.246 7.19109 558.886 6.53109C558.526 5.87109 558.036 5.36109 557.416 5.00109C556.796 4.64109 556.096 4.46109 555.316 4.46109C554.536 4.46109 553.836 4.64109 553.216 5.00109C552.596 5.36109 552.096 5.87109 551.716 6.53109C551.356 7.19109 551.176 7.99109 551.176 8.93109C551.176 9.85109 551.356 10.6511 551.716 11.3311C552.096 11.9911 552.596 12.5011 553.216 12.8611C553.836 13.2211 554.536 13.4011 555.316 13.4011Z" fill="#163C51"/>
<path d="M533.02 17.0013V0.861328H545.95V4.70133H536.62L537.67 3.68133V17.0013H533.02Z" fill="#163C51"/>
<path d="M515.362 17.0013V0.861328H520.012V17.0013H515.362ZM507.232 6.02133C509.352 6.04133 510.942 6.52133 512.002 7.46133C513.082 8.38133 513.622 9.69133 513.622 11.3913C513.622 13.1713 513.012 14.5613 511.792 15.5613C510.572 16.5413 508.842 17.0313 506.602 17.0313L498.742 17.0013V0.861328H503.392V6.02133H507.232ZM506.182 13.7013C507.082 13.7213 507.772 13.5313 508.252 13.1313C508.732 12.7313 508.972 12.1313 508.972 11.3313C508.972 10.5313 508.732 9.96133 508.252 9.62133C507.772 9.26133 507.082 9.07133 506.182 9.05133L503.392 9.02133V13.7013H506.182Z" fill="#163C51"/>
<path d="M480.08 17.0013V0.861328H488.33C490.35 0.861328 491.93 1.23133 493.07 1.97133C494.21 2.69133 494.78 3.71133 494.78 5.03133C494.78 6.35133 494.24 7.39133 493.16 8.15133C492.1 8.89133 490.69 9.26133 488.93 9.26133L489.41 8.18133C491.37 8.18133 492.83 8.54133 493.79 9.26133C494.77 9.98133 495.26 11.0313 495.26 12.4113C495.26 13.8313 494.72 14.9513 493.64 15.7713C492.56 16.5913 490.91 17.0013 488.69 17.0013H480.08ZM484.37 13.8213H488.3C489.16 13.8213 489.8 13.6813 490.22 13.4013C490.66 13.1013 490.88 12.6513 490.88 12.0513C490.88 11.4313 490.68 10.9813 490.28 10.7013C489.88 10.4013 489.25 10.2513 488.39 10.2513H484.37V13.8213ZM484.37 7.49133H487.91C488.73 7.49133 489.34 7.34133 489.74 7.04133C490.16 6.74133 490.37 6.31133 490.37 5.75133C490.37 5.17133 490.16 4.74133 489.74 4.46133C489.34 4.18133 488.73 4.04133 487.91 4.04133H484.37V7.49133Z" fill="#163C51"/>
<path d="M450.285 17.0013V0.861328H454.935V10.4613L462.795 0.861328H467.085V17.0013H462.435V7.40133L454.605 17.0013H450.285Z" fill="#163C51"/>
<path d="M428.265 16.9713L428.505 13.1313C428.625 13.1513 428.745 13.1713 428.865 13.1913C428.985 13.1913 429.095 13.1913 429.195 13.1913C429.755 13.1913 430.195 13.0313 430.515 12.7113C430.835 12.3913 431.075 11.9613 431.235 11.4213C431.395 10.8613 431.505 10.2313 431.565 9.53133C431.645 8.83133 431.705 8.10133 431.745 7.34133L431.985 0.861328H445.785V17.0013H441.105V3.56133L442.155 4.70133H435.075L436.065 3.50133L435.855 7.55133C435.795 8.99133 435.675 10.3113 435.495 11.5113C435.335 12.7113 435.065 13.7513 434.685 14.6313C434.305 15.4913 433.795 16.1613 433.155 16.6413C432.515 17.1013 431.695 17.3313 430.695 17.3313C430.335 17.3313 429.955 17.3013 429.555 17.2413C429.155 17.1813 428.725 17.0913 428.265 16.9713Z" fill="#163C51"/>
<path d="M409.006 17.0013V0.861328H413.656V10.4613L421.516 0.861328H425.806V17.0013H421.156V7.40133L413.326 17.0013H409.006Z" fill="#163C51"/>
<path d="M391.349 17.0013V0.861328H395.999V17.0013H391.349ZM383.219 6.02133C385.339 6.04133 386.929 6.52133 387.989 7.46133C389.069 8.38133 389.609 9.69133 389.609 11.3913C389.609 13.1713 388.999 14.5613 387.779 15.5613C386.559 16.5413 384.829 17.0313 382.589 17.0313L374.729 17.0013V0.861328H379.379V6.02133H383.219ZM382.169 13.7013C383.069 13.7213 383.759 13.5313 384.239 13.1313C384.719 12.7313 384.959 12.1313 384.959 11.3313C384.959 10.5313 384.719 9.96133 384.239 9.62133C383.759 9.26133 383.069 9.07133 382.169 9.05133L379.379 9.02133V13.7013H382.169Z" fill="#163C51"/>
<path d="M364.654 17.2411C362.914 17.2411 361.364 16.8911 360.004 16.1911C358.644 15.4711 357.574 14.4811 356.794 13.2211C356.034 11.9611 355.654 10.5311 355.654 8.93109C355.654 7.31109 356.034 5.88109 356.794 4.64109C357.574 3.38109 358.644 2.40109 360.004 1.70109C361.364 0.981094 362.914 0.621094 364.654 0.621094C366.354 0.621094 367.834 0.981094 369.094 1.70109C370.354 2.40109 371.284 3.41109 371.884 4.73109L368.254 6.68109C367.834 5.92109 367.304 5.36109 366.664 5.00109C366.044 4.64109 365.364 4.46109 364.624 4.46109C363.824 4.46109 363.104 4.64109 362.464 5.00109C361.824 5.36109 361.314 5.87109 360.934 6.53109C360.574 7.19109 360.394 7.99109 360.394 8.93109C360.394 9.87109 360.574 10.6711 360.934 11.3311C361.314 11.9911 361.824 12.5011 362.464 12.8611C363.104 13.2211 363.824 13.4011 364.624 13.4011C365.364 13.4011 366.044 13.2311 366.664 12.8911C367.304 12.5311 367.834 11.9611 368.254 11.1811L371.884 13.1611C371.284 14.4611 370.354 15.4711 369.094 16.1911C367.834 16.8911 366.354 17.2411 364.654 17.2411Z" fill="#163C51"/>
<path d="M344.905 17.2411C343.185 17.2411 341.655 16.8811 340.315 16.1611C338.995 15.4411 337.945 14.4611 337.165 13.2211C336.405 11.9611 336.025 10.5311 336.025 8.93109C336.025 7.31109 336.405 5.88109 337.165 4.64109C337.945 3.38109 338.995 2.40109 340.315 1.70109C341.655 0.981094 343.185 0.621094 344.905 0.621094C346.605 0.621094 348.125 0.981094 349.465 1.70109C350.805 2.40109 351.855 3.37109 352.615 4.61109C353.375 5.85109 353.755 7.29109 353.755 8.93109C353.755 10.5311 353.375 11.9611 352.615 13.2211C351.855 14.4611 350.805 15.4411 349.465 16.1611C348.125 16.8811 346.605 17.2411 344.905 17.2411ZM344.905 13.4011C345.685 13.4011 346.385 13.2211 347.005 12.8611C347.625 12.5011 348.115 11.9911 348.475 11.3311C348.835 10.6511 349.015 9.85109 349.015 8.93109C349.015 7.99109 348.835 7.19109 348.475 6.53109C348.115 5.87109 347.625 5.36109 347.005 5.00109C346.385 4.64109 345.685 4.46109 344.905 4.46109C344.125 4.46109 343.425 4.64109 342.805 5.00109C342.185 5.36109 341.685 5.87109 341.305 6.53109C340.945 7.19109 340.765 7.99109 340.765 8.93109C340.765 9.85109 340.945 10.6511 341.305 11.3311C341.685 11.9911 342.185 12.5011 342.805 12.8611C343.425 13.2211 344.125 13.4011 344.905 13.4011Z" fill="#163C51"/>
<path d="M326.025 17.2411C324.665 17.2411 323.475 16.9411 322.455 16.3411C321.435 15.7411 320.635 14.8311 320.055 13.6111C319.495 12.3711 319.215 10.8111 319.215 8.93109C319.215 7.03109 319.485 5.47109 320.025 4.25109C320.565 3.03109 321.345 2.12109 322.365 1.52109C323.385 0.921093 324.605 0.621094 326.025 0.621094C327.545 0.621094 328.905 0.971094 330.105 1.67109C331.325 2.35109 332.285 3.31109 332.985 4.55109C333.705 5.79109 334.065 7.25109 334.065 8.93109C334.065 10.6311 333.705 12.1011 332.985 13.3411C332.285 14.5811 331.325 15.5411 330.105 16.2211C328.905 16.9011 327.545 17.2411 326.025 17.2411ZM316.485 22.8211V0.861093H320.955V4.16109L320.865 8.96109L321.165 13.7311V22.8211H316.485ZM325.215 13.4011C325.995 13.4011 326.685 13.2211 327.285 12.8611C327.905 12.5011 328.395 11.9911 328.755 11.3311C329.135 10.6511 329.325 9.85109 329.325 8.93109C329.325 7.99109 329.135 7.19109 328.755 6.53109C328.395 5.87109 327.905 5.36109 327.285 5.00109C326.685 4.64109 325.995 4.46109 325.215 4.46109C324.435 4.46109 323.735 4.64109 323.115 5.00109C322.495 5.36109 322.005 5.87109 321.645 6.53109C321.285 7.19109 321.105 7.99109 321.105 8.93109C321.105 9.85109 321.285 10.6511 321.645 11.3311C322.005 11.9911 322.495 12.5011 323.115 12.8611C323.735 13.2211 324.435 13.4011 325.215 13.4011Z" fill="#163C51"/>
<path d="M295.979 17.0013V0.861328H312.029V17.0013H307.349V3.65133L308.399 4.70133H299.579L300.629 3.65133V17.0013H295.979Z" fill="#163C51"/>
<path d="M283.909 17.2411C282.189 17.2411 280.659 16.8811 279.319 16.1611C277.999 15.4411 276.949 14.4611 276.169 13.2211C275.409 11.9611 275.029 10.5311 275.029 8.93109C275.029 7.31109 275.409 5.88109 276.169 4.64109C276.949 3.38109 277.999 2.40109 279.319 1.70109C280.659 0.981094 282.189 0.621094 283.909 0.621094C285.609 0.621094 287.129 0.981094 288.469 1.70109C289.809 2.40109 290.859 3.37109 291.619 4.61109C292.379 5.85109 292.759 7.29109 292.759 8.93109C292.759 10.5311 292.379 11.9611 291.619 13.2211C290.859 14.4611 289.809 15.4411 288.469 16.1611C287.129 16.8811 285.609 17.2411 283.909 17.2411ZM283.909 13.4011C284.689 13.4011 285.389 13.2211 286.009 12.8611C286.629 12.5011 287.119 11.9911 287.479 11.3311C287.839 10.6511 288.019 9.85109 288.019 8.93109C288.019 7.99109 287.839 7.19109 287.479 6.53109C287.119 5.87109 286.629 5.36109 286.009 5.00109C285.389 4.64109 284.689 4.46109 283.909 4.46109C283.129 4.46109 282.429 4.64109 281.809 5.00109C281.189 5.36109 280.689 5.87109 280.309 6.53109C279.949 7.19109 279.769 7.99109 279.769 8.93109C279.769 9.85109 279.949 10.6511 280.309 11.3311C280.689 11.9911 281.189 12.5011 281.809 12.8611C282.429 13.2211 283.129 13.4011 283.909 13.4011Z" fill="#163C51"/>
<path d="M257.688 17.0013V0.861328H265.938C267.958 0.861328 269.537 1.23133 270.677 1.97133C271.817 2.69133 272.388 3.71133 272.388 5.03133C272.388 6.35133 271.847 7.39133 270.767 8.15133C269.707 8.89133 268.298 9.26133 266.538 9.26133L267.017 8.18133C268.977 8.18133 270.437 8.54133 271.397 9.26133C272.377 9.98133 272.867 11.0313 272.867 12.4113C272.867 13.8313 272.327 14.9513 271.247 15.7713C270.167 16.5913 268.517 17.0013 266.297 17.0013H257.688ZM261.978 13.8213H265.908C266.768 13.8213 267.408 13.6813 267.828 13.4013C268.268 13.1013 268.487 12.6513 268.487 12.0513C268.487 11.4313 268.288 10.9813 267.888 10.7013C267.488 10.4013 266.857 10.2513 265.997 10.2513H261.978V13.8213ZM261.978 7.49133H265.517C266.337 7.49133 266.948 7.34133 267.348 7.04133C267.768 6.74133 267.978 6.31133 267.978 5.75133C267.978 5.17133 267.768 4.74133 267.348 4.46133C266.948 4.18133 266.337 4.04133 265.517 4.04133H261.978V7.49133Z" fill="#163C51"/>
<path d="M239.757 6.02133C241.877 6.04133 243.487 6.52133 244.587 7.46133C245.707 8.38133 246.267 9.69133 246.267 11.3913C246.267 13.1713 245.637 14.5613 244.377 15.5613C243.117 16.5413 241.367 17.0313 239.127 17.0313L231.027 17.0013V0.861328H235.677V6.02133H239.757ZM238.707 13.7013C239.607 13.7213 240.297 13.5313 240.777 13.1313C241.257 12.7313 241.497 12.1313 241.497 11.3313C241.497 10.5313 241.257 9.96133 240.777 9.62133C240.297 9.26133 239.607 9.07133 238.707 9.05133L235.677 9.02133V13.7013H238.707Z" fill="#163C51"/>
<path d="M218.422 17.0013V3.62133L219.472 4.70133H212.962V0.861328H228.532V4.70133H222.022L223.072 3.62133V17.0013H218.422Z" fill="#163C51"/>
<path d="M204.928 17.2411C203.188 17.2411 201.638 16.8911 200.278 16.1911C198.918 15.4711 197.848 14.4811 197.068 13.2211C196.308 11.9611 195.928 10.5311 195.928 8.93109C195.928 7.31109 196.308 5.88109 197.068 4.64109C197.848 3.38109 198.918 2.40109 200.278 1.70109C201.638 0.981094 203.188 0.621094 204.928 0.621094C206.628 0.621094 208.108 0.981094 209.368 1.70109C210.628 2.40109 211.558 3.41109 212.158 4.73109L208.528 6.68109C208.108 5.92109 207.578 5.36109 206.938 5.00109C206.318 4.64109 205.638 4.46109 204.898 4.46109C204.098 4.46109 203.378 4.64109 202.738 5.00109C202.098 5.36109 201.588 5.87109 201.208 6.53109C200.848 7.19109 200.668 7.99109 200.668 8.93109C200.668 9.87109 200.848 10.6711 201.208 11.3311C201.588 11.9911 202.098 12.5011 202.738 12.8611C203.378 13.2211 204.098 13.4011 204.898 13.4011C205.638 13.4011 206.318 13.2311 206.938 12.8911C207.578 12.5311 208.108 11.9611 208.528 11.1811L212.158 13.1611C211.558 14.4611 210.628 15.4711 209.368 16.1911C208.108 16.8911 206.628 17.2411 204.928 17.2411Z" fill="#163C51"/>
<path d="M185.86 17.2411C184.02 17.2411 182.4 16.8811 181 16.1611C179.62 15.4411 178.55 14.4611 177.79 13.2211C177.03 11.9611 176.65 10.5311 176.65 8.93109C176.65 7.31109 177.02 5.88109 177.76 4.64109C178.52 3.38109 179.55 2.40109 180.85 1.70109C182.15 0.981094 183.62 0.621094 185.26 0.621094C186.84 0.621094 188.26 0.961094 189.52 1.64109C190.8 2.30109 191.81 3.26109 192.55 4.52109C193.29 5.76109 193.66 7.25109 193.66 8.99109C193.66 9.17109 193.65 9.38109 193.63 9.62109C193.61 9.84109 193.59 10.0511 193.57 10.2511H180.46V7.52109H191.11L189.31 8.33109C189.31 7.49109 189.14 6.76109 188.8 6.14109C188.46 5.52109 187.99 5.04109 187.39 4.70109C186.79 4.34109 186.09 4.16109 185.29 4.16109C184.49 4.16109 183.78 4.34109 183.16 4.70109C182.56 5.04109 182.09 5.53109 181.75 6.17109C181.41 6.79109 181.24 7.53109 181.24 8.39109V9.11109C181.24 9.99109 181.43 10.7711 181.81 11.4511C182.21 12.1111 182.76 12.6211 183.46 12.9811C184.18 13.3211 185.02 13.4911 185.98 13.4911C186.84 13.4911 187.59 13.3611 188.23 13.1011C188.89 12.8411 189.49 12.4511 190.03 11.9311L192.52 14.6311C191.78 15.4711 190.85 16.1211 189.73 16.5811C188.61 17.0211 187.32 17.2411 185.86 17.2411Z" fill="#163C51"/>
<path d="M159.4 17.2411C157.66 17.2411 156.11 16.8911 154.75 16.1911C153.39 15.4711 152.32 14.4811 151.54 13.2211C150.78 11.9611 150.4 10.5311 150.4 8.93109C150.4 7.31109 150.78 5.88109 151.54 4.64109C152.32 3.38109 153.39 2.40109 154.75 1.70109C156.11 0.981094 157.66 0.621094 159.4 0.621094C161.1 0.621094 162.58 0.981094 163.84 1.70109C165.1 2.40109 166.03 3.41109 166.63 4.73109L163 6.68109C162.58 5.92109 162.05 5.36109 161.41 5.00109C160.79 4.64109 160.11 4.46109 159.37 4.46109C158.57 4.46109 157.85 4.64109 157.21 5.00109C156.57 5.36109 156.06 5.87109 155.68 6.53109C155.32 7.19109 155.14 7.99109 155.14 8.93109C155.14 9.87109 155.32 10.6711 155.68 11.3311C156.06 11.9911 156.57 12.5011 157.21 12.8611C157.85 13.2211 158.57 13.4011 159.37 13.4011C160.11 13.4011 160.79 13.2311 161.41 12.8911C162.05 12.5311 162.58 11.9611 163 11.1811L166.63 13.1611C166.03 14.4611 165.1 15.4711 163.84 16.1911C162.58 16.8911 161.1 17.2411 159.4 17.2411Z" fill="#163C51"/>
<path d="M143.275 17.0011V13.8511L142.975 13.1611V7.52109C142.975 6.52109 142.665 5.74109 142.045 5.18109C141.445 4.62109 140.515 4.34109 139.255 4.34109C138.395 4.34109 137.545 4.48109 136.705 4.76109C135.885 5.02109 135.185 5.38109 134.605 5.84109L132.925 2.57109C133.805 1.95109 134.865 1.47109 136.105 1.13109C137.345 0.791094 138.605 0.621094 139.885 0.621094C142.345 0.621094 144.255 1.20109 145.615 2.36109C146.975 3.52109 147.655 5.33109 147.655 7.79109V17.0011H143.275ZM138.355 17.2411C137.095 17.2411 136.015 17.0311 135.115 16.6111C134.215 16.1711 133.525 15.5811 133.045 14.8411C132.565 14.1011 132.325 13.2711 132.325 12.3511C132.325 11.3911 132.555 10.5511 133.015 9.83109C133.495 9.11109 134.245 8.55109 135.265 8.15109C136.285 7.73109 137.615 7.52109 139.255 7.52109H143.545V10.2511H139.765C138.665 10.2511 137.905 10.4311 137.485 10.7911C137.085 11.1511 136.885 11.6011 136.885 12.1411C136.885 12.7411 137.115 13.2211 137.575 13.5811C138.055 13.9211 138.705 14.0911 139.525 14.0911C140.305 14.0911 141.005 13.9111 141.625 13.5511C142.245 13.1711 142.695 12.6211 142.975 11.9011L143.695 14.0611C143.355 15.1011 142.735 15.8911 141.835 16.4311C140.935 16.9711 139.775 17.2411 138.355 17.2411Z" fill="#163C51"/>
<path d="M114.953 17.0013V0.861328H123.203C125.223 0.861328 126.803 1.23133 127.943 1.97133C129.083 2.69133 129.653 3.71133 129.653 5.03133C129.653 6.35133 129.113 7.39133 128.033 8.15133C126.973 8.89133 125.563 9.26133 123.803 9.26133L124.283 8.18133C126.243 8.18133 127.703 8.54133 128.663 9.26133C129.643 9.98133 130.133 11.0313 130.133 12.4113C130.133 13.8313 129.593 14.9513 128.513 15.7713C127.433 16.5913 125.783 17.0013 123.563 17.0013H114.953ZM119.243 13.8213H123.173C124.033 13.8213 124.673 13.6813 125.093 13.4013C125.533 13.1013 125.753 12.6513 125.753 12.0513C125.753 11.4313 125.553 10.9813 125.153 10.7013C124.753 10.4013 124.123 10.2513 123.263 10.2513H119.243V13.8213ZM119.243 7.49133H122.783C123.603 7.49133 124.213 7.34133 124.613 7.04133C125.033 6.74133 125.243 6.31133 125.243 5.75133C125.243 5.17133 125.033 4.74133 124.613 4.46133C124.213 4.18133 123.603 4.04133 122.783 4.04133H119.243V7.49133Z" fill="#163C51"/>
<path d="M90.2188 23.0613C89.3788 23.0613 88.5487 22.9313 87.7287 22.6713C86.9087 22.4113 86.2387 22.0513 85.7188 21.5913L87.4287 18.2613C87.7887 18.5813 88.1987 18.8313 88.6587 19.0113C89.1387 19.1913 89.6087 19.2813 90.0687 19.2813C90.7287 19.2813 91.2487 19.1213 91.6287 18.8013C92.0287 18.5013 92.3887 17.9913 92.7087 17.2713L93.5487 15.2913L93.9087 14.7813L99.6987 0.861328H104.199L96.9087 17.9913C96.3887 19.2913 95.7887 20.3113 95.1087 21.0513C94.4487 21.7913 93.7087 22.3113 92.8887 22.6113C92.0887 22.9113 91.1988 23.0613 90.2188 23.0613ZM92.9787 17.6313L85.7787 0.861328H90.6087L96.1888 14.3613L92.9787 17.6313Z" fill="#163C51"/>
<path d="M58.2344 17.0013V0.861328H62.8844V10.4613L70.7444 0.861328H75.0344V17.0013H70.3844V7.40133L62.5544 17.0013H58.2344Z" fill="#163C51"/>
<path d="M36.2139 16.9713L36.4539 13.1313C36.5739 13.1513 36.6939 13.1713 36.8139 13.1913C36.9339 13.1913 37.0439 13.1913 37.1439 13.1913C37.7039 13.1913 38.1439 13.0313 38.4639 12.7113C38.7839 12.3913 39.0239 11.9613 39.1839 11.4213C39.3439 10.8613 39.4539 10.2313 39.5139 9.53133C39.5939 8.83133 39.6539 8.10133 39.6939 7.34133L39.9339 0.861328H53.7339V17.0013H49.0539V3.56133L50.1039 4.70133H43.0239L44.0139 3.50133L43.8039 7.55133C43.7439 8.99133 43.6239 10.3113 43.4439 11.5113C43.2839 12.7113 43.0139 13.7513 42.6339 14.6313C42.2539 15.4913 41.7439 16.1613 41.1039 16.6413C40.4639 17.1013 39.6439 17.3313 38.6439 17.3313C38.2839 17.3313 37.9039 17.3013 37.5039 17.2413C37.1039 17.1813 36.6739 17.0913 36.2139 16.9713Z" fill="#163C51"/>
<path d="M28.4434 17.2411C26.7034 17.2411 25.1534 16.8911 23.7934 16.1911C22.4334 15.4711 21.3634 14.4811 20.5834 13.2211C19.8234 11.9611 19.4434 10.5311 19.4434 8.93109C19.4434 7.31109 19.8234 5.88109 20.5834 4.64109C21.3634 3.38109 22.4334 2.40109 23.7934 1.70109C25.1534 0.981094 26.7034 0.621094 28.4434 0.621094C30.1434 0.621094 31.6234 0.981094 32.8834 1.70109C34.1434 2.40109 35.0734 3.41109 35.6734 4.73109L32.0434 6.68109C31.6234 5.92109 31.0934 5.36109 30.4534 5.00109C29.8334 4.64109 29.1534 4.46109 28.4134 4.46109C27.6134 4.46109 26.8934 4.64109 26.2534 5.00109C25.6134 5.36109 25.1034 5.87109 24.7234 6.53109C24.3634 7.19109 24.1834 7.99109 24.1834 8.93109C24.1834 9.87109 24.3634 10.6711 24.7234 11.3311C25.1034 11.9911 25.6134 12.5011 26.2534 12.8611C26.8934 13.2211 27.6134 13.4011 28.4134 13.4011C29.1534 13.4011 29.8334 13.2311 30.4534 12.8911C31.0934 12.5311 31.6234 11.9611 32.0434 11.1811L35.6734 13.1611C35.0734 14.4611 34.1434 15.4711 32.8834 16.1911C31.6234 16.8911 30.1434 17.2411 28.4434 17.2411Z" fill="#163C51"/>
<path d="M9.37602 17.2411C7.53602 17.2411 5.91602 16.8811 4.51602 16.1611C3.13602 15.4411 2.06602 14.4611 1.30602 13.2211C0.546016 11.9611 0.166016 10.5311 0.166016 8.93109C0.166016 7.31109 0.536016 5.88109 1.27602 4.64109C2.03602 3.38109 3.06602 2.40109 4.36602 1.70109C5.66602 0.981094 7.13602 0.621094 8.77602 0.621094C10.356 0.621094 11.776 0.961094 13.036 1.64109C14.316 2.30109 15.326 3.26109 16.066 4.52109C16.806 5.76109 17.176 7.25109 17.176 8.99109C17.176 9.17109 17.166 9.38109 17.146 9.62109C17.126 9.84109 17.106 10.0511 17.086 10.2511H3.97602V7.52109H14.626L12.826 8.33109C12.826 7.49109 12.656 6.76109 12.316 6.14109C11.976 5.52109 11.506 5.04109 10.906 4.70109C10.306 4.34109 9.60602 4.16109 8.80602 4.16109C8.00602 4.16109 7.29602 4.34109 6.67602 4.70109C6.07602 5.04109 5.60602 5.53109 5.26602 6.17109C4.92602 6.79109 4.75602 7.53109 4.75602 8.39109V9.11109C4.75602 9.99109 4.94602 10.7711 5.32602 11.4511C5.72602 12.1111 6.27602 12.6211 6.97602 12.9811C7.69602 13.3211 8.53602 13.4911 9.49602 13.4911C10.356 13.4911 11.106 13.3611 11.746 13.1011C12.406 12.8411 13.006 12.4511 13.546 11.9311L16.036 14.6311C15.296 15.4711 14.366 16.1211 13.246 16.5811C12.126 17.0211 10.836 17.2411 9.37602 17.2411Z" fill="#163C51"/>
</svg>
