<svg width="585" height="187" viewBox="0 0 585 187" fill="none" xmlns="http://www.w3.org/2000/svg">
<path d="M388.968 180.224C388.242 180.224 387.624 179.979 387.112 179.488C386.6 178.976 386.344 178.336 386.344 177.568C386.344 176.757 386.6 176.117 387.112 175.648C387.624 175.157 388.242 174.912 388.968 174.912C389.693 174.912 390.312 175.157 390.824 175.648C391.336 176.117 391.592 176.757 391.592 177.568C391.592 178.336 391.336 178.976 390.824 179.488C390.312 179.979 389.693 180.224 388.968 180.224Z" fill="white"/>
<path d="M367.161 180L374.681 170.208L374.617 172.352L367.449 162.912H371.897L376.921 169.632H375.225L380.281 162.912H384.601L377.369 172.352L377.401 170.208L384.889 180H380.377L375.097 172.864L376.761 173.088L371.577 180H367.161Z" fill="white"/>
<path d="M347.22 180V162.912H351.22V174.176L360.66 162.912H364.308V180H360.308V168.736L350.9 180H347.22Z" fill="white"/>
<path d="M325.251 180V162.912H329.251V169.856H337.859V162.912H341.859V180H337.859V173.248H329.251V180H325.251Z" fill="white"/>
<path d="M303.336 180.223C301.587 180.223 300.029 179.849 298.664 179.103C297.299 178.335 296.221 177.289 295.432 175.967C294.643 174.644 294.248 173.14 294.248 171.455C294.248 169.748 294.643 168.244 295.432 166.943C296.221 165.62 297.299 164.585 298.664 163.839C300.029 163.092 301.587 162.719 303.336 162.719C305.107 162.719 306.675 163.092 308.04 163.839C309.427 164.585 310.504 165.609 311.272 166.911C312.061 168.212 312.456 169.727 312.456 171.455C312.456 173.14 312.061 174.644 311.272 175.967C310.504 177.289 309.427 178.335 308.04 179.103C306.675 179.849 305.107 180.223 303.336 180.223ZM303.336 176.799C304.317 176.799 305.192 176.585 305.96 176.159C306.728 175.732 307.325 175.113 307.752 174.303C308.2 173.492 308.424 172.543 308.424 171.455C308.424 170.345 308.2 169.396 307.752 168.607C307.325 167.796 306.728 167.177 305.96 166.751C305.192 166.324 304.328 166.111 303.368 166.111C302.387 166.111 301.512 166.324 300.744 166.751C299.997 167.177 299.4 167.796 298.952 168.607C298.504 169.396 298.28 170.345 298.28 171.455C298.28 172.543 298.504 173.492 298.952 174.303C299.4 175.113 299.997 175.732 300.744 176.159C301.512 176.585 302.376 176.799 303.336 176.799Z" fill="white"/>
<path d="M274.469 180.223C272.571 180.223 270.907 179.849 269.477 179.103C268.069 178.335 266.971 177.289 266.181 175.967C265.413 174.644 265.029 173.14 265.029 171.455C265.029 169.748 265.403 168.244 266.149 166.943C266.917 165.62 267.963 164.585 269.285 163.839C270.629 163.092 272.155 162.719 273.861 162.719C275.525 162.719 277.008 163.081 278.309 163.807C279.611 164.532 280.635 165.556 281.381 166.879C282.128 168.201 282.501 169.759 282.501 171.551C282.501 171.721 282.491 171.913 282.469 172.127C282.469 172.34 282.459 172.543 282.437 172.735H268.197V170.079H280.325L278.757 170.911C278.779 169.929 278.576 169.065 278.149 168.319C277.723 167.572 277.136 166.985 276.389 166.559C275.664 166.132 274.821 165.919 273.861 165.919C272.88 165.919 272.016 166.132 271.269 166.559C270.544 166.985 269.968 167.583 269.541 168.351C269.136 169.097 268.933 169.983 268.933 171.007V171.647C268.933 172.671 269.168 173.577 269.637 174.367C270.107 175.156 270.768 175.764 271.621 176.191C272.475 176.617 273.456 176.831 274.565 176.831C275.525 176.831 276.389 176.681 277.157 176.383C277.925 176.084 278.608 175.615 279.205 174.975L281.349 177.439C280.581 178.335 279.611 179.028 278.437 179.519C277.285 179.988 275.963 180.223 274.469 180.223Z" fill="white"/>
<path d="M247.426 176.608L246.562 177.568V162.912H250.562V177.568L249.602 176.608H258.05L257.122 177.568V162.912H261.122V180H235.938V162.912H239.938V177.568L239.01 176.608H247.426Z" fill="white"/>
<path d="M225.671 168.544C227.868 168.544 229.543 169.035 230.695 170.016C231.847 170.997 232.423 172.384 232.423 174.176C232.423 176.032 231.783 177.483 230.503 178.528C229.223 179.552 227.42 180.053 225.095 180.032L217.095 180V162.912H221.095V168.512L225.671 168.544ZM224.743 177.088C225.916 177.109 226.812 176.864 227.431 176.352C228.049 175.84 228.359 175.093 228.359 174.112C228.359 173.131 228.049 172.427 227.431 172C226.833 171.552 225.937 171.317 224.743 171.296L221.095 171.264V177.056L224.743 177.088Z" fill="white"/>
<path d="M193.724 179.968L193.916 176.608C194.065 176.629 194.204 176.651 194.332 176.672C194.46 176.693 194.577 176.704 194.684 176.704C195.345 176.704 195.857 176.501 196.22 176.096C196.582 175.691 196.849 175.147 197.02 174.464C197.212 173.76 197.34 172.981 197.404 172.128C197.489 171.253 197.553 170.379 197.596 169.504L197.884 162.912H211.708V180H207.708V165.216L208.636 166.304H200.508L201.372 165.184L201.148 169.696C201.084 171.211 200.956 172.619 200.764 173.92C200.593 175.2 200.316 176.32 199.932 177.28C199.569 178.24 199.057 178.987 198.396 179.52C197.756 180.053 196.934 180.32 195.932 180.32C195.612 180.32 195.26 180.288 194.876 180.224C194.513 180.16 194.129 180.075 193.724 179.968Z" fill="white"/>
<path d="M183.336 180.223C181.587 180.223 180.029 179.849 178.664 179.103C177.299 178.335 176.221 177.289 175.432 175.967C174.643 174.644 174.248 173.14 174.248 171.455C174.248 169.748 174.643 168.244 175.432 166.943C176.221 165.62 177.299 164.585 178.664 163.839C180.029 163.092 181.587 162.719 183.336 162.719C185.107 162.719 186.675 163.092 188.04 163.839C189.427 164.585 190.504 165.609 191.272 166.911C192.061 168.212 192.456 169.727 192.456 171.455C192.456 173.14 192.061 174.644 191.272 175.967C190.504 177.289 189.427 178.335 188.04 179.103C186.675 179.849 185.107 180.223 183.336 180.223ZM183.336 176.799C184.317 176.799 185.192 176.585 185.96 176.159C186.728 175.732 187.325 175.113 187.752 174.303C188.2 173.492 188.424 172.543 188.424 171.455C188.424 170.345 188.2 169.396 187.752 168.607C187.325 167.796 186.728 167.177 185.96 166.751C185.192 166.324 184.328 166.111 183.368 166.111C182.387 166.111 181.512 166.324 180.744 166.751C179.997 167.177 179.4 167.796 178.952 168.607C178.504 169.396 178.28 170.345 178.28 171.455C178.28 172.543 178.504 173.492 178.952 174.303C179.4 175.113 179.997 175.732 180.744 176.159C181.512 176.585 182.376 176.799 183.336 176.799Z" fill="white"/>
<path d="M162.536 180.319C161.128 180.319 159.869 180.106 158.76 179.679C157.651 179.252 156.691 178.602 155.88 177.727C155.091 176.831 154.483 175.7 154.056 174.335C153.629 172.97 153.416 171.348 153.416 169.471C153.416 168.106 153.533 166.858 153.768 165.727C154.003 164.596 154.355 163.583 154.824 162.687C155.293 161.77 155.88 160.959 156.584 160.255C157.309 159.551 158.152 158.964 159.112 158.495C160.072 158.026 161.16 157.663 162.376 157.407L170.312 155.711L170.888 159.295L163.688 160.767C163.283 160.852 162.792 160.98 162.216 161.151C161.661 161.3 161.085 161.535 160.488 161.855C159.912 162.154 159.368 162.591 158.856 163.167C158.365 163.722 157.96 164.447 157.64 165.343C157.341 166.218 157.192 167.316 157.192 168.639C157.192 169.044 157.203 169.354 157.224 169.567C157.267 169.759 157.299 169.972 157.32 170.207C157.363 170.42 157.384 170.74 157.384 171.167L155.88 169.599C156.307 168.511 156.893 167.583 157.64 166.815C158.408 166.026 159.293 165.428 160.296 165.023C161.32 164.596 162.429 164.383 163.624 164.383C165.224 164.383 166.643 164.714 167.88 165.375C169.117 166.036 170.088 166.964 170.792 168.159C171.496 169.354 171.848 170.708 171.848 172.223C171.848 173.802 171.464 175.199 170.696 176.415C169.928 177.631 168.84 178.591 167.432 179.295C166.045 179.978 164.413 180.319 162.536 180.319ZM162.856 177.087C163.816 177.087 164.659 176.884 165.384 176.479C166.131 176.052 166.707 175.476 167.112 174.751C167.539 174.026 167.752 173.215 167.752 172.319C167.752 171.423 167.539 170.644 167.112 169.983C166.707 169.3 166.131 168.756 165.384 168.351C164.659 167.946 163.795 167.743 162.792 167.743C161.832 167.743 160.968 167.935 160.2 168.319C159.453 168.703 158.867 169.236 158.44 169.919C158.035 170.58 157.832 171.348 157.832 172.223C157.832 173.119 158.045 173.94 158.472 174.687C158.899 175.434 159.485 176.02 160.232 176.447C161 176.874 161.875 177.087 162.856 177.087Z" fill="white"/>
<path d="M135.264 168.544C137.462 168.544 139.136 169.035 140.288 170.016C141.44 170.997 142.016 172.384 142.016 174.176C142.016 176.032 141.376 177.483 140.096 178.528C138.816 179.552 137.014 180.053 134.688 180.032L126.688 180V162.912H130.688V168.512L135.264 168.544ZM134.336 177.088C135.51 177.109 136.406 176.864 137.024 176.352C137.643 175.84 137.952 175.093 137.952 174.112C137.952 173.131 137.643 172.427 137.024 172C136.427 171.552 135.531 171.317 134.336 171.296L130.688 171.264V177.056L134.336 177.088Z" fill="white"/>
<path d="M113.803 180V165.344L114.731 166.304H107.787V162.912H123.787V166.304H116.875L117.803 165.344V180H113.803Z" fill="white"/>
<path d="M101.525 179.999V176.543L101.301 175.807V169.759C101.301 168.585 100.949 167.679 100.245 167.039C99.5413 166.377 98.4746 166.047 97.0453 166.047C96.0853 166.047 95.1359 166.196 94.1973 166.495C93.2799 166.793 92.5013 167.209 91.8613 167.743L90.2933 164.831C91.2106 164.127 92.2986 163.604 93.5573 163.263C94.8373 162.9 96.1599 162.719 97.5253 162.719C99.9999 162.719 101.909 163.316 103.253 164.511C104.619 165.684 105.301 167.508 105.301 169.983V179.999H101.525ZM96.1493 180.223C94.8693 180.223 93.7493 180.009 92.7893 179.583C91.8293 179.135 91.0826 178.527 90.5493 177.759C90.0373 176.969 89.7812 176.084 89.7812 175.103C89.7812 174.143 90.0053 173.279 90.4533 172.511C90.9226 171.743 91.6799 171.135 92.7253 170.687C93.7706 170.239 95.1573 170.015 96.8853 170.015H101.845V172.671H97.1733C95.8079 172.671 94.8906 172.895 94.4213 173.343C93.9519 173.769 93.7173 174.303 93.7173 174.943C93.7173 175.668 94.0053 176.244 94.5813 176.671C95.1573 177.097 95.9573 177.311 96.9813 177.311C97.9626 177.311 98.8373 177.087 99.6053 176.639C100.395 176.191 100.96 175.529 101.301 174.655L101.973 177.055C101.589 178.057 100.896 178.836 99.8933 179.391C98.9119 179.945 97.6639 180.223 96.1493 180.223Z" fill="white"/>
<path d="M69.1885 180V162.912H73.1885V169.856H81.7965V162.912H85.7965V180H81.7965V173.248H73.1885V180H69.1885Z" fill="white"/>
<path d="M56.9093 180.286C55.6079 180.286 54.3173 180.137 53.0373 179.838C51.7786 179.518 50.6373 179.07 49.6133 178.494L50.7333 175.518C51.5653 175.988 52.5039 176.35 53.5493 176.606C54.5946 176.862 55.64 176.99 56.6853 176.99C57.5813 176.99 58.3493 176.905 58.9893 176.734C59.6293 176.542 60.12 176.265 60.4613 175.902C60.824 175.54 61.0053 175.124 61.0053 174.654C61.0053 173.972 60.7066 173.46 60.1093 173.118C59.5333 172.756 58.7013 172.574 57.6133 172.574H54.3173V169.886H57.2933C57.9759 169.886 58.5519 169.812 59.0213 169.662C59.5119 169.513 59.8853 169.289 60.1413 168.99C60.3973 168.692 60.5253 168.34 60.5253 167.934C60.5253 167.529 60.3653 167.177 60.0453 166.878C59.7466 166.558 59.3093 166.324 58.7333 166.174C58.1573 166.004 57.4639 165.918 56.6533 165.918C55.7999 165.918 54.9146 166.025 53.9973 166.238C53.1013 166.452 52.1839 166.761 51.2453 167.166L50.2213 164.222C51.3093 163.732 52.3653 163.358 53.3893 163.102C54.4346 162.825 55.4693 162.676 56.4933 162.654C58.0506 162.59 59.4373 162.75 60.6533 163.134C61.8693 163.518 62.8293 164.073 63.5333 164.798C64.2373 165.524 64.5893 166.377 64.5893 167.358C64.5893 168.169 64.3333 168.905 63.8213 169.566C63.3306 170.206 62.6479 170.708 61.7733 171.07C60.9199 171.433 59.9386 171.614 58.8293 171.614L58.9573 170.75C60.856 170.75 62.3493 171.134 63.4373 171.902C64.5253 172.649 65.0693 173.673 65.0693 174.974C65.0693 176.02 64.7173 176.948 64.0133 177.758C63.3093 178.548 62.3386 179.166 61.1013 179.614C59.8853 180.062 58.4879 180.286 56.9093 180.286Z" fill="white"/>
<path d="M34.5369 186.432C33.7049 186.432 32.8729 186.293 32.0409 186.016C31.2089 185.739 30.5156 185.355 29.9609 184.864L31.5609 181.92C31.9663 182.283 32.4249 182.571 32.9369 182.784C33.4489 182.997 33.9716 183.104 34.5049 183.104C35.2303 183.104 35.8169 182.923 36.2649 182.56C36.7129 182.197 37.1289 181.589 37.5129 180.736L38.5049 178.496L38.8249 178.016L45.2889 162.912H49.1289L41.1289 181.376C40.5956 182.656 39.9983 183.669 39.3369 184.416C38.6969 185.163 37.9716 185.685 37.1609 185.984C36.3716 186.283 35.4969 186.432 34.5369 186.432ZM38.0569 180.608L30.3449 162.912H34.5049L40.7769 177.664L38.0569 180.608Z" fill="white"/>
<path d="M1.68848 180V162.912H5.68848V174.176L15.1285 162.912H18.7765V180H14.7765V168.736L5.36848 180H1.68848Z" fill="white"/>
<path d="M563.938 141V123.912H568.13L575.01 136.04H573.346L580.578 123.912H584.323L584.354 141H580.738V128.2L581.378 128.616L574.979 139.208H573.25L566.818 128.328L567.586 128.136V141H563.938Z" fill="white"/>
<path d="M550.867 141.223C549.118 141.223 547.561 140.849 546.195 140.103C544.83 139.335 543.753 138.289 542.963 136.967C542.174 135.644 541.779 134.14 541.779 132.455C541.779 130.748 542.174 129.244 542.963 127.943C543.753 126.62 544.83 125.585 546.195 124.839C547.561 124.092 549.118 123.719 550.867 123.719C552.638 123.719 554.206 124.092 555.571 124.839C556.958 125.585 558.035 126.609 558.803 127.911C559.593 129.212 559.987 130.727 559.987 132.455C559.987 134.14 559.593 135.644 558.803 136.967C558.035 138.289 556.958 139.335 555.571 140.103C554.206 140.849 552.638 141.223 550.867 141.223ZM550.867 137.799C551.849 137.799 552.723 137.585 553.491 137.159C554.259 136.732 554.857 136.113 555.283 135.303C555.731 134.492 555.955 133.543 555.955 132.455C555.955 131.345 555.731 130.396 555.283 129.607C554.857 128.796 554.259 128.177 553.491 127.751C552.723 127.324 551.859 127.111 550.899 127.111C549.918 127.111 549.043 127.324 548.275 127.751C547.529 128.177 546.931 128.796 546.483 129.607C546.035 130.396 545.811 131.345 545.811 132.455C545.811 133.543 546.035 134.492 546.483 135.303C546.931 136.113 547.529 136.732 548.275 137.159C549.043 137.585 549.907 137.799 550.867 137.799Z" fill="white"/>
<path d="M531.116 141V126.344L532.044 127.304H525.1V123.912H541.1V127.304H534.188L535.116 126.344V141H531.116Z" fill="white"/>
<path d="M518.186 141V123.912H522.186V141H518.186ZM509.258 129.544C511.456 129.544 513.12 130.035 514.25 131.016C515.402 131.997 515.979 133.384 515.979 135.176C515.979 137.032 515.338 138.483 514.058 139.528C512.8 140.552 511.008 141.053 508.682 141.032L500.938 141V123.912H504.938V129.512L509.258 129.544ZM508.33 138.088C509.504 138.109 510.4 137.864 511.018 137.352C511.637 136.84 511.946 136.093 511.946 135.112C511.946 134.131 511.637 133.427 511.018 133C510.421 132.552 509.525 132.317 508.33 132.296L504.938 132.264V138.056L508.33 138.088Z" fill="white"/>
<path d="M479.157 141V123.912H495.541V141H491.573V126.376L492.501 127.304H482.229L483.157 126.376V141H479.157Z" fill="white"/>
<path d="M466.086 141.223C464.337 141.223 462.779 140.849 461.414 140.103C460.049 139.335 458.971 138.289 458.182 136.967C457.393 135.644 456.998 134.14 456.998 132.455C456.998 130.748 457.393 129.244 458.182 127.943C458.971 126.62 460.049 125.585 461.414 124.839C462.779 124.092 464.337 123.719 466.086 123.719C467.857 123.719 469.425 124.092 470.79 124.839C472.177 125.585 473.254 126.609 474.022 127.911C474.811 129.212 475.206 130.727 475.206 132.455C475.206 134.14 474.811 135.644 474.022 136.967C473.254 138.289 472.177 139.335 470.79 140.103C469.425 140.849 467.857 141.223 466.086 141.223ZM466.086 137.799C467.067 137.799 467.942 137.585 468.71 137.159C469.478 136.732 470.075 136.113 470.502 135.303C470.95 134.492 471.174 133.543 471.174 132.455C471.174 131.345 470.95 130.396 470.502 129.607C470.075 128.796 469.478 128.177 468.71 127.751C467.942 127.324 467.078 127.111 466.118 127.111C465.137 127.111 464.262 127.324 463.494 127.751C462.747 128.177 462.15 128.796 461.702 129.607C461.254 130.396 461.03 131.345 461.03 132.455C461.03 133.543 461.254 134.492 461.702 135.303C462.15 136.113 462.747 136.732 463.494 137.159C464.262 137.585 465.126 137.799 466.086 137.799Z" fill="white"/>
<path d="M429.036 141L436.556 131.208L436.492 133.352L429.324 123.912H433.772L438.796 130.632H437.1L442.156 123.912H446.476L439.244 133.352L439.276 131.208L446.764 141H442.252L436.972 133.864L438.636 134.088L433.452 141H429.036Z" fill="white"/>
<path d="M409.095 141V123.912H413.095V135.176L422.535 123.912H426.183V141H422.183V129.736L412.775 141H409.095Z" fill="white"/>
<path d="M389.434 141.223C387.642 141.223 386.042 140.849 384.634 140.103C383.247 139.335 382.159 138.289 381.37 136.967C380.58 135.644 380.186 134.14 380.186 132.455C380.186 130.748 380.58 129.244 381.37 127.943C382.159 126.62 383.247 125.585 384.634 124.839C386.042 124.092 387.642 123.719 389.434 123.719C391.098 123.719 392.559 124.06 393.818 124.743C395.098 125.404 396.068 126.385 396.73 127.687L393.658 129.479C393.146 128.668 392.516 128.071 391.77 127.687C391.044 127.303 390.255 127.111 389.402 127.111C388.42 127.111 387.535 127.324 386.746 127.751C385.956 128.177 385.338 128.796 384.89 129.607C384.442 130.396 384.218 131.345 384.218 132.455C384.218 133.564 384.442 134.524 384.89 135.335C385.338 136.124 385.956 136.732 386.746 137.159C387.535 137.585 388.42 137.799 389.402 137.799C390.255 137.799 391.044 137.607 391.77 137.223C392.516 136.839 393.146 136.241 393.658 135.431L396.73 137.223C396.068 138.503 395.098 139.495 393.818 140.199C392.559 140.881 391.098 141.223 389.434 141.223Z" fill="white"/>
<path d="M363.85 141V135.176L364.426 135.848H359.306C356.959 135.848 355.114 135.357 353.77 134.376C352.447 133.373 351.786 131.933 351.786 130.056C351.786 128.051 352.49 126.525 353.898 125.48C355.327 124.435 357.226 123.912 359.594 123.912H367.434V141H363.85ZM351.562 141L356.17 134.472H360.266L355.85 141H351.562ZM363.85 133.896V126.216L364.426 127.272H359.722C358.484 127.272 357.524 127.507 356.842 127.976C356.18 128.424 355.85 129.16 355.85 130.184C355.85 132.104 357.098 133.064 359.594 133.064H364.426L363.85 133.896Z" fill="white"/>
<path d="M342.652 141.223C340.86 141.223 339.26 140.849 337.852 140.103C336.466 139.335 335.378 138.289 334.588 136.967C333.799 135.644 333.404 134.14 333.404 132.455C333.404 130.748 333.799 129.244 334.588 127.943C335.378 126.62 336.466 125.585 337.852 124.839C339.26 124.092 340.86 123.719 342.652 123.719C344.316 123.719 345.778 124.06 347.036 124.743C348.316 125.404 349.287 126.385 349.948 127.687L346.876 129.479C346.364 128.668 345.735 128.071 344.988 127.687C344.263 127.303 343.474 127.111 342.62 127.111C341.639 127.111 340.754 127.324 339.964 127.751C339.175 128.177 338.556 128.796 338.108 129.607C337.66 130.396 337.436 131.345 337.436 132.455C337.436 133.564 337.66 134.524 338.108 135.335C338.556 136.124 339.175 136.732 339.964 137.159C340.754 137.585 341.639 137.799 342.62 137.799C343.474 137.799 344.263 137.607 344.988 137.223C345.735 136.839 346.364 136.241 346.876 135.431L349.948 137.223C349.287 138.503 348.316 139.495 347.036 140.199C345.778 140.881 344.316 141.223 342.652 141.223Z" fill="white"/>
<path d="M324.608 129.544C326.806 129.544 328.48 130.035 329.632 131.016C330.784 131.997 331.36 133.384 331.36 135.176C331.36 137.032 330.72 138.483 329.44 139.528C328.16 140.552 326.358 141.053 324.032 141.032L316.032 141V123.912H320.032V129.512L324.608 129.544ZM323.68 138.088C324.854 138.109 325.75 137.864 326.368 137.352C326.987 136.84 327.296 136.093 327.296 135.112C327.296 134.131 326.987 133.427 326.368 133C325.771 132.552 324.875 132.317 323.68 132.296L320.032 132.264V138.056L323.68 138.088Z" fill="white"/>
<path d="M303.147 141V126.344L304.075 127.304H297.131V123.912H313.131V127.304H306.219L307.147 126.344V141H303.147Z" fill="white"/>
<path d="M277.126 141V123.912H281.126V135.176L290.566 123.912H294.214V141H290.214V129.736L280.806 141H277.126Z" fill="white"/>
<path d="M251.345 141V123.912H255.537L262.417 136.04H260.753L267.985 123.912H271.729L271.761 141H268.145V128.2L268.785 128.616L262.385 139.208H260.657L254.225 128.328L254.993 128.136V141H251.345Z" fill="white"/>
<path d="M238.274 141.223C236.524 141.223 234.967 140.849 233.602 140.103C232.236 139.335 231.159 138.289 230.37 136.967C229.58 135.644 229.186 134.14 229.186 132.455C229.186 130.748 229.58 129.244 230.37 127.943C231.159 126.62 232.236 125.585 233.602 124.839C234.967 124.092 236.524 123.719 238.274 123.719C240.044 123.719 241.612 124.092 242.978 124.839C244.364 125.585 245.442 126.609 246.21 127.911C246.999 129.212 247.394 130.727 247.394 132.455C247.394 134.14 246.999 135.644 246.21 136.967C245.442 138.289 244.364 139.335 242.978 140.103C241.612 140.849 240.044 141.223 238.274 141.223ZM238.274 137.799C239.255 137.799 240.13 137.585 240.898 137.159C241.666 136.732 242.263 136.113 242.69 135.303C243.138 134.492 243.362 133.543 243.362 132.455C243.362 131.345 243.138 130.396 242.69 129.607C242.263 128.796 241.666 128.177 240.898 127.751C240.13 127.324 239.266 127.111 238.306 127.111C237.324 127.111 236.45 127.324 235.682 127.751C234.935 128.177 234.338 128.796 233.89 129.607C233.442 130.396 233.218 131.345 233.218 132.455C233.218 133.543 233.442 134.492 233.89 135.303C234.338 136.113 234.935 136.732 235.682 137.159C236.45 137.585 237.314 137.799 238.274 137.799Z" fill="white"/>
<path d="M223.694 141L217.518 132.808L220.782 130.792L228.398 141H223.694ZM211.438 141V123.912H215.438V141H211.438ZM214.254 134.152V130.824H220.046V134.152H214.254ZM221.166 132.936L217.422 132.488L223.694 123.912H227.982L221.166 132.936Z" fill="white"/>
<path d="M202.713 140.999V137.543L202.489 136.807V130.759C202.489 129.585 202.137 128.679 201.433 128.039C200.729 127.377 199.662 127.047 198.233 127.047C197.273 127.047 196.323 127.196 195.385 127.495C194.467 127.793 193.689 128.209 193.049 128.743L191.481 125.831C192.398 125.127 193.486 124.604 194.745 124.263C196.025 123.9 197.347 123.719 198.713 123.719C201.187 123.719 203.097 124.316 204.441 125.511C205.806 126.684 206.489 128.508 206.489 130.983V140.999H202.713ZM197.337 141.223C196.057 141.223 194.937 141.009 193.977 140.583C193.017 140.135 192.27 139.527 191.737 138.759C191.225 137.969 190.969 137.084 190.969 136.103C190.969 135.143 191.193 134.279 191.641 133.511C192.11 132.743 192.867 132.135 193.913 131.687C194.958 131.239 196.345 131.015 198.073 131.015H203.033V133.671H198.361C196.995 133.671 196.078 133.895 195.609 134.343C195.139 134.769 194.905 135.303 194.905 135.943C194.905 136.668 195.193 137.244 195.769 137.671C196.345 138.097 197.145 138.311 198.169 138.311C199.15 138.311 200.025 138.087 200.793 137.639C201.582 137.191 202.147 136.529 202.489 135.655L203.161 138.055C202.777 139.057 202.083 139.836 201.081 140.391C200.099 140.945 198.851 141.223 197.337 141.223Z" fill="white"/>
<path d="M170.376 141V123.912H174.376V130.856H182.984V123.912H186.984V141H182.984V134.248H174.376V141H170.376Z" fill="white"/>
<path d="M158.097 141.286C156.795 141.286 155.505 141.137 154.225 140.838C152.966 140.518 151.825 140.07 150.801 139.494L151.921 136.518C152.753 136.988 153.691 137.35 154.737 137.606C155.782 137.862 156.827 137.99 157.873 137.99C158.769 137.99 159.537 137.905 160.177 137.734C160.817 137.542 161.307 137.265 161.649 136.902C162.011 136.54 162.193 136.124 162.193 135.654C162.193 134.972 161.894 134.46 161.297 134.118C160.721 133.756 159.889 133.574 158.801 133.574H155.505V130.886H158.481C159.163 130.886 159.739 130.812 160.209 130.662C160.699 130.513 161.073 130.289 161.329 129.99C161.585 129.692 161.713 129.34 161.713 128.934C161.713 128.529 161.553 128.177 161.233 127.878C160.934 127.558 160.497 127.324 159.921 127.174C159.345 127.004 158.651 126.918 157.841 126.918C156.987 126.918 156.102 127.025 155.185 127.238C154.289 127.452 153.371 127.761 152.433 128.166L151.409 125.222C152.497 124.732 153.553 124.358 154.577 124.102C155.622 123.825 156.657 123.676 157.681 123.654C159.238 123.59 160.625 123.75 161.841 124.134C163.057 124.518 164.017 125.073 164.721 125.798C165.425 126.524 165.777 127.377 165.777 128.358C165.777 129.169 165.521 129.905 165.009 130.566C164.518 131.206 163.835 131.708 162.961 132.07C162.107 132.433 161.126 132.614 160.017 132.614L160.145 131.75C162.043 131.75 163.537 132.134 164.625 132.902C165.713 133.649 166.257 134.673 166.257 135.974C166.257 137.02 165.905 137.948 165.201 138.758C164.497 139.548 163.526 140.166 162.289 140.614C161.073 141.062 159.675 141.286 158.097 141.286Z" fill="white"/>
<path d="M139.867 141.223C138.118 141.223 136.561 140.849 135.195 140.103C133.83 139.335 132.753 138.289 131.963 136.967C131.174 135.644 130.779 134.14 130.779 132.455C130.779 130.748 131.174 129.244 131.963 127.943C132.753 126.62 133.83 125.585 135.195 124.839C136.561 124.092 138.118 123.719 139.867 123.719C141.638 123.719 143.206 124.092 144.571 124.839C145.958 125.585 147.035 126.609 147.803 127.911C148.593 129.212 148.987 130.727 148.987 132.455C148.987 134.14 148.593 135.644 147.803 136.967C147.035 138.289 145.958 139.335 144.571 140.103C143.206 140.849 141.638 141.223 139.867 141.223ZM139.867 137.799C140.849 137.799 141.723 137.585 142.491 137.159C143.259 136.732 143.857 136.113 144.283 135.303C144.731 134.492 144.955 133.543 144.955 132.455C144.955 131.345 144.731 130.396 144.283 129.607C143.857 128.796 143.259 128.177 142.491 127.751C141.723 127.324 140.859 127.111 139.899 127.111C138.918 127.111 138.043 127.324 137.275 127.751C136.529 128.177 135.931 128.796 135.483 129.607C135.035 130.396 134.811 131.345 134.811 132.455C134.811 133.543 135.035 134.492 135.483 135.303C135.931 136.113 136.529 136.732 137.275 137.159C138.043 137.585 138.907 137.799 139.867 137.799Z" fill="white"/>
<path d="M110.336 141.223C108.587 141.223 107.029 140.849 105.664 140.103C104.299 139.335 103.221 138.289 102.432 136.967C101.643 135.644 101.248 134.14 101.248 132.455C101.248 130.748 101.643 129.244 102.432 127.943C103.221 126.62 104.299 125.585 105.664 124.839C107.029 124.092 108.587 123.719 110.336 123.719C112.107 123.719 113.675 124.092 115.04 124.839C116.427 125.585 117.504 126.609 118.272 127.911C119.061 129.212 119.456 130.727 119.456 132.455C119.456 134.14 119.061 135.644 118.272 136.967C117.504 138.289 116.427 139.335 115.04 140.103C113.675 140.849 112.107 141.223 110.336 141.223ZM110.336 137.799C111.317 137.799 112.192 137.585 112.96 137.159C113.728 136.732 114.325 136.113 114.752 135.303C115.2 134.492 115.424 133.543 115.424 132.455C115.424 131.345 115.2 130.396 114.752 129.607C114.325 128.796 113.728 128.177 112.96 127.751C112.192 127.324 111.328 127.111 110.368 127.111C109.387 127.111 108.512 127.324 107.744 127.751C106.997 128.177 106.4 128.796 105.952 129.607C105.504 130.396 105.28 131.345 105.28 132.455C105.28 133.543 105.504 134.492 105.952 135.303C106.4 136.113 106.997 136.732 107.744 137.159C108.512 137.585 109.376 137.799 110.336 137.799Z" fill="white"/>
<path d="M80.751 141V123.912H84.751V130.856H93.359V123.912H97.359V141H93.359V134.248H84.751V141H80.751Z" fill="white"/>
<path d="M73.0106 141L68.0186 132.808L71.2826 130.792L77.7786 141H73.0106ZM64.7866 134.152V130.824H70.5146V134.152H64.7866ZM71.6666 132.936L67.8906 132.488L73.0746 123.912H77.3306L71.6666 132.936ZM54.9626 141H50.2266L56.6906 130.792L59.9546 132.808L54.9626 141ZM65.9706 141H62.0026V123.912H65.9706V141ZM63.1866 134.152H57.4906V130.824H63.1866V134.152ZM56.3066 132.936L50.6426 123.912H54.8986L60.0506 132.488L56.3066 132.936Z" fill="white"/>
<path d="M40.1173 141.223C38.368 141.223 36.8106 140.849 35.4453 140.103C34.08 139.335 33.0026 138.289 32.2133 136.967C31.424 135.644 31.0293 134.14 31.0293 132.455C31.0293 130.748 31.424 129.244 32.2133 127.943C33.0026 126.62 34.08 125.585 35.4453 124.839C36.8106 124.092 38.368 123.719 40.1173 123.719C41.888 123.719 43.456 124.092 44.8213 124.839C46.208 125.585 47.2853 126.609 48.0533 127.911C48.8426 129.212 49.2373 130.727 49.2373 132.455C49.2373 134.14 48.8426 135.644 48.0533 136.967C47.2853 138.289 46.208 139.335 44.8213 140.103C43.456 140.849 41.888 141.223 40.1173 141.223ZM40.1173 137.799C41.0986 137.799 41.9733 137.585 42.7413 137.159C43.5093 136.732 44.1066 136.113 44.5333 135.303C44.9813 134.492 45.2053 133.543 45.2053 132.455C45.2053 131.345 44.9813 130.396 44.5333 129.607C44.1066 128.796 43.5093 128.177 42.7413 127.751C41.9733 127.324 41.1093 127.111 40.1493 127.111C39.168 127.111 38.2933 127.324 37.5253 127.751C36.7786 128.177 36.1813 128.796 35.7333 129.607C35.2853 130.396 35.0613 131.345 35.0613 132.455C35.0613 133.543 35.2853 134.492 35.7333 135.303C36.1813 136.113 36.7786 136.732 37.5253 137.159C38.2933 137.585 39.1573 137.799 40.1173 137.799Z" fill="white"/>
<path d="M2.16895 141V118.6H5.56095L15.3849 134.952H13.5609L23.2249 118.6H26.6169L26.6809 141H22.7129L22.6809 124.776H23.5129L15.3209 138.44H13.4649L5.14495 124.776H6.10495V141H2.16895Z" fill="white"/>
<path d="M535.499 102.224C534.774 102.224 534.155 101.979 533.643 101.488C533.131 100.976 532.875 100.336 532.875 99.5681C532.875 98.7574 533.131 98.1174 533.643 97.6481C534.155 97.1574 534.774 96.9121 535.499 96.9121C536.224 96.9121 536.843 97.1574 537.355 97.6481C537.867 98.1174 538.123 98.7574 538.123 99.5681C538.123 100.336 537.867 100.976 537.355 101.488C536.843 101.979 536.224 102.224 535.499 102.224Z" fill="white"/>
<path d="M511.813 102V84.9121H515.813V96.1761L525.253 84.9121H528.901V102H524.901V90.7361L515.493 102H511.813Z" fill="white"/>
<path d="M488.442 101.968L488.634 98.6081C488.784 98.6294 488.922 98.6508 489.05 98.6721C489.178 98.6934 489.296 98.7041 489.402 98.7041C490.064 98.7041 490.576 98.5014 490.938 98.0961C491.301 97.6908 491.568 97.1468 491.738 96.4641C491.93 95.7601 492.058 94.9814 492.122 94.1281C492.208 93.2534 492.272 92.3788 492.314 91.5041L492.602 84.9121H506.426V102H502.426V87.2161L503.354 88.3041H495.226L496.09 87.1841L495.866 91.6961C495.802 93.2108 495.674 94.6188 495.482 95.9201C495.312 97.2001 495.034 98.3201 494.65 99.2801C494.288 100.24 493.776 100.987 493.114 101.52C492.474 102.053 491.653 102.32 490.65 102.32C490.33 102.32 489.978 102.288 489.594 102.224C489.232 102.16 488.848 102.075 488.442 101.968Z" fill="white"/>
<path d="M468.47 102V84.9121H472.47V96.1761L481.91 84.9121H485.558V102H481.558V90.7361L472.15 102H468.47Z" fill="white"/>
<path d="M452.849 102.32C452.828 102.32 452.732 102.32 452.561 102.32C452.412 102.32 452.262 102.32 452.113 102.32C451.985 102.32 451.9 102.32 451.857 102.32C448.252 102.277 445.457 101.499 443.473 99.9839C441.489 98.4479 440.497 96.2612 440.497 93.4239C440.497 90.6079 441.489 88.4532 443.473 86.9599C445.457 85.4665 448.284 84.6985 451.953 84.6559C451.996 84.6559 452.081 84.6559 452.209 84.6559C452.358 84.6559 452.497 84.6559 452.625 84.6559C452.774 84.6559 452.86 84.6559 452.881 84.6559C456.572 84.6559 459.441 85.4132 461.489 86.9279C463.558 88.4212 464.593 90.5865 464.593 93.4239C464.593 96.2825 463.558 98.4799 461.489 100.016C459.441 101.552 456.561 102.32 452.849 102.32ZM452.721 98.9919C454.534 98.9919 456.028 98.7892 457.201 98.3839C458.374 97.9572 459.249 97.3385 459.825 96.5279C460.401 95.6959 460.689 94.6612 460.689 93.4239C460.689 92.2079 460.401 91.2052 459.825 90.4159C459.249 89.6052 458.374 89.0079 457.201 88.6239C456.028 88.2185 454.534 88.0159 452.721 88.0159C452.678 88.0159 452.572 88.0159 452.401 88.0159C452.252 88.0159 452.156 88.0159 452.113 88.0159C450.342 88.0159 448.892 88.2292 447.761 88.6559C446.63 89.0612 445.788 89.6585 445.233 90.4479C444.7 91.2372 444.433 92.2292 444.433 93.4239C444.433 94.6399 444.7 95.6532 445.233 96.4639C445.788 97.2745 446.63 97.8932 447.761 98.3199C448.913 98.7465 450.364 98.9705 452.113 98.9919C452.156 98.9919 452.252 98.9919 452.401 98.9919C452.572 98.9919 452.678 98.9919 452.721 98.9919ZM450.641 108.208V78.2559H454.417V108.208H450.641Z" fill="white"/>
<path d="M428.93 102.223C427.18 102.223 425.623 101.849 424.258 101.103C422.892 100.335 421.815 99.2894 421.026 97.9668C420.236 96.6441 419.842 95.1401 419.842 93.4548C419.842 91.7481 420.236 90.2441 421.026 88.9427C421.815 87.6201 422.892 86.5854 424.258 85.8387C425.623 85.0921 427.18 84.7188 428.93 84.7188C430.7 84.7188 432.268 85.0921 433.634 85.8387C435.02 86.5854 436.098 87.6094 436.866 88.9108C437.655 90.2121 438.05 91.7267 438.05 93.4548C438.05 95.1401 437.655 96.6441 436.866 97.9668C436.098 99.2894 435.02 100.335 433.634 101.103C432.268 101.849 430.7 102.223 428.93 102.223ZM428.93 98.7988C429.911 98.7988 430.786 98.5854 431.554 98.1588C432.322 97.7321 432.919 97.1134 433.346 96.3027C433.794 95.4921 434.018 94.5428 434.018 93.4548C434.018 92.3454 433.794 91.3961 433.346 90.6068C432.919 89.7961 432.322 89.1774 431.554 88.7507C430.786 88.3241 429.922 88.1107 428.962 88.1107C427.98 88.1107 427.106 88.3241 426.338 88.7507C425.591 89.1774 424.994 89.7961 424.546 90.6068C424.098 91.3961 423.874 92.3454 423.874 93.4548C423.874 94.5428 424.098 95.4921 424.546 96.3027C424.994 97.1134 425.591 97.7321 426.338 98.1588C427.106 98.5854 427.97 98.7988 428.93 98.7988Z" fill="white"/>
<path d="M408.66 102.223C407.274 102.223 406.004 101.903 404.852 101.263C403.722 100.623 402.815 99.6628 402.132 98.3828C401.471 97.0814 401.141 95.4388 401.141 93.4548C401.141 91.4494 401.46 89.8067 402.1 88.5267C402.762 87.2467 403.658 86.2974 404.788 85.6787C405.919 85.0387 407.21 84.7188 408.66 84.7188C410.346 84.7188 411.828 85.0814 413.108 85.8067C414.41 86.5321 415.434 87.5454 416.18 88.8467C416.948 90.1481 417.332 91.6841 417.332 93.4548C417.332 95.2254 416.948 96.7721 416.18 98.0947C415.434 99.3961 414.41 100.409 413.108 101.135C411.828 101.86 410.346 102.223 408.66 102.223ZM399.188 108.207V84.9108H402.996V88.9427L402.868 93.4867L403.188 98.0307V108.207H399.188ZM408.212 98.7988C409.172 98.7988 410.026 98.5854 410.772 98.1588C411.54 97.7321 412.148 97.1134 412.596 96.3027C413.044 95.4921 413.268 94.5428 413.268 93.4548C413.268 92.3454 413.044 91.3961 412.596 90.6068C412.148 89.7961 411.54 89.1774 410.772 88.7507C410.026 88.3241 409.172 88.1107 408.212 88.1107C407.252 88.1107 406.388 88.3241 405.62 88.7507C404.852 89.1774 404.244 89.7961 403.796 90.6068C403.348 91.3961 403.124 92.3454 403.124 93.4548C403.124 94.5428 403.348 95.4921 403.796 96.3027C404.244 97.1134 404.852 97.7321 405.62 98.1588C406.388 98.5854 407.252 98.7988 408.212 98.7988Z" fill="white"/>
<path d="M377.407 102V84.9121H393.791V102H389.823V87.3761L390.751 88.3041H380.479L381.407 87.3761V102H377.407Z" fill="white"/>
<path d="M347.974 102L355.494 92.2081L355.43 94.3521L348.262 84.9121H352.71L357.734 91.6321H356.038L361.094 84.9121H365.414L358.182 94.3521L358.214 92.2081L365.702 102H361.19L355.91 94.8641L357.574 95.0881L352.39 102H347.974Z" fill="white"/>
<path d="M328.032 102V84.9121H332.032V96.1761L341.472 84.9121H345.12V102H341.12V90.7361L331.712 102H328.032Z" fill="white"/>
<path d="M306.909 102.286C305.608 102.286 304.317 102.137 303.037 101.838C301.779 101.518 300.637 101.07 299.613 100.494L300.733 97.5183C301.565 97.9877 302.504 98.3503 303.549 98.6063C304.595 98.8623 305.64 98.9903 306.685 98.9903C307.581 98.9903 308.349 98.905 308.989 98.7343C309.629 98.5423 310.12 98.265 310.461 97.9023C310.824 97.5397 311.005 97.1237 311.005 96.6543C311.005 95.9717 310.707 95.4597 310.109 95.1183C309.533 94.7557 308.701 94.5743 307.613 94.5743H304.317V91.8863H307.293C307.976 91.8863 308.552 91.8117 309.021 91.6623C309.512 91.513 309.885 91.289 310.141 90.9903C310.397 90.6917 310.525 90.3397 310.525 89.9343C310.525 89.529 310.365 89.177 310.045 88.8783C309.747 88.5583 309.309 88.3237 308.733 88.1743C308.157 88.0037 307.464 87.9183 306.653 87.9183C305.8 87.9183 304.915 88.025 303.997 88.2383C303.101 88.4517 302.184 88.761 301.245 89.1663L300.221 86.2223C301.309 85.7317 302.365 85.3583 303.389 85.1023C304.435 84.825 305.469 84.6757 306.493 84.6543C308.051 84.5903 309.437 84.7503 310.653 85.1343C311.869 85.5183 312.829 86.073 313.533 86.7983C314.237 87.5237 314.589 88.377 314.589 89.3583C314.589 90.169 314.333 90.905 313.821 91.5663C313.331 92.2063 312.648 92.7077 311.773 93.0703C310.92 93.433 309.939 93.6143 308.829 93.6143L308.957 92.7503C310.856 92.7503 312.349 93.1343 313.437 93.9023C314.525 94.649 315.069 95.673 315.069 96.9743C315.069 98.0197 314.717 98.9477 314.013 99.7583C313.309 100.548 312.339 101.166 311.101 101.614C309.885 102.062 308.488 102.286 306.909 102.286Z" fill="white"/>
<path d="M289.376 102.223C287.477 102.223 285.813 101.849 284.384 101.103C282.976 100.335 281.877 99.2894 281.088 97.9668C280.32 96.6441 279.936 95.1401 279.936 93.4548C279.936 91.7481 280.309 90.2441 281.056 88.9427C281.824 87.6201 282.869 86.5854 284.192 85.8387C285.536 85.0921 287.061 84.7188 288.768 84.7188C290.432 84.7188 291.914 85.0814 293.216 85.8067C294.517 86.5321 295.541 87.5561 296.288 88.8787C297.034 90.2014 297.408 91.7588 297.408 93.5508C297.408 93.7214 297.397 93.9134 297.376 94.1267C297.376 94.3401 297.365 94.5427 297.344 94.7347H283.104V92.0788H295.232L293.664 92.9108C293.685 91.9294 293.482 91.0654 293.056 90.3187C292.629 89.5721 292.042 88.9854 291.296 88.5587C290.57 88.1321 289.728 87.9187 288.768 87.9187C287.786 87.9187 286.922 88.1321 286.176 88.5587C285.45 88.9854 284.874 89.5827 284.448 90.3507C284.042 91.0974 283.84 91.9827 283.84 93.0067V93.6468C283.84 94.6708 284.074 95.5774 284.544 96.3667C285.013 97.1561 285.674 97.7641 286.528 98.1908C287.381 98.6174 288.362 98.8307 289.472 98.8307C290.432 98.8307 291.296 98.6814 292.064 98.3828C292.832 98.0841 293.514 97.6147 294.112 96.9747L296.256 99.4388C295.488 100.335 294.517 101.028 293.344 101.519C292.192 101.988 290.869 102.223 289.376 102.223Z" fill="white"/>
<path d="M268.754 102.223C267.368 102.223 266.098 101.903 264.946 101.263C263.816 100.623 262.909 99.6628 262.226 98.3828C261.565 97.0814 261.234 95.4388 261.234 93.4548C261.234 91.4494 261.554 89.8067 262.194 88.5267C262.856 87.2467 263.752 86.2974 264.882 85.6787C266.013 85.0387 267.304 84.7188 268.754 84.7188C270.44 84.7188 271.922 85.0814 273.202 85.8067C274.504 86.5321 275.528 87.5454 276.274 88.8467C277.042 90.1481 277.426 91.6841 277.426 93.4548C277.426 95.2254 277.042 96.7721 276.274 98.0947C275.528 99.3961 274.504 100.409 273.202 101.135C271.922 101.86 270.44 102.223 268.754 102.223ZM259.282 108.207V84.9108H263.09V88.9427L262.962 93.4867L263.282 98.0307V108.207H259.282ZM268.306 98.7988C269.266 98.7988 270.12 98.5854 270.866 98.1588C271.634 97.7321 272.242 97.1134 272.69 96.3027C273.138 95.4921 273.362 94.5428 273.362 93.4548C273.362 92.3454 273.138 91.3961 272.69 90.6068C272.242 89.7961 271.634 89.1774 270.866 88.7507C270.12 88.3241 269.266 88.1107 268.306 88.1107C267.346 88.1107 266.482 88.3241 265.714 88.7507C264.946 89.1774 264.338 89.7961 263.89 90.6068C263.442 91.3961 263.218 92.3454 263.218 93.4548C263.218 94.5428 263.442 95.4921 263.89 96.3027C264.338 97.1134 264.946 97.7321 265.714 98.1588C266.482 98.5854 267.346 98.7988 268.306 98.7988Z" fill="white"/>
<path d="M246.876 102.223C244.977 102.223 243.313 101.849 241.884 101.103C240.476 100.335 239.377 99.2894 238.588 97.9668C237.82 96.6441 237.436 95.1401 237.436 93.4548C237.436 91.7481 237.809 90.2441 238.556 88.9427C239.324 87.6201 240.369 86.5854 241.692 85.8387C243.036 85.0921 244.561 84.7188 246.268 84.7188C247.932 84.7188 249.414 85.0814 250.716 85.8067C252.017 86.5321 253.041 87.5561 253.788 88.8787C254.534 90.2014 254.908 91.7588 254.908 93.5508C254.908 93.7214 254.897 93.9134 254.876 94.1267C254.876 94.3401 254.865 94.5427 254.844 94.7347H240.604V92.0788H252.732L251.164 92.9108C251.185 91.9294 250.982 91.0654 250.556 90.3187C250.129 89.5721 249.542 88.9854 248.796 88.5587C248.07 88.1321 247.228 87.9187 246.268 87.9187C245.286 87.9187 244.422 88.1321 243.676 88.5587C242.95 88.9854 242.374 89.5827 241.948 90.3507C241.542 91.0974 241.34 91.9827 241.34 93.0067V93.6468C241.34 94.6708 241.574 95.5774 242.044 96.3667C242.513 97.1561 243.174 97.7641 244.028 98.1908C244.881 98.6174 245.862 98.8307 246.972 98.8307C247.932 98.8307 248.796 98.6814 249.564 98.3828C250.332 98.0841 251.014 97.6147 251.612 96.9747L253.756 99.4388C252.988 100.335 252.017 101.028 250.844 101.519C249.692 101.988 248.369 102.223 246.876 102.223Z" fill="white"/>
<path d="M229.817 95.2481C229.006 95.6321 228.142 95.9521 227.225 96.2081C226.329 96.4428 225.379 96.5601 224.377 96.5601C222.222 96.5601 220.547 96.0588 219.353 95.0561C218.158 94.0534 217.561 92.4961 217.561 90.3841V84.9121H221.561V90.1281C221.561 91.2588 221.881 92.0801 222.521 92.5921C223.182 93.1041 224.089 93.3601 225.241 93.3601C226.009 93.3601 226.777 93.2641 227.545 93.0721C228.313 92.8801 229.07 92.6134 229.817 92.2721V95.2481ZM229.529 102V84.9121H233.529V102H229.529Z" fill="white"/>
<path d="M184.407 102V84.9121H188.599L195.479 97.0401H193.815L201.047 84.9121H204.791L204.823 102H201.207V89.2001L201.847 89.6161L195.447 100.208H193.719L187.287 89.3281L188.055 89.1361V102H184.407Z" fill="white"/>
<path d="M171.336 102.223C169.587 102.223 168.029 101.849 166.664 101.103C165.299 100.335 164.221 99.2894 163.432 97.9668C162.643 96.6441 162.248 95.1401 162.248 93.4548C162.248 91.7481 162.643 90.2441 163.432 88.9427C164.221 87.6201 165.299 86.5854 166.664 85.8387C168.029 85.0921 169.587 84.7188 171.336 84.7188C173.107 84.7188 174.675 85.0921 176.04 85.8387C177.427 86.5854 178.504 87.6094 179.272 88.9108C180.061 90.2121 180.456 91.7267 180.456 93.4548C180.456 95.1401 180.061 96.6441 179.272 97.9668C178.504 99.2894 177.427 100.335 176.04 101.103C174.675 101.849 173.107 102.223 171.336 102.223ZM171.336 98.7988C172.317 98.7988 173.192 98.5854 173.96 98.1588C174.728 97.7321 175.325 97.1134 175.752 96.3027C176.2 95.4921 176.424 94.5428 176.424 93.4548C176.424 92.3454 176.2 91.3961 175.752 90.6068C175.325 89.7961 174.728 89.1774 173.96 88.7507C173.192 88.3241 172.328 88.1107 171.368 88.1107C170.387 88.1107 169.512 88.3241 168.744 88.7507C167.997 89.1774 167.4 89.7961 166.952 90.6068C166.504 91.3961 166.28 92.3454 166.28 93.4548C166.28 94.5428 166.504 95.4921 166.952 96.3027C167.4 97.1134 167.997 97.7321 168.744 98.1588C169.512 98.5854 170.376 98.7988 171.336 98.7988Z" fill="white"/>
<path d="M151.067 102.223C149.68 102.223 148.411 101.903 147.259 101.263C146.128 100.623 145.221 99.6628 144.539 98.3828C143.877 97.0814 143.547 95.4388 143.547 93.4548C143.547 91.4494 143.867 89.8067 144.507 88.5267C145.168 87.2467 146.064 86.2974 147.195 85.6787C148.325 85.0387 149.616 84.7188 151.067 84.7188C152.752 84.7188 154.235 85.0814 155.515 85.8067C156.816 86.5321 157.84 87.5454 158.587 88.8467C159.355 90.1481 159.739 91.6841 159.739 93.4548C159.739 95.2254 159.355 96.7721 158.587 98.0947C157.84 99.3961 156.816 100.409 155.515 101.135C154.235 101.86 152.752 102.223 151.067 102.223ZM141.595 108.207V84.9108H145.403V88.9427L145.275 93.4867L145.595 98.0307V108.207H141.595ZM150.619 98.7988C151.579 98.7988 152.432 98.5854 153.179 98.1588C153.947 97.7321 154.555 97.1134 155.003 96.3027C155.451 95.4921 155.675 94.5428 155.675 93.4548C155.675 92.3454 155.451 91.3961 155.003 90.6068C154.555 89.7961 153.947 89.1774 153.179 88.7507C152.432 88.3241 151.579 88.1107 150.619 88.1107C149.659 88.1107 148.795 88.3241 148.027 88.7507C147.259 89.1774 146.651 89.7961 146.203 90.6068C145.755 91.3961 145.531 92.3454 145.531 93.4548C145.531 94.5428 145.755 95.4921 146.203 96.3027C146.651 97.1134 147.259 97.7321 148.027 98.1588C148.795 98.5854 149.659 98.7988 150.619 98.7988Z" fill="white"/>
<path d="M129.188 102.223C127.289 102.223 125.625 101.849 124.196 101.103C122.788 100.335 121.689 99.2894 120.9 97.9668C120.132 96.6441 119.748 95.1401 119.748 93.4548C119.748 91.7481 120.121 90.2441 120.868 88.9427C121.636 87.6201 122.681 86.5854 124.004 85.8387C125.348 85.0921 126.873 84.7188 128.58 84.7188C130.244 84.7188 131.727 85.0814 133.028 85.8067C134.329 86.5321 135.353 87.5561 136.1 88.8787C136.847 90.2014 137.22 91.7588 137.22 93.5508C137.22 93.7214 137.209 93.9134 137.188 94.1267C137.188 94.3401 137.177 94.5427 137.156 94.7347H122.916V92.0788H135.044L133.476 92.9108C133.497 91.9294 133.295 91.0654 132.868 90.3187C132.441 89.5721 131.855 88.9854 131.108 88.5587C130.383 88.1321 129.54 87.9187 128.58 87.9187C127.599 87.9187 126.735 88.1321 125.988 88.5587C125.263 88.9854 124.687 89.5827 124.26 90.3507C123.855 91.0974 123.652 91.9827 123.652 93.0067V93.6468C123.652 94.6708 123.887 95.5774 124.356 96.3667C124.825 97.1561 125.487 97.7641 126.34 98.1908C127.193 98.6174 128.175 98.8307 129.284 98.8307C130.244 98.8307 131.108 98.6814 131.876 98.3828C132.644 98.0841 133.327 97.6147 133.924 96.9747L136.068 99.4388C135.3 100.335 134.329 101.028 133.156 101.519C132.004 101.988 130.681 102.223 129.188 102.223Z" fill="white"/>
<path d="M109.084 102V87.3441L110.012 88.3041H103.068V84.9121H119.068V88.3041H112.156L113.084 87.3441V102H109.084Z" fill="white"/>
<path d="M83.5635 102V84.9121H87.5635V91.8561H96.1715V84.9121H100.171V102H96.1715V95.2481H87.5635V102H83.5635Z" fill="white"/>
<path d="M70.4923 102.223C68.743 102.223 67.1856 101.849 65.8203 101.103C64.455 100.335 63.3776 99.2894 62.5883 97.9668C61.799 96.6441 61.4043 95.1401 61.4043 93.4548C61.4043 91.7481 61.799 90.2441 62.5883 88.9427C63.3776 87.6201 64.455 86.5854 65.8203 85.8387C67.1856 85.0921 68.743 84.7188 70.4923 84.7188C72.263 84.7188 73.831 85.0921 75.1963 85.8387C76.583 86.5854 77.6603 87.6094 78.4283 88.9108C79.2176 90.2121 79.6123 91.7267 79.6123 93.4548C79.6123 95.1401 79.2176 96.6441 78.4283 97.9668C77.6603 99.2894 76.583 100.335 75.1963 101.103C73.831 101.849 72.263 102.223 70.4923 102.223ZM70.4923 98.7988C71.4736 98.7988 72.3483 98.5854 73.1163 98.1588C73.8843 97.7321 74.4816 97.1134 74.9083 96.3027C75.3563 95.4921 75.5803 94.5428 75.5803 93.4548C75.5803 92.3454 75.3563 91.3961 74.9083 90.6068C74.4816 89.7961 73.8843 89.1774 73.1163 88.7507C72.3483 88.3241 71.4843 88.1107 70.5243 88.1107C69.543 88.1107 68.6683 88.3241 67.9003 88.7507C67.1536 89.1774 66.5563 89.7961 66.1083 90.6068C65.6603 91.3961 65.4363 92.3454 65.4363 93.4548C65.4363 94.5428 65.6603 95.4921 66.1083 96.3027C66.5563 97.1134 67.1536 97.7321 67.9003 98.1588C68.6683 98.5854 69.5323 98.7988 70.4923 98.7988Z" fill="white"/>
<path d="M39.5049 101.968L39.6969 98.6081C39.8462 98.6294 39.9849 98.6508 40.1129 98.6721C40.2409 98.6934 40.3582 98.7041 40.4649 98.7041C41.1262 98.7041 41.6382 98.5014 42.0009 98.0961C42.3635 97.6908 42.6302 97.1468 42.8009 96.4641C42.9929 95.7601 43.1209 94.9814 43.1849 94.1281C43.2702 93.2534 43.3342 92.3788 43.3769 91.5041L43.6649 84.9121H57.4889V102H53.4889V87.2161L54.4169 88.3041H46.2889L47.1529 87.1841L46.9289 91.6961C46.8649 93.2108 46.7369 94.6188 46.5449 95.9201C46.3742 97.2001 46.0969 98.3201 45.7129 99.2801C45.3502 100.24 44.8382 100.987 44.1769 101.52C43.5369 102.053 42.7155 102.32 41.7129 102.32C41.3929 102.32 41.0409 102.288 40.6569 102.224C40.2942 102.16 39.9102 102.075 39.5049 101.968Z" fill="white"/>
<path d="M29.1173 102.223C27.368 102.223 25.8106 101.849 24.4453 101.103C23.08 100.335 22.0026 99.2894 21.2133 97.9668C20.424 96.6441 20.0293 95.1401 20.0293 93.4548C20.0293 91.7481 20.424 90.2441 21.2133 88.9427C22.0026 87.6201 23.08 86.5854 24.4453 85.8387C25.8106 85.0921 27.368 84.7188 29.1173 84.7188C30.888 84.7188 32.456 85.0921 33.8213 85.8387C35.208 86.5854 36.2853 87.6094 37.0533 88.9108C37.8426 90.2121 38.2373 91.7267 38.2373 93.4548C38.2373 95.1401 37.8426 96.6441 37.0533 97.9668C36.2853 99.2894 35.208 100.335 33.8213 101.103C32.456 101.849 30.888 102.223 29.1173 102.223ZM29.1173 98.7988C30.0986 98.7988 30.9733 98.5854 31.7413 98.1588C32.5093 97.7321 33.1066 97.1134 33.5333 96.3027C33.9813 95.4921 34.2053 94.5428 34.2053 93.4548C34.2053 92.3454 33.9813 91.3961 33.5333 90.6068C33.1066 89.7961 32.5093 89.1774 31.7413 88.7507C30.9733 88.3241 30.1093 88.1107 29.1493 88.1107C28.168 88.1107 27.2933 88.3241 26.5253 88.7507C25.7786 89.1774 25.1813 89.7961 24.7333 90.6068C24.2853 91.3961 24.0613 92.3454 24.0613 93.4548C24.0613 94.5428 24.2853 95.4921 24.7333 96.3027C25.1813 97.1134 25.7786 97.7321 26.5253 98.1588C27.2933 98.5854 28.1573 98.7988 29.1173 98.7988Z" fill="white"/>
<path d="M1.68848 102V84.9121H10.0405C12.1098 84.9121 13.7311 85.2961 14.9045 86.0641C16.0991 86.8321 16.6965 87.9201 16.6965 89.3281C16.6965 90.7148 16.1418 91.8028 15.0325 92.5921C13.9231 93.3601 12.4511 93.7441 10.6165 93.7441L11.0965 92.7521C13.1658 92.7521 14.7018 93.1361 15.7045 93.9041C16.7285 94.6508 17.2405 95.7494 17.2405 97.2001C17.2405 98.7148 16.6751 99.8988 15.5445 100.752C14.4138 101.584 12.6965 102 10.3925 102H1.68848ZM5.49648 99.0881H10.0725C11.1605 99.0881 11.9818 98.9174 12.5365 98.5761C13.0911 98.2134 13.3685 97.6694 13.3685 96.9441C13.3685 96.1761 13.1125 95.6108 12.6005 95.2481C12.0885 94.8854 11.2885 94.7041 10.2005 94.7041H5.49648V99.0881ZM5.49648 92.0481H9.68848C10.7125 92.0481 11.4805 91.8668 11.9925 91.5041C12.5258 91.1201 12.7925 90.5868 12.7925 89.9041C12.7925 89.2001 12.5258 88.6774 11.9925 88.3361C11.4805 87.9948 10.7125 87.8241 9.68848 87.8241H5.49648V92.0481Z" fill="white"/>
<path d="M415.438 63.0001V45.9121H419.63L426.51 58.0401H424.846L432.078 45.9121H435.822L435.854 63.0001H432.238V50.2001L432.878 50.6161L426.478 61.2081H424.75L418.318 50.3281L419.086 50.1361V63.0001H415.438Z" fill="white"/>
<path d="M406.061 63.0001V45.9121H410.061V63.0001H406.061ZM397.133 51.5441C399.331 51.5441 400.995 52.0348 402.125 53.0161C403.277 53.9974 403.853 55.3841 403.853 57.1761C403.853 59.0321 403.214 60.4828 401.934 61.5281C400.675 62.5521 398.883 63.0534 396.557 63.0321L388.813 63.0001V45.9121H392.813V51.5121L397.133 51.5441ZM396.205 60.0881C397.379 60.1094 398.275 59.8641 398.893 59.3521C399.512 58.8401 399.822 58.0934 399.822 57.1121C399.822 56.1308 399.512 55.4268 398.893 55.0001C398.296 54.5521 397.4 54.3174 396.205 54.2961L392.813 54.2641V60.0561L396.205 60.0881Z" fill="white"/>
<path d="M378.714 61.1441V49.3041H372.154L372.058 52.0561C372.015 53.0374 371.951 53.9868 371.866 54.9041C371.78 55.8001 371.642 56.6321 371.45 57.4001C371.258 58.1468 370.98 58.7654 370.618 59.2561C370.255 59.7468 369.775 60.0668 369.178 60.2161L365.21 59.6081C365.85 59.6081 366.362 59.4054 366.746 59.0001C367.151 58.5734 367.46 57.9974 367.674 57.2721C367.908 56.5254 368.079 55.6828 368.186 54.7441C368.292 53.7841 368.367 52.7921 368.41 51.7681L368.634 45.9121H382.714V61.1441H378.714ZM364.602 66.8081V59.6081H385.242V66.8081H381.498V63.0001H368.314V66.8081H364.602Z" fill="white"/>
<path d="M359.261 63.0001L354.269 54.8081L357.533 52.7921L364.029 63.0001H359.261ZM351.037 56.1521V52.8241H356.765V56.1521H351.037ZM357.917 54.9361L354.141 54.4881L359.325 45.9121H363.581L357.917 54.9361ZM341.213 63.0001H336.477L342.941 52.7921L346.205 54.8081L341.213 63.0001ZM352.221 63.0001H348.253V45.9121H352.221V63.0001ZM349.437 56.1521H343.741V52.8241H349.437V56.1521ZM342.557 54.9361L336.893 45.9121H341.149L346.301 54.4881L342.557 54.9361Z" fill="white"/>
<path d="M330.15 62.9987V59.5427L329.926 58.8067V52.7588C329.926 51.5854 329.574 50.6787 328.87 50.0387C328.166 49.3774 327.1 49.0467 325.67 49.0467C324.71 49.0467 323.761 49.1961 322.822 49.4947C321.905 49.7934 321.126 50.2094 320.486 50.7427L318.918 47.8307C319.836 47.1267 320.924 46.6041 322.182 46.2627C323.462 45.9001 324.785 45.7188 326.15 45.7188C328.625 45.7188 330.534 46.3161 331.878 47.5107C333.244 48.6841 333.926 50.5081 333.926 52.9827V62.9987H330.15ZM324.774 63.2227C323.494 63.2227 322.374 63.0094 321.414 62.5827C320.454 62.1347 319.708 61.5268 319.174 60.7588C318.662 59.9694 318.406 59.0841 318.406 58.1027C318.406 57.1427 318.63 56.2787 319.078 55.5107C319.548 54.7428 320.305 54.1348 321.35 53.6868C322.396 53.2388 323.782 53.0147 325.51 53.0147H330.47V55.6707H325.798C324.433 55.6707 323.516 55.8948 323.046 56.3428C322.577 56.7694 322.342 57.3027 322.342 57.9427C322.342 58.6681 322.63 59.2441 323.206 59.6707C323.782 60.0974 324.582 60.3107 325.606 60.3107C326.588 60.3107 327.462 60.0867 328.23 59.6387C329.02 59.1907 329.585 58.5294 329.926 57.6547L330.598 60.0547C330.214 61.0574 329.521 61.8361 328.518 62.3907C327.537 62.9454 326.289 63.2227 324.774 63.2227Z" fill="white"/>
<path d="M312.569 63.0001L306.393 54.8081L309.658 52.7921L317.273 63.0001H312.569ZM300.313 63.0001V45.9121H304.313V63.0001H300.313ZM303.129 56.1521V52.8241H308.921V56.1521H303.129ZM310.042 54.9361L306.297 54.4881L312.569 45.9121H316.857L310.042 54.9361Z" fill="white"/>
<path d="M280.652 63.2227C278.86 63.2227 277.26 62.8494 275.852 62.1027C274.466 61.3347 273.378 60.2894 272.588 58.9668C271.799 57.6441 271.404 56.1401 271.404 54.4548C271.404 52.7481 271.799 51.2441 272.588 49.9427C273.378 48.6201 274.466 47.5854 275.852 46.8387C277.26 46.0921 278.86 45.7188 280.652 45.7188C282.316 45.7188 283.778 46.0601 285.036 46.7427C286.316 47.4041 287.287 48.3854 287.948 49.6867L284.876 51.4787C284.364 50.6681 283.735 50.0707 282.988 49.6867C282.263 49.3027 281.474 49.1107 280.62 49.1107C279.639 49.1107 278.754 49.3241 277.964 49.7507C277.175 50.1774 276.556 50.7961 276.108 51.6068C275.66 52.3961 275.436 53.3454 275.436 54.4548C275.436 55.5641 275.66 56.5241 276.108 57.3347C276.556 58.1241 277.175 58.7321 277.964 59.1588C278.754 59.5854 279.639 59.7988 280.62 59.7988C281.474 59.7988 282.263 59.6067 282.988 59.2227C283.735 58.8387 284.364 58.2414 284.876 57.4307L287.948 59.2227C287.287 60.5027 286.316 61.4947 285.036 62.1987C283.778 62.8814 282.316 63.2227 280.652 63.2227Z" fill="white"/>
<path d="M255.068 63.0001V57.1761L255.644 57.8481H250.524C248.178 57.8481 246.332 57.3574 244.988 56.3761C243.666 55.3734 243.004 53.9334 243.004 52.0561C243.004 50.0508 243.708 48.5254 245.116 47.4801C246.546 46.4348 248.444 45.9121 250.812 45.9121H258.652V63.0001H255.068ZM242.78 63.0001L247.388 56.4721H251.484L247.068 63.0001H242.78ZM255.068 55.8961V48.2161L255.644 49.2721H250.94C249.703 49.2721 248.743 49.5068 248.06 49.9761C247.399 50.4241 247.068 51.1601 247.068 52.1841C247.068 54.1041 248.316 55.0641 250.812 55.0641H255.644L255.068 55.8961Z" fill="white"/>
<path d="M233.871 63.2227C232.079 63.2227 230.479 62.8494 229.071 62.1027C227.684 61.3347 226.596 60.2894 225.807 58.9668C225.018 57.6441 224.623 56.1401 224.623 54.4548C224.623 52.7481 225.018 51.2441 225.807 49.9427C226.596 48.6201 227.684 47.5854 229.071 46.8387C230.479 46.0921 232.079 45.7188 233.871 45.7188C235.535 45.7188 236.996 46.0601 238.255 46.7427C239.535 47.4041 240.506 48.3854 241.167 49.6867L238.095 51.4787C237.583 50.6681 236.954 50.0707 236.207 49.6867C235.482 49.3027 234.692 49.1107 233.839 49.1107C232.858 49.1107 231.972 49.3241 231.183 49.7507C230.394 50.1774 229.775 50.7961 229.327 51.6068C228.879 52.3961 228.655 53.3454 228.655 54.4548C228.655 55.5641 228.879 56.5241 229.327 57.3347C229.775 58.1241 230.394 58.7321 231.183 59.1588C231.972 59.5854 232.858 59.7988 233.839 59.7988C234.692 59.7988 235.482 59.6067 236.207 59.2227C236.954 58.8387 237.583 58.2414 238.095 57.4307L241.167 59.2227C240.506 60.5027 239.535 61.4947 238.255 62.1987C236.996 62.8814 235.535 63.2227 233.871 63.2227Z" fill="white"/>
<path d="M215.827 51.5441C218.024 51.5441 219.699 52.0348 220.851 53.0161C222.003 53.9974 222.579 55.3841 222.579 57.1761C222.579 59.0321 221.939 60.4828 220.659 61.5281C219.379 62.5521 217.576 63.0534 215.251 63.0321L207.251 63.0001V45.9121H211.251V51.5121L215.827 51.5441ZM214.899 60.0881C216.072 60.1094 216.968 59.8641 217.587 59.3521C218.206 58.8401 218.515 58.0934 218.515 57.1121C218.515 56.1308 218.206 55.4268 217.587 55.0001C216.99 54.5521 216.094 54.3174 214.899 54.2961L211.251 54.2641V60.0561L214.899 60.0881Z" fill="white"/>
<path d="M194.366 63.0001V48.3441L195.294 49.3041H188.35V45.9121H204.35V49.3041H197.438L198.366 48.3441V63.0001H194.366Z" fill="white"/>
<path d="M168.345 63.0001V45.9121H172.345V57.1761L181.785 45.9121H185.433V63.0001H181.433V51.7361L172.025 63.0001H168.345Z" fill="white"/>
<path d="M142.563 63.0001V45.9121H146.755L153.635 58.0401H151.971L159.203 45.9121H162.947L162.979 63.0001H159.363V50.2001L160.003 50.6161L153.603 61.2081H151.875L145.443 50.3281L146.211 50.1361V63.0001H142.563Z" fill="white"/>
<path d="M129.492 63.2227C127.743 63.2227 126.186 62.8494 124.82 62.1027C123.455 61.3347 122.378 60.2894 121.588 58.9668C120.799 57.6441 120.404 56.1401 120.404 54.4548C120.404 52.7481 120.799 51.2441 121.588 49.9427C122.378 48.6201 123.455 47.5854 124.82 46.8387C126.186 46.0921 127.743 45.7188 129.492 45.7188C131.263 45.7188 132.831 46.0921 134.196 46.8387C135.583 47.5854 136.66 48.6094 137.428 49.9107C138.218 51.2121 138.612 52.7267 138.612 54.4548C138.612 56.1401 138.218 57.6441 137.428 58.9668C136.66 60.2894 135.583 61.3347 134.196 62.1027C132.831 62.8494 131.263 63.2227 129.492 63.2227ZM129.492 59.7988C130.474 59.7988 131.348 59.5854 132.116 59.1588C132.884 58.7321 133.482 58.1134 133.908 57.3027C134.356 56.4921 134.58 55.5428 134.58 54.4548C134.58 53.3454 134.356 52.3961 133.908 51.6068C133.482 50.7961 132.884 50.1774 132.116 49.7507C131.348 49.3241 130.484 49.1107 129.524 49.1107C128.543 49.1107 127.668 49.3241 126.9 49.7507C126.154 50.1774 125.556 50.7961 125.108 51.6068C124.66 52.3961 124.436 53.3454 124.436 54.4548C124.436 55.5428 124.66 56.4921 125.108 57.3027C125.556 58.1134 126.154 58.7321 126.9 59.1588C127.668 59.5854 128.532 59.7988 129.492 59.7988Z" fill="white"/>
<path d="M114.913 63.0001L108.737 54.8081L112.001 52.7921L119.617 63.0001H114.913ZM102.657 63.0001V45.9121H106.657V63.0001H102.657ZM105.473 56.1521V52.8241H111.265V56.1521H105.473ZM112.385 54.9361L108.641 54.4881L114.913 45.9121H119.201L112.385 54.9361Z" fill="white"/>
<path d="M93.9315 62.9987V59.5427L93.7075 58.8067V52.7588C93.7075 51.5854 93.3555 50.6787 92.6515 50.0387C91.9475 49.3774 90.8808 49.0467 89.4515 49.0467C88.4915 49.0467 87.5422 49.1961 86.6035 49.4947C85.6862 49.7934 84.9075 50.2094 84.2675 50.7427L82.6995 47.8307C83.6168 47.1267 84.7048 46.6041 85.9635 46.2627C87.2435 45.9001 88.5662 45.7188 89.9315 45.7188C92.4062 45.7188 94.3155 46.3161 95.6595 47.5107C97.0248 48.6841 97.7075 50.5081 97.7075 52.9827V62.9987H93.9315ZM88.5555 63.2227C87.2755 63.2227 86.1555 63.0094 85.1955 62.5827C84.2355 62.1347 83.4888 61.5268 82.9555 60.7588C82.4435 59.9694 82.1875 59.0841 82.1875 58.1027C82.1875 57.1427 82.4115 56.2787 82.8595 55.5107C83.3288 54.7428 84.0862 54.1348 85.1315 53.6868C86.1768 53.2388 87.5635 53.0147 89.2915 53.0147H94.2515V55.6707H89.5795C88.2142 55.6707 87.2968 55.8948 86.8275 56.3428C86.3582 56.7694 86.1235 57.3027 86.1235 57.9427C86.1235 58.6681 86.4115 59.2441 86.9875 59.6707C87.5635 60.0974 88.3635 60.3107 89.3875 60.3107C90.3688 60.3107 91.2435 60.0867 92.0115 59.6387C92.8008 59.1907 93.3662 58.5294 93.7075 57.6547L94.3795 60.0547C93.9955 61.0574 93.3022 61.8361 92.2995 62.3907C91.3182 62.9454 90.0702 63.2227 88.5555 63.2227Z" fill="white"/>
<path d="M61.5947 63.0001V45.9121H65.5947V52.8561H74.2027V45.9121H78.2027V63.0001H74.2027V56.2481H65.5947V63.0001H61.5947Z" fill="white"/>
<path d="M49.3155 63.2863C48.0142 63.2863 46.7235 63.137 45.4435 62.8383C44.1849 62.5183 43.0435 62.0703 42.0195 61.4943L43.1395 58.5183C43.9715 58.9877 44.9102 59.3503 45.9555 59.6063C47.0009 59.8623 48.0462 59.9903 49.0915 59.9903C49.9875 59.9903 50.7555 59.905 51.3955 59.7343C52.0355 59.5423 52.5262 59.265 52.8675 58.9023C53.2302 58.5397 53.4115 58.1237 53.4115 57.6543C53.4115 56.9717 53.1129 56.4597 52.5155 56.1183C51.9395 55.7557 51.1075 55.5743 50.0195 55.5743H46.7235V52.8863H49.6995C50.3822 52.8863 50.9582 52.8117 51.4275 52.6623C51.9182 52.513 52.2915 52.289 52.5475 51.9903C52.8035 51.6917 52.9315 51.3397 52.9315 50.9343C52.9315 50.529 52.7715 50.177 52.4515 49.8783C52.1529 49.5583 51.7155 49.3237 51.1395 49.1743C50.5635 49.0037 49.8702 48.9183 49.0595 48.9183C48.2062 48.9183 47.3209 49.025 46.4035 49.2383C45.5075 49.4517 44.5902 49.761 43.6515 50.1663L42.6275 47.2223C43.7155 46.7317 44.7715 46.3583 45.7955 46.1023C46.8409 45.825 47.8755 45.6757 48.8995 45.6543C50.4569 45.5903 51.8435 45.7503 53.0595 46.1343C54.2755 46.5183 55.2355 47.073 55.9395 47.7983C56.6435 48.5237 56.9955 49.377 56.9955 50.3583C56.9955 51.169 56.7395 51.905 56.2275 52.5663C55.7369 53.2063 55.0542 53.7077 54.1795 54.0703C53.3262 54.433 52.3449 54.6143 51.2355 54.6143L51.3635 53.7503C53.2622 53.7503 54.7555 54.1343 55.8435 54.9023C56.9315 55.649 57.4755 56.673 57.4755 57.9743C57.4755 59.0197 57.1235 59.9477 56.4195 60.7583C55.7155 61.5477 54.7449 62.1663 53.5075 62.6143C52.2915 63.0623 50.8942 63.2863 49.3155 63.2863Z" fill="white"/>
<path d="M31.086 63.2227C29.3367 63.2227 27.7794 62.8494 26.414 62.1027C25.0487 61.3347 23.9714 60.2894 23.182 58.9668C22.3927 57.6441 21.998 56.1401 21.998 54.4548C21.998 52.7481 22.3927 51.2441 23.182 49.9427C23.9714 48.6201 25.0487 47.5854 26.414 46.8387C27.7794 46.0921 29.3367 45.7188 31.086 45.7188C32.8567 45.7188 34.4247 46.0921 35.79 46.8387C37.1767 47.5854 38.254 48.6094 39.022 49.9107C39.8114 51.2121 40.2061 52.7267 40.2061 54.4548C40.2061 56.1401 39.8114 57.6441 39.022 58.9668C38.254 60.2894 37.1767 61.3347 35.79 62.1027C34.4247 62.8494 32.8567 63.2227 31.086 63.2227ZM31.086 59.7988C32.0674 59.7988 32.942 59.5854 33.71 59.1588C34.478 58.7321 35.0754 58.1134 35.502 57.3027C35.95 56.4921 36.174 55.5428 36.174 54.4548C36.174 53.3454 35.95 52.3961 35.502 51.6068C35.0754 50.7961 34.478 50.1774 33.71 49.7507C32.942 49.3241 32.078 49.1107 31.118 49.1107C30.1367 49.1107 29.262 49.3241 28.494 49.7507C27.7474 50.1774 27.15 50.7961 26.702 51.6068C26.254 52.3961 26.03 53.3454 26.03 54.4548C26.03 55.5428 26.254 56.4921 26.702 57.3027C27.15 58.1134 27.7474 58.7321 28.494 59.1588C29.262 59.5854 30.126 59.7988 31.086 59.7988Z" fill="white"/>
<path d="M1.68848 63.0001V45.9121H18.0725V63.0001H14.1045V48.3761L15.0325 49.3041H4.76048L5.68848 48.3761V63.0001H1.68848Z" fill="white"/>
<path d="M571.296 12.5441C573.493 12.5441 575.168 13.0348 576.32 14.0161C577.472 14.9974 578.048 16.3841 578.048 18.1761C578.048 20.0321 577.408 21.4828 576.128 22.5281C574.848 23.5521 573.045 24.0534 570.72 24.0321L562.72 24.0001V6.91211H566.72V12.5121L571.296 12.5441ZM570.368 21.0881C571.541 21.1094 572.437 20.8641 573.056 20.3521C573.674 19.8401 573.984 19.0934 573.984 18.1121C573.984 17.1308 573.674 16.4268 573.056 16.0001C572.458 15.5521 571.562 15.3174 570.368 15.2961L566.72 15.2641V21.0561L570.368 21.0881Z" fill="white"/>
<path d="M549.834 24.0001V9.34411L550.762 10.3041H543.818V6.91211H559.818V10.3041H552.906L553.834 9.34411V24.0001H549.834Z" fill="white"/>
<path d="M535.59 24.2227C533.798 24.2227 532.198 23.8494 530.79 23.1028C529.403 22.3348 528.315 21.2894 527.526 19.9668C526.736 18.6441 526.342 17.1401 526.342 15.4548C526.342 13.7481 526.736 12.2441 527.526 10.9428C528.315 9.62008 529.403 8.58542 530.79 7.83875C532.198 7.09208 533.798 6.71875 535.59 6.71875C537.254 6.71875 538.715 7.06008 539.974 7.74275C541.254 8.40408 542.224 9.38542 542.886 10.6868L539.814 12.4788C539.302 11.6681 538.672 11.0707 537.926 10.6868C537.2 10.3028 536.411 10.1108 535.558 10.1108C534.576 10.1108 533.691 10.3241 532.902 10.7507C532.112 11.1774 531.494 11.7961 531.046 12.6068C530.598 13.3961 530.374 14.3454 530.374 15.4548C530.374 16.5641 530.598 17.5241 531.046 18.3348C531.494 19.1241 532.112 19.7321 532.902 20.1588C533.691 20.5854 534.576 20.7987 535.558 20.7987C536.411 20.7987 537.2 20.6067 537.926 20.2227C538.672 19.8387 539.302 19.2414 539.814 18.4307L542.886 20.2227C542.224 21.5027 541.254 22.4948 539.974 23.1988C538.715 23.8814 537.254 24.2227 535.59 24.2227Z" fill="white"/>
<path d="M514.742 24.2227C512.993 24.2227 511.436 23.8494 510.07 23.1028C508.705 22.3348 507.628 21.2894 506.838 19.9668C506.049 18.6441 505.654 17.1401 505.654 15.4548C505.654 13.7481 506.049 12.2441 506.838 10.9428C507.628 9.62008 508.705 8.58542 510.07 7.83875C511.436 7.09208 512.993 6.71875 514.742 6.71875C516.513 6.71875 518.081 7.09208 519.446 7.83875C520.833 8.58542 521.91 9.60942 522.678 10.9107C523.468 12.2121 523.862 13.7267 523.862 15.4548C523.862 17.1401 523.468 18.6441 522.678 19.9668C521.91 21.2894 520.833 22.3348 519.446 23.1028C518.081 23.8494 516.513 24.2227 514.742 24.2227ZM514.742 20.7987C515.724 20.7987 516.598 20.5854 517.366 20.1588C518.134 19.7321 518.732 19.1134 519.158 18.3028C519.606 17.4921 519.83 16.5428 519.83 15.4548C519.83 14.3454 519.606 13.3961 519.158 12.6068C518.732 11.7961 518.134 11.1774 517.366 10.7507C516.598 10.3241 515.734 10.1108 514.774 10.1108C513.793 10.1108 512.918 10.3241 512.15 10.7507C511.404 11.1774 510.806 11.7961 510.358 12.6068C509.91 13.3961 509.686 14.3454 509.686 15.4548C509.686 16.5428 509.91 17.4921 510.358 18.3028C510.806 19.1134 511.404 19.7321 512.15 20.1588C512.918 20.5854 513.782 20.7987 514.742 20.7987Z" fill="white"/>
<path d="M485.157 24.0001V6.91211H489.157V13.8561H497.765V6.91211H501.765V24.0001H497.765V17.2481H489.157V24.0001H485.157Z" fill="white"/>
<path d="M477.417 24.0001L472.425 15.8081L475.689 13.7921L482.185 24.0001H477.417ZM469.193 17.1521V13.8241H474.921V17.1521H469.193ZM476.073 15.9361L472.297 15.4881L477.481 6.91211H481.737L476.073 15.9361ZM459.369 24.0001H454.633L461.097 13.7921L464.361 15.8081L459.369 24.0001ZM470.377 24.0001H466.409V6.91211H470.377V24.0001ZM467.593 17.1521H461.897V13.8241H467.593V17.1521ZM460.713 15.9361L455.049 6.91211H459.305L464.457 15.4881L460.713 15.9361Z" fill="white"/>
<path d="M444.524 24.2227C442.774 24.2227 441.217 23.8494 439.852 23.1028C438.486 22.3348 437.409 21.2894 436.62 19.9668C435.83 18.6441 435.436 17.1401 435.436 15.4548C435.436 13.7481 435.83 12.2441 436.62 10.9428C437.409 9.62008 438.486 8.58542 439.852 7.83875C441.217 7.09208 442.774 6.71875 444.524 6.71875C446.294 6.71875 447.862 7.09208 449.228 7.83875C450.614 8.58542 451.692 9.60942 452.46 10.9107C453.249 12.2121 453.644 13.7267 453.644 15.4548C453.644 17.1401 453.249 18.6441 452.46 19.9668C451.692 21.2894 450.614 22.3348 449.228 23.1028C447.862 23.8494 446.294 24.2227 444.524 24.2227ZM444.524 20.7987C445.505 20.7987 446.38 20.5854 447.148 20.1588C447.916 19.7321 448.513 19.1134 448.94 18.3028C449.388 17.4921 449.612 16.5428 449.612 15.4548C449.612 14.3454 449.388 13.3961 448.94 12.6068C448.513 11.7961 447.916 11.1774 447.148 10.7507C446.38 10.3241 445.516 10.1108 444.556 10.1108C443.574 10.1108 442.7 10.3241 441.932 10.7507C441.185 11.1774 440.588 11.7961 440.14 12.6068C439.692 13.3961 439.468 14.3454 439.468 15.4548C439.468 16.5428 439.692 17.4921 440.14 18.3028C440.588 19.1134 441.185 19.7321 441.932 20.1588C442.7 20.5854 443.564 20.7987 444.524 20.7987Z" fill="white"/>
<path d="M411.126 24.0001V6.91211H415.318L422.198 19.0401H420.534L427.766 6.91211H431.51L431.542 24.0001H427.926V11.2001L428.566 11.6161L422.166 22.2081H420.438L414.006 11.3281L414.774 11.1361V24.0001H411.126Z" fill="white"/>
<path d="M398.847 24.2863C397.545 24.2863 396.255 24.137 394.975 23.8383C393.716 23.5183 392.575 23.0703 391.551 22.4943L392.671 19.5183C393.503 19.9877 394.441 20.3503 395.487 20.6063C396.532 20.8623 397.577 20.9903 398.623 20.9903C399.519 20.9903 400.287 20.905 400.927 20.7343C401.567 20.5423 402.057 20.265 402.399 19.9023C402.761 19.5397 402.943 19.1237 402.943 18.6543C402.943 17.9717 402.644 17.4597 402.047 17.1183C401.471 16.7557 400.639 16.5743 399.551 16.5743H396.255V13.8863H399.231C399.913 13.8863 400.489 13.8117 400.959 13.6623C401.449 13.513 401.823 13.289 402.079 12.9903C402.335 12.6917 402.463 12.3397 402.463 11.9343C402.463 11.529 402.303 11.177 401.983 10.8783C401.684 10.5583 401.247 10.3237 400.671 10.1743C400.095 10.0037 399.401 9.91834 398.591 9.91834C397.737 9.91834 396.852 10.025 395.935 10.2383C395.039 10.4517 394.121 10.761 393.183 11.1663L392.159 8.22234C393.247 7.73167 394.303 7.35834 395.327 7.10234C396.372 6.82501 397.407 6.67567 398.431 6.65434C399.988 6.59034 401.375 6.75034 402.591 7.13434C403.807 7.51834 404.767 8.07301 405.471 8.79834C406.175 9.52367 406.527 10.377 406.527 11.3583C406.527 12.169 406.271 12.905 405.759 13.5663C405.268 14.2063 404.585 14.7077 403.711 15.0703C402.857 15.433 401.876 15.6143 400.767 15.6143L400.895 14.7503C402.793 14.7503 404.287 15.1343 405.375 15.9023C406.463 16.649 407.007 17.673 407.007 18.9743C407.007 20.0197 406.655 20.9477 405.951 21.7583C405.247 22.5477 404.276 23.1663 403.039 23.6143C401.823 24.0623 400.425 24.2863 398.847 24.2863Z" fill="white"/>
<path d="M380.617 24.2227C378.868 24.2227 377.311 23.8494 375.945 23.1028C374.58 22.3348 373.503 21.2894 372.713 19.9668C371.924 18.6441 371.529 17.1401 371.529 15.4548C371.529 13.7481 371.924 12.2441 372.713 10.9428C373.503 9.62008 374.58 8.58542 375.945 7.83875C377.311 7.09208 378.868 6.71875 380.617 6.71875C382.388 6.71875 383.956 7.09208 385.321 7.83875C386.708 8.58542 387.785 9.60942 388.553 10.9107C389.343 12.2121 389.737 13.7267 389.737 15.4548C389.737 17.1401 389.343 18.6441 388.553 19.9668C387.785 21.2894 386.708 22.3348 385.321 23.1028C383.956 23.8494 382.388 24.2227 380.617 24.2227ZM380.617 20.7987C381.599 20.7987 382.473 20.5854 383.241 20.1588C384.009 19.7321 384.607 19.1134 385.033 18.3028C385.481 17.4921 385.705 16.5428 385.705 15.4548C385.705 14.3454 385.481 13.3961 385.033 12.6068C384.607 11.7961 384.009 11.1774 383.241 10.7507C382.473 10.3241 381.609 10.1108 380.649 10.1108C379.668 10.1108 378.793 10.3241 378.025 10.7507C377.279 11.1774 376.681 11.7961 376.233 12.6068C375.785 13.3961 375.561 14.3454 375.561 15.4548C375.561 16.5428 375.785 17.4921 376.233 18.3028C376.681 19.1134 377.279 19.7321 378.025 20.1588C378.793 20.5854 379.657 20.7987 380.617 20.7987Z" fill="white"/>
<path d="M353.188 24.0001V6.91211H361.54C363.61 6.91211 365.231 7.29611 366.404 8.06411C367.599 8.83211 368.197 9.92011 368.197 11.3281C368.197 12.7148 367.642 13.8028 366.533 14.5921C365.423 15.3601 363.951 15.7441 362.116 15.7441L362.596 14.7521C364.666 14.7521 366.202 15.1361 367.204 15.9041C368.228 16.6508 368.74 17.7494 368.74 19.2001C368.74 20.7148 368.175 21.8988 367.044 22.7521C365.914 23.5841 364.196 24.0001 361.892 24.0001H353.188ZM356.996 21.0881H361.572C362.66 21.0881 363.482 20.9174 364.036 20.5761C364.591 20.2134 364.868 19.6694 364.868 18.9441C364.868 18.1761 364.612 17.6108 364.1 17.2481C363.588 16.8854 362.789 16.7041 361.701 16.7041H356.996V21.0881ZM356.996 14.0481H361.188C362.212 14.0481 362.98 13.8668 363.492 13.5041C364.026 13.1201 364.292 12.5868 364.292 11.9041C364.292 11.2001 364.026 10.6774 363.492 10.3361C362.98 9.99478 362.212 9.82411 361.188 9.82411H356.996V14.0481Z" fill="white"/>
<path d="M331.459 24.0001V9.34411L332.387 10.3041H325.443V6.91211H341.443V10.3041H334.531L335.459 9.34411V24.0001H331.459Z" fill="white"/>
<path d="M316.157 24.2227C314.258 24.2227 312.594 23.8494 311.165 23.1028C309.757 22.3348 308.658 21.2894 307.869 19.9668C307.101 18.6441 306.717 17.1401 306.717 15.4548C306.717 13.7481 307.09 12.2441 307.837 10.9428C308.605 9.62008 309.65 8.58542 310.973 7.83875C312.317 7.09208 313.842 6.71875 315.549 6.71875C317.213 6.71875 318.695 7.08142 319.997 7.80675C321.298 8.53208 322.322 9.55608 323.069 10.8787C323.815 12.2014 324.189 13.7588 324.189 15.5508C324.189 15.7214 324.178 15.9134 324.157 16.1268C324.157 16.3401 324.146 16.5428 324.125 16.7348H309.885V14.0788H322.013L320.445 14.9107C320.466 13.9294 320.263 13.0654 319.837 12.3188C319.41 11.5721 318.823 10.9854 318.077 10.5588C317.351 10.1321 316.509 9.91875 315.549 9.91875C314.567 9.91875 313.703 10.1321 312.957 10.5588C312.231 10.9854 311.655 11.5828 311.229 12.3507C310.823 13.0974 310.621 13.9827 310.621 15.0068V15.6467C310.621 16.6707 310.855 17.5774 311.325 18.3668C311.794 19.1561 312.455 19.7641 313.309 20.1908C314.162 20.6174 315.143 20.8308 316.253 20.8308C317.213 20.8308 318.077 20.6814 318.845 20.3827C319.613 20.0841 320.295 19.6148 320.893 18.9748L323.037 21.4387C322.269 22.3347 321.298 23.0281 320.125 23.5188C318.973 23.9881 317.65 24.2227 316.157 24.2227Z" fill="white"/>
<path d="M299.225 24.0001V18.1761L299.801 18.8481H294.681C292.334 18.8481 290.489 18.3574 289.145 17.3761C287.822 16.3734 287.161 14.9334 287.161 13.0561C287.161 11.0508 287.865 9.52544 289.273 8.48011C290.702 7.43478 292.601 6.91211 294.969 6.91211H302.809V24.0001H299.225ZM286.937 24.0001L291.545 17.4721H295.641L291.225 24.0001H286.937ZM299.225 16.8961V9.21611L299.801 10.2721H295.097C293.859 10.2721 292.899 10.5068 292.217 10.9761C291.555 11.4241 291.225 12.1601 291.225 13.1841C291.225 15.1041 292.473 16.0641 294.969 16.0641H299.801L299.225 16.8961Z" fill="white"/>
<path d="M265.005 23.9681L265.197 20.6081C265.346 20.6294 265.485 20.6508 265.613 20.6721C265.741 20.6934 265.858 20.7041 265.965 20.7041C266.626 20.7041 267.138 20.5014 267.501 20.0961C267.864 19.6908 268.13 19.1468 268.301 18.4641C268.493 17.7601 268.621 16.9814 268.685 16.1281C268.77 15.2534 268.834 14.3788 268.877 13.5041L269.165 6.91211H282.989V24.0001H278.989V9.21611L279.917 10.3041H271.789L272.653 9.18411L272.429 13.6961C272.365 15.2108 272.237 16.6188 272.045 17.9201C271.874 19.2001 271.597 20.3201 271.213 21.2801C270.85 22.2401 270.338 22.9868 269.677 23.5201C269.037 24.0534 268.216 24.3201 267.213 24.3201C266.893 24.3201 266.541 24.2881 266.157 24.2241C265.794 24.1601 265.41 24.0748 265.005 23.9681Z" fill="white"/>
<path d="M247.688 24.0001V6.91211H256.04C258.11 6.91211 259.731 7.29611 260.904 8.06411C262.099 8.83211 262.696 9.92011 262.696 11.3281C262.696 12.7148 262.142 13.8028 261.032 14.5921C259.923 15.3601 258.451 15.7441 256.616 15.7441L257.096 14.7521C259.166 14.7521 260.702 15.1361 261.704 15.9041C262.728 16.6508 263.24 17.7494 263.24 19.2001C263.24 20.7148 262.675 21.8988 261.544 22.7521C260.414 23.5841 258.696 24.0001 256.392 24.0001H247.688ZM251.496 21.0881H256.072C257.16 21.0881 257.982 20.9174 258.536 20.5761C259.091 20.2134 259.368 19.6694 259.368 18.9441C259.368 18.1761 259.112 17.6108 258.6 17.2481C258.088 16.8854 257.288 16.7041 256.2 16.7041H251.496V21.0881ZM251.496 14.0481H255.688C256.712 14.0481 257.48 13.8668 257.992 13.5041C258.526 13.1201 258.792 12.5868 258.792 11.9041C258.792 11.2001 258.526 10.6774 257.992 10.3361C257.48 9.99478 256.712 9.82411 255.688 9.82411H251.496V14.0481Z" fill="white"/>
<path d="M238.963 23.9988V20.5427L238.739 19.8067V13.7587C238.739 12.5854 238.387 11.6787 237.683 11.0387C236.979 10.3774 235.912 10.0468 234.483 10.0468C233.523 10.0468 232.573 10.1961 231.635 10.4947C230.717 10.7934 229.939 11.2094 229.299 11.7428L227.731 8.83075C228.648 8.12675 229.736 7.60408 230.995 7.26275C232.275 6.90008 233.597 6.71875 234.963 6.71875C237.437 6.71875 239.347 7.31608 240.691 8.51075C242.056 9.68408 242.739 11.5081 242.739 13.9827V23.9988H238.963ZM233.587 24.2227C232.307 24.2227 231.187 24.0094 230.227 23.5828C229.267 23.1348 228.52 22.5267 227.987 21.7587C227.475 20.9694 227.219 20.0841 227.219 19.1028C227.219 18.1428 227.443 17.2787 227.891 16.5107C228.36 15.7428 229.117 15.1348 230.163 14.6868C231.208 14.2388 232.595 14.0147 234.323 14.0147H239.283V16.6707H234.611C233.245 16.6707 232.328 16.8948 231.859 17.3428C231.389 17.7694 231.155 18.3028 231.155 18.9428C231.155 19.6681 231.443 20.2441 232.019 20.6708C232.595 21.0974 233.395 21.3108 234.419 21.3108C235.4 21.3108 236.275 21.0868 237.043 20.6388C237.832 20.1908 238.397 19.5294 238.739 18.6548L239.411 21.0548C239.027 22.0574 238.333 22.8361 237.331 23.3907C236.349 23.9454 235.101 24.2227 233.587 24.2227Z" fill="white"/>
<path d="M215.709 24.0001V9.34411L216.637 10.3041H209.693V6.91211H225.693V10.3041H218.781L219.709 9.34411V24.0001H215.709Z" fill="white"/>
<path d="M201.465 24.2227C199.673 24.2227 198.073 23.8494 196.665 23.1028C195.278 22.3348 194.19 21.2894 193.401 19.9668C192.611 18.6441 192.217 17.1401 192.217 15.4548C192.217 13.7481 192.611 12.2441 193.401 10.9428C194.19 9.62008 195.278 8.58542 196.665 7.83875C198.073 7.09208 199.673 6.71875 201.465 6.71875C203.129 6.71875 204.59 7.06008 205.849 7.74275C207.129 8.40408 208.099 9.38542 208.761 10.6868L205.689 12.4788C205.177 11.6681 204.547 11.0707 203.801 10.6868C203.075 10.3028 202.286 10.1108 201.433 10.1108C200.451 10.1108 199.566 10.3241 198.777 10.7507C197.987 11.1774 197.369 11.7961 196.921 12.6068C196.473 13.3961 196.249 14.3454 196.249 15.4548C196.249 16.5641 196.473 17.5241 196.921 18.3348C197.369 19.1241 197.987 19.7321 198.777 20.1588C199.566 20.5854 200.451 20.7987 201.433 20.7987C202.286 20.7987 203.075 20.6067 203.801 20.2227C204.547 19.8387 205.177 19.2414 205.689 18.4307L208.761 20.2227C208.099 21.5027 207.129 22.4948 205.849 23.1988C204.59 23.8814 203.129 24.2227 201.465 24.2227Z" fill="white"/>
<path d="M180.617 24.2227C178.868 24.2227 177.311 23.8494 175.945 23.1028C174.58 22.3348 173.503 21.2894 172.713 19.9668C171.924 18.6441 171.529 17.1401 171.529 15.4548C171.529 13.7481 171.924 12.2441 172.713 10.9428C173.503 9.62008 174.58 8.58542 175.945 7.83875C177.311 7.09208 178.868 6.71875 180.617 6.71875C182.388 6.71875 183.956 7.09208 185.321 7.83875C186.708 8.58542 187.785 9.60942 188.553 10.9107C189.343 12.2121 189.737 13.7267 189.737 15.4548C189.737 17.1401 189.343 18.6441 188.553 19.9668C187.785 21.2894 186.708 22.3348 185.321 23.1028C183.956 23.8494 182.388 24.2227 180.617 24.2227ZM180.617 20.7987C181.599 20.7987 182.473 20.5854 183.241 20.1588C184.009 19.7321 184.607 19.1134 185.033 18.3028C185.481 17.4921 185.705 16.5428 185.705 15.4548C185.705 14.3454 185.481 13.3961 185.033 12.6068C184.607 11.7961 184.009 11.1774 183.241 10.7507C182.473 10.3241 181.609 10.1108 180.649 10.1108C179.668 10.1108 178.793 10.3241 178.025 10.7507C177.279 11.1774 176.681 11.7961 176.233 12.6068C175.785 13.3961 175.561 14.3454 175.561 15.4548C175.561 16.5428 175.785 17.4921 176.233 18.3028C176.681 19.1134 177.279 19.7321 178.025 20.1588C178.793 20.5854 179.657 20.7987 180.617 20.7987Z" fill="white"/>
<path d="M162.901 22.1441V10.3041H156.341L156.245 13.0561C156.202 14.0374 156.138 14.9868 156.053 15.9041C155.968 16.8001 155.829 17.6321 155.637 18.4001C155.445 19.1468 155.168 19.7654 154.805 20.2561C154.442 20.7468 153.962 21.0668 153.365 21.2161L149.397 20.6081C150.037 20.6081 150.549 20.4054 150.933 20.0001C151.338 19.5734 151.648 18.9974 151.861 18.2721C152.096 17.5254 152.266 16.6828 152.373 15.7441C152.48 14.7841 152.554 13.7921 152.597 12.7681L152.821 6.91211H166.901V22.1441H162.901ZM148.789 27.8081V20.6081H169.429V27.8081H165.685V24.0001H152.501V27.8081H148.789Z" fill="white"/>
<path d="M139.001 24.2227C137.102 24.2227 135.438 23.8494 134.009 23.1028C132.601 22.3348 131.502 21.2894 130.713 19.9668C129.945 18.6441 129.561 17.1401 129.561 15.4548C129.561 13.7481 129.934 12.2441 130.681 10.9428C131.449 9.62008 132.494 8.58542 133.817 7.83875C135.161 7.09208 136.686 6.71875 138.393 6.71875C140.057 6.71875 141.539 7.08142 142.841 7.80675C144.142 8.53208 145.166 9.55608 145.913 10.8787C146.659 12.2014 147.033 13.7588 147.033 15.5508C147.033 15.7214 147.022 15.9134 147.001 16.1268C147.001 16.3401 146.99 16.5428 146.969 16.7348H132.729V14.0788H144.857L143.289 14.9107C143.31 13.9294 143.107 13.0654 142.681 12.3188C142.254 11.5721 141.667 10.9854 140.921 10.5588C140.195 10.1321 139.353 9.91875 138.393 9.91875C137.411 9.91875 136.547 10.1321 135.801 10.5588C135.075 10.9854 134.499 11.5828 134.073 12.3507C133.667 13.0974 133.465 13.9827 133.465 15.0068V15.6467C133.465 16.6707 133.699 17.5774 134.169 18.3668C134.638 19.1561 135.299 19.7641 136.153 20.1908C137.006 20.6174 137.987 20.8308 139.097 20.8308C140.057 20.8308 140.921 20.6814 141.689 20.3827C142.457 20.0841 143.139 19.6148 143.737 18.9748L145.881 21.4387C145.113 22.3347 144.142 23.0281 142.969 23.5188C141.817 23.9881 140.494 24.2227 139.001 24.2227Z" fill="white"/>
<path d="M118.379 24.2227C116.993 24.2227 115.723 23.9028 114.571 23.2628C113.441 22.6228 112.534 21.6627 111.851 20.3827C111.19 19.0814 110.859 17.4388 110.859 15.4548C110.859 13.4494 111.179 11.8068 111.819 10.5268C112.481 9.24675 113.377 8.29742 114.507 7.67875C115.638 7.03875 116.929 6.71875 118.379 6.71875C120.065 6.71875 121.547 7.08142 122.827 7.80675C124.129 8.53208 125.153 9.54542 125.899 10.8468C126.667 12.1481 127.051 13.6841 127.051 15.4548C127.051 17.2254 126.667 18.7721 125.899 20.0948C125.153 21.3961 124.129 22.4094 122.827 23.1348C121.547 23.8601 120.065 24.2227 118.379 24.2227ZM108.907 30.2068V6.91075H112.715V10.9428L112.587 15.4867L112.907 20.0308V30.2068H108.907ZM117.931 20.7987C118.891 20.7987 119.745 20.5854 120.491 20.1588C121.259 19.7321 121.867 19.1134 122.315 18.3028C122.763 17.4921 122.987 16.5428 122.987 15.4548C122.987 14.3454 122.763 13.3961 122.315 12.6068C121.867 11.7961 121.259 11.1774 120.491 10.7507C119.745 10.3241 118.891 10.1108 117.931 10.1108C116.971 10.1108 116.107 10.3241 115.339 10.7507C114.571 11.1774 113.963 11.7961 113.515 12.6068C113.067 13.3961 112.843 14.3454 112.843 15.4548C112.843 16.5428 113.067 17.4921 113.515 18.3028C113.963 19.1134 114.571 19.7321 115.339 20.1588C116.107 20.5854 116.971 20.7987 117.931 20.7987Z" fill="white"/>
<path d="M87.126 24.0001V6.91211H103.51V24.0001H99.542V9.37611L100.47 10.3041H90.198L91.126 9.37611V24.0001H87.126Z" fill="white"/>
<path d="M65.3969 24.0001V9.34411L66.3249 10.3041H59.3809V6.91211H75.3809V10.3041H68.4689L69.3969 9.34411V24.0001H65.3969Z" fill="white"/>
<path d="M39.376 23.9994V6.91141H43.376V18.1754L52.816 6.91141H56.464V23.9994H52.464V12.7354L43.056 23.9994H39.376ZM47.664 4.89541C45.9573 4.89541 44.6453 4.50074 43.728 3.71141C42.8106 2.90074 42.3413 1.72741 42.32 0.191406H44.976C44.9973 0.959407 45.232 1.56741 45.68 2.01541C46.1493 2.46341 46.8 2.68741 47.632 2.68741C48.4426 2.68741 49.0826 2.46341 49.552 2.01541C50.0426 1.56741 50.2986 0.959407 50.32 0.191406H53.04C53.0186 1.72741 52.5386 2.90074 51.6 3.71141C50.6826 4.50074 49.3706 4.89541 47.664 4.89541Z" fill="white"/>
<path d="M30.6502 23.9988V20.5427L30.4263 19.8067V13.7587C30.4263 12.5854 30.0743 11.6787 29.3703 11.0387C28.6663 10.3774 27.5996 10.0468 26.1702 10.0468C25.2102 10.0468 24.2609 10.1961 23.3223 10.4947C22.4049 10.7934 21.6263 11.2094 20.9862 11.7428L19.4182 8.83075C20.3356 8.12675 21.4236 7.60408 22.6823 7.26275C23.9623 6.90008 25.2849 6.71875 26.6502 6.71875C29.1249 6.71875 31.0343 7.31608 32.3783 8.51075C33.7436 9.68408 34.4263 11.5081 34.4263 13.9827V23.9988H30.6502ZM25.2743 24.2227C23.9942 24.2227 22.8742 24.0094 21.9142 23.5828C20.9542 23.1348 20.2076 22.5267 19.6742 21.7587C19.1622 20.9694 18.9062 20.0841 18.9062 19.1028C18.9062 18.1428 19.1302 17.2787 19.5782 16.5107C20.0476 15.7428 20.8049 15.1348 21.8503 14.6868C22.8956 14.2388 24.2822 14.0147 26.0103 14.0147H30.9702V16.6707H26.2983C24.9329 16.6707 24.0156 16.8948 23.5462 17.3428C23.0769 17.7694 22.8423 18.3028 22.8423 18.9428C22.8423 19.6681 23.1302 20.2441 23.7062 20.6708C24.2822 21.0974 25.0823 21.3108 26.1063 21.3108C27.0876 21.3108 27.9623 21.0868 28.7303 20.6388C29.5196 20.1908 30.0849 19.5294 30.4263 18.6548L31.0983 21.0548C30.7143 22.0574 30.0209 22.8361 29.0182 23.3907C28.0369 23.9454 26.7889 24.2227 25.2743 24.2227Z" fill="white"/>
<path d="M9.4648 24.2227C7.6728 24.2227 6.0728 23.8494 4.6648 23.1028C3.27813 22.3348 2.19013 21.2894 1.4008 19.9668C0.611464 18.6441 0.216797 17.1401 0.216797 15.4548C0.216797 13.7481 0.611464 12.2441 1.4008 10.9428C2.19013 9.62008 3.27813 8.58542 4.6648 7.83875C6.0728 7.09208 7.6728 6.71875 9.4648 6.71875C11.1288 6.71875 12.5901 7.06008 13.8488 7.74275C15.1288 8.40408 16.0995 9.38542 16.7608 10.6868L13.6888 12.4788C13.1768 11.6681 12.5475 11.0707 11.8008 10.6868C11.0755 10.3028 10.2861 10.1108 9.4328 10.1108C8.45146 10.1108 7.56613 10.3241 6.7768 10.7507C5.98746 11.1774 5.3688 11.7961 4.9208 12.6068C4.4728 13.3961 4.2488 14.3454 4.2488 15.4548C4.2488 16.5641 4.4728 17.5241 4.9208 18.3348C5.3688 19.1241 5.98746 19.7321 6.7768 20.1588C7.56613 20.5854 8.45146 20.7987 9.4328 20.7987C10.2861 20.7987 11.0755 20.6067 11.8008 20.2227C12.5475 19.8387 13.1768 19.2414 13.6888 18.4307L16.7608 20.2227C16.0995 21.5027 15.1288 22.4948 13.8488 23.1988C12.5901 23.8814 11.1288 24.2227 9.4648 24.2227Z" fill="white"/>
</svg>
