<svg width="466" height="170" viewBox="0 0 466 170" fill="none" xmlns="http://www.w3.org/2000/svg">
<path d="M253.981 165V144.854H259.786V165H253.981ZM243.833 151.294C246.479 151.319 248.464 151.919 249.787 153.092C251.135 154.24 251.809 155.876 251.809 157.998C251.809 160.219 251.048 161.954 249.525 163.203C248.002 164.426 245.843 165.038 243.047 165.038L233.235 165V144.854H239.04V151.294H243.833ZM242.522 160.881C243.646 160.906 244.507 160.669 245.106 160.169C245.705 159.67 246.005 158.921 246.005 157.923C246.005 156.924 245.705 156.213 245.106 155.788C244.507 155.339 243.646 155.102 242.522 155.077L239.04 155.039V160.881H242.522Z" fill="#F85F37"/>
<path d="M206.868 165V144.854H212.673V160.207H220.799V144.854H226.64V165H206.868ZM224.131 169.344V164.925L225.48 165H220.799V160.207H229.561V169.344H224.131Z" fill="#F85F37"/>
<path d="M180.282 165V144.854H186.087V156.837L195.898 144.854H201.253V165H195.448V153.017L185.675 165H180.282Z" fill="#F85F37"/>
<path d="M154.281 165V144.854H160.086V152.717H168.848V144.854H174.69V165H168.848V157.473H160.086V165H154.281Z" fill="#F85F37"/>
<path d="M142.505 151.294C145.151 151.319 147.161 151.919 148.534 153.092C149.932 154.24 150.631 155.876 150.631 157.998C150.631 160.219 149.844 161.954 148.271 163.203C146.699 164.426 144.514 165.038 141.718 165.038L131.607 165V144.854H137.412V151.294H142.505ZM141.194 160.881C142.317 160.906 143.179 160.669 143.778 160.169C144.377 159.67 144.677 158.921 144.677 157.923C144.677 156.924 144.377 156.213 143.778 155.788C143.179 155.339 142.317 155.102 141.194 155.077L137.412 155.039V160.881H141.194Z" fill="#F85F37"/>
<path d="M104.121 164.963L104.421 160.169C104.57 160.194 104.72 160.219 104.87 160.244C105.02 160.244 105.157 160.244 105.282 160.244C105.981 160.244 106.53 160.045 106.93 159.645C107.329 159.246 107.629 158.709 107.828 158.035C108.028 157.336 108.165 156.55 108.24 155.676C108.34 154.802 108.415 153.891 108.465 152.942L108.765 144.854H125.99V165H120.149V148.224L121.459 149.647H112.622L113.857 148.149L113.595 153.204C113.52 155.002 113.371 156.649 113.146 158.147C112.946 159.645 112.609 160.943 112.135 162.042C111.66 163.115 111.024 163.952 110.225 164.551C109.426 165.125 108.403 165.412 107.154 165.412C106.705 165.412 106.231 165.375 105.731 165.3C105.232 165.225 104.695 165.113 104.121 164.963Z" fill="#F85F37"/>
<path d="M92.636 165.301C90.3392 165.301 88.3171 164.851 86.5695 163.952C84.8469 163.054 83.5113 161.83 82.5627 160.283C81.614 158.71 81.1396 156.925 81.1396 154.928C81.1396 152.905 81.6015 151.12 82.5252 149.573C83.4739 148 84.7596 146.777 86.3823 145.903C88.005 145.004 89.8399 144.555 91.887 144.555C93.8593 144.555 95.6318 144.979 97.2046 145.828C98.8023 146.652 100.063 147.85 100.987 149.423C101.91 150.971 102.372 152.831 102.372 155.003C102.372 155.227 102.36 155.489 102.335 155.789C102.31 156.064 102.285 156.326 102.26 156.575H85.8955V153.168H99.1893L96.9424 154.179C96.9424 153.13 96.7302 152.219 96.3058 151.445C95.8814 150.671 95.2948 150.072 94.5458 149.648C93.7969 149.198 92.9231 148.973 91.9245 148.973C90.9259 148.973 90.0396 149.198 89.2657 149.648C88.5168 150.072 87.9301 150.684 87.5057 151.482C87.0813 152.256 86.8691 153.18 86.8691 154.254V155.152C86.8691 156.251 87.1063 157.224 87.5806 158.073C88.0799 158.897 88.7664 159.534 89.6402 159.983C90.5389 160.407 91.5875 160.62 92.7858 160.62C93.8593 160.62 94.7955 160.457 95.5943 160.133C96.4182 159.808 97.1671 159.321 97.8412 158.672L100.949 162.043C100.026 163.091 98.8647 163.902 97.4667 164.477C96.0687 165.026 94.4584 165.301 92.636 165.301Z" fill="#F85F37"/>
<path d="M67.8945 165V148.299L69.2052 149.647H61.0791V144.854H80.5143V149.647H72.3882L73.6989 148.299V165H67.8945Z" fill="#F85F37"/>
<path d="M37.002 165V144.854H42.8063V156.837L52.6175 144.854H57.9725V165H52.1681V153.017L42.3944 165H37.002Z" fill="#F85F37"/>
<path d="M27.0379 165L21.6829 155.451L26.4013 152.643L33.9657 165H27.0379ZM18.2378 157.361V152.68H25.2404V157.361H18.2378ZM27.0004 155.601L21.4957 155.002L27.3 144.854H33.4788L27.0004 155.601ZM7.1159 165H0.225586L7.7525 152.643L12.4709 155.451L7.1159 165ZM19.9603 165H14.1934V144.854H19.9603V165ZM15.916 157.361H8.95082V152.68H15.916V157.361ZM7.15335 155.601L0.674954 144.854H6.85377L12.6207 155.002L7.15335 155.601Z" fill="#F85F37"/>
<path d="M342.276 126.565C341.228 126.565 340.192 126.402 339.168 126.078C338.145 125.753 337.308 125.304 336.659 124.73L338.794 120.573C339.243 120.972 339.755 121.284 340.329 121.509C340.928 121.734 341.515 121.846 342.089 121.846C342.913 121.846 343.562 121.646 344.036 121.247C344.536 120.873 344.985 120.236 345.384 119.337L346.433 116.866L346.882 116.229L354.11 98.8535H359.727L350.627 120.236C349.978 121.859 349.229 123.132 348.38 124.056C347.556 124.979 346.633 125.628 345.609 126.003C344.611 126.377 343.5 126.565 342.276 126.565ZM345.721 119.787L336.734 98.8535H342.763L349.728 115.705L345.721 119.787Z" fill="#F85F37"/>
<path d="M323.699 119V102.299L325.01 103.647H316.884V98.8535H336.319V103.647H328.193L329.504 102.299V119H323.699Z" fill="#F85F37"/>
<path d="M308.354 111.286C307.531 111.735 306.619 112.097 305.621 112.372C304.622 112.647 303.524 112.784 302.325 112.784C299.679 112.784 297.644 112.185 296.221 110.986C294.798 109.763 294.087 107.828 294.087 105.182V98.8535H299.929V104.808C299.929 106.056 300.253 106.955 300.902 107.504C301.551 108.028 302.463 108.29 303.636 108.29C304.485 108.29 305.296 108.19 306.07 107.991C306.869 107.791 307.63 107.504 308.354 107.129V111.286ZM307.942 119V98.8535H313.784V119H307.942Z" fill="#F85F37"/>
<path d="M281.446 119.301C279.149 119.301 277.127 118.851 275.379 117.952C273.657 117.054 272.321 115.83 271.372 114.283C270.424 112.71 269.949 110.925 269.949 108.928C269.949 106.905 270.411 105.12 271.335 103.573C272.283 102 273.569 100.777 275.192 99.9028C276.815 99.0041 278.65 98.5547 280.697 98.5547C282.669 98.5547 284.441 98.9791 286.014 99.8279C287.612 100.652 288.873 101.85 289.796 103.423C290.72 104.971 291.182 106.831 291.182 109.003C291.182 109.227 291.169 109.489 291.144 109.789C291.119 110.064 291.095 110.326 291.07 110.575H274.705V107.168H287.999L285.752 108.179C285.752 107.13 285.54 106.219 285.115 105.445C284.691 104.671 284.104 104.072 283.355 103.648C282.606 103.198 281.733 102.973 280.734 102.973C279.735 102.973 278.849 103.198 278.075 103.648C277.326 104.072 276.74 104.684 276.315 105.482C275.891 106.256 275.679 107.18 275.679 108.254V109.152C275.679 110.251 275.916 111.224 276.39 112.073C276.889 112.897 277.576 113.534 278.45 113.983C279.349 114.407 280.397 114.62 281.595 114.62C282.669 114.62 283.605 114.457 284.404 114.133C285.228 113.808 285.977 113.321 286.651 112.672L289.759 116.043C288.835 117.091 287.674 117.902 286.276 118.477C284.878 119.026 283.268 119.301 281.446 119.301Z" fill="#F85F37"/>
<path d="M241.061 119V98.8535H247.164L254.766 112.634H252.332L260.458 98.8535H265.926L266 119H260.72V104.845L261.619 105.444L254.691 117.053H252.22L245.255 105.032L246.341 104.77V119H241.061Z" fill="#F85F37"/>
<path d="M203.869 119V98.8535H209.673V110.837L219.485 98.8535H224.84V119H219.035V107.017L209.262 119H203.869Z" fill="#F85F37"/>
<path d="M176.383 118.963L176.682 114.169C176.832 114.194 176.982 114.219 177.132 114.244C177.282 114.244 177.419 114.244 177.544 114.244C178.243 114.244 178.792 114.045 179.191 113.645C179.591 113.246 179.89 112.709 180.09 112.035C180.29 111.336 180.427 110.55 180.502 109.676C180.602 108.802 180.677 107.891 180.727 106.942L181.026 98.8535H198.252V119H192.41V102.224L193.721 103.647H184.883L186.119 102.149L185.857 107.204C185.782 109.002 185.632 110.649 185.408 112.147C185.208 113.645 184.871 114.943 184.397 116.042C183.922 117.115 183.286 117.952 182.487 118.551C181.688 119.125 180.664 119.412 179.416 119.412C178.967 119.412 178.492 119.375 177.993 119.3C177.494 119.225 176.957 119.113 176.383 118.963Z" fill="#F85F37"/>
<path d="M152.343 119V98.8535H158.147V110.837L167.958 98.8535H173.313V119H167.509V107.017L157.735 119H152.343Z" fill="#F85F37"/>
<path d="M126.342 119V98.8535H132.146V106.717H140.909V98.8535H146.751V119H140.909V111.473H132.146V119H126.342Z" fill="#F85F37"/>
<path d="M98.8545 118.963L99.1541 114.169C99.3039 114.194 99.4536 114.219 99.6034 114.244C99.7532 114.244 99.8905 114.244 100.015 114.244C100.714 114.244 101.264 114.045 101.663 113.645C102.062 113.246 102.362 112.709 102.562 112.035C102.762 111.336 102.899 110.55 102.974 109.676C103.074 108.802 103.148 107.891 103.198 106.942L103.498 98.8535H120.724V119H114.882V102.224L116.193 103.647H107.355L108.591 102.149L108.329 107.204C108.254 109.002 108.104 110.649 107.879 112.147C107.68 113.645 107.343 114.943 106.868 116.042C106.394 117.115 105.757 117.952 104.958 118.551C104.16 119.125 103.136 119.412 101.888 119.412C101.438 119.412 100.964 119.375 100.465 119.3C99.9654 119.225 99.4287 119.113 98.8545 118.963Z" fill="#F85F37"/>
<path d="M86.6293 119.301C84.4824 119.301 82.5725 118.851 80.8999 117.952C79.2522 117.054 77.9416 115.83 76.9679 114.283C76.0193 112.71 75.5449 110.925 75.5449 108.928C75.5449 106.905 76.0193 105.12 76.9679 103.573C77.9416 102 79.2522 100.777 80.8999 99.9028C82.5725 99.0041 84.4824 98.5547 86.6293 98.5547C88.7514 98.5547 90.6487 99.0041 92.3213 99.9028C93.994 100.777 95.3046 101.987 96.2533 103.535C97.202 105.083 97.6763 106.88 97.6763 108.928C97.6763 110.925 97.202 112.71 96.2533 114.283C95.3046 115.83 93.994 117.054 92.3213 117.952C90.6487 118.851 88.7514 119.301 86.6293 119.301ZM86.6293 114.507C87.603 114.507 88.4767 114.283 89.2507 113.833C90.0246 113.384 90.6362 112.747 91.0856 111.923C91.5349 111.075 91.7596 110.076 91.7596 108.928C91.7596 107.754 91.5349 106.756 91.0856 105.932C90.6362 105.108 90.0246 104.471 89.2507 104.022C88.4767 103.573 87.603 103.348 86.6293 103.348C85.6557 103.348 84.7819 103.573 84.008 104.022C83.2341 104.471 82.61 105.108 82.1357 105.932C81.6863 106.756 81.4616 107.754 81.4616 108.928C81.4616 110.076 81.6863 111.075 82.1357 111.923C82.61 112.747 83.2341 113.384 84.008 113.833C84.7819 114.283 85.6557 114.507 86.6293 114.507Z" fill="#F85F37"/>
<path d="M51.5566 119V98.8535H71.591V119H65.7492V102.336L67.0598 103.647H56.0503L57.361 102.336V119H51.5566Z" fill="#F85F37"/>
<path d="M38.9823 119.301C36.8103 119.301 34.8755 118.864 33.1779 117.99C31.4803 117.091 30.1447 115.855 29.171 114.283C28.2224 112.71 27.748 110.925 27.748 108.928C27.748 106.905 28.2224 105.12 29.171 103.573C30.1447 102 31.4803 100.777 33.1779 99.9028C34.8755 99.0041 36.8103 98.5547 38.9823 98.5547C41.1043 98.5547 42.9517 99.0041 44.5245 99.9028C46.0973 100.777 47.2581 102.037 48.0071 103.685L43.4759 106.119C42.9517 105.17 42.2901 104.471 41.4912 104.022C40.7173 103.573 39.8685 103.348 38.9448 103.348C37.9462 103.348 37.0475 103.573 36.2486 104.022C35.4497 104.471 34.8131 105.108 34.3388 105.932C33.8894 106.756 33.6647 107.754 33.6647 108.928C33.6647 110.101 33.8894 111.1 34.3388 111.923C34.8131 112.747 35.4497 113.384 36.2486 113.833C37.0475 114.283 37.9462 114.507 38.9448 114.507C39.8685 114.507 40.7173 114.295 41.4912 113.871C42.2901 113.421 42.9517 112.71 43.4759 111.736L48.0071 114.208C47.2581 115.83 46.0973 117.091 44.5245 117.99C42.9517 118.864 41.1043 119.301 38.9823 119.301Z" fill="#F85F37"/>
<path d="M2.80957 119V98.8535H8.61391V110.837L18.4251 98.8535H23.7801V119H17.9757V107.017L8.20199 119H2.80957Z" fill="#F85F37"/>
<path d="M408.869 73.0009V69.069L408.495 68.2077V61.1676C408.495 59.9193 408.108 58.9457 407.334 58.2467C406.585 57.5477 405.424 57.1982 403.852 57.1982C402.778 57.1982 401.717 57.3729 400.668 57.7224C399.645 58.047 398.771 58.4963 398.047 59.0705L395.95 54.9888C397.049 54.2149 398.372 53.6157 399.92 53.1913C401.467 52.7669 403.04 52.5547 404.638 52.5547C407.709 52.5547 410.093 53.2787 411.79 54.7266C413.488 56.1746 414.337 58.4339 414.337 61.5046V73.0009H408.869ZM402.728 73.3005C401.155 73.3005 399.807 73.0384 398.684 72.5141C397.56 71.9649 396.699 71.2284 396.1 70.3047C395.501 69.381 395.201 68.345 395.201 67.1966C395.201 65.9983 395.488 64.9498 396.062 64.051C396.662 63.1523 397.598 62.4533 398.871 61.954C400.144 61.4297 401.804 61.1676 403.852 61.1676H409.206V64.5753H404.488C403.115 64.5753 402.166 64.8 401.642 65.2493C401.143 65.6987 400.893 66.2604 400.893 66.9345C400.893 67.6834 401.18 68.2826 401.754 68.7319C402.354 69.1563 403.165 69.3685 404.189 69.3685C405.162 69.3685 406.036 69.1439 406.81 68.6945C407.584 68.2202 408.145 67.5336 408.495 66.6349L409.394 69.3311C408.969 70.6293 408.195 71.6154 407.072 72.2894C405.949 72.9635 404.501 73.3005 402.728 73.3005Z" fill="#F85F37"/>
<path d="M370.811 73.0002V52.8535H376.615V60.7175H385.378V52.8535H391.219V73.0002H385.378V65.4733H376.615V73.0002H370.811Z" fill="#F85F37"/>
<path d="M355.746 73.3005C353.599 73.3005 351.689 72.8512 350.016 71.9524C348.368 71.0537 347.058 69.8304 346.084 68.2826C345.135 66.7098 344.661 64.9248 344.661 62.9276C344.661 60.9054 345.135 59.1205 346.084 57.5726C347.058 55.9998 348.368 54.7766 350.016 53.9028C351.689 53.0041 353.599 52.5547 355.746 52.5547C357.868 52.5547 359.765 53.0041 361.438 53.9028C363.11 54.7766 364.421 55.9874 365.37 57.5352C366.318 59.083 366.793 60.8805 366.793 62.9276C366.793 64.9248 366.318 66.7098 365.37 68.2826C364.421 69.8304 363.11 71.0537 361.438 71.9524C359.765 72.8512 357.868 73.3005 355.746 73.3005ZM355.746 68.5073C356.719 68.5073 357.593 68.2826 358.367 67.8332C359.141 67.3838 359.752 66.7472 360.202 65.9234C360.651 65.0746 360.876 64.076 360.876 62.9276C360.876 61.7543 360.651 60.7557 360.202 59.9318C359.752 59.108 359.141 58.4714 358.367 58.022C357.593 57.5726 356.719 57.3479 355.746 57.3479C354.772 57.3479 353.898 57.5726 353.124 58.022C352.35 58.4714 351.726 59.108 351.252 59.9318C350.803 60.7557 350.578 61.7543 350.578 62.9276C350.578 64.076 350.803 65.0746 351.252 65.9234C351.726 66.7472 352.35 67.3838 353.124 67.8332C353.898 68.2826 354.772 68.5073 355.746 68.5073Z" fill="#F85F37"/>
<path d="M319.723 72.9999V52.8532H325.527V64.8364L335.338 52.8532H340.693V72.9999H334.889V61.0168L325.115 72.9999H319.723ZM329.833 50.6813C327.637 50.6813 325.989 50.207 324.89 49.2583C323.792 48.2847 323.23 46.8242 323.205 44.877H327.025C327.05 45.7258 327.287 46.3998 327.736 46.8991C328.186 47.3984 328.872 47.6481 329.796 47.6481C330.695 47.6481 331.381 47.3984 331.856 46.8991C332.355 46.3998 332.605 45.7258 332.605 44.877H336.499C336.499 46.8242 335.937 48.2847 334.814 49.2583C333.691 50.207 332.03 50.6813 329.833 50.6813Z" fill="#F85F37"/>
<path d="M309.18 73.0009V69.069L308.806 68.2077V61.1676C308.806 59.9193 308.419 58.9457 307.645 58.2467C306.896 57.5477 305.735 57.1982 304.162 57.1982C303.089 57.1982 302.028 57.3729 300.979 57.7224C299.955 58.047 299.082 58.4963 298.358 59.0705L296.261 54.9888C297.359 54.2149 298.682 53.6157 300.23 53.1913C301.778 52.7669 303.351 52.5547 304.948 52.5547C308.019 52.5547 310.403 53.2787 312.101 54.7266C313.799 56.1746 314.647 58.4339 314.647 61.5046V73.0009H309.18ZM303.039 73.3005C301.466 73.3005 300.118 73.0384 298.994 72.5141C297.871 71.9649 297.01 71.2284 296.41 70.3047C295.811 69.381 295.512 68.345 295.512 67.1966C295.512 65.9983 295.799 64.9498 296.373 64.051C296.972 63.1523 297.908 62.4533 299.182 61.954C300.455 61.4297 302.115 61.1676 304.162 61.1676H309.517V64.5753H304.799C303.426 64.5753 302.477 64.8 301.953 65.2493C301.453 65.6987 301.204 66.2604 301.204 66.9345C301.204 67.6834 301.491 68.2826 302.065 68.7319C302.664 69.1563 303.476 69.3685 304.499 69.3685C305.473 69.3685 306.347 69.1439 307.12 68.6945C307.894 68.2202 308.456 67.5336 308.806 66.6349L309.704 69.3311C309.28 70.6293 308.506 71.6154 307.383 72.2894C306.259 72.9635 304.811 73.3005 303.039 73.3005Z" fill="#F85F37"/>
<path d="M283.321 73.3005C281.624 73.3005 280.138 72.926 278.865 72.1771C277.592 71.4282 276.593 70.2922 275.869 68.7694C275.17 67.2216 274.821 65.2743 274.821 62.9276C274.821 60.5559 275.158 58.6087 275.832 57.0858C276.506 55.563 277.48 54.4271 278.753 53.6781C280.026 52.9292 281.549 52.5547 283.321 52.5547C285.219 52.5547 286.916 52.9916 288.414 53.8653C289.937 54.7142 291.135 55.9125 292.009 57.4603C292.908 59.0081 293.357 60.8305 293.357 62.9276C293.357 65.0496 292.908 66.8845 292.009 68.4324C291.135 69.9802 289.937 71.1785 288.414 72.0273C286.916 72.8761 285.219 73.3005 283.321 73.3005ZM271.413 80.2657V52.8543H276.993V56.9735L276.88 62.9651L277.255 68.9192V80.2657H271.413ZM282.31 68.5073C283.284 68.5073 284.145 68.2826 284.894 67.8332C285.668 67.3838 286.28 66.7472 286.729 65.9234C287.203 65.0746 287.441 64.076 287.441 62.9276C287.441 61.7543 287.203 60.7557 286.729 59.9318C286.28 59.108 285.668 58.4714 284.894 58.022C284.145 57.5726 283.284 57.3479 282.31 57.3479C281.337 57.3479 280.463 57.5726 279.689 58.022C278.915 58.4714 278.303 59.108 277.854 59.9318C277.405 60.7557 277.18 61.7543 277.18 62.9276C277.18 64.076 277.405 65.0746 277.854 65.9234C278.303 66.7472 278.915 67.3838 279.689 67.8332C280.463 68.2826 281.337 68.5073 282.31 68.5073Z" fill="#F85F37"/>
<path d="M245.78 73.3005C243.633 73.3005 241.723 72.8512 240.05 71.9524C238.403 71.0537 237.092 69.8304 236.118 68.2826C235.17 66.7098 234.695 64.9248 234.695 62.9276C234.695 60.9054 235.17 59.1205 236.118 57.5726C237.092 55.9998 238.403 54.7766 240.05 53.9028C241.723 53.0041 243.633 52.5547 245.78 52.5547C247.902 52.5547 249.799 53.0041 251.472 53.9028C253.144 54.7766 254.455 55.9874 255.404 57.5352C256.352 59.083 256.827 60.8805 256.827 62.9276C256.827 64.9248 256.352 66.7098 255.404 68.2826C254.455 69.8304 253.144 71.0537 251.472 71.9524C249.799 72.8512 247.902 73.3005 245.78 73.3005ZM245.78 68.5073C246.753 68.5073 247.627 68.2826 248.401 67.8332C249.175 67.3838 249.787 66.7472 250.236 65.9234C250.685 65.0746 250.91 64.076 250.91 62.9276C250.91 61.7543 250.685 60.7557 250.236 59.9318C249.787 59.108 249.175 58.4714 248.401 58.022C247.627 57.5726 246.753 57.3479 245.78 57.3479C244.806 57.3479 243.932 57.5726 243.158 58.022C242.384 58.4714 241.76 59.108 241.286 59.9318C240.837 60.7557 240.612 61.7543 240.612 62.9276C240.612 64.076 240.837 65.0746 241.286 65.9234C241.76 66.7472 242.384 67.3838 243.158 67.8332C243.932 68.2826 244.806 68.5073 245.78 68.5073Z" fill="#F85F37"/>
<path d="M217.949 73.0002V52.8535H234.089V57.6468H222.443L223.754 56.3736V73.0002H217.949Z" fill="#F85F37"/>
<path d="M202.884 73.3005C200.737 73.3005 198.827 72.8512 197.155 71.9524C195.507 71.0537 194.196 69.8304 193.223 68.2826C192.274 66.7098 191.8 64.9248 191.8 62.9276C191.8 60.9054 192.274 59.1205 193.223 57.5726C194.196 55.9998 195.507 54.7766 197.155 53.9028C198.827 53.0041 200.737 52.5547 202.884 52.5547C205.006 52.5547 206.904 53.0041 208.576 53.9028C210.249 54.7766 211.56 55.9874 212.508 57.5352C213.457 59.083 213.931 60.8805 213.931 62.9276C213.931 64.9248 213.457 66.7098 212.508 68.2826C211.56 69.8304 210.249 71.0537 208.576 71.9524C206.904 72.8512 205.006 73.3005 202.884 73.3005ZM202.884 68.5073C203.858 68.5073 204.732 68.2826 205.506 67.8332C206.279 67.3838 206.891 66.7472 207.34 65.9234C207.79 65.0746 208.015 64.076 208.015 62.9276C208.015 61.7543 207.79 60.7557 207.34 59.9318C206.891 59.108 206.279 58.4714 205.506 58.022C204.732 57.5726 203.858 57.3479 202.884 57.3479C201.911 57.3479 201.037 57.5726 200.263 58.022C199.489 58.4714 198.865 59.108 198.391 59.9318C197.941 60.7557 197.716 61.7543 197.716 62.9276C197.716 64.076 197.941 65.0746 198.391 65.9234C198.865 66.7472 199.489 67.3838 200.263 67.8332C201.037 68.2826 201.911 68.5073 202.884 68.5073Z" fill="#F85F37"/>
<path d="M184.31 73.0002L177.57 63.4511L182.326 60.6426L191.201 73.0002H184.31ZM170.043 73.0002V52.8535H175.885V73.0002H170.043ZM174.162 65.3609V60.68H181.202V65.3609H174.162ZM182.887 63.6009L177.42 63.0018L184.498 52.8535H190.714L182.887 63.6009Z" fill="#F85F37"/>
<path d="M157.468 73.3005C155.296 73.3005 153.361 72.8636 151.663 71.9899C149.966 71.0911 148.63 69.8554 147.656 68.2826C146.708 66.7098 146.233 64.9248 146.233 62.9276C146.233 60.9054 146.708 59.1205 147.656 57.5726C148.63 55.9998 149.966 54.7766 151.663 53.9028C153.361 53.0041 155.296 52.5547 157.468 52.5547C159.59 52.5547 161.437 53.0041 163.01 53.9028C164.583 54.7766 165.743 56.0373 166.492 57.685L161.961 60.1191C161.437 59.1704 160.775 58.4714 159.977 58.022C159.203 57.5726 158.354 57.3479 157.43 57.3479C156.432 57.3479 155.533 57.5726 154.734 58.022C153.935 58.4714 153.298 59.108 152.824 59.9318C152.375 60.7557 152.15 61.7543 152.15 62.9276C152.15 64.101 152.375 65.0995 152.824 65.9234C153.298 66.7472 153.935 67.3838 154.734 67.8332C155.533 68.2826 156.432 68.5073 157.43 68.5073C158.354 68.5073 159.203 68.2951 159.977 67.8707C160.775 67.4213 161.437 66.7098 161.961 65.7362L166.492 68.2077C165.743 69.8304 164.583 71.0911 163.01 71.9899C161.437 72.8636 159.59 73.3005 157.468 73.3005Z" fill="#F85F37"/>
<path d="M121.88 73.0002V52.8535H127.684V60.7175H136.447V52.8535H142.289V73.0002H136.447V65.4733H127.684V73.0002H121.88Z" fill="#F85F37"/>
<path d="M111.338 73.0009V69.069L110.964 68.2077V61.1676C110.964 59.9193 110.577 58.9457 109.803 58.2467C109.054 57.5477 107.893 57.1982 106.32 57.1982C105.247 57.1982 104.186 57.3729 103.137 57.7224C102.114 58.047 101.24 58.4963 100.516 59.0705L98.4189 54.9888C99.5173 54.2149 100.84 53.6157 102.388 53.1913C103.936 52.7669 105.509 52.5547 107.107 52.5547C110.177 52.5547 112.561 53.2787 114.259 54.7266C115.957 56.1746 116.806 58.4339 116.806 61.5046V73.0009H111.338ZM105.197 73.3005C103.624 73.3005 102.276 73.0384 101.153 72.5141C100.029 71.9649 99.1678 71.2284 98.5687 70.3047C97.9695 69.381 97.6699 68.345 97.6699 67.1966C97.6699 65.9983 97.957 64.9498 98.5312 64.051C99.1304 63.1523 100.067 62.4533 101.34 61.954C102.613 61.4297 104.273 61.1676 106.32 61.1676H111.675V64.5753H106.957C105.584 64.5753 104.635 64.8 104.111 65.2493C103.612 65.6987 103.362 66.2604 103.362 66.9345C103.362 67.6834 103.649 68.2826 104.223 68.7319C104.822 69.1563 105.634 69.3685 106.657 69.3685C107.631 69.3685 108.505 69.1439 109.279 68.6945C110.053 68.2202 110.614 67.5336 110.964 66.6349L111.862 69.3311C111.438 70.6293 110.664 71.6154 109.541 72.2894C108.417 72.9635 106.969 73.3005 105.197 73.3005Z" fill="#F85F37"/>
<path d="M76.6729 68.2069L75.3997 69.555V52.8535H81.2414V69.555L79.8933 68.2069H89.1803L87.8696 69.555V52.8535H93.674V73.0002H62.9297V52.8535H68.734V69.555L67.4234 68.2069H76.6729ZM91.0527 77.0071V71.6521L92.3633 73.0002H87.7198V68.2069H96.4825V77.0071H91.0527Z" fill="#F85F37"/>
<path d="M48.7161 73.3005C46.4193 73.3005 44.3971 72.8512 42.6496 71.9524C40.927 71.0537 39.5914 69.8304 38.6427 68.2826C37.6941 66.7098 37.2197 64.9248 37.2197 62.9276C37.2197 60.9054 37.6816 59.1205 38.6053 57.5726C39.5539 55.9998 40.8396 54.7766 42.4624 53.9028C44.0851 53.0041 45.92 52.5547 47.9671 52.5547C49.9393 52.5547 51.7119 52.9791 53.2846 53.8279C54.8824 54.6517 56.1431 55.8501 57.0668 57.4228C57.9905 58.9707 58.4524 60.8306 58.4524 63.0025C58.4524 63.2272 58.4399 63.4893 58.4149 63.7889C58.39 64.0635 58.365 64.3256 58.34 64.5753H41.9755V61.1676H55.2693L53.0225 62.1787C53.0225 61.1301 52.8103 60.2189 52.3859 59.445C51.9615 58.6711 51.3748 58.0719 50.6259 57.6475C49.8769 57.1982 49.0032 56.9735 48.0046 56.9735C47.006 56.9735 46.1197 57.1982 45.3458 57.6475C44.5969 58.0719 44.0102 58.6836 43.5858 59.4824C43.1614 60.2564 42.9492 61.1801 42.9492 62.2536V63.1523C42.9492 64.2507 43.1863 65.2244 43.6607 66.0732C44.16 66.897 44.8465 67.5336 45.7203 67.983C46.619 68.4074 47.6675 68.6196 48.8659 68.6196C49.9393 68.6196 50.8755 68.4573 51.6744 68.1328C52.4982 67.8082 53.2472 67.3214 53.9212 66.6723L57.0294 70.0426C56.1057 71.0911 54.9448 71.9025 53.5468 72.4767C52.1487 73.0259 50.5385 73.3005 48.7161 73.3005Z" fill="#F85F37"/>
<path d="M3.25879 73.0003V46.7871H8.27673L19.436 65.2861H16.7773L27.7494 46.7871H32.7673L32.8048 73.0003H27.1128L27.0753 55.5123H28.1613L19.3612 70.2292H16.6649L7.67758 55.5123H8.95079V73.0003H3.25879Z" fill="#F85F37"/>
<path d="M459.795 27.0002V6.85352H465.599V27.0002H459.795ZM449.646 13.2945C452.293 13.3194 454.277 13.9186 455.601 15.0919C456.949 16.2403 457.623 17.8755 457.623 19.9975C457.623 22.2194 456.861 23.9545 455.338 25.2027C453.816 26.426 451.656 27.0376 448.86 27.0376L439.049 27.0002V6.85352H444.853V13.2945H449.646ZM448.336 22.881C449.459 22.906 450.32 22.6688 450.92 22.1695C451.519 21.6702 451.818 20.9212 451.818 19.9226C451.818 18.924 451.519 18.2125 450.92 17.7881C450.32 17.3388 449.459 17.1016 448.336 17.0766L444.853 17.0392V22.881H448.336Z" fill="#F85F37"/>
<path d="M423.315 27.0002V10.2987L424.626 11.6468H416.5V6.85352H435.935V11.6468H427.809L429.12 10.2987V27.0002H423.315Z" fill="#F85F37"/>
<path d="M408.467 27.0009V23.069L408.093 22.2077V15.1676C408.093 13.9193 407.706 12.9457 406.932 12.2467C406.183 11.5477 405.022 11.1982 403.449 11.1982C402.376 11.1982 401.315 11.3729 400.266 11.7224C399.243 12.047 398.369 12.4963 397.645 13.0705L395.548 8.98876C396.646 8.21485 397.969 7.61569 399.517 7.19129C401.065 6.76689 402.638 6.55469 404.236 6.55469C407.306 6.55469 409.69 7.27867 411.388 8.72663C413.086 10.1746 413.934 12.4339 413.934 15.5046V27.0009H408.467ZM402.326 27.3005C400.753 27.3005 399.405 27.0384 398.281 26.5141C397.158 25.9649 396.297 25.2284 395.698 24.3047C395.098 23.381 394.799 22.345 394.799 21.1966C394.799 19.9983 395.086 18.9498 395.66 18.051C396.259 17.1523 397.195 16.4533 398.469 15.954C399.742 15.4297 401.402 15.1676 403.449 15.1676H408.804V18.5753H404.086C402.713 18.5753 401.764 18.8 401.24 19.2493C400.74 19.6987 400.491 20.2604 400.491 20.9345C400.491 21.6834 400.778 22.2826 401.352 22.7319C401.951 23.1563 402.763 23.3685 403.786 23.3685C404.76 23.3685 405.634 23.1439 406.408 22.6945C407.181 22.2202 407.743 21.5336 408.093 20.6349L408.991 23.3311C408.567 24.6293 407.793 25.6154 406.67 26.2894C405.546 26.9635 404.098 27.3005 402.326 27.3005Z" fill="#F85F37"/>
<path d="M368.922 26.9627L369.221 22.1695C369.371 22.1944 369.521 22.2194 369.671 22.2444C369.821 22.2444 369.958 22.2444 370.083 22.2444C370.782 22.2444 371.331 22.0447 371.73 21.6452C372.13 21.2458 372.429 20.709 372.629 20.035C372.829 19.336 372.966 18.5496 373.041 17.6758C373.141 16.802 373.216 15.8908 373.266 14.9421L373.565 6.85352H390.791V27.0002H384.949V10.2238L386.26 11.6468H377.422L378.658 10.1489L378.396 15.2043C378.321 17.0017 378.171 18.6494 377.947 20.1473C377.747 21.6452 377.41 22.9434 376.936 24.0419C376.461 25.1153 375.825 25.9517 375.026 26.5508C374.227 27.125 373.203 27.4121 371.955 27.4121C371.506 27.4121 371.031 27.3747 370.532 27.2998C370.033 27.2249 369.496 27.1125 368.922 26.9627Z" fill="#F85F37"/>
<path d="M360.926 27.0009V23.069L360.552 22.2077V15.1676C360.552 13.9193 360.165 12.9457 359.391 12.2467C358.642 11.5477 357.481 11.1982 355.908 11.1982C354.835 11.1982 353.774 11.3729 352.725 11.7224C351.702 12.047 350.828 12.4963 350.104 13.0705L348.007 8.98876C349.105 8.21485 350.428 7.61569 351.976 7.19129C353.524 6.76689 355.097 6.55469 356.695 6.55469C359.765 6.55469 362.149 7.27867 363.847 8.72663C365.545 10.1746 366.393 12.4339 366.393 15.5046V27.0009H360.926ZM354.785 27.3005C353.212 27.3005 351.864 27.0384 350.74 26.5141C349.617 25.9649 348.756 25.2284 348.157 24.3047C347.557 23.381 347.258 22.345 347.258 21.1966C347.258 19.9983 347.545 18.9498 348.119 18.051C348.718 17.1523 349.654 16.4533 350.928 15.954C352.201 15.4297 353.861 15.1676 355.908 15.1676H361.263V18.5753H356.545C355.172 18.5753 354.223 18.8 353.699 19.2493C353.199 19.6987 352.95 20.2604 352.95 20.9345C352.95 21.6834 353.237 22.2826 353.811 22.7319C354.41 23.1563 355.222 23.3685 356.245 23.3685C357.219 23.3685 358.093 23.1439 358.867 22.6945C359.64 22.2202 360.202 21.5336 360.552 20.6349L361.45 23.3311C361.026 24.6293 360.252 25.6154 359.129 26.2894C358.005 26.9635 356.557 27.3005 354.785 27.3005Z" fill="#F85F37"/>
<path d="M323.233 27.0002V6.85352H343.268V27.0002H337.426V10.3361L338.737 11.6468H327.727L329.038 10.3361V27.0002H323.233Z" fill="#F85F37"/>
<path d="M295.746 26.9627L296.046 22.1695C296.195 22.1944 296.345 22.2194 296.495 22.2444C296.645 22.2444 296.782 22.2444 296.907 22.2444C297.606 22.2444 298.155 22.0447 298.555 21.6452C298.954 21.2458 299.254 20.709 299.453 20.035C299.653 19.336 299.79 18.5496 299.865 17.6758C299.965 16.802 300.04 15.8908 300.09 14.9421L300.39 6.85352H317.615V27.0002H311.774V10.2238L313.084 11.6468H304.247L305.482 10.1489L305.22 15.2043C305.145 17.0017 304.996 18.6494 304.771 20.1473C304.571 21.6452 304.234 22.9434 303.76 24.0419C303.285 25.1153 302.649 25.9517 301.85 26.5508C301.051 27.125 300.028 27.4121 298.779 27.4121C298.33 27.4121 297.856 27.3747 297.356 27.2998C296.857 27.2249 296.32 27.1125 295.746 26.9627Z" fill="#F85F37"/>
<path d="M283.52 27.3005C281.373 27.3005 279.463 26.8512 277.791 25.9524C276.143 25.0537 274.832 23.8304 273.859 22.2826C272.91 20.7098 272.436 18.9248 272.436 16.9276C272.436 14.9054 272.91 13.1205 273.859 11.5726C274.832 9.99984 276.143 8.77656 277.791 7.90279C279.463 7.00405 281.373 6.55469 283.52 6.55469C285.642 6.55469 287.539 7.00405 289.212 7.90279C290.885 8.77656 292.195 9.98736 293.144 11.5352C294.093 13.083 294.567 14.8805 294.567 16.9276C294.567 18.9248 294.093 20.7098 293.144 22.2826C292.195 23.8304 290.885 25.0537 289.212 25.9524C287.539 26.8512 285.642 27.3005 283.52 27.3005ZM283.52 22.5073C284.494 22.5073 285.367 22.2826 286.141 21.8332C286.915 21.3838 287.527 20.7472 287.976 19.9234C288.426 19.0746 288.65 18.076 288.65 16.9276C288.65 15.7543 288.426 14.7557 287.976 13.9318C287.527 13.108 286.915 12.4714 286.141 12.022C285.367 11.5726 284.494 11.3479 283.52 11.3479C282.546 11.3479 281.673 11.5726 280.899 12.022C280.125 12.4714 279.501 13.108 279.026 13.9318C278.577 14.7557 278.352 15.7543 278.352 16.9276C278.352 18.076 278.577 19.0746 279.026 19.9234C279.501 20.7472 280.125 21.3838 280.899 21.8332C281.673 22.2826 282.546 22.5073 283.52 22.5073Z" fill="#F85F37"/>
<path d="M238.475 27.0003V0.787109H243.493L254.652 19.2861H251.993L262.965 0.787109H267.983L268.021 27.0003H262.329L262.291 9.51234H263.377L254.577 24.2292H251.881L242.893 9.51234H244.167V27.0003H238.475Z" fill="#F85F37"/>
<path d="M215.985 27.0002V6.85352H221.789V27.0002H215.985ZM205.837 13.2945C208.483 13.3194 210.468 13.9186 211.791 15.0919C213.139 16.2403 213.813 17.8755 213.813 19.9975C213.813 22.2194 213.052 23.9545 211.529 25.2027C210.006 26.426 207.847 27.0376 205.05 27.0376L195.239 27.0002V6.85352H201.044V13.2945H205.837ZM204.526 22.881C205.65 22.906 206.511 22.6688 207.11 22.1695C207.709 21.6702 208.009 20.9212 208.009 19.9226C208.009 18.924 207.709 18.2125 207.11 17.7881C206.511 17.3388 205.65 17.1016 204.526 17.0766L201.044 17.0392V22.881H204.526Z" fill="#F85F37"/>
<path d="M179.506 27.0002V10.2987L180.817 11.6468H172.69V6.85352H192.126V11.6468H184L185.31 10.2987V27.0002H179.506Z" fill="#F85F37"/>
<path d="M162.661 27.3005C160.489 27.3005 158.554 26.8636 156.857 25.9899C155.159 25.0911 153.823 23.8554 152.85 22.2826C151.901 20.7098 151.427 18.9248 151.427 16.9276C151.427 14.9054 151.901 13.1205 152.85 11.5726C153.823 9.99984 155.159 8.77656 156.857 7.90279C158.554 7.00405 160.489 6.55469 162.661 6.55469C164.783 6.55469 166.63 7.00405 168.203 7.90279C169.776 8.77656 170.937 10.0373 171.686 11.685L167.155 14.1191C166.63 13.1704 165.969 12.4714 165.17 12.022C164.396 11.5726 163.547 11.3479 162.624 11.3479C161.625 11.3479 160.726 11.5726 159.927 12.022C159.128 12.4714 158.492 13.108 158.017 13.9318C157.568 14.7557 157.343 15.7543 157.343 16.9276C157.343 18.101 157.568 19.0995 158.017 19.9234C158.492 20.7472 159.128 21.3838 159.927 21.8332C160.726 22.2826 161.625 22.5073 162.624 22.5073C163.547 22.5073 164.396 22.2951 165.17 21.8707C165.969 21.4213 166.63 20.7098 167.155 19.7362L171.686 22.2077C170.937 23.8304 169.776 25.0911 168.203 25.9899C166.63 26.8636 164.783 27.3005 162.661 27.3005Z" fill="#F85F37"/>
<path d="M126.488 27.0002V6.85352H132.293V18.8367L142.104 6.85352H147.459V27.0002H141.654V15.017L131.881 27.0002H126.488Z" fill="#F85F37"/>
<path d="M103.193 27.0002V6.85352H113.491C116.013 6.85352 117.985 7.31537 119.408 8.23907C120.831 9.1378 121.543 10.411 121.543 12.0587C121.543 13.7064 120.869 15.0046 119.52 15.9532C118.197 16.8769 116.437 17.3388 114.24 17.3388L114.839 15.9907C117.286 15.9907 119.108 16.44 120.307 17.3388C121.53 18.2375 122.142 19.5482 122.142 21.2707C122.142 23.0433 121.468 24.4413 120.12 25.4649C118.771 26.4884 116.712 27.0002 113.941 27.0002H103.193ZM108.548 23.0308H113.454C114.527 23.0308 115.326 22.856 115.851 22.5065C116.4 22.132 116.674 21.5703 116.674 20.8214C116.674 20.0475 116.425 19.4858 115.925 19.1362C115.426 18.7618 114.64 18.5745 113.566 18.5745H108.548V23.0308ZM108.548 15.1294H112.967C113.991 15.1294 114.752 14.9421 115.251 14.5677C115.776 14.1932 116.038 13.6565 116.038 12.9574C116.038 12.2335 115.776 11.6967 115.251 11.3472C114.752 10.9977 113.991 10.8229 112.967 10.8229H108.548V15.1294Z" fill="#F85F37"/>
<path d="M76.6074 27.0002V6.85352H82.4118V18.8367L92.223 6.85352H97.5779V27.0002H91.7736V15.017L81.9998 27.0002H76.6074Z" fill="#F85F37"/>
<path d="M60.873 27.0002V10.2987L62.1837 11.6468H54.0576V6.85352H73.4928V11.6468H65.3667L66.6774 10.2987V27.0002H60.873Z" fill="#F85F37"/>
<path d="M46.9911 27.0002L40.2506 17.4511L45.0064 14.6426L53.8814 27.0002H46.9911ZM32.7236 27.0002V6.85352H38.5654V27.0002H32.7236ZM36.8428 19.3609V14.68H43.8829V19.3609H36.8428ZM45.5681 17.6009L40.1008 17.0017L47.1783 6.85352H53.3946L45.5681 17.6009Z" fill="#F85F37"/>
<path d="M0.300781 27.0003L11.9844 0.787109H17.9759L29.697 27.0003H23.3309L13.7444 3.85779H16.141L6.51704 27.0003H0.300781ZM6.14257 21.3832L7.75281 16.7771H21.2339L22.8815 21.3832H6.14257Z" fill="#F85F37"/>
</svg>
