<svg width="442" height="106" viewBox="0 0 442 106" fill="none" xmlns="http://www.w3.org/2000/svg">
<path d="M227.777 102.779H225.137L229.367 97.0491L225.137 91.2891H227.777L232.097 97.0491L227.777 102.779ZM233.537 102.779H230.897L235.127 97.0491L230.897 91.2891H233.537L237.857 97.0491L233.537 102.779Z" fill="#163C51"/>
<path d="M202.689 105V84H205.659V100.2L218.079 84H220.839V105H217.899V88.83L205.449 105H202.689Z" fill="#163C51"/>
<path d="M186.711 105.24C185.111 105.24 183.621 104.97 182.241 104.43C180.881 103.89 179.701 103.14 178.701 102.18C177.701 101.2 176.921 100.06 176.361 98.7598C175.801 97.4598 175.521 96.0398 175.521 94.4998C175.521 92.9598 175.801 91.5398 176.361 90.2398C176.921 88.9398 177.701 87.8098 178.701 86.8498C179.701 85.8698 180.881 85.1098 182.241 84.5698C183.601 84.0298 185.091 83.7598 186.711 83.7598C188.311 83.7598 189.781 84.0298 191.121 84.5698C192.481 85.0898 193.661 85.8398 194.661 86.8198C195.681 87.7798 196.461 88.9098 197.001 90.2098C197.561 91.5098 197.841 92.9398 197.841 94.4998C197.841 96.0598 197.561 97.4898 197.001 98.7898C196.461 100.09 195.681 101.23 194.661 102.21C193.661 103.17 192.481 103.92 191.121 104.46C189.781 104.98 188.311 105.24 186.711 105.24ZM186.711 102.57C187.871 102.57 188.941 102.37 189.921 101.97C190.921 101.57 191.781 101.01 192.501 100.29C193.241 99.5498 193.811 98.6898 194.211 97.7098C194.631 96.7298 194.841 95.6598 194.841 94.4998C194.841 93.3398 194.631 92.2698 194.211 91.2898C193.811 90.3098 193.241 89.4598 192.501 88.7398C191.781 87.9998 190.921 87.4298 189.921 87.0298C188.941 86.6298 187.871 86.4298 186.711 86.4298C185.531 86.4298 184.441 86.6298 183.441 87.0298C182.461 87.4298 181.601 87.9998 180.861 88.7398C180.121 89.4598 179.541 90.3098 179.121 91.2898C178.721 92.2698 178.521 93.3398 178.521 94.4998C178.521 95.6598 178.721 96.7298 179.121 97.7098C179.541 98.6898 180.121 99.5498 180.861 100.29C181.601 101.01 182.461 101.57 183.441 101.97C184.441 102.37 185.531 102.57 186.711 102.57Z" fill="#163C51"/>
<path d="M154.848 105V84H163.878C166.158 84 167.948 84.46 169.248 85.38C170.548 86.3 171.198 87.64 171.198 89.4C171.198 91.12 170.578 92.44 169.338 93.36C168.098 94.26 166.468 94.71 164.448 94.71L164.988 93.81C167.328 93.81 169.118 94.28 170.358 95.22C171.618 96.14 172.248 97.49 172.248 99.27C172.248 101.07 171.588 102.48 170.268 103.5C168.968 104.5 167.028 105 164.448 105H154.848ZM157.818 102.63H164.388C165.988 102.63 167.188 102.34 167.988 101.76C168.808 101.16 169.218 100.25 169.218 99.03C169.218 97.81 168.808 96.92 167.988 96.36C167.188 95.8 165.988 95.52 164.388 95.52H157.818V102.63ZM157.818 93.24H163.668C165.128 93.24 166.238 92.95 166.998 92.37C167.778 91.79 168.168 90.94 168.168 89.82C168.168 88.68 167.778 87.82 166.998 87.24C166.238 86.66 165.128 86.37 163.668 86.37H157.818V93.24Z" fill="#163C51"/>
<path d="M125.481 105V89.0996H128.361V100.68L138.111 89.0996H140.721V105H137.841V93.4196L128.121 105H125.481Z" fill="#163C51"/>
<path d="M119.072 105L112.922 97.2596L115.292 95.8196L122.462 105H119.072ZM107.552 105V89.0996H110.432V105H107.552ZM109.562 98.2796V95.8196H114.812V98.2796H109.562ZM115.532 97.3796L112.862 97.0196L118.952 89.0996H122.042L115.532 97.3796Z" fill="#163C51"/>
<path d="M95.1433 105.179C93.5433 105.179 92.1233 104.829 90.8833 104.129C89.6433 103.429 88.6633 102.469 87.9433 101.249C87.2233 100.009 86.8633 98.6092 86.8633 97.0492C86.8633 95.4692 87.2233 94.0692 87.9433 92.8492C88.6633 91.6292 89.6433 90.6792 90.8833 89.9992C92.1233 89.2992 93.5433 88.9492 95.1433 88.9492C96.7233 88.9492 98.1333 89.2992 99.3733 89.9992C100.633 90.6792 101.613 91.6292 102.313 92.8492C103.033 94.0492 103.393 95.4492 103.393 97.0492C103.393 98.6292 103.033 100.029 102.313 101.249C101.613 102.469 100.633 103.429 99.3733 104.129C98.1333 104.829 96.7233 105.179 95.1433 105.179ZM95.1433 102.659C96.1633 102.659 97.0733 102.429 97.8733 101.969C98.6933 101.509 99.3333 100.859 99.7933 100.019C100.253 99.1592 100.483 98.1692 100.483 97.0492C100.483 95.9092 100.253 94.9292 99.7933 94.1092C99.3333 93.2692 98.6933 92.6192 97.8733 92.1592C97.0733 91.6992 96.1633 91.4692 95.1433 91.4692C94.1233 91.4692 93.2133 91.6992 92.4133 92.1592C91.6133 92.6192 90.9733 93.2692 90.4933 94.1092C90.0133 94.9292 89.7733 95.9092 89.7733 97.0492C89.7733 98.1692 90.0133 99.1592 90.4933 100.019C90.9733 100.859 91.6133 101.509 92.4133 101.969C93.2133 102.429 94.1233 102.659 95.1433 102.659Z" fill="#163C51"/>
<path d="M77.3913 105V90.8696L78.1113 91.6196H71.5713V89.0996H86.0913V91.6196H79.5813L80.2713 90.8696V105H77.3913Z" fill="#163C51"/>
<path d="M66.3246 104.999V101.639L66.1746 101.009V95.2792C66.1746 94.0592 65.8146 93.1192 65.0946 92.4592C64.3946 91.7792 63.3346 91.4392 61.9146 91.4392C60.9746 91.4392 60.0546 91.5992 59.1546 91.9192C58.2546 92.2192 57.4946 92.6292 56.8746 93.1492L55.6746 90.9892C56.4946 90.3292 57.4746 89.8292 58.6146 89.4892C59.7746 89.1292 60.9846 88.9492 62.2446 88.9492C64.4246 88.9492 66.1046 89.4792 67.2846 90.5392C68.4646 91.5992 69.0546 93.2192 69.0546 95.3992V104.999H66.3246ZM61.1046 105.179C59.9246 105.179 58.8846 104.979 57.9846 104.579C57.1046 104.179 56.4246 103.629 55.9446 102.929C55.4646 102.209 55.2246 101.399 55.2246 100.499C55.2246 99.6392 55.4246 98.8592 55.8246 98.1592C56.2446 97.4592 56.9146 96.8992 57.8346 96.4792C58.7746 96.0592 60.0346 95.8492 61.6146 95.8492H66.6546V97.9192H61.7346C60.2946 97.9192 59.3246 98.1592 58.8246 98.6392C58.3246 99.1192 58.0746 99.6992 58.0746 100.379C58.0746 101.159 58.3846 101.789 59.0046 102.269C59.6246 102.729 60.4846 102.959 61.5846 102.959C62.6646 102.959 63.6046 102.719 64.4046 102.239C65.2246 101.759 65.8146 101.059 66.1746 100.139L66.7446 102.119C66.3646 103.059 65.6946 103.809 64.7346 104.369C63.7746 104.909 62.5646 105.179 61.1046 105.179Z" fill="#163C51"/>
<path d="M36.1553 105V89.0996H39.0353V95.8496H48.0953V89.0996H50.9753V105H48.0953V98.3396H39.0353V105H36.1553Z" fill="#163C51"/>
<path d="M15.0771 102.721L16.1271 100.501C17.0471 101.221 18.0571 101.761 19.1571 102.121C20.2771 102.481 21.3871 102.671 22.4871 102.691C23.5871 102.691 24.5971 102.541 25.5171 102.241C26.4571 101.941 27.2071 101.491 27.7671 100.891C28.3271 100.291 28.6071 99.551 28.6071 98.671C28.6071 97.591 28.1671 96.771 27.2871 96.211C26.4271 95.651 25.2271 95.371 23.6871 95.371H19.0071V92.941H23.4771C24.8171 92.941 25.8571 92.671 26.5971 92.131C27.3571 91.571 27.7371 90.801 27.7371 89.821C27.7371 89.081 27.5071 88.461 27.0471 87.961C26.6071 87.441 25.9971 87.051 25.2171 86.791C24.4571 86.531 23.5871 86.401 22.6071 86.401C21.6471 86.381 20.6571 86.511 19.6371 86.791C18.6171 87.051 17.6371 87.471 16.6971 88.051L15.7371 85.591C17.0171 84.871 18.3471 84.371 19.7271 84.091C21.1271 83.791 22.4771 83.701 23.7771 83.821C25.0771 83.921 26.2471 84.221 27.2871 84.721C28.3471 85.201 29.1871 85.841 29.8071 86.641C30.4471 87.421 30.7671 88.361 30.7671 89.461C30.7671 90.461 30.5071 91.351 29.9871 92.131C29.4671 92.891 28.7471 93.481 27.8271 93.901C26.9071 94.301 25.8371 94.501 24.6171 94.501L24.7371 93.691C26.1371 93.691 27.3471 93.921 28.3671 94.381C29.4071 94.821 30.2071 95.451 30.7671 96.271C31.3471 97.091 31.6371 98.041 31.6371 99.121C31.6371 100.141 31.3771 101.051 30.8571 101.851C30.3371 102.631 29.6271 103.291 28.7271 103.831C27.8471 104.351 26.8371 104.731 25.6971 104.971C24.5771 105.211 23.3971 105.291 22.1571 105.211C20.9171 105.131 19.6871 104.891 18.4671 104.491C17.2671 104.091 16.1371 103.501 15.0771 102.721Z" fill="#163C51"/>
<path d="M4.69988 102.779L0.379883 97.0491L4.69988 91.2891H7.33988L3.10988 97.0491L7.33988 102.779H4.69988ZM10.4599 102.779L6.13988 97.0491L10.4599 91.2891H13.0999L8.86988 97.0491L13.0999 102.779H10.4599Z" fill="#163C51"/>
<path d="M308.089 62.9996V47.0996H315.469C317.329 47.0996 318.789 47.4596 319.849 48.1796C320.929 48.8796 321.469 49.8796 321.469 51.1796C321.469 52.4796 320.959 53.4896 319.939 54.2096C318.939 54.9096 317.609 55.2596 315.949 55.2596L316.399 54.4796C318.299 54.4796 319.709 54.8296 320.629 55.5296C321.549 56.2296 322.009 57.2596 322.009 58.6196C322.009 59.9996 321.489 61.0796 320.449 61.8596C319.429 62.6196 317.859 62.9996 315.739 62.9996H308.089ZM310.909 60.7796H315.529C316.729 60.7796 317.629 60.5996 318.229 60.2396C318.829 59.8596 319.129 59.2596 319.129 58.4396C319.129 57.5996 318.849 56.9896 318.289 56.6096C317.749 56.2096 316.889 56.0096 315.709 56.0096H310.909V60.7796ZM310.909 53.9396H315.229C316.329 53.9396 317.159 53.7396 317.719 53.3396C318.299 52.9196 318.589 52.3396 318.589 51.5996C318.589 50.8396 318.299 50.2696 317.719 49.8896C317.159 49.5096 316.329 49.3196 315.229 49.3196H310.909V53.9396Z" fill="#163C51"/>
<path d="M295.68 63.1792C294.08 63.1792 292.66 62.8292 291.42 62.1292C290.18 61.4292 289.2 60.4692 288.48 59.2492C287.76 58.0092 287.4 56.6092 287.4 55.0492C287.4 53.4692 287.76 52.0692 288.48 50.8492C289.2 49.6292 290.18 48.6792 291.42 47.9992C292.66 47.2992 294.08 46.9492 295.68 46.9492C297.26 46.9492 298.67 47.2992 299.91 47.9992C301.17 48.6792 302.15 49.6292 302.85 50.8492C303.57 52.0492 303.93 53.4492 303.93 55.0492C303.93 56.6292 303.57 58.0292 302.85 59.2492C302.15 60.4692 301.17 61.4292 299.91 62.1292C298.67 62.8292 297.26 63.1792 295.68 63.1792ZM295.68 60.6592C296.7 60.6592 297.61 60.4292 298.41 59.9692C299.23 59.5092 299.87 58.8592 300.33 58.0192C300.79 57.1592 301.02 56.1692 301.02 55.0492C301.02 53.9092 300.79 52.9292 300.33 52.1092C299.87 51.2692 299.23 50.6192 298.41 50.1592C297.61 49.6992 296.7 49.4692 295.68 49.4692C294.66 49.4692 293.75 49.6992 292.95 50.1592C292.15 50.6192 291.51 51.2692 291.03 52.1092C290.55 52.9292 290.31 53.9092 290.31 55.0492C290.31 56.1692 290.55 57.1592 291.03 58.0192C291.51 58.8592 292.15 59.5092 292.95 59.9692C293.75 60.4292 294.66 60.6592 295.68 60.6592Z" fill="#163C51"/>
<path d="M279.808 61.6496V49.6196H272.908L272.758 52.6796C272.718 53.6796 272.648 54.6496 272.548 55.5896C272.468 56.5096 272.328 57.3596 272.128 58.1396C271.948 58.9196 271.678 59.5596 271.318 60.0596C270.958 60.5596 270.478 60.8696 269.878 60.9896L267.028 60.4796C267.648 60.4996 268.148 60.2996 268.528 59.8796C268.908 59.4396 269.198 58.8396 269.398 58.0796C269.618 57.3196 269.778 56.4596 269.878 55.4996C269.978 54.5196 270.058 53.5096 270.118 52.4696L270.358 47.0996H282.688V61.6496H279.808ZM266.398 66.6896V60.4796H285.118V66.6896H282.418V62.9996H269.128V66.6896H266.398Z" fill="#163C51"/>
<path d="M248.118 62.9996V47.0996H250.998V58.6796L260.748 47.0996H263.358V62.9996H260.478V51.4196L250.758 62.9996H248.118Z" fill="#163C51"/>
<path d="M226.26 62.9696L226.44 60.5396C226.58 60.5596 226.71 60.5796 226.83 60.5996C226.95 60.6196 227.06 60.6296 227.16 60.6296C227.8 60.6296 228.3 60.4096 228.66 59.9696C229.04 59.5296 229.32 58.9496 229.5 58.2296C229.68 57.4896 229.81 56.6596 229.89 55.7396C229.97 54.8196 230.03 53.8996 230.07 52.9796L230.34 47.0996H242.55V62.9996H239.67V48.7796L240.36 49.6196H232.2L232.86 48.7496L232.65 53.1596C232.59 54.5596 232.48 55.8696 232.32 57.0896C232.16 58.3096 231.91 59.3796 231.57 60.2996C231.25 61.2196 230.8 61.9396 230.22 62.4596C229.66 62.9796 228.93 63.2396 228.03 63.2396C227.77 63.2396 227.49 63.2096 227.19 63.1496C226.91 63.1096 226.6 63.0496 226.26 62.9696Z" fill="#163C51"/>
<path d="M220.983 62.9992V59.6392L220.833 59.0092V53.2792C220.833 52.0592 220.473 51.1192 219.753 50.4592C219.053 49.7792 217.993 49.4392 216.573 49.4392C215.633 49.4392 214.713 49.5992 213.813 49.9192C212.913 50.2192 212.153 50.6292 211.533 51.1492L210.333 48.9892C211.153 48.3292 212.133 47.8292 213.273 47.4892C214.433 47.1292 215.643 46.9492 216.903 46.9492C219.083 46.9492 220.763 47.4792 221.943 48.5392C223.123 49.5992 223.713 51.2192 223.713 53.3992V62.9992H220.983ZM215.763 63.1792C214.583 63.1792 213.543 62.9792 212.643 62.5792C211.763 62.1792 211.083 61.6292 210.603 60.9292C210.123 60.2092 209.883 59.3992 209.883 58.4992C209.883 57.6392 210.083 56.8592 210.483 56.1592C210.903 55.4592 211.573 54.8992 212.493 54.4792C213.433 54.0592 214.693 53.8492 216.273 53.8492H221.313V55.9192H216.393C214.953 55.9192 213.983 56.1592 213.483 56.6392C212.983 57.1192 212.733 57.6992 212.733 58.3792C212.733 59.1592 213.043 59.7892 213.663 60.2692C214.283 60.7292 215.143 60.9592 216.243 60.9592C217.323 60.9592 218.263 60.7192 219.063 60.2392C219.883 59.7592 220.473 59.0592 220.833 58.1392L221.403 60.1192C221.023 61.0592 220.353 61.8092 219.393 62.3692C218.433 62.9092 217.223 63.1792 215.763 63.1792Z" fill="#163C51"/>
<path d="M192.806 62.9996V47.0996H200.186C202.046 47.0996 203.506 47.4596 204.566 48.1796C205.646 48.8796 206.186 49.8796 206.186 51.1796C206.186 52.4796 205.676 53.4896 204.656 54.2096C203.656 54.9096 202.326 55.2596 200.666 55.2596L201.116 54.4796C203.016 54.4796 204.426 54.8296 205.346 55.5296C206.266 56.2296 206.726 57.2596 206.726 58.6196C206.726 59.9996 206.206 61.0796 205.166 61.8596C204.146 62.6196 202.576 62.9996 200.456 62.9996H192.806ZM195.626 60.7796H200.246C201.446 60.7796 202.346 60.5996 202.946 60.2396C203.546 59.8596 203.846 59.2596 203.846 58.4396C203.846 57.5996 203.566 56.9896 203.006 56.6096C202.466 56.2096 201.606 56.0096 200.426 56.0096H195.626V60.7796ZM195.626 53.9396H199.946C201.046 53.9396 201.876 53.7396 202.436 53.3396C203.016 52.9196 203.306 52.3396 203.306 51.5996C203.306 50.8396 203.016 50.2696 202.436 49.8896C201.876 49.5096 201.046 49.3196 199.946 49.3196H195.626V53.9396Z" fill="#163C51"/>
<path d="M172.386 62.9996V47.0996H175.266V53.8496H184.326V47.0996H187.206V62.9996H184.326V56.3396H175.266V62.9996H172.386Z" fill="#163C51"/>
<path d="M151.556 62.9996V47.0996H154.436V58.6796L164.186 47.0996H166.796V62.9996H163.916V51.4196L154.196 62.9996H151.556Z" fill="#163C51"/>
<path d="M124.748 62.9996L131.588 54.1196L131.558 55.5896L125.048 47.0996H128.258L133.238 53.6396H132.008L136.988 47.0996H140.138L133.538 55.6496L133.568 54.1196L140.468 62.9996H137.198L131.948 56.0396L133.118 56.2196L127.958 62.9996H124.748Z" fill="#163C51"/>
<path d="M118.789 62.9996V47.0996H121.669V62.9996H118.789ZM110.239 52.4996C112.259 52.5196 113.789 52.9796 114.829 53.8796C115.889 54.7796 116.419 56.0496 116.419 57.6896C116.419 59.4096 115.839 60.7396 114.679 61.6796C113.539 62.5996 111.899 63.0496 109.759 63.0296L103.069 62.9996V47.0996H105.949V52.4696L110.239 52.4996ZM109.549 60.8396C110.829 60.8596 111.809 60.5996 112.489 60.0596C113.169 59.5196 113.509 58.7196 113.509 57.6596C113.509 56.6196 113.169 55.8596 112.489 55.3796C111.829 54.8996 110.849 54.6496 109.549 54.6296L105.949 54.5696V60.8096L109.549 60.8396Z" fill="#163C51"/>
<path d="M94.0077 61.6496V49.6196H87.1077L86.9577 52.6796C86.9177 53.6796 86.8477 54.6496 86.7477 55.5896C86.6677 56.5096 86.5277 57.3596 86.3277 58.1396C86.1477 58.9196 85.8777 59.5596 85.5177 60.0596C85.1577 60.5596 84.6777 60.8696 84.0777 60.9896L81.2277 60.4796C81.8477 60.4996 82.3477 60.2996 82.7277 59.8796C83.1077 59.4396 83.3977 58.8396 83.5977 58.0796C83.8177 57.3196 83.9777 56.4596 84.0777 55.4996C84.1777 54.5196 84.2577 53.5096 84.3177 52.4696L84.5577 47.0996H96.8877V61.6496H94.0077ZM80.5977 66.6896V60.4796H99.3177V66.6896H96.6177V62.9996H83.3277V66.6896H80.5977Z" fill="#163C51"/>
<path d="M70.8562 63.1792C69.2562 63.1792 67.8362 62.8292 66.5962 62.1292C65.3562 61.4292 64.3762 60.4692 63.6562 59.2492C62.9362 58.0092 62.5762 56.6092 62.5762 55.0492C62.5762 53.4692 62.9362 52.0692 63.6562 50.8492C64.3762 49.6292 65.3562 48.6792 66.5962 47.9992C67.8362 47.2992 69.2562 46.9492 70.8562 46.9492C72.4362 46.9492 73.8462 47.2992 75.0862 47.9992C76.3462 48.6792 77.3262 49.6292 78.0262 50.8492C78.7462 52.0492 79.1062 53.4492 79.1062 55.0492C79.1062 56.6292 78.7462 58.0292 78.0262 59.2492C77.3262 60.4692 76.3462 61.4292 75.0862 62.1292C73.8462 62.8292 72.4362 63.1792 70.8562 63.1792ZM70.8562 60.6592C71.8762 60.6592 72.7862 60.4292 73.5862 59.9692C74.4062 59.5092 75.0462 58.8592 75.5062 58.0192C75.9662 57.1592 76.1962 56.1692 76.1962 55.0492C76.1962 53.9092 75.9662 52.9292 75.5062 52.1092C75.0462 51.2692 74.4062 50.6192 73.5862 50.1592C72.7862 49.6992 71.8762 49.4692 70.8562 49.4692C69.8362 49.4692 68.9262 49.6992 68.1262 50.1592C67.3262 50.6192 66.6862 51.2692 66.2062 52.1092C65.7262 52.9292 65.4862 53.9092 65.4862 55.0492C65.4862 56.1692 65.7262 57.1592 66.2062 58.0192C66.6862 58.8592 67.3262 59.5092 68.1262 59.9692C68.9262 60.4292 69.8362 60.6592 70.8562 60.6592Z" fill="#163C51"/>
<path d="M42.1875 62.9696L42.3675 60.5396C42.5075 60.5596 42.6375 60.5796 42.7575 60.5996C42.8775 60.6196 42.9875 60.6296 43.0875 60.6296C43.7275 60.6296 44.2275 60.4096 44.5875 59.9696C44.9675 59.5296 45.2475 58.9496 45.4275 58.2296C45.6075 57.4896 45.7375 56.6596 45.8175 55.7396C45.8975 54.8196 45.9575 53.8996 45.9975 52.9796L46.2675 47.0996H58.4775V62.9996H55.5975V48.7796L56.2875 49.6196H48.1275L48.7875 48.7496L48.5775 53.1596C48.5175 54.5596 48.4075 55.8696 48.2475 57.0896C48.0875 58.3096 47.8375 59.3796 47.4975 60.2996C47.1775 61.2196 46.7275 61.9396 46.1475 62.4596C45.5875 62.9796 44.8575 63.2396 43.9575 63.2396C43.6975 63.2396 43.4175 63.2096 43.1175 63.1496C42.8375 63.1096 42.5275 63.0496 42.1875 62.9696Z" fill="#163C51"/>
<path d="M32.5359 63.1792C30.9359 63.1792 29.5159 62.8292 28.2759 62.1292C27.0359 61.4292 26.0559 60.4692 25.3359 59.2492C24.6159 58.0092 24.2559 56.6092 24.2559 55.0492C24.2559 53.4692 24.6159 52.0692 25.3359 50.8492C26.0559 49.6292 27.0359 48.6792 28.2759 47.9992C29.5159 47.2992 30.9359 46.9492 32.5359 46.9492C34.1159 46.9492 35.5259 47.2992 36.7659 47.9992C38.0259 48.6792 39.0059 49.6292 39.7059 50.8492C40.4259 52.0492 40.7859 53.4492 40.7859 55.0492C40.7859 56.6292 40.4259 58.0292 39.7059 59.2492C39.0059 60.4692 38.0259 61.4292 36.7659 62.1292C35.5259 62.8292 34.1159 63.1792 32.5359 63.1792ZM32.5359 60.6592C33.5559 60.6592 34.4659 60.4292 35.2659 59.9692C36.0859 59.5092 36.7259 58.8592 37.1859 58.0192C37.6459 57.1592 37.8759 56.1692 37.8759 55.0492C37.8759 53.9092 37.6459 52.9292 37.1859 52.1092C36.7259 51.2692 36.0859 50.6192 35.2659 50.1592C34.4659 49.6992 33.5559 49.4692 32.5359 49.4692C31.5159 49.4692 30.6059 49.6992 29.8059 50.1592C29.0059 50.6192 28.3659 51.2692 27.8859 52.1092C27.4059 52.9292 27.1659 53.9092 27.1659 55.0492C27.1659 56.1692 27.4059 57.1592 27.8859 58.0192C28.3659 58.8592 29.0059 59.5092 29.8059 59.9692C30.6059 60.4292 31.5159 60.6592 32.5359 60.6592Z" fill="#163C51"/>
<path d="M1.79004 62.9996V47.0996H4.76004L11.6 58.8596H10.4L17.42 47.0996H20.12V62.9996H17.51V50.3396L17.99 50.6096L11.57 61.1996H10.31L3.86004 50.3996L4.43004 50.2796V62.9996H1.79004Z" fill="#163C51"/>
<path d="M438.815 20.9996V15.4196L439.265 15.9596H434.195C432.075 15.9596 430.415 15.5096 429.215 14.6096C428.035 13.7096 427.445 12.3996 427.445 10.6796C427.445 8.83961 428.075 7.44961 429.335 6.50961C430.615 5.56961 432.315 5.09961 434.435 5.09961H441.395V20.9996H438.815ZM427.295 20.9996L431.615 14.9096H434.585L430.385 20.9996H427.295ZM438.815 14.5196V6.80961L439.265 7.61961H434.525C433.205 7.61961 432.185 7.86961 431.465 8.36961C430.745 8.84961 430.385 9.64961 430.385 10.7696C430.385 12.8496 431.725 13.8896 434.405 13.8896H439.265L438.815 14.5196Z" fill="#163C51"/>
<path d="M406.787 20.9696L406.967 18.5396C407.107 18.5596 407.237 18.5796 407.357 18.5996C407.477 18.6196 407.587 18.6296 407.687 18.6296C408.327 18.6296 408.827 18.4096 409.187 17.9696C409.567 17.5296 409.847 16.9496 410.027 16.2296C410.207 15.4896 410.337 14.6596 410.417 13.7396C410.497 12.8196 410.557 11.8996 410.597 10.9796L410.867 5.09961H423.077V20.9996H420.197V6.77961L420.887 7.61961H412.727L413.387 6.74961L413.177 11.1596C413.117 12.5596 413.007 13.8696 412.847 15.0896C412.687 16.3096 412.437 17.3796 412.097 18.2996C411.777 19.2196 411.327 19.9396 410.747 20.4596C410.187 20.9796 409.457 21.2396 408.557 21.2396C408.297 21.2396 408.017 21.2096 407.717 21.1496C407.437 21.1096 407.127 21.0496 406.787 20.9696Z" fill="#163C51"/>
<path d="M400.365 19.6496V7.61961H393.465L393.315 10.6796C393.275 11.6796 393.205 12.6496 393.105 13.5896C393.025 14.5096 392.885 15.3596 392.685 16.1396C392.505 16.9196 392.235 17.5596 391.875 18.0596C391.515 18.5596 391.035 18.8696 390.435 18.9896L387.585 18.4796C388.205 18.4996 388.705 18.2996 389.085 17.8796C389.465 17.4396 389.755 16.8396 389.955 16.0796C390.175 15.3196 390.335 14.4596 390.435 13.4996C390.535 12.5196 390.615 11.5096 390.675 10.4696L390.915 5.09961H403.245V19.6496H400.365ZM386.955 24.6896V18.4796H405.675V24.6896H402.975V20.9996H389.685V24.6896H386.955Z" fill="#163C51"/>
<path d="M373.532 20.9992V17.6392L373.382 17.0092V11.2792C373.382 10.0592 373.022 9.11922 372.302 8.45922C371.602 7.77922 370.542 7.43922 369.122 7.43922C368.182 7.43922 367.262 7.59922 366.362 7.91922C365.462 8.21922 364.702 8.62922 364.082 9.14922L362.882 6.98922C363.702 6.32922 364.682 5.82922 365.822 5.48922C366.982 5.12922 368.192 4.94922 369.452 4.94922C371.632 4.94922 373.312 5.47922 374.492 6.53922C375.672 7.59922 376.262 9.21922 376.262 11.3992V20.9992H373.532ZM368.312 21.1792C367.132 21.1792 366.092 20.9792 365.192 20.5792C364.312 20.1792 363.632 19.6292 363.152 18.9292C362.672 18.2092 362.432 17.3992 362.432 16.4992C362.432 15.6392 362.632 14.8592 363.032 14.1592C363.452 13.4592 364.122 12.8992 365.042 12.4792C365.982 12.0592 367.242 11.8492 368.822 11.8492H373.862V13.9192H368.942C367.502 13.9192 366.532 14.1592 366.032 14.6392C365.532 15.1192 365.282 15.6992 365.282 16.3792C365.282 17.1592 365.592 17.7892 366.212 18.2692C366.832 18.7292 367.692 18.9592 368.792 18.9592C369.872 18.9592 370.812 18.7192 371.612 18.2392C372.432 17.7592 373.022 17.0592 373.382 16.1392L373.952 18.1192C373.572 19.0592 372.902 19.8092 371.942 20.3692C370.982 20.9092 369.772 21.1792 368.312 21.1792Z" fill="#163C51"/>
<path d="M351.703 21.1792C350.383 21.1792 349.173 20.8792 348.073 20.2792C346.993 19.6592 346.123 18.7492 345.463 17.5492C344.823 16.3492 344.503 14.8492 344.503 13.0492C344.503 11.2492 344.813 9.74922 345.433 8.54922C346.073 7.34922 346.933 6.44922 348.013 5.84922C349.113 5.24922 350.343 4.94922 351.703 4.94922C353.263 4.94922 354.643 5.28922 355.843 5.96922C357.043 6.64922 357.993 7.59922 358.693 8.81922C359.393 10.0192 359.743 11.4292 359.743 13.0492C359.743 14.6692 359.393 16.0892 358.693 17.3092C357.993 18.5292 357.043 19.4792 355.843 20.1592C354.643 20.8392 353.263 21.1792 351.703 21.1792ZM343.273 26.8192V5.09922H346.033V9.38922L345.853 13.0792L346.153 16.7692V26.8192H343.273ZM351.463 18.6592C352.483 18.6592 353.393 18.4292 354.193 17.9692C355.013 17.5092 355.653 16.8592 356.113 16.0192C356.593 15.1592 356.833 14.1692 356.833 13.0492C356.833 11.9092 356.593 10.9292 356.113 10.1092C355.653 9.26922 355.013 8.61922 354.193 8.15922C353.393 7.69922 352.483 7.46922 351.463 7.46922C350.463 7.46922 349.553 7.69922 348.733 8.15922C347.933 8.61922 347.293 9.26922 346.813 10.1092C346.353 10.9292 346.123 11.9092 346.123 13.0492C346.123 14.1692 346.353 15.1592 346.813 16.0192C347.293 16.8592 347.933 17.5092 348.733 17.9692C349.553 18.4292 350.463 18.6592 351.463 18.6592Z" fill="#163C51"/>
<path d="M328.626 20.9996V5.09961H340.326V7.61961H330.816L331.506 6.95961V20.9996H328.626Z" fill="#163C51"/>
<path d="M307.796 20.9996V5.09961H310.676V16.6796L320.426 5.09961H323.036V20.9996H320.156V9.41961L310.436 20.9996H307.796Z" fill="#163C51"/>
<path d="M291.54 20.9996V15.4196L291.99 15.9596H286.92C284.8 15.9596 283.14 15.5096 281.94 14.6096C280.76 13.7096 280.17 12.3996 280.17 10.6796C280.17 8.83961 280.8 7.44961 282.06 6.50961C283.34 5.56961 285.04 5.09961 287.16 5.09961H294.12V20.9996H291.54ZM280.02 20.9996L284.34 14.9096H287.31L283.11 20.9996H280.02ZM291.54 14.5196V6.80961L291.99 7.61961H287.25C285.93 7.61961 284.91 7.86961 284.19 8.36961C283.47 8.84961 283.11 9.64961 283.11 10.7696C283.11 12.8496 284.45 13.8896 287.13 13.8896H291.99L291.54 14.5196Z" fill="#163C51"/>
<path d="M273.454 20.9992V17.6392L273.304 17.0092V11.2792C273.304 10.0592 272.944 9.11922 272.224 8.45922C271.524 7.77922 270.464 7.43922 269.044 7.43922C268.104 7.43922 267.184 7.59922 266.284 7.91922C265.384 8.21922 264.624 8.62922 264.004 9.14922L262.804 6.98922C263.624 6.32922 264.603 5.82922 265.743 5.48922C266.903 5.12922 268.114 4.94922 269.374 4.94922C271.554 4.94922 273.234 5.47922 274.414 6.53922C275.594 7.59922 276.184 9.21922 276.184 11.3992V20.9992H273.454ZM268.234 21.1792C267.054 21.1792 266.014 20.9792 265.114 20.5792C264.234 20.1792 263.554 19.6292 263.074 18.9292C262.594 18.2092 262.354 17.3992 262.354 16.4992C262.354 15.6392 262.554 14.8592 262.954 14.1592C263.374 13.4592 264.044 12.8992 264.964 12.4792C265.904 12.0592 267.163 11.8492 268.743 11.8492H273.784V13.9192H268.864C267.424 13.9192 266.454 14.1592 265.954 14.6392C265.454 15.1192 265.204 15.6992 265.204 16.3792C265.204 17.1592 265.514 17.7892 266.134 18.2692C266.754 18.7292 267.614 18.9592 268.714 18.9592C269.794 18.9592 270.734 18.7192 271.534 18.2392C272.354 17.7592 272.944 17.0592 273.304 16.1392L273.874 18.1192C273.494 19.0592 272.824 19.8092 271.864 20.3692C270.904 20.9092 269.694 21.1792 268.234 21.1792Z" fill="#163C51"/>
<path d="M243.284 20.9996V5.09961H246.164V11.8496H255.224V5.09961H258.104V20.9996H255.224V14.3396H246.164V20.9996H243.284Z" fill="#163C51"/>
<path d="M233.378 10.4996C235.398 10.5196 236.938 10.9796 237.998 11.8796C239.058 12.7796 239.588 14.0496 239.588 15.6896C239.588 17.4096 239.008 18.7396 237.848 19.6796C236.688 20.5996 235.048 21.0496 232.928 21.0296L226.028 20.9996V5.09961H228.908V10.4696L233.378 10.4996ZM232.688 18.8396C233.988 18.8596 234.968 18.5996 235.628 18.0596C236.308 17.5196 236.648 16.7196 236.648 15.6596C236.648 14.6196 236.318 13.8596 235.658 13.3796C234.998 12.8996 234.008 12.6496 232.688 12.6296L228.908 12.5696V18.8096L232.688 18.8396Z" fill="#163C51"/>
<path d="M204.17 20.9696L204.35 18.5396C204.49 18.5596 204.62 18.5796 204.74 18.5996C204.86 18.6196 204.97 18.6296 205.07 18.6296C205.71 18.6296 206.21 18.4096 206.57 17.9696C206.95 17.5296 207.23 16.9496 207.41 16.2296C207.59 15.4896 207.72 14.6596 207.8 13.7396C207.88 12.8196 207.94 11.8996 207.98 10.9796L208.25 5.09961H220.46V20.9996H217.58V6.77961L218.27 7.61961H210.11L210.77 6.74961L210.56 11.1596C210.5 12.5596 210.39 13.8696 210.23 15.0896C210.07 16.3096 209.82 17.3796 209.48 18.2996C209.16 19.2196 208.71 19.9396 208.13 20.4596C207.57 20.9796 206.84 21.2396 205.94 21.2396C205.68 21.2396 205.4 21.2096 205.1 21.1496C204.82 21.1096 204.51 21.0496 204.17 20.9696Z" fill="#163C51"/>
<path d="M198.893 20.9992V17.6392L198.743 17.0092V11.2792C198.743 10.0592 198.383 9.11922 197.663 8.45922C196.963 7.77922 195.903 7.43922 194.483 7.43922C193.543 7.43922 192.623 7.59922 191.723 7.91922C190.823 8.21922 190.063 8.62922 189.443 9.14922L188.243 6.98922C189.063 6.32922 190.043 5.82922 191.183 5.48922C192.343 5.12922 193.553 4.94922 194.813 4.94922C196.993 4.94922 198.673 5.47922 199.853 6.53922C201.033 7.59922 201.623 9.21922 201.623 11.3992V20.9992H198.893ZM193.673 21.1792C192.493 21.1792 191.453 20.9792 190.553 20.5792C189.673 20.1792 188.993 19.6292 188.513 18.9292C188.033 18.2092 187.793 17.3992 187.793 16.4992C187.793 15.6392 187.993 14.8592 188.393 14.1592C188.813 13.4592 189.483 12.8992 190.403 12.4792C191.343 12.0592 192.603 11.8492 194.183 11.8492H199.223V13.9192H194.303C192.863 13.9192 191.893 14.1592 191.393 14.6392C190.893 15.1192 190.643 15.6992 190.643 16.3792C190.643 17.1592 190.953 17.7892 191.573 18.2692C192.193 18.7292 193.053 18.9592 194.153 18.9592C195.233 18.9592 196.173 18.7192 196.973 18.2392C197.793 17.7592 198.383 17.0592 198.743 16.1392L199.313 18.1192C198.933 19.0592 198.263 19.8092 197.303 20.3692C196.343 20.9092 195.133 21.1792 193.673 21.1792Z" fill="#163C51"/>
<path d="M168.724 20.9996V5.09961H171.604V11.8496H180.664V5.09961H183.544V20.9996H180.664V14.3396H171.604V20.9996H168.724Z" fill="#163C51"/>
<path d="M156.315 21.1792C154.715 21.1792 153.295 20.8292 152.055 20.1292C150.815 19.4292 149.835 18.4692 149.115 17.2492C148.395 16.0092 148.035 14.6092 148.035 13.0492C148.035 11.4692 148.395 10.0692 149.115 8.84922C149.835 7.62922 150.815 6.67922 152.055 5.99922C153.295 5.29922 154.715 4.94922 156.315 4.94922C157.895 4.94922 159.305 5.29922 160.545 5.99922C161.805 6.67922 162.785 7.62922 163.485 8.84922C164.205 10.0492 164.565 11.4492 164.565 13.0492C164.565 14.6292 164.205 16.0292 163.485 17.2492C162.785 18.4692 161.805 19.4292 160.545 20.1292C159.305 20.8292 157.895 21.1792 156.315 21.1792ZM156.315 18.6592C157.335 18.6592 158.245 18.4292 159.045 17.9692C159.865 17.5092 160.505 16.8592 160.965 16.0192C161.425 15.1592 161.655 14.1692 161.655 13.0492C161.655 11.9092 161.425 10.9292 160.965 10.1092C160.505 9.26922 159.865 8.61922 159.045 8.15922C158.245 7.69922 157.335 7.46922 156.315 7.46922C155.295 7.46922 154.385 7.69922 153.585 8.15922C152.785 8.61922 152.145 9.26922 151.665 10.1092C151.185 10.9292 150.945 11.9092 150.945 13.0492C150.945 14.1692 151.185 15.1592 151.665 16.0192C152.145 16.8592 152.785 17.5092 153.585 17.9692C154.385 18.4292 155.295 18.6592 156.315 18.6592Z" fill="#163C51"/>
<path d="M128.675 20.9996V5.09961H131.555V16.6796L141.305 5.09961H143.915V20.9996H141.035V9.41961L131.315 20.9996H128.675Z" fill="#163C51"/>
<path d="M114.026 20.9996V5.09961H125.726V7.61961H116.216L116.906 6.95961V20.9996H114.026Z" fill="#163C51"/>
<path d="M102.269 21.1792C100.569 21.1792 99.0688 20.8292 97.7688 20.1292C96.4888 19.4292 95.4888 18.4692 94.7688 17.2492C94.0688 16.0292 93.7188 14.6292 93.7188 13.0492C93.7188 11.4692 94.0587 10.0692 94.7387 8.84922C95.4387 7.62922 96.3888 6.67922 97.5888 5.99922C98.8088 5.29922 100.179 4.94922 101.699 4.94922C103.239 4.94922 104.599 5.28922 105.779 5.96922C106.959 6.64922 107.879 7.60922 108.539 8.84922C109.219 10.0692 109.559 11.4992 109.559 13.1392C109.559 13.2592 109.549 13.3992 109.529 13.5592C109.529 13.7192 109.519 13.8692 109.499 14.0092H95.9688V11.9392H107.999L106.829 12.6592C106.849 11.6392 106.639 10.7292 106.199 9.92922C105.759 9.12922 105.149 8.50922 104.369 8.06922C103.609 7.60922 102.719 7.37922 101.699 7.37922C100.699 7.37922 99.8087 7.60922 99.0287 8.06922C98.2487 8.50922 97.6388 9.13922 97.1988 9.95922C96.7588 10.7592 96.5387 11.6792 96.5387 12.7192V13.1992C96.5387 14.2592 96.7788 15.2092 97.2588 16.0492C97.7588 16.8692 98.4488 17.5092 99.3288 17.9692C100.209 18.4292 101.219 18.6592 102.359 18.6592C103.299 18.6592 104.149 18.4992 104.909 18.1792C105.689 17.8592 106.369 17.3792 106.949 16.7392L108.539 18.5992C107.819 19.4392 106.919 20.0792 105.839 20.5192C104.779 20.9592 103.589 21.1792 102.269 21.1792Z" fill="#163C51"/>
<path d="M82.9642 21.1792C81.6442 21.1792 80.4342 20.8792 79.3342 20.2792C78.2542 19.6592 77.3842 18.7492 76.7242 17.5492C76.0842 16.3492 75.7642 14.8492 75.7642 13.0492C75.7642 11.2492 76.0742 9.74922 76.6942 8.54922C77.3342 7.34922 78.1942 6.44922 79.2742 5.84922C80.3742 5.24922 81.6042 4.94922 82.9642 4.94922C84.5242 4.94922 85.9042 5.28922 87.1042 5.96922C88.3042 6.64922 89.2542 7.59922 89.9542 8.81922C90.6542 10.0192 91.0042 11.4292 91.0042 13.0492C91.0042 14.6692 90.6542 16.0892 89.9542 17.3092C89.2542 18.5292 88.3042 19.4792 87.1042 20.1592C85.9042 20.8392 84.5242 21.1792 82.9642 21.1792ZM74.5342 26.8192V5.09922H77.2942V9.38922L77.1142 13.0792L77.4142 16.7692V26.8192H74.5342ZM82.7242 18.6592C83.7442 18.6592 84.6542 18.4292 85.4542 17.9692C86.2742 17.5092 86.9142 16.8592 87.3742 16.0192C87.8542 15.1592 88.0942 14.1692 88.0942 13.0492C88.0942 11.9092 87.8542 10.9292 87.3742 10.1092C86.9142 9.26922 86.2742 8.61922 85.4542 8.15922C84.6542 7.69922 83.7442 7.46922 82.7242 7.46922C81.7242 7.46922 80.8142 7.69922 79.9942 8.15922C79.1942 8.61922 78.5542 9.26922 78.0742 10.1092C77.6142 10.9292 77.3842 11.9092 77.3842 13.0492C77.3842 14.1692 77.6142 15.1592 78.0742 16.0192C78.5542 16.8592 79.1942 17.5092 79.9942 17.9692C80.8142 18.4292 81.7242 18.6592 82.7242 18.6592Z" fill="#163C51"/>
<path d="M67.9448 20.9996L62.8748 13.2596L65.2448 11.8196L71.3648 20.9996H67.9448ZM59.5748 14.2796V11.8196H64.7348V14.2796H59.5748ZM65.5148 13.3796L62.7848 13.0196L67.8548 5.09961H70.9448L65.5148 13.3796ZM50.0948 20.9996H46.6748L52.7648 11.8196L55.1348 13.2596L50.0948 20.9996ZM60.4448 20.9996H57.5648V5.09961H60.4448V20.9996ZM58.4348 14.2796H53.3048V11.8196H58.4348V14.2796ZM52.5248 13.3796L47.0948 5.09961H50.1548L55.2248 13.0196L52.5248 13.3796Z" fill="#163C51"/>
<path d="M37.757 21.1792C36.057 21.1792 34.557 20.8292 33.257 20.1292C31.977 19.4292 30.977 18.4692 30.257 17.2492C29.557 16.0292 29.207 14.6292 29.207 13.0492C29.207 11.4692 29.547 10.0692 30.227 8.84922C30.927 7.62922 31.877 6.67922 33.077 5.99922C34.297 5.29922 35.667 4.94922 37.187 4.94922C38.727 4.94922 40.087 5.28922 41.267 5.96922C42.447 6.64922 43.367 7.60922 44.027 8.84922C44.707 10.0692 45.047 11.4992 45.047 13.1392C45.047 13.2592 45.037 13.3992 45.017 13.5592C45.017 13.7192 45.007 13.8692 44.987 14.0092H31.457V11.9392H43.487L42.317 12.6592C42.337 11.6392 42.127 10.7292 41.687 9.92922C41.247 9.12922 40.637 8.50922 39.857 8.06922C39.097 7.60922 38.207 7.37922 37.187 7.37922C36.187 7.37922 35.297 7.60922 34.517 8.06922C33.737 8.50922 33.127 9.13922 32.687 9.95922C32.247 10.7592 32.027 11.6792 32.027 12.7192V13.1992C32.027 14.2592 32.267 15.2092 32.747 16.0492C33.247 16.8692 33.937 17.5092 34.817 17.9692C35.697 18.4292 36.707 18.6592 37.847 18.6592C38.787 18.6592 39.637 18.4992 40.397 18.1792C41.177 17.8592 41.857 17.3792 42.437 16.7392L44.027 18.5992C43.307 19.4392 42.407 20.0792 41.327 20.5192C40.267 20.9592 39.077 21.1792 37.757 21.1792Z" fill="#163C51"/>
<path d="M2.26953 21V0H4.72953L14.1495 15.87H12.8295L22.1295 0H24.5895L24.6195 21H21.7395L21.7095 4.53H22.3995L14.1195 18.45H12.7395L4.39953 4.53H5.14953V21H2.26953Z" fill="#163C51"/>
</svg>
