<svg width="592" height="110" viewBox="0 0 592 110" fill="none" xmlns="http://www.w3.org/2000/svg">
<path d="M589.867 103.193C589.27 103.193 588.758 102.99 588.331 102.585C587.905 102.158 587.691 101.625 587.691 100.985C587.691 100.345 587.905 99.8219 588.331 99.4166C588.758 99.0113 589.27 98.8086 589.867 98.8086C590.443 98.8086 590.934 99.0113 591.339 99.4166C591.766 99.8219 591.979 100.345 591.979 100.985C591.979 101.625 591.766 102.158 591.339 102.585C590.934 102.99 590.443 103.193 589.867 103.193Z" fill="white"/>
<path d="M566.977 102.999V86.0391H570.049V98.3911L580.449 86.0391H583.233V102.999H580.161V90.6471L569.793 102.999H566.977Z" fill="white"/>
<path d="M541.445 102.999V86.0391H544.613L551.909 98.5831H550.629L558.117 86.0391H560.997V102.999H558.213V89.4951L558.725 89.7831L551.877 101.079H550.533L543.653 89.5591L544.261 89.4311V102.999H541.445Z" fill="white"/>
<path d="M532.699 102.999V97.0471L533.179 97.6231H527.771C525.51 97.6231 523.739 97.1431 522.459 96.1831C521.2 95.2231 520.571 93.8257 520.571 91.9911C520.571 90.0284 521.243 88.5457 522.587 87.5431C523.952 86.5404 525.766 86.0391 528.027 86.0391H535.451V102.999H532.699ZM520.411 102.999L525.019 96.5031H528.187L523.707 102.999H520.411ZM532.699 96.0871V87.8631L533.179 88.7271H528.123C526.715 88.7271 525.627 88.9937 524.859 89.5271C524.091 90.0391 523.707 90.8924 523.707 92.0871C523.707 94.3057 525.136 95.4151 527.995 95.4151H533.179L532.699 96.0871Z" fill="white"/>
<path d="M509.712 102.999V87.9271L510.48 88.7271H503.504V86.0391H518.992V88.7271H512.048L512.784 87.9271V102.999H509.712Z" fill="white"/>
<path d="M495.681 103.191C493.953 103.191 492.406 102.818 491.041 102.071C489.697 101.324 488.641 100.3 487.873 98.9989C487.105 97.6976 486.721 96.2042 486.721 94.5189C486.721 92.8336 487.105 91.3402 487.873 90.0389C488.641 88.7376 489.697 87.7242 491.041 86.9989C492.406 86.2522 493.953 85.8789 495.681 85.8789C497.217 85.8789 498.582 86.1882 499.777 86.8069C500.993 87.4042 501.931 88.3002 502.593 89.4949L500.257 90.9989C499.702 90.1669 499.019 89.5589 498.209 89.1749C497.419 88.7696 496.566 88.5669 495.649 88.5669C494.539 88.5669 493.547 88.8122 492.673 89.3029C491.798 89.7936 491.105 90.4869 490.593 91.3829C490.081 92.2576 489.825 93.3029 489.825 94.5189C489.825 95.7349 490.081 96.7909 490.593 97.6869C491.105 98.5829 491.798 99.2762 492.673 99.7669C493.547 100.258 494.539 100.503 495.649 100.503C496.566 100.503 497.419 100.311 498.209 99.9269C499.019 99.5216 499.702 98.9029 500.257 98.0709L502.593 99.5429C501.931 100.716 500.993 101.623 499.777 102.263C498.582 102.882 497.217 103.191 495.681 103.191Z" fill="white"/>
<path d="M475.053 103.191C473.346 103.191 471.831 102.818 470.509 102.071C469.186 101.324 468.141 100.3 467.373 98.9989C466.605 97.6762 466.221 96.1829 466.221 94.5189C466.221 92.8336 466.605 91.3402 467.373 90.0389C468.141 88.7376 469.186 87.7242 470.509 86.9989C471.831 86.2522 473.346 85.8789 475.053 85.8789C476.738 85.8789 478.242 86.2522 479.565 86.9989C480.909 87.7242 481.954 88.7376 482.701 90.0389C483.469 91.3189 483.853 92.8122 483.853 94.5189C483.853 96.2042 483.469 97.6976 482.701 98.9989C481.954 100.3 480.909 101.324 479.565 102.071C478.242 102.818 476.738 103.191 475.053 103.191ZM475.053 100.503C476.141 100.503 477.111 100.258 477.965 99.7669C478.839 99.2762 479.522 98.5829 480.013 97.6869C480.503 96.7696 480.749 95.7136 480.749 94.5189C480.749 93.3029 480.503 92.2576 480.013 91.3829C479.522 90.4869 478.839 89.7936 477.965 89.3029C477.111 88.8122 476.141 88.5669 475.053 88.5669C473.965 88.5669 472.994 88.8122 472.141 89.3029C471.287 89.7936 470.605 90.4869 470.093 91.3829C469.581 92.2576 469.325 93.3029 469.325 94.5189C469.325 95.7136 469.581 96.7696 470.093 97.6869C470.605 98.5829 471.287 99.2762 472.141 99.7669C472.994 100.258 473.965 100.503 475.053 100.503Z" fill="white"/>
<path d="M446.008 102.999V86.0391H449.08V93.2391H458.744V86.0391H461.816V102.999H458.744V95.8951H449.08V102.999H446.008Z" fill="white"/>
<path d="M438.979 102.999L433.571 94.7431L436.099 93.2071L442.627 102.999H438.979ZM430.051 95.8311V93.2071H435.555V95.8311H430.051ZM436.387 94.8711L433.475 94.4871L438.883 86.0391H442.179L436.387 94.8711ZM419.939 102.999H416.291L422.787 93.2071L425.315 94.7431L419.939 102.999ZM430.979 102.999H427.907V86.0391H430.979V102.999ZM428.835 95.8311H423.363V93.2071H428.835V95.8311ZM422.531 94.8711L416.739 86.0391H420.003L425.411 94.4871L422.531 94.8711Z" fill="white"/>
<path d="M406.178 103.191C404.471 103.191 402.956 102.818 401.634 102.071C400.311 101.324 399.266 100.3 398.498 98.9989C397.73 97.6762 397.346 96.1829 397.346 94.5189C397.346 92.8336 397.73 91.3402 398.498 90.0389C399.266 88.7376 400.311 87.7242 401.634 86.9989C402.956 86.2522 404.471 85.8789 406.178 85.8789C407.863 85.8789 409.367 86.2522 410.69 86.9989C412.034 87.7242 413.079 88.7376 413.826 90.0389C414.594 91.3189 414.978 92.8122 414.978 94.5189C414.978 96.2042 414.594 97.6976 413.826 98.9989C413.079 100.3 412.034 101.324 410.69 102.071C409.367 102.818 407.863 103.191 406.178 103.191ZM406.178 100.503C407.266 100.503 408.236 100.258 409.09 99.7669C409.964 99.2762 410.647 98.5829 411.138 97.6869C411.628 96.7696 411.874 95.7136 411.874 94.5189C411.874 93.3029 411.628 92.2576 411.138 91.3829C410.647 90.4869 409.964 89.7936 409.09 89.3029C408.236 88.8122 407.266 88.5669 406.178 88.5669C405.09 88.5669 404.119 88.8122 403.266 89.3029C402.412 89.7936 401.73 90.4869 401.218 91.3829C400.706 92.2576 400.45 93.3029 400.45 94.5189C400.45 95.7136 400.706 96.7696 401.218 97.6869C401.73 98.5829 402.412 99.2762 403.266 99.7669C404.119 100.258 405.09 100.503 406.178 100.503Z" fill="white"/>
<path d="M373.383 102.999V86.0391H376.551L383.847 98.5831H382.567L390.055 86.0391H392.935V102.999H390.151V89.4951L390.663 89.7831L383.815 101.079H382.471L375.591 89.5591L376.199 89.4311V102.999H373.383Z" fill="white"/>
<path d="M360.936 103.223C359.656 103.223 358.398 103.063 357.16 102.743C355.944 102.402 354.856 101.922 353.896 101.303L354.824 98.967C355.635 99.479 356.563 99.8843 357.608 100.183C358.654 100.46 359.71 100.599 360.776 100.599C361.758 100.599 362.601 100.482 363.305 100.247C364.03 100.012 364.584 99.6923 364.968 99.287C365.352 98.8603 365.544 98.3697 365.544 97.815C365.544 97.0257 365.192 96.4177 364.488 95.991C363.784 95.5643 362.803 95.351 361.544 95.351H358.472V93.143H361.352C362.099 93.143 362.75 93.0577 363.305 92.887C363.859 92.7163 364.286 92.4603 364.585 92.119C364.905 91.7563 365.064 91.3403 365.064 90.871C365.064 90.359 364.883 89.9217 364.52 89.559C364.158 89.1963 363.646 88.919 362.984 88.727C362.344 88.535 361.587 88.439 360.712 88.439C359.859 88.4603 358.985 88.5777 358.089 88.791C357.214 89.0043 356.318 89.335 355.4 89.783L354.568 87.383C355.592 86.8923 356.595 86.519 357.576 86.263C358.579 85.9857 359.571 85.8363 360.552 85.815C362.024 85.7723 363.336 85.943 364.488 86.327C365.64 86.6897 366.547 87.223 367.208 87.927C367.891 88.631 368.232 89.463 368.232 90.423C368.232 91.2337 367.976 91.959 367.464 92.599C366.952 93.2177 366.27 93.7083 365.417 94.071C364.563 94.4337 363.582 94.615 362.472 94.615L362.6 93.879C364.499 93.879 365.992 94.2523 367.08 94.999C368.168 95.7457 368.712 96.759 368.712 98.039C368.712 99.063 368.371 99.9697 367.688 100.759C367.006 101.527 366.078 102.135 364.904 102.583C363.752 103.01 362.43 103.223 360.936 103.223Z" fill="white"/>
<path d="M342.928 103.191C341.221 103.191 339.706 102.818 338.384 102.071C337.061 101.324 336.016 100.3 335.248 98.9989C334.48 97.6762 334.096 96.1829 334.096 94.5189C334.096 92.8336 334.48 91.3402 335.248 90.0389C336.016 88.7376 337.061 87.7242 338.384 86.9989C339.706 86.2522 341.221 85.8789 342.928 85.8789C344.613 85.8789 346.117 86.2522 347.44 86.9989C348.784 87.7242 349.829 88.7376 350.576 90.0389C351.344 91.3189 351.728 92.8122 351.728 94.5189C351.728 96.2042 351.344 97.6976 350.576 98.9989C349.829 100.3 348.784 101.324 347.44 102.071C346.117 102.818 344.613 103.191 342.928 103.191ZM342.928 100.503C344.016 100.503 344.986 100.258 345.84 99.7669C346.714 99.2762 347.397 98.5829 347.888 97.6869C348.378 96.7696 348.624 95.7136 348.624 94.5189C348.624 93.3029 348.378 92.2576 347.888 91.3829C347.397 90.4869 346.714 89.7936 345.84 89.3029C344.986 88.8122 344.016 88.5669 342.928 88.5669C341.84 88.5669 340.869 88.8122 340.016 89.3029C339.162 89.7936 338.48 90.4869 337.968 91.3829C337.456 92.2576 337.2 93.3029 337.2 94.5189C337.2 95.7136 337.456 96.7696 337.968 97.6869C338.48 98.5829 339.162 99.2762 340.016 99.7669C340.869 100.258 341.84 100.503 342.928 100.503Z" fill="white"/>
<path d="M316.008 102.999V86.0391H323.88C325.864 86.0391 327.421 86.4231 328.552 87.1911C329.704 87.9377 330.28 89.0044 330.28 90.3911C330.28 91.7777 329.736 92.8551 328.648 93.6231C327.581 94.3697 326.162 94.7431 324.392 94.7431L324.872 93.9111C326.898 93.9111 328.402 94.2844 329.384 95.0311C330.365 95.7777 330.856 96.8764 330.856 98.3271C330.856 99.7991 330.301 100.951 329.192 101.783C328.104 102.594 326.429 102.999 324.168 102.999H316.008ZM319.016 100.631H323.944C325.224 100.631 326.184 100.439 326.824 100.055C327.464 99.6497 327.784 99.0097 327.784 98.1351C327.784 97.2391 327.485 96.5884 326.888 96.1831C326.312 95.7564 325.394 95.5431 324.136 95.5431H319.016V100.631ZM319.016 93.3351H323.624C324.797 93.3351 325.682 93.1217 326.28 92.6951C326.898 92.2471 327.208 91.6284 327.208 90.8391C327.208 90.0284 326.898 89.4204 326.28 89.0151C325.682 88.6097 324.797 88.4071 323.624 88.4071H319.016V93.3351Z" fill="white"/>
<path d="M285.195 102.999V86.0391H288.267V98.3911L298.667 86.0391H301.451V102.999H298.379V90.6471L288.011 102.999H285.195Z" fill="white"/>
<path d="M259.664 102.999V86.0391H262.832L270.128 98.5831H268.848L276.336 86.0391H279.216V102.999H276.432V89.4951L276.944 89.7831L270.096 101.079H268.752L261.872 89.5591L262.48 89.4311V102.999H259.664Z" fill="white"/>
<path d="M250.62 102.999V86.0391H253.692V102.999H250.62ZM241.5 91.7991C243.654 91.8204 245.286 92.3111 246.396 93.2711C247.526 94.2311 248.092 95.5857 248.092 97.3351C248.092 99.1697 247.473 100.588 246.236 101.591C245.02 102.572 243.27 103.052 240.988 103.031L233.852 102.999V86.0391H236.924V91.7671L241.5 91.7991ZM240.764 100.695C242.129 100.716 243.174 100.439 243.9 99.8631C244.625 99.2871 244.988 98.4337 244.988 97.3031C244.988 96.1937 244.625 95.3831 243.9 94.8711C243.196 94.3591 242.15 94.0924 240.764 94.0711L236.924 94.0071V100.663L240.764 100.695Z" fill="white"/>
<path d="M212.07 102.999V86.0391H215.142V93.2391H224.806V86.0391H227.878V102.999H224.806V95.8951H215.142V102.999H212.07Z" fill="white"/>
<path d="M190.289 102.999V86.0391H193.361V93.2391H203.025V86.0391H206.097V102.999H203.025V95.8951H193.361V102.999H190.289Z" fill="white"/>
<path d="M177.747 103.191C175.934 103.191 174.334 102.818 172.947 102.071C171.582 101.324 170.515 100.3 169.747 98.9989C169 97.6976 168.627 96.2042 168.627 94.5189C168.627 92.8336 168.99 91.3402 169.715 90.0389C170.462 88.7376 171.475 87.7242 172.755 86.9989C174.056 86.2522 175.518 85.8789 177.139 85.8789C178.782 85.8789 180.232 86.2416 181.491 86.9669C182.75 87.6922 183.731 88.7162 184.435 90.0389C185.16 91.3402 185.523 92.8656 185.523 94.6149C185.523 94.7429 185.512 94.8922 185.491 95.0629C185.491 95.2336 185.48 95.3936 185.459 95.5429H171.027V93.3349H183.859L182.611 94.1029C182.632 93.0149 182.408 92.0442 181.939 91.1909C181.47 90.3376 180.819 89.6762 179.987 89.2069C179.176 88.7162 178.227 88.4709 177.139 88.4709C176.072 88.4709 175.123 88.7162 174.291 89.2069C173.459 89.6762 172.808 90.3482 172.339 91.2229C171.87 92.0762 171.635 93.0576 171.635 94.1669V94.6789C171.635 95.8096 171.891 96.8229 172.403 97.7189C172.936 98.5936 173.672 99.2762 174.611 99.7669C175.55 100.258 176.627 100.503 177.843 100.503C178.846 100.503 179.752 100.332 180.563 99.9909C181.395 99.6496 182.12 99.1376 182.739 98.4549L184.435 100.439C183.667 101.335 182.707 102.018 181.555 102.487C180.424 102.956 179.155 103.191 177.747 103.191Z" fill="white"/>
<path d="M161.383 96.0551C160.487 96.4817 159.559 96.8231 158.599 97.0791C157.661 97.3137 156.69 97.4311 155.687 97.4311C153.639 97.4311 152.018 96.9511 150.823 95.9911C149.65 95.0311 149.063 93.5484 149.063 91.5431V86.0391H152.135V91.3511C152.135 92.5671 152.509 93.4631 153.255 94.0391C154.023 94.6151 155.047 94.9031 156.327 94.9031C157.138 94.9031 157.97 94.7964 158.823 94.5831C159.698 94.3697 160.551 94.0711 161.383 93.6871V96.0551ZM161.159 102.999V86.0391H164.231V102.999H161.159Z" fill="white"/>
<path d="M128.477 102.999V86.0391H131.549V98.3911L141.949 86.0391H144.733V102.999H141.661V90.6471L131.293 102.999H128.477Z" fill="white"/>
<path d="M106.695 102.999V86.0391H109.767V93.2391H119.431V86.0391H122.503V102.999H119.431V95.8951H109.767V102.999H106.695Z" fill="white"/>
<path d="M98.2511 102.999V99.4149L98.0911 98.7429V92.6309C98.0911 91.3296 97.7071 90.3269 96.9391 89.6229C96.1925 88.8976 95.0618 88.5349 93.5471 88.5349C92.5445 88.5349 91.5631 88.7056 90.6031 89.0469C89.6431 89.3669 88.8325 89.8042 88.1711 90.3589L86.8911 88.0549C87.7658 87.3509 88.8111 86.8176 90.0271 86.4549C91.2645 86.0709 92.5551 85.8789 93.8991 85.8789C96.2245 85.8789 98.0165 86.4442 99.2751 87.5749C100.534 88.7056 101.163 90.4336 101.163 92.7589V102.999H98.2511ZM92.6831 103.191C91.4245 103.191 90.3151 102.978 89.3551 102.551C88.4165 102.124 87.6911 101.538 87.1791 100.791C86.6671 100.023 86.4111 99.1589 86.4111 98.1989C86.4111 97.2816 86.6245 96.4496 87.0511 95.7029C87.4991 94.9562 88.2138 94.3589 89.1951 93.9109C90.1978 93.4629 91.5418 93.2389 93.2271 93.2389H98.6031V95.4469H93.3551C91.8191 95.4469 90.7845 95.7029 90.2511 96.2149C89.7178 96.7269 89.4511 97.3456 89.4511 98.0709C89.4511 98.9029 89.7818 99.5749 90.4431 100.087C91.1045 100.578 92.0218 100.823 93.1951 100.823C94.3471 100.823 95.3498 100.567 96.2031 100.055C97.0778 99.5429 97.7071 98.7962 98.0911 97.8149L98.6991 99.9269C98.2938 100.93 97.5791 101.73 96.5551 102.327C95.5311 102.903 94.2405 103.191 92.6831 103.191Z" fill="white"/>
<path d="M74.9686 103.191C73.5606 103.191 72.2699 102.871 71.0966 102.231C69.9446 101.57 69.0166 100.599 68.3126 99.3189C67.6299 98.0389 67.2886 96.4389 67.2886 94.5189C67.2886 92.5989 67.6192 90.9989 68.2806 89.7189C68.9632 88.4389 69.8806 87.4789 71.0326 86.8389C72.2059 86.1989 73.5179 85.8789 74.9686 85.8789C76.6326 85.8789 78.1046 86.2416 79.3846 86.9669C80.6646 87.6922 81.6779 88.7056 82.4246 90.0069C83.1712 91.2869 83.5446 92.7909 83.5446 94.5189C83.5446 96.2469 83.1712 97.7616 82.4246 99.0629C81.6779 100.364 80.6646 101.378 79.3846 102.103C78.1046 102.828 76.6326 103.191 74.9686 103.191ZM65.9766 109.207V86.0389H68.9206V90.6149L68.7286 94.5509L69.0486 98.4869V109.207H65.9766ZM74.7126 100.503C75.8006 100.503 76.7712 100.258 77.6246 99.7669C78.4992 99.2762 79.1819 98.5829 79.6726 97.6869C80.1846 96.7696 80.4406 95.7136 80.4406 94.5189C80.4406 93.3029 80.1846 92.2576 79.6726 91.3829C79.1819 90.4869 78.4992 89.7936 77.6246 89.3029C76.7712 88.8122 75.8006 88.5669 74.7126 88.5669C73.6459 88.5669 72.6752 88.8122 71.8006 89.3029C70.9472 89.7936 70.2646 90.4869 69.7526 91.3829C69.2619 92.2576 69.0166 93.3029 69.0166 94.5189C69.0166 95.7136 69.2619 96.7696 69.7526 97.6869C70.2646 98.5829 70.9472 99.2762 71.8006 99.7669C72.6752 100.258 73.6459 100.503 74.7126 100.503Z" fill="white"/>
<path d="M50.3516 102.999V86.0391H62.8316V88.7271H52.6876L53.4236 88.0231V102.999H50.3516Z" fill="white"/>
<path d="M37.1152 103.191C35.4085 103.191 33.8939 102.818 32.5712 102.071C31.2485 101.324 30.2032 100.3 29.4352 98.9989C28.6672 97.6762 28.2832 96.1829 28.2832 94.5189C28.2832 92.8336 28.6672 91.3402 29.4352 90.0389C30.2032 88.7376 31.2485 87.7242 32.5712 86.9989C33.8939 86.2522 35.4085 85.8789 37.1152 85.8789C38.8005 85.8789 40.3045 86.2522 41.6272 86.9989C42.9712 87.7242 44.0165 88.7376 44.7632 90.0389C45.5312 91.3189 45.9152 92.8122 45.9152 94.5189C45.9152 96.2042 45.5312 97.6976 44.7632 98.9989C44.0165 100.3 42.9712 101.324 41.6272 102.071C40.3045 102.818 38.8005 103.191 37.1152 103.191ZM37.1152 100.503C38.2032 100.503 39.1739 100.258 40.0272 99.7669C40.9019 99.2762 41.5845 98.5829 42.0752 97.6869C42.5659 96.7696 42.8112 95.7136 42.8112 94.5189C42.8112 93.3029 42.5659 92.2576 42.0752 91.3829C41.5845 90.4869 40.9019 89.7936 40.0272 89.3029C39.1739 88.8122 38.2032 88.5669 37.1152 88.5669C36.0272 88.5669 35.0565 88.8122 34.2032 89.3029C33.3499 89.7936 32.6672 90.4869 32.1552 91.3829C31.6432 92.2576 31.3872 93.3029 31.3872 94.5189C31.3872 95.7136 31.6432 96.7696 32.1552 97.6869C32.6672 98.5829 33.3499 99.2762 34.2032 99.7669C35.0565 100.258 36.0272 100.503 37.1152 100.503Z" fill="white"/>
<path d="M10.3682 103.191C8.6402 103.191 7.09354 102.818 5.7282 102.071C4.3842 101.324 3.3282 100.3 2.5602 98.9989C1.7922 97.6976 1.4082 96.2042 1.4082 94.5189C1.4082 92.8336 1.7922 91.3402 2.5602 90.0389C3.3282 88.7376 4.3842 87.7242 5.7282 86.9989C7.09354 86.2522 8.6402 85.8789 10.3682 85.8789C11.9042 85.8789 13.2695 86.1882 14.4642 86.8069C15.6802 87.4042 16.6189 88.3002 17.2802 89.4949L14.9442 90.9989C14.3895 90.1669 13.7069 89.5589 12.8962 89.1749C12.1069 88.7696 11.2535 88.5669 10.3362 88.5669C9.22687 88.5669 8.23487 88.8122 7.3602 89.3029C6.48554 89.7936 5.7922 90.4869 5.2802 91.3829C4.7682 92.2576 4.5122 93.3029 4.5122 94.5189C4.5122 95.7349 4.7682 96.7909 5.2802 97.6869C5.7922 98.5829 6.48554 99.2762 7.3602 99.7669C8.23487 100.258 9.22687 100.503 10.3362 100.503C11.2535 100.503 12.1069 100.311 12.8962 99.9269C13.7069 99.5216 14.3895 98.9029 14.9442 98.0709L17.2802 99.5429C16.6189 100.716 15.6802 101.623 14.4642 102.263C13.2695 102.882 11.9042 103.191 10.3682 103.191Z" fill="white"/>
<path d="M315.195 64V47.04H318.267V59.392L328.667 47.04H331.451V64H328.379V51.648L318.011 64H315.195ZM323.131 44.832C321.574 44.832 320.347 44.4587 319.451 43.712C318.577 42.944 318.129 41.8453 318.107 40.416H320.187C320.209 41.2267 320.475 41.8667 320.987 42.336C321.521 42.8053 322.225 43.04 323.099 43.04C323.974 43.04 324.678 42.8053 325.211 42.336C325.745 41.8667 326.022 41.2267 326.043 40.416H328.187C328.166 41.8453 327.707 42.944 326.811 43.712C325.915 44.4587 324.689 44.832 323.131 44.832Z" fill="white"/>
<path d="M302.653 64.1909C300.84 64.1909 299.24 63.8176 297.853 63.0709C296.488 62.3242 295.421 61.3002 294.653 59.9989C293.907 58.6976 293.533 57.2042 293.533 55.5189C293.533 53.8336 293.896 52.3402 294.621 51.0389C295.368 49.7376 296.381 48.7242 297.661 47.9989C298.963 47.2522 300.424 46.8789 302.045 46.8789C303.688 46.8789 305.139 47.2416 306.397 47.9669C307.656 48.6922 308.637 49.7162 309.341 51.0389C310.067 52.3402 310.429 53.8656 310.429 55.6149C310.429 55.7429 310.419 55.8922 310.397 56.0629C310.397 56.2336 310.387 56.3936 310.365 56.5429H295.933V54.3349H308.765L307.517 55.1029C307.539 54.0149 307.315 53.0442 306.845 52.1909C306.376 51.3376 305.725 50.6762 304.893 50.2069C304.083 49.7162 303.133 49.4709 302.045 49.4709C300.979 49.4709 300.029 49.7162 299.197 50.2069C298.365 50.6762 297.715 51.3482 297.245 52.2229C296.776 53.0762 296.541 54.0576 296.541 55.1669V55.6789C296.541 56.8096 296.797 57.8229 297.309 58.7189C297.843 59.5936 298.579 60.2762 299.517 60.7669C300.456 61.2576 301.533 61.5029 302.749 61.5029C303.752 61.5029 304.659 61.3322 305.469 60.9909C306.301 60.6496 307.027 60.1376 307.645 59.4549L309.341 61.4389C308.573 62.3349 307.613 63.0176 306.461 63.4869C305.331 63.9562 304.061 64.1909 302.653 64.1909Z" fill="white"/>
<path d="M285.436 62.5591V49.7271H278.076L277.916 52.9911C277.873 54.0577 277.799 55.0924 277.692 56.0951C277.607 57.0764 277.457 57.9831 277.244 58.8151C277.052 59.6471 276.764 60.3297 276.38 60.8631C275.996 61.3964 275.484 61.7271 274.844 61.8551L271.804 61.3111C272.465 61.3324 272.999 61.1191 273.404 60.6711C273.809 60.2017 274.118 59.5617 274.332 58.7511C274.566 57.9404 274.737 57.0231 274.844 55.9991C274.95 54.9537 275.036 53.8764 275.1 52.7671L275.356 47.0391H288.508V62.5591H285.436ZM271.132 67.9351V61.3111H291.1V67.9351H288.22V63.9991H274.044V67.9351H271.132Z" fill="white"/>
<path d="M245.945 63.9989V47.0389H249.017V53.9829H254.137V56.8309H249.017V63.9989H245.945ZM260.953 64.1909C259.289 64.1909 257.807 63.8176 256.505 63.0709C255.225 62.3242 254.212 61.3002 253.465 59.9989C252.719 58.6762 252.345 57.1829 252.345 55.5189C252.345 53.8336 252.719 52.3402 253.465 51.0389C254.212 49.7162 255.225 48.6922 256.505 47.9669C257.807 47.2416 259.289 46.8789 260.953 46.8789C262.596 46.8789 264.068 47.2416 265.369 47.9669C266.671 48.6922 267.695 49.7162 268.441 51.0389C269.188 52.3402 269.561 53.8336 269.561 55.5189C269.561 57.2042 269.188 58.6976 268.441 59.9989C267.695 61.3002 266.671 62.3242 265.369 63.0709C264.068 63.8176 262.596 64.1909 260.953 64.1909ZM260.953 61.5029C262.02 61.5029 262.969 61.2576 263.801 60.7669C264.633 60.2549 265.295 59.5616 265.785 58.6869C266.276 57.7909 266.521 56.7349 266.521 55.5189C266.521 54.3029 266.276 53.2576 265.785 52.3829C265.295 51.4869 264.633 50.7936 263.801 50.3029C262.969 49.8122 262.02 49.5669 260.953 49.5669C259.908 49.5669 258.959 49.8122 258.105 50.3029C257.273 50.7936 256.612 51.4869 256.121 52.3829C255.631 53.2576 255.385 54.3029 255.385 55.5189C255.385 56.7349 255.631 57.7909 256.121 58.6869C256.612 59.5616 257.273 60.2549 258.105 60.7669C258.959 61.2576 259.908 61.5029 260.953 61.5029Z" fill="white"/>
<path d="M222.629 63.9671L222.821 61.3751C222.97 61.3964 223.109 61.4177 223.237 61.4391C223.365 61.4604 223.482 61.4711 223.589 61.4711C224.272 61.4711 224.805 61.2364 225.189 60.7671C225.594 60.2977 225.893 59.6791 226.085 58.9111C226.277 58.1217 226.416 57.2364 226.501 56.2551C226.586 55.2737 226.65 54.2924 226.693 53.3111L226.981 47.0391H240.005V63.9991H236.933V48.8311L237.669 49.7271H228.965L229.669 48.7991L229.445 53.5031C229.381 54.9964 229.264 56.3937 229.093 57.6951C228.922 58.9964 228.656 60.1377 228.293 61.1191C227.952 62.1004 227.472 62.8684 226.853 63.4231C226.256 63.9777 225.477 64.2551 224.517 64.2551C224.24 64.2551 223.941 64.2231 223.621 64.1591C223.322 64.1164 222.992 64.0524 222.629 63.9671Z" fill="white"/>
<path d="M204.431 63.9991V48.9271L205.199 49.7271H198.223V47.0391H213.711V49.7271H206.767L207.503 48.9271V63.9991H204.431Z" fill="white"/>
<path d="M188.459 64.1909C186.752 64.1909 185.238 63.8176 183.915 63.0709C182.592 62.3242 181.547 61.3002 180.779 59.9989C180.011 58.6762 179.627 57.1829 179.627 55.5189C179.627 53.8336 180.011 52.3402 180.779 51.0389C181.547 49.7376 182.592 48.7242 183.915 47.9989C185.238 47.2522 186.752 46.8789 188.459 46.8789C190.144 46.8789 191.648 47.2522 192.971 47.9989C194.315 48.7242 195.36 49.7376 196.107 51.0389C196.875 52.3189 197.259 53.8122 197.259 55.5189C197.259 57.2042 196.875 58.6976 196.107 59.9989C195.36 61.3002 194.315 62.3242 192.971 63.0709C191.648 63.8176 190.144 64.1909 188.459 64.1909ZM188.459 61.5029C189.547 61.5029 190.518 61.2576 191.371 60.7669C192.246 60.2762 192.928 59.5829 193.419 58.6869C193.91 57.7696 194.155 56.7136 194.155 55.5189C194.155 54.3029 193.91 53.2576 193.419 52.3829C192.928 51.4869 192.246 50.7936 191.371 50.3029C190.518 49.8122 189.547 49.5669 188.459 49.5669C187.371 49.5669 186.4 49.8122 185.547 50.3029C184.694 50.7936 184.011 51.4869 183.499 52.3829C182.987 53.2576 182.731 54.3029 182.731 55.5189C182.731 56.7136 182.987 57.7696 183.499 58.6869C184.011 59.5829 184.694 60.2762 185.547 60.7669C186.4 61.2576 187.371 61.5029 188.459 61.5029Z" fill="white"/>
<path d="M150.383 63.9991V47.0391H153.455V59.3911L163.855 47.0391H166.639V63.9991H163.567V51.6471L153.199 63.9991H150.383Z" fill="white"/>
<path d="M131.522 61.3111L130.818 62.1111V47.0391H133.89V62.1111L133.122 61.3111H142.082L141.346 62.1111V47.0391H144.418V63.9991H120.258V47.0391H123.33V62.1111L122.594 61.3111H131.522ZM144.034 67.6151V63.1991L144.77 63.9991H141.186V61.3111H146.914V67.6151H144.034Z" fill="white"/>
<path d="M107.021 64.1909C105.315 64.1909 103.8 63.8176 102.477 63.0709C101.155 62.3242 100.109 61.3002 99.3415 59.9989C98.5735 58.6762 98.1895 57.1829 98.1895 55.5189C98.1895 53.8336 98.5735 52.3402 99.3415 51.0389C100.109 49.7376 101.155 48.7242 102.477 47.9989C103.8 47.2522 105.315 46.8789 107.021 46.8789C108.707 46.8789 110.211 47.2522 111.533 47.9989C112.877 48.7242 113.923 49.7376 114.669 51.0389C115.437 52.3189 115.821 53.8122 115.821 55.5189C115.821 57.2042 115.437 58.6976 114.669 59.9989C113.923 61.3002 112.877 62.3242 111.533 63.0709C110.211 63.8176 108.707 64.1909 107.021 64.1909ZM107.021 61.5029C108.109 61.5029 109.08 61.2576 109.933 60.7669C110.808 60.2762 111.491 59.5829 111.981 58.6869C112.472 57.7696 112.717 56.7136 112.717 55.5189C112.717 54.3029 112.472 53.2576 111.981 52.3829C111.491 51.4869 110.808 50.7936 109.933 50.3029C109.08 49.8122 108.109 49.5669 107.021 49.5669C105.933 49.5669 104.963 49.8122 104.109 50.3029C103.256 50.7936 102.573 51.4869 102.061 52.3829C101.549 53.2576 101.293 54.3029 101.293 55.5189C101.293 56.7136 101.549 57.7696 102.061 58.6869C102.573 59.5829 103.256 60.2762 104.109 60.7669C104.963 61.2576 105.933 61.5029 107.021 61.5029Z" fill="white"/>
<path d="M74.2266 63.9991V47.0391H77.3946L84.6906 59.5831H83.4106L90.8986 47.0391H93.7786V63.9991H90.9946V50.4951L91.5066 50.7831L84.6586 62.0791H83.3146L76.4346 50.5591L77.0426 50.4311V63.9991H74.2266Z" fill="white"/>
<path d="M60.9902 64.1909C59.2835 64.1909 57.7689 63.8176 56.4462 63.0709C55.1235 62.3242 54.0782 61.3002 53.3102 59.9989C52.5422 58.6762 52.1582 57.1829 52.1582 55.5189C52.1582 53.8336 52.5422 52.3402 53.3102 51.0389C54.0782 49.7376 55.1235 48.7242 56.4462 47.9989C57.7689 47.2522 59.2835 46.8789 60.9902 46.8789C62.6755 46.8789 64.1795 47.2522 65.5022 47.9989C66.8462 48.7242 67.8915 49.7376 68.6382 51.0389C69.4062 52.3189 69.7902 53.8122 69.7902 55.5189C69.7902 57.2042 69.4062 58.6976 68.6382 59.9989C67.8915 61.3002 66.8462 62.3242 65.5022 63.0709C64.1795 63.8176 62.6755 64.1909 60.9902 64.1909ZM60.9902 61.5029C62.0782 61.5029 63.0489 61.2576 63.9022 60.7669C64.7769 60.2762 65.4595 59.5829 65.9502 58.6869C66.4409 57.7696 66.6862 56.7136 66.6862 55.5189C66.6862 54.3029 66.4409 53.2576 65.9502 52.3829C65.4595 51.4869 64.7769 50.7936 63.9022 50.3029C63.0489 49.8122 62.0782 49.5669 60.9902 49.5669C59.9022 49.5669 58.9315 49.8122 58.0782 50.3029C57.2249 50.7936 56.5422 51.4869 56.0302 52.3829C55.5182 53.2576 55.2622 54.3029 55.2622 55.5189C55.2622 56.7136 55.5182 57.7696 56.0302 58.6869C56.5422 59.5829 57.2249 60.2762 58.0782 60.7669C58.9315 61.2576 59.9022 61.5029 60.9902 61.5029Z" fill="white"/>
<path d="M32.0703 63.9991V47.0391H47.7823V63.9991H44.7103V48.9591L45.4463 49.7271H34.4063L35.1423 48.9591V63.9991H32.0703Z" fill="white"/>
<path d="M10.2402 64.1909C8.53354 64.1909 7.01887 63.8176 5.6962 63.0709C4.37354 62.3242 3.3282 61.3002 2.5602 59.9989C1.7922 58.6762 1.4082 57.1829 1.4082 55.5189C1.4082 53.8336 1.7922 52.3402 2.5602 51.0389C3.3282 49.7376 4.37354 48.7242 5.6962 47.9989C7.01887 47.2522 8.53354 46.8789 10.2402 46.8789C11.9255 46.8789 13.4295 47.2522 14.7522 47.9989C16.0962 48.7242 17.1415 49.7376 17.8882 51.0389C18.6562 52.3189 19.0402 53.8122 19.0402 55.5189C19.0402 57.2042 18.6562 58.6976 17.8882 59.9989C17.1415 61.3002 16.0962 62.3242 14.7522 63.0709C13.4295 63.8176 11.9255 64.1909 10.2402 64.1909ZM10.2402 61.5029C11.3282 61.5029 12.2989 61.2576 13.1522 60.7669C14.0269 60.2762 14.7095 59.5829 15.2002 58.6869C15.6909 57.7696 15.9362 56.7136 15.9362 55.5189C15.9362 54.3029 15.6909 53.2576 15.2002 52.3829C14.7095 51.4869 14.0269 50.7936 13.1522 50.3029C12.2989 49.8122 11.3282 49.5669 10.2402 49.5669C9.1522 49.5669 8.18154 49.8122 7.3282 50.3029C6.47487 50.7936 5.7922 51.4869 5.2802 52.3829C4.7682 53.2576 4.5122 54.3029 4.5122 55.5189C4.5122 56.7136 4.7682 57.7696 5.2802 58.6869C5.7922 59.5829 6.47487 60.2762 7.3282 60.7669C8.18154 61.2576 9.1522 61.5029 10.2402 61.5029Z" fill="white"/>
<path d="M523.12 24.9991V8.03906H526.192V24.9991H523.12ZM514 13.7991C516.154 13.8204 517.786 14.3111 518.896 15.2711C520.026 16.2311 520.592 17.5857 520.592 19.3351C520.592 21.1697 519.973 22.5884 518.736 23.5911C517.52 24.5724 515.77 25.0524 513.488 25.0311L506.352 24.9991V8.03906H509.424V13.7671L514 13.7991ZM513.264 22.6951C514.629 22.7164 515.674 22.4391 516.4 21.8631C517.125 21.2871 517.488 20.4337 517.488 19.3031C517.488 18.1937 517.125 17.3831 516.4 16.8711C515.696 16.3591 514.65 16.0924 513.264 16.0711L509.424 16.0071V22.6631L513.264 22.6951Z" fill="white"/>
<path d="M493.004 25.2561C491.596 25.2561 490.348 25.0321 489.26 24.5841C488.193 24.1361 487.276 23.4748 486.508 22.6001C485.74 21.7041 485.153 20.5841 484.748 19.2401C484.364 17.8748 484.172 16.2748 484.172 14.4401C484.172 12.9895 484.3 11.6881 484.556 10.5361C484.812 9.38414 485.175 8.36014 485.644 7.46414C486.135 6.56814 486.732 5.78947 487.436 5.12814C488.161 4.46681 488.972 3.92281 489.868 3.49614C490.785 3.04814 491.788 2.70681 492.876 2.47214L500.62 0.744141L501.068 3.59214L493.932 5.12814C493.505 5.21347 492.993 5.34148 492.396 5.51214C491.799 5.68281 491.191 5.94947 490.572 6.31214C489.953 6.65347 489.377 7.13347 488.844 7.75214C488.311 8.37081 487.884 9.18147 487.564 10.1841C487.244 11.1655 487.084 12.3815 487.084 13.8321C487.084 14.2375 487.095 14.5468 487.116 14.7601C487.137 14.9735 487.159 15.1868 487.18 15.4001C487.223 15.6135 487.255 15.9335 487.276 16.3601L485.996 15.0481C486.337 13.8748 486.881 12.8508 487.628 11.9761C488.375 11.1015 489.271 10.4295 490.316 9.96014C491.383 9.46947 492.545 9.22414 493.804 9.22414C495.383 9.22414 496.78 9.56548 497.996 10.2481C499.233 10.9308 500.204 11.8695 500.908 13.0641C501.612 14.2588 501.964 15.6241 501.964 17.1601C501.964 18.7175 501.591 20.1148 500.844 21.3521C500.119 22.5681 499.084 23.5281 497.74 24.2321C496.396 24.9148 494.817 25.2561 493.004 25.2561ZM493.292 22.6961C494.38 22.6961 495.34 22.4615 496.172 21.9921C497.004 21.5015 497.655 20.8508 498.124 20.0401C498.593 19.2081 498.828 18.2801 498.828 17.2561C498.828 16.2321 498.593 15.3255 498.124 14.5361C497.655 13.7468 497.004 13.1281 496.172 12.6801C495.34 12.2108 494.359 11.9761 493.228 11.9761C492.161 11.9761 491.201 12.2001 490.348 12.6481C489.495 13.0748 488.833 13.6828 488.364 14.4721C487.895 15.2401 487.66 16.1361 487.66 17.1601C487.66 18.1841 487.895 19.1228 488.364 19.9761C488.855 20.8081 489.516 21.4695 490.348 21.9601C491.201 22.4508 492.183 22.6961 493.292 22.6961Z" fill="white"/>
<path d="M474.598 13.7991C476.752 13.8204 478.395 14.3111 479.526 15.2711C480.656 16.2311 481.222 17.5857 481.222 19.3351C481.222 21.1697 480.603 22.5884 479.366 23.5911C478.128 24.5724 476.379 25.0524 474.118 25.0311L466.758 24.9991V8.03906H469.83V13.7671L474.598 13.7991ZM473.862 22.6951C475.248 22.7164 476.294 22.4391 476.998 21.8631C477.723 21.2871 478.086 20.4337 478.086 19.3031C478.086 18.1937 477.734 17.3831 477.03 16.8711C476.326 16.3591 475.27 16.0924 473.862 16.0711L469.83 16.0071V22.6631L473.862 22.6951Z" fill="white"/>
<path d="M455.868 25.1909C454.14 25.1909 452.594 24.8176 451.228 24.0709C449.884 23.3242 448.828 22.3002 448.06 20.9989C447.292 19.6976 446.908 18.2042 446.908 16.5189C446.908 14.8336 447.292 13.3402 448.06 12.0389C448.828 10.7376 449.884 9.72424 451.228 8.99891C452.594 8.25224 454.14 7.87891 455.868 7.87891C457.404 7.87891 458.77 8.18824 459.964 8.80691C461.18 9.40424 462.119 10.3002 462.78 11.4949L460.444 12.9989C459.89 12.1669 459.207 11.5589 458.396 11.1749C457.607 10.7696 456.754 10.5669 455.836 10.5669C454.727 10.5669 453.735 10.8122 452.86 11.3029C451.986 11.7936 451.292 12.4869 450.78 13.3829C450.268 14.2576 450.012 15.3029 450.012 16.5189C450.012 17.7349 450.268 18.7909 450.78 19.6869C451.292 20.5829 451.986 21.2762 452.86 21.7669C453.735 22.2576 454.727 22.5029 455.836 22.5029C456.754 22.5029 457.607 22.3109 458.396 21.9269C459.207 21.5216 459.89 20.9029 460.444 20.0709L462.78 21.5429C462.119 22.7162 461.18 23.6229 459.964 24.2629C458.77 24.8816 457.404 25.1909 455.868 25.1909Z" fill="white"/>
<path d="M435.24 25.1909C433.534 25.1909 432.019 24.8176 430.696 24.0709C429.374 23.3242 428.328 22.3002 427.56 20.9989C426.792 19.6762 426.408 18.1829 426.408 16.5189C426.408 14.8336 426.792 13.3402 427.56 12.0389C428.328 10.7376 429.374 9.72424 430.696 8.99891C432.019 8.25224 433.534 7.87891 435.24 7.87891C436.926 7.87891 438.43 8.25224 439.752 8.99891C441.096 9.72424 442.142 10.7376 442.888 12.0389C443.656 13.3189 444.04 14.8122 444.04 16.5189C444.04 18.2042 443.656 19.6976 442.888 20.9989C442.142 22.3002 441.096 23.3242 439.752 24.0709C438.43 24.8176 436.926 25.1909 435.24 25.1909ZM435.24 22.5029C436.328 22.5029 437.299 22.2576 438.152 21.7669C439.027 21.2762 439.71 20.5829 440.2 19.6869C440.691 18.7696 440.936 17.7136 440.936 16.5189C440.936 15.3029 440.691 14.2576 440.2 13.3829C439.71 12.4869 439.027 11.7936 438.152 11.3029C437.299 10.8122 436.328 10.5669 435.24 10.5669C434.152 10.5669 433.182 10.8122 432.328 11.3029C431.475 11.7936 430.792 12.4869 430.28 13.3829C429.768 14.2576 429.512 15.3029 429.512 16.5189C429.512 17.7136 429.768 18.7696 430.28 19.6869C430.792 20.5829 431.475 21.2762 432.328 21.7669C433.182 22.2576 434.152 22.5029 435.24 22.5029Z" fill="white"/>
<path d="M414.937 25.1909C413.529 25.1909 412.239 24.8709 411.065 24.2309C409.913 23.5696 408.985 22.5989 408.281 21.3189C407.599 20.0389 407.257 18.4389 407.257 16.5189C407.257 14.5989 407.588 12.9989 408.249 11.7189C408.932 10.4389 409.849 9.47891 411.001 8.83891C412.175 8.19891 413.487 7.87891 414.937 7.87891C416.601 7.87891 418.073 8.24157 419.353 8.96691C420.633 9.69224 421.647 10.7056 422.393 12.0069C423.14 13.2869 423.513 14.7909 423.513 16.5189C423.513 18.2469 423.14 19.7616 422.393 21.0629C421.647 22.3642 420.633 23.3776 419.353 24.1029C418.073 24.8282 416.601 25.1909 414.937 25.1909ZM405.945 31.2069V8.03891H408.889V12.6149L408.697 16.5509L409.017 20.4869V31.2069H405.945ZM414.681 22.5029C415.769 22.5029 416.74 22.2576 417.593 21.7669C418.468 21.2762 419.151 20.5829 419.641 19.6869C420.153 18.7696 420.409 17.7136 420.409 16.5189C420.409 15.3029 420.153 14.2576 419.641 13.3829C419.151 12.4869 418.468 11.7936 417.593 11.3029C416.74 10.8122 415.769 10.5669 414.681 10.5669C413.615 10.5669 412.644 10.8122 411.769 11.3029C410.916 11.7936 410.233 12.4869 409.721 13.3829C409.231 14.2576 408.985 15.3029 408.985 16.5189C408.985 17.7136 409.231 18.7696 409.721 19.6869C410.233 20.5829 410.916 21.2762 411.769 21.7669C412.644 22.2576 413.615 22.5029 414.681 22.5029Z" fill="white"/>
<path d="M384.289 24.9991V8.03906H400.001V24.9991H396.929V9.95906L397.665 10.7271H386.625L387.361 9.95906V24.9991H384.289Z" fill="white"/>
<path d="M363.153 25.1909C361.34 25.1909 359.74 24.8176 358.353 24.0709C356.988 23.3242 355.921 22.3002 355.153 20.9989C354.407 19.6976 354.033 18.2042 354.033 16.5189C354.033 14.8336 354.396 13.3402 355.121 12.0389C355.868 10.7376 356.881 9.72424 358.161 8.99891C359.463 8.25224 360.924 7.87891 362.545 7.87891C364.188 7.87891 365.639 8.24157 366.897 8.96691C368.156 9.69224 369.137 10.7162 369.841 12.0389C370.567 13.3402 370.929 14.8656 370.929 16.6149C370.929 16.7429 370.919 16.8922 370.897 17.0629C370.897 17.2336 370.887 17.3936 370.865 17.5429H356.433V15.3349H369.265L368.017 16.1029C368.039 15.0149 367.815 14.0442 367.345 13.1909C366.876 12.3376 366.225 11.6762 365.393 11.2069C364.583 10.7162 363.633 10.4709 362.545 10.4709C361.479 10.4709 360.529 10.7162 359.697 11.2069C358.865 11.6762 358.215 12.3482 357.745 13.2229C357.276 14.0762 357.041 15.0576 357.041 16.1669V16.6789C357.041 17.8096 357.297 18.8229 357.809 19.7189C358.343 20.5936 359.079 21.2762 360.017 21.7669C360.956 22.2576 362.033 22.5029 363.249 22.5029C364.252 22.5029 365.159 22.3322 365.969 21.9909C366.801 21.6496 367.527 21.1376 368.145 20.4549L369.841 22.4389C369.073 23.3349 368.113 24.0176 366.961 24.4869C365.831 24.9562 364.561 25.1909 363.153 25.1909Z" fill="white"/>
<path d="M346.557 24.9991V8.03906H349.629V24.9991H346.557ZM337.437 13.7991C339.592 13.8204 341.224 14.3111 342.333 15.2711C343.464 16.2311 344.029 17.5857 344.029 19.3351C344.029 21.1697 343.41 22.5884 342.173 23.5911C340.957 24.5724 339.208 25.0524 336.925 25.0311L329.789 24.9991V8.03906H332.861V13.7671L337.437 13.7991ZM336.701 22.6951C338.066 22.7164 339.112 22.4391 339.837 21.8631C340.562 21.2871 340.925 20.4337 340.925 19.3031C340.925 18.1937 340.562 17.3831 339.837 16.8711C339.133 16.3591 338.088 16.0924 336.701 16.0711L332.861 16.0071V22.6631L336.701 22.6951Z" fill="white"/>
<path d="M308.008 24.9991V8.03906H311.08V15.2391H320.744V8.03906H323.816V24.9991H320.744V17.8951H311.08V24.9991H308.008Z" fill="white"/>
<path d="M299.196 18.0551C298.3 18.4817 297.372 18.8231 296.412 19.0791C295.473 19.3137 294.503 19.4311 293.5 19.4311C291.452 19.4311 289.831 18.9511 288.636 17.9911C287.463 17.0311 286.876 15.5484 286.876 13.5431V8.03906H289.948V13.3511C289.948 14.5671 290.321 15.4631 291.068 16.0391C291.836 16.6151 292.86 16.9031 294.14 16.9031C294.951 16.9031 295.783 16.7964 296.636 16.5831C297.511 16.3697 298.364 16.0711 299.196 15.6871V18.0551ZM298.972 24.9991V8.03906H302.044V24.9991H298.972Z" fill="white"/>
<path d="M266.289 24.9991V8.03906H269.361V20.3911L279.761 8.03906H282.545V24.9991H279.473V12.6471L269.105 24.9991H266.289Z" fill="white"/>
<path d="M242.973 24.9671L243.165 22.3751C243.314 22.3964 243.453 22.4177 243.581 22.4391C243.709 22.4604 243.826 22.4711 243.933 22.4711C244.615 22.4711 245.149 22.2364 245.533 21.7671C245.938 21.2977 246.237 20.6791 246.429 19.9111C246.621 19.1217 246.759 18.2364 246.845 17.2551C246.93 16.2737 246.994 15.2924 247.037 14.3111L247.325 8.03906H260.349V24.9991H257.277V9.83106L258.013 10.7271H249.309L250.013 9.79906L249.789 14.5031C249.725 15.9964 249.607 17.3937 249.437 18.6951C249.266 19.9964 248.999 21.1377 248.637 22.1191C248.295 23.1004 247.815 23.8684 247.197 24.4231C246.599 24.9777 245.821 25.2551 244.861 25.2551C244.583 25.2551 244.285 25.2231 243.965 25.1591C243.666 25.1164 243.335 25.0524 242.973 24.9671Z" fill="white"/>
<path d="M233.343 25.223C232.063 25.223 230.804 25.063 229.567 24.743C228.351 24.4017 227.263 23.9217 226.303 23.303L227.231 20.967C228.041 21.479 228.969 21.8843 230.015 22.183C231.06 22.4603 232.116 22.599 233.183 22.599C234.164 22.599 235.007 22.4817 235.711 22.247C236.436 22.0123 236.991 21.6923 237.375 21.287C237.759 20.8603 237.951 20.3697 237.951 19.815C237.951 19.0257 237.599 18.4177 236.895 17.991C236.191 17.5643 235.209 17.351 233.951 17.351H230.879V15.143H233.759C234.505 15.143 235.156 15.0577 235.711 14.887C236.265 14.7163 236.692 14.4603 236.991 14.119C237.311 13.7563 237.471 13.3403 237.471 12.871C237.471 12.359 237.289 11.9217 236.927 11.559C236.564 11.1963 236.052 10.919 235.391 10.727C234.751 10.535 233.993 10.439 233.119 10.439C232.265 10.4603 231.391 10.5777 230.495 10.791C229.62 11.0043 228.724 11.335 227.807 11.783L226.975 9.38299C227.999 8.89232 229.001 8.51899 229.983 8.26299C230.985 7.98566 231.977 7.83633 232.959 7.81499C234.431 7.77233 235.743 7.94299 236.895 8.32699C238.047 8.68966 238.953 9.22299 239.615 9.92699C240.297 10.631 240.639 11.463 240.639 12.423C240.639 13.2337 240.383 13.959 239.871 14.599C239.359 15.2177 238.676 15.7083 237.823 16.071C236.969 16.4337 235.988 16.615 234.879 16.615L235.007 15.879C236.905 15.879 238.399 16.2523 239.487 16.999C240.575 17.7457 241.119 18.759 241.119 20.039C241.119 21.063 240.777 21.9697 240.095 22.759C239.412 23.527 238.484 24.135 237.311 24.583C236.159 25.0097 234.836 25.223 233.343 25.223Z" fill="white"/>
<path d="M220.22 24.9989V21.4149L220.06 20.7429V14.6309C220.06 13.3296 219.676 12.3269 218.908 11.6229C218.161 10.8976 217.031 10.5349 215.516 10.5349C214.513 10.5349 213.532 10.7056 212.572 11.0469C211.612 11.3669 210.801 11.8042 210.14 12.3589L208.86 10.0549C209.735 9.35091 210.78 8.81758 211.996 8.45491C213.233 8.07091 214.524 7.87891 215.868 7.87891C218.193 7.87891 219.985 8.44424 221.244 9.57491C222.503 10.7056 223.132 12.4336 223.132 14.7589V24.9989H220.22ZM214.652 25.1909C213.393 25.1909 212.284 24.9776 211.324 24.5509C210.385 24.1242 209.66 23.5376 209.148 22.7909C208.636 22.0229 208.38 21.1589 208.38 20.1989C208.38 19.2816 208.593 18.4496 209.02 17.7029C209.468 16.9562 210.183 16.3589 211.164 15.9109C212.167 15.4629 213.511 15.2389 215.196 15.2389H220.572V17.4469H215.324C213.788 17.4469 212.753 17.7029 212.22 18.2149C211.687 18.7269 211.42 19.3456 211.42 20.0709C211.42 20.9029 211.751 21.5749 212.412 22.0869C213.073 22.5776 213.991 22.8229 215.164 22.8229C216.316 22.8229 217.319 22.5669 218.172 22.0549C219.047 21.5429 219.676 20.7962 220.06 19.8149L220.668 21.9269C220.263 22.9296 219.548 23.7296 218.524 24.3269C217.5 24.9029 216.209 25.1909 214.652 25.1909Z" fill="white"/>
<path d="M196.937 25.1909C195.529 25.1909 194.239 24.8709 193.065 24.2309C191.913 23.5696 190.985 22.5989 190.281 21.3189C189.599 20.0389 189.257 18.4389 189.257 16.5189C189.257 14.5989 189.588 12.9989 190.249 11.7189C190.932 10.4389 191.849 9.47891 193.001 8.83891C194.175 8.19891 195.487 7.87891 196.937 7.87891C198.601 7.87891 200.073 8.24157 201.353 8.96691C202.633 9.69224 203.647 10.7056 204.393 12.0069C205.14 13.2869 205.513 14.7909 205.513 16.5189C205.513 18.2469 205.14 19.7616 204.393 21.0629C203.647 22.3642 202.633 23.3776 201.353 24.1029C200.073 24.8282 198.601 25.1909 196.937 25.1909ZM187.945 31.2069V8.03891H190.889V12.6149L190.697 16.5509L191.017 20.4869V31.2069H187.945ZM196.681 22.5029C197.769 22.5029 198.74 22.2576 199.593 21.7669C200.468 21.2762 201.151 20.5829 201.641 19.6869C202.153 18.7696 202.409 17.7136 202.409 16.5189C202.409 15.3029 202.153 14.2576 201.641 13.3829C201.151 12.4869 200.468 11.7936 199.593 11.3029C198.74 10.8122 197.769 10.5669 196.681 10.5669C195.615 10.5669 194.644 10.8122 193.769 11.3029C192.916 11.7936 192.233 12.4869 191.721 13.3829C191.231 14.2576 190.985 15.3029 190.985 16.5189C190.985 17.7136 191.231 18.7696 191.721 19.6869C192.233 20.5829 192.916 21.2762 193.769 21.7669C194.644 22.2576 195.615 22.5029 196.681 22.5029Z" fill="white"/>
<path d="M168.785 13.7991C170.94 13.8204 172.583 14.3111 173.713 15.2711C174.844 16.2311 175.409 17.5857 175.409 19.3351C175.409 21.1697 174.791 22.5884 173.553 23.5911C172.316 24.5724 170.567 25.0524 168.305 25.0311L160.945 24.9991V8.03906H164.017V13.7671L168.785 13.7991ZM168.049 22.6951C169.436 22.7164 170.481 22.4391 171.185 21.8631C171.911 21.2871 172.273 20.4337 172.273 19.3031C172.273 18.1937 171.921 17.3831 171.217 16.8711C170.513 16.3591 169.457 16.0924 168.049 16.0711L164.017 16.0071V22.6631L168.049 22.6951Z" fill="white"/>
<path d="M148.524 24.9991V9.92706L149.292 10.7271H142.316V8.03906H157.804V10.7271H150.86L151.596 9.92706V24.9991H148.524Z" fill="white"/>
<path d="M134.493 25.1909C132.765 25.1909 131.219 24.8176 129.853 24.0709C128.509 23.3242 127.453 22.3002 126.685 20.9989C125.917 19.6976 125.533 18.2042 125.533 16.5189C125.533 14.8336 125.917 13.3402 126.685 12.0389C127.453 10.7376 128.509 9.72424 129.853 8.99891C131.219 8.25224 132.765 7.87891 134.493 7.87891C136.029 7.87891 137.395 8.18824 138.589 8.80691C139.805 9.40424 140.744 10.3002 141.405 11.4949L139.069 12.9989C138.515 12.1669 137.832 11.5589 137.021 11.1749C136.232 10.7696 135.379 10.5669 134.461 10.5669C133.352 10.5669 132.36 10.8122 131.485 11.3029C130.611 11.7936 129.917 12.4869 129.405 13.3829C128.893 14.2576 128.637 15.3029 128.637 16.5189C128.637 17.7349 128.893 18.7909 129.405 19.6869C129.917 20.5829 130.611 21.2762 131.485 21.7669C132.36 22.2576 133.352 22.5029 134.461 22.5029C135.379 22.5029 136.232 22.3109 137.021 21.9269C137.832 21.5216 138.515 20.9029 139.069 20.0709L141.405 21.5429C140.744 22.7162 139.805 23.6229 138.589 24.2629C137.395 24.8816 136.029 25.1909 134.493 25.1909Z" fill="white"/>
<path d="M114.559 25.1909C112.746 25.1909 111.146 24.8176 109.759 24.0709C108.394 23.3242 107.327 22.3002 106.559 20.9989C105.813 19.6976 105.439 18.2042 105.439 16.5189C105.439 14.8336 105.802 13.3402 106.527 12.0389C107.274 10.7376 108.287 9.72424 109.567 8.99891C110.869 8.25224 112.33 7.87891 113.951 7.87891C115.594 7.87891 117.045 8.24157 118.303 8.96691C119.562 9.69224 120.543 10.7162 121.247 12.0389C121.973 13.3402 122.335 14.8656 122.335 16.6149C122.335 16.7429 122.325 16.8922 122.303 17.0629C122.303 17.2336 122.293 17.3936 122.271 17.5429H107.839V15.3349H120.671L119.423 16.1029C119.445 15.0149 119.221 14.0442 118.751 13.1909C118.282 12.3376 117.631 11.6762 116.799 11.2069C115.989 10.7162 115.039 10.4709 113.951 10.4709C112.885 10.4709 111.935 10.7162 111.103 11.2069C110.271 11.6762 109.621 12.3482 109.151 13.2229C108.682 14.0762 108.447 15.0576 108.447 16.1669V16.6789C108.447 17.8096 108.703 18.8229 109.215 19.7189C109.749 20.5936 110.485 21.2762 111.423 21.7669C112.362 22.2576 113.439 22.5029 114.655 22.5029C115.658 22.5029 116.565 22.3322 117.375 21.9909C118.207 21.6496 118.933 21.1376 119.551 20.4549L121.247 22.4389C120.479 23.3349 119.519 24.0176 118.367 24.4869C117.237 24.9562 115.967 25.1909 114.559 25.1909Z" fill="white"/>
<path d="M87.8478 13.7991C90.0025 13.8204 91.6452 14.3111 92.7758 15.2711C93.9065 16.2311 94.4718 17.5857 94.4718 19.3351C94.4718 21.1697 93.8531 22.5884 92.6158 23.5911C91.3785 24.5724 89.6291 25.0524 87.3678 25.0311L80.0078 24.9991V8.03906H83.0798V13.7671L87.8478 13.7991ZM87.1118 22.6951C88.4985 22.7164 89.5438 22.4391 90.2478 21.8631C90.9732 21.2871 91.3358 20.4337 91.3358 19.3031C91.3358 18.1937 90.9838 17.3831 90.2798 16.8711C89.5758 16.3591 88.5198 16.0924 87.1118 16.0711L83.0798 16.0071V22.6631L87.1118 22.6951Z" fill="white"/>
<path d="M69.1182 25.1909C67.3902 25.1909 65.8435 24.8176 64.4782 24.0709C63.1342 23.3242 62.0782 22.3002 61.3102 20.9989C60.5422 19.6976 60.1582 18.2042 60.1582 16.5189C60.1582 14.8336 60.5422 13.3402 61.3102 12.0389C62.0782 10.7376 63.1342 9.72424 64.4782 8.99891C65.8435 8.25224 67.3902 7.87891 69.1182 7.87891C70.6542 7.87891 72.0195 8.18824 73.2142 8.80691C74.4302 9.40424 75.3689 10.3002 76.0302 11.4949L73.6942 12.9989C73.1395 12.1669 72.4569 11.5589 71.6462 11.1749C70.8569 10.7696 70.0035 10.5669 69.0862 10.5669C67.9769 10.5669 66.9849 10.8122 66.1102 11.3029C65.2355 11.7936 64.5422 12.4869 64.0302 13.3829C63.5182 14.2576 63.2622 15.3029 63.2622 16.5189C63.2622 17.7349 63.5182 18.7909 64.0302 19.6869C64.5422 20.5829 65.2355 21.2762 66.1102 21.7669C66.9849 22.2576 67.9769 22.5029 69.0862 22.5029C70.0035 22.5029 70.8569 22.3109 71.6462 21.9269C72.4569 21.5216 73.1395 20.9029 73.6942 20.0709L76.0302 21.5429C75.3689 22.7162 74.4302 23.6229 73.2142 24.2629C72.0195 24.8816 70.6542 25.1909 69.1182 25.1909Z" fill="white"/>
<path d="M49.1845 25.1909C47.3711 25.1909 45.7711 24.8176 44.3845 24.0709C43.0191 23.3242 41.9525 22.3002 41.1845 20.9989C40.4378 19.6976 40.0645 18.2042 40.0645 16.5189C40.0645 14.8336 40.4271 13.3402 41.1525 12.0389C41.8991 10.7376 42.9125 9.72424 44.1925 8.99891C45.4938 8.25224 46.9551 7.87891 48.5765 7.87891C50.2191 7.87891 51.6698 8.24157 52.9285 8.96691C54.1871 9.69224 55.1685 10.7162 55.8725 12.0389C56.5978 13.3402 56.9605 14.8656 56.9605 16.6149C56.9605 16.7429 56.9498 16.8922 56.9285 17.0629C56.9285 17.2336 56.9178 17.3936 56.8965 17.5429H42.4645V15.3349H55.2965L54.0485 16.1029C54.0698 15.0149 53.8458 14.0442 53.3765 13.1909C52.9071 12.3376 52.2565 11.6762 51.4245 11.2069C50.6138 10.7162 49.6645 10.4709 48.5765 10.4709C47.5098 10.4709 46.5605 10.7162 45.7285 11.2069C44.8965 11.6762 44.2458 12.3482 43.7765 13.2229C43.3071 14.0762 43.0725 15.0576 43.0725 16.1669V16.6789C43.0725 17.8096 43.3285 18.8229 43.8405 19.7189C44.3738 20.5936 45.1098 21.2762 46.0485 21.7669C46.9871 22.2576 48.0645 22.5029 49.2805 22.5029C50.2831 22.5029 51.1898 22.3322 52.0005 21.9909C52.8325 21.6496 53.5578 21.1376 54.1765 20.4549L55.8725 22.4389C55.1045 23.3349 54.1445 24.0176 52.9925 24.4869C51.8618 24.9562 50.5925 25.1909 49.1845 25.1909Z" fill="white"/>
<path d="M31.9671 23.5591V10.7271H24.6071L24.4471 13.9911C24.4044 15.0577 24.3298 16.0924 24.2231 17.0951C24.1378 18.0764 23.9884 18.9831 23.7751 19.8151C23.5831 20.6471 23.2951 21.3297 22.9111 21.8631C22.5271 22.3964 22.0151 22.7271 21.3751 22.8551L18.3351 22.3111C18.9964 22.3324 19.5298 22.1191 19.9351 21.6711C20.3404 21.2017 20.6498 20.5617 20.8631 19.7511C21.0978 18.9404 21.2684 18.0231 21.3751 16.9991C21.4818 15.9537 21.5671 14.8764 21.6311 13.7671L21.8871 8.03906H35.0391V23.5591H31.9671ZM17.6631 28.9351V22.3111H37.6311V28.9351H34.7511V24.9991H20.5751V28.9351H17.6631Z" fill="white"/>
<path d="M7.93648 25.223C6.65648 25.223 5.39782 25.063 4.16048 24.743C2.94448 24.4017 1.85648 23.9217 0.896484 23.303L1.82448 20.967C2.63515 21.479 3.56315 21.8843 4.60848 22.183C5.65382 22.4603 6.70982 22.599 7.77648 22.599C8.75782 22.599 9.60048 22.4817 10.3045 22.247C11.0298 22.0123 11.5845 21.6923 11.9685 21.287C12.3525 20.8603 12.5445 20.3697 12.5445 19.815C12.5445 19.0257 12.1925 18.4177 11.4885 17.991C10.7845 17.5643 9.80315 17.351 8.54449 17.351H5.47248V15.143H8.35248C9.09915 15.143 9.74982 15.0577 10.3045 14.887C10.8592 14.7163 11.2858 14.4603 11.5845 14.119C11.9045 13.7563 12.0645 13.3403 12.0645 12.871C12.0645 12.359 11.8832 11.9217 11.5205 11.559C11.1578 11.1963 10.6458 10.919 9.98448 10.727C9.34448 10.535 8.58715 10.439 7.71248 10.439C6.85915 10.4603 5.98448 10.5777 5.08848 10.791C4.21382 11.0043 3.31782 11.335 2.40048 11.783L1.56848 9.38299C2.59248 8.89232 3.59515 8.51899 4.57648 8.26299C5.57915 7.98566 6.57115 7.83633 7.55248 7.81499C9.02448 7.77233 10.3365 7.94299 11.4885 8.32699C12.6405 8.68966 13.5472 9.22299 14.2085 9.92699C14.8912 10.631 15.2325 11.463 15.2325 12.423C15.2325 13.2337 14.9765 13.959 14.4645 14.599C13.9525 15.2177 13.2698 15.7083 12.4165 16.071C11.5632 16.4337 10.5818 16.615 9.47248 16.615L9.60048 15.879C11.4992 15.879 12.9925 16.2523 14.0805 16.999C15.1685 17.7457 15.7125 18.759 15.7125 20.039C15.7125 21.063 15.3712 21.9697 14.6885 22.759C14.0058 23.527 13.0778 24.135 11.9045 24.583C10.7525 25.0097 9.42982 25.223 7.93648 25.223Z" fill="white"/>
</svg>
