<svg width="580" height="104" viewBox="0 0 580 104" fill="none" xmlns="http://www.w3.org/2000/svg">
<path d="M303.021 100.791L304.365 97.7508C305.325 98.4121 306.371 98.9241 307.501 99.2867C308.653 99.6281 309.795 99.8094 310.925 99.8308C312.056 99.8521 313.08 99.7241 313.997 99.4468C314.936 99.1694 315.683 98.7534 316.237 98.1988C316.792 97.6441 317.069 96.9507 317.069 96.1187C317.069 95.1161 316.653 94.3694 315.821 93.8788C315.011 93.3668 313.901 93.1108 312.493 93.1108H307.277V89.8467H312.173C313.432 89.8467 314.403 89.5908 315.085 89.0788C315.789 88.5668 316.141 87.8734 316.141 86.9988C316.141 86.2734 315.907 85.6761 315.437 85.2068C314.989 84.7374 314.371 84.3854 313.581 84.1508C312.813 83.9161 311.939 83.8094 310.957 83.8308C309.997 83.8308 308.995 83.9801 307.949 84.2788C306.904 84.5561 305.912 84.9721 304.973 85.5268L303.661 82.1668C305.069 81.4201 306.541 80.8974 308.077 80.5988C309.635 80.3001 311.139 80.2148 312.589 80.3428C314.04 80.4708 315.341 80.8014 316.493 81.3348C317.667 81.8681 318.605 82.5721 319.309 83.4468C320.013 84.3001 320.365 85.3134 320.365 86.4868C320.365 87.5534 320.077 88.5028 319.501 89.3348C318.947 90.1454 318.179 90.7748 317.197 91.2228C316.216 91.6708 315.075 91.8948 313.773 91.8948L313.933 90.8707C315.405 90.8707 316.685 91.1268 317.773 91.6388C318.883 92.1294 319.736 92.8121 320.333 93.6868C320.952 94.5614 321.261 95.5748 321.261 96.7268C321.261 97.8148 320.984 98.7854 320.429 99.6388C319.875 100.471 319.117 101.175 318.157 101.751C317.197 102.305 316.099 102.721 314.861 102.999C313.624 103.255 312.323 103.351 310.957 103.287C309.592 103.223 308.227 102.988 306.861 102.583C305.517 102.177 304.237 101.58 303.021 100.791Z" fill="white"/>
<path d="M281.387 103V80.5996H291.403C293.92 80.5996 295.883 81.1009 297.291 82.1036C298.699 83.0849 299.403 84.5036 299.403 86.3596C299.403 88.1943 298.731 89.6129 297.387 90.6156C296.043 91.5969 294.272 92.0876 292.075 92.0876L292.651 90.9356C295.147 90.9356 297.077 91.4369 298.443 92.4396C299.808 93.4423 300.491 94.8929 300.491 96.7916C300.491 98.7329 299.776 100.258 298.347 101.368C296.917 102.456 294.805 103 292.011 103H281.387ZM285.483 99.7996H291.883C293.333 99.7996 294.432 99.5329 295.179 98.9996C295.925 98.4449 296.299 97.6023 296.299 96.4716C296.299 95.3409 295.925 94.5196 295.179 94.0076C294.432 93.4743 293.333 93.2076 291.883 93.2076H285.483V99.7996ZM285.483 90.1676H291.051C292.395 90.1676 293.419 89.9009 294.123 89.3676C294.827 88.8129 295.179 88.0236 295.179 86.9996C295.179 85.9329 294.827 85.1329 294.123 84.5996C293.419 84.0663 292.395 83.7996 291.051 83.7996H285.483V90.1676Z" fill="white"/>
<path d="M264.724 103.319C262.975 103.319 261.364 103.031 259.892 102.455C258.42 101.879 257.14 101.079 256.052 100.055C254.964 99.01 254.121 97.794 253.524 96.4073C252.927 94.9993 252.628 93.4633 252.628 91.7993C252.628 90.1353 252.927 88.61 253.524 87.2233C254.121 85.8153 254.964 84.5993 256.052 83.5753C257.14 82.53 258.42 81.7193 259.892 81.1433C261.364 80.5673 262.964 80.2793 264.692 80.2793C266.441 80.2793 268.041 80.5673 269.492 81.1433C270.964 81.7193 272.244 82.53 273.332 83.5753C274.42 84.5993 275.263 85.8153 275.86 87.2233C276.457 88.61 276.756 90.1353 276.756 91.7993C276.756 93.4633 276.457 94.9993 275.86 96.4073C275.263 97.8153 274.42 99.0313 273.332 100.055C272.244 101.079 270.964 101.879 269.492 102.455C268.041 103.031 266.452 103.319 264.724 103.319ZM264.692 99.6713C265.823 99.6713 266.868 99.4793 267.828 99.0953C268.788 98.7113 269.62 98.1673 270.324 97.4633C271.028 96.738 271.572 95.906 271.956 94.9673C272.361 94.0073 272.564 92.9513 272.564 91.7993C272.564 90.6473 272.361 89.602 271.956 88.6633C271.572 87.7033 271.028 86.8713 270.324 86.1673C269.62 85.442 268.788 84.8873 267.828 84.5033C266.868 84.1193 265.823 83.9273 264.692 83.9273C263.561 83.9273 262.516 84.1193 261.556 84.5033C260.617 84.8873 259.785 85.442 259.06 86.1673C258.356 86.8713 257.801 87.7033 257.396 88.6633C257.012 89.602 256.82 90.6473 256.82 91.7993C256.82 92.93 257.012 93.9753 257.396 94.9353C257.801 95.8953 258.356 96.738 259.06 97.4633C259.764 98.1673 260.596 98.7113 261.556 99.0953C262.516 99.4793 263.561 99.6713 264.692 99.6713Z" fill="white"/>
<path d="M234.214 103.223C232.422 103.223 230.822 102.849 229.414 102.103C228.027 101.335 226.939 100.289 226.15 98.9668C225.36 97.6441 224.966 96.1401 224.966 94.4547C224.966 92.7481 225.36 91.2441 226.15 89.9427C226.939 88.6201 228.027 87.5854 229.414 86.8387C230.822 86.0921 232.422 85.7188 234.214 85.7188C235.878 85.7188 237.339 86.0601 238.598 86.7428C239.878 87.4041 240.848 88.3854 241.51 89.6868L238.438 91.4787C237.926 90.6681 237.296 90.0708 236.55 89.6868C235.824 89.3028 235.035 89.1107 234.182 89.1107C233.2 89.1107 232.315 89.3241 231.526 89.7507C230.736 90.1774 230.118 90.7961 229.67 91.6068C229.222 92.3961 228.998 93.3454 228.998 94.4547C228.998 95.5641 229.222 96.5241 229.67 97.3347C230.118 98.1241 230.736 98.7321 231.526 99.1588C232.315 99.5854 233.2 99.7988 234.182 99.7988C235.035 99.7988 235.824 99.6067 236.55 99.2227C237.296 98.8387 237.926 98.2414 238.438 97.4308L241.51 99.2227C240.848 100.503 239.878 101.495 238.598 102.199C237.339 102.881 235.878 103.223 234.214 103.223Z" fill="white"/>
<path d="M191.813 102.998V85.9102H196.005L202.885 98.0381H201.221L208.453 85.9102H212.197L212.229 102.998H208.613V90.1982L209.253 90.6142L202.853 101.206H201.125L194.693 90.3262L195.461 90.1342V102.998H191.813Z" fill="white"/>
<path d="M178.741 103.223C176.992 103.223 175.435 102.849 174.069 102.103C172.704 101.335 171.627 100.289 170.837 98.9668C170.048 97.6441 169.653 96.1401 169.653 94.4547C169.653 92.7481 170.048 91.2441 170.837 89.9427C171.627 88.6201 172.704 87.5854 174.069 86.8387C175.435 86.0921 176.992 85.7188 178.741 85.7188C180.512 85.7188 182.08 86.0921 183.445 86.8387C184.832 87.5854 185.909 88.6094 186.677 89.9108C187.467 91.2121 187.861 92.7267 187.861 94.4547C187.861 96.1401 187.467 97.6441 186.677 98.9668C185.909 100.289 184.832 101.335 183.445 102.103C182.08 102.849 180.512 103.223 178.741 103.223ZM178.741 99.7988C179.723 99.7988 180.597 99.5854 181.365 99.1588C182.133 98.7321 182.731 98.1134 183.157 97.3027C183.605 96.4921 183.829 95.5427 183.829 94.4547C183.829 93.3454 183.605 92.3961 183.157 91.6068C182.731 90.7961 182.133 90.1774 181.365 89.7507C180.597 89.3241 179.733 89.1107 178.773 89.1107C177.792 89.1107 176.917 89.3241 176.149 89.7507C175.403 90.1774 174.805 90.7961 174.357 91.6068C173.909 92.3961 173.685 93.3454 173.685 94.4547C173.685 95.5427 173.909 96.4921 174.357 97.3027C174.805 98.1134 175.403 98.7321 176.149 99.1588C176.917 99.5854 177.781 99.7988 178.741 99.7988Z" fill="white"/>
<path d="M164.163 102.998L157.987 94.8062L161.251 92.7901L168.867 102.998H164.163ZM151.907 102.998V85.9102H155.907V102.998H151.907ZM154.723 96.1501V92.8222H160.515V96.1501H154.723ZM161.635 94.9342L157.891 94.4862L164.163 85.9102H168.451L161.635 94.9342Z" fill="white"/>
<path d="M139.5 103.223C137.601 103.223 135.937 102.849 134.508 102.103C133.1 101.335 132.001 100.289 131.212 98.9668C130.444 97.6441 130.06 96.1401 130.06 94.4547C130.06 92.7481 130.433 91.2441 131.18 89.9427C131.948 88.6201 132.993 87.5854 134.316 86.8387C135.66 86.0921 137.185 85.7188 138.892 85.7188C140.556 85.7188 142.038 86.0814 143.34 86.8067C144.641 87.5321 145.665 88.5561 146.412 89.8788C147.158 91.2014 147.532 92.7588 147.532 94.5508C147.532 94.7214 147.521 94.9134 147.5 95.1268C147.5 95.3401 147.489 95.5427 147.468 95.7347H133.228V93.0788H145.356L143.788 93.9108C143.809 92.9294 143.606 92.0654 143.18 91.3188C142.753 90.5721 142.166 89.9854 141.42 89.5587C140.694 89.1321 139.852 88.9187 138.892 88.9187C137.91 88.9187 137.046 89.1321 136.3 89.5587C135.574 89.9854 134.998 90.5828 134.572 91.3508C134.166 92.0974 133.964 92.9827 133.964 94.0067V94.6467C133.964 95.6707 134.198 96.5774 134.668 97.3667C135.137 98.1561 135.798 98.7641 136.652 99.1908C137.505 99.6174 138.486 99.8307 139.596 99.8307C140.556 99.8307 141.42 99.6814 142.188 99.3828C142.956 99.0841 143.638 98.6147 144.236 97.9747L146.38 100.439C145.612 101.335 144.641 102.028 143.468 102.519C142.316 102.988 140.993 103.223 139.5 103.223Z" fill="white"/>
<path d="M111.72 102.998V85.9102H120.072C122.141 85.9102 123.762 86.2941 124.936 87.0621C126.13 87.8301 126.728 88.9182 126.728 90.3262C126.728 91.7128 126.173 92.8008 125.064 93.5901C123.954 94.3581 122.482 94.7422 120.648 94.7422L121.128 93.7502C123.197 93.7502 124.733 94.1341 125.736 94.9021C126.76 95.6488 127.272 96.7475 127.272 98.1982C127.272 99.7128 126.706 100.897 125.576 101.75C124.445 102.582 122.728 102.998 120.424 102.998H111.72ZM115.528 100.086H120.104C121.192 100.086 122.013 99.9155 122.568 99.5742C123.122 99.2115 123.4 98.6675 123.4 97.9422C123.4 97.1742 123.144 96.6088 122.632 96.2462C122.12 95.8835 121.32 95.7021 120.232 95.7021H115.528V100.086ZM115.528 93.0462H119.72C120.744 93.0462 121.512 92.8648 122.024 92.5022C122.557 92.1182 122.824 91.5848 122.824 90.9021C122.824 90.1981 122.557 89.6755 122.024 89.3342C121.512 88.9928 120.744 88.8222 119.72 88.8222H115.528V93.0462Z" fill="white"/>
<path d="M98.6476 103.223C96.8982 103.223 95.3409 102.849 93.9756 102.103C92.6102 101.335 91.5329 100.289 90.7436 98.9668C89.9542 97.6441 89.5596 96.1401 89.5596 94.4547C89.5596 92.7481 89.9542 91.2441 90.7436 89.9427C91.5329 88.6201 92.6102 87.5854 93.9756 86.8387C95.3409 86.0921 96.8982 85.7188 98.6476 85.7188C100.418 85.7188 101.986 86.0921 103.352 86.8387C104.738 87.5854 105.816 88.6094 106.584 89.9108C107.373 91.2121 107.768 92.7267 107.768 94.4547C107.768 96.1401 107.373 97.6441 106.584 98.9668C105.816 100.289 104.738 101.335 103.352 102.103C101.986 102.849 100.418 103.223 98.6476 103.223ZM98.6476 99.7988C99.6289 99.7988 100.504 99.5854 101.272 99.1588C102.04 98.7321 102.637 98.1134 103.064 97.3027C103.512 96.4921 103.736 95.5427 103.736 94.4547C103.736 93.3454 103.512 92.3961 103.064 91.6068C102.637 90.7961 102.04 90.1774 101.272 89.7507C100.504 89.3241 99.6396 89.1107 98.6796 89.1107C97.6982 89.1107 96.8236 89.3241 96.0556 89.7507C95.3089 90.1774 94.7116 90.7961 94.2636 91.6068C93.8156 92.3961 93.5916 93.3454 93.5916 94.4547C93.5916 95.5427 93.8156 96.4921 94.2636 97.3027C94.7116 98.1134 95.3089 98.7321 96.0556 99.1588C96.8236 99.5854 97.6876 99.7988 98.6476 99.7988Z" fill="white"/>
<path d="M67.6611 102.966L67.8531 99.6062C68.0025 99.6275 68.1411 99.6488 68.2691 99.6702C68.3971 99.6915 68.5145 99.7021 68.6211 99.7021C69.2825 99.7021 69.7945 99.4995 70.1571 99.0941C70.5198 98.6888 70.7865 98.1448 70.9571 97.4622C71.1491 96.7582 71.2771 95.9795 71.3411 95.1262C71.4265 94.2515 71.4905 93.3768 71.5331 92.5022L71.8211 85.9102H85.6451V102.998H81.6451V88.2142L82.5731 89.3022H74.4451L75.3091 88.1822L75.0851 92.6942C75.0211 94.2088 74.8931 95.6168 74.7011 96.9182C74.5305 98.1982 74.2531 99.3182 73.8691 100.278C73.5065 101.238 72.9945 101.985 72.3331 102.518C71.6931 103.051 70.8718 103.318 69.8691 103.318C69.5491 103.318 69.1971 103.286 68.8131 103.222C68.4505 103.158 68.0665 103.073 67.6611 102.966Z" fill="white"/>
<path d="M57.9683 103.223C56.0697 103.223 54.4057 102.849 52.9763 102.103C51.5683 101.335 50.4697 100.289 49.6803 98.9668C48.9123 97.6441 48.5283 96.1401 48.5283 94.4547C48.5283 92.7481 48.9017 91.2441 49.6483 89.9427C50.4163 88.6201 51.4617 87.5854 52.7843 86.8387C54.1283 86.0921 55.6537 85.7188 57.3603 85.7188C59.0243 85.7188 60.507 86.0814 61.8083 86.8067C63.1097 87.5321 64.1337 88.5561 64.8803 89.8788C65.627 91.2014 66.0003 92.7588 66.0003 94.5508C66.0003 94.7214 65.9897 94.9134 65.9683 95.1268C65.9683 95.3401 65.9577 95.5427 65.9363 95.7347H51.6963V93.0788H63.8243L62.2563 93.9108C62.2777 92.9294 62.075 92.0654 61.6483 91.3188C61.2217 90.5721 60.635 89.9854 59.8883 89.5587C59.163 89.1321 58.3203 88.9187 57.3603 88.9187C56.379 88.9187 55.515 89.1321 54.7683 89.5587C54.043 89.9854 53.467 90.5828 53.0403 91.3508C52.635 92.0974 52.4323 92.9827 52.4323 94.0067V94.6467C52.4323 95.6707 52.667 96.5774 53.1363 97.3667C53.6057 98.1561 54.267 98.7641 55.1203 99.1908C55.9737 99.6174 56.955 99.8307 58.0643 99.8307C59.0243 99.8307 59.8883 99.6814 60.6563 99.3828C61.4243 99.0841 62.107 98.6147 62.7043 97.9747L64.8483 100.439C64.0803 101.335 63.1097 102.028 61.9363 102.519C60.7843 102.988 59.4617 103.223 57.9683 103.223Z" fill="white"/>
<path d="M40.9093 96.2462C40.0987 96.6302 39.2347 96.9501 38.3173 97.2061C37.4213 97.4408 36.472 97.5582 35.4693 97.5582C33.3147 97.5582 31.64 97.0568 30.4453 96.0542C29.2507 95.0515 28.6533 93.4942 28.6533 91.3822V85.9102H32.6533V91.1262C32.6533 92.2568 32.9733 93.0781 33.6133 93.5901C34.2747 94.1021 35.1813 94.3582 36.3333 94.3582C37.1013 94.3582 37.8693 94.2622 38.6373 94.0702C39.4053 93.8782 40.1627 93.6115 40.9093 93.2702V96.2462ZM40.6213 102.998V85.9102H44.6213V102.998H40.6213Z" fill="white"/>
<path d="M10.4638 103.223C8.67182 103.223 7.07182 102.849 5.66382 102.103C4.27715 101.335 3.18915 100.289 2.39982 98.9668C1.61049 97.6441 1.21582 96.1401 1.21582 94.4547C1.21582 92.7481 1.61049 91.2441 2.39982 89.9427C3.18915 88.6201 4.27715 87.5854 5.66382 86.8387C7.07182 86.0921 8.67182 85.7188 10.4638 85.7188C12.1278 85.7188 13.5892 86.0601 14.8478 86.7428C16.1278 87.4041 17.0985 88.3854 17.7598 89.6868L14.6878 91.4787C14.1758 90.6681 13.5465 90.0708 12.7998 89.6868C12.0745 89.3028 11.2852 89.1107 10.4318 89.1107C9.45049 89.1107 8.56515 89.3241 7.77582 89.7507C6.98649 90.1774 6.36782 90.7961 5.91982 91.6068C5.47182 92.3961 5.24782 93.3454 5.24782 94.4547C5.24782 95.5641 5.47182 96.5241 5.91982 97.3347C6.36782 98.1241 6.98649 98.7321 7.77582 99.1588C8.56515 99.5854 9.45049 99.7988 10.4318 99.7988C11.2852 99.7988 12.0745 99.6067 12.7998 99.2227C13.5465 98.8387 14.1758 98.2414 14.6878 97.4308L17.7598 99.2227C17.0985 100.503 16.1278 101.495 14.8478 102.199C13.5892 102.881 12.1278 103.223 10.4638 103.223Z" fill="white"/>
<path d="M553.537 70.4302C552.705 70.4302 551.873 70.2915 551.041 70.0142C550.209 69.7368 549.516 69.3528 548.961 68.8622L550.561 65.9182C550.966 66.2808 551.425 66.5688 551.937 66.7822C552.449 66.9955 552.972 67.1022 553.505 67.1022C554.23 67.1022 554.817 66.9208 555.265 66.5582C555.713 66.1955 556.129 65.5875 556.513 64.7342L557.505 62.4942L557.825 62.0142L564.289 46.9102H568.129L560.129 65.3742C559.596 66.6542 558.998 67.6675 558.337 68.4142C557.697 69.1608 556.972 69.6835 556.161 69.9822C555.372 70.2808 554.497 70.4302 553.537 70.4302ZM557.057 64.6062L549.345 46.9102H553.505L559.777 61.6622L557.057 64.6062Z" fill="white"/>
<path d="M545.444 63.9982L539.268 55.8062L542.532 53.7902L550.148 63.9982H545.444ZM533.188 63.9982V46.9102H537.188V63.9982H533.188ZM536.005 57.1502V53.8222H541.797V57.1502H536.005ZM542.917 55.9342L539.172 55.4862L545.444 46.9102H549.732L542.917 55.9342Z" fill="white"/>
<path d="M509.817 63.9662L510.009 60.6062C510.159 60.6275 510.297 60.6488 510.425 60.6702C510.553 60.6915 510.671 60.7022 510.777 60.7022C511.439 60.7022 511.951 60.4995 512.313 60.0942C512.676 59.6888 512.943 59.1448 513.113 58.4622C513.305 57.7582 513.433 56.9795 513.497 56.1262C513.583 55.2515 513.647 54.3768 513.689 53.5022L513.977 46.9102H527.801V63.9982H523.801V49.2142L524.729 50.3022H516.601L517.465 49.1822L517.241 53.6942C517.177 55.2088 517.049 56.6168 516.857 57.9182C516.687 59.1982 516.409 60.3182 516.025 61.2782C515.663 62.2382 515.151 62.9848 514.489 63.5182C513.849 64.0515 513.028 64.3182 512.025 64.3182C511.705 64.3182 511.353 64.2862 510.969 64.2222C510.607 64.1582 510.223 64.0728 509.817 63.9662Z" fill="white"/>
<path d="M495.974 70.4302C495.142 70.4302 494.31 70.2915 493.478 70.0142C492.646 69.7368 491.953 69.3528 491.398 68.8622L492.998 65.9182C493.404 66.2808 493.862 66.5688 494.374 66.7822C494.886 66.9955 495.409 67.1022 495.942 67.1022C496.668 67.1022 497.254 66.9208 497.702 66.5582C498.15 66.1955 498.566 65.5875 498.95 64.7342L499.942 62.4942L500.262 62.0142L506.726 46.9102H510.566L502.566 65.3742C502.033 66.6542 501.436 67.6675 500.774 68.4142C500.134 69.1608 499.409 69.6835 498.598 69.9822C497.809 70.2808 496.934 70.4302 495.974 70.4302ZM499.494 64.6062L491.782 46.9102H495.942L502.214 61.6622L499.494 64.6062Z" fill="white"/>
<path d="M478.376 63.9982V46.9102H491.496V50.3022H481.448L482.376 49.4062V63.9982H478.376Z" fill="white"/>
<path d="M465.304 64.2227C463.554 64.2227 461.997 63.8494 460.632 63.1027C459.266 62.3347 458.189 61.2894 457.4 59.9668C456.61 58.6441 456.216 57.1401 456.216 55.4548C456.216 53.7481 456.61 52.2441 457.4 50.9427C458.189 49.6201 459.266 48.5854 460.632 47.8387C461.997 47.0921 463.554 46.7188 465.304 46.7188C467.075 46.7188 468.642 47.0921 470.008 47.8387C471.394 48.5854 472.472 49.6094 473.24 50.9108C474.029 52.2121 474.424 53.7267 474.424 55.4548C474.424 57.1401 474.029 58.6441 473.24 59.9668C472.472 61.2894 471.394 62.3347 470.008 63.1027C468.642 63.8494 467.075 64.2227 465.304 64.2227ZM465.304 60.7988C466.285 60.7988 467.16 60.5854 467.928 60.1588C468.696 59.7321 469.293 59.1134 469.72 58.3027C470.168 57.4921 470.392 56.5428 470.392 55.4548C470.392 54.3454 470.168 53.3961 469.72 52.6068C469.293 51.7961 468.696 51.1774 467.928 50.7507C467.16 50.3241 466.296 50.1107 465.336 50.1107C464.354 50.1107 463.48 50.3241 462.712 50.7507C461.965 51.1774 461.368 51.7961 460.92 52.6068C460.472 53.3961 460.248 54.3454 460.248 55.4548C460.248 56.5428 460.472 57.4921 460.92 58.3027C461.368 59.1134 461.965 59.7321 462.712 60.1588C463.48 60.5854 464.344 60.7988 465.304 60.7988Z" fill="white"/>
<path d="M445.035 64.2227C443.649 64.2227 442.379 63.9027 441.227 63.2627C440.097 62.6227 439.19 61.6628 438.507 60.3828C437.846 59.0814 437.516 57.4388 437.516 55.4548C437.516 53.4494 437.835 51.8067 438.475 50.5267C439.137 49.2467 440.033 48.2974 441.163 47.6787C442.294 47.0387 443.585 46.7188 445.035 46.7188C446.721 46.7188 448.203 47.0814 449.483 47.8067C450.785 48.5321 451.809 49.5454 452.555 50.8467C453.323 52.1481 453.707 53.6841 453.707 55.4548C453.707 57.2254 453.323 58.7721 452.555 60.0947C451.809 61.3961 450.785 62.4094 449.483 63.1348C448.203 63.8601 446.721 64.2227 445.035 64.2227ZM435.563 70.2067V46.9108H439.371V50.9427L439.243 55.4867L439.563 60.0307V70.2067H435.563ZM444.587 60.7988C445.547 60.7988 446.401 60.5854 447.147 60.1588C447.915 59.7321 448.523 59.1134 448.971 58.3027C449.419 57.4921 449.643 56.5428 449.643 55.4548C449.643 54.3454 449.419 53.3961 448.971 52.6068C448.523 51.7961 447.915 51.1774 447.147 50.7507C446.401 50.3241 445.547 50.1107 444.587 50.1107C443.627 50.1107 442.763 50.3241 441.995 50.7507C441.227 51.1774 440.619 51.7961 440.171 52.6068C439.723 53.3961 439.499 54.3454 439.499 55.4548C439.499 56.5428 439.723 57.4921 440.171 58.3027C440.619 59.1134 441.227 59.7321 441.995 60.1588C442.763 60.5854 443.627 60.7988 444.587 60.7988Z" fill="white"/>
<path d="M413.782 63.9982V46.9102H430.166V63.9982H426.198V49.3742L427.126 50.3022H416.854L417.782 49.3742V63.9982H413.782Z" fill="white"/>
<path d="M396.213 63.9987V60.5427L395.989 59.8067V53.7588C395.989 52.5854 395.637 51.6787 394.933 51.0387C394.229 50.3774 393.162 50.0467 391.733 50.0467C390.773 50.0467 389.823 50.1961 388.885 50.4948C387.967 50.7934 387.189 51.2094 386.549 51.7428L384.981 48.8307C385.898 48.1267 386.986 47.6041 388.245 47.2627C389.525 46.9001 390.847 46.7188 392.213 46.7188C394.687 46.7188 396.597 47.3161 397.941 48.5107C399.306 49.6841 399.989 51.5081 399.989 53.9827V63.9987H396.213ZM390.837 64.2227C389.557 64.2227 388.437 64.0094 387.477 63.5827C386.517 63.1347 385.77 62.5268 385.237 61.7588C384.725 60.9694 384.469 60.0841 384.469 59.1027C384.469 58.1427 384.693 57.2787 385.141 56.5107C385.61 55.7428 386.367 55.1348 387.413 54.6868C388.458 54.2388 389.845 54.0147 391.573 54.0147H396.533V56.6707H391.861C390.495 56.6707 389.578 56.8948 389.109 57.3428C388.639 57.7694 388.405 58.3027 388.405 58.9427C388.405 59.6681 388.693 60.2441 389.269 60.6707C389.845 61.0974 390.645 61.3107 391.669 61.3107C392.65 61.3107 393.525 61.0867 394.293 60.6387C395.082 60.1907 395.647 59.5294 395.989 58.6547L396.661 61.0547C396.277 62.0574 395.583 62.8361 394.581 63.3907C393.599 63.9454 392.351 64.2227 390.837 64.2227Z" fill="white"/>
<path d="M363.876 63.9982V46.9102H367.876V53.8542H376.484V46.9102H380.484V63.9982H376.484V57.2462H367.876V63.9982H363.876Z" fill="white"/>
<path d="M346.067 63.9982V58.1742L346.643 58.8462H341.523C339.177 58.8462 337.331 58.3555 335.987 57.3742C334.665 56.3715 334.003 54.9315 334.003 53.0542C334.003 51.0488 334.707 49.5235 336.115 48.4781C337.545 47.4328 339.443 46.9102 341.811 46.9102H349.651V63.9982H346.067ZM333.779 63.9982L338.387 57.4702H342.483L338.067 63.9982H333.779ZM346.067 56.8941V49.2142L346.643 50.2702H341.939C340.702 50.2702 339.742 50.5048 339.059 50.9742C338.398 51.4222 338.067 52.1582 338.067 53.1822C338.067 55.1022 339.315 56.0622 341.811 56.0622H346.643L346.067 56.8941Z" fill="white"/>
<path d="M325.119 62.1422V50.3022H318.559L318.463 53.0542C318.42 54.0355 318.356 54.9848 318.271 55.9022C318.186 56.7982 318.047 57.6302 317.855 58.3982C317.663 59.1448 317.385 59.7635 317.023 60.2542C316.66 60.7448 316.18 61.0648 315.583 61.2142L311.615 60.6062C312.255 60.6062 312.767 60.4035 313.151 59.9982C313.556 59.5715 313.865 58.9955 314.079 58.2702C314.313 57.5235 314.484 56.6808 314.591 55.7422C314.698 54.7822 314.772 53.7902 314.815 52.7662L315.039 46.9102H329.119V62.1422H325.119ZM311.007 67.8062V60.6062H331.647V67.8062H327.903V63.9982H314.719V67.8062H311.007Z" fill="white"/>
<path d="M290.938 63.9994V46.9114H294.938V58.1754L304.378 46.9114H308.026V63.9994H304.026V52.7354L294.618 63.9994H290.938ZM299.227 44.8954C297.52 44.8954 296.208 44.5007 295.29 43.7114C294.373 42.9007 293.904 41.7274 293.882 40.1914H296.538C296.56 40.9594 296.794 41.5674 297.242 42.0154C297.712 42.4634 298.362 42.6874 299.194 42.6874C300.005 42.6874 300.645 42.4634 301.115 42.0154C301.605 41.5674 301.861 40.9594 301.882 40.1914H304.602C304.581 41.7274 304.101 42.9007 303.162 43.7114C302.245 44.5007 300.933 44.8954 299.227 44.8954Z" fill="white"/>
<path d="M281.561 63.9982V46.9102H285.561V63.9982H281.561ZM272.633 52.5422C274.831 52.5422 276.495 53.0328 277.625 54.0142C278.777 54.9955 279.353 56.3822 279.353 58.1742C279.353 60.0302 278.714 61.4808 277.434 62.5262C276.175 63.5502 274.383 64.0515 272.057 64.0302L264.313 63.9982V46.9102H268.313V52.5102L272.633 52.5422ZM271.705 61.0862C272.879 61.1075 273.775 60.8622 274.393 60.3502C275.012 59.8382 275.322 59.0915 275.322 58.1102C275.322 57.1288 275.012 56.4248 274.393 55.9982C273.796 55.5502 272.9 55.3155 271.705 55.2942L268.313 55.2622V61.0542L271.705 61.0862Z" fill="white"/>
<path d="M244.501 63.9982V46.9102H252.853C254.922 46.9102 256.544 47.2941 257.717 48.0621C258.912 48.8301 259.509 49.9182 259.509 51.3262C259.509 52.7128 258.954 53.8008 257.845 54.5902C256.736 55.3582 255.264 55.7422 253.429 55.7422L253.909 54.7502C255.978 54.7502 257.514 55.1342 258.517 55.9022C259.541 56.6488 260.053 57.7475 260.053 59.1982C260.053 60.7128 259.488 61.8968 258.357 62.7502C257.226 63.5822 255.509 63.9982 253.205 63.9982H244.501ZM248.309 61.0862H252.885C253.973 61.0862 254.794 60.9155 255.349 60.5742C255.904 60.2115 256.181 59.6675 256.181 58.9422C256.181 58.1742 255.925 57.6088 255.413 57.2462C254.901 56.8835 254.101 56.7022 253.013 56.7022H248.309V61.0862ZM248.309 54.0462H252.501C253.525 54.0462 254.293 53.8648 254.805 53.5022C255.338 53.1182 255.605 52.5848 255.605 51.9022C255.605 51.1982 255.338 50.6755 254.805 50.3342C254.293 49.9928 253.525 49.8222 252.501 49.8222H248.309V54.0462Z" fill="white"/>
<path d="M222.585 64.2227C220.836 64.2227 219.278 63.8494 217.913 63.1027C216.548 62.3347 215.47 61.2894 214.681 59.9668C213.892 58.6441 213.497 57.1401 213.497 55.4548C213.497 53.7481 213.892 52.2441 214.681 50.9427C215.47 49.6201 216.548 48.5854 217.913 47.8387C219.278 47.0921 220.836 46.7188 222.585 46.7188C224.356 46.7188 225.924 47.0921 227.289 47.8387C228.676 48.5854 229.753 49.6094 230.521 50.9108C231.31 52.2121 231.705 53.7267 231.705 55.4548C231.705 57.1401 231.31 58.6441 230.521 59.9668C229.753 61.2894 228.676 62.3347 227.289 63.1027C225.924 63.8494 224.356 64.2227 222.585 64.2227ZM222.585 60.7988C223.566 60.7988 224.441 60.5854 225.209 60.1588C225.977 59.7321 226.574 59.1134 227.001 58.3027C227.449 57.4921 227.673 56.5428 227.673 55.4548C227.673 54.3454 227.449 53.3961 227.001 52.6068C226.574 51.7961 225.977 51.1774 225.209 50.7507C224.441 50.3241 223.577 50.1107 222.617 50.1107C221.636 50.1107 220.761 50.3241 219.993 50.7507C219.246 51.1774 218.649 51.7961 218.201 52.6068C217.753 53.3961 217.529 54.3454 217.529 55.4548C217.529 56.5428 217.753 57.4921 218.201 58.3027C218.649 59.1134 219.246 59.7321 219.993 60.1588C220.761 60.5854 221.625 60.7988 222.585 60.7988Z" fill="white"/>
<path d="M202.833 63.9982V49.3422L203.761 50.3022H196.817V46.9102H212.817V50.3022H205.905L206.833 49.3422V63.9982H202.833Z" fill="white"/>
<path d="M188.589 64.2227C186.797 64.2227 185.197 63.8494 183.789 63.1027C182.402 62.3347 181.314 61.2894 180.525 59.9668C179.735 58.6441 179.341 57.1401 179.341 55.4548C179.341 53.7481 179.735 52.2441 180.525 50.9427C181.314 49.6201 182.402 48.5854 183.789 47.8387C185.197 47.0921 186.797 46.7188 188.589 46.7188C190.253 46.7188 191.714 47.0601 192.973 47.7428C194.253 48.4041 195.223 49.3854 195.885 50.6868L192.813 52.4787C192.301 51.6681 191.671 51.0708 190.925 50.6868C190.199 50.3028 189.41 50.1107 188.557 50.1107C187.575 50.1107 186.69 50.3241 185.901 50.7507C185.111 51.1774 184.493 51.7961 184.045 52.6068C183.597 53.3961 183.373 54.3454 183.373 55.4548C183.373 56.5641 183.597 57.5241 184.045 58.3347C184.493 59.1241 185.111 59.7321 185.901 60.1588C186.69 60.5854 187.575 60.7988 188.557 60.7988C189.41 60.7988 190.199 60.6067 190.925 60.2227C191.671 59.8387 192.301 59.2414 192.813 58.4307L195.885 60.2227C195.223 61.5027 194.253 62.4947 192.973 63.1987C191.714 63.8814 190.253 64.2227 188.589 64.2227Z" fill="white"/>
<path d="M167.741 64.2227C165.992 64.2227 164.435 63.8494 163.069 63.1027C161.704 62.3347 160.627 61.2894 159.837 59.9668C159.048 58.6441 158.653 57.1401 158.653 55.4548C158.653 53.7481 159.048 52.2441 159.837 50.9427C160.627 49.6201 161.704 48.5854 163.069 47.8387C164.435 47.0921 165.992 46.7188 167.741 46.7188C169.512 46.7188 171.08 47.0921 172.445 47.8387C173.832 48.5854 174.909 49.6094 175.677 50.9108C176.467 52.2121 176.861 53.7267 176.861 55.4548C176.861 57.1401 176.467 58.6441 175.677 59.9668C174.909 61.2894 173.832 62.3347 172.445 63.1027C171.08 63.8494 169.512 64.2227 167.741 64.2227ZM167.741 60.7988C168.723 60.7988 169.597 60.5854 170.365 60.1588C171.133 59.7321 171.731 59.1134 172.157 58.3027C172.605 57.4921 172.829 56.5428 172.829 55.4548C172.829 54.3454 172.605 53.3961 172.157 52.6068C171.731 51.7961 171.133 51.1774 170.365 50.7507C169.597 50.3241 168.733 50.1107 167.773 50.1107C166.792 50.1107 165.917 50.3241 165.149 50.7507C164.403 51.1774 163.805 51.7961 163.357 52.6068C162.909 53.3961 162.685 54.3454 162.685 55.4548C162.685 56.5428 162.909 57.4921 163.357 58.3027C163.805 59.1134 164.403 59.7321 165.149 60.1588C165.917 60.5854 166.781 60.7988 167.741 60.7988Z" fill="white"/>
<path d="M147.473 64.2227C146.086 64.2227 144.817 63.9027 143.665 63.2627C142.534 62.6227 141.628 61.6628 140.945 60.3828C140.284 59.0814 139.953 57.4388 139.953 55.4548C139.953 53.4494 140.273 51.8067 140.913 50.5267C141.574 49.2467 142.47 48.2974 143.601 47.6787C144.732 47.0387 146.022 46.7188 147.473 46.7188C149.158 46.7188 150.641 47.0814 151.921 47.8067C153.222 48.5321 154.246 49.5454 154.993 50.8467C155.761 52.1481 156.145 53.6841 156.145 55.4548C156.145 57.2254 155.761 58.7721 154.993 60.0947C154.246 61.3961 153.222 62.4094 151.921 63.1348C150.641 63.8601 149.158 64.2227 147.473 64.2227ZM138.001 70.2067V46.9108H141.809V50.9427L141.681 55.4867L142.001 60.0307V70.2067H138.001ZM147.025 60.7988C147.985 60.7988 148.838 60.5854 149.585 60.1588C150.353 59.7321 150.961 59.1134 151.409 58.3027C151.857 57.4921 152.081 56.5428 152.081 55.4548C152.081 54.3454 151.857 53.3961 151.409 52.6068C150.961 51.7961 150.353 51.1774 149.585 50.7507C148.838 50.3241 147.985 50.1107 147.025 50.1107C146.065 50.1107 145.201 50.3241 144.433 50.7507C143.665 51.1774 143.057 51.7961 142.609 52.6068C142.161 53.3961 141.937 54.3454 141.937 55.4548C141.937 56.5428 142.161 57.4921 142.609 58.3027C143.057 59.1134 143.665 59.7321 144.433 60.1588C145.201 60.5854 146.065 60.7988 147.025 60.7988Z" fill="white"/>
<path d="M116.22 63.9982V46.9102H132.604V63.9982H128.636V49.3742L129.564 50.3022H119.292L120.22 49.3742V63.9982H116.22Z" fill="white"/>
<path d="M94.1348 56.7674V53.4395H102.935V56.7674H94.1348Z" fill="white"/>
<path d="M73.1476 64.2227C71.3982 64.2227 69.8409 63.8494 68.4756 63.1027C67.1102 62.3347 66.0329 61.2894 65.2436 59.9668C64.4542 58.6441 64.0596 57.1401 64.0596 55.4548C64.0596 53.7481 64.4542 52.2441 65.2436 50.9427C66.0329 49.6201 67.1102 48.5854 68.4756 47.8387C69.8409 47.0921 71.3982 46.7188 73.1476 46.7188C74.9182 46.7188 76.4862 47.0921 77.8516 47.8387C79.2382 48.5854 80.3156 49.6094 81.0836 50.9108C81.8729 52.2121 82.2676 53.7267 82.2676 55.4548C82.2676 57.1401 81.8729 58.6441 81.0836 59.9668C80.3156 61.2894 79.2382 62.3347 77.8516 63.1027C76.4862 63.8494 74.9182 64.2227 73.1476 64.2227ZM73.1476 60.7988C74.1289 60.7988 75.0036 60.5854 75.7716 60.1588C76.5396 59.7321 77.1369 59.1134 77.5636 58.3027C78.0116 57.4921 78.2356 56.5428 78.2356 55.4548C78.2356 54.3454 78.0116 53.3961 77.5636 52.6068C77.1369 51.7961 76.5396 51.1774 75.7716 50.7507C75.0036 50.3241 74.1396 50.1107 73.1796 50.1107C72.1982 50.1107 71.3236 50.3241 70.5556 50.7507C69.8089 51.1774 69.2116 51.7961 68.7636 52.6068C68.3156 53.3961 68.0916 54.3454 68.0916 55.4548C68.0916 56.5428 68.3156 57.4921 68.7636 58.3027C69.2116 59.1134 69.8089 59.7321 70.5556 60.1588C71.3236 60.5854 72.1876 60.7988 73.1476 60.7988Z" fill="white"/>
<path d="M42.1611 63.9662L42.3531 60.6062C42.5025 60.6275 42.6411 60.6488 42.7691 60.6702C42.8971 60.6915 43.0145 60.7022 43.1211 60.7022C43.7825 60.7022 44.2945 60.4995 44.6571 60.0942C45.0198 59.6888 45.2865 59.1448 45.4571 58.4622C45.6491 57.7582 45.7771 56.9795 45.8411 56.1262C45.9265 55.2515 45.9905 54.3768 46.0331 53.5022L46.3211 46.9102H60.1451V63.9982H56.1451V49.2142L57.0731 50.3022H48.9451L49.8091 49.1822L49.5851 53.6942C49.5211 55.2088 49.3931 56.6168 49.2011 57.9182C49.0305 59.1982 48.7531 60.3182 48.3691 61.2782C48.0065 62.2382 47.4945 62.9848 46.8331 63.5182C46.1931 64.0515 45.3718 64.3182 44.3691 64.3182C44.0491 64.3182 43.6971 64.2862 43.3131 64.2222C42.9505 64.1582 42.5665 64.0728 42.1611 63.9662Z" fill="white"/>
<path d="M32.4683 64.2227C30.5697 64.2227 28.9057 63.8494 27.4763 63.1027C26.0683 62.3347 24.9697 61.2894 24.1803 59.9668C23.4123 58.6441 23.0283 57.1401 23.0283 55.4548C23.0283 53.7481 23.4017 52.2441 24.1483 50.9427C24.9163 49.6201 25.9617 48.5854 27.2843 47.8387C28.6283 47.0921 30.1537 46.7188 31.8603 46.7188C33.5243 46.7188 35.007 47.0814 36.3083 47.8067C37.6097 48.5321 38.6337 49.5561 39.3803 50.8787C40.127 52.2014 40.5003 53.7588 40.5003 55.5508C40.5003 55.7214 40.4897 55.9134 40.4683 56.1267C40.4683 56.3401 40.4577 56.5427 40.4363 56.7347H26.1963V54.0788H38.3243L36.7563 54.9108C36.7777 53.9294 36.575 53.0654 36.1483 52.3187C35.7217 51.5721 35.135 50.9854 34.3883 50.5587C33.663 50.1321 32.8203 49.9187 31.8603 49.9187C30.879 49.9187 30.015 50.1321 29.2683 50.5587C28.543 50.9854 27.967 51.5827 27.5403 52.3507C27.135 53.0974 26.9323 53.9827 26.9323 55.0067V55.6468C26.9323 56.6708 27.167 57.5774 27.6363 58.3667C28.1057 59.1561 28.767 59.7641 29.6203 60.1908C30.4737 60.6174 31.455 60.8307 32.5643 60.8307C33.5243 60.8307 34.3883 60.6814 35.1563 60.3828C35.9243 60.0841 36.607 59.6147 37.2043 58.9747L39.3483 61.4388C38.5803 62.3348 37.6097 63.0281 36.4363 63.5187C35.2843 63.9881 33.9617 64.2227 32.4683 64.2227Z" fill="white"/>
<path d="M14.4001 62.1422V50.3022H7.84009L7.74409 53.0542C7.70142 54.0355 7.63742 54.9848 7.55209 55.9022C7.46675 56.7982 7.32809 57.6302 7.13609 58.3982C6.94409 59.1448 6.66675 59.7635 6.30409 60.2542C5.94142 60.7448 5.46142 61.0648 4.86409 61.2142L0.896086 60.6062C1.53609 60.6062 2.04809 60.4035 2.43209 59.9982C2.83742 59.5715 3.14675 58.9955 3.36009 58.2702C3.59475 57.5235 3.76542 56.6808 3.87209 55.7422C3.97875 54.7822 4.05342 53.7902 4.09609 52.7662L4.32009 46.9102H18.4001V62.1422H14.4001ZM0.288086 67.8062V60.6062H20.9281V67.8062H17.1841V63.9982H4.00009V67.8062H0.288086Z" fill="white"/>
<path d="M571.718 25.2227C569.82 25.2227 568.156 24.8494 566.726 24.1027C565.318 23.3347 564.22 22.2894 563.43 20.9667C562.662 19.6441 562.278 18.1401 562.278 16.4548C562.278 14.7481 562.652 13.2441 563.398 11.9427C564.166 10.6201 565.212 9.58541 566.534 8.83875C567.878 8.09208 569.404 7.71875 571.11 7.71875C572.774 7.71875 574.257 8.08141 575.558 8.80675C576.86 9.53208 577.884 10.5561 578.63 11.8787C579.377 13.2014 579.75 14.7588 579.75 16.5508C579.75 16.7214 579.74 16.9134 579.718 17.1267C579.718 17.3401 579.708 17.5427 579.686 17.7347H565.446V15.0788H577.574L576.006 15.9107C576.028 14.9294 575.825 14.0654 575.398 13.3187C574.972 12.5721 574.385 11.9854 573.638 11.5587C572.913 11.1321 572.07 10.9187 571.11 10.9187C570.129 10.9187 569.265 11.1321 568.518 11.5587C567.793 11.9854 567.217 12.5827 566.79 13.3507C566.385 14.0974 566.182 14.9827 566.182 16.0067V16.6467C566.182 17.6707 566.417 18.5774 566.886 19.3667C567.356 20.1561 568.017 20.7641 568.87 21.1908C569.724 21.6174 570.705 21.8307 571.814 21.8307C572.774 21.8307 573.638 21.6814 574.406 21.3827C575.174 21.0841 575.857 20.6147 576.454 19.9747L578.598 22.4387C577.83 23.3347 576.86 24.0281 575.686 24.5187C574.534 24.9881 573.212 25.2227 571.718 25.2227Z" fill="white"/>
<path d="M550.679 25.2227C548.929 25.2227 547.372 24.8494 546.007 24.1027C544.642 23.3347 543.564 22.2894 542.775 20.9667C541.986 19.6441 541.591 18.1401 541.591 16.4548C541.591 14.7481 541.986 13.2441 542.775 11.9427C543.564 10.6201 544.642 9.58541 546.007 8.83875C547.372 8.09208 548.929 7.71875 550.679 7.71875C552.45 7.71875 554.017 8.09208 555.383 8.83875C556.769 9.58541 557.847 10.6094 558.615 11.9107C559.404 13.2121 559.799 14.7267 559.799 16.4548C559.799 18.1401 559.404 19.6441 558.615 20.9667C557.847 22.2894 556.769 23.3347 555.383 24.1027C554.017 24.8494 552.45 25.2227 550.679 25.2227ZM550.679 21.7987C551.66 21.7987 552.535 21.5854 553.303 21.1587C554.071 20.7321 554.668 20.1134 555.095 19.3027C555.543 18.4921 555.767 17.5428 555.767 16.4548C555.767 15.3454 555.543 14.3961 555.095 13.6068C554.668 12.7961 554.071 12.1774 553.303 11.7507C552.535 11.3241 551.671 11.1107 550.711 11.1107C549.729 11.1107 548.855 11.3241 548.087 11.7507C547.34 12.1774 546.743 12.7961 546.295 13.6068C545.847 14.3961 545.623 15.3454 545.623 16.4548C545.623 17.5428 545.847 18.4921 546.295 19.3027C546.743 20.1134 547.34 20.7321 548.087 21.1587C548.855 21.5854 549.719 21.7987 550.679 21.7987Z" fill="white"/>
<path d="M530.41 25.2227C529.024 25.2227 527.754 24.9027 526.602 24.2627C525.472 23.6227 524.565 22.6627 523.883 21.3827C523.221 20.0814 522.891 18.4388 522.891 16.4548C522.891 14.4494 523.21 12.8067 523.85 11.5267C524.512 10.2467 525.408 9.29742 526.539 8.67875C527.669 8.03875 528.96 7.71875 530.41 7.71875C532.096 7.71875 533.579 8.08141 534.859 8.80675C536.16 9.53208 537.184 10.5454 537.93 11.8467C538.698 13.1481 539.083 14.6841 539.083 16.4548C539.083 18.2254 538.698 19.7721 537.93 21.0947C537.184 22.3961 536.16 23.4094 534.859 24.1348C533.579 24.8601 532.096 25.2227 530.41 25.2227ZM520.938 31.2067V7.91075H524.746V11.9427L524.618 16.4867L524.938 21.0308V31.2067H520.938ZM529.962 21.7987C530.922 21.7987 531.776 21.5854 532.522 21.1587C533.29 20.7321 533.898 20.1134 534.346 19.3027C534.794 18.4921 535.018 17.5428 535.018 16.4548C535.018 15.3454 534.794 14.3961 534.346 13.6068C533.898 12.7961 533.29 12.1774 532.522 11.7507C531.776 11.3241 530.922 11.1107 529.962 11.1107C529.002 11.1107 528.138 11.3241 527.37 11.7507C526.602 12.1774 525.995 12.7961 525.547 13.6068C525.099 14.3961 524.875 15.3454 524.875 16.4548C524.875 17.5428 525.099 18.4921 525.547 19.3027C525.995 20.1134 526.602 20.7321 527.37 21.1587C528.138 21.5854 529.002 21.7987 529.962 21.7987Z" fill="white"/>
<path d="M507.755 25.3189C506.347 25.3189 505.088 25.1056 503.979 24.6789C502.869 24.2523 501.909 23.6016 501.099 22.7269C500.309 21.8309 499.701 20.7003 499.275 19.3349C498.848 17.9696 498.635 16.3483 498.635 14.4709C498.635 13.1056 498.752 11.8576 498.987 10.7269C499.221 9.59627 499.573 8.58294 500.043 7.68694C500.512 6.76961 501.099 5.95894 501.803 5.25494C502.528 4.55094 503.371 3.96427 504.331 3.49494C505.291 3.02561 506.379 2.66294 507.595 2.40694L515.531 0.710938L516.107 4.29494L508.907 5.76694C508.501 5.85227 508.011 5.98027 507.435 6.15094C506.88 6.30027 506.304 6.53494 505.707 6.85494C505.131 7.1536 504.587 7.59094 504.075 8.16694C503.584 8.72161 503.179 9.44694 502.859 10.3429C502.56 11.2176 502.411 12.3163 502.411 13.6389C502.411 14.0443 502.421 14.3536 502.443 14.5669C502.485 14.7589 502.517 14.9723 502.539 15.2069C502.581 15.4203 502.603 15.7403 502.603 16.1669L501.099 14.5989C501.525 13.5109 502.112 12.5829 502.859 11.8149C503.627 11.0256 504.512 10.4283 505.515 10.0229C506.539 9.59627 507.648 9.38294 508.843 9.38294C510.443 9.38294 511.861 9.7136 513.099 10.3749C514.336 11.0363 515.307 11.9643 516.011 13.1589C516.715 14.3536 517.067 15.7083 517.067 17.2229C517.067 18.8016 516.683 20.1989 515.915 21.4149C515.147 22.6309 514.059 23.5909 512.651 24.2949C511.264 24.9776 509.632 25.3189 507.755 25.3189ZM508.075 22.0869C509.035 22.0869 509.877 21.8843 510.603 21.4789C511.349 21.0523 511.925 20.4763 512.331 19.7509C512.757 19.0256 512.971 18.2149 512.971 17.3189C512.971 16.4229 512.757 15.6443 512.331 14.9829C511.925 14.3003 511.349 13.7563 510.603 13.3509C509.877 12.9456 509.013 12.7429 508.011 12.7429C507.051 12.7429 506.187 12.9349 505.419 13.3189C504.672 13.7029 504.085 14.2363 503.659 14.9189C503.253 15.5803 503.051 16.3483 503.051 17.2229C503.051 18.1189 503.264 18.9403 503.691 19.6869C504.117 20.4336 504.704 21.0203 505.451 21.4469C506.219 21.8736 507.093 22.0869 508.075 22.0869Z" fill="white"/>
<path d="M486.523 25.2227C484.773 25.2227 483.216 24.8494 481.851 24.1027C480.485 23.3347 479.408 22.2894 478.619 20.9667C477.829 19.6441 477.435 18.1401 477.435 16.4548C477.435 14.7481 477.829 13.2441 478.619 11.9427C479.408 10.6201 480.485 9.58541 481.851 8.83875C483.216 8.09208 484.773 7.71875 486.523 7.71875C488.293 7.71875 489.861 8.09208 491.227 8.83875C492.613 9.58541 493.691 10.6094 494.459 11.9107C495.248 13.2121 495.643 14.7267 495.643 16.4548C495.643 18.1401 495.248 19.6441 494.459 20.9667C493.691 22.2894 492.613 23.3347 491.227 24.1027C489.861 24.8494 488.293 25.2227 486.523 25.2227ZM486.523 21.7987C487.504 21.7987 488.379 21.5854 489.147 21.1587C489.915 20.7321 490.512 20.1134 490.939 19.3027C491.387 18.4921 491.611 17.5428 491.611 16.4548C491.611 15.3454 491.387 14.3961 490.939 13.6068C490.512 12.7961 489.915 12.1774 489.147 11.7507C488.379 11.3241 487.515 11.1107 486.555 11.1107C485.573 11.1107 484.699 11.3241 483.931 11.7507C483.184 12.1774 482.587 12.7961 482.139 13.6068C481.691 14.3961 481.467 15.3454 481.467 16.4548C481.467 17.5428 481.691 18.4921 482.139 19.3027C482.587 20.1134 483.184 20.7321 483.931 21.1587C484.699 21.5854 485.563 21.7987 486.523 21.7987Z" fill="white"/>
<path d="M468.806 23.1422V11.3022H462.246L462.15 14.0542C462.108 15.0355 462.044 15.9848 461.958 16.9022C461.873 17.7982 461.734 18.6302 461.542 19.3982C461.35 20.1448 461.073 20.7635 460.71 21.2542C460.348 21.7448 459.868 22.0648 459.27 22.2142L455.302 21.6062C455.942 21.6062 456.454 21.4035 456.838 20.9982C457.244 20.5715 457.553 19.9955 457.766 19.2702C458.001 18.5235 458.172 17.6808 458.278 16.7422C458.385 15.7822 458.46 14.7902 458.502 13.7662L458.726 7.91016H472.806V23.1422H468.806ZM454.694 28.8062V21.6062H475.334V28.8062H471.59V24.9982H458.406V28.8062H454.694Z" fill="white"/>
<path d="M437.983 13.5422C440.181 13.5422 441.855 14.0328 443.007 15.0142C444.159 15.9955 444.735 17.3822 444.735 19.1742C444.735 21.0302 444.095 22.4808 442.815 23.5262C441.535 24.5502 439.733 25.0515 437.407 25.0302L429.407 24.9982V7.91016H433.407V13.5102L437.983 13.5422ZM437.055 22.0862C438.229 22.1075 439.125 21.8622 439.743 21.3502C440.362 20.8382 440.671 20.0915 440.671 19.1102C440.671 18.1288 440.362 17.4248 439.743 16.9982C439.146 16.5502 438.25 16.3155 437.055 16.2942L433.407 16.2622V22.0542L437.055 22.0862Z" fill="white"/>
<path d="M416.521 24.9982V10.3422L417.449 11.3022H410.505V7.91016H426.505V11.3022H419.593L420.521 10.3422V24.9982H416.521Z" fill="white"/>
<path d="M404.244 24.9987V21.5427L404.02 20.8067V14.7587C404.02 13.5854 403.668 12.6787 402.964 12.0387C402.26 11.3774 401.193 11.0467 399.764 11.0467C398.804 11.0467 397.855 11.1961 396.916 11.4947C395.999 11.7934 395.22 12.2094 394.58 12.7427L393.012 9.83075C393.929 9.12675 395.017 8.60408 396.276 8.26275C397.556 7.90008 398.879 7.71875 400.244 7.71875C402.719 7.71875 404.628 8.31608 405.972 9.51075C407.337 10.6841 408.02 12.5081 408.02 14.9827V24.9987H404.244ZM398.868 25.2227C397.588 25.2227 396.468 25.0094 395.508 24.5827C394.548 24.1347 393.801 23.5267 393.268 22.7587C392.756 21.9694 392.5 21.0841 392.5 20.1027C392.5 19.1427 392.724 18.2787 393.172 17.5107C393.641 16.7428 394.399 16.1347 395.444 15.6867C396.489 15.2387 397.876 15.0147 399.604 15.0147H404.564V17.6707H399.892C398.527 17.6707 397.609 17.8948 397.14 18.3428C396.671 18.7694 396.436 19.3027 396.436 19.9427C396.436 20.6681 396.724 21.2441 397.3 21.6707C397.876 22.0974 398.676 22.3107 399.7 22.3107C400.681 22.3107 401.556 22.0867 402.324 21.6387C403.113 21.1907 403.679 20.5294 404.02 19.6547L404.692 22.0547C404.308 23.0574 403.615 23.8361 402.612 24.3907C401.631 24.9454 400.383 25.2227 398.868 25.2227Z" fill="white"/>
<path d="M370.505 24.9662L370.697 21.6062C370.846 21.6275 370.985 21.6488 371.113 21.6702C371.241 21.6915 371.358 21.7022 371.465 21.7022C372.126 21.7022 372.638 21.4995 373.001 21.0942C373.364 20.6888 373.63 20.1448 373.801 19.4622C373.993 18.7582 374.121 17.9795 374.185 17.1262C374.27 16.2515 374.334 15.3768 374.377 14.5022L374.665 7.91016H388.489V24.9982H384.489V10.2142L385.417 11.3022H377.289L378.153 10.1822L377.929 14.6942C377.865 16.2088 377.737 17.6168 377.545 18.9182C377.374 20.1982 377.097 21.3182 376.713 22.2782C376.35 23.2382 375.838 23.9848 375.177 24.5182C374.537 25.0515 373.716 25.3182 372.713 25.3182C372.393 25.3182 372.041 25.2862 371.657 25.2222C371.294 25.1582 370.91 25.0728 370.505 24.9662Z" fill="white"/>
<path d="M360.812 25.2227C358.913 25.2227 357.249 24.8494 355.82 24.1027C354.412 23.3347 353.313 22.2894 352.524 20.9667C351.756 19.6441 351.372 18.1401 351.372 16.4548C351.372 14.7481 351.745 13.2441 352.492 11.9427C353.26 10.6201 354.305 9.58541 355.628 8.83875C356.972 8.09208 358.497 7.71875 360.204 7.71875C361.868 7.71875 363.351 8.08141 364.652 8.80675C365.953 9.53208 366.977 10.5561 367.724 11.8787C368.471 13.2014 368.844 14.7588 368.844 16.5508C368.844 16.7214 368.833 16.9134 368.812 17.1267C368.812 17.3401 368.801 17.5427 368.78 17.7347H354.54V15.0788H366.668L365.1 15.9107C365.121 14.9294 364.919 14.0654 364.492 13.3187C364.065 12.5721 363.479 11.9854 362.732 11.5587C362.007 11.1321 361.164 10.9187 360.204 10.9187C359.223 10.9187 358.359 11.1321 357.612 11.5587C356.887 11.9854 356.311 12.5827 355.884 13.3507C355.479 14.0974 355.276 14.9827 355.276 16.0067V16.6467C355.276 17.6707 355.511 18.5774 355.98 19.3667C356.449 20.1561 357.111 20.7641 357.964 21.1908C358.817 21.6174 359.799 21.8307 360.908 21.8307C361.868 21.8307 362.732 21.6814 363.5 21.3827C364.268 21.0841 364.951 20.6147 365.548 19.9747L367.692 22.4387C366.924 23.3347 365.953 24.0281 364.78 24.5187C363.628 24.9881 362.305 25.2227 360.812 25.2227Z" fill="white"/>
<path d="M342.744 23.1422V11.3022H336.184L336.088 14.0542C336.045 15.0355 335.981 15.9848 335.896 16.9022C335.811 17.7982 335.672 18.6302 335.48 19.3982C335.288 20.1448 335.01 20.7635 334.648 21.2542C334.285 21.7448 333.805 22.0648 333.208 22.2142L329.24 21.6062C329.88 21.6062 330.392 21.4035 330.776 20.9982C331.181 20.5715 331.49 19.9955 331.704 19.2702C331.938 18.5235 332.109 17.6808 332.216 16.7422C332.323 15.7822 332.397 14.7902 332.44 13.7662L332.664 7.91016H346.744V23.1422H342.744ZM328.632 28.8062V21.6062H349.272V28.8062H345.528V24.9982H332.344V28.8062H328.632Z" fill="white"/>
<path d="M320.62 25.2227C318.828 25.2227 317.228 24.8494 315.82 24.1027C314.433 23.3347 313.345 22.2894 312.556 20.9667C311.767 19.6441 311.372 18.1401 311.372 16.4548C311.372 14.7481 311.767 13.2441 312.556 11.9427C313.345 10.6201 314.433 9.58541 315.82 8.83875C317.228 8.09208 318.828 7.71875 320.62 7.71875C322.284 7.71875 323.745 8.06008 325.004 8.74275C326.284 9.40408 327.255 10.3854 327.916 11.6867L324.844 13.4787C324.332 12.6681 323.703 12.0707 322.956 11.6867C322.231 11.3027 321.441 11.1107 320.588 11.1107C319.607 11.1107 318.721 11.3241 317.932 11.7507C317.143 12.1774 316.524 12.7961 316.076 13.6068C315.628 14.3961 315.404 15.3454 315.404 16.4548C315.404 17.5641 315.628 18.5241 316.076 19.3347C316.524 20.1241 317.143 20.7321 317.932 21.1587C318.721 21.5854 319.607 21.7987 320.588 21.7987C321.441 21.7987 322.231 21.6067 322.956 21.2227C323.703 20.8387 324.332 20.2414 324.844 19.4307L327.916 21.2227C327.255 22.5027 326.284 23.4947 325.004 24.1987C323.745 24.8814 322.284 25.2227 320.62 25.2227Z" fill="white"/>
<path d="M293.733 13.5422C295.931 13.5422 297.605 14.0328 298.757 15.0142C299.909 15.9955 300.485 17.3822 300.485 19.1742C300.485 21.0302 299.845 22.4808 298.565 23.5262C297.285 24.5502 295.483 25.0515 293.157 25.0302L285.157 24.9982V7.91016H289.157V13.5102L293.733 13.5422ZM292.805 22.0862C293.979 22.1075 294.875 21.8622 295.493 21.3502C296.112 20.8382 296.421 20.0915 296.421 19.1102C296.421 18.1288 296.112 17.4248 295.493 16.9982C294.896 16.5502 294 16.3155 292.805 16.2942L289.157 16.2622V22.0542L292.805 22.0862Z" fill="white"/>
<path d="M266.083 21.6062L265.219 22.5662V7.91016H269.219V22.5662L268.259 21.6062H276.707L275.779 22.5662V7.91016H279.779V24.9982H254.595V7.91016H258.595V22.5662L257.667 21.6062H266.083Z" fill="white"/>
<path d="M242.187 25.2227C240.288 25.2227 238.624 24.8494 237.195 24.1027C235.787 23.3347 234.688 22.2894 233.899 20.9667C233.131 19.6441 232.747 18.1401 232.747 16.4548C232.747 14.7481 233.12 13.2441 233.867 11.9427C234.635 10.6201 235.68 9.58541 237.003 8.83875C238.347 8.09208 239.872 7.71875 241.579 7.71875C243.243 7.71875 244.726 8.08141 246.027 8.80675C247.328 9.53208 248.352 10.5561 249.099 11.8787C249.846 13.2014 250.219 14.7588 250.219 16.5508C250.219 16.7214 250.208 16.9134 250.187 17.1267C250.187 17.3401 250.176 17.5427 250.155 17.7347H235.915V15.0788H248.043L246.475 15.9107C246.496 14.9294 246.294 14.0654 245.867 13.3187C245.44 12.5721 244.854 11.9854 244.107 11.5587C243.382 11.1321 242.539 10.9187 241.579 10.9187C240.598 10.9187 239.734 11.1321 238.987 11.5587C238.262 11.9854 237.686 12.5827 237.259 13.3507C236.854 14.0974 236.651 14.9827 236.651 16.0067V16.6467C236.651 17.6707 236.886 18.5774 237.355 19.3667C237.824 20.1561 238.486 20.7641 239.339 21.1908C240.192 21.6174 241.174 21.8307 242.283 21.8307C243.243 21.8307 244.107 21.6814 244.875 21.3827C245.643 21.0841 246.326 20.6147 246.923 19.9747L249.067 22.4387C248.299 23.3347 247.328 24.0281 246.155 24.5187C245.003 24.9881 243.68 25.2227 242.187 25.2227Z" fill="white"/>
<path d="M227.041 24.9982L222.049 16.8062L225.313 14.7902L231.809 24.9982H227.041ZM218.817 18.1502V14.8222H224.545V18.1502H218.817ZM225.697 16.9342L221.921 16.4862L227.105 7.91016H231.361L225.697 16.9342ZM208.993 24.9982H204.257L210.721 14.7902L213.985 16.8062L208.993 24.9982ZM220.001 24.9982H216.033V7.91016H220.001V24.9982ZM217.217 18.1502H211.521V14.8222H217.217V18.1502ZM210.337 16.9342L204.673 7.91016H208.929L214.081 16.4862L210.337 16.9342Z" fill="white"/>
<path d="M194.148 25.2227C192.398 25.2227 190.841 24.8494 189.476 24.1027C188.11 23.3347 187.033 22.2894 186.244 20.9667C185.454 19.6441 185.06 18.1401 185.06 16.4548C185.06 14.7481 185.454 13.2441 186.244 11.9427C187.033 10.6201 188.11 9.58541 189.476 8.83875C190.841 8.09208 192.398 7.71875 194.148 7.71875C195.918 7.71875 197.486 8.09208 198.852 8.83875C200.238 9.58541 201.316 10.6094 202.084 11.9107C202.873 13.2121 203.268 14.7267 203.268 16.4548C203.268 18.1401 202.873 19.6441 202.084 20.9667C201.316 22.2894 200.238 23.3347 198.852 24.1027C197.486 24.8494 195.918 25.2227 194.148 25.2227ZM194.148 21.7987C195.129 21.7987 196.004 21.5854 196.772 21.1587C197.54 20.7321 198.137 20.1134 198.564 19.3027C199.012 18.4921 199.236 17.5428 199.236 16.4548C199.236 15.3454 199.012 14.3961 198.564 13.6068C198.137 12.7961 197.54 12.1774 196.772 11.7507C196.004 11.3241 195.14 11.1107 194.18 11.1107C193.198 11.1107 192.324 11.3241 191.556 11.7507C190.809 12.1774 190.212 12.7961 189.764 13.6068C189.316 14.3961 189.092 15.3454 189.092 16.4548C189.092 17.5428 189.316 18.4921 189.764 19.3027C190.212 20.1134 190.809 20.7321 191.556 21.1587C192.324 21.5854 193.188 21.7987 194.148 21.7987Z" fill="white"/>
<path d="M160.751 24.9982V7.91016H164.943L171.823 20.0382H170.159L177.391 7.91016H181.135L181.167 24.9982H177.551V12.1982L178.191 12.6142L171.791 23.2062H170.063L163.631 12.3262L164.399 12.1342V24.9982H160.751Z" fill="white"/>
<path d="M142.53 24.9982V7.91016H146.53V24.9982H142.53ZM133.602 13.5422C135.8 13.5422 137.464 14.0328 138.594 15.0142C139.746 15.9955 140.322 17.3822 140.322 19.1742C140.322 21.0302 139.682 22.4808 138.402 23.5262C137.144 24.5502 135.352 25.0515 133.026 25.0302L125.282 24.9982V7.91016H129.282V13.5102L133.602 13.5422ZM132.674 22.0862C133.848 22.1075 134.744 21.8622 135.362 21.3502C135.981 20.8382 136.29 20.0915 136.29 19.1102C136.29 18.1288 135.981 17.4248 135.362 16.9982C134.765 16.5502 133.869 16.3155 132.674 16.2942L129.282 16.2622V22.0542L132.674 22.0862Z" fill="white"/>
<path d="M112.396 24.9982V10.3422L113.324 11.3022H106.38V7.91016H122.38V11.3022H115.468L116.396 10.3422V24.9982H112.396Z" fill="white"/>
<path d="M89.7332 13.5422C91.9306 13.5422 93.6052 14.0328 94.7572 15.0142C95.9092 15.9955 96.4852 17.3822 96.4852 19.1742C96.4852 21.0302 95.8452 22.4808 94.5652 23.5262C93.2852 24.5502 91.4826 25.0515 89.1572 25.0302L81.1572 24.9982V7.91016H85.1572V13.5102L89.7332 13.5422ZM88.8052 22.0862C89.9786 22.1075 90.8746 21.8622 91.4932 21.3502C92.1119 20.8382 92.4212 20.0915 92.4212 19.1102C92.4212 18.1288 92.1119 17.4248 91.4932 16.9982C90.8959 16.5502 89.9999 16.3155 88.8052 16.2942L85.1572 16.2622V22.0542L88.8052 22.0862Z" fill="white"/>
<path d="M70.3388 25.2227C68.5468 25.2227 66.9468 24.8494 65.5388 24.1027C64.1522 23.3347 63.0642 22.2894 62.2748 20.9667C61.4855 19.6441 61.0908 18.1401 61.0908 16.4548C61.0908 14.7481 61.4855 13.2441 62.2748 11.9427C63.0642 10.6201 64.1522 9.58541 65.5388 8.83875C66.9468 8.09208 68.5468 7.71875 70.3388 7.71875C72.0028 7.71875 73.4642 8.06008 74.7228 8.74275C76.0028 9.40408 76.9735 10.3854 77.6348 11.6867L74.5628 13.4787C74.0508 12.6681 73.4215 12.0707 72.6748 11.6867C71.9495 11.3027 71.1602 11.1107 70.3068 11.1107C69.3255 11.1107 68.4402 11.3241 67.6508 11.7507C66.8615 12.1774 66.2428 12.7961 65.7948 13.6068C65.3468 14.3961 65.1228 15.3454 65.1228 16.4548C65.1228 17.5641 65.3468 18.5241 65.7948 19.3347C66.2428 20.1241 66.8615 20.7321 67.6508 21.1587C68.4402 21.5854 69.3255 21.7987 70.3068 21.7987C71.1602 21.7987 71.9495 21.6067 72.6748 21.2227C73.4215 20.8387 74.0508 20.2414 74.5628 19.4307L77.6348 21.2227C76.9735 22.5027 76.0028 23.4947 74.7228 24.1987C73.4642 24.8814 72.0028 25.2227 70.3388 25.2227Z" fill="white"/>
<path d="M50.1558 25.2227C48.2572 25.2227 46.5932 24.8494 45.1638 24.1027C43.7558 23.3347 42.6572 22.2894 41.8678 20.9667C41.0998 19.6441 40.7158 18.1401 40.7158 16.4548C40.7158 14.7481 41.0892 13.2441 41.8358 11.9427C42.6038 10.6201 43.6492 9.58541 44.9718 8.83875C46.3158 8.09208 47.8412 7.71875 49.5478 7.71875C51.2118 7.71875 52.6945 8.08141 53.9958 8.80675C55.2972 9.53208 56.3212 10.5561 57.0678 11.8787C57.8145 13.2014 58.1878 14.7588 58.1878 16.5508C58.1878 16.7214 58.1772 16.9134 58.1558 17.1267C58.1558 17.3401 58.1452 17.5427 58.1238 17.7347H43.8838V15.0788H56.0118L54.4438 15.9107C54.4652 14.9294 54.2625 14.0654 53.8358 13.3187C53.4092 12.5721 52.8225 11.9854 52.0758 11.5587C51.3505 11.1321 50.5078 10.9187 49.5478 10.9187C48.5665 10.9187 47.7025 11.1321 46.9558 11.5587C46.2305 11.9854 45.6545 12.5827 45.2278 13.3507C44.8225 14.0974 44.6198 14.9827 44.6198 16.0067V16.6467C44.6198 17.6707 44.8545 18.5774 45.3238 19.3667C45.7932 20.1561 46.4545 20.7641 47.3078 21.1908C48.1612 21.6174 49.1425 21.8307 50.2518 21.8307C51.2118 21.8307 52.0758 21.6814 52.8438 21.3827C53.6118 21.0841 54.2945 20.6147 54.8918 19.9747L57.0358 22.4387C56.2678 23.3347 55.2972 24.0281 54.1238 24.5187C52.9718 24.9881 51.6492 25.2227 50.1558 25.2227Z" fill="white"/>
<path d="M32.0876 23.1422V11.3022H25.5276L25.4316 14.0542C25.3889 15.0355 25.3249 15.9848 25.2396 16.9022C25.1543 17.7982 25.0156 18.6302 24.8236 19.3982C24.6316 20.1448 24.3543 20.7635 23.9916 21.2542C23.6289 21.7448 23.1489 22.0648 22.5516 22.2142L18.5836 21.6062C19.2236 21.6062 19.7356 21.4035 20.1196 20.9982C20.5249 20.5715 20.8343 19.9955 21.0476 19.2702C21.2823 18.5235 21.4529 17.6808 21.5596 16.7422C21.6663 15.7822 21.7409 14.7902 21.7836 13.7662L22.0076 7.91016H36.0876V23.1422H32.0876ZM17.9756 28.8062V21.6062H38.6156V28.8062H34.8716V24.9982H21.6876V28.8062H17.9756Z" fill="white"/>
<path d="M8.09581 25.2863C6.79447 25.2863 5.5038 25.137 4.2238 24.8383C2.96514 24.5183 1.8238 24.0703 0.799805 23.4943L1.9198 20.5183C2.7518 20.9877 3.69047 21.3503 4.7358 21.6063C5.78114 21.8623 6.82647 21.9903 7.8718 21.9903C8.76781 21.9903 9.5358 21.905 10.1758 21.7343C10.8158 21.5423 11.3065 21.265 11.6478 20.9023C12.0105 20.5397 12.1918 20.1237 12.1918 19.6543C12.1918 18.9717 11.8931 18.4597 11.2958 18.1183C10.7198 17.7557 9.8878 17.5743 8.7998 17.5743H5.5038V14.8863H8.4798C9.16247 14.8863 9.73847 14.8117 10.2078 14.6623C10.6985 14.513 11.0718 14.289 11.3278 13.9903C11.5838 13.6917 11.7118 13.3397 11.7118 12.9343C11.7118 12.529 11.5518 12.177 11.2318 11.8783C10.9331 11.5583 10.4958 11.3237 9.9198 11.1743C9.34381 11.0037 8.65047 10.9183 7.8398 10.9183C6.98647 10.9183 6.10114 11.025 5.1838 11.2383C4.2878 11.4517 3.37047 11.761 2.4318 12.1663L1.4078 9.22234C2.4958 8.73167 3.55181 8.35834 4.5758 8.10234C5.62114 7.82501 6.6558 7.67567 7.6798 7.65434C9.23714 7.59034 10.6238 7.75034 11.8398 8.13434C13.0558 8.51834 14.0158 9.07301 14.7198 9.79834C15.4238 10.5237 15.7758 11.377 15.7758 12.3583C15.7758 13.169 15.5198 13.905 15.0078 14.5663C14.5171 15.2063 13.8345 15.7077 12.9598 16.0703C12.1065 16.433 11.1251 16.6143 10.0158 16.6143L10.1438 15.7503C12.0425 15.7503 13.5358 16.1343 14.6238 16.9023C15.7118 17.649 16.2558 18.673 16.2558 19.9743C16.2558 21.0197 15.9038 21.9477 15.1998 22.7583C14.4958 23.5477 13.5251 24.1663 12.2878 24.6143C11.0718 25.0623 9.67447 25.2863 8.09581 25.2863Z" fill="white"/>
</svg>
