<svg width="574" height="147" viewBox="0 0 574 147" fill="none" xmlns="http://www.w3.org/2000/svg">
<path d="M400.749 140.224C400.024 140.224 399.405 139.979 398.893 139.488C398.381 138.976 398.125 138.336 398.125 137.568C398.125 136.757 398.381 136.117 398.893 135.648C399.405 135.157 400.024 134.912 400.749 134.912C401.474 134.912 402.093 135.157 402.605 135.648C403.117 136.117 403.373 136.757 403.373 137.568C403.373 138.336 403.117 138.976 402.605 139.488C402.093 139.979 401.474 140.224 400.749 140.224Z" fill="white"/>
<path d="M389.421 128.544C391.618 128.544 393.293 129.035 394.445 130.016C395.597 130.997 396.173 132.384 396.173 134.176C396.173 136.032 395.533 137.483 394.253 138.528C392.973 139.552 391.17 140.053 388.845 140.032L380.845 140V122.912H384.845V128.512L389.421 128.544ZM388.493 137.088C389.666 137.109 390.562 136.864 391.181 136.352C391.799 135.84 392.109 135.093 392.109 134.112C392.109 133.131 391.799 132.427 391.181 132C390.583 131.552 389.687 131.317 388.493 131.296L384.845 131.264V137.056L388.493 137.088Z" fill="white"/>
<path d="M367.959 140V125.344L368.887 126.304H361.943V122.912H377.943V126.304H371.031L371.959 125.344V140H367.959Z" fill="white"/>
<path d="M341.938 140V122.912H345.938V134.176L355.378 122.912H359.026V140H355.026V128.736L345.618 140H341.938Z" fill="white"/>
<path d="M329.053 140V125.344L329.981 126.304H323.037V122.912H339.037V126.304H332.125L333.053 125.344V140H329.053Z" fill="white"/>
<path d="M313.751 140.223C311.852 140.223 310.188 139.849 308.759 139.103C307.351 138.335 306.252 137.289 305.463 135.967C304.695 134.644 304.311 133.14 304.311 131.455C304.311 129.748 304.684 128.244 305.431 126.943C306.199 125.62 307.244 124.585 308.567 123.839C309.911 123.092 311.436 122.719 313.143 122.719C314.807 122.719 316.289 123.081 317.591 123.807C318.892 124.532 319.916 125.556 320.663 126.879C321.409 128.201 321.783 129.759 321.783 131.551C321.783 131.721 321.772 131.913 321.751 132.127C321.751 132.34 321.74 132.543 321.719 132.735H307.479V130.079H319.607L318.039 130.911C318.06 129.929 317.857 129.065 317.431 128.319C317.004 127.572 316.417 126.985 315.671 126.559C314.945 126.132 314.103 125.919 313.143 125.919C312.161 125.919 311.297 126.132 310.551 126.559C309.825 126.985 309.249 127.583 308.823 128.351C308.417 129.097 308.215 129.983 308.215 131.007V131.647C308.215 132.671 308.449 133.577 308.919 134.367C309.388 135.156 310.049 135.764 310.903 136.191C311.756 136.617 312.737 136.831 313.847 136.831C314.807 136.831 315.671 136.681 316.439 136.383C317.207 136.084 317.889 135.615 318.487 134.975L320.631 137.439C319.863 138.335 318.892 139.028 317.719 139.519C316.567 139.988 315.244 140.223 313.751 140.223Z" fill="white"/>
<path d="M295.215 140.223C293.423 140.223 291.823 139.849 290.415 139.103C289.028 138.335 287.94 137.289 287.151 135.967C286.361 134.644 285.967 133.14 285.967 131.455C285.967 129.748 286.361 128.244 287.151 126.943C287.94 125.62 289.028 124.585 290.415 123.839C291.823 123.092 293.423 122.719 295.215 122.719C296.879 122.719 298.34 123.06 299.599 123.743C300.879 124.404 301.849 125.385 302.511 126.687L299.439 128.479C298.927 127.668 298.297 127.071 297.551 126.687C296.825 126.303 296.036 126.111 295.183 126.111C294.201 126.111 293.316 126.324 292.527 126.751C291.737 127.177 291.119 127.796 290.671 128.607C290.223 129.396 289.999 130.345 289.999 131.455C289.999 132.564 290.223 133.524 290.671 134.335C291.119 135.124 291.737 135.732 292.527 136.159C293.316 136.585 294.201 136.799 295.183 136.799C296.036 136.799 296.825 136.607 297.551 136.223C298.297 135.839 298.927 135.241 299.439 134.431L302.511 136.223C301.849 137.503 300.879 138.495 299.599 139.199C298.34 139.881 296.879 140.223 295.215 140.223Z" fill="white"/>
<path d="M274.367 140.223C272.618 140.223 271.061 139.849 269.695 139.103C268.33 138.335 267.253 137.289 266.463 135.967C265.674 134.644 265.279 133.14 265.279 131.455C265.279 129.748 265.674 128.244 266.463 126.943C267.253 125.62 268.33 124.585 269.695 123.839C271.061 123.092 272.618 122.719 274.367 122.719C276.138 122.719 277.706 123.092 279.071 123.839C280.458 124.585 281.535 125.609 282.303 126.911C283.093 128.212 283.487 129.727 283.487 131.455C283.487 133.14 283.093 134.644 282.303 135.967C281.535 137.289 280.458 138.335 279.071 139.103C277.706 139.849 276.138 140.223 274.367 140.223ZM274.367 136.799C275.349 136.799 276.223 136.585 276.991 136.159C277.759 135.732 278.357 135.113 278.783 134.303C279.231 133.492 279.455 132.543 279.455 131.455C279.455 130.345 279.231 129.396 278.783 128.607C278.357 127.796 277.759 127.177 276.991 126.751C276.223 126.324 275.359 126.111 274.399 126.111C273.418 126.111 272.543 126.324 271.775 126.751C271.029 127.177 270.431 127.796 269.983 128.607C269.535 129.396 269.311 130.345 269.311 131.455C269.311 132.543 269.535 133.492 269.983 134.303C270.431 135.113 271.029 135.732 271.775 136.159C272.543 136.585 273.407 136.799 274.367 136.799Z" fill="white"/>
<path d="M244.97 140V122.912H261.354V140H257.386V125.376L258.314 126.304H248.042L248.97 125.376V140H244.97Z" fill="white"/>
<path d="M223.719 140.223C221.821 140.223 220.157 139.849 218.727 139.103C217.319 138.335 216.221 137.289 215.431 135.967C214.663 134.644 214.279 133.14 214.279 131.455C214.279 129.748 214.653 128.244 215.399 126.943C216.167 125.62 217.213 124.585 218.535 123.839C219.879 123.092 221.405 122.719 223.111 122.719C224.775 122.719 226.258 123.081 227.559 123.807C228.861 124.532 229.885 125.556 230.631 126.879C231.378 128.201 231.751 129.759 231.751 131.551C231.751 131.721 231.741 131.913 231.719 132.127C231.719 132.34 231.709 132.543 231.687 132.735H217.447V130.079H229.575L228.007 130.911C228.029 129.929 227.826 129.065 227.399 128.319C226.973 127.572 226.386 126.985 225.639 126.559C224.914 126.132 224.071 125.919 223.111 125.919C222.13 125.919 221.266 126.132 220.519 126.559C219.794 126.985 219.218 127.583 218.791 128.351C218.386 129.097 218.183 129.983 218.183 131.007V131.647C218.183 132.671 218.418 133.577 218.887 134.367C219.357 135.156 220.018 135.764 220.871 136.191C221.725 136.617 222.706 136.831 223.815 136.831C224.775 136.831 225.639 136.681 226.407 136.383C227.175 136.084 227.858 135.615 228.455 134.975L230.599 137.439C229.831 138.335 228.861 139.028 227.687 139.519C226.535 139.988 225.213 140.223 223.719 140.223Z" fill="white"/>
<path d="M193.282 140V122.912H197.282V134.176L206.722 122.912H210.37V140H206.37V128.736L196.962 140H193.282Z" fill="white"/>
<path d="M180.397 140V125.344L181.325 126.304H174.381V122.912H190.381V126.304H183.469L184.397 125.344V140H180.397Z" fill="white"/>
<path d="M167.881 140V134.176L168.457 134.848H163.337C160.99 134.848 159.145 134.357 157.801 133.376C156.478 132.373 155.817 130.933 155.817 129.056C155.817 127.051 156.521 125.525 157.929 124.48C159.358 123.435 161.257 122.912 163.625 122.912H171.465V140H167.881ZM155.593 140L160.201 133.472H164.297L159.881 140H155.593ZM167.881 132.896V125.216L168.457 126.272H163.753C162.515 126.272 161.555 126.507 160.873 126.976C160.211 127.424 159.881 128.16 159.881 129.184C159.881 131.104 161.129 132.064 163.625 132.064H168.457L167.881 132.896Z" fill="white"/>
<path d="M134.563 140V122.912H138.563V134.176L148.003 122.912H151.651V140H147.651V128.736L138.243 140H134.563Z" fill="white"/>
<path d="M121.91 140.223C120.524 140.223 119.254 139.903 118.102 139.263C116.972 138.623 116.065 137.663 115.382 136.383C114.721 135.081 114.39 133.439 114.39 131.455C114.39 129.449 114.71 127.807 115.35 126.527C116.012 125.247 116.908 124.297 118.038 123.679C119.169 123.039 120.46 122.719 121.91 122.719C123.596 122.719 125.078 123.081 126.358 123.807C127.66 124.532 128.684 125.545 129.43 126.847C130.198 128.148 130.582 129.684 130.582 131.455C130.582 133.225 130.198 134.772 129.43 136.095C128.684 137.396 127.66 138.409 126.358 139.135C125.078 139.86 123.596 140.223 121.91 140.223ZM112.438 146.207V122.911H116.246V126.943L116.118 131.487L116.438 136.031V146.207H112.438ZM121.462 136.799C122.422 136.799 123.276 136.585 124.022 136.159C124.79 135.732 125.398 135.113 125.846 134.303C126.294 133.492 126.518 132.543 126.518 131.455C126.518 130.345 126.294 129.396 125.846 128.607C125.398 127.796 124.79 127.177 124.022 126.751C123.276 126.324 122.422 126.111 121.462 126.111C120.502 126.111 119.638 126.324 118.87 126.751C118.102 127.177 117.494 127.796 117.046 128.607C116.598 129.396 116.374 130.345 116.374 131.455C116.374 132.543 116.598 133.492 117.046 134.303C117.494 135.113 118.102 135.732 118.87 136.159C119.638 136.585 120.502 136.799 121.462 136.799Z" fill="white"/>
<path d="M90.6572 140V122.912H107.041V140H103.073V125.376L104.001 126.304H93.7292L94.6572 125.376V140H90.6572Z" fill="white"/>
<path d="M77.586 140.223C75.8367 140.223 74.2794 139.849 72.914 139.103C71.5487 138.335 70.4714 137.289 69.682 135.967C68.8927 134.644 68.498 133.14 68.498 131.455C68.498 129.748 68.8927 128.244 69.682 126.943C70.4714 125.62 71.5487 124.585 72.914 123.839C74.2794 123.092 75.8367 122.719 77.586 122.719C79.3567 122.719 80.9247 123.092 82.29 123.839C83.6767 124.585 84.754 125.609 85.522 126.911C86.3114 128.212 86.706 129.727 86.706 131.455C86.706 133.14 86.3114 134.644 85.522 135.967C84.754 137.289 83.6767 138.335 82.29 139.103C80.9247 139.849 79.3567 140.223 77.586 140.223ZM77.586 136.799C78.5674 136.799 79.442 136.585 80.21 136.159C80.978 135.732 81.5754 135.113 82.002 134.303C82.45 133.492 82.674 132.543 82.674 131.455C82.674 130.345 82.45 129.396 82.002 128.607C81.5754 127.796 80.978 127.177 80.21 126.751C79.442 126.324 78.578 126.111 77.618 126.111C76.6367 126.111 75.762 126.324 74.994 126.751C74.2474 127.177 73.65 127.796 73.202 128.607C72.754 129.396 72.53 130.345 72.53 131.455C72.53 132.543 72.754 133.492 73.202 134.303C73.65 135.113 74.2474 135.732 74.994 136.159C75.762 136.585 76.626 136.799 77.586 136.799Z" fill="white"/>
<path d="M57.3167 140.223C55.9301 140.223 54.6607 139.903 53.5087 139.263C52.3781 138.623 51.4714 137.663 50.7887 136.383C50.1274 135.081 49.7967 133.439 49.7967 131.455C49.7967 129.449 50.1167 127.807 50.7567 126.527C51.4181 125.247 52.3141 124.297 53.4447 123.679C54.5754 123.039 55.8661 122.719 57.3167 122.719C59.0021 122.719 60.4847 123.081 61.7647 123.807C63.0661 124.532 64.0901 125.545 64.8367 126.847C65.6047 128.148 65.9887 129.684 65.9887 131.455C65.9887 133.225 65.6047 134.772 64.8367 136.095C64.0901 137.396 63.0661 138.409 61.7647 139.135C60.4847 139.86 59.0021 140.223 57.3167 140.223ZM47.8447 146.207V122.911H51.6527V126.943L51.5247 131.487L51.8447 136.031V146.207H47.8447ZM56.8687 136.799C57.8287 136.799 58.6821 136.585 59.4287 136.159C60.1967 135.732 60.8047 135.113 61.2527 134.303C61.7007 133.492 61.9247 132.543 61.9247 131.455C61.9247 130.345 61.7007 129.396 61.2527 128.607C60.8047 127.796 60.1967 127.177 59.4287 126.751C58.6821 126.324 57.8287 126.111 56.8687 126.111C55.9087 126.111 55.0447 126.324 54.2767 126.751C53.5087 127.177 52.9007 127.796 52.4527 128.607C52.0047 129.396 51.7807 130.345 51.7807 131.455C51.7807 132.543 52.0047 133.492 52.4527 134.303C52.9007 135.113 53.5087 135.732 54.2767 136.159C55.0447 136.585 55.9087 136.799 56.8687 136.799Z" fill="white"/>
<path d="M35.438 140.223C33.5394 140.223 31.8754 139.849 30.446 139.103C29.038 138.335 27.9394 137.289 27.15 135.967C26.382 134.644 25.998 133.14 25.998 131.455C25.998 129.748 26.3714 128.244 27.118 126.943C27.886 125.62 28.9314 124.585 30.254 123.839C31.598 123.092 33.1234 122.719 34.83 122.719C36.494 122.719 37.9767 123.081 39.278 123.807C40.5794 124.532 41.6034 125.556 42.35 126.879C43.0967 128.201 43.4701 129.759 43.4701 131.551C43.4701 131.721 43.4594 131.913 43.438 132.127C43.438 132.34 43.4274 132.543 43.406 132.735H29.166V130.079H41.294L39.726 130.911C39.7474 129.929 39.5447 129.065 39.118 128.319C38.6914 127.572 38.1047 126.985 37.358 126.559C36.6327 126.132 35.79 125.919 34.83 125.919C33.8487 125.919 32.9847 126.132 32.238 126.559C31.5127 126.985 30.9367 127.583 30.51 128.351C30.1047 129.097 29.902 129.983 29.902 131.007V131.647C29.902 132.671 30.1367 133.577 30.606 134.367C31.0754 135.156 31.7367 135.764 32.59 136.191C33.4434 136.617 34.4247 136.831 35.534 136.831C36.494 136.831 37.358 136.681 38.126 136.383C38.894 136.084 39.5767 135.615 40.174 134.975L42.3181 137.439C41.55 138.335 40.5794 139.028 39.406 139.519C38.254 139.988 36.9314 140.223 35.438 140.223Z" fill="white"/>
<path d="M1.68848 140V122.912H5.88048L12.7605 135.04H11.0965L18.3285 122.912H22.0725L22.1045 140H18.4885V127.2L19.1285 127.616L12.7285 138.208H11.0005L4.56848 127.328L5.33648 127.136V140H1.68848Z" fill="white"/>
<path d="M435.219 101.223C433.321 101.223 431.657 100.849 430.227 100.103C428.819 99.3347 427.721 98.2894 426.931 96.9668C426.163 95.6441 425.779 94.1401 425.779 92.4548C425.779 90.7481 426.153 89.2441 426.899 87.9427C427.667 86.6201 428.713 85.5854 430.035 84.8387C431.379 84.0921 432.905 83.7188 434.611 83.7188C436.275 83.7188 437.758 84.0814 439.059 84.8067C440.361 85.5321 441.385 86.5561 442.131 87.8787C442.878 89.2014 443.251 90.7588 443.251 92.5508C443.251 92.7214 443.241 92.9134 443.219 93.1267C443.219 93.3401 443.209 93.5427 443.187 93.7347H428.947V91.0788H441.075L439.507 91.9108C439.529 90.9294 439.326 90.0654 438.899 89.3187C438.473 88.5721 437.886 87.9854 437.139 87.5587C436.414 87.1321 435.571 86.9187 434.611 86.9187C433.63 86.9187 432.766 87.1321 432.019 87.5587C431.294 87.9854 430.718 88.5827 430.291 89.3507C429.886 90.0974 429.683 90.9827 429.683 92.0067V92.6468C429.683 93.6708 429.918 94.5774 430.387 95.3667C430.857 96.1561 431.518 96.7641 432.371 97.1908C433.225 97.6174 434.206 97.8307 435.315 97.8307C436.275 97.8307 437.139 97.6814 437.907 97.3828C438.675 97.0841 439.358 96.6147 439.955 95.9747L442.099 98.4388C441.331 99.3348 440.361 100.028 439.187 100.519C438.035 100.988 436.713 101.223 435.219 101.223Z" fill="white"/>
<path d="M414.18 101.223C412.43 101.223 410.873 100.849 409.508 100.103C408.142 99.3347 407.065 98.2894 406.276 96.9668C405.486 95.6441 405.092 94.1401 405.092 92.4548C405.092 90.7481 405.486 89.2441 406.276 87.9427C407.065 86.6201 408.142 85.5854 409.508 84.8387C410.873 84.0921 412.43 83.7188 414.18 83.7188C415.95 83.7188 417.518 84.0921 418.884 84.8387C420.27 85.5854 421.348 86.6094 422.116 87.9108C422.905 89.2121 423.3 90.7267 423.3 92.4548C423.3 94.1401 422.905 95.6441 422.116 96.9668C421.348 98.2894 420.27 99.3347 418.884 100.103C417.518 100.849 415.95 101.223 414.18 101.223ZM414.18 97.7988C415.161 97.7988 416.036 97.5854 416.804 97.1588C417.572 96.7321 418.169 96.1134 418.596 95.3027C419.044 94.4921 419.268 93.5428 419.268 92.4548C419.268 91.3454 419.044 90.3961 418.596 89.6068C418.169 88.7961 417.572 88.1774 416.804 87.7507C416.036 87.3241 415.172 87.1107 414.212 87.1107C413.23 87.1107 412.356 87.3241 411.588 87.7507C410.841 88.1774 410.244 88.7961 409.796 89.6068C409.348 90.3961 409.124 91.3454 409.124 92.4548C409.124 93.5428 409.348 94.4921 409.796 95.3027C410.244 96.1134 410.841 96.7321 411.588 97.1588C412.356 97.5854 413.22 97.7988 414.18 97.7988Z" fill="white"/>
<path d="M399.601 101L393.425 92.8081L396.689 90.7921L404.305 101H399.601ZM387.345 101V83.9121H391.345V101H387.345ZM390.161 94.1521V90.8241H395.953V94.1521H390.161ZM397.073 92.9361L393.329 92.4881L399.601 83.9121H403.889L397.073 92.9361Z" fill="white"/>
<path d="M378.619 100.999V97.5427L378.395 96.8067V90.7588C378.395 89.5854 378.043 88.6787 377.339 88.0387C376.635 87.3774 375.568 87.0467 374.139 87.0467C373.179 87.0467 372.23 87.1961 371.291 87.4948C370.374 87.7934 369.595 88.2094 368.955 88.7428L367.387 85.8307C368.304 85.1267 369.392 84.6041 370.651 84.2627C371.931 83.9001 373.254 83.7188 374.619 83.7188C377.094 83.7188 379.003 84.3161 380.347 85.5107C381.712 86.6841 382.395 88.5081 382.395 90.9827V100.999H378.619ZM373.243 101.223C371.963 101.223 370.843 101.009 369.883 100.583C368.923 100.135 368.176 99.5268 367.643 98.7588C367.131 97.9694 366.875 97.0841 366.875 96.1027C366.875 95.1427 367.099 94.2787 367.547 93.5107C368.016 92.7428 368.774 92.1348 369.819 91.6868C370.864 91.2388 372.251 91.0147 373.979 91.0147H378.939V93.6707H374.267C372.902 93.6707 371.984 93.8948 371.515 94.3428C371.046 94.7694 370.811 95.3027 370.811 95.9427C370.811 96.6681 371.099 97.2441 371.675 97.6707C372.251 98.0974 373.051 98.3107 374.075 98.3107C375.056 98.3107 375.931 98.0867 376.699 97.6387C377.488 97.1907 378.054 96.5294 378.395 95.6547L379.067 98.0547C378.683 99.0574 377.99 99.8361 376.987 100.391C376.006 100.945 374.758 101.223 373.243 101.223Z" fill="white"/>
<path d="M361.038 101L354.862 92.8081L358.126 90.7921L365.742 101H361.038ZM348.782 101V83.9121H352.782V101H348.782ZM351.598 94.1521V90.8241H357.39V94.1521H351.598ZM358.51 92.9361L354.766 92.4881L361.038 83.9121H365.326L358.51 92.9361Z" fill="white"/>
<path d="M317.47 101V83.9121H321.47V95.1761L330.91 83.9121H334.558V101H330.558V89.7361L321.15 101H317.47Z" fill="white"/>
<path d="M298.358 89.5441C300.556 89.5441 302.23 90.0348 303.382 91.0161C304.534 91.9974 305.11 93.3841 305.11 95.1761C305.11 97.0321 304.47 98.4828 303.19 99.5281C301.91 100.552 300.108 101.053 297.782 101.032L289.782 101V83.9121H293.782V89.5121L298.358 89.5441ZM297.43 98.0881C298.604 98.1094 299.5 97.8641 300.118 97.3521C300.737 96.8401 301.046 96.0934 301.046 95.1121C301.046 94.1308 300.737 93.4268 300.118 93.0001C299.521 92.5521 298.625 92.3174 297.43 92.2961L293.782 92.2641V98.0561L297.43 98.0881Z" fill="white"/>
<path d="M276.897 101V86.3441L277.825 87.3041H270.881V83.9121H286.881V87.3041H279.969L280.897 86.3441V101H276.897Z" fill="white"/>
<path d="M264.381 101V95.1761L264.957 95.8481H259.837C257.49 95.8481 255.645 95.3574 254.301 94.3761C252.978 93.3734 252.317 91.9334 252.317 90.0561C252.317 88.0508 253.021 86.5254 254.429 85.4801C255.858 84.4348 257.757 83.9121 260.125 83.9121H267.965V101H264.381ZM252.093 101L256.701 94.4721H260.797L256.381 101H252.093ZM264.381 93.8961V86.2161L264.957 87.2721H260.253C259.015 87.2721 258.055 87.5068 257.373 87.9761C256.711 88.4241 256.381 89.1601 256.381 90.1841C256.381 92.1041 257.629 93.0641 260.125 93.0641H264.957L264.381 93.8961Z" fill="white"/>
<path d="M230.161 100.968L230.353 97.6081C230.502 97.6294 230.641 97.6508 230.769 97.6721C230.897 97.6934 231.014 97.7041 231.121 97.7041C231.782 97.7041 232.294 97.5014 232.657 97.0961C233.02 96.6908 233.286 96.1468 233.457 95.4641C233.649 94.7601 233.777 93.9814 233.841 93.1281C233.926 92.2534 233.99 91.3788 234.033 90.5041L234.321 83.9121H248.145V101H244.145V86.2161L245.073 87.3041H236.945L237.809 86.1841L237.585 90.6961C237.521 92.2108 237.393 93.6188 237.201 94.9201C237.03 96.2001 236.753 97.3201 236.369 98.2801C236.006 99.2401 235.494 99.9868 234.833 100.52C234.193 101.053 233.372 101.32 232.369 101.32C232.049 101.32 231.697 101.288 231.313 101.224C230.95 101.16 230.566 101.075 230.161 100.968Z" fill="white"/>
<path d="M216.318 107.432C215.486 107.432 214.654 107.293 213.822 107.016C212.99 106.739 212.297 106.355 211.742 105.864L213.342 102.92C213.748 103.283 214.206 103.571 214.718 103.784C215.23 103.997 215.753 104.104 216.286 104.104C217.012 104.104 217.598 103.923 218.046 103.56C218.494 103.197 218.91 102.589 219.294 101.736L220.286 99.4961L220.606 99.0161L227.07 83.9121H230.91L222.91 102.376C222.377 103.656 221.78 104.669 221.118 105.416C220.478 106.163 219.753 106.685 218.942 106.984C218.153 107.283 217.278 107.432 216.318 107.432ZM219.838 101.608L212.126 83.9121H216.286L222.558 98.6641L219.838 101.608Z" fill="white"/>
<path d="M198.72 101V83.9121H211.84V87.3041H201.792L202.72 86.4081V101H198.72Z" fill="white"/>
<path d="M185.649 101.223C183.899 101.223 182.342 100.849 180.977 100.103C179.611 99.3347 178.534 98.2894 177.745 96.9668C176.955 95.6441 176.561 94.1401 176.561 92.4548C176.561 90.7481 176.955 89.2441 177.745 87.9427C178.534 86.6201 179.611 85.5854 180.977 84.8387C182.342 84.0921 183.899 83.7188 185.649 83.7188C187.419 83.7188 188.987 84.0921 190.353 84.8387C191.739 85.5854 192.817 86.6094 193.585 87.9108C194.374 89.2121 194.769 90.7267 194.769 92.4548C194.769 94.1401 194.374 95.6441 193.585 96.9668C192.817 98.2894 191.739 99.3347 190.353 100.103C188.987 100.849 187.419 101.223 185.649 101.223ZM185.649 97.7988C186.63 97.7988 187.505 97.5854 188.273 97.1588C189.041 96.7321 189.638 96.1134 190.065 95.3027C190.513 94.4921 190.737 93.5428 190.737 92.4548C190.737 91.3454 190.513 90.3961 190.065 89.6068C189.638 88.7961 189.041 88.1774 188.273 87.7507C187.505 87.3241 186.641 87.1107 185.681 87.1107C184.699 87.1107 183.825 87.3241 183.057 87.7507C182.31 88.1774 181.713 88.7961 181.265 89.6068C180.817 90.3961 180.593 91.3454 180.593 92.4548C180.593 93.5428 180.817 94.4921 181.265 95.3027C181.713 96.1134 182.31 96.7321 183.057 97.1588C183.825 97.5854 184.689 97.7988 185.649 97.7988Z" fill="white"/>
<path d="M156.251 101V83.9121H172.635V101H168.667V86.3761L169.595 87.3041H159.323L160.251 86.3761V101H156.251Z" fill="white"/>
<path d="M134.522 101V86.3441L135.45 87.3041H128.506V83.9121H144.506V87.3041H137.594L138.522 86.3441V101H134.522Z" fill="white"/>
<path d="M119.219 101.223C117.321 101.223 115.657 100.849 114.227 100.103C112.819 99.3347 111.721 98.2894 110.931 96.9668C110.163 95.6441 109.779 94.1401 109.779 92.4548C109.779 90.7481 110.153 89.2441 110.899 87.9427C111.667 86.6201 112.713 85.5854 114.035 84.8387C115.379 84.0921 116.905 83.7188 118.611 83.7188C120.275 83.7188 121.758 84.0814 123.059 84.8067C124.361 85.5321 125.385 86.5561 126.131 87.8787C126.878 89.2014 127.251 90.7588 127.251 92.5508C127.251 92.7214 127.241 92.9134 127.219 93.1267C127.219 93.3401 127.209 93.5427 127.187 93.7347H112.947V91.0788H125.075L123.507 91.9108C123.529 90.9294 123.326 90.0654 122.899 89.3187C122.473 88.5721 121.886 87.9854 121.139 87.5587C120.414 87.1321 119.571 86.9187 118.611 86.9187C117.63 86.9187 116.766 87.1321 116.019 87.5587C115.294 87.9854 114.718 88.5827 114.291 89.3507C113.886 90.0974 113.683 90.9827 113.683 92.0067V92.6468C113.683 93.6708 113.918 94.5774 114.387 95.3667C114.857 96.1561 115.518 96.7641 116.371 97.1908C117.225 97.6174 118.206 97.8307 119.315 97.8307C120.275 97.8307 121.139 97.6814 121.907 97.3828C122.675 97.0841 123.358 96.6147 123.955 95.9747L126.099 98.4388C125.331 99.3348 124.361 100.028 123.187 100.519C122.035 100.988 120.713 101.223 119.219 101.223Z" fill="white"/>
<path d="M102.16 94.2481C101.35 94.6321 100.486 94.9521 99.5683 95.2081C98.6723 95.4428 97.723 95.5601 96.7203 95.5601C94.5656 95.5601 92.891 95.0588 91.6963 94.0561C90.5016 93.0534 89.9043 91.4961 89.9043 89.3841V83.9121H93.9043V89.1281C93.9043 90.2588 94.2243 91.0801 94.8643 91.5921C95.5256 92.1041 96.4323 92.3601 97.5843 92.3601C98.3523 92.3601 99.1203 92.2641 99.8883 92.0721C100.656 91.8801 101.414 91.6134 102.16 91.2721V94.2481ZM101.872 101V83.9121H105.872V101H101.872Z" fill="white"/>
<path d="M78.3048 101.223C76.5555 101.223 74.9981 100.849 73.6328 100.103C72.2675 99.3347 71.1901 98.2894 70.4008 96.9668C69.6115 95.6441 69.2168 94.1401 69.2168 92.4548C69.2168 90.7481 69.6115 89.2441 70.4008 87.9427C71.1901 86.6201 72.2675 85.5854 73.6328 84.8387C74.9981 84.0921 76.5555 83.7188 78.3048 83.7188C80.0755 83.7188 81.6435 84.0921 83.0088 84.8387C84.3955 85.5854 85.4728 86.6094 86.2408 87.9108C87.0301 89.2121 87.4248 90.7267 87.4248 92.4548C87.4248 94.1401 87.0301 95.6441 86.2408 96.9668C85.4728 98.2894 84.3955 99.3347 83.0088 100.103C81.6435 100.849 80.0755 101.223 78.3048 101.223ZM78.3048 97.7988C79.2861 97.7988 80.1608 97.5854 80.9288 97.1588C81.6968 96.7321 82.2941 96.1134 82.7208 95.3027C83.1688 94.4921 83.3928 93.5428 83.3928 92.4548C83.3928 91.3454 83.1688 90.3961 82.7208 89.6068C82.2941 88.7961 81.6968 88.1774 80.9288 87.7507C80.1608 87.3241 79.2968 87.1107 78.3368 87.1107C77.3555 87.1107 76.4808 87.3241 75.7128 87.7507C74.9661 88.1774 74.3688 88.7961 73.9208 89.6068C73.4728 90.3961 73.2488 91.3454 73.2488 92.4548C73.2488 93.5428 73.4728 94.4921 73.9208 95.3027C74.3688 96.1134 74.9661 96.7321 75.7128 97.1588C76.4808 97.5854 77.3448 97.7988 78.3048 97.7988Z" fill="white"/>
<path d="M50.6611 101L58.1811 91.2081L58.1171 93.3521L50.9491 83.9121H55.3971L60.4211 90.6321H58.7251L63.7811 83.9121H68.1011L60.8691 93.3521L60.9011 91.2081L68.3891 101H63.8771L58.5971 93.8641L60.2611 94.0881L55.0771 101H50.6611Z" fill="white"/>
<path d="M22.376 101V83.9121H26.376V90.8561H34.984V83.9121H38.984V101H34.984V94.2481H26.376V101H22.376Z" fill="white"/>
<path d="M9.3048 101.223C7.55546 101.223 5.99813 100.849 4.6328 100.103C3.26746 99.3347 2.19013 98.2894 1.4008 96.9668C0.611464 95.6441 0.216797 94.1401 0.216797 92.4548C0.216797 90.7481 0.611464 89.2441 1.4008 87.9427C2.19013 86.6201 3.26746 85.5854 4.6328 84.8387C5.99813 84.0921 7.55546 83.7188 9.3048 83.7188C11.0755 83.7188 12.6435 84.0921 14.0088 84.8387C15.3955 85.5854 16.4728 86.6094 17.2408 87.9108C18.0301 89.2121 18.4248 90.7267 18.4248 92.4548C18.4248 94.1401 18.0301 95.6441 17.2408 96.9668C16.4728 98.2894 15.3955 99.3347 14.0088 100.103C12.6435 100.849 11.0755 101.223 9.3048 101.223ZM9.3048 97.7988C10.2861 97.7988 11.1608 97.5854 11.9288 97.1588C12.6968 96.7321 13.2941 96.1134 13.7208 95.3027C14.1688 94.4921 14.3928 93.5428 14.3928 92.4548C14.3928 91.3454 14.1688 90.3961 13.7208 89.6068C13.2941 88.7961 12.6968 88.1774 11.9288 87.7507C11.1608 87.3241 10.2968 87.1107 9.3368 87.1107C8.35546 87.1107 7.4808 87.3241 6.7128 87.7507C5.96613 88.1774 5.3688 88.7961 4.9208 89.6068C4.4728 90.3961 4.2488 91.3454 4.2488 92.4548C4.2488 93.5428 4.4728 94.4921 4.9208 95.3027C5.3688 96.1134 5.96613 96.7321 6.7128 97.1588C7.4808 97.5854 8.3448 97.7988 9.3048 97.7988Z" fill="white"/>
<path d="M545.594 62.2227C543.696 62.2227 542.032 61.8494 540.602 61.1027C539.194 60.3347 538.096 59.2894 537.306 57.9668C536.538 56.6441 536.154 55.1401 536.154 53.4548C536.154 51.7481 536.528 50.2441 537.274 48.9427C538.042 47.6201 539.088 46.5854 540.41 45.8387C541.754 45.0921 543.28 44.7188 544.986 44.7188C546.65 44.7188 548.133 45.0814 549.434 45.8067C550.736 46.5321 551.76 47.5561 552.506 48.8787C553.253 50.2014 553.626 51.7588 553.626 53.5508C553.626 53.7214 553.616 53.9134 553.594 54.1267C553.594 54.3401 553.584 54.5427 553.562 54.7347H539.322V52.0788H551.45L549.882 52.9108C549.904 51.9294 549.701 51.0654 549.274 50.3187C548.848 49.5721 548.261 48.9854 547.514 48.5587C546.789 48.1321 545.946 47.9187 544.986 47.9187C544.005 47.9187 543.141 48.1321 542.394 48.5587C541.669 48.9854 541.093 49.5827 540.666 50.3507C540.261 51.0974 540.058 51.9827 540.058 53.0067V53.6468C540.058 54.6708 540.293 55.5774 540.762 56.3667C541.232 57.1561 541.893 57.7641 542.746 58.1908C543.6 58.6174 544.581 58.8307 545.69 58.8307C546.65 58.8307 547.514 58.6814 548.282 58.3828C549.05 58.0841 549.733 57.6147 550.33 56.9747L552.474 59.4388C551.706 60.3348 550.736 61.0281 549.562 61.5187C548.41 61.9881 547.088 62.2227 545.594 62.2227Z" fill="white"/>
<path d="M527.526 60.1441V48.3041H520.966L520.87 51.0561C520.827 52.0374 520.763 52.9868 520.678 53.9041C520.593 54.8001 520.454 55.6321 520.262 56.4001C520.07 57.1468 519.793 57.7654 519.43 58.2561C519.067 58.7468 518.587 59.0668 517.99 59.2161L514.022 58.6081C514.662 58.6081 515.174 58.4054 515.558 58.0001C515.963 57.5734 516.273 56.9974 516.486 56.2721C516.721 55.5254 516.891 54.6828 516.998 53.7441C517.105 52.7841 517.179 51.7921 517.222 50.7681L517.446 44.9121H531.526V60.1441H527.526ZM513.414 65.8081V58.6081H534.054V65.8081H530.31V62.0001H517.126V65.8081H513.414Z" fill="white"/>
<path d="M500.938 62.0001V44.9121H514.058V48.3041H504.01L504.938 47.4081V62.0001H500.938Z" fill="white"/>
<path d="M469.626 62.0001V44.9121H473.626V56.1761L483.066 44.9121H486.714V62.0001H482.714V50.7361L473.306 62.0001H469.626Z" fill="white"/>
<path d="M452.056 61.9987V58.5427L451.832 57.8067V51.7588C451.832 50.5854 451.48 49.6787 450.776 49.0387C450.072 48.3774 449.006 48.0467 447.576 48.0467C446.616 48.0467 445.667 48.1961 444.728 48.4948C443.811 48.7934 443.032 49.2094 442.392 49.7428L440.824 46.8307C441.742 46.1267 442.83 45.6041 444.089 45.2627C445.369 44.9001 446.691 44.7188 448.056 44.7188C450.531 44.7188 452.44 45.3161 453.784 46.5107C455.15 47.6841 455.832 49.5081 455.832 51.9827V61.9987H452.056ZM446.68 62.2227C445.4 62.2227 444.28 62.0094 443.32 61.5827C442.36 61.1347 441.614 60.5268 441.08 59.7588C440.568 58.9694 440.312 58.0841 440.312 57.1027C440.312 56.1427 440.536 55.2787 440.984 54.5107C441.454 53.7428 442.211 53.1348 443.257 52.6868C444.302 52.2388 445.689 52.0147 447.417 52.0147H452.376V54.6707H447.704C446.339 54.6707 445.422 54.8948 444.952 55.3428C444.483 55.7694 444.248 56.3027 444.248 56.9427C444.248 57.6681 444.536 58.2441 445.112 58.6707C445.688 59.0974 446.488 59.3107 447.512 59.3107C448.494 59.3107 449.368 59.0867 450.136 58.6387C450.926 58.1907 451.491 57.5294 451.832 56.6547L452.504 59.0547C452.12 60.0574 451.427 60.8361 450.424 61.3907C449.443 61.9454 448.195 62.2227 446.68 62.2227Z" fill="white"/>
<path d="M431.589 60.1441V48.3041H425.029L424.933 51.0561C424.89 52.0374 424.826 52.9868 424.741 53.9041C424.655 54.8001 424.517 55.6321 424.325 56.4001C424.133 57.1468 423.855 57.7654 423.493 58.2561C423.13 58.7468 422.65 59.0668 422.053 59.2161L418.085 58.6081C418.725 58.6081 419.237 58.4054 419.621 58.0001C420.026 57.5734 420.335 56.9974 420.549 56.2721C420.783 55.5254 420.954 54.6828 421.061 53.7441C421.167 52.7841 421.242 51.7921 421.285 50.7681L421.509 44.9121H435.589V60.1441H431.589ZM417.477 65.8081V58.6081H438.117V65.8081H434.373V62.0001H421.189V65.8081H417.477Z" fill="white"/>
<path d="M405.001 62.0001V44.9121H418.121V48.3041H408.073L409.001 47.4081V62.0001H405.001Z" fill="white"/>
<path d="M391.93 62.2227C390.18 62.2227 388.623 61.8494 387.258 61.1027C385.892 60.3347 384.815 59.2894 384.026 57.9668C383.236 56.6441 382.842 55.1401 382.842 53.4548C382.842 51.7481 383.236 50.2441 384.026 48.9427C384.815 47.6201 385.892 46.5854 387.258 45.8387C388.623 45.0921 390.18 44.7188 391.93 44.7188C393.7 44.7188 395.268 45.0921 396.634 45.8387C398.02 46.5854 399.098 47.6094 399.866 48.9108C400.655 50.2121 401.05 51.7267 401.05 53.4548C401.05 55.1401 400.655 56.6441 399.866 57.9668C399.098 59.2894 398.02 60.3347 396.634 61.1027C395.268 61.8494 393.7 62.2227 391.93 62.2227ZM391.93 58.7988C392.911 58.7988 393.786 58.5854 394.554 58.1588C395.322 57.7321 395.919 57.1134 396.346 56.3027C396.794 55.4921 397.018 54.5428 397.018 53.4548C397.018 52.3454 396.794 51.3961 396.346 50.6068C395.919 49.7961 395.322 49.1774 394.554 48.7507C393.786 48.3241 392.922 48.1107 391.962 48.1107C390.98 48.1107 390.106 48.3241 389.338 48.7507C388.591 49.1774 387.994 49.7961 387.546 50.6068C387.098 51.3961 386.874 52.3454 386.874 53.4548C386.874 54.5428 387.098 55.4921 387.546 56.3027C387.994 57.1134 388.591 57.7321 389.338 58.1588C390.106 58.5854 390.97 58.7988 391.93 58.7988Z" fill="white"/>
<path d="M377.351 62.0001L371.175 53.8081L374.439 51.7921L382.055 62.0001H377.351ZM365.095 62.0001V44.9121H369.095V62.0001H365.095ZM367.911 55.1521V51.8241H373.703V55.1521H367.911ZM374.823 53.9361L371.079 53.4881L377.351 44.9121H381.639L374.823 53.9361Z" fill="white"/>
<path d="M347.319 66.8321L349.175 59.7601L349.719 62.1281C348.972 62.1281 348.343 61.9041 347.831 61.4561C347.34 60.9868 347.095 60.3574 347.095 59.5681C347.095 58.7574 347.34 58.1174 347.831 57.6481C348.343 57.1574 348.961 56.9121 349.687 56.9121C350.433 56.9121 351.052 57.1574 351.543 57.6481C352.033 58.1388 352.279 58.7788 352.279 59.5681C352.279 59.7814 352.257 60.0161 352.215 60.2721C352.172 60.5068 352.097 60.7841 351.991 61.1041C351.905 61.4241 351.756 61.8294 351.543 62.3201L349.911 66.8321H347.319Z" fill="white"/>
<path d="M322.657 62.0001V44.9121H326.849L333.729 57.0401H332.065L339.297 44.9121H343.041L343.073 62.0001H339.457V49.2001L340.097 49.6161L333.697 60.2081H331.969L325.537 49.3281L326.305 49.1361V62.0001H322.657Z" fill="white"/>
<path d="M309.586 62.2227C307.837 62.2227 306.279 61.8494 304.914 61.1027C303.549 60.3347 302.471 59.2894 301.682 57.9668C300.893 56.6441 300.498 55.1401 300.498 53.4548C300.498 51.7481 300.893 50.2441 301.682 48.9427C302.471 47.6201 303.549 46.5854 304.914 45.8387C306.279 45.0921 307.837 44.7188 309.586 44.7188C311.357 44.7188 312.925 45.0921 314.29 45.8387C315.677 46.5854 316.754 47.6094 317.522 48.9108C318.311 50.2121 318.706 51.7267 318.706 53.4548C318.706 55.1401 318.311 56.6441 317.522 57.9668C316.754 59.2894 315.677 60.3347 314.29 61.1027C312.925 61.8494 311.357 62.2227 309.586 62.2227ZM309.586 58.7988C310.567 58.7988 311.442 58.5854 312.21 58.1588C312.978 57.7321 313.575 57.1134 314.002 56.3027C314.45 55.4921 314.674 54.5428 314.674 53.4548C314.674 52.3454 314.45 51.3961 314.002 50.6068C313.575 49.7961 312.978 49.1774 312.21 48.7507C311.442 48.3241 310.578 48.1107 309.618 48.1107C308.637 48.1107 307.762 48.3241 306.994 48.7507C306.247 49.1774 305.65 49.7961 305.202 50.6068C304.754 51.3961 304.53 52.3454 304.53 53.4548C304.53 54.5428 304.754 55.4921 305.202 56.3027C305.65 57.1134 306.247 57.7321 306.994 58.1588C307.762 58.5854 308.626 58.7988 309.586 58.7988Z" fill="white"/>
<path d="M289.834 62.0001V47.3441L290.762 48.3041H283.818V44.9121H299.818V48.3041H292.906L293.834 47.3441V62.0001H289.834Z" fill="white"/>
<path d="M264.367 62.2227C262.618 62.2227 261.061 61.8494 259.695 61.1027C258.33 60.3347 257.253 59.2894 256.463 57.9668C255.674 56.6441 255.279 55.1401 255.279 53.4548C255.279 51.7481 255.674 50.2441 256.463 48.9427C257.253 47.6201 258.33 46.5854 259.695 45.8387C261.061 45.0921 262.618 44.7188 264.367 44.7188C266.138 44.7188 267.706 45.0921 269.071 45.8387C270.458 46.5854 271.535 47.6094 272.303 48.9108C273.093 50.2121 273.487 51.7267 273.487 53.4548C273.487 55.1401 273.093 56.6441 272.303 57.9668C271.535 59.2894 270.458 60.3347 269.071 61.1027C267.706 61.8494 266.138 62.2227 264.367 62.2227ZM264.367 58.7988C265.349 58.7988 266.223 58.5854 266.991 58.1588C267.759 57.7321 268.357 57.1134 268.783 56.3027C269.231 55.4921 269.455 54.5428 269.455 53.4548C269.455 52.3454 269.231 51.3961 268.783 50.6068C268.357 49.7961 267.759 49.1774 266.991 48.7507C266.223 48.3241 265.359 48.1107 264.399 48.1107C263.418 48.1107 262.543 48.3241 261.775 48.7507C261.029 49.1774 260.431 49.7961 259.983 50.6068C259.535 51.3961 259.311 52.3454 259.311 53.4548C259.311 54.5428 259.535 55.4921 259.983 56.3027C260.431 57.1134 261.029 57.7321 261.775 58.1588C262.543 58.5854 263.407 58.7988 264.367 58.7988Z" fill="white"/>
<path d="M225.438 61.9994V44.9114H229.438V56.1754L238.878 44.9114H242.526V61.9994H238.526V50.7354L229.118 61.9994H225.438ZM233.726 42.8954C232.02 42.8954 230.708 42.5007 229.79 41.7114C228.873 40.9007 228.404 39.7274 228.382 38.1914H231.038C231.06 38.9594 231.294 39.5674 231.742 40.0154C232.212 40.4634 232.862 40.6874 233.694 40.6874C234.505 40.6874 235.145 40.4634 235.614 40.0154C236.105 39.5674 236.361 38.9594 236.382 38.1914H239.102C239.081 39.7274 238.601 40.9007 237.662 41.7114C236.745 42.5007 235.433 42.8954 233.726 42.8954Z" fill="white"/>
<path d="M213.032 62.2227C211.133 62.2227 209.469 61.8494 208.04 61.1027C206.632 60.3347 205.533 59.2894 204.744 57.9668C203.976 56.6441 203.592 55.1401 203.592 53.4548C203.592 51.7481 203.965 50.2441 204.712 48.9427C205.48 47.6201 206.525 46.5854 207.848 45.8387C209.192 45.0921 210.717 44.7188 212.424 44.7188C214.088 44.7188 215.57 45.0814 216.872 45.8067C218.173 46.5321 219.197 47.5561 219.944 48.8787C220.69 50.2014 221.064 51.7588 221.064 53.5508C221.064 53.7214 221.053 53.9134 221.032 54.1267C221.032 54.3401 221.021 54.5427 221 54.7347H206.76V52.0788H218.888L217.32 52.9108C217.341 51.9294 217.138 51.0654 216.712 50.3187C216.285 49.5721 215.698 48.9854 214.952 48.5587C214.226 48.1321 213.384 47.9187 212.424 47.9187C211.442 47.9187 210.578 48.1321 209.832 48.5587C209.106 48.9854 208.53 49.5827 208.104 50.3507C207.698 51.0974 207.496 51.9827 207.496 53.0067V53.6468C207.496 54.6708 207.73 55.5774 208.2 56.3667C208.669 57.1561 209.33 57.7641 210.184 58.1908C211.037 58.6174 212.018 58.8307 213.128 58.8307C214.088 58.8307 214.952 58.6814 215.72 58.3828C216.488 58.0841 217.17 57.6147 217.768 56.9747L219.912 59.4388C219.144 60.3348 218.173 61.0281 217 61.5187C215.848 61.9881 214.525 62.2227 213.032 62.2227Z" fill="white"/>
<path d="M182.595 62.0001V44.9121H186.595V56.1761L196.035 44.9121H199.683V62.0001H195.683V50.7361L186.275 62.0001H182.595Z" fill="white"/>
<path d="M160.282 62.0001V44.9121H164.282V58.6081H172.442V44.9121H176.442V62.0001H160.282ZM175.29 65.8081V61.9041L176.218 62.0001H172.442V58.6081H179.034V65.8081H175.29Z" fill="white"/>
<path d="M151.557 61.9987V58.5427L151.333 57.8067V51.7588C151.333 50.5854 150.981 49.6787 150.277 49.0387C149.573 48.3774 148.506 48.0467 147.077 48.0467C146.117 48.0467 145.167 48.1961 144.229 48.4948C143.311 48.7934 142.533 49.2094 141.893 49.7428L140.325 46.8307C141.242 46.1267 142.33 45.6041 143.589 45.2627C144.869 44.9001 146.191 44.7188 147.557 44.7188C150.031 44.7188 151.941 45.3161 153.285 46.5107C154.65 47.6841 155.333 49.5081 155.333 51.9827V61.9987H151.557ZM146.18 62.2227C144.9 62.2227 143.781 62.0094 142.821 61.5827C141.861 61.1347 141.114 60.5268 140.581 59.7588C140.069 58.9694 139.812 58.0841 139.812 57.1027C139.812 56.1427 140.036 55.2787 140.484 54.5107C140.954 53.7428 141.711 53.1348 142.757 52.6868C143.802 52.2388 145.189 52.0147 146.917 52.0147H151.877V54.6707H147.204C145.839 54.6707 144.922 54.8948 144.452 55.3428C143.983 55.7694 143.749 56.3027 143.749 56.9427C143.749 57.6681 144.037 58.2441 144.613 58.6707C145.189 59.0974 145.988 59.3107 147.012 59.3107C147.994 59.3107 148.869 59.0867 149.637 58.6387C150.426 58.1907 150.991 57.5294 151.333 56.6547L152.005 59.0547C151.621 60.0574 150.927 60.8361 149.924 61.3907C148.943 61.9454 147.695 62.2227 146.18 62.2227Z" fill="white"/>
<path d="M115.407 62.0001V44.9121H119.599L126.479 57.0401H124.815L132.047 44.9121H135.791L135.823 62.0001H132.207V49.2001L132.847 49.6161L126.447 60.2081H124.719L118.287 49.3281L119.055 49.1361V62.0001H115.407Z" fill="white"/>
<path d="M102.754 62.2227C101.368 62.2227 100.098 61.9027 98.9462 61.2627C97.8156 60.6227 96.9089 59.6628 96.2262 58.3828C95.5649 57.0814 95.2342 55.4388 95.2342 53.4548C95.2342 51.4494 95.5542 49.8067 96.1942 48.5267C96.8556 47.2467 97.7516 46.2974 98.8822 45.6787C100.013 45.0387 101.304 44.7188 102.754 44.7188C104.44 44.7188 105.922 45.0814 107.202 45.8067C108.504 46.5321 109.528 47.5454 110.274 48.8467C111.042 50.1481 111.426 51.6841 111.426 53.4548C111.426 55.2254 111.042 56.7721 110.274 58.0947C109.528 59.3961 108.504 60.4094 107.202 61.1348C105.922 61.8601 104.44 62.2227 102.754 62.2227ZM93.2822 68.2067V44.9108H97.0902V48.9427L96.9622 53.4867L97.2822 58.0307V68.2067H93.2822ZM102.306 58.7988C103.266 58.7988 104.12 58.5854 104.866 58.1588C105.634 57.7321 106.242 57.1134 106.69 56.3027C107.138 55.4921 107.362 54.5428 107.362 53.4548C107.362 52.3454 107.138 51.3961 106.69 50.6068C106.242 49.7961 105.634 49.1774 104.866 48.7507C104.12 48.3241 103.266 48.1107 102.306 48.1107C101.346 48.1107 100.482 48.3241 99.7142 48.7507C98.9462 49.1774 98.3382 49.7961 97.8902 50.6068C97.4422 51.3961 97.2182 52.3454 97.2182 53.4548C97.2182 54.5428 97.4422 55.4921 97.8902 56.3027C98.3382 57.1134 98.9462 57.7321 99.7142 58.1588C100.482 58.5854 101.346 58.7988 102.306 58.7988Z" fill="white"/>
<path d="M80.211 62.2227C78.4617 62.2227 76.9044 61.8494 75.539 61.1027C74.1737 60.3347 73.0964 59.2894 72.307 57.9668C71.5177 56.6441 71.123 55.1401 71.123 53.4548C71.123 51.7481 71.5177 50.2441 72.307 48.9427C73.0964 47.6201 74.1737 46.5854 75.539 45.8387C76.9044 45.0921 78.4617 44.7188 80.211 44.7188C81.9817 44.7188 83.5497 45.0921 84.915 45.8387C86.3017 46.5854 87.379 47.6094 88.147 48.9108C88.9364 50.2121 89.331 51.7267 89.331 53.4548C89.331 55.1401 88.9364 56.6441 88.147 57.9668C87.379 59.2894 86.3017 60.3347 84.915 61.1027C83.5497 61.8494 81.9817 62.2227 80.211 62.2227ZM80.211 58.7988C81.1924 58.7988 82.067 58.5854 82.835 58.1588C83.603 57.7321 84.2004 57.1134 84.627 56.3027C85.075 55.4921 85.299 54.5428 85.299 53.4548C85.299 52.3454 85.075 51.3961 84.627 50.6068C84.2004 49.7961 83.603 49.1774 82.835 48.7507C82.067 48.3241 81.203 48.1107 80.243 48.1107C79.2617 48.1107 78.387 48.3241 77.619 48.7507C76.8724 49.1774 76.275 49.7961 75.827 50.6068C75.379 51.3961 75.155 52.3454 75.155 53.4548C75.155 54.5428 75.379 55.4921 75.827 56.3027C76.275 57.1134 76.8724 57.7321 77.619 58.1588C78.387 58.5854 79.251 58.7988 80.211 58.7988Z" fill="white"/>
<path d="M56.9741 62.3199C56.9527 62.3199 56.8567 62.3199 56.6861 62.3199C56.5367 62.3199 56.3874 62.3199 56.2381 62.3199C56.1101 62.3199 56.0247 62.3199 55.9821 62.3199C52.3767 62.2772 49.5821 61.4985 47.5981 59.9839C45.6141 58.4479 44.6221 56.2612 44.6221 53.4239C44.6221 50.6079 45.6141 48.4532 47.5981 46.9599C49.5821 45.4665 52.4087 44.6985 56.0781 44.6559C56.1207 44.6559 56.2061 44.6559 56.3341 44.6559C56.4834 44.6559 56.6221 44.6559 56.7501 44.6559C56.8994 44.6559 56.9847 44.6559 57.0061 44.6559C60.6967 44.6559 63.5661 45.4132 65.6141 46.9279C67.6834 48.4212 68.7181 50.5865 68.7181 53.4239C68.7181 56.2825 67.6834 58.4799 65.6141 60.0159C63.5661 61.5519 60.6861 62.3199 56.9741 62.3199ZM56.8461 58.9919C58.6594 58.9919 60.1527 58.7892 61.3261 58.3839C62.4994 57.9572 63.3741 57.3385 63.9501 56.5279C64.5261 55.6959 64.8141 54.6612 64.8141 53.4239C64.8141 52.2079 64.5261 51.2052 63.9501 50.4159C63.3741 49.6052 62.4994 49.0079 61.3261 48.6239C60.1527 48.2185 58.6594 48.0159 56.8461 48.0159C56.8034 48.0159 56.6967 48.0159 56.5261 48.0159C56.3767 48.0159 56.2807 48.0159 56.2381 48.0159C54.4674 48.0159 53.0167 48.2292 51.8861 48.6559C50.7554 49.0612 49.9127 49.6585 49.3581 50.4479C48.8247 51.2372 48.5581 52.2292 48.5581 53.4239C48.5581 54.6399 48.8247 55.6532 49.3581 56.4639C49.9127 57.2745 50.7554 57.8932 51.8861 58.3199C53.0381 58.7465 54.4887 58.9705 56.2381 58.9919C56.2807 58.9919 56.3767 58.9919 56.5261 58.9919C56.6967 58.9919 56.8034 58.9919 56.8461 58.9919ZM54.7661 68.2079V38.2559H58.5421V68.2079H54.7661Z" fill="white"/>
<path d="M24.1572 62.0001V44.9121H28.1572V51.8561H36.7652V44.9121H40.7652V62.0001H36.7652V55.2481H28.1572V62.0001H24.1572Z" fill="white"/>
<path d="M1.68848 62.0001V44.9121H5.68848V56.1761L15.1285 44.9121H18.7765V62.0001H14.7765V50.7361L5.36848 62.0001H1.68848Z" fill="white"/>
<path d="M570.381 23.0001V17.1761L570.957 17.8481H565.837C563.49 17.8481 561.645 17.3574 560.301 16.3761C558.978 15.3734 558.317 13.9334 558.317 12.0561C558.317 10.0508 559.021 8.52544 560.429 7.48011C561.858 6.43478 563.757 5.91211 566.125 5.91211H573.965V23.0001H570.381ZM558.093 23.0001L562.701 16.4721H566.797L562.381 23.0001H558.093ZM570.381 15.8961V8.21611L570.957 9.27211H566.253C565.015 9.27211 564.055 9.50678 563.373 9.97611C562.711 10.4241 562.381 11.1601 562.381 12.1841C562.381 14.1041 563.629 15.0641 566.125 15.0641H570.957L570.381 15.8961Z" fill="white"/>
<path d="M549.184 23.2227C547.392 23.2227 545.792 22.8494 544.384 22.1028C542.997 21.3348 541.909 20.2894 541.12 18.9667C540.33 17.6441 539.936 16.1401 539.936 14.4548C539.936 12.7481 540.33 11.2441 541.12 9.94275C541.909 8.62008 542.997 7.58542 544.384 6.83875C545.792 6.09208 547.392 5.71875 549.184 5.71875C550.848 5.71875 552.309 6.06008 553.568 6.74275C554.848 7.40408 555.818 8.38542 556.48 9.68675L553.408 11.4788C552.896 10.6681 552.266 10.0707 551.52 9.68675C550.794 9.30275 550.005 9.11075 549.152 9.11075C548.17 9.11075 547.285 9.32408 546.496 9.75075C545.706 10.1774 545.088 10.7961 544.64 11.6068C544.192 12.3961 543.968 13.3454 543.968 14.4548C543.968 15.5641 544.192 16.5241 544.64 17.3347C545.088 18.1241 545.706 18.7321 546.496 19.1588C547.285 19.5854 548.17 19.7987 549.152 19.7987C550.005 19.7987 550.794 19.6067 551.52 19.2227C552.266 18.8387 552.896 18.2414 553.408 17.4307L556.48 19.2227C555.818 20.5027 554.848 21.4948 553.568 22.1988C552.309 22.8814 550.848 23.2227 549.184 23.2227Z" fill="white"/>
<path d="M531.139 11.5441C533.337 11.5441 535.012 12.0348 536.164 13.0161C537.316 13.9974 537.891 15.3841 537.891 17.1761C537.891 19.0321 537.251 20.4828 535.971 21.5281C534.691 22.5521 532.889 23.0534 530.563 23.0321L522.563 23.0001V5.91211H526.563V11.5121L531.139 11.5441ZM530.211 20.0881C531.385 20.1094 532.281 19.8641 532.899 19.3521C533.518 18.8401 533.828 18.0934 533.828 17.1121C533.828 16.1308 533.518 15.4268 532.899 15.0001C532.302 14.5521 531.406 14.3174 530.211 14.2961L526.563 14.2641V20.0561L530.211 20.0881Z" fill="white"/>
<path d="M509.678 23.0001V8.34411L510.606 9.30411H503.662V5.91211H519.662V9.30411H512.75L513.678 8.34411V23.0001H509.678Z" fill="white"/>
<path d="M483.657 23.0001V5.91211H487.657V17.1761L497.097 5.91211H500.745V23.0001H496.745V11.7361L487.337 23.0001H483.657Z" fill="white"/>
<path d="M460.286 22.9681L460.478 19.6081C460.627 19.6294 460.766 19.6508 460.894 19.6721C461.022 19.6934 461.139 19.7041 461.246 19.7041C461.907 19.7041 462.419 19.5014 462.782 19.0961C463.145 18.6908 463.411 18.1468 463.582 17.4641C463.774 16.7601 463.902 15.9814 463.966 15.1281C464.051 14.2534 464.115 13.3788 464.158 12.5041L464.446 5.91211H478.27V23.0001H474.27V8.21611L475.198 9.30411H467.07L467.934 8.18411L467.71 12.6961C467.646 14.2108 467.518 15.6188 467.326 16.9201C467.155 18.2001 466.878 19.3201 466.494 20.2801C466.131 21.2401 465.619 21.9868 464.958 22.5201C464.318 23.0534 463.497 23.3201 462.494 23.3201C462.174 23.3201 461.822 23.2881 461.438 23.2241C461.075 23.1601 460.691 23.0748 460.286 22.9681Z" fill="white"/>
<path d="M450.594 23.2227C448.696 23.2227 447.032 22.8494 445.602 22.1028C444.194 21.3348 443.096 20.2894 442.306 18.9667C441.538 17.6441 441.154 16.1401 441.154 14.4548C441.154 12.7481 441.528 11.2441 442.274 9.94275C443.042 8.62008 444.088 7.58542 445.41 6.83875C446.754 6.09208 448.28 5.71875 449.986 5.71875C451.65 5.71875 453.133 6.08142 454.434 6.80675C455.736 7.53208 456.76 8.55608 457.506 9.87875C458.253 11.2014 458.626 12.7588 458.626 14.5508C458.626 14.7214 458.616 14.9134 458.594 15.1267C458.594 15.3401 458.584 15.5428 458.562 15.7348H444.322V13.0788H456.45L454.882 13.9107C454.904 12.9294 454.701 12.0654 454.274 11.3188C453.848 10.5721 453.261 9.98542 452.514 9.55875C451.789 9.13208 450.946 8.91875 449.986 8.91875C449.005 8.91875 448.141 9.13208 447.394 9.55875C446.669 9.98542 446.093 10.5827 445.666 11.3507C445.261 12.0974 445.058 12.9827 445.058 14.0068V14.6467C445.058 15.6707 445.293 16.5774 445.762 17.3668C446.232 18.1561 446.893 18.7641 447.746 19.1908C448.6 19.6174 449.581 19.8308 450.69 19.8308C451.65 19.8308 452.514 19.6814 453.282 19.3827C454.05 19.0841 454.733 18.6147 455.33 17.9747L457.474 20.4387C456.706 21.3347 455.736 22.0281 454.562 22.5188C453.41 22.9881 452.088 23.2227 450.594 23.2227Z" fill="white"/>
<path d="M432.526 21.1441V9.30411H425.966L425.87 12.0561C425.827 13.0374 425.763 13.9868 425.678 14.9041C425.593 15.8001 425.454 16.6321 425.262 17.4001C425.07 18.1468 424.793 18.7654 424.43 19.2561C424.067 19.7468 423.587 20.0668 422.99 20.2161L419.022 19.6081C419.662 19.6081 420.174 19.4054 420.558 19.0001C420.963 18.5734 421.273 17.9974 421.486 17.2721C421.721 16.5254 421.891 15.6828 421.998 14.7441C422.105 13.7841 422.179 12.7921 422.222 11.7681L422.446 5.91211H436.526V21.1441H432.526ZM418.414 26.8081V19.6081H439.054V26.8081H435.31V23.0001H422.126V26.8081H418.414Z" fill="white"/>
<path d="M407.93 23.2227C406.18 23.2227 404.623 22.8494 403.258 22.1028C401.892 21.3348 400.815 20.2894 400.026 18.9667C399.236 17.6441 398.842 16.1401 398.842 14.4548C398.842 12.7481 399.236 11.2441 400.026 9.94275C400.815 8.62008 401.892 7.58542 403.258 6.83875C404.623 6.09208 406.18 5.71875 407.93 5.71875C409.7 5.71875 411.268 6.09208 412.634 6.83875C414.02 7.58542 415.098 8.60942 415.866 9.91075C416.655 11.2121 417.05 12.7268 417.05 14.4548C417.05 16.1401 416.655 17.6441 415.866 18.9667C415.098 20.2894 414.02 21.3348 412.634 22.1028C411.268 22.8494 409.7 23.2227 407.93 23.2227ZM407.93 19.7987C408.911 19.7987 409.786 19.5854 410.554 19.1588C411.322 18.7321 411.919 18.1134 412.346 17.3028C412.794 16.4921 413.018 15.5428 413.018 14.4548C413.018 13.3454 412.794 12.3961 412.346 11.6068C411.919 10.7961 411.322 10.1774 410.554 9.75075C409.786 9.32408 408.922 9.11075 407.962 9.11075C406.98 9.11075 406.106 9.32408 405.338 9.75075C404.591 10.1774 403.994 10.7961 403.546 11.6068C403.098 12.3961 402.874 13.3454 402.874 14.4548C402.874 15.5428 403.098 16.4921 403.546 17.3028C403.994 18.1134 404.591 18.7321 405.338 19.1588C406.106 19.5854 406.97 19.7987 407.93 19.7987Z" fill="white"/>
<path d="M378.532 23.0001V5.91211H394.916V23.0001H390.948V8.37611L391.876 9.30411H381.604L382.532 8.37611V23.0001H378.532Z" fill="white"/>
<path d="M356.803 23.0001V8.34411L357.731 9.30411H350.787V5.91211H366.787V9.30411H359.875L360.803 8.34411V23.0001H356.803Z" fill="white"/>
<path d="M341.501 23.2227C339.602 23.2227 337.938 22.8494 336.509 22.1028C335.101 21.3348 334.002 20.2894 333.213 18.9667C332.445 17.6441 332.061 16.1401 332.061 14.4548C332.061 12.7481 332.434 11.2441 333.181 9.94275C333.949 8.62008 334.994 7.58542 336.317 6.83875C337.661 6.09208 339.186 5.71875 340.893 5.71875C342.557 5.71875 344.039 6.08142 345.341 6.80675C346.642 7.53208 347.666 8.55608 348.413 9.87875C349.159 11.2014 349.533 12.7588 349.533 14.5508C349.533 14.7214 349.522 14.9134 349.501 15.1267C349.501 15.3401 349.49 15.5428 349.469 15.7348H335.229V13.0788H347.357L345.789 13.9107C345.81 12.9294 345.607 12.0654 345.181 11.3188C344.754 10.5721 344.167 9.98542 343.421 9.55875C342.695 9.13208 341.853 8.91875 340.893 8.91875C339.911 8.91875 339.047 9.13208 338.301 9.55875C337.575 9.98542 336.999 10.5827 336.573 11.3507C336.167 12.0974 335.965 12.9827 335.965 14.0068V14.6467C335.965 15.6707 336.199 16.5774 336.669 17.3668C337.138 18.1561 337.799 18.7641 338.653 19.1908C339.506 19.6174 340.487 19.8308 341.597 19.8308C342.557 19.8308 343.421 19.6814 344.189 19.3827C344.957 19.0841 345.639 18.6147 346.237 17.9747L348.381 20.4387C347.613 21.3347 346.642 22.0281 345.469 22.5188C344.317 22.9881 342.994 23.2227 341.501 23.2227Z" fill="white"/>
<path d="M326.354 23.0001L321.362 14.8081L324.626 12.7921L331.122 23.0001H326.354ZM318.13 16.1521V12.8241H323.858V16.1521H318.13ZM325.01 14.9361L321.234 14.4881L326.418 5.91211H330.674L325.01 14.9361ZM308.306 23.0001H303.57L310.034 12.7921L313.298 14.8081L308.306 23.0001ZM319.314 23.0001H315.346V5.91211H319.314V23.0001ZM316.53 16.1521H310.834V12.8241H316.53V16.1521ZM309.65 14.9361L303.986 5.91211H308.242L313.394 14.4881L309.65 14.9361Z" fill="white"/>
<path d="M293.461 23.2227C291.712 23.2227 290.154 22.8494 288.789 22.1028C287.424 21.3348 286.346 20.2894 285.557 18.9667C284.768 17.6441 284.373 16.1401 284.373 14.4548C284.373 12.7481 284.768 11.2441 285.557 9.94275C286.346 8.62008 287.424 7.58542 288.789 6.83875C290.154 6.09208 291.712 5.71875 293.461 5.71875C295.232 5.71875 296.8 6.09208 298.165 6.83875C299.552 7.58542 300.629 8.60942 301.397 9.91075C302.186 11.2121 302.581 12.7268 302.581 14.4548C302.581 16.1401 302.186 17.6441 301.397 18.9667C300.629 20.2894 299.552 21.3348 298.165 22.1028C296.8 22.8494 295.232 23.2227 293.461 23.2227ZM293.461 19.7987C294.442 19.7987 295.317 19.5854 296.085 19.1588C296.853 18.7321 297.45 18.1134 297.877 17.3028C298.325 16.4921 298.549 15.5428 298.549 14.4548C298.549 13.3454 298.325 12.3961 297.877 11.6068C297.45 10.7961 296.853 10.1774 296.085 9.75075C295.317 9.32408 294.453 9.11075 293.493 9.11075C292.512 9.11075 291.637 9.32408 290.869 9.75075C290.122 10.1774 289.525 10.7961 289.077 11.6068C288.629 12.3961 288.405 13.3454 288.405 14.4548C288.405 15.5428 288.629 16.4921 289.077 17.3028C289.525 18.1134 290.122 18.7321 290.869 19.1588C291.637 19.5854 292.501 19.7987 293.461 19.7987Z" fill="white"/>
<path d="M260.063 23.0001V5.91211H264.255L271.135 18.0401H269.471L276.703 5.91211H280.447L280.479 23.0001H276.863V10.2001L277.503 10.6161L271.103 21.2081H269.375L262.943 10.3281L263.711 10.1361V23.0001H260.063Z" fill="white"/>
<path d="M228.679 20.7908L230.023 17.7508C230.983 18.4121 232.028 18.9241 233.159 19.2868C234.311 19.6281 235.452 19.8094 236.583 19.8308C237.713 19.8521 238.737 19.7241 239.655 19.4468C240.593 19.1694 241.34 18.7534 241.895 18.1988C242.449 17.6441 242.727 16.9508 242.727 16.1188C242.727 15.1161 242.311 14.3694 241.479 13.8788C240.668 13.3668 239.559 13.1108 238.151 13.1108H232.935V9.84676H237.831C239.089 9.84676 240.06 9.59076 240.743 9.07876C241.447 8.56676 241.799 7.87342 241.799 6.99876C241.799 6.27342 241.564 5.67609 241.095 5.20676C240.647 4.73742 240.028 4.38542 239.239 4.15076C238.471 3.91609 237.596 3.80942 236.615 3.83076C235.655 3.83076 234.652 3.98009 233.607 4.27876C232.561 4.55609 231.569 4.97209 230.631 5.52676L229.319 2.16676C230.727 1.42009 232.199 0.897422 233.735 0.598756C235.292 0.300089 236.796 0.214756 238.247 0.342757C239.697 0.470757 240.999 0.801423 242.151 1.33476C243.324 1.86809 244.263 2.57209 244.967 3.44676C245.671 4.30009 246.023 5.31342 246.023 6.48676C246.023 7.55342 245.735 8.50276 245.159 9.33476C244.604 10.1454 243.836 10.7748 242.855 11.2228C241.873 11.6708 240.732 11.8948 239.431 11.8948L239.591 10.8708C241.063 10.8708 242.343 11.1268 243.431 11.6388C244.54 12.1294 245.393 12.8121 245.991 13.6868C246.609 14.5614 246.919 15.5748 246.919 16.7268C246.919 17.8148 246.641 18.7854 246.087 19.6388C245.532 20.4708 244.775 21.1748 243.815 21.7508C242.855 22.3054 241.756 22.7214 240.519 22.9988C239.281 23.2548 237.98 23.3508 236.615 23.2868C235.249 23.2228 233.884 22.9881 232.519 22.5828C231.175 22.1774 229.895 21.5801 228.679 20.7908Z" fill="white"/>
<path d="M207.044 22.9996V0.599609H217.06C219.577 0.599609 221.54 1.10094 222.948 2.10361C224.356 3.08494 225.06 4.50361 225.06 6.35961C225.06 8.19428 224.388 9.61294 223.044 10.6156C221.7 11.5969 219.929 12.0876 217.732 12.0876L218.308 10.9356C220.804 10.9356 222.735 11.4369 224.1 12.4396C225.465 13.4423 226.148 14.8929 226.148 16.7916C226.148 18.7329 225.433 20.2583 224.004 21.3676C222.575 22.4556 220.463 22.9996 217.668 22.9996H207.044ZM211.14 19.7996H217.54C218.991 19.7996 220.089 19.5329 220.836 18.9996C221.583 18.4449 221.956 17.6023 221.956 16.4716C221.956 15.3409 221.583 14.5196 220.836 14.0076C220.089 13.4743 218.991 13.2076 217.54 13.2076H211.14V19.7996ZM211.14 10.1676H216.708C218.052 10.1676 219.076 9.90094 219.78 9.36761C220.484 8.81294 220.836 8.02361 220.836 6.99961C220.836 5.93294 220.484 5.13294 219.78 4.59961C219.076 4.06628 218.052 3.79961 216.708 3.79961H211.14V10.1676Z" fill="white"/>
<path d="M190.38 23.3193C188.631 23.3193 187.02 23.0313 185.548 22.4553C184.076 21.8793 182.796 21.0793 181.708 20.0553C180.62 19.01 179.778 17.794 179.18 16.4073C178.583 14.9993 178.284 13.4633 178.284 11.7993C178.284 10.1353 178.583 8.60996 179.18 7.2233C179.778 5.8153 180.62 4.5993 181.708 3.5753C182.796 2.52996 184.076 1.7193 185.548 1.1433C187.02 0.567297 188.62 0.279297 190.348 0.279297C192.098 0.279297 193.698 0.567297 195.148 1.1433C196.62 1.7193 197.9 2.52996 198.988 3.5753C200.076 4.5993 200.919 5.8153 201.516 7.2233C202.114 8.60996 202.412 10.1353 202.412 11.7993C202.412 13.4633 202.114 14.9993 201.516 16.4073C200.919 17.8153 200.076 19.0313 198.988 20.0553C197.9 21.0793 196.62 21.8793 195.148 22.4553C193.698 23.0313 192.108 23.3193 190.38 23.3193ZM190.348 19.6713C191.479 19.6713 192.524 19.4793 193.484 19.0953C194.444 18.7113 195.276 18.1673 195.98 17.4633C196.684 16.738 197.228 15.906 197.612 14.9673C198.018 14.0073 198.22 12.9513 198.22 11.7993C198.22 10.6473 198.018 9.60196 197.612 8.6633C197.228 7.7033 196.684 6.8713 195.98 6.1673C195.276 5.44196 194.444 4.8873 193.484 4.5033C192.524 4.1193 191.479 3.9273 190.348 3.9273C189.218 3.9273 188.172 4.1193 187.212 4.5033C186.274 4.8873 185.442 5.44196 184.716 6.1673C184.012 6.8713 183.458 7.7033 183.052 8.6633C182.668 9.60196 182.476 10.6473 182.476 11.7993C182.476 12.93 182.668 13.9753 183.052 14.9353C183.458 15.8953 184.012 16.738 184.716 17.4633C185.42 18.1673 186.252 18.7113 187.212 19.0953C188.172 19.4793 189.218 19.6713 190.348 19.6713Z" fill="white"/>
<path d="M159.871 23.2227C158.079 23.2227 156.479 22.8494 155.071 22.1028C153.684 21.3348 152.596 20.2894 151.807 18.9667C151.018 17.6441 150.623 16.1401 150.623 14.4548C150.623 12.7481 151.018 11.2441 151.807 9.94275C152.596 8.62008 153.684 7.58542 155.071 6.83875C156.479 6.09208 158.079 5.71875 159.871 5.71875C161.535 5.71875 162.996 6.06008 164.255 6.74275C165.535 7.40408 166.506 8.38542 167.167 9.68675L164.095 11.4788C163.583 10.6681 162.954 10.0707 162.207 9.68675C161.482 9.30275 160.692 9.11075 159.839 9.11075C158.858 9.11075 157.972 9.32408 157.183 9.75075C156.394 10.1774 155.775 10.7961 155.327 11.6068C154.879 12.3961 154.655 13.3454 154.655 14.4548C154.655 15.5641 154.879 16.5241 155.327 17.3347C155.775 18.1241 156.394 18.7321 157.183 19.1588C157.972 19.5854 158.858 19.7987 159.839 19.7987C160.692 19.7987 161.482 19.6067 162.207 19.2227C162.954 18.8387 163.583 18.2414 164.095 17.4307L167.167 19.2227C166.506 20.5027 165.535 21.4948 164.255 22.1988C162.996 22.8814 161.535 23.2227 159.871 23.2227Z" fill="white"/>
<path d="M135.726 23.0001L129.55 14.8081L132.814 12.7921L140.43 23.0001H135.726ZM123.47 23.0001V5.91211H127.47V23.0001H123.47ZM126.286 16.1521V12.8241H132.078V16.1521H126.286ZM133.198 14.9361L129.454 14.4881L135.726 5.91211H140.014L133.198 14.9361Z" fill="white"/>
<path d="M111.063 23.2227C109.164 23.2227 107.5 22.8494 106.071 22.1028C104.663 21.3348 103.564 20.2894 102.775 18.9667C102.007 17.6441 101.623 16.1401 101.623 14.4548C101.623 12.7481 101.996 11.2441 102.743 9.94275C103.511 8.62008 104.556 7.58542 105.879 6.83875C107.223 6.09208 108.748 5.71875 110.455 5.71875C112.119 5.71875 113.602 6.08142 114.903 6.80675C116.204 7.53208 117.228 8.55608 117.975 9.87875C118.722 11.2014 119.095 12.7588 119.095 14.5508C119.095 14.7214 119.084 14.9134 119.063 15.1267C119.063 15.3401 119.052 15.5428 119.031 15.7348H104.791V13.0788H116.919L115.351 13.9107C115.372 12.9294 115.17 12.0654 114.743 11.3188C114.316 10.5721 113.73 9.98542 112.983 9.55875C112.258 9.13208 111.415 8.91875 110.455 8.91875C109.474 8.91875 108.61 9.13208 107.863 9.55875C107.138 9.98542 106.562 10.5827 106.135 11.3507C105.73 12.0974 105.527 12.9827 105.527 14.0068V14.6467C105.527 15.6707 105.762 16.5774 106.231 17.3668C106.7 18.1561 107.362 18.7641 108.215 19.1908C109.068 19.6174 110.05 19.8308 111.159 19.8308C112.119 19.8308 112.983 19.6814 113.751 19.3827C114.519 19.0841 115.202 18.6147 115.799 17.9747L117.943 20.4387C117.175 21.3347 116.204 22.0281 115.031 22.5188C113.879 22.9881 112.556 23.2227 111.063 23.2227Z" fill="white"/>
<path d="M83.2822 23.0001V5.91211H91.6342C93.7036 5.91211 95.3249 6.29611 96.4982 7.06411C97.6929 7.83211 98.2902 8.92011 98.2902 10.3281C98.2902 11.7148 97.7356 12.8028 96.6262 13.5921C95.5169 14.3601 94.0449 14.7441 92.2102 14.7441L92.6902 13.7521C94.7596 13.7521 96.2956 14.1361 97.2982 14.9041C98.3222 15.6508 98.8342 16.7494 98.8342 18.2001C98.8342 19.7148 98.2689 20.8988 97.1382 21.7521C96.0076 22.5841 94.2902 23.0001 91.9862 23.0001H83.2822ZM87.0902 20.0881H91.6662C92.7542 20.0881 93.5756 19.9174 94.1302 19.5761C94.6849 19.2134 94.9622 18.6694 94.9622 17.9441C94.9622 17.1761 94.7062 16.6108 94.1942 16.2481C93.6822 15.8854 92.8822 15.7041 91.7942 15.7041H87.0902V20.0881ZM87.0902 13.0481H91.2822C92.3062 13.0481 93.0742 12.8668 93.5862 12.5041C94.1196 12.1201 94.3862 11.5868 94.3862 10.9041C94.3862 10.2001 94.1196 9.67744 93.5862 9.33611C93.0742 8.99478 92.3062 8.82411 91.2822 8.82411H87.0902V13.0481Z" fill="white"/>
<path d="M70.211 23.2227C68.4617 23.2227 66.9044 22.8494 65.5391 22.1028C64.1737 21.3348 63.0964 20.2894 62.307 18.9667C61.5177 17.6441 61.123 16.1401 61.123 14.4548C61.123 12.7481 61.5177 11.2441 62.307 9.94275C63.0964 8.62008 64.1737 7.58542 65.5391 6.83875C66.9044 6.09208 68.4617 5.71875 70.211 5.71875C71.9817 5.71875 73.5497 6.09208 74.9151 6.83875C76.3017 7.58542 77.3791 8.60942 78.1471 9.91075C78.9364 11.2121 79.3311 12.7268 79.3311 14.4548C79.3311 16.1401 78.9364 17.6441 78.1471 18.9667C77.3791 20.2894 76.3017 21.3348 74.9151 22.1028C73.5497 22.8494 71.9817 23.2227 70.211 23.2227ZM70.211 19.7987C71.1924 19.7987 72.067 19.5854 72.835 19.1588C73.603 18.7321 74.2004 18.1134 74.627 17.3028C75.075 16.4921 75.299 15.5428 75.299 14.4548C75.299 13.3454 75.075 12.3961 74.627 11.6068C74.2004 10.7961 73.603 10.1774 72.835 9.75075C72.067 9.32408 71.203 9.11075 70.243 9.11075C69.2617 9.11075 68.387 9.32408 67.619 9.75075C66.8724 10.1774 66.275 10.7961 65.827 11.6068C65.379 12.3961 65.155 13.3454 65.155 14.4548C65.155 15.5428 65.379 16.4921 65.827 17.3028C66.275 18.1134 66.8724 18.7321 67.619 19.1588C68.387 19.5854 69.251 19.7987 70.211 19.7987Z" fill="white"/>
<path d="M39.2236 22.9681L39.4156 19.6081C39.565 19.6294 39.7036 19.6508 39.8316 19.6721C39.9596 19.6934 40.077 19.7041 40.1836 19.7041C40.845 19.7041 41.357 19.5014 41.7196 19.0961C42.0823 18.6908 42.349 18.1468 42.5196 17.4641C42.7116 16.7601 42.8396 15.9814 42.9036 15.1281C42.989 14.2534 43.053 13.3788 43.0956 12.5041L43.3836 5.91211H57.2076V23.0001H53.2076V8.21611L54.1356 9.30411H46.0076L46.8716 8.18411L46.6476 12.6961C46.5836 14.2108 46.4556 15.6188 46.2636 16.9201C46.093 18.2001 45.8156 19.3201 45.4316 20.2801C45.069 21.2401 44.557 21.9868 43.8956 22.5201C43.2556 23.0534 42.4343 23.3201 41.4316 23.3201C41.1116 23.3201 40.7596 23.2881 40.3756 23.2241C40.013 23.1601 39.629 23.0748 39.2236 22.9681Z" fill="white"/>
<path d="M29.5318 23.2227C27.6331 23.2227 25.9691 22.8494 24.5398 22.1028C23.1318 21.3348 22.0331 20.2894 21.2438 18.9667C20.4758 17.6441 20.0918 16.1401 20.0918 14.4548C20.0918 12.7481 20.4651 11.2441 21.2118 9.94275C21.9798 8.62008 23.0251 7.58542 24.3478 6.83875C25.6918 6.09208 27.2171 5.71875 28.9238 5.71875C30.5878 5.71875 32.0705 6.08142 33.3718 6.80675C34.6731 7.53208 35.6971 8.55608 36.4438 9.87875C37.1905 11.2014 37.5638 12.7588 37.5638 14.5508C37.5638 14.7214 37.5531 14.9134 37.5318 15.1267C37.5318 15.3401 37.5211 15.5428 37.4998 15.7348H23.2598V13.0788H35.3878L33.8198 13.9107C33.8411 12.9294 33.6385 12.0654 33.2118 11.3188C32.7851 10.5721 32.1985 9.98542 31.4518 9.55875C30.7265 9.13208 29.8838 8.91875 28.9238 8.91875C27.9425 8.91875 27.0785 9.13208 26.3318 9.55875C25.6065 9.98542 25.0305 10.5827 24.6038 11.3507C24.1985 12.0974 23.9958 12.9827 23.9958 14.0068V14.6467C23.9958 15.6707 24.2305 16.5774 24.6998 17.3668C25.1691 18.1561 25.8305 18.7641 26.6838 19.1908C27.5371 19.6174 28.5185 19.8308 29.6278 19.8308C30.5878 19.8308 31.4518 19.6814 32.2198 19.3827C32.9878 19.0841 33.6705 18.6147 34.2678 17.9747L36.4118 20.4387C35.6438 21.3347 34.6731 22.0281 33.4998 22.5188C32.3478 22.9881 31.0251 23.2227 29.5318 23.2227Z" fill="white"/>
<path d="M12.4728 16.2481C11.6621 16.6321 10.7981 16.9521 9.8808 17.2081C8.9848 17.4428 8.03546 17.5601 7.0328 17.5601C4.87813 17.5601 3.20346 17.0588 2.0088 16.0561C0.81413 15.0534 0.216797 13.4961 0.216797 11.3841V5.91211H4.2168V11.1281C4.2168 12.2588 4.5368 13.0801 5.1768 13.5921C5.83813 14.1041 6.7448 14.3601 7.8968 14.3601C8.6648 14.3601 9.4328 14.2641 10.2008 14.0721C10.9688 13.8801 11.7261 13.6134 12.4728 13.2721V16.2481ZM12.1848 23.0001V5.91211H16.1848V23.0001H12.1848Z" fill="white"/>
</svg>
