<svg width="611" height="106" viewBox="0 0 611 106" fill="none" xmlns="http://www.w3.org/2000/svg">
<path d="M116.57 101.999V85.0391H119.642V97.3911L130.042 85.0391H132.826V101.999H129.754V89.6471L119.386 101.999H116.57Z" fill="white"/>
<path d="M91.0391 101.999V85.0391H94.2071L101.503 97.5831H100.223L107.711 85.0391H110.591V101.999H107.807V88.4951L108.319 88.7831L101.471 100.079H100.127L93.2471 88.5591L93.8551 88.4311V101.999H91.0391Z" fill="white"/>
<path d="M80.4728 90.7991C82.6275 90.8204 84.2702 91.3111 85.4008 92.2711C86.5315 93.2311 87.0968 94.5857 87.0968 96.3351C87.0968 98.1697 86.4781 99.5884 85.2408 100.591C84.0035 101.572 82.2541 102.052 79.9928 102.031L72.6328 101.999V85.0391H75.7048V90.7671L80.4728 90.7991ZM79.7368 99.6951C81.1235 99.7164 82.1688 99.4391 82.8728 98.8631C83.5982 98.2871 83.9608 97.4337 83.9608 96.3031C83.9608 95.1937 83.6088 94.3831 82.9048 93.8711C82.2008 93.3591 81.1448 93.0924 79.7368 93.0711L75.7048 93.0071V99.6631L79.7368 99.6951Z" fill="white"/>
<path d="M62.9661 100.559V87.7271H55.6061L55.4461 90.9911C55.4034 92.0577 55.3288 93.0924 55.2221 94.0951C55.1368 95.0764 54.9874 95.9831 54.7741 96.8151C54.5821 97.6471 54.2941 98.3297 53.9101 98.8631C53.5261 99.3964 53.0141 99.7271 52.3741 99.8551L49.3341 99.3111C49.9954 99.3324 50.5288 99.1191 50.9341 98.6711C51.3394 98.2017 51.6488 97.5617 51.8621 96.7511C52.0968 95.9404 52.2674 95.0231 52.3741 93.9991C52.4808 92.9537 52.5661 91.8764 52.6301 90.7671L52.8861 85.0391H66.0381V100.559H62.9661ZM48.6621 105.935V99.3111H68.6301V105.935H65.7501V101.999H51.5741V105.935H48.6621Z" fill="white"/>
<path d="M23.4766 101.999V85.0389H26.5486V91.9829H31.6686V94.8309H26.5486V101.999H23.4766ZM38.4846 102.191C36.8206 102.191 35.3379 101.818 34.0366 101.071C32.7566 100.324 31.7432 99.3002 30.9966 97.9989C30.2499 96.6762 29.8766 95.1829 29.8766 93.5189C29.8766 91.8336 30.2499 90.3402 30.9966 89.0389C31.7432 87.7162 32.7566 86.6922 34.0366 85.9669C35.3379 85.2416 36.8206 84.8789 38.4846 84.8789C40.1272 84.8789 41.5992 85.2416 42.9006 85.9669C44.2019 86.6922 45.2259 87.7162 45.9726 89.0389C46.7192 90.3402 47.0926 91.8336 47.0926 93.5189C47.0926 95.2042 46.7192 96.6976 45.9726 97.9989C45.2259 99.3002 44.2019 100.324 42.9006 101.071C41.5992 101.818 40.1272 102.191 38.4846 102.191ZM38.4846 99.5029C39.5512 99.5029 40.5006 99.2576 41.3326 98.7669C42.1646 98.2549 42.8259 97.5616 43.3166 96.6869C43.8072 95.7909 44.0526 94.7349 44.0526 93.5189C44.0526 92.3029 43.8072 91.2576 43.3166 90.3829C42.8259 89.4869 42.1646 88.7936 41.3326 88.3029C40.5006 87.8122 39.5512 87.5669 38.4846 87.5669C37.4392 87.5669 36.4899 87.8122 35.6366 88.3029C34.8046 88.7936 34.1432 89.4869 33.6526 90.3829C33.1619 91.2576 32.9166 92.3029 32.9166 93.5189C32.9166 94.7349 33.1619 95.7909 33.6526 96.6869C34.1432 97.5616 34.8046 98.2549 35.6366 98.7669C36.4899 99.2576 37.4392 99.5029 38.4846 99.5029Z" fill="white"/>
<path d="M0.160156 101.967L0.352156 99.3751C0.50149 99.3964 0.640156 99.4177 0.768156 99.4391C0.896156 99.4604 1.01349 99.4711 1.12016 99.4711C1.80282 99.4711 2.33616 99.2364 2.72016 98.7671C3.12549 98.2977 3.42416 97.6791 3.61616 96.9111C3.80816 96.1217 3.94682 95.2364 4.03216 94.2551C4.11749 93.2737 4.18149 92.2924 4.22416 91.3111L4.51216 85.0391H17.5362V101.999H14.4642V86.8311L15.2002 87.7271H6.49616L7.20016 86.7991L6.97616 91.5031C6.91216 92.9964 6.79482 94.3937 6.62416 95.6951C6.45349 96.9964 6.18682 98.1377 5.82416 99.1191C5.48282 100.1 5.00282 100.868 4.38416 101.423C3.78682 101.978 3.00816 102.255 2.04816 102.255C1.77082 102.255 1.47216 102.223 1.15216 102.159C0.85349 102.116 0.522823 102.052 0.160156 101.967Z" fill="white"/>
<path d="M548.102 62.9991V46.0391H551.174V58.3911L561.574 46.0391H564.358V62.9991H561.286V50.6471L550.918 62.9991H548.102Z" fill="white"/>
<path d="M522.57 62.9991V46.0391H525.738L533.034 58.5831H531.754L539.242 46.0391H542.122V62.9991H539.338V49.4951L539.85 49.7831L533.002 61.0791H531.658L524.778 49.5591L525.386 49.4311V62.9991H522.57Z" fill="white"/>
<path d="M513.526 62.9991V46.0391H516.598V62.9991H513.526ZM504.406 51.7991C506.56 51.8204 508.192 52.3111 509.302 53.2711C510.432 54.2311 510.998 55.5857 510.998 57.3351C510.998 59.1697 510.379 60.5884 509.142 61.5911C507.926 62.5724 506.176 63.0524 503.894 63.0311L496.758 62.9991V46.0391H499.83V51.7671L504.406 51.7991ZM503.67 60.6951C505.035 60.7164 506.08 60.4391 506.806 59.8631C507.531 59.2871 507.894 58.4337 507.894 57.3031C507.894 56.1937 507.531 55.3831 506.806 54.8711C506.102 54.3591 505.056 54.0924 503.67 54.0711L499.83 54.0071V60.6631L503.67 60.6951Z" fill="white"/>
<path d="M474.977 62.9991V46.0391H478.049V53.2391H487.713V46.0391H490.785V62.9991H487.713V55.8951H478.049V62.9991H474.977Z" fill="white"/>
<path d="M462.53 63.223C461.25 63.223 459.992 63.063 458.754 62.743C457.538 62.4017 456.45 61.9217 455.49 61.303L456.418 58.967C457.229 59.479 458.157 59.8843 459.202 60.183C460.248 60.4603 461.304 60.599 462.37 60.599C463.352 60.599 464.194 60.4817 464.898 60.247C465.624 60.0123 466.178 59.6923 466.562 59.287C466.946 58.8603 467.138 58.3697 467.138 57.815C467.138 57.0257 466.786 56.4177 466.082 55.991C465.378 55.5643 464.397 55.351 463.138 55.351H460.066V53.143H462.946C463.693 53.143 464.344 53.0577 464.898 52.887C465.453 52.7163 465.88 52.4603 466.178 52.119C466.498 51.7563 466.658 51.3403 466.658 50.871C466.658 50.359 466.477 49.9217 466.114 49.559C465.752 49.1963 465.24 48.919 464.578 48.727C463.938 48.535 463.181 48.439 462.306 48.439C461.453 48.4603 460.578 48.5777 459.682 48.791C458.808 49.0043 457.912 49.335 456.994 49.783L456.162 47.383C457.186 46.8923 458.189 46.519 459.17 46.263C460.173 45.9857 461.165 45.8363 462.146 45.815C463.618 45.7723 464.93 45.943 466.082 46.327C467.234 46.6897 468.141 47.223 468.802 47.927C469.485 48.631 469.826 49.463 469.826 50.423C469.826 51.2337 469.57 51.959 469.058 52.599C468.546 53.2177 467.864 53.7083 467.01 54.071C466.157 54.4337 465.176 54.615 464.066 54.615L464.194 53.879C466.093 53.879 467.586 54.2523 468.674 54.999C469.762 55.7457 470.306 56.759 470.306 58.039C470.306 59.063 469.965 59.9697 469.282 60.759C468.6 61.527 467.672 62.135 466.498 62.583C465.346 63.0097 464.024 63.223 462.53 63.223Z" fill="white"/>
<path d="M449.407 62.9989V59.4149L449.247 58.7429V52.6309C449.247 51.3296 448.863 50.3269 448.095 49.6229C447.349 48.8976 446.218 48.5349 444.703 48.5349C443.701 48.5349 442.719 48.7056 441.759 49.0469C440.799 49.3669 439.989 49.8042 439.327 50.3589L438.047 48.0549C438.922 47.3509 439.967 46.8176 441.183 46.4549C442.421 46.0709 443.711 45.8789 445.055 45.8789C447.381 45.8789 449.173 46.4442 450.431 47.5749C451.69 48.7056 452.319 50.4336 452.319 52.7589V62.9989H449.407ZM443.839 63.1909C442.581 63.1909 441.471 62.9776 440.511 62.5509C439.573 62.1242 438.847 61.5376 438.335 60.7909C437.823 60.0229 437.567 59.1589 437.567 58.1989C437.567 57.2816 437.781 56.4496 438.207 55.7029C438.655 54.9562 439.37 54.3589 440.351 53.9109C441.354 53.4629 442.698 53.2389 444.383 53.2389H449.759V55.4469H444.511C442.975 55.4469 441.941 55.7029 441.407 56.2149C440.874 56.7269 440.607 57.3456 440.607 58.0709C440.607 58.9029 440.938 59.5749 441.599 60.0869C442.261 60.5776 443.178 60.8229 444.351 60.8229C445.503 60.8229 446.506 60.5669 447.359 60.0549C448.234 59.5429 448.863 58.7962 449.247 57.8149L449.855 59.9269C449.45 60.9296 448.735 61.7296 447.711 62.3269C446.687 62.9029 445.397 63.1909 443.839 63.1909Z" fill="white"/>
<path d="M426.125 63.1909C424.717 63.1909 423.426 62.8709 422.253 62.2309C421.101 61.5696 420.173 60.5989 419.469 59.3189C418.786 58.0389 418.445 56.4389 418.445 54.5189C418.445 52.5989 418.775 50.9989 419.437 49.7189C420.119 48.4389 421.037 47.4789 422.189 46.8389C423.362 46.1989 424.674 45.8789 426.125 45.8789C427.789 45.8789 429.261 46.2416 430.541 46.9669C431.821 47.6922 432.834 48.7056 433.581 50.0069C434.327 51.2869 434.701 52.7909 434.701 54.5189C434.701 56.2469 434.327 57.7616 433.581 59.0629C432.834 60.3642 431.821 61.3776 430.541 62.1029C429.261 62.8282 427.789 63.1909 426.125 63.1909ZM417.133 69.2069V46.0389H420.077V50.6149L419.885 54.5509L420.205 58.4869V69.2069H417.133ZM425.869 60.5029C426.957 60.5029 427.927 60.2576 428.781 59.7669C429.655 59.2762 430.338 58.5829 430.829 57.6869C431.341 56.7696 431.597 55.7136 431.597 54.5189C431.597 53.3029 431.341 52.2576 430.829 51.3829C430.338 50.4869 429.655 49.7936 428.781 49.3029C427.927 48.8122 426.957 48.5669 425.869 48.5669C424.802 48.5669 423.831 48.8122 422.957 49.3029C422.103 49.7936 421.421 50.4869 420.909 51.3829C420.418 52.2576 420.173 53.3029 420.173 54.5189C420.173 55.7136 420.418 56.7696 420.909 57.6869C421.421 58.5829 422.103 59.2762 422.957 59.7669C423.831 60.2576 424.802 60.5029 425.869 60.5029Z" fill="white"/>
<path d="M395.303 63.1909C393.596 63.1909 392.081 62.8176 390.759 62.0709C389.436 61.3242 388.391 60.3002 387.623 58.9989C386.855 57.6762 386.471 56.1829 386.471 54.5189C386.471 52.8336 386.855 51.3402 387.623 50.0389C388.391 48.7376 389.436 47.7242 390.759 46.9989C392.081 46.2522 393.596 45.8789 395.303 45.8789C396.988 45.8789 398.492 46.2522 399.815 46.9989C401.159 47.7242 402.204 48.7376 402.951 50.0389C403.719 51.3189 404.103 52.8122 404.103 54.5189C404.103 56.2042 403.719 57.6976 402.951 58.9989C402.204 60.3002 401.159 61.3242 399.815 62.0709C398.492 62.8176 396.988 63.1909 395.303 63.1909ZM395.303 60.5029C396.391 60.5029 397.361 60.2576 398.215 59.7669C399.089 59.2762 399.772 58.5829 400.263 57.6869C400.753 56.7696 400.999 55.7136 400.999 54.5189C400.999 53.3029 400.753 52.2576 400.263 51.3829C399.772 50.4869 399.089 49.7936 398.215 49.3029C397.361 48.8122 396.391 48.5669 395.303 48.5669C394.215 48.5669 393.244 48.8122 392.391 49.3029C391.537 49.7936 390.855 50.4869 390.343 51.3829C389.831 52.2576 389.575 53.3029 389.575 54.5189C389.575 55.7136 389.831 56.7696 390.343 57.6869C390.855 58.5829 391.537 59.2762 392.391 59.7669C393.244 60.2576 394.215 60.5029 395.303 60.5029Z" fill="white"/>
<path d="M366.258 62.9991V46.0391H369.33V53.2391H378.994V46.0391H382.066V62.9991H378.994V55.8951H369.33V62.9991H366.258Z" fill="white"/>
<path d="M344.477 62.9991V46.0391H347.549V53.2391H357.213V46.0391H360.285V62.9991H357.213V55.8951H347.549V62.9991H344.477Z" fill="white"/>
<path d="M331.934 63.1909C330.121 63.1909 328.521 62.8176 327.134 62.0709C325.769 61.3242 324.702 60.3002 323.934 58.9989C323.188 57.6976 322.814 56.2042 322.814 54.5189C322.814 52.8336 323.177 51.3402 323.902 50.0389C324.649 48.7376 325.662 47.7242 326.942 46.9989C328.244 46.2522 329.705 45.8789 331.326 45.8789C332.969 45.8789 334.42 46.2416 335.678 46.9669C336.937 47.6922 337.918 48.7162 338.622 50.0389C339.348 51.3402 339.71 52.8656 339.71 54.6149C339.71 54.7429 339.7 54.8922 339.678 55.0629C339.678 55.2336 339.668 55.3936 339.646 55.5429H325.214V53.3349H338.046L336.798 54.1029C336.82 53.0149 336.596 52.0442 336.126 51.1909C335.657 50.3376 335.006 49.6762 334.174 49.2069C333.364 48.7162 332.414 48.4709 331.326 48.4709C330.26 48.4709 329.31 48.7162 328.478 49.2069C327.646 49.6762 326.996 50.3482 326.526 51.2229C326.057 52.0762 325.822 53.0576 325.822 54.1669V54.6789C325.822 55.8096 326.078 56.8229 326.59 57.7189C327.124 58.5936 327.86 59.2762 328.798 59.7669C329.737 60.2576 330.814 60.5029 332.03 60.5029C333.033 60.5029 333.94 60.3322 334.75 59.9909C335.582 59.6496 336.308 59.1376 336.926 58.4549L338.622 60.4389C337.854 61.3349 336.894 62.0176 335.742 62.4869C334.612 62.9562 333.342 63.1909 331.934 63.1909Z" fill="white"/>
<path d="M305.522 60.3111L304.818 61.1111V46.0391H307.89V61.1111L307.122 60.3111H316.082L315.346 61.1111V46.0391H318.418V62.9991H294.258V46.0391H297.33V61.1111L296.594 60.3111H305.522Z" fill="white"/>
<path d="M281.219 63.1909C279.811 63.1909 278.52 62.8709 277.347 62.2309C276.195 61.5696 275.267 60.5989 274.563 59.3189C273.88 58.0389 273.539 56.4389 273.539 54.5189C273.539 52.5989 273.869 50.9989 274.531 49.7189C275.213 48.4389 276.131 47.4789 277.283 46.8389C278.456 46.1989 279.768 45.8789 281.219 45.8789C282.883 45.8789 284.355 46.2416 285.635 46.9669C286.915 47.6922 287.928 48.7056 288.675 50.0069C289.421 51.2869 289.795 52.7909 289.795 54.5189C289.795 56.2469 289.421 57.7616 288.675 59.0629C287.928 60.3642 286.915 61.3776 285.635 62.1029C284.355 62.8282 282.883 63.1909 281.219 63.1909ZM272.227 69.2069V46.0389H275.171V50.6149L274.979 54.5509L275.299 58.4869V69.2069H272.227ZM280.963 60.5029C282.051 60.5029 283.021 60.2576 283.875 59.7669C284.749 59.2762 285.432 58.5829 285.923 57.6869C286.435 56.7696 286.691 55.7136 286.691 54.5189C286.691 53.3029 286.435 52.2576 285.923 51.3829C285.432 50.4869 284.749 49.7936 283.875 49.3029C283.021 48.8122 282.051 48.5669 280.963 48.5669C279.896 48.5669 278.925 48.8122 278.051 49.3029C277.197 49.7936 276.515 50.4869 276.003 51.3829C275.512 52.2576 275.267 53.3029 275.267 54.5189C275.267 55.7136 275.512 56.7696 276.003 57.6869C276.515 58.5829 277.197 59.2762 278.051 59.7669C278.925 60.2576 279.896 60.5029 280.963 60.5029Z" fill="white"/>
<path d="M259.684 63.1909C257.871 63.1909 256.271 62.8176 254.884 62.0709C253.519 61.3242 252.452 60.3002 251.684 58.9989C250.938 57.6976 250.564 56.2042 250.564 54.5189C250.564 52.8336 250.927 51.3402 251.652 50.0389C252.399 48.7376 253.412 47.7242 254.692 46.9989C255.994 46.2522 257.455 45.8789 259.076 45.8789C260.719 45.8789 262.17 46.2416 263.428 46.9669C264.687 47.6922 265.668 48.7162 266.372 50.0389C267.098 51.3402 267.46 52.8656 267.46 54.6149C267.46 54.7429 267.45 54.8922 267.428 55.0629C267.428 55.2336 267.418 55.3936 267.396 55.5429H252.964V53.3349H265.796L264.548 54.1029C264.57 53.0149 264.346 52.0442 263.876 51.1909C263.407 50.3376 262.756 49.6762 261.924 49.2069C261.114 48.7162 260.164 48.4709 259.076 48.4709C258.01 48.4709 257.06 48.7162 256.228 49.2069C255.396 49.6762 254.746 50.3482 254.276 51.2229C253.807 52.0762 253.572 53.0576 253.572 54.1669V54.6789C253.572 55.8096 253.828 56.8229 254.34 57.7189C254.874 58.5936 255.61 59.2762 256.548 59.7669C257.487 60.2576 258.564 60.5029 259.78 60.5029C260.783 60.5029 261.69 60.3322 262.5 59.9909C263.332 59.6496 264.058 59.1376 264.676 58.4549L266.372 60.4389C265.604 61.3349 264.644 62.0176 263.492 62.4869C262.362 62.9562 261.092 63.1909 259.684 63.1909Z" fill="white"/>
<path d="M232.477 62.9991V46.0391H240.349C242.333 46.0391 243.89 46.4231 245.021 47.1911C246.173 47.9377 246.749 49.0044 246.749 50.3911C246.749 51.7777 246.205 52.8551 245.117 53.6231C244.05 54.3697 242.631 54.7431 240.861 54.7431L241.341 53.9111C243.367 53.9111 244.871 54.2844 245.853 55.0311C246.834 55.7777 247.325 56.8764 247.325 58.3271C247.325 59.7991 246.77 60.9511 245.661 61.7831C244.573 62.5937 242.898 62.9991 240.637 62.9991H232.477ZM235.485 60.6311H240.413C241.693 60.6311 242.653 60.4391 243.293 60.0551C243.933 59.6497 244.253 59.0097 244.253 58.1351C244.253 57.2391 243.954 56.5884 243.357 56.1831C242.781 55.7564 241.863 55.5431 240.605 55.5431H235.485V60.6311ZM235.485 53.3351H240.093C241.266 53.3351 242.151 53.1217 242.749 52.6951C243.367 52.2471 243.677 51.6284 243.677 50.8391C243.677 50.0284 243.367 49.4204 242.749 49.0151C242.151 48.6097 241.266 48.4071 240.093 48.4071H235.485V53.3351Z" fill="white"/>
<path d="M219.24 63.1909C217.534 63.1909 216.019 62.8176 214.696 62.0709C213.374 61.3242 212.328 60.3002 211.56 58.9989C210.792 57.6762 210.408 56.1829 210.408 54.5189C210.408 52.8336 210.792 51.3402 211.56 50.0389C212.328 48.7376 213.374 47.7242 214.696 46.9989C216.019 46.2522 217.534 45.8789 219.24 45.8789C220.926 45.8789 222.43 46.2522 223.752 46.9989C225.096 47.7242 226.142 48.7376 226.888 50.0389C227.656 51.3189 228.04 52.8122 228.04 54.5189C228.04 56.2042 227.656 57.6976 226.888 58.9989C226.142 60.3002 225.096 61.3242 223.752 62.0709C222.43 62.8176 220.926 63.1909 219.24 63.1909ZM219.24 60.5029C220.328 60.5029 221.299 60.2576 222.152 59.7669C223.027 59.2762 223.71 58.5829 224.2 57.6869C224.691 56.7696 224.936 55.7136 224.936 54.5189C224.936 53.3029 224.691 52.2576 224.2 51.3829C223.71 50.4869 223.027 49.7936 222.152 49.3029C221.299 48.8122 220.328 48.5669 219.24 48.5669C218.152 48.5669 217.182 48.8122 216.328 49.3029C215.475 49.7936 214.792 50.4869 214.28 51.3829C213.768 52.2576 213.512 53.3029 213.512 54.5189C213.512 55.7136 213.768 56.7696 214.28 57.6869C214.792 58.5829 215.475 59.2762 216.328 59.7669C217.182 60.2576 218.152 60.5029 219.24 60.5029Z" fill="white"/>
<path d="M201.337 63.1909C199.609 63.1909 198.062 62.8176 196.697 62.0709C195.353 61.3242 194.297 60.3002 193.529 58.9989C192.761 57.6976 192.377 56.2042 192.377 54.5189C192.377 52.8336 192.761 51.3402 193.529 50.0389C194.297 48.7376 195.353 47.7242 196.697 46.9989C198.062 46.2522 199.609 45.8789 201.337 45.8789C202.873 45.8789 204.238 46.1882 205.433 46.8069C206.649 47.4042 207.588 48.3002 208.249 49.4949L205.913 50.9989C205.358 50.1669 204.676 49.5589 203.865 49.1749C203.076 48.7696 202.222 48.5669 201.305 48.5669C200.196 48.5669 199.204 48.8122 198.329 49.3029C197.454 49.7936 196.761 50.4869 196.249 51.3829C195.737 52.2576 195.481 53.3029 195.481 54.5189C195.481 55.7349 195.737 56.7909 196.249 57.6869C196.761 58.5829 197.454 59.2762 198.329 59.7669C199.204 60.2576 200.196 60.5029 201.305 60.5029C202.222 60.5029 203.076 60.3109 203.865 59.9269C204.676 59.5216 205.358 58.9029 205.913 58.0709L208.249 59.5429C207.588 60.7162 206.649 61.6229 205.433 62.2629C204.238 62.8816 202.873 63.1909 201.337 63.1909Z" fill="white"/>
<path d="M174.462 63.1909C172.734 63.1909 171.187 62.8176 169.822 62.0709C168.478 61.3242 167.422 60.3002 166.654 58.9989C165.886 57.6976 165.502 56.2042 165.502 54.5189C165.502 52.8336 165.886 51.3402 166.654 50.0389C167.422 48.7376 168.478 47.7242 169.822 46.9989C171.187 46.2522 172.734 45.8789 174.462 45.8789C175.998 45.8789 177.363 46.1882 178.558 46.8069C179.774 47.4042 180.713 48.3002 181.374 49.4949L179.038 50.9989C178.483 50.1669 177.801 49.5589 176.99 49.1749C176.201 48.7696 175.347 48.5669 174.43 48.5669C173.321 48.5669 172.329 48.8122 171.454 49.3029C170.579 49.7936 169.886 50.4869 169.374 51.3829C168.862 52.2576 168.606 53.3029 168.606 54.5189C168.606 55.7349 168.862 56.7909 169.374 57.6869C169.886 58.5829 170.579 59.2762 171.454 59.7669C172.329 60.2576 173.321 60.5029 174.43 60.5029C175.347 60.5029 176.201 60.3109 176.99 59.9269C177.801 59.5216 178.483 58.9029 179.038 58.0709L181.374 59.5429C180.713 60.7162 179.774 61.6229 178.558 62.2629C177.363 62.8816 175.998 63.1909 174.462 63.1909Z" fill="white"/>
<path d="M149.73 62.9991V57.0471L150.21 57.6231H144.802C142.541 57.6231 140.77 57.1431 139.49 56.1831C138.232 55.2231 137.602 53.8257 137.602 51.9911C137.602 50.0284 138.274 48.5457 139.618 47.5431C140.984 46.5404 142.797 46.0391 145.058 46.0391H152.482V62.9991H149.73ZM137.442 62.9991L142.05 56.5031H145.218L140.738 62.9991H137.442ZM149.73 56.0871V47.8631L150.21 48.7271H145.154C143.746 48.7271 142.658 48.9937 141.89 49.5271C141.122 50.0391 140.738 50.8924 140.738 52.0871C140.738 54.3057 142.168 55.4151 145.026 55.4151H150.21L149.73 56.0871Z" fill="white"/>
<path d="M116.664 62.9991V46.0391H119.736V58.3911L130.136 46.0391H132.92V62.9991H129.848V50.6471L119.48 62.9991H116.664Z" fill="white"/>
<path d="M94.8828 62.9991V46.0391H97.9548V53.2391H107.619V46.0391H110.691V62.9991H107.619V55.8951H97.9548V62.9991H94.8828Z" fill="white"/>
<path d="M82.3407 63.1909C80.5274 63.1909 78.9274 62.8176 77.5407 62.0709C76.1754 61.3242 75.1087 60.3002 74.3407 58.9989C73.594 57.6976 73.2207 56.2042 73.2207 54.5189C73.2207 52.8336 73.5834 51.3402 74.3087 50.0389C75.0554 48.7376 76.0687 47.7242 77.3487 46.9989C78.65 46.2522 80.1114 45.8789 81.7327 45.8789C83.3754 45.8789 84.826 46.2416 86.0847 46.9669C87.3434 47.6922 88.3247 48.7162 89.0287 50.0389C89.754 51.3402 90.1167 52.8656 90.1167 54.6149C90.1167 54.7429 90.106 54.8922 90.0847 55.0629C90.0847 55.2336 90.074 55.3936 90.0527 55.5429H75.6207V53.3349H88.4527L87.2047 54.1029C87.226 53.0149 87.002 52.0442 86.5327 51.1909C86.0634 50.3376 85.4127 49.6762 84.5807 49.2069C83.77 48.7162 82.8207 48.4709 81.7327 48.4709C80.666 48.4709 79.7167 48.7162 78.8847 49.2069C78.0527 49.6762 77.402 50.3482 76.9327 51.2229C76.4634 52.0762 76.2287 53.0576 76.2287 54.1669V54.6789C76.2287 55.8096 76.4847 56.8229 76.9967 57.7189C77.53 58.5936 78.266 59.2762 79.2047 59.7669C80.1434 60.2576 81.2207 60.5029 82.4367 60.5029C83.4394 60.5029 84.346 60.3322 85.1567 59.9909C85.9887 59.6496 86.714 59.1376 87.3327 58.4549L89.0287 60.4389C88.2607 61.3349 87.3007 62.0176 86.1487 62.4869C85.018 62.9562 83.7487 63.1909 82.3407 63.1909Z" fill="white"/>
<path d="M55.9281 60.3111L55.2241 61.1111V46.0391H58.2961V61.1111L57.5281 60.3111H66.4881L65.7521 61.1111V46.0391H68.8241V62.9991H44.6641V46.0391H47.7361V61.1111L47.0001 60.3111H55.9281ZM68.4401 66.6151V62.1991L69.1761 62.9991H65.5921V60.3111H71.3201V66.6151H68.4401Z" fill="white"/>
<path d="M31.3164 63.2561C29.9084 63.2561 28.6604 63.0321 27.5724 62.5841C26.5057 62.1361 25.5884 61.4748 24.8204 60.6001C24.0524 59.7041 23.4657 58.5841 23.0604 57.2401C22.6764 55.8748 22.4844 54.2748 22.4844 52.4401C22.4844 50.9895 22.6124 49.6881 22.8684 48.5361C23.1244 47.3841 23.487 46.3601 23.9564 45.4641C24.447 44.5681 25.0444 43.7895 25.7484 43.1281C26.4737 42.4668 27.2844 41.9228 28.1804 41.4961C29.0977 41.0481 30.1004 40.7068 31.1884 40.4721L38.9324 38.7441L39.3804 41.5921L32.2444 43.1281C31.8177 43.2135 31.3057 43.3415 30.7084 43.5121C30.111 43.6828 29.503 43.9495 28.8844 44.3121C28.2657 44.6535 27.6897 45.1335 27.1564 45.7521C26.623 46.3708 26.1964 47.1815 25.8764 48.1841C25.5564 49.1655 25.3964 50.3815 25.3964 51.8321C25.3964 52.2375 25.407 52.5468 25.4284 52.7601C25.4497 52.9735 25.471 53.1868 25.4924 53.4001C25.535 53.6135 25.567 53.9335 25.5884 54.3601L24.3084 53.0481C24.6497 51.8748 25.1937 50.8508 25.9404 49.9761C26.687 49.1015 27.583 48.4295 28.6284 47.9601C29.695 47.4695 30.8577 47.2241 32.1164 47.2241C33.695 47.2241 35.0924 47.5655 36.3084 48.2481C37.5457 48.9308 38.5164 49.8695 39.2204 51.0641C39.9244 52.2588 40.2764 53.6241 40.2764 55.1601C40.2764 56.7175 39.903 58.1148 39.1564 59.3521C38.431 60.5681 37.3964 61.5281 36.0524 62.2321C34.7084 62.9148 33.1297 63.2561 31.3164 63.2561ZM31.6044 60.6961C32.6924 60.6961 33.6524 60.4615 34.4844 59.9921C35.3164 59.5015 35.967 58.8508 36.4364 58.0401C36.9057 57.2081 37.1404 56.2801 37.1404 55.2561C37.1404 54.2321 36.9057 53.3255 36.4364 52.5361C35.967 51.7468 35.3164 51.1281 34.4844 50.6801C33.6524 50.2108 32.671 49.9761 31.5404 49.9761C30.4737 49.9761 29.5137 50.2001 28.6604 50.6481C27.807 51.0748 27.1457 51.6828 26.6764 52.4721C26.207 53.2401 25.9724 54.1361 25.9724 55.1601C25.9724 56.1841 26.207 57.1228 26.6764 57.9761C27.167 58.8081 27.8284 59.4695 28.6604 59.9601C29.5137 60.4508 30.495 60.6961 31.6044 60.6961Z" fill="white"/>
<path d="M10.2402 63.1909C8.53354 63.1909 7.01887 62.8176 5.6962 62.0709C4.37354 61.3242 3.3282 60.3002 2.5602 58.9989C1.7922 57.6762 1.4082 56.1829 1.4082 54.5189C1.4082 52.8336 1.7922 51.3402 2.5602 50.0389C3.3282 48.7376 4.37354 47.7242 5.6962 46.9989C7.01887 46.2522 8.53354 45.8789 10.2402 45.8789C11.9255 45.8789 13.4295 46.2522 14.7522 46.9989C16.0962 47.7242 17.1415 48.7376 17.8882 50.0389C18.6562 51.3189 19.0402 52.8122 19.0402 54.5189C19.0402 56.2042 18.6562 57.6976 17.8882 58.9989C17.1415 60.3002 16.0962 61.3242 14.7522 62.0709C13.4295 62.8176 11.9255 63.1909 10.2402 63.1909ZM10.2402 60.5029C11.3282 60.5029 12.2989 60.2576 13.1522 59.7669C14.0269 59.2762 14.7095 58.5829 15.2002 57.6869C15.6909 56.7696 15.9362 55.7136 15.9362 54.5189C15.9362 53.3029 15.6909 52.2576 15.2002 51.3829C14.7095 50.4869 14.0269 49.7936 13.1522 49.3029C12.2989 48.8122 11.3282 48.5669 10.2402 48.5669C9.1522 48.5669 8.18154 48.8122 7.3282 49.3029C6.47487 49.7936 5.7922 50.4869 5.2802 51.3829C4.7682 52.2576 4.5122 53.3029 4.5122 54.5189C4.5122 55.7136 4.7682 56.7696 5.2802 57.6869C5.7922 58.5829 6.47487 59.2762 7.3282 59.7669C8.18154 60.2576 9.1522 60.5029 10.2402 60.5029Z" fill="white"/>
<path d="M604.192 12.7991C606.346 12.8204 607.989 13.3111 609.12 14.2711C610.25 15.2311 610.816 16.5857 610.816 18.3351C610.816 20.1697 610.197 21.5884 608.96 22.5911C607.722 23.5724 605.973 24.0524 603.712 24.0311L596.352 23.9991V7.03906H599.424V12.7671L604.192 12.7991ZM603.456 21.6951C604.842 21.7164 605.888 21.4391 606.592 20.8631C607.317 20.2871 607.68 19.4337 607.68 18.3031C607.68 17.1937 607.328 16.3831 606.624 15.8711C605.92 15.3591 604.864 15.0924 603.456 15.0711L599.424 15.0071V21.6631L603.456 21.6951Z" fill="white"/>
<path d="M583.93 23.9991V8.92706L584.698 9.72706H577.722V7.03906H593.21V9.72706H586.266L587.002 8.92706V23.9991H583.93Z" fill="white"/>
<path d="M569.899 24.1909C568.171 24.1909 566.625 23.8176 565.259 23.0709C563.915 22.3242 562.859 21.3002 562.091 19.9989C561.323 18.6976 560.939 17.2042 560.939 15.5189C560.939 13.8336 561.323 12.3402 562.091 11.0389C562.859 9.73758 563.915 8.72424 565.259 7.99891C566.625 7.25224 568.171 6.87891 569.899 6.87891C571.435 6.87891 572.801 7.18824 573.995 7.80691C575.211 8.40424 576.15 9.30024 576.811 10.4949L574.475 11.9989C573.921 11.1669 573.238 10.5589 572.427 10.1749C571.638 9.76958 570.785 9.56691 569.867 9.56691C568.758 9.56691 567.766 9.81224 566.891 10.3029C566.017 10.7936 565.323 11.4869 564.811 12.3829C564.299 13.2576 564.043 14.3029 564.043 15.5189C564.043 16.7349 564.299 17.7909 564.811 18.6869C565.323 19.5829 566.017 20.2762 566.891 20.7669C567.766 21.2576 568.758 21.5029 569.867 21.5029C570.785 21.5029 571.638 21.3109 572.427 20.9269C573.238 20.5216 573.921 19.9029 574.475 19.0709L576.811 20.5429C576.15 21.7162 575.211 22.6229 573.995 23.2629C572.801 23.8816 571.435 24.1909 569.899 24.1909Z" fill="white"/>
<path d="M549.271 24.1909C547.565 24.1909 546.05 23.8176 544.727 23.0709C543.405 22.3242 542.359 21.3002 541.591 19.9989C540.823 18.6762 540.439 17.1829 540.439 15.5189C540.439 13.8336 540.823 12.3402 541.591 11.0389C542.359 9.73758 543.405 8.72424 544.727 7.99891C546.05 7.25224 547.565 6.87891 549.271 6.87891C550.957 6.87891 552.461 7.25224 553.783 7.99891C555.127 8.72424 556.173 9.73758 556.919 11.0389C557.687 12.3189 558.071 13.8122 558.071 15.5189C558.071 17.2042 557.687 18.6976 556.919 19.9989C556.173 21.3002 555.127 22.3242 553.783 23.0709C552.461 23.8176 550.957 24.1909 549.271 24.1909ZM549.271 21.5029C550.359 21.5029 551.33 21.2576 552.183 20.7669C553.058 20.2762 553.741 19.5829 554.231 18.6869C554.722 17.7696 554.967 16.7136 554.967 15.5189C554.967 14.3029 554.722 13.2576 554.231 12.3829C553.741 11.4869 553.058 10.7936 552.183 10.3029C551.33 9.81224 550.359 9.56691 549.271 9.56691C548.183 9.56691 547.213 9.81224 546.359 10.3029C545.506 10.7936 544.823 11.4869 544.311 12.3829C543.799 13.2576 543.543 14.3029 543.543 15.5189C543.543 16.7136 543.799 17.7696 544.311 18.6869C544.823 19.5829 545.506 20.2762 546.359 20.7669C547.213 21.2576 548.183 21.5029 549.271 21.5029Z" fill="white"/>
<path d="M520.227 23.9991V7.03906H523.299V14.2391H532.963V7.03906H536.035V23.9991H532.963V16.8951H523.299V23.9991H520.227Z" fill="white"/>
<path d="M513.198 23.9991L507.79 15.7431L510.318 14.2071L516.846 23.9991H513.198ZM504.27 16.8311V14.2071H509.774V16.8311H504.27ZM510.606 15.8711L507.694 15.4871L513.102 7.03906H516.398L510.606 15.8711ZM494.158 23.9991H490.51L497.006 14.2071L499.534 15.7431L494.158 23.9991ZM505.198 23.9991H502.126V7.03906H505.198V23.9991ZM503.054 16.8311H497.582V14.2071H503.054V16.8311ZM496.75 15.8711L490.958 7.03906H494.222L499.63 15.4871L496.75 15.8711Z" fill="white"/>
<path d="M480.396 24.1909C478.69 24.1909 477.175 23.8176 475.852 23.0709C474.53 22.3242 473.484 21.3002 472.716 19.9989C471.948 18.6762 471.564 17.1829 471.564 15.5189C471.564 13.8336 471.948 12.3402 472.716 11.0389C473.484 9.73758 474.53 8.72424 475.852 7.99891C477.175 7.25224 478.69 6.87891 480.396 6.87891C482.082 6.87891 483.586 7.25224 484.908 7.99891C486.252 8.72424 487.298 9.73758 488.044 11.0389C488.812 12.3189 489.196 13.8122 489.196 15.5189C489.196 17.2042 488.812 18.6976 488.044 19.9989C487.298 21.3002 486.252 22.3242 484.908 23.0709C483.586 23.8176 482.082 24.1909 480.396 24.1909ZM480.396 21.5029C481.484 21.5029 482.455 21.2576 483.308 20.7669C484.183 20.2762 484.866 19.5829 485.356 18.6869C485.847 17.7696 486.092 16.7136 486.092 15.5189C486.092 14.3029 485.847 13.2576 485.356 12.3829C484.866 11.4869 484.183 10.7936 483.308 10.3029C482.455 9.81224 481.484 9.56691 480.396 9.56691C479.308 9.56691 478.338 9.81224 477.484 10.3029C476.631 10.7936 475.948 11.4869 475.436 12.3829C474.924 13.2576 474.668 14.3029 474.668 15.5189C474.668 16.7136 474.924 17.7696 475.436 18.6869C475.948 19.5829 476.631 20.2762 477.484 20.7669C478.338 21.2576 479.308 21.5029 480.396 21.5029Z" fill="white"/>
<path d="M447.602 23.9991V7.03906H450.77L458.066 19.5831H456.786L464.274 7.03906H467.154V23.9991H464.37V10.4951L464.882 10.7831L458.034 22.0791H456.69L449.81 10.5591L450.418 10.4311V23.9991H447.602Z" fill="white"/>
<path d="M435.155 24.223C433.875 24.223 432.617 24.063 431.379 23.743C430.163 23.4017 429.075 22.9217 428.115 22.303L429.043 19.967C429.854 20.479 430.782 20.8843 431.827 21.183C432.873 21.4603 433.929 21.599 434.995 21.599C435.977 21.599 436.819 21.4817 437.523 21.247C438.249 21.0123 438.803 20.6923 439.187 20.287C439.571 19.8603 439.763 19.3697 439.763 18.815C439.763 18.0257 439.411 17.4177 438.707 16.991C438.003 16.5643 437.022 16.351 435.763 16.351H432.691V14.143H435.571C436.318 14.143 436.969 14.0577 437.523 13.887C438.078 13.7163 438.505 13.4603 438.803 13.119C439.123 12.7563 439.283 12.3403 439.283 11.871C439.283 11.359 439.102 10.9217 438.739 10.559C438.377 10.1963 437.865 9.91899 437.203 9.72699C436.563 9.53499 435.806 9.43899 434.931 9.43899C434.078 9.46033 433.203 9.57766 432.307 9.79099C431.433 10.0043 430.537 10.335 429.619 10.783L428.787 8.38299C429.811 7.89233 430.814 7.51899 431.795 7.26299C432.798 6.98566 433.79 6.83633 434.771 6.81499C436.243 6.77233 437.555 6.94299 438.707 7.32699C439.859 7.68966 440.766 8.22299 441.427 8.92699C442.11 9.63099 442.451 10.463 442.451 11.423C442.451 12.2337 442.195 12.959 441.683 13.599C441.171 14.2177 440.489 14.7083 439.635 15.071C438.782 15.4337 437.801 15.615 436.691 15.615L436.819 14.879C438.718 14.879 440.211 15.2523 441.299 15.999C442.387 16.7457 442.931 17.759 442.931 19.039C442.931 20.063 442.59 20.9697 441.907 21.759C441.225 22.527 440.297 23.135 439.123 23.583C437.971 24.0097 436.649 24.223 435.155 24.223Z" fill="white"/>
<path d="M417.146 24.1909C415.44 24.1909 413.925 23.8176 412.602 23.0709C411.28 22.3242 410.234 21.3002 409.466 19.9989C408.698 18.6762 408.314 17.1829 408.314 15.5189C408.314 13.8336 408.698 12.3402 409.466 11.0389C410.234 9.73758 411.28 8.72424 412.602 7.99891C413.925 7.25224 415.44 6.87891 417.146 6.87891C418.832 6.87891 420.336 7.25224 421.658 7.99891C423.002 8.72424 424.048 9.73758 424.794 11.0389C425.562 12.3189 425.946 13.8122 425.946 15.5189C425.946 17.2042 425.562 18.6976 424.794 19.9989C424.048 21.3002 423.002 22.3242 421.658 23.0709C420.336 23.8176 418.832 24.1909 417.146 24.1909ZM417.146 21.5029C418.234 21.5029 419.205 21.2576 420.058 20.7669C420.933 20.2762 421.616 19.5829 422.106 18.6869C422.597 17.7696 422.842 16.7136 422.842 15.5189C422.842 14.3029 422.597 13.2576 422.106 12.3829C421.616 11.4869 420.933 10.7936 420.058 10.3029C419.205 9.81224 418.234 9.56691 417.146 9.56691C416.058 9.56691 415.088 9.81224 414.234 10.3029C413.381 10.7936 412.698 11.4869 412.186 12.3829C411.674 13.2576 411.418 14.3029 411.418 15.5189C411.418 16.7136 411.674 17.7696 412.186 18.6869C412.698 19.5829 413.381 20.2762 414.234 20.7669C415.088 21.2576 416.058 21.5029 417.146 21.5029Z" fill="white"/>
<path d="M390.227 23.9991V7.03906H398.099C400.083 7.03906 401.64 7.42306 402.771 8.19106C403.923 8.93773 404.499 10.0044 404.499 11.3911C404.499 12.7777 403.955 13.8551 402.867 14.6231C401.8 15.3697 400.381 15.7431 398.611 15.7431L399.091 14.9111C401.117 14.9111 402.621 15.2844 403.603 16.0311C404.584 16.7777 405.075 17.8764 405.075 19.3271C405.075 20.7991 404.52 21.9511 403.411 22.7831C402.323 23.5937 400.648 23.9991 398.387 23.9991H390.227ZM393.235 21.6311H398.163C399.443 21.6311 400.403 21.4391 401.043 21.0551C401.683 20.6497 402.003 20.0097 402.003 19.1351C402.003 18.2391 401.704 17.5884 401.107 17.1831C400.531 16.7564 399.613 16.5431 398.355 16.5431H393.235V21.6311ZM393.235 14.3351H397.843C399.016 14.3351 399.901 14.1217 400.499 13.6951C401.117 13.2471 401.427 12.6284 401.427 11.8391C401.427 11.0284 401.117 10.4204 400.499 10.0151C399.901 9.60973 399.016 9.40706 397.843 9.40706H393.235V14.3351Z" fill="white"/>
<path d="M369.211 23.9991V8.92706L369.979 9.72706H363.003V7.03906H378.491V9.72706H371.547L372.283 8.92706V23.9991H369.211Z" fill="white"/>
<path d="M343.633 23.9991V7.03906H346.705V19.3911L357.105 7.03906H359.889V23.9991H356.817V11.6471L346.449 23.9991H343.633Z" fill="white"/>
<path d="M323.977 23.9991V7.03906H331.849C333.833 7.03906 335.39 7.42306 336.521 8.19106C337.673 8.93773 338.249 10.0044 338.249 11.3911C338.249 12.7777 337.705 13.8551 336.617 14.6231C335.55 15.3697 334.131 15.7431 332.361 15.7431L332.841 14.9111C334.867 14.9111 336.371 15.2844 337.353 16.0311C338.334 16.7777 338.825 17.8764 338.825 19.3271C338.825 20.7991 338.27 21.9511 337.161 22.7831C336.073 23.5937 334.398 23.9991 332.137 23.9991H323.977ZM326.985 21.6311H331.913C333.193 21.6311 334.153 21.4391 334.793 21.0551C335.433 20.6497 335.753 20.0097 335.753 19.1351C335.753 18.2391 335.454 17.5884 334.857 17.1831C334.281 16.7564 333.363 16.5431 332.105 16.5431H326.985V21.6311ZM326.985 14.3351H331.593C332.766 14.3351 333.651 14.1217 334.249 13.6951C334.867 13.2471 335.177 12.6284 335.177 11.8391C335.177 11.0284 334.867 10.4204 334.249 10.0151C333.651 9.60973 332.766 9.40706 331.593 9.40706H326.985V14.3351Z" fill="white"/>
<path d="M315.532 23.9989V20.4149L315.372 19.7429V13.6309C315.372 12.3296 314.988 11.3269 314.22 10.6229C313.474 9.89758 312.343 9.5349 310.828 9.5349C309.826 9.5349 308.844 9.70557 307.884 10.0469C306.924 10.3669 306.114 10.8042 305.452 11.3589L304.172 9.05491C305.047 8.35091 306.092 7.81758 307.308 7.45491C308.546 7.07091 309.836 6.87891 311.18 6.87891C313.506 6.87891 315.298 7.44424 316.556 8.57491C317.815 9.70557 318.444 11.4336 318.444 13.7589V23.9989H315.532ZM309.964 24.1909C308.706 24.1909 307.596 23.9776 306.636 23.5509C305.698 23.1242 304.972 22.5376 304.46 21.7909C303.948 21.0229 303.692 20.1589 303.692 19.1989C303.692 18.2816 303.906 17.4496 304.332 16.7029C304.78 15.9562 305.495 15.3589 306.476 14.9109C307.479 14.4629 308.823 14.2389 310.508 14.2389H315.884V16.4469H310.636C309.1 16.4469 308.066 16.7029 307.532 17.2149C306.999 17.7269 306.732 18.3456 306.732 19.0709C306.732 19.9029 307.063 20.5749 307.724 21.0869C308.386 21.5776 309.303 21.8229 310.476 21.8229C311.628 21.8229 312.631 21.5669 313.484 21.0549C314.359 20.5429 314.988 19.7962 315.372 18.8149L315.98 20.9269C315.575 21.9296 314.86 22.7296 313.836 23.3269C312.812 23.9029 311.522 24.1909 309.964 24.1909Z" fill="white"/>
<path d="M292.711 23.9991V8.92706L293.479 9.72706H286.503V7.03906H301.991V9.72706H295.047L295.783 8.92706V23.9991H292.711Z" fill="white"/>
<path d="M278.681 24.1909C276.953 24.1909 275.406 23.8176 274.041 23.0709C272.697 22.3242 271.641 21.3002 270.873 19.9989C270.105 18.6976 269.721 17.2042 269.721 15.5189C269.721 13.8336 270.105 12.3402 270.873 11.0389C271.641 9.73758 272.697 8.72424 274.041 7.99891C275.406 7.25224 276.953 6.87891 278.681 6.87891C280.217 6.87891 281.582 7.18824 282.777 7.80691C283.993 8.40424 284.931 9.30024 285.593 10.4949L283.257 11.9989C282.702 11.1669 282.019 10.5589 281.209 10.1749C280.419 9.76958 279.566 9.56691 278.649 9.56691C277.539 9.56691 276.547 9.81224 275.673 10.3029C274.798 10.7936 274.105 11.4869 273.593 12.3829C273.081 13.2576 272.825 14.3029 272.825 15.5189C272.825 16.7349 273.081 17.7909 273.593 18.6869C274.105 19.5829 274.798 20.2762 275.673 20.7669C276.547 21.2576 277.539 21.5029 278.649 21.5029C279.566 21.5029 280.419 21.3109 281.209 20.9269C282.019 20.5216 282.702 19.9029 283.257 19.0709L285.593 20.5429C284.931 21.7162 283.993 22.6229 282.777 23.2629C281.582 23.8816 280.217 24.1909 278.681 24.1909Z" fill="white"/>
<path d="M258.053 24.1909C256.346 24.1909 254.831 23.8176 253.509 23.0709C252.186 22.3242 251.141 21.3002 250.373 19.9989C249.605 18.6762 249.221 17.1829 249.221 15.5189C249.221 13.8336 249.605 12.3402 250.373 11.0389C251.141 9.73758 252.186 8.72424 253.509 7.99891C254.831 7.25224 256.346 6.87891 258.053 6.87891C259.738 6.87891 261.242 7.25224 262.565 7.99891C263.909 8.72424 264.954 9.73758 265.701 11.0389C266.469 12.3189 266.853 13.8122 266.853 15.5189C266.853 17.2042 266.469 18.6976 265.701 19.9989C264.954 21.3002 263.909 22.3242 262.565 23.0709C261.242 23.8176 259.738 24.1909 258.053 24.1909ZM258.053 21.5029C259.141 21.5029 260.111 21.2576 260.965 20.7669C261.839 20.2762 262.522 19.5829 263.013 18.6869C263.503 17.7696 263.749 16.7136 263.749 15.5189C263.749 14.3029 263.503 13.2576 263.013 12.3829C262.522 11.4869 261.839 10.7936 260.965 10.3029C260.111 9.81224 259.141 9.56691 258.053 9.56691C256.965 9.56691 255.994 9.81224 255.141 10.3029C254.287 10.7936 253.605 11.4869 253.093 12.3829C252.581 13.2576 252.325 14.3029 252.325 15.5189C252.325 16.7136 252.581 17.7696 253.093 18.6869C253.605 19.5829 254.287 20.2762 255.141 20.7669C255.994 21.2576 256.965 21.5029 258.053 21.5029Z" fill="white"/>
<path d="M241.122 22.5591V9.72706H233.762L233.602 12.9911C233.56 14.0577 233.485 15.0924 233.378 16.0951C233.293 17.0764 233.144 17.9831 232.93 18.8151C232.738 19.6471 232.45 20.3297 232.066 20.8631C231.682 21.3964 231.17 21.7271 230.53 21.8551L227.49 21.3111C228.152 21.3324 228.685 21.1191 229.09 20.6711C229.496 20.2017 229.805 19.5617 230.018 18.7511C230.253 17.9404 230.424 17.0231 230.53 15.9991C230.637 14.9537 230.722 13.8764 230.786 12.7671L231.042 7.03906H244.194V22.5591H241.122ZM226.818 27.9351V21.3111H246.786V27.9351H243.906V23.9991H229.73V27.9351H226.818Z" fill="white"/>
<path d="M217.278 24.1909C215.465 24.1909 213.865 23.8176 212.478 23.0709C211.113 22.3242 210.046 21.3002 209.278 19.9989C208.532 18.6976 208.158 17.2042 208.158 15.5189C208.158 13.8336 208.521 12.3402 209.246 11.0389C209.993 9.73758 211.006 8.72424 212.286 7.99891C213.588 7.25224 215.049 6.87891 216.67 6.87891C218.313 6.87891 219.764 7.24158 221.022 7.96691C222.281 8.69225 223.262 9.71624 223.966 11.0389C224.692 12.3402 225.054 13.8656 225.054 15.6149C225.054 15.7429 225.044 15.8922 225.022 16.0629C225.022 16.2336 225.012 16.3936 224.99 16.5429H210.558V14.3349H223.39L222.142 15.1029C222.164 14.0149 221.94 13.0442 221.47 12.1909C221.001 11.3376 220.35 10.6762 219.518 10.2069C218.708 9.71624 217.758 9.47091 216.67 9.47091C215.604 9.47091 214.654 9.71624 213.822 10.2069C212.99 10.6762 212.34 11.3482 211.87 12.2229C211.401 13.0762 211.166 14.0576 211.166 15.1669V15.6789C211.166 16.8096 211.422 17.8229 211.934 18.7189C212.468 19.5936 213.204 20.2762 214.142 20.7669C215.081 21.2576 216.158 21.5029 217.374 21.5029C218.377 21.5029 219.284 21.3322 220.094 20.9909C220.926 20.6496 221.652 20.1376 222.27 19.4549L223.966 21.4389C223.198 22.3349 222.238 23.0176 221.086 23.4869C219.956 23.9562 218.686 24.1909 217.278 24.1909Z" fill="white"/>
<path d="M196.687 24.1909C195.279 24.1909 193.989 23.8709 192.815 23.2309C191.663 22.5696 190.735 21.5989 190.031 20.3189C189.349 19.0389 189.007 17.4389 189.007 15.5189C189.007 13.5989 189.338 11.9989 189.999 10.7189C190.682 9.43891 191.599 8.4789 192.751 7.83891C193.925 7.1989 195.237 6.87891 196.687 6.87891C198.351 6.87891 199.823 7.24158 201.103 7.96691C202.383 8.69225 203.397 9.70557 204.143 11.0069C204.89 12.2869 205.263 13.7909 205.263 15.5189C205.263 17.2469 204.89 18.7616 204.143 20.0629C203.397 21.3642 202.383 22.3776 201.103 23.1029C199.823 23.8282 198.351 24.1909 196.687 24.1909ZM187.695 30.2069V7.03891H190.639V11.6149L190.447 15.5509L190.767 19.4869V30.2069H187.695ZM196.431 21.5029C197.519 21.5029 198.49 21.2576 199.343 20.7669C200.218 20.2762 200.901 19.5829 201.391 18.6869C201.903 17.7696 202.159 16.7136 202.159 15.5189C202.159 14.3029 201.903 13.2576 201.391 12.3829C200.901 11.4869 200.218 10.7936 199.343 10.3029C198.49 9.81224 197.519 9.56691 196.431 9.56691C195.365 9.56691 194.394 9.81224 193.519 10.3029C192.666 10.7936 191.983 11.4869 191.471 12.3829C190.981 13.2576 190.735 14.3029 190.735 15.5189C190.735 16.7136 190.981 17.7696 191.471 18.6869C191.983 19.5829 192.666 20.2762 193.519 20.7669C194.394 21.2576 195.365 21.5029 196.431 21.5029Z" fill="white"/>
<path d="M166.039 23.9991V7.03906H181.751V23.9991H178.679V8.95906L179.415 9.72706H168.375L169.111 8.95906V23.9991H166.039Z" fill="white"/>
<path d="M145.023 23.9991V8.92706L145.791 9.72706H138.815V7.03906H154.303V9.72706H147.359L148.095 8.92706V23.9991H145.023Z" fill="white"/>
<path d="M119.445 24V7.04002H122.517V19.392L132.917 7.04002H135.701V24H132.629V11.648L122.261 24H119.445ZM127.381 4.83202C125.824 4.83202 124.597 4.45868 123.701 3.71201C122.827 2.94401 122.379 1.84535 122.357 0.416016H124.437C124.459 1.22668 124.725 1.86668 125.237 2.33601C125.771 2.80535 126.475 3.04002 127.349 3.04002C128.224 3.04002 128.928 2.80535 129.461 2.33601C129.995 1.86668 130.272 1.22668 130.293 0.416016H132.437C132.416 1.84535 131.957 2.94401 131.061 3.71201C130.165 4.45868 128.939 4.83202 127.381 4.83202Z" fill="white"/>
<path d="M111.001 23.9989V20.4149L110.841 19.7429V13.6309C110.841 12.3296 110.457 11.3269 109.689 10.6229C108.942 9.89758 107.812 9.5349 106.297 9.5349C105.294 9.5349 104.313 9.70557 103.353 10.0469C102.393 10.3669 101.582 10.8042 100.921 11.3589L99.6411 9.05491C100.516 8.35091 101.561 7.81758 102.777 7.45491C104.014 7.07091 105.305 6.87891 106.649 6.87891C108.974 6.87891 110.766 7.44424 112.025 8.57491C113.284 9.70557 113.913 11.4336 113.913 13.7589V23.9989H111.001ZM105.433 24.1909C104.174 24.1909 103.065 23.9776 102.105 23.5509C101.166 23.1242 100.441 22.5376 99.9291 21.7909C99.4171 21.0229 99.1611 20.1589 99.1611 19.1989C99.1611 18.2816 99.3745 17.4496 99.8011 16.7029C100.249 15.9562 100.964 15.3589 101.945 14.9109C102.948 14.4629 104.292 14.2389 105.977 14.2389H111.353V16.4469H106.105C104.569 16.4469 103.534 16.7029 103.001 17.2149C102.468 17.7269 102.201 18.3456 102.201 19.0709C102.201 19.9029 102.532 20.5749 103.193 21.0869C103.854 21.5776 104.772 21.8229 105.945 21.8229C107.097 21.8229 108.1 21.5669 108.953 21.0549C109.828 20.5429 110.457 19.7962 110.841 18.8149L111.449 20.9269C111.044 21.9296 110.329 22.7296 109.305 23.3269C108.281 23.9029 106.99 24.1909 105.433 24.1909Z" fill="white"/>
<path d="M89.712 24.1909C87.984 24.1909 86.4373 23.8176 85.072 23.0709C83.728 22.3242 82.672 21.3002 81.904 19.9989C81.136 18.6976 80.752 17.2042 80.752 15.5189C80.752 13.8336 81.136 12.3402 81.904 11.0389C82.672 9.73758 83.728 8.72424 85.072 7.99891C86.4373 7.25224 87.984 6.87891 89.712 6.87891C91.248 6.87891 92.6133 7.18824 93.808 7.80691C95.024 8.40424 95.9626 9.30024 96.624 10.4949L94.288 11.9989C93.7333 11.1669 93.0506 10.5589 92.24 10.1749C91.4506 9.76958 90.5973 9.56691 89.68 9.56691C88.5706 9.56691 87.5786 9.81224 86.704 10.3029C85.8293 10.7936 85.136 11.4869 84.624 12.3829C84.112 13.2576 83.856 14.3029 83.856 15.5189C83.856 16.7349 84.112 17.7909 84.624 18.6869C85.136 19.5829 85.8293 20.2762 86.704 20.7669C87.5786 21.2576 88.5706 21.5029 89.68 21.5029C90.5973 21.5029 91.4506 21.3109 92.24 20.9269C93.0506 20.5216 93.7333 19.9029 94.288 19.0709L96.624 20.5429C95.9626 21.7162 95.024 22.6229 93.808 23.2629C92.6133 23.8816 91.248 24.1909 89.712 24.1909Z" fill="white"/>
<path d="M54.8656 21.3111L54.1616 22.1111V7.03906H57.2336V22.1111L56.4656 21.3111H65.4256L64.6896 22.1111V7.03906H67.7616V23.9991H43.6016V7.03906H46.6736V22.1111L45.9376 21.3111H54.8656Z" fill="white"/>
<path d="M35.1574 23.9989V20.4149L34.9974 19.7429V13.6309C34.9974 12.3296 34.6134 11.3269 33.8454 10.6229C33.0987 9.89758 31.9681 9.5349 30.4534 9.5349C29.4507 9.5349 28.4694 9.70557 27.5094 10.0469C26.5494 10.3669 25.7387 10.8042 25.0774 11.3589L23.7974 9.05491C24.6721 8.35091 25.7174 7.81758 26.9334 7.45491C28.1707 7.07091 29.4614 6.87891 30.8054 6.87891C33.1307 6.87891 34.9227 7.44424 36.1814 8.57491C37.4401 9.70557 38.0694 11.4336 38.0694 13.7589V23.9989H35.1574ZM29.5894 24.1909C28.3307 24.1909 27.2214 23.9776 26.2614 23.5509C25.3227 23.1242 24.5974 22.5376 24.0854 21.7909C23.5734 21.0229 23.3174 20.1589 23.3174 19.1989C23.3174 18.2816 23.5307 17.4496 23.9574 16.7029C24.4054 15.9562 25.12 15.3589 26.1014 14.9109C27.1041 14.4629 28.4481 14.2389 30.1334 14.2389H35.5094V16.4469H30.2614C28.7254 16.4469 27.6907 16.7029 27.1574 17.2149C26.624 17.7269 26.3574 18.3456 26.3574 19.0709C26.3574 19.9029 26.6881 20.5749 27.3494 21.0869C28.0107 21.5776 28.928 21.8229 30.1014 21.8229C31.2534 21.8229 32.256 21.5669 33.1094 21.0549C33.984 20.5429 34.6134 19.7962 34.9974 18.8149L35.6054 20.9269C35.2001 21.9296 34.4854 22.7296 33.4614 23.3269C32.4374 23.9029 31.1467 24.1909 29.5894 24.1909Z" fill="white"/>
<path d="M2.97656 23.9991V7.03906H6.04856V14.2391H15.7126V7.03906H18.7846V23.9991H15.7126V16.8951H6.04856V23.9991H2.97656Z" fill="white"/>
</svg>
