<svg width="343" height="25" viewBox="0 0 343 25" fill="none" xmlns="http://www.w3.org/2000/svg">
<path d="M333.598 19.25C332.232 19.25 330.973 19.025 329.823 18.575C328.673 18.125 327.673 17.5 326.823 16.7C325.973 15.8833 325.315 14.9333 324.848 13.85C324.382 12.75 324.148 11.55 324.148 10.25C324.148 8.95 324.382 7.75833 324.848 6.675C325.315 5.575 325.973 4.625 326.823 3.825C327.673 3.00833 328.673 2.375 329.823 1.925C330.973 1.475 332.223 1.25 333.573 1.25C334.94 1.25 336.19 1.475 337.323 1.925C338.473 2.375 339.473 3.00833 340.323 3.825C341.173 4.625 341.832 5.575 342.298 6.675C342.765 7.75833 342.998 8.95 342.998 10.25C342.998 11.55 342.765 12.75 342.298 13.85C341.832 14.95 341.173 15.9 340.323 16.7C339.473 17.5 338.473 18.125 337.323 18.575C336.19 19.025 334.948 19.25 333.598 19.25ZM333.573 16.4C334.457 16.4 335.273 16.25 336.023 15.95C336.773 15.65 337.423 15.225 337.973 14.675C338.523 14.1083 338.948 13.4583 339.248 12.725C339.565 11.975 339.723 11.15 339.723 10.25C339.723 9.35 339.565 8.53333 339.248 7.8C338.948 7.05 338.523 6.4 337.973 5.85C337.423 5.28333 336.773 4.85 336.023 4.55C335.273 4.25 334.457 4.1 333.573 4.1C332.69 4.1 331.873 4.25 331.123 4.55C330.39 4.85 329.74 5.28333 329.173 5.85C328.623 6.4 328.19 7.05 327.873 7.8C327.573 8.53333 327.423 9.35 327.423 10.25C327.423 11.1333 327.573 11.95 327.873 12.7C328.19 13.45 328.623 14.1083 329.173 14.675C329.723 15.225 330.373 15.65 331.123 15.95C331.873 16.25 332.69 16.4 333.573 16.4Z" fill="#163C51"/>
<path d="M304.059 19L311.934 1.5H315.134L323.034 19H319.634L312.859 3.225H314.159L307.409 19H304.059ZM307.684 14.95L308.559 12.4H318.009L318.884 14.95H307.684Z" fill="#163C51"/>
<path d="M278.893 19V1.5H282.093V8.675H286.618V11.575H282.093V19H278.893ZM293.843 19.25C292.543 19.25 291.343 19.025 290.243 18.575C289.143 18.125 288.184 17.5 287.368 16.7C286.551 15.9 285.909 14.95 285.443 13.85C284.993 12.75 284.768 11.55 284.768 10.25C284.768 8.95 284.993 7.75 285.443 6.65C285.909 5.55 286.551 4.6 287.368 3.8C288.184 3 289.143 2.375 290.243 1.925C291.343 1.475 292.543 1.25 293.843 1.25C295.126 1.25 296.318 1.475 297.418 1.925C298.534 2.375 299.501 3 300.318 3.8C301.134 4.6 301.768 5.55 302.218 6.65C302.668 7.75 302.893 8.95 302.893 10.25C302.893 11.55 302.668 12.75 302.218 13.85C301.768 14.95 301.134 15.9 300.318 16.7C299.501 17.5 298.534 18.125 297.418 18.575C296.318 19.025 295.126 19.25 293.843 19.25ZM293.843 16.4C294.659 16.4 295.418 16.25 296.118 15.95C296.834 15.65 297.451 15.225 297.968 14.675C298.484 14.125 298.884 13.4833 299.168 12.75C299.468 12 299.618 11.1667 299.618 10.25C299.618 9.33333 299.468 8.50833 299.168 7.775C298.884 7.025 298.484 6.375 297.968 5.825C297.451 5.275 296.834 4.85 296.118 4.55C295.418 4.25 294.659 4.1 293.843 4.1C293.026 4.1 292.268 4.25 291.568 4.55C290.868 4.85 290.251 5.275 289.718 5.825C289.201 6.375 288.793 7.025 288.493 7.775C288.209 8.50833 288.068 9.33333 288.068 10.25C288.068 11.1667 288.209 12 288.493 12.75C288.793 13.4833 289.201 14.125 289.718 14.675C290.251 15.225 290.868 15.65 291.568 15.95C292.268 16.25 293.026 16.4 293.843 16.4Z" fill="#163C51"/>
<path d="M258.038 24.0254C257.388 24.0254 256.738 23.9171 256.088 23.7004C255.438 23.4837 254.896 23.1837 254.463 22.8004L255.713 20.5004C256.03 20.7837 256.388 21.0087 256.788 21.1754C257.188 21.3421 257.596 21.4254 258.013 21.4254C258.58 21.4254 259.038 21.2837 259.388 21.0004C259.738 20.7171 260.063 20.2421 260.363 19.5754L261.138 17.8254L261.388 17.4504L266.438 5.65039H269.438L263.188 20.0754C262.771 21.0754 262.305 21.8671 261.788 22.4504C261.288 23.0337 260.721 23.4421 260.088 23.6754C259.471 23.9087 258.788 24.0254 258.038 24.0254ZM260.788 19.4754L254.763 5.65039H258.013L262.913 17.1754L260.788 19.4754Z" fill="#163C51"/>
<path d="M239.676 19.0004V5.65039H242.801V11.0754H249.526V5.65039H252.651V19.0004H249.526V13.7254H242.801V19.0004H239.676Z" fill="#163C51"/>
<path d="M229.463 19.175C228.097 19.175 226.88 18.8833 225.813 18.3C224.747 17.7 223.905 16.8833 223.288 15.85C222.672 14.8167 222.363 13.6417 222.363 12.325C222.363 10.9917 222.672 9.81667 223.288 8.8C223.905 7.76667 224.747 6.95833 225.813 6.375C226.88 5.79167 228.097 5.5 229.463 5.5C230.847 5.5 232.072 5.79167 233.138 6.375C234.222 6.95833 235.063 7.75833 235.663 8.775C236.28 9.79167 236.588 10.975 236.588 12.325C236.588 13.6417 236.28 14.8167 235.663 15.85C235.063 16.8833 234.222 17.7 233.138 18.3C232.072 18.8833 230.847 19.175 229.463 19.175ZM229.463 16.5C230.23 16.5 230.913 16.3333 231.513 16C232.113 15.6667 232.58 15.1833 232.913 14.55C233.263 13.9167 233.438 13.175 233.438 12.325C233.438 11.4583 233.263 10.7167 232.913 10.1C232.58 9.46666 232.113 8.98333 231.513 8.65C230.913 8.31667 230.238 8.15 229.488 8.15C228.722 8.15 228.038 8.31667 227.438 8.65C226.855 8.98333 226.388 9.46666 226.038 10.1C225.688 10.7167 225.513 11.4583 225.513 12.325C225.513 13.175 225.688 13.9167 226.038 14.55C226.388 15.1833 226.855 15.6667 227.438 16C228.038 16.3333 228.713 16.5 229.463 16.5Z" fill="#163C51"/>
<path d="M205.959 19.0004V5.65039H209.084V14.4504L216.459 5.65039H219.309V19.0004H216.184V10.2004L208.834 19.0004H205.959ZM212.434 4.07539C211.101 4.07539 210.076 3.76706 209.359 3.15039C208.642 2.51706 208.276 1.60039 208.259 0.400391H210.334C210.351 1.00039 210.534 1.47539 210.884 1.82539C211.251 2.17539 211.759 2.35039 212.409 2.35039C213.042 2.35039 213.542 2.17539 213.909 1.82539C214.292 1.47539 214.492 1.00039 214.509 0.400391H216.634C216.617 1.60039 216.242 2.51706 215.509 3.15039C214.792 3.76706 213.767 4.07539 212.434 4.07539Z" fill="#163C51"/>
<path d="M199.142 19V16.3L198.967 15.725V11C198.967 10.0833 198.692 9.375 198.142 8.875C197.592 8.35833 196.758 8.1 195.642 8.1C194.892 8.1 194.15 8.21667 193.417 8.45C192.7 8.68333 192.092 9.00833 191.592 9.425L190.367 7.15C191.083 6.6 191.933 6.19167 192.917 5.925C193.917 5.64167 194.95 5.5 196.017 5.5C197.95 5.5 199.442 5.96667 200.492 6.9C201.558 7.81667 202.092 9.24167 202.092 11.175V19H199.142ZM194.942 19.175C193.942 19.175 193.067 19.0083 192.317 18.675C191.567 18.325 190.983 17.85 190.567 17.25C190.167 16.6333 189.967 15.9417 189.967 15.175C189.967 14.425 190.142 13.75 190.492 13.15C190.858 12.55 191.45 12.075 192.267 11.725C193.083 11.375 194.167 11.2 195.517 11.2H199.392V13.275H195.742C194.675 13.275 193.958 13.45 193.592 13.8C193.225 14.1333 193.042 14.55 193.042 15.05C193.042 15.6167 193.267 16.0667 193.717 16.4C194.167 16.7333 194.792 16.9 195.592 16.9C196.358 16.9 197.042 16.725 197.642 16.375C198.258 16.025 198.7 15.5083 198.967 14.825L199.492 16.7C199.192 17.4833 198.65 18.0917 197.867 18.525C197.1 18.9583 196.125 19.175 194.942 19.175Z" fill="#163C51"/>
<path d="M181.328 19.175C180.244 19.175 179.253 18.925 178.353 18.425C177.469 17.925 176.761 17.175 176.228 16.175C175.711 15.1583 175.453 13.875 175.453 12.325C175.453 10.7583 175.703 9.475 176.203 8.475C176.719 7.475 177.419 6.73333 178.303 6.25C179.186 5.75 180.194 5.5 181.328 5.5C182.644 5.5 183.803 5.78333 184.803 6.35C185.819 6.91667 186.619 7.70833 187.203 8.725C187.803 9.74167 188.103 10.9417 188.103 12.325C188.103 13.7083 187.803 14.9167 187.203 15.95C186.619 16.9667 185.819 17.7583 184.803 18.325C183.803 18.8917 182.644 19.175 181.328 19.175ZM173.928 23.85V5.65H176.903V8.8L176.803 12.35L177.053 15.9V23.85H173.928ZM180.978 16.5C181.728 16.5 182.394 16.3333 182.978 16C183.578 15.6667 184.053 15.1833 184.403 14.55C184.753 13.9167 184.928 13.175 184.928 12.325C184.928 11.4583 184.753 10.7167 184.403 10.1C184.053 9.46666 183.578 8.98333 182.978 8.65C182.394 8.31667 181.728 8.15 180.978 8.15C180.228 8.15 179.553 8.31667 178.953 8.65C178.353 8.98333 177.878 9.46666 177.528 10.1C177.178 10.7167 177.003 11.4583 177.003 12.325C177.003 13.175 177.178 13.9167 177.528 14.55C177.878 15.1833 178.353 15.6667 178.953 16C179.553 16.3333 180.228 16.5 180.978 16.5Z" fill="#163C51"/>
<path d="M156.807 19.175C155.44 19.175 154.224 18.8833 153.157 18.3C152.09 17.7 151.249 16.8833 150.632 15.85C150.015 14.8167 149.707 13.6417 149.707 12.325C149.707 10.9917 150.015 9.81667 150.632 8.8C151.249 7.76667 152.09 6.95833 153.157 6.375C154.224 5.79167 155.44 5.5 156.807 5.5C158.19 5.5 159.415 5.79167 160.482 6.375C161.565 6.95833 162.407 7.75833 163.007 8.775C163.624 9.79167 163.932 10.975 163.932 12.325C163.932 13.6417 163.624 14.8167 163.007 15.85C162.407 16.8833 161.565 17.7 160.482 18.3C159.415 18.8833 158.19 19.175 156.807 19.175ZM156.807 16.5C157.574 16.5 158.257 16.3333 158.857 16C159.457 15.6667 159.924 15.1833 160.257 14.55C160.607 13.9167 160.782 13.175 160.782 12.325C160.782 11.4583 160.607 10.7167 160.257 10.1C159.924 9.46666 159.457 8.98333 158.857 8.65C158.257 8.31667 157.582 8.15 156.832 8.15C156.065 8.15 155.382 8.31667 154.782 8.65C154.199 8.98333 153.732 9.46666 153.382 10.1C153.032 10.7167 152.857 11.4583 152.857 12.325C152.857 13.175 153.032 13.9167 153.382 14.55C153.732 15.1833 154.199 15.6667 154.782 16C155.382 16.3333 156.057 16.5 156.807 16.5Z" fill="#163C51"/>
<path d="M133.84 19.0004V5.65039H146.64V19.0004H143.54V7.57539L144.265 8.30039H136.24L136.965 7.57539V19.0004H133.84Z" fill="#163C51"/>
<path d="M120.114 19V16.3L119.939 15.725V11C119.939 10.0833 119.664 9.375 119.114 8.875C118.564 8.35833 117.731 8.1 116.614 8.1C115.864 8.1 115.123 8.21667 114.389 8.45C113.673 8.68333 113.064 9.00833 112.564 9.425L111.339 7.15C112.056 6.6 112.906 6.19167 113.889 5.925C114.889 5.64167 115.923 5.5 116.989 5.5C118.923 5.5 120.414 5.96667 121.464 6.9C122.531 7.81667 123.064 9.24167 123.064 11.175V19H120.114ZM115.914 19.175C114.914 19.175 114.039 19.0083 113.289 18.675C112.539 18.325 111.956 17.85 111.539 17.25C111.139 16.6333 110.939 15.9417 110.939 15.175C110.939 14.425 111.114 13.75 111.464 13.15C111.831 12.55 112.423 12.075 113.239 11.725C114.056 11.375 115.139 11.2 116.489 11.2H120.364V13.275H116.714C115.648 13.275 114.931 13.45 114.564 13.8C114.198 14.1333 114.014 14.55 114.014 15.05C114.014 15.6167 114.239 16.0667 114.689 16.4C115.139 16.7333 115.764 16.9 116.564 16.9C117.331 16.9 118.014 16.725 118.614 16.375C119.231 16.025 119.673 15.5083 119.939 14.825L120.464 16.7C120.164 17.4833 119.623 18.0917 118.839 18.525C118.073 18.9583 117.098 19.175 115.914 19.175Z" fill="#163C51"/>
<path d="M106.38 19.0004L101.555 12.6004L104.105 11.0254L110.055 19.0004H106.38ZM96.8047 19.0004V5.65039H99.9297V19.0004H96.8047ZM99.0047 13.6504V11.0504H103.53V13.6504H99.0047ZM104.405 12.7004L101.48 12.3504L106.38 5.65039H109.73L104.405 12.7004Z" fill="#163C51"/>
<path d="M78.5449 18.9754L78.6949 16.3504C78.8116 16.3671 78.9199 16.3837 79.0199 16.4004C79.1199 16.4171 79.2116 16.4254 79.2949 16.4254C79.8116 16.4254 80.2116 16.2671 80.4949 15.9504C80.7783 15.6337 80.9866 15.2087 81.1199 14.6754C81.2699 14.1254 81.3699 13.5171 81.4199 12.8504C81.4866 12.1671 81.5366 11.4837 81.5699 10.8004L81.7949 5.65039H92.5949V19.0004H89.4699V7.45039L90.1949 8.30039H83.8449L84.5199 7.42539L84.3449 10.9504C84.2949 12.1337 84.1949 13.2337 84.0449 14.2504C83.9116 15.2504 83.6949 16.1254 83.3949 16.8754C83.1116 17.6254 82.7116 18.2087 82.1949 18.6254C81.6949 19.0421 81.0533 19.2504 80.2699 19.2504C80.0199 19.2504 79.7449 19.2254 79.4449 19.1754C79.1616 19.1254 78.8616 19.0587 78.5449 18.9754Z" fill="#163C51"/>
<path d="M67.7313 24.0254C67.0813 24.0254 66.4313 23.9171 65.7812 23.7004C65.1312 23.4837 64.5896 23.1837 64.1562 22.8004L65.4062 20.5004C65.7229 20.7837 66.0813 21.0087 66.4813 21.1754C66.8813 21.3421 67.2896 21.4254 67.7063 21.4254C68.2729 21.4254 68.7313 21.2837 69.0813 21.0004C69.4313 20.7171 69.7563 20.2421 70.0563 19.5754L70.8313 17.8254L71.0813 17.4504L76.1312 5.65039H79.1312L72.8812 20.0754C72.4646 21.0754 71.9979 21.8671 71.4813 22.4504C70.9813 23.0337 70.4146 23.4421 69.7812 23.6754C69.1646 23.9087 68.4813 24.0254 67.7313 24.0254ZM70.4813 19.4754L64.4563 5.65039H67.7063L72.6063 17.1754L70.4813 19.4754Z" fill="#163C51"/>
<path d="M53.9805 19.0004V5.65039H64.2305V8.30039H56.3805L57.1055 7.60039V19.0004H53.9805Z" fill="#163C51"/>
<path d="M43.7699 19.175C42.4033 19.175 41.1866 18.8833 40.1199 18.3C39.0533 17.7 38.2116 16.8833 37.5949 15.85C36.9783 14.8167 36.6699 13.6417 36.6699 12.325C36.6699 10.9917 36.9783 9.81667 37.5949 8.8C38.2116 7.76667 39.0533 6.95833 40.1199 6.375C41.1866 5.79167 42.4033 5.5 43.7699 5.5C45.1533 5.5 46.3783 5.79167 47.4449 6.375C48.5283 6.95833 49.3699 7.75833 49.9699 8.775C50.5866 9.79167 50.8949 10.975 50.8949 12.325C50.8949 13.6417 50.5866 14.8167 49.9699 15.85C49.3699 16.8833 48.5283 17.7 47.4449 18.3C46.3783 18.8833 45.1533 19.175 43.7699 19.175ZM43.7699 16.5C44.5366 16.5 45.2199 16.3333 45.8199 16C46.4199 15.6667 46.8866 15.1833 47.2199 14.55C47.5699 13.9167 47.7449 13.175 47.7449 12.325C47.7449 11.4583 47.5699 10.7167 47.2199 10.1C46.8866 9.46666 46.4199 8.98333 45.8199 8.65C45.2199 8.31667 44.5449 8.15 43.7949 8.15C43.0283 8.15 42.3449 8.31667 41.7449 8.65C41.1616 8.98333 40.6949 9.46666 40.3449 10.1C39.9949 10.7167 39.8199 11.4583 39.8199 12.325C39.8199 13.175 39.9949 13.9167 40.3449 14.55C40.6949 15.1833 41.1616 15.6667 41.7449 16C42.3449 16.3333 43.0199 16.5 43.7699 16.5Z" fill="#163C51"/>
<path d="M27.9352 19.175C26.8518 19.175 25.8602 18.925 24.9602 18.425C24.0768 17.925 23.3685 17.175 22.8352 16.175C22.3185 15.1583 22.0602 13.875 22.0602 12.325C22.0602 10.7583 22.3102 9.475 22.8102 8.475C23.3268 7.475 24.0268 6.73333 24.9102 6.25C25.7935 5.75 26.8018 5.5 27.9352 5.5C29.2518 5.5 30.4102 5.78333 31.4102 6.35C32.4268 6.91667 33.2268 7.70833 33.8102 8.725C34.4102 9.74167 34.7102 10.9417 34.7102 12.325C34.7102 13.7083 34.4102 14.9167 33.8102 15.95C33.2268 16.9667 32.4268 17.7583 31.4102 18.325C30.4102 18.8917 29.2518 19.175 27.9352 19.175ZM20.5352 23.85V5.65H23.5102V8.8L23.4102 12.35L23.6602 15.9V23.85H20.5352ZM27.5852 16.5C28.3352 16.5 29.0018 16.3333 29.5852 16C30.1852 15.6667 30.6602 15.1833 31.0102 14.55C31.3602 13.9167 31.5352 13.175 31.5352 12.325C31.5352 11.4583 31.3602 10.7167 31.0102 10.1C30.6602 9.46666 30.1852 8.98333 29.5852 8.65C29.0018 8.31667 28.3352 8.15 27.5852 8.15C26.8352 8.15 26.1602 8.31667 25.5602 8.65C24.9602 8.98333 24.4852 9.46666 24.1352 10.1C23.7852 10.7167 23.6102 11.4583 23.6102 12.325C23.6102 13.175 23.7852 13.9167 24.1352 14.55C24.4852 15.1833 24.9602 15.6667 25.5602 16C26.1602 16.3333 26.8352 16.5 27.5852 16.5Z" fill="#163C51"/>
<path d="M0.474609 19V1.5H15.9496V19H12.7496V3.45L13.4996 4.25H2.92461L3.67461 3.45V19H0.474609Z" fill="#163C51"/>
</svg>
