<svg width="454" height="144" viewBox="0 0 454 144" fill="none" xmlns="http://www.w3.org/2000/svg">
<path d="M406.506 134.92L417.466 117.16C415.173 115.613 413.333 113.613 411.946 111.16C410.559 108.707 409.679 106.173 409.306 103.56C408.986 100.893 409.173 98.2267 409.866 95.56C410.559 92.84 411.679 90.4133 413.226 88.28C414.826 86.1467 417.013 84.4133 419.786 83.08C422.613 81.6933 425.786 81 429.306 81H453.866V137H439.546V120.52H432.106L422.506 137H406.506V134.92ZM429.306 107.64H439.546V93.8C438.799 93.8 437.733 93.8 436.346 93.8C434.959 93.8 433.679 93.8 432.506 93.8C431.386 93.8 430.319 93.8 429.306 93.8C427.759 93.8 426.453 94.28 425.386 95.24C424.373 96.2 423.759 97.3733 423.546 98.76C423.333 100.093 423.359 101.453 423.626 102.84C423.893 104.173 424.533 105.32 425.546 106.28C426.559 107.187 427.813 107.64 429.306 107.64Z" fill="#F85F37"/>
<path d="M370.799 81V97.72H381.119C383.999 97.72 386.639 98.1733 389.039 99.08C391.439 99.9867 393.412 101.187 394.958 102.68C396.558 104.173 397.892 105.907 398.958 107.88C400.078 109.853 400.745 111.933 400.958 114.12C401.225 116.253 401.225 118.413 400.958 120.6C400.745 122.733 400.078 124.787 398.958 126.76C397.892 128.733 396.558 130.493 394.958 132.04C393.412 133.533 391.439 134.733 389.039 135.64C386.639 136.547 383.999 137 381.119 137H356.479V81H370.799ZM381.039 110.6H370.799V124.2C371.492 124.2 372.532 124.2 373.919 124.2C375.359 124.2 376.639 124.2 377.759 124.2C378.932 124.2 380.025 124.2 381.039 124.2C382.639 124.2 383.945 123.72 384.958 122.76C386.025 121.8 386.665 120.68 386.879 119.4C387.092 118.067 387.065 116.733 386.799 115.4C386.532 114.067 385.865 112.947 384.799 112.04C383.785 111.08 382.532 110.6 381.039 110.6Z" fill="#F85F37"/>
<path d="M319.306 95.079H306.586C306.373 90.1723 307.946 86.439 311.306 83.879C314.719 81.2657 319.039 79.959 324.266 79.959C330.079 79.959 334.586 81.559 337.786 84.759C341.039 87.959 342.666 91.7723 342.666 96.199C342.666 98.119 342.239 100.039 341.386 101.959C340.533 103.879 339.333 105.426 337.786 106.599C343.173 109.479 345.866 114.092 345.866 120.439C345.866 125.612 343.999 129.852 340.266 133.159C336.533 136.412 331.199 138.039 324.266 138.039C318.133 138.039 313.333 136.386 309.866 133.079C306.399 129.719 304.666 124.946 304.666 118.759H317.226C317.226 120.946 317.866 122.706 319.146 124.039C320.479 125.319 322.186 125.959 324.266 125.959C326.506 125.959 328.266 125.292 329.546 123.959C330.879 122.626 331.546 121.186 331.546 119.639C331.546 118.039 330.879 116.572 329.546 115.239C328.266 113.906 326.506 113.239 324.266 113.239H320.346V101.559H324.106C326.293 101.559 327.839 100.759 328.746 99.159C329.653 97.5057 329.653 95.879 328.746 94.279C327.893 92.6257 326.399 91.799 324.266 91.799C320.959 91.799 319.306 92.8923 319.306 95.079Z" fill="#F85F37"/>
<path d="M258.903 137V135.48L267.703 117.4L248.823 83.16V81H264.823L275.383 101.64H275.783L285.383 81H300.903V83.16L274.343 137H258.903Z" fill="#F85F37"/>
<path d="M214.236 137H199.916V81H224.556C227.436 81 230.076 81.48 232.476 82.44C234.876 83.4 236.849 84.68 238.396 86.28C239.996 87.88 241.329 89.7467 242.396 91.88C243.516 93.96 244.183 96.1467 244.396 98.44C244.663 100.733 244.663 103.027 244.396 105.32C244.183 107.613 243.516 109.8 242.396 111.88C241.329 113.96 239.996 115.8 238.396 117.4C236.849 119 234.876 120.28 232.476 121.24C230.076 122.2 227.436 122.68 224.556 122.68H214.236V137ZM224.476 109.8C225.969 109.8 227.223 109.267 228.236 108.2C229.303 107.08 229.969 105.747 230.236 104.2C230.503 102.6 230.529 101.027 230.316 99.48C230.103 97.9333 229.463 96.6 228.396 95.48C227.383 94.36 226.076 93.8 224.476 93.8C223.463 93.8 222.369 93.8 221.196 93.8C220.076 93.8 218.796 93.8 217.356 93.8C215.969 93.8 214.929 93.8 214.236 93.8V109.8H224.476Z" fill="#F85F37"/>
<path d="M147.844 137.159V143.319H136.004V124.599H141.684L160.884 80.2793H167.044L186.884 124.599H192.724V143.319H180.964V137.159H147.844ZM163.924 104.199L156.164 124.439H172.004L163.924 104.199Z" fill="#F85F37"/>
<path d="M438.981 29.4798L410.741 57.0798H405.621V0.999763H420.261V28.4398L448.581 0.759766H453.781V56.9998H438.981V29.4798Z" fill="#F85F37"/>
<path d="M392.296 16.4391C393.949 20.1724 394.776 24.3857 394.776 29.0791C394.776 33.7724 393.949 38.0124 392.296 41.7991C390.643 45.5857 388.456 48.6524 385.736 50.9991C383.069 53.2924 380.003 55.0791 376.536 56.3591C373.123 57.5857 369.629 58.1991 366.056 58.1991C362.483 58.1991 358.963 57.5857 355.496 56.3591C352.083 55.0791 349.016 53.2924 346.296 50.9991C343.629 48.6524 341.469 45.5857 339.816 41.7991C338.163 38.0124 337.336 33.7724 337.336 29.0791C337.336 24.3857 338.163 20.1724 339.816 16.4391C341.469 12.6524 343.629 9.6124 346.296 7.31906C349.016 4.97239 352.083 3.18573 355.496 1.95906C358.963 0.679062 362.483 0.0390625 366.056 0.0390625C369.629 0.0390625 373.123 0.679062 376.536 1.95906C380.003 3.18573 383.069 4.97239 385.736 7.31906C388.456 9.6124 390.643 12.6524 392.296 16.4391ZM352.056 29.0791C352.056 32.3324 352.749 35.1591 354.136 37.5591C355.523 39.9057 357.256 41.6124 359.336 42.6791C361.416 43.7457 363.656 44.2791 366.056 44.2791C368.509 44.2791 370.776 43.7457 372.856 42.6791C374.936 41.6124 376.669 39.9057 378.056 37.5591C379.443 35.1591 380.136 32.3324 380.136 29.0791C380.136 25.8791 379.443 23.1057 378.056 20.7591C376.669 18.3591 374.936 16.6524 372.856 15.6391C370.776 14.5724 368.509 14.0391 366.056 14.0391C363.656 14.0391 361.416 14.5724 359.336 15.6391C357.256 16.6524 355.523 18.3591 354.136 20.7591C352.749 23.1057 352.056 25.8791 352.056 29.0791Z" fill="#F85F37"/>
<path d="M327.292 18.2C327.292 19.9067 326.892 21.6667 326.092 23.48C325.292 25.2933 324.225 26.76 322.892 27.88C327.372 30.1733 329.612 33.9867 329.612 39.32C329.558 44.44 328.012 48.68 324.972 52.04C321.932 55.3467 317.665 57 312.172 57H285.932V1H309.852C314.705 1 318.812 2.68 322.172 6.04C325.585 9.34667 327.292 13.4 327.292 18.2ZM311.132 34.76H299.772V44.28H311.212C313.025 44.28 314.278 43.5067 314.972 41.96C315.718 40.36 315.718 38.76 314.972 37.16C314.225 35.56 312.945 34.76 311.132 34.76ZM308.732 13.8H299.772V22.84H308.812C310.625 22.84 311.878 22.0933 312.572 20.6C313.318 19.0533 313.318 17.5333 312.572 16.04C311.825 14.5467 310.545 13.8 308.732 13.8Z" fill="#F85F37"/>
<path d="M249.25 13.8H235.49V1H277.09V13.8H263.41V57H249.25V13.8Z" fill="#F85F37"/>
<path d="M189.84 29.4798L161.6 57.0798H156.48V0.999763H171.12V28.4398L199.44 0.759766H204.64V56.9998H189.84V29.4798Z" fill="#F85F37"/>
<path d="M50.541 1H64.861V17.72H75.181C78.061 17.72 80.701 18.1733 83.101 19.08C85.501 19.9867 87.4744 21.1867 89.021 22.68C90.621 24.1733 91.9544 25.9067 93.021 27.88C94.141 29.8533 94.8077 31.9333 95.021 34.12C95.2877 36.2533 95.2877 38.4133 95.021 40.6C94.8077 42.7333 94.141 44.7867 93.021 46.76C91.9544 48.7333 90.621 50.4933 89.021 52.04C87.4744 53.5333 85.501 54.7333 83.101 55.64C80.701 56.5467 78.061 57 75.181 57H50.541V1ZM75.101 30.6H64.861V44.2C65.5544 44.2 66.5944 44.2 67.981 44.2C69.421 44.2 70.701 44.2 71.821 44.2C72.9943 44.2 74.0877 44.2 75.101 44.2C76.701 44.2 78.0077 43.72 79.021 42.76C80.0877 41.8 80.7277 40.68 80.941 39.4C81.1543 38.0667 81.1277 36.7333 80.861 35.4C80.5944 34.0667 79.9277 32.9467 78.861 32.04C77.8477 31.08 76.5943 30.6 75.101 30.6ZM105.821 57V1H120.141V57H105.821Z" fill="#F85F37"/>
<path d="M13.8596 13.8H0.0996094V1H41.6996V13.8H28.0196V57H13.8596V13.8Z" fill="#F85F37"/>
</svg>
