<svg width="565" height="40" viewBox="0 0 565 40" fill="none" xmlns="http://www.w3.org/2000/svg">
<path d="M553.259 21.6409V19.4409C553.259 18.8543 553.286 18.3609 553.339 17.9609C553.419 17.5343 553.539 17.1609 553.699 16.8409C553.886 16.4943 554.113 16.1743 554.379 15.8809C554.673 15.5609 555.019 15.1876 555.419 14.7609L558.499 11.6409C559.166 10.9743 559.499 10.1076 559.499 9.04094C559.499 8.00094 559.153 7.16094 558.459 6.52094C557.793 5.85427 556.939 5.52094 555.899 5.52094C554.779 5.52094 553.859 5.9076 553.139 6.68094C552.419 7.42761 552.006 8.34761 551.899 9.44094L546.779 9.04094C546.939 7.76094 547.273 6.6276 547.779 5.64094C548.286 4.6276 548.939 3.77427 549.739 3.08094C550.566 2.3876 551.513 1.8676 552.579 1.52094C553.646 1.1476 554.819 0.960938 556.099 0.960938C557.299 0.960938 558.406 1.13427 559.419 1.48094C560.459 1.8276 561.353 2.33427 562.099 3.00094C562.873 3.64094 563.473 4.45427 563.899 5.44094C564.326 6.40094 564.539 7.5076 564.539 8.76094C564.539 9.64094 564.419 10.4143 564.179 11.0809C563.939 11.7476 563.619 12.3609 563.219 12.9209C562.819 13.4809 562.353 14.0143 561.819 14.5209C561.313 15.0276 560.766 15.5609 560.179 16.1209C559.806 16.4676 559.486 16.7743 559.219 17.0409C558.953 17.3076 558.726 17.5876 558.539 17.8809C558.379 18.1476 558.259 18.4676 558.179 18.8409C558.099 19.1876 558.059 19.6143 558.059 20.1209V21.6409H553.259ZM552.459 27.2009C552.459 26.3476 552.766 25.6143 553.379 25.0009C554.019 24.3876 554.779 24.0809 555.659 24.0809C556.513 24.0809 557.259 24.3743 557.899 24.9609C558.539 25.5476 558.859 26.2676 558.859 27.1209C558.859 27.9743 558.539 28.7076 557.899 29.3209C557.286 29.9343 556.539 30.2409 555.659 30.2409C555.233 30.2409 554.819 30.1609 554.419 30.0009C554.046 29.8409 553.713 29.6276 553.419 29.3609C553.126 29.0943 552.886 28.7743 552.699 28.4009C552.539 28.0276 552.459 27.6276 552.459 27.2009Z" fill="#163C51"/>
<path d="M538.342 18.32C538.288 16.9867 537.862 15.8667 537.062 14.96C536.262 14.0533 535.075 13.6 533.502 13.6C532.755 13.6 532.062 13.7333 531.422 14C530.808 14.24 530.262 14.5867 529.782 15.04C529.328 15.4667 528.955 15.9733 528.662 16.56C528.395 17.12 528.235 17.7067 528.182 18.32H538.342ZM543.062 20.2C543.062 20.4133 543.062 20.6533 543.062 20.92C543.062 21.16 543.048 21.4 543.022 21.64H528.142C528.168 22.36 528.342 23.0267 528.662 23.64C528.982 24.2267 529.395 24.7467 529.902 25.2C530.408 25.6533 530.982 26.0133 531.622 26.28C532.288 26.52 532.995 26.64 533.742 26.64C534.942 26.64 535.968 26.3867 536.822 25.88C537.675 25.3733 538.328 24.7733 538.782 24.08L542.342 26.44C541.328 27.8267 540.088 28.8667 538.622 29.56C537.182 30.2267 535.542 30.56 533.702 30.56C532.235 30.56 530.862 30.32 529.582 29.84C528.328 29.36 527.222 28.68 526.262 27.8C525.328 26.92 524.595 25.8533 524.062 24.6C523.528 23.32 523.262 21.8933 523.262 20.32C523.262 18.7733 523.515 17.3733 524.022 16.12C524.555 14.84 525.275 13.7467 526.182 12.84C527.115 11.9333 528.208 11.24 529.462 10.76C530.715 10.2533 532.062 10 533.502 10C534.968 10 536.288 10.2533 537.462 10.76C538.662 11.24 539.675 11.9333 540.502 12.84C541.328 13.72 541.955 14.7867 542.382 16.04C542.835 17.2933 543.062 18.68 543.062 20.2Z" fill="#163C51"/>
<path d="M513.441 17.0025L503.601 30.0025H498.561V10.5625H503.601V23.2825L513.441 10.5625H518.521V30.0025H513.441V17.0025Z" fill="#163C51"/>
<path d="M477.843 10.5625H495.003V14.5225H488.843V30.0025H483.803V14.5225H477.843V10.5625Z" fill="#163C51"/>
<path d="M473.725 16.12C473.325 15.56 472.752 15.1067 472.005 14.76C471.285 14.3867 470.525 14.2 469.725 14.2C468.872 14.2 468.098 14.36 467.405 14.68C466.712 15 466.112 15.44 465.605 16C465.125 16.5333 464.751 17.1733 464.485 17.92C464.218 18.6667 464.085 19.4533 464.085 20.28C464.085 21.1333 464.218 21.9333 464.485 22.68C464.751 23.4 465.125 24.0267 465.605 24.56C466.112 25.0933 466.712 25.52 467.405 25.84C468.098 26.16 468.885 26.32 469.765 26.32C470.618 26.32 471.405 26.16 472.125 25.84C472.872 25.52 473.472 25.0667 473.925 24.48L476.925 27.76C476.098 28.6133 475.058 29.2933 473.805 29.8C472.552 30.3067 471.165 30.56 469.645 30.56C468.098 30.56 466.672 30.32 465.365 29.84C464.058 29.3333 462.925 28.64 461.965 27.76C461.032 26.8533 460.298 25.7733 459.765 24.52C459.232 23.24 458.965 21.8267 458.965 20.28C458.965 18.7333 459.232 17.3333 459.765 16.08C460.298 14.8267 461.032 13.7467 461.965 12.84C462.925 11.9333 464.058 11.24 465.365 10.76C466.672 10.2533 468.098 10 469.645 10C470.312 10 470.992 10.0667 471.685 10.2C472.378 10.3333 473.032 10.52 473.645 10.76C474.285 11 474.872 11.3067 475.405 11.68C475.965 12.0267 476.445 12.4267 476.845 12.88L473.725 16.12Z" fill="#163C51"/>
<path d="M449.655 17.48C449.655 16.2267 449.282 15.3067 448.535 14.72C447.789 14.1333 446.775 13.84 445.495 13.84C444.482 13.84 443.522 14.04 442.615 14.44C441.709 14.8133 440.935 15.3067 440.295 15.92L437.695 13.08C438.709 12.12 439.935 11.3733 441.375 10.84C442.842 10.28 444.375 10 445.975 10C448.562 10 450.549 10.6133 451.935 11.84C453.349 13.04 454.149 14.9333 454.335 17.52C454.362 17.8933 454.375 18.2667 454.375 18.64C454.375 19.0133 454.375 19.4133 454.375 19.84V25.92C454.375 26.6133 454.389 27.32 454.415 28.04C454.442 28.7333 454.482 29.3867 454.535 30H449.935C449.909 29.6 449.882 29.2 449.855 28.8C449.829 28.3733 449.815 27.9467 449.815 27.52H449.735C449.095 28.5067 448.242 29.2533 447.175 29.76C446.135 30.24 444.949 30.48 443.615 30.48C442.842 30.48 442.042 30.3733 441.215 30.16C440.415 29.9467 439.682 29.6133 439.015 29.16C438.349 28.68 437.789 28.0667 437.335 27.32C436.909 26.5467 436.695 25.6 436.695 24.48C436.695 23.04 437.069 21.8933 437.815 21.04C438.589 20.16 439.589 19.4933 440.815 19.04C442.069 18.5867 443.455 18.2933 444.975 18.16C446.522 18 448.082 17.92 449.655 17.92V17.48ZM448.935 21.04C448.055 21.04 447.162 21.08 446.255 21.16C445.375 21.2133 444.575 21.36 443.855 21.6C443.135 21.8133 442.549 22.1333 442.095 22.56C441.642 22.9867 441.415 23.56 441.415 24.28C441.415 24.7867 441.522 25.2133 441.735 25.56C441.949 25.88 442.215 26.1467 442.535 26.36C442.882 26.5733 443.255 26.7333 443.655 26.84C444.082 26.92 444.495 26.96 444.895 26.96C446.469 26.96 447.669 26.4933 448.495 25.56C449.349 24.6267 449.775 23.44 449.775 22V21.04H448.935Z" fill="#163C51"/>
<path d="M414.042 10.5625H419.042V13.2425C419.042 14.4158 419.082 15.4292 419.162 16.2825C419.242 17.1092 419.415 17.7892 419.682 18.3225C419.975 18.8558 420.402 19.2558 420.962 19.5225C421.549 19.7625 422.349 19.8825 423.362 19.8825H427.082V10.5625H432.122V30.0025H427.082V24.3225L422.762 24.2825C421.029 24.2825 419.589 24.0825 418.442 23.6825C417.322 23.2825 416.429 22.7092 415.762 21.9625C415.122 21.2158 414.669 20.2958 414.402 19.2025C414.162 18.1092 414.042 16.8692 414.042 15.4825V10.5625Z" fill="#163C51"/>
<path d="M401.876 24.5625H401.956L406.676 10.5625H412.036L403.396 32.5625C402.996 33.6292 402.57 34.5892 402.116 35.4425C401.663 36.3225 401.13 37.0692 400.516 37.6825C399.903 38.2958 399.183 38.7625 398.356 39.0825C397.53 39.4292 396.516 39.6025 395.316 39.6025C394.783 39.6025 394.236 39.5625 393.676 39.4825C393.143 39.4292 392.65 39.3492 392.196 39.2425L392.756 34.9225C393.05 35.0292 393.383 35.1092 393.756 35.1625C394.13 35.2425 394.476 35.2825 394.796 35.2825C395.783 35.2825 396.516 35.0292 396.996 34.5225C397.476 34.0158 397.903 33.2958 398.276 32.3625L399.276 29.8025L391.076 10.5625H396.636L401.876 24.5625Z" fill="#163C51"/>
<path d="M365.123 10.5625V16.7625H369.643C371.083 16.7625 372.31 16.9358 373.323 17.2825C374.336 17.6025 375.163 18.0692 375.803 18.6825C376.443 19.2692 376.896 19.9625 377.163 20.7625C377.456 21.5625 377.603 22.4158 377.603 23.3225C377.603 24.2558 377.43 25.1358 377.083 25.9625C376.763 26.7625 376.27 27.4692 375.603 28.0825C374.963 28.6692 374.15 29.1358 373.163 29.4825C372.203 29.8292 371.083 30.0025 369.803 30.0025H360.123V10.5625H365.123ZM365.123 26.3625H368.723C369.87 26.3625 370.803 26.1625 371.523 25.7625C372.27 25.3358 372.643 24.5358 372.643 23.3625C372.643 22.2158 372.256 21.4425 371.483 21.0425C370.736 20.6158 369.79 20.4025 368.643 20.4025H365.123V26.3625Z" fill="#163C51"/>
<path d="M339.405 10.5625H356.565V14.5225H350.405V30.0025H345.365V14.5225H339.405V10.5625Z" fill="#163C51"/>
<path d="M329.398 23.2025C328.625 23.2025 327.932 23.3092 327.318 23.5225C326.732 23.7358 326.212 24.1092 325.758 24.6425C325.305 25.1492 324.918 25.8425 324.598 26.7225C324.305 27.6025 324.078 28.6958 323.918 30.0025H318.358C318.545 28.7225 318.825 27.5892 319.198 26.6025C319.598 25.6158 320.052 24.7625 320.558 24.0425C321.092 23.3225 321.665 22.7358 322.278 22.2825C322.918 21.8292 323.558 21.5092 324.198 21.3225V21.2025C323.532 21.1225 322.905 20.9758 322.318 20.7625C321.758 20.5492 321.265 20.2425 320.838 19.8425C320.438 19.4158 320.118 18.8958 319.878 18.2825C319.638 17.6425 319.518 16.8692 319.518 15.9625C319.518 14.9225 319.732 14.0558 320.158 13.3625C320.612 12.6692 321.198 12.1225 321.918 11.7225C322.638 11.2958 323.465 11.0025 324.398 10.8425C325.358 10.6558 326.345 10.5625 327.358 10.5625H336.518V30.0025H331.478V23.2025H329.398ZM324.438 17.0425C324.438 17.9758 324.785 18.5758 325.478 18.8425C326.172 19.0825 327.198 19.2025 328.558 19.2025H331.478V14.8025H328.518C327.078 14.8025 326.038 14.9358 325.398 15.2025C324.758 15.4692 324.438 16.0825 324.438 17.0425Z" fill="#163C51"/>
<path d="M301.178 30.0025H296.178V10.5625H301.178V18.0025H309.458V10.5625H314.498V30.0025H309.458V21.9225H301.178V30.0025Z" fill="#163C51"/>
<path d="M285.276 17.0025L275.436 30.0025H270.396V10.5625H275.436V23.2825L285.276 10.5625H290.356V30.0025H285.276V17.0025Z" fill="#163C51"/>
<path d="M249.539 39.5991H244.499V10.5591H249.339V13.3191H249.459C250.152 12.3591 251.072 11.5724 252.219 10.9591C253.366 10.3457 254.659 10.0391 256.099 10.0391C257.539 10.0391 258.846 10.3191 260.019 10.8791C261.192 11.4124 262.192 12.1457 263.019 13.0791C263.846 13.9857 264.486 15.0657 264.939 16.3191C265.392 17.5457 265.619 18.8524 265.619 20.2391C265.619 21.6257 265.392 22.9457 264.939 24.1991C264.512 25.4257 263.886 26.5191 263.059 27.4791C262.259 28.4124 261.259 29.1591 260.059 29.7191C258.886 30.2524 257.552 30.5191 256.059 30.5191C254.806 30.5191 253.592 30.2524 252.419 29.7191C251.246 29.1857 250.312 28.4124 249.619 27.3991H249.539V39.5991ZM260.659 20.2391C260.659 19.4391 260.539 18.6791 260.299 17.9591C260.059 17.2124 259.699 16.5591 259.219 15.9991C258.739 15.4391 258.139 14.9991 257.419 14.6791C256.726 14.3324 255.926 14.1591 255.019 14.1591C254.166 14.1591 253.379 14.3324 252.659 14.6791C251.966 14.9991 251.366 15.4391 250.859 15.9991C250.352 16.5591 249.952 17.2124 249.659 17.9591C249.392 18.6791 249.259 19.4391 249.259 20.2391C249.259 21.0657 249.392 21.8524 249.659 22.5991C249.952 23.3191 250.352 23.9591 250.859 24.5191C251.366 25.0791 251.966 25.5191 252.659 25.8391C253.379 26.1591 254.166 26.3191 255.019 26.3191C255.926 26.3191 256.726 26.1591 257.419 25.8391C258.139 25.4924 258.739 25.0391 259.219 24.4791C259.699 23.9191 260.059 23.2791 260.299 22.5591C260.539 21.8124 260.659 21.0391 260.659 20.2391Z" fill="#163C51"/>
<path d="M225.631 30.0025H220.631V10.5625H238.631V30.0025H233.591V14.5225H225.631V30.0025Z" fill="#163C51"/>
<path d="M188.077 10.5625H205.237V14.5225H199.077V30.0025H194.037V14.5225H188.077V10.5625Z" fill="#163C51"/>
<path d="M180.92 18.32C180.867 16.9867 180.44 15.8667 179.64 14.96C178.84 14.0533 177.653 13.6 176.08 13.6C175.333 13.6 174.64 13.7333 174 14C173.387 14.24 172.84 14.5867 172.36 15.04C171.907 15.4667 171.533 15.9733 171.24 16.56C170.973 17.12 170.813 17.7067 170.76 18.32H180.92ZM185.64 20.2C185.64 20.4133 185.64 20.6533 185.64 20.92C185.64 21.16 185.627 21.4 185.6 21.64H170.72C170.747 22.36 170.92 23.0267 171.24 23.64C171.56 24.2267 171.973 24.7467 172.48 25.2C172.987 25.6533 173.56 26.0133 174.2 26.28C174.867 26.52 175.573 26.64 176.32 26.64C177.52 26.64 178.547 26.3867 179.4 25.88C180.253 25.3733 180.907 24.7733 181.36 24.08L184.92 26.44C183.907 27.8267 182.667 28.8667 181.2 29.56C179.76 30.2267 178.12 30.56 176.28 30.56C174.813 30.56 173.44 30.32 172.16 29.84C170.907 29.36 169.8 28.68 168.84 27.8C167.907 26.92 167.173 25.8533 166.64 24.6C166.107 23.32 165.84 21.8933 165.84 20.32C165.84 18.7733 166.093 17.3733 166.6 16.12C167.133 14.84 167.853 13.7467 168.76 12.84C169.693 11.9333 170.787 11.24 172.04 10.76C173.293 10.2533 174.64 10 176.08 10C177.547 10 178.867 10.2533 180.04 10.76C181.24 11.24 182.253 11.9333 183.08 12.84C183.907 13.72 184.533 14.7867 184.96 16.04C185.413 17.2933 185.64 18.68 185.64 20.2Z" fill="#163C51"/>
<path d="M144.229 21.8025C143.242 21.8825 142.336 22.0825 141.509 22.4025C140.709 22.7225 139.976 23.2025 139.309 23.8425C138.669 24.4558 138.109 25.2692 137.629 26.2825C137.149 27.2958 136.749 28.5358 136.429 30.0025H130.869C131.482 27.5225 132.349 25.4425 133.469 23.7625C134.616 22.0825 136.096 20.7625 137.909 19.8025L131.629 10.5625H137.189L142.109 18.1225C142.429 18.0692 142.762 18.0292 143.109 18.0025C143.482 17.9492 143.856 17.8958 144.229 17.8425V10.5625H149.229V17.8425C149.602 17.8958 149.962 17.9492 150.309 18.0025C150.656 18.0292 150.989 18.0692 151.309 18.1225L156.269 10.5625H161.829L155.549 19.8025C157.336 20.7625 158.802 22.0825 159.949 23.7625C161.096 25.4425 161.976 27.5225 162.589 30.0025H157.029C156.709 28.5358 156.296 27.2958 155.789 26.2825C155.309 25.2692 154.736 24.4558 154.069 23.8425C153.429 23.2025 152.696 22.7225 151.869 22.4025C151.069 22.0825 150.189 21.8825 149.229 21.8025V30.0025H144.229V21.8025Z" fill="#163C51"/>
<path d="M127.628 20.24C127.628 21.7867 127.348 23.2 126.788 24.48C126.254 25.7333 125.508 26.8133 124.548 27.72C123.588 28.6267 122.454 29.3333 121.148 29.84C119.868 30.32 118.481 30.56 116.988 30.56C115.494 30.56 114.094 30.32 112.788 29.84C111.508 29.3333 110.388 28.6267 109.428 27.72C108.468 26.8133 107.708 25.7333 107.148 24.48C106.614 23.2 106.348 21.7867 106.348 20.24C106.348 18.6933 106.614 17.2933 107.148 16.04C107.708 14.7867 108.468 13.72 109.428 12.84C110.388 11.9333 111.508 11.24 112.788 10.76C114.094 10.2533 115.494 10 116.988 10C118.481 10 119.868 10.2533 121.148 10.76C122.454 11.24 123.588 11.9333 124.548 12.84C125.508 13.72 126.254 14.7867 126.788 16.04C127.348 17.2933 127.628 18.6933 127.628 20.24ZM122.668 20.24C122.668 19.44 122.534 18.68 122.268 17.96C122.028 17.2133 121.654 16.56 121.148 16C120.668 15.44 120.068 15 119.348 14.68C118.654 14.3333 117.868 14.16 116.988 14.16C116.081 14.16 115.281 14.3333 114.588 14.68C113.894 15 113.308 15.44 112.828 16C112.348 16.56 111.974 17.2133 111.708 17.96C111.468 18.68 111.348 19.44 111.348 20.24C111.348 21.04 111.468 21.8133 111.708 22.56C111.974 23.28 112.348 23.92 112.828 24.48C113.308 25.04 113.894 25.4933 114.588 25.84C115.308 26.16 116.108 26.32 116.988 26.32C117.894 26.32 118.694 26.16 119.388 25.84C120.108 25.4933 120.708 25.04 121.188 24.48C121.668 23.92 122.028 23.28 122.268 22.56C122.534 21.8133 122.668 21.04 122.668 20.24Z" fill="#163C51"/>
<path d="M82.8424 10.5625L90.0824 19.2425L97.2024 10.5625H101.602V30.0025H96.5624V17.6025L90.6024 25.4025H89.4824L83.4824 17.7225V30.0025H78.4824V10.5625H82.8424Z" fill="#163C51"/>
<path d="M61.8855 20.24C61.8855 21.7867 61.6055 23.2 61.0455 24.48C60.5121 25.7333 59.7655 26.8133 58.8055 27.72C57.8455 28.6267 56.7121 29.3333 55.4055 29.84C54.1255 30.32 52.7388 30.56 51.2455 30.56C49.7521 30.56 48.3521 30.32 47.0455 29.84C45.7655 29.3333 44.6455 28.6267 43.6855 27.72C42.7255 26.8133 41.9655 25.7333 41.4055 24.48C40.8721 23.2 40.6055 21.7867 40.6055 20.24C40.6055 18.6933 40.8721 17.2933 41.4055 16.04C41.9655 14.7867 42.7255 13.72 43.6855 12.84C44.6455 11.9333 45.7655 11.24 47.0455 10.76C48.3521 10.2533 49.7521 10 51.2455 10C52.7388 10 54.1255 10.2533 55.4055 10.76C56.7121 11.24 57.8455 11.9333 58.8055 12.84C59.7655 13.72 60.5121 14.7867 61.0455 16.04C61.6055 17.2933 61.8855 18.6933 61.8855 20.24ZM56.9255 20.24C56.9255 19.44 56.7921 18.68 56.5255 17.96C56.2855 17.2133 55.9121 16.56 55.4055 16C54.9255 15.44 54.3255 15 53.6055 14.68C52.9121 14.3333 52.1255 14.16 51.2455 14.16C50.3388 14.16 49.5388 14.3333 48.8455 14.68C48.1521 15 47.5655 15.44 47.0855 16C46.6055 16.56 46.2321 17.2133 45.9655 17.96C45.7255 18.68 45.6055 19.44 45.6055 20.24C45.6055 21.04 45.7255 21.8133 45.9655 22.56C46.2321 23.28 46.6055 23.92 47.0855 24.48C47.5655 25.04 48.1521 25.4933 48.8455 25.84C49.5655 26.16 50.3655 26.32 51.2455 26.32C52.1521 26.32 52.9521 26.16 53.6455 25.84C54.3655 25.4933 54.9655 25.04 55.4455 24.48C55.9255 23.92 56.2855 23.28 56.5255 22.56C56.7921 21.8133 56.9255 21.04 56.9255 20.24Z" fill="#163C51"/>
<path d="M20.9678 10.5625H38.1278V14.5225H31.9678V30.0025H26.9278V14.5225H20.9678V10.5625Z" fill="#163C51"/>
<path d="M5.31836 17.9625C6.14503 18.0158 6.89169 18.0958 7.55836 18.2025L12.9984 10.5625H18.5584L11.8784 19.7225C13.7717 20.6825 15.2517 22.0158 16.3184 23.7225C17.4117 25.4292 18.2784 27.5225 18.9184 30.0025H13.3584C13.0384 28.5092 12.6384 27.2692 12.1584 26.2825C11.705 25.2692 11.145 24.4558 10.4784 23.8425C9.81169 23.2292 9.05169 22.7758 8.19836 22.4825C7.34503 22.1892 6.38503 22.0025 5.31836 21.9225V30.0025H0.318359V10.5625H5.31836V17.9625Z" fill="#163C51"/>
</svg>
