<svg width="331" height="70" viewBox="0 0 331 70" fill="none" xmlns="http://www.w3.org/2000/svg">
<path d="M320.882 61.7791H318.242L322.472 56.0491L318.242 50.2891H320.882L325.202 56.0491L320.882 61.7791ZM326.642 61.7791H324.002L328.232 56.0491L324.002 50.2891H326.642L330.962 56.0491L326.642 61.7791Z" fill="#163C51"/>
<path d="M307.604 64.1792C306.004 64.1792 304.584 63.8292 303.344 63.1292C302.104 62.4292 301.124 61.4692 300.404 60.2492C299.684 59.0092 299.324 57.6092 299.324 56.0492C299.324 54.4692 299.684 53.0692 300.404 51.8492C301.124 50.6292 302.104 49.6792 303.344 48.9992C304.584 48.2992 306.004 47.9492 307.604 47.9492C309.184 47.9492 310.594 48.2992 311.834 48.9992C313.094 49.6792 314.074 50.6292 314.774 51.8492C315.494 53.0492 315.854 54.4492 315.854 56.0492C315.854 57.6292 315.494 59.0292 314.774 60.2492C314.074 61.4692 313.094 62.4292 311.834 63.1292C310.594 63.8292 309.184 64.1792 307.604 64.1792ZM307.604 61.6592C308.624 61.6592 309.534 61.4292 310.334 60.9692C311.154 60.5092 311.794 59.8592 312.254 59.0192C312.714 58.1592 312.944 57.1692 312.944 56.0492C312.944 54.9092 312.714 53.9292 312.254 53.1092C311.794 52.2692 311.154 51.6192 310.334 51.1592C309.534 50.6992 308.624 50.4692 307.604 50.4692C306.584 50.4692 305.674 50.6992 304.874 51.1592C304.074 51.6192 303.434 52.2692 302.954 53.1092C302.474 53.9292 302.234 54.9092 302.234 56.0492C302.234 57.1692 302.474 58.1592 302.954 59.0192C303.434 59.8592 304.074 60.5092 304.874 60.9692C305.674 61.4292 306.584 61.6592 307.604 61.6592Z" fill="#163C51"/>
<path d="M280.374 63.9996V48.0996H283.254V54.8496H292.314V48.0996H295.194V63.9996H292.314V57.3396H283.254V63.9996H280.374Z" fill="#163C51"/>
<path d="M271.312 62.6496V50.6196H264.412L264.262 53.6796C264.222 54.6796 264.152 55.6496 264.052 56.5896C263.972 57.5096 263.832 58.3596 263.632 59.1396C263.452 59.9196 263.182 60.5596 262.822 61.0596C262.462 61.5596 261.982 61.8696 261.382 61.9896L258.532 61.4796C259.152 61.4996 259.652 61.2996 260.032 60.8796C260.412 60.4396 260.702 59.8396 260.902 59.0796C261.122 58.3196 261.282 57.4596 261.382 56.4996C261.482 55.5196 261.562 54.5096 261.622 53.4696L261.862 48.0996H274.192V62.6496H271.312ZM257.902 67.6896V61.4796H276.622V67.6896H273.922V63.9996H260.632V67.6896H257.902Z" fill="#163C51"/>
<path d="M248.958 64.1792C247.258 64.1792 245.758 63.8292 244.458 63.1292C243.178 62.4292 242.178 61.4692 241.458 60.2492C240.758 59.0292 240.408 57.6292 240.408 56.0492C240.408 54.4692 240.748 53.0692 241.428 51.8492C242.128 50.6292 243.078 49.6792 244.278 48.9992C245.498 48.2992 246.868 47.9492 248.388 47.9492C249.928 47.9492 251.288 48.2892 252.468 48.9692C253.648 49.6492 254.568 50.6092 255.228 51.8492C255.908 53.0692 256.248 54.4992 256.248 56.1392C256.248 56.2592 256.238 56.3992 256.218 56.5592C256.218 56.7192 256.208 56.8692 256.188 57.0092H242.658V54.9392H254.688L253.518 55.6592C253.538 54.6392 253.328 53.7292 252.888 52.9292C252.448 52.1292 251.838 51.5092 251.058 51.0692C250.298 50.6092 249.408 50.3792 248.388 50.3792C247.388 50.3792 246.498 50.6092 245.718 51.0692C244.938 51.5092 244.328 52.1392 243.888 52.9592C243.448 53.7592 243.228 54.6792 243.228 55.7192V56.1992C243.228 57.2592 243.468 58.2092 243.948 59.0492C244.448 59.8692 245.138 60.5092 246.018 60.9692C246.898 61.4292 247.908 61.6592 249.048 61.6592C249.988 61.6592 250.838 61.4992 251.598 61.1792C252.378 60.8592 253.058 60.3792 253.638 59.7392L255.228 61.5992C254.508 62.4392 253.608 63.0792 252.528 63.5192C251.468 63.9592 250.278 64.1792 248.958 64.1792Z" fill="#163C51"/>
<path d="M229.654 64.1792C228.334 64.1792 227.124 63.8792 226.024 63.2792C224.944 62.6592 224.074 61.7492 223.414 60.5492C222.774 59.3492 222.454 57.8492 222.454 56.0492C222.454 54.2492 222.764 52.7492 223.384 51.5492C224.024 50.3492 224.884 49.4492 225.964 48.8492C227.064 48.2492 228.294 47.9492 229.654 47.9492C231.214 47.9492 232.594 48.2892 233.794 48.9692C234.994 49.6492 235.944 50.5992 236.644 51.8192C237.344 53.0192 237.694 54.4292 237.694 56.0492C237.694 57.6692 237.344 59.0892 236.644 60.3092C235.944 61.5292 234.994 62.4792 233.794 63.1592C232.594 63.8392 231.214 64.1792 229.654 64.1792ZM221.224 69.8192V48.0992H223.984V52.3892L223.804 56.0792L224.104 59.7692V69.8192H221.224ZM229.414 61.6592C230.434 61.6592 231.344 61.4292 232.144 60.9692C232.964 60.5092 233.604 59.8592 234.064 59.0192C234.544 58.1592 234.784 57.1692 234.784 56.0492C234.784 54.9092 234.544 53.9292 234.064 53.1092C233.604 52.2692 232.964 51.6192 232.144 51.1592C231.344 50.6992 230.434 50.4692 229.414 50.4692C228.414 50.4692 227.504 50.6992 226.684 51.1592C225.884 51.6192 225.244 52.2692 224.764 53.1092C224.304 53.9292 224.074 54.9092 224.074 56.0492C224.074 57.1692 224.304 58.1592 224.764 59.0192C225.244 59.8592 225.884 60.5092 226.684 60.9692C227.504 61.4292 228.414 61.6592 229.414 61.6592Z" fill="#163C51"/>
<path d="M202.796 63.9996V48.0996H210.176C212.036 48.0996 213.496 48.4596 214.556 49.1796C215.636 49.8796 216.176 50.8796 216.176 52.1796C216.176 53.4796 215.666 54.4896 214.646 55.2096C213.646 55.9096 212.316 56.2596 210.656 56.2596L211.106 55.4796C213.006 55.4796 214.416 55.8296 215.336 56.5296C216.256 57.2296 216.716 58.2596 216.716 59.6196C216.716 60.9996 216.196 62.0796 215.156 62.8596C214.136 63.6196 212.566 63.9996 210.446 63.9996H202.796ZM205.616 61.7796H210.236C211.436 61.7796 212.336 61.5996 212.936 61.2396C213.536 60.8596 213.836 60.2596 213.836 59.4396C213.836 58.5996 213.556 57.9896 212.996 57.6096C212.456 57.2096 211.596 57.0096 210.416 57.0096H205.616V61.7796ZM205.616 54.9396H209.936C211.036 54.9396 211.866 54.7396 212.426 54.3396C213.006 53.9196 213.296 53.3396 213.296 52.5996C213.296 51.8396 213.006 51.2696 212.426 50.8896C211.866 50.5096 211.036 50.3196 209.936 50.3196H205.616V54.9396Z" fill="#163C51"/>
<path d="M182.982 64.1792C181.282 64.1792 179.782 63.8292 178.482 63.1292C177.202 62.4292 176.202 61.4692 175.482 60.2492C174.782 59.0292 174.432 57.6292 174.432 56.0492C174.432 54.4692 174.772 53.0692 175.452 51.8492C176.152 50.6292 177.102 49.6792 178.302 48.9992C179.522 48.2992 180.892 47.9492 182.412 47.9492C183.952 47.9492 185.312 48.2892 186.492 48.9692C187.672 49.6492 188.592 50.6092 189.252 51.8492C189.932 53.0692 190.272 54.4992 190.272 56.1392C190.272 56.2592 190.262 56.3992 190.242 56.5592C190.242 56.7192 190.232 56.8692 190.212 57.0092H176.682V54.9392H188.712L187.542 55.6592C187.562 54.6392 187.352 53.7292 186.912 52.9292C186.472 52.1292 185.862 51.5092 185.082 51.0692C184.322 50.6092 183.432 50.3792 182.412 50.3792C181.412 50.3792 180.522 50.6092 179.742 51.0692C178.962 51.5092 178.352 52.1392 177.912 52.9592C177.472 53.7592 177.252 54.6792 177.252 55.7192V56.1992C177.252 57.2592 177.492 58.2092 177.972 59.0492C178.472 59.8692 179.162 60.5092 180.042 60.9692C180.922 61.4292 181.932 61.6592 183.072 61.6592C184.012 61.6592 184.862 61.4992 185.622 61.1792C186.402 60.8592 187.082 60.3792 187.662 59.7392L189.252 61.5992C188.532 62.4392 187.632 63.0792 186.552 63.5192C185.492 63.9592 184.302 64.1792 182.982 64.1792Z" fill="#163C51"/>
<path d="M155.481 63.9996V48.0996H158.361V54.8496H167.421V48.0996H170.301V63.9996H167.421V57.3396H158.361V63.9996H155.481Z" fill="#163C51"/>
<path d="M137.519 53.4996C139.539 53.5196 141.079 53.9796 142.139 54.8796C143.199 55.7796 143.729 57.0496 143.729 58.6896C143.729 60.4096 143.149 61.7396 141.989 62.6796C140.829 63.5996 139.189 64.0496 137.069 64.0296L130.169 63.9996V48.0996H133.049V53.4696L137.519 53.4996ZM136.829 61.8396C138.129 61.8596 139.109 61.5996 139.769 61.0596C140.449 60.5196 140.789 59.7196 140.789 58.6596C140.789 57.6196 140.459 56.8596 139.799 56.3796C139.139 55.8996 138.149 55.6496 136.829 55.6296L133.049 55.5696V61.8096L136.829 61.8396Z" fill="#163C51"/>
<path d="M118.524 63.9996V49.8696L119.244 50.6196H112.704V48.0996H127.224V50.6196H120.714L121.404 49.8696V63.9996H118.524Z" fill="#163C51"/>
<path d="M107.457 63.9992V60.6392L107.307 60.0092V54.2792C107.307 53.0592 106.947 52.1192 106.227 51.4592C105.527 50.7792 104.467 50.4392 103.047 50.4392C102.107 50.4392 101.187 50.5992 100.287 50.9192C99.3874 51.2192 98.6274 51.6292 98.0074 52.1492L96.8074 49.9892C97.6274 49.3292 98.6074 48.8292 99.7474 48.4892C100.907 48.1292 102.117 47.9492 103.377 47.9492C105.557 47.9492 107.237 48.4792 108.417 49.5392C109.597 50.5992 110.187 52.2192 110.187 54.3992V63.9992H107.457ZM102.237 64.1792C101.057 64.1792 100.017 63.9792 99.1174 63.5792C98.2374 63.1792 97.5574 62.6292 97.0774 61.9292C96.5974 61.2092 96.3574 60.3992 96.3574 59.4992C96.3574 58.6392 96.5574 57.8592 96.9574 57.1592C97.3774 56.4592 98.0474 55.8992 98.9674 55.4792C99.9074 55.0592 101.167 54.8492 102.747 54.8492H107.787V56.9192H102.867C101.427 56.9192 100.457 57.1592 99.9574 57.6392C99.4574 58.1192 99.2074 58.6992 99.2074 59.3792C99.2074 60.1592 99.5174 60.7892 100.137 61.2692C100.757 61.7292 101.617 61.9592 102.717 61.9592C103.797 61.9592 104.737 61.7192 105.537 61.2392C106.357 60.7592 106.947 60.0592 107.307 59.1392L107.877 61.1192C107.497 62.0592 106.827 62.8092 105.867 63.3692C104.907 63.9092 103.697 64.1792 102.237 64.1792Z" fill="#163C51"/>
<path d="M86.0632 63.9996V49.8696L86.7832 50.6196H80.2432V48.0996H94.7632V50.6196H88.2532L88.9432 49.8696V63.9996H86.0632Z" fill="#163C51"/>
<path d="M74.6516 57.4896C73.8116 57.8896 72.9416 58.2096 72.0416 58.4496C71.1616 58.6696 70.2516 58.7796 69.3116 58.7796C67.3916 58.7796 65.8716 58.3296 64.7516 57.4296C63.6516 56.5296 63.1016 55.1396 63.1016 53.2596V48.0996H65.9816V53.0796C65.9816 54.2196 66.3316 55.0596 67.0316 55.5996C67.7516 56.1396 68.7116 56.4096 69.9116 56.4096C70.6716 56.4096 71.4516 56.3096 72.2516 56.1096C73.0716 55.9096 73.8716 55.6296 74.6516 55.2696V57.4896ZM74.4416 63.9996V48.0996H77.3216V63.9996H74.4416Z" fill="#163C51"/>
<path d="M52.8742 64.1792C51.1742 64.1792 49.6742 63.8292 48.3742 63.1292C47.0942 62.4292 46.0942 61.4692 45.3742 60.2492C44.6742 59.0292 44.3242 57.6292 44.3242 56.0492C44.3242 54.4692 44.6642 53.0692 45.3442 51.8492C46.0442 50.6292 46.9942 49.6792 48.1942 48.9992C49.4142 48.2992 50.7842 47.9492 52.3042 47.9492C53.8442 47.9492 55.2042 48.2892 56.3842 48.9692C57.5642 49.6492 58.4842 50.6092 59.1442 51.8492C59.8242 53.0692 60.1642 54.4992 60.1642 56.1392C60.1642 56.2592 60.1542 56.3992 60.1342 56.5592C60.1342 56.7192 60.1242 56.8692 60.1042 57.0092H46.5742V54.9392H58.6042L57.4342 55.6592C57.4542 54.6392 57.2442 53.7292 56.8042 52.9292C56.3642 52.1292 55.7542 51.5092 54.9742 51.0692C54.2142 50.6092 53.3242 50.3792 52.3042 50.3792C51.3042 50.3792 50.4142 50.6092 49.6342 51.0692C48.8542 51.5092 48.2442 52.1392 47.8042 52.9592C47.3642 53.7592 47.1442 54.6792 47.1442 55.7192V56.1992C47.1442 57.2592 47.3842 58.2092 47.8642 59.0492C48.3642 59.8692 49.0542 60.5092 49.9342 60.9692C50.8142 61.4292 51.8242 61.6592 52.9642 61.6592C53.9042 61.6592 54.7542 61.4992 55.5142 61.1792C56.2942 60.8592 56.9742 60.3792 57.5542 59.7392L59.1442 61.5992C58.4242 62.4392 57.5242 63.0792 56.4442 63.5192C55.3842 63.9592 54.1942 64.1792 52.8742 64.1792Z" fill="#163C51"/>
<path d="M17.3867 64V43H19.8467L29.2667 58.87H27.9467L37.2467 43H39.7067L39.7367 64H36.8567L36.8267 47.53H37.5167L29.2367 61.45H27.8567L19.5167 47.53H20.2667V64H17.3867Z" fill="#163C51"/>
<path d="M4.69988 61.7791L0.379883 56.0491L4.69988 50.2891H7.33988L3.10988 56.0491L7.33988 61.7791H4.69988ZM10.4599 61.7791L6.13988 56.0491L10.4599 50.2891H13.0999L8.86988 56.0491L13.0999 61.7791H10.4599Z" fill="#163C51"/>
<path d="M245.677 19.7791H243.037L247.267 14.0491L243.037 8.28906H245.677L249.997 14.0491L245.677 19.7791ZM251.437 19.7791H248.797L253.027 14.0491L248.797 8.28906H251.437L255.757 14.0491L251.437 19.7791Z" fill="#163C51"/>
<path d="M232.71 22.24C231.23 22.24 229.79 22.01 228.39 21.55C227.01 21.09 225.88 20.47 225 19.69L226.38 17.32C227.08 17.98 227.99 18.52 229.11 18.94C230.23 19.36 231.43 19.57 232.71 19.57C234.27 19.57 235.48 19.24 236.34 18.58C237.22 17.9 237.66 16.99 237.66 15.85C237.66 14.75 237.24 13.87 236.4 13.21C235.58 12.53 234.27 12.19 232.47 12.19H230.79V10.09L237.03 2.41L237.45 3.61H225.96V1H239.82V3.04L233.61 10.69L232.05 9.76H233.04C235.58 9.76 237.48 10.33 238.74 11.47C240.02 12.61 240.66 14.06 240.66 15.82C240.66 17 240.37 18.08 239.79 19.06C239.21 20.04 238.33 20.82 237.15 21.4C235.99 21.96 234.51 22.24 232.71 22.24Z" fill="#163C51"/>
<path d="M208.733 21.9998V19.9598L217.283 11.7098C218.043 10.9898 218.603 10.3598 218.963 9.81977C219.343 9.25977 219.593 8.74976 219.713 8.28976C219.853 7.80976 219.923 7.34976 219.923 6.90977C219.923 5.82976 219.543 4.97976 218.783 4.35977C218.023 3.73976 216.913 3.42976 215.453 3.42976C214.333 3.42976 213.323 3.61976 212.423 3.99976C211.523 4.35976 210.743 4.92976 210.083 5.70976L208.043 3.93976C208.843 2.91976 209.913 2.13976 211.253 1.59976C212.613 1.03976 214.103 0.759766 215.723 0.759766C217.183 0.759766 218.453 0.999765 219.533 1.47976C220.613 1.93976 221.443 2.60976 222.023 3.48976C222.623 4.36976 222.923 5.40977 222.923 6.60977C222.923 7.28976 222.833 7.95976 222.653 8.61976C222.473 9.27976 222.133 9.97976 221.633 10.7198C221.133 11.4598 220.413 12.2898 219.473 13.2098L211.853 20.5598L211.133 19.3898H223.823V21.9998H208.733Z" fill="#163C51"/>
<path d="M197.633 22.2398C195.993 22.2398 194.523 21.8198 193.223 20.9798C191.943 20.1398 190.923 18.9198 190.163 17.3198C189.423 15.7198 189.053 13.7798 189.053 11.4998C189.053 9.21977 189.423 7.27977 190.163 5.67976C190.923 4.07977 191.943 2.85976 193.223 2.01976C194.523 1.17976 195.993 0.759766 197.633 0.759766C199.253 0.759766 200.713 1.17976 202.013 2.01976C203.313 2.85976 204.333 4.07977 205.073 5.67976C205.813 7.27977 206.183 9.21977 206.183 11.4998C206.183 13.7798 205.813 15.7198 205.073 17.3198C204.333 18.9198 203.313 20.1398 202.013 20.9798C200.713 21.8198 199.253 22.2398 197.633 22.2398ZM197.633 19.5698C198.733 19.5698 199.693 19.2698 200.513 18.6698C201.353 18.0698 202.003 17.1698 202.463 15.9698C202.943 14.7698 203.183 13.2798 203.183 11.4998C203.183 9.71977 202.943 8.22976 202.463 7.02977C202.003 5.82977 201.353 4.92976 200.513 4.32976C199.693 3.72976 198.733 3.42976 197.633 3.42976C196.533 3.42976 195.563 3.72976 194.723 4.32976C193.883 4.92976 193.223 5.82977 192.743 7.02977C192.283 8.22976 192.053 9.71977 192.053 11.4998C192.053 13.2798 192.283 14.7698 192.743 15.9698C193.223 17.1698 193.883 18.0698 194.723 18.6698C195.563 19.2698 196.533 19.5698 197.633 19.5698Z" fill="#163C51"/>
<path d="M171.526 21.9998V19.9598L180.076 11.7098C180.836 10.9898 181.396 10.3598 181.756 9.81977C182.136 9.25977 182.386 8.74976 182.506 8.28976C182.646 7.80976 182.716 7.34976 182.716 6.90977C182.716 5.82976 182.336 4.97976 181.576 4.35977C180.816 3.73976 179.706 3.42976 178.246 3.42976C177.126 3.42976 176.116 3.61976 175.216 3.99976C174.316 4.35976 173.536 4.92976 172.876 5.70976L170.836 3.93976C171.636 2.91976 172.706 2.13976 174.046 1.59976C175.406 1.03976 176.896 0.759766 178.516 0.759766C179.976 0.759766 181.246 0.999765 182.326 1.47976C183.406 1.93976 184.236 2.60976 184.816 3.48976C185.416 4.36976 185.716 5.40977 185.716 6.60977C185.716 7.28976 185.626 7.95976 185.446 8.61976C185.266 9.27976 184.926 9.97976 184.426 10.7198C183.926 11.4598 183.206 12.2898 182.266 13.2098L174.646 20.5598L173.926 19.3898H186.616V21.9998H171.526Z" fill="#163C51"/>
<path d="M140.932 22V1H143.902V17.2L156.322 1H159.082V22H156.142V5.83L143.692 22H140.932Z" fill="#163C51"/>
<path d="M124.953 22.2398C123.353 22.2398 121.863 21.9698 120.483 21.4298C119.123 20.8898 117.943 20.1398 116.943 19.1798C115.943 18.1998 115.163 17.0598 114.603 15.7598C114.043 14.4598 113.763 13.0398 113.763 11.4998C113.763 9.95977 114.043 8.53977 114.603 7.23977C115.163 5.93976 115.943 4.80976 116.943 3.84976C117.943 2.86976 119.123 2.10976 120.483 1.56976C121.843 1.02977 123.333 0.759766 124.953 0.759766C126.553 0.759766 128.023 1.02977 129.363 1.56976C130.723 2.08976 131.903 2.83976 132.903 3.81977C133.923 4.77976 134.703 5.90976 135.243 7.20976C135.803 8.50976 136.083 9.93976 136.083 11.4998C136.083 13.0598 135.803 14.4898 135.243 15.7898C134.703 17.0898 133.923 18.2298 132.903 19.2098C131.903 20.1698 130.723 20.9198 129.363 21.4598C128.023 21.9798 126.553 22.2398 124.953 22.2398ZM124.953 19.5698C126.113 19.5698 127.183 19.3698 128.163 18.9698C129.163 18.5698 130.023 18.0098 130.743 17.2898C131.483 16.5498 132.053 15.6898 132.453 14.7098C132.873 13.7298 133.083 12.6598 133.083 11.4998C133.083 10.3398 132.873 9.26976 132.453 8.28976C132.053 7.30976 131.483 6.45976 130.743 5.73976C130.023 4.99976 129.163 4.42976 128.163 4.02976C127.183 3.62976 126.113 3.42976 124.953 3.42976C123.773 3.42976 122.683 3.62976 121.683 4.02976C120.703 4.42976 119.843 4.99976 119.103 5.73976C118.363 6.45976 117.783 7.30976 117.363 8.28976C116.963 9.26976 116.763 10.3398 116.763 11.4998C116.763 12.6598 116.963 13.7298 117.363 14.7098C117.783 15.6898 118.363 16.5498 119.103 17.2898C119.843 18.0098 120.703 18.5698 121.683 18.9698C122.683 19.3698 123.773 19.5698 124.953 19.5698Z" fill="#163C51"/>
<path d="M93.0898 22V1H102.12C104.4 1 106.19 1.46 107.49 2.38C108.79 3.3 109.44 4.64 109.44 6.4C109.44 8.12 108.82 9.44 107.58 10.36C106.34 11.26 104.71 11.71 102.69 11.71L103.23 10.81C105.57 10.81 107.36 11.28 108.6 12.22C109.86 13.14 110.49 14.49 110.49 16.27C110.49 18.07 109.83 19.48 108.51 20.5C107.21 21.5 105.27 22 102.69 22H93.0898ZM96.0598 19.63H102.63C104.23 19.63 105.43 19.34 106.23 18.76C107.05 18.16 107.46 17.25 107.46 16.03C107.46 14.81 107.05 13.92 106.23 13.36C105.43 12.8 104.23 12.52 102.63 12.52H96.0598V19.63ZM96.0598 10.24H101.91C103.37 10.24 104.48 9.95 105.24 9.37C106.02 8.79 106.41 7.94 106.41 6.82C106.41 5.68 106.02 4.82 105.24 4.24C104.48 3.66 103.37 3.37 101.91 3.37H96.0598V10.24Z" fill="#163C51"/>
<path d="M75.4838 1H78.4838V22H75.4838V1ZM63.4238 22H60.4238V1H63.4238V22ZM75.7538 12.64H63.1238V10.03H75.7538V12.64Z" fill="#163C51"/>
<path d="M38.0117 22V1H47.0417C49.3217 1 51.1117 1.46 52.4117 2.38C53.7117 3.3 54.3617 4.64 54.3617 6.4C54.3617 8.12 53.7417 9.44 52.5017 10.36C51.2617 11.26 49.6317 11.71 47.6117 11.71L48.1517 10.81C50.4917 10.81 52.2817 11.28 53.5217 12.22C54.7817 13.14 55.4117 14.49 55.4117 16.27C55.4117 18.07 54.7517 19.48 53.4317 20.5C52.1317 21.5 50.1917 22 47.6117 22H38.0117ZM40.9817 19.63H47.5517C49.1517 19.63 50.3517 19.34 51.1517 18.76C51.9717 18.16 52.3817 17.25 52.3817 16.03C52.3817 14.81 51.9717 13.92 51.1517 13.36C50.3517 12.8 49.1517 12.52 47.5517 12.52H40.9817V19.63ZM40.9817 10.24H46.8317C48.2917 10.24 49.4017 9.95 50.1617 9.37C50.9417 8.79 51.3317 7.94 51.3317 6.82C51.3317 5.68 50.9417 4.82 50.1617 4.24C49.4017 3.66 48.2917 3.37 46.8317 3.37H40.9817V10.24Z" fill="#163C51"/>
<path d="M31.5167 22L23.8967 11.65L26.3267 10.15L34.9367 22H31.5167ZM17.3867 22V1H20.3267V22H17.3867ZM19.4267 12.76V10.12H26.2367V12.76H19.4267ZM26.5967 11.83L23.8367 11.41L31.3667 1H34.5767L26.5967 11.83Z" fill="#163C51"/>
<path d="M4.69988 19.7791L0.379883 14.0491L4.69988 8.28906H7.33988L3.10988 14.0491L7.33988 19.7791H4.69988ZM10.4599 19.7791L6.13988 14.0491L10.4599 8.28906H13.0999L8.86988 14.0491L13.0999 19.7791H10.4599Z" fill="#163C51"/>
</svg>
