<svg width="431" height="41" viewBox="0 0 431 41" fill="none" xmlns="http://www.w3.org/2000/svg">
<path opacity="0.5" d="M426.612 31.9999V0.835938H430.644V31.9999H426.612Z" fill="#163C51"/>
<path opacity="0.5" d="M414.882 32.001V9.74103H418.914V32.001H414.882ZM416.898 5.45703C416.114 5.45703 415.456 5.20503 414.924 4.70103C414.42 4.19703 414.168 3.58103 414.168 2.85303C414.168 2.09703 414.42 1.46703 414.924 0.963032C415.456 0.459032 416.114 0.207031 416.898 0.207031C417.682 0.207031 418.326 0.459032 418.83 0.963032C419.362 1.43903 419.628 2.04103 419.628 2.76903C419.628 3.52503 419.376 4.16903 418.872 4.70103C418.368 5.20503 417.71 5.45703 416.898 5.45703Z" fill="#163C51"/>
<path opacity="0.5" d="M403.598 32.0013V27.2973L403.388 26.4153V18.3933C403.388 16.6853 402.884 15.3693 401.876 14.4453C400.896 13.4933 399.412 13.0173 397.424 13.0173C396.108 13.0173 394.82 13.2413 393.56 13.6893C392.3 14.1093 391.236 14.6833 390.368 15.4113L388.688 12.3873C389.836 11.4633 391.208 10.7633 392.804 10.2873C394.428 9.78325 396.122 9.53125 397.886 9.53125C400.938 9.53125 403.29 10.2732 404.942 11.7572C406.594 13.2413 407.42 15.5093 407.42 18.5613V32.0013H403.598ZM396.29 32.2533C394.638 32.2533 393.182 31.9732 391.922 31.4132C390.69 30.8533 389.738 30.0833 389.066 29.1033C388.394 28.0953 388.058 26.9613 388.058 25.7013C388.058 24.4973 388.338 23.4053 388.898 22.4253C389.486 21.4453 390.424 20.6613 391.712 20.0733C393.028 19.4853 394.792 19.1913 397.004 19.1913H404.06V22.0893H397.172C395.156 22.0893 393.798 22.4253 393.098 23.0973C392.398 23.7693 392.048 24.5812 392.048 25.5332C392.048 26.6252 392.482 27.5073 393.35 28.1793C394.218 28.8233 395.422 29.1453 396.962 29.1453C398.474 29.1453 399.79 28.8093 400.91 28.1373C402.058 27.4653 402.884 26.4853 403.388 25.1973L404.186 27.9692C403.654 29.2852 402.716 30.3353 401.372 31.1193C400.028 31.8753 398.334 32.2533 396.29 32.2533Z" fill="#163C51"/>
<path opacity="0.5" d="M373.247 9.53125C375.039 9.53125 376.621 9.88125 377.993 10.5812C379.365 11.2813 380.429 12.3453 381.185 13.7733C381.969 15.2013 382.361 17.0073 382.361 19.1913V32.0013H378.329V19.6533C378.329 17.4973 377.825 15.8733 376.817 14.7812C375.809 13.6892 374.395 13.1432 372.575 13.1432C371.231 13.1432 370.055 13.4232 369.047 13.9832C368.039 14.5433 367.255 15.3693 366.695 16.4613C366.163 17.5532 365.897 18.9113 365.897 20.5353V32.0013H361.865V19.6533C361.865 17.4973 361.361 15.8733 360.353 14.7812C359.373 13.6892 357.959 13.1432 356.111 13.1432C354.795 13.1432 353.633 13.4232 352.625 13.9832C351.617 14.5433 350.833 15.3693 350.273 16.4613C349.713 17.5532 349.433 18.9113 349.433 20.5353V32.0013H345.401V9.74125H349.265V15.6632L348.635 14.1513C349.335 12.6953 350.413 11.5612 351.869 10.7492C353.325 9.93725 355.019 9.53125 356.951 9.53125C359.079 9.53125 360.913 10.0633 362.453 11.1273C363.993 12.1633 365.001 13.7453 365.477 15.8733L363.839 15.2013C364.511 13.4932 365.687 12.1213 367.367 11.0853C369.047 10.0493 371.007 9.53125 373.247 9.53125Z" fill="#163C51"/>
<path opacity="0.5" d="M327.895 22.2145V18.7285H339.193V22.2145H327.895Z" fill="#163C51"/>
<path opacity="0.5" d="M313.108 32.2533C310.728 32.2533 308.628 31.7633 306.808 30.7833C305.016 29.8033 303.616 28.4593 302.608 26.7513C301.628 25.0433 301.138 23.0833 301.138 20.8713C301.138 18.6593 301.614 16.6992 302.566 14.9912C303.546 13.2832 304.876 11.9533 306.556 11.0013C308.264 10.0213 310.182 9.53125 312.31 9.53125C314.466 9.53125 316.37 10.0073 318.022 10.9592C319.674 11.9113 320.962 13.2552 321.886 14.9912C322.838 16.6992 323.314 18.7013 323.314 20.9972C323.314 21.1652 323.3 21.3613 323.272 21.5853C323.272 21.8093 323.258 22.0192 323.23 22.2153H304.288V19.3173H321.13L319.492 20.3253C319.52 18.8973 319.226 17.6233 318.61 16.5033C317.994 15.3833 317.14 14.5153 316.048 13.8993C314.984 13.2552 313.738 12.9333 312.31 12.9333C310.91 12.9333 309.664 13.2552 308.572 13.8993C307.48 14.5153 306.626 15.3973 306.01 16.5452C305.394 17.6653 305.086 18.9533 305.086 20.4093V21.0813C305.086 22.5653 305.422 23.8953 306.094 25.0713C306.794 26.2193 307.76 27.1152 308.992 27.7593C310.224 28.4033 311.638 28.7253 313.234 28.7253C314.55 28.7253 315.74 28.5012 316.804 28.0532C317.896 27.6052 318.848 26.9333 319.66 26.0373L321.886 28.6413C320.878 29.8173 319.618 30.7133 318.106 31.3293C316.622 31.9452 314.956 32.2533 313.108 32.2533Z" fill="#163C51"/>
<path opacity="0.5" d="M262.839 32.0022V9.74219H266.871V25.9542L280.521 9.74219H284.175V32.0022H280.143V15.7902L266.535 32.0022H262.839Z" fill="#163C51"/>
<path opacity="0.5" d="M232.236 31.9602L232.488 28.5582C232.684 28.5862 232.866 28.6142 233.034 28.6422C233.202 28.6702 233.356 28.6842 233.496 28.6842C234.392 28.6842 235.092 28.3762 235.596 27.7602C236.128 27.1442 236.52 26.3322 236.772 25.3242C237.024 24.2882 237.206 23.1262 237.318 21.8382C237.43 20.5502 237.514 19.2622 237.57 17.9742L237.948 9.74219H255.042V32.0022H251.01V12.0942L251.976 13.2702H240.552L241.476 12.0522L241.182 18.2262C241.098 20.1862 240.944 22.0202 240.72 23.7282C240.496 25.4362 240.146 26.9342 239.67 28.2222C239.222 29.5102 238.592 30.5182 237.78 31.2462C236.996 31.9742 235.974 32.3382 234.714 32.3382C234.35 32.3382 233.958 32.2962 233.538 32.2122C233.146 32.1562 232.712 32.0722 232.236 31.9602Z" fill="#163C51"/>
<path opacity="0.5" d="M206.771 32.0022V9.74219H210.803V25.9542L224.452 9.74219H228.107V32.0022H224.075V15.7902L210.467 32.0022H206.771Z" fill="#163C51"/>
<path opacity="0.5" d="M166.903 32.0022V9.74219H170.935V19.1922H183.619V9.74219H187.651V32.0022H183.619V22.6782H170.935V32.0022H166.903Z" fill="#163C51"/>
<path opacity="0.5" d="M149.53 32.2533C147.29 32.2533 145.302 31.7633 143.566 30.7833C141.83 29.8033 140.458 28.4593 139.45 26.7513C138.442 25.0153 137.938 23.0553 137.938 20.8713C137.938 18.6593 138.442 16.6992 139.45 14.9912C140.458 13.2832 141.83 11.9533 143.566 11.0013C145.302 10.0213 147.29 9.53125 149.53 9.53125C151.742 9.53125 153.716 10.0213 155.452 11.0013C157.216 11.9533 158.588 13.2832 159.568 14.9912C160.576 16.6712 161.08 18.6313 161.08 20.8713C161.08 23.0833 160.576 25.0433 159.568 26.7513C158.588 28.4593 157.216 29.8033 155.452 30.7833C153.716 31.7633 151.742 32.2533 149.53 32.2533ZM149.53 28.7253C150.958 28.7253 152.232 28.4033 153.352 27.7593C154.5 27.1152 155.396 26.2053 156.04 25.0293C156.684 23.8253 157.006 22.4393 157.006 20.8713C157.006 19.2752 156.684 17.9033 156.04 16.7553C155.396 15.5793 154.5 14.6692 153.352 14.0252C152.232 13.3812 150.958 13.0592 149.53 13.0592C148.102 13.0592 146.828 13.3812 145.708 14.0252C144.588 14.6692 143.692 15.5793 143.02 16.7553C142.348 17.9033 142.012 19.2752 142.012 20.8713C142.012 22.4393 142.348 23.8253 143.02 25.0293C143.692 26.2053 144.588 27.1152 145.708 27.7593C146.828 28.4033 148.102 28.7253 149.53 28.7253Z" fill="#163C51"/>
<path opacity="0.5" d="M119.472 32.3359C119.444 32.3359 119.346 32.3359 119.178 32.3359C119.038 32.3359 118.898 32.3359 118.758 32.3359C118.618 32.3359 118.534 32.3359 118.506 32.3359C113.942 32.2799 110.4 31.2719 107.88 29.3119C105.36 27.3239 104.1 24.4959 104.1 20.8279C104.1 17.1879 105.36 14.4019 107.88 12.4699C110.428 10.5099 114.012 9.51594 118.632 9.48794C118.688 9.48794 118.772 9.48794 118.884 9.48794C119.024 9.48794 119.15 9.48794 119.262 9.48794C119.402 9.48794 119.486 9.48794 119.514 9.48794C124.19 9.48794 127.816 10.4679 130.392 12.4279C132.996 14.3879 134.298 17.1879 134.298 20.8279C134.298 24.5239 132.996 27.3659 130.392 29.3539C127.788 31.3419 124.148 32.3359 119.472 32.3359ZM119.388 28.8079C121.824 28.8079 123.84 28.4999 125.436 27.8839C127.06 27.2679 128.278 26.3719 129.09 25.1959C129.902 24.0199 130.308 22.5639 130.308 20.8279C130.308 19.1199 129.902 17.6919 129.09 16.5439C128.278 15.3959 127.06 14.5279 125.436 13.9399C123.84 13.3519 121.824 13.0579 119.388 13.0579C119.332 13.0579 119.22 13.0579 119.052 13.0579C118.884 13.0579 118.786 13.0579 118.758 13.0579C116.378 13.0579 114.39 13.3659 112.794 13.9819C111.226 14.5699 110.05 15.4379 109.266 16.5859C108.482 17.7339 108.09 19.1479 108.09 20.8279C108.09 22.5359 108.482 23.9779 109.266 25.1539C110.078 26.3299 111.268 27.2259 112.836 27.8419C114.432 28.4579 116.406 28.7799 118.758 28.8079C118.814 28.8079 118.912 28.8079 119.052 28.8079C119.22 28.8079 119.332 28.8079 119.388 28.8079ZM117.204 40.1479V0.835938H121.152V40.1479H117.204Z" fill="#163C51"/>
<path opacity="0.5" d="M89.7386 32.2533C87.3586 32.2533 85.2586 31.7633 83.4386 30.7833C81.6466 29.8033 80.2466 28.4593 79.2386 26.7513C78.2586 25.0433 77.7686 23.0833 77.7686 20.8713C77.7686 18.6593 78.2446 16.6992 79.1966 14.9912C80.1766 13.2832 81.5066 11.9533 83.1866 11.0013C84.8946 10.0213 86.8126 9.53125 88.9406 9.53125C91.0966 9.53125 93.0006 10.0073 94.6526 10.9592C96.3046 11.9113 97.5926 13.2552 98.5166 14.9912C99.4686 16.6992 99.9446 18.7013 99.9446 20.9972C99.9446 21.1652 99.9306 21.3613 99.9026 21.5853C99.9026 21.8093 99.8886 22.0192 99.8606 22.2153H80.9186V19.3173H97.7606L96.1226 20.3253C96.1506 18.8973 95.8566 17.6233 95.2406 16.5033C94.6246 15.3833 93.7706 14.5153 92.6786 13.8993C91.6146 13.2552 90.3686 12.9333 88.9406 12.9333C87.5406 12.9333 86.2946 13.2552 85.2026 13.8993C84.1106 14.5153 83.2566 15.3973 82.6406 16.5452C82.0246 17.6653 81.7166 18.9533 81.7166 20.4093V21.0813C81.7166 22.5653 82.0526 23.8953 82.7246 25.0713C83.4246 26.2193 84.3906 27.1152 85.6226 27.7593C86.8546 28.4033 88.2686 28.7253 89.8646 28.7253C91.1806 28.7253 92.3706 28.5012 93.4346 28.0532C94.5266 27.6052 95.4786 26.9333 96.2906 26.0373L98.5166 28.6413C97.5086 29.8173 96.2486 30.7133 94.7366 31.3293C93.2526 31.9452 91.5866 32.2533 89.7386 32.2533Z" fill="#163C51"/>
<path opacity="0.5" d="M49.2246 31.9602L49.4766 28.5582C49.6726 28.5862 49.8546 28.6142 50.0226 28.6422C50.1906 28.6702 50.3446 28.6842 50.4846 28.6842C51.3806 28.6842 52.0806 28.3762 52.5846 27.7602C53.1166 27.1442 53.5086 26.3322 53.7606 25.3242C54.0126 24.2882 54.1946 23.1262 54.3066 21.8382C54.4186 20.5502 54.5026 19.2622 54.5586 17.9742L54.9366 9.74219H72.0306V32.0022H67.9986V12.0942L68.9646 13.2702H57.5406L58.4646 12.0522L58.1706 18.2262C58.0866 20.1862 57.9326 22.0202 57.7086 23.7282C57.4846 25.4362 57.1346 26.9342 56.6586 28.2222C56.2106 29.5102 55.5806 30.5182 54.7686 31.2462C53.9846 31.9742 52.9626 32.3382 51.7026 32.3382C51.3386 32.3382 50.9466 32.2962 50.5266 32.2122C50.1346 32.1562 49.7006 32.0722 49.2246 31.9602Z" fill="#163C51"/>
<path opacity="0.5" d="M36.8284 32.2533C34.4484 32.2533 32.3484 31.7633 30.5284 30.7833C28.7364 29.8033 27.3364 28.4593 26.3284 26.7513C25.3484 25.0433 24.8584 23.0833 24.8584 20.8713C24.8584 18.6593 25.3344 16.6992 26.2864 14.9912C27.2664 13.2832 28.5964 11.9533 30.2764 11.0013C31.9844 10.0213 33.9024 9.53125 36.0304 9.53125C38.1864 9.53125 40.0904 10.0073 41.7424 10.9592C43.3944 11.9113 44.6824 13.2552 45.6064 14.9912C46.5584 16.6992 47.0344 18.7013 47.0344 20.9972C47.0344 21.1652 47.0204 21.3613 46.9924 21.5853C46.9924 21.8093 46.9784 22.0192 46.9504 22.2153H28.0084V19.3173H44.8504L43.2124 20.3253C43.2404 18.8973 42.9464 17.6233 42.3304 16.5033C41.7144 15.3833 40.8604 14.5153 39.7684 13.8993C38.7044 13.2552 37.4584 12.9333 36.0304 12.9333C34.6304 12.9333 33.3844 13.2552 32.2924 13.8993C31.2004 14.5153 30.3464 15.3973 29.7304 16.5452C29.1144 17.6653 28.8064 18.9533 28.8064 20.4093V21.0813C28.8064 22.5653 29.1424 23.8953 29.8144 25.0713C30.5144 26.2193 31.4804 27.1152 32.7124 27.7593C33.9444 28.4033 35.3584 28.7253 36.9544 28.7253C38.2704 28.7253 39.4604 28.5012 40.5244 28.0532C41.6164 27.6052 42.5684 26.9333 43.3804 26.0373L45.6064 28.6413C44.5984 29.8173 43.3384 30.7133 41.8264 31.3293C40.3424 31.9452 38.6764 32.2533 36.8284 32.2533Z" fill="#163C51"/>
<path opacity="0.5" d="M10.5849 32.0016V5.16356L11.6349 6.25556H0.546875V2.60156H24.7809V6.25556H13.6929L14.7009 5.16356V32.0016H10.5849Z" fill="#163C51"/>
</svg>
