<svg width="219" height="24" viewBox="0 0 219 24" fill="none" xmlns="http://www.w3.org/2000/svg">
<path d="M215.02 18.0004L210.195 11.6004L212.745 10.0254L218.695 18.0004H215.02ZM205.445 18.0004V4.65039H208.57V18.0004H205.445ZM207.645 12.6504V10.0504H212.17V12.6504H207.645ZM213.045 11.7004L210.12 11.3504L215.02 4.65039H218.37L213.045 11.7004Z" fill="#163C51"/>
<path d="M195.56 18.175C194.477 18.175 193.485 17.925 192.585 17.425C191.702 16.925 190.993 16.175 190.46 15.175C189.943 14.1583 189.685 12.875 189.685 11.325C189.685 9.75833 189.935 8.475 190.435 7.475C190.952 6.475 191.652 5.73333 192.535 5.25C193.418 4.75 194.427 4.5 195.56 4.5C196.877 4.5 198.035 4.78333 199.035 5.35C200.052 5.91667 200.852 6.70833 201.435 7.725C202.035 8.74167 202.335 9.94167 202.335 11.325C202.335 12.7083 202.035 13.9167 201.435 14.95C200.852 15.9667 200.052 16.7583 199.035 17.325C198.035 17.8917 196.877 18.175 195.56 18.175ZM188.16 22.85V4.65H191.135V7.8L191.035 11.35L191.285 14.9V22.85H188.16ZM195.21 15.5C195.96 15.5 196.627 15.3333 197.21 15C197.81 14.6667 198.285 14.1833 198.635 13.55C198.985 12.9167 199.16 12.175 199.16 11.325C199.16 10.4583 198.985 9.71667 198.635 9.1C198.285 8.46666 197.81 7.98333 197.21 7.65C196.627 7.31667 195.96 7.15 195.21 7.15C194.46 7.15 193.785 7.31667 193.185 7.65C192.585 7.98333 192.11 8.46666 191.76 9.1C191.41 9.71667 191.235 10.4583 191.235 11.325C191.235 12.175 191.41 12.9167 191.76 13.55C192.11 14.1833 192.585 14.6667 193.185 15C193.785 15.3333 194.46 15.5 195.21 15.5Z" fill="#163C51"/>
<path d="M181.345 18V15.3L181.17 14.725V10C181.17 9.08333 180.895 8.375 180.345 7.875C179.795 7.35833 178.962 7.1 177.845 7.1C177.095 7.1 176.353 7.21667 175.62 7.45C174.903 7.68333 174.295 8.00833 173.795 8.425L172.57 6.15C173.287 5.6 174.137 5.19167 175.12 4.925C176.12 4.64167 177.153 4.5 178.22 4.5C180.153 4.5 181.645 4.96667 182.695 5.9C183.762 6.81667 184.295 8.24167 184.295 10.175V18H181.345ZM177.145 18.175C176.145 18.175 175.27 18.0083 174.52 17.675C173.77 17.325 173.187 16.85 172.77 16.25C172.37 15.6333 172.17 14.9417 172.17 14.175C172.17 13.425 172.345 12.75 172.695 12.15C173.062 11.55 173.653 11.075 174.47 10.725C175.287 10.375 176.37 10.2 177.72 10.2H181.595V12.275H177.945C176.878 12.275 176.162 12.45 175.795 12.8C175.428 13.1333 175.245 13.55 175.245 14.05C175.245 14.6167 175.47 15.0667 175.92 15.4C176.37 15.7333 176.995 15.9 177.795 15.9C178.562 15.9 179.245 15.725 179.845 15.375C180.462 15.025 180.903 14.5083 181.17 13.825L181.695 15.7C181.395 16.4833 180.853 17.0917 180.07 17.525C179.303 17.9583 178.328 18.175 177.145 18.175Z" fill="#163C51"/>
<path d="M156.227 18.0004V4.65039H169.027V18.0004H165.927V6.57539L166.652 7.30039H158.627L159.352 6.57539V18.0004H156.227Z" fill="#163C51"/>
<path d="M133.84 18.0004V4.65039H140.365C141.982 4.65039 143.248 4.95039 144.165 5.55039C145.098 6.15039 145.565 7.00039 145.565 8.10039C145.565 9.18372 145.131 10.0337 144.265 10.6504C143.398 11.2504 142.248 11.5504 140.815 11.5504L141.19 10.7754C142.807 10.7754 144.007 11.0754 144.79 11.6754C145.59 12.2587 145.99 13.1171 145.99 14.2504C145.99 15.4337 145.548 16.3587 144.665 17.0254C143.782 17.6754 142.44 18.0004 140.64 18.0004H133.84ZM136.815 15.7254H140.39C141.24 15.7254 141.882 15.5921 142.315 15.3254C142.748 15.0421 142.965 14.6171 142.965 14.0504C142.965 13.4504 142.765 13.0087 142.365 12.7254C141.965 12.4421 141.34 12.3004 140.49 12.3004H136.815V15.7254ZM136.815 10.2254H140.09C140.89 10.2254 141.49 10.0837 141.89 9.80039C142.306 9.50039 142.515 9.08372 142.515 8.55039C142.515 8.00039 142.306 7.59206 141.89 7.32539C141.49 7.05872 140.89 6.92539 140.09 6.92539H136.815V10.2254Z" fill="#163C51"/>
<path d="M120.114 18V15.3L119.939 14.725V10C119.939 9.08333 119.664 8.375 119.114 7.875C118.564 7.35833 117.731 7.1 116.614 7.1C115.864 7.1 115.123 7.21667 114.389 7.45C113.673 7.68333 113.064 8.00833 112.564 8.425L111.339 6.15C112.056 5.6 112.906 5.19167 113.889 4.925C114.889 4.64167 115.923 4.5 116.989 4.5C118.923 4.5 120.414 4.96667 121.464 5.9C122.531 6.81667 123.064 8.24167 123.064 10.175V18H120.114ZM115.914 18.175C114.914 18.175 114.039 18.0083 113.289 17.675C112.539 17.325 111.956 16.85 111.539 16.25C111.139 15.6333 110.939 14.9417 110.939 14.175C110.939 13.425 111.114 12.75 111.464 12.15C111.831 11.55 112.423 11.075 113.239 10.725C114.056 10.375 115.139 10.2 116.489 10.2H120.364V12.275H116.714C115.648 12.275 114.931 12.45 114.564 12.8C114.198 13.1333 114.014 13.55 114.014 14.05C114.014 14.6167 114.239 15.0667 114.689 15.4C115.139 15.7333 115.764 15.9 116.564 15.9C117.331 15.9 118.014 15.725 118.614 15.375C119.231 15.025 119.673 14.5083 119.939 13.825L120.464 15.7C120.164 16.4833 119.623 17.0917 118.839 17.525C118.073 17.9583 117.098 18.175 115.914 18.175Z" fill="#163C51"/>
<path d="M106.38 18.0004L101.555 11.6004L104.105 10.0254L110.055 18.0004H106.38ZM96.8047 18.0004V4.65039H99.9297V18.0004H96.8047ZM99.0047 12.6504V10.0504H103.53V12.6504H99.0047ZM104.405 11.7004L101.48 11.3504L106.38 4.65039H109.73L104.405 11.7004Z" fill="#163C51"/>
<path d="M78.5449 17.9754L78.6949 15.3504C78.8116 15.3671 78.9199 15.3837 79.0199 15.4004C79.1199 15.4171 79.2116 15.4254 79.2949 15.4254C79.8116 15.4254 80.2116 15.2671 80.4949 14.9504C80.7783 14.6337 80.9866 14.2087 81.1199 13.6754C81.2699 13.1254 81.3699 12.5171 81.4199 11.8504C81.4866 11.1671 81.5366 10.4837 81.5699 9.80039L81.7949 4.65039H92.5949V18.0004H89.4699V6.45039L90.1949 7.30039H83.8449L84.5199 6.42539L84.3449 9.95039C84.2949 11.1337 84.1949 12.2337 84.0449 13.2504C83.9116 14.2504 83.6949 15.1254 83.3949 15.8754C83.1116 16.6254 82.7116 17.2087 82.1949 17.6254C81.6949 18.0421 81.0533 18.2504 80.2699 18.2504C80.0199 18.2504 79.7449 18.2254 79.4449 18.1754C79.1616 18.1254 78.8616 18.0587 78.5449 17.9754Z" fill="#163C51"/>
<path d="M67.7313 23.0254C67.0813 23.0254 66.4313 22.9171 65.7812 22.7004C65.1312 22.4837 64.5896 22.1837 64.1562 21.8004L65.4062 19.5004C65.7229 19.7837 66.0813 20.0087 66.4813 20.1754C66.8813 20.3421 67.2896 20.4254 67.7063 20.4254C68.2729 20.4254 68.7313 20.2837 69.0813 20.0004C69.4313 19.7171 69.7563 19.2421 70.0563 18.5754L70.8313 16.8254L71.0813 16.4504L76.1312 4.65039H79.1312L72.8812 19.0754C72.4646 20.0754 71.9979 20.8671 71.4813 21.4504C70.9813 22.0337 70.4146 22.4421 69.7812 22.6754C69.1646 22.9087 68.4813 23.0254 67.7313 23.0254ZM70.4813 18.4754L64.4563 4.65039H67.7063L72.6063 16.1754L70.4813 18.4754Z" fill="#163C51"/>
<path d="M53.9805 18.0004V4.65039H64.2305V7.30039H56.3805L57.1055 6.60039V18.0004H53.9805Z" fill="#163C51"/>
<path d="M43.7699 18.175C42.4033 18.175 41.1866 17.8833 40.1199 17.3C39.0533 16.7 38.2116 15.8833 37.5949 14.85C36.9783 13.8167 36.6699 12.6417 36.6699 11.325C36.6699 9.99167 36.9783 8.81667 37.5949 7.8C38.2116 6.76667 39.0533 5.95833 40.1199 5.375C41.1866 4.79167 42.4033 4.5 43.7699 4.5C45.1533 4.5 46.3783 4.79167 47.4449 5.375C48.5283 5.95833 49.3699 6.75833 49.9699 7.775C50.5866 8.79167 50.8949 9.975 50.8949 11.325C50.8949 12.6417 50.5866 13.8167 49.9699 14.85C49.3699 15.8833 48.5283 16.7 47.4449 17.3C46.3783 17.8833 45.1533 18.175 43.7699 18.175ZM43.7699 15.5C44.5366 15.5 45.2199 15.3333 45.8199 15C46.4199 14.6667 46.8866 14.1833 47.2199 13.55C47.5699 12.9167 47.7449 12.175 47.7449 11.325C47.7449 10.4583 47.5699 9.71667 47.2199 9.1C46.8866 8.46666 46.4199 7.98333 45.8199 7.65C45.2199 7.31667 44.5449 7.15 43.7949 7.15C43.0283 7.15 42.3449 7.31667 41.7449 7.65C41.1616 7.98333 40.6949 8.46666 40.3449 9.1C39.9949 9.71667 39.8199 10.4583 39.8199 11.325C39.8199 12.175 39.9949 12.9167 40.3449 13.55C40.6949 14.1833 41.1616 14.6667 41.7449 15C42.3449 15.3333 43.0199 15.5 43.7699 15.5Z" fill="#163C51"/>
<path d="M27.9352 18.175C26.8518 18.175 25.8602 17.925 24.9602 17.425C24.0768 16.925 23.3685 16.175 22.8352 15.175C22.3185 14.1583 22.0602 12.875 22.0602 11.325C22.0602 9.75833 22.3102 8.475 22.8102 7.475C23.3268 6.475 24.0268 5.73333 24.9102 5.25C25.7935 4.75 26.8018 4.5 27.9352 4.5C29.2518 4.5 30.4102 4.78333 31.4102 5.35C32.4268 5.91667 33.2268 6.70833 33.8102 7.725C34.4102 8.74167 34.7102 9.94167 34.7102 11.325C34.7102 12.7083 34.4102 13.9167 33.8102 14.95C33.2268 15.9667 32.4268 16.7583 31.4102 17.325C30.4102 17.8917 29.2518 18.175 27.9352 18.175ZM20.5352 22.85V4.65H23.5102V7.8L23.4102 11.35L23.6602 14.9V22.85H20.5352ZM27.5852 15.5C28.3352 15.5 29.0018 15.3333 29.5852 15C30.1852 14.6667 30.6602 14.1833 31.0102 13.55C31.3602 12.9167 31.5352 12.175 31.5352 11.325C31.5352 10.4583 31.3602 9.71667 31.0102 9.1C30.6602 8.46666 30.1852 7.98333 29.5852 7.65C29.0018 7.31667 28.3352 7.15 27.5852 7.15C26.8352 7.15 26.1602 7.31667 25.5602 7.65C24.9602 7.98333 24.4852 8.46666 24.1352 9.1C23.7852 9.71667 23.6102 10.4583 23.6102 11.325C23.6102 12.175 23.7852 12.9167 24.1352 13.55C24.4852 14.1833 24.9602 14.6667 25.5602 15C26.1602 15.3333 26.8352 15.5 27.5852 15.5Z" fill="#163C51"/>
<path d="M0.474609 18V0.5H15.9496V18H12.7496V2.45L13.4996 3.25H2.92461L3.67461 2.45V18H0.474609Z" fill="#163C51"/>
</svg>
