<svg width="460" height="31" viewBox="0 0 460 31" fill="none" xmlns="http://www.w3.org/2000/svg">
<path d="M444.105 24.0031V7.20312H446.377V20.5471L457.609 7.20312H459.625V24.0031H457.353V10.6271L446.153 24.0031H444.105Z" fill="#5C7786"/>
<path d="M437.832 24.0031L430.92 15.6831L432.808 14.5631L440.52 24.0031H437.832ZM425.512 24.0031V7.20312H427.784V24.0031H425.512ZM427.08 16.5151V14.5631H432.488V16.5151H427.08ZM433 15.8431L430.888 15.5231L437.576 7.20312H440.04L433 15.8431Z" fill="#5C7786"/>
<path d="M419.011 24.0031L413.251 15.6831L415.139 14.5631L421.731 24.0031H419.011ZM409.475 16.5151V14.5631H414.787V16.5151H409.475ZM415.363 15.8431L413.187 15.5231L418.787 7.20312H421.251L415.363 15.8431ZM399.107 24.0031H396.387L402.979 14.5631L404.835 15.6831L399.107 24.0031ZM410.179 24.0031H407.907V7.20312H410.179V24.0031ZM408.611 16.5151H403.331V14.5631H408.611V16.5151ZM402.787 15.8431L396.867 7.20312H399.331L404.899 15.5231L402.787 15.8431Z" fill="#5C7786"/>
<path d="M377.043 24.0031V7.20312H379.315V20.5471L390.547 7.20312H392.563V24.0031H390.291V10.6271L379.091 24.0031H377.043Z" fill="#5C7786"/>
<path d="M355.449 24.0031V7.20312H357.721V14.6271H368.313V7.20312H370.585V24.0031H368.313V16.5791H357.721V24.0031H355.449Z" fill="#5C7786"/>
<path d="M349.175 24.0031L342.263 15.6831L344.151 14.5631L351.863 24.0031H349.175ZM336.855 24.0031V7.20312H339.127V24.0031H336.855ZM338.423 16.5151V14.5631H343.831V16.5151H338.423ZM344.343 15.8431L342.231 15.5231L348.919 7.20312H351.383L344.343 15.8431Z" fill="#5C7786"/>
<path d="M306.449 24.0014V7.20137H308.721V20.5454L319.953 7.20137H321.969V24.0014H319.697V10.6254L308.497 24.0014H306.449ZM314.065 4.76937C312.657 4.76937 311.516 4.41737 310.641 3.71338C309.788 2.98804 309.34 1.95337 309.297 0.609375H310.929C310.951 1.46271 311.249 2.13471 311.825 2.62537C312.401 3.11604 313.148 3.36137 314.065 3.36137C314.983 3.36137 315.729 3.11604 316.305 2.62537C316.903 2.13471 317.212 1.46271 317.233 0.609375H318.865C318.844 1.95337 318.396 2.98804 317.521 3.71338C316.647 4.41737 315.495 4.76937 314.065 4.76937Z" fill="#5C7786"/>
<path d="M293.019 24.163C291.397 24.163 289.936 23.8003 288.635 23.075C287.355 22.3283 286.341 21.315 285.595 20.035C284.848 18.7336 284.475 17.251 284.475 15.587C284.475 13.9016 284.848 12.419 285.595 11.139C286.341 9.85897 287.355 8.8563 288.635 8.13097C289.915 7.40564 291.376 7.04297 293.019 7.04297C294.683 7.04297 296.155 7.40564 297.435 8.13097C298.736 8.8563 299.749 9.85897 300.475 11.139C301.221 12.419 301.595 13.9016 301.595 15.587C301.595 17.251 301.221 18.7336 300.475 20.035C299.749 21.315 298.736 22.3283 297.435 23.075C296.133 23.8003 294.661 24.163 293.019 24.163ZM293.019 22.147C294.235 22.147 295.312 21.8803 296.251 21.347C297.189 20.7923 297.925 20.0243 298.459 19.043C299.013 18.0403 299.291 16.8883 299.291 15.587C299.291 14.2643 299.013 13.1123 298.459 12.131C297.925 11.1496 297.189 10.3923 296.251 9.85897C295.312 9.3043 294.245 9.02697 293.051 9.02697C291.856 9.02697 290.789 9.3043 289.851 9.85897C288.912 10.3923 288.165 11.1496 287.611 12.131C287.056 13.1123 286.779 14.2643 286.779 15.587C286.779 16.8883 287.056 18.0403 287.611 19.043C288.165 20.0243 288.912 20.7923 289.851 21.347C290.789 21.8803 291.845 22.147 293.019 22.147Z" fill="#5C7786"/>
<path d="M280.425 24.0031L273.513 15.6831L275.401 14.5631L283.113 24.0031H280.425ZM268.105 24.0031V7.20312H270.377V24.0031H268.105ZM269.673 16.5151V14.5631H275.081V16.5151H269.673ZM275.593 15.8431L273.481 15.5231L280.169 7.20312H282.633L275.593 15.8431Z" fill="#5C7786"/>
<path d="M257.115 24.163C255.451 24.163 253.958 23.8003 252.635 23.075C251.334 22.3283 250.31 21.315 249.563 20.035C248.817 18.7336 248.443 17.251 248.443 15.587C248.443 13.9016 248.817 12.419 249.563 11.139C250.31 9.85897 251.334 8.8563 252.635 8.13097C253.958 7.40564 255.451 7.04297 257.115 7.04297C258.545 7.04297 259.835 7.3203 260.987 7.87497C262.139 8.42964 263.046 9.26164 263.707 10.371L262.011 11.523C261.435 10.6696 260.721 10.0403 259.867 9.63497C259.014 9.22964 258.086 9.02697 257.083 9.02697C255.889 9.02697 254.811 9.3043 253.851 9.85897C252.891 10.3923 252.134 11.1496 251.579 12.131C251.025 13.1123 250.747 14.2643 250.747 15.587C250.747 16.9096 251.025 18.0616 251.579 19.043C252.134 20.0243 252.891 20.7923 253.851 21.347C254.811 21.8803 255.889 22.147 257.083 22.147C258.086 22.147 259.014 21.9443 259.867 21.539C260.721 21.1336 261.435 20.515 262.011 19.683L263.707 20.835C263.046 21.923 262.139 22.755 260.987 23.331C259.835 23.8856 258.545 24.163 257.115 24.163Z" fill="#5C7786"/>
<path d="M236.809 24.163C235.358 24.163 234.046 23.8323 232.873 23.171C231.699 22.4883 230.761 21.5176 230.057 20.259C229.374 18.979 229.033 17.4216 229.033 15.587C229.033 13.7523 229.374 12.2056 230.057 10.947C230.739 9.66697 231.667 8.6963 232.841 8.03497C234.014 7.37364 235.337 7.04297 236.809 7.04297C238.409 7.04297 239.838 7.40564 241.097 8.13097C242.377 8.83497 243.379 9.83764 244.105 11.139C244.83 12.419 245.193 13.9016 245.193 15.587C245.193 17.2936 244.83 18.787 244.105 20.067C243.379 21.347 242.377 22.3496 241.097 23.075C239.838 23.8003 238.409 24.163 236.809 24.163ZM228.137 30.211V7.20297H230.313V12.259L230.089 15.619L230.409 19.011V30.211H228.137ZM236.649 22.147C237.843 22.147 238.91 21.8803 239.849 21.347C240.787 20.7923 241.534 20.0243 242.089 19.043C242.643 18.0403 242.921 16.8883 242.921 15.587C242.921 14.2856 242.643 13.1443 242.089 12.163C241.534 11.1816 240.787 10.4136 239.849 9.85897C238.91 9.3043 237.843 9.02697 236.649 9.02697C235.454 9.02697 234.377 9.3043 233.417 9.85897C232.478 10.4136 231.731 11.1816 231.177 12.163C230.643 13.1443 230.377 14.2856 230.377 15.587C230.377 16.8883 230.643 18.0403 231.177 19.043C231.731 20.0243 232.478 20.7923 233.417 21.347C234.377 21.8803 235.454 22.147 236.649 22.147Z" fill="#5C7786"/>
<path d="M215.557 24.163C213.807 24.163 212.271 23.8003 210.949 23.075C209.626 22.3283 208.591 21.315 207.845 20.035C207.098 18.7336 206.725 17.251 206.725 15.587C206.725 13.923 207.077 12.451 207.781 11.171C208.506 9.89097 209.487 8.8883 210.725 8.16297C211.983 7.4163 213.391 7.04297 214.949 7.04297C216.527 7.04297 217.925 7.40564 219.141 8.13097C220.378 8.83497 221.349 9.83764 222.053 11.139C222.757 12.419 223.109 13.9016 223.109 15.587C223.109 15.6936 223.098 15.811 223.077 15.939C223.077 16.0456 223.077 16.163 223.077 16.291H208.453V14.595H221.861L220.965 15.267C220.965 14.051 220.698 12.9736 220.165 12.035C219.653 11.075 218.949 10.3283 218.053 9.79497C217.157 9.26164 216.122 8.99497 214.949 8.99497C213.797 8.99497 212.762 9.26164 211.845 9.79497C210.927 10.3283 210.213 11.075 209.701 12.035C209.189 12.995 208.933 14.0936 208.933 15.331V15.683C208.933 16.963 209.21 18.0936 209.765 19.075C210.341 20.035 211.13 20.7923 212.133 21.347C213.157 21.8803 214.319 22.147 215.621 22.147C216.645 22.147 217.594 21.9656 218.469 21.603C219.365 21.2403 220.133 20.6856 220.773 19.939L222.053 21.411C221.306 22.307 220.367 22.9896 219.237 23.459C218.127 23.9283 216.901 24.163 215.557 24.163Z" fill="#5C7786"/>
<path d="M197.212 24.0031V8.57913L197.788 9.18712H190.844V7.20312H205.852V9.18712H198.908L199.484 8.57913V24.0031H197.212Z" fill="#5C7786"/>
<path d="M172.418 24.0031V7.20312H174.69V14.6271H185.282V7.20312H187.554V24.0031H185.282V16.5791H174.69V24.0031H172.418Z" fill="#5C7786"/>
<path d="M158.987 24.163C157.366 24.163 155.905 23.8003 154.603 23.075C153.323 22.3283 152.31 21.315 151.563 20.035C150.817 18.7336 150.443 17.251 150.443 15.587C150.443 13.9016 150.817 12.419 151.563 11.139C152.31 9.85897 153.323 8.8563 154.603 8.13097C155.883 7.40564 157.345 7.04297 158.987 7.04297C160.651 7.04297 162.123 7.40564 163.403 8.13097C164.705 8.8563 165.718 9.85897 166.443 11.139C167.19 12.419 167.563 13.9016 167.563 15.587C167.563 17.251 167.19 18.7336 166.443 20.035C165.718 21.315 164.705 22.3283 163.403 23.075C162.102 23.8003 160.63 24.163 158.987 24.163ZM158.987 22.147C160.203 22.147 161.281 21.8803 162.219 21.347C163.158 20.7923 163.894 20.0243 164.427 19.043C164.982 18.0403 165.259 16.8883 165.259 15.587C165.259 14.2643 164.982 13.1123 164.427 12.131C163.894 11.1496 163.158 10.3923 162.219 9.85897C161.281 9.3043 160.214 9.02697 159.019 9.02697C157.825 9.02697 156.758 9.3043 155.819 9.85897C154.881 10.3923 154.134 11.1496 153.579 12.131C153.025 13.1123 152.747 14.2643 152.747 15.587C152.747 16.8883 153.025 18.0403 153.579 19.043C154.134 20.0243 154.881 20.7923 155.819 21.347C156.758 21.8803 157.814 22.147 158.987 22.147Z" fill="#5C7786"/>
<path d="M128.785 23.9711L128.945 22.0191C129.094 22.0405 129.233 22.0725 129.361 22.1151C129.51 22.1365 129.638 22.1471 129.745 22.1471C130.428 22.1471 130.972 21.8911 131.377 21.3791C131.804 20.8671 132.124 20.1845 132.337 19.3311C132.55 18.4778 132.7 17.5178 132.785 16.4511C132.87 15.3631 132.945 14.2751 133.009 13.1871L133.297 7.20312H145.617V24.0031H143.345V8.51513L143.921 9.18712H134.769L135.313 8.48313L135.057 13.3471C134.993 14.7978 134.876 16.1845 134.705 17.5071C134.556 18.8298 134.31 19.9925 133.969 20.9951C133.649 21.9978 133.201 22.7871 132.625 23.3631C132.049 23.9178 131.313 24.1951 130.417 24.1951C130.161 24.1951 129.894 24.1738 129.617 24.1311C129.361 24.0885 129.084 24.0351 128.785 23.9711Z" fill="#5C7786"/>
<path d="M118.519 24.163C116.897 24.163 115.436 23.8003 114.135 23.075C112.855 22.3283 111.841 21.315 111.095 20.035C110.348 18.7336 109.975 17.251 109.975 15.587C109.975 13.9016 110.348 12.419 111.095 11.139C111.841 9.85897 112.855 8.8563 114.135 8.13097C115.415 7.40564 116.876 7.04297 118.519 7.04297C120.183 7.04297 121.655 7.40564 122.935 8.13097C124.236 8.8563 125.249 9.85897 125.975 11.139C126.721 12.419 127.095 13.9016 127.095 15.587C127.095 17.251 126.721 18.7336 125.975 20.035C125.249 21.315 124.236 22.3283 122.935 23.075C121.633 23.8003 120.161 24.163 118.519 24.163ZM118.519 22.147C119.735 22.147 120.812 21.8803 121.751 21.347C122.689 20.7923 123.425 20.0243 123.959 19.043C124.513 18.0403 124.791 16.8883 124.791 15.587C124.791 14.2643 124.513 13.1123 123.959 12.131C123.425 11.1496 122.689 10.3923 121.751 9.85897C120.812 9.3043 119.745 9.02697 118.551 9.02697C117.356 9.02697 116.289 9.3043 115.351 9.85897C114.412 10.3923 113.665 11.1496 113.111 12.131C112.556 13.1123 112.279 14.2643 112.279 15.587C112.279 16.8883 112.556 18.0403 113.111 19.043C113.665 20.0243 114.412 20.7923 115.351 21.347C116.289 21.8803 117.345 22.147 118.519 22.147Z" fill="#5C7786"/>
<path d="M92.1367 24.0031V7.20312H99.5607C101.459 7.20312 102.953 7.56579 104.041 8.29113C105.15 9.01646 105.705 10.0831 105.705 11.4911C105.705 12.8565 105.182 13.9125 104.137 14.6591C103.091 15.3845 101.715 15.7471 100.009 15.7471L100.457 15.0751C102.462 15.0751 103.934 15.4485 104.873 16.1951C105.811 16.9418 106.281 18.0191 106.281 19.4271C106.281 20.8778 105.747 22.0085 104.681 22.8191C103.635 23.6085 102.003 24.0031 99.7847 24.0031H92.1367ZM94.3447 22.2111H99.6887C101.118 22.2111 102.195 21.9871 102.921 21.5391C103.667 21.0698 104.041 20.3231 104.041 19.2991C104.041 18.2751 103.71 17.5285 103.049 17.0591C102.387 16.5898 101.342 16.3551 99.9127 16.3551H94.3447V22.2111ZM94.3447 14.6591H99.4007C100.702 14.6591 101.694 14.4138 102.377 13.9231C103.081 13.4325 103.433 12.7178 103.433 11.7791C103.433 10.8405 103.081 10.1365 102.377 9.66713C101.694 9.19779 100.702 8.96313 99.4007 8.96313H94.3447V14.6591Z" fill="#5C7786"/>
<path d="M62.168 24.0031V7.20312H64.44V14.6271H75.032V7.20312H77.304V24.0031H75.032V16.5791H64.44V24.0031H62.168Z" fill="#5C7786"/>
<path d="M53.9438 24.003V20.291L53.8478 19.683V13.475C53.8478 12.0456 53.4425 10.947 52.6318 10.179C51.8425 9.41097 50.6585 9.02697 49.0798 9.02697C47.9918 9.02697 46.9571 9.2083 45.9758 9.57097C44.9945 9.93364 44.1625 10.4136 43.4798 11.011L42.4558 9.31497C43.3091 8.58964 44.3331 8.03497 45.5278 7.65097C46.7225 7.24564 47.9811 7.04297 49.3038 7.04297C51.4798 7.04297 53.1545 7.58697 54.3278 8.67497C55.5225 9.74164 56.1198 11.3736 56.1198 13.571V24.003H53.9438ZM48.1518 24.163C46.8931 24.163 45.7945 23.9603 44.8558 23.555C43.9385 23.1283 43.2345 22.5523 42.7438 21.827C42.2531 21.0803 42.0078 20.227 42.0078 19.267C42.0078 18.3923 42.2105 17.603 42.6158 16.899C43.0425 16.1736 43.7251 15.5976 44.6638 15.171C45.6238 14.723 46.9038 14.499 48.5038 14.499H54.2958V16.195H48.5678C46.9465 16.195 45.8158 16.483 45.1758 17.059C44.5571 17.635 44.2478 18.3496 44.2478 19.203C44.2478 20.163 44.6211 20.931 45.3678 21.507C46.1145 22.083 47.1598 22.371 48.5038 22.371C49.7838 22.371 50.8825 22.083 51.7998 21.507C52.7385 20.9096 53.4211 20.0563 53.8478 18.947L54.3598 20.515C53.9331 21.6243 53.1865 22.5096 52.1198 23.171C51.0745 23.8323 49.7518 24.163 48.1518 24.163Z" fill="#5C7786"/>
<path d="M37.5505 24.0031L30.6385 15.6831L32.5265 14.5631L40.2385 24.0031H37.5505ZM25.2305 24.0031V7.20312H27.5025V24.0031H25.2305ZM26.7985 16.5151V14.5631H32.2065V16.5151H26.7985ZM32.7185 15.8431L30.6065 15.5231L37.2945 7.20312H39.7585L32.7185 15.8431Z" fill="#5C7786"/>
<path d="M12.6612 24.1942C10.9759 24.1942 9.41855 23.9168 7.98922 23.3622C6.55989 22.7862 5.32255 21.9862 4.27722 20.9622C3.23189 19.9382 2.41055 18.7328 1.81322 17.3462C1.23722 15.9595 0.949219 14.4448 0.949219 12.8022C0.949219 11.1595 1.23722 9.64482 1.81322 8.25816C2.41055 6.87149 3.23189 5.66616 4.27722 4.64216C5.34389 3.61816 6.59189 2.82882 8.02122 2.27416C9.45055 1.69816 11.0079 1.41016 12.6932 1.41016C14.3146 1.41016 15.8399 1.68749 17.2692 2.24216C18.6986 2.77549 19.9039 3.58616 20.8852 4.67416L19.3812 6.17816C18.4639 5.23949 17.4506 4.56749 16.3412 4.16216C15.2319 3.73549 14.0372 3.52216 12.7572 3.52216C11.4132 3.52216 10.1652 3.75682 9.01322 4.22616C7.86122 4.67416 6.85855 5.32482 6.00522 6.17816C5.15189 7.01016 4.47989 7.99149 3.98922 9.12216C3.51989 10.2315 3.28522 11.4582 3.28522 12.8022C3.28522 14.1462 3.51989 15.3835 3.98922 16.5142C4.47989 17.6235 5.15189 18.6048 6.00522 19.4582C6.85855 20.2902 7.86122 20.9408 9.01322 21.4102C10.1652 21.8582 11.4132 22.0822 12.7572 22.0822C14.0372 22.0822 15.2319 21.8688 16.3412 21.4422C17.4506 21.0155 18.4639 20.3328 19.3812 19.3942L20.8852 20.8982C19.9039 21.9862 18.6986 22.8075 17.2692 23.3622C15.8399 23.9168 14.3039 24.1942 12.6612 24.1942Z" fill="#5C7786"/>
</svg>
