<svg width="1677" height="173" viewBox="0 0 1677 173" fill="none" xmlns="http://www.w3.org/2000/svg">
<g opacity="0.4" filter="url(#filter0_d_435_2360)">
<path d="M1667.72 5.41016C1667.72 15.8598 1667.72 26.7114 1667.72 37.5629C1646.82 37.5629 1636.37 37.5629 1615.67 37.5629V57.4574H1663.5C1663.5 68.108 1663.5 78.7586 1663.5 89.4092H1615.67C1615.67 97.6483 1615.67 105.687 1615.67 114.127C1636.37 114.127 1648.43 114.127 1669.53 114.127C1669.53 124.576 1669.53 135.428 1669.53 146.078C1636.57 146.078 1612.46 146.078 1579.9 146.078C1579.9 99.055 1579.9 52.0316 1579.9 5.41016C1612.46 5.41016 1634.76 5.41016 1667.72 5.41016Z" fill="white"/>
</g>
<g opacity="0.4" filter="url(#filter1_d_435_2360)">
<path d="M1365.8 146.078V5.41016H1402.58V112.921H1436.54V5.41016H1473.32V112.921H1507.28V5.41016H1544.05V114.93H1558.32V161.954H1528.78V146.078H1365.8Z" fill="white"/>
</g>
<g opacity="0.4" filter="url(#filter2_d_435_2360)">
<path d="M1338.56 75.9465C1338.56 173.41 1194.28 173.41 1194.28 75.9465C1194.28 -21.3155 1338.56 -21.3155 1338.56 75.9465ZM1231.25 75.9465C1231.25 126.989 1301.79 126.989 1301.79 75.9465C1301.79 25.306 1231.25 25.306 1231.25 75.9465Z" fill="white"/>
</g>
<g opacity="0.4" filter="url(#filter3_d_435_2360)">
<path d="M1099.36 146.078C1087.3 146.078 1075.24 146.078 1063.39 146.078C1063.39 99.256 1063.39 52.4336 1063.39 5.41016C1083.68 5.41016 1104.58 5.41016 1125.28 5.41016C1192.6 5.61111 1192.6 110.108 1125.28 110.108H1099.36V146.078ZM1125.08 77.7538C1144.77 77.7538 1145.98 37.7639 1125.08 37.5629C1116.64 37.362 1107.6 37.5629 1099.36 37.5629C1099.36 49.0173 1099.36 66.2994 1099.36 77.7538H1125.08Z" fill="white"/>
</g>
<g opacity="0.4" filter="url(#filter4_d_435_2360)">
<path d="M1027.47 5.41016V146.078C1015.21 146.078 1002.96 146.078 990.698 146.078V38.5677H947.292V146.078C935.034 146.078 922.575 146.078 910.518 146.078V5.41016C922.575 5.41016 935.034 5.41016 1027.47 5.41016Z" fill="white"/>
</g>
<g opacity="0.4" filter="url(#filter5_d_435_2360)">
<path d="M781.782 76.9513L710.845 146.281H697.984V5.41145C710.243 5.41145 722.501 5.41145 734.759 5.41145V74.3389L805.897 4.80859H818.959V146.08C806.701 146.08 794.242 146.08 781.782 146.08V76.9513Z" fill="white"/>
</g>
<g opacity="0.4" filter="url(#filter6_d_435_2360)">
<path d="M593.015 66.098L649.081 5.00781H661.943V146.078C649.684 146.078 637.426 146.078 625.168 146.078V83.3801L595.226 114.729H591.206L561.465 83.3801V146.078C549.207 146.078 536.949 146.078 524.69 146.078V5.00781H537.953L593.015 66.098Z" fill="white"/>
</g>
<g opacity="0.4" filter="url(#filter7_d_435_2360)">
<path d="M471.254 146.078L463.015 128.394H407.552L399.313 146.078H364.146V140.854L427.446 3.60156H442.92L506.421 140.854V146.078H471.254ZM451.36 97.6483L435.082 60.6727L419.207 97.6483H451.36Z" fill="white"/>
</g>
<g opacity="0.4" filter="url(#filter8_d_435_2360)">
<path d="M345.915 5.41016V146.078C333.656 146.078 321.398 146.078 309.14 146.078V89.6102H265.734V146.078C253.475 146.078 241.016 146.078 228.959 146.078V5.41016C241.016 5.41016 253.475 5.41016 265.734 5.41016V56.4526H309.14V5.41016C321.398 5.41016 333.656 5.41016 345.915 5.41016Z" fill="white"/>
</g>
<g opacity="0.4" filter="url(#filter9_d_435_2360)">
<path d="M7 75.7465C7.20095 27.9193 43.3728 3.80469 79.1427 3.80469C108.281 3.80469 139.831 19.6801 145.257 57.2586C132.999 57.2586 122.147 57.2586 109.889 57.2586C104.865 42.9908 94.2143 36.5603 79.1427 36.5603C58.0425 36.5603 44.1766 52.4357 44.1766 75.7465C44.1766 96.4448 57.8415 114.531 79.1427 114.732C94.4153 114.732 106.674 107.095 110.492 92.0238C122.549 92.0238 133.601 92.0238 145.86 92.0238C140.635 131.813 109.085 147.487 79.1427 147.487C43.3728 147.688 7.20095 123.574 7 75.7465Z" fill="white"/>
</g>
<defs>
<filter id="filter0_d_435_2360" x="1572.9" y="2.41016" width="103.626" height="154.668" filterUnits="userSpaceOnUse" color-interpolation-filters="sRGB">
<feFlood flood-opacity="0" result="BackgroundImageFix"/>
<feColorMatrix in="SourceAlpha" type="matrix" values="0 0 0 0 0 0 0 0 0 0 0 0 0 0 0 0 0 0 127 0" result="hardAlpha"/>
<feOffset dy="4"/>
<feGaussianBlur stdDeviation="3.5"/>
<feComposite in2="hardAlpha" operator="out"/>
<feColorMatrix type="matrix" values="0 0 0 0 0 0 0 0 0 0 0 0 0 0 0 0 0 0 0.1 0"/>
<feBlend mode="normal" in2="BackgroundImageFix" result="effect1_dropShadow_435_2360"/>
<feBlend mode="normal" in="SourceGraphic" in2="effect1_dropShadow_435_2360" result="shape"/>
</filter>
<filter id="filter1_d_435_2360" x="1358.8" y="2.41016" width="206.515" height="170.543" filterUnits="userSpaceOnUse" color-interpolation-filters="sRGB">
<feFlood flood-opacity="0" result="BackgroundImageFix"/>
<feColorMatrix in="SourceAlpha" type="matrix" values="0 0 0 0 0 0 0 0 0 0 0 0 0 0 0 0 0 0 127 0" result="hardAlpha"/>
<feOffset dy="4"/>
<feGaussianBlur stdDeviation="3.5"/>
<feComposite in2="hardAlpha" operator="out"/>
<feColorMatrix type="matrix" values="0 0 0 0 0 0 0 0 0 0 0 0 0 0 0 0 0 0 0.1 0"/>
<feBlend mode="normal" in2="BackgroundImageFix" result="effect1_dropShadow_435_2360"/>
<feBlend mode="normal" in="SourceGraphic" in2="effect1_dropShadow_435_2360" result="shape"/>
</filter>
<filter id="filter2_d_435_2360" x="1187.28" y="0" width="158.285" height="160.043" filterUnits="userSpaceOnUse" color-interpolation-filters="sRGB">
<feFlood flood-opacity="0" result="BackgroundImageFix"/>
<feColorMatrix in="SourceAlpha" type="matrix" values="0 0 0 0 0 0 0 0 0 0 0 0 0 0 0 0 0 0 127 0" result="hardAlpha"/>
<feOffset dy="4"/>
<feGaussianBlur stdDeviation="3.5"/>
<feComposite in2="hardAlpha" operator="out"/>
<feColorMatrix type="matrix" values="0 0 0 0 0 0 0 0 0 0 0 0 0 0 0 0 0 0 0.1 0"/>
<feBlend mode="normal" in2="BackgroundImageFix" result="effect1_dropShadow_435_2360"/>
<feBlend mode="normal" in="SourceGraphic" in2="effect1_dropShadow_435_2360" result="shape"/>
</filter>
<filter id="filter3_d_435_2360" x="1056.39" y="2.41016" width="126.384" height="154.668" filterUnits="userSpaceOnUse" color-interpolation-filters="sRGB">
<feFlood flood-opacity="0" result="BackgroundImageFix"/>
<feColorMatrix in="SourceAlpha" type="matrix" values="0 0 0 0 0 0 0 0 0 0 0 0 0 0 0 0 0 0 127 0" result="hardAlpha"/>
<feOffset dy="4"/>
<feGaussianBlur stdDeviation="3.5"/>
<feComposite in2="hardAlpha" operator="out"/>
<feColorMatrix type="matrix" values="0 0 0 0 0 0 0 0 0 0 0 0 0 0 0 0 0 0 0.1 0"/>
<feBlend mode="normal" in2="BackgroundImageFix" result="effect1_dropShadow_435_2360"/>
<feBlend mode="normal" in="SourceGraphic" in2="effect1_dropShadow_435_2360" result="shape"/>
</filter>
<filter id="filter4_d_435_2360" x="903.518" y="2.41016" width="130.955" height="154.668" filterUnits="userSpaceOnUse" color-interpolation-filters="sRGB">
<feFlood flood-opacity="0" result="BackgroundImageFix"/>
<feColorMatrix in="SourceAlpha" type="matrix" values="0 0 0 0 0 0 0 0 0 0 0 0 0 0 0 0 0 0 127 0" result="hardAlpha"/>
<feOffset dy="4"/>
<feGaussianBlur stdDeviation="3.5"/>
<feComposite in2="hardAlpha" operator="out"/>
<feColorMatrix type="matrix" values="0 0 0 0 0 0 0 0 0 0 0 0 0 0 0 0 0 0 0.1 0"/>
<feBlend mode="normal" in2="BackgroundImageFix" result="effect1_dropShadow_435_2360"/>
<feBlend mode="normal" in="SourceGraphic" in2="effect1_dropShadow_435_2360" result="shape"/>
</filter>
<filter id="filter5_d_435_2360" x="690.984" y="1.80859" width="134.975" height="155.473" filterUnits="userSpaceOnUse" color-interpolation-filters="sRGB">
<feFlood flood-opacity="0" result="BackgroundImageFix"/>
<feColorMatrix in="SourceAlpha" type="matrix" values="0 0 0 0 0 0 0 0 0 0 0 0 0 0 0 0 0 0 127 0" result="hardAlpha"/>
<feOffset dy="4"/>
<feGaussianBlur stdDeviation="3.5"/>
<feComposite in2="hardAlpha" operator="out"/>
<feColorMatrix type="matrix" values="0 0 0 0 0 0 0 0 0 0 0 0 0 0 0 0 0 0 0.1 0"/>
<feBlend mode="normal" in2="BackgroundImageFix" result="effect1_dropShadow_435_2360"/>
<feBlend mode="normal" in="SourceGraphic" in2="effect1_dropShadow_435_2360" result="shape"/>
</filter>
<filter id="filter6_d_435_2360" x="517.69" y="2.00781" width="151.252" height="155.07" filterUnits="userSpaceOnUse" color-interpolation-filters="sRGB">
<feFlood flood-opacity="0" result="BackgroundImageFix"/>
<feColorMatrix in="SourceAlpha" type="matrix" values="0 0 0 0 0 0 0 0 0 0 0 0 0 0 0 0 0 0 127 0" result="hardAlpha"/>
<feOffset dy="4"/>
<feGaussianBlur stdDeviation="3.5"/>
<feComposite in2="hardAlpha" operator="out"/>
<feColorMatrix type="matrix" values="0 0 0 0 0 0 0 0 0 0 0 0 0 0 0 0 0 0 0.1 0"/>
<feBlend mode="normal" in2="BackgroundImageFix" result="effect1_dropShadow_435_2360"/>
<feBlend mode="normal" in="SourceGraphic" in2="effect1_dropShadow_435_2360" result="shape"/>
</filter>
<filter id="filter7_d_435_2360" x="357.146" y="0.601562" width="156.276" height="156.477" filterUnits="userSpaceOnUse" color-interpolation-filters="sRGB">
<feFlood flood-opacity="0" result="BackgroundImageFix"/>
<feColorMatrix in="SourceAlpha" type="matrix" values="0 0 0 0 0 0 0 0 0 0 0 0 0 0 0 0 0 0 127 0" result="hardAlpha"/>
<feOffset dy="4"/>
<feGaussianBlur stdDeviation="3.5"/>
<feComposite in2="hardAlpha" operator="out"/>
<feColorMatrix type="matrix" values="0 0 0 0 0 0 0 0 0 0 0 0 0 0 0 0 0 0 0.1 0"/>
<feBlend mode="normal" in2="BackgroundImageFix" result="effect1_dropShadow_435_2360"/>
<feBlend mode="normal" in="SourceGraphic" in2="effect1_dropShadow_435_2360" result="shape"/>
</filter>
<filter id="filter8_d_435_2360" x="221.959" y="2.41016" width="130.956" height="154.668" filterUnits="userSpaceOnUse" color-interpolation-filters="sRGB">
<feFlood flood-opacity="0" result="BackgroundImageFix"/>
<feColorMatrix in="SourceAlpha" type="matrix" values="0 0 0 0 0 0 0 0 0 0 0 0 0 0 0 0 0 0 127 0" result="hardAlpha"/>
<feOffset dy="4"/>
<feGaussianBlur stdDeviation="3.5"/>
<feComposite in2="hardAlpha" operator="out"/>
<feColorMatrix type="matrix" values="0 0 0 0 0 0 0 0 0 0 0 0 0 0 0 0 0 0 0.1 0"/>
<feBlend mode="normal" in2="BackgroundImageFix" result="effect1_dropShadow_435_2360"/>
<feBlend mode="normal" in="SourceGraphic" in2="effect1_dropShadow_435_2360" result="shape"/>
</filter>
<filter id="filter9_d_435_2360" x="0" y="0.804688" width="152.859" height="157.684" filterUnits="userSpaceOnUse" color-interpolation-filters="sRGB">
<feFlood flood-opacity="0" result="BackgroundImageFix"/>
<feColorMatrix in="SourceAlpha" type="matrix" values="0 0 0 0 0 0 0 0 0 0 0 0 0 0 0 0 0 0 127 0" result="hardAlpha"/>
<feOffset dy="4"/>
<feGaussianBlur stdDeviation="3.5"/>
<feComposite in2="hardAlpha" operator="out"/>
<feColorMatrix type="matrix" values="0 0 0 0 0 0 0 0 0 0 0 0 0 0 0 0 0 0 0.1 0"/>
<feBlend mode="normal" in2="BackgroundImageFix" result="effect1_dropShadow_435_2360"/>
<feBlend mode="normal" in="SourceGraphic" in2="effect1_dropShadow_435_2360" result="shape"/>
</filter>
</defs>
</svg>
