<svg width="1060" height="103" viewBox="0 0 1060 103" fill="none" xmlns="http://www.w3.org/2000/svg">
<path d="M1058.74 2.48047C1058.74 9.13647 1058.74 16.0485 1058.74 22.9605C1045.42 22.9605 1038.77 22.9605 1025.58 22.9605V35.6325H1056.05C1056.05 42.4165 1056.05 49.2005 1056.05 55.9845H1025.58C1025.58 61.2325 1025.58 66.3525 1025.58 71.7285C1038.77 71.7285 1046.45 71.7285 1059.89 71.7285C1059.89 78.3845 1059.89 85.2965 1059.89 92.0805C1038.9 92.0805 1023.54 92.0805 1002.8 92.0805C1002.8 62.1285 1002.8 32.1765 1002.8 2.48047C1023.54 2.48047 1037.74 2.48047 1058.74 2.48047Z" fill="#F85F37"/>
<path d="M866.429 92.0805V2.48047H889.853V70.9605H911.485V2.48047H934.909V70.9605H956.541V2.48047H979.965V72.2405H989.053V102.192H970.237V92.0805H866.429Z" fill="#F85F37"/>
<path d="M849.076 47.4093C849.076 109.489 757.172 109.489 757.172 47.4093C757.172 -14.5427 849.076 -14.5427 849.076 47.4093ZM780.724 47.4093C780.724 79.9213 825.652 79.9213 825.652 47.4093C825.652 15.1533 780.724 15.1533 780.724 47.4093Z" fill="#F85F37"/>
<path d="M696.713 92.0805C689.033 92.0805 681.353 92.0805 673.801 92.0805C673.801 62.2565 673.801 32.4325 673.801 2.48047C686.729 2.48047 700.041 2.48047 713.225 2.48047C756.105 2.60847 756.105 69.1685 713.225 69.1685H696.713V92.0805ZM713.097 48.5605C725.641 48.5605 726.409 23.0885 713.097 22.9605C707.721 22.8325 701.961 22.9605 696.713 22.9605C696.713 30.2565 696.713 41.2645 696.713 48.5605H713.097Z" fill="#F85F37"/>
<path d="M650.925 2.48047V92.0805C643.117 92.0805 635.309 92.0805 627.501 92.0805V23.6005H599.853V92.0805C592.045 92.0805 584.109 92.0805 576.429 92.0805V2.48047C584.109 2.48047 592.045 2.48047 650.925 2.48047Z" fill="#F85F37"/>
<path d="M494.43 48.0497L449.246 92.2097H441.054V2.48165C448.862 2.48165 456.67 2.48165 464.478 2.48165V46.3857L509.79 2.09766H518.11V92.0817C510.302 92.0817 502.366 92.0817 494.43 92.0817V48.0497Z" fill="#F85F37"/>
<path d="M374.193 41.1386L409.905 2.22656H418.097V92.0826C410.289 92.0826 402.481 92.0826 394.673 92.0826V52.1466L375.601 72.1146H373.041L354.097 52.1466V92.0826C346.289 92.0826 338.481 92.0826 330.673 92.0826V2.22656H339.121L374.193 41.1386Z" fill="#F85F37"/>
<path d="M296.636 92.0801L291.388 80.8161H256.06L250.812 92.0801H228.412V88.7521L268.732 1.32812H278.588L319.036 88.7521V92.0801H296.636ZM283.964 61.2321L273.596 37.6801L263.484 61.2321H283.964Z" fill="#F85F37"/>
<path d="M216.8 2.48047V92.0805C208.992 92.0805 201.184 92.0805 193.376 92.0805V56.1125H165.728V92.0805C157.92 92.0805 149.984 92.0805 142.304 92.0805V2.48047C149.984 2.48047 157.92 2.48047 165.728 2.48047V34.9925H193.376V2.48047C201.184 2.48047 208.992 2.48047 216.8 2.48047Z" fill="#F85F37"/>
<path d="M0.924805 47.281C1.0528 16.817 24.0928 1.45703 46.8768 1.45703C65.4368 1.45703 85.5328 11.569 88.9888 35.505C81.1808 35.505 74.2688 35.505 66.4608 35.505C63.2608 26.417 56.4768 22.321 46.8768 22.321C33.4368 22.321 24.6048 32.433 24.6048 47.281C24.6048 60.465 33.3088 71.985 46.8768 72.113C56.6048 72.113 64.4128 67.249 66.8448 57.649C74.5248 57.649 81.5648 57.649 89.3728 57.649C86.0448 82.993 65.9488 92.977 46.8768 92.977C24.0928 93.105 1.0528 77.745 0.924805 47.281Z" fill="#F85F37"/>
</svg>
