<svg width="182" height="19" viewBox="0 0 182 19" fill="none" xmlns="http://www.w3.org/2000/svg">
<path d="M175.618 15.2008C174.512 15.2008 173.512 14.9208 172.618 14.3608C171.738 13.8008 171.045 12.9874 170.538 11.9208C170.032 10.8408 169.778 9.53412 169.778 8.00078C169.778 6.46745 170.032 5.16745 170.538 4.10078C171.045 3.02078 171.738 2.20078 172.618 1.64078C173.512 1.08078 174.512 0.800781 175.618 0.800781C176.738 0.800781 177.738 1.08078 178.618 1.64078C179.498 2.20078 180.192 3.02078 180.698 4.10078C181.218 5.16745 181.478 6.46745 181.478 8.00078C181.478 9.53412 181.218 10.8408 180.698 11.9208C180.192 12.9874 179.498 13.8008 178.618 14.3608C177.738 14.9208 176.738 15.2008 175.618 15.2008ZM175.618 12.9408C176.272 12.9408 176.838 12.7674 177.318 12.4208C177.798 12.0608 178.172 11.5141 178.438 10.7808C178.718 10.0474 178.858 9.12078 178.858 8.00078C178.858 6.86745 178.718 5.94078 178.438 5.22078C178.172 4.48745 177.798 3.94745 177.318 3.60078C176.838 3.24078 176.272 3.06078 175.618 3.06078C174.992 3.06078 174.432 3.24078 173.938 3.60078C173.458 3.94745 173.078 4.48745 172.798 5.22078C172.532 5.94078 172.398 6.86745 172.398 8.00078C172.398 9.12078 172.532 10.0474 172.798 10.7808C173.078 11.5141 173.458 12.0608 173.938 12.4208C174.432 12.7674 174.992 12.9408 175.618 12.9408Z" fill="#163C51"/>
<path d="M162.161 15.2008C161.055 15.2008 160.055 14.9208 159.161 14.3608C158.281 13.8008 157.588 12.9874 157.081 11.9208C156.575 10.8408 156.321 9.53412 156.321 8.00078C156.321 6.46745 156.575 5.16745 157.081 4.10078C157.588 3.02078 158.281 2.20078 159.161 1.64078C160.055 1.08078 161.055 0.800781 162.161 0.800781C163.281 0.800781 164.281 1.08078 165.161 1.64078C166.041 2.20078 166.735 3.02078 167.241 4.10078C167.761 5.16745 168.021 6.46745 168.021 8.00078C168.021 9.53412 167.761 10.8408 167.241 11.9208C166.735 12.9874 166.041 13.8008 165.161 14.3608C164.281 14.9208 163.281 15.2008 162.161 15.2008ZM162.161 12.9408C162.815 12.9408 163.381 12.7674 163.861 12.4208C164.341 12.0608 164.715 11.5141 164.981 10.7808C165.261 10.0474 165.401 9.12078 165.401 8.00078C165.401 6.86745 165.261 5.94078 164.981 5.22078C164.715 4.48745 164.341 3.94745 163.861 3.60078C163.381 3.24078 162.815 3.06078 162.161 3.06078C161.535 3.06078 160.975 3.24078 160.481 3.60078C160.001 3.94745 159.621 4.48745 159.341 5.22078C159.075 5.94078 158.941 6.86745 158.941 8.00078C158.941 9.12078 159.075 10.0474 159.341 10.7808C159.621 11.5141 160.001 12.0608 160.481 12.4208C160.975 12.7674 161.535 12.9408 162.161 12.9408Z" fill="#163C51"/>
<path d="M152.998 7.52117C152.545 7.52117 152.158 7.36784 151.838 7.06117C151.518 6.74117 151.358 6.34117 151.358 5.86117C151.358 5.35451 151.518 4.95451 151.838 4.66117C152.158 4.35451 152.545 4.20117 152.998 4.20117C153.452 4.20117 153.838 4.35451 154.158 4.66117C154.478 4.95451 154.638 5.35451 154.638 5.86117C154.638 6.34117 154.478 6.74117 154.158 7.06117C153.838 7.36784 153.452 7.52117 152.998 7.52117ZM152.998 15.1412C152.545 15.1412 152.158 14.9878 151.838 14.6812C151.518 14.3612 151.358 13.9612 151.358 13.4812C151.358 12.9745 151.518 12.5745 151.838 12.2812C152.158 11.9745 152.545 11.8212 152.998 11.8212C153.452 11.8212 153.838 11.9745 154.158 12.2812C154.478 12.5745 154.638 12.9745 154.638 13.4812C154.638 13.9612 154.478 14.3612 154.158 14.6812C153.838 14.9878 153.452 15.1412 152.998 15.1412Z" fill="#163C51"/>
<path d="M144.197 15.2C143.211 15.2 142.244 15.06 141.298 14.78C140.364 14.4867 139.578 14.0867 138.938 13.58L140.057 11.56C140.564 11.9733 141.177 12.3067 141.897 12.56C142.617 12.8133 143.371 12.94 144.158 12.94C145.091 12.94 145.817 12.7533 146.337 12.38C146.857 11.9933 147.117 11.4733 147.117 10.82C147.117 10.18 146.877 9.67333 146.397 9.3C145.917 8.92667 145.144 8.74 144.077 8.74H142.798V6.96L146.798 2.2L147.137 3.18H139.617V1H149.158V2.74L145.158 7.5L143.798 6.7H144.577C146.297 6.7 147.584 7.08667 148.438 7.86C149.304 8.62 149.738 9.6 149.738 10.8C149.738 11.5867 149.537 12.3133 149.137 12.98C148.737 13.6467 148.124 14.1867 147.298 14.6C146.484 15 145.451 15.2 144.197 15.2Z" fill="#163C51"/>
<path d="M134.421 15V2L135.561 3.18H131.461V1H137.021V15H134.421Z" fill="#163C51"/>
<path d="M125.096 10.4804V8.40039H130.596V10.4804H125.096Z" fill="#163C51"/>
<path d="M117.161 15.2008C116.055 15.2008 115.055 14.9208 114.161 14.3608C113.281 13.8008 112.588 12.9874 112.081 11.9208C111.575 10.8408 111.321 9.53412 111.321 8.00078C111.321 6.46745 111.575 5.16745 112.081 4.10078C112.588 3.02078 113.281 2.20078 114.161 1.64078C115.055 1.08078 116.055 0.800781 117.161 0.800781C118.281 0.800781 119.281 1.08078 120.161 1.64078C121.041 2.20078 121.735 3.02078 122.241 4.10078C122.761 5.16745 123.021 6.46745 123.021 8.00078C123.021 9.53412 122.761 10.8408 122.241 11.9208C121.735 12.9874 121.041 13.8008 120.161 14.3608C119.281 14.9208 118.281 15.2008 117.161 15.2008ZM117.161 12.9408C117.815 12.9408 118.381 12.7674 118.861 12.4208C119.341 12.0608 119.715 11.5141 119.981 10.7808C120.261 10.0474 120.401 9.12078 120.401 8.00078C120.401 6.86745 120.261 5.94078 119.981 5.22078C119.715 4.48745 119.341 3.94745 118.861 3.60078C118.381 3.24078 117.815 3.06078 117.161 3.06078C116.535 3.06078 115.975 3.24078 115.481 3.60078C115.001 3.94745 114.621 4.48745 114.341 5.22078C114.075 5.94078 113.941 6.86745 113.941 8.00078C113.941 9.12078 114.075 10.0474 114.341 10.7808C114.621 11.5141 115.001 12.0608 115.481 12.4208C115.975 12.7674 116.535 12.9408 117.161 12.9408Z" fill="#163C51"/>
<path d="M103.704 15.2008C102.598 15.2008 101.598 14.9208 100.704 14.3608C99.8243 13.8008 99.1309 12.9874 98.6243 11.9208C98.1176 10.8408 97.8643 9.53412 97.8643 8.00078C97.8643 6.46745 98.1176 5.16745 98.6243 4.10078C99.1309 3.02078 99.8243 2.20078 100.704 1.64078C101.598 1.08078 102.598 0.800781 103.704 0.800781C104.824 0.800781 105.824 1.08078 106.704 1.64078C107.584 2.20078 108.278 3.02078 108.784 4.10078C109.304 5.16745 109.564 6.46745 109.564 8.00078C109.564 9.53412 109.304 10.8408 108.784 11.9208C108.278 12.9874 107.584 13.8008 106.704 14.3608C105.824 14.9208 104.824 15.2008 103.704 15.2008ZM103.704 12.9408C104.358 12.9408 104.924 12.7674 105.404 12.4208C105.884 12.0608 106.258 11.5141 106.524 10.7808C106.804 10.0474 106.944 9.12078 106.944 8.00078C106.944 6.86745 106.804 5.94078 106.524 5.22078C106.258 4.48745 105.884 3.94745 105.404 3.60078C104.924 3.24078 104.358 3.06078 103.704 3.06078C103.078 3.06078 102.518 3.24078 102.024 3.60078C101.544 3.94745 101.164 4.48745 100.884 5.22078C100.618 5.94078 100.484 6.86745 100.484 8.00078C100.484 9.12078 100.618 10.0474 100.884 10.7808C101.164 11.5141 101.544 12.0608 102.024 12.4208C102.518 12.7674 103.078 12.9408 103.704 12.9408Z" fill="#163C51"/>
<path d="M94.5414 7.52117C94.088 7.52117 93.7014 7.36784 93.3814 7.06117C93.0614 6.74117 92.9014 6.34117 92.9014 5.86117C92.9014 5.35451 93.0614 4.95451 93.3814 4.66117C93.7014 4.35451 94.088 4.20117 94.5414 4.20117C94.9947 4.20117 95.3814 4.35451 95.7014 4.66117C96.0214 4.95451 96.1814 5.35451 96.1814 5.86117C96.1814 6.34117 96.0214 6.74117 95.7014 7.06117C95.3814 7.36784 94.9947 7.52117 94.5414 7.52117ZM94.5414 15.1412C94.088 15.1412 93.7014 14.9878 93.3814 14.6812C93.0614 14.3612 92.9014 13.9612 92.9014 13.4812C92.9014 12.9745 93.0614 12.5745 93.3814 12.2812C93.7014 11.9745 94.088 11.8212 94.5414 11.8212C94.9947 11.8212 95.3814 11.9745 95.7014 12.2812C96.0214 12.5745 96.1814 12.9745 96.1814 13.4812C96.1814 13.9612 96.0214 14.3612 95.7014 14.6812C95.3814 14.9878 94.9947 15.1412 94.5414 15.1412Z" fill="#163C51"/>
<path d="M81.1611 15.0008V13.2608L86.7211 7.98078C87.1878 7.54078 87.5344 7.15412 87.7611 6.82078C87.9878 6.48745 88.1344 6.18078 88.2011 5.90078C88.2811 5.60745 88.3211 5.33412 88.3211 5.08078C88.3211 4.44078 88.1011 3.94745 87.6611 3.60078C87.2211 3.24078 86.5744 3.06078 85.7211 3.06078C85.0411 3.06078 84.4211 3.18078 83.8611 3.42078C83.3144 3.66078 82.8411 4.02745 82.4411 4.52078L80.6211 3.12078C81.1678 2.38745 81.9011 1.82078 82.8211 1.42078C83.7544 1.00745 84.7944 0.800781 85.9411 0.800781C86.9544 0.800781 87.8344 0.967448 88.5811 1.30078C89.3411 1.62078 89.9211 2.08078 90.3211 2.68078C90.7344 3.28078 90.9411 3.99411 90.9411 4.82078C90.9411 5.27411 90.8811 5.72745 90.7611 6.18078C90.6411 6.62078 90.4144 7.08745 90.0811 7.58078C89.7478 8.07411 89.2611 8.62745 88.6211 9.24078L83.8411 13.7808L83.3011 12.8008H91.4811V15.0008H81.1611Z" fill="#163C51"/>
<path d="M75.9639 15V2L77.1039 3.18H73.0039V1H78.5639V15H75.9639Z" fill="#163C51"/>
<path d="M63.8665 15.0004V11.2804L64.1665 11.6404H60.7865C59.3732 11.6404 58.2665 11.3404 57.4665 10.7404C56.6799 10.1404 56.2865 9.26706 56.2865 8.12039C56.2865 6.89372 56.7065 5.96706 57.5465 5.34039C58.3999 4.71372 59.5332 4.40039 60.9465 4.40039H65.5865V15.0004H63.8665ZM56.1865 15.0004L59.0665 10.9404H61.0465L58.2465 15.0004H56.1865ZM63.8665 10.6804V5.54039L64.1665 6.08039H61.0065C60.1265 6.08039 59.4465 6.24706 58.9665 6.58039C58.4865 6.90039 58.2465 7.43372 58.2465 8.18039C58.2465 9.56706 59.1399 10.2604 60.9265 10.2604H64.1665L63.8665 10.6804Z" fill="#F85F37"/>
<path d="M41.1289 15.0004V4.40039H43.1089L47.6689 12.2404H46.8689L51.5489 4.40039H53.3489V15.0004H51.6089V6.56039L51.9289 6.74039L47.6489 13.8004H46.8089L42.5089 6.60039L42.8889 6.52039V15.0004H41.1289Z" fill="#F85F37"/>
<path d="M33.2908 15.1208C32.1575 15.1208 31.1575 14.8874 30.2908 14.4208C29.4375 13.9541 28.7708 13.3141 28.2908 12.5008C27.8242 11.6874 27.5908 10.7541 27.5908 9.70078C27.5908 8.64745 27.8175 7.71412 28.2708 6.90078C28.7375 6.08745 29.3708 5.45412 30.1708 5.00078C30.9842 4.53411 31.8975 4.30078 32.9108 4.30078C33.9375 4.30078 34.8442 4.52745 35.6308 4.98078C36.4175 5.43412 37.0308 6.07412 37.4708 6.90078C37.9242 7.71412 38.1508 8.66745 38.1508 9.76078C38.1508 9.84078 38.1442 9.93412 38.1308 10.0408C38.1308 10.1474 38.1242 10.2474 38.1108 10.3408H29.0908V8.96078H37.1108L36.3308 9.44078C36.3442 8.76078 36.2042 8.15411 35.9108 7.62078C35.6175 7.08745 35.2108 6.67411 34.6908 6.38078C34.1842 6.07411 33.5908 5.92078 32.9108 5.92078C32.2442 5.92078 31.6508 6.07411 31.1308 6.38078C30.6108 6.67411 30.2042 7.09412 29.9108 7.64078C29.6175 8.17411 29.4708 8.78745 29.4708 9.48078V9.80078C29.4708 10.5074 29.6308 11.1408 29.9508 11.7008C30.2842 12.2474 30.7442 12.6741 31.3308 12.9808C31.9175 13.2874 32.5908 13.4408 33.3508 13.4408C33.9775 13.4408 34.5442 13.3341 35.0508 13.1208C35.5708 12.9074 36.0242 12.5874 36.4108 12.1608L37.4708 13.4008C36.9908 13.9608 36.3908 14.3874 35.6708 14.6808C34.9642 14.9741 34.1708 15.1208 33.2908 15.1208Z" fill="#F85F37"/>
<path d="M20.4208 15.1208C19.5408 15.1208 18.7341 14.9208 18.0008 14.5208C17.2808 14.1074 16.7008 13.5008 16.2608 12.7008C15.8341 11.9008 15.6208 10.9008 15.6208 9.70078C15.6208 8.50078 15.8274 7.50078 16.2408 6.70078C16.6674 5.90078 17.2408 5.30078 17.9608 4.90078C18.6941 4.50078 19.5141 4.30078 20.4208 4.30078C21.4608 4.30078 22.3808 4.52745 23.1808 4.98078C23.9808 5.43412 24.6141 6.06745 25.0808 6.88078C25.5474 7.68078 25.7808 8.62078 25.7808 9.70078C25.7808 10.7808 25.5474 11.7274 25.0808 12.5408C24.6141 13.3541 23.9808 13.9874 23.1808 14.4408C22.3808 14.8941 21.4608 15.1208 20.4208 15.1208ZM14.8008 18.8808V4.40078H16.6408V7.26078L16.5208 9.72078L16.7208 12.1808V18.8808H14.8008ZM20.2608 13.4408C20.9408 13.4408 21.5474 13.2874 22.0808 12.9808C22.6274 12.6741 23.0541 12.2408 23.3608 11.6808C23.6808 11.1074 23.8408 10.4474 23.8408 9.70078C23.8408 8.94078 23.6808 8.28745 23.3608 7.74078C23.0541 7.18078 22.6274 6.74745 22.0808 6.44078C21.5474 6.13411 20.9408 5.98078 20.2608 5.98078C19.5941 5.98078 18.9874 6.13411 18.4408 6.44078C17.9074 6.74745 17.4808 7.18078 17.1608 7.74078C16.8541 8.28745 16.7008 8.94078 16.7008 9.70078C16.7008 10.4474 16.8541 11.1074 17.1608 11.6808C17.4808 12.2408 17.9074 12.6741 18.4408 12.9808C18.9874 13.2874 19.5941 13.4408 20.2608 13.4408Z" fill="#F85F37"/>
<path d="M0.179688 15V1H6.19969C7.71969 1 8.91302 1.30666 9.77969 1.92C10.6464 2.53333 11.0797 3.42667 11.0797 4.6C11.0797 5.74667 10.6664 6.62666 9.83969 7.24C9.01302 7.84 7.92635 8.14 6.57969 8.14L6.93969 7.54C8.49969 7.54 9.69302 7.85333 10.5197 8.48C11.3597 9.09333 11.7797 9.99333 11.7797 11.18C11.7797 12.38 11.3397 13.32 10.4597 14C9.59302 14.6667 8.29969 15 6.57969 15H0.179688ZM2.15969 13.42H6.53969C7.60635 13.42 8.40635 13.2267 8.93969 12.84C9.48635 12.44 9.75969 11.8333 9.75969 11.02C9.75969 10.2067 9.48635 9.61333 8.93969 9.24C8.40635 8.86666 7.60635 8.68 6.53969 8.68H2.15969V13.42ZM2.15969 7.16H6.05969C7.03302 7.16 7.77302 6.96667 8.27969 6.58C8.79969 6.19333 9.05969 5.62667 9.05969 4.88C9.05969 4.12 8.79969 3.54667 8.27969 3.16C7.77302 2.77333 7.03302 2.58 6.05969 2.58H2.15969V7.16Z" fill="#F85F37"/>
</svg>
