<svg width="652" height="60" viewBox="0 0 652 60" fill="none" xmlns="http://www.w3.org/2000/svg">
<path d="M624.949 16.0809H612.229C612.015 11.1743 613.589 7.44094 616.949 4.88094C620.362 2.2676 624.682 0.960938 629.909 0.960938C635.722 0.960938 640.229 2.56094 643.429 5.76094C646.682 8.96094 648.309 12.7743 648.309 17.2009C648.309 19.1209 647.882 21.0409 647.029 22.9609C646.175 24.8809 644.975 26.4276 643.429 27.6009C648.815 30.4809 651.509 35.0943 651.509 41.4409C651.509 46.6143 649.642 50.8543 645.909 54.1609C642.175 57.4143 636.842 59.0409 629.909 59.0409C623.775 59.0409 618.975 57.3876 615.509 54.0809C612.042 50.7209 610.309 45.9476 610.309 39.7609H622.869C622.869 41.9476 623.509 43.7076 624.789 45.0409C626.122 46.3209 627.829 46.9609 629.909 46.9609C632.149 46.9609 633.909 46.2943 635.189 44.9609C636.522 43.6276 637.189 42.1876 637.189 40.6409C637.189 39.0409 636.522 37.5743 635.189 36.2409C633.909 34.9076 632.149 34.2409 629.909 34.2409H625.989V22.5609H629.749C631.935 22.5609 633.482 21.7609 634.389 20.1609C635.295 18.5076 635.295 16.8809 634.389 15.2809C633.535 13.6276 632.042 12.8009 629.909 12.8009C626.602 12.8009 624.949 13.8943 624.949 16.0809Z" fill="#F85F37"/>
<path d="M600.825 19.2C600.825 20.9067 600.425 22.6667 599.625 24.48C598.825 26.2933 597.758 27.76 596.425 28.88C600.905 31.1733 603.145 34.9867 603.145 40.32C603.091 45.44 601.545 49.68 598.505 53.04C595.465 56.3467 591.198 58 585.705 58H559.465V2H583.385C588.238 2 592.345 3.68 595.705 7.04C599.118 10.3467 600.825 14.4 600.825 19.2ZM584.665 35.76H573.305V45.28H584.745C586.558 45.28 587.811 44.5067 588.505 42.96C589.251 41.36 589.251 39.76 588.505 38.16C587.758 36.56 586.478 35.76 584.665 35.76ZM582.265 14.8H573.305V23.84H582.345C584.158 23.84 585.412 23.0933 586.105 21.6C586.852 20.0533 586.852 18.5333 586.105 17.04C585.358 15.5467 584.078 14.8 582.265 14.8Z" fill="#F85F37"/>
<path d="M546.219 17.441C547.872 21.1744 548.699 25.3877 548.699 30.081C548.699 34.7743 547.872 39.0144 546.219 42.801C544.565 46.5877 542.379 49.6543 539.659 52.001C536.992 54.2943 533.925 56.081 530.459 57.361C527.045 58.5877 523.552 59.201 519.979 59.201C516.405 59.201 512.885 58.5877 509.419 57.361C506.005 56.081 502.939 54.2943 500.219 52.001C497.552 49.6543 495.392 46.5877 493.739 42.801C492.085 39.0144 491.259 34.7743 491.259 30.081C491.259 25.3877 492.085 21.1744 493.739 17.441C495.392 13.6543 497.552 10.6143 500.219 8.32101C502.939 5.97435 506.005 4.18768 509.419 2.96101C512.885 1.68102 516.405 1.04102 519.979 1.04102C523.552 1.04102 527.045 1.68102 530.459 2.96101C533.925 4.18768 536.992 5.97435 539.659 8.32101C542.379 10.6143 544.565 13.6543 546.219 17.441ZM505.979 30.081C505.979 33.3343 506.672 36.161 508.059 38.561C509.445 40.9077 511.179 42.6143 513.259 43.681C515.339 44.7477 517.579 45.281 519.979 45.281C522.432 45.281 524.699 44.7477 526.779 43.681C528.859 42.6143 530.592 40.9077 531.979 38.561C533.365 36.161 534.059 33.3343 534.059 30.081C534.059 26.881 533.365 24.1077 531.979 21.761C530.592 19.361 528.859 17.6543 526.779 16.641C524.699 15.5744 522.432 15.041 519.979 15.041C517.579 15.041 515.339 15.5744 513.259 16.641C511.179 17.6543 509.445 19.361 508.059 21.761C506.672 24.1077 505.979 26.881 505.979 30.081Z" fill="#F85F37"/>
<path d="M408.897 42.4813C407.244 38.748 406.417 34.588 406.417 30.0013C406.417 25.4147 407.244 21.2547 408.897 17.5213C410.55 13.788 412.737 10.7747 415.457 8.48133C418.23 6.18799 421.297 4.42799 424.657 3.20132C428.017 1.97466 431.51 1.36133 435.137 1.36133C441.537 1.36133 447.27 3.17466 452.337 6.80132C457.404 10.3747 460.444 15.6547 461.457 22.6413H447.377C445.457 17.148 441.377 14.4013 435.137 14.4013C430.977 14.4013 427.617 15.8413 425.057 18.7213C422.497 21.6013 421.217 25.3613 421.217 30.0013C421.217 34.268 422.497 37.9213 425.057 40.9613C427.67 43.948 431.03 45.468 435.137 45.5213C438.284 45.5213 440.95 44.748 443.137 43.2013C445.377 41.6547 446.87 39.4147 447.617 36.4813H461.697C461.057 41.4947 459.324 45.7347 456.497 49.2013C453.724 52.6147 450.524 55.0413 446.897 56.4813C443.27 57.868 439.35 58.5613 435.137 58.5613C431.51 58.5613 428.017 57.9747 424.657 56.8013C421.297 55.5747 418.23 53.8147 415.457 51.5213C412.737 49.228 410.55 46.2147 408.897 42.4813Z" fill="#F85F37"/>
<path d="M345.746 58H331.186V2H345.746V23.2H346.786C348.706 23.2 350.386 22.9867 351.826 22.56C353.319 22.1333 354.519 21.6533 355.426 21.12C356.386 20.5333 357.186 19.6533 357.826 18.48C358.519 17.3067 359.026 16.32 359.346 15.52C359.666 14.6667 359.906 13.3867 360.066 11.68C360.226 9.97334 360.306 8.66667 360.306 7.76C360.359 6.85333 360.386 5.41333 360.386 3.44C360.386 2.8 360.386 2.32 360.386 2H375.106C375.106 9.36 374.759 14.5333 374.066 17.52C372.679 23.3333 369.426 27.8667 364.306 31.12L379.506 55.76V58H363.586L351.266 36.32C349.986 36.5333 348.146 36.64 345.746 36.64V58Z" fill="#F85F37"/>
<path d="M318.097 2V14.8H297.377V22.72H316.417V35.44H297.377V45.28H318.817V58H283.137V2H318.097Z" fill="#F85F37"/>
<path d="M269.653 19.2C269.653 20.9067 269.253 22.6667 268.453 24.48C267.653 26.2933 266.586 27.76 265.253 28.88C269.733 31.1733 271.973 34.9867 271.973 40.32C271.92 45.44 270.373 49.68 267.333 53.04C264.293 56.3467 260.026 58 254.533 58H228.293V2H252.213C257.066 2 261.173 3.68 264.533 7.04C267.946 10.3467 269.653 14.4 269.653 19.2ZM253.493 35.76H242.133V45.28H253.573C255.386 45.28 256.64 44.5067 257.333 42.96C258.08 41.36 258.08 39.76 257.333 38.16C256.586 36.56 255.306 35.76 253.493 35.76ZM251.093 14.8H242.133V23.84H251.173C252.986 23.84 254.24 23.0933 254.933 21.6C255.68 20.0533 255.68 18.5333 254.933 17.04C254.186 15.5467 252.906 14.8 251.093 14.8Z" fill="#F85F37"/>
<path d="M215.047 17.441C216.7 21.1744 217.527 25.3877 217.527 30.081C217.527 34.7743 216.7 39.0144 215.047 42.801C213.394 46.5877 211.207 49.6543 208.487 52.001C205.82 54.2943 202.754 56.081 199.287 57.361C195.874 58.5877 192.38 59.201 188.807 59.201C185.234 59.201 181.714 58.5877 178.247 57.361C174.834 56.081 171.767 54.2943 169.047 52.001C166.38 49.6543 164.22 46.5877 162.567 42.801C160.914 39.0144 160.087 34.7743 160.087 30.081C160.087 25.3877 160.914 21.1744 162.567 17.441C164.22 13.6543 166.38 10.6143 169.047 8.32101C171.767 5.97435 174.834 4.18768 178.247 2.96101C181.714 1.68102 185.234 1.04102 188.807 1.04102C192.38 1.04102 195.874 1.68102 199.287 2.96101C202.754 4.18768 205.82 5.97435 208.487 8.32101C211.207 10.6143 213.394 13.6543 215.047 17.441ZM174.807 30.081C174.807 33.3343 175.5 36.161 176.887 38.561C178.274 40.9077 180.007 42.6143 182.087 43.681C184.167 44.7477 186.407 45.281 188.807 45.281C191.26 45.281 193.527 44.7477 195.607 43.681C197.687 42.6143 199.42 40.9077 200.807 38.561C202.194 36.161 202.887 33.3343 202.887 30.081C202.887 26.881 202.194 24.1077 200.807 21.761C199.42 19.361 197.687 17.6543 195.607 16.641C193.527 15.5744 191.26 15.041 188.807 15.041C186.407 15.041 184.167 15.5744 182.087 16.641C180.007 17.6543 178.274 19.361 176.887 21.761C175.5 24.1077 174.807 26.881 174.807 30.081Z" fill="#F85F37"/>
<path d="M127.774 25.2013L113.534 58.0013H99.5342V55.9213L124.734 1.28125H130.894L156.174 55.9213V58.0013H142.174L127.774 25.2013Z" fill="#F85F37"/>
<path d="M93.5655 2V14.8H72.8455V22.72H91.8855V35.44H72.8455V45.28H94.2855V58H58.6055V2H93.5655Z" fill="#F85F37"/>
<path d="M44.3438 58H29.7838V38.48H26.9038C17.4105 38.48 10.6105 36.08 6.50383 31.28C2.45049 26.48 0.423828 19.0133 0.423828 8.88V2H15.1438V8.88C15.1438 11.12 15.1972 12.9333 15.3038 14.32C15.4105 15.6533 15.6772 17.0667 16.1038 18.56C16.5305 20.0533 17.1438 21.2267 17.9438 22.08C18.7972 22.88 19.9705 23.5467 21.4638 24.08C22.9572 24.6133 24.7972 24.88 26.9838 24.88H29.7838V2H44.3438V58Z" fill="#F85F37"/>
</svg>
