<svg width="184" height="19" viewBox="0 0 184 19" fill="none" xmlns="http://www.w3.org/2000/svg">
<path d="M177.689 15.2008C176.582 15.2008 175.582 14.9208 174.689 14.3608C173.809 13.8008 173.115 12.9874 172.609 11.9208C172.102 10.8408 171.849 9.53412 171.849 8.00078C171.849 6.46745 172.102 5.16745 172.609 4.10078C173.115 3.02078 173.809 2.20078 174.689 1.64078C175.582 1.08078 176.582 0.800781 177.689 0.800781C178.809 0.800781 179.809 1.08078 180.689 1.64078C181.569 2.20078 182.262 3.02078 182.769 4.10078C183.289 5.16745 183.549 6.46745 183.549 8.00078C183.549 9.53412 183.289 10.8408 182.769 11.9208C182.262 12.9874 181.569 13.8008 180.689 14.3608C179.809 14.9208 178.809 15.2008 177.689 15.2008ZM177.689 12.9408C178.342 12.9408 178.909 12.7674 179.389 12.4208C179.869 12.0608 180.242 11.5141 180.509 10.7808C180.789 10.0474 180.929 9.12078 180.929 8.00078C180.929 6.86745 180.789 5.94078 180.509 5.22078C180.242 4.48745 179.869 3.94745 179.389 3.60078C178.909 3.24078 178.342 3.06078 177.689 3.06078C177.062 3.06078 176.502 3.24078 176.009 3.60078C175.529 3.94745 175.149 4.48745 174.869 5.22078C174.602 5.94078 174.469 6.86745 174.469 8.00078C174.469 9.12078 174.602 10.0474 174.869 10.7808C175.149 11.5141 175.529 12.0608 176.009 12.4208C176.502 12.7674 177.062 12.9408 177.689 12.9408Z" fill="#163C51"/>
<path d="M164.232 15.2008C163.125 15.2008 162.125 14.9208 161.232 14.3608C160.352 13.8008 159.658 12.9874 159.152 11.9208C158.645 10.8408 158.392 9.53412 158.392 8.00078C158.392 6.46745 158.645 5.16745 159.152 4.10078C159.658 3.02078 160.352 2.20078 161.232 1.64078C162.125 1.08078 163.125 0.800781 164.232 0.800781C165.352 0.800781 166.352 1.08078 167.232 1.64078C168.112 2.20078 168.805 3.02078 169.312 4.10078C169.832 5.16745 170.092 6.46745 170.092 8.00078C170.092 9.53412 169.832 10.8408 169.312 11.9208C168.805 12.9874 168.112 13.8008 167.232 14.3608C166.352 14.9208 165.352 15.2008 164.232 15.2008ZM164.232 12.9408C164.885 12.9408 165.452 12.7674 165.932 12.4208C166.412 12.0608 166.785 11.5141 167.052 10.7808C167.332 10.0474 167.472 9.12078 167.472 8.00078C167.472 6.86745 167.332 5.94078 167.052 5.22078C166.785 4.48745 166.412 3.94745 165.932 3.60078C165.452 3.24078 164.885 3.06078 164.232 3.06078C163.605 3.06078 163.045 3.24078 162.552 3.60078C162.072 3.94745 161.692 4.48745 161.412 5.22078C161.145 5.94078 161.012 6.86745 161.012 8.00078C161.012 9.12078 161.145 10.0474 161.412 10.7808C161.692 11.5141 162.072 12.0608 162.552 12.4208C163.045 12.7674 163.605 12.9408 164.232 12.9408Z" fill="#163C51"/>
<path d="M155.069 7.52117C154.615 7.52117 154.229 7.36784 153.909 7.06117C153.589 6.74117 153.429 6.34117 153.429 5.86117C153.429 5.35451 153.589 4.95451 153.909 4.66117C154.229 4.35451 154.615 4.20117 155.069 4.20117C155.522 4.20117 155.909 4.35451 156.229 4.66117C156.549 4.95451 156.709 5.35451 156.709 5.86117C156.709 6.34117 156.549 6.74117 156.229 7.06117C155.909 7.36784 155.522 7.52117 155.069 7.52117ZM155.069 15.1412C154.615 15.1412 154.229 14.9878 153.909 14.6812C153.589 14.3612 153.429 13.9612 153.429 13.4812C153.429 12.9745 153.589 12.5745 153.909 12.2812C154.229 11.9745 154.615 11.8212 155.069 11.8212C155.522 11.8212 155.909 11.9745 156.229 12.2812C156.549 12.5745 156.709 12.9745 156.709 13.4812C156.709 13.9612 156.549 14.3612 156.229 14.6812C155.909 14.9878 155.522 15.1412 155.069 15.1412Z" fill="#163C51"/>
<path d="M139.598 11.82V10.02L146.498 1H149.278L142.478 10.02L141.178 9.62H152.278V11.82H139.598ZM147.278 15V11.82L147.358 9.62V6.8H149.798V15H147.278Z" fill="#163C51"/>
<path d="M134.421 15V2L135.561 3.18H131.461V1H137.021V15H134.421Z" fill="#163C51"/>
<path d="M125.096 10.4804V8.40039H130.596V10.4804H125.096Z" fill="#163C51"/>
<path d="M117.161 15.2008C116.055 15.2008 115.055 14.9208 114.161 14.3608C113.281 13.8008 112.588 12.9874 112.081 11.9208C111.575 10.8408 111.321 9.53412 111.321 8.00078C111.321 6.46745 111.575 5.16745 112.081 4.10078C112.588 3.02078 113.281 2.20078 114.161 1.64078C115.055 1.08078 116.055 0.800781 117.161 0.800781C118.281 0.800781 119.281 1.08078 120.161 1.64078C121.041 2.20078 121.735 3.02078 122.241 4.10078C122.761 5.16745 123.021 6.46745 123.021 8.00078C123.021 9.53412 122.761 10.8408 122.241 11.9208C121.735 12.9874 121.041 13.8008 120.161 14.3608C119.281 14.9208 118.281 15.2008 117.161 15.2008ZM117.161 12.9408C117.815 12.9408 118.381 12.7674 118.861 12.4208C119.341 12.0608 119.715 11.5141 119.981 10.7808C120.261 10.0474 120.401 9.12078 120.401 8.00078C120.401 6.86745 120.261 5.94078 119.981 5.22078C119.715 4.48745 119.341 3.94745 118.861 3.60078C118.381 3.24078 117.815 3.06078 117.161 3.06078C116.535 3.06078 115.975 3.24078 115.481 3.60078C115.001 3.94745 114.621 4.48745 114.341 5.22078C114.075 5.94078 113.941 6.86745 113.941 8.00078C113.941 9.12078 114.075 10.0474 114.341 10.7808C114.621 11.5141 115.001 12.0608 115.481 12.4208C115.975 12.7674 116.535 12.9408 117.161 12.9408Z" fill="#163C51"/>
<path d="M103.704 15.2008C102.598 15.2008 101.598 14.9208 100.704 14.3608C99.8243 13.8008 99.1309 12.9874 98.6243 11.9208C98.1176 10.8408 97.8643 9.53412 97.8643 8.00078C97.8643 6.46745 98.1176 5.16745 98.6243 4.10078C99.1309 3.02078 99.8243 2.20078 100.704 1.64078C101.598 1.08078 102.598 0.800781 103.704 0.800781C104.824 0.800781 105.824 1.08078 106.704 1.64078C107.584 2.20078 108.278 3.02078 108.784 4.10078C109.304 5.16745 109.564 6.46745 109.564 8.00078C109.564 9.53412 109.304 10.8408 108.784 11.9208C108.278 12.9874 107.584 13.8008 106.704 14.3608C105.824 14.9208 104.824 15.2008 103.704 15.2008ZM103.704 12.9408C104.358 12.9408 104.924 12.7674 105.404 12.4208C105.884 12.0608 106.258 11.5141 106.524 10.7808C106.804 10.0474 106.944 9.12078 106.944 8.00078C106.944 6.86745 106.804 5.94078 106.524 5.22078C106.258 4.48745 105.884 3.94745 105.404 3.60078C104.924 3.24078 104.358 3.06078 103.704 3.06078C103.078 3.06078 102.518 3.24078 102.024 3.60078C101.544 3.94745 101.164 4.48745 100.884 5.22078C100.618 5.94078 100.484 6.86745 100.484 8.00078C100.484 9.12078 100.618 10.0474 100.884 10.7808C101.164 11.5141 101.544 12.0608 102.024 12.4208C102.518 12.7674 103.078 12.9408 103.704 12.9408Z" fill="#163C51"/>
<path d="M94.5414 7.52117C94.088 7.52117 93.7014 7.36784 93.3814 7.06117C93.0614 6.74117 92.9014 6.34117 92.9014 5.86117C92.9014 5.35451 93.0614 4.95451 93.3814 4.66117C93.7014 4.35451 94.088 4.20117 94.5414 4.20117C94.9947 4.20117 95.3814 4.35451 95.7014 4.66117C96.0214 4.95451 96.1814 5.35451 96.1814 5.86117C96.1814 6.34117 96.0214 6.74117 95.7014 7.06117C95.3814 7.36784 94.9947 7.52117 94.5414 7.52117ZM94.5414 15.1412C94.088 15.1412 93.7014 14.9878 93.3814 14.6812C93.0614 14.3612 92.9014 13.9612 92.9014 13.4812C92.9014 12.9745 93.0614 12.5745 93.3814 12.2812C93.7014 11.9745 94.088 11.8212 94.5414 11.8212C94.9947 11.8212 95.3814 11.9745 95.7014 12.2812C96.0214 12.5745 96.1814 12.9745 96.1814 13.4812C96.1814 13.9612 96.0214 14.3612 95.7014 14.6812C95.3814 14.9878 94.9947 15.1412 94.5414 15.1412Z" fill="#163C51"/>
<path d="M85.7405 15.2C84.7538 15.2 83.7871 15.06 82.8405 14.78C81.9071 14.4867 81.1205 14.0867 80.4805 13.58L81.6005 11.56C82.1071 11.9733 82.7205 12.3067 83.4405 12.56C84.1605 12.8133 84.9138 12.94 85.7005 12.94C86.6338 12.94 87.3605 12.7533 87.8805 12.38C88.4005 11.9933 88.6605 11.4733 88.6605 10.82C88.6605 10.18 88.4205 9.67333 87.9405 9.3C87.4605 8.92667 86.6871 8.74 85.6205 8.74H84.3405V6.96L88.3405 2.2L88.6805 3.18H81.1605V1H90.7005V2.74L86.7005 7.5L85.3405 6.7H86.1205C87.8405 6.7 89.1271 7.08667 89.9805 7.86C90.8471 8.62 91.2805 9.6 91.2805 10.8C91.2805 11.5867 91.0805 12.3133 90.6805 12.98C90.2805 13.6467 89.6671 14.1867 88.8405 14.6C88.0271 15 86.9938 15.2 85.7405 15.2Z" fill="#163C51"/>
<path d="M75.9639 15V2L77.1039 3.18H73.0039V1H78.5639V15H75.9639Z" fill="#163C51"/>
<path d="M63.8665 15.0004V11.2804L64.1665 11.6404H60.7865C59.3732 11.6404 58.2665 11.3404 57.4665 10.7404C56.6799 10.1404 56.2865 9.26706 56.2865 8.12039C56.2865 6.89372 56.7065 5.96706 57.5465 5.34039C58.3999 4.71372 59.5332 4.40039 60.9465 4.40039H65.5865V15.0004H63.8665ZM56.1865 15.0004L59.0665 10.9404H61.0465L58.2465 15.0004H56.1865ZM63.8665 10.6804V5.54039L64.1665 6.08039H61.0065C60.1265 6.08039 59.4465 6.24706 58.9665 6.58039C58.4865 6.90039 58.2465 7.43372 58.2465 8.18039C58.2465 9.56706 59.1399 10.2604 60.9265 10.2604H64.1665L63.8665 10.6804Z" fill="#F85F37"/>
<path d="M41.1289 15.0004V4.40039H43.1089L47.6689 12.2404H46.8689L51.5489 4.40039H53.3489V15.0004H51.6089V6.56039L51.9289 6.74039L47.6489 13.8004H46.8089L42.5089 6.60039L42.8889 6.52039V15.0004H41.1289Z" fill="#F85F37"/>
<path d="M33.2908 15.1208C32.1575 15.1208 31.1575 14.8874 30.2908 14.4208C29.4375 13.9541 28.7708 13.3141 28.2908 12.5008C27.8242 11.6874 27.5908 10.7541 27.5908 9.70078C27.5908 8.64745 27.8175 7.71412 28.2708 6.90078C28.7375 6.08745 29.3708 5.45412 30.1708 5.00078C30.9842 4.53411 31.8975 4.30078 32.9108 4.30078C33.9375 4.30078 34.8442 4.52745 35.6308 4.98078C36.4175 5.43412 37.0308 6.07412 37.4708 6.90078C37.9242 7.71412 38.1508 8.66745 38.1508 9.76078C38.1508 9.84078 38.1442 9.93412 38.1308 10.0408C38.1308 10.1474 38.1242 10.2474 38.1108 10.3408H29.0908V8.96078H37.1108L36.3308 9.44078C36.3442 8.76078 36.2042 8.15411 35.9108 7.62078C35.6175 7.08745 35.2108 6.67411 34.6908 6.38078C34.1842 6.07411 33.5908 5.92078 32.9108 5.92078C32.2442 5.92078 31.6508 6.07411 31.1308 6.38078C30.6108 6.67411 30.2042 7.09412 29.9108 7.64078C29.6175 8.17411 29.4708 8.78745 29.4708 9.48078V9.80078C29.4708 10.5074 29.6308 11.1408 29.9508 11.7008C30.2842 12.2474 30.7442 12.6741 31.3308 12.9808C31.9175 13.2874 32.5908 13.4408 33.3508 13.4408C33.9775 13.4408 34.5442 13.3341 35.0508 13.1208C35.5708 12.9074 36.0242 12.5874 36.4108 12.1608L37.4708 13.4008C36.9908 13.9608 36.3908 14.3874 35.6708 14.6808C34.9642 14.9741 34.1708 15.1208 33.2908 15.1208Z" fill="#F85F37"/>
<path d="M20.4208 15.1208C19.5408 15.1208 18.7341 14.9208 18.0008 14.5208C17.2808 14.1074 16.7008 13.5008 16.2608 12.7008C15.8341 11.9008 15.6208 10.9008 15.6208 9.70078C15.6208 8.50078 15.8274 7.50078 16.2408 6.70078C16.6674 5.90078 17.2408 5.30078 17.9608 4.90078C18.6941 4.50078 19.5141 4.30078 20.4208 4.30078C21.4608 4.30078 22.3808 4.52745 23.1808 4.98078C23.9808 5.43412 24.6141 6.06745 25.0808 6.88078C25.5474 7.68078 25.7808 8.62078 25.7808 9.70078C25.7808 10.7808 25.5474 11.7274 25.0808 12.5408C24.6141 13.3541 23.9808 13.9874 23.1808 14.4408C22.3808 14.8941 21.4608 15.1208 20.4208 15.1208ZM14.8008 18.8808V4.40078H16.6408V7.26078L16.5208 9.72078L16.7208 12.1808V18.8808H14.8008ZM20.2608 13.4408C20.9408 13.4408 21.5474 13.2874 22.0808 12.9808C22.6274 12.6741 23.0541 12.2408 23.3608 11.6808C23.6808 11.1074 23.8408 10.4474 23.8408 9.70078C23.8408 8.94078 23.6808 8.28745 23.3608 7.74078C23.0541 7.18078 22.6274 6.74745 22.0808 6.44078C21.5474 6.13411 20.9408 5.98078 20.2608 5.98078C19.5941 5.98078 18.9874 6.13411 18.4408 6.44078C17.9074 6.74745 17.4808 7.18078 17.1608 7.74078C16.8541 8.28745 16.7008 8.94078 16.7008 9.70078C16.7008 10.4474 16.8541 11.1074 17.1608 11.6808C17.4808 12.2408 17.9074 12.6741 18.4408 12.9808C18.9874 13.2874 19.5941 13.4408 20.2608 13.4408Z" fill="#F85F37"/>
<path d="M0.179688 15V1H6.19969C7.71969 1 8.91302 1.30666 9.77969 1.92C10.6464 2.53333 11.0797 3.42667 11.0797 4.6C11.0797 5.74667 10.6664 6.62666 9.83969 7.24C9.01302 7.84 7.92635 8.14 6.57969 8.14L6.93969 7.54C8.49969 7.54 9.69302 7.85333 10.5197 8.48C11.3597 9.09333 11.7797 9.99333 11.7797 11.18C11.7797 12.38 11.3397 13.32 10.4597 14C9.59302 14.6667 8.29969 15 6.57969 15H0.179688ZM2.15969 13.42H6.53969C7.60635 13.42 8.40635 13.2267 8.93969 12.84C9.48635 12.44 9.75969 11.8333 9.75969 11.02C9.75969 10.2067 9.48635 9.61333 8.93969 9.24C8.40635 8.86666 7.60635 8.68 6.53969 8.68H2.15969V13.42ZM2.15969 7.16H6.05969C7.03302 7.16 7.77302 6.96667 8.27969 6.58C8.79969 6.19333 9.05969 5.62667 9.05969 4.88C9.05969 4.12 8.79969 3.54667 8.27969 3.16C7.77302 2.77333 7.03302 2.58 6.05969 2.58H2.15969V7.16Z" fill="#F85F37"/>
</svg>
