<svg width="323" height="18" viewBox="0 0 323 18" fill="none" xmlns="http://www.w3.org/2000/svg">
<path d="M320.285 13.9992V11.8392L320.145 11.3792V7.59922C320.145 6.86589 319.925 6.29922 319.485 5.89922C319.045 5.48589 318.379 5.27922 317.485 5.27922C316.885 5.27922 316.292 5.37255 315.705 5.55922C315.132 5.74589 314.645 6.00589 314.245 6.33922L313.265 4.51922C313.839 4.07922 314.519 3.75255 315.305 3.53922C316.105 3.31255 316.932 3.19922 317.785 3.19922C319.332 3.19922 320.525 3.57255 321.365 4.31922C322.219 5.05255 322.645 6.19255 322.645 7.73922V13.9992H320.285ZM316.925 14.1392C316.125 14.1392 315.425 14.0059 314.825 13.7392C314.225 13.4592 313.759 13.0792 313.425 12.5992C313.105 12.1059 312.945 11.5526 312.945 10.9392C312.945 10.3392 313.085 9.79922 313.365 9.31922C313.659 8.83922 314.132 8.45922 314.785 8.17922C315.439 7.89922 316.305 7.75922 317.385 7.75922H320.485V9.41922H317.565C316.712 9.41922 316.139 9.55922 315.845 9.83922C315.552 10.1059 315.405 10.4392 315.405 10.8392C315.405 11.2926 315.585 11.6526 315.945 11.9192C316.305 12.1859 316.805 12.3192 317.445 12.3192C318.059 12.3192 318.605 12.1792 319.085 11.8992C319.579 11.6192 319.932 11.2059 320.145 10.6592L320.565 12.1592C320.325 12.7859 319.892 13.2726 319.265 13.6192C318.652 13.9659 317.872 14.1392 316.925 14.1392Z" fill="#163C51"/>
<path d="M300.074 14.0003V3.32031H302.574V7.66031H307.954V3.32031H310.454V14.0003H307.954V9.78031H302.574V14.0003H300.074Z" fill="#163C51"/>
<path d="M286.031 14.0003V3.32031H288.531V10.3603L294.431 3.32031H296.711V14.0003H294.211V6.96031L288.331 14.0003H286.031Z" fill="#163C51"/>
<path d="M278.123 14.1392C277.256 14.1392 276.463 13.9392 275.743 13.5392C275.036 13.1392 274.47 12.5392 274.043 11.7392C273.63 10.9259 273.423 9.89922 273.423 8.65922C273.423 7.40589 273.623 6.37922 274.023 5.57922C274.436 4.77922 274.996 4.18589 275.703 3.79922C276.41 3.39922 277.216 3.19922 278.123 3.19922C279.176 3.19922 280.103 3.42589 280.903 3.87922C281.716 4.33255 282.356 4.96589 282.823 5.77922C283.303 6.59255 283.543 7.55255 283.543 8.65922C283.543 9.76589 283.303 10.7326 282.823 11.5592C282.356 12.3726 281.716 13.0059 280.903 13.4592C280.103 13.9126 279.176 14.1392 278.123 14.1392ZM272.203 17.8792V3.31922H274.583V5.83922L274.503 8.67922L274.703 11.5192V17.8792H272.203ZM277.843 11.9992C278.443 11.9992 278.976 11.8659 279.443 11.5992C279.923 11.3326 280.303 10.9459 280.583 10.4392C280.863 9.93255 281.003 9.33922 281.003 8.65922C281.003 7.96589 280.863 7.37255 280.583 6.87922C280.303 6.37255 279.923 5.98589 279.443 5.71922C278.976 5.45255 278.443 5.31922 277.843 5.31922C277.243 5.31922 276.703 5.45255 276.223 5.71922C275.743 5.98589 275.363 6.37255 275.083 6.87922C274.803 7.37255 274.663 7.96589 274.663 8.65922C274.663 9.33922 274.803 9.93255 275.083 10.4392C275.363 10.9459 275.743 11.3326 276.223 11.5992C276.703 11.8659 277.243 11.9992 277.843 11.9992Z" fill="#163C51"/>
<path d="M264.449 14.1392C263.262 14.1392 262.222 13.9059 261.329 13.4392C260.449 12.9592 259.762 12.3059 259.269 11.4792C258.789 10.6526 258.549 9.71255 258.549 8.65922C258.549 7.59255 258.782 6.65255 259.249 5.83922C259.729 5.01255 260.382 4.36589 261.209 3.89922C262.049 3.43255 263.002 3.19922 264.069 3.19922C265.109 3.19922 266.035 3.42589 266.849 3.87922C267.662 4.33255 268.302 4.97255 268.769 5.79922C269.235 6.62589 269.469 7.59922 269.469 8.71922C269.469 8.82589 269.462 8.94589 269.449 9.07922C269.449 9.21255 269.442 9.33922 269.429 9.45922H260.529V7.79922H268.109L267.129 8.31922C267.142 7.70589 267.015 7.16589 266.749 6.69922C266.482 6.23255 266.115 5.86589 265.649 5.59922C265.195 5.33255 264.669 5.19922 264.069 5.19922C263.455 5.19922 262.915 5.33255 262.449 5.59922C261.995 5.86589 261.635 6.23922 261.369 6.71922C261.115 7.18589 260.989 7.73922 260.989 8.37922V8.77922C260.989 9.41922 261.135 9.98589 261.429 10.4792C261.722 10.9726 262.135 11.3526 262.669 11.6192C263.202 11.8859 263.815 12.0192 264.509 12.0192C265.109 12.0192 265.649 11.9259 266.129 11.7392C266.609 11.5526 267.035 11.2592 267.409 10.8592L268.749 12.3992C268.269 12.9592 267.662 13.3926 266.929 13.6992C266.209 13.9926 265.382 14.1392 264.449 14.1392Z" fill="#163C51"/>
<path d="M251.885 14.0003V4.84031L252.465 5.44031H248.125V3.32031H258.125V5.44031H253.805L254.385 4.84031V14.0003H251.885Z" fill="#163C51"/>
<path d="M244.211 13.9992V11.8392L244.071 11.3792V7.59922C244.071 6.86589 243.851 6.29922 243.411 5.89922C242.971 5.48589 242.304 5.27922 241.411 5.27922C240.811 5.27922 240.218 5.37255 239.631 5.55922C239.058 5.74589 238.571 6.00589 238.171 6.33922L237.191 4.51922C237.764 4.07922 238.444 3.75255 239.231 3.53922C240.031 3.31255 240.858 3.19922 241.711 3.19922C243.258 3.19922 244.451 3.57255 245.291 4.31922C246.144 5.05255 246.571 6.19255 246.571 7.73922V13.9992H244.211ZM240.851 14.1392C240.051 14.1392 239.351 14.0059 238.751 13.7392C238.151 13.4592 237.684 13.0792 237.351 12.5992C237.031 12.1059 236.871 11.5526 236.871 10.9392C236.871 10.3392 237.011 9.79922 237.291 9.31922C237.584 8.83922 238.058 8.45922 238.711 8.17922C239.364 7.89922 240.231 7.75922 241.311 7.75922H244.411V9.41922H241.491C240.638 9.41922 240.064 9.55922 239.771 9.83922C239.478 10.1059 239.331 10.4392 239.331 10.8392C239.331 11.2926 239.511 11.6526 239.871 11.9192C240.231 12.1859 240.731 12.3192 241.371 12.3192C241.984 12.3192 242.531 12.1792 243.011 11.8992C243.504 11.6192 243.858 11.2059 244.071 10.6592L244.491 12.1592C244.251 12.7859 243.818 13.2726 243.191 13.6192C242.578 13.9659 241.798 14.1392 240.851 14.1392Z" fill="#163C51"/>
<path d="M233.223 14.0003L229.363 8.88031L231.403 7.62031L236.163 14.0003H233.223ZM225.562 14.0003V3.32031H228.062V14.0003H225.562ZM227.323 9.72031V7.64031H230.943V9.72031H227.323ZM231.643 8.96031L229.303 8.68031L233.223 3.32031H235.903L231.643 8.96031Z" fill="#163C51"/>
<path d="M214.845 5.82H221.805V7.96H214.845V5.82ZM215.045 11.82H222.945V14H212.445V0H222.665V2.18H215.045V11.82Z" fill="#163C51"/>
<path d="M201.184 13.9992V11.8392L201.044 11.3792V7.59922C201.044 6.86589 200.824 6.29922 200.384 5.89922C199.944 5.48589 199.277 5.27922 198.384 5.27922C197.784 5.27922 197.19 5.37255 196.604 5.55922C196.03 5.74589 195.544 6.00589 195.144 6.33922L194.164 4.51922C194.737 4.07922 195.417 3.75255 196.204 3.53922C197.004 3.31255 197.83 3.19922 198.684 3.19922C200.23 3.19922 201.424 3.57255 202.264 4.31922C203.117 5.05255 203.544 6.19255 203.544 7.73922V13.9992H201.184ZM197.824 14.1392C197.024 14.1392 196.324 14.0059 195.724 13.7392C195.124 13.4592 194.657 13.0792 194.324 12.5992C194.004 12.1059 193.844 11.5526 193.844 10.9392C193.844 10.3392 193.984 9.79922 194.264 9.31922C194.557 8.83922 195.03 8.45922 195.684 8.17922C196.337 7.89922 197.204 7.75922 198.284 7.75922H201.384V9.41922H198.464C197.61 9.41922 197.037 9.55922 196.744 9.83922C196.45 10.1059 196.304 10.4392 196.304 10.8392C196.304 11.2926 196.484 11.6526 196.844 11.9192C197.204 12.1859 197.704 12.3192 198.344 12.3192C198.957 12.3192 199.504 12.1792 199.984 11.8992C200.477 11.6192 200.83 11.2059 201.044 10.6592L201.464 12.1592C201.224 12.7859 200.79 13.2726 200.164 13.6192C199.55 13.9659 198.77 14.1392 197.824 14.1392Z" fill="#163C51"/>
<path d="M182.32 14.0003V3.32031H187.54C188.834 3.32031 189.847 3.56031 190.58 4.04031C191.327 4.52031 191.7 5.20031 191.7 6.08031C191.7 6.94698 191.354 7.62698 190.66 8.12031C189.967 8.60031 189.047 8.84031 187.9 8.84031L188.2 8.22031C189.494 8.22031 190.454 8.46031 191.08 8.94031C191.72 9.40698 192.04 10.0936 192.04 11.0003C192.04 11.947 191.687 12.687 190.98 13.2203C190.274 13.7403 189.2 14.0003 187.76 14.0003H182.32ZM184.7 12.1803H187.56C188.24 12.1803 188.754 12.0736 189.1 11.8603C189.447 11.6336 189.62 11.2936 189.62 10.8403C189.62 10.3603 189.46 10.007 189.14 9.78031C188.82 9.55365 188.32 9.44031 187.64 9.44031H184.7V12.1803ZM184.7 7.78031H187.32C187.96 7.78031 188.44 7.66698 188.76 7.44031C189.094 7.20031 189.26 6.86698 189.26 6.44031C189.26 6.00031 189.094 5.67365 188.76 5.46031C188.44 5.24698 187.96 5.14031 187.32 5.14031H184.7V7.78031Z" fill="#163C51"/>
<path d="M174.151 14.1392C173.057 14.1392 172.084 13.9059 171.231 13.4392C170.377 12.9592 169.704 12.3059 169.211 11.4792C168.717 10.6526 168.471 9.71255 168.471 8.65922C168.471 7.59255 168.717 6.65255 169.211 5.83922C169.704 5.01255 170.377 4.36589 171.231 3.89922C172.084 3.43255 173.057 3.19922 174.151 3.19922C175.257 3.19922 176.237 3.43255 177.091 3.89922C177.957 4.36589 178.631 5.00589 179.111 5.81922C179.604 6.63255 179.851 7.57922 179.851 8.65922C179.851 9.71255 179.604 10.6526 179.111 11.4792C178.631 12.3059 177.957 12.9592 177.091 13.4392C176.237 13.9059 175.257 14.1392 174.151 14.1392ZM174.151 11.9992C174.764 11.9992 175.311 11.8659 175.791 11.5992C176.271 11.3326 176.644 10.9459 176.911 10.4392C177.191 9.93255 177.331 9.33922 177.331 8.65922C177.331 7.96589 177.191 7.37255 176.911 6.87922C176.644 6.37255 176.271 5.98589 175.791 5.71922C175.311 5.45255 174.771 5.31922 174.171 5.31922C173.557 5.31922 173.011 5.45255 172.531 5.71922C172.064 5.98589 171.691 6.37255 171.411 6.87922C171.131 7.37255 170.991 7.96589 170.991 8.65922C170.991 9.33922 171.131 9.93255 171.411 10.4392C171.691 10.9459 172.064 11.3326 172.531 11.5992C173.011 11.8659 173.551 11.9992 174.151 11.9992Z" fill="#163C51"/>
<path d="M155.66 14.0003V3.32031H158.16V7.66031H163.54V3.32031H166.04V14.0003H163.54V9.78031H158.16V14.0003H155.66Z" fill="#163C51"/>
<path d="M150.207 13.9992V11.8392L150.067 11.3792V7.59922C150.067 6.86589 149.847 6.29922 149.407 5.89922C148.967 5.48589 148.301 5.27922 147.407 5.27922C146.807 5.27922 146.214 5.37255 145.627 5.55922C145.054 5.74589 144.567 6.00589 144.167 6.33922L143.187 4.51922C143.761 4.07922 144.441 3.75255 145.227 3.53922C146.027 3.31255 146.854 3.19922 147.707 3.19922C149.254 3.19922 150.447 3.57255 151.287 4.31922C152.141 5.05255 152.567 6.19255 152.567 7.73922V13.9992H150.207ZM146.847 14.1392C146.047 14.1392 145.347 14.0059 144.747 13.7392C144.147 13.4592 143.681 13.0792 143.347 12.5992C143.027 12.1059 142.867 11.5526 142.867 10.9392C142.867 10.3392 143.007 9.79922 143.287 9.31922C143.581 8.83922 144.054 8.45922 144.707 8.17922C145.361 7.89922 146.227 7.75922 147.307 7.75922H150.407V9.41922H147.487C146.634 9.41922 146.061 9.55922 145.767 9.83922C145.474 10.1059 145.327 10.4392 145.327 10.8392C145.327 11.2926 145.507 11.6526 145.867 11.9192C146.227 12.1859 146.727 12.3192 147.367 12.3192C147.981 12.3192 148.527 12.1792 149.007 11.8992C149.501 11.6192 149.854 11.2059 150.067 10.6592L150.487 12.1592C150.247 12.7859 149.814 13.2726 149.187 13.6192C148.574 13.9659 147.794 14.1392 146.847 14.1392Z" fill="#163C51"/>
<path d="M131.344 14.0003V3.32031H136.564C137.857 3.32031 138.87 3.56031 139.604 4.04031C140.35 4.52031 140.724 5.20031 140.724 6.08031C140.724 6.94698 140.377 7.62698 139.684 8.12031C138.99 8.60031 138.07 8.84031 136.924 8.84031L137.224 8.22031C138.517 8.22031 139.477 8.46031 140.104 8.94031C140.744 9.40698 141.064 10.0936 141.064 11.0003C141.064 11.947 140.71 12.687 140.004 13.2203C139.297 13.7403 138.224 14.0003 136.784 14.0003H131.344ZM133.724 12.1803H136.584C137.264 12.1803 137.777 12.0736 138.124 11.8603C138.47 11.6336 138.644 11.2936 138.644 10.8403C138.644 10.3603 138.484 10.007 138.164 9.78031C137.844 9.55365 137.344 9.44031 136.664 9.44031H133.724V12.1803ZM133.724 7.78031H136.344C136.984 7.78031 137.464 7.66698 137.784 7.44031C138.117 7.20031 138.284 6.86698 138.284 6.44031C138.284 6.00031 138.117 5.67365 137.784 5.46031C137.464 5.24698 136.984 5.14031 136.344 5.14031H133.724V7.78031Z" fill="#163C51"/>
<path d="M115.199 14V0H117.759V9.94L125.279 0H127.699V14H125.139V4.08L117.619 14H115.199Z" fill="#163C51"/>
<path d="M105.249 6.51922C104.796 6.51922 104.409 6.36589 104.089 6.05922C103.769 5.73922 103.609 5.33922 103.609 4.85922C103.609 4.35255 103.769 3.95255 104.089 3.65922C104.409 3.35255 104.796 3.19922 105.249 3.19922C105.703 3.19922 106.089 3.35255 106.409 3.65922C106.729 3.95255 106.889 4.35255 106.889 4.85922C106.889 5.33922 106.729 5.73922 106.409 6.05922C106.089 6.36589 105.703 6.51922 105.249 6.51922ZM105.249 14.1392C104.796 14.1392 104.409 13.9859 104.089 13.6792C103.769 13.3592 103.609 12.9592 103.609 12.4792C103.609 11.9726 103.769 11.5726 104.089 11.2792C104.409 10.9726 104.796 10.8192 105.249 10.8192C105.703 10.8192 106.089 10.9726 106.409 11.2792C106.729 11.5726 106.889 11.9726 106.889 12.4792C106.889 12.9592 106.729 13.3592 106.409 13.6792C106.089 13.9859 105.703 14.1392 105.249 14.1392Z" fill="#163C51"/>
<path d="M96.5802 14.1392C95.7135 14.1392 94.9202 13.9392 94.2002 13.5392C93.4935 13.1392 92.9268 12.5392 92.5002 11.7392C92.0868 10.9259 91.8802 9.89922 91.8802 8.65922C91.8802 7.40589 92.0802 6.37922 92.4802 5.57922C92.8935 4.77922 93.4535 4.18589 94.1602 3.79922C94.8668 3.39922 95.6735 3.19922 96.5802 3.19922C97.6335 3.19922 98.5602 3.42589 99.3602 3.87922C100.173 4.33255 100.813 4.96589 101.28 5.77922C101.76 6.59255 102 7.55255 102 8.65922C102 9.76589 101.76 10.7326 101.28 11.5592C100.813 12.3726 100.173 13.0059 99.3602 13.4592C98.5602 13.9126 97.6335 14.1392 96.5802 14.1392ZM90.6602 17.8792V3.31922H93.0402V5.83922L92.9602 8.67922L93.1602 11.5192V17.8792H90.6602ZM96.3002 11.9992C96.9002 11.9992 97.4335 11.8659 97.9002 11.5992C98.3802 11.3326 98.7602 10.9459 99.0402 10.4392C99.3202 9.93255 99.4602 9.33922 99.4602 8.65922C99.4602 7.96589 99.3202 7.37255 99.0402 6.87922C98.7602 6.37255 98.3802 5.98589 97.9002 5.71922C97.4335 5.45255 96.9002 5.31922 96.3002 5.31922C95.7002 5.31922 95.1602 5.45255 94.6802 5.71922C94.2002 5.98589 93.8202 6.37255 93.5402 6.87922C93.2602 7.37255 93.1202 7.96589 93.1202 8.65922C93.1202 9.33922 93.2602 9.93255 93.5402 10.4392C93.8202 10.9459 94.2002 11.3326 94.6802 11.5992C95.1602 11.8659 95.7002 11.9992 96.3002 11.9992Z" fill="#163C51"/>
<path d="M82.9059 14.1392C81.7192 14.1392 80.6792 13.9059 79.7859 13.4392C78.9059 12.9592 78.2192 12.3059 77.7259 11.4792C77.2459 10.6526 77.0059 9.71255 77.0059 8.65922C77.0059 7.59255 77.2392 6.65255 77.7059 5.83922C78.1859 5.01255 78.8392 4.36589 79.6659 3.89922C80.5059 3.43255 81.4592 3.19922 82.5259 3.19922C83.5659 3.19922 84.4925 3.42589 85.3059 3.87922C86.1192 4.33255 86.7592 4.97255 87.2259 5.79922C87.6925 6.62589 87.9259 7.59922 87.9259 8.71922C87.9259 8.82589 87.9192 8.94589 87.9059 9.07922C87.9059 9.21255 87.8992 9.33922 87.8859 9.45922H78.9859V7.79922H86.5659L85.5859 8.31922C85.5992 7.70589 85.4725 7.16589 85.2059 6.69922C84.9392 6.23255 84.5725 5.86589 84.1059 5.59922C83.6525 5.33255 83.1259 5.19922 82.5259 5.19922C81.9125 5.19922 81.3725 5.33255 80.9059 5.59922C80.4525 5.86589 80.0925 6.23922 79.8259 6.71922C79.5725 7.18589 79.4459 7.73922 79.4459 8.37922V8.77922C79.4459 9.41922 79.5925 9.98589 79.8859 10.4792C80.1792 10.9726 80.5925 11.3526 81.1259 11.6192C81.6592 11.8859 82.2725 12.0192 82.9659 12.0192C83.5659 12.0192 84.1059 11.9259 84.5859 11.7392C85.0659 11.5526 85.4925 11.2592 85.8659 10.8592L87.2059 12.3992C86.7259 12.9592 86.1192 13.3926 85.3859 13.6992C84.6659 13.9926 83.8392 14.1392 82.9059 14.1392Z" fill="#163C51"/>
<path d="M70.342 14.0003V4.84031L70.922 5.44031H66.582V3.32031H76.582V5.44031H72.262L72.842 4.84031V14.0003H70.342Z" fill="#163C51"/>
<path d="M54.3906 14.0003V3.32031H56.8906V7.66031H62.2706V3.32031H64.7706V14.0003H62.2706V9.78031H56.8906V14.0003H54.3906Z" fill="#163C51"/>
<path d="M46.221 14.1392C45.1277 14.1392 44.1544 13.9059 43.301 13.4392C42.4477 12.9592 41.7744 12.3059 41.281 11.4792C40.7877 10.6526 40.541 9.71255 40.541 8.65922C40.541 7.59255 40.7877 6.65255 41.281 5.83922C41.7744 5.01255 42.4477 4.36589 43.301 3.89922C44.1544 3.43255 45.1277 3.19922 46.221 3.19922C47.3277 3.19922 48.3077 3.43255 49.161 3.89922C50.0277 4.36589 50.701 5.00589 51.181 5.81922C51.6744 6.63255 51.921 7.57922 51.921 8.65922C51.921 9.71255 51.6744 10.6526 51.181 11.4792C50.701 12.3059 50.0277 12.9592 49.161 13.4392C48.3077 13.9059 47.3277 14.1392 46.221 14.1392ZM46.221 11.9992C46.8344 11.9992 47.381 11.8659 47.861 11.5992C48.341 11.3326 48.7144 10.9459 48.981 10.4392C49.261 9.93255 49.401 9.33922 49.401 8.65922C49.401 7.96589 49.261 7.37255 48.981 6.87922C48.7144 6.37255 48.341 5.98589 47.861 5.71922C47.381 5.45255 46.841 5.31922 46.241 5.31922C45.6277 5.31922 45.081 5.45255 44.601 5.71922C44.1344 5.98589 43.761 6.37255 43.481 6.87922C43.201 7.37255 43.061 7.96589 43.061 8.65922C43.061 9.33922 43.201 9.93255 43.481 10.4392C43.761 10.9459 44.1344 11.3326 44.601 11.5992C45.081 11.8659 45.621 11.9992 46.221 11.9992Z" fill="#163C51"/>
<path d="M26.8555 13.9803L26.9755 11.8803C27.0688 11.8936 27.1555 11.907 27.2355 11.9203C27.3155 11.9336 27.3888 11.9403 27.4555 11.9403C27.8688 11.9403 28.1888 11.8136 28.4155 11.5603C28.6421 11.307 28.8088 10.967 28.9155 10.5403C29.0355 10.1003 29.1155 9.61365 29.1555 9.08031C29.2088 8.53365 29.2488 7.98698 29.2755 7.44031L29.4555 3.32031H38.0955V14.0003H35.5955V4.76031L36.1755 5.44031H31.0955L31.6355 4.74031L31.4955 7.56031C31.4555 8.50698 31.3755 9.38698 31.2555 10.2003C31.1488 11.0003 30.9755 11.7003 30.7355 12.3003C30.5088 12.9003 30.1888 13.367 29.7755 13.7003C29.3755 14.0336 28.8621 14.2003 28.2355 14.2003C28.0355 14.2003 27.8155 14.1803 27.5755 14.1403C27.3488 14.1003 27.1088 14.047 26.8555 13.9803Z" fill="#163C51"/>
<path d="M20.3616 14.1392C19.2683 14.1392 18.295 13.9059 17.4416 13.4392C16.5883 12.9592 15.915 12.3059 15.4216 11.4792C14.9283 10.6526 14.6816 9.71255 14.6816 8.65922C14.6816 7.59255 14.9283 6.65255 15.4216 5.83922C15.915 5.01255 16.5883 4.36589 17.4416 3.89922C18.295 3.43255 19.2683 3.19922 20.3616 3.19922C21.4683 3.19922 22.4483 3.43255 23.3016 3.89922C24.1683 4.36589 24.8416 5.00589 25.3216 5.81922C25.815 6.63255 26.0616 7.57922 26.0616 8.65922C26.0616 9.71255 25.815 10.6526 25.3216 11.4792C24.8416 12.3059 24.1683 12.9592 23.3016 13.4392C22.4483 13.9059 21.4683 14.1392 20.3616 14.1392ZM20.3616 11.9992C20.975 11.9992 21.5216 11.8659 22.0016 11.5992C22.4816 11.3326 22.855 10.9459 23.1216 10.4392C23.4016 9.93255 23.5416 9.33922 23.5416 8.65922C23.5416 7.96589 23.4016 7.37255 23.1216 6.87922C22.855 6.37255 22.4816 5.98589 22.0016 5.71922C21.5216 5.45255 20.9816 5.31922 20.3816 5.31922C19.7683 5.31922 19.2216 5.45255 18.7416 5.71922C18.275 5.98589 17.9016 6.37255 17.6216 6.87922C17.3416 7.37255 17.2016 7.96589 17.2016 8.65922C17.2016 9.33922 17.3416 9.93255 17.6216 10.4392C17.9016 10.9459 18.275 11.3326 18.7416 11.5992C19.2216 11.8659 19.7616 11.9992 20.3616 11.9992Z" fill="#163C51"/>
<path d="M0.980469 14V0H7.24047C8.8138 0 10.0405 0.313333 10.9205 0.94C11.8005 1.55333 12.2405 2.44 12.2405 3.6C12.2405 4.74667 11.8205 5.63333 10.9805 6.26C10.1405 6.87333 9.0338 7.18 7.66047 7.18L8.02047 6.46C9.58047 6.46 10.7871 6.77333 11.6405 7.4C12.4938 8.02667 12.9205 8.93333 12.9205 10.12C12.9205 11.3333 12.4738 12.2867 11.5805 12.98C10.6871 13.66 9.36714 14 7.62047 14H0.980469ZM3.54047 12H7.54047C8.44714 12 9.1338 11.8333 9.60047 11.5C10.0671 11.1533 10.3005 10.6267 10.3005 9.92C10.3005 9.21333 10.0671 8.7 9.60047 8.38C9.1338 8.04667 8.44714 7.88 7.54047 7.88H3.54047V12ZM3.54047 5.98H7.02047C7.86047 5.98 8.50047 5.81333 8.94047 5.48C9.38047 5.13333 9.60047 4.64 9.60047 4C9.60047 3.33333 9.38047 2.83333 8.94047 2.5C8.50047 2.16667 7.86047 2 7.02047 2H3.54047V5.98Z" fill="#163C51"/>
</svg>
