<svg width="260" height="24" viewBox="0 0 260 24" fill="none" xmlns="http://www.w3.org/2000/svg">
<path d="M242.533 20.3124L243.397 18.6164C244.379 19.4697 245.477 20.1097 246.693 20.5364C247.931 20.9417 249.168 21.1551 250.405 21.1764C251.643 21.1764 252.773 20.9951 253.797 20.6324C254.843 20.2697 255.685 19.7364 256.325 19.0324C256.965 18.3071 257.285 17.4324 257.285 16.4084C257.285 15.1071 256.763 14.1044 255.717 13.4004C254.693 12.6964 253.264 12.3444 251.429 12.3444H246.629V10.4244H251.301C252.88 10.4244 254.107 10.0937 254.981 9.43239C255.877 8.74972 256.325 7.81106 256.325 6.61639C256.325 5.76306 256.069 5.03772 255.557 4.44039C255.067 3.82172 254.384 3.35239 253.509 3.03239C252.656 2.69106 251.696 2.50972 250.629 2.48839C249.563 2.44572 248.453 2.58439 247.301 2.90439C246.171 3.20306 245.072 3.68306 244.005 4.34439L243.237 2.39239C244.56 1.60306 245.936 1.05906 247.365 0.76039C248.795 0.440391 250.181 0.333724 251.525 0.440391C252.869 0.547057 254.075 0.85639 255.141 1.36839C256.229 1.88039 257.093 2.55239 257.733 3.38439C258.373 4.21639 258.693 5.20839 258.693 6.36039C258.693 7.42706 258.416 8.36572 257.861 9.17639C257.328 9.98706 256.571 10.6164 255.589 11.0644C254.629 11.4911 253.488 11.7044 252.165 11.7044L252.293 11.0004C253.787 11.0004 255.077 11.2351 256.165 11.7044C257.275 12.1737 258.128 12.8457 258.725 13.7204C259.344 14.5737 259.653 15.5764 259.653 16.7284C259.653 17.8164 259.376 18.7871 258.821 19.6404C258.288 20.4724 257.541 21.1764 256.581 21.7524C255.643 22.3071 254.587 22.7124 253.413 22.9684C252.24 23.2031 251.013 23.2671 249.733 23.1604C248.453 23.0537 247.195 22.7764 245.957 22.3284C244.72 21.8591 243.579 21.1871 242.533 20.3124Z" fill="#406D73"/>
<path d="M219.619 22.9996V0.599609H228.931C231.299 0.599609 233.155 1.09028 234.499 2.07161C235.864 3.03161 236.547 4.45028 236.547 6.32761C236.547 8.18361 235.896 9.59161 234.595 10.5516C233.294 11.4903 231.587 11.9596 229.475 11.9596L230.019 11.1596C232.515 11.1596 234.414 11.6503 235.715 12.6316C237.016 13.6129 237.667 15.0529 237.667 16.9516C237.667 18.8716 236.984 20.3649 235.619 21.4316C234.275 22.4769 232.248 22.9996 229.539 22.9996H219.619ZM221.955 21.1116H229.539C231.438 21.1116 232.878 20.7596 233.859 20.0556C234.84 19.3516 235.331 18.2636 235.331 16.7916C235.331 15.3409 234.84 14.2743 233.859 13.5916C232.878 12.9089 231.438 12.5676 229.539 12.5676H221.955V21.1116ZM221.955 10.7436H228.803C230.531 10.7436 231.854 10.4023 232.771 9.71961C233.71 9.01561 234.179 7.98094 234.179 6.61561C234.179 5.25028 233.71 4.22628 232.771 3.54361C231.854 2.83961 230.531 2.48761 228.803 2.48761H221.955V10.7436Z" fill="#406D73"/>
<path d="M200.626 23.1922C198.94 23.1922 197.372 22.9149 195.922 22.3602C194.492 21.7842 193.244 20.9842 192.178 19.9602C191.132 18.9149 190.311 17.7095 189.714 16.3442C189.138 14.9575 188.85 13.4429 188.85 11.8002C188.85 10.1575 189.138 8.65354 189.714 7.2882C190.311 5.90154 191.132 4.6962 192.178 3.6722C193.244 2.62687 194.492 1.82687 195.922 1.2722C197.351 0.696203 198.919 0.408203 200.626 0.408203C202.311 0.408203 203.868 0.696203 205.298 1.2722C206.727 1.82687 207.964 2.6162 209.01 3.6402C210.076 4.6642 210.898 5.86954 211.474 7.2562C212.071 8.64287 212.37 10.1575 212.37 11.8002C212.37 13.4429 212.071 14.9575 211.474 16.3442C210.898 17.7309 210.076 18.9362 209.01 19.9602C207.964 20.9842 206.727 21.7842 205.298 22.3602C203.868 22.9149 202.311 23.1922 200.626 23.1922ZM200.626 21.0802C201.97 21.0802 203.207 20.8562 204.338 20.4082C205.49 19.9389 206.482 19.2882 207.314 18.4562C208.167 17.6029 208.828 16.6215 209.298 15.5122C209.767 14.3815 210.002 13.1442 210.002 11.8002C210.002 10.4562 209.767 9.22954 209.298 8.1202C208.828 6.98954 208.167 6.0082 207.314 5.1762C206.482 4.32287 205.49 3.6722 204.338 3.2242C203.207 2.75487 201.97 2.5202 200.626 2.5202C199.282 2.5202 198.034 2.75487 196.882 3.2242C195.73 3.6722 194.727 4.32287 193.874 5.1762C193.042 6.0082 192.38 6.98954 191.89 8.1202C191.42 9.22954 191.186 10.4562 191.186 11.8002C191.186 13.1229 191.42 14.3495 191.89 15.4802C192.38 16.6109 193.042 17.6029 193.874 18.4562C194.727 19.2882 195.73 19.9389 196.882 20.4082C198.034 20.8562 199.282 21.0802 200.626 21.0802Z" fill="#406D73"/>
<path d="M167.692 23.161C166.028 23.161 164.534 22.7984 163.212 22.073C161.91 21.3264 160.886 20.313 160.14 19.033C159.393 17.7317 159.02 16.249 159.02 14.585C159.02 12.8997 159.393 11.417 160.14 10.137C160.886 8.85702 161.91 7.85435 163.212 7.12902C164.534 6.40368 166.028 6.04102 167.692 6.04102C169.121 6.04102 170.412 6.31835 171.564 6.87302C172.716 7.42768 173.622 8.25968 174.284 9.36902L172.588 10.521C172.012 9.66768 171.297 9.03835 170.444 8.63302C169.59 8.22768 168.662 8.02501 167.66 8.02501C166.465 8.02501 165.388 8.30235 164.428 8.85702C163.468 9.39035 162.71 10.1477 162.156 11.129C161.601 12.1103 161.324 13.2623 161.324 14.585C161.324 15.9077 161.601 17.0597 162.156 18.041C162.71 19.0224 163.468 19.7903 164.428 20.345C165.388 20.8784 166.465 21.145 167.66 21.145C168.662 21.145 169.59 20.9423 170.444 20.537C171.297 20.1317 172.012 19.513 172.588 18.681L174.284 19.833C173.622 20.921 172.716 21.753 171.564 22.329C170.412 22.8837 169.121 23.161 167.692 23.161Z" fill="#406D73"/>
<path d="M142.802 23.0012L135.89 14.6812L137.778 13.5612L145.49 23.0012H142.802ZM130.482 23.0012V6.20117H132.754V23.0012H130.482ZM132.05 15.5132V13.5612H137.458V15.5132H132.05ZM137.97 14.8412L135.858 14.5212L142.546 6.20117H145.01L137.97 14.8412Z" fill="#406D73"/>
<path d="M116.301 23.161C114.551 23.161 113.015 22.7984 111.693 22.073C110.37 21.3264 109.335 20.313 108.589 19.033C107.842 17.7317 107.469 16.249 107.469 14.585C107.469 12.921 107.821 11.449 108.525 10.169C109.25 8.88902 110.231 7.88635 111.469 7.16102C112.727 6.41435 114.135 6.04102 115.693 6.04102C117.271 6.04102 118.669 6.40368 119.885 7.12902C121.122 7.83302 122.093 8.83568 122.797 10.137C123.501 11.417 123.853 12.8997 123.853 14.585C123.853 14.6917 123.842 14.809 123.821 14.937C123.821 15.0437 123.821 15.161 123.821 15.289H109.197V13.593H122.605L121.709 14.265C121.709 13.049 121.442 11.9717 120.909 11.033C120.397 10.073 119.693 9.32635 118.797 8.79302C117.901 8.25968 116.866 7.99302 115.693 7.99302C114.541 7.99302 113.506 8.25968 112.589 8.79302C111.671 9.32635 110.957 10.073 110.445 11.033C109.933 11.993 109.677 13.0917 109.677 14.329V14.681C109.677 15.961 109.954 17.0917 110.509 18.073C111.085 19.033 111.874 19.7903 112.877 20.345C113.901 20.8784 115.063 21.145 116.365 21.145C117.389 21.145 118.338 20.9637 119.213 20.601C120.109 20.2383 120.877 19.6837 121.517 18.937L122.797 20.409C122.05 21.305 121.111 21.9877 119.981 22.457C118.871 22.9263 117.645 23.161 116.301 23.161Z" fill="#406D73"/>
<path d="M88.0312 23.0012V6.20117H95.4552C97.3539 6.20117 98.8472 6.56384 99.9352 7.28917C101.045 8.01451 101.599 9.08117 101.599 10.4892C101.599 11.8545 101.077 12.9105 100.031 13.6572C98.9859 14.3825 97.6099 14.7452 95.9032 14.7452L96.3512 14.0732C98.3566 14.0732 99.8286 14.4465 100.767 15.1932C101.706 15.9398 102.175 17.0172 102.175 18.4252C102.175 19.8758 101.642 21.0065 100.575 21.8172C99.5299 22.6065 97.8979 23.0012 95.6792 23.0012H88.0312ZM90.2393 21.2092H95.5833C97.0126 21.2092 98.0899 20.9852 98.8152 20.5372C99.5619 20.0678 99.9352 19.3212 99.9352 18.2972C99.9352 17.2732 99.6046 16.5265 98.9433 16.0572C98.2819 15.5878 97.2366 15.3532 95.8073 15.3532H90.2393V21.2092ZM90.2393 13.6572H95.2952C96.5966 13.6572 97.5886 13.4118 98.2712 12.9212C98.9752 12.4305 99.3272 11.7158 99.3272 10.7772C99.3272 9.83851 98.9752 9.13451 98.2712 8.66517C97.5886 8.19584 96.5966 7.96117 95.2952 7.96117H90.2393V13.6572Z" fill="#406D73"/>
<path d="M73.001 23.161C71.3797 23.161 69.9184 22.7984 68.617 22.073C67.337 21.3264 66.3237 20.313 65.577 19.033C64.8304 17.7317 64.457 16.249 64.457 14.585C64.457 12.8997 64.8304 11.417 65.577 10.137C66.3237 8.85702 67.337 7.85435 68.617 7.12902C69.897 6.40368 71.3584 6.04102 73.001 6.04102C74.665 6.04102 76.137 6.40368 77.417 7.12902C78.7184 7.85435 79.7317 8.85702 80.457 10.137C81.2037 11.417 81.577 12.8997 81.577 14.585C81.577 16.249 81.2037 17.7317 80.457 19.033C79.7317 20.313 78.7184 21.3264 77.417 22.073C76.1157 22.7984 74.6437 23.161 73.001 23.161ZM73.001 21.145C74.217 21.145 75.2944 20.8784 76.233 20.345C77.1717 19.7903 77.9077 19.0224 78.441 18.041C78.9957 17.0384 79.273 15.8863 79.273 14.585C79.273 13.2623 78.9957 12.1103 78.441 11.129C77.9077 10.1477 77.1717 9.39035 76.233 8.85702C75.2944 8.30235 74.2277 8.02501 73.033 8.02501C71.8384 8.02501 70.7717 8.30235 69.833 8.85702C68.8944 9.39035 68.1477 10.1477 67.593 11.129C67.0384 12.1103 66.761 13.2623 66.761 14.585C66.761 15.8863 67.0384 17.0384 67.593 18.041C68.1477 19.0224 68.8944 19.7903 69.833 20.345C70.7717 20.8784 71.8277 21.145 73.001 21.145Z" fill="#406D73"/>
<path d="M41.1973 22.9692L41.3573 21.0172C41.5066 21.0385 41.6453 21.0705 41.7733 21.1132C41.9226 21.1345 42.0506 21.1452 42.1573 21.1452C42.8399 21.1452 43.3839 20.8892 43.7893 20.3772C44.2159 19.8652 44.5359 19.1825 44.7493 18.3292C44.9626 17.4758 45.1119 16.5158 45.1973 15.4492C45.2826 14.3612 45.3573 13.2732 45.4213 12.1852L45.7093 6.20117H58.0293V23.0012H55.7573V7.51317L56.3333 8.18517H47.1813L47.7253 7.48117L47.4693 12.3452C47.4053 13.7958 47.2879 15.1825 47.1173 16.5052C46.9679 17.8278 46.7226 18.9905 46.3813 19.9932C46.0613 20.9958 45.6133 21.7852 45.0373 22.3612C44.4613 22.9158 43.7253 23.1932 42.8293 23.1932C42.5733 23.1932 42.3066 23.1718 42.0293 23.1292C41.7733 23.0865 41.4959 23.0332 41.1973 22.9692Z" fill="#406D73"/>
<path d="M30.4316 23.161C28.6823 23.161 27.1463 22.7984 25.8236 22.073C24.5009 21.3264 23.4663 20.313 22.7196 19.033C21.9729 17.7317 21.5996 16.249 21.5996 14.585C21.5996 12.921 21.9516 11.449 22.6556 10.169C23.3809 8.88902 24.3623 7.88635 25.5996 7.16102C26.8583 6.41435 28.2663 6.04102 29.8236 6.04102C31.4023 6.04102 32.7996 6.40368 34.0156 7.12902C35.2529 7.83302 36.2236 8.83568 36.9276 10.137C37.6316 11.417 37.9836 12.8997 37.9836 14.585C37.9836 14.6917 37.9729 14.809 37.9516 14.937C37.9516 15.0437 37.9516 15.161 37.9516 15.289H23.3276V13.593H36.7356L35.8396 14.265C35.8396 13.049 35.5729 11.9717 35.0396 11.033C34.5276 10.073 33.8236 9.32635 32.9276 8.79302C32.0316 8.25968 30.9969 7.99302 29.8236 7.99302C28.6716 7.99302 27.6369 8.25968 26.7196 8.79302C25.8023 9.32635 25.0876 10.073 24.5756 11.033C24.0636 11.993 23.8076 13.0917 23.8076 14.329V14.681C23.8076 15.961 24.0849 17.0917 24.6396 18.073C25.2156 19.033 26.0049 19.7903 27.0076 20.345C28.0316 20.8784 29.1943 21.145 30.4956 21.145C31.5196 21.145 32.4689 20.9637 33.3436 20.601C34.2396 20.2383 35.0076 19.6837 35.6476 18.937L36.9276 20.409C36.1809 21.305 35.2423 21.9877 34.1116 22.457C33.0023 22.9263 31.7756 23.161 30.4316 23.161Z" fill="#406D73"/>
<path d="M13.1 15.8972C12.1187 16.3238 11.1267 16.6652 10.124 16.9212C9.14271 17.1558 8.16138 17.2732 7.18005 17.2732C5.19605 17.2732 3.62805 16.8252 2.47605 15.9292C1.32405 15.0118 0.748047 13.6038 0.748047 11.7052V6.20117H2.98805V11.5772C2.98805 12.8572 3.40405 13.8172 4.23605 14.4572C5.06805 15.0972 6.18805 15.4172 7.59605 15.4172C8.44938 15.4172 9.34538 15.3105 10.284 15.0972C11.2227 14.8625 12.172 14.5318 13.132 14.1052L13.1 15.8972ZM12.908 23.0012V6.20117H15.18V23.0012H12.908Z" fill="#406D73"/>
</svg>
