<svg width="313" height="18" viewBox="0 0 313 18" fill="none" xmlns="http://www.w3.org/2000/svg">
<path d="M309.875 13.9992V11.8392L309.735 11.3792V7.59922C309.735 6.86589 309.515 6.29922 309.075 5.89922C308.635 5.48589 307.968 5.27922 307.075 5.27922C306.475 5.27922 305.882 5.37255 305.295 5.55922C304.722 5.74589 304.235 6.00589 303.835 6.33922L302.855 4.51922C303.428 4.07922 304.108 3.75255 304.895 3.53922C305.695 3.31255 306.522 3.19922 307.375 3.19922C308.922 3.19922 310.115 3.57255 310.955 4.31922C311.808 5.05255 312.235 6.19255 312.235 7.73922V13.9992H309.875ZM306.515 14.1392C305.715 14.1392 305.015 14.0059 304.415 13.7392C303.815 13.4592 303.348 13.0792 303.015 12.5992C302.695 12.1059 302.535 11.5526 302.535 10.9392C302.535 10.3392 302.675 9.79922 302.955 9.31922C303.248 8.83922 303.722 8.45922 304.375 8.17922C305.028 7.89922 305.895 7.75922 306.975 7.75922H310.075V9.41922H307.155C306.302 9.41922 305.728 9.55922 305.435 9.83922C305.142 10.1059 304.995 10.4392 304.995 10.8392C304.995 11.2926 305.175 11.6526 305.535 11.9192C305.895 12.1859 306.395 12.3192 307.035 12.3192C307.648 12.3192 308.195 12.1792 308.675 11.8992C309.168 11.6192 309.522 11.2059 309.735 10.6592L310.155 12.1592C309.915 12.7859 309.482 13.2726 308.855 13.6192C308.242 13.9659 307.462 14.1392 306.515 14.1392Z" fill="#163C51"/>
<path d="M296.634 14.1392C295.514 14.1392 294.514 13.9059 293.634 13.4392C292.768 12.9592 292.088 12.3059 291.594 11.4792C291.101 10.6526 290.854 9.71255 290.854 8.65922C290.854 7.59255 291.101 6.65255 291.594 5.83922C292.088 5.01255 292.768 4.36589 293.634 3.89922C294.514 3.43255 295.514 3.19922 296.634 3.19922C297.674 3.19922 298.588 3.41255 299.374 3.83922C300.174 4.25255 300.781 4.86589 301.194 5.67922L299.274 6.79922C298.954 6.29255 298.561 5.91922 298.094 5.67922C297.641 5.43922 297.148 5.31922 296.614 5.31922C296.001 5.31922 295.448 5.45255 294.954 5.71922C294.461 5.98589 294.074 6.37255 293.794 6.87922C293.514 7.37255 293.374 7.96589 293.374 8.65922C293.374 9.35255 293.514 9.95255 293.794 10.4592C294.074 10.9526 294.461 11.3326 294.954 11.5992C295.448 11.8659 296.001 11.9992 296.614 11.9992C297.148 11.9992 297.641 11.8792 298.094 11.6392C298.561 11.3992 298.954 11.0259 299.274 10.5192L301.194 11.6392C300.781 12.4392 300.174 13.0592 299.374 13.4992C298.588 13.9259 297.674 14.1392 296.634 14.1392Z" fill="#163C51"/>
<path d="M277.731 14.0003V3.32031H280.231V10.3603L286.131 3.32031H288.411V14.0003H285.911V6.96031L280.031 14.0003H277.731Z" fill="#163C51"/>
<path d="M263.124 13.9803L263.244 11.8803C263.337 11.8936 263.424 11.907 263.504 11.9203C263.584 11.9336 263.657 11.9403 263.724 11.9403C264.137 11.9403 264.457 11.8136 264.684 11.5603C264.911 11.307 265.077 10.967 265.184 10.5403C265.304 10.1003 265.384 9.61365 265.424 9.08031C265.477 8.53365 265.517 7.98698 265.544 7.44031L265.724 3.32031H274.364V14.0003H271.864V4.76031L272.444 5.44031H267.364L267.904 4.74031L267.764 7.56031C267.724 8.50698 267.644 9.38698 267.524 10.2003C267.417 11.0003 267.244 11.7003 267.004 12.3003C266.777 12.9003 266.457 13.367 266.044 13.7003C265.644 14.0336 265.131 14.2003 264.504 14.2003C264.304 14.2003 264.084 14.1803 263.844 14.1403C263.617 14.1003 263.377 14.047 263.124 13.9803Z" fill="#163C51"/>
<path d="M250.642 14.0003V3.32031H253.142V10.3603L259.042 3.32031H261.322V14.0003H258.822V6.96031L252.942 14.0003H250.642Z" fill="#163C51"/>
<path d="M243.881 14.1392C242.761 14.1392 241.761 13.9059 240.881 13.4392C240.014 12.9592 239.334 12.3059 238.841 11.4792C238.347 10.6526 238.101 9.71255 238.101 8.65922C238.101 7.59255 238.347 6.65255 238.841 5.83922C239.334 5.01255 240.014 4.36589 240.881 3.89922C241.761 3.43255 242.761 3.19922 243.881 3.19922C244.921 3.19922 245.834 3.41255 246.621 3.83922C247.421 4.25255 248.027 4.86589 248.441 5.67922L246.521 6.79922C246.201 6.29255 245.807 5.91922 245.341 5.67922C244.887 5.43922 244.394 5.31922 243.861 5.31922C243.247 5.31922 242.694 5.45255 242.201 5.71922C241.707 5.98589 241.321 6.37255 241.041 6.87922C240.761 7.37255 240.621 7.96589 240.621 8.65922C240.621 9.35255 240.761 9.95255 241.041 10.4592C241.321 10.9526 241.707 11.3326 242.201 11.5992C242.694 11.8659 243.247 11.9992 243.861 11.9992C244.394 11.9992 244.887 11.8792 245.341 11.6392C245.807 11.3992 246.201 11.0259 246.521 10.5192L248.441 11.6392C248.027 12.4392 247.421 13.0592 246.621 13.4992C245.834 13.9259 244.921 14.1392 243.881 14.1392Z" fill="#163C51"/>
<path d="M233.567 13.9992V11.8392L233.427 11.3792V7.59922C233.427 6.86589 233.207 6.29922 232.767 5.89922C232.327 5.48589 231.66 5.27922 230.767 5.27922C230.167 5.27922 229.573 5.37255 228.987 5.55922C228.413 5.74589 227.927 6.00589 227.527 6.33922L226.547 4.51922C227.12 4.07922 227.8 3.75255 228.587 3.53922C229.387 3.31255 230.213 3.19922 231.067 3.19922C232.613 3.19922 233.807 3.57255 234.647 4.31922C235.5 5.05255 235.927 6.19255 235.927 7.73922V13.9992H233.567ZM230.207 14.1392C229.407 14.1392 228.707 14.0059 228.107 13.7392C227.507 13.4592 227.04 13.0792 226.707 12.5992C226.387 12.1059 226.227 11.5526 226.227 10.9392C226.227 10.3392 226.367 9.79922 226.647 9.31922C226.94 8.83922 227.413 8.45922 228.067 8.17922C228.72 7.89922 229.587 7.75922 230.667 7.75922H233.767V9.41922H230.847C229.993 9.41922 229.42 9.55922 229.127 9.83922C228.833 10.1059 228.687 10.4392 228.687 10.8392C228.687 11.2926 228.867 11.6526 229.227 11.9192C229.587 12.1859 230.087 12.3192 230.727 12.3192C231.34 12.3192 231.887 12.1792 232.367 11.8992C232.86 11.6192 233.213 11.2059 233.427 10.6592L233.847 12.1592C233.607 12.7859 233.173 13.2726 232.547 13.6192C231.933 13.9659 231.153 14.1392 230.207 14.1392Z" fill="#163C51"/>
<path d="M212.465 14V0H218.725C220.298 0 221.525 0.313333 222.405 0.94C223.285 1.55333 223.725 2.44 223.725 3.6C223.725 4.74667 223.305 5.63333 222.465 6.26C221.625 6.87333 220.518 7.18 219.145 7.18L219.505 6.46C221.065 6.46 222.272 6.77333 223.125 7.4C223.978 8.02667 224.405 8.93333 224.405 10.12C224.405 11.3333 223.958 12.2867 223.065 12.98C222.172 13.66 220.852 14 219.105 14H212.465ZM215.025 12H219.025C219.932 12 220.618 11.8333 221.085 11.5C221.552 11.1533 221.785 10.6267 221.785 9.92C221.785 9.21333 221.552 8.7 221.085 8.38C220.618 8.04667 219.932 7.88 219.025 7.88H215.025V12ZM215.025 5.98H218.505C219.345 5.98 219.985 5.81333 220.425 5.48C220.865 5.13333 221.085 4.64 221.085 4C221.085 3.33333 220.865 2.83333 220.425 2.5C219.985 2.16667 219.345 2 218.505 2H215.025V5.98Z" fill="#163C51"/>
<path d="M201.184 13.9992V11.8392L201.044 11.3792V7.59922C201.044 6.86589 200.824 6.29922 200.384 5.89922C199.944 5.48589 199.277 5.27922 198.384 5.27922C197.784 5.27922 197.19 5.37255 196.604 5.55922C196.03 5.74589 195.544 6.00589 195.144 6.33922L194.164 4.51922C194.737 4.07922 195.417 3.75255 196.204 3.53922C197.004 3.31255 197.83 3.19922 198.684 3.19922C200.23 3.19922 201.424 3.57255 202.264 4.31922C203.117 5.05255 203.544 6.19255 203.544 7.73922V13.9992H201.184ZM197.824 14.1392C197.024 14.1392 196.324 14.0059 195.724 13.7392C195.124 13.4592 194.657 13.0792 194.324 12.5992C194.004 12.1059 193.844 11.5526 193.844 10.9392C193.844 10.3392 193.984 9.79922 194.264 9.31922C194.557 8.83922 195.03 8.45922 195.684 8.17922C196.337 7.89922 197.204 7.75922 198.284 7.75922H201.384V9.41922H198.464C197.61 9.41922 197.037 9.55922 196.744 9.83922C196.45 10.1059 196.304 10.4392 196.304 10.8392C196.304 11.2926 196.484 11.6526 196.844 11.9192C197.204 12.1859 197.704 12.3192 198.344 12.3192C198.957 12.3192 199.504 12.1792 199.984 11.8992C200.477 11.6192 200.83 11.2059 201.044 10.6592L201.464 12.1592C201.224 12.7859 200.79 13.2726 200.164 13.6192C199.55 13.9659 198.77 14.1392 197.824 14.1392Z" fill="#163C51"/>
<path d="M182.321 14.0003V3.32031H187.541C188.835 3.32031 189.848 3.56031 190.581 4.04031C191.328 4.52031 191.701 5.20031 191.701 6.08031C191.701 6.94698 191.355 7.62698 190.661 8.12031C189.968 8.60031 189.048 8.84031 187.901 8.84031L188.201 8.22031C189.495 8.22031 190.455 8.46031 191.081 8.94031C191.721 9.40698 192.041 10.0936 192.041 11.0003C192.041 11.947 191.688 12.687 190.981 13.2203C190.275 13.7403 189.201 14.0003 187.761 14.0003H182.321ZM184.701 12.1803H187.561C188.241 12.1803 188.755 12.0736 189.101 11.8603C189.448 11.6336 189.621 11.2936 189.621 10.8403C189.621 10.3603 189.461 10.007 189.141 9.78031C188.821 9.55365 188.321 9.44031 187.641 9.44031H184.701V12.1803ZM184.701 7.78031H187.321C187.961 7.78031 188.441 7.66698 188.761 7.44031C189.095 7.20031 189.261 6.86698 189.261 6.44031C189.261 6.00031 189.095 5.67365 188.761 5.46031C188.441 5.24698 187.961 5.14031 187.321 5.14031H184.701V7.78031Z" fill="#163C51"/>
<path d="M174.152 14.1392C173.058 14.1392 172.085 13.9059 171.232 13.4392C170.378 12.9592 169.705 12.3059 169.212 11.4792C168.718 10.6526 168.472 9.71255 168.472 8.65922C168.472 7.59255 168.718 6.65255 169.212 5.83922C169.705 5.01255 170.378 4.36589 171.232 3.89922C172.085 3.43255 173.058 3.19922 174.152 3.19922C175.258 3.19922 176.238 3.43255 177.092 3.89922C177.958 4.36589 178.632 5.00589 179.112 5.81922C179.605 6.63255 179.852 7.57922 179.852 8.65922C179.852 9.71255 179.605 10.6526 179.112 11.4792C178.632 12.3059 177.958 12.9592 177.092 13.4392C176.238 13.9059 175.258 14.1392 174.152 14.1392ZM174.152 11.9992C174.765 11.9992 175.312 11.8659 175.792 11.5992C176.272 11.3326 176.645 10.9459 176.912 10.4392C177.192 9.93255 177.332 9.33922 177.332 8.65922C177.332 7.96589 177.192 7.37255 176.912 6.87922C176.645 6.37255 176.272 5.98589 175.792 5.71922C175.312 5.45255 174.772 5.31922 174.172 5.31922C173.558 5.31922 173.012 5.45255 172.532 5.71922C172.065 5.98589 171.692 6.37255 171.412 6.87922C171.132 7.37255 170.992 7.96589 170.992 8.65922C170.992 9.33922 171.132 9.93255 171.412 10.4392C171.692 10.9459 172.065 11.3326 172.532 11.5992C173.012 11.8659 173.552 11.9992 174.152 11.9992Z" fill="#163C51"/>
<path d="M155.661 14.0003V3.32031H158.161V7.66031H163.541V3.32031H166.041V14.0003H163.541V9.78031H158.161V14.0003H155.661Z" fill="#163C51"/>
<path d="M150.207 13.9992V11.8392L150.067 11.3792V7.59922C150.067 6.86589 149.847 6.29922 149.407 5.89922C148.967 5.48589 148.301 5.27922 147.407 5.27922C146.807 5.27922 146.214 5.37255 145.627 5.55922C145.054 5.74589 144.567 6.00589 144.167 6.33922L143.187 4.51922C143.761 4.07922 144.441 3.75255 145.227 3.53922C146.027 3.31255 146.854 3.19922 147.707 3.19922C149.254 3.19922 150.447 3.57255 151.287 4.31922C152.141 5.05255 152.567 6.19255 152.567 7.73922V13.9992H150.207ZM146.847 14.1392C146.047 14.1392 145.347 14.0059 144.747 13.7392C144.147 13.4592 143.681 13.0792 143.347 12.5992C143.027 12.1059 142.867 11.5526 142.867 10.9392C142.867 10.3392 143.007 9.79922 143.287 9.31922C143.581 8.83922 144.054 8.45922 144.707 8.17922C145.361 7.89922 146.227 7.75922 147.307 7.75922H150.407V9.41922H147.487C146.634 9.41922 146.061 9.55922 145.767 9.83922C145.474 10.1059 145.327 10.4392 145.327 10.8392C145.327 11.2926 145.507 11.6526 145.867 11.9192C146.227 12.1859 146.727 12.3192 147.367 12.3192C147.981 12.3192 148.527 12.1792 149.007 11.8992C149.501 11.6192 149.854 11.2059 150.067 10.6592L150.487 12.1592C150.247 12.7859 149.814 13.2726 149.187 13.6192C148.574 13.9659 147.794 14.1392 146.847 14.1392Z" fill="#163C51"/>
<path d="M131.345 14.0003V3.32031H136.565C137.858 3.32031 138.871 3.56031 139.605 4.04031C140.351 4.52031 140.725 5.20031 140.725 6.08031C140.725 6.94698 140.378 7.62698 139.685 8.12031C138.991 8.60031 138.071 8.84031 136.925 8.84031L137.225 8.22031C138.518 8.22031 139.478 8.46031 140.105 8.94031C140.745 9.40698 141.065 10.0936 141.065 11.0003C141.065 11.947 140.711 12.687 140.005 13.2203C139.298 13.7403 138.225 14.0003 136.785 14.0003H131.345ZM133.725 12.1803H136.585C137.265 12.1803 137.778 12.0736 138.125 11.8603C138.471 11.6336 138.645 11.2936 138.645 10.8403C138.645 10.3603 138.485 10.007 138.165 9.78031C137.845 9.55365 137.345 9.44031 136.665 9.44031H133.725V12.1803ZM133.725 7.78031H136.345C136.985 7.78031 137.465 7.66698 137.785 7.44031C138.118 7.20031 138.285 6.86698 138.285 6.44031C138.285 6.00031 138.118 5.67365 137.785 5.46031C137.465 5.24698 136.985 5.14031 136.345 5.14031H133.725V7.78031Z" fill="#163C51"/>
<path d="M115.199 14V0H117.759V9.94L125.279 0H127.699V14H125.139V4.08L117.619 14H115.199Z" fill="#163C51"/>
<path d="M105.249 6.51922C104.796 6.51922 104.409 6.36589 104.089 6.05922C103.769 5.73922 103.609 5.33922 103.609 4.85922C103.609 4.35255 103.769 3.95255 104.089 3.65922C104.409 3.35255 104.796 3.19922 105.249 3.19922C105.703 3.19922 106.089 3.35255 106.409 3.65922C106.729 3.95255 106.889 4.35255 106.889 4.85922C106.889 5.33922 106.729 5.73922 106.409 6.05922C106.089 6.36589 105.703 6.51922 105.249 6.51922ZM105.249 14.1392C104.796 14.1392 104.409 13.9859 104.089 13.6792C103.769 13.3592 103.609 12.9592 103.609 12.4792C103.609 11.9726 103.769 11.5726 104.089 11.2792C104.409 10.9726 104.796 10.8192 105.249 10.8192C105.703 10.8192 106.089 10.9726 106.409 11.2792C106.729 11.5726 106.889 11.9726 106.889 12.4792C106.889 12.9592 106.729 13.3592 106.409 13.6792C106.089 13.9859 105.703 14.1392 105.249 14.1392Z" fill="#163C51"/>
<path d="M96.5811 14.1392C95.7145 14.1392 94.9211 13.9392 94.2011 13.5392C93.4945 13.1392 92.9278 12.5392 92.5011 11.7392C92.0878 10.9259 91.8811 9.89922 91.8811 8.65922C91.8811 7.40589 92.0811 6.37922 92.4811 5.57922C92.8945 4.77922 93.4545 4.18589 94.1611 3.79922C94.8678 3.39922 95.6745 3.19922 96.5811 3.19922C97.6345 3.19922 98.5611 3.42589 99.3611 3.87922C100.174 4.33255 100.814 4.96589 101.281 5.77922C101.761 6.59255 102.001 7.55255 102.001 8.65922C102.001 9.76589 101.761 10.7326 101.281 11.5592C100.814 12.3726 100.174 13.0059 99.3611 13.4592C98.5611 13.9126 97.6345 14.1392 96.5811 14.1392ZM90.6611 17.8792V3.31922H93.0411V5.83922L92.9611 8.67922L93.1611 11.5192V17.8792H90.6611ZM96.3011 11.9992C96.9011 11.9992 97.4345 11.8659 97.9011 11.5992C98.3811 11.3326 98.7611 10.9459 99.0411 10.4392C99.3211 9.93255 99.4611 9.33922 99.4611 8.65922C99.4611 7.96589 99.3211 7.37255 99.0411 6.87922C98.7611 6.37255 98.3811 5.98589 97.9011 5.71922C97.4345 5.45255 96.9011 5.31922 96.3011 5.31922C95.7011 5.31922 95.1611 5.45255 94.6811 5.71922C94.2011 5.98589 93.8211 6.37255 93.5411 6.87922C93.2611 7.37255 93.1211 7.96589 93.1211 8.65922C93.1211 9.33922 93.2611 9.93255 93.5411 10.4392C93.8211 10.9459 94.2011 11.3326 94.6811 11.5992C95.1611 11.8659 95.7011 11.9992 96.3011 11.9992Z" fill="#163C51"/>
<path d="M82.9068 14.1392C81.7202 14.1392 80.6802 13.9059 79.7868 13.4392C78.9068 12.9592 78.2202 12.3059 77.7268 11.4792C77.2468 10.6526 77.0068 9.71255 77.0068 8.65922C77.0068 7.59255 77.2402 6.65255 77.7068 5.83922C78.1868 5.01255 78.8402 4.36589 79.6668 3.89922C80.5068 3.43255 81.4602 3.19922 82.5268 3.19922C83.5668 3.19922 84.4935 3.42589 85.3068 3.87922C86.1202 4.33255 86.7602 4.97255 87.2268 5.79922C87.6935 6.62589 87.9268 7.59922 87.9268 8.71922C87.9268 8.82589 87.9202 8.94589 87.9068 9.07922C87.9068 9.21255 87.9002 9.33922 87.8868 9.45922H78.9868V7.79922H86.5668L85.5868 8.31922C85.6002 7.70589 85.4735 7.16589 85.2068 6.69922C84.9402 6.23255 84.5735 5.86589 84.1068 5.59922C83.6535 5.33255 83.1268 5.19922 82.5268 5.19922C81.9135 5.19922 81.3735 5.33255 80.9068 5.59922C80.4535 5.86589 80.0935 6.23922 79.8268 6.71922C79.5735 7.18589 79.4468 7.73922 79.4468 8.37922V8.77922C79.4468 9.41922 79.5935 9.98589 79.8868 10.4792C80.1802 10.9726 80.5935 11.3526 81.1268 11.6192C81.6602 11.8859 82.2735 12.0192 82.9668 12.0192C83.5668 12.0192 84.1068 11.9259 84.5868 11.7392C85.0668 11.5526 85.4935 11.2592 85.8668 10.8592L87.2068 12.3992C86.7268 12.9592 86.1202 13.3926 85.3868 13.6992C84.6668 13.9926 83.8402 14.1392 82.9068 14.1392Z" fill="#163C51"/>
<path d="M70.342 14.0003V4.84031L70.922 5.44031H66.582V3.32031H76.582V5.44031H72.262L72.842 4.84031V14.0003H70.342Z" fill="#163C51"/>
<path d="M54.3916 14.0003V3.32031H56.8916V7.66031H62.2716V3.32031H64.7716V14.0003H62.2716V9.78031H56.8916V14.0003H54.3916Z" fill="#163C51"/>
<path d="M46.222 14.1392C45.1287 14.1392 44.1553 13.9059 43.302 13.4392C42.4487 12.9592 41.7753 12.3059 41.282 11.4792C40.7887 10.6526 40.542 9.71255 40.542 8.65922C40.542 7.59255 40.7887 6.65255 41.282 5.83922C41.7753 5.01255 42.4487 4.36589 43.302 3.89922C44.1553 3.43255 45.1287 3.19922 46.222 3.19922C47.3287 3.19922 48.3087 3.43255 49.162 3.89922C50.0287 4.36589 50.702 5.00589 51.182 5.81922C51.6753 6.63255 51.922 7.57922 51.922 8.65922C51.922 9.71255 51.6753 10.6526 51.182 11.4792C50.702 12.3059 50.0287 12.9592 49.162 13.4392C48.3087 13.9059 47.3287 14.1392 46.222 14.1392ZM46.222 11.9992C46.8353 11.9992 47.382 11.8659 47.862 11.5992C48.342 11.3326 48.7153 10.9459 48.982 10.4392C49.262 9.93255 49.402 9.33922 49.402 8.65922C49.402 7.96589 49.262 7.37255 48.982 6.87922C48.7153 6.37255 48.342 5.98589 47.862 5.71922C47.382 5.45255 46.842 5.31922 46.242 5.31922C45.6287 5.31922 45.082 5.45255 44.602 5.71922C44.1353 5.98589 43.762 6.37255 43.482 6.87922C43.202 7.37255 43.062 7.96589 43.062 8.65922C43.062 9.33922 43.202 9.93255 43.482 10.4392C43.762 10.9459 44.1353 11.3326 44.602 11.5992C45.082 11.8659 45.622 11.9992 46.222 11.9992Z" fill="#163C51"/>
<path d="M26.8545 13.9803L26.9745 11.8803C27.0678 11.8936 27.1545 11.907 27.2345 11.9203C27.3145 11.9336 27.3878 11.9403 27.4545 11.9403C27.8678 11.9403 28.1878 11.8136 28.4145 11.5603C28.6412 11.307 28.8078 10.967 28.9145 10.5403C29.0345 10.1003 29.1145 9.61365 29.1545 9.08031C29.2078 8.53365 29.2478 7.98698 29.2745 7.44031L29.4545 3.32031H38.0945V14.0003H35.5945V4.76031L36.1745 5.44031H31.0945L31.6345 4.74031L31.4945 7.56031C31.4545 8.50698 31.3745 9.38698 31.2545 10.2003C31.1478 11.0003 30.9745 11.7003 30.7345 12.3003C30.5078 12.9003 30.1878 13.367 29.7745 13.7003C29.3745 14.0336 28.8612 14.2003 28.2345 14.2003C28.0345 14.2003 27.8145 14.1803 27.5745 14.1403C27.3478 14.1003 27.1078 14.047 26.8545 13.9803Z" fill="#163C51"/>
<path d="M20.3626 14.1392C19.2693 14.1392 18.296 13.9059 17.4426 13.4392C16.5893 12.9592 15.916 12.3059 15.4226 11.4792C14.9293 10.6526 14.6826 9.71255 14.6826 8.65922C14.6826 7.59255 14.9293 6.65255 15.4226 5.83922C15.916 5.01255 16.5893 4.36589 17.4426 3.89922C18.296 3.43255 19.2693 3.19922 20.3626 3.19922C21.4693 3.19922 22.4493 3.43255 23.3026 3.89922C24.1693 4.36589 24.8426 5.00589 25.3226 5.81922C25.816 6.63255 26.0626 7.57922 26.0626 8.65922C26.0626 9.71255 25.816 10.6526 25.3226 11.4792C24.8426 12.3059 24.1693 12.9592 23.3026 13.4392C22.4493 13.9059 21.4693 14.1392 20.3626 14.1392ZM20.3626 11.9992C20.976 11.9992 21.5226 11.8659 22.0026 11.5992C22.4826 11.3326 22.856 10.9459 23.1226 10.4392C23.4026 9.93255 23.5426 9.33922 23.5426 8.65922C23.5426 7.96589 23.4026 7.37255 23.1226 6.87922C22.856 6.37255 22.4826 5.98589 22.0026 5.71922C21.5226 5.45255 20.9826 5.31922 20.3826 5.31922C19.7693 5.31922 19.2226 5.45255 18.7426 5.71922C18.2759 5.98589 17.9026 6.37255 17.6226 6.87922C17.3426 7.37255 17.2026 7.96589 17.2026 8.65922C17.2026 9.33922 17.3426 9.93255 17.6226 10.4392C17.9026 10.9459 18.2759 11.3326 18.7426 11.5992C19.2226 11.8659 19.7626 11.9992 20.3626 11.9992Z" fill="#163C51"/>
<path d="M0.980469 14V0H7.24047C8.8138 0 10.0405 0.313333 10.9205 0.94C11.8005 1.55333 12.2405 2.44 12.2405 3.6C12.2405 4.74667 11.8205 5.63333 10.9805 6.26C10.1405 6.87333 9.0338 7.18 7.66047 7.18L8.02047 6.46C9.58047 6.46 10.7871 6.77333 11.6405 7.4C12.4938 8.02667 12.9205 8.93333 12.9205 10.12C12.9205 11.3333 12.4738 12.2867 11.5805 12.98C10.6871 13.66 9.36714 14 7.62047 14H0.980469ZM3.54047 12H7.54047C8.44714 12 9.1338 11.8333 9.60047 11.5C10.0671 11.1533 10.3005 10.6267 10.3005 9.92C10.3005 9.21333 10.0671 8.7 9.60047 8.38C9.1338 8.04667 8.44714 7.88 7.54047 7.88H3.54047V12ZM3.54047 5.98H7.02047C7.86047 5.98 8.50047 5.81333 8.94047 5.48C9.38047 5.13333 9.60047 4.64 9.60047 4C9.60047 3.33333 9.38047 2.83333 8.94047 2.5C8.50047 2.16667 7.86047 2 7.02047 2H3.54047V5.98Z" fill="#163C51"/>
</svg>
