<svg width="522" height="25" viewBox="0 0 522 25" fill="none" xmlns="http://www.w3.org/2000/svg">
<path opacity="0.7" d="M519.403 16.8952C518.421 17.3219 517.429 17.6632 516.427 17.9192C515.445 18.1539 514.464 18.2712 513.483 18.2712C511.499 18.2712 509.931 17.8232 508.779 16.9272C507.627 16.0099 507.051 14.6019 507.051 12.7032V7.19922H509.291V12.5752C509.291 13.8552 509.707 14.8152 510.539 15.4552C511.371 16.0952 512.491 16.4152 513.899 16.4152C514.752 16.4152 515.648 16.3086 516.587 16.0952C517.525 15.8606 518.475 15.5299 519.435 15.1032L519.403 16.8952ZM519.211 23.9992V7.19922H521.483V23.9992H519.211Z" fill="#163C51"/>
<path opacity="0.7" d="M486.748 23.9992V7.19922H489.02V20.5432L500.252 7.19922H502.268V23.9992H499.996V10.6232L488.796 23.9992H486.748Z" fill="#163C51"/>
<path opacity="0.7" d="M467.279 23.9992V7.19922H474.703C476.602 7.19922 478.095 7.56189 479.183 8.28722C480.293 9.01255 480.847 10.0792 480.847 11.4872C480.847 12.8526 480.325 13.9086 479.279 14.6552C478.234 15.3806 476.858 15.7432 475.151 15.7432L475.599 15.0712C477.605 15.0712 479.077 15.4446 480.015 16.1912C480.954 16.9379 481.423 18.0152 481.423 19.4232C481.423 20.8739 480.89 22.0046 479.823 22.8152C478.778 23.6046 477.146 23.9992 474.927 23.9992H467.279ZM469.487 22.2072H474.831C476.261 22.2072 477.338 21.9832 478.063 21.5352C478.81 21.0659 479.183 20.3192 479.183 19.2952C479.183 18.2712 478.853 17.5246 478.191 17.0552C477.53 16.5859 476.485 16.3512 475.055 16.3512H469.487V22.2072ZM469.487 14.6552H474.543C475.845 14.6552 476.837 14.4099 477.519 13.9192C478.223 13.4286 478.575 12.7139 478.575 11.7752C478.575 10.8366 478.223 10.1326 477.519 9.66322C476.837 9.19389 475.845 8.95922 474.543 8.95922H469.487V14.6552Z" fill="#163C51"/>
<path opacity="0.7" d="M453.848 24.1591C452.226 24.1591 450.765 23.7964 449.464 23.0711C448.184 22.3244 447.17 21.3111 446.424 20.0311C445.677 18.7297 445.304 17.2471 445.304 15.5831C445.304 13.8977 445.677 12.4151 446.424 11.1351C447.17 9.85506 448.184 8.8524 449.464 8.12706C450.744 7.40173 452.205 7.03906 453.848 7.03906C455.512 7.03906 456.984 7.40173 458.264 8.12706C459.565 8.8524 460.578 9.85506 461.304 11.1351C462.05 12.4151 462.424 13.8977 462.424 15.5831C462.424 17.2471 462.05 18.7297 461.304 20.0311C460.578 21.3111 459.565 22.3244 458.264 23.0711C456.962 23.7964 455.49 24.1591 453.848 24.1591ZM453.848 22.1431C455.064 22.1431 456.141 21.8764 457.08 21.3431C458.018 20.7884 458.754 20.0204 459.288 19.0391C459.842 18.0364 460.12 16.8844 460.12 15.5831C460.12 14.2604 459.842 13.1084 459.288 12.1271C458.754 11.1457 458.018 10.3884 457.08 9.85506C456.141 9.3004 455.074 9.02306 453.88 9.02306C452.685 9.02306 451.618 9.3004 450.68 9.85506C449.741 10.3884 448.994 11.1457 448.44 12.1271C447.885 13.1084 447.608 14.2604 447.608 15.5831C447.608 16.8844 447.885 18.0364 448.44 19.0391C448.994 20.0204 449.741 20.7884 450.68 21.3431C451.618 21.8764 452.674 22.1431 453.848 22.1431Z" fill="#163C51"/>
<path opacity="0.7" d="M423.645 23.9672L423.805 22.0152C423.954 22.0366 424.093 22.0686 424.221 22.1112C424.37 22.1326 424.498 22.1432 424.605 22.1432C425.287 22.1432 425.831 21.8872 426.237 21.3752C426.663 20.8632 426.983 20.1806 427.197 19.3272C427.41 18.4739 427.559 17.5139 427.645 16.4472C427.73 15.3592 427.805 14.2712 427.869 13.1832L428.157 7.19922H440.477V23.9992H438.205V8.51122L438.781 9.18322H429.629L430.173 8.47922L429.917 13.3432C429.853 14.7939 429.735 16.1806 429.565 17.5032C429.415 18.8259 429.17 19.9886 428.829 20.9912C428.509 21.9939 428.061 22.7832 427.485 23.3592C426.909 23.9139 426.173 24.1912 425.277 24.1912C425.021 24.1912 424.754 24.1699 424.477 24.1272C424.221 24.0846 423.943 24.0312 423.645 23.9672Z" fill="#163C51"/>
<path opacity="0.7" d="M404.686 23.9992V7.19922H406.958V20.5432L418.19 7.19922H420.206V23.9992H417.934V10.6232L406.734 23.9992H404.686Z" fill="#163C51"/>
<path opacity="0.7" d="M396.461 23.9991V20.2871L396.365 19.6791V13.4711C396.365 12.0417 395.96 10.9431 395.149 10.1751C394.36 9.40706 393.176 9.02306 391.597 9.02306C390.509 9.02306 389.475 9.2044 388.493 9.56706C387.512 9.92973 386.68 10.4097 385.997 11.0071L384.973 9.31106C385.827 8.58573 386.851 8.03106 388.045 7.64706C389.24 7.24173 390.499 7.03906 391.821 7.03906C393.997 7.03906 395.672 7.58306 396.845 8.67106C398.04 9.73773 398.637 11.3697 398.637 13.5671V23.9991H396.461ZM390.669 24.1591C389.411 24.1591 388.312 23.9564 387.373 23.5511C386.456 23.1244 385.752 22.5484 385.261 21.8231C384.771 21.0764 384.525 20.2231 384.525 19.2631C384.525 18.3884 384.728 17.5991 385.133 16.8951C385.56 16.1697 386.243 15.5937 387.181 15.1671C388.141 14.7191 389.421 14.4951 391.021 14.4951H396.813V16.1911H391.085C389.464 16.1911 388.333 16.4791 387.693 17.0551C387.075 17.6311 386.765 18.3457 386.765 19.1991C386.765 20.1591 387.139 20.9271 387.885 21.5031C388.632 22.0791 389.677 22.3671 391.021 22.3671C392.301 22.3671 393.4 22.0791 394.317 21.5031C395.256 20.9057 395.939 20.0524 396.365 18.9431L396.877 20.5111C396.451 21.6204 395.704 22.5057 394.637 23.1671C393.592 23.8284 392.269 24.1591 390.669 24.1591Z" fill="#163C51"/>
<path opacity="0.7" d="M366.746 23.9992L373.85 14.7832L373.818 15.9032L367.066 7.19922H369.626L375.162 14.3992L374.202 14.3672L379.738 7.19922H382.234L375.418 15.9992L375.45 14.7832L382.618 23.9992H380.026L374.17 16.3192L375.066 16.4472L369.306 23.9992H366.746Z" fill="#163C51"/>
<path opacity="0.7" d="M347.467 23.9992V7.19922H349.739V20.5432L360.971 7.19922H362.987V23.9992H360.715V10.6232L349.515 23.9992H347.467Z" fill="#163C51"/>
<path opacity="0.7" d="M317.198 23.9996V1.59961H319.15L329.39 19.0716H328.366L338.51 1.59961H340.462V23.9996H338.19V5.15161H338.734L329.39 21.1516H328.27L318.862 5.15161H319.47V23.9996H317.198Z" fill="#163C51"/>
<path opacity="0.7" d="M284.988 23.9672L285.148 22.0152C285.298 22.0366 285.436 22.0686 285.564 22.1112C285.714 22.1326 285.842 22.1432 285.948 22.1432C286.631 22.1432 287.175 21.8872 287.58 21.3752C288.007 20.8632 288.327 20.1806 288.54 19.3272C288.754 18.4739 288.903 17.5139 288.988 16.4472C289.074 15.3592 289.148 14.2712 289.212 13.1832L289.5 7.19922H301.82V23.9992H299.548V8.51122L300.124 9.18322H290.972L291.516 8.47922L291.26 13.3432C291.196 14.7939 291.079 16.1806 290.908 17.5032C290.759 18.8259 290.514 19.9886 290.172 20.9912C289.852 21.9939 289.404 22.7832 288.828 23.3592C288.252 23.9139 287.516 24.1912 286.62 24.1912C286.364 24.1912 286.098 24.1699 285.82 24.1272C285.564 24.0846 285.287 24.0312 284.988 23.9672Z" fill="#163C51"/>
<path opacity="0.7" d="M266.029 23.9992V7.19922H268.301V20.5432L279.533 7.19922H281.549V23.9992H279.277V10.6232L268.077 23.9992H266.029Z" fill="#163C51"/>
<path opacity="0.7" d="M257.805 23.9991V20.2871L257.709 19.6791V13.4711C257.709 12.0417 257.304 10.9431 256.493 10.1751C255.704 9.40706 254.52 9.02306 252.941 9.02306C251.853 9.02306 250.818 9.2044 249.837 9.56706C248.856 9.92973 248.024 10.4097 247.341 11.0071L246.317 9.31106C247.17 8.58573 248.194 8.03106 249.389 7.64706C250.584 7.24173 251.842 7.03906 253.165 7.03906C255.341 7.03906 257.016 7.58306 258.189 8.67106C259.384 9.73773 259.981 11.3697 259.981 13.5671V23.9991H257.805ZM252.013 24.1591C250.754 24.1591 249.656 23.9564 248.717 23.5511C247.8 23.1244 247.096 22.5484 246.605 21.8231C246.114 21.0764 245.869 20.2231 245.869 19.2631C245.869 18.3884 246.072 17.5991 246.477 16.8951C246.904 16.1697 247.586 15.5937 248.525 15.1671C249.485 14.7191 250.765 14.4951 252.365 14.4951H258.157V16.1911H252.429C250.808 16.1911 249.677 16.4791 249.037 17.0551C248.418 17.6311 248.109 18.3457 248.109 19.1991C248.109 20.1591 248.482 20.9271 249.229 21.5031C249.976 22.0791 251.021 22.3671 252.365 22.3671C253.645 22.3671 254.744 22.0791 255.661 21.5031C256.6 20.9057 257.282 20.0524 257.709 18.9431L258.221 20.5111C257.794 21.6204 257.048 22.5057 255.981 23.1671C254.936 23.8284 253.613 24.1591 252.013 24.1591Z" fill="#163C51"/>
<path opacity="0.7" d="M228.09 23.9992L235.194 14.7832L235.162 15.9032L228.41 7.19922H230.97L236.506 14.3992L235.546 14.3672L241.082 7.19922H243.578L236.762 15.9992L236.794 14.7832L243.962 23.9992H241.37L235.514 16.3192L236.41 16.4472L230.65 23.9992H228.09Z" fill="#163C51"/>
<path opacity="0.7" d="M208.811 23.9992V7.19922H211.083V20.5432L222.315 7.19922H224.331V23.9992H222.059V10.6232L210.859 23.9992H208.811Z" fill="#163C51"/>
<path opacity="0.7" d="M178.542 23.9996V1.59961H180.494L190.734 19.0716H189.71L199.854 1.59961H201.806V23.9996H199.534V5.15161H200.078L190.734 21.1516H189.614L180.206 5.15161H180.814V23.9996H178.542Z" fill="#163C51"/>
<path opacity="0.7" d="M150.154 23.9992V7.19922H157.578C159.477 7.19922 160.97 7.56189 162.058 8.28722C163.168 9.01255 163.722 10.0792 163.722 11.4872C163.722 12.8526 163.2 13.9086 162.154 14.6552C161.109 15.3806 159.733 15.7432 158.026 15.7432L158.474 15.0712C160.48 15.0712 161.952 15.4446 162.89 16.1912C163.829 16.9379 164.298 18.0152 164.298 19.4232C164.298 20.8739 163.765 22.0046 162.698 22.8152C161.653 23.6046 160.021 23.9992 157.802 23.9992H150.154ZM152.362 22.2072H157.706C159.136 22.2072 160.213 21.9832 160.938 21.5352C161.685 21.0659 162.058 20.3192 162.058 19.2952C162.058 18.2712 161.728 17.5246 161.066 17.0552C160.405 16.5859 159.36 16.3512 157.93 16.3512H152.362V22.2072ZM152.362 14.6552H157.418C158.72 14.6552 159.712 14.4099 160.394 13.9192C161.098 13.4286 161.45 12.7139 161.45 11.7752C161.45 10.8366 161.098 10.1326 160.394 9.66322C159.712 9.19389 158.72 8.95922 157.418 8.95922H152.362V14.6552Z" fill="#163C51"/>
<path opacity="0.7" d="M136.723 24.1591C135.101 24.1591 133.64 23.7964 132.339 23.0711C131.059 22.3244 130.045 21.3111 129.299 20.0311C128.552 18.7297 128.179 17.2471 128.179 15.5831C128.179 13.8977 128.552 12.4151 129.299 11.1351C130.045 9.85506 131.059 8.8524 132.339 8.12706C133.619 7.40173 135.08 7.03906 136.723 7.03906C138.387 7.03906 139.859 7.40173 141.139 8.12706C142.44 8.8524 143.453 9.85506 144.179 11.1351C144.925 12.4151 145.299 13.8977 145.299 15.5831C145.299 17.2471 144.925 18.7297 144.179 20.0311C143.453 21.3111 142.44 22.3244 141.139 23.0711C139.837 23.7964 138.365 24.1591 136.723 24.1591ZM136.723 22.1431C137.939 22.1431 139.016 21.8764 139.955 21.3431C140.893 20.7884 141.629 20.0204 142.163 19.0391C142.717 18.0364 142.995 16.8844 142.995 15.5831C142.995 14.2604 142.717 13.1084 142.163 12.1271C141.629 11.1457 140.893 10.3884 139.955 9.85506C139.016 9.3004 137.949 9.02306 136.755 9.02306C135.56 9.02306 134.493 9.3004 133.555 9.85506C132.616 10.3884 131.869 11.1457 131.315 12.1271C130.76 13.1084 130.483 14.2604 130.483 15.5831C130.483 16.8844 130.76 18.0364 131.315 19.0391C131.869 20.0204 132.616 20.7884 133.555 21.3431C134.493 21.8764 135.549 22.1431 136.723 22.1431Z" fill="#163C51"/>
<path opacity="0.7" d="M106.52 23.9672L106.68 22.0152C106.829 22.0366 106.968 22.0686 107.096 22.1112C107.245 22.1326 107.373 22.1432 107.48 22.1432C108.162 22.1432 108.706 21.8872 109.112 21.3752C109.538 20.8632 109.858 20.1806 110.072 19.3272C110.285 18.4739 110.434 17.5139 110.52 16.4472C110.605 15.3592 110.68 14.2712 110.744 13.1832L111.032 7.19922H123.352V23.9992H121.08V8.51122L121.656 9.18322H112.504L113.048 8.47922L112.792 13.3432C112.728 14.7939 112.61 16.1806 112.44 17.5032C112.29 18.8259 112.045 19.9886 111.704 20.9912C111.384 21.9939 110.936 22.7832 110.36 23.3592C109.784 23.9139 109.048 24.1912 108.152 24.1912C107.896 24.1912 107.629 24.1699 107.352 24.1272C107.096 24.0846 106.818 24.0312 106.52 23.9672Z" fill="#163C51"/>
<path opacity="0.7" d="M87.5605 23.9994V7.19942H89.8325V20.5434L101.065 7.19942H103.081V23.9994H100.809V10.6234L89.6085 23.9994H87.5605ZM95.1765 4.76742C93.7685 4.76742 92.6272 4.41542 91.7525 3.71142C90.8992 2.98609 90.4512 1.95142 90.4085 0.607422H92.0405C92.0619 1.46075 92.3605 2.13275 92.9365 2.62342C93.5125 3.11409 94.2592 3.35942 95.1765 3.35942C96.0939 3.35942 96.8405 3.11409 97.4165 2.62342C98.0139 2.13275 98.3232 1.46075 98.3445 0.607422H99.9765C99.9552 1.95142 99.5072 2.98609 98.6325 3.71142C97.7579 4.41542 96.6059 4.76742 95.1765 4.76742Z" fill="#163C51"/>
<path opacity="0.7" d="M79.3364 23.9991V20.2871L79.2404 19.6791V13.4711C79.2404 12.0417 78.8351 10.9431 78.0244 10.1751C77.2351 9.40706 76.0511 9.02306 74.4724 9.02306C73.3844 9.02306 72.3497 9.2044 71.3684 9.56706C70.3871 9.92973 69.5551 10.4097 68.8724 11.0071L67.8484 9.31106C68.7017 8.58573 69.7257 8.03106 70.9204 7.64706C72.1151 7.24173 73.3737 7.03906 74.6964 7.03906C76.8724 7.03906 78.5471 7.58306 79.7204 8.67106C80.9151 9.73773 81.5124 11.3697 81.5124 13.5671V23.9991H79.3364ZM73.5444 24.1591C72.2857 24.1591 71.1871 23.9564 70.2484 23.5511C69.3311 23.1244 68.6271 22.5484 68.1364 21.8231C67.6457 21.0764 67.4004 20.2231 67.4004 19.2631C67.4004 18.3884 67.6031 17.5991 68.0084 16.8951C68.4351 16.1697 69.1177 15.5937 70.0564 15.1671C71.0164 14.7191 72.2964 14.4951 73.8964 14.4951H79.6884V16.1911H73.9604C72.3391 16.1911 71.2084 16.4791 70.5684 17.0551C69.9497 17.6311 69.6404 18.3457 69.6404 19.1991C69.6404 20.1591 70.0137 20.9271 70.7604 21.5031C71.5071 22.0791 72.5524 22.3671 73.8964 22.3671C75.1764 22.3671 76.2751 22.0791 77.1924 21.5031C78.1311 20.9057 78.8137 20.0524 79.2404 18.9431L79.7524 20.5111C79.3257 21.6204 78.5791 22.5057 77.5124 23.1671C76.4671 23.8284 75.1444 24.1591 73.5444 24.1591Z" fill="#163C51"/>
<path opacity="0.7" d="M49.6211 23.9992L56.7251 14.7832L56.6931 15.9032L49.9411 7.19922H52.5011L58.0371 14.3992L57.0771 14.3672L62.6131 7.19922H65.1091L58.2931 15.9992L58.3251 14.7832L65.4931 23.9992H62.9011L57.0451 16.3192L57.9411 16.4472L52.1811 23.9992H49.6211Z" fill="#163C51"/>
<path opacity="0.7" d="M30.3418 23.9992V7.19922H32.6138V20.5432L43.8458 7.19922H45.8618V23.9992H43.5898V10.6232L32.3898 23.9992H30.3418Z" fill="#163C51"/>
<path opacity="0.7" d="M0.0732422 23.9996V1.59961H2.02524L12.2652 19.0716H11.2412L21.3852 1.59961H23.3372V23.9996H21.0652V5.15161H21.6092L12.2652 21.1516H11.1452L1.73724 5.15161H2.34524V23.9996H0.0732422Z" fill="#163C51"/>
</svg>
