<svg width="194" height="24" viewBox="0 0 194 24" fill="none" xmlns="http://www.w3.org/2000/svg">
<path d="M176.322 20.3104L177.186 18.6144C178.168 19.4678 179.266 20.1078 180.482 20.5344C181.72 20.9398 182.957 21.1531 184.194 21.1744C185.432 21.1744 186.562 20.9931 187.586 20.6304C188.632 20.2678 189.474 19.7344 190.114 19.0304C190.754 18.3051 191.074 17.4304 191.074 16.4064C191.074 15.1051 190.552 14.1024 189.506 13.3984C188.482 12.6944 187.053 12.3424 185.218 12.3424H180.418V10.4224H185.09C186.669 10.4224 187.896 10.0918 188.77 9.43044C189.666 8.74777 190.114 7.8091 190.114 6.61444C190.114 5.7611 189.858 5.03577 189.346 4.43844C188.856 3.81977 188.173 3.35044 187.298 3.03044C186.445 2.6891 185.485 2.50777 184.418 2.48644C183.352 2.44377 182.242 2.58244 181.09 2.90244C179.96 3.2011 178.861 3.6811 177.794 4.34244L177.026 2.39044C178.349 1.6011 179.725 1.0571 181.154 0.758437C182.584 0.438437 183.97 0.331771 185.314 0.438437C186.658 0.545104 187.864 0.854437 188.93 1.36644C190.018 1.87844 190.882 2.55044 191.522 3.38244C192.162 4.21444 192.482 5.20644 192.482 6.35844C192.482 7.4251 192.205 8.36377 191.65 9.17444C191.117 9.9851 190.36 10.6144 189.378 11.0624C188.418 11.4891 187.277 11.7024 185.954 11.7024L186.082 10.9984C187.576 10.9984 188.866 11.2331 189.954 11.7024C191.064 12.1718 191.917 12.8438 192.514 13.7184C193.133 14.5718 193.442 15.5744 193.442 16.7264C193.442 17.8144 193.165 18.7851 192.61 19.6384C192.077 20.4704 191.33 21.1744 190.37 21.7504C189.432 22.3051 188.376 22.7104 187.202 22.9664C186.029 23.2011 184.802 23.2651 183.522 23.1584C182.242 23.0518 180.984 22.7744 179.746 22.3264C178.509 21.8571 177.368 21.1851 176.322 20.3104Z" fill="#5C7786"/>
<path d="M155.01 22.9977V0.597656H164.322C166.69 0.597656 168.546 1.08832 169.89 2.06966C171.255 3.02966 171.938 4.44832 171.938 6.32566C171.938 8.18166 171.287 9.58966 169.986 10.5497C168.684 11.4883 166.978 11.9577 164.866 11.9577L165.41 11.1577C167.906 11.1577 169.804 11.6483 171.106 12.6297C172.407 13.611 173.058 15.051 173.058 16.9497C173.058 18.8697 172.375 20.363 171.01 21.4297C169.666 22.475 167.639 22.9977 164.93 22.9977H155.01ZM157.346 21.1097H164.93C166.828 21.1097 168.268 20.7577 169.25 20.0537C170.231 19.3497 170.722 18.2617 170.722 16.7897C170.722 15.339 170.231 14.2723 169.25 13.5897C168.268 12.907 166.828 12.5657 164.93 12.5657H157.346V21.1097ZM157.346 10.7417H164.194C165.922 10.7417 167.244 10.4003 168.162 9.71766C169.1 9.01366 169.57 7.97899 169.57 6.61366C169.57 5.24832 169.1 4.22432 168.162 3.54166C167.244 2.83766 165.922 2.48566 164.194 2.48566H157.346V10.7417Z" fill="#5C7786"/>
<path d="M137.616 23.1903C135.931 23.1903 134.363 22.9129 132.912 22.3583C131.483 21.7823 130.235 20.9823 129.168 19.9583C128.123 18.9129 127.301 17.7076 126.704 16.3423C126.128 14.9556 125.84 13.4409 125.84 11.7983C125.84 10.1556 126.128 8.65158 126.704 7.28625C127.301 5.89958 128.123 4.69425 129.168 3.67025C130.235 2.62492 131.483 1.82492 132.912 1.27025C134.341 0.69425 135.909 0.40625 137.616 0.40625C139.301 0.40625 140.859 0.69425 142.288 1.27025C143.717 1.82492 144.955 2.61425 146 3.63825C147.067 4.66225 147.888 5.86758 148.464 7.25425C149.061 8.64092 149.36 10.1556 149.36 11.7983C149.36 13.4409 149.061 14.9556 148.464 16.3423C147.888 17.7289 147.067 18.9342 146 19.9583C144.955 20.9823 143.717 21.7823 142.288 22.3583C140.859 22.9129 139.301 23.1903 137.616 23.1903ZM137.616 21.0783C138.96 21.0783 140.197 20.8543 141.328 20.4063C142.48 19.9369 143.472 19.2863 144.304 18.4543C145.157 17.6009 145.819 16.6196 146.288 15.5103C146.757 14.3796 146.992 13.1423 146.992 11.7983C146.992 10.4543 146.757 9.22758 146.288 8.11825C145.819 6.98758 145.157 6.00625 144.304 5.17425C143.472 4.32092 142.48 3.67025 141.328 3.22225C140.197 2.75292 138.96 2.51825 137.616 2.51825C136.272 2.51825 135.024 2.75292 133.872 3.22225C132.72 3.67025 131.717 4.32092 130.864 5.17425C130.032 6.00625 129.371 6.98758 128.88 8.11825C128.411 9.22758 128.176 10.4543 128.176 11.7983C128.176 13.1209 128.411 14.3476 128.88 15.4783C129.371 16.6089 130.032 17.6009 130.864 18.4543C131.717 19.2863 132.72 19.9369 133.872 20.4063C135.024 20.8543 136.272 21.0783 137.616 21.0783Z" fill="#5C7786"/>
<path d="M110.313 22.9992V16.9512L110.729 17.4312H105.033C102.879 17.4312 101.193 16.9619 99.9774 16.0232C98.7614 15.0846 98.1534 13.7192 98.1534 11.9272C98.1534 10.0072 98.8041 8.57789 100.105 7.63922C101.407 6.67922 103.145 6.19922 105.321 6.19922H112.393V22.9992H110.313ZM98.0254 22.9992L102.633 16.5352H105.001L100.489 22.9992H98.0254ZM110.313 16.2792V7.51122L110.729 8.18322H105.385C103.828 8.18322 102.612 8.48188 101.737 9.07922C100.884 9.67655 100.457 10.6472 100.457 11.9912C100.457 14.4872 102.047 15.7352 105.225 15.7352H110.729L110.313 16.2792Z" fill="#5C7786"/>
<path d="M77.873 22.9992V6.19922H80.145V13.6232H90.737V6.19922H93.009V22.9992H90.737V15.5752H80.145V22.9992H77.873Z" fill="#5C7786"/>
<path d="M65.291 23.1591C63.5417 23.1591 62.0057 22.7964 60.683 22.0711C59.3603 21.3244 58.3257 20.3111 57.579 19.0311C56.8323 17.7297 56.459 16.2471 56.459 14.5831C56.459 12.9191 56.811 11.4471 57.515 10.1671C58.2403 8.88706 59.2217 7.8844 60.459 7.15906C61.7177 6.4124 63.1256 6.03906 64.683 6.03906C66.2617 6.03906 67.659 6.40173 68.875 7.12706C70.1123 7.83106 71.083 8.83373 71.787 10.1351C72.491 11.4151 72.843 12.8977 72.843 14.5831C72.843 14.6897 72.8323 14.8071 72.811 14.9351C72.811 15.0417 72.811 15.1591 72.811 15.2871H58.187V13.5911H71.595L70.699 14.2631C70.699 13.0471 70.4323 11.9697 69.899 11.0311C69.387 10.0711 68.683 9.3244 67.787 8.79106C66.891 8.25773 65.8563 7.99106 64.683 7.99106C63.531 7.99106 62.4963 8.25773 61.579 8.79106C60.6617 9.3244 59.947 10.0711 59.435 11.0311C58.923 11.9911 58.667 13.0897 58.667 14.3271V14.6791C58.667 15.9591 58.9443 17.0897 59.499 18.0711C60.075 19.0311 60.8643 19.7884 61.867 20.3431C62.891 20.8764 64.0537 21.1431 65.355 21.1431C66.379 21.1431 67.3283 20.9617 68.203 20.5991C69.099 20.2364 69.867 19.6817 70.507 18.9351L71.787 20.4071C71.0403 21.3031 70.1017 21.9857 68.971 22.4551C67.8617 22.9244 66.635 23.1591 65.291 23.1591Z" fill="#5C7786"/>
<path d="M32.8105 22.9992V6.19922H35.1145L42.7305 19.0952H41.7705L49.5145 6.19922H51.6265V22.9992H49.5466V8.79122L49.9626 8.98322L42.7305 20.9512H41.7065L34.4105 8.85522L34.8905 8.75922V22.9992H32.8105Z" fill="#5C7786"/>
<path d="M2.845 20.7897C3.933 21.2163 4.957 21.323 5.917 21.1097C6.877 20.875 7.76233 20.1177 8.573 18.8377L9.661 17.1097L9.885 16.8217L18.461 0.597656H20.829L10.653 19.3497C9.97033 20.651 9.15967 21.6217 8.221 22.2617C7.30367 22.9017 6.32233 23.243 5.277 23.2857C4.253 23.3283 3.21833 23.1363 2.173 22.7097L2.845 20.7897ZM9.821 18.9657L0.125 0.597656H2.653L11.101 17.0137L9.821 18.9657Z" fill="#5C7786"/>
</svg>
