<svg width="322" height="31" viewBox="0 0 322 31" fill="none" xmlns="http://www.w3.org/2000/svg">
<path d="M309.131 30.5036C307.087 30.5036 305.057 30.2376 303.041 29.7056C301.053 29.1456 299.345 28.3616 297.917 27.3536L300.605 22.1456C301.725 22.9576 303.013 23.6016 304.469 24.0776C305.953 24.5536 307.451 24.7916 308.963 24.7916C310.671 24.7916 312.015 24.4556 312.995 23.7836C313.975 23.1116 314.465 22.1736 314.465 20.9696C314.465 20.2136 314.269 19.5416 313.877 18.9536C313.485 18.3656 312.785 17.9176 311.777 17.6096C310.797 17.3016 309.411 17.1476 307.619 17.1476H300.101L301.613 0.599609H319.547V6.05961H304.049L307.577 2.95161L306.527 14.7536L302.999 11.6456H309.215C312.127 11.6456 314.465 12.0516 316.229 12.8636C318.021 13.6476 319.323 14.7256 320.135 16.0976C320.947 17.4696 321.353 19.0236 321.353 20.7596C321.353 22.4956 320.919 24.1056 320.051 25.5896C319.183 27.0456 317.839 28.2356 316.019 29.1596C314.227 30.0556 311.931 30.5036 309.131 30.5036Z" fill="#163C51"/>
<path d="M283.588 30.5037C281.124 30.5037 278.968 30.1397 277.12 29.4117C275.272 28.6557 273.83 27.6057 272.794 26.2617C271.758 24.8897 271.24 23.2937 271.24 21.4737C271.24 19.6537 271.744 18.1137 272.752 16.8537C273.788 15.5657 275.23 14.5997 277.078 13.9557C278.926 13.2837 281.096 12.9477 283.588 12.9477C286.108 12.9477 288.292 13.2837 290.14 13.9557C292.016 14.5997 293.458 15.5657 294.466 16.8537C295.502 18.1137 296.02 19.6537 296.02 21.4737C296.02 23.2937 295.502 24.8897 294.466 26.2617C293.43 27.6057 291.974 28.6557 290.098 29.4117C288.25 30.1397 286.08 30.5037 283.588 30.5037ZM283.588 25.5057C285.296 25.5057 286.64 25.1277 287.62 24.3717C288.628 23.6157 289.132 22.5797 289.132 21.2637C289.132 19.9477 288.628 18.9257 287.62 18.1977C286.64 17.4417 285.296 17.0637 283.588 17.0637C281.908 17.0637 280.578 17.4417 279.598 18.1977C278.618 18.9257 278.128 19.9477 278.128 21.2637C278.128 22.5797 278.618 23.6157 279.598 24.3717C280.578 25.1277 281.908 25.5057 283.588 25.5057ZM283.588 16.3917C281.32 16.3917 279.332 16.0837 277.624 15.4677C275.944 14.8517 274.628 13.9557 273.676 12.7797C272.752 11.5757 272.29 10.1477 272.29 8.4957C272.29 6.7597 272.766 5.2757 273.718 4.0437C274.67 2.7837 276 1.8177 277.708 1.1457C279.416 0.445702 281.376 0.0957031 283.588 0.0957031C285.856 0.0957031 287.83 0.445702 289.51 1.1457C291.218 1.8177 292.548 2.7837 293.5 4.0437C294.48 5.2757 294.97 6.7597 294.97 8.4957C294.97 10.1477 294.494 11.5757 293.542 12.7797C292.618 13.9557 291.302 14.8517 289.594 15.4677C287.886 16.0837 285.884 16.3917 283.588 16.3917ZM283.588 12.4017C285.016 12.4017 286.136 12.0797 286.948 11.4357C287.788 10.7917 288.208 9.9097 288.208 8.7897C288.208 7.6137 287.774 6.7037 286.906 6.0597C286.066 5.4157 284.96 5.0937 283.588 5.0937C282.244 5.0937 281.152 5.4157 280.312 6.0597C279.472 6.7037 279.052 7.6137 279.052 8.7897C279.052 9.9097 279.458 10.7917 280.27 11.4357C281.082 12.0797 282.188 12.4017 283.588 12.4017Z" fill="#163C51"/>
<path d="M246.383 29.9997V25.5897L257.723 14.8797C258.619 14.0677 259.277 13.3397 259.697 12.6957C260.117 12.0517 260.397 11.4637 260.537 10.9317C260.705 10.3997 260.789 9.9097 260.789 9.4617C260.789 8.2857 260.383 7.3897 259.571 6.7737C258.787 6.1297 257.625 5.8077 256.085 5.8077C254.853 5.8077 253.705 6.0457 252.641 6.5217C251.605 6.9977 250.723 7.7397 249.995 8.7477L245.039 5.5557C246.159 3.8757 247.727 2.5457 249.743 1.5657C251.759 0.585702 254.083 0.0957031 256.715 0.0957031C258.899 0.0957031 260.803 0.459702 262.427 1.1877C264.079 1.8877 265.353 2.8817 266.249 4.1697C267.173 5.4577 267.635 6.9977 267.635 8.7897C267.635 9.7417 267.509 10.6937 267.257 11.6457C267.033 12.5697 266.557 13.5497 265.829 14.5857C265.129 15.6217 264.093 16.7837 262.721 18.0717L253.313 26.9337L252.011 24.4557H268.601V29.9997H246.383Z" fill="#163C51"/>
<path d="M221.61 29.9997V25.5897L232.95 14.8797C233.846 14.0677 234.504 13.3397 234.924 12.6957C235.344 12.0517 235.624 11.4637 235.764 10.9317C235.932 10.3997 236.016 9.9097 236.016 9.4617C236.016 8.2857 235.61 7.3897 234.798 6.7737C234.014 6.1297 232.852 5.8077 231.312 5.8077C230.08 5.8077 228.932 6.0457 227.868 6.5217C226.832 6.9977 225.95 7.7397 225.222 8.7477L220.266 5.5557C221.386 3.8757 222.954 2.5457 224.97 1.5657C226.986 0.585702 229.31 0.0957031 231.942 0.0957031C234.126 0.0957031 236.03 0.459702 237.654 1.1877C239.306 1.8877 240.58 2.8817 241.476 4.1697C242.4 5.4577 242.862 6.9977 242.862 8.7897C242.862 9.7417 242.736 10.6937 242.484 11.6457C242.26 12.5697 241.784 13.5497 241.056 14.5857C240.356 15.6217 239.32 16.7837 237.948 18.0717L228.54 26.9337L227.238 24.4557H243.828V29.9997H221.61Z" fill="#163C51"/>
<path d="M205.615 0.0957031C208.331 0.0957031 210.669 0.655703 212.629 1.7757C214.589 2.8957 216.101 4.5337 217.165 6.6897C218.229 8.8177 218.761 11.4777 218.761 14.6697C218.761 18.0577 218.117 20.9277 216.829 23.2797C215.569 25.6317 213.819 27.4237 211.579 28.6557C209.339 29.8877 206.735 30.5037 203.767 30.5037C202.227 30.5037 200.743 30.3357 199.315 29.9997C197.887 29.6637 196.655 29.1597 195.619 28.4877L198.139 23.4897C198.951 24.0497 199.819 24.4417 200.743 24.6657C201.667 24.8617 202.633 24.9597 203.641 24.9597C206.161 24.9597 208.163 24.1897 209.647 22.6497C211.159 21.1097 211.915 18.8277 211.915 15.8037C211.915 15.2997 211.901 14.7397 211.873 14.1237C211.845 13.5077 211.775 12.8917 211.663 12.2757L213.511 14.0397C213.035 15.1317 212.363 16.0557 211.495 16.8117C210.627 17.5397 209.619 18.0997 208.471 18.4917C207.323 18.8557 206.035 19.0377 204.607 19.0377C202.731 19.0377 201.023 18.6597 199.483 17.9037C197.971 17.1477 196.753 16.0837 195.829 14.7117C194.933 13.3397 194.485 11.7297 194.485 9.8817C194.485 7.8657 194.975 6.1297 195.955 4.6737C196.963 3.2177 198.307 2.0977 199.987 1.3137C201.695 0.501703 203.571 0.0957031 205.615 0.0957031ZM206.035 5.1777C205.055 5.1777 204.201 5.3597 203.473 5.7237C202.745 6.0597 202.171 6.5637 201.751 7.2357C201.331 7.8797 201.121 8.6497 201.121 9.5457C201.121 10.8897 201.569 11.9677 202.465 12.7797C203.389 13.5637 204.607 13.9557 206.119 13.9557C207.099 13.9557 207.967 13.7737 208.723 13.4097C209.507 13.0177 210.109 12.4857 210.529 11.8137C210.949 11.1417 211.159 10.3857 211.159 9.5457C211.159 8.7057 210.949 7.9637 210.529 7.3197C210.137 6.6477 209.563 6.1297 208.807 5.7657C208.051 5.3737 207.127 5.1777 206.035 5.1777Z" fill="#163C51"/>
<path d="M178.873 0.0957031C181.589 0.0957031 183.927 0.655703 185.887 1.7757C187.847 2.8957 189.359 4.5337 190.423 6.6897C191.487 8.8177 192.019 11.4777 192.019 14.6697C192.019 18.0577 191.375 20.9277 190.087 23.2797C188.827 25.6317 187.077 27.4237 184.837 28.6557C182.597 29.8877 179.993 30.5037 177.025 30.5037C175.485 30.5037 174.001 30.3357 172.573 29.9997C171.145 29.6637 169.913 29.1597 168.877 28.4877L171.397 23.4897C172.209 24.0497 173.077 24.4417 174.001 24.6657C174.925 24.8617 175.891 24.9597 176.899 24.9597C179.419 24.9597 181.421 24.1897 182.905 22.6497C184.417 21.1097 185.173 18.8277 185.173 15.8037C185.173 15.2997 185.159 14.7397 185.131 14.1237C185.103 13.5077 185.033 12.8917 184.921 12.2757L186.769 14.0397C186.293 15.1317 185.621 16.0557 184.753 16.8117C183.885 17.5397 182.877 18.0997 181.729 18.4917C180.581 18.8557 179.293 19.0377 177.865 19.0377C175.989 19.0377 174.281 18.6597 172.741 17.9037C171.229 17.1477 170.011 16.0837 169.087 14.7117C168.191 13.3397 167.743 11.7297 167.743 9.8817C167.743 7.8657 168.233 6.1297 169.213 4.6737C170.221 3.2177 171.565 2.0977 173.245 1.3137C174.953 0.501703 176.829 0.0957031 178.873 0.0957031ZM179.293 5.1777C178.313 5.1777 177.459 5.3597 176.731 5.7237C176.003 6.0597 175.429 6.5637 175.009 7.2357C174.589 7.8797 174.379 8.6497 174.379 9.5457C174.379 10.8897 174.827 11.9677 175.723 12.7797C176.647 13.5637 177.865 13.9557 179.377 13.9557C180.357 13.9557 181.225 13.7737 181.981 13.4097C182.765 13.0177 183.367 12.4857 183.787 11.8137C184.207 11.1417 184.417 10.3857 184.417 9.5457C184.417 8.7057 184.207 7.9637 183.787 7.3197C183.395 6.6477 182.821 6.1297 182.065 5.7657C181.309 5.3737 180.385 5.1777 179.293 5.1777Z" fill="#163C51"/>
<path d="M152.131 0.0957031C154.847 0.0957031 157.185 0.655703 159.145 1.7757C161.105 2.8957 162.617 4.5337 163.681 6.6897C164.745 8.8177 165.277 11.4777 165.277 14.6697C165.277 18.0577 164.633 20.9277 163.345 23.2797C162.085 25.6317 160.335 27.4237 158.095 28.6557C155.855 29.8877 153.251 30.5037 150.283 30.5037C148.743 30.5037 147.259 30.3357 145.831 29.9997C144.403 29.6637 143.171 29.1597 142.135 28.4877L144.655 23.4897C145.467 24.0497 146.335 24.4417 147.259 24.6657C148.183 24.8617 149.149 24.9597 150.157 24.9597C152.677 24.9597 154.679 24.1897 156.163 22.6497C157.675 21.1097 158.431 18.8277 158.431 15.8037C158.431 15.2997 158.417 14.7397 158.389 14.1237C158.361 13.5077 158.291 12.8917 158.179 12.2757L160.027 14.0397C159.551 15.1317 158.879 16.0557 158.011 16.8117C157.143 17.5397 156.135 18.0997 154.987 18.4917C153.839 18.8557 152.551 19.0377 151.123 19.0377C149.247 19.0377 147.539 18.6597 145.999 17.9037C144.487 17.1477 143.269 16.0837 142.345 14.7117C141.449 13.3397 141.001 11.7297 141.001 9.8817C141.001 7.8657 141.491 6.1297 142.471 4.6737C143.479 3.2177 144.823 2.0977 146.503 1.3137C148.211 0.501703 150.087 0.0957031 152.131 0.0957031ZM152.551 5.1777C151.571 5.1777 150.717 5.3597 149.989 5.7237C149.261 6.0597 148.687 6.5637 148.267 7.2357C147.847 7.8797 147.637 8.6497 147.637 9.5457C147.637 10.8897 148.085 11.9677 148.981 12.7797C149.905 13.5637 151.123 13.9557 152.635 13.9557C153.615 13.9557 154.483 13.7737 155.239 13.4097C156.023 13.0177 156.625 12.4857 157.045 11.8137C157.465 11.1417 157.675 10.3857 157.675 9.5457C157.675 8.7057 157.465 7.9637 157.045 7.3197C156.653 6.6477 156.079 6.1297 155.323 5.7657C154.567 5.3737 153.643 5.1777 152.551 5.1777Z" fill="#163C51"/>
<path d="M126.252 30.5037C123.788 30.5037 121.632 30.1397 119.784 29.4117C117.936 28.6557 116.494 27.6057 115.458 26.2617C114.422 24.8897 113.904 23.2937 113.904 21.4737C113.904 19.6537 114.408 18.1137 115.416 16.8537C116.452 15.5657 117.894 14.5997 119.742 13.9557C121.59 13.2837 123.76 12.9477 126.252 12.9477C128.772 12.9477 130.956 13.2837 132.804 13.9557C134.68 14.5997 136.122 15.5657 137.13 16.8537C138.166 18.1137 138.684 19.6537 138.684 21.4737C138.684 23.2937 138.166 24.8897 137.13 26.2617C136.094 27.6057 134.638 28.6557 132.762 29.4117C130.914 30.1397 128.744 30.5037 126.252 30.5037ZM126.252 25.5057C127.96 25.5057 129.304 25.1277 130.284 24.3717C131.292 23.6157 131.796 22.5797 131.796 21.2637C131.796 19.9477 131.292 18.9257 130.284 18.1977C129.304 17.4417 127.96 17.0637 126.252 17.0637C124.572 17.0637 123.242 17.4417 122.262 18.1977C121.282 18.9257 120.792 19.9477 120.792 21.2637C120.792 22.5797 121.282 23.6157 122.262 24.3717C123.242 25.1277 124.572 25.5057 126.252 25.5057ZM126.252 16.3917C123.984 16.3917 121.996 16.0837 120.288 15.4677C118.608 14.8517 117.292 13.9557 116.34 12.7797C115.416 11.5757 114.954 10.1477 114.954 8.4957C114.954 6.7597 115.43 5.2757 116.382 4.0437C117.334 2.7837 118.664 1.8177 120.372 1.1457C122.08 0.445702 124.04 0.0957031 126.252 0.0957031C128.52 0.0957031 130.494 0.445702 132.174 1.1457C133.882 1.8177 135.212 2.7837 136.164 4.0437C137.144 5.2757 137.634 6.7597 137.634 8.4957C137.634 10.1477 137.158 11.5757 136.206 12.7797C135.282 13.9557 133.966 14.8517 132.258 15.4677C130.55 16.0837 128.548 16.3917 126.252 16.3917ZM126.252 12.4017C127.68 12.4017 128.8 12.0797 129.612 11.4357C130.452 10.7917 130.872 9.9097 130.872 8.7897C130.872 7.6137 130.438 6.7037 129.57 6.0597C128.73 5.4157 127.624 5.0937 126.252 5.0937C124.908 5.0937 123.816 5.4157 122.976 6.0597C122.136 6.7037 121.716 7.6137 121.716 8.7897C121.716 9.9097 122.122 10.7917 122.934 11.4357C123.746 12.0797 124.852 12.4017 126.252 12.4017Z" fill="#163C51"/>
<path d="M89.0471 29.9997V25.5897L100.387 14.8797C101.283 14.0677 101.941 13.3397 102.361 12.6957C102.781 12.0517 103.061 11.4637 103.201 10.9317C103.369 10.3997 103.453 9.9097 103.453 9.4617C103.453 8.2857 103.047 7.3897 102.235 6.7737C101.451 6.1297 100.289 5.8077 98.7491 5.8077C97.5171 5.8077 96.3691 6.0457 95.3051 6.5217C94.2691 6.9977 93.3871 7.7397 92.6591 8.7477L87.7031 5.5557C88.8231 3.8757 90.3911 2.5457 92.4071 1.5657C94.4231 0.585702 96.7471 0.0957031 99.3791 0.0957031C101.563 0.0957031 103.467 0.459702 105.091 1.1877C106.743 1.8877 108.017 2.8817 108.913 4.1697C109.837 5.4577 110.299 6.9977 110.299 8.7897C110.299 9.7417 110.173 10.6937 109.921 11.6457C109.697 12.5697 109.221 13.5497 108.493 14.5857C107.793 15.6217 106.757 16.7837 105.385 18.0717L95.9771 26.9337L94.6751 24.4557H111.265V29.9997H89.0471Z" fill="#163C51"/>
<path d="M73.0529 0.0957031C75.7689 0.0957031 78.1069 0.655703 80.0669 1.7757C82.0269 2.8957 83.5388 4.5337 84.6028 6.6897C85.6668 8.8177 86.1989 11.4777 86.1989 14.6697C86.1989 18.0577 85.5549 20.9277 84.2669 23.2797C83.0069 25.6317 81.2568 27.4237 79.0168 28.6557C76.7768 29.8877 74.1729 30.5037 71.2049 30.5037C69.6649 30.5037 68.1808 30.3357 66.7528 29.9997C65.3248 29.6637 64.0929 29.1597 63.0569 28.4877L65.5769 23.4897C66.3889 24.0497 67.2569 24.4417 68.1809 24.6657C69.1049 24.8617 70.0709 24.9597 71.0789 24.9597C73.5989 24.9597 75.6009 24.1897 77.0849 22.6497C78.5969 21.1097 79.3529 18.8277 79.3529 15.8037C79.3529 15.2997 79.3388 14.7397 79.3108 14.1237C79.2828 13.5077 79.2128 12.8917 79.1008 12.2757L80.9488 14.0397C80.4728 15.1317 79.8008 16.0557 78.9328 16.8117C78.0648 17.5397 77.0569 18.0997 75.9089 18.4917C74.7609 18.8557 73.4728 19.0377 72.0448 19.0377C70.1688 19.0377 68.4608 18.6597 66.9208 17.9037C65.4088 17.1477 64.1908 16.0837 63.2668 14.7117C62.3708 13.3397 61.9229 11.7297 61.9229 9.8817C61.9229 7.8657 62.4128 6.1297 63.3928 4.6737C64.4008 3.2177 65.7449 2.0977 67.4249 1.3137C69.1329 0.501703 71.0089 0.0957031 73.0529 0.0957031ZM73.4729 5.1777C72.4929 5.1777 71.6389 5.3597 70.9109 5.7237C70.1829 6.0597 69.6089 6.5637 69.1889 7.2357C68.7689 7.8797 68.5588 8.6497 68.5588 9.5457C68.5588 10.8897 69.0069 11.9677 69.9029 12.7797C70.8269 13.5637 72.0449 13.9557 73.5569 13.9557C74.5368 13.9557 75.4049 13.7737 76.1609 13.4097C76.9449 13.0177 77.5469 12.4857 77.9669 11.8137C78.3869 11.1417 78.5969 10.3857 78.5969 9.5457C78.5969 8.7057 78.3869 7.9637 77.9669 7.3197C77.5749 6.6477 77.0009 6.1297 76.2449 5.7657C75.4889 5.3737 74.5649 5.1777 73.4729 5.1777Z" fill="#163C51"/>
<path d="M41.3799 29.9996L53.2239 3.20361L54.9879 6.14361H39.1539L42.1779 2.95161V10.9316H36.1299V0.599609H59.6919V5.00961L48.7719 29.9996H41.3799Z" fill="#163C51"/>
<path d="M7.87049 25.0017V5.59766H13.2885V25.0017H7.87049ZM0.604492 17.8617V12.7377H20.5965V17.8617H0.604492Z" fill="#163C51"/>
</svg>
