<svg width="452" height="30" viewBox="0 0 452 30" fill="none" xmlns="http://www.w3.org/2000/svg">
<path opacity="0.7" d="M434.064 20.3104L434.928 18.6144C435.91 19.4678 437.008 20.1078 438.224 20.5344C439.462 20.9398 440.699 21.1531 441.936 21.1744C443.174 21.1744 444.304 20.9931 445.328 20.6304C446.374 20.2678 447.216 19.7344 447.856 19.0304C448.496 18.3051 448.816 17.4304 448.816 16.4064C448.816 15.1051 448.294 14.1024 447.248 13.3984C446.224 12.6944 444.795 12.3424 442.96 12.3424H438.16V10.4224H442.832C444.411 10.4224 445.638 10.0918 446.512 9.43044C447.408 8.74777 447.856 7.8091 447.856 6.61444C447.856 5.7611 447.6 5.03577 447.088 4.43844C446.598 3.81977 445.915 3.35044 445.04 3.03044C444.187 2.6891 443.227 2.50777 442.16 2.48644C441.094 2.44377 439.984 2.58244 438.832 2.90244C437.702 3.2011 436.603 3.6811 435.536 4.34244L434.768 2.39044C436.091 1.6011 437.467 1.0571 438.896 0.758437C440.326 0.438437 441.712 0.331771 443.056 0.438437C444.4 0.545104 445.606 0.854437 446.672 1.36644C447.76 1.87844 448.624 2.55044 449.264 3.38244C449.904 4.21444 450.224 5.20644 450.224 6.35844C450.224 7.4251 449.947 8.36377 449.392 9.17444C448.859 9.9851 448.102 10.6144 447.12 11.0624C446.16 11.4891 445.019 11.7024 443.696 11.7024L443.824 10.9984C445.318 10.9984 446.608 11.2331 447.696 11.7024C448.806 12.1718 449.659 12.8438 450.256 13.7184C450.875 14.5718 451.184 15.5744 451.184 16.7264C451.184 17.8144 450.907 18.7851 450.352 19.6384C449.819 20.4704 449.072 21.1744 448.112 21.7504C447.174 22.3051 446.118 22.7104 444.944 22.9664C443.771 23.2011 442.544 23.2651 441.264 23.1584C439.984 23.0518 438.726 22.7744 437.488 22.3264C436.251 21.8571 435.11 21.1851 434.064 20.3104Z" fill="#163C51"/>
<path opacity="0.7" d="M412.752 22.9977V0.597656H422.064C424.432 0.597656 426.288 1.08832 427.632 2.06966C428.997 3.02966 429.68 4.44832 429.68 6.32566C429.68 8.18166 429.029 9.58966 427.728 10.5497C426.427 11.4883 424.72 11.9577 422.608 11.9577L423.152 11.1577C425.648 11.1577 427.547 11.6483 428.848 12.6297C430.149 13.611 430.8 15.051 430.8 16.9497C430.8 18.8697 430.117 20.363 428.752 21.4297C427.408 22.475 425.381 22.9977 422.672 22.9977H412.752ZM415.088 21.1097H422.672C424.571 21.1097 426.011 20.7577 426.992 20.0537C427.973 19.3497 428.464 18.2617 428.464 16.7897C428.464 15.339 427.973 14.2723 426.992 13.5897C426.011 12.907 424.571 12.5657 422.672 12.5657H415.088V21.1097ZM415.088 10.7417H421.936C423.664 10.7417 424.987 10.4003 425.904 9.71766C426.843 9.01366 427.312 7.97899 427.312 6.61366C427.312 5.24832 426.843 4.22432 425.904 3.54166C424.987 2.83766 423.664 2.48566 421.936 2.48566H415.088V10.7417Z" fill="#163C51"/>
<path opacity="0.7" d="M395.358 23.1903C393.673 23.1903 392.105 22.9129 390.654 22.3583C389.225 21.7823 387.977 20.9823 386.91 19.9583C385.865 18.9129 385.043 17.7076 384.446 16.3423C383.87 14.9556 383.582 13.4409 383.582 11.7983C383.582 10.1556 383.87 8.65158 384.446 7.28625C385.043 5.89958 385.865 4.69425 386.91 3.67025C387.977 2.62492 389.225 1.82492 390.654 1.27025C392.083 0.69425 393.651 0.40625 395.358 0.40625C397.043 0.40625 398.601 0.69425 400.03 1.27025C401.459 1.82492 402.697 2.61425 403.742 3.63825C404.809 4.66225 405.63 5.86758 406.206 7.25425C406.803 8.64092 407.102 10.1556 407.102 11.7983C407.102 13.4409 406.803 14.9556 406.206 16.3423C405.63 17.7289 404.809 18.9342 403.742 19.9583C402.697 20.9823 401.459 21.7823 400.03 22.3583C398.601 22.9129 397.043 23.1903 395.358 23.1903ZM395.358 21.0783C396.702 21.0783 397.939 20.8543 399.07 20.4063C400.222 19.9369 401.214 19.2863 402.046 18.4543C402.899 17.6009 403.561 16.6196 404.03 15.5103C404.499 14.3796 404.734 13.1423 404.734 11.7983C404.734 10.4543 404.499 9.22758 404.03 8.11825C403.561 6.98758 402.899 6.00625 402.046 5.17425C401.214 4.32092 400.222 3.67025 399.07 3.22225C397.939 2.75292 396.702 2.51825 395.358 2.51825C394.014 2.51825 392.766 2.75292 391.614 3.22225C390.462 3.67025 389.459 4.32092 388.606 5.17425C387.774 6.00625 387.113 6.98758 386.622 8.11825C386.153 9.22758 385.918 10.4543 385.918 11.7983C385.918 13.1209 386.153 14.3476 386.622 15.4783C387.113 16.6089 387.774 17.6009 388.606 18.4543C389.459 19.2863 390.462 19.9369 391.614 20.4063C392.766 20.8543 394.014 21.0783 395.358 21.0783Z" fill="#163C51"/>
<path opacity="0.7" d="M368.056 22.9992V16.9512L368.472 17.4312H362.776C360.621 17.4312 358.936 16.9619 357.72 16.0232C356.504 15.0846 355.896 13.7192 355.896 11.9272C355.896 10.0072 356.546 8.57789 357.848 7.63922C359.149 6.67922 360.888 6.19922 363.064 6.19922H370.136V22.9992H368.056ZM355.768 22.9992L360.376 16.5352H362.744L358.232 22.9992H355.768ZM368.056 16.2792V7.51122L368.472 8.18322H363.128C361.57 8.18322 360.354 8.48188 359.48 9.07922C358.626 9.67655 358.2 10.6472 358.2 11.9912C358.2 14.4872 359.789 15.7352 362.968 15.7352H368.472L368.056 16.2792Z" fill="#163C51"/>
<path opacity="0.7" d="M335.176 22.9992V6.19922H337.448V19.5432L348.68 6.19922H350.696V22.9992H348.424V9.62322L337.224 22.9992H335.176Z" fill="#163C51"/>
<path opacity="0.7" d="M313.582 22.9992V6.19922H315.854V13.6232H326.446V6.19922H328.718V22.9992H326.446V15.5752H315.854V22.9992H313.582Z" fill="#163C51"/>
<path opacity="0.7" d="M301.002 23.1591C299.253 23.1591 297.717 22.7964 296.394 22.0711C295.071 21.3244 294.037 20.3111 293.29 19.0311C292.543 17.7297 292.17 16.2471 292.17 14.5831C292.17 12.9191 292.522 11.4471 293.226 10.1671C293.951 8.88706 294.933 7.8844 296.17 7.15906C297.429 6.4124 298.837 6.03906 300.394 6.03906C301.973 6.03906 303.37 6.40173 304.586 7.12706C305.823 7.83106 306.794 8.83373 307.498 10.1351C308.202 11.4151 308.554 12.8977 308.554 14.5831C308.554 14.6897 308.543 14.8071 308.522 14.9351C308.522 15.0417 308.522 15.1591 308.522 15.2871H293.898V13.5911H307.306L306.41 14.2631C306.41 13.0471 306.143 11.9697 305.61 11.0311C305.098 10.0711 304.394 9.3244 303.498 8.79106C302.602 8.25773 301.567 7.99106 300.394 7.99106C299.242 7.99106 298.207 8.25773 297.29 8.79106C296.373 9.3244 295.658 10.0711 295.146 11.0311C294.634 11.9911 294.378 13.0897 294.378 14.3271V14.6791C294.378 15.9591 294.655 17.0897 295.21 18.0711C295.786 19.0311 296.575 19.7884 297.578 20.3431C298.602 20.8764 299.765 21.1431 301.066 21.1431C302.09 21.1431 303.039 20.9617 303.914 20.5991C304.81 20.2364 305.578 19.6817 306.218 18.9351L307.498 20.4071C306.751 21.3031 305.813 21.9857 304.682 22.4551C303.573 22.9244 302.346 23.1591 301.002 23.1591Z" fill="#163C51"/>
<path opacity="0.7" d="M280.535 23.1591C279.085 23.1591 277.773 22.8284 276.599 22.1671C275.426 21.4844 274.487 20.5137 273.783 19.2551C273.101 17.9751 272.759 16.4177 272.759 14.5831C272.759 12.7484 273.101 11.2017 273.783 9.94306C274.466 8.66306 275.394 7.6924 276.567 7.03106C277.741 6.36973 279.063 6.03906 280.535 6.03906C282.135 6.03906 283.565 6.40173 284.823 7.12706C286.103 7.83106 287.106 8.83373 287.831 10.1351C288.557 11.4151 288.919 12.8977 288.919 14.5831C288.919 16.2897 288.557 17.7831 287.831 19.0631C287.106 20.3431 286.103 21.3457 284.823 22.0711C283.565 22.7964 282.135 23.1591 280.535 23.1591ZM271.863 29.2071V6.19906H274.039V11.2551L273.815 14.6151L274.135 18.0071V29.2071H271.863ZM280.375 21.1431C281.57 21.1431 282.637 20.8764 283.575 20.3431C284.514 19.7884 285.261 19.0204 285.815 18.0391C286.37 17.0364 286.647 15.8844 286.647 14.5831C286.647 13.2817 286.37 12.1404 285.815 11.1591C285.261 10.1777 284.514 9.40973 283.575 8.85506C282.637 8.3004 281.57 8.02306 280.375 8.02306C279.181 8.02306 278.103 8.3004 277.143 8.85506C276.205 9.40973 275.458 10.1777 274.903 11.1591C274.37 12.1404 274.103 13.2817 274.103 14.5831C274.103 15.8844 274.37 17.0364 274.903 18.0391C275.458 19.0204 276.205 19.7884 277.143 20.3431C278.103 20.8764 279.181 21.1431 280.375 21.1431Z" fill="#163C51"/>
<path opacity="0.7" d="M259.283 23.1591C257.534 23.1591 255.998 22.7964 254.675 22.0711C253.353 21.3244 252.318 20.3111 251.571 19.0311C250.825 17.7297 250.451 16.2471 250.451 14.5831C250.451 12.9191 250.803 11.4471 251.507 10.1671C252.233 8.88706 253.214 7.8844 254.451 7.15906C255.71 6.4124 257.118 6.03906 258.675 6.03906C260.254 6.03906 261.651 6.40173 262.867 7.12706C264.104 7.83106 265.075 8.83373 265.779 10.1351C266.483 11.4151 266.835 12.8977 266.835 14.5831C266.835 14.6897 266.824 14.8071 266.803 14.9351C266.803 15.0417 266.803 15.1591 266.803 15.2871H252.179V13.5911H265.587L264.691 14.2631C264.691 13.0471 264.425 11.9697 263.891 11.0311C263.379 10.0711 262.675 9.3244 261.779 8.79106C260.883 8.25773 259.849 7.99106 258.675 7.99106C257.523 7.99106 256.489 8.25773 255.571 8.79106C254.654 9.3244 253.939 10.0711 253.427 11.0311C252.915 11.9911 252.659 13.0897 252.659 14.3271V14.6791C252.659 15.9591 252.937 17.0897 253.491 18.0711C254.067 19.0311 254.856 19.7884 255.859 20.3431C256.883 20.8764 258.046 21.1431 259.347 21.1431C260.371 21.1431 261.32 20.9617 262.195 20.5991C263.091 20.2364 263.859 19.6817 264.499 18.9351L265.779 20.4071C265.033 21.3031 264.094 21.9857 262.963 22.4551C261.854 22.9244 260.627 23.1591 259.283 23.1591Z" fill="#163C51"/>
<path opacity="0.7" d="M232.613 22.9992V6.19922H240.037C241.936 6.19922 243.429 6.56189 244.517 7.28722C245.627 8.01255 246.181 9.07922 246.181 10.4872C246.181 11.8526 245.659 12.9086 244.613 13.6552C243.568 14.3806 242.192 14.7432 240.485 14.7432L240.933 14.0712C242.939 14.0712 244.411 14.4446 245.349 15.1912C246.288 15.9379 246.757 17.0152 246.757 18.4232C246.757 19.8739 246.224 21.0046 245.157 21.8152C244.112 22.6046 242.48 22.9992 240.261 22.9992H232.613ZM234.821 21.2072H240.165C241.595 21.2072 242.672 20.9832 243.397 20.5352C244.144 20.0659 244.517 19.3192 244.517 18.2952C244.517 17.2712 244.187 16.5246 243.525 16.0552C242.864 15.5859 241.819 15.3512 240.389 15.3512H234.821V21.2072ZM234.821 13.6552H239.877C241.179 13.6552 242.171 13.4099 242.853 12.9192C243.557 12.4286 243.909 11.7139 243.909 10.7752C243.909 9.83655 243.557 9.13255 242.853 8.66322C242.171 8.19389 241.179 7.95922 239.877 7.95922H234.821V13.6552Z" fill="#163C51"/>
<path opacity="0.7" d="M219.183 23.1591C217.561 23.1591 216.1 22.7964 214.799 22.0711C213.519 21.3244 212.505 20.3111 211.759 19.0311C211.012 17.7297 210.639 16.2471 210.639 14.5831C210.639 12.8977 211.012 11.4151 211.759 10.1351C212.505 8.85506 213.519 7.8524 214.799 7.12706C216.079 6.40173 217.54 6.03906 219.183 6.03906C220.847 6.03906 222.319 6.40173 223.599 7.12706C224.9 7.8524 225.913 8.85506 226.639 10.1351C227.385 11.4151 227.759 12.8977 227.759 14.5831C227.759 16.2471 227.385 17.7297 226.639 19.0311C225.913 20.3111 224.9 21.3244 223.599 22.0711C222.297 22.7964 220.825 23.1591 219.183 23.1591ZM219.183 21.1431C220.399 21.1431 221.476 20.8764 222.415 20.3431C223.353 19.7884 224.089 19.0204 224.623 18.0391C225.177 17.0364 225.455 15.8844 225.455 14.5831C225.455 13.2604 225.177 12.1084 224.623 11.1271C224.089 10.1457 223.353 9.3884 222.415 8.85506C221.476 8.3004 220.409 8.02306 219.215 8.02306C218.02 8.02306 216.953 8.3004 216.015 8.85506C215.076 9.3884 214.329 10.1457 213.775 11.1271C213.22 12.1084 212.943 13.2604 212.943 14.5831C212.943 15.8844 213.22 17.0364 213.775 18.0391C214.329 19.0204 215.076 19.7884 216.015 20.3431C216.953 20.8764 218.009 21.1431 219.183 21.1431Z" fill="#163C51"/>
<path opacity="0.7" d="M201.126 22.9992V7.57522L201.702 8.18322H194.758V6.19922H209.766V8.18322H202.822L203.398 7.57522V22.9992H201.126Z" fill="#163C51"/>
<path opacity="0.7" d="M187.248 23.1591C185.584 23.1591 184.091 22.7964 182.768 22.0711C181.467 21.3244 180.443 20.3111 179.696 19.0311C178.95 17.7297 178.576 16.2471 178.576 14.5831C178.576 12.8977 178.95 11.4151 179.696 10.1351C180.443 8.85506 181.467 7.8524 182.768 7.12706C184.091 6.40173 185.584 6.03906 187.248 6.03906C188.678 6.03906 189.968 6.3164 191.12 6.87106C192.272 7.42573 193.179 8.25773 193.84 9.36706L192.144 10.5191C191.568 9.66573 190.854 9.0364 190 8.63106C189.147 8.22573 188.219 8.02306 187.216 8.02306C186.022 8.02306 184.944 8.3004 183.984 8.85506C183.024 9.3884 182.267 10.1457 181.712 11.1271C181.157 12.1084 180.88 13.2604 180.88 14.5831C180.88 15.9057 181.157 17.0577 181.712 18.0391C182.267 19.0204 183.024 19.7884 183.984 20.3431C184.944 20.8764 186.022 21.1431 187.216 21.1431C188.219 21.1431 189.147 20.9404 190 20.5351C190.854 20.1297 191.568 19.5111 192.144 18.6791L193.84 19.8311C193.179 20.9191 192.272 21.7511 191.12 22.3271C189.968 22.8817 188.678 23.1591 187.248 23.1591Z" fill="#163C51"/>
<path opacity="0.7" d="M166.776 23.1591C165.155 23.1591 163.694 22.7964 162.392 22.0711C161.112 21.3244 160.099 20.3111 159.352 19.0311C158.606 17.7297 158.232 16.2471 158.232 14.5831C158.232 12.8977 158.606 11.4151 159.352 10.1351C160.099 8.85506 161.112 7.8524 162.392 7.12706C163.672 6.40173 165.134 6.03906 166.776 6.03906C168.44 6.03906 169.912 6.40173 171.192 7.12706C172.494 7.8524 173.507 8.85506 174.232 10.1351C174.979 11.4151 175.352 12.8977 175.352 14.5831C175.352 16.2471 174.979 17.7297 174.232 19.0311C173.507 20.3111 172.494 21.3244 171.192 22.0711C169.891 22.7964 168.419 23.1591 166.776 23.1591ZM166.776 21.1431C167.992 21.1431 169.07 20.8764 170.008 20.3431C170.947 19.7884 171.683 19.0204 172.216 18.0391C172.771 17.0364 173.048 15.8844 173.048 14.5831C173.048 13.2604 172.771 12.1084 172.216 11.1271C171.683 10.1457 170.947 9.3884 170.008 8.85506C169.07 8.3004 168.003 8.02306 166.808 8.02306C165.614 8.02306 164.547 8.3004 163.608 8.85506C162.67 9.3884 161.923 10.1457 161.368 11.1271C160.814 12.1084 160.536 13.2604 160.536 14.5831C160.536 15.8844 160.814 17.0364 161.368 18.0391C161.923 19.0204 162.67 19.7884 163.608 20.3431C164.547 20.8764 165.603 21.1431 166.776 21.1431Z" fill="#163C51"/>
<path opacity="0.7" d="M150.54 21.9112V8.18322H142.444L142.252 11.9272C142.21 13.0579 142.135 14.1672 142.028 15.2552C141.943 16.3432 141.783 17.3459 141.548 18.2632C141.335 19.1592 141.026 19.8952 140.62 20.4712C140.215 21.0259 139.692 21.3459 139.052 21.4312L136.78 21.0152C137.442 21.0366 137.986 20.8019 138.412 20.3112C138.839 19.7992 139.17 19.1059 139.404 18.2312C139.639 17.3566 139.81 16.3646 139.916 15.2552C140.023 14.1246 140.108 12.9726 140.172 11.7992L140.396 6.19922H152.812V21.9112H150.54ZM136.076 27.0632V21.0152H155.436V27.0632H153.292V22.9992H138.22V27.0632H136.076Z" fill="#163C51"/>
<path opacity="0.7" d="M122.184 29.3672C121.395 29.3672 120.637 29.2392 119.912 28.9832C119.208 28.7272 118.6 28.3432 118.088 27.8312L119.144 26.1352C119.571 26.5406 120.029 26.8499 120.52 27.0632C121.032 27.2979 121.597 27.4152 122.216 27.4152C122.963 27.4152 123.603 27.2019 124.136 26.7752C124.691 26.3699 125.213 25.6446 125.704 24.5992L126.792 22.1352L127.048 21.7832L133.96 6.19922H136.2L127.784 25.0152C127.315 26.1032 126.792 26.9672 126.216 27.6072C125.661 28.2472 125.053 28.6952 124.392 28.9512C123.731 29.2286 122.995 29.3672 122.184 29.3672ZM126.664 23.4792L118.92 6.19922H121.288L128.136 21.6232L126.664 23.4792Z" fill="#163C51"/>
<path opacity="0.7" d="M100.254 23.1591C98.8034 23.1591 97.4914 22.8284 96.318 22.1671C95.1447 21.4844 94.206 20.5137 93.502 19.2551C92.8194 17.9751 92.478 16.4177 92.478 14.5831C92.478 12.7484 92.8194 11.2017 93.502 9.94306C94.1847 8.66306 95.1127 7.6924 96.286 7.03106C97.4594 6.36973 98.782 6.03906 100.254 6.03906C101.854 6.03906 103.283 6.40173 104.542 7.12706C105.822 7.83106 106.825 8.83373 107.55 10.1351C108.275 11.4151 108.638 12.8977 108.638 14.5831C108.638 16.2897 108.275 17.7831 107.55 19.0631C106.825 20.3431 105.822 21.3457 104.542 22.0711C103.283 22.7964 101.854 23.1591 100.254 23.1591ZM91.582 29.2071V6.19906H93.758V11.2551L93.534 14.6151L93.854 18.0071V29.2071H91.582ZM100.094 21.1431C101.289 21.1431 102.355 20.8764 103.294 20.3431C104.233 19.7884 104.979 19.0204 105.534 18.0391C106.089 17.0364 106.366 15.8844 106.366 14.5831C106.366 13.2817 106.089 12.1404 105.534 11.1591C104.979 10.1777 104.233 9.40973 103.294 8.85506C102.355 8.3004 101.289 8.02306 100.094 8.02306C98.8994 8.02306 97.822 8.3004 96.862 8.85506C95.9234 9.40973 95.1767 10.1777 94.622 11.1591C94.0887 12.1404 93.822 13.2817 93.822 14.5831C93.822 15.8844 94.0887 17.0364 94.622 18.0391C95.1767 19.0204 95.9234 19.7884 96.862 20.3431C97.822 20.8764 98.8994 21.1431 100.094 21.1431Z" fill="#163C51"/>
<path opacity="0.7" d="M79.0019 23.1591C77.2526 23.1591 75.7166 22.7964 74.3939 22.0711C73.0713 21.3244 72.0366 20.3111 71.2899 19.0311C70.5433 17.7297 70.1699 16.2471 70.1699 14.5831C70.1699 12.9191 70.5219 11.4471 71.2259 10.1671C71.9513 8.88706 72.9326 7.8844 74.1699 7.15906C75.4286 6.4124 76.8366 6.03906 78.3939 6.03906C79.9726 6.03906 81.3699 6.40173 82.5859 7.12706C83.8233 7.83106 84.7939 8.83373 85.4979 10.1351C86.2019 11.4151 86.5539 12.8977 86.5539 14.5831C86.5539 14.6897 86.5433 14.8071 86.5219 14.9351C86.5219 15.0417 86.5219 15.1591 86.5219 15.2871H71.8979V13.5911H85.3059L84.4099 14.2631C84.4099 13.0471 84.1433 11.9697 83.6099 11.0311C83.0979 10.0711 82.3939 9.3244 81.4979 8.79106C80.6019 8.25773 79.5673 7.99106 78.3939 7.99106C77.2419 7.99106 76.2073 8.25773 75.2899 8.79106C74.3726 9.3244 73.6579 10.0711 73.1459 11.0311C72.6339 11.9911 72.3779 13.0897 72.3779 14.3271V14.6791C72.3779 15.9591 72.6553 17.0897 73.2099 18.0711C73.7859 19.0311 74.5753 19.7884 75.5779 20.3431C76.6019 20.8764 77.7646 21.1431 79.0659 21.1431C80.0899 21.1431 81.0393 20.9617 81.9139 20.5991C82.8099 20.2364 83.5779 19.6817 84.2179 18.9351L85.4979 20.4071C84.7513 21.3031 83.8126 21.9857 82.6819 22.4551C81.5726 22.9244 80.3459 23.1591 79.0019 23.1591Z" fill="#163C51"/>
<path opacity="0.7" d="M46.5195 22.9992V6.19922H48.8235L56.4395 19.0952H55.4795L63.2235 6.19922H65.3355V22.9992H63.2555V8.79122L63.6715 8.98322L56.4395 20.9512H55.4155L48.1195 8.85522L48.5995 8.75922V22.9992H46.5195Z" fill="#163C51"/>
<path opacity="0.7" d="M33.0889 23.1591C31.4676 23.1591 30.0063 22.7964 28.7049 22.0711C27.4249 21.3244 26.4116 20.3111 25.6649 19.0311C24.9183 17.7297 24.5449 16.2471 24.5449 14.5831C24.5449 12.8977 24.9183 11.4151 25.6649 10.1351C26.4116 8.85506 27.4249 7.8524 28.7049 7.12706C29.9849 6.40173 31.4463 6.03906 33.0889 6.03906C34.7529 6.03906 36.2249 6.40173 37.5049 7.12706C38.8063 7.8524 39.8196 8.85506 40.5449 10.1351C41.2916 11.4151 41.6649 12.8977 41.6649 14.5831C41.6649 16.2471 41.2916 17.7297 40.5449 19.0311C39.8196 20.3111 38.8063 21.3244 37.5049 22.0711C36.2036 22.7964 34.7316 23.1591 33.0889 23.1591ZM33.0889 21.1431C34.3049 21.1431 35.3823 20.8764 36.3209 20.3431C37.2596 19.7884 37.9956 19.0204 38.5289 18.0391C39.0836 17.0364 39.3609 15.8844 39.3609 14.5831C39.3609 13.2604 39.0836 12.1084 38.5289 11.1271C37.9956 10.1457 37.2596 9.3884 36.3209 8.85506C35.3823 8.3004 34.3156 8.02306 33.1209 8.02306C31.9263 8.02306 30.8596 8.3004 29.9209 8.85506C28.9823 9.3884 28.2356 10.1457 27.6809 11.1271C27.1263 12.1084 26.8489 13.2604 26.8489 14.5831C26.8489 15.8844 27.1263 17.0364 27.6809 18.0391C28.2356 19.0204 28.9823 19.7884 29.9209 20.3431C30.8596 20.8764 31.9156 21.1431 33.0889 21.1431Z" fill="#163C51"/>
<path opacity="0.7" d="M16.8235 0.597656H19.1595V22.9977H16.8235V0.597656ZM2.80745 22.9977H0.439453V0.597656H2.80745V22.9977ZM17.0475 12.6617H2.55145V10.5817H17.0475V12.6617Z" fill="#163C51"/>
</svg>
