<svg width="490" height="31" viewBox="0 0 490 31" fill="none" xmlns="http://www.w3.org/2000/svg">
<path d="M474.199 24.0031V7.20312H476.471V20.5471L487.703 7.20312H489.719V24.0031H487.447V10.6271L476.247 24.0031H474.199Z" fill="#5C7786"/>
<path d="M467.925 24.0031L461.013 15.6831L462.901 14.5631L470.613 24.0031H467.925ZM455.605 24.0031V7.20312H457.877V24.0031H455.605ZM457.173 16.5151V14.5631H462.581V16.5151H457.173ZM463.093 15.8431L460.981 15.5231L467.669 7.20312H470.133L463.093 15.8431Z" fill="#5C7786"/>
<path d="M449.104 24.0031L443.344 15.6831L445.232 14.5631L451.824 24.0031H449.104ZM439.568 16.5151V14.5631H444.88V16.5151H439.568ZM445.456 15.8431L443.28 15.5231L448.88 7.20312H451.344L445.456 15.8431ZM429.2 24.0031H426.48L433.072 14.5631L434.928 15.6831L429.2 24.0031ZM440.272 24.0031H438V7.20312H440.272V24.0031ZM438.704 16.5151H433.424V14.5631H438.704V16.5151ZM432.88 15.8431L426.96 7.20312H429.424L434.992 15.5231L432.88 15.8431Z" fill="#5C7786"/>
<path d="M407.137 24.0031V7.20312H409.409V20.5471L420.641 7.20312H422.657V24.0031H420.385V10.6271L409.185 24.0031H407.137Z" fill="#5C7786"/>
<path d="M385.543 24.0031V7.20312H387.815V14.6271H398.407V7.20312H400.679V24.0031H398.407V16.5791H387.815V24.0031H385.543Z" fill="#5C7786"/>
<path d="M379.269 24.0031L372.357 15.6831L374.245 14.5631L381.957 24.0031H379.269ZM366.949 24.0031V7.20312H369.221V24.0031H366.949ZM368.517 16.5151V14.5631H373.925V16.5151H368.517ZM374.437 15.8431L372.325 15.5231L379.013 7.20312H381.477L374.437 15.8431Z" fill="#5C7786"/>
<path d="M336.543 24.0014V7.20137H338.815V20.5454L350.047 7.20137H352.063V24.0014H349.791V10.6254L338.591 24.0014H336.543ZM344.159 4.76937C342.751 4.76937 341.61 4.41737 340.735 3.71338C339.882 2.98804 339.434 1.95337 339.391 0.609375H341.023C341.044 1.46271 341.343 2.13471 341.919 2.62537C342.495 3.11604 343.242 3.36137 344.159 3.36137C345.076 3.36137 345.823 3.11604 346.399 2.62537C346.996 2.13471 347.306 1.46271 347.327 0.609375H348.959C348.938 1.95337 348.49 2.98804 347.615 3.71338C346.74 4.41737 345.588 4.76937 344.159 4.76937Z" fill="#5C7786"/>
<path d="M323.112 24.163C321.491 24.163 320.03 23.8003 318.728 23.075C317.448 22.3283 316.435 21.315 315.688 20.035C314.942 18.7336 314.568 17.251 314.568 15.587C314.568 13.9016 314.942 12.419 315.688 11.139C316.435 9.85897 317.448 8.8563 318.728 8.13097C320.008 7.40564 321.47 7.04297 323.112 7.04297C324.776 7.04297 326.248 7.40564 327.528 8.13097C328.83 8.8563 329.843 9.85897 330.568 11.139C331.315 12.419 331.688 13.9016 331.688 15.587C331.688 17.251 331.315 18.7336 330.568 20.035C329.843 21.315 328.83 22.3283 327.528 23.075C326.227 23.8003 324.755 24.163 323.112 24.163ZM323.112 22.147C324.328 22.147 325.406 21.8803 326.344 21.347C327.283 20.7923 328.019 20.0243 328.552 19.043C329.107 18.0403 329.384 16.8883 329.384 15.587C329.384 14.2643 329.107 13.1123 328.552 12.131C328.019 11.1496 327.283 10.3923 326.344 9.85897C325.406 9.3043 324.339 9.02697 323.144 9.02697C321.95 9.02697 320.883 9.3043 319.944 9.85897C319.006 10.3923 318.259 11.1496 317.704 12.131C317.15 13.1123 316.872 14.2643 316.872 15.587C316.872 16.8883 317.15 18.0403 317.704 19.043C318.259 20.0243 319.006 20.7923 319.944 21.347C320.883 21.8803 321.939 22.147 323.112 22.147Z" fill="#5C7786"/>
<path d="M310.519 24.0031L303.607 15.6831L305.495 14.5631L313.207 24.0031H310.519ZM298.199 24.0031V7.20312H300.471V24.0031H298.199ZM299.767 16.5151V14.5631H305.175V16.5151H299.767ZM305.687 15.8431L303.575 15.5231L310.263 7.20312H312.727L305.687 15.8431Z" fill="#5C7786"/>
<path d="M287.209 24.163C285.545 24.163 284.052 23.8003 282.729 23.075C281.428 22.3283 280.404 21.315 279.657 20.035C278.91 18.7336 278.537 17.251 278.537 15.587C278.537 13.9016 278.91 12.419 279.657 11.139C280.404 9.85897 281.428 8.8563 282.729 8.13097C284.052 7.40564 285.545 7.04297 287.209 7.04297C288.638 7.04297 289.929 7.3203 291.081 7.87497C292.233 8.42964 293.14 9.26164 293.801 10.371L292.105 11.523C291.529 10.6696 290.814 10.0403 289.961 9.63497C289.108 9.22964 288.18 9.02697 287.177 9.02697C285.982 9.02697 284.905 9.3043 283.945 9.85897C282.985 10.3923 282.228 11.1496 281.673 12.131C281.118 13.1123 280.841 14.2643 280.841 15.587C280.841 16.9096 281.118 18.0616 281.673 19.043C282.228 20.0243 282.985 20.7923 283.945 21.347C284.905 21.8803 285.982 22.147 287.177 22.147C288.18 22.147 289.108 21.9443 289.961 21.539C290.814 21.1336 291.529 20.515 292.105 19.683L293.801 20.835C293.14 21.923 292.233 22.755 291.081 23.331C289.929 23.8856 288.638 24.163 287.209 24.163Z" fill="#5C7786"/>
<path d="M266.902 24.163C265.452 24.163 264.14 23.8323 262.966 23.171C261.793 22.4883 260.854 21.5176 260.15 20.259C259.468 18.979 259.126 17.4216 259.126 15.587C259.126 13.7523 259.468 12.2056 260.15 10.947C260.833 9.66697 261.761 8.6963 262.934 8.03497C264.108 7.37364 265.43 7.04297 266.902 7.04297C268.502 7.04297 269.932 7.40564 271.19 8.13097C272.47 8.83497 273.473 9.83764 274.198 11.139C274.924 12.419 275.286 13.9016 275.286 15.587C275.286 17.2936 274.924 18.787 274.198 20.067C273.473 21.347 272.47 22.3496 271.19 23.075C269.932 23.8003 268.502 24.163 266.902 24.163ZM258.23 30.211V7.20297H260.406V12.259L260.182 15.619L260.502 19.011V30.211H258.23ZM266.742 22.147C267.937 22.147 269.004 21.8803 269.942 21.347C270.881 20.7923 271.628 20.0243 272.182 19.043C272.737 18.0403 273.014 16.8883 273.014 15.587C273.014 14.2856 272.737 13.1443 272.182 12.163C271.628 11.1816 270.881 10.4136 269.942 9.85897C269.004 9.3043 267.937 9.02697 266.742 9.02697C265.548 9.02697 264.47 9.3043 263.51 9.85897C262.572 10.4136 261.825 11.1816 261.27 12.163C260.737 13.1443 260.47 14.2856 260.47 15.587C260.47 16.8883 260.737 18.0403 261.27 19.043C261.825 20.0243 262.572 20.7923 263.51 21.347C264.47 21.8803 265.548 22.147 266.742 22.147Z" fill="#5C7786"/>
<path d="M245.65 24.163C243.901 24.163 242.365 23.8003 241.042 23.075C239.72 22.3283 238.685 21.315 237.938 20.035C237.192 18.7336 236.818 17.251 236.818 15.587C236.818 13.923 237.17 12.451 237.874 11.171C238.6 9.89097 239.581 8.8883 240.818 8.16297C242.077 7.4163 243.485 7.04297 245.042 7.04297C246.621 7.04297 248.018 7.40564 249.234 8.13097C250.472 8.83497 251.442 9.83764 252.146 11.139C252.85 12.419 253.202 13.9016 253.202 15.587C253.202 15.6936 253.192 15.811 253.17 15.939C253.17 16.0456 253.17 16.163 253.17 16.291H238.546V14.595H251.954L251.058 15.267C251.058 14.051 250.792 12.9736 250.258 12.035C249.746 11.075 249.042 10.3283 248.146 9.79497C247.25 9.26164 246.216 8.99497 245.042 8.99497C243.89 8.99497 242.856 9.26164 241.938 9.79497C241.021 10.3283 240.306 11.075 239.794 12.035C239.282 12.995 239.026 14.0936 239.026 15.331V15.683C239.026 16.963 239.304 18.0936 239.858 19.075C240.434 20.035 241.224 20.7923 242.226 21.347C243.25 21.8803 244.413 22.147 245.714 22.147C246.738 22.147 247.688 21.9656 248.562 21.603C249.458 21.2403 250.226 20.6856 250.866 19.939L252.146 21.411C251.4 22.307 250.461 22.9896 249.33 23.459C248.221 23.9283 246.994 24.163 245.65 24.163Z" fill="#5C7786"/>
<path d="M227.306 24.0031V8.57913L227.882 9.18712H220.938V7.20312H235.946V9.18712H229.002L229.577 8.57913V24.0031H227.306Z" fill="#5C7786"/>
<path d="M202.512 24.0031V7.20312H204.784V14.6271H215.376V7.20312H217.648V24.0031H215.376V16.5791H204.784V24.0031H202.512Z" fill="#5C7786"/>
<path d="M189.081 24.163C187.46 24.163 185.998 23.8003 184.697 23.075C183.417 22.3283 182.404 21.315 181.657 20.035C180.91 18.7336 180.537 17.251 180.537 15.587C180.537 13.9016 180.91 12.419 181.657 11.139C182.404 9.85897 183.417 8.8563 184.697 8.13097C185.977 7.40564 187.438 7.04297 189.081 7.04297C190.745 7.04297 192.217 7.40564 193.497 8.13097C194.798 8.8563 195.812 9.85897 196.537 11.139C197.284 12.419 197.657 13.9016 197.657 15.587C197.657 17.251 197.284 18.7336 196.537 20.035C195.812 21.315 194.798 22.3283 193.497 23.075C192.196 23.8003 190.724 24.163 189.081 24.163ZM189.081 22.147C190.297 22.147 191.374 21.8803 192.313 21.347C193.252 20.7923 193.988 20.0243 194.521 19.043C195.076 18.0403 195.353 16.8883 195.353 15.587C195.353 14.2643 195.076 13.1123 194.521 12.131C193.988 11.1496 193.252 10.3923 192.313 9.85897C191.374 9.3043 190.308 9.02697 189.113 9.02697C187.918 9.02697 186.852 9.3043 185.913 9.85897C184.974 10.3923 184.228 11.1496 183.673 12.131C183.118 13.1123 182.841 14.2643 182.841 15.587C182.841 16.8883 183.118 18.0403 183.673 19.043C184.228 20.0243 184.974 20.7923 185.913 21.347C186.852 21.8803 187.908 22.147 189.081 22.147Z" fill="#5C7786"/>
<path d="M158.879 23.9711L159.039 22.0191C159.188 22.0405 159.327 22.0725 159.455 22.1151C159.604 22.1365 159.732 22.1471 159.839 22.1471C160.522 22.1471 161.066 21.8911 161.471 21.3791C161.898 20.8671 162.218 20.1845 162.431 19.3311C162.644 18.4778 162.794 17.5178 162.879 16.4511C162.964 15.3631 163.039 14.2751 163.103 13.1871L163.391 7.20312H175.711V24.0031H173.439V8.51513L174.015 9.18712H164.863L165.407 8.48313L165.151 13.3471C165.087 14.7978 164.97 16.1845 164.799 17.5071C164.65 18.8298 164.404 19.9925 164.063 20.9951C163.743 21.9978 163.295 22.7871 162.719 23.3631C162.143 23.9178 161.407 24.1951 160.511 24.1951C160.255 24.1951 159.988 24.1738 159.711 24.1311C159.455 24.0885 159.178 24.0351 158.879 23.9711Z" fill="#5C7786"/>
<path d="M148.612 24.163C146.991 24.163 145.53 23.8003 144.228 23.075C142.948 22.3283 141.935 21.315 141.188 20.035C140.442 18.7336 140.068 17.251 140.068 15.587C140.068 13.9016 140.442 12.419 141.188 11.139C141.935 9.85897 142.948 8.8563 144.228 8.13097C145.508 7.40564 146.97 7.04297 148.612 7.04297C150.276 7.04297 151.748 7.40564 153.028 8.13097C154.33 8.8563 155.343 9.85897 156.068 11.139C156.815 12.419 157.188 13.9016 157.188 15.587C157.188 17.251 156.815 18.7336 156.068 20.035C155.343 21.315 154.33 22.3283 153.028 23.075C151.727 23.8003 150.255 24.163 148.612 24.163ZM148.612 22.147C149.828 22.147 150.906 21.8803 151.844 21.347C152.783 20.7923 153.519 20.0243 154.052 19.043C154.607 18.0403 154.884 16.8883 154.884 15.587C154.884 14.2643 154.607 13.1123 154.052 12.131C153.519 11.1496 152.783 10.3923 151.844 9.85897C150.906 9.3043 149.839 9.02697 148.644 9.02697C147.45 9.02697 146.383 9.3043 145.444 9.85897C144.506 10.3923 143.759 11.1496 143.204 12.131C142.65 13.1123 142.372 14.2643 142.372 15.587C142.372 16.8883 142.65 18.0403 143.204 19.043C143.759 20.0243 144.506 20.7923 145.444 21.347C146.383 21.8803 147.439 22.147 148.612 22.147Z" fill="#5C7786"/>
<path d="M122.23 24.0031V7.20312H129.654C131.553 7.20312 133.046 7.56579 134.134 8.29113C135.244 9.01646 135.798 10.0831 135.798 11.4911C135.798 12.8565 135.276 13.9125 134.23 14.6591C133.185 15.3845 131.809 15.7471 130.102 15.7471L130.55 15.0751C132.556 15.0751 134.028 15.4485 134.966 16.1951C135.905 16.9418 136.374 18.0191 136.374 19.4271C136.374 20.8778 135.841 22.0085 134.774 22.8191C133.729 23.6085 132.097 24.0031 129.878 24.0031H122.23ZM124.438 22.2111H129.782C131.212 22.2111 132.289 21.9871 133.014 21.5391C133.761 21.0698 134.134 20.3231 134.134 19.2991C134.134 18.2751 133.804 17.5285 133.142 17.0591C132.481 16.5898 131.436 16.3551 130.006 16.3551H124.438V22.2111ZM124.438 14.6591H129.494C130.796 14.6591 131.788 14.4138 132.47 13.9231C133.174 13.4325 133.526 12.7178 133.526 11.7791C133.526 10.8405 133.174 10.1365 132.47 9.66713C131.788 9.19779 130.796 8.96313 129.494 8.96313H124.438V14.6591Z" fill="#5C7786"/>
<path d="M100.59 24.163C99.1393 24.163 97.8273 23.8323 96.654 23.171C95.4806 22.4883 94.542 21.5176 93.838 20.259C93.1553 18.979 92.814 17.4216 92.814 15.587C92.814 13.7523 93.1553 12.2056 93.838 10.947C94.5206 9.66697 95.4486 8.6963 96.622 8.03497C97.7953 7.37364 99.118 7.04297 100.59 7.04297C102.19 7.04297 103.619 7.40564 104.878 8.13097C106.158 8.83497 107.161 9.83764 107.886 11.139C108.611 12.419 108.974 13.9016 108.974 15.587C108.974 17.2936 108.611 18.787 107.886 20.067C107.161 21.347 106.158 22.3496 104.878 23.075C103.619 23.8003 102.19 24.163 100.59 24.163ZM91.918 30.211V7.20297H94.094V12.259L93.87 15.619L94.19 19.011V30.211H91.918ZM100.43 22.147C101.625 22.147 102.691 21.8803 103.63 21.347C104.569 20.7923 105.315 20.0243 105.87 19.043C106.425 18.0403 106.702 16.8883 106.702 15.587C106.702 14.2856 106.425 13.1443 105.87 12.163C105.315 11.1816 104.569 10.4136 103.63 9.85897C102.691 9.3043 101.625 9.02697 100.43 9.02697C99.2353 9.02697 98.158 9.3043 97.198 9.85897C96.2593 10.4136 95.5126 11.1816 94.958 12.163C94.4246 13.1443 94.158 14.2856 94.158 15.587C94.158 16.8883 94.4246 18.0403 94.958 19.043C95.5126 20.0243 96.2593 20.7923 97.198 21.347C98.158 21.8803 99.2353 22.147 100.43 22.147Z" fill="#5C7786"/>
<path d="M79.3379 24.163C77.5885 24.163 76.0525 23.8003 74.7299 23.075C73.4072 22.3283 72.3725 21.315 71.6259 20.035C70.8792 18.7336 70.5059 17.251 70.5059 15.587C70.5059 13.923 70.8579 12.451 71.5619 11.171C72.2872 9.89097 73.2685 8.8883 74.5059 8.16297C75.7645 7.4163 77.1725 7.04297 78.7299 7.04297C80.3085 7.04297 81.7059 7.40564 82.9219 8.13097C84.1592 8.83497 85.1299 9.83764 85.8339 11.139C86.5379 12.419 86.8899 13.9016 86.8899 15.587C86.8899 15.6936 86.8792 15.811 86.8579 15.939C86.8579 16.0456 86.8579 16.163 86.8579 16.291H72.2339V14.595H85.6419L84.7459 15.267C84.7459 14.051 84.4792 12.9736 83.9459 12.035C83.4339 11.075 82.7299 10.3283 81.8339 9.79497C80.9379 9.26164 79.9032 8.99497 78.7299 8.99497C77.5779 8.99497 76.5432 9.26164 75.6259 9.79497C74.7085 10.3283 73.9939 11.075 73.4819 12.035C72.9699 12.995 72.7139 14.0936 72.7139 15.331V15.683C72.7139 16.963 72.9912 18.0936 73.5459 19.075C74.1219 20.035 74.9112 20.7923 75.9139 21.347C76.9379 21.8803 78.1005 22.147 79.4019 22.147C80.4259 22.147 81.3752 21.9656 82.2499 21.603C83.1459 21.2403 83.9139 20.6856 84.5539 19.939L85.8339 21.411C85.0872 22.307 84.1485 22.9896 83.0179 23.459C81.9085 23.9283 80.6819 24.163 79.3379 24.163Z" fill="#5C7786"/>
<path d="M46.8555 24.0031V7.20312H49.1595L56.7755 20.0991H55.8155L63.5595 7.20312H65.6715V24.0031H63.5915V9.79513L64.0075 9.98713L56.7755 21.9551H55.7515L48.4555 9.85913L48.9355 9.76312V24.0031H46.8555Z" fill="#5C7786"/>
<path d="M33.4249 24.163C31.8035 24.163 30.3422 23.8003 29.0409 23.075C27.7609 22.3283 26.7475 21.315 26.0009 20.035C25.2542 18.7336 24.8809 17.251 24.8809 15.587C24.8809 13.9016 25.2542 12.419 26.0009 11.139C26.7475 9.85897 27.7609 8.8563 29.0409 8.13097C30.3209 7.40564 31.7822 7.04297 33.4249 7.04297C35.0889 7.04297 36.5609 7.40564 37.8409 8.13097C39.1422 8.8563 40.1555 9.85897 40.8809 11.139C41.6275 12.419 42.0009 13.9016 42.0009 15.587C42.0009 17.251 41.6275 18.7336 40.8809 20.035C40.1555 21.315 39.1422 22.3283 37.8409 23.075C36.5395 23.8003 35.0675 24.163 33.4249 24.163ZM33.4249 22.147C34.6409 22.147 35.7182 21.8803 36.6569 21.347C37.5955 20.7923 38.3315 20.0243 38.8649 19.043C39.4195 18.0403 39.6969 16.8883 39.6969 15.587C39.6969 14.2643 39.4195 13.1123 38.8649 12.131C38.3315 11.1496 37.5955 10.3923 36.6569 9.85897C35.7182 9.3043 34.6515 9.02697 33.4569 9.02697C32.2622 9.02697 31.1955 9.3043 30.2569 9.85897C29.3182 10.3923 28.5715 11.1496 28.0169 12.131C27.4622 13.1123 27.1849 14.2643 27.1849 15.587C27.1849 16.8883 27.4622 18.0403 28.0169 19.043C28.5715 20.0243 29.3182 20.7923 30.2569 21.347C31.1955 21.8803 32.2515 22.147 33.4249 22.147Z" fill="#5C7786"/>
<path d="M17.1594 1.60156H19.4954V24.0016H17.1594V1.60156ZM3.14339 24.0016H0.775391V1.60156H3.14339V24.0016ZM17.3834 13.6656H2.88739V11.5856H17.3834V13.6656Z" fill="#5C7786"/>
</svg>
