<svg width="400" height="31" viewBox="0 0 400 31" fill="none" xmlns="http://www.w3.org/2000/svg">
<path opacity="0.7" d="M391.271 23.9997V5.0877C391.271 3.59437 391.708 2.38904 392.583 1.4717C393.457 0.55437 394.716 0.0957031 396.359 0.0957031C396.999 0.0957031 397.617 0.181037 398.215 0.351704C398.812 0.522371 399.313 0.789037 399.719 1.1517L398.951 2.8477C398.631 2.57037 398.257 2.3677 397.831 2.2397C397.404 2.09037 396.945 2.0157 396.455 2.0157C395.495 2.0157 394.759 2.28237 394.247 2.8157C393.735 3.34904 393.479 4.13837 393.479 5.1837V7.7437L393.543 8.7997V23.9997H391.271ZM388.263 9.0877V7.1997H398.663V9.0877H388.263Z" fill="#163C51"/>
<path opacity="0.7" d="M375.887 24.1599C374.287 24.1599 372.847 23.7972 371.567 23.0719C370.308 22.3465 369.316 21.3439 368.591 20.0639C367.866 18.7625 367.503 17.2692 367.503 15.5839C367.503 13.8772 367.866 12.3839 368.591 11.1039C369.316 9.82386 370.308 8.83186 371.567 8.12786C372.847 7.40253 374.287 7.03986 375.887 7.03986C377.359 7.03986 378.671 7.37053 379.823 8.03186C380.996 8.69319 381.924 9.66386 382.607 10.9439C383.311 12.2025 383.663 13.7492 383.663 15.5839C383.663 17.3972 383.322 18.9439 382.639 20.2239C381.956 21.5039 381.028 22.4852 379.855 23.1679C378.703 23.8292 377.38 24.1599 375.887 24.1599ZM376.047 22.1439C377.242 22.1439 378.308 21.8772 379.247 21.3439C380.207 20.7892 380.954 20.0212 381.487 19.0399C382.042 18.0372 382.319 16.8852 382.319 15.5839C382.319 14.2612 382.042 13.1092 381.487 12.1279C380.954 11.1465 380.207 10.3892 379.247 9.85586C378.308 9.30119 377.242 9.02386 376.047 9.02386C374.874 9.02386 373.818 9.30119 372.879 9.85586C371.94 10.3892 371.194 11.1465 370.639 12.1279C370.084 13.1092 369.807 14.2612 369.807 15.5839C369.807 16.8852 370.084 18.0372 370.639 19.0399C371.194 20.0212 371.94 20.7892 372.879 21.3439C373.818 21.8772 374.874 22.1439 376.047 22.1439ZM382.383 23.9999V18.9439L382.607 15.5519L382.287 12.1599V0.255859H384.559V23.9999H382.383Z" fill="#163C51"/>
<path opacity="0.7" d="M356.184 24.1591C354.733 24.1591 353.421 23.8284 352.248 23.1671C351.074 22.4844 350.136 21.5137 349.432 20.2551C348.749 18.9751 348.408 17.4177 348.408 15.5831C348.408 13.7484 348.749 12.2017 349.432 10.9431C350.114 9.66306 351.042 8.6924 352.216 8.03106C353.389 7.36973 354.712 7.03906 356.184 7.03906C357.784 7.03906 359.213 7.40173 360.472 8.12706C361.752 8.83106 362.754 9.83373 363.48 11.1351C364.205 12.4151 364.568 13.8977 364.568 15.5831C364.568 17.2897 364.205 18.7831 363.48 20.0631C362.754 21.3431 361.752 22.3457 360.472 23.0711C359.213 23.7964 357.784 24.1591 356.184 24.1591ZM347.512 30.2071V7.19906H349.688V12.2551L349.464 15.6151L349.784 19.0071V30.2071H347.512ZM356.024 22.1431C357.218 22.1431 358.285 21.8764 359.224 21.3431C360.162 20.7884 360.909 20.0204 361.464 19.0391C362.018 18.0364 362.296 16.8844 362.296 15.5831C362.296 14.2817 362.018 13.1404 361.464 12.1591C360.909 11.1777 360.162 10.4097 359.224 9.85506C358.285 9.3004 357.218 9.02306 356.024 9.02306C354.829 9.02306 353.752 9.3004 352.792 9.85506C351.853 10.4097 351.106 11.1777 350.552 12.1591C350.018 13.1404 349.752 14.2817 349.752 15.5831C349.752 16.8844 350.018 18.0364 350.552 19.0391C351.106 20.0204 351.853 20.7884 352.792 21.3431C353.752 21.8764 354.829 22.1431 356.024 22.1431Z" fill="#163C51"/>
<path opacity="0.7" d="M340.955 24.1599C340.485 24.1599 340.08 23.9892 339.739 23.6479C339.419 23.3065 339.259 22.8905 339.259 22.3999C339.259 21.8879 339.419 21.4719 339.739 21.1519C340.08 20.8319 340.485 20.6719 340.955 20.6719C341.424 20.6719 341.819 20.8319 342.139 21.1519C342.48 21.4719 342.651 21.8879 342.651 22.3999C342.651 22.8905 342.48 23.3065 342.139 23.6479C341.819 23.9892 341.424 24.1599 340.955 24.1599Z" fill="#163C51"/>
<path opacity="0.7" d="M318.339 21.3124L319.203 19.6164C320.184 20.4697 321.283 21.1097 322.499 21.5364C323.736 21.9417 324.974 22.1551 326.211 22.1764C327.448 22.1764 328.579 21.9951 329.603 21.6324C330.648 21.2697 331.491 20.7364 332.131 20.0324C332.771 19.3071 333.091 18.4324 333.091 17.4084C333.091 16.1071 332.568 15.1044 331.523 14.4004C330.499 13.6964 329.07 13.3444 327.235 13.3444H322.435V11.4244H327.107C328.686 11.4244 329.912 11.0937 330.787 10.4324C331.683 9.74972 332.131 8.81106 332.131 7.61639C332.131 6.76306 331.875 6.03772 331.363 5.44039C330.872 4.82172 330.19 4.35239 329.315 4.03239C328.462 3.69106 327.502 3.50972 326.435 3.48839C325.368 3.44572 324.259 3.58439 323.107 3.90439C321.976 4.20306 320.878 4.68306 319.811 5.34439L319.043 3.39239C320.366 2.60306 321.742 2.05906 323.171 1.76039C324.6 1.44039 325.987 1.33372 327.331 1.44039C328.675 1.54706 329.88 1.85639 330.947 2.36839C332.035 2.88039 332.899 3.55239 333.539 4.38439C334.179 5.21639 334.499 6.20839 334.499 7.36039C334.499 8.42706 334.222 9.36572 333.667 10.1764C333.134 10.9871 332.376 11.6164 331.395 12.0644C330.435 12.4911 329.294 12.7044 327.971 12.7044L328.099 12.0004C329.592 12.0004 330.883 12.2351 331.971 12.7044C333.08 13.1737 333.934 13.8457 334.531 14.7204C335.15 15.5737 335.459 16.5764 335.459 17.7284C335.459 18.8164 335.182 19.7871 334.627 20.6404C334.094 21.4724 333.347 22.1764 332.387 22.7524C331.448 23.3071 330.392 23.7124 329.219 23.9684C328.046 24.2031 326.819 24.2671 325.539 24.1604C324.259 24.0537 323 23.7764 321.763 23.3284C320.526 22.8591 319.384 22.1871 318.339 21.3124Z" fill="#163C51"/>
<path opacity="0.7" d="M297.025 23.9996V1.59961H306.337C308.705 1.59961 310.561 2.09028 311.905 3.07161C313.271 4.03161 313.953 5.45028 313.953 7.32761C313.953 9.18361 313.303 10.5916 312.001 11.5516C310.7 12.4903 308.993 12.9596 306.881 12.9596L307.425 12.1596C309.921 12.1596 311.82 12.6503 313.121 13.6316C314.423 14.6129 315.073 16.0529 315.073 17.9516C315.073 19.8716 314.391 21.3649 313.025 22.4316C311.681 23.4769 309.655 23.9996 306.945 23.9996H297.025ZM299.361 22.1116H306.945C308.844 22.1116 310.284 21.7596 311.265 21.0556C312.247 20.3516 312.737 19.2636 312.737 17.7916C312.737 16.3409 312.247 15.2743 311.265 14.5916C310.284 13.9089 308.844 13.5676 306.945 13.5676H299.361V22.1116ZM299.361 11.7436H306.209C307.937 11.7436 309.26 11.4023 310.177 10.7196C311.116 10.0156 311.585 8.98094 311.585 7.61561C311.585 6.25028 311.116 5.22628 310.177 4.54361C309.26 3.83961 307.937 3.48761 306.209 3.48761H299.361V11.7436Z" fill="#163C51"/>
<path opacity="0.7" d="M279.631 24.1922C277.946 24.1922 276.378 23.9149 274.927 23.3602C273.498 22.7842 272.25 21.9842 271.183 20.9602C270.138 19.9149 269.317 18.7095 268.719 17.3442C268.143 15.9575 267.855 14.4429 267.855 12.8002C267.855 11.1575 268.143 9.65354 268.719 8.2882C269.317 6.90154 270.138 5.6962 271.183 4.6722C272.25 3.62687 273.498 2.82687 274.927 2.2722C276.357 1.6962 277.925 1.4082 279.631 1.4082C281.317 1.4082 282.874 1.6962 284.303 2.2722C285.733 2.82687 286.97 3.6162 288.015 4.6402C289.082 5.6642 289.903 6.86954 290.479 8.2562C291.077 9.64287 291.375 11.1575 291.375 12.8002C291.375 14.4429 291.077 15.9575 290.479 17.3442C289.903 18.7309 289.082 19.9362 288.015 20.9602C286.97 21.9842 285.733 22.7842 284.303 23.3602C282.874 23.9149 281.317 24.1922 279.631 24.1922ZM279.631 22.0802C280.975 22.0802 282.213 21.8562 283.343 21.4082C284.495 20.9389 285.487 20.2882 286.319 19.4562C287.173 18.6029 287.834 17.6215 288.303 16.5122C288.773 15.3815 289.007 14.1442 289.007 12.8002C289.007 11.4562 288.773 10.2295 288.303 9.1202C287.834 7.98954 287.173 7.0082 286.319 6.1762C285.487 5.32287 284.495 4.6722 283.343 4.2242C282.213 3.75487 280.975 3.5202 279.631 3.5202C278.287 3.5202 277.039 3.75487 275.887 4.2242C274.735 4.6722 273.733 5.32287 272.879 6.1762C272.047 7.0082 271.386 7.98954 270.895 9.1202C270.426 10.2295 270.191 11.4562 270.191 12.8002C270.191 14.1229 270.426 15.3495 270.895 16.4802C271.386 17.6109 272.047 18.6029 272.879 19.4562C273.733 20.2882 274.735 20.9389 275.887 21.4082C277.039 21.8562 278.287 22.0802 279.631 22.0802Z" fill="#163C51"/>
<path opacity="0.7" d="M252.33 23.9992V17.9512L252.746 18.4312H247.05C244.895 18.4312 243.21 17.9619 241.994 17.0232C240.778 16.0846 240.17 14.7192 240.17 12.9272C240.17 11.0072 240.821 9.57789 242.122 8.63922C243.423 7.67922 245.162 7.19922 247.338 7.19922H254.41V23.9992H252.33ZM240.042 23.9992L244.65 17.5352H247.018L242.506 23.9992H240.042ZM252.33 17.2792V8.51122L252.746 9.18322H247.402C245.845 9.18322 244.629 9.48188 243.754 10.0792C242.901 10.6766 242.474 11.6472 242.474 12.9912C242.474 15.4872 244.063 16.7352 247.242 16.7352H252.746L252.33 17.2792Z" fill="#163C51"/>
<path opacity="0.7" d="M219.45 23.9992V7.19922H221.722V20.5432L232.954 7.19922H234.97V23.9992H232.698V10.6232L221.498 23.9992H219.45Z" fill="#163C51"/>
<path opacity="0.7" d="M197.856 23.9992V7.19922H200.128V14.6232H210.72V7.19922H212.992V23.9992H210.72V16.5752H200.128V23.9992H197.856Z" fill="#163C51"/>
<path opacity="0.7" d="M185.275 24.1591C183.526 24.1591 181.99 23.7964 180.667 23.0711C179.345 22.3244 178.31 21.3111 177.563 20.0311C176.817 18.7297 176.443 17.2471 176.443 15.5831C176.443 13.9191 176.795 12.4471 177.499 11.1671C178.225 9.88706 179.206 8.8844 180.443 8.15906C181.702 7.4124 183.11 7.03906 184.667 7.03906C186.246 7.03906 187.643 7.40173 188.859 8.12706C190.097 8.83106 191.067 9.83373 191.771 11.1351C192.475 12.4151 192.827 13.8977 192.827 15.5831C192.827 15.6897 192.817 15.8071 192.795 15.9351C192.795 16.0417 192.795 16.1591 192.795 16.2871H178.171V14.5911H191.579L190.683 15.2631C190.683 14.0471 190.417 12.9697 189.883 12.0311C189.371 11.0711 188.667 10.3244 187.771 9.79106C186.875 9.25773 185.841 8.99106 184.667 8.99106C183.515 8.99106 182.481 9.25773 181.563 9.79106C180.646 10.3244 179.931 11.0711 179.419 12.0311C178.907 12.9911 178.651 14.0897 178.651 15.3271V15.6791C178.651 16.9591 178.929 18.0897 179.483 19.0711C180.059 20.0311 180.849 20.7884 181.851 21.3431C182.875 21.8764 184.038 22.1431 185.339 22.1431C186.363 22.1431 187.313 21.9617 188.187 21.5991C189.083 21.2364 189.851 20.6817 190.491 19.9351L191.771 21.4071C191.025 22.3031 190.086 22.9857 188.955 23.4551C187.846 23.9244 186.619 24.1591 185.275 24.1591Z" fill="#163C51"/>
<path opacity="0.7" d="M164.81 24.1591C163.359 24.1591 162.047 23.8284 160.874 23.1671C159.7 22.4844 158.762 21.5137 158.058 20.2551C157.375 18.9751 157.034 17.4177 157.034 15.5831C157.034 13.7484 157.375 12.2017 158.058 10.9431C158.74 9.66306 159.668 8.6924 160.842 8.03106C162.015 7.36973 163.338 7.03906 164.81 7.03906C166.41 7.03906 167.839 7.40173 169.098 8.12706C170.378 8.83106 171.38 9.83373 172.106 11.1351C172.831 12.4151 173.194 13.8977 173.194 15.5831C173.194 17.2897 172.831 18.7831 172.106 20.0631C171.38 21.3431 170.378 22.3457 169.098 23.0711C167.839 23.7964 166.41 24.1591 164.81 24.1591ZM156.138 30.2071V7.19906H158.314V12.2551L158.09 15.6151L158.41 19.0071V30.2071H156.138ZM164.65 22.1431C165.844 22.1431 166.911 21.8764 167.85 21.3431C168.788 20.7884 169.535 20.0204 170.09 19.0391C170.644 18.0364 170.922 16.8844 170.922 15.5831C170.922 14.2817 170.644 13.1404 170.09 12.1591C169.535 11.1777 168.788 10.4097 167.85 9.85506C166.911 9.3004 165.844 9.02306 164.65 9.02306C163.455 9.02306 162.378 9.3004 161.418 9.85506C160.479 10.4097 159.732 11.1777 159.178 12.1591C158.644 13.1404 158.378 14.2817 158.378 15.5831C158.378 16.8844 158.644 18.0364 159.178 19.0391C159.732 20.0204 160.479 20.7884 161.418 21.3431C162.378 21.8764 163.455 22.1431 164.65 22.1431Z" fill="#163C51"/>
<path opacity="0.7" d="M143.557 24.1591C141.807 24.1591 140.271 23.7964 138.949 23.0711C137.626 22.3244 136.591 21.3111 135.845 20.0311C135.098 18.7297 134.725 17.2471 134.725 15.5831C134.725 13.9191 135.077 12.4471 135.781 11.1671C136.506 9.88706 137.487 8.8844 138.725 8.15906C139.983 7.4124 141.391 7.03906 142.949 7.03906C144.527 7.03906 145.925 7.40173 147.141 8.12706C148.378 8.83106 149.349 9.83373 150.053 11.1351C150.757 12.4151 151.109 13.8977 151.109 15.5831C151.109 15.6897 151.098 15.8071 151.077 15.9351C151.077 16.0417 151.077 16.1591 151.077 16.2871H136.453V14.5911H149.861L148.965 15.2631C148.965 14.0471 148.698 12.9697 148.165 12.0311C147.653 11.0711 146.949 10.3244 146.053 9.79106C145.157 9.25773 144.122 8.99106 142.949 8.99106C141.797 8.99106 140.762 9.25773 139.845 9.79106C138.927 10.3244 138.213 11.0711 137.701 12.0311C137.189 12.9911 136.933 14.0897 136.933 15.3271V15.6791C136.933 16.9591 137.21 18.0897 137.765 19.0711C138.341 20.0311 139.13 20.7884 140.133 21.3431C141.157 21.8764 142.319 22.1431 143.621 22.1431C144.645 22.1431 145.594 21.9617 146.469 21.5991C147.365 21.2364 148.133 20.6817 148.773 19.9351L150.053 21.4071C149.306 22.3031 148.367 22.9857 147.237 23.4551C146.127 23.9244 144.901 24.1591 143.557 24.1591Z" fill="#163C51"/>
<path opacity="0.7" d="M116.888 23.9992V7.19922H124.312C126.21 7.19922 127.704 7.56189 128.792 8.28722C129.901 9.01255 130.456 10.0792 130.456 11.4872C130.456 12.8526 129.933 13.9086 128.888 14.6552C127.842 15.3806 126.466 15.7432 124.76 15.7432L125.208 15.0712C127.213 15.0712 128.685 15.4446 129.624 16.1912C130.562 16.9379 131.032 18.0152 131.032 19.4232C131.032 20.8739 130.498 22.0046 129.432 22.8152C128.386 23.6046 126.754 23.9992 124.536 23.9992H116.888ZM119.096 22.2072H124.44C125.869 22.2072 126.946 21.9832 127.672 21.5352C128.418 21.0659 128.792 20.3192 128.792 19.2952C128.792 18.2712 128.461 17.5246 127.8 17.0552C127.138 16.5859 126.093 16.3512 124.664 16.3512H119.096V22.2072ZM119.096 14.6552H124.152C125.453 14.6552 126.445 14.4099 127.128 13.9192C127.832 13.4286 128.184 12.7139 128.184 11.7752C128.184 10.8366 127.832 10.1326 127.128 9.66322C126.445 9.19389 125.453 8.95922 124.152 8.95922H119.096V14.6552Z" fill="#163C51"/>
<path opacity="0.7" d="M103.456 24.1591C101.835 24.1591 100.373 23.7964 99.0721 23.0711C97.7921 22.3244 96.7788 21.3111 96.0321 20.0311C95.2854 18.7297 94.9121 17.2471 94.9121 15.5831C94.9121 13.8977 95.2854 12.4151 96.0321 11.1351C96.7788 9.85506 97.7921 8.8524 99.0721 8.12706C100.352 7.40173 101.813 7.03906 103.456 7.03906C105.12 7.03906 106.592 7.40173 107.872 8.12706C109.173 8.8524 110.187 9.85506 110.912 11.1351C111.659 12.4151 112.032 13.8977 112.032 15.5831C112.032 17.2471 111.659 18.7297 110.912 20.0311C110.187 21.3111 109.173 22.3244 107.872 23.0711C106.571 23.7964 105.099 24.1591 103.456 24.1591ZM103.456 22.1431C104.672 22.1431 105.749 21.8764 106.688 21.3431C107.627 20.7884 108.363 20.0204 108.896 19.0391C109.451 18.0364 109.728 16.8844 109.728 15.5831C109.728 14.2604 109.451 13.1084 108.896 12.1271C108.363 11.1457 107.627 10.3884 106.688 9.85506C105.749 9.3004 104.683 9.02306 103.488 9.02306C102.293 9.02306 101.227 9.3004 100.288 9.85506C99.3494 10.3884 98.6028 11.1457 98.0481 12.1271C97.4934 13.1084 97.2161 14.2604 97.2161 15.5831C97.2161 16.8844 97.4934 18.0364 98.0481 19.0391C98.6028 20.0204 99.3494 20.7884 100.288 21.3431C101.227 21.8764 102.283 22.1431 103.456 22.1431Z" fill="#163C51"/>
<path opacity="0.7" d="M85.4002 23.9992V8.57522L85.9762 9.18322H79.0322V7.19922H94.0402V9.18322H87.0962L87.6722 8.57522V23.9992H85.4002Z" fill="#163C51"/>
<path opacity="0.7" d="M71.5216 24.1591C69.8576 24.1591 68.3643 23.7964 67.0416 23.0711C65.7403 22.3244 64.7163 21.3111 63.9696 20.0311C63.2229 18.7297 62.8496 17.2471 62.8496 15.5831C62.8496 13.8977 63.2229 12.4151 63.9696 11.1351C64.7163 9.85506 65.7403 8.8524 67.0416 8.12706C68.3643 7.40173 69.8576 7.03906 71.5216 7.03906C72.9509 7.03906 74.2416 7.3164 75.3936 7.87106C76.5456 8.42573 77.4523 9.25773 78.1136 10.3671L76.4176 11.5191C75.8416 10.6657 75.1269 10.0364 74.2736 9.63106C73.4203 9.22573 72.4923 9.02306 71.4896 9.02306C70.2949 9.02306 69.2176 9.3004 68.2576 9.85506C67.2976 10.3884 66.5403 11.1457 65.9856 12.1271C65.4309 13.1084 65.1536 14.2604 65.1536 15.5831C65.1536 16.9057 65.4309 18.0577 65.9856 19.0391C66.5403 20.0204 67.2976 20.7884 68.2576 21.3431C69.2176 21.8764 70.2949 22.1431 71.4896 22.1431C72.4923 22.1431 73.4203 21.9404 74.2736 21.5351C75.1269 21.1297 75.8416 20.5111 76.4176 19.6791L78.1136 20.8311C77.4523 21.9191 76.5456 22.7511 75.3936 23.3271C74.2416 23.8817 72.9509 24.1591 71.5216 24.1591Z" fill="#163C51"/>
<path opacity="0.7" d="M51.0499 24.1591C49.4285 24.1591 47.9672 23.7964 46.6659 23.0711C45.3859 22.3244 44.3725 21.3111 43.6259 20.0311C42.8792 18.7297 42.5059 17.2471 42.5059 15.5831C42.5059 13.8977 42.8792 12.4151 43.6259 11.1351C44.3725 9.85506 45.3859 8.8524 46.6659 8.12706C47.9459 7.40173 49.4072 7.03906 51.0499 7.03906C52.7139 7.03906 54.1859 7.40173 55.4659 8.12706C56.7672 8.8524 57.7805 9.85506 58.5059 11.1351C59.2525 12.4151 59.6259 13.8977 59.6259 15.5831C59.6259 17.2471 59.2525 18.7297 58.5059 20.0311C57.7805 21.3111 56.7672 22.3244 55.4659 23.0711C54.1645 23.7964 52.6925 24.1591 51.0499 24.1591ZM51.0499 22.1431C52.2659 22.1431 53.3432 21.8764 54.2819 21.3431C55.2205 20.7884 55.9565 20.0204 56.4899 19.0391C57.0445 18.0364 57.3219 16.8844 57.3219 15.5831C57.3219 14.2604 57.0445 13.1084 56.4899 12.1271C55.9565 11.1457 55.2205 10.3884 54.2819 9.85506C53.3432 9.3004 52.2765 9.02306 51.0819 9.02306C49.8872 9.02306 48.8205 9.3004 47.8819 9.85506C46.9432 10.3884 46.1965 11.1457 45.6419 12.1271C45.0872 13.1084 44.8099 14.2604 44.8099 15.5831C44.8099 16.8844 45.0872 18.0364 45.6419 19.0391C46.1965 20.0204 46.9432 20.7884 47.8819 21.3431C48.8205 21.8764 49.8765 22.1431 51.0499 22.1431Z" fill="#163C51"/>
<path opacity="0.7" d="M34.8146 22.9112V9.18322H26.7186L26.5266 12.9272C26.4839 14.0579 26.4093 15.1672 26.3026 16.2552C26.2173 17.3432 26.0573 18.3459 25.8226 19.2632C25.6093 20.1592 25.2999 20.8952 24.8946 21.4712C24.4893 22.0259 23.9666 22.3459 23.3266 22.4312L21.0546 22.0152C21.7159 22.0366 22.2599 21.8019 22.6866 21.3112C23.1133 20.7992 23.4439 20.1059 23.6786 19.2312C23.9133 18.3566 24.0839 17.3646 24.1906 16.2552C24.2973 15.1246 24.3826 13.9726 24.4466 12.7992L24.6706 7.19922H37.0866V22.9112H34.8146ZM20.3506 28.0632V22.0152H39.7106V28.0632H37.5666V23.9992H22.4946V28.0632H20.3506Z" fill="#163C51"/>
<path opacity="0.7" d="M2.82938 21.7916C3.91738 22.2183 4.94138 22.3249 5.90138 22.1116C6.86138 21.8769 7.74671 21.1196 8.55738 19.8396L9.64538 18.1116L9.86938 17.8236L18.4454 1.59961H20.8134L10.6374 20.3516C9.95471 21.6529 9.14404 22.6236 8.20538 23.2636C7.28804 23.9036 6.30671 24.2449 5.26138 24.2876C4.23738 24.3303 3.20271 24.1383 2.15737 23.7116L2.82938 21.7916ZM9.80538 19.9676L0.109375 1.59961H2.63737L11.0854 18.0156L9.80538 19.9676Z" fill="#163C51"/>
</svg>
