<svg width="488" height="31" viewBox="0 0 488 31" fill="none" xmlns="http://www.w3.org/2000/svg">
<path opacity="0.7" d="M479.427 23.9997V5.0877C479.427 3.59437 479.864 2.38904 480.739 1.4717C481.614 0.55437 482.872 0.0957031 484.515 0.0957031C485.155 0.0957031 485.774 0.181037 486.371 0.351704C486.968 0.522371 487.47 0.789037 487.875 1.1517L487.107 2.8477C486.787 2.57037 486.414 2.3677 485.987 2.2397C485.56 2.09037 485.102 2.0157 484.611 2.0157C483.651 2.0157 482.915 2.28237 482.403 2.8157C481.891 3.34904 481.635 4.13837 481.635 5.1837V7.7437L481.699 8.7997V23.9997H479.427ZM476.419 9.0877V7.1997H486.819V9.0877H476.419Z" fill="#163C51"/>
<path opacity="0.7" d="M464.043 24.1599C462.443 24.1599 461.003 23.7972 459.723 23.0719C458.465 22.3465 457.473 21.3439 456.747 20.0639C456.022 18.7625 455.659 17.2692 455.659 15.5839C455.659 13.8772 456.022 12.3839 456.747 11.1039C457.473 9.82386 458.465 8.83186 459.723 8.12786C461.003 7.40253 462.443 7.03986 464.043 7.03986C465.515 7.03986 466.827 7.37053 467.979 8.03186C469.153 8.69319 470.081 9.66386 470.763 10.9439C471.467 12.2025 471.819 13.7492 471.819 15.5839C471.819 17.3972 471.478 18.9439 470.795 20.2239C470.113 21.5039 469.185 22.4852 468.011 23.1679C466.859 23.8292 465.537 24.1599 464.043 24.1599ZM464.203 22.1439C465.398 22.1439 466.465 21.8772 467.403 21.3439C468.363 20.7892 469.11 20.0212 469.643 19.0399C470.198 18.0372 470.475 16.8852 470.475 15.5839C470.475 14.2612 470.198 13.1092 469.643 12.1279C469.11 11.1465 468.363 10.3892 467.403 9.85586C466.465 9.30119 465.398 9.02386 464.203 9.02386C463.03 9.02386 461.974 9.30119 461.035 9.85586C460.097 10.3892 459.35 11.1465 458.795 12.1279C458.241 13.1092 457.963 14.2612 457.963 15.5839C457.963 16.8852 458.241 18.0372 458.795 19.0399C459.35 20.0212 460.097 20.7892 461.035 21.3439C461.974 21.8772 463.03 22.1439 464.203 22.1439ZM470.539 23.9999V18.9439L470.763 15.5519L470.443 12.1599V0.255859H472.715V23.9999H470.539Z" fill="#163C51"/>
<path opacity="0.7" d="M444.34 24.1591C442.889 24.1591 441.577 23.8284 440.404 23.1671C439.231 22.4844 438.292 21.5137 437.588 20.2551C436.905 18.9751 436.564 17.4177 436.564 15.5831C436.564 13.7484 436.905 12.2017 437.588 10.9431C438.271 9.66306 439.199 8.6924 440.372 8.03106C441.545 7.36973 442.868 7.03906 444.34 7.03906C445.94 7.03906 447.369 7.40173 448.628 8.12706C449.908 8.83106 450.911 9.83373 451.636 11.1351C452.361 12.4151 452.724 13.8977 452.724 15.5831C452.724 17.2897 452.361 18.7831 451.636 20.0631C450.911 21.3431 449.908 22.3457 448.628 23.0711C447.369 23.7964 445.94 24.1591 444.34 24.1591ZM435.668 30.2071V7.19906H437.844V12.2551L437.62 15.6151L437.94 19.0071V30.2071H435.668ZM444.18 22.1431C445.375 22.1431 446.441 21.8764 447.38 21.3431C448.319 20.7884 449.065 20.0204 449.62 19.0391C450.175 18.0364 450.452 16.8844 450.452 15.5831C450.452 14.2817 450.175 13.1404 449.62 12.1591C449.065 11.1777 448.319 10.4097 447.38 9.85506C446.441 9.3004 445.375 9.02306 444.18 9.02306C442.985 9.02306 441.908 9.3004 440.948 9.85506C440.009 10.4097 439.263 11.1777 438.708 12.1591C438.175 13.1404 437.908 14.2817 437.908 15.5831C437.908 16.8844 438.175 18.0364 438.708 19.0391C439.263 20.0204 440.009 20.7884 440.948 21.3431C441.908 21.8764 442.985 22.1431 444.18 22.1431Z" fill="#163C51"/>
<path opacity="0.7" d="M429.11 24.1599C428.641 24.1599 428.235 23.9892 427.894 23.6479C427.574 23.3065 427.414 22.8905 427.414 22.3999C427.414 21.8879 427.574 21.4719 427.894 21.1519C428.235 20.8319 428.641 20.6719 429.11 20.6719C429.579 20.6719 429.974 20.8319 430.294 21.1519C430.635 21.4719 430.806 21.8879 430.806 22.3999C430.806 22.8905 430.635 23.3065 430.294 23.6479C429.974 23.9892 429.579 24.1599 429.11 24.1599Z" fill="#163C51"/>
<path opacity="0.7" d="M416.369 24.1591C414.62 24.1591 413.084 23.7964 411.761 23.0711C410.438 22.3244 409.404 21.3111 408.657 20.0311C407.91 18.7297 407.537 17.2471 407.537 15.5831C407.537 13.9191 407.889 12.4471 408.593 11.1671C409.318 9.88706 410.3 8.8844 411.537 8.15906C412.796 7.4124 414.204 7.03906 415.761 7.03906C417.34 7.03906 418.737 7.40173 419.953 8.12706C421.19 8.83106 422.161 9.83373 422.865 11.1351C423.569 12.4151 423.921 13.8977 423.921 15.5831C423.921 15.6897 423.91 15.8071 423.889 15.9351C423.889 16.0417 423.889 16.1591 423.889 16.2871H409.265V14.5911H422.673L421.777 15.2631C421.777 14.0471 421.51 12.9697 420.977 12.0311C420.465 11.0711 419.761 10.3244 418.865 9.79106C417.969 9.25773 416.934 8.99106 415.761 8.99106C414.609 8.99106 413.574 9.25773 412.657 9.79106C411.74 10.3244 411.025 11.0711 410.513 12.0311C410.001 12.9911 409.745 14.0897 409.745 15.3271V15.6791C409.745 16.9591 410.022 18.0897 410.577 19.0711C411.153 20.0311 411.942 20.7884 412.945 21.3431C413.969 21.8764 415.132 22.1431 416.433 22.1431C417.457 22.1431 418.406 21.9617 419.281 21.5991C420.177 21.2364 420.945 20.6817 421.585 19.9351L422.865 21.4071C422.118 22.3031 421.18 22.9857 420.049 23.4551C418.94 23.9244 417.713 24.1591 416.369 24.1591Z" fill="#163C51"/>
<path opacity="0.7" d="M400.428 23.9992V7.19922H402.7V23.9992H400.428ZM391.116 13.1192C393.228 13.1406 394.839 13.6099 395.948 14.5272C397.057 15.4446 397.612 16.7672 397.612 18.4952C397.612 20.2872 397.015 21.6632 395.82 22.6232C394.625 23.5832 392.919 24.0526 390.7 24.0312L384.044 23.9992V7.19922H386.316V13.0552L391.116 13.1192ZM390.54 22.3032C392.119 22.3246 393.303 22.0152 394.092 21.3752C394.903 20.7139 395.308 19.7539 395.308 18.4952C395.308 17.2366 394.913 16.3192 394.124 15.7432C393.335 15.1459 392.14 14.8366 390.54 14.8152L386.316 14.7512V22.2392L390.54 22.3032Z" fill="#163C51"/>
<path opacity="0.7" d="M362.45 23.9992V7.19922H364.722V14.6232H375.314V7.19922H377.586V23.9992H375.314V16.5752H364.722V23.9992H362.45Z" fill="#163C51"/>
<path opacity="0.7" d="M340.856 23.9992V7.19922H343.128V14.6232H353.72V7.19922H355.992V23.9992H353.72V16.5752H343.128V23.9992H340.856Z" fill="#163C51"/>
<path opacity="0.7" d="M332.632 23.9991V20.2871L332.536 19.6791V13.4711C332.536 12.0417 332.131 10.9431 331.32 10.1751C330.531 9.40706 329.347 9.02306 327.768 9.02306C326.68 9.02306 325.646 9.2044 324.664 9.56706C323.683 9.92973 322.851 10.4097 322.168 11.0071L321.144 9.31106C321.998 8.58573 323.022 8.03106 324.216 7.64706C325.411 7.24173 326.67 7.03906 327.992 7.03906C330.168 7.03906 331.843 7.58306 333.016 8.67106C334.211 9.73773 334.808 11.3697 334.808 13.5671V23.9991H332.632ZM326.84 24.1591C325.582 24.1591 324.483 23.9564 323.544 23.5511C322.627 23.1244 321.923 22.5484 321.432 21.8231C320.942 21.0764 320.696 20.2231 320.696 19.2631C320.696 18.3884 320.899 17.5991 321.304 16.8951C321.731 16.1697 322.414 15.5937 323.352 15.1671C324.312 14.7191 325.592 14.4951 327.192 14.4951H332.984V16.1911H327.256C325.635 16.1911 324.504 16.4791 323.864 17.0551C323.246 17.6311 322.936 18.3457 322.936 19.1991C322.936 20.1591 323.31 20.9271 324.056 21.5031C324.803 22.0791 325.848 22.3671 327.192 22.3671C328.472 22.3671 329.571 22.0791 330.488 21.5031C331.427 20.9057 332.11 20.0524 332.536 18.9431L333.048 20.5111C332.622 21.6204 331.875 22.5057 330.808 23.1671C329.763 23.8284 328.44 24.1591 326.84 24.1591Z" fill="#163C51"/>
<path opacity="0.7" d="M312.876 22.9112V9.18322H304.78L304.588 12.9272C304.545 14.0579 304.471 15.1672 304.364 16.2552C304.279 17.3432 304.119 18.3459 303.884 19.2632C303.671 20.1592 303.361 20.8952 302.956 21.4712C302.551 22.0259 302.028 22.3459 301.388 22.4312L299.116 22.0152C299.777 22.0366 300.321 21.8019 300.748 21.3112C301.175 20.7992 301.505 20.1059 301.74 19.2312C301.975 18.3566 302.145 17.3646 302.252 16.2552C302.359 15.1246 302.444 13.9726 302.508 12.7992L302.732 7.19922H315.148V22.9112H312.876ZM298.412 28.0632V22.0152H317.772V28.0632H315.628V23.9992H300.556V28.0632H298.412Z" fill="#163C51"/>
<path opacity="0.7" d="M280.4 24.1591C278.651 24.1591 277.115 23.7964 275.792 23.0711C274.47 22.3244 273.435 21.3111 272.688 20.0311C271.942 18.7297 271.568 17.2471 271.568 15.5831C271.568 13.9191 271.92 12.4471 272.624 11.1671C273.35 9.88706 274.331 8.8844 275.568 8.15906C276.827 7.4124 278.235 7.03906 279.792 7.03906C281.371 7.03906 282.768 7.40173 283.984 8.12706C285.222 8.83106 286.192 9.83373 286.896 11.1351C287.6 12.4151 287.952 13.8977 287.952 15.5831C287.952 15.6897 287.942 15.8071 287.92 15.9351C287.92 16.0417 287.92 16.1591 287.92 16.2871H273.296V14.5911H286.704L285.808 15.2631C285.808 14.0471 285.542 12.9697 285.008 12.0311C284.496 11.0711 283.792 10.3244 282.896 9.79106C282 9.25773 280.966 8.99106 279.792 8.99106C278.64 8.99106 277.606 9.25773 276.688 9.79106C275.771 10.3244 275.056 11.0711 274.544 12.0311C274.032 12.9911 273.776 14.0897 273.776 15.3271V15.6791C273.776 16.9591 274.054 18.0897 274.608 19.0711C275.184 20.0311 275.974 20.7884 276.976 21.3431C278 21.8764 279.163 22.1431 280.464 22.1431C281.488 22.1431 282.438 21.9617 283.312 21.5991C284.208 21.2364 284.976 20.6817 285.616 19.9351L286.896 21.4071C286.15 22.3031 285.211 22.9857 284.08 23.4551C282.971 23.9244 281.744 24.1591 280.4 24.1591Z" fill="#163C51"/>
<path opacity="0.7" d="M264.459 23.9992V7.19922H266.731V23.9992H264.459ZM255.147 13.1192C257.259 13.1406 258.87 13.6099 259.979 14.5272C261.089 15.4446 261.643 16.7672 261.643 18.4952C261.643 20.2872 261.046 21.6632 259.851 22.6232C258.657 23.5832 256.95 24.0526 254.731 24.0312L248.075 23.9992V7.19922H250.347V13.0552L255.147 13.1192ZM254.571 22.3032C256.15 22.3246 257.334 22.0152 258.123 21.3752C258.934 20.7139 259.339 19.7539 259.339 18.4952C259.339 17.2366 258.945 16.3192 258.155 15.7432C257.366 15.1459 256.171 14.8366 254.571 14.8152L250.347 14.7512V22.2392L254.571 22.3032Z" fill="#163C51"/>
<path opacity="0.7" d="M226.481 23.9992V7.19922H228.753V14.6232H239.345V7.19922H241.617V23.9992H239.345V16.5752H228.753V23.9992H226.481Z" fill="#163C51"/>
<path opacity="0.7" d="M215.682 13.1192C217.794 13.1406 219.394 13.6099 220.482 14.5272C221.592 15.4446 222.146 16.7672 222.146 18.4952C222.146 20.2872 221.549 21.6632 220.354 22.6232C219.181 23.5832 217.474 24.0526 215.234 24.0312L208.45 23.9992V7.19922H210.722V13.0552L215.682 13.1192ZM215.106 22.3032C216.664 22.3246 217.837 22.0152 218.626 21.3752C219.437 20.7139 219.842 19.7539 219.842 18.4952C219.842 17.2366 219.448 16.3192 218.658 15.7432C217.869 15.1459 216.685 14.8366 215.106 14.8152L210.722 14.7512V22.2392L215.106 22.3032Z" fill="#163C51"/>
<path opacity="0.7" d="M185.159 23.9672L185.319 22.0152C185.469 22.0366 185.607 22.0686 185.735 22.1112C185.885 22.1326 186.013 22.1432 186.119 22.1432C186.802 22.1432 187.346 21.8872 187.751 21.3752C188.178 20.8632 188.498 20.1806 188.711 19.3272C188.925 18.4739 189.074 17.5139 189.159 16.4472C189.245 15.3592 189.319 14.2712 189.383 13.1832L189.671 7.19922H201.991V23.9992H199.719V8.51122L200.295 9.18322H191.143L191.687 8.47922L191.431 13.3432C191.367 14.7939 191.25 16.1806 191.079 17.5032C190.93 18.8259 190.685 19.9886 190.343 20.9912C190.023 21.9939 189.575 22.7832 188.999 23.3592C188.423 23.9139 187.687 24.1912 186.791 24.1912C186.535 24.1912 186.269 24.1699 185.991 24.1272C185.735 24.0846 185.458 24.0312 185.159 23.9672Z" fill="#163C51"/>
<path opacity="0.7" d="M175.994 24.1591C174.245 24.1591 172.709 23.7964 171.386 23.0711C170.063 22.3244 169.029 21.3111 168.282 20.0311C167.535 18.7297 167.162 17.2471 167.162 15.5831C167.162 13.9191 167.514 12.4471 168.218 11.1671C168.943 9.88706 169.925 8.8844 171.162 8.15906C172.421 7.4124 173.829 7.03906 175.386 7.03906C176.965 7.03906 178.362 7.40173 179.578 8.12706C180.815 8.83106 181.786 9.83373 182.49 11.1351C183.194 12.4151 183.546 13.8977 183.546 15.5831C183.546 15.6897 183.535 15.8071 183.514 15.9351C183.514 16.0417 183.514 16.1591 183.514 16.2871H168.89V14.5911H182.298L181.402 15.2631C181.402 14.0471 181.135 12.9697 180.602 12.0311C180.09 11.0711 179.386 10.3244 178.49 9.79106C177.594 9.25773 176.559 8.99106 175.386 8.99106C174.234 8.99106 173.199 9.25773 172.282 9.79106C171.365 10.3244 170.65 11.0711 170.138 12.0311C169.626 12.9911 169.37 14.0897 169.37 15.3271V15.6791C169.37 16.9591 169.647 18.0897 170.202 19.0711C170.778 20.0311 171.567 20.7884 172.57 21.3431C173.594 21.8764 174.757 22.1431 176.058 22.1431C177.082 22.1431 178.031 21.9617 178.906 21.5991C179.802 21.2364 180.57 20.6817 181.21 19.9351L182.49 21.4071C181.743 22.3031 180.805 22.9857 179.674 23.4551C178.565 23.9244 177.338 24.1591 175.994 24.1591Z" fill="#163C51"/>
<path opacity="0.7" d="M157.65 23.9992V8.57522L158.226 9.18322H151.282V7.19922H166.29V9.18322H159.346L159.922 8.57522V23.9992H157.65Z" fill="#163C51"/>
<path opacity="0.7" d="M132.419 23.9992V7.19922H134.691V20.5432L145.923 7.19922H147.939V23.9992H145.667V10.6232L134.467 23.9992H132.419Z" fill="#163C51"/>
<path opacity="0.7" d="M110.825 23.9992V7.19922H113.097V14.6232H123.689V7.19922H125.961V23.9992H123.689V16.5752H113.097V23.9992H110.825Z" fill="#163C51"/>
<path opacity="0.7" d="M87.5342 23.9672L87.6942 22.0152C87.8435 22.0366 87.9822 22.0686 88.1102 22.1112C88.2595 22.1326 88.3875 22.1432 88.4942 22.1432C89.1768 22.1432 89.7208 21.8872 90.1262 21.3752C90.5528 20.8632 90.8728 20.1806 91.0862 19.3272C91.2995 18.4739 91.4488 17.5139 91.5342 16.4472C91.6195 15.3592 91.6942 14.2712 91.7582 13.1832L92.0462 7.19922H104.366V23.9992H102.094V8.51122L102.67 9.18322H93.5182L94.0622 8.47922L93.8062 13.3432C93.7422 14.7939 93.6248 16.1806 93.4542 17.5032C93.3048 18.8259 93.0595 19.9886 92.7182 20.9912C92.3982 21.9939 91.9502 22.7832 91.3742 23.3592C90.7982 23.9139 90.0622 24.1912 89.1662 24.1912C88.9102 24.1912 88.6435 24.1699 88.3662 24.1272C88.1102 24.0846 87.8328 24.0312 87.5342 23.9672Z" fill="#163C51"/>
<path opacity="0.7" d="M77.2686 24.1591C75.6473 24.1591 74.1859 23.7964 72.8846 23.0711C71.6046 22.3244 70.5913 21.3111 69.8446 20.0311C69.0979 18.7297 68.7246 17.2471 68.7246 15.5831C68.7246 13.8977 69.0979 12.4151 69.8446 11.1351C70.5913 9.85506 71.6046 8.8524 72.8846 8.12706C74.1646 7.40173 75.6259 7.03906 77.2686 7.03906C78.9326 7.03906 80.4046 7.40173 81.6846 8.12706C82.9859 8.8524 83.9993 9.85506 84.7246 11.1351C85.4713 12.4151 85.8446 13.8977 85.8446 15.5831C85.8446 17.2471 85.4713 18.7297 84.7246 20.0311C83.9993 21.3111 82.9859 22.3244 81.6846 23.0711C80.3833 23.7964 78.9113 24.1591 77.2686 24.1591ZM77.2686 22.1431C78.4846 22.1431 79.5619 21.8764 80.5006 21.3431C81.4393 20.7884 82.1753 20.0204 82.7086 19.0391C83.2633 18.0364 83.5406 16.8844 83.5406 15.5831C83.5406 14.2604 83.2633 13.1084 82.7086 12.1271C82.1753 11.1457 81.4393 10.3884 80.5006 9.85506C79.5619 9.3004 78.4953 9.02306 77.3006 9.02306C76.1059 9.02306 75.0393 9.3004 74.1006 9.85506C73.1619 10.3884 72.4153 11.1457 71.8606 12.1271C71.3059 13.1084 71.0286 14.2604 71.0286 15.5831C71.0286 16.8844 71.3059 18.0364 71.8606 19.0391C72.4153 20.0204 73.1619 20.7884 74.1006 21.3431C75.0393 21.8764 76.0953 22.1431 77.2686 22.1431Z" fill="#163C51"/>
<path opacity="0.7" d="M48.7939 23.9992V7.19922H63.8979V23.9992H61.6259V8.57522L62.2019 9.18322H50.4899L51.0659 8.57522V23.9992H48.7939Z" fill="#163C51"/>
<path opacity="0.7" d="M35.3624 24.1591C33.741 24.1591 32.2797 23.7964 30.9784 23.0711C29.6984 22.3244 28.685 21.3111 27.9384 20.0311C27.1917 18.7297 26.8184 17.2471 26.8184 15.5831C26.8184 13.8977 27.1917 12.4151 27.9384 11.1351C28.685 9.85506 29.6984 8.8524 30.9784 8.12706C32.2584 7.40173 33.7197 7.03906 35.3624 7.03906C37.0264 7.03906 38.4984 7.40173 39.7784 8.12706C41.0797 8.8524 42.093 9.85506 42.8184 11.1351C43.565 12.4151 43.9384 13.8977 43.9384 15.5831C43.9384 17.2471 43.565 18.7297 42.8184 20.0311C42.093 21.3111 41.0797 22.3244 39.7784 23.0711C38.477 23.7964 37.005 24.1591 35.3624 24.1591ZM35.3624 22.1431C36.5784 22.1431 37.6557 21.8764 38.5944 21.3431C39.533 20.7884 40.269 20.0204 40.8024 19.0391C41.357 18.0364 41.6344 16.8844 41.6344 15.5831C41.6344 14.2604 41.357 13.1084 40.8024 12.1271C40.269 11.1457 39.533 10.3884 38.5944 9.85506C37.6557 9.3004 36.589 9.02306 35.3944 9.02306C34.1997 9.02306 33.133 9.3004 32.1944 9.85506C31.2557 10.3884 30.509 11.1457 29.9544 12.1271C29.3997 13.1084 29.1224 14.2604 29.1224 15.5831C29.1224 16.8844 29.3997 18.0364 29.9544 19.0391C30.509 20.0204 31.2557 20.7884 32.1944 21.3431C33.133 21.8764 34.189 22.1431 35.3624 22.1431Z" fill="#163C51"/>
<path opacity="0.7" d="M18.9368 22.8796V3.64761H8.21681L8.02481 9.08761C7.96081 10.7729 7.85415 12.3943 7.70481 13.9516C7.57681 15.4876 7.36348 16.8743 7.06481 18.1116C6.78748 19.3276 6.40348 20.3196 5.91281 21.0876C5.44348 21.8556 4.82481 22.3036 4.05681 22.4316L1.46481 21.9516C2.31815 21.9943 3.02215 21.6849 3.57681 21.0236C4.15281 20.3623 4.59015 19.4343 4.88881 18.2396C5.20881 17.0449 5.44348 15.6476 5.59281 14.0476C5.74215 12.4476 5.84881 10.7196 5.91281 8.86361L6.16881 1.59961H21.2728V22.8796H18.9368ZM0.632812 29.0236L0.664813 21.9516H24.6328V29.0236H22.4248V23.9996H2.87281L2.84081 29.0236H0.632812Z" fill="#163C51"/>
</svg>
