<svg width="131" height="19" viewBox="0 0 131 19" fill="none" xmlns="http://www.w3.org/2000/svg">
<path d="M121.227 18.0011V4.89453H130.514V6.44236H122.55L122.999 5.99299V18.0011H121.227Z" fill="white"/>
<path d="M98.9559 18.0002V16.727L106.221 9.61201C106.886 8.96292 107.386 8.39705 107.719 7.9144C108.051 7.4151 108.276 6.94909 108.393 6.51637C108.509 6.08364 108.567 5.67588 108.567 5.29309C108.567 4.27785 108.218 3.47897 107.519 2.89646C106.836 2.31394 105.821 2.02268 104.473 2.02268C103.441 2.02268 102.526 2.18079 101.727 2.49702C100.945 2.81324 100.271 3.30421 99.7048 3.96995L98.4316 2.87149C99.114 2.07261 99.9878 1.45681 101.053 1.02409C102.118 0.591363 103.308 0.375 104.623 0.375C105.805 0.375 106.828 0.566397 107.694 0.949193C108.559 1.31534 109.225 1.85625 109.691 2.57191C110.173 3.28757 110.415 4.12806 110.415 5.09337C110.415 5.65924 110.332 6.21679 110.165 6.76601C110.015 7.31524 109.732 7.89776 109.316 8.51356C108.917 9.11272 108.326 9.79509 107.544 10.5607L100.878 17.1015L100.379 16.4025H111.214V18.0002H98.9559Z" fill="white"/>
<path d="M84.7674 18.0002V16.727L92.0322 9.61201C92.6979 8.96292 93.1972 8.39705 93.5301 7.9144C93.863 7.4151 94.0877 6.94909 94.2042 6.51637C94.3207 6.08364 94.3789 5.67588 94.3789 5.29309C94.3789 4.27785 94.0294 3.47897 93.3304 2.89646C92.648 2.31394 91.6328 2.02268 90.2847 2.02268C89.2528 2.02268 88.3374 2.18079 87.5385 2.49702C86.7563 2.81324 86.0822 3.30421 85.5164 3.96995L84.2432 2.87149C84.9255 2.07261 85.7993 1.45681 86.8645 1.02409C87.9296 0.591363 89.1196 0.375 90.4345 0.375C91.6161 0.375 92.6397 0.566397 93.5051 0.949193C94.3706 1.31534 95.0363 1.85625 95.5023 2.57191C95.985 3.28757 96.2263 4.12806 96.2263 5.09337C96.2263 5.65924 96.1431 6.21679 95.9767 6.76601C95.8269 7.31524 95.5439 7.89776 95.1279 8.51356C94.7284 9.11272 94.1376 9.79509 93.3553 10.5607L86.6897 17.1015L86.1904 16.4025H97.0252V18.0002H84.7674Z" fill="white"/>
<path d="M75.5277 18.15C74.1796 18.15 72.9813 17.8005 71.9328 17.1015C70.8842 16.3858 70.0604 15.3706 69.4612 14.0558C68.8621 12.7243 68.5625 11.1266 68.5625 9.2625C68.5625 7.39846 68.8621 5.80903 69.4612 4.49421C70.0604 3.16275 70.8842 2.14751 71.9328 1.44849C72.9813 0.73283 74.1796 0.375 75.5277 0.375C76.8758 0.375 78.0741 0.73283 79.1227 1.44849C80.1712 2.14751 80.995 3.16275 81.5942 4.49421C82.21 5.80903 82.5179 7.39846 82.5179 9.2625C82.5179 11.1266 82.21 12.7243 81.5942 14.0558C80.995 15.3706 80.1712 16.3858 79.1227 17.1015C78.0741 17.8005 76.8758 18.15 75.5277 18.15ZM75.5277 16.5023C76.5596 16.5023 77.4583 16.2277 78.2239 15.6785C78.9895 15.1126 79.5887 14.2971 80.0214 13.2319C80.4541 12.1501 80.6705 10.827 80.6705 9.2625C80.6705 7.69804 80.4541 6.38322 80.0214 5.31805C79.5887 4.23624 78.9895 3.42072 78.2239 2.87149C77.4583 2.30562 76.5596 2.02268 75.5277 2.02268C74.5291 2.02268 73.6387 2.30562 72.8565 2.87149C72.0742 3.42072 71.4668 4.23624 71.034 5.31805C70.6013 6.38322 70.3849 7.69804 70.3849 9.2625C70.3849 10.827 70.6013 12.1501 71.034 13.2319C71.4668 14.2971 72.0742 15.1126 72.8565 15.6785C73.6387 16.2277 74.5291 16.5023 75.5277 16.5023Z" fill="white"/>
<path d="M54.0975 18.0002V16.727L61.3623 9.61201C62.028 8.96292 62.5273 8.39705 62.8602 7.9144C63.1931 7.4151 63.4177 6.94909 63.5342 6.51637C63.6507 6.08364 63.709 5.67588 63.709 5.29309C63.709 4.27785 63.3595 3.47897 62.6605 2.89646C61.9781 2.31394 60.9629 2.02268 59.6147 2.02268C58.5829 2.02268 57.6675 2.18079 56.8686 2.49702C56.0864 2.81324 55.4123 3.30421 54.8465 3.96995L53.5732 2.87149C54.2556 2.07261 55.1294 1.45681 56.1946 1.02409C57.2597 0.591363 58.4497 0.375 59.7645 0.375C60.9462 0.375 61.9698 0.566397 62.8352 0.949193C63.7007 1.31534 64.3664 1.85625 64.8324 2.57191C65.3151 3.28757 65.5564 4.12806 65.5564 5.09337C65.5564 5.65924 65.4732 6.21679 65.3067 6.76601C65.157 7.31524 64.874 7.89776 64.4579 8.51356C64.0585 9.11272 63.4677 9.79509 62.6854 10.5607L56.0198 17.1015L55.5205 16.4025H66.3553V18.0002H54.0975Z" fill="white"/>
<path d="M50.2362 18.1255C49.8701 18.1255 49.5539 17.9923 49.2876 17.726C49.0379 17.4597 48.9131 17.1352 48.9131 16.7524C48.9131 16.353 49.0379 16.0284 49.2876 15.7788C49.5539 15.5291 49.8701 15.4043 50.2362 15.4043C50.6024 15.4043 50.9103 15.5291 51.1599 15.7788C51.4262 16.0284 51.5594 16.353 51.5594 16.7524C51.5594 17.1352 51.4262 17.4597 51.1599 17.726C50.9103 17.9923 50.6024 18.1255 50.2362 18.1255Z" fill="white"/>
<path d="M42.9132 17.9989V1.27239L43.712 2.12119H38.7939V0.523438H44.7106V17.9989H42.9132Z" fill="white"/>
<path d="M33.8926 17.9989V1.27239L34.6915 2.12119H29.7734V0.523438H35.6901V17.9989H33.8926Z" fill="white"/>
<path d="M27.1972 18.1255C26.831 18.1255 26.5148 17.9923 26.2485 17.726C25.9988 17.4597 25.874 17.1352 25.874 16.7524C25.874 16.353 25.9988 16.0284 26.2485 15.7788C26.5148 15.5291 26.831 15.4043 27.1972 15.4043C27.5633 15.4043 27.8712 15.5291 28.1209 15.7788C28.3872 16.0284 28.5203 16.353 28.5203 16.7524C28.5203 17.1352 28.3872 17.4597 28.1209 17.726C27.8712 17.9923 27.5633 18.1255 27.1972 18.1255Z" fill="white"/>
<path d="M19.8741 17.9989V1.27239L20.673 2.12119H15.7549V0.523438H21.6716V17.9989H19.8741Z" fill="white"/>
<path d="M7.26404 18.15C5.91593 18.15 4.71762 17.8005 3.66909 17.1015C2.62056 16.3858 1.79672 15.3706 1.19756 14.0558C0.598407 12.7243 0.298828 11.1266 0.298828 9.2625C0.298828 7.39846 0.598407 5.80903 1.19756 4.49421C1.79672 3.16275 2.62056 2.14751 3.66909 1.44849C4.71762 0.73283 5.91593 0.375 7.26404 0.375C8.61214 0.375 9.81046 0.73283 10.859 1.44849C11.9075 2.14751 12.7313 3.16275 13.3305 4.49421C13.9463 5.80903 14.2542 7.39846 14.2542 9.2625C14.2542 11.1266 13.9463 12.7243 13.3305 14.0558C12.7313 15.3706 11.9075 16.3858 10.859 17.1015C9.81046 17.8005 8.61214 18.15 7.26404 18.15ZM7.26404 16.5023C8.29592 16.5023 9.19465 16.2277 9.96025 15.6785C10.7258 15.1126 11.325 14.2971 11.7577 13.2319C12.1904 12.1501 12.4068 10.827 12.4068 9.2625C12.4068 7.69804 12.1904 6.38322 11.7577 5.31805C11.325 4.23624 10.7258 3.42072 9.96025 2.87149C9.19465 2.30562 8.29592 2.02268 7.26404 2.02268C6.26544 2.02268 5.37502 2.30562 4.59279 2.87149C3.81056 3.42072 3.20308 4.23624 2.77035 5.31805C2.33763 6.38322 2.12127 7.69804 2.12127 9.2625C2.12127 10.827 2.33763 12.1501 2.77035 13.2319C3.20308 14.2971 3.81056 15.1126 4.59279 15.6785C5.37502 16.2277 6.26544 16.5023 7.26404 16.5023Z" fill="white"/>
</svg>
