<svg width="170" height="24" viewBox="0 0 170 24" fill="none" xmlns="http://www.w3.org/2000/svg">
<path opacity="0.7" d="M153.858 23.0002V21.3682L163.17 12.2482C164.023 11.4162 164.663 10.6909 165.09 10.0722C165.516 9.4322 165.804 8.83487 165.954 8.2802C166.103 7.72554 166.178 7.20287 166.178 6.7122C166.178 5.41087 165.73 4.38687 164.834 3.6402C163.959 2.89354 162.658 2.5202 160.93 2.5202C159.607 2.5202 158.434 2.72287 157.41 3.1282C156.407 3.53354 155.543 4.16287 154.818 5.0162L153.186 3.6082C154.06 2.5842 155.18 1.79487 156.546 1.2402C157.911 0.685537 159.436 0.408203 161.122 0.408203C162.636 0.408203 163.948 0.653536 165.058 1.1442C166.167 1.61354 167.02 2.30687 167.618 3.2242C168.236 4.14154 168.546 5.21887 168.546 6.4562C168.546 7.18154 168.439 7.8962 168.226 8.6002C168.034 9.3042 167.671 10.0509 167.138 10.8402C166.626 11.6082 165.868 12.4829 164.866 13.4642L156.322 21.8482L155.682 20.9522H169.57V23.0002H153.858Z" fill="#163C51"/>
<path opacity="0.7" d="M142.014 23.1922C140.286 23.1922 138.75 22.7442 137.406 21.8482C136.062 20.9309 135.006 19.6295 134.238 17.9442C133.47 16.2375 133.086 14.1895 133.086 11.8002C133.086 9.41087 133.47 7.37354 134.238 5.6882C135.006 3.98154 136.062 2.6802 137.406 1.7842C138.75 0.86687 140.286 0.408203 142.014 0.408203C143.742 0.408203 145.278 0.86687 146.622 1.7842C147.966 2.6802 149.022 3.98154 149.79 5.6882C150.579 7.37354 150.974 9.41087 150.974 11.8002C150.974 14.1895 150.579 16.2375 149.79 17.9442C149.022 19.6295 147.966 20.9309 146.622 21.8482C145.278 22.7442 143.742 23.1922 142.014 23.1922ZM142.014 21.0802C143.337 21.0802 144.489 20.7282 145.47 20.0242C146.451 19.2989 147.219 18.2535 147.774 16.8882C148.329 15.5015 148.606 13.8055 148.606 11.8002C148.606 9.79487 148.329 8.10954 147.774 6.7442C147.219 5.35754 146.451 4.3122 145.47 3.6082C144.489 2.88287 143.337 2.5202 142.014 2.5202C140.734 2.5202 139.593 2.88287 138.59 3.6082C137.587 4.3122 136.809 5.35754 136.254 6.7442C135.699 8.10954 135.422 9.79487 135.422 11.8002C135.422 13.8055 135.699 15.5015 136.254 16.8882C136.809 18.2535 137.587 19.2989 138.59 20.0242C139.593 20.7282 140.734 21.0802 142.014 21.0802Z" fill="#163C51"/>
<path opacity="0.7" d="M120.826 23.1922C119.098 23.1922 117.562 22.7442 116.218 21.8482C114.874 20.9309 113.818 19.6295 113.05 17.9442C112.282 16.2375 111.898 14.1895 111.898 11.8002C111.898 9.41087 112.282 7.37354 113.05 5.6882C113.818 3.98154 114.874 2.6802 116.218 1.7842C117.562 0.86687 119.098 0.408203 120.826 0.408203C122.554 0.408203 124.09 0.86687 125.434 1.7842C126.778 2.6802 127.834 3.98154 128.602 5.6882C129.392 7.37354 129.786 9.41087 129.786 11.8002C129.786 14.1895 129.392 16.2375 128.602 17.9442C127.834 19.6295 126.778 20.9309 125.434 21.8482C124.09 22.7442 122.554 23.1922 120.826 23.1922ZM120.826 21.0802C122.149 21.0802 123.301 20.7282 124.282 20.0242C125.264 19.2989 126.032 18.2535 126.586 16.8882C127.141 15.5015 127.418 13.8055 127.418 11.8002C127.418 9.79487 127.141 8.10954 126.586 6.7442C126.032 5.35754 125.264 4.3122 124.282 3.6082C123.301 2.88287 122.149 2.5202 120.826 2.5202C119.546 2.5202 118.405 2.88287 117.402 3.6082C116.4 4.3122 115.621 5.35754 115.066 6.7442C114.512 8.10954 114.234 9.79487 114.234 11.8002C114.234 13.8055 114.512 15.5015 115.066 16.8882C115.621 18.2535 116.4 19.2989 117.402 20.0242C118.405 20.7282 119.546 21.0802 120.826 21.0802Z" fill="#163C51"/>
<path opacity="0.7" d="M93.3576 23.0002V21.3682L102.67 12.2482C103.523 11.4162 104.163 10.6909 104.59 10.0722C105.016 9.4322 105.304 8.83487 105.454 8.2802C105.603 7.72554 105.678 7.20287 105.678 6.7122C105.678 5.41087 105.23 4.38687 104.334 3.6402C103.459 2.89354 102.158 2.5202 100.43 2.5202C99.1069 2.5202 97.9336 2.72287 96.9096 3.1282C95.9069 3.53354 95.0429 4.16287 94.3176 5.0162L92.6855 3.6082C93.5602 2.5842 94.6802 1.79487 96.0455 1.2402C97.4109 0.685537 98.9362 0.408203 100.622 0.408203C102.136 0.408203 103.448 0.653536 104.558 1.1442C105.667 1.61354 106.52 2.30687 107.118 3.2242C107.736 4.14154 108.046 5.21887 108.046 6.4562C108.046 7.18154 107.939 7.8962 107.726 8.6002C107.534 9.3042 107.171 10.0509 106.638 10.8402C106.126 11.6082 105.368 12.4829 104.366 13.4642L95.8215 21.8482L95.1815 20.9522H109.07V23.0002H93.3576Z" fill="#163C51"/>
<path opacity="0.7" d="M88.4079 23.1599C87.9386 23.1599 87.5333 22.9892 87.1919 22.6479C86.8719 22.3065 86.7119 21.8905 86.7119 21.3999C86.7119 20.8879 86.8719 20.4719 87.1919 20.1519C87.5333 19.8319 87.9386 19.6719 88.4079 19.6719C88.8772 19.6719 89.2719 19.8319 89.5919 20.1519C89.9333 20.4719 90.1039 20.8879 90.1039 21.3999C90.1039 21.8905 89.9333 22.3065 89.5919 22.6479C89.2719 22.9892 88.8772 23.1599 88.4079 23.1599Z" fill="#163C51"/>
<path opacity="0.7" d="M67.7638 23.0002V21.3682L77.0758 12.2482C77.9291 11.4162 78.5691 10.6909 78.9958 10.0722C79.4225 9.4322 79.7105 8.83487 79.8598 8.2802C80.0091 7.72554 80.0838 7.20287 80.0838 6.7122C80.0838 5.41087 79.6358 4.38687 78.7398 3.6402C77.8651 2.89354 76.5638 2.5202 74.8358 2.5202C73.5131 2.5202 72.3398 2.72287 71.3158 3.1282C70.3131 3.53354 69.4491 4.16287 68.7238 5.0162L67.0918 3.6082C67.9665 2.5842 69.0865 1.79487 70.4518 1.2402C71.8171 0.685537 73.3425 0.408203 75.0278 0.408203C76.5425 0.408203 77.8545 0.653536 78.9638 1.1442C80.0731 1.61354 80.9265 2.30687 81.5238 3.2242C82.1425 4.14154 82.4518 5.21887 82.4518 6.4562C82.4518 7.18154 82.3451 7.8962 82.1318 8.6002C81.9398 9.3042 81.5771 10.0509 81.0438 10.8402C80.5318 11.6082 79.7745 12.4829 78.7718 13.4642L70.2278 21.8482L69.5878 20.9522H83.4758V23.0002H67.7638Z" fill="#163C51"/>
<path opacity="0.7" d="M55.9202 23.1922C54.1922 23.1922 52.6562 22.7442 51.3122 21.8482C49.9682 20.9309 48.9122 19.6295 48.1442 17.9442C47.3762 16.2375 46.9922 14.1895 46.9922 11.8002C46.9922 9.41087 47.3762 7.37354 48.1442 5.6882C48.9122 3.98154 49.9682 2.6802 51.3122 1.7842C52.6562 0.86687 54.1922 0.408203 55.9202 0.408203C57.6482 0.408203 59.1842 0.86687 60.5282 1.7842C61.8722 2.6802 62.9282 3.98154 63.6962 5.6882C64.4855 7.37354 64.8802 9.41087 64.8802 11.8002C64.8802 14.1895 64.4855 16.2375 63.6962 17.9442C62.9282 19.6295 61.8722 20.9309 60.5282 21.8482C59.1842 22.7442 57.6482 23.1922 55.9202 23.1922ZM55.9202 21.0802C57.2429 21.0802 58.3949 20.7282 59.3762 20.0242C60.3575 19.2989 61.1255 18.2535 61.6802 16.8882C62.2349 15.5015 62.5122 13.8055 62.5122 11.8002C62.5122 9.79487 62.2349 8.10954 61.6802 6.7442C61.1255 5.35754 60.3575 4.3122 59.3762 3.6082C58.3949 2.88287 57.2429 2.5202 55.9202 2.5202C54.6402 2.5202 53.4989 2.88287 52.4962 3.6082C51.4935 4.3122 50.7149 5.35754 50.1602 6.7442C49.6055 8.10954 49.3282 9.79487 49.3282 11.8002C49.3282 13.8055 49.6055 15.5015 50.1602 16.8882C50.7149 18.2535 51.4935 19.2989 52.4962 20.0242C53.4989 20.7282 54.6402 21.0802 55.9202 21.0802Z" fill="#163C51"/>
<path opacity="0.7" d="M42.2829 23.1599C41.8136 23.1599 41.4082 22.9892 41.0669 22.6479C40.7469 22.3065 40.5869 21.8905 40.5869 21.3999C40.5869 20.8879 40.7469 20.4719 41.0669 20.1519C41.4082 19.8319 41.8136 19.6719 42.2829 19.6719C42.7522 19.6719 43.1469 19.8319 43.4669 20.1519C43.8082 20.4719 43.9789 20.8879 43.9789 21.3999C43.9789 21.8905 43.8082 22.3065 43.4669 22.6479C43.1469 22.9892 42.7522 23.1599 42.2829 23.1599Z" fill="#163C51"/>
<path opacity="0.7" d="M21.6388 23.0002V21.3682L30.9508 12.2482C31.8041 11.4162 32.4441 10.6909 32.8708 10.0722C33.2975 9.4322 33.5855 8.83487 33.7348 8.2802C33.8841 7.72554 33.9588 7.20287 33.9588 6.7122C33.9588 5.41087 33.5108 4.38687 32.6148 3.6402C31.7401 2.89354 30.4388 2.5202 28.7108 2.5202C27.3881 2.5202 26.2148 2.72287 25.1908 3.1282C24.1881 3.53354 23.3241 4.16287 22.5988 5.0162L20.9668 3.6082C21.8415 2.5842 22.9615 1.79487 24.3268 1.2402C25.6921 0.685537 27.2175 0.408203 28.9028 0.408203C30.4175 0.408203 31.7295 0.653536 32.8388 1.1442C33.9481 1.61354 34.8015 2.30687 35.3988 3.2242C36.0175 4.14154 36.3268 5.21887 36.3268 6.4562C36.3268 7.18154 36.2201 7.8962 36.0068 8.6002C35.8148 9.3042 35.4521 10.0509 34.9188 10.8402C34.4068 11.6082 33.6495 12.4829 32.6468 13.4642L24.1028 21.8482L23.4628 20.9522H37.3508V23.0002H21.6388Z" fill="#163C51"/>
<path opacity="0.7" d="M9.79519 23.1922C8.06719 23.1922 6.53119 22.7442 5.18719 21.8482C3.84319 20.9309 2.78719 19.6295 2.01919 17.9442C1.25119 16.2375 0.867188 14.1895 0.867188 11.8002C0.867188 9.41087 1.25119 7.37354 2.01919 5.6882C2.78719 3.98154 3.84319 2.6802 5.18719 1.7842C6.53119 0.86687 8.06719 0.408203 9.79519 0.408203C11.5232 0.408203 13.0592 0.86687 14.4032 1.7842C15.7472 2.6802 16.8032 3.98154 17.5712 5.6882C18.3605 7.37354 18.7552 9.41087 18.7552 11.8002C18.7552 14.1895 18.3605 16.2375 17.5712 17.9442C16.8032 19.6295 15.7472 20.9309 14.4032 21.8482C13.0592 22.7442 11.5232 23.1922 9.79519 23.1922ZM9.79519 21.0802C11.1179 21.0802 12.2699 20.7282 13.2512 20.0242C14.2325 19.2989 15.0005 18.2535 15.5552 16.8882C16.1099 15.5015 16.3872 13.8055 16.3872 11.8002C16.3872 9.79487 16.1099 8.10954 15.5552 6.7442C15.0005 5.35754 14.2325 4.3122 13.2512 3.6082C12.2699 2.88287 11.1179 2.5202 9.79519 2.5202C8.51519 2.5202 7.37385 2.88287 6.37119 3.6082C5.36852 4.3122 4.58985 5.35754 4.03519 6.7442C3.48052 8.10954 3.20319 9.79487 3.20319 11.8002C3.20319 13.8055 3.48052 15.5015 4.03519 16.8882C4.58985 18.2535 5.36852 19.2989 6.37119 20.0242C7.37385 20.7282 8.51519 21.0802 9.79519 21.0802Z" fill="#163C51"/>
</svg>
