<svg width="86" height="14" viewBox="0 0 86 14" fill="none" xmlns="http://www.w3.org/2000/svg">
<path d="M76.8847 12.9999V11.7759L82.0147 6.82586C82.4707 6.39386 82.8067 6.01586 83.0227 5.69186C83.2507 5.35586 83.4007 5.04986 83.4727 4.77386C83.5567 4.48586 83.5987 4.20986 83.5987 3.94586C83.5987 3.29786 83.3707 2.78786 82.9147 2.41586C82.4587 2.04386 81.7927 1.85786 80.9167 1.85786C80.2447 1.85786 79.6387 1.97186 79.0987 2.19986C78.5587 2.41586 78.0907 2.75786 77.6947 3.22586L76.4707 2.16386C76.9507 1.55186 77.5927 1.08386 78.3967 0.759859C79.2127 0.423859 80.1067 0.255859 81.0787 0.255859C81.9547 0.255859 82.7167 0.399859 83.3647 0.687859C84.0127 0.963859 84.5107 1.36586 84.8587 1.89386C85.2187 2.42186 85.3987 3.04586 85.3987 3.76586C85.3987 4.17386 85.3447 4.57586 85.2367 4.97186C85.1287 5.36786 84.9247 5.78786 84.6247 6.23186C84.3247 6.67586 83.8927 7.17386 83.3287 7.72586L78.7567 12.1359L78.3247 11.4339H85.9387V12.9999H76.8847Z" fill="#163C51"/>
<path d="M66.5488 12.9999V11.7759L71.6788 6.82586C72.1348 6.39386 72.4708 6.01586 72.6868 5.69186C72.9148 5.35586 73.0648 5.04986 73.1368 4.77386C73.2208 4.48586 73.2628 4.20986 73.2628 3.94586C73.2628 3.29786 73.0348 2.78786 72.5788 2.41586C72.1228 2.04386 71.4568 1.85786 70.5808 1.85786C69.9088 1.85786 69.3028 1.97186 68.7628 2.19986C68.2228 2.41586 67.7548 2.75786 67.3588 3.22586L66.1348 2.16386C66.6148 1.55186 67.2568 1.08386 68.0608 0.759859C68.8768 0.423859 69.7708 0.255859 70.7428 0.255859C71.6188 0.255859 72.3808 0.399859 73.0288 0.687859C73.6768 0.963859 74.1748 1.36586 74.5228 1.89386C74.8828 2.42186 75.0628 3.04586 75.0628 3.76586C75.0628 4.17386 75.0088 4.57586 74.9008 4.97186C74.7928 5.36786 74.5888 5.78786 74.2888 6.23186C73.9888 6.67586 73.5568 7.17386 72.9928 7.72586L68.4208 12.1359L67.9888 11.4339H75.6028V12.9999H66.5488Z" fill="#163C51"/>
<path d="M59.8882 13.1439C58.9042 13.1439 58.0222 12.8919 57.2422 12.3879C56.4742 11.8839 55.8622 11.1519 55.4062 10.1919C54.9622 9.23186 54.7402 8.06786 54.7402 6.69986C54.7402 5.33186 54.9622 4.16786 55.4062 3.20786C55.8622 2.24786 56.4742 1.51586 57.2422 1.01186C58.0222 0.507858 58.9042 0.255859 59.8882 0.255859C60.8602 0.255859 61.7362 0.507858 62.5162 1.01186C63.2962 1.51586 63.9082 2.24786 64.3522 3.20786C64.7962 4.16786 65.0182 5.33186 65.0182 6.69986C65.0182 8.06786 64.7962 9.23186 64.3522 10.1919C63.9082 11.1519 63.2962 11.8839 62.5162 12.3879C61.7362 12.8919 60.8602 13.1439 59.8882 13.1439ZM59.8882 11.5419C60.5482 11.5419 61.1242 11.3619 61.6162 11.0019C62.1202 10.6419 62.5102 10.1019 62.7862 9.38186C63.0742 8.66186 63.2182 7.76786 63.2182 6.69986C63.2182 5.63186 63.0742 4.73786 62.7862 4.01786C62.5102 3.29786 62.1202 2.75786 61.6162 2.39786C61.1242 2.03786 60.5482 1.85786 59.8882 1.85786C59.2282 1.85786 58.6462 2.03786 58.1422 2.39786C57.6382 2.75786 57.2422 3.29786 56.9542 4.01786C56.6782 4.73786 56.5402 5.63186 56.5402 6.69986C56.5402 7.76786 56.6782 8.66186 56.9542 9.38186C57.2422 10.1019 57.6382 10.6419 58.1422 11.0019C58.6462 11.3619 59.2282 11.5419 59.8882 11.5419Z" fill="#163C51"/>
<path d="M44.2245 12.9999V11.7759L49.3545 6.82586C49.8105 6.39386 50.1465 6.01586 50.3625 5.69186C50.5905 5.35586 50.7405 5.04986 50.8125 4.77386C50.8965 4.48586 50.9385 4.20986 50.9385 3.94586C50.9385 3.29786 50.7105 2.78786 50.2545 2.41586C49.7985 2.04386 49.1326 1.85786 48.2565 1.85786C47.5845 1.85786 46.9785 1.97186 46.4385 2.19986C45.8985 2.41586 45.4305 2.75786 45.0345 3.22586L43.8105 2.16386C44.2905 1.55186 44.9325 1.08386 45.7365 0.759859C46.5525 0.423859 47.4465 0.255859 48.4185 0.255859C49.2945 0.255859 50.0565 0.399859 50.7045 0.687859C51.3525 0.963859 51.8505 1.36586 52.1985 1.89386C52.5585 2.42186 52.7385 3.04586 52.7385 3.76586C52.7385 4.17386 52.6845 4.57586 52.5765 4.97186C52.4685 5.36786 52.2645 5.78786 51.9645 6.23186C51.6645 6.67586 51.2325 7.17386 50.6685 7.72586L46.0965 12.1359L45.6645 11.4339H53.2785V12.9999H44.2245Z" fill="#163C51"/>
<path d="M41.3568 13.1086C41.0208 13.1086 40.7328 12.9946 40.4928 12.7666C40.2528 12.5266 40.1328 12.2266 40.1328 11.8666C40.1328 11.5066 40.2528 11.2126 40.4928 10.9846C40.7328 10.7566 41.0208 10.6426 41.3568 10.6426C41.6808 10.6426 41.9568 10.7566 42.1848 10.9846C42.4248 11.2126 42.5448 11.5066 42.5448 11.8666C42.5448 12.2266 42.4248 12.5266 42.1848 12.7666C41.9568 12.9946 41.6808 13.1086 41.3568 13.1086Z" fill="#163C51"/>
<path d="M35.6292 13.0004V1.12039L36.4032 1.96639H32.7852V0.400391H37.4112V13.0004H35.6292Z" fill="#163C51"/>
<path d="M28.967 13.0004V1.12039L29.741 1.96639H26.123V0.400391H30.749V13.0004H28.967Z" fill="#163C51"/>
<path d="M24.183 13.1086C23.847 13.1086 23.559 12.9946 23.319 12.7666C23.079 12.5266 22.959 12.2266 22.959 11.8666C22.959 11.5066 23.079 11.2126 23.319 10.9846C23.559 10.7566 23.847 10.6426 24.183 10.6426C24.507 10.6426 24.783 10.7566 25.011 10.9846C25.251 11.2126 25.371 11.5066 25.371 11.8666C25.371 12.2266 25.251 12.5266 25.011 12.7666C24.783 12.9946 24.507 13.1086 24.183 13.1086Z" fill="#163C51"/>
<path d="M16.5459 13.1444C15.6579 13.1444 14.7939 13.0064 13.9539 12.7304C13.1259 12.4544 12.4479 12.0824 11.9199 11.6144L12.7479 10.1924C13.1679 10.5884 13.7139 10.9124 14.3859 11.1644C15.0579 11.4164 15.7779 11.5424 16.5459 11.5424C17.4819 11.5424 18.2079 11.3444 18.7239 10.9484C19.2519 10.5404 19.5159 9.99439 19.5159 9.31039C19.5159 8.65039 19.2639 8.12239 18.7599 7.72639C18.2679 7.31839 17.4819 7.11439 16.4019 7.11439H15.3939V5.85439L19.1379 1.24639L19.3899 1.96639H12.4959V0.400391H20.8119V1.62439L17.0859 6.21439L16.1499 5.65639H16.7439C18.2679 5.65639 19.4079 5.99839 20.1639 6.68239C20.9319 7.36639 21.3159 8.23639 21.3159 9.29239C21.3159 10.0004 21.1419 10.6484 20.7939 11.2364C20.4459 11.8244 19.9179 12.2924 19.2099 12.6404C18.5139 12.9764 17.6259 13.1444 16.5459 13.1444Z" fill="#163C51"/>
<path d="M6.01128 13.1439C5.02728 13.1439 4.14528 12.8919 3.36528 12.3879C2.59728 11.8839 1.98528 11.1519 1.52928 10.1919C1.08528 9.23186 0.863281 8.06786 0.863281 6.69986C0.863281 5.33186 1.08528 4.16786 1.52928 3.20786C1.98528 2.24786 2.59728 1.51586 3.36528 1.01186C4.14528 0.507858 5.02728 0.255859 6.01128 0.255859C6.98328 0.255859 7.85928 0.507858 8.63928 1.01186C9.41928 1.51586 10.0313 2.24786 10.4753 3.20786C10.9193 4.16786 11.1413 5.33186 11.1413 6.69986C11.1413 8.06786 10.9193 9.23186 10.4753 10.1919C10.0313 11.1519 9.41928 11.8839 8.63928 12.3879C7.85928 12.8919 6.98328 13.1439 6.01128 13.1439ZM6.01128 11.5419C6.67128 11.5419 7.24728 11.3619 7.73928 11.0019C8.24328 10.6419 8.63328 10.1019 8.90928 9.38186C9.19728 8.66186 9.34128 7.76786 9.34128 6.69986C9.34128 5.63186 9.19728 4.73786 8.90928 4.01786C8.63328 3.29786 8.24328 2.75786 7.73928 2.39786C7.24728 2.03786 6.67128 1.85786 6.01128 1.85786C5.35128 1.85786 4.76928 2.03786 4.26528 2.39786C3.76128 2.75786 3.36528 3.29786 3.07728 4.01786C2.80128 4.73786 2.66328 5.63186 2.66328 6.69986C2.66328 7.76786 2.80128 8.66186 3.07728 9.38186C3.36528 10.1019 3.76128 10.6419 4.26528 11.0019C4.76928 11.3619 5.35128 11.5419 6.01128 11.5419Z" fill="#163C51"/>
</svg>
