<svg width="89" height="14" viewBox="0 0 89 14" fill="none" xmlns="http://www.w3.org/2000/svg">
<path d="M79.1523 12.9999V11.7759L84.2823 6.82586C84.7383 6.39386 85.0743 6.01586 85.2903 5.69186C85.5183 5.35586 85.6683 5.04986 85.7403 4.77386C85.8243 4.48586 85.8663 4.20986 85.8663 3.94586C85.8663 3.29786 85.6383 2.78786 85.1823 2.41586C84.7263 2.04386 84.0603 1.85786 83.1843 1.85786C82.5123 1.85786 81.9063 1.97186 81.3663 2.19986C80.8263 2.41586 80.3583 2.75786 79.9623 3.22586L78.7383 2.16386C79.2183 1.55186 79.8603 1.08386 80.6643 0.759859C81.4803 0.423859 82.3743 0.255859 83.3463 0.255859C84.2223 0.255859 84.9843 0.399859 85.6323 0.687859C86.2803 0.963859 86.7783 1.36586 87.1263 1.89386C87.4863 2.42186 87.6663 3.04586 87.6663 3.76586C87.6663 4.17386 87.6123 4.57586 87.5043 4.97186C87.3963 5.36786 87.1923 5.78786 86.8923 6.23186C86.5923 6.67586 86.1603 7.17386 85.5963 7.72586L81.0243 12.1359L80.5923 11.4339H88.2063V12.9999H79.1523Z" fill="#163C51"/>
<path d="M68.8163 12.9999V11.7759L73.9463 6.82586C74.4023 6.39386 74.7383 6.01586 74.9543 5.69186C75.1823 5.35586 75.3323 5.04986 75.4043 4.77386C75.4883 4.48586 75.5303 4.20986 75.5303 3.94586C75.5303 3.29786 75.3023 2.78786 74.8463 2.41586C74.3903 2.04386 73.7243 1.85786 72.8483 1.85786C72.1763 1.85786 71.5703 1.97186 71.0303 2.19986C70.4903 2.41586 70.0223 2.75786 69.6263 3.22586L68.4023 2.16386C68.8823 1.55186 69.5243 1.08386 70.3283 0.759859C71.1443 0.423859 72.0383 0.255859 73.0103 0.255859C73.8863 0.255859 74.6483 0.399859 75.2963 0.687859C75.9443 0.963859 76.4423 1.36586 76.7903 1.89386C77.1503 2.42186 77.3303 3.04586 77.3303 3.76586C77.3303 4.17386 77.2763 4.57586 77.1683 4.97186C77.0603 5.36786 76.8563 5.78786 76.5563 6.23186C76.2563 6.67586 75.8243 7.17386 75.2603 7.72586L70.6883 12.1359L70.2563 11.4339H77.8703V12.9999H68.8163Z" fill="#163C51"/>
<path d="M62.1558 13.1439C61.1718 13.1439 60.2898 12.8919 59.5098 12.3879C58.7418 11.8839 58.1298 11.1519 57.6738 10.1919C57.2298 9.23186 57.0078 8.06786 57.0078 6.69986C57.0078 5.33186 57.2298 4.16786 57.6738 3.20786C58.1298 2.24786 58.7418 1.51586 59.5098 1.01186C60.2898 0.507858 61.1718 0.255859 62.1558 0.255859C63.1278 0.255859 64.0038 0.507858 64.7838 1.01186C65.5638 1.51586 66.1758 2.24786 66.6198 3.20786C67.0638 4.16786 67.2858 5.33186 67.2858 6.69986C67.2858 8.06786 67.0638 9.23186 66.6198 10.1919C66.1758 11.1519 65.5638 11.8839 64.7838 12.3879C64.0038 12.8919 63.1278 13.1439 62.1558 13.1439ZM62.1558 11.5419C62.8158 11.5419 63.3918 11.3619 63.8838 11.0019C64.3878 10.6419 64.7778 10.1019 65.0538 9.38186C65.3418 8.66186 65.4858 7.76786 65.4858 6.69986C65.4858 5.63186 65.3418 4.73786 65.0538 4.01786C64.7778 3.29786 64.3878 2.75786 63.8838 2.39786C63.3918 2.03786 62.8158 1.85786 62.1558 1.85786C61.4958 1.85786 60.9138 2.03786 60.4098 2.39786C59.9058 2.75786 59.5098 3.29786 59.2218 4.01786C58.9458 4.73786 58.8078 5.63186 58.8078 6.69986C58.8078 7.76786 58.9458 8.66186 59.2218 9.38186C59.5098 10.1019 59.9058 10.6419 60.4098 11.0019C60.9138 11.3619 61.4958 11.5419 62.1558 11.5419Z" fill="#163C51"/>
<path d="M46.4921 12.9999V11.7759L51.6221 6.82586C52.0781 6.39386 52.4141 6.01586 52.6301 5.69186C52.8581 5.35586 53.0081 5.04986 53.0801 4.77386C53.1641 4.48586 53.2061 4.20986 53.2061 3.94586C53.2061 3.29786 52.9781 2.78786 52.5221 2.41586C52.0661 2.04386 51.4001 1.85786 50.5241 1.85786C49.8521 1.85786 49.2461 1.97186 48.7061 2.19986C48.1661 2.41586 47.6981 2.75786 47.3021 3.22586L46.0781 2.16386C46.5581 1.55186 47.2001 1.08386 48.0041 0.759859C48.8201 0.423859 49.7141 0.255859 50.6861 0.255859C51.5621 0.255859 52.3241 0.399859 52.9721 0.687859C53.6201 0.963859 54.1181 1.36586 54.4661 1.89386C54.8261 2.42186 55.0061 3.04586 55.0061 3.76586C55.0061 4.17386 54.9521 4.57586 54.8441 4.97186C54.7361 5.36786 54.5321 5.78786 54.2321 6.23186C53.9321 6.67586 53.5001 7.17386 52.9361 7.72586L48.3641 12.1359L47.9321 11.4339H55.5461V12.9999H46.4921Z" fill="#163C51"/>
<path d="M43.6244 13.1086C43.2884 13.1086 43.0004 12.9946 42.7604 12.7666C42.5204 12.5266 42.4004 12.2266 42.4004 11.8666C42.4004 11.5066 42.5204 11.2126 42.7604 10.9846C43.0004 10.7566 43.2884 10.6426 43.6244 10.6426C43.9484 10.6426 44.2244 10.7566 44.4524 10.9846C44.6924 11.2126 44.8124 11.5066 44.8124 11.8666C44.8124 12.2266 44.6924 12.5266 44.4524 12.7666C44.2244 12.9946 43.9484 13.1086 43.6244 13.1086Z" fill="#163C51"/>
<path d="M37.8967 13.0004V1.12039L38.6707 1.96639H35.0527V0.400391H39.6787V13.0004H37.8967Z" fill="#163C51"/>
<path d="M31.2346 13.0004V1.12039L32.0086 1.96639H28.3906V0.400391H33.0166V13.0004H31.2346Z" fill="#163C51"/>
<path d="M26.4506 13.1086C26.1146 13.1086 25.8266 12.9946 25.5866 12.7666C25.3466 12.5266 25.2266 12.2266 25.2266 11.8666C25.2266 11.5066 25.3466 11.2126 25.5866 10.9846C25.8266 10.7566 26.1146 10.6426 26.4506 10.6426C26.7746 10.6426 27.0506 10.7566 27.2786 10.9846C27.5186 11.2126 27.6386 11.5066 27.6386 11.8666C27.6386 12.2266 27.5186 12.5266 27.2786 12.7666C27.0506 12.9946 26.7746 13.1086 26.4506 13.1086Z" fill="#163C51"/>
<path d="M12.6895 9.90439V8.64439L19.1335 0.400391H21.0775L14.6875 8.64439L13.7695 8.35639H23.8315V9.90439H12.6895ZM19.6915 13.0004V9.90439L19.7455 8.35639V5.62039H21.4375V13.0004H19.6915Z" fill="#163C51"/>
<path d="M6.01128 13.1439C5.02728 13.1439 4.14528 12.8919 3.36528 12.3879C2.59728 11.8839 1.98528 11.1519 1.52928 10.1919C1.08528 9.23186 0.863281 8.06786 0.863281 6.69986C0.863281 5.33186 1.08528 4.16786 1.52928 3.20786C1.98528 2.24786 2.59728 1.51586 3.36528 1.01186C4.14528 0.507858 5.02728 0.255859 6.01128 0.255859C6.98328 0.255859 7.85928 0.507858 8.63928 1.01186C9.41928 1.51586 10.0313 2.24786 10.4753 3.20786C10.9193 4.16786 11.1413 5.33186 11.1413 6.69986C11.1413 8.06786 10.9193 9.23186 10.4753 10.1919C10.0313 11.1519 9.41928 11.8839 8.63928 12.3879C7.85928 12.8919 6.98328 13.1439 6.01128 13.1439ZM6.01128 11.5419C6.67128 11.5419 7.24728 11.3619 7.73928 11.0019C8.24328 10.6419 8.63328 10.1019 8.90928 9.38186C9.19728 8.66186 9.34128 7.76786 9.34128 6.69986C9.34128 5.63186 9.19728 4.73786 8.90928 4.01786C8.63328 3.29786 8.24328 2.75786 7.73928 2.39786C7.24728 2.03786 6.67128 1.85786 6.01128 1.85786C5.35128 1.85786 4.76928 2.03786 4.26528 2.39786C3.76128 2.75786 3.36528 3.29786 3.07728 4.01786C2.80128 4.73786 2.66328 5.63186 2.66328 6.69986C2.66328 7.76786 2.80128 8.66186 3.07728 9.38186C3.36528 10.1019 3.76128 10.6419 4.26528 11.0019C4.76928 11.3619 5.35128 11.5419 6.01128 11.5419Z" fill="#163C51"/>
</svg>
