<svg width="321" height="20" viewBox="0 0 321 20" fill="none" xmlns="http://www.w3.org/2000/svg">
<path opacity="0.8" d="M315.083 16.16C314.097 16.16 313.137 16.0067 312.203 15.7C311.283 15.3933 310.53 14.98 309.943 14.46L310.863 12.88C311.33 13.32 311.937 13.68 312.683 13.96C313.43 14.24 314.23 14.38 315.083 14.38C316.123 14.38 316.93 14.16 317.503 13.72C318.09 13.2667 318.383 12.66 318.383 11.9C318.383 11.1667 318.103 10.58 317.543 10.14C316.997 9.68667 316.123 9.46 314.923 9.46H313.803V8.06L317.963 2.94L318.243 3.74H310.583V2H319.823V3.36L315.683 8.46L314.643 7.84H315.303C316.997 7.84 318.263 8.22 319.103 8.98C319.957 9.74 320.383 10.7067 320.383 11.88C320.383 12.6667 320.19 13.3867 319.803 14.04C319.417 14.6933 318.83 15.2133 318.043 15.6C317.27 15.9733 316.283 16.16 315.083 16.16Z" fill="#163C51"/>
<path opacity="0.8" d="M299.1 15.9998V14.6398L304.8 9.13984C305.306 8.65984 305.68 8.23984 305.92 7.87984C306.173 7.50651 306.34 7.16651 306.42 6.85984C306.513 6.53984 306.56 6.23318 306.56 5.93984C306.56 5.21984 306.306 4.65318 305.8 4.23984C305.293 3.82651 304.553 3.61984 303.58 3.61984C302.833 3.61984 302.16 3.74651 301.56 3.99984C300.96 4.23984 300.44 4.61984 300 5.13984L298.64 3.95984C299.173 3.27984 299.886 2.75984 300.78 2.39984C301.686 2.02651 302.68 1.83984 303.76 1.83984C304.733 1.83984 305.58 1.99984 306.3 2.31984C307.02 2.62651 307.573 3.07318 307.96 3.65984C308.36 4.24651 308.56 4.93984 308.56 5.73984C308.56 6.19318 308.5 6.63984 308.38 7.07984C308.26 7.51984 308.033 7.98651 307.7 8.47984C307.366 8.97318 306.886 9.52651 306.26 10.1398L301.18 15.0398L300.7 14.2598H309.16V15.9998H299.1Z" fill="#163C51"/>
<path opacity="0.8" d="M291.699 16.1598C290.606 16.1598 289.626 15.8798 288.759 15.3198C287.906 14.7598 287.226 13.9465 286.72 12.8798C286.226 11.8132 285.979 10.5198 285.979 8.99984C285.979 7.47984 286.226 6.18651 286.72 5.11984C287.226 4.05318 287.906 3.23984 288.759 2.67984C289.626 2.11984 290.606 1.83984 291.699 1.83984C292.779 1.83984 293.753 2.11984 294.62 2.67984C295.486 3.23984 296.166 4.05318 296.66 5.11984C297.153 6.18651 297.4 7.47984 297.4 8.99984C297.4 10.5198 297.153 11.8132 296.66 12.8798C296.166 13.9465 295.486 14.7598 294.62 15.3198C293.753 15.8798 292.779 16.1598 291.699 16.1598ZM291.699 14.3798C292.433 14.3798 293.073 14.1798 293.62 13.7798C294.18 13.3798 294.613 12.7798 294.919 11.9798C295.239 11.1798 295.4 10.1865 295.4 8.99984C295.4 7.81318 295.239 6.81984 294.919 6.01984C294.613 5.21984 294.18 4.61984 293.62 4.21984C293.073 3.81984 292.433 3.61984 291.699 3.61984C290.966 3.61984 290.319 3.81984 289.759 4.21984C289.199 4.61984 288.76 5.21984 288.44 6.01984C288.133 6.81984 287.979 7.81318 287.979 8.99984C287.979 10.1865 288.133 11.1798 288.44 11.9798C288.76 12.7798 289.199 13.3798 289.759 13.7798C290.319 14.1798 290.966 14.3798 291.699 14.3798Z" fill="#163C51"/>
<path opacity="0.8" d="M274.295 15.9998V14.6398L279.995 9.13984C280.502 8.65984 280.875 8.23984 281.115 7.87984C281.368 7.50651 281.535 7.16651 281.615 6.85984C281.708 6.53984 281.755 6.23318 281.755 5.93984C281.755 5.21984 281.502 4.65318 280.995 4.23984C280.488 3.82651 279.748 3.61984 278.775 3.61984C278.028 3.61984 277.355 3.74651 276.755 3.99984C276.155 4.23984 275.635 4.61984 275.195 5.13984L273.835 3.95984C274.368 3.27984 275.082 2.75984 275.975 2.39984C276.882 2.02651 277.875 1.83984 278.955 1.83984C279.928 1.83984 280.775 1.99984 281.495 2.31984C282.215 2.62651 282.768 3.07318 283.155 3.65984C283.555 4.24651 283.755 4.93984 283.755 5.73984C283.755 6.19318 283.695 6.63984 283.575 7.07984C283.455 7.51984 283.228 7.98651 282.895 8.47984C282.562 8.97318 282.082 9.52651 281.455 10.1398L276.375 15.0398L275.895 14.2598H284.355V15.9998H274.295Z" fill="#163C51"/>
<path opacity="0.8" d="M264.577 16.0004V12.2804L264.877 12.6404H261.497C260.084 12.6404 258.977 12.3404 258.177 11.7404C257.391 11.1404 256.997 10.2671 256.997 9.12039C256.997 7.89372 257.417 6.96706 258.257 6.34039C259.111 5.71372 260.244 5.40039 261.657 5.40039H266.297V16.0004H264.577ZM256.897 16.0004L259.777 11.9404H261.757L258.957 16.0004H256.897ZM264.577 11.6804V6.54039L264.877 7.08039H261.717C260.837 7.08039 260.157 7.24706 259.677 7.58039C259.197 7.90039 258.957 8.43372 258.957 9.18039C258.957 10.5671 259.851 11.2604 261.637 11.2604H264.877L264.577 11.6804Z" fill="#163C51"/>
<path opacity="0.8" d="M250 16.1208C249.12 16.1208 248.313 15.9208 247.58 15.5208C246.86 15.1074 246.28 14.5008 245.84 13.7008C245.413 12.9008 245.2 11.9008 245.2 10.7008C245.2 9.50078 245.407 8.50078 245.82 7.70078C246.247 6.90078 246.82 6.30078 247.54 5.90078C248.273 5.50078 249.093 5.30078 250 5.30078C251.04 5.30078 251.96 5.52745 252.76 5.98078C253.56 6.43412 254.193 7.06745 254.66 7.88078C255.127 8.68078 255.36 9.62078 255.36 10.7008C255.36 11.7808 255.127 12.7274 254.66 13.5408C254.193 14.3541 253.56 14.9874 252.76 15.4408C251.96 15.8941 251.04 16.1208 250 16.1208ZM244.38 19.8808V5.40078H246.22V8.26078L246.1 10.7208L246.3 13.1808V19.8808H244.38ZM249.84 14.4408C250.52 14.4408 251.127 14.2874 251.66 13.9808C252.207 13.6741 252.633 13.2408 252.94 12.6808C253.26 12.1074 253.42 11.4474 253.42 10.7008C253.42 9.94078 253.26 9.28745 252.94 8.74078C252.633 8.18078 252.207 7.74745 251.66 7.44078C251.127 7.13411 250.52 6.98078 249.84 6.98078C249.173 6.98078 248.567 7.13411 248.02 7.44078C247.487 7.74745 247.06 8.18078 246.74 8.74078C246.433 9.28745 246.28 9.94078 246.28 10.7008C246.28 11.4474 246.433 12.1074 246.74 12.6808C247.06 13.2408 247.487 13.6741 248.02 13.9808C248.567 14.2874 249.173 14.4408 249.84 14.4408Z" fill="#163C51"/>
<path opacity="0.8" d="M236.038 16.1598C235.158 16.1598 234.378 16.0198 233.698 15.7398C233.031 15.4598 232.458 15.0465 231.978 14.4998C231.498 13.9398 231.131 13.2398 230.878 12.3998C230.638 11.5465 230.518 10.5465 230.518 9.39984C230.518 8.49318 230.598 7.67984 230.758 6.95984C230.918 6.23984 231.144 5.59984 231.438 5.03984C231.744 4.47984 232.118 3.99318 232.558 3.57984C233.011 3.16651 233.518 2.82651 234.078 2.55984C234.651 2.27984 235.278 2.06651 235.958 1.91984L240.798 0.839844L241.078 2.61984L236.618 3.57984C236.351 3.63318 236.031 3.71318 235.658 3.81984C235.284 3.92651 234.904 4.09318 234.518 4.31984C234.131 4.53318 233.771 4.83318 233.438 5.21984C233.104 5.60651 232.838 6.11318 232.638 6.73984C232.438 7.35318 232.338 8.11318 232.338 9.01984C232.338 9.27318 232.344 9.46651 232.358 9.59984C232.371 9.73318 232.384 9.86651 232.398 9.99984C232.424 10.1332 232.444 10.3332 232.458 10.5998L231.658 9.77984C231.871 9.04651 232.211 8.40651 232.678 7.85984C233.144 7.31318 233.704 6.89318 234.358 6.59984C235.024 6.29318 235.751 6.13984 236.538 6.13984C237.524 6.13984 238.398 6.35318 239.158 6.77984C239.931 7.20651 240.538 7.79318 240.978 8.53984C241.418 9.28651 241.638 10.1398 241.638 11.0998C241.638 12.0732 241.404 12.9465 240.938 13.7198C240.484 14.4798 239.838 15.0798 238.998 15.5198C238.158 15.9465 237.171 16.1598 236.038 16.1598ZM236.218 14.5598C236.898 14.5598 237.498 14.4132 238.018 14.1198C238.538 13.8132 238.944 13.4065 239.238 12.8998C239.531 12.3798 239.678 11.7998 239.678 11.1598C239.678 10.5198 239.531 9.95318 239.238 9.45984C238.944 8.96651 238.538 8.57984 238.018 8.29984C237.498 8.00651 236.884 7.85984 236.178 7.85984C235.511 7.85984 234.911 7.99984 234.378 8.27984C233.844 8.54651 233.431 8.92651 233.138 9.41984C232.844 9.89984 232.698 10.4598 232.698 11.0998C232.698 11.7398 232.844 12.3265 233.138 12.8598C233.444 13.3798 233.858 13.7932 234.378 14.0998C234.911 14.4065 235.524 14.5598 236.218 14.5598Z" fill="#163C51"/>
<path opacity="0.8" d="M225.671 16.0004V12.2804L225.971 12.6404H222.591C221.178 12.6404 220.071 12.3404 219.271 11.7404C218.485 11.1404 218.091 10.2671 218.091 9.12039C218.091 7.89372 218.511 6.96706 219.351 6.34039C220.205 5.71372 221.338 5.40039 222.751 5.40039H227.391V16.0004H225.671ZM217.991 16.0004L220.871 11.9404H222.851L220.051 16.0004H217.991ZM225.671 11.6804V6.54039L225.971 7.08039H222.811C221.931 7.08039 221.251 7.24706 220.771 7.58039C220.291 7.90039 220.051 8.43372 220.051 9.18039C220.051 10.5671 220.945 11.2604 222.731 11.2604H225.971L225.671 11.6804Z" fill="#163C51"/>
<path opacity="0.8" d="M210.97 16.1208C209.904 16.1208 208.957 15.8874 208.13 15.4208C207.304 14.9541 206.65 14.3141 206.17 13.5008C205.69 12.6741 205.45 11.7408 205.45 10.7008C205.45 9.64745 205.69 8.71412 206.17 7.90078C206.65 7.08745 207.304 6.45412 208.13 6.00078C208.957 5.53411 209.904 5.30078 210.97 5.30078C212.024 5.30078 212.964 5.53411 213.79 6.00078C214.63 6.45412 215.284 7.08745 215.75 7.90078C216.23 8.70078 216.47 9.63411 216.47 10.7008C216.47 11.7541 216.23 12.6874 215.75 13.5008C215.284 14.3141 214.63 14.9541 213.79 15.4208C212.964 15.8874 212.024 16.1208 210.97 16.1208ZM210.97 14.4408C211.65 14.4408 212.257 14.2874 212.79 13.9808C213.337 13.6741 213.764 13.2408 214.07 12.6808C214.377 12.1074 214.53 11.4474 214.53 10.7008C214.53 9.94078 214.377 9.28745 214.07 8.74078C213.764 8.18078 213.337 7.74745 212.79 7.44078C212.257 7.13411 211.65 6.98078 210.97 6.98078C210.29 6.98078 209.684 7.13411 209.15 7.44078C208.617 7.74745 208.19 8.18078 207.87 8.74078C207.55 9.28745 207.39 9.94078 207.39 10.7008C207.39 11.4474 207.55 12.1074 207.87 12.6808C208.19 13.2408 208.617 13.6741 209.15 13.9808C209.684 14.2874 210.29 14.4408 210.97 14.4408Z" fill="#163C51"/>
<path opacity="0.8" d="M192.817 16.0004V5.40039H194.737V9.90039H200.777V5.40039H202.697V16.0004H200.777V11.5604H194.737V16.0004H192.817Z" fill="#163C51"/>
<path opacity="0.8" d="M178.926 16.1598C177.833 16.1598 176.853 15.8798 175.986 15.3198C175.133 14.7598 174.453 13.9465 173.946 12.8798C173.453 11.8132 173.206 10.5198 173.206 8.99984C173.206 7.47984 173.453 6.18651 173.946 5.11984C174.453 4.05318 175.133 3.23984 175.986 2.67984C176.853 2.11984 177.833 1.83984 178.926 1.83984C180.006 1.83984 180.979 2.11984 181.846 2.67984C182.713 3.23984 183.393 4.05318 183.886 5.11984C184.379 6.18651 184.626 7.47984 184.626 8.99984C184.626 10.5198 184.379 11.8132 183.886 12.8798C183.393 13.9465 182.713 14.7598 181.846 15.3198C180.979 15.8798 180.006 16.1598 178.926 16.1598ZM178.926 14.3798C179.659 14.3798 180.299 14.1798 180.846 13.7798C181.406 13.3798 181.839 12.7798 182.146 11.9798C182.466 11.1798 182.626 10.1865 182.626 8.99984C182.626 7.81318 182.466 6.81984 182.146 6.01984C181.839 5.21984 181.406 4.61984 180.846 4.21984C180.299 3.81984 179.659 3.61984 178.926 3.61984C178.193 3.61984 177.546 3.81984 176.986 4.21984C176.426 4.61984 175.986 5.21984 175.666 6.01984C175.359 6.81984 175.206 7.81318 175.206 8.99984C175.206 10.1865 175.359 11.1798 175.666 11.9798C175.986 12.7798 176.426 13.3798 176.986 13.7798C177.546 14.1798 178.193 14.3798 178.926 14.3798Z" fill="#163C51"/>
<path opacity="0.8" d="M166.04 16.16C165.054 16.16 164.094 16.0067 163.16 15.7C162.24 15.3933 161.487 14.98 160.9 14.46L161.82 12.88C162.287 13.32 162.894 13.68 163.64 13.96C164.387 14.24 165.187 14.38 166.04 14.38C167.08 14.38 167.887 14.16 168.46 13.72C169.047 13.2667 169.34 12.66 169.34 11.9C169.34 11.1667 169.06 10.58 168.5 10.14C167.954 9.68667 167.08 9.46 165.88 9.46H164.76V8.06L168.92 2.94L169.2 3.74H161.54V2H170.78V3.36L166.64 8.46L165.6 7.84H166.26C167.954 7.84 169.22 8.22 170.06 8.98C170.914 9.74 171.34 10.7067 171.34 11.88C171.34 12.6667 171.147 13.3867 170.76 14.04C170.374 14.6933 169.787 15.2133 169 15.6C168.227 15.9733 167.24 16.16 166.04 16.16Z" fill="#163C51"/>
<path opacity="0.8" d="M148.914 11.3397V9.67969H154.294V11.3397H148.914Z" fill="#163C51"/>
<path opacity="0.8" d="M136.197 16.16C135.21 16.16 134.25 16.0067 133.317 15.7C132.397 15.3933 131.643 14.98 131.057 14.46L131.977 12.88C132.443 13.32 133.05 13.68 133.797 13.96C134.543 14.24 135.343 14.38 136.197 14.38C137.237 14.38 138.043 14.16 138.617 13.72C139.203 13.2667 139.497 12.66 139.497 11.9C139.497 11.1667 139.217 10.58 138.657 10.14C138.11 9.68667 137.237 9.46 136.037 9.46H134.917V8.06L139.077 2.94L139.357 3.74H131.697V2H140.937V3.36L136.797 8.46L135.757 7.84H136.417C138.11 7.84 139.377 8.22 140.217 8.98C141.07 9.74 141.497 10.7067 141.497 11.88C141.497 12.6667 141.303 13.3867 140.917 14.04C140.53 14.6933 139.943 15.2133 139.157 15.6C138.383 15.9733 137.397 16.16 136.197 16.16Z" fill="#163C51"/>
<path opacity="0.8" d="M120.213 15.9998V14.6398L125.913 9.13984C126.42 8.65984 126.793 8.23984 127.033 7.87984C127.286 7.50651 127.453 7.16651 127.533 6.85984C127.626 6.53984 127.673 6.23318 127.673 5.93984C127.673 5.21984 127.42 4.65318 126.913 4.23984C126.406 3.82651 125.666 3.61984 124.693 3.61984C123.946 3.61984 123.273 3.74651 122.673 3.99984C122.073 4.23984 121.553 4.61984 121.113 5.13984L119.753 3.95984C120.286 3.27984 121 2.75984 121.893 2.39984C122.8 2.02651 123.793 1.83984 124.873 1.83984C125.846 1.83984 126.693 1.99984 127.413 2.31984C128.133 2.62651 128.686 3.07318 129.073 3.65984C129.473 4.24651 129.673 4.93984 129.673 5.73984C129.673 6.19318 129.613 6.63984 129.493 7.07984C129.373 7.51984 129.146 7.98651 128.813 8.47984C128.48 8.97318 128 9.52651 127.373 10.1398L122.293 15.0398L121.813 14.2598H130.273V15.9998H120.213Z" fill="#163C51"/>
<path opacity="0.8" d="M112.813 16.1598C111.719 16.1598 110.739 15.8798 109.873 15.3198C109.019 14.7598 108.339 13.9465 107.833 12.8798C107.339 11.8132 107.093 10.5198 107.093 8.99984C107.093 7.47984 107.339 6.18651 107.833 5.11984C108.339 4.05318 109.019 3.23984 109.873 2.67984C110.739 2.11984 111.719 1.83984 112.813 1.83984C113.893 1.83984 114.866 2.11984 115.733 2.67984C116.599 3.23984 117.279 4.05318 117.773 5.11984C118.266 6.18651 118.513 7.47984 118.513 8.99984C118.513 10.5198 118.266 11.8132 117.773 12.8798C117.279 13.9465 116.599 14.7598 115.733 15.3198C114.866 15.8798 113.893 16.1598 112.813 16.1598ZM112.813 14.3798C113.546 14.3798 114.186 14.1798 114.733 13.7798C115.293 13.3798 115.726 12.7798 116.033 11.9798C116.353 11.1798 116.513 10.1865 116.513 8.99984C116.513 7.81318 116.353 6.81984 116.033 6.01984C115.726 5.21984 115.293 4.61984 114.733 4.21984C114.186 3.81984 113.546 3.61984 112.813 3.61984C112.079 3.61984 111.433 3.81984 110.873 4.21984C110.313 4.61984 109.873 5.21984 109.553 6.01984C109.246 6.81984 109.093 7.81318 109.093 8.99984C109.093 10.1865 109.246 11.1798 109.553 11.9798C109.873 12.7798 110.313 13.3798 110.873 13.7798C111.433 14.1798 112.079 14.3798 112.813 14.3798Z" fill="#163C51"/>
<path opacity="0.8" d="M95.4082 15.9998V14.6398L101.108 9.13984C101.615 8.65984 101.988 8.23984 102.228 7.87984C102.482 7.50651 102.648 7.16651 102.728 6.85984C102.822 6.53984 102.868 6.23318 102.868 5.93984C102.868 5.21984 102.615 4.65318 102.108 4.23984C101.602 3.82651 100.862 3.61984 99.8882 3.61984C99.1416 3.61984 98.4682 3.74651 97.8682 3.99984C97.2682 4.23984 96.7482 4.61984 96.3082 5.13984L94.9482 3.95984C95.4816 3.27984 96.1949 2.75984 97.0882 2.39984C97.9949 2.02651 98.9882 1.83984 100.068 1.83984C101.042 1.83984 101.888 1.99984 102.608 2.31984C103.328 2.62651 103.882 3.07318 104.268 3.65984C104.668 4.24651 104.868 4.93984 104.868 5.73984C104.868 6.19318 104.808 6.63984 104.688 7.07984C104.568 7.51984 104.342 7.98651 104.008 8.47984C103.675 8.97318 103.195 9.52651 102.568 10.1398L97.4882 15.0398L97.0082 14.2598H105.468V15.9998H95.4082Z" fill="#163C51"/>
<path opacity="0.8" d="M85.6907 16.0004V12.2804L85.9907 12.6404H82.6107C81.1974 12.6404 80.0907 12.3404 79.2907 11.7404C78.5041 11.1404 78.1107 10.2671 78.1107 9.12039C78.1107 7.89372 78.5307 6.96706 79.3707 6.34039C80.2241 5.71372 81.3574 5.40039 82.7707 5.40039H87.4107V16.0004H85.6907ZM78.0107 16.0004L80.8907 11.9404H82.8707L80.0707 16.0004H78.0107ZM85.6907 11.6804V6.54039L85.9907 7.08039H82.8307C81.9507 7.08039 81.2707 7.24706 80.7907 7.58039C80.3107 7.90039 80.0707 8.43372 80.0707 9.18039C80.0707 10.5671 80.9641 11.2604 82.7507 11.2604H85.9907L85.6907 11.6804Z" fill="#163C51"/>
<path opacity="0.8" d="M64.3379 15.9804L64.4579 14.3604C64.5512 14.3737 64.6379 14.3871 64.7179 14.4004C64.7979 14.4137 64.8712 14.4204 64.9379 14.4204C65.3646 14.4204 65.6979 14.2737 65.9379 13.9804C66.1912 13.6871 66.3779 13.3004 66.4979 12.8204C66.6179 12.3271 66.7046 11.7737 66.7579 11.1604C66.8112 10.5471 66.8512 9.93372 66.8779 9.32039L67.0579 5.40039H75.1979V16.0004H73.2779V6.52039L73.7379 7.08039H68.2979L68.7379 6.50039L68.5979 9.44039C68.5579 10.3737 68.4846 11.2471 68.3779 12.0604C68.2712 12.8737 68.1046 13.5871 67.8779 14.2004C67.6646 14.8137 67.3646 15.2937 66.9779 15.6404C66.6046 15.9871 66.1179 16.1604 65.5179 16.1604C65.3446 16.1604 65.1579 16.1404 64.9579 16.1004C64.7712 16.0737 64.5646 16.0337 64.3379 15.9804Z" fill="#163C51"/>
<path opacity="0.8" d="M58.4354 16.1208C57.302 16.1208 56.302 15.8874 55.4354 15.4208C54.582 14.9541 53.9154 14.3141 53.4354 13.5008C52.9687 12.6874 52.7354 11.7541 52.7354 10.7008C52.7354 9.64745 52.962 8.71412 53.4154 7.90078C53.882 7.08745 54.5153 6.45412 55.3153 6.00078C56.1287 5.53411 57.042 5.30078 58.0554 5.30078C59.082 5.30078 59.9887 5.52745 60.7754 5.98078C61.562 6.43412 62.1754 7.07412 62.6154 7.90078C63.0687 8.71412 63.2954 9.66745 63.2954 10.7608C63.2954 10.8408 63.2887 10.9341 63.2754 11.0408C63.2754 11.1474 63.2687 11.2474 63.2554 11.3408H54.2354V9.96078H62.2554L61.4753 10.4408C61.4887 9.76078 61.3487 9.15411 61.0554 8.62078C60.762 8.08745 60.3554 7.67411 59.8354 7.38078C59.3287 7.07411 58.7354 6.92078 58.0554 6.92078C57.3887 6.92078 56.7954 7.07411 56.2754 7.38078C55.7554 7.67411 55.3487 8.09412 55.0554 8.64078C54.762 9.17411 54.6154 9.78745 54.6154 10.4808V10.8008C54.6154 11.5074 54.7754 12.1408 55.0954 12.7008C55.4287 13.2474 55.8887 13.6741 56.4753 13.9808C57.062 14.2874 57.7353 14.4408 58.4953 14.4408C59.122 14.4408 59.6887 14.3341 60.1954 14.1208C60.7154 13.9074 61.1687 13.5874 61.5554 13.1608L62.6154 14.4008C62.1354 14.9608 61.5353 15.3874 60.8153 15.6808C60.1087 15.9741 59.3154 16.1208 58.4354 16.1208Z" fill="#163C51"/>
<path opacity="0.8" d="M45.5663 16.1208C44.6863 16.1208 43.8796 15.9208 43.1463 15.5208C42.4263 15.1074 41.8463 14.5008 41.4063 13.7008C40.9796 12.9008 40.7663 11.9008 40.7663 10.7008C40.7663 9.50078 40.973 8.50078 41.3863 7.70078C41.813 6.90078 42.3863 6.30078 43.1063 5.90078C43.8396 5.50078 44.6596 5.30078 45.5663 5.30078C46.6063 5.30078 47.5263 5.52745 48.3263 5.98078C49.1263 6.43412 49.7596 7.06745 50.2263 7.88078C50.693 8.68078 50.9263 9.62078 50.9263 10.7008C50.9263 11.7808 50.693 12.7274 50.2263 13.5408C49.7596 14.3541 49.1263 14.9874 48.3263 15.4408C47.5263 15.8941 46.6063 16.1208 45.5663 16.1208ZM39.9463 19.8808V5.40078H41.7863V8.26078L41.6663 10.7208L41.8663 13.1808V19.8808H39.9463ZM45.4063 14.4408C46.0863 14.4408 46.693 14.2874 47.2263 13.9808C47.773 13.6741 48.1996 13.2408 48.5063 12.6808C48.8263 12.1074 48.9863 11.4474 48.9863 10.7008C48.9863 9.94078 48.8263 9.28745 48.5063 8.74078C48.1996 8.18078 47.773 7.74745 47.2263 7.44078C46.693 7.13411 46.0863 6.98078 45.4063 6.98078C44.7396 6.98078 44.133 7.13411 43.5863 7.44078C43.053 7.74745 42.6263 8.18078 42.3063 8.74078C41.9996 9.28745 41.8463 9.94078 41.8463 10.7008C41.8463 11.4474 41.9996 12.1074 42.3063 12.6808C42.6263 13.2408 43.053 13.6741 43.5863 13.9808C44.133 14.2874 44.7396 14.4408 45.4063 14.4408Z" fill="#163C51"/>
<path opacity="0.8" d="M26.4111 16.0004V5.40039H36.2311V16.0004H34.3111V6.60039L34.7711 7.08039H27.8711L28.3311 6.60039V16.0004H26.4111Z" fill="#163C51"/>
<path opacity="0.8" d="M21.1334 16.0008V13.7608L21.0334 13.3408V9.52078C21.0334 8.70745 20.7934 8.08078 20.3134 7.64078C19.8467 7.18745 19.1401 6.96078 18.1934 6.96078C17.5667 6.96078 16.9534 7.06745 16.3534 7.28078C15.7534 7.48078 15.2467 7.75412 14.8334 8.10078L14.0334 6.66078C14.5801 6.22078 15.2334 5.88745 15.9934 5.66078C16.7667 5.42078 17.5734 5.30078 18.4134 5.30078C19.8667 5.30078 20.9867 5.65411 21.7734 6.36078C22.5601 7.06745 22.9534 8.14745 22.9534 9.60078V16.0008H21.1334ZM17.6534 16.1208C16.8667 16.1208 16.1734 15.9874 15.5734 15.7208C14.9867 15.4541 14.5334 15.0874 14.2134 14.6208C13.8934 14.1408 13.7334 13.6008 13.7334 13.0008C13.7334 12.4274 13.8667 11.9074 14.1334 11.4408C14.4134 10.9741 14.8601 10.6008 15.4734 10.3208C16.1001 10.0408 16.9401 9.90078 17.9934 9.90078H21.3534V11.2808H18.0734C17.1134 11.2808 16.4667 11.4408 16.1334 11.7608C15.8001 12.0808 15.6334 12.4674 15.6334 12.9208C15.6334 13.4408 15.8401 13.8608 16.2534 14.1808C16.6667 14.4874 17.2401 14.6408 17.9734 14.6408C18.6934 14.6408 19.3201 14.4808 19.8534 14.1608C20.4001 13.8408 20.7934 13.3741 21.0334 12.7608L21.4134 14.0808C21.1601 14.7074 20.7134 15.2074 20.0734 15.5808C19.4334 15.9408 18.6267 16.1208 17.6534 16.1208Z" fill="#163C51"/>
<path opacity="0.8" d="M3.32016 16V2.8L4.18016 3.74H0.160156V2H5.30016V16H3.32016Z" fill="#163C51"/>
</svg>
