<svg width="154" height="20" viewBox="0 0 154 20" fill="none" xmlns="http://www.w3.org/2000/svg">
<path opacity="0.8" d="M147.954 16.16C146.968 16.16 146.008 16.0067 145.074 15.7C144.154 15.3933 143.401 14.98 142.814 14.46L143.734 12.88C144.201 13.32 144.808 13.68 145.554 13.96C146.301 14.24 147.101 14.38 147.954 14.38C148.994 14.38 149.801 14.16 150.374 13.72C150.961 13.2667 151.254 12.66 151.254 11.9C151.254 11.1667 150.974 10.58 150.414 10.14C149.868 9.68667 148.994 9.46 147.794 9.46H146.674V8.06L150.834 2.94L151.114 3.74H143.454V2H152.694V3.36L148.554 8.46L147.514 7.84H148.174C149.868 7.84 151.134 8.22 151.974 8.98C152.828 9.74 153.254 10.7067 153.254 11.88C153.254 12.6667 153.061 13.3867 152.674 14.04C152.288 14.6933 151.701 15.2133 150.914 15.6C150.141 15.9733 149.154 16.16 147.954 16.16Z" fill="#163C51"/>
<path opacity="0.8" d="M131.971 15.9998V14.6398L137.671 9.13984C138.177 8.65984 138.551 8.23984 138.791 7.87984C139.044 7.50651 139.211 7.16651 139.291 6.85984C139.384 6.53984 139.431 6.23318 139.431 5.93984C139.431 5.21984 139.177 4.65318 138.671 4.23984C138.164 3.82651 137.424 3.61984 136.451 3.61984C135.704 3.61984 135.031 3.74651 134.431 3.99984C133.831 4.23984 133.311 4.61984 132.871 5.13984L131.511 3.95984C132.044 3.27984 132.757 2.75984 133.651 2.39984C134.557 2.02651 135.551 1.83984 136.631 1.83984C137.604 1.83984 138.451 1.99984 139.171 2.31984C139.891 2.62651 140.444 3.07318 140.831 3.65984C141.231 4.24651 141.431 4.93984 141.431 5.73984C141.431 6.19318 141.371 6.63984 141.251 7.07984C141.131 7.51984 140.904 7.98651 140.571 8.47984C140.237 8.97318 139.757 9.52651 139.131 10.1398L134.051 15.0398L133.571 14.2598H142.031V15.9998H131.971Z" fill="#163C51"/>
<path opacity="0.8" d="M124.571 16.1598C123.477 16.1598 122.497 15.8798 121.631 15.3198C120.777 14.7598 120.097 13.9465 119.591 12.8798C119.097 11.8132 118.851 10.5198 118.851 8.99984C118.851 7.47984 119.097 6.18651 119.591 5.11984C120.097 4.05318 120.777 3.23984 121.631 2.67984C122.497 2.11984 123.477 1.83984 124.571 1.83984C125.651 1.83984 126.624 2.11984 127.491 2.67984C128.357 3.23984 129.037 4.05318 129.531 5.11984C130.024 6.18651 130.271 7.47984 130.271 8.99984C130.271 10.5198 130.024 11.8132 129.531 12.8798C129.037 13.9465 128.357 14.7598 127.491 15.3198C126.624 15.8798 125.651 16.1598 124.571 16.1598ZM124.571 14.3798C125.304 14.3798 125.944 14.1798 126.491 13.7798C127.051 13.3798 127.484 12.7798 127.791 11.9798C128.111 11.1798 128.271 10.1865 128.271 8.99984C128.271 7.81318 128.111 6.81984 127.791 6.01984C127.484 5.21984 127.051 4.61984 126.491 4.21984C125.944 3.81984 125.304 3.61984 124.571 3.61984C123.837 3.61984 123.191 3.81984 122.631 4.21984C122.071 4.61984 121.631 5.21984 121.311 6.01984C121.004 6.81984 120.851 7.81318 120.851 8.99984C120.851 10.1865 121.004 11.1798 121.311 11.9798C121.631 12.7798 122.071 13.3798 122.631 13.7798C123.191 14.1798 123.837 14.3798 124.571 14.3798Z" fill="#163C51"/>
<path opacity="0.8" d="M107.166 15.9998V14.6398L112.866 9.13984C113.373 8.65984 113.746 8.23984 113.986 7.87984C114.239 7.50651 114.406 7.16651 114.486 6.85984C114.579 6.53984 114.626 6.23318 114.626 5.93984C114.626 5.21984 114.373 4.65318 113.866 4.23984C113.359 3.82651 112.619 3.61984 111.646 3.61984C110.899 3.61984 110.226 3.74651 109.626 3.99984C109.026 4.23984 108.506 4.61984 108.066 5.13984L106.706 3.95984C107.239 3.27984 107.953 2.75984 108.846 2.39984C109.753 2.02651 110.746 1.83984 111.826 1.83984C112.799 1.83984 113.646 1.99984 114.366 2.31984C115.086 2.62651 115.639 3.07318 116.026 3.65984C116.426 4.24651 116.626 4.93984 116.626 5.73984C116.626 6.19318 116.566 6.63984 116.446 7.07984C116.326 7.51984 116.099 7.98651 115.766 8.47984C115.433 8.97318 114.953 9.52651 114.326 10.1398L109.246 15.0398L108.766 14.2598H117.226V15.9998H107.166Z" fill="#163C51"/>
<path opacity="0.8" d="M97.4486 16.0004V12.2804L97.7486 12.6404H94.3686C92.9552 12.6404 91.8486 12.3404 91.0486 11.7404C90.2619 11.1404 89.8686 10.2671 89.8686 9.12039C89.8686 7.89372 90.2886 6.96706 91.1286 6.34039C91.9819 5.71372 93.1152 5.40039 94.5286 5.40039H99.1686V16.0004H97.4486ZM89.7686 16.0004L92.6486 11.9404H94.6286L91.8286 16.0004H89.7686ZM97.4486 11.6804V6.54039L97.7486 7.08039H94.5886C93.7086 7.08039 93.0286 7.24706 92.5486 7.58039C92.0686 7.90039 91.8286 8.43372 91.8286 9.18039C91.8286 10.5671 92.7219 11.2604 94.5086 11.2604H97.7486L97.4486 11.6804Z" fill="#163C51"/>
<path opacity="0.8" d="M82.871 16.1208C81.991 16.1208 81.1843 15.9208 80.451 15.5208C79.731 15.1074 79.151 14.5008 78.711 13.7008C78.2843 12.9008 78.071 11.9008 78.071 10.7008C78.071 9.50078 78.2776 8.50078 78.691 7.70078C79.1176 6.90078 79.691 6.30078 80.411 5.90078C81.1443 5.50078 81.9643 5.30078 82.871 5.30078C83.911 5.30078 84.831 5.52745 85.631 5.98078C86.431 6.43412 87.0643 7.06745 87.531 7.88078C87.9976 8.68078 88.231 9.62078 88.231 10.7008C88.231 11.7808 87.9976 12.7274 87.531 13.5408C87.0643 14.3541 86.431 14.9874 85.631 15.4408C84.831 15.8941 83.911 16.1208 82.871 16.1208ZM77.251 19.8808V5.40078H79.091V8.26078L78.971 10.7208L79.171 13.1808V19.8808H77.251ZM82.711 14.4408C83.391 14.4408 83.9976 14.2874 84.531 13.9808C85.0776 13.6741 85.5043 13.2408 85.811 12.6808C86.131 12.1074 86.291 11.4474 86.291 10.7008C86.291 9.94078 86.131 9.28745 85.811 8.74078C85.5043 8.18078 85.0776 7.74745 84.531 7.44078C83.9976 7.13411 83.391 6.98078 82.711 6.98078C82.0443 6.98078 81.4376 7.13411 80.891 7.44078C80.3576 7.74745 79.931 8.18078 79.611 8.74078C79.3043 9.28745 79.151 9.94078 79.151 10.7008C79.151 11.4474 79.3043 12.1074 79.611 12.6808C79.931 13.2408 80.3576 13.6741 80.891 13.9808C81.4376 14.2874 82.0443 14.4408 82.711 14.4408Z" fill="#163C51"/>
<path opacity="0.8" d="M68.9087 16.1598C68.0287 16.1598 67.2487 16.0198 66.5687 15.7398C65.902 15.4598 65.3287 15.0465 64.8487 14.4998C64.3687 13.9398 64.002 13.2398 63.7487 12.3998C63.5087 11.5465 63.3887 10.5465 63.3887 9.39984C63.3887 8.49318 63.4687 7.67984 63.6287 6.95984C63.7887 6.23984 64.0153 5.59984 64.3087 5.03984C64.6153 4.47984 64.9887 3.99318 65.4287 3.57984C65.882 3.16651 66.3887 2.82651 66.9487 2.55984C67.522 2.27984 68.1487 2.06651 68.8287 1.91984L73.6687 0.839844L73.9487 2.61984L69.4887 3.57984C69.222 3.63318 68.902 3.71318 68.5287 3.81984C68.1553 3.92651 67.7753 4.09318 67.3887 4.31984C67.002 4.53318 66.642 4.83318 66.3087 5.21984C65.9753 5.60651 65.7087 6.11318 65.5087 6.73984C65.3087 7.35318 65.2087 8.11318 65.2087 9.01984C65.2087 9.27318 65.2153 9.46651 65.2287 9.59984C65.242 9.73318 65.2553 9.86651 65.2687 9.99984C65.2953 10.1332 65.3153 10.3332 65.3287 10.5998L64.5287 9.77984C64.742 9.04651 65.082 8.40651 65.5487 7.85984C66.0153 7.31318 66.5753 6.89318 67.2287 6.59984C67.8953 6.29318 68.622 6.13984 69.4087 6.13984C70.3953 6.13984 71.2687 6.35318 72.0287 6.77984C72.802 7.20651 73.4087 7.79318 73.8487 8.53984C74.2887 9.28651 74.5087 10.1398 74.5087 11.0998C74.5087 12.0732 74.2753 12.9465 73.8087 13.7198C73.3553 14.4798 72.7087 15.0798 71.8687 15.5198C71.0287 15.9465 70.042 16.1598 68.9087 16.1598ZM69.0887 14.5598C69.7687 14.5598 70.3687 14.4132 70.8887 14.1198C71.4087 13.8132 71.8153 13.4065 72.1087 12.8998C72.402 12.3798 72.5487 11.7998 72.5487 11.1598C72.5487 10.5198 72.402 9.95318 72.1087 9.45984C71.8153 8.96651 71.4087 8.57984 70.8887 8.29984C70.3687 8.00651 69.7553 7.85984 69.0487 7.85984C68.382 7.85984 67.782 7.99984 67.2487 8.27984C66.7153 8.54651 66.302 8.92651 66.0087 9.41984C65.7153 9.89984 65.5687 10.4598 65.5687 11.0998C65.5687 11.7398 65.7153 12.3265 66.0087 12.8598C66.3153 13.3798 66.7287 13.7932 67.2487 14.0998C67.782 14.4065 68.3953 14.5598 69.0887 14.5598Z" fill="#163C51"/>
<path opacity="0.8" d="M58.7311 16.0008V13.7608L58.6311 13.3408V9.52078C58.6311 8.70745 58.3911 8.08078 57.9111 7.64078C57.4444 7.18745 56.7377 6.96078 55.7911 6.96078C55.1644 6.96078 54.5511 7.06745 53.9511 7.28078C53.3511 7.48078 52.8444 7.75412 52.4311 8.10078L51.6311 6.66078C52.1777 6.22078 52.8311 5.88745 53.5911 5.66078C54.3644 5.42078 55.1711 5.30078 56.0111 5.30078C57.4644 5.30078 58.5844 5.65411 59.3711 6.36078C60.1577 7.06745 60.5511 8.14745 60.5511 9.60078V16.0008H58.7311ZM55.2511 16.1208C54.4644 16.1208 53.7711 15.9874 53.1711 15.7208C52.5844 15.4541 52.1311 15.0874 51.8111 14.6208C51.4911 14.1408 51.3311 13.6008 51.3311 13.0008C51.3311 12.4274 51.4644 11.9074 51.7311 11.4408C52.0111 10.9741 52.4577 10.6008 53.0711 10.3208C53.6977 10.0408 54.5377 9.90078 55.5911 9.90078H58.9511V11.2808H55.6711C54.7111 11.2808 54.0644 11.4408 53.7311 11.7608C53.3977 12.0808 53.2311 12.4674 53.2311 12.9208C53.2311 13.4408 53.4377 13.8608 53.8511 14.1808C54.2644 14.4874 54.8377 14.6408 55.5711 14.6408C56.2911 14.6408 56.9177 14.4808 57.4511 14.1608C57.9977 13.8408 58.3911 13.3741 58.6311 12.7608L59.0111 14.0808C58.7577 14.7074 58.3111 15.2074 57.6711 15.5808C57.0311 15.9408 56.2244 16.1208 55.2511 16.1208Z" fill="#163C51"/>
<path opacity="0.8" d="M48.1536 16.0004L44.0536 10.8404L45.6336 9.88039L50.4136 16.0004H48.1536ZM40.4736 16.0004V5.40039H42.3936V16.0004H40.4736ZM41.8136 11.5204V9.88039H45.3136V11.5204H41.8136ZM45.7936 10.9204L44.0136 10.6804L48.0736 5.40039H50.1336L45.7936 10.9204Z" fill="#163C51"/>
<path opacity="0.8" d="M32.6346 16.1208C31.5012 16.1208 30.5012 15.8874 29.6346 15.4208C28.7812 14.9541 28.1146 14.3141 27.6346 13.5008C27.1679 12.6874 26.9346 11.7541 26.9346 10.7008C26.9346 9.64745 27.1612 8.71412 27.6146 7.90078C28.0812 7.08745 28.7146 6.45412 29.5146 6.00078C30.3279 5.53411 31.2412 5.30078 32.2546 5.30078C33.2812 5.30078 34.1879 5.52745 34.9746 5.98078C35.7612 6.43412 36.3746 7.07412 36.8146 7.90078C37.2679 8.71412 37.4946 9.66745 37.4946 10.7608C37.4946 10.8408 37.4879 10.9341 37.4746 11.0408C37.4746 11.1474 37.4679 11.2474 37.4546 11.3408H28.4346V9.96078H36.4546L35.6746 10.4408C35.6879 9.76078 35.5479 9.15411 35.2546 8.62078C34.9612 8.08745 34.5546 7.67411 34.0346 7.38078C33.5279 7.07411 32.9346 6.92078 32.2546 6.92078C31.5879 6.92078 30.9946 7.07411 30.4746 7.38078C29.9546 7.67411 29.5479 8.09412 29.2546 8.64078C28.9612 9.17411 28.8146 9.78745 28.8146 10.4808V10.8008C28.8146 11.5074 28.9746 12.1408 29.2946 12.7008C29.6279 13.2474 30.0879 13.6741 30.6746 13.9808C31.2612 14.2874 31.9346 14.4408 32.6946 14.4408C33.3212 14.4408 33.8879 14.3341 34.3946 14.1208C34.9146 13.9074 35.3679 13.5874 35.7546 13.1608L36.8146 14.4008C36.3346 14.9608 35.7346 15.3874 35.0146 15.6808C34.3079 15.9741 33.5146 16.1208 32.6346 16.1208Z" fill="#163C51"/>
<path opacity="0.8" d="M21.8736 15.1004V7.08039H17.2736L17.1736 9.12039C17.1469 9.78706 17.1003 10.4337 17.0336 11.0604C16.9803 11.6737 16.8869 12.2404 16.7536 12.7604C16.6336 13.2804 16.4536 13.7071 16.2136 14.0404C15.9736 14.3737 15.6536 14.5804 15.2536 14.6604L13.3536 14.3204C13.7669 14.3337 14.1003 14.2004 14.3536 13.9204C14.6069 13.6271 14.8003 13.2271 14.9336 12.7204C15.0803 12.2137 15.1869 11.6404 15.2536 11.0004C15.3203 10.3471 15.3736 9.67372 15.4136 8.98039L15.5736 5.40039H23.7936V15.1004H21.8736ZM12.9336 18.4604V14.3204H25.4136V18.4604H23.6136V16.0004H14.7536V18.4604H12.9336Z" fill="#163C51"/>
<path opacity="0.8" d="M3.32016 16V2.8L4.18016 3.74H0.160156V2H5.30016V16H3.32016Z" fill="#163C51"/>
</svg>
