<svg width="119" height="22" viewBox="0 0 119 22" fill="none" xmlns="http://www.w3.org/2000/svg">
<path d="M116.014 20.9996V15.4196L116.464 15.9596H111.394C109.274 15.9596 107.614 15.5096 106.414 14.6096C105.234 13.7096 104.644 12.3996 104.644 10.6796C104.644 8.83961 105.274 7.44961 106.534 6.50961C107.814 5.56961 109.514 5.09961 111.634 5.09961H118.594V20.9996H116.014ZM104.494 20.9996L108.814 14.9096H111.784L107.584 20.9996H104.494ZM116.014 14.5196V6.80961L116.464 7.61961H111.724C110.404 7.61961 109.384 7.86961 108.664 8.36961C107.944 8.84961 107.584 9.64961 107.584 10.7696C107.584 12.8496 108.924 13.8896 111.604 13.8896H116.464L116.014 14.5196Z" fill="white"/>
<path d="M97.9281 20.9992V17.6392L97.7781 17.0092V11.2792C97.7781 10.0592 97.4181 9.11922 96.6981 8.45922C95.9981 7.77922 94.9381 7.43922 93.5181 7.43922C92.5781 7.43922 91.6581 7.59922 90.7581 7.91922C89.8581 8.21922 89.0981 8.62922 88.4781 9.14922L87.2781 6.98922C88.0981 6.32922 89.0781 5.82922 90.2181 5.48922C91.3781 5.12922 92.5881 4.94922 93.8481 4.94922C96.0281 4.94922 97.7081 5.47922 98.8881 6.53922C100.068 7.59922 100.658 9.21922 100.658 11.3992V20.9992H97.9281ZM92.7081 21.1792C91.5281 21.1792 90.4881 20.9792 89.5881 20.5792C88.7081 20.1792 88.0281 19.6292 87.5481 18.9292C87.0681 18.2092 86.8281 17.3992 86.8281 16.4992C86.8281 15.6392 87.0281 14.8592 87.4281 14.1592C87.8481 13.4592 88.5181 12.8992 89.4381 12.4792C90.3781 12.0592 91.6381 11.8492 93.2181 11.8492H98.2581V13.9192H93.3381C91.8981 13.9192 90.9281 14.1592 90.4281 14.6392C89.9281 15.1192 89.6781 15.6992 89.6781 16.3792C89.6781 17.1592 89.9881 17.7892 90.6081 18.2692C91.2281 18.7292 92.0881 18.9592 93.1881 18.9592C94.2681 18.9592 95.2081 18.7192 96.0081 18.2392C96.8281 17.7592 97.4181 17.0592 97.7781 16.1392L98.3481 18.1192C97.9681 19.0592 97.2981 19.8092 96.3381 20.3692C95.3781 20.9092 94.1681 21.1792 92.7081 21.1792Z" fill="white"/>
<path d="M67.7578 20.9996V5.09961H70.6378V11.8496H79.6978V5.09961H82.5778V20.9996H79.6978V14.3396H70.6378V20.9996H67.7578Z" fill="white"/>
<path d="M49.3301 20.9996V5.09961H56.7101C58.5701 5.09961 60.0301 5.45961 61.0901 6.17961C62.1701 6.87961 62.7101 7.87961 62.7101 9.17961C62.7101 10.4796 62.2001 11.4896 61.1801 12.2096C60.1801 12.9096 58.8501 13.2596 57.1901 13.2596L57.6401 12.4796C59.5401 12.4796 60.9501 12.8296 61.8701 13.5296C62.7901 14.2296 63.2501 15.2596 63.2501 16.6196C63.2501 17.9996 62.7301 19.0796 61.6901 19.8596C60.6701 20.6196 59.1001 20.9996 56.9801 20.9996H49.3301ZM52.1501 18.7796H56.7701C57.9701 18.7796 58.8701 18.5996 59.4701 18.2396C60.0701 17.8596 60.3701 17.2596 60.3701 16.4396C60.3701 15.5996 60.0901 14.9896 59.5301 14.6096C58.9901 14.2096 58.1301 14.0096 56.9501 14.0096H52.1501V18.7796ZM52.1501 11.9396H56.4701C57.5701 11.9396 58.4001 11.7396 58.9601 11.3396C59.5401 10.9196 59.8301 10.3396 59.8301 9.59961C59.8301 8.83961 59.5401 8.26961 58.9601 7.88961C58.4001 7.50961 57.5701 7.31961 56.4701 7.31961H52.1501V11.9396Z" fill="white"/>
<path d="M41.4145 20.9992V17.6392L41.2645 17.0092V11.2792C41.2645 10.0592 40.9045 9.11922 40.1845 8.45922C39.4845 7.77922 38.4245 7.43922 37.0045 7.43922C36.0645 7.43922 35.1445 7.59922 34.2445 7.91922C33.3445 8.21922 32.5845 8.62922 31.9645 9.14922L30.7645 6.98922C31.5845 6.32922 32.5645 5.82922 33.7045 5.48922C34.8645 5.12922 36.0745 4.94922 37.3345 4.94922C39.5145 4.94922 41.1945 5.47922 42.3745 6.53922C43.5545 7.59922 44.1445 9.21922 44.1445 11.3992V20.9992H41.4145ZM36.1945 21.1792C35.0145 21.1792 33.9745 20.9792 33.0745 20.5792C32.1945 20.1792 31.5145 19.6292 31.0345 18.9292C30.5545 18.2092 30.3145 17.3992 30.3145 16.4992C30.3145 15.6392 30.5145 14.8592 30.9145 14.1592C31.3345 13.4592 32.0045 12.8992 32.9245 12.4792C33.8645 12.0592 35.1245 11.8492 36.7045 11.8492H41.7445V13.9192H36.8245C35.3845 13.9192 34.4145 14.1592 33.9145 14.6392C33.4145 15.1192 33.1645 15.6992 33.1645 16.3792C33.1645 17.1592 33.4745 17.7892 34.0945 18.2692C34.7145 18.7292 35.5745 18.9592 36.6745 18.9592C37.7545 18.9592 38.6945 18.7192 39.4945 18.2392C40.3145 17.7592 40.9045 17.0592 41.2645 16.1392L41.8345 18.1192C41.4545 19.0592 40.7845 19.8092 39.8245 20.3692C38.8645 20.9092 37.6545 21.1792 36.1945 21.1792Z" fill="white"/>
<path d="M9.80664 20.9696L9.98664 18.5396C10.1266 18.5596 10.2566 18.5796 10.3766 18.5996C10.4966 18.6196 10.6066 18.6296 10.7066 18.6296C11.3466 18.6296 11.8466 18.4096 12.2066 17.9696C12.5866 17.5296 12.8666 16.9496 13.0466 16.2296C13.2266 15.4896 13.3566 14.6596 13.4366 13.7396C13.5166 12.8196 13.5766 11.8996 13.6166 10.9796L13.8866 5.09961H26.0966V20.9996H23.2166V6.77961L23.9066 7.61961H15.7466L16.4066 6.74961L16.1966 11.1596C16.1366 12.5596 16.0266 13.8696 15.8666 15.0896C15.7066 16.3096 15.4566 17.3796 15.1166 18.2996C14.7966 19.2196 14.3466 19.9396 13.7666 20.4596C13.2066 20.9796 12.4766 21.2396 11.5766 21.2396C11.3166 21.2396 11.0366 21.2096 10.7366 21.1496C10.4566 21.1096 10.1466 21.0496 9.80664 20.9696Z" fill="white"/>
<path d="M0.269531 21V0H14.0395L14.0095 2.61H2.48953L3.20953 1.86L3.23953 21H0.269531Z" fill="white"/>
</svg>
