<svg width="272" height="31" viewBox="0 0 272 31" fill="none" xmlns="http://www.w3.org/2000/svg">
<path d="M266.341 16.3094C264.997 16.3094 263.863 15.8614 262.939 14.9654C262.015 14.0694 261.553 12.9354 261.553 11.5634C261.553 10.1354 262.015 9.00137 262.939 8.16137C263.863 7.29337 264.997 6.85938 266.341 6.85938C267.685 6.85938 268.819 7.29337 269.743 8.16137C270.667 9.00137 271.129 10.1354 271.129 11.5634C271.129 12.9354 270.667 14.0694 269.743 14.9654C268.819 15.8614 267.685 16.3094 266.341 16.3094ZM266.341 30.3794C264.997 30.3794 263.863 29.9314 262.939 29.0354C262.015 28.1394 261.553 27.0054 261.553 25.6334C261.553 24.2054 262.015 23.0714 262.939 22.2314C263.863 21.3634 264.997 20.9294 266.341 20.9294C267.685 20.9294 268.819 21.3634 269.743 22.2314C270.667 23.0714 271.129 24.2054 271.129 25.6334C271.129 27.0054 270.667 28.1394 269.743 29.0354C268.819 29.9314 267.685 30.3794 266.341 30.3794Z" fill="#163C51"/>
<path d="M234.512 9.96561C238.096 9.96561 240.868 10.7636 242.828 12.3596C244.816 13.9556 245.81 16.3496 245.81 19.5416C245.81 22.9856 244.704 25.5896 242.492 27.3536C240.28 29.1176 237.256 29.9996 233.42 29.9996H219.518V0.599609H227.708V9.96561H234.512ZM232.874 24.0356C234.274 24.0356 235.38 23.6576 236.192 22.9016C237.032 22.1456 237.452 21.0816 237.452 19.7096C237.452 18.3096 237.032 17.3296 236.192 16.7696C235.38 16.1816 234.274 15.8876 232.874 15.8876H227.708V24.0356H232.874ZM249.044 29.9996V0.599609H257.234V29.9996H249.044Z" fill="#163C51"/>
<path d="M198.507 29.9996V5.34561L200.355 7.19361H189.477V0.599609H215.685V7.19361H204.849L206.697 5.34561V29.9996H198.507Z" fill="#163C51"/>
<path d="M180.332 29.9996L172.058 16.0136L178.736 12.0656L189.698 29.9996H180.332ZM161.6 29.9996V0.599609H169.874V29.9996H161.6ZM167.48 18.7436V12.0236H178.148V18.7436H167.48ZM179.534 16.1816L171.848 15.3416L180.878 0.599609H189.614L179.534 16.1816Z" fill="#163C51"/>
<path d="M124.21 29.9996L137.188 0.599609H145.378L158.398 29.9996H149.746L139.582 4.67361H142.858L132.694 29.9996H124.21ZM131.308 24.2876L133.45 18.1556H147.814L149.956 24.2876H131.308Z" fill="#163C51"/>
<path d="M107.616 29.9996V5.34561L109.464 7.19361H98.5859V0.599609H124.794V7.19361H113.958L115.806 5.34561V29.9996H107.616Z" fill="#163C51"/>
<path d="M86.4724 0.599609H94.7884V29.9996H86.4724V0.599609ZM75.1324 29.9996H66.8164V0.599609H75.1324V29.9996ZM87.0604 18.5336H74.5444V11.6456H87.0604V18.5336Z" fill="#163C51"/>
<path d="M46.0323 30.5877C43.6803 30.5877 41.5103 30.2097 39.5223 29.4537C37.5343 28.6977 35.7983 27.6337 34.3143 26.2617C32.8583 24.8617 31.7243 23.2377 30.9123 21.3897C30.1003 19.5417 29.6943 17.5117 29.6943 15.2997C29.6943 13.0877 30.1003 11.0577 30.9123 9.20972C31.7243 7.36172 32.8583 5.75172 34.3143 4.37972C35.7983 2.97972 37.5343 1.90172 39.5223 1.14572C41.5103 0.389718 43.6803 0.0117188 46.0323 0.0117188C48.4123 0.0117188 50.5823 0.389718 52.5423 1.14572C54.5303 1.90172 56.2523 2.97972 57.7083 4.37972C59.1643 5.75172 60.2983 7.36172 61.1103 9.20972C61.9503 11.0577 62.3703 13.0877 62.3703 15.2997C62.3703 17.5117 61.9503 19.5557 61.1103 21.4317C60.2983 23.2797 59.1643 24.8897 57.7083 26.2617C56.2523 27.6337 54.5303 28.6977 52.5423 29.4537C50.5823 30.2097 48.4123 30.5877 46.0323 30.5877ZM46.0323 23.6997C47.1523 23.6997 48.1883 23.5037 49.1403 23.1117C50.1203 22.7197 50.9603 22.1597 51.6603 21.4317C52.3883 20.6757 52.9483 19.7797 53.3403 18.7437C53.7603 17.7077 53.9703 16.5597 53.9703 15.2997C53.9703 14.0117 53.7603 12.8637 53.3403 11.8557C52.9483 10.8197 52.3883 9.93772 51.6603 9.20972C50.9603 8.45372 50.1203 7.87972 49.1403 7.48772C48.1883 7.09572 47.1523 6.89972 46.0323 6.89972C44.9123 6.89972 43.8623 7.09572 42.8823 7.48772C41.9303 7.87972 41.0903 8.45372 40.3623 9.20972C39.6623 9.93772 39.1023 10.8197 38.6823 11.8557C38.2903 12.8637 38.0943 14.0117 38.0943 15.2997C38.0943 16.5597 38.2903 17.7077 38.6823 18.7437C39.1023 19.7797 39.6623 20.6757 40.3623 21.4317C41.0903 22.1597 41.9303 22.7197 42.8823 23.1117C43.8623 23.5037 44.9123 23.6997 46.0323 23.6997Z" fill="#163C51"/>
<path d="M19.7144 29.9996L11.4404 16.0136L18.1184 12.0656L29.0804 29.9996H19.7144ZM0.982422 29.9996V0.599609H9.25642V29.9996H0.982422ZM6.86242 18.7436V12.0236H17.5304V18.7436H6.86242ZM18.9164 16.1816L11.2304 15.3416L20.2604 0.599609H28.9964L18.9164 16.1816Z" fill="#163C51"/>
</svg>
