<svg width="214" height="31" viewBox="0 0 214 31" fill="none" xmlns="http://www.w3.org/2000/svg">
<path opacity="0.5" d="M210.116 30.0002V22.1882L210.746 22.9442H203.648C200.68 22.9442 198.356 22.3142 196.676 21.0542C195.024 19.7942 194.198 17.9602 194.198 15.5522C194.198 12.9762 195.08 11.0302 196.844 9.71424C198.636 8.39823 201.016 7.74023 203.984 7.74023H213.728V30.0002H210.116ZM193.988 30.0002L200.036 21.4742H204.194L198.314 30.0002H193.988ZM210.116 20.9282V10.1342L210.746 11.2682H204.11C202.262 11.2682 200.834 11.6182 199.826 12.3182C198.818 12.9902 198.314 14.1102 198.314 15.6782C198.314 18.5902 200.19 20.0462 203.942 20.0462H210.746L210.116 20.9282Z" fill="#163C51"/>
<path opacity="0.5" d="M162.369 30.0002V7.74023H166.527L176.103 24.2042H174.423L184.251 7.74023H188.031V30.0002H184.377V12.2762L185.049 12.6542L176.061 27.4802H174.297L165.267 12.3602L166.065 12.1922V30.0002H162.369Z" fill="#163C51"/>
<path opacity="0.5" d="M133.207 30.0002V7.74023H137.239V23.9522L150.889 7.74023H154.543V30.0002H150.511V13.7882L136.903 30.0002H133.207Z" fill="#163C51"/>
<path opacity="0.5" d="M105.466 30.2533C103.086 30.2533 100.986 29.7633 99.1661 28.7833C97.3741 27.8033 95.9741 26.4593 94.9661 24.7513C93.9861 23.0433 93.4961 21.0833 93.4961 18.8713C93.4961 16.6593 93.9721 14.6992 94.9241 12.9912C95.9041 11.2832 97.2341 9.95325 98.9141 9.00125C100.622 8.02125 102.54 7.53125 104.668 7.53125C106.824 7.53125 108.728 8.00725 110.38 8.95925C112.032 9.91125 113.32 11.2552 114.244 12.9912C115.196 14.6992 115.672 16.7013 115.672 18.9972C115.672 19.1652 115.658 19.3613 115.63 19.5853C115.63 19.8093 115.616 20.0192 115.588 20.2153H96.6461V17.3173H113.488L111.85 18.3253C111.878 16.8973 111.584 15.6233 110.968 14.5033C110.352 13.3833 109.498 12.5153 108.406 11.8993C107.342 11.2552 106.096 10.9333 104.668 10.9333C103.268 10.9333 102.022 11.2552 100.93 11.8993C99.8381 12.5153 98.9841 13.3973 98.3681 14.5452C97.7521 15.6653 97.4441 16.9533 97.4441 18.4093V19.0813C97.4441 20.5653 97.7801 21.8953 98.4521 23.0713C99.1521 24.2193 100.118 25.1152 101.35 25.7593C102.582 26.4033 103.996 26.7253 105.592 26.7253C106.908 26.7253 108.098 26.5012 109.162 26.0532C110.254 25.6052 111.206 24.9333 112.018 24.0373L114.244 26.6413C113.236 27.8173 111.976 28.7133 110.464 29.3293C108.98 29.9452 107.314 30.2533 105.466 30.2533Z" fill="#163C51"/>
<path opacity="0.5" d="M70.7996 26.4722L69.8756 27.5222V7.74023H73.9076V27.5222L72.8996 26.4722H84.6596L83.6936 27.5222V7.74023H87.7256V30.0002H56.0156V7.74023H60.0476V27.5222L59.0816 26.4722H70.7996Z" fill="#163C51"/>
<path opacity="0.5" d="M44.9326 30.0013V25.2973L44.7226 24.4153V16.3933C44.7226 14.6853 44.2186 13.3693 43.2106 12.4453C42.2306 11.4933 40.7466 11.0173 38.7586 11.0173C37.4426 11.0173 36.1546 11.2413 34.8946 11.6893C33.6346 12.1093 32.5706 12.6833 31.7026 13.4113L30.0226 10.3873C31.1706 9.46325 32.5426 8.76325 34.1386 8.28725C35.7626 7.78325 37.4566 7.53125 39.2206 7.53125C42.2726 7.53125 44.6246 8.27325 46.2766 9.75725C47.9286 11.2413 48.7546 13.5093 48.7546 16.5613V30.0013H44.9326ZM37.6246 30.2533C35.9726 30.2533 34.5166 29.9732 33.2566 29.4132C32.0246 28.8533 31.0726 28.0833 30.4006 27.1033C29.7286 26.0953 29.3926 24.9613 29.3926 23.7013C29.3926 22.4973 29.6726 21.4053 30.2326 20.4253C30.8206 19.4453 31.7586 18.6613 33.0466 18.0733C34.3626 17.4853 36.1266 17.1913 38.3386 17.1913H45.3946V20.0893H38.5066C36.4906 20.0893 35.1326 20.4253 34.4326 21.0973C33.7326 21.7693 33.3826 22.5812 33.3826 23.5332C33.3826 24.6252 33.8166 25.5073 34.6846 26.1793C35.5526 26.8233 36.7566 27.1453 38.2966 27.1453C39.8086 27.1453 41.1246 26.8093 42.2446 26.1373C43.3926 25.4653 44.2186 24.4853 44.7226 23.1973L45.5206 25.9692C44.9886 27.2852 44.0506 28.3353 42.7066 29.1193C41.3626 29.8753 39.6686 30.2533 37.6246 30.2533Z" fill="#163C51"/>
<path opacity="0.5" d="M0.578125 29.9996V0.599609H13.2201C16.4121 0.599609 18.9181 1.24361 20.7381 2.53161C22.5581 3.81961 23.4681 5.69561 23.4681 8.15961C23.4681 10.5676 22.6001 12.4156 20.8641 13.7036C19.1281 14.9636 16.8461 15.5936 14.0181 15.5936L14.7741 14.3336C18.0501 14.3336 20.5561 14.9916 22.2921 16.3076C24.0561 17.5956 24.9381 19.4856 24.9381 21.9776C24.9381 24.4976 24.0141 26.4716 22.1661 27.8996C20.3461 29.2996 17.6301 29.9996 14.0181 29.9996H0.578125ZM4.73612 26.6816H13.9341C16.1741 26.6816 17.8541 26.2756 18.9741 25.4636C20.1221 24.6236 20.6961 23.3496 20.6961 21.6416C20.6961 19.9336 20.1221 18.6876 18.9741 17.9036C17.8541 17.1196 16.1741 16.7276 13.9341 16.7276H4.73612V26.6816ZM4.73612 13.5356H12.9261C14.9701 13.5356 16.5241 13.1296 17.5881 12.3176C18.6801 11.5056 19.2261 10.3156 19.2261 8.74761C19.2261 7.15161 18.6801 5.94761 17.5881 5.13561C16.5241 4.32361 14.9701 3.91761 12.9261 3.91761H4.73612V13.5356Z" fill="#163C51"/>
</svg>
