<svg width="257" height="37" viewBox="0 0 257 37" fill="none" xmlns="http://www.w3.org/2000/svg">
<path opacity="0.5" d="M246.305 32.2533C243.925 32.2533 241.825 31.7633 240.005 30.7833C238.213 29.8033 236.813 28.4593 235.805 26.7513C234.825 25.0433 234.335 23.0833 234.335 20.8713C234.335 18.6593 234.811 16.6992 235.763 14.9912C236.743 13.2832 238.073 11.9533 239.753 11.0013C241.461 10.0213 243.379 9.53125 245.507 9.53125C247.663 9.53125 249.567 10.0073 251.219 10.9592C252.871 11.9113 254.159 13.2552 255.083 14.9912C256.035 16.6992 256.511 18.7013 256.511 20.9972C256.511 21.1652 256.497 21.3613 256.469 21.5853C256.469 21.8093 256.455 22.0192 256.427 22.2153H237.485V19.3173H254.327L252.689 20.3253C252.717 18.8973 252.423 17.6233 251.807 16.5033C251.191 15.3833 250.337 14.5153 249.245 13.8993C248.181 13.2552 246.935 12.9333 245.507 12.9333C244.107 12.9333 242.861 13.2552 241.769 13.8993C240.677 14.5153 239.823 15.3973 239.207 16.5452C238.591 17.6653 238.283 18.9533 238.283 20.4093V21.0813C238.283 22.5653 238.619 23.8953 239.291 25.0713C239.991 26.2193 240.957 27.1152 242.189 27.7593C243.421 28.4033 244.835 28.7253 246.431 28.7253C247.747 28.7253 248.937 28.5012 250.001 28.0532C251.093 27.6052 252.045 26.9333 252.857 26.0373L255.083 28.6413C254.075 29.8173 252.815 30.7133 251.303 31.3293C249.819 31.9452 248.153 32.2533 246.305 32.2533Z" fill="#163C51"/>
<path opacity="0.5" d="M207.23 32.0002V9.74023H211.262V25.9522L224.912 9.74023H228.566V32.0002H224.534V15.7882L210.926 32.0002H207.23Z" fill="#163C51"/>
<path opacity="0.5" d="M178.643 32.0002V9.74023H182.675V19.1902H195.359V9.74023H199.391V32.0002H195.359V22.6762H182.675V32.0002H178.643Z" fill="#163C51"/>
<path opacity="0.5" d="M162.182 32.2533C159.802 32.2533 157.702 31.7633 155.882 30.7833C154.09 29.8033 152.69 28.4593 151.682 26.7513C150.702 25.0433 150.212 23.0833 150.212 20.8713C150.212 18.6593 150.688 16.6992 151.64 14.9912C152.62 13.2832 153.95 11.9533 155.63 11.0013C157.338 10.0213 159.256 9.53125 161.384 9.53125C163.54 9.53125 165.444 10.0073 167.096 10.9592C168.748 11.9113 170.036 13.2552 170.96 14.9912C171.912 16.6992 172.388 18.7013 172.388 20.9972C172.388 21.1652 172.374 21.3613 172.346 21.5853C172.346 21.8093 172.332 22.0192 172.304 22.2153H153.362V19.3173H170.204L168.566 20.3253C168.594 18.8973 168.3 17.6233 167.684 16.5033C167.068 15.3833 166.214 14.5153 165.122 13.8993C164.058 13.2552 162.812 12.9333 161.384 12.9333C159.984 12.9333 158.738 13.2552 157.646 13.8993C156.554 14.5153 155.7 15.3973 155.084 16.5452C154.468 17.6653 154.16 18.9533 154.16 20.4093V21.0813C154.16 22.5653 154.496 23.8953 155.168 25.0713C155.868 26.2193 156.834 27.1152 158.066 27.7593C159.298 28.4033 160.712 28.7253 162.308 28.7253C163.624 28.7253 164.814 28.5012 165.878 28.0532C166.97 27.6052 167.922 26.9333 168.734 26.0373L170.96 28.6413C169.952 29.8173 168.692 30.7133 167.18 31.3293C165.696 31.9452 164.03 32.2533 162.182 32.2533Z" fill="#163C51"/>
<path opacity="0.5" d="M127.514 28.4722L126.59 29.5222V9.74023H130.622V29.5222L129.614 28.4722H141.374L140.408 29.5222V9.74023H144.44V32.0002H112.73V9.74023H116.762V29.5222L115.796 28.4722H127.514ZM143.936 36.7462V30.9502L144.902 32.0002H140.198V28.4722H147.716V36.7462H143.936Z" fill="#163C51"/>
<path opacity="0.5" d="M95.2121 32.3361C93.3641 32.3361 91.7261 32.0421 90.2981 31.4541C88.8981 30.8661 87.6941 29.9981 86.6861 28.8501C85.6781 27.6741 84.9081 26.2041 84.3761 24.4401C83.8721 22.6481 83.6201 20.5481 83.6201 18.1401C83.6201 16.2361 83.7881 14.5281 84.1241 13.0161C84.4601 11.5041 84.9361 10.1601 85.5521 8.98406C86.1961 7.80806 86.9801 6.78606 87.9041 5.91806C88.8561 5.05006 89.9201 4.33606 91.0961 3.77606C92.3001 3.18806 93.6161 2.74006 95.0441 2.43206L105.208 0.164062L105.796 3.90206L96.4301 5.91806C95.8701 6.03006 95.1981 6.19806 94.4141 6.42206C93.6301 6.64606 92.8321 6.99606 92.0201 7.47206C91.2081 7.92006 90.4521 8.55006 89.7521 9.36206C89.0521 10.1741 88.4921 11.2381 88.0721 12.5541C87.6521 13.8421 87.4421 15.4381 87.4421 17.3421C87.4421 17.8741 87.4561 18.2801 87.4841 18.5601C87.5121 18.8401 87.5401 19.1201 87.5681 19.4001C87.6241 19.6801 87.6661 20.1001 87.6941 20.6601L86.0141 18.9381C86.4621 17.3981 87.1761 16.0541 88.1561 14.9061C89.1361 13.7581 90.3121 12.8761 91.6841 12.2601C93.0841 11.6161 94.6101 11.2941 96.2621 11.2941C98.3341 11.2941 100.168 11.7421 101.764 12.6381C103.388 13.5341 104.662 14.7661 105.586 16.3341C106.51 17.9021 106.972 19.6941 106.972 21.7101C106.972 23.7541 106.482 25.5881 105.502 27.2121C104.55 28.8081 103.192 30.0681 101.428 30.9921C99.6641 31.8881 97.5921 32.3361 95.2121 32.3361ZM95.5901 28.9761C97.0181 28.9761 98.2781 28.6681 99.3701 28.0521C100.462 27.4081 101.316 26.5541 101.932 25.4901C102.548 24.3981 102.856 23.1801 102.856 21.8361C102.856 20.4921 102.548 19.3021 101.932 18.2661C101.316 17.2301 100.462 16.4181 99.3701 15.8301C98.2781 15.2141 96.9901 14.9061 95.5061 14.9061C94.1061 14.9061 92.8461 15.2001 91.7261 15.7881C90.6061 16.3481 89.7381 17.1461 89.1221 18.1821C88.5061 19.1901 88.1981 20.3661 88.1981 21.7101C88.1981 23.0541 88.5061 24.2861 89.1221 25.4061C89.7661 26.4981 90.6341 27.3661 91.7261 28.0101C92.8461 28.6541 94.1341 28.9761 95.5901 28.9761Z" fill="#163C51"/>
<path opacity="0.5" d="M67.55 32.2533C65.31 32.2533 63.322 31.7633 61.586 30.7833C59.85 29.8033 58.478 28.4593 57.47 26.7513C56.462 25.0153 55.958 23.0553 55.958 20.8713C55.958 18.6593 56.462 16.6992 57.47 14.9912C58.478 13.2832 59.85 11.9533 61.586 11.0013C63.322 10.0213 65.31 9.53125 67.55 9.53125C69.762 9.53125 71.736 10.0213 73.472 11.0013C75.236 11.9533 76.608 13.2832 77.588 14.9912C78.596 16.6712 79.1 18.6313 79.1 20.8713C79.1 23.0833 78.596 25.0433 77.588 26.7513C76.608 28.4593 75.236 29.8033 73.472 30.7833C71.736 31.7633 69.762 32.2533 67.55 32.2533ZM67.55 28.7253C68.978 28.7253 70.252 28.4033 71.372 27.7593C72.52 27.1152 73.416 26.2053 74.06 25.0293C74.704 23.8253 75.026 22.4393 75.026 20.8713C75.026 19.2752 74.704 17.9033 74.06 16.7553C73.416 15.5793 72.52 14.6692 71.372 14.0252C70.252 13.3812 68.978 13.0592 67.55 13.0592C66.122 13.0592 64.848 13.3812 63.728 14.0252C62.608 14.6692 61.712 15.5793 61.04 16.7553C60.368 17.9033 60.032 19.2752 60.032 20.8713C60.032 22.4393 60.368 23.8253 61.04 25.0293C61.712 26.2053 62.608 27.1152 63.728 27.7593C64.848 28.4033 66.122 28.7253 67.55 28.7253Z" fill="#163C51"/>
<path opacity="0.5" d="M40.6438 32.2533C38.4038 32.2533 36.4158 31.7633 34.6798 30.7833C32.9438 29.8033 31.5718 28.4593 30.5638 26.7513C29.5558 25.0153 29.0518 23.0553 29.0518 20.8713C29.0518 18.6593 29.5558 16.6992 30.5638 14.9912C31.5718 13.2832 32.9438 11.9533 34.6798 11.0013C36.4158 10.0213 38.4038 9.53125 40.6438 9.53125C42.8558 9.53125 44.8298 10.0213 46.5658 11.0013C48.3298 11.9533 49.7018 13.2832 50.6818 14.9912C51.6898 16.6712 52.1938 18.6313 52.1938 20.8713C52.1938 23.0833 51.6898 25.0433 50.6818 26.7513C49.7018 28.4593 48.3298 29.8033 46.5658 30.7833C44.8298 31.7633 42.8558 32.2533 40.6438 32.2533ZM40.6438 28.7253C42.0718 28.7253 43.3458 28.4033 44.4658 27.7593C45.6138 27.1152 46.5098 26.2053 47.1538 25.0293C47.7978 23.8253 48.1198 22.4393 48.1198 20.8713C48.1198 19.2752 47.7978 17.9033 47.1538 16.7553C46.5098 15.5793 45.6138 14.6692 44.4658 14.0252C43.3458 13.3812 42.0718 13.0592 40.6438 13.0592C39.2158 13.0592 37.9418 13.3812 36.8218 14.0252C35.7018 14.6692 34.8058 15.5793 34.1338 16.7553C33.4618 17.9033 33.1258 19.2752 33.1258 20.8713C33.1258 22.4393 33.4618 23.8253 34.1338 25.0293C34.8058 26.2053 35.7018 27.1152 36.8218 27.7593C37.9418 28.4033 39.2158 28.7253 40.6438 28.7253Z" fill="#163C51"/>
<path opacity="0.5" d="M15.7246 32.3357C13.4846 32.3357 11.4126 31.9717 9.50857 31.2437C7.63257 30.4877 5.99457 29.4377 4.59457 28.0937C3.22257 26.7217 2.14457 25.1257 1.36057 23.3057C0.57657 21.4857 0.18457 19.4837 0.18457 17.2997C0.18457 15.1157 0.57657 13.1137 1.36057 11.2937C2.14457 9.47367 3.23657 7.89167 4.63657 6.54767C6.03657 5.17567 7.67457 4.12567 9.55057 3.39767C11.4546 2.64167 13.5266 2.26367 15.7666 2.26367C18.0346 2.26367 20.1206 2.65567 22.0246 3.43967C23.9566 4.19567 25.5946 5.32967 26.9386 6.84167L24.2086 9.48767C23.0886 8.31167 21.8286 7.44367 20.4286 6.88367C19.0286 6.29567 17.5306 6.00167 15.9346 6.00167C14.2826 6.00167 12.7426 6.28167 11.3146 6.84167C9.91457 7.40167 8.69657 8.18567 7.66057 9.19367C6.62457 10.2017 5.81257 11.4057 5.22457 12.8057C4.66457 14.1777 4.38457 15.6757 4.38457 17.2997C4.38457 18.9237 4.66457 20.4357 5.22457 21.8357C5.81257 23.2077 6.62457 24.3977 7.66057 25.4057C8.69657 26.4137 9.91457 27.1977 11.3146 27.7577C12.7426 28.3177 14.2826 28.5977 15.9346 28.5977C17.5306 28.5977 19.0286 28.3177 20.4286 27.7577C21.8286 27.1697 23.0886 26.2737 24.2086 25.0697L26.9386 27.7157C25.5946 29.2277 23.9566 30.3757 22.0246 31.1597C20.1206 31.9437 18.0206 32.3357 15.7246 32.3357Z" fill="#163C51"/>
</svg>
