<svg width="200" height="41" viewBox="0 0 200 41" fill="none" xmlns="http://www.w3.org/2000/svg">
<path d="M196.373 15.2852C195.589 15.2852 194.917 15.0192 194.357 14.4872C193.797 13.9272 193.517 13.2273 193.517 12.3873C193.517 11.5473 193.797 10.8613 194.357 10.3293C194.917 9.79725 195.589 9.53125 196.373 9.53125C197.129 9.53125 197.773 9.79725 198.305 10.3293C198.865 10.8613 199.145 11.5473 199.145 12.3873C199.145 13.2273 198.865 13.9272 198.305 14.4872C197.773 15.0192 197.129 15.2852 196.373 15.2852ZM196.373 32.2533C195.589 32.2533 194.917 31.9872 194.357 31.4552C193.797 30.8953 193.517 30.1953 193.517 29.3553C193.517 28.5153 193.797 27.8293 194.357 27.2973C194.917 26.7653 195.589 26.4993 196.373 26.4993C197.129 26.4993 197.773 26.7653 198.305 27.2973C198.865 27.8293 199.145 28.5153 199.145 29.3553C199.145 30.1953 198.865 30.8953 198.305 31.4552C197.773 31.9872 197.129 32.2533 196.373 32.2533Z" fill="#163C51"/>
<path d="M166.903 32.0002V9.74023H170.935V19.1902H183.619V9.74023H187.651V32.0002H183.619V22.6762H170.935V32.0002H166.903Z" fill="#163C51"/>
<path d="M149.53 32.2533C147.29 32.2533 145.302 31.7633 143.566 30.7833C141.83 29.8033 140.458 28.4593 139.45 26.7513C138.442 25.0153 137.938 23.0553 137.938 20.8713C137.938 18.6593 138.442 16.6992 139.45 14.9912C140.458 13.2832 141.83 11.9533 143.566 11.0013C145.302 10.0213 147.29 9.53125 149.53 9.53125C151.742 9.53125 153.716 10.0213 155.452 11.0013C157.216 11.9533 158.588 13.2832 159.568 14.9912C160.576 16.6712 161.08 18.6313 161.08 20.8713C161.08 23.0833 160.576 25.0433 159.568 26.7513C158.588 28.4593 157.216 29.8033 155.452 30.7833C153.716 31.7633 151.742 32.2533 149.53 32.2533ZM149.53 28.7253C150.958 28.7253 152.232 28.4033 153.352 27.7593C154.5 27.1152 155.396 26.2053 156.04 25.0293C156.684 23.8253 157.006 22.4393 157.006 20.8713C157.006 19.2752 156.684 17.9033 156.04 16.7553C155.396 15.5793 154.5 14.6692 153.352 14.0252C152.232 13.3812 150.958 13.0592 149.53 13.0592C148.102 13.0592 146.828 13.3812 145.708 14.0252C144.588 14.6692 143.692 15.5793 143.02 16.7553C142.348 17.9033 142.012 19.2752 142.012 20.8713C142.012 22.4393 142.348 23.8253 143.02 25.0293C143.692 26.2053 144.588 27.1152 145.708 27.7593C146.828 28.4033 148.102 28.7253 149.53 28.7253Z" fill="#163C51"/>
<path d="M119.472 32.3359C119.444 32.3359 119.346 32.3359 119.178 32.3359C119.038 32.3359 118.898 32.3359 118.758 32.3359C118.618 32.3359 118.534 32.3359 118.506 32.3359C113.942 32.2799 110.4 31.2719 107.88 29.3119C105.36 27.3239 104.1 24.4959 104.1 20.8279C104.1 17.1879 105.36 14.4019 107.88 12.4699C110.428 10.5099 114.012 9.51594 118.632 9.48794C118.688 9.48794 118.772 9.48794 118.884 9.48794C119.024 9.48794 119.15 9.48794 119.262 9.48794C119.402 9.48794 119.486 9.48794 119.514 9.48794C124.19 9.48794 127.816 10.4679 130.392 12.4279C132.996 14.3879 134.298 17.1879 134.298 20.8279C134.298 24.5239 132.996 27.3659 130.392 29.3539C127.788 31.3419 124.148 32.3359 119.472 32.3359ZM119.388 28.8079C121.824 28.8079 123.84 28.4999 125.436 27.8839C127.06 27.2679 128.278 26.3719 129.09 25.1959C129.902 24.0199 130.308 22.5639 130.308 20.8279C130.308 19.1199 129.902 17.6919 129.09 16.5439C128.278 15.3959 127.06 14.5279 125.436 13.9399C123.84 13.3519 121.824 13.0579 119.388 13.0579C119.332 13.0579 119.22 13.0579 119.052 13.0579C118.884 13.0579 118.786 13.0579 118.758 13.0579C116.378 13.0579 114.39 13.3659 112.794 13.9819C111.226 14.5699 110.05 15.4379 109.266 16.5859C108.482 17.7339 108.09 19.1479 108.09 20.8279C108.09 22.5359 108.482 23.9779 109.266 25.1539C110.078 26.3299 111.268 27.2259 112.836 27.8419C114.432 28.4579 116.406 28.7799 118.758 28.8079C118.814 28.8079 118.912 28.8079 119.052 28.8079C119.22 28.8079 119.332 28.8079 119.388 28.8079ZM117.204 40.1479V0.835938H121.152V40.1479H117.204Z" fill="#163C51"/>
<path d="M89.7386 32.2533C87.3586 32.2533 85.2586 31.7633 83.4386 30.7833C81.6466 29.8033 80.2466 28.4593 79.2386 26.7513C78.2586 25.0433 77.7686 23.0833 77.7686 20.8713C77.7686 18.6593 78.2446 16.6992 79.1966 14.9912C80.1766 13.2832 81.5066 11.9533 83.1866 11.0013C84.8946 10.0213 86.8126 9.53125 88.9406 9.53125C91.0966 9.53125 93.0006 10.0073 94.6526 10.9592C96.3046 11.9113 97.5926 13.2552 98.5166 14.9912C99.4686 16.6992 99.9446 18.7013 99.9446 20.9972C99.9446 21.1652 99.9306 21.3613 99.9026 21.5853C99.9026 21.8093 99.8886 22.0192 99.8606 22.2153H80.9186V19.3173H97.7606L96.1226 20.3253C96.1506 18.8973 95.8566 17.6233 95.2406 16.5033C94.6246 15.3833 93.7706 14.5153 92.6786 13.8993C91.6146 13.2552 90.3686 12.9333 88.9406 12.9333C87.5406 12.9333 86.2946 13.2552 85.2026 13.8993C84.1106 14.5153 83.2566 15.3973 82.6406 16.5452C82.0246 17.6653 81.7166 18.9533 81.7166 20.4093V21.0813C81.7166 22.5653 82.0526 23.8953 82.7246 25.0713C83.4246 26.2193 84.3906 27.1152 85.6226 27.7593C86.8546 28.4033 88.2686 28.7253 89.8646 28.7253C91.1806 28.7253 92.3706 28.5012 93.4346 28.0532C94.5266 27.6052 95.4786 26.9333 96.2906 26.0373L98.5166 28.6413C97.5086 29.8173 96.2486 30.7133 94.7366 31.3293C93.2526 31.9452 91.5866 32.2533 89.7386 32.2533Z" fill="#163C51"/>
<path d="M49.2246 31.9582L49.4766 28.5562C49.6726 28.5842 49.8546 28.6122 50.0226 28.6402C50.1906 28.6682 50.3446 28.6822 50.4846 28.6822C51.3806 28.6822 52.0806 28.3742 52.5846 27.7582C53.1166 27.1422 53.5086 26.3302 53.7606 25.3222C54.0126 24.2862 54.1946 23.1242 54.3066 21.8362C54.4186 20.5482 54.5026 19.2602 54.5586 17.9722L54.9366 9.74023H72.0306V32.0002H67.9986V12.0922L68.9646 13.2682H57.5406L58.4646 12.0502L58.1706 18.2242C58.0866 20.1842 57.9326 22.0182 57.7086 23.7262C57.4846 25.4342 57.1346 26.9322 56.6586 28.2202C56.2106 29.5082 55.5806 30.5162 54.7686 31.2442C53.9846 31.9722 52.9626 32.3362 51.7026 32.3362C51.3386 32.3362 50.9466 32.2942 50.5266 32.2102C50.1346 32.1542 49.7006 32.0702 49.2246 31.9582Z" fill="#163C51"/>
<path d="M36.8284 32.2533C34.4484 32.2533 32.3484 31.7633 30.5284 30.7833C28.7364 29.8033 27.3364 28.4593 26.3284 26.7513C25.3484 25.0433 24.8584 23.0833 24.8584 20.8713C24.8584 18.6593 25.3344 16.6992 26.2864 14.9912C27.2664 13.2832 28.5964 11.9533 30.2764 11.0013C31.9844 10.0213 33.9024 9.53125 36.0304 9.53125C38.1864 9.53125 40.0904 10.0073 41.7424 10.9592C43.3944 11.9113 44.6824 13.2552 45.6064 14.9912C46.5584 16.6992 47.0344 18.7013 47.0344 20.9972C47.0344 21.1652 47.0204 21.3613 46.9924 21.5853C46.9924 21.8093 46.9784 22.0192 46.9504 22.2153H28.0084V19.3173H44.8504L43.2124 20.3253C43.2404 18.8973 42.9464 17.6233 42.3304 16.5033C41.7144 15.3833 40.8604 14.5153 39.7684 13.8993C38.7044 13.2552 37.4584 12.9333 36.0304 12.9333C34.6304 12.9333 33.3844 13.2552 32.2924 13.8993C31.2004 14.5153 30.3464 15.3973 29.7304 16.5452C29.1144 17.6653 28.8064 18.9533 28.8064 20.4093V21.0813C28.8064 22.5653 29.1424 23.8953 29.8144 25.0713C30.5144 26.2193 31.4804 27.1152 32.7124 27.7593C33.9444 28.4033 35.3584 28.7253 36.9544 28.7253C38.2704 28.7253 39.4604 28.5012 40.5244 28.0532C41.6164 27.6052 42.5684 26.9333 43.3804 26.0373L45.6064 28.6413C44.5984 29.8173 43.3384 30.7133 41.8264 31.3293C40.3424 31.9452 38.6764 32.2533 36.8284 32.2533Z" fill="#163C51"/>
<path d="M10.5849 31.9996V5.16161L11.6349 6.25361H0.546875V2.59961H24.7809V6.25361H13.6929L14.7009 5.16161V31.9996H10.5849Z" fill="#163C51"/>
</svg>
