<svg width="316" height="35" viewBox="0 0 316 35" fill="none" xmlns="http://www.w3.org/2000/svg">
<path d="M311.275 27.2999C310.277 27.2999 309.453 26.9879 308.804 26.3638C308.155 25.7147 307.83 24.9033 307.83 23.9297C307.83 22.7563 308.205 21.8201 308.953 21.1211C309.727 20.3971 310.651 20.0352 311.725 20.0352C312.723 20.0352 313.535 20.3472 314.159 20.9713C314.808 21.5955 315.132 22.4068 315.132 23.4054C315.132 24.1793 314.945 24.8659 314.571 25.465C314.221 26.0392 313.759 26.4886 313.185 26.8131C312.611 27.1377 311.974 27.2999 311.275 27.2999Z" fill="#163C51"/>
<path d="M301.474 27.2999C300.476 27.2999 299.652 26.9879 299.003 26.3638C298.354 25.7147 298.029 24.9033 298.029 23.9297C298.029 22.7563 298.404 21.8201 299.153 21.1211C299.927 20.3971 300.85 20.0352 301.924 20.0352C302.922 20.0352 303.734 20.3472 304.358 20.9713C305.007 21.5955 305.332 22.4068 305.332 23.4054C305.332 24.1793 305.144 24.8659 304.77 25.465C304.42 26.0392 303.958 26.4886 303.384 26.8131C302.81 27.1377 302.173 27.2999 301.474 27.2999Z" fill="#163C51"/>
<path d="M291.674 27.2999C290.675 27.2999 289.851 26.9879 289.202 26.3638C288.553 25.7147 288.229 24.9033 288.229 23.9297C288.229 22.7563 288.603 21.8201 289.352 21.1211C290.126 20.3971 291.05 20.0352 292.123 20.0352C293.122 20.0352 293.933 20.3472 294.557 20.9713C295.206 21.5955 295.531 22.4068 295.531 23.4054C295.531 24.1793 295.343 24.8659 294.969 25.465C294.62 26.0392 294.158 26.4886 293.583 26.8131C293.009 27.1377 292.373 27.2999 291.674 27.2999Z" fill="#163C51"/>
<path d="M276.14 27.3005C274.043 27.3005 272.22 26.926 270.673 26.1771C269.15 25.4282 267.964 24.3796 267.115 23.0315C266.266 21.6834 265.842 20.0981 265.842 18.2757C265.842 16.0289 266.341 14.0317 267.34 12.2841C268.363 10.5116 269.761 9.11359 271.534 8.09003C273.331 7.06647 275.391 6.55469 277.713 6.55469C279.685 6.55469 281.382 6.92916 282.805 7.67811C284.228 8.40209 285.327 9.42565 286.101 10.7488C286.9 12.047 287.299 13.6073 287.299 15.4297C287.299 15.954 287.262 16.4782 287.187 17.0025C287.137 17.5268 287.062 18.0261 286.962 18.5004H270.298L270.897 15.0927H284.228L281.832 16.1412C282.032 15.0178 281.969 14.0816 281.645 13.3327C281.32 12.5587 280.796 11.9721 280.072 11.5726C279.348 11.1482 278.474 10.936 277.451 10.936C276.177 10.936 275.091 11.2481 274.193 11.8722C273.319 12.4714 272.657 13.3077 272.208 14.3812C271.758 15.4547 271.534 16.6655 271.534 18.0136C271.534 19.5614 271.958 20.7223 272.807 21.4962C273.681 22.2451 274.991 22.6196 276.739 22.6196C277.763 22.6196 278.749 22.4573 279.697 22.1328C280.646 21.8082 281.457 21.3464 282.131 20.7472L284.565 24.6043C283.392 25.528 282.069 26.2146 280.596 26.6639C279.148 27.0883 277.663 27.3005 276.14 27.3005Z" fill="#163C51"/>
<path d="M242.957 22.2069L241.384 23.555L244.642 6.85352H250.484L247.226 23.555L246.14 22.2069H255.427L253.817 23.555L257.075 6.85352H262.917L258.872 27.0002H228.128L232.172 6.85352H237.977L234.719 23.555L233.67 22.2069H242.957ZM255.464 31.0071L256.55 25.6521L257.562 27.0002H252.918L253.892 22.2069H262.692L260.894 31.0071H255.464Z" fill="#163C51"/>
<path d="M215.178 27.3005C213.081 27.3005 211.258 26.926 209.711 26.1771C208.188 25.4282 207.002 24.3796 206.153 23.0315C205.304 21.6834 204.88 20.0981 204.88 18.2757C204.88 16.0289 205.379 14.0317 206.378 12.2841C207.401 10.5116 208.799 9.11359 210.572 8.09003C212.369 7.06647 214.429 6.55469 216.751 6.55469C218.723 6.55469 220.421 6.92916 221.844 7.67811C223.267 8.40209 224.365 9.42565 225.139 10.7488C225.938 12.047 226.337 13.6073 226.337 15.4297C226.337 15.954 226.3 16.4782 226.225 17.0025C226.175 17.5268 226.1 18.0261 226 18.5004H209.336L209.935 15.0927H223.267L220.87 16.1412C221.07 15.0178 221.007 14.0816 220.683 13.3327C220.358 12.5587 219.834 11.9721 219.11 11.5726C218.386 11.1482 217.512 10.936 216.489 10.936C215.215 10.936 214.129 11.2481 213.231 11.8722C212.357 12.4714 211.695 13.3077 211.246 14.3812C210.797 15.4547 210.572 16.6655 210.572 18.0136C210.572 19.5614 210.996 20.7223 211.845 21.4962C212.719 22.2451 214.03 22.6196 215.777 22.6196C216.801 22.6196 217.787 22.4573 218.735 22.1328C219.684 21.8082 220.495 21.3464 221.169 20.7472L223.604 24.6043C222.43 25.528 221.107 26.2146 219.634 26.6639C218.186 27.0883 216.701 27.3005 215.178 27.3005Z" fill="#163C51"/>
<path d="M184.557 13.2945C186.904 13.2945 188.676 13.7813 189.874 14.7549C191.098 15.7036 191.709 17.1266 191.709 19.0239C191.709 20.6217 191.285 22.0197 190.436 23.218C189.612 24.4163 188.451 25.3525 186.953 26.0266C185.456 26.6756 183.683 27.0002 181.636 27.0002H171.226L175.27 6.85352H181.074L179.801 13.2945H184.557ZM181.636 22.881C182.485 22.881 183.221 22.7437 183.845 22.4691C184.469 22.1695 184.956 21.7576 185.306 21.2333C185.655 20.709 185.83 20.0849 185.83 19.3609C185.83 17.8381 184.831 17.0766 182.834 17.0766H179.052L177.891 22.881H181.636Z" fill="#163C51"/>
<path d="M155.492 27.0002L158.75 10.2987L159.798 11.6468H151.747L152.721 6.85352H172.156L171.182 11.6468H162.981L164.592 10.2987L161.334 27.0002H155.492Z" fill="#163C51"/>
<path d="M138.931 27.3005C136.834 27.3005 135.011 26.926 133.464 26.1771C131.941 25.4282 130.755 24.3796 129.906 23.0315C129.057 21.6834 128.633 20.0981 128.633 18.2757C128.633 16.0289 129.132 14.0317 130.131 12.2841C131.154 10.5116 132.552 9.11359 134.325 8.09003C136.122 7.06647 138.182 6.55469 140.504 6.55469C142.476 6.55469 144.173 6.92916 145.596 7.67811C147.019 8.40209 148.118 9.42565 148.892 10.7488C149.691 12.047 150.09 13.6073 150.09 15.4297C150.09 15.954 150.053 16.4782 149.978 17.0025C149.928 17.5268 149.853 18.0261 149.753 18.5004H133.089L133.688 15.0927H147.019L144.623 16.1412C144.823 15.0178 144.76 14.0816 144.436 13.3327C144.111 12.5587 143.587 11.9721 142.863 11.5726C142.139 11.1482 141.265 10.936 140.241 10.936C138.968 10.936 137.882 11.2481 136.984 11.8722C136.11 12.4714 135.448 13.3077 134.999 14.3812C134.549 15.4547 134.325 16.6655 134.325 18.0136C134.325 19.5614 134.749 20.7223 135.598 21.4962C136.472 22.2451 137.782 22.6196 139.53 22.6196C140.554 22.6196 141.54 22.4573 142.488 22.1328C143.437 21.8082 144.248 21.3464 144.922 20.7472L147.356 24.6043C146.183 25.528 144.86 26.2146 143.387 26.6639C141.939 27.0883 140.454 27.3005 138.931 27.3005Z" fill="#163C51"/>
<path d="M114.992 27.3005C113.369 27.3005 111.946 26.9885 110.723 26.3643C109.524 25.7402 108.626 24.7791 108.027 23.4809C107.427 22.1578 107.215 20.4601 107.39 18.3881C107.54 15.9914 108.027 13.9069 108.85 12.1343C109.699 10.3618 110.848 8.98876 112.296 8.01513C113.744 7.0415 115.454 6.55469 117.426 6.55469C118.999 6.55469 120.447 6.91668 121.77 7.64066C123.093 8.33968 124.154 9.36324 124.953 10.7113C125.752 12.0345 126.151 13.6572 126.151 15.5795C126.151 17.2521 125.864 18.8125 125.29 20.2604C124.716 21.6834 123.917 22.9192 122.893 23.9677C121.895 25.0162 120.721 25.8401 119.373 26.4392C118.025 27.0134 116.565 27.3005 114.992 27.3005ZM100.649 34.2657L106.117 6.85426H111.659L110.835 10.8611L109.562 16.8527L108.775 22.8443L106.491 34.2657H100.649ZM114.318 22.4698C115.491 22.4698 116.515 22.1952 117.388 21.646C118.262 21.0718 118.949 20.2979 119.448 19.3242C119.972 18.3256 120.234 17.1648 120.234 15.8416C120.234 14.4686 119.835 13.3826 119.036 12.5837C118.237 11.7848 117.101 11.3854 115.628 11.3854C114.505 11.3854 113.494 11.6725 112.595 12.2467C111.696 12.7959 110.997 13.5698 110.498 14.5684C109.999 15.5421 109.749 16.6904 109.749 18.0136C109.749 19.3866 110.149 20.4726 110.947 21.2715C111.746 22.0704 112.87 22.4698 114.318 22.4698Z" fill="#163C51"/>
<path d="M86.3385 27.0002L89.5964 10.2987L90.6449 11.6468H82.5938L83.5674 6.85352H103.003L102.029 11.6468H93.828L95.4382 10.2987L92.1803 27.0002H86.3385Z" fill="#163C51"/>
<path d="M68.6014 27.3005C66.5542 27.3005 64.7692 26.926 63.2464 26.1771C61.7235 25.4282 60.5377 24.3796 59.6889 23.0315C58.865 21.6834 58.4531 20.0981 58.4531 18.2757C58.4531 16.0289 58.9774 14.0317 60.0259 12.2841C61.0744 10.5116 62.5099 9.11359 64.3324 8.09003C66.1798 7.06647 68.2768 6.55469 70.6235 6.55469C72.6956 6.55469 74.4806 6.92916 75.9785 7.67811C77.5013 8.42705 78.6747 9.47558 79.4985 10.8237C80.3473 12.1468 80.7717 13.7321 80.7717 15.5795C80.7717 17.8014 80.2475 19.7986 79.199 21.5711C78.1504 23.3436 76.7149 24.7416 74.8925 25.7652C73.0701 26.7887 70.973 27.3005 68.6014 27.3005ZM68.9758 22.5073C70.1242 22.5073 71.1353 22.2326 72.0091 21.6834C72.9078 21.1092 73.6068 20.3228 74.1061 19.3242C74.6054 18.3256 74.8551 17.1648 74.8551 15.8416C74.8551 14.4935 74.4556 13.4076 73.6567 12.5837C72.8579 11.7599 71.7344 11.3479 70.2865 11.3479C69.1381 11.3479 68.1145 11.635 67.2158 12.2092C66.342 12.7585 65.643 13.5324 65.1188 14.531C64.6195 15.5296 64.3698 16.6904 64.3698 18.0136C64.3698 19.3866 64.7692 20.4851 65.5681 21.3089C66.367 22.1078 67.5029 22.5073 68.9758 22.5073Z" fill="#163C51"/>
<path d="M27.543 27.0002L31.5873 6.85352H37.6163L42.4845 20.6341H40.0504L50.9101 6.85352H56.4523L52.4829 27.0002H47.2028L49.9739 12.8451L50.8352 13.4443L41.6606 25.0529H39.1891L34.6205 13.0323L35.6316 12.7702L32.823 27.0002H27.543Z" fill="#163C51"/>
<path d="M13.9421 27.4498C11.2709 27.4498 8.96164 26.9754 7.01438 26.0268C5.09208 25.0531 3.60667 23.7175 2.55814 22.0199C1.50961 20.2973 0.985352 18.3126 0.985352 16.0658C0.985352 13.8439 1.37231 11.7718 2.14622 9.84952C2.9451 7.92722 4.05604 6.26705 5.47903 4.86902C6.927 3.44602 8.63709 2.33508 10.6093 1.53621C12.6065 0.737328 14.8284 0.337891 17.275 0.337891C19.6217 0.337891 21.6937 0.737328 23.4912 1.53621C25.2887 2.33508 26.6493 3.48347 27.573 4.98136L23.1916 8.57631C22.5176 7.57771 21.6563 6.81628 20.6078 6.29202C19.5592 5.76776 18.311 5.50563 16.863 5.50563C15.3901 5.50563 14.0545 5.76776 12.8562 6.29202C11.6578 6.79132 10.6218 7.5153 9.74803 8.46396C8.89923 9.38767 8.25014 10.4736 7.80077 11.7219C7.3514 12.9701 7.12672 14.2933 7.12672 15.6913C7.12672 17.0144 7.41381 18.1753 7.98801 19.1739C8.5622 20.1475 9.39852 20.909 10.497 21.4582C11.5954 22.0074 12.9186 22.282 14.4664 22.282C15.8145 22.282 17.0752 22.0449 18.2486 21.5705C19.4219 21.0712 20.4829 20.2973 21.4316 19.2488L25.0266 22.9186C23.6535 24.5164 22.0183 25.6773 20.1209 26.4012C18.2486 27.1003 16.189 27.4498 13.9421 27.4498Z" fill="#163C51"/>
</svg>
