<svg width="140" height="27" viewBox="0 0 140 27" fill="none" xmlns="http://www.w3.org/2000/svg">
<path d="M129.344 10.629H133.624C134.968 10.629 136.113 10.8516 137.058 11.2969C138.012 11.733 138.739 12.3418 139.239 13.1233C139.748 13.9047 140.002 14.8088 140.002 15.8356C140.002 16.5806 139.857 17.2712 139.566 17.9073C139.285 18.5342 138.871 19.0794 138.326 19.5428C137.781 20.0062 137.113 20.3651 136.322 20.6196C135.532 20.874 134.632 21.0012 133.624 21.0012H126.891V6.25391H130.83V17.9481H133.624C134.214 17.9481 134.687 17.8527 135.041 17.6619C135.405 17.462 135.668 17.2031 135.832 16.885C136.004 16.567 136.091 16.2217 136.091 15.8492C136.091 15.4585 136.004 15.1041 135.832 14.7861C135.668 14.459 135.405 14.1955 135.041 13.9955C134.687 13.7956 134.214 13.6957 133.624 13.6957H129.344V10.629Z" fill="white"/>
<path d="M119.885 6.25391V21.0012H115.946V6.25391H119.885ZM124.629 6.25391V9.29332H111.271V6.25391H124.629Z" fill="white"/>
<path d="M100.476 15.5221L105.424 6.25391H109.349V21.0012H105.424V11.7194L100.476 21.0012H96.5508V6.25391H100.476V15.5221Z" fill="white"/>
<path d="M88.1284 14.8406H83.508L83.4807 12.2646H87.297C87.8059 12.2646 88.2193 12.2146 88.5373 12.1147C88.8553 12.0056 89.087 11.8466 89.2324 11.6376C89.3869 11.4195 89.4641 11.156 89.4641 10.8471C89.4641 10.5745 89.4142 10.3428 89.3142 10.152C89.2233 9.95208 89.0825 9.78853 88.8917 9.66132C88.7009 9.53411 88.4601 9.44324 88.1693 9.38873C87.8876 9.32512 87.556 9.29332 87.1743 9.29332H84.9664V21.0012H81.041V6.25391H87.1743C88.1375 6.25391 89.0007 6.34023 89.764 6.51287C90.5273 6.67643 91.1769 6.9263 91.713 7.2625C92.2582 7.5987 92.6716 8.02576 92.9533 8.54369C93.2441 9.05253 93.3895 9.65678 93.3895 10.3564C93.3895 10.8108 93.285 11.2378 93.076 11.6376C92.8761 12.0374 92.5762 12.3918 92.1764 12.7007C91.7766 13.0097 91.2814 13.2641 90.6908 13.464C90.1093 13.6548 89.4369 13.7729 88.6736 13.8184L88.1284 14.8406ZM88.1284 21.0012H82.5403L83.8896 17.9618H88.1284C88.61 17.9618 89.0053 17.9027 89.3142 17.7846C89.6231 17.6665 89.8503 17.4938 89.9957 17.2667C90.1502 17.0304 90.2274 16.7487 90.2274 16.4216C90.2274 16.1036 90.1592 15.8265 90.0229 15.5902C89.8867 15.354 89.664 15.1722 89.3551 15.045C89.0553 14.9087 88.6464 14.8406 88.1284 14.8406H84.4621L84.4893 12.2646H88.66L89.6141 13.3004C90.6499 13.364 91.504 13.5594 92.1764 13.8865C92.8488 14.2136 93.344 14.6316 93.6621 15.1404C93.9892 15.6402 94.1527 16.1899 94.1527 16.7896C94.1527 17.4893 94.021 18.1026 93.7575 18.6296C93.494 19.1566 93.1033 19.5973 92.5853 19.9517C92.0765 20.297 91.4495 20.5605 90.7044 20.7422C89.9593 20.9149 89.1007 21.0012 88.1284 21.0012Z" fill="white"/>
<path d="M73.8035 17.6747V11.1052C73.8035 10.6327 73.7262 10.2284 73.5718 9.89218C73.4173 9.5469 73.1765 9.27885 72.8494 9.08803C72.5314 8.89721 72.118 8.80181 71.6091 8.80181C71.173 8.80181 70.7959 8.87904 70.4778 9.03351C70.1598 9.17889 69.9145 9.39243 69.7419 9.6741C69.5692 9.9467 69.4829 10.2693 69.4829 10.6418H65.5575C65.5575 10.0148 65.7029 9.41968 65.9937 8.85633C66.2845 8.29297 66.707 7.79776 67.2612 7.37069C67.8155 6.93454 68.4743 6.5938 69.2375 6.34847C70.0099 6.10314 70.8731 5.98047 71.8272 5.98047C72.9721 5.98047 73.9897 6.17128 74.8802 6.55291C75.7707 6.93454 76.4703 7.50699 76.9792 8.27025C77.4971 9.03351 77.7561 9.98759 77.7561 11.1325V17.443C77.7561 18.2517 77.8061 18.915 77.906 19.4329C78.006 19.9418 78.1513 20.387 78.3422 20.7686V21.0003H74.3759C74.1851 20.6005 74.0397 20.1008 73.9398 19.5011C73.8489 18.8923 73.8035 18.2835 73.8035 17.6747ZM74.3214 12.0184L74.3487 14.24H72.1543C71.6364 14.24 71.1866 14.2991 70.805 14.4172C70.4233 14.5353 70.1099 14.7034 69.8645 14.9215C69.6192 15.1305 69.4374 15.3758 69.3193 15.6575C69.2103 15.9392 69.1558 16.2481 69.1558 16.5843C69.1558 16.9205 69.233 17.2249 69.3875 17.4975C69.542 17.761 69.7646 17.97 70.0553 18.1245C70.3461 18.2699 70.6868 18.3426 71.0775 18.3426C71.6682 18.3426 72.1816 18.2244 72.6177 17.9882C73.0539 17.7519 73.39 17.4612 73.6263 17.1159C73.8716 16.7706 73.9988 16.4435 74.0079 16.1346L75.0438 17.7974C74.8984 18.1699 74.6985 18.5561 74.4441 18.9559C74.1987 19.3557 73.8853 19.7328 73.5036 20.0872C73.122 20.4324 72.6631 20.7187 72.127 20.9458C71.5909 21.1639 70.9549 21.2729 70.2189 21.2729C69.283 21.2729 68.4334 21.0867 67.6701 20.7141C66.916 20.3325 66.3163 19.81 65.871 19.1467C65.4349 18.4743 65.2168 17.7111 65.2168 16.8569C65.2168 16.0846 65.3622 15.3986 65.653 14.7989C65.9437 14.1991 66.3708 13.6949 66.9341 13.286C67.5066 12.868 68.2199 12.5545 69.074 12.3455C69.9281 12.1274 70.9185 12.0184 72.0453 12.0184H74.3214Z" fill="white"/>
<path d="M54.0679 9.08803V26.6703H50.1426V6.25306H53.7817L54.0679 9.08803ZM63.4042 13.4631V13.7494C63.4042 14.8216 63.277 15.8165 63.0226 16.7343C62.7773 17.652 62.4138 18.4516 61.9322 19.1331C61.4506 19.8055 60.8509 20.3325 60.1331 20.7141C59.4244 21.0867 58.6066 21.2729 57.6798 21.2729C56.7802 21.2729 55.9988 21.0912 55.3355 20.7278C54.6722 20.3643 54.1133 19.8555 53.659 19.2012C53.2138 18.5379 52.8549 17.7701 52.5823 16.8978C52.3097 16.0255 52.1007 15.0896 51.9553 14.0901V13.3405C52.1007 12.2683 52.3097 11.2869 52.5823 10.3965C52.8549 9.49692 53.2138 8.72003 53.659 8.06581C54.1133 7.4025 54.6676 6.88911 55.3218 6.52565C55.9852 6.1622 56.762 5.98047 57.6525 5.98047C58.5884 5.98047 59.4107 6.15765 60.1195 6.51203C60.8373 6.8664 61.437 7.37524 61.9186 8.03855C62.4093 8.70186 62.7773 9.49238 63.0226 10.4101C63.277 11.3278 63.4042 12.3455 63.4042 13.4631ZM59.4653 13.7494V13.4631C59.4653 12.8362 59.4107 12.2592 59.3017 11.7322C59.2018 11.1961 59.0382 10.7281 58.811 10.3283C58.593 9.92852 58.3022 9.61959 57.9387 9.40151C57.5844 9.17435 57.1528 9.06077 56.6439 9.06077C56.1078 9.06077 55.649 9.14709 55.2673 9.31973C54.8948 9.49238 54.5904 9.74225 54.3541 10.0694C54.1179 10.3965 53.9407 10.7872 53.8226 11.2415C53.7045 11.6958 53.6318 12.2092 53.6045 12.7817V14.6762C53.6499 15.3486 53.7771 15.9528 53.9861 16.4889C54.1951 17.0159 54.5177 17.4339 54.9538 17.7429C55.39 18.0518 55.9624 18.2063 56.6712 18.2063C57.1891 18.2063 57.6253 18.0927 57.9796 17.8655C58.334 17.6293 58.6202 17.3067 58.8383 16.8978C59.0655 16.4889 59.2245 16.0164 59.3153 15.4803C59.4153 14.9442 59.4653 14.3672 59.4653 13.7494Z" fill="white"/>
<path d="M44.2544 6.25391V9.33421H37.1124V6.25391H44.2544ZM38.2437 6.25391V21.0012H34.3184V6.25391H38.2437ZM47.1166 6.25391V21.0012H43.1776V6.25391H47.1166Z" fill="white"/>
<path d="M27.5846 6.25391V21.0012H23.6457V6.25391H27.5846ZM32.3278 6.25391V9.29332H18.9707V6.25391H32.3278Z" fill="white"/>
<path d="M17.3764 10.6144V11.5548C17.3764 13.0632 17.1719 14.4171 16.763 15.6165C16.3541 16.8159 15.7771 17.8381 15.0321 18.6831C14.287 19.5191 13.3965 20.1597 12.3606 20.6049C11.3339 21.0502 10.1935 21.2728 8.9396 21.2728C7.69476 21.2728 6.55441 21.0502 5.51855 20.6049C4.49179 20.1597 3.60132 19.5191 2.84715 18.6831C2.09297 17.8381 1.5069 16.8159 1.08892 15.6165C0.680031 14.4171 0.475586 13.0632 0.475586 11.5548V10.6144C0.475586 9.09695 0.680031 7.74307 1.08892 6.55275C1.49781 5.35334 2.0748 4.33111 2.81989 3.48608C3.57406 2.64104 4.46453 1.9959 5.49129 1.55067C6.52715 1.10543 7.6675 0.882812 8.91234 0.882812C10.1663 0.882812 11.3066 1.10543 12.3334 1.55067C13.3692 1.9959 14.2597 2.64104 15.0048 3.48608C15.759 4.33111 16.3405 5.35334 16.7494 6.55275C17.1674 7.74307 17.3764 9.09695 17.3764 10.6144ZM13.2466 11.5548V10.5871C13.2466 9.5331 13.1512 8.60628 12.9604 7.80668C12.7695 7.00707 12.4879 6.33467 12.1153 5.78949C11.7428 5.2443 11.2884 4.83541 10.7523 4.56282C10.2162 4.28114 9.60291 4.1403 8.91234 4.1403C8.22177 4.1403 7.60843 4.28114 7.07233 4.56282C6.54532 4.83541 6.09554 5.2443 5.723 5.78949C5.35954 6.33467 5.08241 7.00707 4.89159 7.80668C4.70078 8.60628 4.60537 9.5331 4.60537 10.5871V11.5548C4.60537 12.5998 4.70078 13.5266 4.89159 14.3353C5.08241 15.1349 5.36409 15.8118 5.73663 16.3661C6.10918 16.9113 6.56349 17.3247 7.09959 17.6064C7.63569 17.8881 8.24903 18.0289 8.9396 18.0289C9.63017 18.0289 10.2435 17.8881 10.7796 17.6064C11.3157 17.3247 11.7655 16.9113 12.1289 16.3661C12.4924 15.8118 12.7695 15.1349 12.9604 14.3353C13.1512 13.5266 13.2466 12.5998 13.2466 11.5548Z" fill="white"/>
</svg>
