<svg width="161" height="20" viewBox="0 0 161 20" fill="none" xmlns="http://www.w3.org/2000/svg">
<path opacity="0.8" d="M152.368 16.0004V5.40039H160.168V7.08039H153.828L154.288 6.64039V16.0004H152.368Z" fill="#163C51"/>
<path opacity="0.8" d="M144.302 16.16C143.315 16.16 142.355 16.0067 141.422 15.7C140.502 15.3933 139.749 14.98 139.162 14.46L140.082 12.88C140.549 13.32 141.155 13.68 141.902 13.96C142.649 14.24 143.449 14.38 144.302 14.38C145.342 14.38 146.149 14.16 146.722 13.72C147.309 13.2667 147.602 12.66 147.602 11.9C147.602 11.1667 147.322 10.58 146.762 10.14C146.215 9.68667 145.342 9.46 144.142 9.46H143.022V8.06L147.182 2.94L147.462 3.74H139.802V2H149.042V3.36L144.902 8.46L143.862 7.84H144.522C146.215 7.84 147.482 8.22 148.322 8.98C149.175 9.74 149.602 10.7067 149.602 11.88C149.602 12.6667 149.409 13.3867 149.022 14.04C148.635 14.6933 148.049 15.2133 147.262 15.6C146.489 15.9733 145.502 16.16 144.302 16.16Z" fill="#163C51"/>
<path opacity="0.8" d="M128.318 15.9998V14.6398L134.018 9.13984C134.525 8.65984 134.898 8.23984 135.138 7.87984C135.392 7.50651 135.558 7.16651 135.638 6.85984C135.732 6.53984 135.778 6.23318 135.778 5.93984C135.778 5.21984 135.525 4.65318 135.018 4.23984C134.512 3.82651 133.772 3.61984 132.798 3.61984C132.052 3.61984 131.378 3.74651 130.778 3.99984C130.178 4.23984 129.658 4.61984 129.218 5.13984L127.858 3.95984C128.392 3.27984 129.105 2.75984 129.998 2.39984C130.905 2.02651 131.898 1.83984 132.978 1.83984C133.952 1.83984 134.798 1.99984 135.518 2.31984C136.238 2.62651 136.792 3.07318 137.178 3.65984C137.578 4.24651 137.778 4.93984 137.778 5.73984C137.778 6.19318 137.718 6.63984 137.598 7.07984C137.478 7.51984 137.252 7.98651 136.918 8.47984C136.585 8.97318 136.105 9.52651 135.478 10.1398L130.398 15.0398L129.918 14.2598H138.378V15.9998H128.318Z" fill="#163C51"/>
<path opacity="0.8" d="M120.918 16.1598C119.825 16.1598 118.845 15.8798 117.978 15.3198C117.125 14.7598 116.445 13.9465 115.938 12.8798C115.445 11.8132 115.198 10.5198 115.198 8.99984C115.198 7.47984 115.445 6.18651 115.938 5.11984C116.445 4.05318 117.125 3.23984 117.978 2.67984C118.845 2.11984 119.825 1.83984 120.918 1.83984C121.998 1.83984 122.972 2.11984 123.838 2.67984C124.705 3.23984 125.385 4.05318 125.878 5.11984C126.372 6.18651 126.618 7.47984 126.618 8.99984C126.618 10.5198 126.372 11.8132 125.878 12.8798C125.385 13.9465 124.705 14.7598 123.838 15.3198C122.972 15.8798 121.998 16.1598 120.918 16.1598ZM120.918 14.3798C121.652 14.3798 122.292 14.1798 122.838 13.7798C123.398 13.3798 123.832 12.7798 124.138 11.9798C124.458 11.1798 124.618 10.1865 124.618 8.99984C124.618 7.81318 124.458 6.81984 124.138 6.01984C123.832 5.21984 123.398 4.61984 122.838 4.21984C122.292 3.81984 121.652 3.61984 120.918 3.61984C120.185 3.61984 119.538 3.81984 118.978 4.21984C118.418 4.61984 117.978 5.21984 117.658 6.01984C117.352 6.81984 117.198 7.81318 117.198 8.99984C117.198 10.1865 117.352 11.1798 117.658 11.9798C117.978 12.7798 118.418 13.3798 118.978 13.7798C119.538 14.1798 120.185 14.3798 120.918 14.3798Z" fill="#163C51"/>
<path opacity="0.8" d="M103.514 15.9998V14.6398L109.214 9.13984C109.72 8.65984 110.094 8.23984 110.334 7.87984C110.587 7.50651 110.754 7.16651 110.834 6.85984C110.927 6.53984 110.974 6.23318 110.974 5.93984C110.974 5.21984 110.72 4.65318 110.214 4.23984C109.707 3.82651 108.967 3.61984 107.994 3.61984C107.247 3.61984 106.574 3.74651 105.974 3.99984C105.374 4.23984 104.854 4.61984 104.414 5.13984L103.054 3.95984C103.587 3.27984 104.3 2.75984 105.194 2.39984C106.1 2.02651 107.094 1.83984 108.174 1.83984C109.147 1.83984 109.994 1.99984 110.714 2.31984C111.434 2.62651 111.987 3.07318 112.374 3.65984C112.774 4.24651 112.974 4.93984 112.974 5.73984C112.974 6.19318 112.914 6.63984 112.794 7.07984C112.674 7.51984 112.447 7.98651 112.114 8.47984C111.78 8.97318 111.3 9.52651 110.674 10.1398L105.594 15.0398L105.114 14.2598H113.574V15.9998H103.514Z" fill="#163C51"/>
<path opacity="0.8" d="M93.7962 16.0004V12.2804L94.0962 12.6404H90.7162C89.3029 12.6404 88.1962 12.3404 87.3962 11.7404C86.6095 11.1404 86.2162 10.2671 86.2162 9.12039C86.2162 7.89372 86.6362 6.96706 87.4762 6.34039C88.3295 5.71372 89.4629 5.40039 90.8762 5.40039H95.5162V16.0004H93.7962ZM86.1162 16.0004L88.9962 11.9404H90.9762L88.1762 16.0004H86.1162ZM93.7962 11.6804V6.54039L94.0962 7.08039H90.9362C90.0562 7.08039 89.3762 7.24706 88.8962 7.58039C88.4162 7.90039 88.1762 8.43372 88.1762 9.18039C88.1762 10.5671 89.0695 11.2604 90.8562 11.2604H94.0962L93.7962 11.6804Z" fill="#163C51"/>
<path opacity="0.8" d="M79.2186 16.1208C78.3386 16.1208 77.532 15.9208 76.7986 15.5208C76.0786 15.1074 75.4986 14.5008 75.0586 13.7008C74.632 12.9008 74.4186 11.9008 74.4186 10.7008C74.4186 9.50078 74.6253 8.50078 75.0386 7.70078C75.4653 6.90078 76.0386 6.30078 76.7586 5.90078C77.492 5.50078 78.312 5.30078 79.2186 5.30078C80.2586 5.30078 81.1786 5.52745 81.9786 5.98078C82.7786 6.43412 83.412 7.06745 83.8786 7.88078C84.3453 8.68078 84.5786 9.62078 84.5786 10.7008C84.5786 11.7808 84.3453 12.7274 83.8786 13.5408C83.412 14.3541 82.7786 14.9874 81.9786 15.4408C81.1786 15.8941 80.2586 16.1208 79.2186 16.1208ZM73.5986 19.8808V5.40078H75.4386V8.26078L75.3186 10.7208L75.5186 13.1808V19.8808H73.5986ZM79.0586 14.4408C79.7386 14.4408 80.3453 14.2874 80.8786 13.9808C81.4253 13.6741 81.852 13.2408 82.1586 12.6808C82.4786 12.1074 82.6386 11.4474 82.6386 10.7008C82.6386 9.94078 82.4786 9.28745 82.1586 8.74078C81.852 8.18078 81.4253 7.74745 80.8786 7.44078C80.3453 7.13411 79.7386 6.98078 79.0586 6.98078C78.392 6.98078 77.7853 7.13411 77.2386 7.44078C76.7053 7.74745 76.2786 8.18078 75.9586 8.74078C75.652 9.28745 75.4986 9.94078 75.4986 10.7008C75.4986 11.4474 75.652 12.1074 75.9586 12.6808C76.2786 13.2408 76.7053 13.6741 77.2386 13.9808C77.7853 14.2874 78.392 14.4408 79.0586 14.4408Z" fill="#163C51"/>
<path opacity="0.8" d="M65.2563 16.1598C64.3763 16.1598 63.5963 16.0198 62.9163 15.7398C62.2497 15.4598 61.6763 15.0465 61.1963 14.4998C60.7163 13.9398 60.3497 13.2398 60.0963 12.3998C59.8563 11.5465 59.7363 10.5465 59.7363 9.39984C59.7363 8.49318 59.8163 7.67984 59.9763 6.95984C60.1363 6.23984 60.363 5.59984 60.6563 5.03984C60.963 4.47984 61.3363 3.99318 61.7763 3.57984C62.2297 3.16651 62.7363 2.82651 63.2963 2.55984C63.8697 2.27984 64.4963 2.06651 65.1763 1.91984L70.0163 0.839844L70.2963 2.61984L65.8363 3.57984C65.5697 3.63318 65.2497 3.71318 64.8763 3.81984C64.503 3.92651 64.123 4.09318 63.7363 4.31984C63.3497 4.53318 62.9897 4.83318 62.6563 5.21984C62.323 5.60651 62.0563 6.11318 61.8563 6.73984C61.6563 7.35318 61.5563 8.11318 61.5563 9.01984C61.5563 9.27318 61.563 9.46651 61.5763 9.59984C61.5897 9.73318 61.603 9.86651 61.6163 9.99984C61.643 10.1332 61.663 10.3332 61.6763 10.5998L60.8763 9.77984C61.0897 9.04651 61.4297 8.40651 61.8963 7.85984C62.363 7.31318 62.923 6.89318 63.5763 6.59984C64.243 6.29318 64.9697 6.13984 65.7563 6.13984C66.743 6.13984 67.6163 6.35318 68.3763 6.77984C69.1497 7.20651 69.7563 7.79318 70.1963 8.53984C70.6363 9.28651 70.8563 10.1398 70.8563 11.0998C70.8563 12.0732 70.623 12.9465 70.1563 13.7198C69.703 14.4798 69.0563 15.0798 68.2163 15.5198C67.3763 15.9465 66.3897 16.1598 65.2563 16.1598ZM65.4363 14.5598C66.1163 14.5598 66.7163 14.4132 67.2363 14.1198C67.7563 13.8132 68.163 13.4065 68.4563 12.8998C68.7497 12.3798 68.8963 11.7998 68.8963 11.1598C68.8963 10.5198 68.7497 9.95318 68.4563 9.45984C68.163 8.96651 67.7563 8.57984 67.2363 8.29984C66.7163 8.00651 66.103 7.85984 65.3963 7.85984C64.7297 7.85984 64.1297 7.99984 63.5963 8.27984C63.063 8.54651 62.6497 8.92651 62.3563 9.41984C62.063 9.89984 61.9163 10.4598 61.9163 11.0998C61.9163 11.7398 62.063 12.3265 62.3563 12.8598C62.663 13.3798 63.0763 13.7932 63.5963 14.0998C64.1297 14.4065 64.743 14.5598 65.4363 14.5598Z" fill="#163C51"/>
<path opacity="0.8" d="M54.89 16.0004V12.2804L55.19 12.6404H51.81C50.3966 12.6404 49.29 12.3404 48.49 11.7404C47.7033 11.1404 47.31 10.2671 47.31 9.12039C47.31 7.89372 47.73 6.96706 48.57 6.34039C49.4233 5.71372 50.5566 5.40039 51.97 5.40039H56.61V16.0004H54.89ZM47.21 16.0004L50.09 11.9404H52.07L49.27 16.0004H47.21ZM54.89 11.6804V6.54039L55.19 7.08039H52.03C51.15 7.08039 50.47 7.24706 49.99 7.58039C49.51 7.90039 49.27 8.43372 49.27 9.18039C49.27 10.5671 50.1633 11.2604 51.95 11.2604H55.19L54.89 11.6804Z" fill="#163C51"/>
<path opacity="0.8" d="M40.1889 16.1208C39.1223 16.1208 38.1756 15.8874 37.3489 15.4208C36.5223 14.9541 35.8689 14.3141 35.3889 13.5008C34.9089 12.6741 34.6689 11.7408 34.6689 10.7008C34.6689 9.64745 34.9089 8.71412 35.3889 7.90078C35.8689 7.08745 36.5223 6.45412 37.3489 6.00078C38.1756 5.53411 39.1223 5.30078 40.1889 5.30078C41.2423 5.30078 42.1823 5.53411 43.0089 6.00078C43.8489 6.45412 44.5023 7.08745 44.9689 7.90078C45.4489 8.70078 45.6889 9.63411 45.6889 10.7008C45.6889 11.7541 45.4489 12.6874 44.9689 13.5008C44.5023 14.3141 43.8489 14.9541 43.0089 15.4208C42.1823 15.8874 41.2423 16.1208 40.1889 16.1208ZM40.1889 14.4408C40.8689 14.4408 41.4756 14.2874 42.0089 13.9808C42.5556 13.6741 42.9823 13.2408 43.2889 12.6808C43.5956 12.1074 43.7489 11.4474 43.7489 10.7008C43.7489 9.94078 43.5956 9.28745 43.2889 8.74078C42.9823 8.18078 42.5556 7.74745 42.0089 7.44078C41.4756 7.13411 40.8689 6.98078 40.1889 6.98078C39.5089 6.98078 38.9023 7.13411 38.3689 7.44078C37.8356 7.74745 37.4089 8.18078 37.0889 8.74078C36.7689 9.28745 36.6089 9.94078 36.6089 10.7008C36.6089 11.4474 36.7689 12.1074 37.0889 12.6808C37.4089 13.2408 37.8356 13.6741 38.3689 13.9808C38.9023 14.2874 39.5089 14.4408 40.1889 14.4408Z" fill="#163C51"/>
<path opacity="0.8" d="M22.0361 16.0004V5.40039H23.9561V9.90039H29.9961V5.40039H31.9161V16.0004H29.9961V11.5604H23.9561V16.0004H22.0361Z" fill="#163C51"/>
<path opacity="0.8" d="M10.7225 16V2.8L11.5825 3.74H7.5625V2H12.7025V16H10.7225Z" fill="#163C51"/>
<path opacity="0.8" d="M3.32016 16V2.8L4.18016 3.74H0.160156V2H5.30016V16H3.32016Z" fill="#163C51"/>
</svg>
