<svg width="42" height="22" viewBox="0 0 42 22" fill="none" xmlns="http://www.w3.org/2000/svg">
<path d="M32.6944 17.1591C31.0731 17.1591 29.6117 16.7964 28.3104 16.0711C27.0304 15.3244 26.0171 14.3111 25.2704 13.0311C24.5237 11.7297 24.1504 10.2471 24.1504 8.58306C24.1504 6.89773 24.5237 5.41506 25.2704 4.13506C26.0171 2.85506 27.0304 1.8524 28.3104 1.12706C29.5904 0.401729 31.0517 0.0390625 32.6944 0.0390625C34.3584 0.0390625 35.8304 0.401729 37.1104 1.12706C38.4117 1.8524 39.4251 2.85506 40.1504 4.13506C40.8971 5.41506 41.2704 6.89773 41.2704 8.58306C41.2704 10.2471 40.8971 11.7297 40.1504 13.0311C39.4251 14.3111 38.4117 15.3244 37.1104 16.0711C35.8091 16.7964 34.3371 17.1591 32.6944 17.1591ZM32.6944 15.1431C33.9104 15.1431 34.9877 14.8764 35.9264 14.3431C36.8651 13.7884 37.6011 13.0204 38.1344 12.0391C38.6891 11.0364 38.9664 9.8844 38.9664 8.58306C38.9664 7.2604 38.6891 6.1084 38.1344 5.12706C37.6011 4.14573 36.8651 3.3884 35.9264 2.85506C34.9877 2.3004 33.9211 2.02306 32.7264 2.02306C31.5317 2.02306 30.4651 2.3004 29.5264 2.85506C28.5877 3.3884 27.8411 4.14573 27.2864 5.12706C26.7317 6.1084 26.4544 7.2604 26.4544 8.58306C26.4544 9.8844 26.7317 11.0364 27.2864 12.0391C27.8411 13.0204 28.5877 13.7884 29.5264 14.3431C30.4651 14.8764 31.5211 15.1431 32.6944 15.1431Z" fill="#406D73"/>
<path d="M14.8585 15.9112V2.18322H6.76253L6.57053 5.92722C6.52786 7.05789 6.4532 8.16722 6.34653 9.25522C6.2612 10.3432 6.1012 11.3459 5.86653 12.2632C5.6532 13.1592 5.34386 13.8952 4.93853 14.4712C4.5332 15.0259 4.01053 15.3459 3.37053 15.4312L1.09853 15.0152C1.75986 15.0366 2.30386 14.8019 2.73053 14.3112C3.1572 13.7992 3.48786 13.1059 3.72253 12.2312C3.9572 11.3566 4.12786 10.3646 4.23453 9.25522C4.3412 8.12455 4.42653 6.97255 4.49053 5.79922L4.71453 0.199219H17.1305V15.9112H14.8585ZM0.394531 21.0632V15.0152H19.7545V21.0632H17.6105V16.9992H2.53853V21.0632H0.394531Z" fill="#406D73"/>
</svg>
