<svg width="79" height="18" viewBox="0 0 79 18" fill="none" xmlns="http://www.w3.org/2000/svg">
<path d="M75.1373 16.9996L70.5053 10.8556L72.9533 9.34359L78.6653 16.9996H75.1373ZM65.9453 16.9996V4.18359H68.9453V16.9996H65.9453ZM68.0573 11.8636V9.36759H72.4013V11.8636H68.0573ZM73.2413 10.9516L70.4333 10.6156L75.1373 4.18359H78.3533L73.2413 10.9516Z" fill="white"/>
<path d="M57.8325 17.1671C56.4885 17.1671 55.2885 16.8871 54.2325 16.3271C53.1925 15.7511 52.3765 14.9671 51.7845 13.9751C51.1925 12.9831 50.8965 11.8551 50.8965 10.5911C50.8965 9.31106 51.1925 8.18306 51.7845 7.20706C52.3765 6.21506 53.1925 5.43906 54.2325 4.87906C55.2885 4.31906 56.4885 4.03906 57.8325 4.03906C59.0805 4.03906 60.1765 4.29506 61.1205 4.80706C62.0805 5.30306 62.8085 6.03906 63.3045 7.01506L61.0005 8.35906C60.6165 7.75106 60.1445 7.30306 59.5845 7.01506C59.0405 6.72706 58.4485 6.58306 57.8085 6.58306C57.0725 6.58306 56.4085 6.74306 55.8165 7.06306C55.2245 7.38306 54.7605 7.84706 54.4245 8.45506C54.0885 9.04706 53.9205 9.75906 53.9205 10.5911C53.9205 11.4231 54.0885 12.1431 54.4245 12.7511C54.7605 13.3431 55.2245 13.7991 55.8165 14.1191C56.4085 14.4391 57.0725 14.5991 57.8085 14.5991C58.4485 14.5991 59.0405 14.4551 59.5845 14.1671C60.1445 13.8791 60.6165 13.4311 61.0005 12.8231L63.3045 14.1671C62.8085 15.1271 62.0805 15.8711 61.1205 16.3991C60.1765 16.9111 59.0805 17.1671 57.8325 17.1671Z" fill="white"/>
<path d="M35.1484 16.9996V4.18359H38.1484V12.6316L45.2284 4.18359H47.9644V16.9996H44.9644V8.55159L37.9084 16.9996H35.1484Z" fill="white"/>
<path d="M25.3453 17.1671C24.0333 17.1671 22.8653 16.8871 21.8413 16.3271C20.8173 15.7511 20.0093 14.9671 19.4173 13.9751C18.8253 12.9831 18.5293 11.8551 18.5293 10.5911C18.5293 9.31106 18.8253 8.18306 19.4173 7.20706C20.0093 6.21506 20.8173 5.43906 21.8413 4.87906C22.8653 4.31906 24.0333 4.03906 25.3453 4.03906C26.6733 4.03906 27.8493 4.31906 28.8733 4.87906C29.9133 5.43906 30.7213 6.20706 31.2973 7.18306C31.8893 8.15906 32.1853 9.29506 32.1853 10.5911C32.1853 11.8551 31.8893 12.9831 31.2973 13.9751C30.7213 14.9671 29.9133 15.7511 28.8733 16.3271C27.8493 16.8871 26.6733 17.1671 25.3453 17.1671ZM25.3453 14.5991C26.0813 14.5991 26.7373 14.4391 27.3133 14.1191C27.8893 13.7991 28.3373 13.3351 28.6573 12.7271C28.9933 12.1191 29.1613 11.4071 29.1613 10.5911C29.1613 9.75906 28.9933 9.04706 28.6573 8.45506C28.3373 7.84706 27.8893 7.38306 27.3133 7.06306C26.7373 6.74306 26.0893 6.58306 25.3693 6.58306C24.6333 6.58306 23.9773 6.74306 23.4013 7.06306C22.8413 7.38306 22.3933 7.84706 22.0573 8.45506C21.7213 9.04706 21.5533 9.75906 21.5533 10.5911C21.5533 11.4071 21.7213 12.1191 22.0573 12.7271C22.3933 13.3351 22.8413 13.7991 23.4013 14.1191C23.9773 14.4391 24.6253 14.5991 25.3453 14.5991Z" fill="white"/>
<path d="M0.376953 16.9992V0.199219H15.233V16.9992H12.161V2.07122L12.881 2.83922H2.72895L3.44895 2.07122V16.9992H0.376953Z" fill="white"/>
</svg>
