<svg width="224" height="24" viewBox="0 0 224 24" fill="none" xmlns="http://www.w3.org/2000/svg">
<path opacity="0.7" d="M215.012 23.1903C213.22 23.1903 211.673 22.9342 210.372 22.4223C209.092 21.9103 208.1 21.1743 207.396 20.2143C206.713 19.2329 206.372 18.0809 206.372 16.7583C206.372 15.4783 206.703 14.3902 207.364 13.4942C208.047 12.5769 209.028 11.8729 210.308 11.3822C211.609 10.8916 213.177 10.6462 215.012 10.6462C216.825 10.6462 218.383 10.8916 219.684 11.3822C220.985 11.8729 221.977 12.5769 222.66 13.4942C223.364 14.3902 223.716 15.4783 223.716 16.7583C223.716 18.0809 223.364 19.2329 222.66 20.2143C221.956 21.1743 220.953 21.9103 219.652 22.4223C218.351 22.9342 216.804 23.1903 215.012 23.1903ZM215.012 21.2383C216.996 21.2383 218.543 20.8329 219.652 20.0223C220.783 19.2116 221.348 18.1129 221.348 16.7263C221.348 15.3396 220.783 14.2516 219.652 13.4623C218.543 12.6516 216.996 12.2463 215.012 12.2463C213.028 12.2463 211.481 12.6516 210.372 13.4623C209.263 14.2516 208.708 15.3396 208.708 16.7263C208.708 18.1129 209.263 19.2116 210.372 20.0223C211.481 20.8329 213.028 21.2383 215.012 21.2383ZM215.012 11.9583C213.348 11.9583 211.929 11.7342 210.756 11.2862C209.604 10.8382 208.719 10.1983 208.1 9.36625C207.481 8.51292 207.172 7.49958 207.172 6.32625C207.172 5.08892 207.492 4.03292 208.132 3.15825C208.793 2.26225 209.711 1.57958 210.884 1.11025C212.057 0.640917 213.433 0.40625 215.012 0.40625C216.591 0.40625 217.967 0.640917 219.14 1.11025C220.335 1.57958 221.263 2.26225 221.924 3.15825C222.585 4.03292 222.916 5.08892 222.916 6.32625C222.916 7.49958 222.607 8.51292 221.988 9.36625C221.369 10.1983 220.463 10.8382 219.268 11.2862C218.095 11.7342 216.676 11.9583 215.012 11.9583ZM215.012 10.4223C216.761 10.4223 218.127 10.0596 219.108 9.33425C220.089 8.60892 220.58 7.63825 220.58 6.42225C220.58 5.14225 220.068 4.15025 219.044 3.44625C218.041 2.72092 216.697 2.35825 215.012 2.35825C213.327 2.35825 211.983 2.72092 210.98 3.44625C209.977 4.15025 209.476 5.13158 209.476 6.39025C209.476 7.62758 209.956 8.60892 210.916 9.33425C211.897 10.0596 213.263 10.4223 215.012 10.4223Z" fill="#163C51"/>
<path opacity="0.7" d="M193.976 0.40625C195.96 0.40625 197.635 0.85425 199 1.75025C200.365 2.62492 201.4 3.89425 202.104 5.55825C202.808 7.22225 203.16 9.23825 203.16 11.6063C203.16 14.1236 202.723 16.2463 201.848 17.9743C200.995 19.7023 199.8 21.0036 198.264 21.8783C196.728 22.7529 194.947 23.1903 192.92 23.1903C191.917 23.1903 190.957 23.0942 190.04 22.9023C189.144 22.7103 188.333 22.4009 187.608 21.9743L188.536 20.1182C189.112 20.5023 189.773 20.7796 190.52 20.9503C191.288 21.0996 192.077 21.1743 192.888 21.1743C195.299 21.1743 197.219 20.4062 198.648 18.8703C200.099 17.3343 200.824 15.0409 200.824 11.9903C200.824 11.4996 200.792 10.9129 200.728 10.2302C200.685 9.54758 200.568 8.86492 200.376 8.18225L201.176 8.79025C200.963 9.89958 200.504 10.8489 199.8 11.6383C199.117 12.4063 198.264 12.9929 197.24 13.3983C196.237 13.8036 195.117 14.0063 193.88 14.0063C192.408 14.0063 191.096 13.7289 189.944 13.1742C188.813 12.6196 187.928 11.8409 187.288 10.8383C186.648 9.83558 186.328 8.65158 186.328 7.28625C186.328 5.87825 186.659 4.66225 187.32 3.63825C187.981 2.61425 188.888 1.82492 190.04 1.27025C191.213 0.69425 192.525 0.40625 193.976 0.40625ZM194.072 2.35825C193.005 2.35825 192.056 2.56092 191.224 2.96625C190.413 3.35025 189.773 3.90492 189.304 4.63025C188.835 5.35558 188.6 6.21958 188.6 7.22225C188.6 8.69425 189.101 9.86758 190.104 10.7423C191.128 11.6169 192.504 12.0543 194.232 12.0543C195.384 12.0543 196.387 11.8409 197.24 11.4143C198.115 10.9876 198.787 10.4009 199.256 9.65425C199.747 8.90758 199.992 8.07558 199.992 7.15825C199.992 6.32625 199.768 5.54758 199.32 4.82225C198.872 4.09692 198.211 3.51025 197.336 3.06225C196.461 2.59292 195.373 2.35825 194.072 2.35825Z" fill="#163C51"/>
<path opacity="0.7" d="M174.74 23.1903C173.012 23.1903 171.476 22.7423 170.132 21.8463C168.788 20.9289 167.732 19.6276 166.964 17.9423C166.196 16.2356 165.812 14.1876 165.812 11.7983C165.812 9.40892 166.196 7.37158 166.964 5.68625C167.732 3.97958 168.788 2.67825 170.132 1.78225C171.476 0.864917 173.012 0.40625 174.74 0.40625C176.468 0.40625 178.004 0.864917 179.348 1.78225C180.692 2.67825 181.748 3.97958 182.516 5.68625C183.306 7.37158 183.701 9.40892 183.701 11.7983C183.701 14.1876 183.306 16.2356 182.516 17.9423C181.748 19.6276 180.692 20.9289 179.348 21.8463C178.004 22.7423 176.468 23.1903 174.74 23.1903ZM174.74 21.0783C176.063 21.0783 177.215 20.7263 178.197 20.0223C179.178 19.2969 179.946 18.2516 180.501 16.8863C181.055 15.4996 181.333 13.8036 181.333 11.7983C181.333 9.79292 181.055 8.10758 180.501 6.74225C179.946 5.35558 179.178 4.31025 178.197 3.60625C177.215 2.88092 176.063 2.51825 174.74 2.51825C173.46 2.51825 172.319 2.88092 171.316 3.60625C170.314 4.31025 169.535 5.35558 168.98 6.74225C168.426 8.10758 168.148 9.79292 168.148 11.7983C168.148 13.8036 168.426 15.4996 168.98 16.8863C169.535 18.2516 170.314 19.2969 171.316 20.0223C172.319 20.7263 173.46 21.0783 174.74 21.0783Z" fill="#163C51"/>
<path opacity="0.7" d="M153.289 0.40625C155.273 0.40625 156.947 0.85425 158.313 1.75025C159.678 2.62492 160.713 3.89425 161.417 5.55825C162.121 7.22225 162.473 9.23825 162.473 11.6063C162.473 14.1236 162.035 16.2463 161.161 17.9743C160.307 19.7023 159.113 21.0036 157.577 21.8783C156.041 22.7529 154.259 23.1903 152.233 23.1903C151.23 23.1903 150.27 23.0942 149.353 22.9023C148.457 22.7103 147.646 22.4009 146.921 21.9743L147.849 20.1182C148.425 20.5023 149.086 20.7796 149.833 20.9503C150.601 21.0996 151.39 21.1743 152.201 21.1743C154.611 21.1743 156.531 20.4062 157.961 18.8703C159.411 17.3343 160.137 15.0409 160.137 11.9903C160.137 11.4996 160.105 10.9129 160.041 10.2302C159.998 9.54758 159.881 8.86492 159.689 8.18225L160.489 8.79025C160.275 9.89958 159.817 10.8489 159.113 11.6383C158.43 12.4063 157.577 12.9929 156.553 13.3983C155.55 13.8036 154.43 14.0063 153.193 14.0063C151.721 14.0063 150.409 13.7289 149.257 13.1742C148.126 12.6196 147.241 11.8409 146.601 10.8383C145.961 9.83558 145.641 8.65158 145.641 7.28625C145.641 5.87825 145.971 4.66225 146.633 3.63825C147.294 2.61425 148.201 1.82492 149.353 1.27025C150.526 0.69425 151.838 0.40625 153.289 0.40625ZM153.385 2.35825C152.318 2.35825 151.369 2.56092 150.537 2.96625C149.726 3.35025 149.086 3.90492 148.617 4.63025C148.147 5.35558 147.913 6.21958 147.913 7.22225C147.913 8.69425 148.414 9.86758 149.417 10.7423C150.441 11.6169 151.817 12.0543 153.545 12.0543C154.697 12.0543 155.699 11.8409 156.553 11.4143C157.427 10.9876 158.099 10.4009 158.569 9.65425C159.059 8.90758 159.305 8.07558 159.305 7.15825C159.305 6.32625 159.081 5.54758 158.633 4.82225C158.185 4.09692 157.523 3.51025 156.649 3.06225C155.774 2.59292 154.686 2.35825 153.385 2.35825Z" fill="#163C51"/>
<path opacity="0.7" d="M134.418 23.1903C132.626 23.1903 131.08 22.9342 129.778 22.4223C128.498 21.9103 127.506 21.1743 126.802 20.2143C126.12 19.2329 125.778 18.0809 125.778 16.7583C125.778 15.4783 126.109 14.3902 126.77 13.4942C127.453 12.5769 128.434 11.8729 129.714 11.3822C131.016 10.8916 132.584 10.6462 134.418 10.6462C136.232 10.6462 137.789 10.8916 139.09 11.3822C140.392 11.8729 141.384 12.5769 142.066 13.4942C142.77 14.3902 143.122 15.4783 143.122 16.7583C143.122 18.0809 142.77 19.2329 142.066 20.2143C141.362 21.1743 140.36 21.9103 139.058 22.4223C137.757 22.9342 136.21 23.1903 134.418 23.1903ZM134.418 21.2383C136.402 21.2383 137.949 20.8329 139.058 20.0223C140.189 19.2116 140.754 18.1129 140.754 16.7263C140.754 15.3396 140.189 14.2516 139.058 13.4623C137.949 12.6516 136.402 12.2463 134.418 12.2463C132.434 12.2463 130.888 12.6516 129.778 13.4623C128.669 14.2516 128.114 15.3396 128.114 16.7263C128.114 18.1129 128.669 19.2116 129.778 20.0223C130.888 20.8329 132.434 21.2383 134.418 21.2383ZM134.418 11.9583C132.754 11.9583 131.336 11.7342 130.162 11.2862C129.01 10.8382 128.125 10.1983 127.506 9.36625C126.888 8.51292 126.578 7.49958 126.578 6.32625C126.578 5.08892 126.898 4.03292 127.538 3.15825C128.2 2.26225 129.117 1.57958 130.29 1.11025C131.464 0.640917 132.84 0.40625 134.418 0.40625C135.997 0.40625 137.373 0.640917 138.546 1.11025C139.741 1.57958 140.669 2.26225 141.33 3.15825C141.992 4.03292 142.322 5.08892 142.322 6.32625C142.322 7.49958 142.013 8.51292 141.394 9.36625C140.776 10.1983 139.869 10.8382 138.674 11.2862C137.501 11.7342 136.082 11.9583 134.418 11.9583ZM134.418 10.4223C136.168 10.4223 137.533 10.0596 138.514 9.33425C139.496 8.60892 139.986 7.63825 139.986 6.42225C139.986 5.14225 139.474 4.15025 138.45 3.44625C137.448 2.72092 136.104 2.35825 134.418 2.35825C132.733 2.35825 131.389 2.72092 130.386 3.44625C129.384 4.15025 128.882 5.13158 128.882 6.39025C128.882 7.62758 129.362 8.60892 130.322 9.33425C131.304 10.0596 132.669 10.4223 134.418 10.4223Z" fill="#163C51"/>
<path opacity="0.7" d="M111.593 22.9977L121.257 1.62166L121.961 2.64566H108.105L109.289 1.52566V6.83766H107.017V0.597656H123.465V2.22966L114.089 22.9977H111.593Z" fill="#163C51"/>
<path opacity="0.7" d="M97.5902 23.1903C95.6062 23.1903 93.9316 22.7529 92.5662 21.8783C91.2009 20.9823 90.1662 19.7023 89.4622 18.0383C88.7582 16.3529 88.4062 14.3369 88.4062 11.9903C88.4062 9.45158 88.8329 7.32892 89.6862 5.62225C90.5609 3.89425 91.7662 2.59292 93.3022 1.71825C94.8382 0.843583 96.6196 0.40625 98.6462 0.40625C99.6489 0.40625 100.609 0.50225 101.526 0.69425C102.444 0.88625 103.254 1.19558 103.958 1.62225L103.03 3.47825C102.454 3.09425 101.793 2.82758 101.046 2.67825C100.3 2.50758 99.5103 2.42225 98.6783 2.42225C96.2676 2.42225 94.3369 3.19025 92.8862 4.72625C91.4569 6.26225 90.7422 8.55558 90.7422 11.6063C90.7422 12.0756 90.7636 12.6623 90.8063 13.3663C90.8703 14.0489 90.9982 14.7316 91.1902 15.4143L90.3903 14.8062C90.6249 13.6969 91.0836 12.7583 91.7663 11.9903C92.4489 11.2009 93.3022 10.6036 94.3262 10.1983C95.3502 9.79292 96.4702 9.59025 97.6862 9.59025C99.1796 9.59025 100.492 9.86758 101.622 10.4223C102.753 10.9769 103.638 11.7556 104.278 12.7582C104.918 13.7609 105.238 14.9449 105.238 16.3103C105.238 17.6969 104.908 18.9129 104.246 19.9583C103.585 20.9823 102.668 21.7823 101.494 22.3583C100.342 22.9129 99.0409 23.1903 97.5902 23.1903ZM97.4942 21.2383C98.5609 21.2383 99.4996 21.0463 100.31 20.6623C101.142 20.2569 101.793 19.6916 102.262 18.9663C102.732 18.2196 102.966 17.3556 102.966 16.3743C102.966 14.9023 102.454 13.7289 101.43 12.8542C100.428 11.9796 99.0623 11.5422 97.3343 11.5422C96.1823 11.5422 95.1796 11.7556 94.3262 12.1822C93.4729 12.6089 92.8009 13.1956 92.3102 13.9423C91.8196 14.6676 91.5742 15.4996 91.5742 16.4382C91.5742 17.2489 91.7982 18.0276 92.2462 18.7743C92.6942 19.4996 93.3556 20.0969 94.2302 20.5663C95.1262 21.0143 96.2142 21.2383 97.4942 21.2383Z" fill="#163C51"/>
<path opacity="0.7" d="M77.3533 23.1897C75.7533 23.1897 74.228 22.9337 72.7773 22.4217C71.3266 21.8883 70.1746 21.1843 69.3213 20.3097L70.4413 18.4857C71.1453 19.2323 72.1053 19.851 73.3213 20.3417C74.5586 20.8323 75.892 21.0777 77.3213 21.0777C79.22 21.0777 80.66 20.6617 81.6413 19.8297C82.644 18.9763 83.1453 17.867 83.1453 16.5017C83.1453 15.5417 82.9106 14.7203 82.4413 14.0377C81.9933 13.3337 81.2253 12.7897 80.1373 12.4057C79.0493 12.0217 77.556 11.8297 75.6573 11.8297H70.8893L72.0413 0.597656H84.2973V2.64566H72.9693L74.1533 1.52566L73.1613 10.9337L71.9773 9.78166H76.1693C78.4306 9.78166 80.244 10.059 81.6093 10.6137C82.9746 11.1683 83.956 11.947 84.5533 12.9497C85.172 13.931 85.4813 15.083 85.4813 16.4057C85.4813 17.6643 85.1826 18.8163 84.5853 19.8617C83.988 20.8857 83.092 21.6963 81.8973 22.2937C80.7026 22.891 79.188 23.1897 77.3533 23.1897Z" fill="#163C51"/>
<path opacity="0.7" d="M48.8037 17.1097V15.4457L60.6757 0.597656H63.2357L51.4597 15.4457L50.2117 15.0617H68.2277V17.1097H48.8037ZM61.4437 22.9977V17.1097L61.5077 15.0617V9.87766H63.7477V22.9977H61.4437Z" fill="#163C51"/>
<path opacity="0.7" d="M37.813 23.1897C36.1917 23.1897 34.6557 22.9337 33.205 22.4217C31.7757 21.8883 30.6237 21.1843 29.749 20.3097L30.869 18.4857C31.5944 19.2323 32.565 19.851 33.781 20.3417C35.0184 20.8323 36.3624 21.0777 37.813 21.0777C39.669 21.0777 41.0877 20.6723 42.069 19.8617C43.0717 19.051 43.573 17.963 43.573 16.5977C43.573 15.2323 43.0824 14.1443 42.101 13.3337C41.141 12.523 39.6157 12.1177 37.525 12.1177H35.925V10.4217L42.837 1.74966L43.157 2.64566H30.677V0.597656H45.077V2.22966L38.165 10.9017L37.045 10.1657H37.909C40.597 10.1657 42.6024 10.763 43.925 11.9577C45.269 13.1523 45.941 14.6883 45.941 16.5657C45.941 17.8243 45.6424 18.955 45.045 19.9577C44.4477 20.9603 43.541 21.7497 42.325 22.3257C41.1304 22.9017 39.6264 23.1897 37.813 23.1897Z" fill="#163C51"/>
<path opacity="0.7" d="M12.5216 22.9983V21.3663L21.8336 12.2463C22.6869 11.4143 23.3269 10.6889 23.7536 10.0702C24.1803 9.43025 24.4683 8.83292 24.6176 8.27825C24.7669 7.72358 24.8416 7.20092 24.8416 6.71025C24.8416 5.40892 24.3936 4.38492 23.4976 3.63825C22.6229 2.89158 21.3216 2.51825 19.5936 2.51825C18.2709 2.51825 17.0976 2.72092 16.0736 3.12625C15.0709 3.53158 14.2069 4.16092 13.4816 5.01425L11.8496 3.60625C12.7243 2.58225 13.8443 1.79292 15.2096 1.23825C16.5749 0.683584 18.1003 0.40625 19.7856 0.40625C21.3003 0.40625 22.6123 0.651583 23.7216 1.14225C24.8309 1.61158 25.6843 2.30492 26.2816 3.22225C26.9003 4.13958 27.2096 5.21692 27.2096 6.45425C27.2096 7.17958 27.1029 7.89425 26.8896 8.59825C26.6976 9.30225 26.3349 10.0489 25.8016 10.8383C25.2896 11.6063 24.5323 12.4809 23.5296 13.4623L14.9856 21.8463L14.3456 20.9503H28.2336V22.9983H12.5216Z" fill="#163C51"/>
<path opacity="0.7" d="M5.27902 22.9977V1.55766L6.30302 2.64566H-0.000976562V0.597656H7.58302V22.9977H5.27902Z" fill="#163C51"/>
</svg>
