<svg width="539" height="61" viewBox="0 0 539 61" fill="none" xmlns="http://www.w3.org/2000/svg">
<path d="M509.613 60.4795C507.949 60.4795 506.285 60.2021 504.621 59.6475C502.957 59.0928 501.57 58.3248 500.461 57.3435L503.661 51.4555C504.472 52.1808 505.389 52.7568 506.413 53.1835C507.437 53.6101 508.482 53.8235 509.549 53.8235C511 53.8235 512.173 53.4608 513.069 52.7355C513.965 52.0101 514.797 50.7941 515.565 49.0875L517.549 44.6075L518.189 43.6475L531.117 13.4395H538.797L522.797 50.3675C521.73 52.9275 520.536 54.9541 519.213 56.4475C517.933 57.9408 516.482 58.9861 514.861 59.5835C513.282 60.1808 511.533 60.4795 509.613 60.4795ZM516.653 48.8315L501.229 13.4395H509.549L522.093 42.9435L516.653 48.8315Z" fill="#F85F37"/>
<path d="M493.428 47.6155L481.076 31.2315L487.604 27.1995L502.836 47.6155H493.428ZM468.916 47.6155V13.4395H476.916V47.6155H468.916ZM474.548 33.9195V27.2635H486.132V33.9195H474.548ZM488.372 31.4875L480.884 30.5915L493.428 13.4395H502.004L488.372 31.4875Z" fill="#F85F37"/>
<path d="M422.174 47.5515L422.558 40.8315C422.856 40.8741 423.134 40.9168 423.39 40.9595C423.646 41.0021 423.88 41.0235 424.094 41.0235C425.416 41.0235 426.44 40.6181 427.166 39.8075C427.891 38.9968 428.425 37.9088 428.766 36.5435C429.15 35.1355 429.406 33.5781 429.534 31.8715C429.704 30.1221 429.832 28.3728 429.918 26.6235L430.494 13.4395H458.142V47.6155H450.142V18.0475L451.998 20.2235H435.742L437.47 17.9835L437.022 27.0075C436.894 30.0368 436.638 32.8528 436.254 35.4555C435.912 38.0155 435.358 40.2555 434.59 42.1755C433.864 44.0955 432.84 45.5888 431.518 46.6555C430.238 47.7221 428.595 48.2555 426.59 48.2555C425.95 48.2555 425.246 48.1915 424.478 48.0635C423.752 47.9355 422.984 47.7648 422.174 47.5515Z" fill="#F85F37"/>
<path d="M394.488 60.4795C392.824 60.4795 391.16 60.2021 389.496 59.6475C387.832 59.0928 386.445 58.3248 385.336 57.3435L388.536 51.4555C389.347 52.1808 390.264 52.7568 391.288 53.1835C392.312 53.6101 393.357 53.8235 394.424 53.8235C395.875 53.8235 397.048 53.4608 397.944 52.7355C398.84 52.0101 399.672 50.7941 400.44 49.0875L402.424 44.6075L403.064 43.6475L415.992 13.4395H423.672L407.672 50.3675C406.605 52.9275 405.411 54.9541 404.088 56.4475C402.808 57.9408 401.357 58.9861 399.736 59.5835C398.157 60.1808 396.408 60.4795 394.488 60.4795ZM401.528 48.8315L386.104 13.4395H394.424L406.968 42.9435L401.528 48.8315Z" fill="#F85F37"/>
<path d="M359.291 47.6155V13.4395H385.531V20.2235H365.435L367.291 18.4315V47.6155H359.291Z" fill="#F85F37"/>
<path d="M333.149 48.0646C329.65 48.0646 326.535 47.318 323.805 45.8246C321.074 44.2886 318.919 42.198 317.341 39.5526C315.762 36.9073 314.973 33.8993 314.973 30.5286C314.973 27.1153 315.762 24.1073 317.341 21.5046C318.919 18.8593 321.074 16.79 323.805 15.2966C326.535 13.8033 329.65 13.0566 333.149 13.0566C336.69 13.0566 339.826 13.8033 342.557 15.2966C345.33 16.79 347.485 18.838 349.021 21.4406C350.599 24.0433 351.389 27.0726 351.389 30.5286C351.389 33.8993 350.599 36.9073 349.021 39.5526C347.485 42.198 345.33 44.2886 342.557 45.8246C339.826 47.318 336.69 48.0646 333.149 48.0646ZM333.149 41.2166C335.111 41.2166 336.861 40.79 338.397 39.9366C339.933 39.0833 341.127 37.846 341.981 36.2246C342.877 34.6033 343.325 32.7046 343.325 30.5286C343.325 28.31 342.877 26.4113 341.981 24.8326C341.127 23.2113 339.933 21.974 338.397 21.1206C336.861 20.2673 335.133 19.8406 333.213 19.8406C331.25 19.8406 329.501 20.2673 327.965 21.1206C326.471 21.974 325.277 23.2113 324.381 24.8326C323.485 26.4113 323.037 28.31 323.037 30.5286C323.037 32.7046 323.485 34.6033 324.381 36.2246C325.277 37.846 326.471 39.0833 327.965 39.9366C329.501 40.79 331.229 41.2166 333.149 41.2166Z" fill="#F85F37"/>
<path d="M292.61 48.0646C289.837 48.0646 287.298 47.4246 284.994 46.1446C282.733 44.8646 280.919 42.9446 279.554 40.3846C278.231 37.782 277.57 34.4966 277.57 30.5286C277.57 26.518 278.21 23.2326 279.49 20.6726C280.813 18.1126 282.605 16.214 284.866 14.9766C287.127 13.6966 289.709 13.0566 292.61 13.0566C295.981 13.0566 298.946 13.782 301.506 15.2326C304.109 16.6833 306.157 18.71 307.65 21.3126C309.186 23.9153 309.954 26.9873 309.954 30.5286C309.954 34.07 309.186 37.1633 307.65 39.8086C306.157 42.4113 304.109 44.438 301.506 45.8886C298.946 47.3393 295.981 48.0646 292.61 48.0646ZM273.666 60.0326V13.4406H281.282V21.5046L281.026 30.5926L281.666 39.6806V60.0326H273.666ZM291.714 41.2166C293.634 41.2166 295.341 40.79 296.834 39.9366C298.37 39.0833 299.586 37.846 300.482 36.2246C301.378 34.6033 301.826 32.7046 301.826 30.5286C301.826 28.31 301.378 26.4113 300.482 24.8326C299.586 23.2113 298.37 21.974 296.834 21.1206C295.341 20.2673 293.634 19.8406 291.714 19.8406C289.794 19.8406 288.066 20.2673 286.53 21.1206C284.994 21.974 283.778 23.2113 282.882 24.8326C281.986 26.4113 281.538 28.31 281.538 30.5286C281.538 32.7046 281.986 34.6033 282.882 36.2246C283.778 37.846 284.994 39.0833 286.53 39.9366C288.066 40.79 289.794 41.2166 291.714 41.2166Z" fill="#F85F37"/>
<path d="M230.104 47.6155V13.4395H262.872V47.6155H254.936V18.3675L256.792 20.2235H236.248L238.104 18.3675V47.6155H230.104Z" fill="#F85F37"/>
<path d="M167.479 47.6155V13.4395H175.479V35.9675L194.359 13.4395H201.655V47.6155H193.655V25.0875L174.839 47.6155H167.479Z" fill="#F85F37"/>
<path d="M141.708 47.6155V18.3035L143.564 20.2235H129.676V13.4395H161.676V20.2235H147.852L149.708 18.3035V47.6155H141.708Z" fill="#F85F37"/>
<path d="M89.666 47.616V13.44H97.666V35.968L116.546 13.44H123.842V47.616H115.842V25.088L97.026 47.616H89.666ZM106.242 9.408C102.829 9.408 100.205 8.61867 98.37 7.04C96.5354 5.41867 95.5967 3.072 95.554 0H100.866C100.909 1.536 101.378 2.752 102.274 3.648C103.213 4.544 104.514 4.992 106.178 4.992C107.799 4.992 109.079 4.544 110.018 3.648C110.999 2.752 111.511 1.536 111.554 0H116.994C116.951 3.072 115.991 5.41867 114.114 7.04C112.279 8.61867 109.655 9.408 106.242 9.408Z" fill="#F85F37"/>
<path d="M72.2146 47.6166V40.7046L71.7666 39.2326V27.1366C71.7666 24.79 71.0626 22.9766 69.6546 21.6966C68.2466 20.374 66.1132 19.7126 63.2546 19.7126C61.3346 19.7126 59.4359 20.0113 57.5586 20.6086C55.7239 21.206 54.1666 22.038 52.8866 23.1046L49.7506 17.2806C51.5852 15.8726 53.7612 14.8273 56.2786 14.1446C58.8386 13.4193 61.4839 13.0566 64.2146 13.0566C69.1639 13.0566 72.9826 14.2513 75.6706 16.6406C78.4012 18.9873 79.7666 22.6353 79.7666 27.5846V47.6166H72.2146ZM61.4626 48.0646C58.9026 48.0646 56.6626 47.638 54.7426 46.7846C52.8226 45.8886 51.3292 44.6726 50.2626 43.1366C49.2386 41.558 48.7266 39.7873 48.7266 37.8246C48.7266 35.9046 49.1746 34.1766 50.0706 32.6406C51.0092 31.1046 52.5239 29.8886 54.6146 28.9926C56.7052 28.0966 59.4786 27.6486 62.9346 27.6486H72.8546V32.9606H63.5106C60.7799 32.9606 58.9452 33.4086 58.0066 34.3046C57.0679 35.158 56.5986 36.2246 56.5986 37.5046C56.5986 38.9553 57.1746 40.1073 58.3266 40.9606C59.4786 41.814 61.0786 42.2406 63.1266 42.2406C65.0892 42.2406 66.8386 41.7926 68.3746 40.8966C69.9532 40.0006 71.0839 38.678 71.7666 36.9286L73.1106 41.7286C72.3426 43.734 70.9559 45.2913 68.9506 46.4006C66.9879 47.51 64.4919 48.0646 61.4626 48.0646Z" fill="#F85F37"/>
<path d="M31.488 2.81641H39.808V47.6164H31.488V2.81641ZM8.32 47.6164H0V2.81641H8.32V47.6164ZM32.128 28.4164H7.616V21.3124H32.128V28.4164Z" fill="#F85F37"/>
</svg>
