<svg width="98" height="14" viewBox="0 0 98 14" fill="none" xmlns="http://www.w3.org/2000/svg">
<path d="M94.7618 13.5469V10.3237L95.1579 10.7739H92.4749C91.0824 10.7739 89.99 10.4858 89.1977 9.90959C88.4054 9.33338 88.0093 8.50508 88.0093 7.42468C88.0093 6.27226 88.4234 5.38994 89.2517 4.77771C90.092 4.16549 91.2205 3.85938 92.637 3.85938H97.2647V13.5469H94.7618ZM87.8652 13.5469L90.4402 9.85557H93.3032L90.8543 13.5469H87.8652ZM94.7618 9.45943V5.42595L95.1579 6.14621H92.691C92.1148 6.14621 91.6646 6.25425 91.3405 6.47033C91.0284 6.68641 90.8723 7.03454 90.8723 7.51472C90.8723 8.43905 91.4666 8.90122 92.655 8.90122H95.1579L94.7618 9.45943Z" fill="white"/>
<path d="M82.8395 13.6905C81.7951 13.6905 80.8648 13.4804 80.0485 13.0603C79.2322 12.6281 78.5899 12.0339 78.1217 11.2776C77.6656 10.5213 77.4375 9.66302 77.4375 8.70267C77.4375 7.73031 77.6656 6.872 78.1217 6.12773C78.5899 5.37145 79.2322 4.78323 80.0485 4.36308C80.8648 3.93092 81.7951 3.71484 82.8395 3.71484C83.8599 3.71484 84.7482 3.93092 85.5045 4.36308C86.2607 4.78323 86.8189 5.38946 87.1791 6.18175L85.0003 7.35218C84.7482 6.89601 84.4301 6.55989 84.0459 6.34381C83.6738 6.12773 83.2656 6.01969 82.8215 6.01969C82.3413 6.01969 81.9091 6.12773 81.525 6.34381C81.1409 6.55989 80.8347 6.866 80.6067 7.26214C80.3906 7.65829 80.2825 8.13846 80.2825 8.70267C80.2825 9.26688 80.3906 9.74705 80.6067 10.1432C80.8347 10.5393 81.1409 10.8455 81.525 11.0615C81.9091 11.2776 82.3413 11.3857 82.8215 11.3857C83.2656 11.3857 83.6738 11.2836 84.0459 11.0795C84.4301 10.8635 84.7482 10.5213 85.0003 10.0532L87.1791 11.2416C86.8189 12.0219 86.2607 12.6281 85.5045 13.0603C84.7482 13.4804 83.8599 13.6905 82.8395 13.6905Z" fill="white"/>
<path d="M72.5661 6.95651C73.8386 6.96852 74.8049 7.25662 75.4652 7.82083C76.1374 8.37303 76.4735 9.15932 76.4735 10.1797C76.4735 11.2481 76.0954 12.0824 75.3391 12.6826C74.5828 13.2708 73.5325 13.5649 72.188 13.5649L67.3262 13.5469V3.85938H70.1172V6.95651H72.5661ZM71.9359 11.5662C72.4761 11.5782 72.8902 11.4642 73.1783 11.2241C73.4664 10.984 73.6105 10.6239 73.6105 10.1437C73.6105 9.6635 73.4664 9.32138 73.1783 9.1173C72.8902 8.90122 72.4761 8.78718 71.9359 8.77518L70.1172 8.75717V11.5662H71.9359Z" fill="white"/>
<path d="M59.7616 13.5469V5.51598L60.3918 6.16422H56.4844V3.85938H65.8298V6.16422H61.9224L62.5526 5.51598V13.5469H59.7616Z" fill="white"/>
<path d="M52.6212 13.5464V11.6558L52.4412 11.2416V7.85636C52.4412 7.25614 52.2551 6.78797 51.883 6.45185C51.5228 6.11572 50.9646 5.94766 50.2084 5.94766C49.6922 5.94766 49.182 6.03169 48.6778 6.19975C48.1856 6.35581 47.7655 6.57189 47.4173 6.84799L46.409 4.88527C46.9372 4.51314 47.5734 4.22503 48.3177 4.02096C49.0619 3.81688 49.8182 3.71484 50.5865 3.71484C52.063 3.71484 53.2095 4.06297 54.0258 4.75923C54.8421 5.45548 55.2502 6.54188 55.2502 8.01842V13.5464H52.6212ZM49.6682 13.6905C48.9119 13.6905 48.2636 13.5645 47.7234 13.3124C47.1832 13.0483 46.7691 12.6941 46.481 12.25C46.1929 11.8058 46.0488 11.3076 46.0488 10.7554C46.0488 10.1792 46.1869 9.67503 46.463 9.24287C46.7511 8.81071 47.2013 8.47459 47.8135 8.2345C48.4257 7.98241 49.224 7.85636 50.2084 7.85636H52.7833V9.49496H50.5145C49.8542 9.49496 49.3981 9.603 49.146 9.81908C48.9059 10.0352 48.7858 10.3053 48.7858 10.6294C48.7858 10.9895 48.9239 11.2776 49.2 11.4937C49.4881 11.6978 49.8782 11.7998 50.3704 11.7998C50.8386 11.7998 51.2587 11.6918 51.6309 11.4757C52.003 11.2476 52.2731 10.9175 52.4412 10.4853L52.8733 11.7818C52.6693 12.406 52.2971 12.8802 51.7569 13.2043C51.2167 13.5284 50.5205 13.6905 49.6682 13.6905Z" fill="white"/>
<path d="M39.9883 13.7271C39.244 13.7271 38.4997 13.649 37.7555 13.493C37.0232 13.3369 36.3449 13.1028 35.7207 12.7907L36.477 10.828C36.9692 11.0681 37.5034 11.2542 38.0796 11.3862C38.6678 11.5063 39.262 11.5663 39.8622 11.5663C40.2944 11.5663 40.6665 11.5243 40.9786 11.4402C41.3027 11.3442 41.5488 11.2121 41.7169 11.0441C41.885 10.876 41.969 10.6719 41.969 10.4319C41.969 10.1197 41.8369 9.88566 41.5728 9.7296C41.3088 9.56154 40.9246 9.47751 40.4204 9.47751H38.4397V7.73087H40.1863C40.5105 7.73087 40.7866 7.69485 41.0146 7.62283C41.2427 7.5508 41.4108 7.44876 41.5188 7.31672C41.6389 7.17266 41.6989 7.0046 41.6989 6.81253C41.6989 6.60846 41.6269 6.43439 41.4828 6.29034C41.3388 6.14629 41.1287 6.03825 40.8526 5.96622C40.5765 5.88219 40.2284 5.84017 39.8082 5.84017C39.328 5.84017 38.8298 5.9002 38.3137 6.02024C37.7975 6.12828 37.2693 6.29034 36.7291 6.50642L36.0448 4.56171C36.6811 4.29761 37.3113 4.08753 37.9355 3.93147C38.5597 3.77542 39.178 3.69139 39.7902 3.67938C40.6905 3.65537 41.5008 3.75141 42.2211 3.96749C42.9414 4.18357 43.5056 4.49568 43.9137 4.90383C44.3339 5.31198 44.5439 5.81016 44.5439 6.39838C44.5439 6.86655 44.3999 7.2867 44.1118 7.65884C43.8357 8.03098 43.4515 8.32509 42.9594 8.54116C42.4672 8.74524 41.915 8.84728 41.3027 8.84728L41.3748 8.28907C42.4432 8.28907 43.2835 8.50515 43.8957 8.93731C44.5079 9.35746 44.814 9.93367 44.814 10.6659C44.814 11.2902 44.598 11.8364 44.1658 12.3045C43.7456 12.7607 43.1694 13.1148 42.4372 13.3669C41.7169 13.607 40.9006 13.7271 39.9883 13.7271Z" fill="white"/>
<path d="M31.5977 13.5469V10.3237L31.9938 10.7739H29.3109C27.9184 10.7739 26.826 10.4858 26.0337 9.90959C25.2414 9.33338 24.8452 8.50508 24.8452 7.42468C24.8452 6.27226 25.2594 5.38994 26.0877 4.77771C26.928 4.16549 28.0564 3.85938 29.4729 3.85938H34.1006V13.5469H31.5977ZM24.7012 13.5469L27.2761 9.85557H30.1392L27.6903 13.5469H24.7012ZM31.5977 9.45943V5.42595L31.9938 6.14621H29.5269C28.9507 6.14621 28.5006 6.25425 28.1764 6.47033C27.8643 6.68641 27.7083 7.03454 27.7083 7.51472C27.7083 8.43905 28.3025 8.90122 29.4909 8.90122H31.9938L31.5977 9.45943Z" fill="white"/>
<path d="M14.291 13.5469V3.85938H19.2428C20.4553 3.85938 21.4036 4.08146 22.0879 4.52562C22.7721 4.95778 23.1142 5.57 23.1142 6.36229C23.1142 7.15458 22.7901 7.77881 22.1419 8.23498C21.5057 8.67914 20.6593 8.90122 19.603 8.90122L19.8911 8.25299C21.0675 8.25299 21.9438 8.46907 22.52 8.90122C23.1082 9.33338 23.4024 9.96361 23.4024 10.7919C23.4024 11.6442 23.0782 12.3165 22.43 12.8087C21.7818 13.3008 20.7914 13.5469 19.4589 13.5469H14.291ZM16.866 11.6382H19.2248C19.741 11.6382 20.1252 11.5542 20.3772 11.3861C20.6413 11.2061 20.7734 10.936 20.7734 10.5758C20.7734 10.2037 20.6533 9.9336 20.4133 9.76554C20.1732 9.58547 19.795 9.49544 19.2788 9.49544H16.866V11.6382ZM16.866 7.83883H18.9907C19.4829 7.83883 19.8491 7.7488 20.0891 7.56874C20.3412 7.38867 20.4673 7.13057 20.4673 6.79445C20.4673 6.44632 20.3412 6.18823 20.0891 6.02017C19.8491 5.85211 19.4829 5.76807 18.9907 5.76807H16.866V7.83883Z" fill="white"/>
<path d="M7.40263 13.7633C6.43027 13.7633 5.52394 13.6073 4.68363 13.2952C3.85533 12.971 3.13506 12.5149 2.52284 11.9267C1.91061 11.3385 1.43044 10.6482 1.08231 9.85591C0.746187 9.06362 0.578125 8.1933 0.578125 7.24495C0.578125 6.2966 0.746187 5.42628 1.08231 4.63399C1.43044 3.8417 1.91061 3.15145 2.52284 2.56324C3.14707 1.97502 3.87333 1.52485 4.70164 1.21274C5.52994 0.888622 6.43627 0.726562 7.42063 0.726562C8.51303 0.726562 9.49739 0.918633 10.3737 1.30277C11.262 1.67491 12.0063 2.22711 12.6065 2.95938L10.7338 4.68801C10.3017 4.19583 9.82151 3.8297 9.29332 3.58961C8.76513 3.33752 8.18891 3.21147 7.56469 3.21147C6.97647 3.21147 6.43627 3.30751 5.94409 3.49958C5.45191 3.69165 5.02575 3.96775 4.66562 4.32788C4.30549 4.68801 4.02339 5.11417 3.81931 5.60635C3.62724 6.09853 3.53121 6.64473 3.53121 7.24495C3.53121 7.84517 3.62724 8.39137 3.81931 8.88355C4.02339 9.37573 4.30549 9.80189 4.66562 10.162C5.02575 10.5222 5.45191 10.7983 5.94409 10.9903C6.43627 11.1824 6.97647 11.2784 7.56469 11.2784C8.18891 11.2784 8.76513 11.1584 9.29332 10.9183C9.82151 10.6662 10.3017 10.2881 10.7338 9.78388L12.6065 11.5125C12.0063 12.2448 11.262 12.803 10.3737 13.1871C9.49739 13.5713 8.50703 13.7633 7.40263 13.7633Z" fill="white"/>
</svg>
