<svg width="205" height="18" viewBox="0 0 205 18" fill="none" xmlns="http://www.w3.org/2000/svg">
<path d="M196.205 17.3249C195.701 17.3249 195.203 17.2469 194.71 17.0908C194.218 16.9347 193.816 16.7187 193.504 16.4426L194.53 14.4438C194.746 14.6359 194.992 14.786 195.269 14.894C195.557 15.002 195.839 15.0561 196.115 15.0561C196.511 15.0561 196.823 14.96 197.051 14.7679C197.291 14.5879 197.507 14.2818 197.699 13.8496L198.204 12.6612L198.42 12.3551L201.895 4H204.596L200.22 14.2818C199.908 15.0621 199.548 15.6743 199.14 16.1184C198.744 16.5626 198.3 16.8747 197.807 17.0548C197.327 17.2348 196.793 17.3249 196.205 17.3249ZM197.861 14.0657L193.54 4H196.439L199.788 12.103L197.861 14.0657Z" fill="black" fill-opacity="0.45"/>
<path d="M190.743 13.6876L187.502 9.09587L189.789 7.74537L194.057 13.6876H190.743ZM183.883 13.6876V4H186.692V13.6876H183.883ZM185.864 10.0142V7.76338H189.249V10.0142H185.864ZM190.059 9.16789L187.43 8.87979L190.833 4H193.822L190.059 9.16789Z" fill="black" fill-opacity="0.45"/>
<path d="M170.666 13.6695L170.81 11.3647C170.882 11.3767 170.954 11.3887 171.026 11.4007C171.098 11.4007 171.164 11.4007 171.224 11.4007C171.56 11.4007 171.824 11.3047 172.017 11.1126C172.209 10.9205 172.353 10.6624 172.449 10.3383C172.545 10.0022 172.611 9.62406 172.647 9.20391C172.695 8.78375 172.731 8.34559 172.755 7.88943L172.899 4H181.182V13.6876H178.373V5.62059L179.003 6.30484H174.754L175.348 5.58458L175.222 8.01547C175.186 8.87979 175.114 9.67208 175.006 10.3923C174.91 11.1126 174.748 11.7368 174.519 12.265C174.291 12.7812 173.985 13.1834 173.601 13.4715C173.217 13.7476 172.725 13.8856 172.125 13.8856C171.908 13.8856 171.68 13.8676 171.44 13.8316C171.2 13.7956 170.942 13.7416 170.666 13.6695Z" fill="black" fill-opacity="0.45"/>
<path d="M162.83 17.3249C162.326 17.3249 161.828 17.2469 161.335 17.0908C160.843 16.9347 160.441 16.7187 160.129 16.4426L161.155 14.4438C161.371 14.6359 161.617 14.786 161.894 14.894C162.182 15.002 162.464 15.0561 162.74 15.0561C163.136 15.0561 163.448 14.96 163.676 14.7679C163.916 14.5879 164.132 14.2818 164.324 13.8496L164.829 12.6612L165.045 12.3551L168.52 4H171.221L166.845 14.2818C166.533 15.0621 166.173 15.6743 165.765 16.1184C165.369 16.5626 164.925 16.8747 164.432 17.0548C163.952 17.2348 163.418 17.3249 162.83 17.3249ZM164.486 14.0657L160.165 4H163.064L166.413 12.103L164.486 14.0657Z" fill="black" fill-opacity="0.45"/>
<path d="M152.213 13.6876V4H159.974V6.30484H154.374L155.004 5.69262V13.6876H152.213Z" fill="black" fill-opacity="0.45"/>
<path d="M144.969 13.8311C143.936 13.8311 143.018 13.615 142.214 13.1829C141.421 12.7507 140.791 12.1625 140.323 11.4182C139.867 10.662 139.639 9.80365 139.639 8.8433C139.639 7.87094 139.867 7.01263 140.323 6.26835C140.791 5.51208 141.421 4.92386 142.214 4.50371C143.018 4.07155 143.936 3.85547 144.969 3.85547C145.989 3.85547 146.901 4.07155 147.706 4.50371C148.51 4.92386 149.14 5.50607 149.596 6.25035C150.052 6.99462 150.281 7.85894 150.281 8.8433C150.281 9.80365 150.052 10.662 149.596 11.4182C149.14 12.1625 148.51 12.7507 147.706 13.1829C146.901 13.615 145.989 13.8311 144.969 13.8311ZM144.969 11.5263C145.437 11.5263 145.857 11.4182 146.229 11.2022C146.601 10.9861 146.895 10.68 147.111 10.2838C147.327 9.87567 147.436 9.3955 147.436 8.8433C147.436 8.27909 147.327 7.79891 147.111 7.40277C146.895 7.00662 146.601 6.70051 146.229 6.48443C145.857 6.26835 145.437 6.16031 144.969 6.16031C144.5 6.16031 144.08 6.26835 143.708 6.48443C143.336 6.70051 143.036 7.00662 142.808 7.40277C142.592 7.79891 142.484 8.27909 142.484 8.8433C142.484 9.3955 142.592 9.87567 142.808 10.2838C143.036 10.68 143.336 10.9861 143.708 11.2022C144.08 11.4182 144.5 11.5263 144.969 11.5263Z" fill="black" fill-opacity="0.45"/>
<path d="M133.636 13.8311C132.82 13.8311 132.106 13.6511 131.493 13.2909C130.881 12.9308 130.401 12.3846 130.053 11.6523C129.717 10.9081 129.549 9.97171 129.549 8.8433C129.549 7.70288 129.711 6.76653 130.035 6.03427C130.359 5.302 130.827 4.7558 131.439 4.39567C132.052 4.03553 132.784 3.85547 133.636 3.85547C134.549 3.85547 135.365 4.06555 136.085 4.4857C136.817 4.89385 137.394 5.47006 137.814 6.21433C138.246 6.95861 138.462 7.83493 138.462 8.8433C138.462 9.86367 138.246 10.746 137.814 11.4903C137.394 12.2345 136.817 12.8107 136.085 13.2189C135.365 13.627 134.549 13.8311 133.636 13.8311ZM127.91 17.1804V3.99952H130.593V5.98025L130.539 8.8613L130.719 11.7244V17.1804H127.91ZM133.15 11.5263C133.618 11.5263 134.032 11.4182 134.393 11.2022C134.765 10.9861 135.059 10.68 135.275 10.2838C135.503 9.87567 135.617 9.3955 135.617 8.8433C135.617 8.27909 135.503 7.79891 135.275 7.40277C135.059 7.00662 134.765 6.70051 134.393 6.48443C134.032 6.26835 133.618 6.16031 133.15 6.16031C132.682 6.16031 132.262 6.26835 131.89 6.48443C131.517 6.70051 131.223 7.00662 131.007 7.40277C130.791 7.79891 130.683 8.27909 130.683 8.8433C130.683 9.3955 130.791 9.87567 131.007 10.2838C131.223 10.68 131.517 10.9861 131.89 11.2022C132.262 11.4182 132.682 11.5263 133.15 11.5263Z" fill="black" fill-opacity="0.45"/>
<path d="M115.602 13.6876V4H125.235V13.6876H122.426V5.67461L123.056 6.30484H117.762L118.393 5.67461V13.6876H115.602Z" fill="black" fill-opacity="0.45"/>
<path d="M104.84 7.09714C106.112 7.10914 107.078 7.39725 107.739 7.96145C108.411 8.51365 108.747 9.29994 108.747 10.3203C108.747 11.3887 108.369 12.223 107.613 12.8232C106.856 13.4114 105.806 13.7056 104.461 13.7056L99.5996 13.6876V4H102.391V7.09714H104.84ZM104.209 11.7068C104.749 11.7188 105.164 11.6048 105.452 11.3647C105.74 11.1246 105.884 10.7645 105.884 10.2843C105.884 9.80413 105.74 9.462 105.452 9.25793C105.164 9.04185 104.749 8.92781 104.209 8.9158L102.391 8.8978V11.7068H104.209Z" fill="black" fill-opacity="0.45"/>
<path d="M92.035 13.6876V5.65661L92.6652 6.30484H88.7578V4H98.1032V6.30484H94.1958L94.826 5.65661V13.6876H92.035Z" fill="black" fill-opacity="0.45"/>
<path d="M77.1797 13.6876V4H79.9707V9.76211L84.6884 4H87.2634V13.6876H84.4724V7.92544L79.7726 13.6876H77.1797Z" fill="black" fill-opacity="0.45"/>
<path d="M66.3096 11.3827L65.6974 12.0309V4H68.5064V12.0309L67.8582 11.3827H72.3238L71.6936 12.0309V4H74.4846V13.6876H59.7012V4H62.4922V12.0309L61.862 11.3827H66.3096Z" fill="black" fill-opacity="0.45"/>
<path d="M52.9058 13.8311C52.0895 13.8311 51.3752 13.6511 50.763 13.2909C50.1508 12.9308 49.6706 12.3846 49.3225 11.6523C48.9863 10.9081 48.8183 9.97171 48.8183 8.8433C48.8183 7.70288 48.9803 6.76653 49.3045 6.03427C49.6286 5.302 50.0968 4.7558 50.709 4.39567C51.3212 4.03553 52.0535 3.85547 52.9058 3.85547C53.8181 3.85547 54.6344 4.06555 55.3547 4.4857C56.087 4.89385 56.6632 5.47006 57.0833 6.21433C57.5155 6.95861 57.7316 7.83493 57.7316 8.8433C57.7316 9.86367 57.5155 10.746 57.0833 11.4903C56.6632 12.2345 56.087 12.8107 55.3547 13.2189C54.6344 13.627 53.8181 13.8311 52.9058 13.8311ZM47.1797 17.1804V3.99952H49.8627V5.98025L49.8087 8.8613L49.9887 11.7244V17.1804H47.1797ZM52.4196 11.5263C52.8878 11.5263 53.3019 11.4182 53.6621 11.2022C54.0342 10.9861 54.3283 10.68 54.5444 10.2838C54.7725 9.87567 54.8865 9.3955 54.8865 8.8433C54.8865 8.27909 54.7725 7.79891 54.5444 7.40277C54.3283 7.00662 54.0342 6.70051 53.6621 6.48443C53.3019 6.26835 52.8878 6.16031 52.4196 6.16031C51.9514 6.16031 51.5313 6.26835 51.1591 6.48443C50.787 6.70051 50.4929 7.00662 50.2768 7.40277C50.0607 7.79891 49.9527 8.27909 49.9527 8.8433C49.9527 9.3955 50.0607 9.87567 50.2768 10.2838C50.4929 10.68 50.787 10.9861 51.1591 11.2022C51.5313 11.4182 51.9514 11.5263 52.4196 11.5263Z" fill="black" fill-opacity="0.45"/>
<path d="M40.362 13.8311C39.2576 13.8311 38.2853 13.615 37.4449 13.1829C36.6166 12.7507 35.9744 12.1625 35.5182 11.4182C35.0621 10.662 34.834 9.80365 34.834 8.8433C34.834 7.87094 35.0561 7.01263 35.5002 6.26835C35.9564 5.51208 36.5746 4.92386 37.3549 4.50371C38.1352 4.07155 39.0175 3.85547 40.0019 3.85547C40.9502 3.85547 41.8025 4.05954 42.5588 4.46769C43.3271 4.86384 43.9333 5.44005 44.3775 6.19633C44.8216 6.9406 45.0437 7.83493 45.0437 8.87931C45.0437 8.98735 45.0377 9.1134 45.0257 9.25745C45.0137 9.3895 45.0017 9.51554 44.9897 9.63559H37.1208V7.99699H43.5132L42.4328 8.48316C42.4328 7.97898 42.3307 7.54082 42.1267 7.16868C41.9226 6.79655 41.6405 6.50844 41.2803 6.30437C40.9202 6.08829 40.5001 5.98025 40.0199 5.98025C39.5397 5.98025 39.1136 6.08829 38.7414 6.30437C38.3813 6.50844 38.0992 6.80255 37.8951 7.18669C37.691 7.55883 37.589 8.00299 37.589 8.51918V8.95134C37.589 9.47953 37.703 9.9477 37.9311 10.3559C38.1712 10.752 38.5013 11.0581 38.9215 11.2742C39.3536 11.4783 39.8578 11.5803 40.434 11.5803C40.9502 11.5803 41.4004 11.5023 41.7845 11.3462C42.1807 11.1902 42.5408 10.9561 42.8649 10.644L44.3595 12.2645C43.9153 12.7687 43.3571 13.1589 42.6849 13.435C42.0126 13.6991 41.2383 13.8311 40.362 13.8311Z" fill="black" fill-opacity="0.45"/>
<path d="M24.4258 13.6876V4H29.3776C30.59 4 31.5384 4.22208 32.2226 4.66624C32.9069 5.0984 33.249 5.71063 33.249 6.50292C33.249 7.29521 32.9249 7.91944 32.2767 8.3756C31.6404 8.81977 30.7941 9.04185 29.7377 9.04185L30.0258 8.39361C31.2023 8.39361 32.0786 8.60969 32.6548 9.04185C33.243 9.47401 33.5371 10.1042 33.5371 10.9325C33.5371 11.7849 33.213 12.4571 32.5648 12.9493C31.9165 13.4415 30.9262 13.6876 29.5937 13.6876H24.4258ZM27.0007 11.7789H29.3596C29.8758 11.7789 30.2599 11.6948 30.512 11.5268C30.7761 11.3467 30.9082 11.0766 30.9082 10.7165C30.9082 10.3443 30.7881 10.0742 30.548 9.90617C30.3079 9.7261 29.9298 9.63607 29.4136 9.63607H27.0007V11.7789ZM27.0007 7.97946H29.1255C29.6177 7.97946 29.9838 7.88943 30.2239 7.70936C30.476 7.52929 30.602 7.2712 30.602 6.93508C30.602 6.58695 30.476 6.32885 30.2239 6.16079C29.9838 5.99273 29.6177 5.9087 29.1255 5.9087H27.0007V7.97946Z" fill="black" fill-opacity="0.45"/>
<path d="M19.3566 13.6871V11.7964L19.1765 11.3822V7.99699C19.1765 7.39677 18.9905 6.92859 18.6183 6.59247C18.2582 6.25635 17.7 6.08829 16.9437 6.08829C16.4275 6.08829 15.9173 6.17232 15.4131 6.34038C14.921 6.49644 14.5008 6.71251 14.1527 6.98862L13.1443 5.0259C13.6725 4.65376 14.3087 4.36566 15.053 4.16158C15.7973 3.95751 16.5536 3.85547 17.3218 3.85547C18.7984 3.85547 19.9448 4.2036 20.7611 4.89985C21.5774 5.59611 21.9856 6.6825 21.9856 8.15905V13.6871H19.3566ZM16.4035 13.8311C15.6472 13.8311 14.999 13.7051 14.4588 13.453C13.9186 13.1889 13.5044 12.8348 13.2163 12.3906C12.9282 11.9464 12.7842 11.4483 12.7842 10.896C12.7842 10.3198 12.9222 9.81565 13.1983 9.38349C13.4864 8.95134 13.9366 8.61521 14.5488 8.37512C15.1611 8.12303 15.9593 7.99699 16.9437 7.99699H19.5186V9.63559H17.2498C16.5896 9.63559 16.1334 9.74363 15.8813 9.9597C15.6412 10.1758 15.5212 10.4459 15.5212 10.77C15.5212 11.1301 15.6592 11.4182 15.9353 11.6343C16.2234 11.8384 16.6136 11.9404 17.1058 11.9404C17.5739 11.9404 17.9941 11.8324 18.3662 11.6163C18.7384 11.3882 19.0085 11.0581 19.1765 10.6259L19.6087 11.9224C19.4046 12.5467 19.0325 13.0208 18.4923 13.3449C17.9521 13.6691 17.2558 13.8311 16.4035 13.8311Z" fill="black" fill-opacity="0.45"/>
<path d="M0.823242 12.5712L1.72357 10.4824C2.26377 10.8065 2.83998 11.0586 3.45221 11.2387C4.07643 11.4068 4.68266 11.5028 5.27087 11.5268C5.87109 11.5388 6.41129 11.4788 6.89147 11.3467C7.38365 11.2147 7.77379 11.0166 8.06189 10.7525C8.362 10.4884 8.51206 10.1523 8.51206 9.74415C8.51206 9.26398 8.31399 8.90985 7.91784 8.68177C7.5217 8.44168 6.9935 8.32163 6.33326 8.32163H3.25413V6.12483H6.11718C6.7054 6.12483 7.16156 6.00478 7.48568 5.7647C7.82181 5.52461 7.98987 5.19449 7.98987 4.77433C7.98987 4.4142 7.86982 4.1261 7.62974 3.91002C7.38965 3.68193 7.05953 3.51387 6.63937 3.40583C6.23122 3.29779 5.76905 3.24977 5.25287 3.26178C4.73668 3.27378 4.20248 3.35781 3.65028 3.51387C3.09808 3.66993 2.56988 3.88601 2.0657 4.16211L1.18337 1.91128C1.99967 1.49113 2.85799 1.20303 3.75832 1.04697C4.67065 0.878906 5.54697 0.836891 6.38728 0.920921C7.23959 0.992948 8.00787 1.18502 8.69213 1.49713C9.37638 1.79724 9.92258 2.19339 10.3307 2.68557C10.7389 3.17775 10.943 3.75996 10.943 4.43221C10.943 5.03243 10.7869 5.56662 10.4748 6.0348C10.1627 6.50297 9.7245 6.8631 9.1603 7.11519C8.6081 7.36728 7.97186 7.49333 7.2516 7.49333L7.32362 6.84509C8.16393 6.84509 8.8902 6.98914 9.50242 7.27725C10.1267 7.55335 10.6068 7.9435 10.943 8.44768C11.2911 8.93986 11.4651 9.51007 11.4651 10.1583C11.4651 10.7585 11.3031 11.2987 10.979 11.7789C10.6668 12.2471 10.2347 12.6432 9.68249 12.9673C9.13029 13.2915 8.50006 13.5315 7.7918 13.6876C7.08354 13.8437 6.32726 13.9097 5.52296 13.8857C4.73067 13.8617 3.93238 13.7476 3.12809 13.5435C2.32379 13.3275 1.55551 13.0033 0.823242 12.5712Z" fill="black" fill-opacity="0.45"/>
</svg>
