<svg width="335" height="41" viewBox="0 0 335 41" fill="none" xmlns="http://www.w3.org/2000/svg">
<path d="M328.189 32.0016V23.9139L329.183 25.0435H322.451C318.956 25.0435 316.215 24.3205 314.227 22.8747C312.239 21.4289 311.245 19.3505 311.245 16.6395C311.245 13.7478 312.284 11.5339 314.363 9.99767C316.471 8.46146 319.303 7.69336 322.857 7.69336H334.469V32.0016H328.189ZM310.884 32.0016L317.345 22.7392H324.529L318.384 32.0016H310.884ZM328.189 21.7451V11.6242L329.183 13.4315H322.993C321.547 13.4315 320.417 13.7026 319.604 14.2448C318.821 14.787 318.429 15.6606 318.429 16.8654C318.429 19.1848 319.92 20.3445 322.902 20.3445H329.183L328.189 21.7451Z" fill="#163C51"/>
<path d="M280.794 32.0016V7.69336H287.797V22.1518L299.635 7.69336H306.096V32.0016H299.093V17.5432L287.3 32.0016H280.794Z" fill="#163C51"/>
<path d="M261.81 32.0016V11.8502L263.392 13.4767H253.587V7.69336H277.037V13.4767H267.232L268.813 11.8502V32.0016H261.81Z" fill="#163C51"/>
<path d="M243.56 32.0016V23.9139L244.554 25.0435H237.822C234.327 25.0435 231.586 24.3205 229.598 22.8747C227.61 21.4289 226.616 19.3505 226.616 16.6395C226.616 13.7478 227.656 11.5339 229.734 9.99767C231.842 8.46146 234.674 7.69336 238.228 7.69336H249.84V32.0016H243.56ZM226.255 32.0016L232.716 22.7392H239.9L233.755 32.0016H226.255ZM243.56 21.7451V11.6242L244.554 13.4315H238.364C236.918 13.4315 235.788 13.7026 234.975 14.2448C234.192 14.787 233.8 15.6606 233.8 16.8654C233.8 19.1848 235.291 20.3445 238.273 20.3445H244.554L243.56 21.7451Z" fill="#163C51"/>
<path d="M196.165 32.0016V7.69336H203.168V22.1518L215.006 7.69336H221.467V32.0016H214.464V17.5432L202.671 32.0016H196.165Z" fill="#163C51"/>
<path d="M179.116 32.3632C177.068 32.3632 175.276 31.9113 173.739 31.0077C172.203 30.104 170.998 28.7335 170.125 26.8961C169.281 25.0285 168.86 22.679 168.86 19.8476C168.86 16.986 169.266 14.6365 170.08 12.7991C170.893 10.9617 172.068 9.59116 173.604 8.68751C175.14 7.78386 176.977 7.33203 179.116 7.33203C181.405 7.33203 183.454 7.85916 185.261 8.91342C187.098 9.93756 188.544 11.3834 189.598 13.2509C190.683 15.1185 191.225 17.3174 191.225 19.8476C191.225 22.4079 190.683 24.6219 189.598 26.4894C188.544 28.357 187.098 29.8028 185.261 30.827C183.454 31.8511 181.405 32.3632 179.116 32.3632ZM164.748 40.7671V7.69349H171.48V12.6636L171.345 19.8928L171.797 27.0768V40.7671H164.748ZM177.896 26.5798C179.071 26.5798 180.11 26.3087 181.014 25.7665C181.948 25.2243 182.686 24.4562 183.228 23.4622C183.8 22.4381 184.086 21.2332 184.086 19.8476C184.086 18.4319 183.8 17.227 183.228 16.233C182.686 15.239 181.948 14.4709 181.014 13.9287C180.11 13.3865 179.071 13.1154 177.896 13.1154C176.721 13.1154 175.667 13.3865 174.733 13.9287C173.8 14.4709 173.062 15.239 172.519 16.233C171.977 17.227 171.706 18.4319 171.706 19.8476C171.706 21.2332 171.977 22.4381 172.519 23.4622C173.062 24.4562 173.8 25.2243 174.733 25.7665C175.667 26.3087 176.721 26.5798 177.896 26.5798Z" fill="#163C51"/>
<path d="M133.862 32.0016V7.69336H158.035V32.0016H150.986V11.8953L152.568 13.4767H139.284L140.866 11.8953V32.0016H133.862Z" fill="#163C51"/>
<path d="M115.686 32.3632C113.095 32.3632 110.791 31.821 108.773 30.7366C106.785 29.6522 105.203 28.1763 104.028 26.3087C102.884 24.411 102.312 22.2573 102.312 19.8476C102.312 17.4077 102.884 15.254 104.028 13.3865C105.203 11.4888 106.785 10.0129 108.773 8.9586C110.791 7.87422 113.095 7.33203 115.686 7.33203C118.246 7.33203 120.535 7.87422 122.553 8.9586C124.571 10.0129 126.153 11.4738 127.297 13.3413C128.442 15.2089 129.014 17.3776 129.014 19.8476C129.014 22.2573 128.442 24.411 127.297 26.3087C126.153 28.1763 124.571 29.6522 122.553 30.7366C120.535 31.821 118.246 32.3632 115.686 32.3632ZM115.686 26.5798C116.86 26.5798 117.915 26.3087 118.848 25.7665C119.782 25.2243 120.52 24.4562 121.062 23.4622C121.604 22.4381 121.876 21.2332 121.876 19.8476C121.876 18.4319 121.604 17.227 121.062 16.233C120.52 15.239 119.782 14.4709 118.848 13.9287C117.915 13.3865 116.86 13.1154 115.686 13.1154C114.511 13.1154 113.457 13.3865 112.523 13.9287C111.589 14.4709 110.836 15.239 110.264 16.233C109.721 17.227 109.45 18.4319 109.45 19.8476C109.45 21.2332 109.721 22.4381 110.264 23.4622C110.836 24.4562 111.589 25.2243 112.523 25.7665C113.457 26.3087 114.511 26.5798 115.686 26.5798Z" fill="#163C51"/>
<path d="M87.2509 32.3632C85.2026 32.3632 83.4104 31.9113 81.8741 31.0077C80.3379 30.104 79.1331 28.7335 78.2595 26.8961C77.4161 25.0285 76.9944 22.679 76.9944 19.8476C76.9944 16.986 77.4011 14.6365 78.2144 12.7991C79.0276 10.9617 80.2024 9.59116 81.7386 8.68751C83.2748 7.78386 85.1122 7.33203 87.2509 7.33203C89.5401 7.33203 91.5884 7.85916 93.3957 8.91342C95.2331 9.93756 96.679 11.3834 97.7332 13.2509C98.8176 15.1185 99.3598 17.3174 99.3598 19.8476C99.3598 22.4079 98.8176 24.6219 97.7332 26.4894C96.679 28.357 95.2331 29.8028 93.3957 30.827C91.5884 31.8511 89.5401 32.3632 87.2509 32.3632ZM72.8828 40.7671V7.69349H79.615V12.6636L79.4795 19.8928L79.9313 27.0768V40.7671H72.8828ZM86.0309 26.5798C87.2057 26.5798 88.2449 26.3087 89.1485 25.7665C90.0823 25.2243 90.8203 24.4562 91.3625 23.4622C91.9348 22.4381 92.221 21.2332 92.221 19.8476C92.221 18.4319 91.9348 17.227 91.3625 16.233C90.8203 15.239 90.0823 14.4709 89.1485 13.9287C88.2449 13.3865 87.2057 13.1154 86.0309 13.1154C84.8562 13.1154 83.8019 13.3865 82.8682 13.9287C81.9344 14.4709 81.1964 15.239 80.6542 16.233C80.112 17.227 79.8409 18.4319 79.8409 19.8476C79.8409 21.2332 80.112 22.4381 80.6542 23.4622C81.1964 24.4562 81.9344 25.2243 82.8682 25.7665C83.8019 26.3087 84.8562 26.5798 86.0309 26.5798Z" fill="#163C51"/>
<path d="M55.7773 32.3632C53.0061 32.3632 50.5662 31.821 48.4577 30.7366C46.3793 29.6522 44.7678 28.1763 43.6232 26.3087C42.4786 24.411 41.9062 22.2573 41.9062 19.8476C41.9062 17.4077 42.4635 15.254 43.578 13.3865C44.7226 11.4888 46.2739 10.0129 48.2318 8.9586C50.1897 7.87422 52.4037 7.33203 54.8736 7.33203C57.2533 7.33203 59.3919 7.8441 61.2896 8.86824C63.2174 9.86225 64.7385 11.3081 65.853 13.2058C66.9675 15.0733 67.5248 17.3174 67.5248 19.938C67.5248 20.2091 67.5097 20.5253 67.4796 20.8868C67.4495 21.2181 67.4193 21.5344 67.3892 21.8356H47.6444V17.724H63.6842L60.9733 18.9439C60.9733 17.6788 60.7173 16.5794 60.2052 15.6456C59.6931 14.7118 58.9853 13.9889 58.0816 13.4769C57.178 12.9347 56.1237 12.6636 54.9188 12.6636C53.714 12.6636 52.6446 12.9347 51.7109 13.4769C50.8072 13.9889 50.0994 14.7269 49.5873 15.6908C49.0752 16.6246 48.8192 17.7391 48.8192 19.0343V20.1187C48.8192 21.444 49.1053 22.6188 49.6777 23.6429C50.2801 24.637 51.1084 25.4051 52.1627 25.9472C53.2471 26.4593 54.5122 26.7153 55.958 26.7153C57.2533 26.7153 58.3828 26.5196 59.3467 26.128C60.3407 25.7364 61.2444 25.149 62.0577 24.3659L65.8078 28.4323C64.6933 29.6974 63.2927 30.6764 61.6059 31.3692C59.919 32.0318 57.9762 32.3632 55.7773 32.3632Z" fill="#163C51"/>
<path d="M0.930664 32.0008V0.373047H6.98513L20.4495 22.6932H17.2416L30.4801 0.373047H36.5345L36.5797 32.0008H29.712L29.6668 10.9006H30.9771L20.3592 28.6573H17.106L6.26221 10.9006H7.79841V32.0008H0.930664Z" fill="#163C51"/>
</svg>
