<svg width="480" height="34" viewBox="0 0 480 34" fill="none" xmlns="http://www.w3.org/2000/svg">
<path d="M475.983 25.9992V19.276L476.525 19.9267H470.416C467.862 19.9267 465.862 19.3845 464.416 18.3001C462.994 17.2157 462.283 15.6373 462.283 13.565C462.283 11.348 463.042 9.67324 464.56 8.54066C466.103 7.40809 468.151 6.8418 470.705 6.8418H479.091V25.9992H475.983ZM462.103 25.9992L467.308 18.6616H470.886L465.826 25.9992H462.103ZM475.983 18.1917V8.90212L476.525 9.87807H470.814C469.223 9.87807 467.994 10.1793 467.127 10.7817C466.259 11.3601 465.826 12.3239 465.826 13.6734C465.826 16.1795 467.44 17.4326 470.669 17.4326H476.525L475.983 18.1917Z" fill="#163C51"/>
<path d="M438.632 25.9992V6.8418H442.102V20.7942L453.849 6.8418H456.994V25.9992H453.524V12.0468L441.813 25.9992H438.632Z" fill="#163C51"/>
<path d="M424.601 25.9992V8.97441L425.469 9.87807H417.589V6.8418H435.084V9.87807H427.24L428.071 8.97441V25.9992H424.601Z" fill="#163C51"/>
<path d="M410.927 25.9992V19.276L411.469 19.9267H405.36C402.806 19.9267 400.806 19.3845 399.36 18.3001C397.938 17.2157 397.228 15.6373 397.228 13.565C397.228 11.348 397.987 9.67324 399.505 8.54066C401.047 7.40809 403.095 6.8418 405.65 6.8418H414.036V25.9992H410.927ZM397.047 25.9992L402.252 18.6616H405.83L400.77 25.9992H397.047ZM410.927 18.1917V8.90212L411.469 9.87807H405.758C404.168 9.87807 402.939 10.1793 402.071 10.7817C401.204 11.3601 400.77 12.3239 400.77 13.6734C400.77 16.1795 402.384 17.4326 405.613 17.4326H411.469L410.927 18.1917Z" fill="#163C51"/>
<path d="M373.576 25.9992V6.8418H377.046V20.7942L388.794 6.8418H391.938V25.9992H388.468V12.0468L376.757 25.9992H373.576Z" fill="#163C51"/>
<path d="M358.847 26.2171C357.257 26.2171 355.799 25.8557 354.474 25.1327C353.173 24.3857 352.124 23.2893 351.329 21.8434C350.558 20.3976 350.172 18.5903 350.172 16.4215C350.172 14.2528 350.546 12.4455 351.293 10.9996C352.064 9.55379 353.1 8.46941 354.402 7.74649C355.727 7.02357 357.209 6.66211 358.847 6.66211C360.727 6.66211 362.39 7.07176 363.836 7.89107C365.281 8.71039 366.426 9.85501 367.27 11.3249C368.113 12.7708 368.535 14.4697 368.535 16.4215C368.535 18.3734 368.113 20.0843 367.27 21.5543C366.426 23.0242 365.281 24.1688 363.836 24.9882C362.39 25.8075 360.727 26.2171 358.847 26.2171ZM348.69 33.0126V6.84284H352.016V12.0117L351.799 16.4577L352.16 20.9037V33.0126H348.69ZM358.558 23.1809C359.787 23.1809 360.884 22.9037 361.848 22.3495C362.836 21.7953 363.607 21.0121 364.161 20C364.739 18.9638 365.028 17.771 365.028 16.4215C365.028 15.048 364.739 13.8672 364.161 12.8792C363.607 11.8671 362.836 11.084 361.848 10.5297C360.884 9.9755 359.787 9.69838 358.558 9.69838C357.353 9.69838 356.257 9.9755 355.269 10.5297C354.305 11.084 353.534 11.8671 352.956 12.8792C352.401 13.8672 352.124 15.048 352.124 16.4215C352.124 17.771 352.401 18.9638 352.956 20C353.534 21.0121 354.305 21.7953 355.269 22.3495C356.257 22.9037 357.353 23.1809 358.558 23.1809Z" fill="#163C51"/>
<path d="M324.229 25.9992V6.8418H341.976V25.9992H338.506V9.01056L339.338 9.87807H326.867L327.699 9.01056V25.9992H324.229Z" fill="#163C51"/>
<path d="M309.277 26.2171C307.349 26.2171 305.638 25.7954 304.144 24.952C302.65 24.1086 301.47 22.9519 300.602 21.482C299.735 19.988 299.301 18.3011 299.301 16.4215C299.301 14.5178 299.735 12.831 300.602 11.3611C301.47 9.89116 302.65 8.74653 304.144 7.92722C305.638 7.08381 307.349 6.66211 309.277 6.66211C311.181 6.66211 312.88 7.08381 314.374 7.92722C315.892 8.74653 317.073 9.89116 317.916 11.3611C318.783 12.8069 319.217 14.4938 319.217 16.4215C319.217 18.3252 318.783 20.012 317.916 21.482C317.073 22.9519 315.892 24.1086 314.374 24.952C312.88 25.7954 311.181 26.2171 309.277 26.2171ZM309.277 23.1809C310.506 23.1809 311.602 22.9037 312.566 22.3495C313.554 21.7953 314.325 21.0121 314.88 20C315.434 18.9638 315.711 17.771 315.711 16.4215C315.711 15.048 315.434 13.8672 314.88 12.8792C314.325 11.8671 313.554 11.084 312.566 10.5297C311.602 9.9755 310.506 9.69838 309.277 9.69838C308.048 9.69838 306.952 9.9755 305.988 10.5297C305.024 11.084 304.253 11.8671 303.674 12.8792C303.096 13.8672 302.807 15.048 302.807 16.4215C302.807 17.771 303.096 18.9638 303.674 20C304.253 21.0121 305.024 21.7953 305.988 22.3495C306.952 22.9037 308.048 23.1809 309.277 23.1809Z" fill="#163C51"/>
<path d="M286.344 26.2171C284.753 26.2171 283.295 25.8557 281.97 25.1327C280.669 24.3857 279.62 23.2893 278.825 21.8434C278.054 20.3976 277.669 18.5903 277.669 16.4215C277.669 14.2528 278.042 12.4455 278.789 10.9996C279.56 9.55379 280.596 8.46941 281.898 7.74649C283.223 7.02357 284.705 6.66211 286.344 6.66211C288.223 6.66211 289.886 7.07176 291.332 7.89107C292.778 8.71039 293.922 9.85501 294.766 11.3249C295.609 12.7708 296.031 14.4697 296.031 16.4215C296.031 18.3734 295.609 20.0843 294.766 21.5543C293.922 23.0242 292.778 24.1688 291.332 24.9882C289.886 25.8075 288.223 26.2171 286.344 26.2171ZM276.187 33.0126V6.84284H279.512V12.0117L279.295 16.4577L279.657 20.9037V33.0126H276.187ZM286.054 23.1809C287.283 23.1809 288.38 22.9037 289.344 22.3495C290.332 21.7953 291.103 21.0121 291.657 20C292.235 18.9638 292.525 17.771 292.525 16.4215C292.525 15.048 292.235 13.8672 291.657 12.8792C291.103 11.8671 290.332 11.084 289.344 10.5297C288.38 9.9755 287.283 9.69838 286.054 9.69838C284.85 9.69838 283.753 9.9755 282.765 10.5297C281.801 11.084 281.03 11.8671 280.452 12.8792C279.898 13.8672 279.62 15.048 279.62 16.4215C279.62 17.771 279.898 18.9638 280.452 20C281.03 21.0121 281.801 21.7953 282.765 22.3495C283.753 22.9037 284.85 23.1809 286.054 23.1809Z" fill="#163C51"/>
<path d="M262.019 26.2171C259.971 26.2171 258.164 25.7954 256.598 24.952C255.055 24.1086 253.85 22.9519 252.983 21.482C252.139 20.012 251.718 18.3252 251.718 16.4215C251.718 14.5178 252.127 12.831 252.947 11.3611C253.79 9.89116 254.935 8.74653 256.381 7.92722C257.851 7.08381 259.501 6.66211 261.333 6.66211C263.188 6.66211 264.827 7.07176 266.248 7.89107C267.67 8.71039 268.779 9.86706 269.574 11.3611C270.393 12.831 270.803 14.554 270.803 16.53C270.803 16.6746 270.791 16.8432 270.767 17.036C270.767 17.2288 270.755 17.4095 270.731 17.5782H254.429V15.0841H268.923L267.514 15.9516C267.538 14.7227 267.285 13.6262 266.755 12.6624C266.224 11.6985 265.489 10.9514 264.55 10.4213C263.634 9.86706 262.562 9.58994 261.333 9.58994C260.128 9.58994 259.055 9.86706 258.116 10.4213C257.176 10.9514 256.441 11.7105 255.911 12.6985C255.381 13.6624 255.116 14.7709 255.116 16.0239V16.6023C255.116 17.8794 255.405 19.0241 255.983 20.0361C256.585 21.0241 257.417 21.7953 258.477 22.3495C259.537 22.9037 260.754 23.1809 262.128 23.1809C263.26 23.1809 264.285 22.9881 265.2 22.6025C266.14 22.217 266.959 21.6386 267.658 20.8675L269.574 23.1086C268.706 24.1206 267.622 24.8918 266.321 25.4219C265.044 25.952 263.61 26.2171 262.019 26.2171Z" fill="#163C51"/>
<path d="M224.65 25.9992V6.8418H228.229L236.47 21.011H235.024L243.482 6.8418H246.736V25.9992H243.591V10.7456L244.169 11.0709L236.434 23.8304H234.916L227.144 10.8179L227.831 10.6733V25.9992H224.65Z" fill="#163C51"/>
<path d="M200.776 26.2171C198.728 26.2171 196.921 25.7954 195.354 24.952C193.812 24.1086 192.607 22.9519 191.74 21.482C190.896 20.012 190.475 18.3252 190.475 16.4215C190.475 14.5178 190.884 12.831 191.704 11.3611C192.547 9.89116 193.692 8.74653 195.137 7.92722C196.607 7.08381 198.258 6.66211 200.089 6.66211C201.945 6.66211 203.584 7.07176 205.005 7.89107C206.427 8.71039 207.536 9.86706 208.331 11.3611C209.15 12.831 209.56 14.554 209.56 16.53C209.56 16.6746 209.548 16.8432 209.524 17.036C209.524 17.2288 209.512 17.4095 209.487 17.5782H193.186V15.0841H207.68L206.27 15.9516C206.295 14.7227 206.042 13.6262 205.511 12.6624C204.981 11.6985 204.246 10.9514 203.306 10.4213C202.391 9.86706 201.318 9.58994 200.089 9.58994C198.885 9.58994 197.812 9.86706 196.872 10.4213C195.933 10.9514 195.198 11.7105 194.668 12.6985C194.137 13.6624 193.872 14.7709 193.872 16.0239V16.6023C193.872 17.8794 194.162 19.0241 194.74 20.0361C195.342 21.0241 196.174 21.7953 197.234 22.3495C198.294 22.9037 199.511 23.1809 200.885 23.1809C202.017 23.1809 203.041 22.9881 203.957 22.6025C204.897 22.217 205.716 21.6386 206.415 20.8675L208.331 23.1086C207.463 24.1206 206.379 24.8918 205.078 25.4219C203.8 25.952 202.367 26.2171 200.776 26.2171Z" fill="#163C51"/>
<path d="M182.029 25.9992V6.8418H185.499V25.9992H182.029ZM171.728 13.3481C174.162 13.3722 176.005 13.9264 177.258 15.0108C178.535 16.0952 179.174 17.6254 179.174 19.6014C179.174 21.6737 178.475 23.2762 177.077 24.4088C175.704 25.5173 173.728 26.0594 171.149 26.0353L163.089 25.9992V6.8418H166.559V13.3119L171.728 13.3481ZM170.896 23.3967C172.439 23.4208 173.619 23.1075 174.439 22.4569C175.258 21.8063 175.668 20.8424 175.668 19.5652C175.668 18.3121 175.258 17.3964 174.439 16.8181C173.644 16.2398 172.463 15.9386 170.896 15.9145L166.559 15.8422V23.3605L170.896 23.3967Z" fill="#163C51"/>
<path d="M138.485 25.9992V6.8418H141.955V14.9747H152.871V6.8418H156.341V25.9992H152.871V17.9748H141.955V25.9992H138.485Z" fill="#163C51"/>
<path d="M114.023 25.9992V6.8418H131.771V25.9992H128.301V9.01056L129.132 9.87807H116.662L117.493 9.01056V25.9992H114.023Z" fill="#163C51"/>
<path d="M94.3495 33.2284C93.4338 33.2284 92.5422 33.0718 91.6747 32.7585C90.8071 32.4693 90.0601 32.0356 89.4336 31.4573L90.9156 28.8547C91.3975 29.3126 91.9277 29.662 92.506 29.903C93.0843 30.1439 93.6988 30.2644 94.3495 30.2644C95.1929 30.2644 95.8917 30.0476 96.4459 29.6138C97.0002 29.1801 97.5183 28.4089 98.0002 27.3005L99.193 24.6618L99.5545 24.228L107.073 6.8418H110.471L101.181 27.9149C100.627 29.2644 100 30.3247 99.3015 31.0958C98.6267 31.8669 97.8797 32.4091 97.0604 32.7224C96.2411 33.0597 95.3374 33.2284 94.3495 33.2284ZM98.9039 26.6137L90.1565 6.8418H93.7711L101.217 23.9027L98.9039 26.6137Z" fill="#163C51"/>
<path d="M79.3434 25.9992V8.97441L80.2109 9.87807H72.3311V6.8418H89.8257V9.87807H81.982L82.8134 8.97441V25.9992H79.3434Z" fill="#163C51"/>
<path d="M63.4949 26.2171C61.543 26.2171 59.796 25.7954 58.2537 24.952C56.7356 24.1086 55.5428 22.9519 54.6753 21.482C53.8078 20.012 53.374 18.3252 53.374 16.4215C53.374 14.5178 53.8078 12.831 54.6753 11.3611C55.5428 9.89116 56.7356 8.74653 58.2537 7.92722C59.796 7.08381 61.543 6.66211 63.4949 6.66211C65.2299 6.66211 66.7722 7.01152 68.1216 7.71034C69.4952 8.38507 70.5554 9.39716 71.3025 10.7466L68.6638 12.4455C68.0373 11.5057 67.2662 10.8189 66.3505 10.3852C65.4588 9.9273 64.495 9.69838 63.4588 9.69838C62.2057 9.69838 61.0852 9.9755 60.0972 10.5297C59.1092 11.084 58.326 11.8671 57.7477 12.8792C57.1694 13.8672 56.8802 15.048 56.8802 16.4215C56.8802 17.7951 57.1694 18.9879 57.7477 20C58.326 21.0121 59.1092 21.7953 60.0972 22.3495C61.0852 22.9037 62.2057 23.1809 63.4588 23.1809C64.495 23.1809 65.4588 22.964 66.3505 22.5302C67.2662 22.0724 68.0373 21.3735 68.6638 20.4338L71.3025 22.0965C70.5554 23.4218 69.4952 24.446 68.1216 25.1689C66.7722 25.8677 65.2299 26.2171 63.4949 26.2171Z" fill="#163C51"/>
<path d="M40.1941 26.2171C38.2663 26.2171 36.5554 25.7954 35.0613 24.952C33.5673 24.1086 32.3865 22.9519 31.519 21.482C30.6515 19.988 30.2178 18.3011 30.2178 16.4215C30.2178 14.5178 30.6515 12.831 31.519 11.3611C32.3865 9.89116 33.5673 8.74653 35.0613 7.92722C36.5554 7.08381 38.2663 6.66211 40.1941 6.66211C42.0978 6.66211 43.7966 7.08381 45.2907 7.92722C46.8088 8.74653 47.9896 9.89116 48.833 11.3611C49.7005 12.8069 50.1342 14.4938 50.1342 16.4215C50.1342 18.3252 49.7005 20.012 48.833 21.482C47.9896 22.9519 46.8088 24.1086 45.2907 24.952C43.7966 25.7954 42.0978 26.2171 40.1941 26.2171ZM40.1941 23.1809C41.423 23.1809 42.5195 22.9037 43.4834 22.3495C44.4714 21.7953 45.2425 21.0121 45.7967 20C46.351 18.9638 46.6281 17.771 46.6281 16.4215C46.6281 15.048 46.351 13.8672 45.7967 12.8792C45.2425 11.8671 44.4714 11.084 43.4834 10.5297C42.5195 9.9755 41.423 9.69838 40.1941 9.69838C38.9651 9.69838 37.8687 9.9755 36.9048 10.5297C35.9409 11.084 35.1698 11.8671 34.5914 12.8792C34.0131 13.8672 33.7239 15.048 33.7239 16.4215C33.7239 17.771 34.0131 18.9638 34.5914 20C35.1698 21.0121 35.9409 21.7953 36.9048 22.3495C37.8687 22.9037 38.9651 23.1809 40.1941 23.1809Z" fill="#163C51"/>
<path d="M20.7477 24.3006V3.84197H9.65082L9.47009 9.15544C9.3978 10.9386 9.27731 12.6496 9.10863 14.2882C8.96405 15.9268 8.74717 17.4088 8.458 18.7341C8.16883 20.0354 7.75918 21.1077 7.22904 21.9511C6.72299 22.7945 6.07236 23.3126 5.27715 23.5054L1.37338 22.8548C2.31318 22.9271 3.08429 22.6138 3.68672 21.915C4.31326 21.1921 4.7952 20.192 5.13257 18.9149C5.49403 17.6136 5.7591 16.1075 5.92778 14.3966C6.09646 12.6616 6.21695 10.8061 6.28924 8.83013L6.54226 0.697266H24.3261V24.3006H20.7477ZM0.469727 31.5298L0.505873 22.8548H28.0492V31.5298H24.6876V25.9995H3.86746L3.83131 31.5298H0.469727Z" fill="#163C51"/>
</svg>
