<svg width="214" height="17" viewBox="0 0 214 17" fill="none" xmlns="http://www.w3.org/2000/svg">
<path d="M209.252 9.00039C210.598 9.01372 211.625 9.32039 212.332 9.92039C213.038 10.5204 213.392 11.3671 213.392 12.4604C213.392 13.6071 213.005 14.4937 212.232 15.1204C211.458 15.7337 210.365 16.0337 208.952 16.0204L204.352 16.0004V5.40039H206.272V8.98039L209.252 9.00039ZM208.792 14.5604C209.658 14.5737 210.312 14.4004 210.752 14.0404C211.205 13.6804 211.432 13.1471 211.432 12.4404C211.432 11.7471 211.212 11.2404 210.772 10.9204C210.332 10.6004 209.672 10.4337 208.792 10.4204L206.272 10.3804V14.5404L208.792 14.5604Z" fill="#163C51"/>
<path d="M196.589 16.0004V6.58039L197.069 7.08039H192.709V5.40039H202.389V7.08039H198.049L198.509 6.58039V16.0004H196.589Z" fill="#163C51"/>
<path d="M187.82 16.1208C186.74 16.1208 185.773 15.8874 184.92 15.4208C184.08 14.9541 183.42 14.3141 182.94 13.5008C182.46 12.6874 182.22 11.7541 182.22 10.7008C182.22 9.64745 182.46 8.71412 182.94 7.90078C183.42 7.08745 184.08 6.45412 184.92 6.00078C185.773 5.53411 186.74 5.30078 187.82 5.30078C188.78 5.30078 189.633 5.49411 190.38 5.88078C191.14 6.25411 191.726 6.81411 192.14 7.56078L190.68 8.50078C190.333 7.98078 189.906 7.60078 189.4 7.36078C188.906 7.10745 188.373 6.98078 187.8 6.98078C187.106 6.98078 186.486 7.13411 185.94 7.44078C185.393 7.74745 184.96 8.18078 184.64 8.74078C184.32 9.28745 184.16 9.94078 184.16 10.7008C184.16 11.4608 184.32 12.1208 184.64 12.6808C184.96 13.2408 185.393 13.6741 185.94 13.9808C186.486 14.2874 187.106 14.4408 187.8 14.4408C188.373 14.4408 188.906 14.3208 189.4 14.0808C189.906 13.8274 190.333 13.4408 190.68 12.9208L192.14 13.8408C191.726 14.5741 191.14 15.1408 190.38 15.5408C189.633 15.9274 188.78 16.1208 187.82 16.1208Z" fill="#163C51"/>
<path d="M177.922 16.0008V13.7608L177.822 13.3408V9.52078C177.822 8.70745 177.582 8.08078 177.102 7.64078C176.636 7.18745 175.929 6.96078 174.982 6.96078C174.356 6.96078 173.742 7.06745 173.142 7.28078C172.542 7.48078 172.036 7.75412 171.622 8.10078L170.822 6.66078C171.369 6.22078 172.022 5.88745 172.782 5.66078C173.556 5.42078 174.362 5.30078 175.202 5.30078C176.656 5.30078 177.776 5.65411 178.562 6.36078C179.349 7.06745 179.742 8.14745 179.742 9.60078V16.0008H177.922ZM174.442 16.1208C173.656 16.1208 172.962 15.9874 172.362 15.7208C171.776 15.4541 171.322 15.0874 171.002 14.6208C170.682 14.1408 170.522 13.6008 170.522 13.0008C170.522 12.4274 170.656 11.9074 170.922 11.4408C171.202 10.9741 171.649 10.6008 172.262 10.3208C172.889 10.0408 173.729 9.90078 174.782 9.90078H178.142V11.2808H174.862C173.902 11.2808 173.256 11.4408 172.922 11.7608C172.589 12.0808 172.422 12.4674 172.422 12.9208C172.422 13.4408 172.629 13.8608 173.042 14.1808C173.456 14.4874 174.029 14.6408 174.762 14.6408C175.482 14.6408 176.109 14.4808 176.642 14.1608C177.189 13.8408 177.582 13.3741 177.822 12.7608L178.202 14.0808C177.949 14.7074 177.502 15.2074 176.862 15.5808C176.222 15.9408 175.416 16.1208 174.442 16.1208Z" fill="#163C51"/>
<path d="M156.85 15.9804L156.97 14.3604C157.063 14.3737 157.15 14.3871 157.23 14.4004C157.31 14.4137 157.383 14.4204 157.45 14.4204C157.876 14.4204 158.21 14.2737 158.45 13.9804C158.703 13.6871 158.89 13.3004 159.01 12.8204C159.13 12.3271 159.216 11.7737 159.27 11.1604C159.323 10.5471 159.363 9.93372 159.39 9.32039L159.57 5.40039H167.71V16.0004H165.79V6.52039L166.25 7.08039H160.81L161.25 6.50039L161.11 9.44039C161.07 10.3737 160.996 11.2471 160.89 12.0604C160.783 12.8737 160.616 13.5871 160.39 14.2004C160.176 14.8137 159.876 15.2937 159.49 15.6404C159.116 15.9871 158.63 16.1604 158.03 16.1604C157.856 16.1604 157.67 16.1404 157.47 16.1004C157.283 16.0737 157.076 16.0337 156.85 15.9804Z" fill="#163C51"/>
<path d="M150.345 16.1598C149.465 16.1598 148.685 16.0198 148.005 15.7398C147.339 15.4598 146.765 15.0465 146.285 14.4998C145.805 13.9398 145.439 13.2398 145.185 12.3998C144.945 11.5465 144.825 10.5465 144.825 9.39984C144.825 8.49318 144.905 7.67984 145.065 6.95984C145.225 6.23984 145.452 5.59984 145.745 5.03984C146.052 4.47984 146.425 3.99318 146.865 3.57984C147.319 3.16651 147.825 2.82651 148.385 2.55984C148.959 2.27984 149.585 2.06651 150.265 1.91984L155.105 0.839844L155.385 2.61984L150.925 3.57984C150.659 3.63318 150.339 3.71318 149.965 3.81984C149.592 3.92651 149.212 4.09318 148.825 4.31984C148.439 4.53318 148.079 4.83318 147.745 5.21984C147.412 5.60651 147.145 6.11318 146.945 6.73984C146.745 7.35318 146.645 8.11318 146.645 9.01984C146.645 9.27318 146.652 9.46651 146.665 9.59984C146.679 9.73318 146.692 9.86651 146.705 9.99984C146.732 10.1332 146.752 10.3332 146.765 10.5998L145.965 9.77984C146.179 9.04651 146.519 8.40651 146.985 7.85984C147.452 7.31318 148.012 6.89318 148.665 6.59984C149.332 6.29318 150.059 6.13984 150.845 6.13984C151.832 6.13984 152.705 6.35318 153.465 6.77984C154.239 7.20651 154.845 7.79318 155.285 8.53984C155.725 9.28651 155.945 10.1398 155.945 11.0998C155.945 12.0732 155.712 12.9465 155.245 13.7198C154.792 14.4798 154.145 15.0798 153.305 15.5198C152.465 15.9465 151.479 16.1598 150.345 16.1598ZM150.525 14.5598C151.205 14.5598 151.805 14.4132 152.325 14.1198C152.845 13.8132 153.252 13.4065 153.545 12.8998C153.839 12.3798 153.985 11.7998 153.985 11.1598C153.985 10.5198 153.839 9.95318 153.545 9.45984C153.252 8.96651 152.845 8.57984 152.325 8.29984C151.805 8.00651 151.192 7.85984 150.485 7.85984C149.819 7.85984 149.219 7.99984 148.685 8.27984C148.152 8.54651 147.739 8.92651 147.445 9.41984C147.152 9.89984 147.005 10.4598 147.005 11.0998C147.005 11.7398 147.152 12.3265 147.445 12.8598C147.752 13.3798 148.165 13.7932 148.685 14.0998C149.219 14.4065 149.832 14.5598 150.525 14.5598Z" fill="#163C51"/>
<path d="M137.173 16.1208C136.107 16.1208 135.16 15.8874 134.333 15.4208C133.507 14.9541 132.853 14.3141 132.373 13.5008C131.893 12.6741 131.653 11.7408 131.653 10.7008C131.653 9.64745 131.893 8.71412 132.373 7.90078C132.853 7.08745 133.507 6.45412 134.333 6.00078C135.16 5.53411 136.107 5.30078 137.173 5.30078C138.227 5.30078 139.167 5.53411 139.993 6.00078C140.833 6.45412 141.487 7.08745 141.953 7.90078C142.433 8.70078 142.673 9.63411 142.673 10.7008C142.673 11.7541 142.433 12.6874 141.953 13.5008C141.487 14.3141 140.833 14.9541 139.993 15.4208C139.167 15.8874 138.227 16.1208 137.173 16.1208ZM137.173 14.4408C137.853 14.4408 138.46 14.2874 138.993 13.9808C139.54 13.6741 139.967 13.2408 140.273 12.6808C140.58 12.1074 140.733 11.4474 140.733 10.7008C140.733 9.94078 140.58 9.28745 140.273 8.74078C139.967 8.18078 139.54 7.74745 138.993 7.44078C138.46 7.13411 137.853 6.98078 137.173 6.98078C136.493 6.98078 135.887 7.13411 135.353 7.44078C134.82 7.74745 134.393 8.18078 134.073 8.74078C133.753 9.28745 133.593 9.94078 133.593 10.7008C133.593 11.4474 133.753 12.1074 134.073 12.6808C134.393 13.2408 134.82 13.6741 135.353 13.9808C135.887 14.2874 136.493 14.4408 137.173 14.4408Z" fill="#163C51"/>
<path d="M121.796 16.0004V12.2804L122.096 12.6404H118.716C117.303 12.6404 116.196 12.3404 115.396 11.7404C114.61 11.1404 114.216 10.2671 114.216 9.12039C114.216 7.89372 114.636 6.96706 115.476 6.34039C116.33 5.71372 117.463 5.40039 118.876 5.40039H123.516V16.0004H121.796ZM114.116 16.0004L116.996 11.9404H118.976L116.176 16.0004H114.116ZM121.796 11.6804V6.54039L122.096 7.08039H118.936C118.056 7.08039 117.376 7.24706 116.896 7.58039C116.416 7.90039 116.176 8.43372 116.176 9.18039C116.176 10.5671 117.07 11.2604 118.856 11.2604H122.096L121.796 11.6804Z" fill="#163C51"/>
<path d="M109.739 16.0008V13.7608L109.639 13.3408V9.52078C109.639 8.70745 109.399 8.08078 108.919 7.64078C108.452 7.18745 107.746 6.96078 106.799 6.96078C106.172 6.96078 105.559 7.06745 104.959 7.28078C104.359 7.48078 103.852 7.75412 103.439 8.10078L102.639 6.66078C103.186 6.22078 103.839 5.88745 104.599 5.66078C105.372 5.42078 106.179 5.30078 107.019 5.30078C108.472 5.30078 109.592 5.65411 110.379 6.36078C111.166 7.06745 111.559 8.14745 111.559 9.60078V16.0008H109.739ZM106.259 16.1208C105.472 16.1208 104.779 15.9874 104.179 15.7208C103.592 15.4541 103.139 15.0874 102.819 14.6208C102.499 14.1408 102.339 13.6008 102.339 13.0008C102.339 12.4274 102.472 11.9074 102.739 11.4408C103.019 10.9741 103.466 10.6008 104.079 10.3208C104.706 10.0408 105.546 9.90078 106.599 9.90078H109.959V11.2808H106.679C105.719 11.2808 105.072 11.4408 104.739 11.7608C104.406 12.0808 104.239 12.4674 104.239 12.9208C104.239 13.4408 104.446 13.8608 104.859 14.1808C105.272 14.4874 105.846 14.6408 106.579 14.6408C107.299 14.6408 107.926 14.4808 108.459 14.1608C109.006 13.8408 109.399 13.3741 109.639 12.7608L110.019 14.0808C109.766 14.7074 109.319 15.2074 108.679 15.5808C108.039 15.9408 107.232 16.1208 106.259 16.1208Z" fill="#163C51"/>
<path d="M99.1605 16.0004L95.0605 10.8404L96.6405 9.88039L101.42 16.0004H99.1605ZM91.4805 16.0004V5.40039H93.4005V16.0004H91.4805ZM92.8205 11.5204V9.88039H96.3205V11.5204H92.8205ZM96.8005 10.9204L95.0205 10.6804L99.0805 5.40039H101.14L96.8005 10.9204Z" fill="#163C51"/>
<path d="M84.6752 16.1208C83.5952 16.1208 82.6285 15.8874 81.7752 15.4208C80.9352 14.9541 80.2752 14.3141 79.7952 13.5008C79.3152 12.6874 79.0752 11.7541 79.0752 10.7008C79.0752 9.64745 79.3152 8.71412 79.7952 7.90078C80.2752 7.08745 80.9352 6.45412 81.7752 6.00078C82.6285 5.53411 83.5952 5.30078 84.6752 5.30078C85.6352 5.30078 86.4885 5.49411 87.2352 5.88078C87.9952 6.25411 88.5819 6.81411 88.9952 7.56078L87.5352 8.50078C87.1885 7.98078 86.7619 7.60078 86.2552 7.36078C85.7619 7.10745 85.2285 6.98078 84.6552 6.98078C83.9619 6.98078 83.3419 7.13411 82.7952 7.44078C82.2485 7.74745 81.8152 8.18078 81.4952 8.74078C81.1752 9.28745 81.0152 9.94078 81.0152 10.7008C81.0152 11.4608 81.1752 12.1208 81.4952 12.6808C81.8152 13.2408 82.2485 13.6741 82.7952 13.9808C83.3419 14.2874 83.9619 14.4408 84.6552 14.4408C85.2285 14.4408 85.7619 14.3208 86.2552 14.0808C86.7619 13.8274 87.1885 13.4408 87.5352 12.9208L88.9952 13.8408C88.5819 14.5741 87.9952 15.1408 87.2352 15.5408C86.4885 15.9274 85.6352 16.1208 84.6752 16.1208Z" fill="#163C51"/>
<path d="M67.7695 16.0004V5.40039H72.6895C73.9295 5.40039 74.9029 5.64039 75.6095 6.12039C76.3295 6.58706 76.6895 7.25372 76.6895 8.12039C76.6895 8.98706 76.3495 9.66039 75.6695 10.1404C75.0029 10.6071 74.1162 10.8404 73.0095 10.8404L73.3095 10.3204C74.5762 10.3204 75.5162 10.5537 76.1295 11.0204C76.7429 11.4871 77.0495 12.1737 77.0495 13.0804C77.0495 14.0004 76.7029 14.7204 76.0095 15.2404C75.3295 15.7471 74.2829 16.0004 72.8695 16.0004H67.7695ZM69.6495 14.5204H72.7295C73.5295 14.5204 74.1295 14.4004 74.5295 14.1604C74.9295 13.9071 75.1295 13.5071 75.1295 12.9604C75.1295 12.4004 74.9429 11.9937 74.5695 11.7404C74.2095 11.4737 73.6362 11.3404 72.8495 11.3404H69.6495V14.5204ZM69.6495 9.96039H72.5295C73.2629 9.96039 73.8162 9.82706 74.1895 9.56039C74.5762 9.28039 74.7695 8.89372 74.7695 8.40039C74.7695 7.89372 74.5762 7.51372 74.1895 7.26039C73.8162 7.00706 73.2629 6.88039 72.5295 6.88039H69.6495V9.96039Z" fill="#163C51"/>
<path d="M59.4975 16.1208C58.4309 16.1208 57.4842 15.8874 56.6575 15.4208C55.8309 14.9541 55.1775 14.3141 54.6975 13.5008C54.2175 12.6741 53.9775 11.7408 53.9775 10.7008C53.9775 9.64745 54.2175 8.71412 54.6975 7.90078C55.1775 7.08745 55.8309 6.45412 56.6575 6.00078C57.4842 5.53411 58.4309 5.30078 59.4975 5.30078C60.5509 5.30078 61.4909 5.53411 62.3175 6.00078C63.1575 6.45412 63.8109 7.08745 64.2775 7.90078C64.7575 8.70078 64.9975 9.63411 64.9975 10.7008C64.9975 11.7541 64.7575 12.6874 64.2775 13.5008C63.8109 14.3141 63.1575 14.9541 62.3175 15.4208C61.4909 15.8874 60.5509 16.1208 59.4975 16.1208ZM59.4975 14.4408C60.1775 14.4408 60.7842 14.2874 61.3175 13.9808C61.8642 13.6741 62.2909 13.2408 62.5975 12.6808C62.9042 12.1074 63.0575 11.4474 63.0575 10.7008C63.0575 9.94078 62.9042 9.28745 62.5975 8.74078C62.2909 8.18078 61.8642 7.74745 61.3175 7.44078C60.7842 7.13411 60.1775 6.98078 59.4975 6.98078C58.8175 6.98078 58.2109 7.13411 57.6775 7.44078C57.1442 7.74745 56.7175 8.18078 56.3975 8.74078C56.0775 9.28745 55.9175 9.94078 55.9175 10.7008C55.9175 11.4474 56.0775 12.1074 56.3975 12.6808C56.7175 13.2408 57.1442 13.6741 57.6775 13.9808C58.2109 14.2874 58.8175 14.4408 59.4975 14.4408Z" fill="#163C51"/>
<path d="M51.0355 16.0004L46.9355 10.8404L48.5155 9.88039L53.2955 16.0004H51.0355ZM43.3555 16.0004V5.40039H45.2755V16.0004H43.3555ZM44.6955 11.5204V9.88039H48.1955V11.5204H44.6955ZM48.6755 10.9204L46.8955 10.6804L50.9555 5.40039H53.0155L48.6755 10.9204Z" fill="#163C51"/>
<path d="M36.5502 16.1208C35.4702 16.1208 34.5035 15.8874 33.6502 15.4208C32.8102 14.9541 32.1502 14.3141 31.6702 13.5008C31.1902 12.6874 30.9502 11.7541 30.9502 10.7008C30.9502 9.64745 31.1902 8.71412 31.6702 7.90078C32.1502 7.08745 32.8102 6.45412 33.6502 6.00078C34.5035 5.53411 35.4702 5.30078 36.5502 5.30078C37.5102 5.30078 38.3635 5.49411 39.1102 5.88078C39.8702 6.25411 40.4569 6.81411 40.8702 7.56078L39.4102 8.50078C39.0635 7.98078 38.6369 7.60078 38.1302 7.36078C37.6369 7.10745 37.1035 6.98078 36.5302 6.98078C35.8369 6.98078 35.2169 7.13411 34.6702 7.44078C34.1235 7.74745 33.6902 8.18078 33.3702 8.74078C33.0502 9.28745 32.8902 9.94078 32.8902 10.7008C32.8902 11.4608 33.0502 12.1208 33.3702 12.6808C33.6902 13.2408 34.1235 13.6741 34.6702 13.9808C35.2169 14.2874 35.8369 14.4408 36.5302 14.4408C37.1035 14.4408 37.6369 14.3208 38.1302 14.0808C38.6369 13.8274 39.0635 13.4408 39.4102 12.9208L40.8702 13.8408C40.4569 14.5741 39.8702 15.1408 39.1102 15.5408C38.3635 15.9274 37.5102 16.1208 36.5502 16.1208Z" fill="#163C51"/>
<path d="M23.6577 16.1208C22.591 16.1208 21.6444 15.8874 20.8177 15.4208C19.991 14.9541 19.3377 14.3141 18.8577 13.5008C18.3777 12.6741 18.1377 11.7408 18.1377 10.7008C18.1377 9.64745 18.3777 8.71412 18.8577 7.90078C19.3377 7.08745 19.991 6.45412 20.8177 6.00078C21.6444 5.53411 22.591 5.30078 23.6577 5.30078C24.711 5.30078 25.651 5.53411 26.4777 6.00078C27.3177 6.45412 27.971 7.08745 28.4377 7.90078C28.9177 8.70078 29.1577 9.63411 29.1577 10.7008C29.1577 11.7541 28.9177 12.6874 28.4377 13.5008C27.971 14.3141 27.3177 14.9541 26.4777 15.4208C25.651 15.8874 24.711 16.1208 23.6577 16.1208ZM23.6577 14.4408C24.3377 14.4408 24.9444 14.2874 25.4777 13.9808C26.0244 13.6741 26.451 13.2408 26.7577 12.6808C27.0644 12.1074 27.2177 11.4474 27.2177 10.7008C27.2177 9.94078 27.0644 9.28745 26.7577 8.74078C26.451 8.18078 26.0244 7.74745 25.4777 7.44078C24.9444 7.13411 24.3377 6.98078 23.6577 6.98078C22.9777 6.98078 22.371 7.13411 21.8377 7.44078C21.3044 7.74745 20.8777 8.18078 20.5577 8.74078C20.2377 9.28745 20.0777 9.94078 20.0777 10.7008C20.0777 11.4474 20.2377 12.1074 20.5577 12.6808C20.8777 13.2408 21.3044 13.6741 21.8377 13.9808C22.371 14.2874 22.9777 14.4408 23.6577 14.4408Z" fill="#163C51"/>
<path d="M0.179688 16V2H1.81969L8.09969 12.58H7.21969L13.4197 2H15.0597L15.0797 16H13.1597L13.1397 5.02H13.5997L8.07969 14.3H7.15969L1.59969 5.02H2.09969V16H0.179688Z" fill="#163C51"/>
</svg>
