<svg width="73" height="18" viewBox="0 0 73 18" fill="none" xmlns="http://www.w3.org/2000/svg">
<path d="M66.0476 17.1918C64.7356 17.1918 63.5596 16.8558 62.5196 16.1838C61.4956 15.5118 60.6796 14.5358 60.0716 13.2558C59.4796 11.9758 59.1836 10.4238 59.1836 8.59981C59.1836 6.77581 59.4796 5.22381 60.0716 3.94381C60.6796 2.66381 61.4956 1.68781 62.5196 1.01581C63.5596 0.343813 64.7356 0.0078125 66.0476 0.0078125C67.3436 0.0078125 68.5116 0.343813 69.5516 1.01581C70.5916 1.68781 71.4076 2.66381 71.9996 3.94381C72.5916 5.22381 72.8876 6.77581 72.8876 8.59981C72.8876 10.4238 72.5916 11.9758 71.9996 13.2558C71.4076 14.5358 70.5916 15.5118 69.5516 16.1838C68.5116 16.8558 67.3436 17.1918 66.0476 17.1918ZM66.0476 15.0558C66.9276 15.0558 67.6956 14.8158 68.3516 14.3358C69.0236 13.8558 69.5436 13.1358 69.9116 12.1758C70.2956 11.2158 70.4876 10.0238 70.4876 8.59981C70.4876 7.17581 70.2956 5.98381 69.9116 5.02381C69.5436 4.06381 69.0236 3.34381 68.3516 2.86381C67.6956 2.38381 66.9276 2.14381 66.0476 2.14381C65.1676 2.14381 64.3916 2.38381 63.7196 2.86381C63.0476 3.34381 62.5196 4.06381 62.1356 5.02381C61.7676 5.98381 61.5836 7.17581 61.5836 8.59981C61.5836 10.0238 61.7676 11.2158 62.1356 12.1758C62.5196 13.1358 63.0476 13.8558 63.7196 14.3358C64.3916 14.8158 65.1676 15.0558 66.0476 15.0558Z" fill="white" fill-opacity="0.45"/>
<path d="M50.0398 17.1918C48.7278 17.1918 47.5518 16.8558 46.5118 16.1838C45.4878 15.5118 44.6718 14.5358 44.0638 13.2558C43.4718 11.9758 43.1758 10.4238 43.1758 8.59981C43.1758 6.77581 43.4718 5.22381 44.0638 3.94381C44.6718 2.66381 45.4878 1.68781 46.5118 1.01581C47.5518 0.343813 48.7278 0.0078125 50.0398 0.0078125C51.3358 0.0078125 52.5038 0.343813 53.5438 1.01581C54.5838 1.68781 55.3998 2.66381 55.9918 3.94381C56.5838 5.22381 56.8798 6.77581 56.8798 8.59981C56.8798 10.4238 56.5838 11.9758 55.9918 13.2558C55.3998 14.5358 54.5838 15.5118 53.5438 16.1838C52.5038 16.8558 51.3358 17.1918 50.0398 17.1918ZM50.0398 15.0558C50.9198 15.0558 51.6878 14.8158 52.3438 14.3358C53.0158 13.8558 53.5358 13.1358 53.9038 12.1758C54.2878 11.2158 54.4798 10.0238 54.4798 8.59981C54.4798 7.17581 54.2878 5.98381 53.9038 5.02381C53.5358 4.06381 53.0158 3.34381 52.3438 2.86381C51.6878 2.38381 50.9198 2.14381 50.0398 2.14381C49.1598 2.14381 48.3838 2.38381 47.7118 2.86381C47.0398 3.34381 46.5118 4.06381 46.1278 5.02381C45.7598 5.98381 45.5758 7.17581 45.5758 8.59981C45.5758 10.0238 45.7598 11.2158 46.1278 12.1758C46.5118 13.1358 47.0398 13.8558 47.7118 14.3358C48.3838 14.8158 49.1598 15.0558 50.0398 15.0558Z" fill="white" fill-opacity="0.45"/>
<path d="M32.8761 7.44816C32.4281 7.44816 32.0441 7.29615 31.7241 6.99216C31.4041 6.67216 31.2441 6.27216 31.2441 5.79216C31.2441 5.31216 31.4041 4.92016 31.7241 4.61616C32.0441 4.31216 32.4281 4.16016 32.8761 4.16016C33.3081 4.16016 33.6761 4.31216 33.9801 4.61616C34.3001 4.92016 34.4601 5.31216 34.4601 5.79216C34.4601 6.27216 34.3001 6.67216 33.9801 6.99216C33.6761 7.29615 33.3081 7.44816 32.8761 7.44816ZM32.8761 17.1442C32.4281 17.1442 32.0441 16.9922 31.7241 16.6882C31.4041 16.3682 31.2441 15.9682 31.2441 15.4882C31.2441 15.0082 31.4041 14.6162 31.7241 14.3122C32.0441 14.0082 32.4281 13.8562 32.8761 13.8562C33.3081 13.8562 33.6761 14.0082 33.9801 14.3122C34.3001 14.6162 34.4601 15.0082 34.4601 15.4882C34.4601 15.9682 34.3001 16.3682 33.9801 16.6882C33.6761 16.9922 33.3081 17.1442 32.8761 17.1442Z" fill="white" fill-opacity="0.45"/>
<path d="M15.4827 0.0078125C17.0027 0.0078125 18.2827 0.335813 19.3227 0.991812C20.3787 1.64781 21.1787 2.59981 21.7227 3.84781C22.2667 5.07981 22.5387 6.59181 22.5387 8.38381C22.5387 10.2878 22.2027 11.8958 21.5307 13.2078C20.8587 14.5198 19.9307 15.5118 18.7467 16.1838C17.5627 16.8558 16.1787 17.1918 14.5947 17.1918C13.8107 17.1918 13.0507 17.1118 12.3147 16.9518C11.5947 16.7918 10.9627 16.5438 10.4187 16.2078L11.3307 14.3358C11.7787 14.6238 12.2747 14.8318 12.8187 14.9598C13.3787 15.0718 13.9627 15.1278 14.5707 15.1278C16.2667 15.1278 17.6187 14.5998 18.6267 13.5438C19.6347 12.4718 20.1387 10.8878 20.1387 8.79181C20.1387 8.45581 20.1227 8.05581 20.0907 7.59181C20.0587 7.12781 19.9867 6.67181 19.8747 6.22381L20.6667 7.03981C20.4427 7.77581 20.0667 8.39981 19.5387 8.91181C19.0267 9.40781 18.4027 9.78381 17.6667 10.0398C16.9467 10.2798 16.1547 10.3998 15.2907 10.3998C14.1867 10.3998 13.2027 10.1918 12.3387 9.77581C11.4747 9.35981 10.7947 8.77581 10.2987 8.02381C9.80269 7.25581 9.55469 6.35181 9.55469 5.31181C9.55469 4.22381 9.81069 3.28781 10.3227 2.50381C10.8507 1.70381 11.5627 1.08781 12.4587 0.655811C13.3707 0.223812 14.3787 0.0078125 15.4827 0.0078125ZM15.5787 1.95181C14.8587 1.95181 14.2187 2.08781 13.6587 2.35981C13.0987 2.63181 12.6587 3.00781 12.3387 3.48781C12.0347 3.96781 11.8827 4.54381 11.8827 5.21581C11.8827 6.20781 12.2267 6.99981 12.9147 7.59181C13.6027 8.16781 14.5307 8.45581 15.6987 8.45581C16.4667 8.45581 17.1387 8.31181 17.7147 8.02381C18.3067 7.73581 18.7627 7.34381 19.0827 6.84781C19.4187 6.35181 19.5867 5.79981 19.5867 5.19181C19.5867 4.59981 19.4347 4.06381 19.1307 3.58381C18.8267 3.10381 18.3787 2.71181 17.7867 2.40781C17.1947 2.10381 16.4587 1.95181 15.5787 1.95181Z" fill="white" fill-opacity="0.45"/>
<path d="M3.98341 16.9992V1.15922L5.01541 2.28722H0.191406V0.199219H6.35941V16.9992H3.98341Z" fill="white" fill-opacity="0.45"/>
</svg>
