<svg width="82" height="15" viewBox="0 0 82 15" fill="none" xmlns="http://www.w3.org/2000/svg">
<path d="M79.6347 13.999V10.651L79.9047 10.975H76.8627C75.5907 10.975 74.5947 10.705 73.8747 10.165C73.1667 9.62499 72.8127 8.83899 72.8127 7.80699C72.8127 6.70299 73.1907 5.86898 73.9467 5.30499C74.7147 4.74098 75.7347 4.45898 77.0067 4.45898H81.1827V13.999H79.6347ZM72.7227 13.999L75.3147 10.345H77.0967L74.5767 13.999H72.7227ZM79.6347 10.111V5.48499L79.9047 5.97099H77.0607C76.2687 5.97099 75.6567 6.12098 75.2247 6.42098C74.7927 6.70898 74.5767 7.18898 74.5767 7.86098C74.5767 9.10898 75.3807 9.73298 76.9887 9.73298H79.9047L79.6347 10.111Z" fill="white"/>
<path d="M61.0352 13.999V4.45898H62.7632V11.407L68.6132 4.45898H70.1792V13.999H68.4512V7.05099L62.6192 13.999H61.0352Z" fill="white"/>
<path d="M54.0477 13.999V5.52098L54.4797 5.97099H50.5557V4.45898H59.2677V5.97099H55.3617L55.7757 5.52098V13.999H54.0477Z" fill="white"/>
<path d="M47.0707 13.999V4.45898H48.7987V13.999H47.0707ZM41.9407 7.69898C43.1527 7.71098 44.0707 7.98699 44.6947 8.52699C45.3307 9.06699 45.6487 9.82898 45.6487 10.813C45.6487 11.845 45.3007 12.643 44.6047 13.207C43.9207 13.759 42.9367 14.029 41.6527 14.017L37.6387 13.999V4.45898H39.3667V7.68098L41.9407 7.69898ZM41.5267 12.703C42.2947 12.715 42.8827 12.559 43.2907 12.235C43.6987 11.911 43.9027 11.431 43.9027 10.795C43.9027 10.171 43.6987 9.71498 43.2907 9.42698C42.8947 9.13898 42.3067 8.98899 41.5267 8.97699L39.3667 8.94098V12.685L41.5267 12.703Z" fill="white"/>
<path d="M30.1301 14.1435C29.3381 14.1435 28.6361 14.0175 28.0241 13.7655C27.4241 13.5135 26.9081 13.1415 26.4761 12.6495C26.0441 12.1455 25.7141 11.5155 25.4861 10.7595C25.2701 9.99147 25.1621 9.09147 25.1621 8.05947C25.1621 7.24347 25.2341 6.51147 25.3781 5.86347C25.5221 5.21547 25.7261 4.63947 25.9901 4.13547C26.2661 3.63147 26.6021 3.19347 26.9981 2.82147C27.4061 2.44947 27.8621 2.14347 28.3661 1.90347C28.8821 1.65147 29.4461 1.45947 30.0581 1.32747L34.4141 0.355469L34.6661 1.95747L30.6521 2.82147C30.4121 2.86947 30.1241 2.94147 29.7881 3.03747C29.4521 3.13347 29.1101 3.28347 28.7621 3.48747C28.4141 3.67947 28.0901 3.94947 27.7901 4.29747C27.4901 4.64547 27.2501 5.10147 27.0701 5.66547C26.8901 6.21747 26.8001 6.90147 26.8001 7.71747C26.8001 7.94547 26.8061 8.11947 26.8181 8.23947C26.8301 8.35947 26.8421 8.47947 26.8541 8.59947C26.8781 8.71947 26.8961 8.89947 26.9081 9.13947L26.1881 8.40147C26.3801 7.74147 26.6861 7.16547 27.1061 6.67347C27.5261 6.18147 28.0301 5.80347 28.6181 5.53947C29.2181 5.26347 29.8721 5.12547 30.5801 5.12547C31.4681 5.12547 32.2541 5.31747 32.9381 5.70147C33.6341 6.08547 34.1801 6.61347 34.5761 7.28547C34.9721 7.95747 35.1701 8.72547 35.1701 9.58947C35.1701 10.4655 34.9601 11.2515 34.5401 11.9475C34.1321 12.6315 33.5501 13.1715 32.7941 13.5675C32.0381 13.9515 31.1501 14.1435 30.1301 14.1435ZM30.2921 12.7035C30.9041 12.7035 31.4441 12.5715 31.9121 12.3075C32.3801 12.0315 32.7461 11.6655 33.0101 11.2095C33.2741 10.7415 33.4061 10.2195 33.4061 9.64347C33.4061 9.06747 33.2741 8.55747 33.0101 8.11347C32.7461 7.66947 32.3801 7.32147 31.9121 7.06947C31.4441 6.80547 30.8921 6.67347 30.2561 6.67347C29.6561 6.67347 29.1161 6.79947 28.6361 7.05147C28.1561 7.29147 27.7841 7.63347 27.5201 8.07747C27.2561 8.50947 27.1241 9.01347 27.1241 9.58947C27.1241 10.1655 27.2561 10.6935 27.5201 11.1735C27.7961 11.6415 28.1681 12.0135 28.6361 12.2895C29.1161 12.5655 29.6681 12.7035 30.2921 12.7035Z" fill="white"/>
<path d="M18.2746 14.1071C17.3146 14.1071 16.4626 13.8971 15.7186 13.4771C14.9746 13.0571 14.3866 12.4811 13.9546 11.7491C13.5226 11.0051 13.3066 10.1651 13.3066 9.22914C13.3066 8.28114 13.5226 7.44114 13.9546 6.70914C14.3866 5.97714 14.9746 5.40714 15.7186 4.99914C16.4626 4.57914 17.3146 4.36914 18.2746 4.36914C19.2226 4.36914 20.0686 4.57914 20.8126 4.99914C21.5686 5.40714 22.1566 5.97714 22.5766 6.70914C23.0086 7.42914 23.2246 8.26914 23.2246 9.22914C23.2246 10.1771 23.0086 11.0171 22.5766 11.7491C22.1566 12.4811 21.5686 13.0571 20.8126 13.4771C20.0686 13.8971 19.2226 14.1071 18.2746 14.1071ZM18.2746 12.5951C18.8866 12.5951 19.4326 12.4571 19.9126 12.1811C20.4046 11.9051 20.7886 11.5151 21.0646 11.0111C21.3406 10.4951 21.4786 9.90114 21.4786 9.22914C21.4786 8.54514 21.3406 7.95714 21.0646 7.46514C20.7886 6.96114 20.4046 6.57114 19.9126 6.29514C19.4326 6.01914 18.8866 5.88114 18.2746 5.88114C17.6626 5.88114 17.1166 6.01914 16.6366 6.29514C16.1566 6.57114 15.7726 6.96114 15.4846 7.46514C15.1966 7.95714 15.0526 8.54514 15.0526 9.22914C15.0526 9.90114 15.1966 10.4951 15.4846 11.0111C15.7726 11.5151 16.1566 11.9051 16.6366 12.1811C17.1166 12.4571 17.6626 12.5951 18.2746 12.5951Z" fill="white"/>
<path d="M7.59555 14.1439C6.63555 14.1439 5.74755 13.9879 4.93155 13.6759C4.12755 13.3519 3.42555 12.9019 2.82555 12.3259C2.23755 11.7379 1.77555 11.0539 1.43955 10.2739C1.10355 9.49386 0.935547 8.63586 0.935547 7.69986C0.935547 6.76386 1.10355 5.90586 1.43955 5.12586C1.77555 4.34586 2.24355 3.66786 2.84355 3.09186C3.44355 2.50386 4.14555 2.05386 4.94955 1.74186C5.76555 1.41786 6.65355 1.25586 7.61355 1.25586C8.58555 1.25586 9.47955 1.42386 10.2955 1.75986C11.1235 2.08386 11.8255 2.56986 12.4015 3.21786L11.2315 4.35186C10.7515 3.84786 10.2115 3.47586 9.61155 3.23586C9.01155 2.98386 8.36955 2.85786 7.68555 2.85786C6.97755 2.85786 6.31755 2.97786 5.70555 3.21786C5.10555 3.45786 4.58355 3.79386 4.13955 4.22586C3.69555 4.65786 3.34755 5.17386 3.09555 5.77386C2.85555 6.36186 2.73555 7.00386 2.73555 7.69986C2.73555 8.39586 2.85555 9.04386 3.09555 9.64386C3.34755 10.2319 3.69555 10.7419 4.13955 11.1739C4.58355 11.6059 5.10555 11.9419 5.70555 12.1819C6.31755 12.4219 6.97755 12.5419 7.68555 12.5419C8.36955 12.5419 9.01155 12.4219 9.61155 12.1819C10.2115 11.9299 10.7515 11.5459 11.2315 11.0299L12.4015 12.1639C11.8255 12.8119 11.1235 13.3039 10.2955 13.6399C9.47955 13.9759 8.57955 14.1439 7.59555 14.1439Z" fill="white"/>
</svg>
