<svg width="145" height="27" viewBox="0 0 145 27" fill="none" xmlns="http://www.w3.org/2000/svg">
<path d="M141.873 20.9992V17.6392L141.723 17.0092V11.2792C141.723 10.0592 141.363 9.11922 140.643 8.45922C139.943 7.77922 138.883 7.43922 137.463 7.43922C136.523 7.43922 135.603 7.59922 134.703 7.91922C133.803 8.21922 133.043 8.62922 132.423 9.14922L131.223 6.98922C132.043 6.32922 133.023 5.82922 134.163 5.48922C135.323 5.12922 136.533 4.94922 137.793 4.94922C139.973 4.94922 141.653 5.47922 142.833 6.53922C144.013 7.59922 144.603 9.21922 144.603 11.3992V20.9992H141.873ZM136.653 21.1792C135.473 21.1792 134.433 20.9792 133.533 20.5792C132.653 20.1792 131.973 19.6292 131.493 18.9292C131.013 18.2092 130.773 17.3992 130.773 16.4992C130.773 15.6392 130.973 14.8592 131.373 14.1592C131.793 13.4592 132.463 12.8992 133.383 12.4792C134.323 12.0592 135.583 11.8492 137.163 11.8492H142.203V13.9192H137.283C135.843 13.9192 134.873 14.1592 134.373 14.6392C133.873 15.1192 133.623 15.6992 133.623 16.3792C133.623 17.1592 133.933 17.7892 134.553 18.2692C135.173 18.7292 136.033 18.9592 137.133 18.9592C138.213 18.9592 139.153 18.7192 139.953 18.2392C140.773 17.7592 141.363 17.0592 141.723 16.1392L142.293 18.1192C141.913 19.0592 141.243 19.8092 140.283 20.3692C139.323 20.9092 138.113 21.1792 136.653 21.1792Z" fill="white"/>
<path d="M126.006 20.9996L119.856 13.2596L122.226 11.8196L129.396 20.9996H126.006ZM114.486 20.9996V5.09961H117.366V20.9996H114.486ZM116.496 14.2796V11.8196H121.746V14.2796H116.496ZM122.466 13.3796L119.796 13.0196L125.886 5.09961H128.976L122.466 13.3796Z" fill="white"/>
<path d="M92.6289 20.9696L92.8089 18.5396C92.9489 18.5596 93.0789 18.5796 93.1989 18.5996C93.3189 18.6196 93.4289 18.6296 93.5289 18.6296C94.1689 18.6296 94.6689 18.4096 95.0289 17.9696C95.4089 17.5296 95.6889 16.9496 95.8689 16.2296C96.0489 15.4896 96.1789 14.6596 96.2589 13.7396C96.3389 12.8196 96.3989 11.8996 96.4389 10.9796L96.7089 5.09961H108.919V20.9996H106.039V6.77961L106.729 7.61961H98.5689L99.2289 6.74961L99.0189 11.1596C98.9589 12.5596 98.8489 13.8696 98.6889 15.0896C98.5289 16.3096 98.2789 17.3796 97.9389 18.2996C97.6189 19.2196 97.1689 19.9396 96.5889 20.4596C96.0289 20.9796 95.2989 21.2396 94.3989 21.2396C94.1389 21.2396 93.8589 21.2096 93.5589 21.1496C93.2789 21.1096 92.9689 21.0496 92.6289 20.9696Z" fill="white"/>
<path d="M79.7597 26.9996C78.9997 26.9996 78.2597 26.8696 77.5397 26.6096C76.8197 26.3696 76.1997 26.0096 75.6797 25.5296L76.9097 23.3696C77.3097 23.7496 77.7497 24.0396 78.2297 24.2396C78.7097 24.4396 79.2197 24.5396 79.7597 24.5396C80.4597 24.5396 81.0397 24.3596 81.4997 23.9996C81.9597 23.6396 82.3897 22.9996 82.7897 22.0796L83.7797 19.8896L84.0797 19.5296L90.3197 5.09961H93.1397L85.4297 22.5896C84.9697 23.7096 84.4497 24.5896 83.8697 25.2296C83.3097 25.8696 82.6897 26.3196 82.0097 26.5796C81.3297 26.8596 80.5797 26.9996 79.7597 26.9996ZM83.5397 21.5096L76.2797 5.09961H79.2797L85.4597 19.2596L83.5397 21.5096Z" fill="white"/>
<path d="M64.3008 20.9996V5.09961H76.0008V7.61961H66.4908L67.1808 6.95961V20.9996H64.3008Z" fill="white"/>
<path d="M51.8933 21.1792C50.2933 21.1792 48.8733 20.8292 47.6333 20.1292C46.3933 19.4292 45.4133 18.4692 44.6933 17.2492C43.9733 16.0092 43.6133 14.6092 43.6133 13.0492C43.6133 11.4692 43.9733 10.0692 44.6933 8.84922C45.4133 7.62922 46.3933 6.67922 47.6333 5.99922C48.8733 5.29922 50.2933 4.94922 51.8933 4.94922C53.4733 4.94922 54.8833 5.29922 56.1233 5.99922C57.3833 6.67922 58.3633 7.62922 59.0633 8.84922C59.7833 10.0492 60.1433 11.4492 60.1433 13.0492C60.1433 14.6292 59.7833 16.0292 59.0633 17.2492C58.3633 18.4692 57.3833 19.4292 56.1233 20.1292C54.8833 20.8292 53.4733 21.1792 51.8933 21.1792ZM51.8933 18.6592C52.9133 18.6592 53.8233 18.4292 54.6233 17.9692C55.4433 17.5092 56.0833 16.8592 56.5433 16.0192C57.0033 15.1592 57.2333 14.1692 57.2333 13.0492C57.2333 11.9092 57.0033 10.9292 56.5433 10.1092C56.0833 9.26922 55.4433 8.61922 54.6233 8.15922C53.8233 7.69922 52.9133 7.46922 51.8933 7.46922C50.8733 7.46922 49.9633 7.69922 49.1633 8.15922C48.3633 8.61922 47.7233 9.26922 47.2433 10.1092C46.7633 10.9292 46.5233 11.9092 46.5233 13.0492C46.5233 14.1692 46.7633 15.1592 47.2433 16.0192C47.7233 16.8592 48.3633 17.5092 49.1633 17.9692C49.9633 18.4292 50.8733 18.6592 51.8933 18.6592Z" fill="white"/>
<path d="M32.8577 21.1792C31.5377 21.1792 30.3277 20.8792 29.2277 20.2792C28.1477 19.6592 27.2777 18.7492 26.6177 17.5492C25.9777 16.3492 25.6577 14.8492 25.6577 13.0492C25.6577 11.2492 25.9677 9.74922 26.5877 8.54922C27.2277 7.34922 28.0877 6.44922 29.1677 5.84922C30.2677 5.24922 31.4977 4.94922 32.8577 4.94922C34.4177 4.94922 35.7977 5.28922 36.9977 5.96922C38.1977 6.64922 39.1477 7.59922 39.8477 8.81922C40.5477 10.0192 40.8977 11.4292 40.8977 13.0492C40.8977 14.6692 40.5477 16.0892 39.8477 17.3092C39.1477 18.5292 38.1977 19.4792 36.9977 20.1592C35.7977 20.8392 34.4177 21.1792 32.8577 21.1792ZM24.4277 26.8192V5.09922H27.1877V9.38922L27.0077 13.0792L27.3077 16.7692V26.8192H24.4277ZM32.6177 18.6592C33.6377 18.6592 34.5477 18.4292 35.3477 17.9692C36.1677 17.5092 36.8077 16.8592 37.2677 16.0192C37.7477 15.1592 37.9877 14.1692 37.9877 13.0492C37.9877 11.9092 37.7477 10.9292 37.2677 10.1092C36.8077 9.26922 36.1677 8.61922 35.3477 8.15922C34.5477 7.69922 33.6377 7.46922 32.6177 7.46922C31.6177 7.46922 30.7077 7.69922 29.8877 8.15922C29.0877 8.61922 28.4477 9.26922 27.9677 10.1092C27.5077 10.9292 27.2777 11.9092 27.2777 13.0492C27.2777 14.1692 27.5077 15.1592 27.9677 16.0192C28.4477 16.8592 29.0877 17.5092 29.8877 17.9692C30.7077 18.4292 31.6177 18.6592 32.6177 18.6592Z" fill="white"/>
<path d="M0.269531 21V0H18.3595V21H15.4195V1.83L16.1395 2.61H2.48953L3.23953 1.83V21H0.269531Z" fill="white"/>
</svg>
