<svg width="47" height="17" viewBox="0 0 47 17" fill="none" xmlns="http://www.w3.org/2000/svg">
<path d="M38.1287 16.2429C37.6245 16.2429 37.1264 16.1648 36.6342 16.0088C36.142 15.8527 35.7398 15.6366 35.4277 15.3605L36.4541 13.3618C36.6702 13.5539 36.9163 13.7039 37.1924 13.812C37.4805 13.92 37.7626 13.974 38.0387 13.974C38.4348 13.974 38.747 13.878 38.975 13.6859C39.2151 13.5058 39.4312 13.1997 39.6233 12.7676L40.1275 11.5791L40.3435 11.273L43.8188 2.91797H46.5198L42.1442 13.1997C41.8321 13.98 41.472 14.5922 41.0638 15.0364C40.6677 15.4806 40.2235 15.7927 39.7313 15.9728C39.2511 16.1528 38.7169 16.2429 38.1287 16.2429ZM39.7853 12.9837L35.4637 2.91797H38.3628L41.712 11.0209L39.7853 12.9837Z" fill="white"/>
<path d="M31.507 8.89616C31.1109 9.11224 30.6727 9.2863 30.1925 9.41835C29.7123 9.5504 29.1841 9.61642 28.6079 9.61642C27.3355 9.61642 26.3571 9.32832 25.6729 8.75211C24.9886 8.16389 24.6465 7.23355 24.6465 5.96108V2.91797H27.4555V5.78102C27.4555 6.38124 27.6116 6.8134 27.9237 7.07749C28.2358 7.32959 28.674 7.45563 29.2382 7.45563C29.6463 7.45563 30.0365 7.40761 30.4086 7.31158C30.7927 7.21554 31.1589 7.07749 31.507 6.89743V8.89616ZM31.3089 12.6055V2.91797H34.118V12.6055H31.3089Z" fill="white"/>
<path d="M18.1581 12.7491C17.1257 12.7491 16.2074 12.533 15.4031 12.1009C14.6108 11.6687 13.9805 11.0805 13.5124 10.3362C13.0562 9.57993 12.8281 8.72162 12.8281 7.76126C12.8281 6.78891 13.0562 5.93059 13.5124 5.18632C13.9805 4.43004 14.6108 3.84183 15.4031 3.42167C16.2074 2.98952 17.1257 2.77344 18.1581 2.77344C19.1785 2.77344 20.0908 2.98952 20.8951 3.42167C21.6994 3.84183 22.3296 4.42404 22.7858 5.16831C23.2419 5.91259 23.47 6.7769 23.47 7.76126C23.47 8.72162 23.2419 9.57993 22.7858 10.3362C22.3296 11.0805 21.6994 11.6687 20.8951 12.1009C20.0908 12.533 19.1785 12.7491 18.1581 12.7491ZM18.1581 10.4442C18.6262 10.4442 19.0464 10.3362 19.4185 10.1201C19.7907 9.90405 20.0848 9.59794 20.3009 9.20179C20.5169 8.79364 20.625 8.31347 20.625 7.76126C20.625 7.19706 20.5169 6.71688 20.3009 6.32074C20.0848 5.92459 19.7907 5.61848 19.4185 5.4024C19.0464 5.18632 18.6262 5.07828 18.1581 5.07828C17.6899 5.07828 17.2698 5.18632 16.8976 5.4024C16.5255 5.61848 16.2254 5.92459 15.9973 6.32074C15.7812 6.71688 15.6732 7.19706 15.6732 7.76126C15.6732 8.31347 15.7812 8.79364 15.9973 9.20179C16.2254 9.59794 16.5255 9.90405 16.8976 10.1201C17.2698 10.3362 17.6899 10.4442 18.1581 10.4442Z" fill="white"/>
<path d="M0.288106 0H3.65534L6.2663 3.8174L8.87725 0H12.2985L8.10297 6.03221L12.6406 12.6046H9.20137L6.2663 8.42709L3.36723 12.6046H0L4.50165 6.15826L0.288106 0Z" fill="white"/>
</svg>
