<svg width="47" height="17" viewBox="0 0 47 17" fill="none" xmlns="http://www.w3.org/2000/svg">
<path d="M38.4569 16.6374C37.9527 16.6374 37.4545 16.5594 36.9623 16.4033C36.4701 16.2472 36.068 16.0312 35.7559 15.7551L36.7822 13.7563C36.9983 13.9484 37.2444 14.0985 37.5205 14.2065C37.8086 14.3145 38.0907 14.3686 38.3668 14.3686C38.763 14.3686 39.0751 14.2725 39.3032 14.0804C39.5432 13.9004 39.7593 13.5943 39.9514 13.1621L40.4556 11.9737L40.6717 11.6676L44.1469 3.3125H46.8479L42.4723 13.5943C42.1602 14.3746 41.8001 14.9868 41.3919 15.4309C40.9958 15.8751 40.5516 16.1872 40.0594 16.3673C39.5793 16.5473 39.0451 16.6374 38.4569 16.6374ZM40.1135 13.3782L35.7919 3.3125H38.6909L42.0402 11.4155L40.1135 13.3782Z" fill="white"/>
<path d="M31.8351 9.29069C31.439 9.50677 31.0008 9.68083 30.5206 9.81288C30.0405 9.94493 29.5123 10.011 28.9361 10.011C27.6636 10.011 26.6852 9.72285 26.001 9.14664C25.3167 8.55842 24.9746 7.62808 24.9746 6.35562V3.3125H27.7836V6.17555C27.7836 6.77577 27.9397 7.20793 28.2518 7.47202C28.5639 7.72412 29.0021 7.85016 29.5663 7.85016C29.9744 7.85016 30.3646 7.80215 30.7367 7.70611C31.1209 7.61008 31.487 7.47202 31.8351 7.29196V9.29069ZM31.6371 13.0001V3.3125H34.4461V13.0001H31.6371Z" fill="white"/>
<path d="M18.4862 13.1436C17.4538 13.1436 16.5355 12.9275 15.7312 12.4954C14.9389 12.0632 14.3087 11.475 13.8405 10.7307C13.3843 9.97446 13.1562 9.11615 13.1562 8.1558C13.1562 7.18344 13.3843 6.32513 13.8405 5.58085C14.3087 4.82458 14.9389 4.23636 15.7312 3.81621C16.5355 3.38405 17.4538 3.16797 18.4862 3.16797C19.5066 3.16797 20.4189 3.38405 21.2232 3.81621C22.0275 4.23636 22.6577 4.81857 23.1139 5.56285C23.5701 6.30712 23.7982 7.17144 23.7982 8.1558C23.7982 9.11615 23.5701 9.97446 23.1139 10.7307C22.6577 11.475 22.0275 12.0632 21.2232 12.4954C20.4189 12.9275 19.5066 13.1436 18.4862 13.1436ZM18.4862 10.8388C18.9544 10.8388 19.3745 10.7307 19.7467 10.5147C20.1188 10.2986 20.4129 9.99247 20.629 9.59632C20.8451 9.18817 20.9531 8.708 20.9531 8.1558C20.9531 7.59159 20.8451 7.11141 20.629 6.71527C20.4129 6.31912 20.1188 6.01301 19.7467 5.79693C19.3745 5.58085 18.9544 5.47281 18.4862 5.47281C18.018 5.47281 17.5979 5.58085 17.2257 5.79693C16.8536 6.01301 16.5535 6.31912 16.3254 6.71527C16.1093 7.11141 16.0013 7.59159 16.0013 8.1558C16.0013 8.708 16.1093 9.18817 16.3254 9.59632C16.5535 9.99247 16.8536 10.2986 17.2257 10.5147C17.5979 10.7307 18.018 10.8388 18.4862 10.8388Z" fill="white"/>
<path d="M0.616231 0.394531H3.98346L6.59442 4.21193L9.20538 0.394531H12.6266L8.43109 6.42674L12.9688 12.9992H9.5295L6.59442 8.82162L3.69536 12.9992H0.328125L4.82977 6.55279L0.616231 0.394531Z" fill="white"/>
</svg>
