<svg width="223" height="27" viewBox="0 0 223 27" fill="none" xmlns="http://www.w3.org/2000/svg">
<path d="M222.071 4.85938V20.9994H217.901V16.3794H214.451L211.391 20.9994H206.411L210.101 15.7194C208.981 15.2794 208.121 14.6494 207.521 13.8294C206.941 12.9894 206.651 11.9794 206.651 10.7994C206.651 8.89938 207.331 7.43938 208.691 6.41938C210.071 5.37938 211.961 4.85938 214.361 4.85938H222.071ZM214.451 8.66938C213.451 8.66938 212.691 8.84938 212.171 9.20938C211.671 9.56938 211.421 10.1494 211.421 10.9494C211.421 11.7494 211.661 12.3394 212.141 12.7194C212.641 13.0794 213.391 13.2594 214.391 13.2594H217.901V8.66938H214.451Z" fill="#163C51"/>
<path d="M186.432 4.85938H191.082V14.4594L198.942 4.85938H203.232V20.9994H198.582V11.3994L190.752 20.9994H186.432V4.85938Z" fill="#163C51"/>
<path d="M183.937 8.69938H178.477V20.9994H173.827V8.69938H168.367V4.85938H183.937V8.69938Z" fill="#163C51"/>
<path d="M165.88 4.85938V20.9994H161.71V16.3794H158.26L155.2 20.9994H150.22L153.91 15.7194C152.79 15.2794 151.93 14.6494 151.33 13.8294C150.75 12.9894 150.46 11.9794 150.46 10.7994C150.46 8.89938 151.14 7.43938 152.5 6.41938C153.88 5.37938 155.77 4.85938 158.17 4.85938H165.88ZM158.26 8.66938C157.26 8.66938 156.5 8.84938 155.98 9.20938C155.48 9.56938 155.23 10.1494 155.23 10.9494C155.23 11.7494 155.47 12.3394 155.95 12.7194C156.45 13.0794 157.2 13.2594 158.2 13.2594H161.71V8.66938H158.26Z" fill="#163C51"/>
<path d="M130.24 4.85938H134.89V14.4594L142.75 4.85938H147.04V20.9994H142.39V11.3994L134.56 20.9994H130.24V4.85938Z" fill="#163C51"/>
<path d="M118.921 4.61914C120.421 4.61914 121.781 4.96914 123.001 5.66914C124.241 6.34914 125.211 7.31914 125.911 8.57914C126.611 9.81914 126.961 11.2691 126.961 12.9291C126.961 14.5891 126.611 16.0491 125.911 17.3091C125.211 18.5491 124.241 19.5191 123.001 20.2191C121.781 20.8991 120.421 21.2391 118.921 21.2391C116.861 21.2391 115.241 20.5891 114.061 19.2891V26.8191H109.381V4.85914H113.851V6.71914C115.011 5.31914 116.701 4.61914 118.921 4.61914ZM118.111 17.3991C119.311 17.3991 120.291 16.9991 121.051 16.1991C121.831 15.3791 122.221 14.2891 122.221 12.9291C122.221 11.5691 121.831 10.4891 121.051 9.68914C120.291 8.86914 119.311 8.45914 118.111 8.45914C116.911 8.45914 115.921 8.86914 115.141 9.68914C114.381 10.4891 114.001 11.5691 114.001 12.9291C114.001 14.2891 114.381 15.3791 115.141 16.1991C115.921 16.9991 116.911 17.3991 118.111 17.3991Z" fill="#163C51"/>
<path d="M104.923 4.85938V20.9994H100.243V8.69938H93.523V20.9994H88.873V4.85938H104.923Z" fill="#163C51"/>
<path d="M76.8048 21.2391C75.1048 21.2391 73.5748 20.8891 72.2148 20.1891C70.8748 19.4691 69.8248 18.4791 69.0648 17.2191C68.3048 15.9591 67.9248 14.5291 67.9248 12.9291C67.9248 11.3291 68.3048 9.89914 69.0648 8.63914C69.8248 7.37914 70.8748 6.39914 72.2148 5.69914C73.5748 4.97914 75.1048 4.61914 76.8048 4.61914C78.5048 4.61914 80.0248 4.97914 81.3648 5.69914C82.7048 6.39914 83.7548 7.37914 84.5148 8.63914C85.2748 9.89914 85.6548 11.3291 85.6548 12.9291C85.6548 14.5291 85.2748 15.9591 84.5148 17.2191C83.7548 18.4791 82.7048 19.4691 81.3648 20.1891C80.0248 20.8891 78.5048 21.2391 76.8048 21.2391ZM76.8048 17.3991C78.0048 17.3991 78.9848 16.9991 79.7448 16.1991C80.5248 15.3791 80.9148 14.2891 80.9148 12.9291C80.9148 11.5691 80.5248 10.4891 79.7448 9.68914C78.9848 8.86914 78.0048 8.45914 76.8048 8.45914C75.6048 8.45914 74.6148 8.86914 73.8348 9.68914C73.0548 10.4891 72.6648 11.5691 72.6648 12.9291C72.6648 14.2891 73.0548 15.3791 73.8348 16.1991C74.6148 16.9991 75.6048 17.3991 76.8048 17.3991Z" fill="#163C51"/>
<path d="M57.9248 4.61914C59.4248 4.61914 60.7848 4.96914 62.0048 5.66914C63.2448 6.34914 64.2148 7.31914 64.9148 8.57914C65.6148 9.81914 65.9648 11.2691 65.9648 12.9291C65.9648 14.5891 65.6148 16.0491 64.9148 17.3091C64.2148 18.5491 63.2448 19.5191 62.0048 20.2191C60.7848 20.8991 59.4248 21.2391 57.9248 21.2391C55.8648 21.2391 54.2448 20.5891 53.0648 19.2891V26.8191H48.3848V4.85914H52.8548V6.71914C54.0148 5.31914 55.7048 4.61914 57.9248 4.61914ZM57.1148 17.3991C58.3148 17.3991 59.2948 16.9991 60.0548 16.1991C60.8348 15.3791 61.2248 14.2891 61.2248 12.9291C61.2248 11.5691 60.8348 10.4891 60.0548 9.68914C59.2948 8.86914 58.3148 8.45914 57.1148 8.45914C55.9148 8.45914 54.9248 8.86914 54.1448 9.68914C53.3848 10.4891 53.0048 11.5691 53.0048 12.9291C53.0048 14.2891 53.3848 15.3791 54.1448 16.1991C54.9248 16.9991 55.9148 17.3991 57.1148 17.3991Z" fill="#163C51"/>
<path d="M44.8274 12.9891C44.8274 13.0491 44.7974 13.4691 44.7374 14.2491H32.5274C32.7474 15.2491 33.2674 16.0391 34.0874 16.6191C34.9074 17.1991 35.9274 17.4891 37.1474 17.4891C37.9874 17.4891 38.7274 17.3691 39.3674 17.1291C40.0274 16.8691 40.6374 16.4691 41.1974 15.9291L43.6874 18.6291C42.1674 20.3691 39.9474 21.2391 37.0274 21.2391C35.2074 21.2391 33.5974 20.8891 32.1974 20.1891C30.7974 19.4691 29.7174 18.4791 28.9574 17.2191C28.1974 15.9591 27.8174 14.5291 27.8174 12.9291C27.8174 11.3491 28.1874 9.92914 28.9274 8.66914C29.6874 7.38914 30.7174 6.39914 32.0174 5.69914C33.3374 4.97914 34.8074 4.61914 36.4274 4.61914C38.0074 4.61914 39.4374 4.95914 40.7174 5.63914C41.9974 6.31914 42.9974 7.29914 43.7174 8.57914C44.4574 9.83914 44.8274 11.3091 44.8274 12.9891ZM36.4574 8.15914C35.3974 8.15914 34.5074 8.45914 33.7874 9.05914C33.0674 9.65914 32.6274 10.4791 32.4674 11.5191H40.4174C40.2574 10.4991 39.8174 9.68914 39.0974 9.08914C38.3774 8.46914 37.4974 8.15914 36.4574 8.15914Z" fill="#163C51"/>
<path d="M19.7204 21L19.6904 8.43L13.5104 18.78H11.3504L5.17035 8.67V21H0.610352V0H4.63035L12.4904 13.05L20.2304 0H24.2504L24.2804 21H19.7204Z" fill="#163C51"/>
</svg>
