<svg width="181" height="22" viewBox="0 0 181 22" fill="none" xmlns="http://www.w3.org/2000/svg">
<path d="M165.492 20.9996V5.09961H168.372V16.6796L178.122 5.09961H180.732V20.9996H177.852V9.41961L168.132 20.9996H165.492Z" fill="white"/>
<path d="M159.083 20.9996L152.933 13.2596L155.303 11.8196L162.473 20.9996H159.083ZM147.562 20.9996V5.09961H150.443V20.9996H147.562ZM149.573 14.2796V11.8196H154.823V14.2796H149.573ZM155.543 13.3796L152.873 13.0196L158.963 5.09961H162.053L155.543 13.3796Z" fill="white"/>
<path d="M129.135 20.9996V5.09961H136.515C138.375 5.09961 139.835 5.45961 140.895 6.17961C141.975 6.87961 142.515 7.87961 142.515 9.17961C142.515 10.4796 142.005 11.4896 140.985 12.2096C139.985 12.9096 138.655 13.2596 136.995 13.2596L137.445 12.4796C139.345 12.4796 140.755 12.8296 141.675 13.5296C142.595 14.2296 143.055 15.2596 143.055 16.6196C143.055 17.9996 142.535 19.0796 141.495 19.8596C140.475 20.6196 138.905 20.9996 136.785 20.9996H129.135ZM131.955 18.7796H136.575C137.775 18.7796 138.675 18.5996 139.275 18.2396C139.875 17.8596 140.175 17.2596 140.175 16.4396C140.175 15.5996 139.895 14.9896 139.335 14.6096C138.795 14.2096 137.935 14.0096 136.755 14.0096H131.955V18.7796ZM131.955 11.9396H136.275C137.375 11.9396 138.205 11.7396 138.765 11.3396C139.345 10.9196 139.635 10.3396 139.635 9.59961C139.635 8.83961 139.345 8.26961 138.765 7.88961C138.205 7.50961 137.375 7.31961 136.275 7.31961H131.955V11.9396Z" fill="white"/>
<path d="M120.936 20.9996V15.4196L121.386 15.9596H116.316C114.196 15.9596 112.536 15.5096 111.336 14.6096C110.156 13.7096 109.566 12.3996 109.566 10.6796C109.566 8.83961 110.196 7.44961 111.456 6.50961C112.736 5.56961 114.436 5.09961 116.556 5.09961H123.516V20.9996H120.936ZM109.416 20.9996L113.736 14.9096H116.706L112.506 20.9996H109.416ZM120.936 14.5196V6.80961L121.386 7.61961H116.646C115.326 7.61961 114.306 7.86961 113.586 8.36961C112.866 8.84961 112.506 9.64961 112.506 10.7696C112.506 12.8496 113.846 13.8896 116.526 13.8896H121.386L120.936 14.5196Z" fill="white"/>
<path d="M102.85 20.9992V17.6392L102.7 17.0092V11.2792C102.7 10.0592 102.34 9.11922 101.62 8.45922C100.92 7.77922 99.86 7.43922 98.44 7.43922C97.5 7.43922 96.58 7.59922 95.68 7.91922C94.78 8.21922 94.02 8.62922 93.4 9.14922L92.2 6.98922C93.02 6.32922 94 5.82922 95.14 5.48922C96.3 5.12922 97.51 4.94922 98.77 4.94922C100.95 4.94922 102.63 5.47922 103.81 6.53922C104.99 7.59922 105.58 9.21922 105.58 11.3992V20.9992H102.85ZM97.63 21.1792C96.45 21.1792 95.41 20.9792 94.51 20.5792C93.63 20.1792 92.95 19.6292 92.47 18.9292C91.99 18.2092 91.75 17.3992 91.75 16.4992C91.75 15.6392 91.95 14.8592 92.35 14.1592C92.77 13.4592 93.44 12.8992 94.36 12.4792C95.3 12.0592 96.56 11.8492 98.14 11.8492H103.18V13.9192H98.26C96.82 13.9192 95.85 14.1592 95.35 14.6392C94.85 15.1192 94.6 15.6992 94.6 16.3792C94.6 17.1592 94.91 17.7892 95.53 18.2692C96.15 18.7292 97.01 18.9592 98.11 18.9592C99.19 18.9592 100.13 18.7192 100.93 18.2392C101.75 17.7592 102.34 17.0592 102.7 16.1392L103.27 18.1192C102.89 19.0592 102.22 19.8092 101.26 20.3692C100.3 20.9092 99.09 21.1792 97.63 21.1792Z" fill="white"/>
<path d="M81.432 21.2108C80.232 21.2108 79.052 21.0608 77.892 20.7608C76.752 20.4408 75.732 19.9908 74.832 19.4108L75.702 17.2208C76.462 17.7008 77.332 18.0808 78.312 18.3608C79.292 18.6208 80.282 18.7508 81.282 18.7508C82.202 18.7508 82.992 18.6408 83.652 18.4208C84.332 18.2008 84.852 17.9008 85.212 17.5208C85.572 17.1208 85.752 16.6608 85.752 16.1408C85.752 15.4008 85.422 14.8308 84.762 14.4308C84.102 14.0308 83.182 13.8308 82.002 13.8308H79.122V11.7608H81.822C82.522 11.7608 83.132 11.6808 83.652 11.5208C84.172 11.3608 84.572 11.1208 84.852 10.8008C85.152 10.4608 85.302 10.0708 85.302 9.63077C85.302 9.15077 85.132 8.74077 84.792 8.40077C84.452 8.06077 83.972 7.80077 83.352 7.62077C82.752 7.44077 82.042 7.35077 81.222 7.35077C80.422 7.37077 79.602 7.48077 78.762 7.68077C77.942 7.88077 77.102 8.19077 76.242 8.61077L75.462 6.36076C76.422 5.90076 77.362 5.55077 78.282 5.31077C79.222 5.05077 80.152 4.91077 81.072 4.89077C82.452 4.85077 83.682 5.01076 84.762 5.37076C85.842 5.71077 86.692 6.21077 87.312 6.87077C87.952 7.53077 88.272 8.31077 88.272 9.21077C88.272 9.97077 88.032 10.6508 87.552 11.2508C87.072 11.8308 86.432 12.2908 85.632 12.6308C84.832 12.9708 83.912 13.1408 82.872 13.1408L82.992 12.4508C84.772 12.4508 86.172 12.8008 87.192 13.5008C88.212 14.2008 88.722 15.1508 88.722 16.3508C88.722 17.3108 88.402 18.1608 87.762 18.9008C87.122 19.6208 86.252 20.1908 85.152 20.6108C84.072 21.0108 82.832 21.2108 81.432 21.2108Z" fill="white"/>
<path d="M47.8945 20.9996V5.09961H50.7745V16.6796L60.5245 5.09961H63.1345V20.9996H60.2545V9.41961L50.5345 20.9996H47.8945Z" fill="white"/>
<path d="M35.4861 21.1792C33.8861 21.1792 32.4661 20.8292 31.2261 20.1292C29.9861 19.4292 29.0061 18.4692 28.2861 17.2492C27.5661 16.0092 27.2061 14.6092 27.2061 13.0492C27.2061 11.4692 27.5661 10.0692 28.2861 8.84922C29.0061 7.62922 29.9861 6.67922 31.2261 5.99922C32.4661 5.29922 33.8861 4.94922 35.4861 4.94922C37.0661 4.94922 38.4761 5.29922 39.7161 5.99922C40.9761 6.67922 41.9561 7.62922 42.6561 8.84922C43.3761 10.0492 43.7361 11.4492 43.7361 13.0492C43.7361 14.6292 43.3761 16.0292 42.6561 17.2492C41.9561 18.4692 40.9761 19.4292 39.7161 20.1292C38.4761 20.8292 37.0661 21.1792 35.4861 21.1792ZM35.4861 18.6592C36.5061 18.6592 37.4161 18.4292 38.2161 17.9692C39.0361 17.5092 39.6761 16.8592 40.1361 16.0192C40.5961 15.1592 40.8261 14.1692 40.8261 13.0492C40.8261 11.9092 40.5961 10.9292 40.1361 10.1092C39.6761 9.26922 39.0361 8.61922 38.2161 8.15922C37.4161 7.69922 36.5061 7.46922 35.4861 7.46922C34.4661 7.46922 33.5561 7.69922 32.7561 8.15922C31.9561 8.61922 31.3161 9.26922 30.8361 10.1092C30.3561 10.9292 30.1161 11.9092 30.1161 13.0492C30.1161 14.1692 30.3561 15.1592 30.8361 16.0192C31.3161 16.8592 31.9561 17.5092 32.7561 17.9692C33.5561 18.4292 34.4661 18.6592 35.4861 18.6592Z" fill="white"/>
<path d="M0.269531 21V0H2.72953L12.1495 15.87H10.8295L20.1295 0H22.5895L22.6195 21H19.7395L19.7095 4.53H20.3995L12.1195 18.45H10.7395L2.39953 4.53H3.14953V21H0.269531Z" fill="white"/>
</svg>
