<svg width="500" height="45" viewBox="0 0 500 45" fill="none" xmlns="http://www.w3.org/2000/svg">
<path d="M473.453 34.9992V9.36719H479.453V26.2632L493.613 9.36719H499.085V34.9992H493.085V18.1032L478.973 34.9992H473.453Z" fill="#F85F37"/>
<path d="M462.165 34.9992L452.901 22.7112L457.797 19.6872L469.221 34.9992H462.165ZM443.781 34.9992V9.36719H449.781V34.9992H443.781ZM448.005 24.7272V19.7352H456.693V24.7272H448.005ZM458.373 22.9032L452.757 22.2312L462.165 9.36719H468.597L458.373 22.9032Z" fill="#F85F37"/>
<path d="M408.725 34.9512L409.013 29.9112C409.237 29.9432 409.445 29.9752 409.637 30.0072C409.829 30.0392 410.005 30.0552 410.165 30.0552C411.157 30.0552 411.925 29.7512 412.469 29.1432C413.013 28.5352 413.413 27.7192 413.669 26.6952C413.957 25.6392 414.149 24.4712 414.245 23.1912C414.373 21.8792 414.469 20.5672 414.533 19.2552L414.965 9.36719H435.701V34.9992H429.701V12.8232L431.093 14.4552H418.901L420.197 12.7752L419.861 19.5432C419.765 21.8152 419.573 23.9272 419.285 25.8792C419.029 27.7992 418.613 29.4792 418.037 30.9192C417.493 32.3592 416.725 33.4792 415.733 34.2792C414.773 35.0792 413.541 35.4792 412.037 35.4792C411.557 35.4792 411.029 35.4312 410.453 35.3352C409.909 35.2392 409.333 35.1112 408.725 34.9512Z" fill="#F85F37"/>
<path d="M387.96 44.6472C386.712 44.6472 385.464 44.4392 384.216 44.0232C382.968 43.6072 381.928 43.0312 381.096 42.2952L383.496 37.8792C384.104 38.4232 384.792 38.8552 385.56 39.1752C386.328 39.4952 387.112 39.6552 387.912 39.6552C389 39.6552 389.88 39.3832 390.552 38.8392C391.224 38.2952 391.848 37.3832 392.424 36.1032L393.912 32.7432L394.392 32.0232L404.088 9.36719H409.848L397.848 37.0632C397.048 38.9832 396.152 40.5032 395.16 41.6232C394.2 42.7432 393.112 43.5272 391.896 43.9752C390.712 44.4232 389.4 44.6472 387.96 44.6472ZM393.24 35.9112L381.672 9.36719H387.912L397.32 31.4952L393.24 35.9112Z" fill="#F85F37"/>
<path d="M361.562 34.9992V9.36719H381.242V14.4552H366.171L367.562 13.1112V34.9992H361.562Z" fill="#F85F37"/>
<path d="M341.954 35.3361C339.33 35.3361 336.994 34.7761 334.946 33.6561C332.898 32.5041 331.282 30.9361 330.098 28.9521C328.914 26.9681 328.322 24.7121 328.322 22.1841C328.322 19.6241 328.914 17.3681 330.098 15.4161C331.282 13.4321 332.898 11.8801 334.946 10.7601C336.994 9.64008 339.33 9.08008 341.954 9.08008C344.61 9.08008 346.962 9.64008 349.01 10.7601C351.09 11.8801 352.706 13.4161 353.858 15.3681C355.042 17.3201 355.634 19.5921 355.634 22.1841C355.634 24.7121 355.042 26.9681 353.858 28.9521C352.706 30.9361 351.09 32.5041 349.01 33.6561C346.962 34.7761 344.61 35.3361 341.954 35.3361ZM341.954 30.2001C343.426 30.2001 344.738 29.8801 345.89 29.2401C347.042 28.6001 347.938 27.6721 348.578 26.4561C349.25 25.2401 349.586 23.8161 349.586 22.1841C349.586 20.5201 349.25 19.0961 348.578 17.9121C347.938 16.6961 347.042 15.7681 345.89 15.1281C344.738 14.4881 343.442 14.1681 342.002 14.1681C340.53 14.1681 339.218 14.4881 338.066 15.1281C336.946 15.7681 336.05 16.6961 335.378 17.9121C334.706 19.0961 334.37 20.5201 334.37 22.1841C334.37 23.8161 334.706 25.2401 335.378 26.4561C336.05 27.6721 336.946 28.6001 338.066 29.2401C339.218 29.8801 340.514 30.2001 341.954 30.2001Z" fill="#F85F37"/>
<path d="M311.552 35.3361C309.472 35.3361 307.568 34.8561 305.84 33.8961C304.144 32.9361 302.784 31.4961 301.76 29.5761C300.768 27.6241 300.272 25.1601 300.272 22.1841C300.272 19.1761 300.752 16.7121 301.712 14.7921C302.704 12.8721 304.048 11.4481 305.744 10.5201C307.44 9.56008 309.376 9.08008 311.552 9.08008C314.08 9.08008 316.304 9.62408 318.224 10.7121C320.176 11.8001 321.712 13.3201 322.832 15.2721C323.984 17.2241 324.56 19.5281 324.56 22.1841C324.56 24.8401 323.984 27.1601 322.832 29.1441C321.712 31.0961 320.176 32.6161 318.224 33.7041C316.304 34.7921 314.08 35.3361 311.552 35.3361ZM297.344 44.3121V9.36808H303.056V15.4161L302.864 22.2321L303.344 29.0481V44.3121H297.344ZM310.88 30.2001C312.32 30.2001 313.6 29.8801 314.72 29.2401C315.872 28.6001 316.784 27.6721 317.456 26.4561C318.128 25.2401 318.464 23.8161 318.464 22.1841C318.464 20.5201 318.128 19.0961 317.456 17.9121C316.784 16.6961 315.872 15.7681 314.72 15.1281C313.6 14.4881 312.32 14.1681 310.88 14.1681C309.44 14.1681 308.144 14.4881 306.992 15.1281C305.84 15.7681 304.928 16.6961 304.256 17.9121C303.584 19.0961 303.248 20.5201 303.248 22.1841C303.248 23.8161 303.584 25.2401 304.256 26.4561C304.928 27.6721 305.84 28.6001 306.992 29.2401C308.144 29.8801 309.44 30.2001 310.88 30.2001Z" fill="#F85F37"/>
<path d="M264.672 34.9992V9.36719H289.248V34.9992H283.296V13.0632L284.688 14.4552H269.28L270.672 13.0632V34.9992H264.672Z" fill="#F85F37"/>
<path d="M232.795 35.3361C229.947 35.3361 227.451 34.7761 225.307 33.6561C223.195 32.5041 221.547 30.9361 220.363 28.9521C219.211 26.9681 218.635 24.7121 218.635 22.1841C218.635 19.6241 219.195 17.3681 220.315 15.4161C221.467 13.4321 223.035 11.8801 225.019 10.7601C227.035 9.64008 229.323 9.08008 231.883 9.08008C234.379 9.08008 236.603 9.62408 238.555 10.7121C240.507 11.8001 242.043 13.3361 243.163 15.3201C244.283 17.3041 244.843 19.6401 244.843 22.3281C244.843 22.5841 244.827 22.8721 244.795 23.1921C244.795 23.5121 244.779 23.8161 244.747 24.1041H223.387V20.1201H241.579L239.227 21.3681C239.259 19.8961 238.955 18.6001 238.315 17.4801C237.675 16.3601 236.795 15.4801 235.675 14.8401C234.587 14.2001 233.323 13.8801 231.883 13.8801C230.411 13.8801 229.115 14.2001 227.995 14.8401C226.907 15.4801 226.043 16.3761 225.403 17.5281C224.795 18.6481 224.491 19.9761 224.491 21.5121V22.4721C224.491 24.0081 224.843 25.3681 225.547 26.5521C226.251 27.7361 227.243 28.6481 228.523 29.2881C229.803 29.9281 231.275 30.2481 232.939 30.2481C234.379 30.2481 235.675 30.0241 236.827 29.5761C237.979 29.1281 239.003 28.4241 239.899 27.4641L243.115 31.1601C241.963 32.5041 240.507 33.5441 238.747 34.2801C237.019 34.9841 235.035 35.3361 232.795 35.3361Z" fill="#F85F37"/>
<path d="M187.141 34.9992V9.36719H193.141V26.2632L207.301 9.36719H212.773V34.9992H206.773V18.1032L192.661 34.9992H187.141Z" fill="#F85F37"/>
<path d="M154.188 34.9992V9.36719H160.188V19.7832H173.1V9.36719H179.1V34.9992H173.1V24.8712H160.188V34.9992H154.188Z" fill="#F85F37"/>
<path d="M141.098 35.0001V29.8161L140.762 28.7121V19.6401C140.762 17.8801 140.234 16.5201 139.178 15.5601C138.122 14.5681 136.522 14.0721 134.378 14.0721C132.938 14.0721 131.514 14.2961 130.106 14.7441C128.73 15.1921 127.562 15.8161 126.602 16.6161L124.25 12.2481C125.626 11.1921 127.258 10.4081 129.146 9.89608C131.066 9.35208 133.05 9.08008 135.098 9.08008C138.81 9.08008 141.674 9.97608 143.69 11.7681C145.738 13.5281 146.762 16.2641 146.762 19.9761V35.0001H141.098ZM133.034 35.3361C131.114 35.3361 129.434 35.0161 127.994 34.3761C126.554 33.7041 125.434 32.7921 124.634 31.6401C123.866 30.4561 123.482 29.1281 123.482 27.6561C123.482 26.2161 123.818 24.9201 124.49 23.7681C125.194 22.6161 126.33 21.7041 127.898 21.0321C129.466 20.3601 131.546 20.0241 134.138 20.0241H141.578V24.0081H134.57C132.522 24.0081 131.146 24.3441 130.442 25.0161C129.738 25.6561 129.386 26.4561 129.386 27.4161C129.386 28.5041 129.818 29.3681 130.682 30.0081C131.546 30.6481 132.746 30.9681 134.282 30.9681C135.754 30.9681 137.066 30.6321 138.218 29.9601C139.402 29.2881 140.25 28.2961 140.762 26.9841L141.77 30.5841C141.194 32.0881 140.154 33.2561 138.65 34.0881C137.178 34.9201 135.306 35.3361 133.034 35.3361Z" fill="#F85F37"/>
<path d="M110.397 32.2152V14.4552H100.557L100.413 18.5832C100.349 20.0552 100.253 21.4792 100.125 22.8552C99.9965 24.1992 99.7885 25.4472 99.5005 26.5992C99.2125 27.7192 98.7965 28.6472 98.2525 29.3832C97.7085 30.1192 96.9885 30.5992 96.0925 30.8232L90.1405 29.9112C91.1005 29.9112 91.8685 29.6072 92.4445 28.9992C93.0525 28.3592 93.5165 27.4952 93.8365 26.4072C94.1885 25.2872 94.4445 24.0232 94.6045 22.6152C94.7645 21.1752 94.8765 19.6872 94.9405 18.1512L95.2765 9.36719H116.397V32.2152H110.397ZM89.2285 40.7112V29.9112H120.189V40.7112H114.573V34.9992H94.7965V40.7112H89.2285Z" fill="#F85F37"/>
<path d="M74.4088 35.4315C72.4568 35.4315 70.5208 35.2075 68.6008 34.7595C66.7128 34.2795 65.0008 33.6075 63.4648 32.7435L65.1448 28.2795C66.3928 28.9835 67.8009 29.5275 69.3689 29.9115C70.9369 30.2955 72.5048 30.4875 74.0728 30.4875C75.4168 30.4875 76.5688 30.3595 77.5288 30.1035C78.4888 29.8155 79.2248 29.3995 79.7368 28.8555C80.2808 28.3115 80.5528 27.6875 80.5528 26.9835C80.5528 25.9595 80.1048 25.1915 79.2088 24.6795C78.3448 24.1355 77.0968 23.8635 75.4648 23.8635H70.5208V19.8315H74.9848C76.0088 19.8315 76.8728 19.7195 77.5768 19.4955C78.3128 19.2715 78.8728 18.9355 79.2568 18.4875C79.6408 18.0395 79.8328 17.5115 79.8328 16.9035C79.8328 16.2955 79.5928 15.7675 79.1128 15.3195C78.6648 14.8395 78.0088 14.4875 77.1448 14.2635C76.2808 14.0075 75.2408 13.8795 74.0248 13.8795C72.7448 13.8795 71.4168 14.0395 70.0408 14.3595C68.6968 14.6795 67.3208 15.1435 65.9128 15.7515L64.3768 11.3355C66.0088 10.5995 67.5928 10.0395 69.1288 9.65546C70.6968 9.23946 72.2489 9.01546 73.7849 8.98346C76.1209 8.88746 78.2008 9.12746 80.0248 9.70346C81.8489 10.2795 83.2888 11.1115 84.3448 12.1995C85.4008 13.2875 85.9288 14.5675 85.9288 16.0395C85.9288 17.2555 85.5448 18.3595 84.7768 19.3515C84.0408 20.3115 83.0168 21.0635 81.7048 21.6075C80.4248 22.1515 78.9528 22.4235 77.2888 22.4235L77.4809 21.1275C80.3288 21.1275 82.5689 21.7035 84.2009 22.8555C85.8329 23.9755 86.6488 25.5115 86.6488 27.4635C86.6488 29.0315 86.1208 30.4235 85.0648 31.6395C84.0089 32.8235 82.5528 33.7515 80.6968 34.4235C78.8728 35.0955 76.7768 35.4315 74.4088 35.4315Z" fill="#F85F37"/>
<path d="M47.0636 35.3361C44.4396 35.3361 42.1036 34.7761 40.0556 33.6561C38.0076 32.5041 36.3916 30.9361 35.2076 28.9521C34.0236 26.9681 33.4316 24.7121 33.4316 22.1841C33.4316 19.6241 34.0236 17.3681 35.2076 15.4161C36.3916 13.4321 38.0076 11.8801 40.0556 10.7601C42.1036 9.64008 44.4396 9.08008 47.0636 9.08008C49.7196 9.08008 52.0716 9.64008 54.1196 10.7601C56.1996 11.8801 57.8156 13.4161 58.9676 15.3681C60.1516 17.3201 60.7436 19.5921 60.7436 22.1841C60.7436 24.7121 60.1516 26.9681 58.9676 28.9521C57.8156 30.9361 56.1996 32.5041 54.1196 33.6561C52.0716 34.7761 49.7196 35.3361 47.0636 35.3361ZM47.0636 30.2001C48.5356 30.2001 49.8476 29.8801 50.9996 29.2401C52.1516 28.6001 53.0476 27.6721 53.6876 26.4561C54.3596 25.2401 54.6956 23.8161 54.6956 22.1841C54.6956 20.5201 54.3596 19.0961 53.6876 17.9121C53.0476 16.6961 52.1516 15.7681 50.9996 15.1281C49.8476 14.4881 48.5516 14.1681 47.1116 14.1681C45.6396 14.1681 44.3276 14.4881 43.1756 15.1281C42.0556 15.7681 41.1596 16.6961 40.4876 17.9121C39.8156 19.0961 39.4796 20.5201 39.4796 22.1841C39.4796 23.8161 39.8156 25.2401 40.4876 26.4561C41.1596 27.6721 42.0556 28.6001 43.1756 29.2401C44.3276 29.8801 45.6236 30.2001 47.0636 30.2001Z" fill="#F85F37"/>
<path d="M18.159 35.4799C15.599 35.4799 13.215 35.0639 11.007 34.2319C8.83103 33.3679 6.92703 32.1679 5.29503 30.6319C3.69503 29.0639 2.44703 27.2239 1.55103 25.1119C0.655031 22.9999 0.207031 20.6959 0.207031 18.1999C0.207031 15.7039 0.655031 13.3999 1.55103 11.2879C2.44703 9.17592 3.71103 7.35192 5.34303 5.81592C6.97503 4.24792 8.87903 3.04792 11.055 2.21592C13.231 1.35192 15.615 0.919922 18.207 0.919922C20.959 0.919922 23.471 1.39992 25.743 2.35992C28.015 3.28792 29.935 4.67992 31.503 6.53592L27.471 10.3279C26.255 9.01592 24.895 8.03992 23.391 7.39992C21.887 6.72792 20.255 6.39192 18.495 6.39192C16.735 6.39192 15.119 6.67992 13.647 7.25592C12.207 7.83192 10.943 8.64792 9.85503 9.70392C8.79903 10.7599 7.96703 12.0079 7.35903 13.4479C6.78303 14.8879 6.49503 16.4719 6.49503 18.1999C6.49503 19.9279 6.78303 21.5119 7.35903 22.9519C7.96703 24.3919 8.79903 25.6399 9.85503 26.6959C10.943 27.7519 12.207 28.5679 13.647 29.1439C15.119 29.7199 16.735 30.0079 18.495 30.0079C20.255 30.0079 21.887 29.6879 23.391 29.0479C24.895 28.3759 26.255 27.3679 27.471 26.0239L31.503 29.8639C29.935 31.6879 28.015 33.0799 25.743 34.0399C23.471 34.9999 20.943 35.4799 18.159 35.4799Z" fill="#F85F37"/>
</svg>
