<svg width="164" height="31" viewBox="0 0 164 31" fill="none" xmlns="http://www.w3.org/2000/svg">
<path d="M159.934 25.9993V19.2754L160.477 19.9261H154.367C151.813 19.9261 149.812 19.3839 148.366 18.2994C146.944 17.2149 146.233 15.6363 146.233 13.5637C146.233 11.3465 146.993 9.67159 148.511 8.53889C150.053 7.40619 152.102 6.83984 154.656 6.83984H163.043V25.9993H159.934ZM146.053 25.9993L151.258 18.6609H154.837L149.776 25.9993H146.053ZM159.934 18.1909V8.90039L160.477 9.87644H154.765C153.174 9.87644 151.945 10.1777 151.078 10.7802C150.21 11.3586 149.776 12.3226 149.776 13.6722C149.776 16.1786 151.391 17.4318 154.62 17.4318H160.477L159.934 18.1909Z" fill="#163C51"/>
<path d="M122.58 25.9993V6.83984H126.05V20.7937L137.799 6.83984H140.944V25.9993H137.474V12.0454L125.761 25.9993H122.58Z" fill="#163C51"/>
<path d="M97.6211 25.9993V6.83984H101.091V22.9627H111.575V6.83984H115.045V25.9993H97.6211ZM114.792 30.4458V25.8186L115.66 25.9993H111.575V22.9627H118.082V30.4458H114.792Z" fill="#163C51"/>
<path d="M88.0825 26.0004V21.9516L87.9018 21.1925V14.2878C87.9018 12.8177 87.468 11.685 86.6004 10.8897C85.7569 10.0703 84.4796 9.66061 82.7685 9.66061C81.6358 9.66061 80.5272 9.85341 79.4427 10.239C78.3582 10.6005 77.4424 11.0946 76.6953 11.7212L75.2493 9.11836C76.2374 8.32306 77.4183 7.72056 78.792 7.31086C80.1898 6.87706 81.6478 6.66016 83.1661 6.66016C85.793 6.66016 87.8174 7.29881 89.2393 8.57611C90.6612 9.85341 91.3722 11.8055 91.3722 14.4324V26.0004H88.0825ZM81.7924 26.2173C80.3705 26.2173 79.1173 25.9763 78.0328 25.4943C76.9724 25.0123 76.153 24.3496 75.5746 23.5061C74.9962 22.6385 74.707 21.6624 74.707 20.5779C74.707 19.5416 74.948 18.6017 75.43 17.7582C75.9361 16.9147 76.7435 16.2399 77.8521 15.7338C78.9848 15.2277 80.5031 14.9747 82.407 14.9747H88.4802V17.469H82.5516C80.8164 17.469 79.6475 17.7582 79.045 18.3366C78.4425 18.915 78.1413 19.6139 78.1413 20.4333C78.1413 21.3732 78.5148 22.1324 79.2619 22.7108C80.009 23.2651 81.0453 23.5422 82.3708 23.5422C83.6722 23.5422 84.8049 23.253 85.7689 22.6746C86.757 22.0962 87.468 21.2527 87.9018 20.1441L88.5886 22.53C88.1307 23.6627 87.3234 24.5665 86.1666 25.2413C85.0098 25.892 83.5517 26.2173 81.7924 26.2173Z" fill="#163C51"/>
<path d="M68.9636 25.9993L61.5529 16.6726L64.4087 14.9374L73.0486 25.9993H68.9636ZM55.082 25.9993V6.83984H58.5524V25.9993H55.082ZM57.5041 17.9017V14.9374H63.8303V17.9017H57.5041ZM64.6979 16.8172L61.4806 16.3834L68.819 6.83984H72.5425L64.6979 16.8172Z" fill="#163C51"/>
<path d="M40.1278 26.2173C38.1998 26.2173 36.4887 25.7956 34.9945 24.9521C33.5003 24.1086 32.3194 22.9518 31.4518 21.4817C30.5842 19.9875 30.1504 18.3005 30.1504 16.4207C30.1504 14.5168 30.5842 12.8298 31.4518 11.3597C32.3194 9.88956 33.5003 8.74481 34.9945 7.92541C36.4887 7.08191 38.1998 6.66016 40.1278 6.66016C42.0317 6.66016 43.7307 7.08191 45.2249 7.92541C46.7432 8.74481 47.9241 9.88956 48.7676 11.3597C49.6352 12.8057 50.069 14.4927 50.069 16.4207C50.069 18.3246 49.6352 20.0116 48.7676 21.4817C47.9241 22.9518 46.7432 24.1086 45.2249 24.9521C43.7307 25.7956 42.0317 26.2173 40.1278 26.2173ZM40.1278 23.1807C41.3569 23.1807 42.4534 22.9036 43.4174 22.3493C44.4055 21.795 45.1767 21.0117 45.731 19.9995C46.2853 18.9632 46.5625 17.7703 46.5625 16.4207C46.5625 15.047 46.2853 13.8661 45.731 12.878C45.1767 11.8658 44.4055 11.0825 43.4174 10.5282C42.4534 9.97391 41.3569 9.69676 40.1278 9.69676C38.8987 9.69676 37.8021 9.97391 36.8381 10.5282C35.8741 11.0825 35.1029 11.8658 34.5245 12.878C33.9461 13.8661 33.6569 15.047 33.6569 16.4207C33.6569 17.7703 33.9461 18.9632 34.5245 19.9995C35.1029 21.0117 35.8741 21.795 36.8381 22.3493C37.8021 22.9036 38.8987 23.1807 40.1278 23.1807Z" fill="#163C51"/>
<path d="M2.74815 26.2895C2.38665 26.2895 2.02515 26.2654 1.66365 26.2172C1.30215 26.169 0.904503 26.0967 0.470703 26.0003L0.723753 22.783C1.10935 22.8794 1.49495 22.9276 1.88055 22.9276C2.94095 22.9276 3.78445 22.5058 4.41105 21.6623C5.03765 20.8188 5.49555 19.5415 5.78475 17.8304C6.09805 16.1193 6.3029 13.9624 6.3993 11.3596L6.79695 0.695312H24.6189V26.0003H21.0762V2.90046L21.9438 3.84036H9.11055L9.90585 2.86431L9.61665 11.2511C9.54435 13.7575 9.37565 15.9506 9.11055 17.8304C8.84545 19.7102 8.4478 21.2767 7.9176 22.5299C7.3874 23.7831 6.70055 24.723 5.85705 25.3496C5.03765 25.9762 4.00135 26.2895 2.74815 26.2895Z" fill="#163C51"/>
</svg>
