<svg width="121" height="34" viewBox="0 0 121 34" fill="none" xmlns="http://www.w3.org/2000/svg">
<path d="M116.399 25.9994V19.4201L117.05 20.1793H111.266C108.615 20.1793 106.53 19.625 105.012 18.5164C103.518 17.3837 102.771 15.7569 102.771 13.6361C102.771 11.3707 103.566 9.64756 105.157 8.46666C106.771 7.28576 108.916 6.69531 111.591 6.69531H120.448V25.9994H116.399ZM102.518 25.9994L107.723 18.6248H112.35L107.362 25.9994H102.518ZM116.399 17.9741V9.29811L117.05 10.4911H111.736C110.338 10.4911 109.254 10.7562 108.482 11.2864C107.735 11.7925 107.362 12.6239 107.362 13.7807C107.362 15.9497 108.772 17.0342 111.591 17.0342H117.05L116.399 17.9741Z" fill="#163C51"/>
<path d="M75.0195 25.9994V6.69531H79.7552L87.5274 20.3962H85.6476L93.8175 6.69531H98.0471L98.0832 25.9994H93.9983V11.5394L94.7213 12.0094L87.4913 23.975H85.5392L78.273 11.684L79.1406 11.4671V25.9994H75.0195Z" fill="#163C51"/>
<path d="M61.0021 26.2526C58.8572 26.2526 56.9774 25.8308 55.3627 24.9873C53.7721 24.1197 52.531 22.9388 51.6393 21.4446C50.7717 19.9504 50.3379 18.2514 50.3379 16.3475C50.3379 14.4195 50.7596 12.7204 51.6031 11.2503C52.4707 9.75612 53.6516 8.58727 55.1458 7.74377C56.6641 6.90027 58.3873 6.47852 60.3153 6.47852C62.1951 6.47852 63.87 6.88822 65.3401 7.70761C66.8102 8.52702 67.967 9.68382 68.8105 11.178C69.654 12.6722 70.0758 14.4315 70.0758 16.4559C70.0758 16.6487 70.0637 16.8656 70.0396 17.1066C70.0396 17.3476 70.0276 17.5766 70.0035 17.7935H53.9167V14.793H67.6176L65.8462 15.7329C65.8703 14.6243 65.6414 13.6483 65.1594 12.8048C64.6774 11.9613 64.0146 11.2985 63.1711 10.8165C62.3517 10.3345 61.3998 10.0935 60.3153 10.0935C59.2067 10.0935 58.2306 10.3345 57.3871 10.8165C56.5677 11.2985 55.917 11.9733 55.435 12.8409C54.9771 13.6844 54.7482 14.6846 54.7482 15.8414V16.5644C54.7482 17.7212 55.0133 18.7454 55.5435 19.6371C56.0737 20.5288 56.8208 21.2157 57.7848 21.6977C58.7488 22.1797 59.8574 22.4207 61.1106 22.4207C62.1951 22.4207 63.1711 22.252 64.0387 21.9146C64.9063 21.5772 65.6775 21.047 66.3523 20.324L68.7744 23.1075C67.9068 24.1197 66.8102 24.903 65.4847 25.4573C64.1833 25.9875 62.6891 26.2526 61.0021 26.2526Z" fill="#163C51"/>
<path d="M37.7082 26.2526C36.1417 26.2526 34.7078 25.8911 33.4064 25.1681C32.1291 24.4451 31.1048 23.3606 30.3336 21.9146C29.5865 20.4445 29.213 18.5888 29.213 16.3475C29.213 14.0821 29.5745 12.2264 30.2975 10.7804C31.0446 9.33436 32.0568 8.26192 33.3341 7.56301C34.6114 6.84002 36.0694 6.47852 37.7082 6.47852C39.6121 6.47852 41.2871 6.88822 42.7331 7.70761C44.2032 8.52702 45.36 9.67177 46.2035 11.1419C47.0711 12.612 47.5049 14.3472 47.5049 16.3475C47.5049 18.3478 47.0711 20.095 46.2035 21.5892C45.36 23.0593 44.2032 24.2041 42.7331 25.0235C41.2871 25.8429 39.6121 26.2526 37.7082 26.2526ZM27.0078 33.0126V6.69542H31.3097V11.2503L31.1651 16.3836L31.5266 21.5169V33.0126H27.0078ZM37.2021 22.3845C38.2866 22.3845 39.2506 22.1435 40.0941 21.6615C40.9617 21.1795 41.6486 20.4806 42.1547 19.5648C42.6608 18.649 42.9138 17.5766 42.9138 16.3475C42.9138 15.0943 42.6608 14.0218 42.1547 13.1301C41.6486 12.2143 40.9617 11.5154 40.0941 11.0334C39.2506 10.5514 38.2866 10.3104 37.2021 10.3104C36.1176 10.3104 35.1416 10.5514 34.274 11.0334C33.4064 11.5154 32.7195 12.2143 32.2134 13.1301C31.7073 14.0218 31.4543 15.0943 31.4543 16.3475C31.4543 17.5766 31.7073 18.649 32.2134 19.5648C32.7195 20.4806 33.4064 21.1795 34.274 21.6615C35.1416 22.1435 36.1176 22.3845 37.2021 22.3845Z" fill="#163C51"/>
<path d="M0.578125 26.0003V0.695312H11.8931C14.7369 0.695312 16.9541 1.26166 18.5447 2.39436C20.1353 3.50296 20.9306 5.10561 20.9306 7.20231C20.9306 9.27491 20.1714 10.8776 18.6531 12.0103C17.1348 13.1189 15.1345 13.6732 12.6522 13.6732L13.3029 12.3718C16.1226 12.3718 18.3037 12.9381 19.8461 14.0708C21.3885 15.2035 22.1597 16.8423 22.1597 18.9872C22.1597 21.1803 21.3523 22.9035 19.7376 24.1567C18.1229 25.3858 15.737 26.0003 12.5799 26.0003H0.578125ZM5.20533 22.3853H12.4353C14.0741 22.3853 15.3153 22.0841 16.1588 21.4816C17.0023 20.855 17.424 19.903 17.424 18.6257C17.424 17.3484 17.0023 16.4206 16.1588 15.8422C15.3153 15.2397 14.0741 14.9384 12.4353 14.9384H5.20533V22.3853ZM5.20533 11.5042H11.4954C13.0137 11.5042 14.1705 11.2029 14.9658 10.6004C15.7611 9.97381 16.1588 9.08211 16.1588 7.92531C16.1588 6.72031 15.7611 5.81656 14.9658 5.21406C14.1705 4.61156 13.0137 4.31031 11.4954 4.31031H5.20533V11.5042Z" fill="#163C51"/>
</svg>
