<svg width="216" height="27" viewBox="0 0 216 27" fill="none" xmlns="http://www.w3.org/2000/svg">
<path d="M213.338 20.9996V15.4196L213.788 15.9596H208.718C206.598 15.9596 204.938 15.5096 203.738 14.6096C202.558 13.7096 201.968 12.3996 201.968 10.6796C201.968 8.83961 202.598 7.44961 203.858 6.50961C205.138 5.56961 206.838 5.09961 208.958 5.09961H215.918V20.9996H213.338ZM201.818 20.9996L206.138 14.9096H209.108L204.908 20.9996H201.818ZM213.338 14.5196V6.80961L213.788 7.61961H209.048C207.728 7.61961 206.708 7.86961 205.988 8.36961C205.268 8.84961 204.908 9.64961 204.908 10.7696C204.908 12.8496 206.248 13.8896 208.928 13.8896H213.788L213.338 14.5196Z" fill="white"/>
<path d="M182.338 20.9996V5.09961H185.218V16.6796L194.968 5.09961H197.578V20.9996H194.698V9.41961L184.978 20.9996H182.338Z" fill="white"/>
<path d="M170.693 20.9996V6.86961L171.413 7.61961H164.873V5.09961H179.393V7.61961H172.883L173.573 6.86961V20.9996H170.693Z" fill="white"/>
<path d="M159.344 20.9996V15.4196L159.794 15.9596H154.724C152.604 15.9596 150.944 15.5096 149.744 14.6096C148.564 13.7096 147.974 12.3996 147.974 10.6796C147.974 8.83961 148.604 7.44961 149.864 6.50961C151.144 5.56961 152.844 5.09961 154.964 5.09961H161.924V20.9996H159.344ZM147.824 20.9996L152.144 14.9096H155.114L150.914 20.9996H147.824ZM159.344 14.5196V6.80961L159.794 7.61961H155.054C153.734 7.61961 152.714 7.86961 151.994 8.36961C151.274 8.84961 150.914 9.64961 150.914 10.7696C150.914 12.8496 152.254 13.8896 154.934 13.8896H159.794L159.344 14.5196Z" fill="white"/>
<path d="M128.344 20.9996V5.09961H131.224V16.6796L140.974 5.09961H143.584V20.9996H140.704V9.41961L130.984 20.9996H128.344Z" fill="white"/>
<path d="M116.119 21.1792C114.799 21.1792 113.589 20.8792 112.489 20.2792C111.409 19.6592 110.539 18.7492 109.879 17.5492C109.239 16.3492 108.919 14.8492 108.919 13.0492C108.919 11.2492 109.229 9.74922 109.849 8.54922C110.489 7.34922 111.349 6.44922 112.429 5.84922C113.529 5.24922 114.759 4.94922 116.119 4.94922C117.679 4.94922 119.059 5.28922 120.259 5.96922C121.459 6.64922 122.409 7.59922 123.109 8.81922C123.809 10.0192 124.159 11.4292 124.159 13.0492C124.159 14.6692 123.809 16.0892 123.109 17.3092C122.409 18.5292 121.459 19.4792 120.259 20.1592C119.059 20.8392 117.679 21.1792 116.119 21.1792ZM107.689 26.8192V5.09922H110.449V9.38922L110.269 13.0792L110.569 16.7692V26.8192H107.689ZM115.879 18.6592C116.899 18.6592 117.809 18.4292 118.609 17.9692C119.429 17.5092 120.069 16.8592 120.529 16.0192C121.009 15.1592 121.249 14.1692 121.249 13.0492C121.249 11.9092 121.009 10.9292 120.529 10.1092C120.069 9.26922 119.429 8.61922 118.609 8.15922C117.809 7.69922 116.899 7.46922 115.879 7.46922C114.879 7.46922 113.969 7.69922 113.149 8.15922C112.349 8.61922 111.709 9.26922 111.229 10.1092C110.769 10.9292 110.539 11.9092 110.539 13.0492C110.539 14.1692 110.769 15.1592 111.229 16.0192C111.709 16.8592 112.349 17.5092 113.149 17.9692C113.969 18.4292 114.879 18.6592 115.879 18.6592Z" fill="white"/>
<path d="M87.3867 20.9996V5.09961H102.117V20.9996H99.2367V6.89961L99.9267 7.61961H89.5767L90.2667 6.89961V20.9996H87.3867Z" fill="white"/>
<path d="M74.9792 21.1792C73.3792 21.1792 71.9592 20.8292 70.7192 20.1292C69.4792 19.4292 68.4992 18.4692 67.7792 17.2492C67.0592 16.0092 66.6992 14.6092 66.6992 13.0492C66.6992 11.4692 67.0592 10.0692 67.7792 8.84922C68.4992 7.62922 69.4792 6.67922 70.7192 5.99922C71.9592 5.29922 73.3792 4.94922 74.9792 4.94922C76.5592 4.94922 77.9692 5.29922 79.2092 5.99922C80.4692 6.67922 81.4492 7.62922 82.1492 8.84922C82.8692 10.0492 83.2292 11.4492 83.2292 13.0492C83.2292 14.6292 82.8692 16.0292 82.1492 17.2492C81.4492 18.4692 80.4692 19.4292 79.2092 20.1292C77.9692 20.8292 76.5592 21.1792 74.9792 21.1792ZM74.9792 18.6592C75.9992 18.6592 76.9092 18.4292 77.7092 17.9692C78.5292 17.5092 79.1692 16.8592 79.6292 16.0192C80.0892 15.1592 80.3192 14.1692 80.3192 13.0492C80.3192 11.9092 80.0892 10.9292 79.6292 10.1092C79.1692 9.26922 78.5292 8.61922 77.7092 8.15922C76.9092 7.69922 75.9992 7.46922 74.9792 7.46922C73.9592 7.46922 73.0492 7.69922 72.2492 8.15922C71.4492 8.61922 70.8092 9.26922 70.3292 10.1092C69.8492 10.9292 69.6092 11.9092 69.6092 13.0492C69.6092 14.1692 69.8492 15.1592 70.3292 16.0192C70.8092 16.8592 71.4492 17.5092 72.2492 17.9692C73.0492 18.4292 73.9592 18.6592 74.9792 18.6592Z" fill="white"/>
<path d="M55.9437 21.1792C54.6237 21.1792 53.4137 20.8792 52.3137 20.2792C51.2337 19.6592 50.3637 18.7492 49.7037 17.5492C49.0637 16.3492 48.7437 14.8492 48.7437 13.0492C48.7437 11.2492 49.0537 9.74922 49.6737 8.54922C50.3137 7.34922 51.1737 6.44922 52.2537 5.84922C53.3537 5.24922 54.5837 4.94922 55.9437 4.94922C57.5037 4.94922 58.8837 5.28922 60.0837 5.96922C61.2837 6.64922 62.2337 7.59922 62.9337 8.81922C63.6337 10.0192 63.9837 11.4292 63.9837 13.0492C63.9837 14.6692 63.6337 16.0892 62.9337 17.3092C62.2337 18.5292 61.2837 19.4792 60.0837 20.1592C58.8837 20.8392 57.5037 21.1792 55.9437 21.1792ZM47.5137 26.8192V5.09922H50.2737V9.38922L50.0937 13.0792L50.3937 16.7692V26.8192H47.5137ZM55.7037 18.6592C56.7237 18.6592 57.6337 18.4292 58.4337 17.9692C59.2537 17.5092 59.8937 16.8592 60.3537 16.0192C60.8337 15.1592 61.0737 14.1692 61.0737 13.0492C61.0737 11.9092 60.8337 10.9292 60.3537 10.1092C59.8937 9.26922 59.2537 8.61922 58.4337 8.15922C57.6337 7.69922 56.7237 7.46922 55.7037 7.46922C54.7037 7.46922 53.7937 7.69922 52.9737 8.15922C52.1737 8.61922 51.5337 9.26922 51.0537 10.1092C50.5937 10.9292 50.3637 11.9092 50.3637 13.0492C50.3637 14.1692 50.5937 15.1592 51.0537 16.0192C51.5337 16.8592 52.1737 17.5092 52.9737 17.9692C53.7937 18.4292 54.7037 18.6592 55.7037 18.6592Z" fill="white"/>
<path d="M35.757 21.1792C34.057 21.1792 32.557 20.8292 31.257 20.1292C29.977 19.4292 28.977 18.4692 28.257 17.2492C27.557 16.0292 27.207 14.6292 27.207 13.0492C27.207 11.4692 27.547 10.0692 28.227 8.84922C28.927 7.62922 29.877 6.67922 31.077 5.99922C32.297 5.29922 33.667 4.94922 35.187 4.94922C36.727 4.94922 38.087 5.28922 39.267 5.96922C40.447 6.64922 41.367 7.60922 42.027 8.84922C42.707 10.0692 43.047 11.4992 43.047 13.1392C43.047 13.2592 43.037 13.3992 43.017 13.5592C43.017 13.7192 43.007 13.8692 42.987 14.0092H29.457V11.9392H41.487L40.317 12.6592C40.337 11.6392 40.127 10.7292 39.687 9.92922C39.247 9.12922 38.637 8.50922 37.857 8.06922C37.097 7.60922 36.207 7.37922 35.187 7.37922C34.187 7.37922 33.297 7.60922 32.517 8.06922C31.737 8.50922 31.127 9.13922 30.687 9.95922C30.247 10.7592 30.027 11.6792 30.027 12.7192V13.1992C30.027 14.2592 30.267 15.2092 30.747 16.0492C31.247 16.8692 31.937 17.5092 32.817 17.9692C33.697 18.4292 34.707 18.6592 35.847 18.6592C36.787 18.6592 37.637 18.4992 38.397 18.1792C39.177 17.8592 39.857 17.3792 40.437 16.7392L42.027 18.5992C41.307 19.4392 40.407 20.0792 39.327 20.5192C38.267 20.9592 37.077 21.1792 35.757 21.1792Z" fill="white"/>
<path d="M0.269531 21V0H2.72953L12.1495 15.87H10.8295L20.1295 0H22.5895L22.6195 21H19.7395L19.7095 4.53H20.3995L12.1195 18.45H10.7395L2.39953 4.53H3.14953V21H0.269531Z" fill="white"/>
</svg>
