<svg width="75" height="14" viewBox="0 0 75 14" fill="none" xmlns="http://www.w3.org/2000/svg">
<path d="M71.4406 12.9993L66.5206 6.8073L68.4166 5.6553L74.1526 12.9993H71.4406ZM62.2246 12.9993V0.279297H64.5286V12.9993H62.2246ZM63.8326 7.6233V5.6553H68.0326V7.6233H63.8326ZM68.6086 6.9033L66.4726 6.6153L71.3446 0.279297H73.8166L68.6086 6.9033Z" fill="white"/>
<path d="M54.0579 13.1442C52.7619 13.1442 51.6019 12.8642 50.5779 12.3042C49.5699 11.7442 48.7779 10.9762 48.2019 10.0002C47.6259 9.02416 47.3379 7.90416 47.3379 6.64016C47.3379 5.37616 47.6259 4.25616 48.2019 3.28016C48.7779 2.30416 49.5699 1.54416 50.5779 1.00016C51.6019 0.440156 52.7619 0.160156 54.0579 0.160156C55.2099 0.160156 56.2339 0.392156 57.1299 0.856155C58.0419 1.30416 58.7459 1.97616 59.2419 2.87216L57.4899 4.00016C57.0739 3.37616 56.5619 2.92016 55.9539 2.63216C55.3619 2.32816 54.7219 2.17616 54.0339 2.17616C53.2019 2.17616 52.4579 2.36016 51.8019 2.72816C51.1459 3.09616 50.6259 3.61616 50.2419 4.28816C49.8579 4.94416 49.6659 5.72816 49.6659 6.64016C49.6659 7.55216 49.8579 8.34416 50.2419 9.01616C50.6259 9.68816 51.1459 10.2082 51.8019 10.5762C52.4579 10.9442 53.2019 11.1282 54.0339 11.1282C54.7219 11.1282 55.3619 10.9842 55.9539 10.6962C56.5619 10.3922 57.0739 9.92816 57.4899 9.30416L59.2419 10.4082C58.7459 11.2882 58.0419 11.9682 57.1299 12.4482C56.2339 12.9122 55.2099 13.1442 54.0579 13.1442Z" fill="white"/>
<path d="M31.8496 12.9993V0.279297H34.1536V9.5433L41.9536 0.279297H44.0416V12.9993H41.7376V3.7353L33.9616 12.9993H31.8496Z" fill="white"/>
<path d="M21.9228 13.1442C20.6428 13.1442 19.5068 12.8642 18.5148 12.3042C17.5228 11.7442 16.7388 10.9762 16.1628 10.0002C15.5868 9.00816 15.2988 7.88816 15.2988 6.64016C15.2988 5.37616 15.5868 4.25616 16.1628 3.28016C16.7388 2.30416 17.5228 1.54416 18.5148 1.00016C19.5068 0.440156 20.6428 0.160156 21.9228 0.160156C23.1868 0.160156 24.3148 0.440156 25.3068 1.00016C26.3148 1.54416 27.0988 2.30416 27.6588 3.28016C28.2348 4.24016 28.5228 5.36016 28.5228 6.64016C28.5228 7.90416 28.2348 9.02416 27.6588 10.0002C27.0988 10.9762 26.3148 11.7442 25.3068 12.3042C24.3148 12.8642 23.1868 13.1442 21.9228 13.1442ZM21.9228 11.1282C22.7388 11.1282 23.4668 10.9442 24.1068 10.5762C24.7628 10.2082 25.2748 9.68816 25.6428 9.01616C26.0108 8.32816 26.1948 7.53616 26.1948 6.64016C26.1948 5.72816 26.0108 4.94416 25.6428 4.28816C25.2748 3.61616 24.7628 3.09616 24.1068 2.72816C23.4668 2.36016 22.7388 2.17616 21.9228 2.17616C21.1068 2.17616 20.3788 2.36016 19.7388 2.72816C19.0988 3.09616 18.5868 3.61616 18.2028 4.28816C17.8188 4.94416 17.6268 5.72816 17.6268 6.64016C17.6268 7.53616 17.8188 8.32816 18.2028 9.01616C18.5868 9.68816 19.0988 10.2082 19.7388 10.5762C20.3788 10.9442 21.1068 11.1282 21.9228 11.1282Z" fill="white"/>
<path d="M0.232422 12.9993V0.279297H12.0164V12.9993H9.71242V1.7193L10.2644 2.2953H1.98442L2.53642 1.7193V12.9993H0.232422Z" fill="white"/>
</svg>
