<svg width="203" height="21" viewBox="0 0 203 21" fill="none" xmlns="http://www.w3.org/2000/svg">
<path d="M189.895 18.0005V5.2805H192.199V14.5445L199.999 5.2805H202.087V18.0005H199.783V8.7365L192.007 18.0005H189.895ZM195.847 3.6245C194.679 3.6245 193.759 3.3445 193.087 2.7845C192.431 2.2085 192.095 1.3845 192.079 0.3125H193.639C193.655 0.9205 193.855 1.4005 194.239 1.7525C194.639 2.1045 195.167 2.2805 195.823 2.2805C196.479 2.2805 197.007 2.1045 197.407 1.7525C197.807 1.4005 198.015 0.9205 198.031 0.3125H199.639C199.623 1.3845 199.279 2.2085 198.607 2.7845C197.935 3.3445 197.015 3.6245 195.847 3.6245Z" fill="white"/>
<path d="M173.23 18.0013V5.28125H175.534V14.5453L183.334 5.28125H185.422V18.0013H183.118V8.73725L175.342 18.0013H173.23Z" fill="white"/>
<path d="M168.103 18.0013L163.183 11.8092L165.079 10.6573L170.815 18.0013H168.103ZM158.887 18.0013V5.28125H161.191V18.0013H158.887ZM160.495 12.6253V10.6573H164.695V12.6253H160.495ZM165.271 11.9053L163.135 11.6173L168.007 5.28125H170.479L165.271 11.9053Z" fill="white"/>
<path d="M150.72 18.1442C149.424 18.1442 148.264 17.8642 147.24 17.3042C146.232 16.7442 145.44 15.9762 144.864 15.0002C144.288 14.0242 144 12.9042 144 11.6402C144 10.3762 144.288 9.25616 144.864 8.28016C145.44 7.30416 146.232 6.54416 147.24 6.00016C148.264 5.44016 149.424 5.16016 150.72 5.16016C151.872 5.16016 152.896 5.39216 153.792 5.85616C154.704 6.30416 155.408 6.97616 155.904 7.87216L154.152 9.00016C153.736 8.37616 153.224 7.92016 152.616 7.63216C152.024 7.32816 151.384 7.17616 150.696 7.17616C149.864 7.17616 149.12 7.36016 148.464 7.72816C147.808 8.09616 147.288 8.61616 146.904 9.28816C146.52 9.94416 146.328 10.7282 146.328 11.6402C146.328 12.5522 146.52 13.3442 146.904 14.0162C147.288 14.6882 147.808 15.2082 148.464 15.5762C149.12 15.9442 149.864 16.1282 150.696 16.1282C151.384 16.1282 152.024 15.9842 152.616 15.6962C153.224 15.3922 153.736 14.9282 154.152 14.3042L155.904 15.4082C155.408 16.2882 154.704 16.9682 153.792 17.4482C152.896 17.9122 151.872 18.1442 150.72 18.1442Z" fill="white"/>
<path d="M135.77 18.1442C134.41 18.1442 133.21 17.8642 132.17 17.3042C131.146 16.7442 130.346 15.9762 129.77 15.0002C129.21 14.0242 128.93 12.9042 128.93 11.6402C128.93 10.3762 129.202 9.25616 129.746 8.28016C130.306 7.30416 131.066 6.54416 132.026 6.00016C133.002 5.44016 134.098 5.16016 135.314 5.16016C136.546 5.16016 137.634 5.43215 138.578 5.97615C139.522 6.52015 140.258 7.28816 140.786 8.28016C141.33 9.25616 141.602 10.4002 141.602 11.7122C141.602 11.8082 141.594 11.9202 141.578 12.0482C141.578 12.1762 141.57 12.2962 141.554 12.4082H130.73V10.7522H140.354L139.418 11.3282C139.434 10.5122 139.266 9.78416 138.914 9.14416C138.562 8.50416 138.074 8.00816 137.45 7.65616C136.842 7.28816 136.13 7.10416 135.314 7.10416C134.514 7.10416 133.802 7.28816 133.178 7.65616C132.554 8.00816 132.066 8.51216 131.714 9.16816C131.362 9.80816 131.186 10.5442 131.186 11.3762V11.7602C131.186 12.6082 131.378 13.3682 131.762 14.0402C132.162 14.6962 132.714 15.2082 133.418 15.5762C134.122 15.9442 134.93 16.1282 135.842 16.1282C136.594 16.1282 137.274 16.0002 137.882 15.7442C138.506 15.4882 139.05 15.1042 139.514 14.5922L140.786 16.0802C140.21 16.7522 139.49 17.2642 138.626 17.6162C137.778 17.9682 136.826 18.1442 135.77 18.1442Z" fill="white"/>
<path d="M123.498 12.7933C122.826 13.1133 122.13 13.3693 121.41 13.5613C120.706 13.7373 119.978 13.8253 119.226 13.8253C117.69 13.8253 116.474 13.4653 115.578 12.7453C114.698 12.0253 114.258 10.9133 114.258 9.40925V5.28125H116.562V9.26525C116.562 10.1773 116.842 10.8493 117.402 11.2813C117.978 11.7133 118.746 11.9293 119.706 11.9293C120.314 11.9293 120.938 11.8493 121.578 11.6893C122.234 11.5293 122.874 11.3053 123.498 11.0173V12.7933ZM123.33 18.0013V5.28125H125.634V18.0013H123.33Z" fill="white"/>
<path d="M98.8164 18.0013V5.28125H101.12V14.5453L108.92 5.28125H111.008V18.0013H108.704V8.73725L100.928 18.0013H98.8164Z" fill="white"/>
<path d="M79.668 18.0013V5.28125H82.044L87.516 14.6893H86.556L92.172 5.28125H94.332V18.0013H92.244V7.87325L92.628 8.08925L87.492 16.5613H86.484L81.324 7.92125L81.78 7.82525V18.0013H79.668Z" fill="white"/>
<path d="M70.2619 18.1442C68.9019 18.1442 67.7019 17.8642 66.6619 17.3042C65.6379 16.7442 64.8379 15.9762 64.2619 15.0002C63.7019 14.0242 63.4219 12.9042 63.4219 11.6402C63.4219 10.3762 63.6939 9.25616 64.2379 8.28016C64.7979 7.30416 65.5579 6.54416 66.5179 6.00016C67.4939 5.44016 68.5899 5.16016 69.8059 5.16016C71.0379 5.16016 72.1259 5.43215 73.0699 5.97615C74.0139 6.52015 74.7499 7.28816 75.2779 8.28016C75.8219 9.25616 76.0939 10.4002 76.0939 11.7122C76.0939 11.8082 76.0859 11.9202 76.0699 12.0482C76.0699 12.1762 76.0619 12.2962 76.0459 12.4082H65.2219V10.7522H74.8459L73.9099 11.3282C73.9259 10.5122 73.7579 9.78416 73.4059 9.14416C73.0539 8.50416 72.5659 8.00816 71.9419 7.65616C71.3339 7.28816 70.6219 7.10416 69.8059 7.10416C69.0059 7.10416 68.2939 7.28816 67.6699 7.65616C67.0459 8.00816 66.5579 8.51216 66.2059 9.16816C65.8539 9.80816 65.6779 10.5442 65.6779 11.3762V11.7602C65.6779 12.6082 65.8699 13.3682 66.2539 14.0402C66.6539 14.6962 67.2059 15.2082 67.9099 15.5762C68.6139 15.9442 69.4219 16.1282 70.3339 16.1282C71.0859 16.1282 71.7659 16.0002 72.3739 15.7442C72.9979 15.4882 73.5419 15.1042 74.0059 14.5922L75.2779 16.0802C74.7019 16.7522 73.9819 17.2642 73.1179 17.6162C72.2699 17.9682 71.3179 18.1442 70.2619 18.1442Z" fill="white"/>
<path d="M57.3491 16.9213V7.29725H51.8291L51.7091 9.74525C51.6771 10.5453 51.6211 11.3213 51.5411 12.0733C51.4771 12.8093 51.3651 13.4893 51.2051 14.1133C51.0611 14.7373 50.8451 15.2493 50.5571 15.6493C50.2691 16.0493 49.8851 16.2973 49.4051 16.3933L47.1251 15.9853C47.6211 16.0013 48.0211 15.8413 48.3251 15.5053C48.6291 15.1533 48.8611 14.6733 49.0211 14.0653C49.1971 13.4573 49.3251 12.7693 49.4051 12.0013C49.4851 11.2173 49.5491 10.4093 49.5971 9.57725L49.7891 5.28125H59.6531V16.9213H57.3491ZM46.6211 20.9533V15.9853H61.5971V20.9533H59.4371V18.0013H48.8051V20.9533H46.6211Z" fill="white"/>
<path d="M42.3273 18.0002V15.3122L42.2073 14.8082V10.2242C42.2073 9.24816 41.9193 8.49616 41.3433 7.96816C40.7833 7.42416 39.9353 7.15216 38.7993 7.15216C38.0473 7.15216 37.3113 7.28016 36.5913 7.53616C35.8713 7.77616 35.2633 8.10416 34.7673 8.52016L33.8073 6.79216C34.4633 6.26416 35.2473 5.86416 36.1593 5.59216C37.0873 5.30416 38.0553 5.16016 39.0633 5.16016C40.8073 5.16016 42.1513 5.58416 43.0953 6.43216C44.0393 7.28016 44.5113 8.57616 44.5113 10.3202V18.0002H42.3273ZM38.1513 18.1442C37.2073 18.1442 36.3753 17.9842 35.6553 17.6642C34.9513 17.3442 34.4073 16.9042 34.0233 16.3442C33.6393 15.7682 33.4473 15.1202 33.4473 14.4002C33.4473 13.7122 33.6073 13.0882 33.9273 12.5282C34.2633 11.9682 34.7993 11.5202 35.5353 11.1842C36.2873 10.8482 37.2953 10.6802 38.5593 10.6802H42.5913V12.3362H38.6553C37.5033 12.3362 36.7273 12.5282 36.3273 12.9122C35.9273 13.2962 35.7273 13.7602 35.7273 14.3042C35.7273 14.9282 35.9753 15.4322 36.4713 15.8162C36.9673 16.1842 37.6553 16.3682 38.5353 16.3682C39.3993 16.3682 40.1513 16.1762 40.7913 15.7922C41.4473 15.4082 41.9193 14.8482 42.2073 14.1122L42.6633 15.6962C42.3593 16.4482 41.8233 17.0482 41.0553 17.4962C40.2873 17.9282 39.3193 18.1442 38.1513 18.1442Z" fill="white"/>
<path d="M29.634 18.0013L24.714 11.8092L26.61 10.6573L32.346 18.0013H29.634ZM20.418 18.0013V5.28125H22.722V18.0013H20.418ZM22.026 12.6253V10.6573H26.226V12.6253H22.026ZM26.802 11.9053L24.666 11.6173L29.538 5.28125H32.01L26.802 11.9053Z" fill="white"/>
<path d="M0.287109 18.0012L7.89511 1.20117H10.2711L17.9031 18.0012H15.3831L8.59111 2.54517H9.55111L2.75911 18.0012H0.287109ZM3.52711 13.8012L4.17511 11.8812H13.6311L14.3271 13.8012H3.52711Z" fill="white"/>
</svg>
