<svg width="181" height="19" viewBox="0 0 181 19" fill="none" xmlns="http://www.w3.org/2000/svg">
<path d="M167.91 18.0005V5.2805H170.214V14.5445L178.014 5.2805H180.102V18.0005H177.798V8.7365L170.022 18.0005H167.91ZM173.862 3.6245C172.694 3.6245 171.774 3.3445 171.102 2.7845C170.446 2.2085 170.11 1.3845 170.094 0.3125H171.654C171.67 0.9205 171.87 1.4005 172.254 1.7525C172.654 2.1045 173.182 2.2805 173.838 2.2805C174.494 2.2805 175.022 2.1045 175.422 1.7525C175.822 1.4005 176.03 0.9205 176.046 0.3125H177.654C177.638 1.3845 177.294 2.2085 176.622 2.7845C175.95 3.3445 175.03 3.6245 173.862 3.6245Z" fill="white"/>
<path d="M151.246 18.0013V5.28125H153.55V14.5453L161.35 5.28125H163.438V18.0013H161.134V8.73725L153.358 18.0013H151.246Z" fill="white"/>
<path d="M146.118 18.0013L141.198 11.8092L143.094 10.6573L148.83 18.0013H146.118ZM136.902 18.0013V5.28125H139.206V18.0013H136.902ZM138.51 12.6253V10.6573H142.71V12.6253H138.51ZM143.286 11.9053L141.15 11.6173L146.022 5.28125H148.494L143.286 11.9053Z" fill="white"/>
<path d="M128.736 18.1442C127.44 18.1442 126.28 17.8642 125.256 17.3042C124.248 16.7442 123.456 15.9762 122.88 15.0002C122.304 14.0242 122.016 12.9042 122.016 11.6402C122.016 10.3762 122.304 9.25616 122.88 8.28016C123.456 7.30416 124.248 6.54416 125.256 6.00016C126.28 5.44016 127.44 5.16016 128.736 5.16016C129.888 5.16016 130.912 5.39216 131.808 5.85616C132.72 6.30416 133.424 6.97616 133.92 7.87216L132.168 9.00016C131.752 8.37616 131.24 7.92016 130.632 7.63216C130.04 7.32816 129.4 7.17616 128.712 7.17616C127.88 7.17616 127.136 7.36016 126.48 7.72816C125.824 8.09616 125.304 8.61616 124.92 9.28816C124.536 9.94416 124.344 10.7282 124.344 11.6402C124.344 12.5522 124.536 13.3442 124.92 14.0162C125.304 14.6882 125.824 15.2082 126.48 15.5762C127.136 15.9442 127.88 16.1282 128.712 16.1282C129.4 16.1282 130.04 15.9842 130.632 15.6962C131.24 15.3922 131.752 14.9282 132.168 14.3042L133.92 15.4082C133.424 16.2882 132.72 16.9682 131.808 17.4482C130.912 17.9122 129.888 18.1442 128.736 18.1442Z" fill="white"/>
<path d="M108.449 18.0013V5.28125H114.353C115.841 5.28125 117.009 5.56925 117.857 6.14525C118.721 6.70525 119.153 7.50525 119.153 8.54525C119.153 9.58525 118.745 10.3933 117.929 10.9693C117.129 11.5293 116.065 11.8092 114.737 11.8092L115.097 11.1853C116.617 11.1853 117.745 11.4653 118.481 12.0253C119.217 12.5853 119.585 13.4093 119.585 14.4973C119.585 15.6013 119.169 16.4653 118.337 17.0893C117.521 17.6973 116.265 18.0013 114.569 18.0013H108.449ZM110.705 16.2253H114.401C115.361 16.2253 116.081 16.0813 116.561 15.7933C117.041 15.4893 117.281 15.0093 117.281 14.3533C117.281 13.6813 117.057 13.1933 116.609 12.8893C116.177 12.5693 115.489 12.4093 114.545 12.4093H110.705V16.2253ZM110.705 10.7533H114.161C115.041 10.7533 115.705 10.5933 116.153 10.2733C116.617 9.93725 116.849 9.47325 116.849 8.88125C116.849 8.27325 116.617 7.81725 116.153 7.51325C115.705 7.20925 115.041 7.05725 114.161 7.05725H110.705V10.7533Z" fill="white"/>
<path d="M99.0431 18.1442C97.6831 18.1442 96.4831 17.8642 95.4431 17.3042C94.4191 16.7442 93.6191 15.9762 93.0431 15.0002C92.4831 14.0242 92.2031 12.9042 92.2031 11.6402C92.2031 10.3762 92.4751 9.25616 93.0191 8.28016C93.5791 7.30416 94.3391 6.54416 95.2991 6.00016C96.2751 5.44016 97.3711 5.16016 98.5871 5.16016C99.8191 5.16016 100.907 5.43215 101.851 5.97615C102.795 6.52015 103.531 7.28816 104.059 8.28016C104.603 9.25616 104.875 10.4002 104.875 11.7122C104.875 11.8082 104.867 11.9202 104.851 12.0482C104.851 12.1762 104.843 12.2962 104.827 12.4082H94.0031V10.7522H103.627L102.691 11.3282C102.707 10.5122 102.539 9.78416 102.187 9.14416C101.835 8.50416 101.347 8.00816 100.723 7.65616C100.115 7.28816 99.4031 7.10416 98.5871 7.10416C97.7871 7.10416 97.0751 7.28816 96.4511 7.65616C95.8271 8.00816 95.3391 8.51216 94.9871 9.16816C94.6351 9.80816 94.4591 10.5442 94.4591 11.3762V11.7602C94.4591 12.6082 94.6511 13.3682 95.0351 14.0402C95.4351 14.6962 95.9871 15.2082 96.6911 15.5762C97.3951 15.9442 98.2031 16.1282 99.1151 16.1282C99.8671 16.1282 100.547 16.0002 101.155 15.7442C101.779 15.4882 102.323 15.1042 102.787 14.5922L104.059 16.0802C103.483 16.7522 102.763 17.2642 101.899 17.6162C101.051 17.9682 100.099 18.1442 99.0431 18.1442Z" fill="white"/>
<path d="M83.9728 18.1442C82.6128 18.1442 81.4128 17.8642 80.3728 17.3042C79.3488 16.7442 78.5488 15.9762 77.9728 15.0002C77.4128 14.0242 77.1328 12.9042 77.1328 11.6402C77.1328 10.3762 77.4048 9.25616 77.9488 8.28016C78.5088 7.30416 79.2688 6.54416 80.2288 6.00016C81.2048 5.44016 82.3008 5.16016 83.5168 5.16016C84.7488 5.16016 85.8368 5.43215 86.7808 5.97615C87.7248 6.52015 88.4608 7.28816 88.9888 8.28016C89.5328 9.25616 89.8048 10.4002 89.8048 11.7122C89.8048 11.8082 89.7968 11.9202 89.7808 12.0482C89.7808 12.1762 89.7728 12.2962 89.7568 12.4082H78.9328V10.7522H88.5568L87.6208 11.3282C87.6368 10.5122 87.4688 9.78416 87.1168 9.14416C86.7648 8.50416 86.2768 8.00816 85.6528 7.65616C85.0448 7.28816 84.3328 7.10416 83.5168 7.10416C82.7168 7.10416 82.0048 7.28816 81.3808 7.65616C80.7568 8.00816 80.2688 8.51216 79.9168 9.16816C79.5648 9.80816 79.3888 10.5442 79.3888 11.3762V11.7602C79.3888 12.6082 79.5808 13.3682 79.9648 14.0402C80.3648 14.6962 80.9168 15.2082 81.6208 15.5762C82.3248 15.9442 83.1328 16.1282 84.0448 16.1282C84.7968 16.1282 85.4768 16.0002 86.0848 15.7442C86.7088 15.4882 87.2528 15.1042 87.7168 14.5922L88.9888 16.0802C88.4128 16.7522 87.6928 17.2642 86.8288 17.6162C85.9808 17.9682 85.0288 18.1442 83.9728 18.1442Z" fill="white"/>
<path d="M70.3294 18.1442C69.0334 18.1442 67.8734 17.8642 66.8494 17.3042C65.8414 16.7442 65.0494 15.9762 64.4734 15.0002C63.8974 14.0242 63.6094 12.9042 63.6094 11.6402C63.6094 10.3762 63.8974 9.25616 64.4734 8.28016C65.0494 7.30416 65.8414 6.54416 66.8494 6.00016C67.8734 5.44016 69.0334 5.16016 70.3294 5.16016C71.4814 5.16016 72.5054 5.39216 73.4014 5.85616C74.3134 6.30416 75.0174 6.97616 75.5134 7.87216L73.7614 9.00016C73.3454 8.37616 72.8334 7.92016 72.2254 7.63216C71.6334 7.32816 70.9934 7.17616 70.3054 7.17616C69.4734 7.17616 68.7294 7.36016 68.0734 7.72816C67.4174 8.09616 66.8974 8.61616 66.5134 9.28816C66.1294 9.94416 65.9374 10.7282 65.9374 11.6402C65.9374 12.5522 66.1294 13.3442 66.5134 14.0162C66.8974 14.6882 67.4174 15.2082 68.0734 15.5762C68.7294 15.9442 69.4734 16.1282 70.3054 16.1282C70.9934 16.1282 71.6334 15.9842 72.2254 15.6962C72.8334 15.3922 73.3454 14.9282 73.7614 14.3042L75.5134 15.4082C75.0174 16.2882 74.3134 16.9682 73.4014 17.4482C72.5054 17.9122 71.4814 18.1442 70.3294 18.1442Z" fill="white"/>
<path d="M60.0793 18.0013L55.1593 11.8092L57.0553 10.6573L62.7913 18.0013H60.0793ZM50.8633 18.0013V5.28125H53.1673V18.0013H50.8633ZM52.4713 12.6253V10.6573H56.6713V12.6253H52.4713ZM57.2473 11.9053L55.1113 11.6173L59.9833 5.28125H62.4553L57.2473 11.9053Z" fill="white"/>
<path d="M41.4572 18.1442C40.0972 18.1442 38.8972 17.8642 37.8572 17.3042C36.8332 16.7442 36.0332 15.9762 35.4572 15.0002C34.8972 14.0242 34.6172 12.9042 34.6172 11.6402C34.6172 10.3762 34.8892 9.25616 35.4332 8.28016C35.9932 7.30416 36.7532 6.54416 37.7132 6.00016C38.6892 5.44016 39.7852 5.16016 41.0012 5.16016C42.2332 5.16016 43.3212 5.43215 44.2652 5.97615C45.2092 6.52015 45.9452 7.28816 46.4732 8.28016C47.0172 9.25616 47.2892 10.4002 47.2892 11.7122C47.2892 11.8082 47.2812 11.9202 47.2652 12.0482C47.2652 12.1762 47.2572 12.2962 47.2412 12.4082H36.4172V10.7522H46.0412L45.1052 11.3282C45.1212 10.5122 44.9532 9.78416 44.6012 9.14416C44.2492 8.50416 43.7612 8.00816 43.1372 7.65616C42.5292 7.28816 41.8172 7.10416 41.0012 7.10416C40.2012 7.10416 39.4892 7.28816 38.8652 7.65616C38.2412 8.00816 37.7532 8.51216 37.4012 9.16816C37.0492 9.80816 36.8732 10.5442 36.8732 11.3762V11.7602C36.8732 12.6082 37.0652 13.3682 37.4492 14.0402C37.8492 14.6962 38.4012 15.2082 39.1052 15.5762C39.8092 15.9442 40.6172 16.1282 41.5292 16.1282C42.2812 16.1282 42.9612 16.0002 43.5692 15.7442C44.1932 15.4882 44.7372 15.1042 45.2012 14.5922L46.4732 16.0802C45.8972 16.7522 45.1772 17.2642 44.3132 17.6162C43.4652 17.9682 42.5132 18.1442 41.4572 18.1442Z" fill="white"/>
<path d="M18.3066 17.9773L18.4506 16.0333C18.5626 16.0493 18.6666 16.0653 18.7626 16.0813C18.8586 16.0973 18.9466 16.1053 19.0266 16.1053C19.5386 16.1053 19.9386 15.9293 20.2266 15.5773C20.5306 15.2253 20.7546 14.7613 20.8986 14.1853C21.0426 13.5933 21.1466 12.9293 21.2106 12.1933C21.2746 11.4573 21.3226 10.7213 21.3546 9.98525L21.5706 5.28125H31.3386V18.0013H29.0346V6.62525L29.5866 7.29725H23.0586L23.5866 6.60125L23.4186 10.1293C23.3706 11.2493 23.2826 12.2973 23.1546 13.2733C23.0266 14.2493 22.8266 15.1053 22.5546 15.8413C22.2986 16.5773 21.9386 17.1533 21.4746 17.5693C21.0266 17.9853 20.4426 18.1933 19.7226 18.1933C19.5146 18.1933 19.2906 18.1693 19.0506 18.1213C18.8266 18.0893 18.5786 18.0413 18.3066 17.9773Z" fill="white"/>
<path d="M0.287109 18.0012L7.89511 1.20117H10.2711L17.9031 18.0012H15.3831L8.59111 2.54517H9.55111L2.75911 18.0012H0.287109ZM3.52711 13.8012L4.17511 11.8812H13.6311L14.3271 13.8012H3.52711Z" fill="white"/>
</svg>
