<svg width="181" height="23" viewBox="0 0 181 23" fill="none" xmlns="http://www.w3.org/2000/svg">
<path d="M168.637 17.9985V5.27855H170.941V14.5425L178.741 5.27855H180.829V17.9985H178.525V8.73455L170.749 17.9985H168.637ZM174.589 3.62255C173.421 3.62255 172.501 3.34255 171.829 2.78255C171.173 2.20655 170.837 1.38255 170.821 0.310547H172.381C172.397 0.918547 172.597 1.39855 172.981 1.75055C173.381 2.10255 173.909 2.27855 174.565 2.27855C175.221 2.27855 175.749 2.10255 176.149 1.75055C176.549 1.39855 176.757 0.918547 176.773 0.310547H178.381C178.365 1.38255 178.021 2.20655 177.349 2.78255C176.677 3.34255 175.757 3.62255 174.589 3.62255Z" fill="white"/>
<path d="M151.973 17.9993V5.2793H154.277V14.5433L162.077 5.2793H164.165V17.9993H161.861V8.7353L154.085 17.9993H151.973Z" fill="white"/>
<path d="M146.845 17.9993L141.925 11.8073L143.821 10.6553L149.557 17.9993H146.845ZM137.629 17.9993V5.2793H139.933V17.9993H137.629ZM139.237 12.6233V10.6553H143.437V12.6233H139.237ZM144.013 11.9033L141.877 11.6153L146.749 5.2793H149.221L144.013 11.9033Z" fill="white"/>
<path d="M129.462 18.1442C128.166 18.1442 127.006 17.8642 125.982 17.3042C124.974 16.7442 124.182 15.9762 123.606 15.0002C123.03 14.0242 122.742 12.9042 122.742 11.6402C122.742 10.3762 123.03 9.25616 123.606 8.28016C124.182 7.30416 124.974 6.54416 125.982 6.00016C127.006 5.44016 128.166 5.16016 129.462 5.16016C130.614 5.16016 131.638 5.39216 132.534 5.85616C133.446 6.30416 134.15 6.97616 134.646 7.87216L132.894 9.00016C132.478 8.37616 131.966 7.92016 131.358 7.63216C130.766 7.32816 130.126 7.17616 129.438 7.17616C128.606 7.17616 127.862 7.36016 127.206 7.72816C126.55 8.09616 126.03 8.61616 125.646 9.28816C125.262 9.94416 125.07 10.7282 125.07 11.6402C125.07 12.5522 125.262 13.3442 125.646 14.0162C126.03 14.6882 126.55 15.2082 127.206 15.5762C127.862 15.9442 128.606 16.1282 129.438 16.1282C130.126 16.1282 130.766 15.9842 131.358 15.6962C131.966 15.3922 132.478 14.9282 132.894 14.3042L134.646 15.4082C134.15 16.2882 133.446 16.9682 132.534 17.4482C131.638 17.9122 130.614 18.1442 129.462 18.1442Z" fill="white"/>
<path d="M109.176 17.9993V5.2793H115.08C116.568 5.2793 117.736 5.5673 118.584 6.1433C119.448 6.7033 119.88 7.5033 119.88 8.5433C119.88 9.5833 119.472 10.3913 118.656 10.9673C117.856 11.5273 116.792 11.8073 115.464 11.8073L115.824 11.1833C117.344 11.1833 118.472 11.4633 119.208 12.0233C119.944 12.5833 120.312 13.4073 120.312 14.4953C120.312 15.5993 119.896 16.4633 119.064 17.0873C118.248 17.6953 116.992 17.9993 115.296 17.9993H109.176ZM111.432 16.2233H115.128C116.088 16.2233 116.808 16.0793 117.288 15.7913C117.768 15.4873 118.008 15.0073 118.008 14.3513C118.008 13.6793 117.784 13.1913 117.336 12.8873C116.904 12.5673 116.216 12.4073 115.272 12.4073H111.432V16.2233ZM111.432 10.7513H114.888C115.768 10.7513 116.432 10.5913 116.88 10.2713C117.344 9.9353 117.576 9.4713 117.576 8.8793C117.576 8.2713 117.344 7.8153 116.88 7.5113C116.432 7.2073 115.768 7.0553 114.888 7.0553H111.432V10.7513Z" fill="white"/>
<path d="M99.7697 18.1442C98.4097 18.1442 97.2097 17.8642 96.1697 17.3042C95.1457 16.7442 94.3457 15.9762 93.7697 15.0002C93.2097 14.0242 92.9297 12.9042 92.9297 11.6402C92.9297 10.3762 93.2017 9.25616 93.7457 8.28016C94.3057 7.30416 95.0657 6.54416 96.0257 6.00016C97.0017 5.44016 98.0977 5.16016 99.3137 5.16016C100.546 5.16016 101.634 5.43215 102.578 5.97615C103.522 6.52015 104.258 7.28816 104.786 8.28016C105.33 9.25616 105.602 10.4002 105.602 11.7122C105.602 11.8082 105.594 11.9202 105.578 12.0482C105.578 12.1762 105.57 12.2962 105.554 12.4082H94.7297V10.7522H104.354L103.418 11.3282C103.434 10.5122 103.266 9.78416 102.914 9.14416C102.562 8.50416 102.074 8.00816 101.45 7.65616C100.842 7.28816 100.13 7.10416 99.3137 7.10416C98.5137 7.10416 97.8017 7.28816 97.1777 7.65616C96.5537 8.00816 96.0657 8.51216 95.7137 9.16816C95.3617 9.80816 95.1857 10.5442 95.1857 11.3762V11.7602C95.1857 12.6082 95.3777 13.3682 95.7617 14.0402C96.1617 14.6962 96.7137 15.2082 97.4177 15.5762C98.1217 15.9442 98.9297 16.1282 99.8417 16.1282C100.594 16.1282 101.274 16.0002 101.882 15.7442C102.506 15.4882 103.05 15.1042 103.514 14.5922L104.786 16.0802C104.21 16.7522 103.49 17.2642 102.626 17.6162C101.778 17.9682 100.826 18.1442 99.7697 18.1442Z" fill="white"/>
<path d="M86.1808 9.5993C87.7968 9.6153 89.0288 9.9833 89.8768 10.7033C90.7248 11.4233 91.1488 12.4393 91.1488 13.7513C91.1488 15.1273 90.6848 16.1913 89.7568 16.9433C88.8288 17.6793 87.5168 18.0393 85.8208 18.0233L80.3008 17.9993V5.2793H82.6048V9.5753L86.1808 9.5993ZM85.6288 16.2713C86.6688 16.2873 87.4528 16.0793 87.9808 15.6473C88.5248 15.2153 88.7968 14.5753 88.7968 13.7273C88.7968 12.8953 88.5328 12.2873 88.0048 11.9033C87.4768 11.5193 86.6848 11.3193 85.6288 11.3033L82.6048 11.2553V16.2473L85.6288 16.2713Z" fill="white"/>
<path d="M68.5731 18.1914C68.5571 18.1914 68.5011 18.1914 68.4051 18.1914C68.3251 18.1914 68.2451 18.1914 68.1651 18.1914C68.0851 18.1914 68.0371 18.1914 68.0211 18.1914C65.4131 18.1594 63.3891 17.5834 61.9491 16.4634C60.5091 15.3274 59.7891 13.7114 59.7891 11.6154C59.7891 9.53541 60.5091 7.94341 61.9491 6.83941C63.4051 5.71941 65.4531 5.15141 68.0931 5.13541C68.1251 5.13541 68.1731 5.13541 68.2371 5.13541C68.3171 5.13541 68.3891 5.13541 68.4531 5.13541C68.5331 5.13541 68.5811 5.13541 68.5971 5.13541C71.2691 5.13541 73.3411 5.69541 74.8131 6.81541C76.3011 7.93541 77.0451 9.53541 77.0451 11.6154C77.0451 13.7274 76.3011 15.3514 74.8131 16.4874C73.3251 17.6234 71.2451 18.1914 68.5731 18.1914ZM68.5251 16.1754C69.9171 16.1754 71.0691 15.9994 71.9811 15.6474C72.9091 15.2954 73.6051 14.7834 74.0691 14.1114C74.5331 13.4394 74.7651 12.6074 74.7651 11.6154C74.7651 10.6394 74.5331 9.82341 74.0691 9.16741C73.6051 8.51141 72.9091 8.01541 71.9811 7.67941C71.0691 7.34341 69.9171 7.17541 68.5251 7.17541C68.4931 7.17541 68.4291 7.17541 68.3331 7.17541C68.2371 7.17541 68.1811 7.17541 68.1651 7.17541C66.8051 7.17541 65.6691 7.35141 64.7571 7.70341C63.8611 8.03941 63.1891 8.53541 62.7411 9.19141C62.2931 9.84741 62.0691 10.6554 62.0691 11.6154C62.0691 12.5914 62.2931 13.4154 62.7411 14.0874C63.2051 14.7594 63.8851 15.2714 64.7811 15.6234C65.6931 15.9754 66.8211 16.1594 68.1651 16.1754C68.1971 16.1754 68.2531 16.1754 68.3331 16.1754C68.4291 16.1754 68.4931 16.1754 68.5251 16.1754ZM67.2771 22.6554V0.191406H69.5331V22.6554H67.2771Z" fill="white"/>
<path d="M48.2777 22.7993C47.6697 22.7993 47.0777 22.6953 46.5017 22.4873C45.9257 22.2953 45.4297 22.0073 45.0137 21.6233L45.9977 19.8953C46.3177 20.1993 46.6697 20.4313 47.0537 20.5913C47.4377 20.7513 47.8457 20.8313 48.2777 20.8313C48.8377 20.8313 49.3017 20.6873 49.6697 20.3993C50.0377 20.1113 50.3817 19.5993 50.7017 18.8633L51.4937 17.1113L51.7337 16.8233L56.7257 5.2793H58.9817L52.8137 19.2713C52.4457 20.1673 52.0297 20.8713 51.5657 21.3833C51.1177 21.8953 50.6217 22.2553 50.0777 22.4633C49.5337 22.6873 48.9337 22.7993 48.2777 22.7993ZM51.3017 18.4073L45.4937 5.2793H47.8937L52.8377 16.6073L51.3017 18.4073Z" fill="white"/>
<path d="M38.3142 17.9993V6.6953L38.8902 7.2953H33.6582V5.2793H45.2742V7.2953H40.0662L40.6182 6.6953V17.9993H38.3142Z" fill="white"/>
<path d="M18.3066 17.9753L18.4506 16.0313C18.5626 16.0473 18.6666 16.0633 18.7626 16.0793C18.8586 16.0953 18.9466 16.1033 19.0266 16.1033C19.5386 16.1033 19.9386 15.9273 20.2266 15.5753C20.5306 15.2233 20.7546 14.7593 20.8986 14.1833C21.0426 13.5913 21.1466 12.9273 21.2106 12.1913C21.2746 11.4553 21.3226 10.7193 21.3546 9.9833L21.5706 5.2793H31.3386V17.9993H29.0346V6.6233L29.5866 7.2953H23.0586L23.5866 6.5993L23.4186 10.1273C23.3706 11.2473 23.2826 12.2953 23.1546 13.2713C23.0266 14.2473 22.8266 15.1033 22.5546 15.8393C22.2986 16.5753 21.9386 17.1513 21.4746 17.5673C21.0266 17.9833 20.4426 18.1913 19.7226 18.1913C19.5146 18.1913 19.2906 18.1673 19.0506 18.1193C18.8266 18.0873 18.5786 18.0393 18.3066 17.9753Z" fill="white"/>
<path d="M0.287109 17.9992L7.89511 1.19922H10.2711L17.9031 17.9992H15.3831L8.59111 2.54322H9.55111L2.75911 17.9992H0.287109ZM3.52711 13.7992L4.17511 11.8792H13.6311L14.3271 13.7992H3.52711Z" fill="white"/>
</svg>
