<svg width="55" height="35" viewBox="0 0 55 35" fill="none" xmlns="http://www.w3.org/2000/svg">
<path d="M42.5226 34.2884C40.1226 34.2884 37.8346 33.9044 35.6586 33.1364C33.4826 32.3364 31.7546 31.2804 30.4746 29.9684L32.1546 27.2324C33.2106 28.3524 34.6506 29.2804 36.4746 30.0164C38.3306 30.7524 40.3306 31.1204 42.4746 31.1204C45.3226 31.1204 47.4826 30.4964 48.9546 29.2484C50.4586 27.9684 51.2106 26.3044 51.2106 24.2564C51.2106 22.8164 50.8586 21.5844 50.1546 20.5604C49.4826 19.5044 48.3306 18.6884 46.6986 18.1124C45.0666 17.5364 42.8266 17.2484 39.9786 17.2484H32.8266L34.5546 0.400391H52.9386V3.47239H35.9466L37.7226 1.79239L36.2346 15.9044L34.4586 14.1764H40.7466C44.1386 14.1764 46.8586 14.5924 48.9066 15.4244C50.9546 16.2564 52.4266 17.4244 53.3226 18.9284C54.2506 20.4004 54.7146 22.1284 54.7146 24.1124C54.7146 26.0004 54.2666 27.7284 53.3706 29.2964C52.4746 30.8324 51.1306 32.0484 49.3386 32.9444C47.5466 33.8404 45.2746 34.2884 42.5226 34.2884Z" fill="#163C51"/>
<path d="M12.9222 34.2884C10.4902 34.2884 8.18617 33.9044 6.01017 33.1364C3.86617 32.3364 2.13817 31.2804 0.826172 29.9684L2.50617 27.2324C3.59417 28.3524 5.05017 29.2804 6.87417 30.0164C8.73017 30.7524 10.7462 31.1204 12.9222 31.1204C15.7062 31.1204 17.8342 30.5124 19.3062 29.2964C20.8102 28.0804 21.5622 26.4484 21.5622 24.4004C21.5622 22.3524 20.8262 20.7204 19.3542 19.5044C17.9142 18.2884 15.6262 17.6804 12.4902 17.6804H10.0902V15.1364L20.4582 2.12839L20.9382 3.47239H2.21817V0.400391H23.8182V2.84839L13.4502 15.8564L11.7702 14.7524H13.0662C17.0982 14.7524 20.1062 15.6484 22.0902 17.4404C24.1062 19.2324 25.1142 21.5364 25.1142 24.3524C25.1142 26.2404 24.6662 27.9364 23.7702 29.4404C22.8742 30.9444 21.5142 32.1284 19.6902 32.9924C17.8982 33.8564 15.6422 34.2884 12.9222 34.2884Z" fill="#163C51"/>
</svg>
