<svg width="77" height="24" viewBox="0 0 77 24" fill="none" xmlns="http://www.w3.org/2000/svg">
<path d="M69.3689 19.0013V7.69725L69.9449 8.29725H64.7129V6.28125H76.3289V8.29725H71.1209L71.6729 7.69725V19.0013H69.3689Z" fill="white"/>
<path d="M60.5148 19.0002V16.3122L60.3948 15.8082V11.2242C60.3948 10.2482 60.1068 9.49616 59.5308 8.96816C58.9708 8.42416 58.1228 8.15216 56.9868 8.15216C56.2348 8.15216 55.4988 8.28016 54.7788 8.53616C54.0588 8.77616 53.4508 9.10416 52.9548 9.52016L51.9948 7.79216C52.6508 7.26416 53.4348 6.86416 54.3468 6.59216C55.2748 6.30416 56.2428 6.16016 57.2508 6.16016C58.9948 6.16016 60.3388 6.58416 61.2828 7.43216C62.2268 8.28016 62.6988 9.57616 62.6988 11.3202V19.0002H60.5148ZM56.3388 19.1442C55.3948 19.1442 54.5628 18.9842 53.8428 18.6642C53.1388 18.3442 52.5948 17.9042 52.2108 17.3442C51.8268 16.7682 51.6348 16.1202 51.6348 15.4002C51.6348 14.7122 51.7948 14.0882 52.1148 13.5282C52.4508 12.9682 52.9868 12.5202 53.7228 12.1842C54.4748 11.8482 55.4828 11.6802 56.7468 11.6802H60.7788V13.3362H56.8428C55.6908 13.3362 54.9148 13.5282 54.5148 13.9122C54.1148 14.2962 53.9148 14.7602 53.9148 15.3042C53.9148 15.9282 54.1628 16.4322 54.6588 16.8162C55.1548 17.1842 55.8428 17.3682 56.7228 17.3682C57.5868 17.3682 58.3388 17.1762 58.9788 16.7922C59.6348 16.4082 60.1068 15.8482 60.3948 15.1122L60.8508 16.6962C60.5468 17.4482 60.0108 18.0482 59.2428 18.4962C58.4748 18.9282 57.5068 19.1442 56.3388 19.1442Z" fill="white"/>
<path d="M42.8213 19.1926C41.7653 19.1926 40.8293 19.0246 40.0133 18.6886C39.2133 18.3526 38.5253 17.8566 37.9493 17.2006C37.3733 16.5286 36.9333 15.6886 36.6293 14.6806C36.3413 13.6566 36.1973 12.4566 36.1973 11.0806C36.1973 9.99259 36.2933 9.01659 36.4853 8.15259C36.6773 7.28859 36.9493 6.52059 37.3013 5.84859C37.6693 5.17659 38.1173 4.59259 38.6453 4.09659C39.1893 3.60059 39.7973 3.19259 40.4693 2.87259C41.1573 2.53659 41.9093 2.28059 42.7253 2.10459L48.5333 0.808594L48.8693 2.94459L43.5173 4.09659C43.1973 4.16059 42.8133 4.25659 42.3653 4.38459C41.9173 4.51259 41.4613 4.71259 40.9973 4.98459C40.5333 5.24059 40.1013 5.60059 39.7013 6.06459C39.3013 6.52859 38.9813 7.13659 38.7413 7.88859C38.5013 8.62459 38.3813 9.53659 38.3813 10.6246C38.3813 10.9286 38.3893 11.1606 38.4053 11.3206C38.4213 11.4806 38.4373 11.6406 38.4533 11.8006C38.4853 11.9606 38.5093 12.2006 38.5253 12.5206L37.5653 11.5366C37.8213 10.6566 38.2293 9.88859 38.7893 9.23259C39.3493 8.57659 40.0213 8.07259 40.8053 7.72059C41.6053 7.35259 42.4773 7.16859 43.4213 7.16859C44.6053 7.16859 45.6533 7.42459 46.5653 7.93659C47.4933 8.44859 48.2213 9.15259 48.7493 10.0486C49.2773 10.9446 49.5413 11.9686 49.5413 13.1206C49.5413 14.2886 49.2613 15.3366 48.7013 16.2646C48.1573 17.1766 47.3813 17.8966 46.3733 18.4246C45.3653 18.9366 44.1813 19.1926 42.8213 19.1926ZM43.0373 17.2726C43.8533 17.2726 44.5733 17.0966 45.1973 16.7446C45.8213 16.3766 46.3093 15.8886 46.6613 15.2806C47.0133 14.6566 47.1893 13.9606 47.1893 13.1926C47.1893 12.4246 47.0133 11.7446 46.6613 11.1526C46.3093 10.5606 45.8213 10.0966 45.1973 9.76059C44.5733 9.40859 43.8373 9.23259 42.9893 9.23259C42.1893 9.23259 41.4693 9.40059 40.8293 9.73659C40.1893 10.0566 39.6933 10.5126 39.3413 11.1046C38.9893 11.6806 38.8133 12.3526 38.8133 13.1206C38.8133 13.8886 38.9893 14.5926 39.3413 15.2326C39.7093 15.8566 40.2053 16.3526 40.8293 16.7206C41.4693 17.0886 42.2053 17.2726 43.0373 17.2726Z" fill="white"/>
<path d="M27.162 19.1442C26.106 19.1442 25.138 18.9042 24.258 18.4242C23.394 17.9282 22.698 17.2002 22.17 16.2402C21.658 15.2802 21.402 14.0802 21.402 12.6402C21.402 11.2002 21.65 10.0002 22.146 9.04016C22.658 8.08016 23.346 7.36016 24.21 6.88016C25.09 6.40016 26.074 6.16016 27.162 6.16016C28.41 6.16016 29.514 6.43215 30.474 6.97615C31.434 7.52015 32.194 8.28016 32.754 9.25616C33.314 10.2162 33.594 11.3442 33.594 12.6402C33.594 13.9362 33.314 15.0722 32.754 16.0482C32.194 17.0242 31.434 17.7842 30.474 18.3282C29.514 18.8722 28.41 19.1442 27.162 19.1442ZM20.418 23.6562V6.28016H22.626V9.71216L22.482 12.6642L22.722 15.6162V23.6562H20.418ZM26.97 17.1282C27.786 17.1282 28.514 16.9442 29.154 16.5762C29.81 16.2082 30.322 15.6882 30.69 15.0162C31.074 14.3282 31.266 13.5362 31.266 12.6402C31.266 11.7282 31.074 10.9442 30.69 10.2882C30.322 9.61616 29.81 9.09616 29.154 8.72816C28.514 8.36016 27.786 8.17616 26.97 8.17616C26.17 8.17616 25.442 8.36016 24.786 8.72816C24.146 9.09616 23.634 9.61616 23.25 10.2882C22.882 10.9442 22.698 11.7282 22.698 12.6402C22.698 13.5362 22.882 14.3282 23.25 15.0162C23.634 15.6882 24.146 16.2082 24.786 16.5762C25.442 16.9442 26.17 17.1282 26.97 17.1282Z" fill="white"/>
<path d="M0.287109 19.0012L7.89511 2.20117H10.2711L17.9031 19.0012H15.3831L8.59111 3.54517H9.55111L2.75911 19.0012H0.287109ZM3.52711 14.8012L4.17511 12.8812H13.6311L14.3271 14.8012H3.52711Z" fill="white"/>
</svg>
