<svg width="124" height="22" viewBox="0 0 124 22" fill="none" xmlns="http://www.w3.org/2000/svg">
<path d="M116.314 16.9993V5.6953L116.89 6.2953H111.658V4.2793H123.274V6.2953H118.066L118.618 5.6953V16.9993H116.314Z" fill="white"/>
<path d="M104.482 17.1442C103.426 17.1442 102.458 16.9042 101.578 16.4242C100.714 15.9282 100.018 15.2002 99.4903 14.2402C98.9783 13.2802 98.7223 12.0802 98.7223 10.6402C98.7223 9.20016 98.9703 8.00016 99.4663 7.04016C99.9783 6.08016 100.666 5.36016 101.53 4.88016C102.41 4.40016 103.394 4.16016 104.482 4.16016C105.73 4.16016 106.834 4.43215 107.794 4.97615C108.754 5.52015 109.514 6.28016 110.074 7.25616C110.634 8.21616 110.914 9.34416 110.914 10.6402C110.914 11.9362 110.634 13.0722 110.074 14.0482C109.514 15.0242 108.754 15.7842 107.794 16.3282C106.834 16.8722 105.73 17.1442 104.482 17.1442ZM97.7383 21.6562V4.28016H99.9463V7.71216L99.8023 10.6642L100.042 13.6162V21.6562H97.7383ZM104.29 15.1282C105.106 15.1282 105.834 14.9442 106.474 14.5762C107.13 14.2082 107.642 13.6882 108.01 13.0162C108.394 12.3282 108.586 11.5362 108.586 10.6402C108.586 9.72816 108.394 8.94416 108.01 8.28816C107.642 7.61616 107.13 7.09616 106.474 6.72816C105.834 6.36016 105.106 6.17616 104.29 6.17616C103.49 6.17616 102.762 6.36016 102.106 6.72816C101.466 7.09616 100.954 7.61616 100.57 8.28816C100.202 8.94416 100.018 9.72816 100.018 10.6402C100.018 11.5362 100.202 12.3282 100.57 13.0162C100.954 13.6882 101.466 14.2082 102.106 14.5762C102.762 14.9442 103.49 15.1282 104.29 15.1282Z" fill="white"/>
<path d="M87.8115 17.1442C86.5315 17.1442 85.3955 16.8642 84.4035 16.3042C83.4115 15.7442 82.6275 14.9762 82.0515 14.0002C81.4755 13.0082 81.1875 11.8882 81.1875 10.6402C81.1875 9.37616 81.4755 8.25616 82.0515 7.28016C82.6275 6.30416 83.4115 5.54416 84.4035 5.00016C85.3955 4.44016 86.5315 4.16016 87.8115 4.16016C89.0755 4.16016 90.2035 4.44016 91.1955 5.00016C92.2035 5.54416 92.9875 6.30416 93.5475 7.28016C94.1235 8.24016 94.4115 9.36016 94.4115 10.6402C94.4115 11.9042 94.1235 13.0242 93.5475 14.0002C92.9875 14.9762 92.2035 15.7442 91.1955 16.3042C90.2035 16.8642 89.0755 17.1442 87.8115 17.1442ZM87.8115 15.1282C88.6275 15.1282 89.3555 14.9442 89.9955 14.5762C90.6515 14.2082 91.1635 13.6882 91.5315 13.0162C91.8995 12.3282 92.0835 11.5362 92.0835 10.6402C92.0835 9.72816 91.8995 8.94416 91.5315 8.28816C91.1635 7.61616 90.6515 7.09616 89.9955 6.72816C89.3555 6.36016 88.6275 6.17616 87.8115 6.17616C86.9955 6.17616 86.2675 6.36016 85.6275 6.72816C84.9875 7.09616 84.4755 7.61616 84.0915 8.28816C83.7075 8.94416 83.5155 9.72816 83.5155 10.6402C83.5155 11.5362 83.7075 12.3282 84.0915 13.0162C84.4755 13.6882 84.9875 14.2082 85.6275 14.5762C86.2675 14.9442 86.9955 15.1282 87.8115 15.1282Z" fill="white"/>
<path d="M66.1211 16.9993V4.2793H77.9051V16.9993H75.6011V5.7193L76.1531 6.2953H67.8731L68.4251 5.7193V16.9993H66.1211Z" fill="white"/>
<path d="M56.1943 17.1442C54.9143 17.1442 53.7783 16.8642 52.7863 16.3042C51.7943 15.7442 51.0103 14.9762 50.4343 14.0002C49.8583 13.0082 49.5703 11.8882 49.5703 10.6402C49.5703 9.37616 49.8583 8.25616 50.4343 7.28016C51.0103 6.30416 51.7943 5.54416 52.7863 5.00016C53.7783 4.44016 54.9143 4.16016 56.1943 4.16016C57.4583 4.16016 58.5863 4.44016 59.5783 5.00016C60.5863 5.54416 61.3703 6.30416 61.9303 7.28016C62.5063 8.24016 62.7943 9.36016 62.7943 10.6402C62.7943 11.9042 62.5063 13.0242 61.9303 14.0002C61.3703 14.9762 60.5863 15.7442 59.5783 16.3042C58.5863 16.8642 57.4583 17.1442 56.1943 17.1442ZM56.1943 15.1282C57.0103 15.1282 57.7383 14.9442 58.3783 14.5762C59.0343 14.2082 59.5463 13.6882 59.9143 13.0162C60.2823 12.3282 60.4663 11.5362 60.4663 10.6402C60.4663 9.72816 60.2823 8.94416 59.9143 8.28816C59.5463 7.61616 59.0343 7.09616 58.3783 6.72816C57.7383 6.36016 57.0103 6.17616 56.1943 6.17616C55.3783 6.17616 54.6503 6.36016 54.0103 6.72816C53.3703 7.09616 52.8583 7.61616 52.4743 8.28816C52.0903 8.94416 51.8983 9.72816 51.8983 10.6402C51.8983 11.5362 52.0903 12.3282 52.4743 13.0162C52.8583 13.6882 53.3703 14.2082 54.0103 14.5762C54.6503 14.9442 55.3783 15.1282 56.1943 15.1282Z" fill="white"/>
<path d="M40.9667 17.1442C39.9107 17.1442 38.9427 16.9042 38.0627 16.4242C37.1987 15.9282 36.5027 15.2002 35.9747 14.2402C35.4627 13.2802 35.2067 12.0802 35.2067 10.6402C35.2067 9.20016 35.4547 8.00016 35.9507 7.04016C36.4627 6.08016 37.1507 5.36016 38.0147 4.88016C38.8947 4.40016 39.8787 4.16016 40.9667 4.16016C42.2147 4.16016 43.3187 4.43215 44.2787 4.97615C45.2387 5.52015 45.9987 6.28016 46.5587 7.25616C47.1187 8.21616 47.3987 9.34416 47.3987 10.6402C47.3987 11.9362 47.1187 13.0722 46.5587 14.0482C45.9987 15.0242 45.2387 15.7842 44.2787 16.3282C43.3187 16.8722 42.2147 17.1442 40.9667 17.1442ZM34.2227 21.6562V4.28016H36.4307V7.71216L36.2867 10.6642L36.5267 13.6162V21.6562H34.2227ZM40.7747 15.1282C41.5907 15.1282 42.3187 14.9442 42.9587 14.5762C43.6147 14.2082 44.1267 13.6882 44.4947 13.0162C44.8787 12.3282 45.0707 11.5362 45.0707 10.6402C45.0707 9.72816 44.8787 8.94416 44.4947 8.28816C44.1267 7.61616 43.6147 7.09616 42.9587 6.72816C42.3187 6.36016 41.5907 6.17616 40.7747 6.17616C39.9747 6.17616 39.2467 6.36016 38.5907 6.72816C37.9507 7.09616 37.4387 7.61616 37.0547 8.28816C36.6867 8.94416 36.5027 9.72816 36.5027 10.6402C36.5027 11.5362 36.6867 12.3282 37.0547 13.0162C37.4387 13.6882 37.9507 14.2082 38.5907 14.5762C39.2467 14.9442 39.9747 15.1282 40.7747 15.1282Z" fill="white"/>
<path d="M22.3857 11.4068V9.70276H29.5137V11.4068H22.3857ZM24.0897 4.13477C25.4017 4.13477 26.5777 4.41476 27.6177 4.97476C28.6577 5.53476 29.4737 6.30276 30.0657 7.27876C30.6577 8.25477 30.9537 9.37477 30.9537 10.6388C30.9537 11.8868 30.6577 13.0068 30.0657 13.9988C29.4737 14.9908 28.6577 15.7668 27.6177 16.3268C26.5777 16.8868 25.4017 17.1668 24.0897 17.1668C23.0017 17.1668 21.9937 16.9908 21.0657 16.6388C20.1537 16.2868 19.3857 15.7748 18.7617 15.1028L20.1057 13.7588C20.6337 14.2708 21.2177 14.6548 21.8577 14.9108C22.5137 15.1508 23.2257 15.2708 23.9937 15.2708C24.9217 15.2708 25.7457 15.0788 26.4657 14.6948C27.1857 14.2948 27.7537 13.7428 28.1697 13.0388C28.6017 12.3348 28.8177 11.5348 28.8177 10.6388C28.8177 9.74277 28.6017 8.95077 28.1697 8.26277C27.7537 7.55877 27.1857 7.00677 26.4657 6.60677C25.7457 6.20677 24.9217 6.00677 23.9937 6.00677C23.2257 6.00677 22.5137 6.13476 21.8577 6.39076C21.2177 6.64676 20.6337 7.03076 20.1057 7.54276L18.7617 6.22276C19.3857 5.53477 20.1537 5.01477 21.0657 4.66277C21.9937 4.31077 23.0017 4.13477 24.0897 4.13477Z" fill="white"/>
<path d="M0.287109 16.9992L7.89511 0.199219H10.2711L17.9031 16.9992H15.3831L8.59111 1.54322H9.55111L2.75911 16.9992H0.287109ZM3.52711 12.7992L4.17511 10.8792H13.6311L14.3271 12.7992H3.52711Z" fill="white"/>
</svg>
