<svg width="189" height="24" viewBox="0 0 189 24" fill="none" xmlns="http://www.w3.org/2000/svg">
<path d="M175.824 19.0005V6.2805H178.128V15.5445L185.928 6.2805H188.016V19.0005H185.712V9.7365L177.936 19.0005H175.824ZM181.776 4.6245C180.608 4.6245 179.688 4.3445 179.016 3.7845C178.36 3.2085 178.024 2.3845 178.008 1.3125H179.568C179.584 1.9205 179.784 2.4005 180.168 2.7525C180.568 3.1045 181.096 3.2805 181.752 3.2805C182.408 3.2805 182.936 3.1045 183.336 2.7525C183.736 2.4005 183.944 1.9205 183.96 1.3125H185.568C185.552 2.3845 185.208 3.2085 184.536 3.7845C183.864 4.3445 182.944 4.6245 181.776 4.6245Z" fill="white"/>
<path d="M159.16 19.0013V6.28125H161.464V15.5453L169.264 6.28125H171.352V19.0013H169.048V9.73725L161.272 19.0013H159.16Z" fill="white"/>
<path d="M154.032 19.0013L149.112 12.8092L151.008 11.6573L156.744 19.0013H154.032ZM144.816 19.0013V6.28125H147.12V19.0013H144.816ZM146.424 13.6253V11.6573H150.624V13.6253H146.424ZM151.2 12.9053L149.064 12.6173L153.936 6.28125H156.408L151.2 12.9053Z" fill="white"/>
<path d="M136.65 19.1442C135.354 19.1442 134.194 18.8642 133.17 18.3042C132.162 17.7442 131.37 16.9762 130.794 16.0002C130.218 15.0242 129.93 13.9042 129.93 12.6402C129.93 11.3762 130.218 10.2562 130.794 9.28016C131.37 8.30416 132.162 7.54416 133.17 7.00016C134.194 6.44016 135.354 6.16016 136.65 6.16016C137.802 6.16016 138.826 6.39216 139.722 6.85616C140.634 7.30416 141.338 7.97616 141.834 8.87216L140.082 10.0002C139.666 9.37616 139.154 8.92016 138.546 8.63216C137.954 8.32816 137.314 8.17616 136.626 8.17616C135.794 8.17616 135.05 8.36016 134.394 8.72816C133.738 9.09616 133.218 9.61616 132.834 10.2882C132.45 10.9442 132.258 11.7282 132.258 12.6402C132.258 13.5522 132.45 14.3442 132.834 15.0162C133.218 15.6882 133.738 16.2082 134.394 16.5762C135.05 16.9442 135.794 17.1282 136.626 17.1282C137.314 17.1282 137.954 16.9842 138.546 16.6962C139.154 16.3922 139.666 15.9282 140.082 15.3042L141.834 16.4082C141.338 17.2882 140.634 17.9682 139.722 18.4482C138.826 18.9122 137.802 19.1442 136.65 19.1442Z" fill="white"/>
<path d="M114.77 19.0013V6.28125H117.074V11.6813H124.322V6.28125H126.626V19.0013H124.322V13.6733H117.074V19.0013H114.77Z" fill="white"/>
<path d="M98.1055 19.0013V6.28125H100.409V15.5453L108.209 6.28125H110.297V19.0013H107.993V9.73725L100.217 19.0013H98.1055Z" fill="white"/>
<path d="M92.9777 19.0013L88.0577 12.8092L89.9537 11.6573L95.6897 19.0013H92.9777ZM83.7617 19.0013V6.28125H86.0657V19.0013H83.7617ZM85.3697 13.6253V11.6573H89.5697V13.6253H85.3697ZM90.1457 12.9053L88.0097 12.6173L92.8817 6.28125H95.3537L90.1457 12.9053Z" fill="white"/>
<path d="M69.616 16.9853L69.088 17.5853V6.28125H71.392V17.5853L70.816 16.9853H77.536L76.984 17.5853V6.28125H79.288V19.0013H61.168V6.28125H63.472V17.5853L62.92 16.9853H69.616Z" fill="white"/>
<path d="M48.1058 23.8013C47.4978 23.8013 46.9058 23.6973 46.3298 23.4893C45.7538 23.2973 45.2578 23.0093 44.8418 22.6253L45.8258 20.8973C46.1458 21.2013 46.4978 21.4333 46.8818 21.5933C47.2658 21.7533 47.6738 21.8333 48.1058 21.8333C48.6658 21.8333 49.1298 21.6893 49.4978 21.4013C49.8658 21.1133 50.2098 20.6013 50.5298 19.8653L51.3218 18.1133L51.5618 17.8253L56.5538 6.28125H58.8098L52.6418 20.2733C52.2738 21.1693 51.8578 21.8733 51.3938 22.3853C50.9458 22.8973 50.4498 23.2573 49.9058 23.4653C49.3618 23.6893 48.7618 23.8013 48.1058 23.8013ZM51.1298 19.4093L45.3218 6.28125H47.7218L52.6658 17.6093L51.1298 19.4093Z" fill="white"/>
<path d="M37.7978 19.1926C36.7418 19.1926 35.8058 19.0246 34.9898 18.6886C34.1898 18.3526 33.5018 17.8566 32.9258 17.2006C32.3498 16.5286 31.9098 15.6886 31.6058 14.6806C31.3178 13.6566 31.1738 12.4566 31.1738 11.0806C31.1738 9.99259 31.2698 9.01659 31.4618 8.15259C31.6538 7.28859 31.9258 6.52059 32.2778 5.84859C32.6458 5.17659 33.0938 4.59259 33.6218 4.09659C34.1658 3.60059 34.7738 3.19259 35.4458 2.87259C36.1338 2.53659 36.8858 2.28059 37.7018 2.10459L43.5098 0.808594L43.8458 2.94459L38.4938 4.09659C38.1738 4.16059 37.7898 4.25659 37.3418 4.38459C36.8938 4.51259 36.4378 4.71259 35.9738 4.98459C35.5098 5.24059 35.0778 5.60059 34.6778 6.06459C34.2778 6.52859 33.9578 7.13659 33.7178 7.88859C33.4778 8.62459 33.3578 9.53659 33.3578 10.6246C33.3578 10.9286 33.3658 11.1606 33.3818 11.3206C33.3978 11.4806 33.4138 11.6406 33.4298 11.8006C33.4618 11.9606 33.4858 12.2006 33.5018 12.5206L32.5418 11.5366C32.7978 10.6566 33.2058 9.88859 33.7658 9.23259C34.3258 8.57659 34.9978 8.07259 35.7818 7.72059C36.5818 7.35259 37.4538 7.16859 38.3978 7.16859C39.5818 7.16859 40.6298 7.42459 41.5418 7.93659C42.4698 8.44859 43.1978 9.15259 43.7258 10.0486C44.2538 10.9446 44.5178 11.9686 44.5178 13.1206C44.5178 14.2886 44.2378 15.3366 43.6778 16.2646C43.1338 17.1766 42.3578 17.8966 41.3498 18.4246C40.3418 18.9366 39.1578 19.1926 37.7978 19.1926ZM38.0138 17.2726C38.8298 17.2726 39.5498 17.0966 40.1738 16.7446C40.7978 16.3766 41.2858 15.8886 41.6378 15.2806C41.9898 14.6566 42.1658 13.9606 42.1658 13.1926C42.1658 12.4246 41.9898 11.7446 41.6378 11.1526C41.2858 10.5606 40.7978 10.0966 40.1738 9.76059C39.5498 9.40859 38.8138 9.23259 37.9658 9.23259C37.1658 9.23259 36.4458 9.40059 35.8058 9.73659C35.1658 10.0566 34.6698 10.5126 34.3178 11.1046C33.9658 11.6806 33.7898 12.3526 33.7898 13.1206C33.7898 13.8886 33.9658 14.5926 34.3178 15.2326C34.6858 15.8566 35.1818 16.3526 35.8058 16.7206C36.4458 17.0886 37.1818 17.2726 38.0138 17.2726Z" fill="white"/>
<path d="M25.5851 19.0002V16.3122L25.4651 15.8082V11.2242C25.4651 10.2482 25.1771 9.49616 24.6011 8.96816C24.0411 8.42416 23.1931 8.15216 22.0571 8.15216C21.3051 8.15216 20.5691 8.28016 19.8491 8.53616C19.1291 8.77616 18.5211 9.10416 18.0251 9.52016L17.0651 7.79216C17.7211 7.26416 18.5051 6.86416 19.4171 6.59216C20.3451 6.30416 21.3131 6.16016 22.3211 6.16016C24.0651 6.16016 25.4091 6.58416 26.3531 7.43216C27.2971 8.28016 27.7691 9.57616 27.7691 11.3202V19.0002H25.5851ZM21.4091 19.1442C20.4651 19.1442 19.6331 18.9842 18.9131 18.6642C18.2091 18.3442 17.6651 17.9042 17.2811 17.3442C16.8971 16.7682 16.7051 16.1202 16.7051 15.4002C16.7051 14.7122 16.8651 14.0882 17.1851 13.5282C17.5211 12.9682 18.0571 12.5202 18.7931 12.1842C19.5451 11.8482 20.5531 11.6802 21.8171 11.6802H25.8491V13.3362H21.9131C20.7611 13.3362 19.9851 13.5282 19.5851 13.9122C19.1851 14.2962 18.9851 14.7602 18.9851 15.3042C18.9851 15.9282 19.2331 16.4322 19.7291 16.8162C20.2251 17.1842 20.9131 17.3682 21.7931 17.3682C22.6571 17.3682 23.4091 17.1762 24.0491 16.7922C24.7051 16.4082 25.1771 15.8482 25.4651 15.1122L25.9211 16.6962C25.6171 17.4482 25.0811 18.0482 24.3131 18.4962C23.5451 18.9282 22.5771 19.1442 21.4091 19.1442Z" fill="white"/>
<path d="M0.615234 19.0012V2.20117H13.2872V4.24117H2.99123V9.04117H8.22324C10.2232 9.04117 11.7432 9.45717 12.7832 10.2892C13.8232 11.1212 14.3432 12.3292 14.3432 13.9132C14.3432 15.5452 13.7752 16.8012 12.6392 17.6812C11.5192 18.5612 9.91123 19.0012 7.81523 19.0012H0.615234ZM2.99123 17.1052H7.71924C9.11123 17.1052 10.1592 16.8412 10.8632 16.3132C11.5832 15.7852 11.9432 15.0012 11.9432 13.9612C11.9432 11.9452 10.5352 10.9372 7.71924 10.9372H2.99123V17.1052Z" fill="white"/>
</svg>
