<svg width="101" height="21" viewBox="0 0 101 21" fill="none" xmlns="http://www.w3.org/2000/svg">
<path d="M95.8539 9.40955C97.5019 9.40955 98.7579 9.77755 99.6219 10.5135C100.486 11.2495 100.918 12.2895 100.918 13.6335C100.918 15.0255 100.438 16.1135 99.4779 16.8975C98.5179 17.6655 97.1659 18.0415 95.4219 18.0255L89.4219 18.0015V5.18555H92.4219V9.38555L95.8539 9.40955ZM95.1579 15.8175C96.0379 15.8335 96.7099 15.6495 97.1739 15.2655C97.6379 14.8815 97.8699 14.3215 97.8699 13.5855C97.8699 12.8495 97.6379 12.3215 97.1739 12.0015C96.7259 11.6655 96.0539 11.4895 95.1579 11.4735L92.4219 11.4495V15.7935L95.1579 15.8175Z" fill="white"/>
<path d="M79.7581 18.0015V7.00955L80.4541 7.72955H75.2461V5.18555H87.2461V7.72955H82.0621L82.7581 7.00955V18.0015H79.7581Z" fill="white"/>
<path d="M70.5502 18.001V15.409L70.3822 14.857V10.321C70.3822 9.44102 70.1182 8.76102 69.5902 8.28102C69.0622 7.78502 68.2622 7.53702 67.1902 7.53702C66.4702 7.53702 65.7582 7.64902 65.0542 7.87302C64.3662 8.09702 63.7822 8.40902 63.3022 8.80902L62.1262 6.62502C62.8142 6.09702 63.6302 5.70502 64.5742 5.44902C65.5342 5.17702 66.5262 5.04102 67.5502 5.04102C69.4062 5.04102 70.8382 5.48902 71.8462 6.38502C72.8702 7.26502 73.3822 8.63302 73.3822 10.489V18.001H70.5502ZM66.5182 18.169C65.5582 18.169 64.7182 18.009 63.9982 17.689C63.2782 17.353 62.7182 16.897 62.3182 16.321C61.9342 15.729 61.7422 15.065 61.7422 14.329C61.7422 13.609 61.9102 12.961 62.2462 12.385C62.5982 11.809 63.1662 11.353 63.9502 11.017C64.7342 10.681 65.7742 10.513 67.0702 10.513H70.7902V12.505H67.2862C66.2622 12.505 65.5742 12.673 65.2222 13.009C64.8702 13.329 64.6942 13.729 64.6942 14.209C64.6942 14.753 64.9102 15.185 65.3422 15.505C65.7742 15.825 66.3742 15.985 67.1422 15.985C67.8782 15.985 68.5342 15.817 69.1102 15.481C69.7022 15.145 70.1262 14.649 70.3822 13.993L70.8862 15.793C70.5982 16.545 70.0782 17.129 69.3262 17.545C68.5902 17.961 67.6542 18.169 66.5182 18.169Z" fill="white"/>
<path d="M55.1973 16.6095V7.72955H50.2773L50.2053 9.79355C50.1733 10.5295 50.1253 11.2415 50.0613 11.9295C49.9973 12.6015 49.8933 13.2255 49.7493 13.8015C49.6053 14.3615 49.3973 14.8255 49.1253 15.1935C48.8533 15.5615 48.4933 15.8015 48.0453 15.9135L45.0693 15.4575C45.5493 15.4575 45.9333 15.3055 46.2213 15.0015C46.5253 14.6815 46.7573 14.2495 46.9173 13.7055C47.0933 13.1455 47.2213 12.5135 47.3013 11.8095C47.3813 11.0895 47.4373 10.3455 47.4693 9.57755L47.6373 5.18555H58.1973V16.6095H55.1973ZM44.6133 20.8575V15.4575H60.0933V20.8575H57.2853V18.0015H47.3973V20.8575H44.6133Z" fill="white"/>
<path d="M37.2044 18.2167C36.2284 18.2167 35.2604 18.1047 34.3004 17.8807C33.3564 17.6407 32.5004 17.3047 31.7324 16.8727L32.5724 14.6407C33.1964 14.9927 33.9004 15.2647 34.6844 15.4567C35.4684 15.6487 36.2524 15.7447 37.0364 15.7447C37.7084 15.7447 38.2844 15.6807 38.7644 15.5527C39.2444 15.4087 39.6124 15.2007 39.8684 14.9287C40.1404 14.6567 40.2764 14.3447 40.2764 13.9927C40.2764 13.4807 40.0524 13.0967 39.6044 12.8407C39.1724 12.5687 38.5484 12.4327 37.7324 12.4327H35.2604V10.4167H37.4924C38.0044 10.4167 38.4364 10.3607 38.7884 10.2487C39.1564 10.1367 39.4364 9.96871 39.6284 9.74471C39.8204 9.52071 39.9164 9.25671 39.9164 8.95271C39.9164 8.64871 39.7964 8.38471 39.5564 8.16071C39.3324 7.92071 39.0044 7.74471 38.5724 7.63271C38.1404 7.50471 37.6204 7.44071 37.0124 7.44071C36.3724 7.44071 35.7084 7.52071 35.0204 7.68071C34.3484 7.84071 33.6604 8.07271 32.9564 8.37671L32.1884 6.16871C33.0044 5.80071 33.7964 5.52071 34.5644 5.32871C35.3484 5.12071 36.1244 5.00871 36.8924 4.99271C38.0604 4.94471 39.1004 5.06471 40.0124 5.35271C40.9244 5.64071 41.6444 6.05671 42.1724 6.60071C42.7004 7.14471 42.9644 7.78471 42.9644 8.52071C42.9644 9.12871 42.7724 9.68071 42.3884 10.1767C42.0204 10.6567 41.5084 11.0327 40.8524 11.3047C40.2124 11.5767 39.4764 11.7127 38.6444 11.7127L38.7404 11.0647C40.1644 11.0647 41.2844 11.3527 42.1004 11.9287C42.9164 12.4887 43.3244 13.2567 43.3244 14.2327C43.3244 15.0167 43.0604 15.7127 42.5324 16.3207C42.0044 16.9127 41.2764 17.3767 40.3484 17.7127C39.4364 18.0487 38.3884 18.2167 37.2044 18.2167Z" fill="white"/>
<path d="M23.5328 18.169C22.2208 18.169 21.0528 17.889 20.0288 17.329C19.0048 16.753 18.1968 15.969 17.6048 14.977C17.0128 13.985 16.7168 12.857 16.7168 11.593C16.7168 10.313 17.0128 9.18502 17.6048 8.20902C18.1968 7.21702 19.0048 6.44102 20.0288 5.88102C21.0528 5.32102 22.2208 5.04102 23.5328 5.04102C24.8608 5.04102 26.0368 5.32102 27.0608 5.88102C28.1008 6.44102 28.9088 7.20902 29.4848 8.18502C30.0768 9.16102 30.3728 10.297 30.3728 11.593C30.3728 12.857 30.0768 13.985 29.4848 14.977C28.9088 15.969 28.1008 16.753 27.0608 17.329C26.0368 17.889 24.8608 18.169 23.5328 18.169ZM23.5328 15.601C24.2688 15.601 24.9248 15.441 25.5008 15.121C26.0768 14.801 26.5248 14.337 26.8448 13.729C27.1808 13.121 27.3488 12.409 27.3488 11.593C27.3488 10.761 27.1808 10.049 26.8448 9.45702C26.5248 8.84902 26.0768 8.38502 25.5008 8.06502C24.9248 7.74502 24.2768 7.58502 23.5568 7.58502C22.8208 7.58502 22.1648 7.74502 21.5888 8.06502C21.0288 8.38502 20.5808 8.84902 20.2448 9.45702C19.9088 10.049 19.7408 10.761 19.7408 11.593C19.7408 12.409 19.9088 13.121 20.2448 13.729C20.5808 14.337 21.0288 14.801 21.5888 15.121C22.1648 15.441 22.8128 15.601 23.5328 15.601Z" fill="white"/>
<path d="M9.07952 18.2409C7.79952 18.2409 6.60752 18.0329 5.50352 17.6169C4.41552 17.1849 3.46352 16.5849 2.64752 15.8169C1.84752 15.0329 1.22352 14.1129 0.775516 13.0569C0.327516 12.0009 0.103516 10.8489 0.103516 9.60094C0.103516 8.35294 0.327516 7.20094 0.775516 6.14494C1.22352 5.08894 1.85552 4.17694 2.67152 3.40894C3.48752 2.62494 4.43952 2.02494 5.52752 1.60894C6.61552 1.17694 7.80752 0.960938 9.10352 0.960938C10.4795 0.960938 11.7355 1.20094 12.8715 1.68094C14.0075 2.14494 14.9675 2.84094 15.7515 3.76894L13.7355 5.66494C13.1275 5.00894 12.4475 4.52094 11.6955 4.20094C10.9435 3.86494 10.1275 3.69694 9.24752 3.69694C8.36752 3.69694 7.55952 3.84094 6.82352 4.12894C6.10352 4.41694 5.47152 4.82494 4.92752 5.35294C4.39952 5.88094 3.98352 6.50494 3.67952 7.22494C3.39152 7.94494 3.24752 8.73694 3.24752 9.60094C3.24752 10.4649 3.39152 11.2569 3.67952 11.9769C3.98352 12.6969 4.39952 13.3209 4.92752 13.8489C5.47152 14.3769 6.10352 14.7849 6.82352 15.0729C7.55952 15.3609 8.36752 15.5049 9.24752 15.5049C10.1275 15.5049 10.9435 15.3449 11.6955 15.0249C12.4475 14.6889 13.1275 14.1849 13.7355 13.5129L15.7515 15.4329C14.9675 16.3449 14.0075 17.0409 12.8715 17.5209C11.7355 18.0009 10.4715 18.2409 9.07952 18.2409Z" fill="white"/>
</svg>
