<svg width="188" height="22" viewBox="0 0 188 22" fill="none" xmlns="http://www.w3.org/2000/svg">
<path d="M170.318 4.85938H174.968V14.4594L182.828 4.85938H187.118V20.9994H182.468V11.3994L174.638 20.9994H170.318V4.85938Z" fill="#163C51"/>
<path d="M158.18 14.8794H155.75V20.9994H151.07V4.85938H155.75V11.1294H158.27L162.65 4.85938H167.63L161.99 12.5994L168.02 20.9994H162.5L158.18 14.8794Z" fill="#163C51"/>
<path d="M144.738 12.5694C146.638 13.2094 147.588 14.4894 147.588 16.4094C147.588 17.8694 147.038 18.9994 145.938 19.7994C144.838 20.5994 143.198 20.9994 141.018 20.9994H132.408V4.85938H140.658C142.678 4.85938 144.258 5.22937 145.398 5.96937C146.538 6.68937 147.108 7.70938 147.108 9.02938C147.108 9.82938 146.898 10.5394 146.478 11.1594C146.078 11.7594 145.498 12.2294 144.738 12.5694ZM136.698 11.4894H140.238C141.878 11.4894 142.698 10.9094 142.698 9.74938C142.698 8.60938 141.878 8.03938 140.238 8.03938H136.698V11.4894ZM140.628 17.8194C142.348 17.8194 143.208 17.2294 143.208 16.0494C143.208 15.4294 143.008 14.9794 142.608 14.6994C142.208 14.3994 141.578 14.2494 140.718 14.2494H136.698V17.8194H140.628Z" fill="#163C51"/>
<path d="M127.91 4.85938V20.9994H123.74V16.3794H120.29L117.23 20.9994H112.25L115.94 15.7194C114.82 15.2794 113.96 14.6494 113.36 13.8294C112.78 12.9894 112.49 11.9794 112.49 10.7994C112.49 8.89938 113.17 7.43938 114.53 6.41938C115.91 5.37938 117.8 4.85938 120.2 4.85938H127.91ZM120.29 8.66938C119.29 8.66938 118.53 8.84938 118.01 9.20938C117.51 9.56938 117.26 10.1494 117.26 10.9494C117.26 11.7494 117.5 12.3394 117.98 12.7194C118.48 13.0794 119.23 13.2594 120.23 13.2594H123.74V8.66938H120.29Z" fill="#163C51"/>
<path d="M101.734 4.61914C104.234 4.61914 106.154 5.21914 107.494 6.41914C108.834 7.59914 109.504 9.38914 109.504 11.7891V20.9991H105.124V18.9891C104.244 20.4891 102.604 21.2391 100.204 21.2391C98.9638 21.2391 97.8838 21.0291 96.9638 20.6091C96.0638 20.1891 95.3738 19.6091 94.8938 18.8691C94.4138 18.1291 94.1738 17.2891 94.1738 16.3491C94.1738 14.8491 94.7338 13.6691 95.8538 12.8091C96.9938 11.9491 98.7438 11.5191 101.104 11.5191H104.824C104.824 10.4991 104.514 9.71914 103.894 9.17914C103.274 8.61914 102.344 8.33914 101.104 8.33914C100.244 8.33914 99.3938 8.47914 98.5538 8.75914C97.7338 9.01914 97.0338 9.37914 96.4538 9.83914L94.7738 6.56914C95.6538 5.94914 96.7038 5.46914 97.9238 5.12914C99.1638 4.78914 100.434 4.61914 101.734 4.61914ZM101.374 18.0891C102.174 18.0891 102.884 17.9091 103.504 17.5491C104.124 17.1691 104.564 16.6191 104.824 15.8991V14.2491H101.614C99.6938 14.2491 98.7338 14.8791 98.7338 16.1391C98.7338 16.7391 98.9638 17.2191 99.4238 17.5791C99.9038 17.9191 100.554 18.0891 101.374 18.0891Z" fill="#163C51"/>
<path d="M89.0309 12.6005C89.9909 12.9005 90.7309 13.3605 91.2509 13.9805C91.7909 14.6005 92.0609 15.3405 92.0609 16.2005C92.0609 17.2205 91.7109 18.1205 91.0109 18.9005C90.3109 19.6605 89.3509 20.2505 88.1309 20.6705C86.9109 21.0905 85.5309 21.3005 83.9909 21.3005C82.7309 21.3005 81.4909 21.1705 80.2709 20.9105C79.0509 20.6505 77.9209 20.2605 76.8809 19.7405L78.1409 16.4705C79.8409 17.2905 81.7209 17.7005 83.7809 17.7005C84.8809 17.7005 85.7409 17.5405 86.3609 17.2205C87.0009 16.8805 87.3209 16.4105 87.3209 15.8105C87.3209 15.2905 87.1009 14.9005 86.6609 14.6405C86.2209 14.3605 85.5809 14.2205 84.7409 14.2205H81.4409V11.3105H84.3209C85.1409 11.3105 85.7709 11.1805 86.2109 10.9205C86.6509 10.6605 86.8709 10.2805 86.8709 9.78055C86.8709 9.26055 86.5909 8.86055 86.0309 8.58055C85.4909 8.30055 84.7109 8.16055 83.6909 8.16055C82.1309 8.16055 80.4309 8.53055 78.5909 9.27055L77.4509 6.03055C79.6909 5.05055 81.8709 4.56055 83.9909 4.56055C85.4509 4.56055 86.7509 4.74055 87.8909 5.10055C89.0509 5.46055 89.9609 5.99055 90.6209 6.69055C91.2809 7.37055 91.6109 8.17055 91.6109 9.09055C91.6109 9.85055 91.3809 10.5405 90.9209 11.1605C90.4609 11.7605 89.8309 12.2405 89.0309 12.6005Z" fill="#163C51"/>
<path d="M48.7656 4.85938H53.4156V14.4594L61.2756 4.85938H65.5656V20.9994H60.9156V11.3994L53.0856 20.9994H48.7656V4.85938Z" fill="#163C51"/>
<path d="M36.6964 21.2391C34.9964 21.2391 33.4664 20.8891 32.1064 20.1891C30.7664 19.4691 29.7164 18.4791 28.9564 17.2191C28.1964 15.9591 27.8164 14.5291 27.8164 12.9291C27.8164 11.3291 28.1964 9.89914 28.9564 8.63914C29.7164 7.37914 30.7664 6.39914 32.1064 5.69914C33.4664 4.97914 34.9964 4.61914 36.6964 4.61914C38.3964 4.61914 39.9164 4.97914 41.2564 5.69914C42.5964 6.39914 43.6464 7.37914 44.4064 8.63914C45.1664 9.89914 45.5464 11.3291 45.5464 12.9291C45.5464 14.5291 45.1664 15.9591 44.4064 17.2191C43.6464 18.4791 42.5964 19.4691 41.2564 20.1891C39.9164 20.8891 38.3964 21.2391 36.6964 21.2391ZM36.6964 17.3991C37.8964 17.3991 38.8764 16.9991 39.6364 16.1991C40.4164 15.3791 40.8064 14.2891 40.8064 12.9291C40.8064 11.5691 40.4164 10.4891 39.6364 9.68914C38.8764 8.86914 37.8964 8.45914 36.6964 8.45914C35.4964 8.45914 34.5064 8.86914 33.7264 9.68914C32.9464 10.4891 32.5564 11.5691 32.5564 12.9291C32.5564 14.2891 32.9464 15.3791 33.7264 16.1991C34.5064 16.9991 35.4964 17.3991 36.6964 17.3991Z" fill="#163C51"/>
<path d="M19.7194 21L19.6894 8.43L13.5094 18.78H11.3494L5.16937 8.67V21H0.609375V0H4.62938L12.4894 13.05L20.2294 0H24.2494L24.2794 21H19.7194Z" fill="#163C51"/>
</svg>
