<svg width="151" height="28" viewBox="0 0 151 28" fill="none" xmlns="http://www.w3.org/2000/svg">
<path d="M143.101 4.61914C145.601 4.61914 147.521 5.21914 148.861 6.41914C150.201 7.59914 150.871 9.38914 150.871 11.7891V20.9991H146.491V18.9891C145.611 20.4891 143.971 21.2391 141.571 21.2391C140.331 21.2391 139.251 21.0291 138.331 20.6091C137.431 20.1891 136.741 19.6091 136.261 18.8691C135.781 18.1291 135.541 17.2891 135.541 16.3491C135.541 14.8491 136.101 13.6691 137.221 12.8091C138.361 11.9491 140.111 11.5191 142.471 11.5191H146.191C146.191 10.4991 145.881 9.71914 145.261 9.17914C144.641 8.61914 143.711 8.33914 142.471 8.33914C141.611 8.33914 140.761 8.47914 139.921 8.75914C139.101 9.01914 138.401 9.37914 137.821 9.83914L136.141 6.56914C137.021 5.94914 138.071 5.46914 139.291 5.12914C140.531 4.78914 141.801 4.61914 143.101 4.61914ZM142.741 18.0891C143.541 18.0891 144.251 17.9091 144.871 17.5491C145.491 17.1691 145.931 16.6191 146.191 15.8991V14.2491H142.981C141.061 14.2491 140.101 14.8791 140.101 16.1391C140.101 16.7391 140.331 17.2191 140.791 17.5791C141.271 17.9191 141.921 18.0891 142.741 18.0891Z" fill="#163C51"/>
<path d="M124.987 14.8794H122.557V20.9994H117.877V4.85938H122.557V11.1294H125.077L129.457 4.85938H134.437L128.797 12.5994L134.827 20.9994H129.307L124.987 14.8794Z" fill="#163C51"/>
<path d="M113.375 4.85938V20.9994H108.695V8.69938H103.595L103.445 11.5494C103.365 13.6694 103.165 15.4294 102.845 16.8294C102.525 18.2294 102.005 19.3294 101.285 20.1294C100.565 20.9294 99.5655 21.3294 98.2855 21.3294C97.6055 21.3294 96.7955 21.2094 95.8555 20.9694L96.0955 17.1294C96.4155 17.1694 96.6455 17.1894 96.7855 17.1894C97.4855 17.1894 98.0055 16.9394 98.3455 16.4394C98.7055 15.9194 98.9455 15.2694 99.0655 14.4894C99.1855 13.6894 99.2755 12.6394 99.3355 11.3394L99.5755 4.85938H113.375Z" fill="#163C51"/>
<path d="M96.7808 4.85938L89.4908 21.9894C88.7508 23.8494 87.8308 25.1594 86.7308 25.9194C85.6508 26.6794 84.3408 27.0594 82.8008 27.0594C81.9608 27.0594 81.1308 26.9294 80.3108 26.6694C79.4908 26.4094 78.8208 26.0494 78.3008 25.5894L80.0108 22.2594C80.3708 22.5794 80.7808 22.8294 81.2408 23.0094C81.7208 23.1894 82.1908 23.2794 82.6508 23.2794C83.2908 23.2794 83.8108 23.1194 84.2108 22.7994C84.6108 22.4994 84.9708 21.9894 85.2908 21.2694L85.3508 21.1194L78.3608 4.85938H83.1908L87.7208 15.8094L92.2808 4.85938H96.7808Z" fill="#163C51"/>
<path d="M77.9847 8.69938H69.7047V20.9994H65.0547V4.85938H77.9847V8.69938Z" fill="#163C51"/>
<path d="M52.9855 21.2391C51.2855 21.2391 49.7555 20.8891 48.3955 20.1891C47.0555 19.4691 46.0055 18.4791 45.2455 17.2191C44.4855 15.9591 44.1055 14.5291 44.1055 12.9291C44.1055 11.3291 44.4855 9.89914 45.2455 8.63914C46.0055 7.37914 47.0555 6.39914 48.3955 5.69914C49.7555 4.97914 51.2855 4.61914 52.9855 4.61914C54.6855 4.61914 56.2055 4.97914 57.5455 5.69914C58.8855 6.39914 59.9355 7.37914 60.6955 8.63914C61.4555 9.89914 61.8355 11.3291 61.8355 12.9291C61.8355 14.5291 61.4555 15.9591 60.6955 17.2191C59.9355 18.4791 58.8855 19.4691 57.5455 20.1891C56.2055 20.8891 54.6855 21.2391 52.9855 21.2391ZM52.9855 17.3991C54.1855 17.3991 55.1655 16.9991 55.9255 16.1991C56.7055 15.3791 57.0955 14.2891 57.0955 12.9291C57.0955 11.5691 56.7055 10.4891 55.9255 9.68914C55.1655 8.86914 54.1855 8.45914 52.9855 8.45914C51.7855 8.45914 50.7955 8.86914 50.0155 9.68914C49.2355 10.4891 48.8455 11.5691 48.8455 12.9291C48.8455 14.2891 49.2355 15.3791 50.0155 16.1991C50.7955 16.9991 51.7855 17.3991 52.9855 17.3991Z" fill="#163C51"/>
<path d="M34.1045 4.61914C35.6045 4.61914 36.9645 4.96914 38.1845 5.66914C39.4245 6.34914 40.3945 7.31914 41.0945 8.57914C41.7945 9.81914 42.1445 11.2691 42.1445 12.9291C42.1445 14.5891 41.7945 16.0491 41.0945 17.3091C40.3945 18.5491 39.4245 19.5191 38.1845 20.2191C36.9645 20.8991 35.6045 21.2391 34.1045 21.2391C32.0445 21.2391 30.4245 20.5891 29.2445 19.2891V26.8191H24.5645V4.85914H29.0345V6.71914C30.1945 5.31914 31.8845 4.61914 34.1045 4.61914ZM33.2945 17.3991C34.4945 17.3991 35.4745 16.9991 36.2345 16.1991C37.0145 15.3791 37.4045 14.2891 37.4045 12.9291C37.4045 11.5691 37.0145 10.4891 36.2345 9.68914C35.4745 8.86914 34.4945 8.45914 33.2945 8.45914C32.0945 8.45914 31.1045 8.86914 30.3245 9.68914C29.5645 10.4891 29.1845 11.5691 29.1845 12.9291C29.1845 14.2891 29.5645 15.3791 30.3245 16.1991C31.1045 16.9991 32.0945 17.3991 33.2945 17.3991Z" fill="#163C51"/>
<path d="M19.7494 0V21H14.9194V3.96H5.43938V21H0.609375V0H19.7494Z" fill="#163C51"/>
</svg>
