<svg width="137" height="23" viewBox="0 0 137 23" fill="none" xmlns="http://www.w3.org/2000/svg">
<path d="M124.402 18.0013V5.28125H126.706V10.6813H133.954V5.28125H136.258V18.0013H133.954V12.6733H126.706V18.0013H124.402Z" fill="white"/>
<path d="M114.476 18.1442C113.196 18.1442 112.06 17.8642 111.068 17.3042C110.076 16.7442 109.292 15.9762 108.716 15.0002C108.14 14.0082 107.852 12.8882 107.852 11.6402C107.852 10.3762 108.14 9.25616 108.716 8.28016C109.292 7.30416 110.076 6.54416 111.068 6.00016C112.06 5.44016 113.196 5.16016 114.476 5.16016C115.74 5.16016 116.868 5.44016 117.86 6.00016C118.868 6.54416 119.652 7.30416 120.212 8.28016C120.788 9.24016 121.076 10.3602 121.076 11.6402C121.076 12.9042 120.788 14.0242 120.212 15.0002C119.652 15.9762 118.868 16.7442 117.86 17.3042C116.868 17.8642 115.74 18.1442 114.476 18.1442ZM114.476 16.1282C115.292 16.1282 116.02 15.9442 116.66 15.5762C117.316 15.2082 117.828 14.6882 118.196 14.0162C118.564 13.3282 118.748 12.5362 118.748 11.6402C118.748 10.7282 118.564 9.94416 118.196 9.28816C117.828 8.61616 117.316 8.09616 116.66 7.72816C116.02 7.36016 115.292 7.17616 114.476 7.17616C113.66 7.17616 112.932 7.36016 112.292 7.72816C111.652 8.09616 111.14 8.61616 110.756 9.28816C110.372 9.94416 110.18 10.7282 110.18 11.6402C110.18 12.5362 110.372 13.3282 110.756 14.0162C111.14 14.6882 111.652 15.2082 112.292 15.5762C112.932 15.9442 113.66 16.1282 114.476 16.1282Z" fill="white"/>
<path d="M92.3633 18.0005V5.2805H94.6673V14.5445L102.467 5.2805H104.555V18.0005H102.251V8.7365L94.4753 18.0005H92.3633ZM98.3153 3.6245C97.1473 3.6245 96.2273 3.3445 95.5553 2.7845C94.8993 2.2085 94.5633 1.3845 94.5473 0.3125H96.1073C96.1233 0.9205 96.3233 1.4005 96.7073 1.7525C97.1073 2.1045 97.6353 2.2805 98.2913 2.2805C98.9473 2.2805 99.4753 2.1045 99.8753 1.7525C100.275 1.4005 100.483 0.9205 100.499 0.3125H102.107C102.091 1.3845 101.747 2.2085 101.075 2.7845C100.403 3.3445 99.4833 3.6245 98.3153 3.6245Z" fill="white"/>
<path d="M86.0304 18.0002V15.3122L85.9104 14.8082V10.2242C85.9104 9.24816 85.6224 8.49616 85.0464 7.96816C84.4864 7.42416 83.6384 7.15216 82.5024 7.15216C81.7504 7.15216 81.0144 7.28016 80.2944 7.53616C79.5744 7.77616 78.9664 8.10416 78.4704 8.52016L77.5104 6.79216C78.1664 6.26416 78.9504 5.86416 79.8624 5.59216C80.7904 5.30416 81.7584 5.16016 82.7664 5.16016C84.5104 5.16016 85.8544 5.58416 86.7984 6.43216C87.7424 7.28016 88.2144 8.57616 88.2144 10.3202V18.0002H86.0304ZM81.8544 18.1442C80.9104 18.1442 80.0784 17.9842 79.3584 17.6642C78.6544 17.3442 78.1104 16.9042 77.7264 16.3442C77.3424 15.7682 77.1504 15.1202 77.1504 14.4002C77.1504 13.7122 77.3104 13.0882 77.6304 12.5282C77.9664 11.9682 78.5024 11.5202 79.2384 11.1842C79.9904 10.8482 80.9984 10.6802 82.2624 10.6802H86.2944V12.3362H82.3584C81.2064 12.3362 80.4304 12.5282 80.0304 12.9122C79.6304 13.2962 79.4304 13.7602 79.4304 14.3042C79.4304 14.9282 79.6784 15.4322 80.1744 15.8162C80.6704 16.1842 81.3584 16.3682 82.2384 16.3682C83.1024 16.3682 83.8544 16.1762 84.4944 15.7922C85.1504 15.4082 85.6224 14.8482 85.9104 14.1122L86.3664 15.6962C86.0624 16.4482 85.5264 17.0482 84.7584 17.4962C83.9904 17.9282 83.0224 18.1442 81.8544 18.1442Z" fill="white"/>
<path d="M68.5682 18.1442C67.5122 18.1442 66.5442 17.9042 65.6642 17.4242C64.8002 16.9282 64.1042 16.2002 63.5762 15.2402C63.0642 14.2802 62.8082 13.0802 62.8082 11.6402C62.8082 10.2002 63.0562 9.00016 63.5522 8.04016C64.0642 7.08016 64.7522 6.36016 65.6162 5.88016C66.4962 5.40016 67.4802 5.16016 68.5682 5.16016C69.8162 5.16016 70.9202 5.43215 71.8802 5.97615C72.8402 6.52015 73.6002 7.28016 74.1602 8.25616C74.7202 9.21616 75.0002 10.3442 75.0002 11.6402C75.0002 12.9362 74.7202 14.0722 74.1602 15.0482C73.6002 16.0242 72.8402 16.7842 71.8802 17.3282C70.9202 17.8722 69.8162 18.1442 68.5682 18.1442ZM61.8242 22.6562V5.28016H64.0322V8.71216L63.8882 11.6642L64.1282 14.6162V22.6562H61.8242ZM68.3762 16.1282C69.1922 16.1282 69.9202 15.9442 70.5602 15.5762C71.2162 15.2082 71.7282 14.6882 72.0962 14.0162C72.4802 13.3282 72.6722 12.5362 72.6722 11.6402C72.6722 10.7282 72.4802 9.94416 72.0962 9.28816C71.7282 8.61616 71.2162 8.09616 70.5602 7.72816C69.9202 7.36016 69.1922 7.17616 68.3762 7.17616C67.5762 7.17616 66.8482 7.36016 66.1922 7.72816C65.5522 8.09616 65.0402 8.61616 64.6562 9.28816C64.2882 9.94416 64.1042 10.7282 64.1042 11.6402C64.1042 12.5362 64.2882 13.3282 64.6562 14.0162C65.0402 14.6882 65.5522 15.2082 66.1922 15.5762C66.8482 15.9442 67.5762 16.1282 68.3762 16.1282Z" fill="white"/>
<path d="M38.7148 18.0005V5.2805H41.0188V14.5445L48.8188 5.2805H50.9068V18.0005H48.6028V8.7365L40.8268 18.0005H38.7148ZM44.6668 3.6245C43.4988 3.6245 42.5788 3.3445 41.9068 2.7845C41.2508 2.2085 40.9148 1.3845 40.8988 0.3125H42.4588C42.4748 0.9205 42.6748 1.4005 43.0588 1.7525C43.4588 2.1045 43.9868 2.2805 44.6428 2.2805C45.2988 2.2805 45.8268 2.1045 46.2268 1.7525C46.6268 1.4005 46.8348 0.9205 46.8508 0.3125H48.4588C48.4428 1.3845 48.0988 2.2085 47.4268 2.7845C46.7548 3.3445 45.8348 3.6245 44.6668 3.6245Z" fill="white"/>
<path d="M28.7881 18.1442C27.5081 18.1442 26.3721 17.8642 25.3801 17.3042C24.3881 16.7442 23.6041 15.9762 23.0281 15.0002C22.4521 14.0082 22.1641 12.8882 22.1641 11.6402C22.1641 10.3762 22.4521 9.25616 23.0281 8.28016C23.6041 7.30416 24.3881 6.54416 25.3801 6.00016C26.3721 5.44016 27.5081 5.16016 28.7881 5.16016C30.0521 5.16016 31.1801 5.44016 32.1721 6.00016C33.1801 6.54416 33.9641 7.30416 34.5241 8.28016C35.1001 9.24016 35.3881 10.3602 35.3881 11.6402C35.3881 12.9042 35.1001 14.0242 34.5241 15.0002C33.9641 15.9762 33.1801 16.7442 32.1721 17.3042C31.1801 17.8642 30.0521 18.1442 28.7881 18.1442ZM28.7881 16.1282C29.6041 16.1282 30.3321 15.9442 30.9721 15.5762C31.6281 15.2082 32.1401 14.6882 32.5081 14.0162C32.8761 13.3282 33.0601 12.5362 33.0601 11.6402C33.0601 10.7282 32.8761 9.94416 32.5081 9.28816C32.1401 8.61616 31.6281 8.09616 30.9721 7.72816C30.3321 7.36016 29.6041 7.17616 28.7881 7.17616C27.9721 7.17616 27.2441 7.36016 26.6041 7.72816C25.9641 8.09616 25.4521 8.61616 25.0681 9.28816C24.6841 9.94416 24.4921 10.7282 24.4921 11.6402C24.4921 12.5362 24.6841 13.3282 25.0681 14.0162C25.4521 14.6882 25.9641 15.2082 26.6041 15.5762C27.2441 15.9442 27.9721 16.1282 28.7881 16.1282Z" fill="white"/>
<path d="M0.615234 18.0012V1.20117H2.58323L10.1192 13.8972H9.06324L16.5032 1.20117H18.4712L18.4952 18.0012H16.1912L16.1672 4.82517H16.7192L10.0952 15.9612H8.99123L2.31923 4.82517H2.91923V18.0012H0.615234Z" fill="white"/>
</svg>
