<svg width="90" height="19" viewBox="0 0 90 19" fill="none" xmlns="http://www.w3.org/2000/svg">
<path d="M83.9563 18.1442C82.6603 18.1442 81.5003 17.8642 80.4763 17.3042C79.4683 16.7442 78.6763 15.9762 78.1003 15.0002C77.5243 14.0242 77.2363 12.9042 77.2363 11.6402C77.2363 10.3762 77.5243 9.25616 78.1003 8.28016C78.6763 7.30416 79.4683 6.54416 80.4763 6.00016C81.5003 5.44016 82.6603 5.16016 83.9563 5.16016C85.1083 5.16016 86.1323 5.39216 87.0283 5.85616C87.9403 6.30416 88.6443 6.97616 89.1403 7.87216L87.3883 9.00016C86.9723 8.37616 86.4603 7.92016 85.8523 7.63216C85.2603 7.32816 84.6203 7.17616 83.9323 7.17616C83.1003 7.17616 82.3563 7.36016 81.7003 7.72816C81.0443 8.09616 80.5243 8.61616 80.1403 9.28816C79.7563 9.94416 79.5643 10.7282 79.5643 11.6402C79.5643 12.5522 79.7563 13.3442 80.1403 14.0162C80.5243 14.6882 81.0443 15.2082 81.7003 15.5762C82.3563 15.9442 83.1003 16.1282 83.9323 16.1282C84.6203 16.1282 85.2603 15.9842 85.8523 15.6962C86.4603 15.3922 86.9723 14.9282 87.3883 14.3042L89.1403 15.4082C88.6443 16.2882 87.9403 16.9682 87.0283 17.4482C86.1323 17.9122 85.1083 18.1442 83.9563 18.1442Z" fill="white"/>
<path d="M72.0792 18.0002V15.3122L71.9592 14.8082V10.2242C71.9592 9.24816 71.6712 8.49616 71.0952 7.96816C70.5352 7.42416 69.6872 7.15216 68.5512 7.15216C67.7992 7.15216 67.0632 7.28016 66.3432 7.53616C65.6232 7.77616 65.0152 8.10416 64.5192 8.52016L63.5592 6.79216C64.2152 6.26416 64.9992 5.86416 65.9112 5.59216C66.8392 5.30416 67.8072 5.16016 68.8152 5.16016C70.5592 5.16016 71.9032 5.58416 72.8472 6.43216C73.7912 7.28016 74.2632 8.57616 74.2632 10.3202V18.0002H72.0792ZM67.9032 18.1442C66.9592 18.1442 66.1272 17.9842 65.4072 17.6642C64.7032 17.3442 64.1592 16.9042 63.7752 16.3442C63.3912 15.7682 63.1992 15.1202 63.1992 14.4002C63.1992 13.7122 63.3592 13.0882 63.6792 12.5282C64.0152 11.9682 64.5512 11.5202 65.2872 11.1842C66.0392 10.8482 67.0472 10.6802 68.3112 10.6802H72.3432V12.3362H68.4072C67.2552 12.3362 66.4792 12.5282 66.0792 12.9122C65.6792 13.2962 65.4792 13.7602 65.4792 14.3042C65.4792 14.9282 65.7272 15.4322 66.2232 15.8162C66.7192 16.1842 67.4072 16.3682 68.2872 16.3682C69.1512 16.3682 69.9032 16.1762 70.5432 15.7922C71.1992 15.4082 71.6712 14.8482 71.9592 14.1122L72.4152 15.6962C72.1112 16.4482 71.5752 17.0482 70.8072 17.4962C70.0392 17.9282 69.0712 18.1442 67.9032 18.1442Z" fill="white"/>
<path d="M57.6697 12.7933C56.9977 13.1133 56.3017 13.3693 55.5817 13.5613C54.8777 13.7373 54.1497 13.8253 53.3977 13.8253C51.8617 13.8253 50.6457 13.4653 49.7497 12.7453C48.8697 12.0253 48.4297 10.9133 48.4297 9.40925V5.28125H50.7337V9.26525C50.7337 10.1773 51.0137 10.8493 51.5737 11.2813C52.1497 11.7133 52.9177 11.9293 53.8777 11.9293C54.4857 11.9293 55.1097 11.8493 55.7497 11.6893C56.4057 11.5293 57.0457 11.3053 57.6697 11.0173V12.7933ZM57.5017 18.0013V5.28125H59.8057V18.0013H57.5017Z" fill="white"/>
<path d="M32.9902 18.0005V5.2805H35.2942V14.5445L43.0942 5.2805H45.1822V18.0005H42.8782V8.7365L35.1022 18.0005H32.9902ZM38.9422 3.6245C37.7742 3.6245 36.8542 3.3445 36.1822 2.7845C35.5262 2.2085 35.1902 1.3845 35.1742 0.3125H36.7342C36.7502 0.9205 36.9502 1.4005 37.3342 1.7525C37.7342 2.1045 38.2622 2.2805 38.9182 2.2805C39.5742 2.2805 40.1022 2.1045 40.5022 1.7525C40.9022 1.4005 41.1102 0.9205 41.1262 0.3125H42.7342C42.7182 1.3845 42.3742 2.2085 41.7022 2.7845C41.0302 3.3445 40.1102 3.6245 38.9422 3.6245Z" fill="white"/>
<path d="M23.5841 18.1442C22.2241 18.1442 21.0241 17.8642 19.9841 17.3042C18.9601 16.7442 18.1601 15.9762 17.5841 15.0002C17.0241 14.0242 16.7441 12.9042 16.7441 11.6402C16.7441 10.3762 17.0161 9.25616 17.5601 8.28016C18.1201 7.30416 18.8801 6.54416 19.8401 6.00016C20.8161 5.44016 21.9121 5.16016 23.1281 5.16016C24.3601 5.16016 25.4481 5.43215 26.3921 5.97615C27.3361 6.52015 28.0721 7.28816 28.6001 8.28016C29.1441 9.25616 29.4161 10.4002 29.4161 11.7122C29.4161 11.8082 29.4081 11.9202 29.3921 12.0482C29.3921 12.1762 29.3841 12.2962 29.3681 12.4082H18.5441V10.7522H28.1681L27.2321 11.3282C27.2481 10.5122 27.0801 9.78416 26.7281 9.14416C26.3761 8.50416 25.8881 8.00816 25.2641 7.65616C24.6561 7.28816 23.9441 7.10416 23.1281 7.10416C22.3281 7.10416 21.6161 7.28816 20.9921 7.65616C20.3681 8.00816 19.8801 8.51216 19.5281 9.16816C19.1761 9.80816 19.0001 10.5442 19.0001 11.3762V11.7602C19.0001 12.6082 19.1921 13.3682 19.5761 14.0402C19.9761 14.6962 20.5281 15.2082 21.2321 15.5762C21.9361 15.9442 22.7441 16.1282 23.6561 16.1282C24.4081 16.1282 25.0881 16.0002 25.6961 15.7442C26.3201 15.4882 26.8641 15.1042 27.3281 14.5922L28.6001 16.0802C28.0241 16.7522 27.3041 17.2642 26.4401 17.6162C25.5921 17.9682 24.6401 18.1442 23.5841 18.1442Z" fill="white"/>
<path d="M9.12805 18.1918C7.84805 18.1918 6.66405 17.9838 5.57605 17.5678C4.50405 17.1358 3.56805 16.5358 2.76805 15.7678C1.98405 14.9838 1.36805 14.0718 0.920047 13.0318C0.472047 11.9918 0.248047 10.8478 0.248047 9.59981C0.248047 8.35181 0.472047 7.20781 0.920047 6.16781C1.36805 5.12781 1.99205 4.22381 2.79205 3.45581C3.59205 2.67181 4.52805 2.07181 5.60005 1.65581C6.68805 1.22381 7.87205 1.00781 9.15205 1.00781C10.448 1.00781 11.64 1.23181 12.728 1.67981C13.832 2.11181 14.768 2.75981 15.536 3.62381L13.976 5.13581C13.336 4.46381 12.616 3.96781 11.816 3.64781C11.016 3.31181 10.16 3.14381 9.24805 3.14381C8.30405 3.14381 7.42405 3.30381 6.60805 3.62381C5.80805 3.94381 5.11205 4.39181 4.52005 4.96781C3.92805 5.54381 3.46405 6.23181 3.12805 7.03181C2.80805 7.81581 2.64805 8.67181 2.64805 9.59981C2.64805 10.5278 2.80805 11.3918 3.12805 12.1918C3.46405 12.9758 3.92805 13.6558 4.52005 14.2318C5.11205 14.8078 5.80805 15.2558 6.60805 15.5758C7.42405 15.8958 8.30405 16.0558 9.24805 16.0558C10.16 16.0558 11.016 15.8958 11.816 15.5758C12.616 15.2398 13.336 14.7278 13.976 14.0398L15.536 15.5518C14.768 16.4158 13.832 17.0718 12.728 17.5198C11.64 17.9678 10.44 18.1918 9.12805 18.1918Z" fill="white"/>
</svg>
