<svg width="192" height="24" viewBox="0 0 192 24" fill="none" xmlns="http://www.w3.org/2000/svg">
<path d="M189.655 19.0013V14.5373L190.015 14.9693H185.959C184.263 14.9693 182.935 14.6093 181.975 13.8893C181.031 13.1693 180.559 12.1213 180.559 10.7453C180.559 9.27325 181.063 8.16125 182.071 7.40925C183.095 6.65725 184.455 6.28125 186.151 6.28125H191.719V19.0013H189.655ZM180.439 19.0013L183.895 14.1293H186.271L182.911 19.0013H180.439ZM189.655 13.8173V7.64925L190.015 8.29725H186.223C185.167 8.29725 184.351 8.49725 183.775 8.89725C183.199 9.28125 182.911 9.92125 182.911 10.8173C182.911 12.4813 183.983 13.3133 186.127 13.3133H190.015L189.655 13.8173Z" fill="white" fill-opacity="0.45"/>
<path d="M162.371 19.0013V6.28125H164.747L170.219 15.6893H169.259L174.875 6.28125H177.035V19.0013H174.947V8.87325L175.331 9.08925L170.195 17.5613H169.187L164.027 8.92125L164.483 8.82525V19.0013H162.371Z" fill="white" fill-opacity="0.45"/>
<path d="M152.965 19.1442C151.605 19.1442 150.405 18.8642 149.365 18.3042C148.341 17.7442 147.541 16.9762 146.965 16.0002C146.405 15.0242 146.125 13.9042 146.125 12.6402C146.125 11.3762 146.397 10.2562 146.941 9.28016C147.501 8.30416 148.261 7.54416 149.221 7.00016C150.197 6.44016 151.293 6.16016 152.509 6.16016C153.741 6.16016 154.829 6.43216 155.773 6.97616C156.717 7.52016 157.453 8.28816 157.981 9.28016C158.525 10.2562 158.797 11.4002 158.797 12.7122C158.797 12.8082 158.789 12.9202 158.773 13.0482C158.773 13.1762 158.765 13.2962 158.749 13.4082H147.925V11.7522H157.549L156.613 12.3282C156.629 11.5122 156.461 10.7842 156.109 10.1442C155.757 9.50416 155.269 9.00816 154.645 8.65616C154.037 8.28816 153.325 8.10416 152.509 8.10416C151.709 8.10416 150.997 8.28816 150.373 8.65616C149.749 9.00816 149.261 9.51216 148.909 10.1682C148.557 10.8082 148.381 11.5442 148.381 12.3762V12.7602C148.381 13.6082 148.573 14.3682 148.957 15.0402C149.357 15.6962 149.909 16.2082 150.613 16.5762C151.317 16.9442 152.125 17.1282 153.037 17.1282C153.789 17.1282 154.469 17.0002 155.077 16.7442C155.701 16.4882 156.245 16.1042 156.709 15.5922L157.981 17.0802C157.405 17.7522 156.685 18.2642 155.821 18.6162C154.973 18.9682 154.021 19.1442 152.965 19.1442Z" fill="white" fill-opacity="0.45"/>
<path d="M137.521 19.1442C136.465 19.1442 135.497 18.9042 134.617 18.4242C133.753 17.9282 133.057 17.2002 132.529 16.2402C132.017 15.2802 131.761 14.0802 131.761 12.6402C131.761 11.2002 132.009 10.0002 132.505 9.04016C133.017 8.08016 133.705 7.36016 134.569 6.88016C135.449 6.40016 136.433 6.16016 137.521 6.16016C138.769 6.16016 139.873 6.43216 140.833 6.97616C141.793 7.52016 142.553 8.28016 143.113 9.25616C143.673 10.2162 143.953 11.3442 143.953 12.6402C143.953 13.9362 143.673 15.0722 143.113 16.0482C142.553 17.0242 141.793 17.7842 140.833 18.3282C139.873 18.8722 138.769 19.1442 137.521 19.1442ZM130.777 23.6562V6.28016H132.985V9.71216L132.841 12.6642L133.081 15.6162V23.6562H130.777ZM137.329 17.1282C138.145 17.1282 138.873 16.9442 139.513 16.5762C140.169 16.2082 140.681 15.6882 141.049 15.0162C141.433 14.3282 141.625 13.5362 141.625 12.6402C141.625 11.7282 141.433 10.9442 141.049 10.2882C140.681 9.61616 140.169 9.09616 139.513 8.72816C138.873 8.36016 138.145 8.17616 137.329 8.17616C136.529 8.17616 135.801 8.36016 135.145 8.72816C134.505 9.09616 133.993 9.61616 133.609 10.2882C133.241 10.9442 133.057 11.7282 133.057 12.6402C133.057 13.5362 133.241 14.3282 133.609 15.0162C133.993 15.6882 134.505 16.2082 135.145 16.5762C135.801 16.9442 136.529 17.1282 137.329 17.1282Z" fill="white" fill-opacity="0.45"/>
<path d="M116.035 19.0013V6.28125H121.939C123.427 6.28125 124.595 6.56925 125.443 7.14525C126.307 7.70525 126.739 8.50525 126.739 9.54525C126.739 10.5853 126.331 11.3933 125.515 11.9693C124.715 12.5293 123.651 12.8092 122.323 12.8092L122.683 12.1853C124.203 12.1853 125.331 12.4653 126.067 13.0253C126.803 13.5853 127.171 14.4093 127.171 15.4973C127.171 16.6013 126.755 17.4653 125.923 18.0893C125.107 18.6973 123.851 19.0013 122.155 19.0013H116.035ZM118.291 17.2253H121.987C122.947 17.2253 123.667 17.0813 124.147 16.7933C124.627 16.4893 124.867 16.0093 124.867 15.3533C124.867 14.6813 124.643 14.1933 124.195 13.8893C123.763 13.5693 123.075 13.4093 122.131 13.4093H118.291V17.2253ZM118.291 11.7533H121.747C122.627 11.7533 123.291 11.5933 123.739 11.2733C124.203 10.9373 124.435 10.4733 124.435 9.88125C124.435 9.27325 124.203 8.81725 123.739 8.51325C123.291 8.20925 122.627 8.05725 121.747 8.05725H118.291V11.7533Z" fill="white" fill-opacity="0.45"/>
<path d="M101.665 10.6013C103.281 10.6173 104.513 10.9853 105.361 11.7053C106.209 12.4253 106.633 13.4413 106.633 14.7533C106.633 16.1293 106.169 17.1933 105.241 17.9453C104.313 18.6813 103.001 19.0413 101.305 19.0253L95.7852 19.0013V6.28125H98.0892V10.5773L101.665 10.6013ZM101.113 17.2733C102.153 17.2893 102.937 17.0813 103.465 16.6493C104.009 16.2173 104.281 15.5773 104.281 14.7293C104.281 13.8973 104.017 13.2893 103.489 12.9053C102.961 12.5213 102.169 12.3212 101.113 12.3053L98.0892 12.2573V17.2493L101.113 17.2733Z" fill="white" fill-opacity="0.45"/>
<path d="M86.4705 19.0013V7.69725L87.0465 8.29725H81.8145V6.28125H93.4305V8.29725H88.2225L88.7745 7.69725V19.0013H86.4705Z" fill="white" fill-opacity="0.45"/>
<path d="M77.6163 19.0002V16.3122L77.4963 15.8082V11.2242C77.4963 10.2482 77.2083 9.49616 76.6323 8.96816C76.0723 8.42416 75.2243 8.15216 74.0883 8.15216C73.3363 8.15216 72.6003 8.28016 71.8803 8.53616C71.1603 8.77616 70.5523 9.10416 70.0563 9.52016L69.0963 7.79216C69.7523 7.26416 70.5363 6.86416 71.4483 6.59216C72.3763 6.30416 73.3443 6.16016 74.3523 6.16016C76.0963 6.16016 77.4403 6.58416 78.3843 7.43216C79.3283 8.28016 79.8003 9.57616 79.8003 11.3202V19.0002H77.6163ZM73.4403 19.1442C72.4963 19.1442 71.6643 18.9842 70.9443 18.6642C70.2403 18.3442 69.6963 17.9042 69.3123 17.3442C68.9283 16.7682 68.7363 16.1202 68.7363 15.4002C68.7363 14.7122 68.8963 14.0882 69.2163 13.5282C69.5523 12.9682 70.0883 12.5202 70.8243 12.1842C71.5763 11.8482 72.5843 11.6802 73.8483 11.6802H77.8803V13.3362H73.9443C72.7923 13.3362 72.0163 13.5282 71.6163 13.9122C71.2163 14.2962 71.0163 14.7602 71.0163 15.3042C71.0163 15.9282 71.2643 16.4322 71.7603 16.8162C72.2563 17.1842 72.9443 17.3682 73.8243 17.3682C74.6883 17.3682 75.4403 17.1762 76.0803 16.7922C76.7363 16.4082 77.2083 15.8482 77.4963 15.1122L77.9523 16.6962C77.6483 17.4482 77.1123 18.0482 76.3443 18.4962C75.5763 18.9282 74.6083 19.1442 73.4403 19.1442Z" fill="white" fill-opacity="0.45"/>
<path d="M60.1542 19.1442C59.0982 19.1442 58.1302 18.9042 57.2502 18.4242C56.3862 17.9282 55.6902 17.2002 55.1622 16.2402C54.6502 15.2802 54.3942 14.0802 54.3942 12.6402C54.3942 11.2002 54.6422 10.0002 55.1382 9.04016C55.6502 8.08016 56.3382 7.36016 57.2022 6.88016C58.0822 6.40016 59.0662 6.16016 60.1542 6.16016C61.4022 6.16016 62.5062 6.43216 63.4662 6.97616C64.4262 7.52016 65.1862 8.28016 65.7462 9.25616C66.3062 10.2162 66.5862 11.3442 66.5862 12.6402C66.5862 13.9362 66.3062 15.0722 65.7462 16.0482C65.1862 17.0242 64.4262 17.7842 63.4662 18.3282C62.5062 18.8722 61.4022 19.1442 60.1542 19.1442ZM53.4102 23.6562V6.28016H55.6182V9.71216L55.4742 12.6642L55.7142 15.6162V23.6562H53.4102ZM59.9622 17.1282C60.7782 17.1282 61.5062 16.9442 62.1462 16.5762C62.8022 16.2082 63.3142 15.6882 63.6822 15.0162C64.0662 14.3282 64.2582 13.5362 64.2582 12.6402C64.2582 11.7282 64.0662 10.9442 63.6822 10.2882C63.3142 9.61616 62.8022 9.09616 62.1462 8.72816C61.5062 8.36016 60.7782 8.17616 59.9622 8.17616C59.1622 8.17616 58.4342 8.36016 57.7782 8.72816C57.1382 9.09616 56.6262 9.61616 56.2422 10.2882C55.8742 10.9442 55.6902 11.7282 55.6902 12.6402C55.6902 13.5362 55.8742 14.3282 56.2422 15.0162C56.6262 15.6882 57.1382 16.2082 57.7782 16.5762C58.4342 16.9442 59.1622 17.1282 59.9622 17.1282Z" fill="white" fill-opacity="0.45"/>
<path d="M43.3994 19.1926C42.3434 19.1926 41.4074 19.0246 40.5914 18.6886C39.7914 18.3526 39.1034 17.8566 38.5274 17.2006C37.9514 16.5286 37.5114 15.6886 37.2074 14.6806C36.9194 13.6566 36.7754 12.4566 36.7754 11.0806C36.7754 9.99259 36.8714 9.01659 37.0634 8.15259C37.2554 7.28859 37.5274 6.52059 37.8794 5.84859C38.2474 5.17659 38.6954 4.59259 39.2234 4.09659C39.7674 3.60059 40.3754 3.19259 41.0474 2.87259C41.7354 2.53659 42.4874 2.28059 43.3034 2.10459L49.1114 0.808594L49.4474 2.94459L44.0954 4.09659C43.7754 4.16059 43.3914 4.25659 42.9434 4.38459C42.4954 4.51259 42.0394 4.71259 41.5754 4.98459C41.1114 5.24059 40.6794 5.60059 40.2794 6.06459C39.8794 6.52859 39.5594 7.13659 39.3194 7.88859C39.0794 8.62459 38.9594 9.53659 38.9594 10.6246C38.9594 10.9286 38.9674 11.1606 38.9834 11.3206C38.9994 11.4806 39.0154 11.6406 39.0314 11.8006C39.0634 11.9606 39.0874 12.2006 39.1034 12.5206L38.1434 11.5366C38.3994 10.6566 38.8074 9.88859 39.3674 9.23259C39.9274 8.57659 40.5994 8.07259 41.3834 7.72059C42.1834 7.35259 43.0554 7.16859 43.9994 7.16859C45.1834 7.16859 46.2314 7.42459 47.1434 7.93659C48.0714 8.44859 48.7994 9.15259 49.3274 10.0486C49.8554 10.9446 50.1194 11.9686 50.1194 13.1206C50.1194 14.2886 49.8394 15.3366 49.2794 16.2646C48.7354 17.1766 47.9594 17.8966 46.9514 18.4246C45.9434 18.9366 44.7594 19.1926 43.3994 19.1926ZM43.6154 17.2726C44.4314 17.2726 45.1514 17.0966 45.7754 16.7446C46.3994 16.3766 46.8874 15.8886 47.2394 15.2806C47.5914 14.6566 47.7674 13.9606 47.7674 13.1926C47.7674 12.4246 47.5914 11.7446 47.2394 11.1526C46.8874 10.5606 46.3994 10.0966 45.7754 9.76059C45.1514 9.40859 44.4154 9.23259 43.5674 9.23259C42.7674 9.23259 42.0474 9.40059 41.4074 9.73659C40.7674 10.0566 40.2714 10.5126 39.9194 11.1046C39.5674 11.6806 39.3914 12.3526 39.3914 13.1206C39.3914 13.8886 39.5674 14.5926 39.9194 15.2326C40.2874 15.8566 40.7834 16.3526 41.4074 16.7206C42.0474 17.0886 42.7834 17.2726 43.6154 17.2726Z" fill="white" fill-opacity="0.45"/>
<path d="M30.7362 19.0013V6.28125H33.0402V19.0013H30.7362ZM23.8962 10.6013C25.5122 10.6173 26.7362 10.9853 27.5682 11.7053C28.4162 12.4253 28.8402 13.4413 28.8402 14.7533C28.8402 16.1293 28.3762 17.1933 27.4482 17.9453C26.5362 18.6813 25.2242 19.0413 23.5122 19.0253L18.1602 19.0013V6.28125H20.4642V10.5773L23.8962 10.6013ZM23.3442 17.2733C24.3682 17.2893 25.1522 17.0813 25.6962 16.6493C26.2402 16.2173 26.5122 15.5773 26.5122 14.7293C26.5122 13.8973 26.2402 13.2893 25.6962 12.9053C25.1682 12.5213 24.3842 12.3212 23.3442 12.3053L20.4642 12.2573V17.2493L23.3442 17.2733Z" fill="white" fill-opacity="0.45"/>
<path d="M0.615234 19.0012V2.20117H7.83923C9.66323 2.20117 11.0952 2.56917 12.1352 3.30517C13.1752 4.04117 13.6952 5.11317 13.6952 6.52117C13.6952 7.89717 13.1992 8.95317 12.2072 9.68917C11.2152 10.4092 9.91123 10.7692 8.29523 10.7692L8.72723 10.0492C10.5992 10.0492 12.0312 10.4252 13.0232 11.1772C14.0312 11.9132 14.5352 12.9932 14.5352 14.4172C14.5352 15.8572 14.0072 16.9852 12.9512 17.8012C11.9112 18.6012 10.3592 19.0012 8.29523 19.0012H0.615234ZM2.99123 17.1052H8.24723C9.52724 17.1052 10.4872 16.8732 11.1272 16.4092C11.7832 15.9292 12.1112 15.2012 12.1112 14.2252C12.1112 13.2492 11.7832 12.5372 11.1272 12.0892C10.4872 11.6412 9.52724 11.4172 8.24723 11.4172H2.99123V17.1052ZM2.99123 9.59317H7.67124C8.83924 9.59317 9.72723 9.36117 10.3352 8.89717C10.9592 8.43317 11.2712 7.75317 11.2712 6.85717C11.2712 5.94517 10.9592 5.25717 10.3352 4.79317C9.72723 4.32917 8.83924 4.09717 7.67124 4.09717H2.99123V9.59317Z" fill="white" fill-opacity="0.45"/>
</svg>
