<svg width="227" height="42" viewBox="0 0 227 42" fill="none" xmlns="http://www.w3.org/2000/svg">
<path d="M219.651 31.9997V27.2747L219.201 26.2397V17.7797C219.201 16.2797 218.736 15.1097 217.806 14.2697C216.906 13.4297 215.511 13.0097 213.621 13.0097C212.331 13.0097 211.056 13.2197 209.796 13.6397C208.566 14.0297 207.516 14.5697 206.646 15.2597L204.126 10.3547C205.446 9.42469 207.036 8.70469 208.896 8.19469C210.756 7.68469 212.646 7.42969 214.566 7.42969C218.256 7.42969 221.121 8.29969 223.161 10.0397C225.201 11.7797 226.221 14.4947 226.221 18.1847V31.9997H219.651ZM212.271 32.3597C210.381 32.3597 208.761 32.0447 207.411 31.4147C206.061 30.7547 205.026 29.8697 204.306 28.7597C203.586 27.6497 203.226 26.4047 203.226 25.0247C203.226 23.5847 203.571 22.3247 204.261 21.2447C204.981 20.1647 206.106 19.3247 207.636 18.7247C209.166 18.0947 211.161 17.7797 213.621 17.7797H220.056V21.8747H214.386C212.736 21.8747 211.596 22.1447 210.966 22.6847C210.366 23.2247 210.066 23.8997 210.066 24.7097C210.066 25.6097 210.411 26.3297 211.101 26.8697C211.821 27.3797 212.796 27.6347 214.026 27.6347C215.196 27.6347 216.246 27.3647 217.176 26.8247C218.106 26.2547 218.781 25.4297 219.201 24.3497L220.281 27.5897C219.771 29.1497 218.841 30.3347 217.491 31.1447C216.141 31.9547 214.401 32.3597 212.271 32.3597Z" fill="#163C51"/>
<path d="M193.873 31.9991L185.773 20.5241L191.488 17.1491L202.153 31.9991H193.873ZM176.728 31.9991V7.78906H183.748V31.9991H176.728ZM181.678 22.8191V17.1941H190.138V22.8191H181.678ZM192.163 20.7041L185.593 19.9841L194.098 7.78906H201.568L192.163 20.7041Z" fill="#163C51"/>
<path d="M143.697 31.9541L144.057 26.1941C144.237 26.2241 144.417 26.2541 144.597 26.2841C144.777 26.2841 144.942 26.2841 145.092 26.2841C145.932 26.2841 146.592 26.0441 147.072 25.5641C147.552 25.0841 147.912 24.4391 148.152 23.6291C148.392 22.7891 148.557 21.8441 148.647 20.7941C148.767 19.7441 148.857 18.6491 148.917 17.5091L149.277 7.78906H169.977V31.9991H162.957V11.8391L164.532 13.5491H153.912L155.397 11.7491L155.082 17.8241C154.992 19.9841 154.812 21.9641 154.542 23.7641C154.302 25.5641 153.897 27.1241 153.327 28.4441C152.757 29.7341 151.992 30.7391 151.032 31.4591C150.072 32.1491 148.842 32.4941 147.342 32.4941C146.802 32.4941 146.232 32.4491 145.632 32.3591C145.032 32.2691 144.387 32.1341 143.697 31.9541Z" fill="#163C51"/>
<path d="M124.114 41.0891C122.854 41.0891 121.609 40.8941 120.379 40.5041C119.149 40.1141 118.144 39.5741 117.364 38.8841L119.929 33.8891C120.469 34.3691 121.084 34.7441 121.774 35.0141C122.494 35.2841 123.199 35.4191 123.889 35.4191C124.879 35.4191 125.659 35.1791 126.229 34.6991C126.829 34.2491 127.369 33.4841 127.849 32.4041L129.109 29.4341L129.649 28.6691L138.334 7.78906H145.084L134.149 33.4841C133.369 35.4341 132.469 36.9641 131.449 38.0741C130.459 39.1841 129.349 39.9641 128.119 40.4141C126.919 40.8641 125.584 41.0891 124.114 41.0891ZM128.254 32.9441L117.454 7.78906H124.699L133.069 28.0391L128.254 32.9441Z" fill="#163C51"/>
<path d="M97.582 31.9991V7.78906H116.977V13.5491H102.982L104.557 12.0191V31.9991H97.582Z" fill="#163C51"/>
<path d="M79.4792 32.3597C76.8992 32.3597 74.6042 31.8197 72.5942 30.7397C70.6142 29.6597 69.0392 28.1897 67.8692 26.3297C66.7292 24.4397 66.1592 22.2947 66.1592 19.8947C66.1592 17.4647 66.7292 15.3197 67.8692 13.4597C69.0392 11.5697 70.6142 10.0997 72.5942 9.04969C74.6042 7.96969 76.8992 7.42969 79.4792 7.42969C82.0292 7.42969 84.3092 7.96969 86.3192 9.04969C88.3292 10.0997 89.9042 11.5547 91.0442 13.4147C92.1842 15.2747 92.7542 17.4347 92.7542 19.8947C92.7542 22.2947 92.1842 24.4397 91.0442 26.3297C89.9042 28.1897 88.3292 29.6597 86.3192 30.7397C84.3092 31.8197 82.0292 32.3597 79.4792 32.3597ZM79.4792 26.5997C80.6492 26.5997 81.6992 26.3297 82.6292 25.7897C83.5592 25.2497 84.2942 24.4847 84.8342 23.4947C85.3742 22.4747 85.6442 21.2747 85.6442 19.8947C85.6442 18.4847 85.3742 17.2847 84.8342 16.2947C84.2942 15.3047 83.5592 14.5397 82.6292 13.9997C81.6992 13.4597 80.6492 13.1897 79.4792 13.1897C78.3092 13.1897 77.2592 13.4597 76.3292 13.9997C75.3992 14.5397 74.6492 15.3047 74.0792 16.2947C73.5392 17.2847 73.2692 18.4847 73.2692 19.8947C73.2692 21.2747 73.5392 22.4747 74.0792 23.4947C74.6492 24.4847 75.3992 25.2497 76.3292 25.7897C77.2592 26.3297 78.3092 26.5997 79.4792 26.5997Z" fill="#163C51"/>
<path d="M51.1586 32.3597C49.1186 32.3597 47.3336 31.9097 45.8036 31.0097C44.2736 30.1097 43.0736 28.7447 42.2036 26.9147C41.3636 25.0547 40.9436 22.7147 40.9436 19.8947C40.9436 17.0447 41.3486 14.7047 42.1586 12.8747C42.9686 11.0447 44.1386 9.67969 45.6686 8.77969C47.1986 7.87969 49.0286 7.42969 51.1586 7.42969C53.4386 7.42969 55.4786 7.95469 57.2786 9.00469C59.1086 10.0247 60.5486 11.4647 61.5986 13.3247C62.6786 15.1847 63.2186 17.3747 63.2186 19.8947C63.2186 22.4447 62.6786 24.6497 61.5986 26.5097C60.5486 28.3697 59.1086 29.8097 57.2786 30.8297C55.4786 31.8497 53.4386 32.3597 51.1586 32.3597ZM36.8486 40.7297V7.78969H43.5536V12.7397L43.4186 19.9397L43.8686 27.0947V40.7297H36.8486ZM49.9436 26.5997C51.1136 26.5997 52.1486 26.3297 53.0486 25.7897C53.9786 25.2497 54.7136 24.4847 55.2536 23.4947C55.8236 22.4747 56.1086 21.2747 56.1086 19.8947C56.1086 18.4847 55.8236 17.2847 55.2536 16.2947C54.7136 15.3047 53.9786 14.5397 53.0486 13.9997C52.1486 13.4597 51.1136 13.1897 49.9436 13.1897C48.7736 13.1897 47.7236 13.4597 46.7936 13.9997C45.8636 14.5397 45.1286 15.3047 44.5886 16.2947C44.0486 17.2847 43.7786 18.4847 43.7786 19.8947C43.7786 21.2747 44.0486 22.4747 44.5886 23.4947C45.1286 24.4847 45.8636 25.2497 46.7936 25.7897C47.7236 26.3297 48.7736 26.5997 49.9436 26.5997Z" fill="#163C51"/>
<path d="M0.915039 32V0.5H29.625V32H22.38V4.775L24.045 6.44H6.49504L8.16004 4.775V32H0.915039Z" fill="#163C51"/>
</svg>
