<svg width="329" height="27" viewBox="0 0 329 27" fill="none" xmlns="http://www.w3.org/2000/svg">
<path d="M310.215 25.9992V6.8418H313.685V20.7942L325.432 6.8418H328.577V25.9992H325.107V12.0468L313.396 25.9992H310.215Z" fill="#163C51"/>
<path d="M302.491 25.9992L295.081 16.6735L297.937 14.9385L306.576 25.9992H302.491ZM288.611 25.9992V6.8418H292.081V25.9992H288.611ZM291.033 17.9025V14.9385H297.359V17.9025H291.033ZM298.226 16.8181L295.009 16.3844L302.347 6.8418H306.07L298.226 16.8181Z" fill="#163C51"/>
<path d="M266.408 25.9992V6.8418H275.3C277.541 6.8418 279.3 7.27555 280.577 8.14306C281.879 8.98646 282.529 10.1913 282.529 11.7577C282.529 13.324 281.915 14.5409 280.686 15.4084C279.481 16.2518 277.879 16.6735 275.878 16.6735L276.421 15.7337C278.71 15.7337 280.409 16.1554 281.517 16.9988C282.626 17.8422 283.18 19.0833 283.18 20.7219C283.18 22.3846 282.553 23.6859 281.3 24.6257C280.071 25.5414 278.18 25.9992 275.625 25.9992H266.408ZM269.806 23.3244H275.372C276.818 23.3244 277.903 23.1075 278.626 22.6738C279.349 22.2159 279.71 21.493 279.71 20.505C279.71 19.4929 279.373 18.7579 278.698 18.3001C278.047 17.8181 277.011 17.5772 275.589 17.5772H269.806V23.3244ZM269.806 15.0831H275.011C276.336 15.0831 277.336 14.8421 278.011 14.3602C278.71 13.8541 279.059 13.1553 279.059 12.2637C279.059 11.348 278.71 10.6612 278.011 10.2034C277.336 9.74553 276.336 9.5166 275.011 9.5166H269.806V15.0831Z" fill="#163C51"/>
<path d="M256.529 25.9992V19.276L257.072 19.9267H250.963C248.409 19.9267 246.409 19.3845 244.963 18.3001C243.541 17.2157 242.83 15.6373 242.83 13.565C242.83 11.348 243.589 9.67324 245.107 8.54066C246.65 7.40809 248.698 6.8418 251.252 6.8418H259.638V25.9992H256.529ZM242.649 25.9992L247.854 18.6616H251.433L246.372 25.9992H242.649ZM256.529 18.1917V8.90212L257.072 9.87807H251.361C249.77 9.87807 248.541 10.1793 247.674 10.7817C246.806 11.3601 246.372 12.3239 246.372 13.6734C246.372 16.1795 247.987 17.4326 251.216 17.4326H257.072L256.529 18.1917Z" fill="#163C51"/>
<path d="M234.738 26.0002V21.9519L234.558 21.1928V14.2889C234.558 12.819 234.124 11.6864 233.256 10.8912C232.413 10.0719 231.136 9.66223 229.425 9.66223C228.292 9.66223 227.184 9.85501 226.099 10.2406C225.015 10.602 224.099 11.096 223.352 11.7226L221.906 9.12004C222.894 8.32483 224.075 7.72239 225.449 7.31274C226.846 6.87899 228.304 6.66211 229.822 6.66211C232.449 6.66211 234.473 7.30069 235.895 8.57785C237.317 9.85501 238.028 11.8069 238.028 14.4335V26.0002H234.738ZM228.449 26.2171C227.027 26.2171 225.774 25.9761 224.69 25.4942C223.629 25.0123 222.81 24.3496 222.232 23.5062C221.653 22.6387 221.364 21.6627 221.364 20.5783C221.364 19.5422 221.605 18.6024 222.087 17.7589C222.593 16.9155 223.4 16.2408 224.509 15.7348C225.642 15.2287 227.16 14.9757 229.063 14.9757H235.136V17.4698H229.208C227.473 17.4698 226.304 17.7589 225.702 18.3373C225.099 18.9156 224.798 19.6144 224.798 20.4338C224.798 21.3735 225.172 22.1326 225.919 22.711C226.666 23.2652 227.702 23.5423 229.027 23.5423C230.328 23.5423 231.461 23.2531 232.425 22.6748C233.413 22.0965 234.124 21.2531 234.558 20.1446L235.244 22.5302C234.786 23.6628 233.979 24.5665 232.823 25.2412C231.666 25.8918 230.208 26.2171 228.449 26.2171Z" fill="#163C51"/>
<path d="M208.933 26.2527C207.487 26.2527 206.065 26.072 204.667 25.7105C203.294 25.325 202.065 24.7828 200.98 24.0839L202.029 21.4453C202.944 22.0236 203.993 22.4815 205.173 22.8188C206.354 23.1321 207.547 23.2887 208.752 23.2887C209.86 23.2887 210.812 23.1562 211.607 22.8911C212.427 22.6261 213.053 22.2646 213.487 21.8067C213.921 21.3248 214.138 20.7706 214.138 20.144C214.138 19.2524 213.74 18.5656 212.945 18.0837C212.15 17.6018 211.041 17.3608 209.619 17.3608H206.149V14.8667H209.402C210.246 14.8667 210.981 14.7703 211.607 14.5775C212.234 14.3848 212.716 14.0956 213.053 13.71C213.415 13.3004 213.595 12.8305 213.595 12.3003C213.595 11.722 213.391 11.228 212.981 10.8183C212.571 10.4087 211.993 10.0954 211.246 9.87855C210.523 9.66167 209.668 9.55324 208.68 9.55324C207.716 9.57733 206.728 9.70987 205.716 9.95084C204.728 10.1918 203.716 10.5653 202.679 11.0714L201.74 8.36042C202.896 7.80618 204.029 7.38447 205.137 7.09531C206.27 6.78204 207.39 6.61336 208.499 6.58926C210.162 6.54107 211.644 6.73384 212.945 7.1676C214.246 7.57725 215.27 8.17969 216.017 8.9749C216.788 9.77011 217.174 10.7099 217.174 11.7943C217.174 12.71 216.885 13.5293 216.306 14.2522C215.728 14.951 214.957 15.5053 213.993 15.9149C213.029 16.3246 211.921 16.5294 210.668 16.5294L210.812 15.6981C212.957 15.6981 214.644 16.1198 215.873 16.9632C217.102 17.8066 217.716 18.9512 217.716 20.3971C217.716 21.5537 217.331 22.5779 216.559 23.4695C215.788 24.337 214.74 25.0237 213.415 25.5298C212.113 26.0117 210.619 26.2527 208.933 26.2527Z" fill="#163C51"/>
<path d="M179.456 26.2171C177.408 26.2171 175.6 25.7954 174.034 24.952C172.492 24.1086 171.287 22.9519 170.419 21.482C169.576 20.012 169.154 18.3252 169.154 16.4215C169.154 14.5178 169.564 12.831 170.383 11.3611C171.227 9.89116 172.371 8.74653 173.817 7.92722C175.287 7.08381 176.938 6.66211 178.769 6.66211C180.625 6.66211 182.263 7.07176 183.685 7.89107C185.107 8.71039 186.215 9.86706 187.01 11.3611C187.83 12.831 188.239 14.554 188.239 16.53C188.239 16.6746 188.227 16.8432 188.203 17.036C188.203 17.2288 188.191 17.4095 188.167 17.5782H171.865V15.0841H186.36L184.95 15.9516C184.974 14.7227 184.721 13.6262 184.191 12.6624C183.661 11.6985 182.926 10.9514 181.986 10.4213C181.07 9.86706 179.998 9.58994 178.769 9.58994C177.564 9.58994 176.492 9.86706 175.552 10.4213C174.612 10.9514 173.877 11.7105 173.347 12.6985C172.817 13.6624 172.552 14.7709 172.552 16.0239V16.6023C172.552 17.8794 172.841 19.0241 173.42 20.0361C174.022 21.0241 174.853 21.7953 175.914 22.3495C176.974 22.9037 178.191 23.1809 179.564 23.1809C180.697 23.1809 181.721 22.9881 182.637 22.6025C183.577 22.217 184.396 21.6386 185.095 20.8675L187.01 23.1086C186.143 24.1206 185.059 24.8918 183.757 25.4219C182.48 25.952 181.046 26.2171 179.456 26.2171Z" fill="#163C51"/>
<path d="M160.709 25.9992V6.8418H164.179V25.9992H160.709ZM150.407 13.3481C152.841 13.3722 154.685 13.9264 155.938 15.0108C157.215 16.0952 157.854 17.6254 157.854 19.6014C157.854 21.6737 157.155 23.2762 155.757 24.4088C154.384 25.5173 152.408 26.0594 149.829 26.0353L141.769 25.9992V6.8418H145.239V13.3119L150.407 13.3481ZM149.576 23.3967C151.118 23.4208 152.299 23.1075 153.118 22.4569C153.938 21.8063 154.347 20.8424 154.347 19.5652C154.347 18.3121 153.938 17.3964 153.118 16.8181C152.323 16.2398 151.142 15.9386 149.576 15.9145L145.239 15.8422V23.3605L149.576 23.3967Z" fill="#163C51"/>
<path d="M117.165 25.9992V6.8418H120.635V14.9747H131.551V6.8418H135.021V25.9992H131.551V17.9748H120.635V25.9992H117.165Z" fill="#163C51"/>
<path d="M94.9619 25.9992V6.8418H103.854C106.095 6.8418 107.854 7.27555 109.131 8.14306C110.432 8.98646 111.083 10.1913 111.083 11.7577C111.083 13.324 110.469 14.5409 109.24 15.4084C108.035 16.2518 106.432 16.6735 104.432 16.6735L104.974 15.7337C107.264 15.7337 108.962 16.1554 110.071 16.9988C111.179 17.8422 111.734 19.0833 111.734 20.7219C111.734 22.3846 111.107 23.6859 109.854 24.6257C108.625 25.5414 106.733 25.9992 104.179 25.9992H94.9619ZM98.3596 23.3244H103.926C105.372 23.3244 106.456 23.1075 107.179 22.6738C107.902 22.2159 108.264 21.493 108.264 20.505C108.264 19.4929 107.926 18.7579 107.252 18.3001C106.601 17.8181 105.565 17.5772 104.143 17.5772H98.3596V23.3244ZM98.3596 15.0831H103.565C104.89 15.0831 105.89 14.8421 106.565 14.3602C107.264 13.8541 107.613 13.1553 107.613 12.2637C107.613 11.348 107.264 10.6612 106.565 10.2034C105.89 9.74553 104.89 9.5166 103.565 9.5166H98.3596V15.0831Z" fill="#163C51"/>
<path d="M69.8643 25.9992V6.8418H73.3343V20.7942L85.0817 6.8418H88.2264V25.9992H84.7564V12.0468L73.0451 25.9992H69.8643Z" fill="#163C51"/>
<path d="M55.8336 25.9992V8.97441L56.7011 9.87807H48.8213V6.8418H66.316V9.87807H58.4723L59.3036 8.97441V25.9992H55.8336Z" fill="#163C51"/>
<path d="M44.633 25.9992L37.2231 16.6735L40.0786 14.9385L48.7175 25.9992H44.633ZM30.7529 25.9992V6.8418H34.223V25.9992H30.7529ZM33.1747 17.9025V14.9385H39.5003V17.9025H33.1747ZM40.3678 16.8181L37.1508 16.3844L44.4884 6.8418H48.2115L40.3678 16.8181Z" fill="#163C51"/>
<path d="M0.433594 25.9995L11.8919 0.697266H15.4703L26.9648 25.9995H23.1695L12.9401 2.72144H14.386L4.15664 25.9995H0.433594ZM5.31331 19.6739L6.28925 16.7823H20.5308L21.579 19.6739H5.31331Z" fill="#163C51"/>
</svg>
