<svg width="283" height="29" viewBox="0 0 283 29" fill="none" xmlns="http://www.w3.org/2000/svg">
<path d="M269.005 28.0285C268.225 28.0285 267.445 27.8985 266.665 27.6385C265.885 27.3785 265.235 27.0185 264.715 26.5585L266.215 23.7985C266.595 24.1385 267.025 24.4085 267.505 24.6085C267.985 24.8085 268.475 24.9085 268.975 24.9085C269.655 24.9085 270.205 24.7385 270.625 24.3985C271.045 24.0585 271.435 23.4885 271.795 22.6885L272.725 20.5885L273.025 20.1385L279.085 5.97852H282.685L275.185 23.2885C274.685 24.4885 274.125 25.4385 273.505 26.1385C272.905 26.8385 272.225 27.3285 271.465 27.6085C270.725 27.8885 269.905 28.0285 269.005 28.0285ZM272.305 22.5685L265.075 5.97852H268.975L274.855 19.8085L272.305 22.5685Z" fill="white"/>
<path d="M261.418 21.9985L255.628 14.3185L258.688 12.4285L265.828 21.9985H261.418ZM249.928 21.9985V5.97852H253.678V21.9985H249.928ZM252.568 15.5785V12.4585H257.998V15.5785H252.568ZM259.048 14.4385L255.538 14.0185L261.418 5.97852H265.438L259.048 14.4385Z" fill="white"/>
<path d="M228.018 21.9685L228.198 18.8185C228.338 18.8385 228.468 18.8585 228.588 18.8785C228.708 18.8985 228.818 18.9085 228.918 18.9085C229.538 18.9085 230.018 18.7185 230.358 18.3385C230.698 17.9585 230.948 17.4485 231.108 16.8085C231.288 16.1485 231.408 15.4185 231.468 14.6185C231.548 13.7985 231.608 12.9785 231.648 12.1585L231.918 5.97852H244.878V21.9985H241.128V8.13852L241.998 9.15852H234.378L235.188 8.10852L234.978 12.3385C234.918 13.7585 234.798 15.0785 234.618 16.2985C234.458 17.4985 234.198 18.5485 233.838 19.4485C233.498 20.3485 233.018 21.0485 232.398 21.5485C231.798 22.0485 231.028 22.2985 230.088 22.2985C229.788 22.2985 229.458 22.2685 229.098 22.2085C228.758 22.1485 228.398 22.0685 228.018 21.9685Z" fill="white"/>
<path d="M215.04 28.0285C214.26 28.0285 213.48 27.8985 212.7 27.6385C211.92 27.3785 211.27 27.0185 210.75 26.5585L212.25 23.7985C212.63 24.1385 213.06 24.4085 213.54 24.6085C214.02 24.8085 214.51 24.9085 215.01 24.9085C215.69 24.9085 216.24 24.7385 216.66 24.3985C217.08 24.0585 217.47 23.4885 217.83 22.6885L218.76 20.5885L219.06 20.1385L225.12 5.97852H228.72L221.22 23.2885C220.72 24.4885 220.16 25.4385 219.54 26.1385C218.94 26.8385 218.26 27.3285 217.5 27.6085C216.76 27.8885 215.94 28.0285 215.04 28.0285ZM218.34 22.5685L211.11 5.97852H215.01L220.89 19.8085L218.34 22.5685Z" fill="white"/>
<path d="M198.541 21.9985V5.97852H210.841V9.15852H201.421L202.291 8.31852V21.9985H198.541Z" fill="white"/>
<path d="M186.287 22.2088C184.647 22.2088 183.187 21.8588 181.907 21.1588C180.627 20.4388 179.617 19.4588 178.877 18.2188C178.137 16.9788 177.767 15.5688 177.767 13.9888C177.767 12.3888 178.137 10.9788 178.877 9.75883C179.617 8.51883 180.627 7.54883 181.907 6.84883C183.187 6.14883 184.647 5.79883 186.287 5.79883C187.947 5.79883 189.417 6.14883 190.697 6.84883C191.997 7.54883 193.007 8.50883 193.727 9.72883C194.467 10.9488 194.837 12.3688 194.837 13.9888C194.837 15.5688 194.467 16.9788 193.727 18.2188C193.007 19.4588 191.997 20.4388 190.697 21.1588C189.417 21.8588 187.947 22.2088 186.287 22.2088ZM186.287 18.9988C187.207 18.9988 188.027 18.7988 188.747 18.3988C189.467 17.9988 190.027 17.4188 190.427 16.6588C190.847 15.8988 191.057 15.0088 191.057 13.9888C191.057 12.9488 190.847 12.0588 190.427 11.3188C190.027 10.5588 189.467 9.97883 188.747 9.57883C188.027 9.17883 187.217 8.97883 186.317 8.97883C185.397 8.97883 184.577 9.17883 183.857 9.57883C183.157 9.97883 182.597 10.5588 182.177 11.3188C181.757 12.0588 181.547 12.9488 181.547 13.9888C181.547 15.0088 181.757 15.8988 182.177 16.6588C182.597 17.4188 183.157 17.9988 183.857 18.3988C184.577 18.7988 185.387 18.9988 186.287 18.9988Z" fill="white"/>
<path d="M167.284 22.2088C165.984 22.2088 164.794 21.9088 163.714 21.3088C162.654 20.7088 161.804 19.8088 161.164 18.6088C160.544 17.3888 160.234 15.8488 160.234 13.9888C160.234 12.1088 160.534 10.5688 161.134 9.36883C161.754 8.16883 162.594 7.27883 163.654 6.69883C164.714 6.09883 165.924 5.79883 167.284 5.79883C168.864 5.79883 170.254 6.13883 171.454 6.81883C172.674 7.49883 173.634 8.44883 174.334 9.66883C175.054 10.8888 175.414 12.3288 175.414 13.9888C175.414 15.6488 175.054 17.0988 174.334 18.3388C173.634 19.5588 172.674 20.5088 171.454 21.1888C170.254 21.8688 168.864 22.2088 167.284 22.2088ZM158.404 27.8188V5.97883H161.974V9.75883L161.854 14.0188L162.154 18.2788V27.8188H158.404ZM166.864 18.9988C167.764 18.9988 168.564 18.7988 169.264 18.3988C169.984 17.9988 170.554 17.4188 170.974 16.6588C171.394 15.8988 171.604 15.0088 171.604 13.9888C171.604 12.9488 171.394 12.0588 170.974 11.3188C170.554 10.5588 169.984 9.97883 169.264 9.57883C168.564 9.17883 167.764 8.97883 166.864 8.97883C165.964 8.97883 165.154 9.17883 164.434 9.57883C163.714 9.97883 163.144 10.5588 162.724 11.3188C162.304 12.0588 162.094 12.9488 162.094 13.9888C162.094 15.0088 162.304 15.8988 162.724 16.6588C163.144 17.4188 163.714 17.9988 164.434 18.3988C165.154 18.7988 165.964 18.9988 166.864 18.9988Z" fill="white"/>
<path d="M137.984 21.9985V5.97852H153.344V21.9985H149.624V8.28852L150.494 9.15852H140.864L141.734 8.28852V21.9985H137.984Z" fill="white"/>
<path d="M120.067 11.2585C122.127 11.2585 123.697 11.7185 124.777 12.6385C125.857 13.5585 126.397 14.8585 126.397 16.5385C126.397 18.2785 125.797 19.6385 124.597 20.6185C123.397 21.5785 121.707 22.0485 119.527 22.0285L112.027 21.9985V5.97852H115.777V11.2285L120.067 11.2585ZM119.197 19.2685C120.297 19.2885 121.137 19.0585 121.717 18.5785C122.297 18.0985 122.587 17.3985 122.587 16.4785C122.587 15.5585 122.297 14.8985 121.717 14.4985C121.157 14.0785 120.317 13.8585 119.197 13.8385L115.777 13.8085V19.2385L119.197 19.2685Z" fill="white"/>
<path d="M99.9476 21.9985V8.25852L100.818 9.15852H94.3076V5.97852H109.308V9.15852H102.828L103.698 8.25852V21.9985H99.9476Z" fill="white"/>
<path d="M88.4368 21.9988V18.7588L88.2268 18.0688V12.3988C88.2268 11.2988 87.8968 10.4488 87.2368 9.84883C86.5768 9.22883 85.5768 8.91883 84.2368 8.91883C83.3368 8.91883 82.4468 9.05883 81.5668 9.33883C80.7068 9.61883 79.9768 10.0088 79.3768 10.5088L77.9068 7.77883C78.7668 7.11883 79.7868 6.62883 80.9668 6.30883C82.1668 5.96883 83.4068 5.79883 84.6868 5.79883C87.0068 5.79883 88.7968 6.35883 90.0568 7.47883C91.3368 8.57883 91.9768 10.2888 91.9768 12.6088V21.9988H88.4368ZM83.3968 22.2088C82.1968 22.2088 81.1468 22.0088 80.2468 21.6088C79.3468 21.1888 78.6468 20.6188 78.1468 19.8988C77.6668 19.1588 77.4268 18.3288 77.4268 17.4088C77.4268 16.5088 77.6368 15.6988 78.0568 14.9788C78.4968 14.2588 79.2068 13.6888 80.1868 13.2688C81.1668 12.8488 82.4668 12.6388 84.0868 12.6388H88.7368V15.1288H84.3568C83.0768 15.1288 82.2168 15.3388 81.7768 15.7588C81.3368 16.1588 81.1168 16.6588 81.1168 17.2588C81.1168 17.9388 81.3868 18.4788 81.9268 18.8788C82.4668 19.2788 83.2168 19.4788 84.1768 19.4788C85.0968 19.4788 85.9168 19.2688 86.6368 18.8488C87.3768 18.4288 87.9068 17.8088 88.2268 16.9888L88.8568 19.2388C88.4968 20.1788 87.8468 20.9088 86.9068 21.4288C85.9868 21.9488 84.8168 22.2088 83.3968 22.2088Z" fill="white"/>
<path d="M69.2476 20.2585V9.15852H63.0976L63.0076 11.7385C62.9676 12.6585 62.9076 13.5485 62.8276 14.4085C62.7476 15.2485 62.6176 16.0285 62.4376 16.7485C62.2576 17.4485 61.9976 18.0285 61.6576 18.4885C61.3176 18.9485 60.8676 19.2485 60.3076 19.3885L56.5876 18.8185C57.1876 18.8185 57.6676 18.6285 58.0276 18.2485C58.4076 17.8485 58.6976 17.3085 58.8976 16.6285C59.1176 15.9285 59.2776 15.1385 59.3776 14.2585C59.4776 13.3585 59.5476 12.4285 59.5876 11.4685L59.7976 5.97852H72.9976V20.2585H69.2476ZM56.0176 25.5685V18.8185H75.3676V25.5685H71.8576V21.9985H59.4976V25.5685H56.0176Z" fill="white"/>
<path d="M46.756 22.2694C45.536 22.2694 44.326 22.1294 43.126 21.8494C41.946 21.5494 40.876 21.1294 39.916 20.5894L40.966 17.7994C41.746 18.2394 42.626 18.5794 43.606 18.8194C44.586 19.0594 45.566 19.1794 46.546 19.1794C47.386 19.1794 48.106 19.0994 48.706 18.9394C49.306 18.7594 49.766 18.4994 50.086 18.1594C50.426 17.8194 50.596 17.4294 50.596 16.9894C50.596 16.3494 50.316 15.8694 49.756 15.5494C49.216 15.2094 48.436 15.0394 47.416 15.0394H44.326V12.5194H47.116C47.756 12.5194 48.296 12.4494 48.736 12.3094C49.196 12.1694 49.546 11.9594 49.786 11.6794C50.026 11.3994 50.146 11.0694 50.146 10.6894C50.146 10.3094 49.996 9.97942 49.696 9.69942C49.416 9.39942 49.006 9.17942 48.466 9.03942C47.926 8.87942 47.276 8.79942 46.516 8.79942C45.716 8.79942 44.886 8.89942 44.026 9.09942C43.186 9.29942 42.326 9.58942 41.446 9.96942L40.486 7.20942C41.506 6.74942 42.496 6.39942 43.456 6.15942C44.436 5.89942 45.406 5.75942 46.366 5.73942C47.826 5.67942 49.126 5.82942 50.266 6.18942C51.406 6.54942 52.306 7.06942 52.966 7.74942C53.626 8.42942 53.956 9.22942 53.956 10.1494C53.956 10.9094 53.716 11.5994 53.236 12.2194C52.776 12.8194 52.136 13.2894 51.316 13.6294C50.516 13.9694 49.596 14.1394 48.556 14.1394L48.676 13.3294C50.456 13.3294 51.856 13.6894 52.876 14.4094C53.896 15.1094 54.406 16.0694 54.406 17.2894C54.406 18.2694 54.076 19.1394 53.416 19.8994C52.756 20.6394 51.846 21.2194 50.686 21.6394C49.546 22.0594 48.236 22.2694 46.756 22.2694Z" fill="white"/>
<path d="M29.6655 22.2088C28.0255 22.2088 26.5655 21.8588 25.2855 21.1588C24.0055 20.4388 22.9955 19.4588 22.2555 18.2188C21.5155 16.9788 21.1455 15.5688 21.1455 13.9888C21.1455 12.3888 21.5155 10.9788 22.2555 9.75883C22.9955 8.51883 24.0055 7.54883 25.2855 6.84883C26.5655 6.14883 28.0255 5.79883 29.6655 5.79883C31.3255 5.79883 32.7955 6.14883 34.0755 6.84883C35.3755 7.54883 36.3855 8.50883 37.1055 9.72883C37.8455 10.9488 38.2155 12.3688 38.2155 13.9888C38.2155 15.5688 37.8455 16.9788 37.1055 18.2188C36.3855 19.4588 35.3755 20.4388 34.0755 21.1588C32.7955 21.8588 31.3255 22.2088 29.6655 22.2088ZM29.6655 18.9988C30.5855 18.9988 31.4055 18.7988 32.1255 18.3988C32.8455 17.9988 33.4055 17.4188 33.8055 16.6588C34.2255 15.8988 34.4355 15.0088 34.4355 13.9888C34.4355 12.9488 34.2255 12.0588 33.8055 11.3188C33.4055 10.5588 32.8455 9.97883 32.1255 9.57883C31.4055 9.17883 30.5955 8.97883 29.6955 8.97883C28.7755 8.97883 27.9555 9.17883 27.2355 9.57883C26.5355 9.97883 25.9755 10.5588 25.5555 11.3188C25.1355 12.0588 24.9255 12.9488 24.9255 13.9888C24.9255 15.0088 25.1355 15.8988 25.5555 16.6588C25.9755 17.4188 26.5355 17.9988 27.2355 18.3988C27.9555 18.7988 28.7655 18.9988 29.6655 18.9988Z" fill="white"/>
<path d="M11.5999 22.2992C9.99988 22.2992 8.50988 22.0392 7.12988 21.5192C5.76988 20.9792 4.57988 20.2292 3.55988 19.2692C2.55988 18.2892 1.77988 17.1392 1.21988 15.8192C0.659883 14.4992 0.379883 13.0592 0.379883 11.4992C0.379883 9.93922 0.659883 8.49922 1.21988 7.17922C1.77988 5.85922 2.56988 4.71922 3.58988 3.75922C4.60988 2.77922 5.79988 2.02922 7.15988 1.50922C8.51988 0.969219 10.0099 0.699219 11.6299 0.699219C13.3499 0.699219 14.9199 0.999219 16.3399 1.59922C17.7599 2.17922 18.9599 3.04922 19.9399 4.20922L17.4199 6.57922C16.6599 5.75922 15.8099 5.14922 14.8699 4.74922C13.9299 4.32922 12.9099 4.11922 11.8099 4.11922C10.7099 4.11922 9.69988 4.29922 8.77988 4.65922C7.87988 5.01922 7.08988 5.52922 6.40988 6.18922C5.74988 6.84922 5.22988 7.62922 4.84988 8.52922C4.48988 9.42922 4.30988 10.4192 4.30988 11.4992C4.30988 12.5792 4.48988 13.5692 4.84988 14.4692C5.22988 15.3692 5.74988 16.1492 6.40988 16.8092C7.08988 17.4692 7.87988 17.9792 8.77988 18.3392C9.69988 18.6992 10.7099 18.8792 11.8099 18.8792C12.9099 18.8792 13.9299 18.6792 14.8699 18.2792C15.8099 17.8592 16.6599 17.2292 17.4199 16.3892L19.9399 18.7892C18.9599 19.9292 17.7599 20.7992 16.3399 21.3992C14.9199 21.9992 13.3399 22.2992 11.5999 22.2992Z" fill="white"/>
</svg>
