<svg width="254" height="30" viewBox="0 0 254 30" fill="none" xmlns="http://www.w3.org/2000/svg">
<path d="M239.822 29.0305C239.042 29.0305 238.262 28.9005 237.482 28.6405C236.702 28.3805 236.052 28.0205 235.532 27.5605L237.032 24.8005C237.412 25.1405 237.842 25.4105 238.322 25.6105C238.802 25.8105 239.292 25.9105 239.792 25.9105C240.472 25.9105 241.022 25.7405 241.442 25.4005C241.862 25.0605 242.252 24.4905 242.612 23.6905L243.542 21.5905L243.842 21.1405L249.902 6.98047H253.502L246.002 24.2905C245.502 25.4905 244.942 26.4405 244.322 27.1405C243.722 27.8405 243.042 28.3305 242.282 28.6105C241.542 28.8905 240.722 29.0305 239.822 29.0305ZM243.122 23.5705L235.892 6.98047H239.792L245.672 20.8105L243.122 23.5705Z" fill="#F85F37"/>
<path d="M232.235 23.0005L226.445 15.3205L229.505 13.4305L236.645 23.0005H232.235ZM220.745 23.0005V6.98047H224.495V23.0005H220.745ZM223.385 16.5805V13.4605H228.815V16.5805H223.385ZM229.865 15.4405L226.355 15.0205L232.235 6.98047H236.255L229.865 15.4405Z" fill="#F85F37"/>
<path d="M198.835 22.9705L199.015 19.8205C199.155 19.8405 199.285 19.8605 199.405 19.8805C199.525 19.9005 199.635 19.9105 199.735 19.9105C200.355 19.9105 200.835 19.7205 201.175 19.3405C201.515 18.9605 201.765 18.4505 201.925 17.8105C202.105 17.1505 202.225 16.4205 202.285 15.6205C202.365 14.8005 202.425 13.9805 202.465 13.1605L202.735 6.98047H215.695V23.0005H211.945V9.14047L212.815 10.1605H205.195L206.005 9.11047L205.795 13.3405C205.735 14.7605 205.615 16.0805 205.435 17.3005C205.275 18.5005 205.015 19.5505 204.655 20.4505C204.315 21.3505 203.835 22.0505 203.215 22.5505C202.615 23.0505 201.845 23.3005 200.905 23.3005C200.605 23.3005 200.275 23.2705 199.915 23.2105C199.575 23.1505 199.215 23.0705 198.835 22.9705Z" fill="#F85F37"/>
<path d="M185.856 29.0305C185.076 29.0305 184.296 28.9005 183.516 28.6405C182.736 28.3805 182.086 28.0205 181.566 27.5605L183.066 24.8005C183.446 25.1405 183.876 25.4105 184.356 25.6105C184.836 25.8105 185.326 25.9105 185.826 25.9105C186.506 25.9105 187.056 25.7405 187.476 25.4005C187.896 25.0605 188.286 24.4905 188.646 23.6905L189.576 21.5905L189.876 21.1405L195.936 6.98047H199.536L192.036 24.2905C191.536 25.4905 190.976 26.4405 190.356 27.1405C189.756 27.8405 189.076 28.3305 188.316 28.6105C187.576 28.8905 186.756 29.0305 185.856 29.0305ZM189.156 23.5705L181.926 6.98047H185.826L191.706 20.8105L189.156 23.5705Z" fill="#F85F37"/>
<path d="M169.358 23.0005V6.98047H181.658V10.1605H172.238L173.108 9.32047V23.0005H169.358Z" fill="#F85F37"/>
<path d="M157.104 23.2088C155.464 23.2088 154.004 22.8588 152.724 22.1588C151.444 21.4388 150.434 20.4588 149.694 19.2188C148.954 17.9788 148.584 16.5688 148.584 14.9888C148.584 13.3888 148.954 11.9788 149.694 10.7588C150.434 9.51883 151.444 8.54883 152.724 7.84883C154.004 7.14883 155.464 6.79883 157.104 6.79883C158.764 6.79883 160.234 7.14883 161.514 7.84883C162.814 8.54883 163.824 9.50883 164.544 10.7288C165.284 11.9488 165.654 13.3688 165.654 14.9888C165.654 16.5688 165.284 17.9788 164.544 19.2188C163.824 20.4588 162.814 21.4388 161.514 22.1588C160.234 22.8588 158.764 23.2088 157.104 23.2088ZM157.104 19.9988C158.024 19.9988 158.844 19.7988 159.564 19.3988C160.284 18.9988 160.844 18.4188 161.244 17.6588C161.664 16.8988 161.874 16.0088 161.874 14.9888C161.874 13.9488 161.664 13.0588 161.244 12.3188C160.844 11.5588 160.284 10.9788 159.564 10.5788C158.844 10.1788 158.034 9.97883 157.134 9.97883C156.214 9.97883 155.394 10.1788 154.674 10.5788C153.974 10.9788 153.414 11.5588 152.994 12.3188C152.574 13.0588 152.364 13.9488 152.364 14.9888C152.364 16.0088 152.574 16.8988 152.994 17.6588C153.414 18.4188 153.974 18.9988 154.674 19.3988C155.394 19.7988 156.204 19.9988 157.104 19.9988Z" fill="#F85F37"/>
<path d="M138.102 23.2088C136.802 23.2088 135.612 22.9088 134.532 22.3088C133.472 21.7088 132.622 20.8088 131.982 19.6088C131.362 18.3888 131.052 16.8488 131.052 14.9888C131.052 13.1088 131.352 11.5688 131.952 10.3688C132.572 9.16883 133.412 8.27883 134.472 7.69883C135.532 7.09883 136.742 6.79883 138.102 6.79883C139.682 6.79883 141.072 7.13883 142.272 7.81883C143.492 8.49883 144.452 9.44883 145.152 10.6688C145.872 11.8888 146.232 13.3288 146.232 14.9888C146.232 16.6488 145.872 18.0988 145.152 19.3388C144.452 20.5588 143.492 21.5088 142.272 22.1888C141.072 22.8688 139.682 23.2088 138.102 23.2088ZM129.222 28.8188V6.97883H132.792V10.7588L132.672 15.0188L132.972 19.2788V28.8188H129.222ZM137.682 19.9988C138.582 19.9988 139.382 19.7988 140.082 19.3988C140.802 18.9988 141.372 18.4188 141.792 17.6588C142.212 16.8988 142.422 16.0088 142.422 14.9888C142.422 13.9488 142.212 13.0588 141.792 12.3188C141.372 11.5588 140.802 10.9788 140.082 10.5788C139.382 10.1788 138.582 9.97883 137.682 9.97883C136.782 9.97883 135.972 10.1788 135.252 10.5788C134.532 10.9788 133.962 11.5588 133.542 12.3188C133.122 13.0588 132.912 13.9488 132.912 14.9888C132.912 16.0088 133.122 16.8988 133.542 17.6588C133.962 18.4188 134.532 18.9988 135.252 19.3988C135.972 19.7988 136.782 19.9988 137.682 19.9988Z" fill="#F85F37"/>
<path d="M108.802 23.0005V6.98047H124.162V23.0005H120.442V9.29047L121.312 10.1605H111.682L112.552 9.29047V23.0005H108.802Z" fill="#F85F37"/>
<path d="M79.4463 23.0005V6.98047H83.1963V17.5405L92.0463 6.98047H95.4663V23.0005H91.7163V12.4405L82.8963 23.0005H79.4463Z" fill="#F85F37"/>
<path d="M67.3666 23.0005V9.26047L68.2366 10.1605H61.7266V6.98047H76.7266V10.1605H70.2466L71.1166 9.26047V23.0005H67.3666Z" fill="#F85F37"/>
<path d="M42.9717 22.9997V6.97969H46.7217V17.5397L55.5717 6.97969H58.9917V22.9997H55.2417V12.4397L46.4217 22.9997H42.9717ZM50.7417 5.08969C49.1417 5.08969 47.9117 4.71969 47.0517 3.97969C46.1917 3.21969 45.7517 2.11969 45.7317 0.679688H48.2217C48.2417 1.39969 48.4617 1.96969 48.8817 2.38969C49.3217 2.80969 49.9317 3.01969 50.7117 3.01969C51.4717 3.01969 52.0717 2.80969 52.5117 2.38969C52.9717 1.96969 53.2117 1.39969 53.2317 0.679688H55.7817C55.7617 2.11969 55.3117 3.21969 54.4317 3.97969C53.5717 4.71969 52.3417 5.08969 50.7417 5.08969Z" fill="#F85F37"/>
<path d="M34.7913 22.9988V19.7588L34.5812 19.0688V13.3988C34.5812 12.2988 34.2513 11.4488 33.5913 10.8488C32.9313 10.2288 31.9313 9.91883 30.5913 9.91883C29.6913 9.91883 28.8013 10.0588 27.9213 10.3388C27.0613 10.6188 26.3313 11.0088 25.7313 11.5088L24.2613 8.77883C25.1213 8.11883 26.1413 7.62883 27.3213 7.30883C28.5213 6.96883 29.7613 6.79883 31.0413 6.79883C33.3613 6.79883 35.1513 7.35883 36.4113 8.47883C37.6913 9.57883 38.3312 11.2888 38.3312 13.6088V22.9988H34.7913ZM29.7513 23.2088C28.5513 23.2088 27.5012 23.0088 26.6012 22.6088C25.7012 22.1888 25.0013 21.6188 24.5013 20.8988C24.0213 20.1588 23.7812 19.3288 23.7812 18.4088C23.7812 17.5088 23.9913 16.6988 24.4113 15.9788C24.8513 15.2588 25.5613 14.6888 26.5413 14.2688C27.5213 13.8488 28.8212 13.6388 30.4412 13.6388H35.0913V16.1288H30.7113C29.4313 16.1288 28.5713 16.3388 28.1313 16.7588C27.6913 17.1588 27.4713 17.6588 27.4713 18.2588C27.4713 18.9388 27.7412 19.4788 28.2812 19.8788C28.8212 20.2788 29.5712 20.4788 30.5312 20.4788C31.4513 20.4788 32.2713 20.2688 32.9913 19.8488C33.7313 19.4288 34.2612 18.8088 34.5812 17.9888L35.2113 20.2388C34.8512 21.1788 34.2012 21.9088 33.2612 22.4288C32.3412 22.9488 31.1713 23.2088 29.7513 23.2088Z" fill="#F85F37"/>
<path d="M15.7004 2H19.6004V23H15.7004V2ZM4.84043 23H0.94043V2H4.84043V23ZM16.0004 14H4.51043V10.67H16.0004V14Z" fill="#F85F37"/>
</svg>
