<svg width="187" height="33" viewBox="0 0 187 33" fill="none" xmlns="http://www.w3.org/2000/svg">
<path d="M180.199 32.0016V23.9139L181.193 25.0435H174.461C170.967 25.0435 168.226 24.3205 166.238 22.8747C164.25 21.4289 163.256 19.3505 163.256 16.6395C163.256 13.7478 164.295 11.5339 166.374 9.99767C168.482 8.46146 171.314 7.69336 174.868 7.69336H186.48V32.0016H180.199ZM162.895 32.0016L169.356 22.7392H176.54L170.395 32.0016H162.895ZM180.199 21.7451V11.6242L181.193 13.4315H175.003C173.558 13.4315 172.428 13.7026 171.615 14.2448C170.832 14.787 170.44 15.6606 170.44 16.8654C170.44 19.1848 171.931 20.3445 174.913 20.3445H181.193L180.199 21.7451Z" fill="#163C51"/>
<path d="M152.163 32.0017V27.2575L151.712 26.2183V17.724C151.712 16.2179 151.245 15.0432 150.311 14.1998C149.407 13.3564 148.007 12.9347 146.109 12.9347C144.814 12.9347 143.534 13.1455 142.269 13.5672C141.034 13.9588 139.979 14.501 139.106 15.1938L136.576 10.2689C137.901 9.33512 139.497 8.6122 141.365 8.10013C143.232 7.58807 145.13 7.33203 147.058 7.33203C150.763 7.33203 153.639 8.20556 155.688 9.95262C157.736 11.6997 158.76 14.4257 158.76 18.1307V32.0017H152.163ZM144.754 32.3632C142.856 32.3632 141.229 32.0469 139.874 31.4143C138.518 30.7517 137.479 29.8631 136.756 28.7486C136.033 27.6341 135.672 26.384 135.672 24.9984C135.672 23.5526 136.018 22.2875 136.711 21.2031C137.434 20.1187 138.564 19.2753 140.1 18.6729C141.636 18.0403 143.639 17.724 146.109 17.724H152.57V21.8356H146.877C145.22 21.8356 144.076 22.1067 143.443 22.6489C142.841 23.1911 142.54 23.8688 142.54 24.6821C142.54 25.5858 142.886 26.3087 143.579 26.8509C144.302 27.363 145.281 27.619 146.516 27.619C147.69 27.619 148.745 27.3479 149.678 26.8057C150.612 26.2334 151.29 25.4051 151.712 24.3207L152.796 27.5738C152.284 29.1401 151.35 30.33 149.995 31.1432C148.639 31.9565 146.892 32.3632 144.754 32.3632Z" fill="#163C51"/>
<path d="M106.242 32.0016V7.69336H113.245V17.1817H123.818V7.69336H130.867V32.0016H123.818V22.9199H113.245V32.0016H106.242Z" fill="#163C51"/>
<path d="M78.1348 32.0016V7.69336H90.56C93.6023 7.69336 95.9819 8.25061 97.6988 9.36511C99.4157 10.4495 100.274 11.9857 100.274 13.9737C100.274 15.9618 99.4609 17.5281 97.8344 18.6727C96.2379 19.7872 94.1143 20.3445 91.4636 20.3445L92.1865 18.7179C95.1385 18.7179 97.3373 19.2601 98.7832 20.3445C100.259 21.4289 100.997 23.0102 100.997 25.0886C100.997 27.2273 100.184 28.9141 98.5573 30.1491C96.9307 31.3841 94.4457 32.0016 91.1022 32.0016H78.1348ZM84.5959 27.2122H90.5148C91.81 27.2122 92.7739 27.0014 93.4065 26.5797C94.0691 26.1278 94.4005 25.4501 94.4005 24.5465C94.4005 23.6127 94.0993 22.9349 93.4968 22.5132C92.8944 22.0614 91.9456 21.8355 90.6503 21.8355H84.5959V27.2122ZM84.5959 17.6787H89.9274C91.1624 17.6787 92.0811 17.4528 92.6835 17.001C93.3161 16.5491 93.6324 15.9015 93.6324 15.0581C93.6324 14.1846 93.3161 13.537 92.6835 13.1153C92.0811 12.6936 91.1624 12.4827 89.9274 12.4827H84.5959V17.6787Z" fill="#163C51"/>
<path d="M65.4155 32.0017V27.2575L64.9636 26.2183V17.724C64.9636 16.2179 64.4967 15.0432 63.563 14.1998C62.6593 13.3564 61.2587 12.9347 59.361 12.9347C58.0658 12.9347 56.7856 13.1455 55.5205 13.5672C54.2855 13.9588 53.2312 14.501 52.3577 15.1938L49.8275 10.2689C51.1528 9.33512 52.7493 8.6122 54.6168 8.10013C56.4844 7.58807 58.382 7.33203 60.3098 7.33203C64.0148 7.33203 66.8914 8.20556 68.9397 9.95262C70.988 11.6997 72.0121 14.4257 72.0121 18.1307V32.0017H65.4155ZM58.0055 32.3632C56.1079 32.3632 54.4813 32.0469 53.1258 31.4143C51.7703 30.7517 50.7311 29.8631 50.0082 28.7486C49.2853 27.6341 48.9238 26.384 48.9238 24.9984C48.9238 23.5526 49.2702 22.2875 49.963 21.2031C50.6859 20.1187 51.8155 19.2753 53.3517 18.6729C54.8879 18.0403 56.891 17.724 59.361 17.724H65.8221V21.8356H60.1291C58.4724 21.8356 57.3278 22.1067 56.6952 22.6489C56.0928 23.1911 55.7916 23.8688 55.7916 24.6821C55.7916 25.5858 56.138 26.3087 56.8308 26.8509C57.5537 27.363 58.5327 27.619 59.7676 27.619C60.9424 27.619 61.9967 27.3479 62.9304 26.8057C63.8642 26.2334 64.5419 25.4051 64.9636 24.3207L66.048 27.5738C65.5359 29.1401 64.6022 30.33 63.2467 31.1432C61.8912 31.9565 60.1442 32.3632 58.0055 32.3632Z" fill="#163C51"/>
<path d="M17.7012 31.9564L18.0626 26.173C18.2434 26.2031 18.4241 26.2333 18.6048 26.2634C18.7856 26.2634 18.9512 26.2634 19.1018 26.2634C19.9452 26.2634 20.6079 26.0224 21.0899 25.5405C21.5718 25.0585 21.9333 24.4109 22.1742 23.5976C22.4152 22.7542 22.5809 21.8054 22.6713 20.7511C22.7917 19.6969 22.8821 18.5974 22.9423 17.4528L23.3038 7.69336H44.0878V32.0016H37.0393V11.7598L38.6207 13.4767H27.9576L29.4486 11.6694L29.1324 17.7691C29.042 19.9378 28.8613 21.9259 28.5902 23.7332C28.3492 25.5405 27.9426 27.1068 27.3702 28.4322C26.7979 29.7274 26.0298 30.7365 25.0659 31.4594C24.102 32.1522 22.867 32.4986 21.361 32.4986C20.8188 32.4986 20.2465 32.4534 19.644 32.363C19.0416 32.2727 18.394 32.1371 17.7012 31.9564Z" fill="#163C51"/>
<path d="M0.931641 32.0008V0.373047H23.2518L23.2066 6.33715H6.4891L8.16085 4.66539L8.20603 32.0008H0.931641Z" fill="#163C51"/>
</svg>
