<svg width="316" height="27" viewBox="0 0 316 27" fill="none" xmlns="http://www.w3.org/2000/svg">
<path d="M312.669 11.6141C311.994 11.6141 311.416 11.3852 310.934 10.9273C310.452 10.4454 310.211 9.84296 310.211 9.12004C310.211 8.39712 310.452 7.80673 310.934 7.34888C311.416 6.89103 311.994 6.66211 312.669 6.66211C313.319 6.66211 313.874 6.89103 314.332 7.34888C314.814 7.80673 315.055 8.39712 315.055 9.12004C315.055 9.84296 314.814 10.4454 314.332 10.9273C313.874 11.3852 313.319 11.6141 312.669 11.6141ZM312.669 26.2171C311.994 26.2171 311.416 25.9882 310.934 25.5303C310.452 25.0484 310.211 24.446 310.211 23.723C310.211 23.0001 310.452 22.4097 310.934 21.9519C311.416 21.494 311.994 21.2651 312.669 21.2651C313.319 21.2651 313.874 21.494 314.332 21.9519C314.814 22.4097 315.055 23.0001 315.055 23.723C315.055 24.446 314.814 25.0484 314.332 25.5303C313.874 25.9882 313.319 26.2171 312.669 26.2171Z" fill="#F85F37"/>
<path d="M286.811 25.9992V6.8418H290.281V20.7942L302.028 6.8418H305.173V25.9992H301.703V12.0468L289.991 25.9992H286.811Z" fill="#F85F37"/>
<path d="M272.782 25.9992V8.97441L273.649 9.87807H265.77V6.8418H283.264V9.87807H275.421L276.252 8.97441V25.9992H272.782Z" fill="#F85F37"/>
<path d="M256.933 26.2171C254.981 26.2171 253.234 25.7954 251.692 24.952C250.174 24.1086 248.981 22.9519 248.114 21.482C247.246 20.012 246.812 18.3252 246.812 16.4215C246.812 14.5178 247.246 12.831 248.114 11.3611C248.981 9.89116 250.174 8.74653 251.692 7.92722C253.234 7.08381 254.981 6.66211 256.933 6.66211C258.668 6.66211 260.211 7.01152 261.56 7.71034C262.934 8.38507 263.994 9.39716 264.741 10.7466L262.102 12.4455C261.476 11.5057 260.705 10.8189 259.789 10.3852C258.897 9.9273 257.933 9.69838 256.897 9.69838C255.644 9.69838 254.524 9.9755 253.536 10.5297C252.548 11.084 251.765 11.8671 251.186 12.8792C250.608 13.8672 250.319 15.048 250.319 16.4215C250.319 17.7951 250.608 18.9879 251.186 20C251.765 21.0121 252.548 21.7953 253.536 22.3495C254.524 22.9037 255.644 23.1809 256.897 23.1809C257.933 23.1809 258.897 22.964 259.789 22.5302C260.705 22.0724 261.476 21.3735 262.102 20.4338L264.741 22.0965C263.994 23.4218 262.934 24.446 261.56 25.1689C260.211 25.8677 258.668 26.2171 256.933 26.2171Z" fill="#F85F37"/>
<path d="M233.633 26.2171C231.705 26.2171 229.994 25.7954 228.5 24.952C227.006 24.1086 225.825 22.9519 224.958 21.482C224.09 19.988 223.656 18.3011 223.656 16.4215C223.656 14.5178 224.09 12.831 224.958 11.3611C225.825 9.89116 227.006 8.74653 228.5 7.92722C229.994 7.08381 231.705 6.66211 233.633 6.66211C235.536 6.66211 237.235 7.08381 238.729 7.92722C240.247 8.74653 241.428 9.89116 242.271 11.3611C243.139 12.8069 243.573 14.4938 243.573 16.4215C243.573 18.3252 243.139 20.012 242.271 21.482C241.428 22.9519 240.247 24.1086 238.729 24.952C237.235 25.7954 235.536 26.2171 233.633 26.2171ZM233.633 23.1809C234.862 23.1809 235.958 22.9037 236.922 22.3495C237.91 21.7953 238.681 21.0121 239.235 20C239.789 18.9638 240.067 17.771 240.067 16.4215C240.067 15.048 239.789 13.8672 239.235 12.8792C238.681 11.8671 237.91 11.084 236.922 10.5297C235.958 9.9755 234.862 9.69838 233.633 9.69838C232.404 9.69838 231.307 9.9755 230.343 10.5297C229.379 11.084 228.608 11.8671 228.03 12.8792C227.452 13.8672 227.162 15.048 227.162 16.4215C227.162 17.771 227.452 18.9638 228.03 20C228.608 21.0121 229.379 21.7953 230.343 22.3495C231.307 22.9037 232.404 23.1809 233.633 23.1809Z" fill="#F85F37"/>
<path d="M200.824 25.9992V6.8418H204.294V14.9747H215.21V6.8418H218.68V25.9992H215.21V17.9748H204.294V25.9992H200.824Z" fill="#F85F37"/>
<path d="M178.621 25.9992V6.8418H187.513C189.754 6.8418 191.513 7.27555 192.79 8.14306C194.092 8.98646 194.742 10.1913 194.742 11.7577C194.742 13.324 194.128 14.5409 192.899 15.4084C191.694 16.2518 190.091 16.6735 188.091 16.6735L188.634 15.7337C190.923 15.7337 192.622 16.1554 193.73 16.9988C194.839 17.8422 195.393 19.0833 195.393 20.7219C195.393 22.3846 194.766 23.6859 193.513 24.6257C192.284 25.5414 190.393 25.9992 187.838 25.9992H178.621ZM182.019 23.3244H187.585C189.031 23.3244 190.116 23.1075 190.838 22.6738C191.561 22.2159 191.923 21.493 191.923 20.505C191.923 19.4929 191.585 18.7579 190.911 18.3001C190.26 17.8181 189.224 17.5772 187.802 17.5772H182.019V23.3244ZM182.019 15.0831H187.224C188.549 15.0831 189.549 14.8421 190.224 14.3602C190.923 13.8541 191.272 13.1553 191.272 12.2637C191.272 11.348 190.923 10.6612 190.224 10.2034C189.549 9.74553 188.549 9.5166 187.224 9.5166H182.019V15.0831Z" fill="#F85F37"/>
<path d="M153.523 25.9992V6.8418H156.993V20.7942L168.741 6.8418H171.886V25.9992H168.416V12.0468L156.704 25.9992H153.523Z" fill="#F85F37"/>
<path d="M139.493 25.9992V8.97441L140.36 9.87807H132.48V6.8418H149.975V9.87807H142.131L142.963 8.97441V25.9992H139.493Z" fill="#F85F37"/>
<path d="M128.292 25.9992L120.882 16.6735L123.738 14.9385L132.377 25.9992H128.292ZM114.412 25.9992V6.8418H117.882V25.9992H114.412ZM116.834 17.9025V14.9385H123.159V17.9025H116.834ZM124.027 16.8181L120.81 16.3844L128.148 6.8418H131.871L124.027 16.8181Z" fill="#F85F37"/>
<path d="M104.874 26.0002V21.9519L104.693 21.1928V14.2889C104.693 12.819 104.26 11.6864 103.392 10.8912C102.549 10.0719 101.271 9.66223 99.5606 9.66223C98.428 9.66223 97.3195 9.85501 96.2351 10.2406C95.1507 10.602 94.2351 11.096 93.488 11.7226L92.0422 9.12004C93.0302 8.32483 94.211 7.72239 95.5845 7.31274C96.9822 6.87899 98.44 6.66211 99.9582 6.66211C102.585 6.66211 104.609 7.30069 106.031 8.57785C107.452 9.85501 108.163 11.8069 108.163 14.4335V26.0002H104.874ZM98.5846 26.2171C97.1629 26.2171 95.9098 25.9761 94.8254 25.4942C93.7652 25.0123 92.9458 24.3496 92.3675 23.5062C91.7892 22.6387 91.5 21.6627 91.5 20.5783C91.5 19.5422 91.741 18.6024 92.2229 17.7589C92.729 16.9155 93.5362 16.2408 94.6447 15.7348C95.7773 15.2287 97.2954 14.9757 99.1991 14.9757H105.272V17.4698H99.3437C97.6087 17.4698 96.44 17.7589 95.8375 18.3373C95.2351 18.9156 94.9339 19.6144 94.9339 20.4338C94.9339 21.3735 95.3074 22.1326 96.0544 22.711C96.8014 23.2652 97.8376 23.5423 99.163 23.5423C100.464 23.5423 101.597 23.2531 102.561 22.6748C103.549 22.0965 104.26 21.2531 104.693 20.1446L105.38 22.5302C104.922 23.6628 104.115 24.5665 102.958 25.2412C101.802 25.8918 100.344 26.2171 98.5846 26.2171Z" fill="#F85F37"/>
<path d="M58.3223 25.9992V6.8418H61.7923V20.7942L73.5398 6.8418H76.6845V25.9992H73.2144V12.0468L61.5031 25.9992H58.3223Z" fill="#F85F37"/>
<path d="M43.3708 26.2171C41.443 26.2171 39.7321 25.7954 38.2381 24.952C36.7441 24.1086 35.5633 22.9519 34.6958 21.482C33.8283 19.988 33.3945 18.3011 33.3945 16.4215C33.3945 14.5178 33.8283 12.831 34.6958 11.3611C35.5633 9.89116 36.7441 8.74653 38.2381 7.92722C39.7321 7.08381 41.443 6.66211 43.3708 6.66211C45.2745 6.66211 46.9734 7.08381 48.4674 7.92722C49.9856 8.74653 51.1663 9.89116 52.0097 11.3611C52.8772 12.8069 53.311 14.4938 53.311 16.4215C53.311 18.3252 52.8772 20.012 52.0097 21.482C51.1663 22.9519 49.9856 24.1086 48.4674 24.952C46.9734 25.7954 45.2745 26.2171 43.3708 26.2171ZM43.3708 23.1809C44.5998 23.1809 45.6962 22.9037 46.6601 22.3495C47.6481 21.7953 48.4192 21.0121 48.9735 20C49.5277 18.9638 49.8048 17.771 49.8048 16.4215C49.8048 15.048 49.5277 13.8672 48.9735 12.8792C48.4192 11.8671 47.6481 11.084 46.6601 10.5297C45.6962 9.9755 44.5998 9.69838 43.3708 9.69838C42.1419 9.69838 41.0454 9.9755 40.0816 10.5297C39.1177 11.084 38.3465 11.8671 37.7682 12.8792C37.1899 13.8672 36.9007 15.048 36.9007 16.4215C36.9007 17.771 37.1899 18.9638 37.7682 20C38.3465 21.0121 39.1177 21.7953 40.0816 22.3495C41.0454 22.9037 42.1419 23.1809 43.3708 23.1809Z" fill="#F85F37"/>
<path d="M0.939453 25.9995V0.697266H3.90343L15.2533 19.8185H13.6629L24.8681 0.697266H27.8321L27.8683 25.9995H24.3982L24.3621 6.15532H25.1935L15.2171 22.9271H13.5544L3.50582 6.15532H4.40947V25.9995H0.939453Z" fill="#F85F37"/>
</svg>
