<svg width="98" height="35" viewBox="0 0 98 35" fill="none" xmlns="http://www.w3.org/2000/svg">
<path d="M70.5234 33.9531L70.8114 28.9131C71.0354 28.9451 71.2434 28.9771 71.4354 29.0091C71.6274 29.0411 71.8034 29.0571 71.9634 29.0571C72.9554 29.0571 73.7234 28.7531 74.2674 28.1451C74.8114 27.5371 75.2114 26.7211 75.4674 25.6971C75.7554 24.6411 75.9474 23.4731 76.0434 22.1931C76.1714 20.8811 76.2674 19.5691 76.3314 18.2571L76.7634 8.36914H97.4994V34.0011H91.4994V11.8251L92.8914 13.4571H80.6994L81.9954 11.7771L81.6594 18.5451C81.5634 20.8171 81.3714 22.9291 81.0834 24.8811C80.8274 26.8011 80.4114 28.4811 79.8354 29.9211C79.2914 31.3611 78.5234 32.4811 77.5314 33.2811C76.5714 34.0811 75.3394 34.4811 73.8354 34.4811C73.3554 34.4811 72.8274 34.4331 72.2514 34.3371C71.7074 34.2411 71.1314 34.1131 70.5234 33.9531Z" fill="#F85F37"/>
<path d="M52.5422 34.3361C49.9182 34.3361 47.5822 33.7761 45.5342 32.6561C43.4862 31.5041 41.8702 29.9361 40.6862 27.9521C39.5022 25.9681 38.9102 23.7121 38.9102 21.1841C38.9102 18.6241 39.5022 16.3681 40.6862 14.4161C41.8702 12.4321 43.4862 10.8801 45.5342 9.76008C47.5822 8.64008 49.9182 8.08008 52.5422 8.08008C55.1982 8.08008 57.5502 8.64008 59.5982 9.76008C61.6782 10.8801 63.2942 12.4161 64.4462 14.3681C65.6302 16.3201 66.2222 18.5921 66.2222 21.1841C66.2222 23.7121 65.6302 25.9681 64.4462 27.9521C63.2942 29.9361 61.6782 31.5041 59.5982 32.6561C57.5502 33.7761 55.1982 34.3361 52.5422 34.3361ZM52.5422 29.2001C54.0142 29.2001 55.3262 28.8801 56.4782 28.2401C57.6302 27.6001 58.5262 26.6721 59.1662 25.4561C59.8382 24.2401 60.1742 22.8161 60.1742 21.1841C60.1742 19.5201 59.8382 18.0961 59.1662 16.9121C58.5262 15.6961 57.6302 14.7681 56.4782 14.1281C55.3262 13.4881 54.0302 13.1681 52.5902 13.1681C51.1182 13.1681 49.8062 13.4881 48.6542 14.1281C47.5342 14.7681 46.6382 15.6961 45.9662 16.9121C45.2942 18.0961 44.9582 19.5201 44.9582 21.1841C44.9582 22.8161 45.2942 24.2401 45.9662 25.4561C46.6382 26.6721 47.5342 27.6001 48.6542 28.2401C49.8062 28.8801 51.1022 29.2001 52.5422 29.2001Z" fill="#F85F37"/>
<path d="M0.203125 34.0004V0.400391H29.9151V34.0004H23.7711V4.14439L25.2111 5.68039H4.90712L6.34713 4.14439V34.0004H0.203125Z" fill="#F85F37"/>
</svg>
