<svg width="156" height="31" viewBox="0 0 156 31" fill="none" xmlns="http://www.w3.org/2000/svg">
<path d="M148.082 13.3481C150.516 13.3722 152.372 13.9264 153.649 15.0108C154.926 16.0952 155.565 17.6254 155.565 19.6014C155.565 21.6737 154.866 23.2762 153.468 24.4088C152.07 25.5173 150.094 26.0594 147.54 26.0353L139.227 25.9992V6.8418H142.697V13.3119L148.082 13.3481ZM147.251 23.3967C148.817 23.4208 149.998 23.1075 150.793 22.4569C151.613 21.8063 152.022 20.8424 152.022 19.5652C152.022 18.3121 151.625 17.3964 150.829 16.8181C150.034 16.2398 148.841 15.9386 147.251 15.9145L142.697 15.8422V23.3605L147.251 23.3967Z" fill="#F85F37"/>
<path d="M117.923 22.9629L117.127 23.8666V6.8418H120.597V23.8666L119.73 22.9629H129.851L129.019 23.8666V6.8418H132.489V25.9992H105.199V6.8418H108.669V23.8666L107.838 22.9629H117.923ZM132.056 30.0837V25.0956L132.887 25.9992H128.839V22.9629H135.309V30.0837H132.056Z" fill="#F85F37"/>
<path d="M90.2478 26.2171C88.32 26.2171 86.6091 25.7954 85.1151 24.952C83.621 24.1086 82.4403 22.9519 81.5727 21.482C80.7052 19.988 80.2715 18.3011 80.2715 16.4215C80.2715 14.5178 80.7052 12.831 81.5727 11.3611C82.4403 9.89116 83.621 8.74653 85.1151 7.92722C86.6091 7.08381 88.32 6.66211 90.2478 6.66211C92.1515 6.66211 93.8504 7.08381 95.3444 7.92722C96.8625 8.74653 98.0433 9.89116 98.8867 11.3611C99.7542 12.8069 100.188 14.4938 100.188 16.4215C100.188 18.3252 99.7542 20.012 98.8867 21.482C98.0433 22.9519 96.8625 24.1086 95.3444 24.952C93.8504 25.7954 92.1515 26.2171 90.2478 26.2171ZM90.2478 23.1809C91.4768 23.1809 92.5732 22.9037 93.5371 22.3495C94.5251 21.7953 95.2962 21.0121 95.8504 20C96.4047 18.9638 96.6818 17.771 96.6818 16.4215C96.6818 15.048 96.4047 13.8672 95.8504 12.8792C95.2962 11.8671 94.5251 11.084 93.5371 10.5297C92.5732 9.9755 91.4768 9.69838 90.2478 9.69838C89.0188 9.69838 87.9224 9.9755 86.9585 10.5297C85.9946 11.084 85.2235 11.8671 84.6452 12.8792C84.0668 13.8672 83.7777 15.048 83.7777 16.4215C83.7777 17.771 84.0668 18.9638 84.6452 20C85.2235 21.0121 85.9946 21.7953 86.9585 22.3495C87.9224 22.9037 89.0188 23.1809 90.2478 23.1809Z" fill="#F85F37"/>
<path d="M53.2031 25.9992V6.8418H56.7816L65.0229 21.011H63.577L72.0352 6.8418H75.2884V25.9992H72.1437V10.7456L72.722 11.0709L64.9867 23.8304H63.4686L55.6972 10.8179L56.384 10.6733V25.9992H53.2031Z" fill="#F85F37"/>
<path d="M38.2517 26.2171C36.3239 26.2171 34.613 25.7954 33.119 24.952C31.6249 24.1086 30.4442 22.9519 29.5767 21.482C28.7091 19.988 28.2754 18.3011 28.2754 16.4215C28.2754 14.5178 28.7091 12.831 29.5767 11.3611C30.4442 9.89116 31.6249 8.74653 33.119 7.92722C34.613 7.08381 36.3239 6.66211 38.2517 6.66211C40.1554 6.66211 41.8543 7.08381 43.3483 7.92722C44.8664 8.74653 46.0472 9.89116 46.8906 11.3611C47.7581 12.8069 48.1919 14.4938 48.1919 16.4215C48.1919 18.3252 47.7581 20.012 46.8906 21.482C46.0472 22.9519 44.8664 24.1086 43.3483 24.952C41.8543 25.7954 40.1554 26.2171 38.2517 26.2171ZM38.2517 23.1809C39.4807 23.1809 40.5771 22.9037 41.541 22.3495C42.529 21.7953 43.3001 21.0121 43.8543 20C44.4086 18.9638 44.6857 17.771 44.6857 16.4215C44.6857 15.048 44.4086 13.8672 43.8543 12.8792C43.3001 11.8671 42.529 11.084 41.541 10.5297C40.5771 9.9755 39.4807 9.69838 38.2517 9.69838C37.0227 9.69838 35.9263 9.9755 34.9624 10.5297C33.9985 11.084 33.2274 11.8671 32.6491 12.8792C32.0707 13.8672 31.7816 15.048 31.7816 16.4215C31.7816 17.771 32.0707 18.9638 32.6491 20C33.2274 21.0121 33.9985 21.7953 34.9624 22.3495C35.9263 22.9037 37.0227 23.1809 38.2517 23.1809Z" fill="#F85F37"/>
<path d="M0.939453 25.9995V0.697266H22.7355V25.9995H19.1932V2.90217L20.0607 3.84197H3.61426L4.51791 2.90217V25.9995H0.939453Z" fill="#F85F37"/>
</svg>
