<svg width="134" height="25" viewBox="0 0 134 25" fill="none" xmlns="http://www.w3.org/2000/svg">
<path d="M130.418 19.0005V16.0726L130.228 15.4491V10.3254C130.228 9.33141 129.93 8.56331 129.334 8.02112C128.737 7.46085 127.834 7.18072 126.623 7.18072C125.809 7.18072 125.005 7.30723 124.21 7.56025C123.433 7.81328 122.773 8.1657 122.231 8.61753L120.903 6.15056C121.68 5.55415 122.601 5.11136 123.668 4.82219C124.752 4.51495 125.873 4.36133 127.029 4.36133C129.126 4.36133 130.743 4.86737 131.882 5.87946C133.039 6.87348 133.617 8.41872 133.617 10.5152V19.0005H130.418ZM125.864 19.1902C124.779 19.1902 123.83 19.0095 123.017 18.6481C122.204 18.2685 121.571 17.7534 121.119 17.1028C120.686 16.4341 120.469 15.6841 120.469 14.8527C120.469 14.0394 120.659 13.3075 121.038 12.6568C121.436 12.0062 122.077 11.4911 122.963 11.1116C123.848 10.7321 125.023 10.5423 126.487 10.5423H130.689V12.7924H126.731C125.574 12.7924 124.797 12.9822 124.4 13.3617C124.002 13.7232 123.803 14.175 123.803 14.7172C123.803 15.3317 124.047 15.8196 124.535 16.1811C125.023 16.5425 125.701 16.7233 126.568 16.7233C127.4 16.7233 128.141 16.5335 128.791 16.154C129.46 15.7744 129.939 15.2142 130.228 14.4732L130.797 16.5064C130.472 17.3558 129.885 18.0155 129.035 18.4854C128.204 18.9553 127.147 19.1902 125.864 19.1902Z" fill="#163C51"/>
<path d="M115.524 18.9999L110.291 12.0599L113.057 10.352L119.509 18.9999H115.524ZM105.141 18.9999V4.52344H108.529V18.9999H105.141ZM107.526 13.1985V10.3791H112.433V13.1985H107.526ZM113.382 12.1683L110.21 11.7888L115.524 4.52344H119.156L113.382 12.1683Z" fill="#163C51"/>
<path d="M85.3418 18.9728L85.5045 16.1263C85.631 16.1444 85.7484 16.1625 85.8569 16.1805C85.9653 16.1986 86.0647 16.2076 86.1551 16.2076C86.7153 16.2076 87.1491 16.036 87.4563 15.6926C87.7636 15.3492 87.9895 14.8883 88.1341 14.31C88.2967 13.7136 88.4052 13.0539 88.4594 12.331C88.5317 11.59 88.5859 10.849 88.622 10.108L88.866 4.52344H100.577V18.9999H97.1887V6.47532L97.9748 7.39705H91.089L91.821 6.44821L91.6312 10.2707C91.577 11.5538 91.4686 12.7467 91.3059 13.8491C91.1613 14.9335 90.9264 15.8823 90.601 16.6956C90.2938 17.5089 89.8601 18.1415 89.2998 18.5933C88.7576 19.0451 88.0618 19.271 87.2124 19.271C86.9413 19.271 86.6431 19.2439 86.3177 19.1897C86.0105 19.1355 85.6852 19.0632 85.3418 18.9728Z" fill="#163C51"/>
<path d="M73.6149 24.4489C72.9101 24.4489 72.2052 24.3315 71.5004 24.0965C70.7955 23.8616 70.2082 23.5363 69.7383 23.1206L71.0938 20.6265C71.4371 20.9337 71.8257 21.1777 72.2595 21.3585C72.6932 21.5392 73.136 21.6296 73.5878 21.6296C74.2023 21.6296 74.6993 21.4759 75.0789 21.1687C75.4584 20.8615 75.8108 20.3464 76.1361 19.6234L76.9765 17.7258L77.2476 17.3191L82.7237 4.52344H85.9769L79.1995 20.1656C78.7477 21.25 78.2416 22.1085 77.6814 22.741C77.1392 23.3736 76.5247 23.8164 75.8379 24.0694C75.1692 24.3224 74.4282 24.4489 73.6149 24.4489ZM76.597 19.515L70.0636 4.52344H73.5878L78.9013 17.0209L76.597 19.515Z" fill="#163C51"/>
<path d="M58.7051 18.9999V4.52344H69.82V7.39705H61.3076L62.0938 6.63798V18.9999H58.7051Z" fill="#163C51"/>
<path d="M47.6307 19.1902C46.1488 19.1902 44.8294 18.874 43.6728 18.2414C42.5161 17.5908 41.6034 16.7052 40.9347 15.5847C40.266 14.4641 39.9316 13.19 39.9316 11.7622C39.9316 10.3164 40.266 9.04224 40.9347 7.93979C41.6034 6.81926 42.5161 5.94272 43.6728 5.31016C44.8294 4.67761 46.1488 4.36133 47.6307 4.36133C49.1308 4.36133 50.4592 4.67761 51.6158 5.31016C52.7906 5.94272 53.7033 6.81022 54.3539 7.91268C55.0226 9.01513 55.357 10.2983 55.357 11.7622C55.357 13.19 55.0226 14.4641 54.3539 15.5847C53.7033 16.7052 52.7906 17.5908 51.6158 18.2414C50.4592 18.874 49.1308 19.1902 47.6307 19.1902ZM47.6307 16.2895C48.4621 16.2895 49.2031 16.1088 49.8537 15.7473C50.5044 15.3859 51.0104 14.8618 51.3719 14.175C51.7514 13.4882 51.9412 12.684 51.9412 11.7622C51.9412 10.8224 51.7514 10.0182 51.3719 9.34948C51.0104 8.66271 50.5044 8.13859 49.8537 7.77713C49.2031 7.41567 48.4711 7.23494 47.6579 7.23494C46.8265 7.23494 46.0855 7.41567 45.4349 7.77713C44.8023 8.13859 44.2963 8.66271 43.9167 9.34948C43.5372 10.0182 43.3474 10.8224 43.3474 11.7622C43.3474 12.684 43.5372 13.4882 43.9167 14.175C44.2963 14.8618 44.8023 15.3859 45.4349 15.7473C46.0855 16.1088 46.8175 16.2895 47.6307 16.2895Z" fill="#163C51"/>
<path d="M30.46 19.1902C29.2852 19.1902 28.2099 18.9191 27.2339 18.377C26.2761 17.8348 25.508 17.0215 24.9296 15.9371C24.3694 14.8346 24.0892 13.443 24.0892 11.7622C24.0892 10.0634 24.3603 8.67174 24.9025 7.58736C25.4628 6.50298 26.2218 5.69873 27.1797 5.17461C28.1376 4.63242 29.231 4.36133 30.46 4.36133C31.8877 4.36133 33.1438 4.66857 34.2282 5.28305C35.3307 5.89753 36.1982 6.756 36.8307 7.85846C37.4813 8.96091 37.8067 10.2622 37.8067 11.7622C37.8067 13.2623 37.4813 14.5726 36.8307 15.6931C36.1982 16.7956 35.3307 17.654 34.2282 18.2685C33.1438 18.883 31.8877 19.1902 30.46 19.1902ZM22.4355 24.2597V4.52398H25.6616V7.93979L25.5531 11.7893L25.8242 15.6389V24.2597H22.4355ZM30.0804 16.2895C30.8937 16.2895 31.6166 16.1088 32.2492 15.7473C32.8998 15.3859 33.4149 14.8618 33.7944 14.175C34.174 13.4882 34.3637 12.684 34.3637 11.7622C34.3637 10.8224 34.174 10.0182 33.7944 9.34948C33.4149 8.66271 32.8998 8.13859 32.2492 7.77713C31.6166 7.41567 30.8937 7.23494 30.0804 7.23494C29.2671 7.23494 28.5352 7.41567 27.8846 7.77713C27.2339 8.13859 26.7189 8.66271 26.3393 9.34948C25.9598 10.0182 25.77 10.8224 25.77 11.7622C25.77 12.684 25.9598 13.4882 26.3393 14.175C26.7189 14.8618 27.2339 15.3859 27.8846 15.7473C28.5352 16.1088 29.2671 16.2895 30.0804 16.2895Z" fill="#163C51"/>
<path d="M0.683594 19.0001V0.0234375H17.4644V19.0001H13.9944V2.13798L14.8077 3.00549H3.34033L4.15361 2.13798V19.0001H0.683594Z" fill="#163C51"/>
</svg>
