<svg width="177" height="22" viewBox="0 0 177 22" fill="none" xmlns="http://www.w3.org/2000/svg">
<path d="M162.41 20.7867V6.31019H165.799V15.8527L173.796 6.31019H176.887V20.7867H173.498V11.2441L165.528 20.7867H162.41ZM169.432 4.60229C167.986 4.60229 166.874 4.26794 166.097 3.59924C165.32 2.91246 164.922 1.91844 164.904 0.617188H167.154C167.172 1.26782 167.371 1.7829 167.751 2.16243C168.148 2.54196 168.7 2.73173 169.404 2.73173C170.091 2.73173 170.633 2.54196 171.031 2.16243C171.447 1.7829 171.664 1.26782 171.682 0.617188H173.986C173.968 1.91844 173.561 2.91246 172.766 3.59924C171.989 4.26794 170.877 4.60229 169.432 4.60229Z" fill="#163C51"/>
<path d="M143.377 20.787V6.31055H146.766V15.8531L154.763 6.31055H157.853V20.787H154.465V11.2445L146.495 20.787H143.377Z" fill="#163C51"/>
<path d="M124.766 20.787V6.31055H128.154V12.1933H135.447V6.31055H138.835V20.787H135.447V15.0669H128.154V20.787H124.766Z" fill="#163C51"/>
<path d="M117.373 20.7876V17.8598L117.183 17.2362V12.1125C117.183 11.1185 116.885 10.3504 116.289 9.80822C115.692 9.24796 114.789 8.96783 113.578 8.96783C112.764 8.96783 111.96 9.09434 111.165 9.34736C110.388 9.60038 109.728 9.95281 109.186 10.4046L107.858 7.93767C108.635 7.34126 109.556 6.89847 110.623 6.6093C111.707 6.30206 112.828 6.14844 113.984 6.14844C116.081 6.14844 117.698 6.65448 118.837 7.66657C119.994 8.66059 120.572 10.2058 120.572 12.3023V20.7876H117.373ZM112.819 20.9774C111.734 20.9774 110.785 20.7966 109.972 20.4352C109.159 20.0556 108.526 19.5405 108.074 18.8899C107.641 18.2212 107.424 17.4712 107.424 16.6398C107.424 15.8265 107.614 15.0946 107.993 14.444C108.391 13.7933 109.032 13.2782 109.918 12.8987C110.803 12.5192 111.978 12.3294 113.442 12.3294H117.644V14.5795H113.686C112.529 14.5795 111.752 14.7693 111.355 15.1488C110.957 15.5103 110.758 15.9621 110.758 16.5043C110.758 17.1188 111.002 17.6067 111.49 17.9682C111.978 18.3297 112.656 18.5104 113.523 18.5104C114.355 18.5104 115.096 18.3206 115.746 17.9411C116.415 17.5616 116.894 17.0013 117.183 16.2603L117.753 18.2935C117.427 19.1429 116.84 19.8026 115.99 20.2725C115.159 20.7424 114.102 20.9774 112.819 20.9774Z" fill="#163C51"/>
<path d="M89.9785 20.787V6.31055H93.3672V12.1933H100.66V6.31055H104.048V20.787H100.66V15.0669H93.3672V20.787H89.9785Z" fill="#163C51"/>
<path d="M79.5755 21.031C78.473 21.031 77.3796 20.9045 76.2952 20.6515C75.2289 20.3804 74.262 20.0008 73.3945 19.5129L74.3434 16.9917C75.0482 17.3893 75.8434 17.6965 76.729 17.9134C77.6146 18.1303 78.5002 18.2387 79.3857 18.2387C80.1448 18.2387 80.7954 18.1664 81.3376 18.0218C81.8798 17.8592 82.2955 17.6242 82.5847 17.317C82.8919 17.0098 83.0455 16.6573 83.0455 16.2597C83.0455 15.6814 82.7925 15.2476 82.2865 14.9585C81.7985 14.6512 81.0936 14.4976 80.1719 14.4976H77.3796V12.2204H79.9008C80.4792 12.2204 80.9671 12.1571 81.3647 12.0306C81.7804 11.9041 82.0967 11.7144 82.3136 11.4613C82.5304 11.2083 82.6389 10.9101 82.6389 10.5667C82.6389 10.2233 82.5033 9.92513 82.2322 9.67211C81.9792 9.40101 81.6087 9.20221 81.1207 9.0757C80.6328 8.93111 80.0454 8.85882 79.3586 8.85882C78.6357 8.85882 77.8857 8.94919 77.1085 9.12992C76.3495 9.31065 75.5723 9.57271 74.7771 9.9161L73.9096 7.42202C74.8313 7.00634 75.7259 6.69006 76.5935 6.47318C77.479 6.23824 78.3556 6.11172 79.2231 6.09365C80.5424 6.03943 81.7172 6.17498 82.7473 6.50029C83.7775 6.82561 84.5908 7.29551 85.1872 7.90999C85.7836 8.52447 86.0818 9.24739 86.0818 10.0788C86.0818 10.7655 85.8649 11.389 85.4312 11.9493C85.0155 12.4915 84.4371 12.9162 83.6962 13.2235C82.9732 13.5307 82.1419 13.6843 81.2021 13.6843L81.3105 12.9524C82.919 12.9524 84.1841 13.2777 85.1059 13.9283C86.0276 14.5609 86.4884 15.4284 86.4884 16.5308C86.4884 17.4164 86.1902 18.2026 85.5938 18.8894C84.9974 19.5581 84.1751 20.0822 83.1268 20.4617C82.0967 20.8412 80.9129 21.031 79.5755 21.031Z" fill="#163C51"/>
<path d="M60.1094 20.7876V17.8598L59.9196 17.2362V12.1125C59.9196 11.1185 59.6214 10.3504 59.025 9.80822C58.4286 9.24796 57.5249 8.96783 56.314 8.96783C55.5007 8.96783 54.6965 9.09434 53.9013 9.34736C53.1241 9.60038 52.4645 9.95281 51.9223 10.4046L50.5939 7.93767C51.371 7.34126 52.2928 6.89847 53.3591 6.6093C54.4435 6.30206 55.564 6.14844 56.7207 6.14844C58.8171 6.14844 60.4347 6.65448 61.5733 7.66657C62.7299 8.66059 63.3083 10.2058 63.3083 12.3023V20.7876H60.1094ZM55.555 20.9774C54.4706 20.9774 53.5217 20.7966 52.7085 20.4352C51.8952 20.0556 51.2626 19.5405 50.8108 18.8899C50.377 18.2212 50.1602 17.4712 50.1602 16.6398C50.1602 15.8265 50.3499 15.0946 50.7295 14.444C51.1271 13.7933 51.7687 13.2782 52.6542 12.8987C53.5398 12.5192 54.7146 12.3294 56.1785 12.3294H60.3805V14.5795H56.4225C55.2658 14.5795 54.4886 14.7693 54.091 15.1488C53.6934 15.5103 53.4946 15.9621 53.4946 16.5043C53.4946 17.1188 53.7386 17.6067 54.2266 17.9682C54.7146 18.3297 55.3923 18.5104 56.2598 18.5104C57.0912 18.5104 57.8322 18.3206 58.4828 17.9411C59.1515 17.5616 59.6304 17.0013 59.9196 16.2603L60.4889 18.2935C60.1636 19.1429 59.5762 19.8026 58.7268 20.2725C57.8954 20.7424 56.8381 20.9774 55.555 20.9774Z" fill="#163C51"/>
<path d="M40.9232 21.031C39.8207 21.031 38.7273 20.9045 37.6429 20.6515C36.5766 20.3804 35.6097 20.0008 34.7422 19.5129L35.691 16.9917C36.3959 17.3893 37.1911 17.6965 38.0767 17.9134C38.9622 18.1303 39.8478 18.2387 40.7334 18.2387C41.4925 18.2387 42.1431 18.1664 42.6853 18.0218C43.2275 17.8592 43.6432 17.6242 43.9323 17.317C44.2396 17.0098 44.3932 16.6573 44.3932 16.2597C44.3932 15.6814 44.1402 15.2476 43.6341 14.9585C43.1461 14.6512 42.4413 14.4976 41.5196 14.4976H38.7273V12.2204H41.2485C41.8268 12.2204 42.3148 12.1571 42.7124 12.0306C43.1281 11.9041 43.4443 11.7144 43.6612 11.4613C43.8781 11.2083 43.9865 10.9101 43.9865 10.5667C43.9865 10.2233 43.851 9.92513 43.5799 9.67211C43.3269 9.40101 42.9564 9.20221 42.4684 9.0757C41.9804 8.93111 41.3931 8.85882 40.7063 8.85882C39.9834 8.85882 39.2333 8.94919 38.4562 9.12992C37.6971 9.31065 36.92 9.57271 36.1248 9.9161L35.2573 7.42202C36.179 7.00634 37.0736 6.69006 37.9411 6.47318C38.8267 6.23824 39.7032 6.11172 40.5707 6.09365C41.8901 6.03943 43.0648 6.17498 44.095 6.50029C45.1251 6.82561 45.9384 7.29551 46.5348 7.90999C47.1312 8.52447 47.4295 9.24739 47.4295 10.0788C47.4295 10.7655 47.2126 11.389 46.7788 11.9493C46.3631 12.4915 45.7848 12.9162 45.0438 13.2235C44.3209 13.5307 43.4895 13.6843 42.5497 13.6843L42.6582 12.9524C44.2667 12.9524 45.5318 13.2777 46.4535 13.9283C47.3752 14.5609 47.8361 15.4284 47.8361 16.5308C47.8361 17.4164 47.5379 18.2026 46.9415 18.8894C46.3451 19.5581 45.5227 20.0822 44.4745 20.4617C43.4443 20.8412 42.2606 21.031 40.9232 21.031Z" fill="#163C51"/>
<path d="M29.1347 20.7876V17.8598L28.945 17.2362V12.1125C28.945 11.1185 28.6468 10.3504 28.0504 9.80822C27.454 9.24796 26.5503 8.96783 25.3394 8.96783C24.5261 8.96783 23.7219 9.09434 22.9267 9.34736C22.1495 9.60038 21.4899 9.95281 20.9477 10.4046L19.6193 7.93767C20.3964 7.34126 21.3182 6.89847 22.3845 6.6093C23.4689 6.30206 24.5894 6.14844 25.7461 6.14844C27.8425 6.14844 29.4601 6.65448 30.5987 7.66657C31.7553 8.66059 32.3337 10.2058 32.3337 12.3023V20.7876H29.1347ZM24.5803 20.9774C23.496 20.9774 22.5471 20.7966 21.7338 20.4352C20.9206 20.0556 20.288 19.5405 19.8362 18.8899C19.4024 18.2212 19.1855 17.4712 19.1855 16.6398C19.1855 15.8265 19.3753 15.0946 19.7548 14.444C20.1525 13.7933 20.794 13.2782 21.6796 12.8987C22.5652 12.5192 23.74 12.3294 25.2039 12.3294H29.4058V14.5795H25.4478C24.2912 14.5795 23.514 14.7693 23.1164 15.1488C22.7188 15.5103 22.52 15.9621 22.52 16.5043C22.52 17.1188 22.764 17.6067 23.252 17.9682C23.7399 18.3297 24.4177 18.5104 25.2852 18.5104C26.1166 18.5104 26.8575 18.3206 27.5082 17.9411C28.1769 17.5616 28.6558 17.0013 28.945 16.2603L29.5143 18.2935C29.189 19.1429 28.6016 19.8026 27.7522 20.2725C26.9208 20.7424 25.8635 20.9774 24.5803 20.9774Z" fill="#163C51"/>
<path d="M0.822266 20.7872V1.81055H15.597V4.71127H4.29229V9.37411H9.90396C12.1812 9.37411 13.9071 9.85304 15.0819 10.8109C16.2747 11.7507 16.8711 13.1243 16.8711 14.9316C16.8711 16.7931 16.2114 18.2389 14.8921 19.2691C13.5909 20.2812 11.7474 20.7872 9.36177 20.7872H0.822266ZM4.29229 18.0763H9.172C10.5275 18.0763 11.5576 17.8142 12.2625 17.2901C12.9673 16.766 13.3198 16.0069 13.3198 15.0129C13.3198 13.061 11.9372 12.0851 9.172 12.0851H4.29229V18.0763Z" fill="#163C51"/>
</svg>
