<svg width="165" height="26" viewBox="0 0 165 26" fill="none" xmlns="http://www.w3.org/2000/svg">
<path d="M161.676 19.7876V16.8598L161.486 16.2362V11.1125C161.486 10.1185 161.188 9.35042 160.591 8.80822C159.995 8.24796 159.091 7.96783 157.88 7.96783C157.067 7.96783 156.263 8.09434 155.468 8.34736C154.691 8.60038 154.031 8.95281 153.489 9.40463L152.16 6.93767C152.937 6.34126 153.859 5.89847 154.925 5.6093C156.01 5.30206 157.13 5.14844 158.287 5.14844C160.384 5.14844 162.001 5.65448 163.14 6.66657C164.296 7.66059 164.875 9.20583 164.875 11.3023V19.7876H161.676ZM157.121 19.9774C156.037 19.9774 155.088 19.7966 154.275 19.4352C153.462 19.0556 152.829 18.5405 152.377 17.8899C151.943 17.2212 151.727 16.4712 151.727 15.6398C151.727 14.8265 151.916 14.0946 152.296 13.444C152.693 12.7933 153.335 12.2782 154.221 11.8987C155.106 11.5192 156.281 11.3294 157.745 11.3294H161.947V13.5795H157.989C156.832 13.5795 156.055 13.7693 155.657 14.1488C155.26 14.5103 155.061 14.9621 155.061 15.5043C155.061 16.1188 155.305 16.6067 155.793 16.9682C156.281 17.3297 156.959 17.5104 157.826 17.5104C158.658 17.5104 159.399 17.3206 160.049 16.9411C160.718 16.5616 161.197 16.0013 161.486 15.2603L162.055 17.2935C161.73 18.1429 161.143 18.8026 160.293 19.2725C159.462 19.7424 158.405 19.9774 157.121 19.9774Z" fill="#163C51"/>
<path d="M146.781 19.787L141.549 12.847L144.314 11.1391L150.766 19.787H146.781ZM136.398 19.787V5.31055H139.787V19.787H136.398ZM138.784 13.9856V11.1662H143.691V13.9856H138.784ZM144.64 12.9554L141.468 12.5759L146.781 5.31055H150.414L144.64 12.9554Z" fill="#163C51"/>
<path d="M129.841 19.787L125.612 12.847L128.377 11.1391L133.88 19.787H129.841ZM122.874 13.9856V11.1662H127.727V13.9856H122.874ZM128.702 12.9554L125.504 12.5759L129.895 5.31055H133.501L128.702 12.9554ZM114.551 19.787H110.539L116.015 11.1391L118.78 12.847L114.551 19.787ZM123.877 19.787H120.515V5.31055H123.877V19.787ZM121.518 13.9856H116.693V11.1662H121.518V13.9856ZM115.69 12.9554L110.891 5.31055H114.497L118.862 12.5759L115.69 12.9554Z" fill="#163C51"/>
<path d="M102.329 19.9774C101.154 19.9774 100.079 19.7063 99.1031 19.1641C98.1452 18.6219 97.3771 17.8086 96.7988 16.7242C96.2385 15.6218 95.9584 14.2301 95.9584 12.5493C95.9584 10.8505 96.2295 9.45885 96.7717 8.37447C97.3319 7.29009 98.091 6.48584 99.0489 5.96172C100.007 5.41953 101.1 5.14844 102.329 5.14844C103.757 5.14844 105.013 5.45568 106.097 6.07016C107.2 6.68464 108.067 7.54311 108.7 8.64557C109.35 9.74802 109.676 11.0493 109.676 12.5493C109.676 14.0494 109.35 15.3597 108.7 16.4802C108.067 17.5827 107.2 18.4411 106.097 19.0556C105.013 19.6701 103.757 19.9774 102.329 19.9774ZM94.3047 25.0468V5.31109H97.5307V8.7269L97.4223 12.5765L97.6934 16.426V25.0468H94.3047ZM101.95 17.0766C102.763 17.0766 103.486 16.8959 104.118 16.5344C104.769 16.173 105.284 15.6489 105.664 14.9621C106.043 14.2753 106.233 13.4711 106.233 12.5493C106.233 11.6095 106.043 10.8053 105.664 10.1366C105.284 9.44982 104.769 8.9257 104.118 8.56424C103.486 8.20278 102.763 8.02205 101.95 8.02205C101.136 8.02205 100.404 8.20278 99.7537 8.56424C99.1031 8.9257 98.588 9.44982 98.2085 10.1366C97.8289 10.8053 97.6392 11.6095 97.6392 12.5493C97.6392 13.4711 97.8289 14.2753 98.2085 14.9621C98.588 15.6489 99.1031 16.173 99.7537 16.5344C100.404 16.8959 101.136 17.0766 101.95 17.0766Z" fill="#163C51"/>
<path d="M83.7942 19.9774C82.1857 19.9774 80.776 19.6611 79.5651 19.0285C78.3723 18.3779 77.4415 17.4923 76.7728 16.3718C76.1222 15.2513 75.7969 13.9771 75.7969 12.5493C75.7969 11.1035 76.1132 9.82935 76.7457 8.7269C77.3963 7.60637 78.2819 6.72983 79.4024 6.09727C80.541 5.46472 81.8333 5.14844 83.2791 5.14844C84.6888 5.14844 85.9449 5.45568 87.0473 6.07016C88.1498 6.68464 89.0173 7.55215 89.6498 8.67268C90.2824 9.7932 90.5987 11.1125 90.5987 12.6307C90.5987 12.7753 90.5896 12.9379 90.5716 13.1186C90.5716 13.2994 90.5625 13.4711 90.5445 13.6337H78.4807V11.3836H88.7552L87.4269 12.0885C87.4449 11.2571 87.2732 10.5252 86.9118 9.89261C86.5503 9.26005 86.0533 8.76304 85.4208 8.40158C84.8063 8.04012 84.0924 7.85939 83.2791 7.85939C82.4477 7.85939 81.7158 8.04012 81.0832 8.40158C80.4688 8.76304 79.9808 9.26909 79.6193 9.91972C79.2759 10.5523 79.1042 11.3023 79.1042 12.1698V12.712C79.1042 13.5795 79.303 14.3476 79.7007 15.0163C80.0983 15.685 80.6585 16.2001 81.3814 16.5616C82.1044 16.923 82.9357 17.1037 83.8755 17.1037C84.6888 17.1037 85.4208 16.9772 86.0714 16.7242C86.722 16.4712 87.3004 16.0736 87.8064 15.5314L89.6227 17.6188C88.9721 18.3779 88.1498 18.9653 87.1558 19.3809C86.1798 19.7786 85.0593 19.9774 83.7942 19.9774Z" fill="#163C51"/>
<path d="M68.4866 18.2147V8.18416H62.9291L62.8478 10.5156C62.8116 11.3469 62.7574 12.1512 62.6851 12.9283C62.6128 13.6874 62.4954 14.3922 62.3327 15.0429C62.17 15.6754 61.9351 16.1995 61.6278 16.6152C61.3206 17.0309 60.914 17.302 60.4079 17.4285L57.0463 16.9134C57.5885 16.9134 58.0223 16.7417 58.3476 16.3983C58.691 16.0369 58.953 15.5489 59.1338 14.9344C59.3326 14.3019 59.4772 13.588 59.5675 12.7928C59.6579 11.9795 59.7211 11.1391 59.7573 10.2716L59.9471 5.31055H71.8753V18.2147H68.4866ZM56.5312 23.0131V16.9134H74.0169V23.0131H70.8451V19.787H59.676V23.0131H56.5312Z" fill="#163C51"/>
<path d="M50.008 18.2147V8.18416H44.4506L44.3693 10.5156C44.3331 11.3469 44.2789 12.1512 44.2066 12.9283C44.1343 13.6874 44.0168 14.3922 43.8542 15.0429C43.6915 15.6754 43.4566 16.1995 43.1493 16.6152C42.8421 17.0309 42.4354 17.302 41.9294 17.4285L38.5678 16.9134C39.11 16.9134 39.5438 16.7417 39.8691 16.3983C40.2125 16.0369 40.4745 15.5489 40.6553 14.9344C40.8541 14.3019 40.9986 13.588 41.089 12.7928C41.1794 11.9795 41.2426 11.1391 41.2788 10.2716L41.4685 5.31055H53.3967V18.2147H50.008ZM38.0527 23.0131V16.9134H55.5384V23.0131H52.3666V19.787H41.1974V23.0131H38.0527Z" fill="#163C51"/>
<path d="M29.1718 19.9774C27.6898 19.9774 26.3704 19.6611 25.2138 19.0285C24.0571 18.3779 23.1444 17.4923 22.4757 16.3718C21.807 15.2513 21.4727 13.9771 21.4727 12.5493C21.4727 11.1035 21.807 9.82935 22.4757 8.7269C23.1444 7.60637 24.0571 6.72983 25.2138 6.09727C26.3704 5.46472 27.6898 5.14844 29.1718 5.14844C30.6718 5.14844 32.0002 5.46472 33.1569 6.09727C34.3316 6.72983 35.2443 7.59733 35.8949 8.69979C36.5636 9.80224 36.898 11.0854 36.898 12.5493C36.898 13.9771 36.5636 15.2513 35.8949 16.3718C35.2443 17.4923 34.3316 18.3779 33.1569 19.0285C32.0002 19.6611 30.6718 19.9774 29.1718 19.9774ZM29.1718 17.0766C30.0031 17.0766 30.7441 16.8959 31.3947 16.5344C32.0454 16.173 32.5514 15.6489 32.9129 14.9621C33.2924 14.2753 33.4822 13.4711 33.4822 12.5493C33.4822 11.6095 33.2924 10.8053 32.9129 10.1366C32.5514 9.44982 32.0454 8.9257 31.3947 8.56424C30.7441 8.20278 30.0122 8.02205 29.1989 8.02205C28.3675 8.02205 27.6265 8.20278 26.9759 8.56424C26.3433 8.9257 25.8373 9.44982 25.4578 10.1366C25.0782 10.8053 24.8885 11.6095 24.8885 12.5493C24.8885 13.4711 25.0782 14.2753 25.4578 14.9621C25.8373 15.6489 26.3433 16.173 26.9759 16.5344C27.6265 16.8959 28.3585 17.0766 29.1718 17.0766Z" fill="#163C51"/>
<path d="M0.966797 19.7872V0.810547H17.7476V19.7872H14.2776V2.92509L15.0909 3.7926H3.62353L4.43682 2.92509V19.7872H0.966797Z" fill="#163C51"/>
</svg>
