<svg width="199" height="25" viewBox="0 0 199 25" fill="none" xmlns="http://www.w3.org/2000/svg">
<path d="M195.078 18.9999V14.066L195.566 14.6353H191.228C189.24 14.6353 187.677 14.2196 186.539 13.3883C185.418 12.5388 184.858 11.3189 184.858 9.72847C184.858 8.0296 185.454 6.73738 186.647 5.85181C187.858 4.96623 189.466 4.52344 191.472 4.52344H198.114V18.9999H195.078ZM184.668 18.9999L188.572 13.4696H192.042L188.301 18.9999H184.668ZM195.078 12.9816V6.47532L195.566 7.36994H191.581C190.533 7.36994 189.719 7.56874 189.141 7.96635C188.581 8.34588 188.301 8.9694 188.301 9.83691C188.301 11.4635 189.358 12.2768 191.472 12.2768H195.566L195.078 12.9816Z" fill="#163C51"/>
<path d="M166.852 18.9999V4.52344H170.24V14.066L178.238 4.52344H181.328V18.9999H177.939V9.45737L169.969 18.9999H166.852Z" fill="#163C51"/>
<path d="M155.936 18.9999V6.58376L156.723 7.39705H150.84V4.52344H164.395V7.39705H158.539L159.325 6.58376V18.9999H155.936Z" fill="#163C51"/>
<path d="M145.332 18.9999V14.066L145.82 14.6353H141.482C139.494 14.6353 137.931 14.2196 136.792 13.3883C135.672 12.5388 135.112 11.3189 135.112 9.72847C135.112 8.0296 135.708 6.73738 136.901 5.85181C138.112 4.96623 139.72 4.52344 141.726 4.52344H148.368V18.9999H145.332ZM134.922 18.9999L138.826 13.4696H142.296L138.555 18.9999H134.922ZM145.332 12.9816V6.47532L145.82 7.36994H141.835C140.787 7.36994 139.973 7.56874 139.395 7.96635C138.835 8.34588 138.555 8.9694 138.555 9.83691C138.555 11.4635 139.612 12.2768 141.726 12.2768H145.82L145.332 12.9816Z" fill="#163C51"/>
<path d="M117.107 18.9999V4.52344H120.496V14.066L128.493 4.52344H131.584V18.9999H128.195V9.45737L120.225 18.9999H117.107Z" fill="#163C51"/>
<path d="M106.388 19.1902C105.213 19.1902 104.138 18.9191 103.162 18.377C102.204 17.8348 101.436 17.0215 100.857 15.9371C100.297 14.8346 100.017 13.443 100.017 11.7622C100.017 10.0634 100.288 8.67174 100.83 7.58736C101.391 6.50298 102.15 5.69873 103.107 5.17461C104.065 4.63242 105.159 4.36133 106.388 4.36133C107.815 4.36133 109.072 4.66857 110.156 5.28305C111.258 5.89753 112.126 6.756 112.758 7.85846C113.409 8.96091 113.734 10.2622 113.734 11.7622C113.734 13.2623 113.409 14.5726 112.758 15.6931C112.126 16.7956 111.258 17.654 110.156 18.2685C109.072 18.883 107.815 19.1902 106.388 19.1902ZM98.3633 24.2597V4.52398H101.589V7.93979L101.481 11.7893L101.752 15.6389V24.2597H98.3633ZM106.008 16.2895C106.821 16.2895 107.544 16.1088 108.177 15.7473C108.828 15.3859 109.343 14.8618 109.722 14.175C110.102 13.4882 110.291 12.684 110.291 11.7622C110.291 10.8224 110.102 10.0182 109.722 9.34948C109.343 8.66271 108.828 8.13859 108.177 7.77713C107.544 7.41567 106.821 7.23494 106.008 7.23494C105.195 7.23494 104.463 7.41567 103.812 7.77713C103.162 8.13859 102.647 8.66271 102.267 9.34948C101.888 10.0182 101.698 10.8224 101.698 11.7622C101.698 12.684 101.888 13.4882 102.267 14.175C102.647 14.8618 103.162 15.3859 103.812 15.7473C104.463 16.1088 105.195 16.2895 106.008 16.2895Z" fill="#163C51"/>
<path d="M79.9121 18.9999V4.52344H93.7922V18.9999H90.4306V6.61087L91.2168 7.39705H82.5146L83.3008 6.61087V18.9999H79.9121Z" fill="#163C51"/>
<path d="M68.8378 19.1902C67.3558 19.1902 66.0365 18.874 64.8798 18.2414C63.7231 17.5908 62.8104 16.7052 62.1417 15.5847C61.473 14.4641 61.1387 13.19 61.1387 11.7622C61.1387 10.3164 61.473 9.04224 62.1417 7.93979C62.8104 6.81926 63.7231 5.94272 64.8798 5.31016C66.0365 4.67761 67.3558 4.36133 68.8378 4.36133C70.3378 4.36133 71.6662 4.67761 72.8229 5.31016C73.9976 5.94272 74.9103 6.81022 75.5609 7.91268C76.2296 9.01513 76.564 10.2983 76.564 11.7622C76.564 13.19 76.2296 14.4641 75.5609 15.5847C74.9103 16.7052 73.9976 17.5908 72.8229 18.2414C71.6662 18.874 70.3378 19.1902 68.8378 19.1902ZM68.8378 16.2895C69.6691 16.2895 70.4101 16.1088 71.0608 15.7473C71.7114 15.3859 72.2174 14.8618 72.5789 14.175C72.9584 13.4882 73.1482 12.684 73.1482 11.7622C73.1482 10.8224 72.9584 10.0182 72.5789 9.34948C72.2174 8.66271 71.7114 8.13859 71.0608 7.77713C70.4101 7.41567 69.6782 7.23494 68.8649 7.23494C68.0335 7.23494 67.2925 7.41567 66.6419 7.77713C66.0094 8.13859 65.5033 8.66271 65.1238 9.34948C64.7442 10.0182 64.5545 10.8224 64.5545 11.7622C64.5545 12.684 64.7442 13.4882 65.1238 14.175C65.5033 14.8618 66.0094 15.3859 66.6419 15.7473C67.2925 16.1088 68.0245 16.2895 68.8378 16.2895Z" fill="#163C51"/>
<path d="M51.665 19.1902C50.4903 19.1902 49.415 18.9191 48.439 18.377C47.4811 17.8348 46.713 17.0215 46.1347 15.9371C45.5744 14.8346 45.2943 13.443 45.2943 11.7622C45.2943 10.0634 45.5654 8.67174 46.1076 7.58736C46.6679 6.50298 47.4269 5.69873 48.3848 5.17461C49.3427 4.63242 50.4361 4.36133 51.665 4.36133C53.0928 4.36133 54.3489 4.66857 55.4333 5.28305C56.5357 5.89753 57.4032 6.756 58.0358 7.85846C58.6864 8.96091 59.0117 10.2622 59.0117 11.7622C59.0117 13.2623 58.6864 14.5726 58.0358 15.6931C57.4032 16.7956 56.5357 17.654 55.4333 18.2685C54.3489 18.883 53.0928 19.1902 51.665 19.1902ZM43.6406 24.2597V4.52398H46.8667V7.93979L46.7582 11.7893L47.0293 15.6389V24.2597H43.6406ZM51.2855 16.2895C52.0988 16.2895 52.8217 16.1088 53.4543 15.7473C54.1049 15.3859 54.62 14.8618 54.9995 14.175C55.3791 13.4882 55.5688 12.684 55.5688 11.7622C55.5688 10.8224 55.3791 10.0182 54.9995 9.34948C54.62 8.66271 54.1049 8.13859 53.4543 7.77713C52.8217 7.41567 52.0988 7.23494 51.2855 7.23494C50.4722 7.23494 49.7403 7.41567 49.0896 7.77713C48.439 8.13859 47.9239 8.66271 47.5444 9.34948C47.1649 10.0182 46.9751 10.8224 46.9751 11.7622C46.9751 12.684 47.1649 13.4882 47.5444 14.175C47.9239 14.8618 48.439 15.3859 49.0896 15.7473C49.7403 16.1088 50.4722 16.2895 51.2855 16.2895Z" fill="#163C51"/>
<path d="M33.1301 19.1902C31.5216 19.1902 30.1119 18.874 28.901 18.2414C27.7082 17.5908 26.7775 16.7052 26.1088 15.5847C25.4581 14.4641 25.1328 13.19 25.1328 11.7622C25.1328 10.3164 25.4491 9.04224 26.0816 7.93979C26.7323 6.81926 27.6179 5.94272 28.7384 5.31016C29.877 4.67761 31.1692 4.36133 32.615 4.36133C34.0247 4.36133 35.2808 4.66857 36.3833 5.28305C37.4857 5.89753 38.3532 6.76504 38.9858 7.88557C39.6183 9.00609 39.9346 10.3254 39.9346 11.8436C39.9346 11.9881 39.9256 12.1508 39.9075 12.3315C39.9075 12.5123 39.8985 12.684 39.8804 12.8466H27.8167V10.5965H38.0912L36.7628 11.3014C36.7809 10.47 36.6092 9.73805 36.2477 9.1055C35.8863 8.47294 35.3893 7.97593 34.7567 7.61447C34.1422 7.25301 33.4283 7.07228 32.615 7.07228C31.7837 7.07228 31.0517 7.25301 30.4192 7.61447C29.8047 7.97593 29.3167 8.48198 28.9553 9.13261C28.6119 9.76516 28.4402 10.5152 28.4402 11.3827V11.9249C28.4402 12.7924 28.639 13.5605 29.0366 14.2292C29.4342 14.8979 29.9945 15.413 30.7174 15.7744C31.4403 16.1359 32.2717 16.3166 33.2115 16.3166C34.0247 16.3166 34.7567 16.1901 35.4073 15.9371C36.058 15.6841 36.6363 15.2865 37.1423 14.7443L38.9587 16.8317C38.308 17.5908 37.4857 18.1782 36.4917 18.5938C35.5158 18.9914 34.3952 19.1902 33.1301 19.1902Z" fill="#163C51"/>
<path d="M0.683594 19.0001V0.0234375H3.5572L11.8798 13.8764H10.3346L18.5217 0.0234375H21.3953L21.4495 19.0001H18.0879L18.0608 5.25558H18.7657L11.8256 16.8314H10.2533L3.20478 5.25558H4.01807V19.0001H0.683594Z" fill="#163C51"/>
</svg>
