<svg width="175" height="17" viewBox="0 0 175 17" fill="none" xmlns="http://www.w3.org/2000/svg">
<path d="M169.099 16V6.36L169.459 6.74H165.119V5.5H174.499V6.74H170.159L170.519 6.36V16H169.099Z" fill="white"/>
<path d="M159.704 16.1004C158.61 16.1004 157.65 15.8737 156.824 15.4204C155.997 14.9537 155.35 14.3204 154.884 13.5204C154.417 12.7071 154.184 11.7804 154.184 10.7404C154.184 9.70039 154.404 8.78039 154.844 7.98039C155.297 7.18039 155.91 6.55372 156.684 6.10039C157.47 5.63372 158.35 5.40039 159.324 5.40039C160.31 5.40039 161.184 5.62706 161.944 6.08039C162.717 6.52039 163.324 7.14706 163.764 7.96039C164.204 8.76039 164.424 9.68706 164.424 10.7404C164.424 10.8071 164.417 10.8804 164.404 10.9604C164.404 11.0271 164.404 11.1004 164.404 11.1804H155.264V10.1204H163.644L163.084 10.5404C163.084 9.78039 162.917 9.10706 162.584 8.52039C162.264 7.92039 161.824 7.45372 161.264 7.12039C160.704 6.78706 160.057 6.62039 159.324 6.62039C158.604 6.62039 157.957 6.78706 157.384 7.12039C156.81 7.45372 156.364 7.92039 156.044 8.52039C155.724 9.12039 155.564 9.80706 155.564 10.5804V10.8004C155.564 11.6004 155.737 12.3071 156.084 12.9204C156.444 13.5204 156.937 13.9937 157.564 14.3404C158.204 14.6737 158.93 14.8404 159.744 14.8404C160.384 14.8404 160.977 14.7271 161.524 14.5004C162.084 14.2737 162.564 13.9271 162.964 13.4604L163.764 14.3804C163.297 14.9404 162.71 15.3671 162.004 15.6604C161.31 15.9537 160.544 16.1004 159.704 16.1004Z" fill="white"/>
<path d="M141.709 16V5.5H143.129V10.14H149.749V5.5H151.169V16H149.749V11.36H143.129V16H141.709Z" fill="white"/>
<path d="M127.939 16V5.5H129.359V13.84L136.379 5.5H137.639V16H136.219V7.64L129.219 16H127.939Z" fill="white"/>
<path d="M119.476 16.1203C118.622 16.1203 117.862 15.9803 117.196 15.7003C116.542 15.4203 115.982 14.9936 115.516 14.4203C115.049 13.847 114.696 13.1403 114.456 12.3003C114.216 11.447 114.096 10.4603 114.096 9.34031C114.096 8.34031 114.189 7.46698 114.376 6.72031C114.562 5.96031 114.822 5.30698 115.156 4.76031C115.489 4.21365 115.876 3.75365 116.316 3.38031C116.769 2.99365 117.256 2.68698 117.776 2.46031C118.309 2.22031 118.856 2.04031 119.416 1.92031L124.136 0.820312L124.376 2.14031L119.936 3.14031C119.656 3.20698 119.316 3.30031 118.916 3.42031C118.529 3.54031 118.129 3.72031 117.716 3.96031C117.316 4.20031 116.942 4.53365 116.596 4.96031C116.249 5.38698 115.969 5.94031 115.756 6.62031C115.556 7.28698 115.456 8.12031 115.456 9.12031C115.456 9.33365 115.462 9.50698 115.476 9.64031C115.489 9.76031 115.502 9.89365 115.516 10.0403C115.542 10.1736 115.562 10.3736 115.576 10.6403L114.956 10.1203C115.102 9.30698 115.402 8.60031 115.856 8.00031C116.309 7.38698 116.876 6.91365 117.556 6.58031C118.249 6.23365 119.016 6.06031 119.856 6.06031C120.829 6.06031 121.696 6.27365 122.456 6.70031C123.216 7.11365 123.809 7.69365 124.236 8.44031C124.676 9.18698 124.896 10.0536 124.896 11.0403C124.896 12.0136 124.669 12.887 124.216 13.6603C123.776 14.4336 123.149 15.0403 122.336 15.4803C121.522 15.907 120.569 16.1203 119.476 16.1203ZM119.636 14.9403C120.382 14.9403 121.042 14.7736 121.616 14.4403C122.189 14.0936 122.636 13.627 122.956 13.0403C123.289 12.4536 123.456 11.7936 123.456 11.0603C123.456 10.3403 123.289 9.70031 122.956 9.14031C122.636 8.58031 122.189 8.14031 121.616 7.82031C121.042 7.48698 120.376 7.32031 119.616 7.32031C118.869 7.32031 118.209 7.48031 117.636 7.80031C117.062 8.10698 116.609 8.54031 116.276 9.10031C115.956 9.66031 115.796 10.307 115.796 11.0403C115.796 11.7736 115.956 12.4336 116.276 13.0203C116.609 13.607 117.062 14.0736 117.636 14.4203C118.222 14.767 118.889 14.9403 119.636 14.9403Z" fill="white"/>
<path d="M109.614 16.0004V13.6804L109.554 13.3004V9.42039C109.554 8.52706 109.301 7.84039 108.794 7.36039C108.301 6.88039 107.561 6.64039 106.574 6.64039C105.894 6.64039 105.248 6.75372 104.634 6.98039C104.021 7.20706 103.501 7.50706 103.074 7.88039L102.434 6.82039C102.968 6.36706 103.608 6.02039 104.354 5.78039C105.101 5.52706 105.888 5.40039 106.714 5.40039C108.074 5.40039 109.121 5.74039 109.854 6.42039C110.601 7.08706 110.974 8.10706 110.974 9.48039V16.0004H109.614ZM105.994 16.1004C105.208 16.1004 104.521 15.9737 103.934 15.7204C103.361 15.4537 102.921 15.0937 102.614 14.6404C102.308 14.1737 102.154 13.6404 102.154 13.0404C102.154 12.4937 102.281 12.0004 102.534 11.5604C102.801 11.1071 103.228 10.7471 103.814 10.4804C104.414 10.2004 105.214 10.0604 106.214 10.0604H109.834V11.1204H106.254C105.241 11.1204 104.534 11.3004 104.134 11.6604C103.748 12.0204 103.554 12.4671 103.554 13.0004C103.554 13.6004 103.788 14.0804 104.254 14.4404C104.721 14.8004 105.374 14.9804 106.214 14.9804C107.014 14.9804 107.701 14.8004 108.274 14.4404C108.861 14.0671 109.288 13.5337 109.554 12.8404L109.874 13.8204C109.608 14.5137 109.141 15.0671 108.474 15.4804C107.821 15.8937 106.994 16.1004 105.994 16.1004Z" fill="white"/>
<path d="M99.3699 16L95.0499 10.8L96.2299 10.1L101.05 16H99.3699ZM91.6699 16V5.5H93.0899V16H91.6699ZM92.6499 11.32V10.1H96.0299V11.32H92.6499ZM96.3499 10.9L95.0299 10.7L99.2099 5.5H100.75L96.3499 10.9Z" fill="white"/>
<path d="M72.666 16.0009V5.50086H74.086V13.8409L81.106 5.50086H82.366V16.0009H80.946V7.64086L73.946 16.0009H72.666ZM77.426 3.98086C76.546 3.98086 75.8327 3.76086 75.286 3.32086C74.7527 2.86753 74.4727 2.22086 74.446 1.38086H75.466C75.4794 1.91419 75.666 2.33419 76.026 2.64086C76.386 2.94753 76.8527 3.10086 77.426 3.10086C77.9994 3.10086 78.466 2.94753 78.826 2.64086C79.1994 2.33419 79.3927 1.91419 79.406 1.38086H80.426C80.4127 2.22086 80.1327 2.86753 79.586 3.32086C79.0394 3.76086 78.3194 3.98086 77.426 3.98086Z" fill="white"/>
<path d="M67.2029 16V5.5H68.6229V16H67.2029ZM61.3829 9.2C62.7029 9.21333 63.7096 9.50667 64.4029 10.08C65.0962 10.6533 65.4429 11.48 65.4429 12.56C65.4429 13.68 65.0696 14.54 64.3229 15.14C63.5762 15.74 62.5096 16.0333 61.1229 16.02L56.9629 16V5.5H58.3829V9.16L61.3829 9.2ZM61.0229 14.94C62.0096 14.9533 62.7496 14.76 63.2429 14.36C63.7496 13.9467 64.0029 13.3467 64.0029 12.56C64.0029 11.7733 63.7562 11.2 63.2629 10.84C62.7696 10.4667 62.0229 10.2733 61.0229 10.26L58.3829 10.22V14.9L61.0229 14.94Z" fill="white"/>
<path d="M43.4668 16V5.5H44.8868V10.14H51.5068V5.5H52.9268V16H51.5068V11.36H44.8868V16H43.4668Z" fill="white"/>
<path d="M38.1341 11.56C37.5207 11.8267 36.9007 12.04 36.2741 12.2C35.6607 12.3467 35.0474 12.42 34.4341 12.42C33.1941 12.42 32.2141 12.14 31.4941 11.58C30.7741 11.0067 30.4141 10.1267 30.4141 8.94V5.5H31.8141V8.86C31.8141 9.66 32.0741 10.26 32.5941 10.66C33.1141 11.06 33.8141 11.26 34.6941 11.26C35.2274 11.26 35.7874 11.1933 36.3741 11.06C36.9607 10.9133 37.5541 10.7067 38.1541 10.44L38.1341 11.56ZM38.0141 16V5.5H39.4341V16H38.0141Z" fill="white"/>
<path d="M17.7246 16V5.5H19.1446V13.84L26.1646 5.5H27.4246V16H26.0046V7.64L19.0046 16H17.7246Z" fill="white"/>
<path d="M1.3407 16.12C1.15404 16.12 0.974037 16.1067 0.800703 16.08C0.62737 16.0667 0.434036 16.0333 0.220703 15.98L0.340703 14.66C0.56737 14.7133 0.78737 14.74 1.0007 14.74C1.6007 14.74 2.0807 14.5067 2.4407 14.04C2.81404 13.56 3.09404 12.8267 3.2807 11.84C3.46737 10.84 3.58737 9.56 3.6407 8L3.8407 2H13.3407V16H11.8807V2.88L12.2607 3.28H4.7807L5.1407 2.86L4.9607 7.96C4.90737 9.36 4.80737 10.5733 4.6607 11.6C4.51404 12.6133 4.3007 13.46 4.0207 14.14C3.7407 14.8067 3.3807 15.3067 2.9407 15.64C2.5007 15.96 1.96737 16.12 1.3407 16.12Z" fill="white"/>
</svg>
