<svg width="124" height="22" viewBox="0 0 124 22" fill="none" xmlns="http://www.w3.org/2000/svg">
<path d="M123.839 4.85938V20.9994H119.669V16.3794H116.219L113.159 20.9994H108.179L111.869 15.7194C110.749 15.2794 109.889 14.6494 109.289 13.8294C108.709 12.9894 108.419 11.9794 108.419 10.7994C108.419 8.89938 109.099 7.43938 110.459 6.41938C111.839 5.37938 113.729 4.85938 116.129 4.85938H123.839ZM116.219 8.66938C115.219 8.66938 114.459 8.84938 113.939 9.20938C113.439 9.56938 113.189 10.1494 113.189 10.9494C113.189 11.7494 113.429 12.3394 113.909 12.7194C114.409 13.0794 115.159 13.2594 116.159 13.2594H119.669V8.66938H116.219Z" fill="#163C51"/>
<path d="M97.6625 4.61914C100.163 4.61914 102.083 5.21914 103.423 6.41914C104.763 7.59914 105.433 9.38914 105.433 11.7891V20.9991H101.053V18.9891C100.173 20.4891 98.5325 21.2391 96.1325 21.2391C94.8925 21.2391 93.8125 21.0291 92.8925 20.6091C91.9925 20.1891 91.3025 19.6091 90.8225 18.8691C90.3425 18.1291 90.1025 17.2891 90.1025 16.3491C90.1025 14.8491 90.6625 13.6691 91.7825 12.8091C92.9225 11.9491 94.6725 11.5191 97.0325 11.5191H100.753C100.753 10.4991 100.443 9.71914 99.8225 9.17914C99.2025 8.61914 98.2725 8.33914 97.0325 8.33914C96.1725 8.33914 95.3225 8.47914 94.4825 8.75914C93.6625 9.01914 92.9625 9.37914 92.3825 9.83914L90.7025 6.56914C91.5825 5.94914 92.6325 5.46914 93.8525 5.12914C95.0925 4.78914 96.3625 4.61914 97.6625 4.61914ZM97.3025 18.0891C98.1025 18.0891 98.8125 17.9091 99.4325 17.5491C100.053 17.1691 100.493 16.6191 100.753 15.8991V14.2491H97.5425C95.6225 14.2491 94.6625 14.8791 94.6625 16.1391C94.6625 16.7391 94.8925 17.2191 95.3525 17.5791C95.8325 17.9191 96.4825 18.0891 97.3025 18.0891Z" fill="#163C51"/>
<path d="M70.5625 4.85938H75.2125V11.1594H82.2325V4.85938H86.9125V20.9994H82.2325V14.9694H75.2125V20.9994H70.5625V4.85938Z" fill="#163C51"/>
<path d="M64.2304 12.5694C66.1304 13.2094 67.0804 14.4894 67.0804 16.4094C67.0804 17.8694 66.5304 18.9994 65.4304 19.7994C64.3304 20.5994 62.6904 20.9994 60.5104 20.9994H51.9004V4.85938H60.1504C62.1704 4.85938 63.7504 5.22937 64.8904 5.96937C66.0304 6.68937 66.6004 7.70938 66.6004 9.02938C66.6004 9.82938 66.3904 10.5394 65.9704 11.1594C65.5704 11.7594 64.9904 12.2294 64.2304 12.5694ZM56.1904 11.4894H59.7304C61.3704 11.4894 62.1904 10.9094 62.1904 9.74938C62.1904 8.60938 61.3704 8.03938 59.7304 8.03938H56.1904V11.4894ZM60.1204 17.8194C61.8404 17.8194 62.7004 17.2294 62.7004 16.0494C62.7004 15.4294 62.5004 14.9794 62.1004 14.6994C61.7004 14.3994 61.0704 14.2494 60.2104 14.2494H56.1904V17.8194H60.1204Z" fill="#163C51"/>
<path d="M40.0649 4.61914C42.5649 4.61914 44.4849 5.21914 45.8249 6.41914C47.1649 7.59914 47.8349 9.38914 47.8349 11.7891V20.9991H43.4549V18.9891C42.5749 20.4891 40.9349 21.2391 38.5349 21.2391C37.2949 21.2391 36.2149 21.0291 35.2949 20.6091C34.3949 20.1891 33.7049 19.6091 33.2249 18.8691C32.7449 18.1291 32.5049 17.2891 32.5049 16.3491C32.5049 14.8491 33.0649 13.6691 34.1849 12.8091C35.3249 11.9491 37.0749 11.5191 39.4349 11.5191H43.1549C43.1549 10.4991 42.8449 9.71914 42.2249 9.17914C41.6049 8.61914 40.6749 8.33914 39.4349 8.33914C38.5749 8.33914 37.7249 8.47914 36.8849 8.75914C36.0649 9.01914 35.3649 9.37914 34.7849 9.83914L33.1049 6.56914C33.9849 5.94914 35.0349 5.46914 36.2549 5.12914C37.4949 4.78914 38.7649 4.61914 40.0649 4.61914ZM39.7049 18.0891C40.5049 18.0891 41.2149 17.9091 41.8349 17.5491C42.4549 17.1691 42.8949 16.6191 43.1549 15.8991V14.2491H39.9449C38.0249 14.2491 37.0649 14.8791 37.0649 16.1391C37.0649 16.7391 37.2949 17.2191 37.7549 17.5791C38.2349 17.9191 38.8849 18.0891 39.7049 18.0891Z" fill="#163C51"/>
<path d="M29.2944 4.85938V20.9994H24.6144V8.69938H19.5144L19.3644 11.5494C19.2844 13.6694 19.0844 15.4294 18.7644 16.8294C18.4444 18.2294 17.9244 19.3294 17.2044 20.1294C16.4844 20.9294 15.4844 21.3294 14.2044 21.3294C13.5244 21.3294 12.7144 21.2094 11.7744 20.9694L12.0144 17.1294C12.3344 17.1694 12.5644 17.1894 12.7044 17.1894C13.4044 17.1894 13.9244 16.9394 14.2644 16.4394C14.6244 15.9194 14.8644 15.2694 14.9844 14.4894C15.1044 13.6894 15.1944 12.6394 15.2544 11.3394L15.4944 4.85938H29.2944Z" fill="#163C51"/>
<path d="M15.4004 3.96H5.41035L5.44035 21H0.610352V0H15.4304L15.4004 3.96Z" fill="#163C51"/>
</svg>
