<svg width="159" height="30" viewBox="0 0 159 30" fill="none" xmlns="http://www.w3.org/2000/svg">
<path opacity="0.7" d="M151.448 23.1591C149.699 23.1591 148.163 22.7964 146.84 22.0711C145.518 21.3244 144.483 20.3111 143.736 19.0311C142.99 17.7297 142.616 16.2471 142.616 14.5831C142.616 12.9191 142.968 11.4471 143.672 10.1671C144.398 8.88706 145.379 7.8844 146.616 7.15906C147.875 6.4124 149.283 6.03906 150.84 6.03906C152.419 6.03906 153.816 6.40173 155.032 7.12706C156.27 7.83106 157.24 8.83373 157.944 10.1351C158.648 11.4151 159 12.8977 159 14.5831C159 14.6897 158.99 14.8071 158.968 14.9351C158.968 15.0417 158.968 15.1591 158.968 15.2871H144.344V13.5911H157.752L156.856 14.2631C156.856 13.0471 156.59 11.9697 156.056 11.0311C155.544 10.0711 154.84 9.3244 153.944 8.79106C153.048 8.25773 152.014 7.99106 150.84 7.99106C149.688 7.99106 148.654 8.25773 147.736 8.79106C146.819 9.3244 146.104 10.0711 145.592 11.0311C145.08 11.9911 144.824 13.0897 144.824 14.3271V14.6791C144.824 15.9591 145.102 17.0897 145.656 18.0711C146.232 19.0311 147.022 19.7884 148.024 20.3431C149.048 20.8764 150.211 21.1431 151.512 21.1431C152.536 21.1431 153.486 20.9617 154.36 20.5991C155.256 20.2364 156.024 19.6817 156.664 18.9351L157.944 20.4071C157.198 21.3031 156.259 21.9857 155.128 22.4551C154.019 22.9244 152.792 23.1591 151.448 23.1591Z" fill="#163C51"/>
<path opacity="0.7" d="M130.816 23.1591C129.195 23.1591 127.734 22.7964 126.432 22.0711C125.152 21.3244 124.139 20.3111 123.392 19.0311C122.646 17.7297 122.272 16.2471 122.272 14.5831C122.272 12.8977 122.646 11.4151 123.392 10.1351C124.139 8.85506 125.152 7.8524 126.432 7.12706C127.712 6.40173 129.174 6.03906 130.816 6.03906C132.48 6.03906 133.952 6.40173 135.232 7.12706C136.534 7.8524 137.547 8.85506 138.272 10.1351C139.019 11.4151 139.392 12.8977 139.392 14.5831C139.392 16.2471 139.019 17.7297 138.272 19.0311C137.547 20.3111 136.534 21.3244 135.232 22.0711C133.931 22.7964 132.459 23.1591 130.816 23.1591ZM130.816 21.1431C132.032 21.1431 133.11 20.8764 134.048 20.3431C134.987 19.7884 135.723 19.0204 136.256 18.0391C136.811 17.0364 137.088 15.8844 137.088 14.5831C137.088 13.2604 136.811 12.1084 136.256 11.1271C135.723 10.1457 134.987 9.3884 134.048 8.85506C133.11 8.3004 132.043 8.02306 130.848 8.02306C129.654 8.02306 128.587 8.3004 127.648 8.85506C126.71 9.3884 125.963 10.1457 125.408 11.1271C124.854 12.1084 124.576 13.2604 124.576 14.5831C124.576 15.8844 124.854 17.0364 125.408 18.0391C125.963 19.0204 126.71 19.7884 127.648 20.3431C128.587 20.8764 129.643 21.1431 130.816 21.1431Z" fill="#163C51"/>
<path opacity="0.7" d="M102.311 22.9992V6.19922H104.583V13.6232H115.175V6.19922H117.447V22.9992H115.175V15.5752H104.583V22.9992H102.311Z" fill="#163C51"/>
<path opacity="0.7" d="M92.9865 21.9112V8.18322H84.8905L84.6985 11.9272C84.6558 13.0579 84.5811 14.1672 84.4745 15.2552C84.3891 16.3432 84.2291 17.3459 83.9945 18.2632C83.7811 19.1592 83.4718 19.8952 83.0665 20.4712C82.6611 21.0259 82.1385 21.3459 81.4985 21.4312L79.2265 21.0152C79.8878 21.0366 80.4318 20.8019 80.8585 20.3112C81.2851 19.7992 81.6158 19.1059 81.8505 18.2312C82.0851 17.3566 82.2558 16.3646 82.3625 15.2552C82.4691 14.1246 82.5545 12.9726 82.6185 11.7992L82.8425 6.19922H95.2585V21.9112H92.9865ZM78.5225 27.0632V21.0152H97.8825V27.0632H95.7385V22.9992H80.6665V27.0632H78.5225Z" fill="#163C51"/>
<path opacity="0.7" d="M73.2426 22.9991V19.2871L73.1466 18.6791V12.4711C73.1466 11.0417 72.7413 9.94306 71.9306 9.17506C71.1413 8.40706 69.9573 8.02306 68.3786 8.02306C67.2906 8.02306 66.256 8.2044 65.2746 8.56706C64.2933 8.92973 63.4613 9.40973 62.7786 10.0071L61.7546 8.31106C62.608 7.58573 63.632 7.03106 64.8266 6.64706C66.0213 6.24173 67.28 6.03906 68.6026 6.03906C70.7786 6.03906 72.4533 6.58306 73.6266 7.67106C74.8213 8.73773 75.4186 10.3697 75.4186 12.5671V22.9991H73.2426ZM67.4506 23.1591C66.192 23.1591 65.0933 22.9564 64.1546 22.5511C63.2373 22.1244 62.5333 21.5484 62.0426 20.8231C61.552 20.0764 61.3066 19.2231 61.3066 18.2631C61.3066 17.3884 61.5093 16.5991 61.9146 15.8951C62.3413 15.1697 63.024 14.5937 63.9626 14.1671C64.9226 13.7191 66.2026 13.4951 67.8026 13.4951H73.5946V15.1911H67.8666C66.2453 15.1911 65.1146 15.4791 64.4746 16.0551C63.856 16.6311 63.5466 17.3457 63.5466 18.1991C63.5466 19.1591 63.92 19.9271 64.6666 20.5031C65.4133 21.0791 66.4586 21.3671 67.8026 21.3671C69.0826 21.3671 70.1813 21.0791 71.0986 20.5031C72.0373 19.9057 72.72 19.0524 73.1466 17.9431L73.6586 19.5111C73.232 20.6204 72.4853 21.5057 71.4186 22.1671C70.3733 22.8284 69.0506 23.1591 67.4506 23.1591Z" fill="#163C51"/>
<path opacity="0.7" d="M49.6388 23.1591C48.1881 23.1591 46.8761 22.8284 45.7028 22.1671C44.5295 21.4844 43.5908 20.5137 42.8868 19.2551C42.2041 17.9751 41.8628 16.4177 41.8628 14.5831C41.8628 12.7484 42.2041 11.2017 42.8868 9.94306C43.5695 8.66306 44.4975 7.6924 45.6708 7.03106C46.8441 6.36973 48.1668 6.03906 49.6388 6.03906C51.2388 6.03906 52.6681 6.40173 53.9268 7.12706C55.2068 7.83106 56.2095 8.83373 56.9348 10.1351C57.6601 11.4151 58.0228 12.8977 58.0228 14.5831C58.0228 16.2897 57.6601 17.7831 56.9348 19.0631C56.2095 20.3431 55.2068 21.3457 53.9268 22.0711C52.6681 22.7964 51.2388 23.1591 49.6388 23.1591ZM40.9668 29.2071V6.19906H43.1428V11.2551L42.9188 14.6151L43.2388 18.0071V29.2071H40.9668ZM49.4788 21.1431C50.6735 21.1431 51.7401 20.8764 52.6788 20.3431C53.6175 19.7884 54.3641 19.0204 54.9188 18.0391C55.4735 17.0364 55.7508 15.8844 55.7508 14.5831C55.7508 13.2817 55.4735 12.1404 54.9188 11.1591C54.3641 10.1777 53.6175 9.40973 52.6788 8.85506C51.7401 8.3004 50.6735 8.02306 49.4788 8.02306C48.2841 8.02306 47.2068 8.3004 46.2468 8.85506C45.3081 9.40973 44.5615 10.1777 44.0068 11.1591C43.4735 12.1404 43.2068 13.2817 43.2068 14.5831C43.2068 15.8844 43.4735 17.0364 44.0068 18.0391C44.5615 19.0204 45.3081 19.7884 46.2468 20.3431C47.2068 20.8764 48.2841 21.1431 49.4788 21.1431Z" fill="#163C51"/>
<path opacity="0.7" d="M29.0418 22.9992V7.57522L29.6178 8.18322H22.6738V6.19922H37.6818V8.18322H30.7378L31.3138 7.57522V22.9992H29.0418Z" fill="#163C51"/>
<path opacity="0.7" d="M0.683594 22.9996L10.9236 0.599609H13.2596L23.4996 22.9996H21.0036L11.5956 1.97561H12.5556L3.14759 22.9996H0.683594ZM4.71559 17.0156L5.41959 15.0956H18.4436L19.1476 17.0156H4.71559Z" fill="#163C51"/>
</svg>
