<svg width="116" height="33" viewBox="0 0 116 33" fill="none" xmlns="http://www.w3.org/2000/svg">
<path d="M103.157 24.1211V13.1611H98.6374L98.5974 14.5211C98.5707 15.4544 98.5173 16.3211 98.4373 17.1211C98.384 17.9211 98.264 18.6411 98.0773 19.2811C97.8907 19.8944 97.6107 20.4411 97.2374 20.9211C96.8907 21.3744 96.3973 21.7478 95.7573 22.0411L86.9174 20.9211C87.6107 20.9211 88.184 20.7478 88.6373 20.4011C89.0907 20.0278 89.4373 19.5211 89.6773 18.8811C89.944 18.2144 90.1307 17.4544 90.2374 16.6011C90.3707 15.7478 90.4507 14.8278 90.4773 13.8411L90.7573 6.12109H112.157V24.1211H103.157ZM86.2773 32.3211V20.9211H115.077V32.3211H106.717V28.0011H94.6373V32.3211H86.2773Z" fill="#163C51"/>
<path d="M70.8294 28.3988C68.3494 28.3988 66.1494 27.9188 64.2294 26.9588C62.336 25.9721 60.8427 24.6254 59.7494 22.9188C58.656 21.2121 58.1094 19.2521 58.1094 17.0388C58.1094 14.8254 58.656 12.8654 59.7494 11.1588C60.8427 9.45208 62.336 8.11875 64.2294 7.15875C66.1494 6.19875 68.3494 5.71875 70.8294 5.71875C73.3094 5.71875 75.5094 6.19875 77.4294 7.15875C79.3494 8.11875 80.8427 9.45208 81.9094 11.1588C83.0027 12.8654 83.5494 14.8254 83.5494 17.0388C83.5494 19.2521 83.0027 21.2121 81.9094 22.9188C80.8427 24.6254 79.3494 25.9721 77.4294 26.9588C75.5094 27.9188 73.3094 28.3988 70.8294 28.3988ZM70.8294 21.3588C71.496 21.3588 72.096 21.1988 72.6294 20.8788C73.1627 20.5588 73.5894 20.0788 73.9094 19.4388C74.2294 18.7721 74.3894 17.9721 74.3894 17.0388C74.3894 16.0788 74.2294 15.2921 73.9094 14.6788C73.5894 14.0388 73.1627 13.5588 72.6294 13.2388C72.096 12.9188 71.496 12.7588 70.8294 12.7588C70.1627 12.7588 69.5627 12.9188 69.0294 13.2388C68.496 13.5588 68.0694 14.0388 67.7494 14.6788C67.4294 15.2921 67.2694 16.0788 67.2694 17.0388C67.2694 17.9721 67.4294 18.7721 67.7494 19.4388C68.0694 20.0788 68.496 20.5588 69.0294 20.8788C69.5627 21.1988 70.1627 21.3588 70.8294 21.3588Z" fill="#163C51"/>
<path d="M29.6074 28.0011L39.9274 14.4811L39.6874 19.6811L29.8474 6.12109H40.0474L44.8874 13.3611L41.1274 13.6411L46.4474 6.12109H55.9274L46.0474 19.2411V14.2411L56.1274 28.0011H45.7674L40.7674 20.2811L44.5674 20.8011L39.4074 28.0011H29.6074Z" fill="#163C51"/>
<path d="M0.480469 28V0H14.6805C18.1471 0 20.8271 0.640001 22.7205 1.92C24.6405 3.2 25.6005 5 25.6005 7.32C25.6005 9.58667 24.7205 11.3867 22.9605 12.72C21.2005 14.0267 18.8271 14.68 15.8405 14.68L16.6405 12.52C19.8138 12.52 22.3071 13.1467 24.1205 14.4C25.9338 15.6533 26.8405 17.48 26.8405 19.88C26.8405 22.36 25.8538 24.3333 23.8805 25.8C21.9071 27.2667 19.0938 28 15.4405 28H0.480469ZM9.76047 21.4H15.0005C15.7738 21.4 16.3471 21.2133 16.7205 20.84C17.1205 20.44 17.3205 19.88 17.3205 19.16C17.3205 18.44 17.1205 17.9067 16.7205 17.56C16.3471 17.1867 15.7738 17 15.0005 17H9.76047V21.4ZM9.76047 10.76H13.7605C14.5605 10.76 15.1471 10.5867 15.5205 10.24C15.8938 9.89333 16.0805 9.38667 16.0805 8.72C16.0805 8.02667 15.8938 7.50667 15.5205 7.16C15.1471 6.78667 14.5605 6.6 13.7605 6.6H9.76047V10.76Z" fill="#163C51"/>
</svg>
