<svg width="277" height="79" viewBox="0 0 277 79" fill="none" xmlns="http://www.w3.org/2000/svg">
<path d="M248.228 58.6739V32.2383H237.326L237.23 35.5186C237.165 37.7698 237.037 39.8602 236.844 41.7898C236.715 43.7194 236.426 45.4561 235.975 46.9998C235.525 48.4791 234.85 49.7977 233.949 50.9554C233.113 52.0489 231.923 52.9494 230.379 53.6569L209.057 50.9554C210.73 50.9554 212.113 50.5374 213.206 49.7012C214.299 48.8007 215.136 47.5786 215.714 46.035C216.358 44.427 216.808 42.5938 217.065 40.5356C217.387 38.4774 217.58 36.2583 217.644 33.8785L218.319 15.2578H269.936V58.6739H248.228ZM207.514 78.4523V50.9554H276.979V78.4523H256.815V68.0324H227.678V78.4523H207.514Z" fill="#163C51"/>
<path d="M170.251 68.9972C164.269 68.9972 158.963 67.8394 154.332 65.5239C149.765 63.1441 146.163 59.8959 143.526 55.7794C140.889 51.6629 139.57 46.9354 139.57 41.5968C139.57 36.2583 140.889 31.5307 143.526 27.4143C146.163 23.2978 149.765 20.0818 154.332 17.7663C158.963 15.4507 164.269 14.293 170.251 14.293C176.233 14.293 181.539 15.4507 186.17 17.7663C190.801 20.0818 194.403 23.2978 196.976 27.4143C199.613 31.5307 200.932 36.2583 200.932 41.5968C200.932 46.9354 199.613 51.6629 196.976 55.7794C194.403 59.8959 190.801 63.1441 186.17 65.5239C181.539 67.8394 176.233 68.9972 170.251 68.9972ZM170.251 52.0167C171.859 52.0167 173.306 51.6308 174.593 50.8589C175.879 50.0871 176.908 48.9293 177.68 47.3856C178.452 45.7776 178.838 43.848 178.838 41.5968C178.838 39.2813 178.452 37.3839 177.68 35.9045C176.908 34.3608 175.879 33.2031 174.593 32.4312C173.306 31.6594 171.859 31.2735 170.251 31.2735C168.643 31.2735 167.196 31.6594 165.909 32.4312C164.623 33.2031 163.594 34.3608 162.822 35.9045C162.05 37.3839 161.664 39.2813 161.664 41.5968C161.664 43.848 162.05 45.7776 162.822 47.3856C163.594 48.9293 164.623 50.0871 165.909 50.8589C167.196 51.6308 168.643 52.0167 170.251 52.0167Z" fill="#163C51"/>
<path d="M70.8223 68.0324L95.7141 35.4221L95.1353 47.9646L71.4012 15.2578H96.0036L107.678 32.7207L98.6085 33.3961L111.44 15.2578H134.306L110.476 46.9033V34.8433L134.789 68.0324H109.8L97.7402 49.4118L106.906 50.666L94.4599 68.0324H70.8223Z" fill="#163C51"/>
<path d="M0.568359 68.0322V0.496094H34.8188C43.1804 0.496094 49.6446 2.03978 54.2113 5.12714C58.8423 8.2145 61.1579 12.5561 61.1579 18.152C61.1579 23.6192 59.0353 27.9608 54.7902 31.1768C50.545 34.3284 44.8206 35.9043 37.6167 35.9043L39.5463 30.6944C47.2004 30.6944 53.2143 32.2059 57.5881 35.2289C61.9619 38.252 64.1487 42.6579 64.1487 48.4467C64.1487 54.4285 61.7689 59.1881 57.0092 62.7257C52.2495 66.2634 45.4638 68.0322 36.6519 68.0322H0.568359ZM22.9517 52.1129H35.5906C37.4559 52.1129 38.8388 51.6627 39.7393 50.7622C40.7041 49.7974 41.1865 48.4467 41.1865 46.7101C41.1865 44.9734 40.7041 43.687 39.7393 42.8508C38.8388 41.9504 37.4559 41.5001 35.5906 41.5001H22.9517V52.1129ZM22.9517 26.4492H32.5997C34.5294 26.4492 35.9444 26.0312 36.8449 25.195C37.7454 24.3588 38.1956 23.1368 38.1956 21.5288C38.1956 19.8564 37.7454 18.6022 36.8449 17.766C35.9444 16.8655 34.5294 16.4153 32.5997 16.4153H22.9517V26.4492Z" fill="#163C51"/>
</svg>
