<svg width="165" height="24" viewBox="0 0 165 24" fill="none" xmlns="http://www.w3.org/2000/svg">
<path d="M156.535 17.1591C155.085 17.1591 153.773 16.8284 152.599 16.1671C151.426 15.4844 150.487 14.5137 149.783 13.2551C149.101 11.9751 148.759 10.4177 148.759 8.58306C148.759 6.7484 149.101 5.20173 149.783 3.94306C150.466 2.66306 151.394 1.6924 152.567 1.03106C153.741 0.369729 155.063 0.0390625 156.535 0.0390625C158.135 0.0390625 159.565 0.401729 160.823 1.12706C162.103 1.83106 163.106 2.83373 163.831 4.13506C164.557 5.41506 164.919 6.89773 164.919 8.58306C164.919 10.2897 164.557 11.7831 163.831 13.0631C163.106 14.3431 162.103 15.3457 160.823 16.0711C159.565 16.7964 158.135 17.1591 156.535 17.1591ZM147.863 23.2071V0.199062H150.039V5.25506L149.815 8.61506L150.135 12.0071V23.2071H147.863ZM156.375 15.1431C157.57 15.1431 158.637 14.8764 159.575 14.3431C160.514 13.7884 161.261 13.0204 161.815 12.0391C162.37 11.0364 162.647 9.8844 162.647 8.58306C162.647 7.28173 162.37 6.1404 161.815 5.15906C161.261 4.17773 160.514 3.40973 159.575 2.85506C158.637 2.3004 157.57 2.02306 156.375 2.02306C155.181 2.02306 154.103 2.3004 153.143 2.85506C152.205 3.40973 151.458 4.17773 150.903 5.15906C150.37 6.1404 150.103 7.28173 150.103 8.58306C150.103 9.8844 150.37 11.0364 150.903 12.0391C151.458 13.0204 152.205 13.7884 153.143 14.3431C154.103 14.8764 155.181 15.1431 156.375 15.1431Z" fill="#163C51"/>
<path d="M133.684 17.1591C131.934 17.1591 130.398 16.7964 129.076 16.0711C127.753 15.3244 126.718 14.3111 125.972 13.0311C125.225 11.7297 124.852 10.2471 124.852 8.58306C124.852 6.91906 125.204 5.44706 125.908 4.16706C126.633 2.88706 127.614 1.8844 128.852 1.15906C130.11 0.412396 131.518 0.0390625 133.076 0.0390625C134.654 0.0390625 136.052 0.401729 137.268 1.12706C138.505 1.83106 139.476 2.83373 140.18 4.13506C140.884 5.41506 141.236 6.89773 141.236 8.58306C141.236 8.68973 141.225 8.80706 141.204 8.93506C141.204 9.04173 141.204 9.15906 141.204 9.28706H126.58V7.59106H139.988L139.092 8.26306C139.092 7.04706 138.825 5.96973 138.292 5.03106C137.78 4.07106 137.076 3.3244 136.18 2.79106C135.284 2.25773 134.249 1.99106 133.076 1.99106C131.924 1.99106 130.889 2.25773 129.972 2.79106C129.054 3.3244 128.34 4.07106 127.828 5.03106C127.316 5.99106 127.06 7.08973 127.06 8.32706V8.67906C127.06 9.95906 127.337 11.0897 127.892 12.0711C128.468 13.0311 129.257 13.7884 130.26 14.3431C131.284 14.8764 132.446 15.1431 133.748 15.1431C134.772 15.1431 135.721 14.9617 136.596 14.5991C137.492 14.2364 138.26 13.6817 138.9 12.9351L140.18 14.4071C139.433 15.3031 138.494 15.9857 137.364 16.4551C136.254 16.9244 135.028 17.1591 133.684 17.1591Z" fill="#163C51"/>
<path d="M113.739 16.9992V1.57522L114.315 2.18322H107.371V0.199219H122.379V2.18322H115.435L116.011 1.57522V16.9992H113.739Z" fill="#163C51"/>
<path d="M87.3457 16.9992V0.199219H89.6177V7.62322H100.21V0.199219H102.482V16.9992H100.21V9.57522H89.6177V16.9992H87.3457Z" fill="#163C51"/>
<path d="M72.3135 17.1591C70.6922 17.1591 69.2309 16.7964 67.9295 16.0711C66.6495 15.3244 65.6362 14.3111 64.8895 13.0311C64.1429 11.7297 63.7695 10.2471 63.7695 8.58306C63.7695 6.89773 64.1429 5.41506 64.8895 4.13506C65.6362 2.85506 66.6495 1.8524 67.9295 1.12706C69.2095 0.401729 70.6709 0.0390625 72.3135 0.0390625C73.9775 0.0390625 75.4495 0.401729 76.7295 1.12706C78.0309 1.8524 79.0442 2.85506 79.7695 4.13506C80.5162 5.41506 80.8895 6.89773 80.8895 8.58306C80.8895 10.2471 80.5162 11.7297 79.7695 13.0311C79.0442 14.3111 78.0309 15.3244 76.7295 16.0711C75.4282 16.7964 73.9562 17.1591 72.3135 17.1591ZM72.3135 15.1431C73.5295 15.1431 74.6069 14.8764 75.5455 14.3431C76.4842 13.7884 77.2202 13.0204 77.7535 12.0391C78.3082 11.0364 78.5855 9.8844 78.5855 8.58306C78.5855 7.2604 78.3082 6.1084 77.7535 5.12706C77.2202 4.14573 76.4842 3.3884 75.5455 2.85506C74.6069 2.3004 73.5402 2.02306 72.3455 2.02306C71.1509 2.02306 70.0842 2.3004 69.1455 2.85506C68.2069 3.3884 67.4602 4.14573 66.9055 5.12706C66.3509 6.1084 66.0735 7.2604 66.0735 8.58306C66.0735 9.8844 66.3509 11.0364 66.9055 12.0391C67.4602 13.0204 68.2069 13.7884 69.1455 14.3431C70.0842 14.8764 71.1402 15.1431 72.3135 15.1431Z" fill="#163C51"/>
<path d="M40.5098 16.9672L40.6698 15.0152C40.8191 15.0366 40.9578 15.0686 41.0858 15.1112C41.2351 15.1326 41.3631 15.1432 41.4698 15.1432C42.1524 15.1432 42.6964 14.8872 43.1018 14.3752C43.5284 13.8632 43.8484 13.1806 44.0618 12.3272C44.2751 11.4739 44.4244 10.5139 44.5098 9.44722C44.5951 8.35922 44.6698 7.27122 44.7338 6.18322L45.0218 0.199219H57.3418V16.9992H55.0698V1.51122L55.6458 2.18322H46.4938L47.0378 1.47922L46.7818 6.34322C46.7178 7.79389 46.6004 9.18055 46.4298 10.5032C46.2804 11.8259 46.0351 12.9886 45.6938 13.9912C45.3738 14.9939 44.9258 15.7832 44.3498 16.3592C43.7738 16.9139 43.0378 17.1912 42.1418 17.1912C41.8858 17.1912 41.6191 17.1699 41.3418 17.1272C41.0858 17.0846 40.8084 17.0312 40.5098 16.9672Z" fill="#163C51"/>
<path d="M28.6456 17.1591C27.0242 17.1591 25.5629 16.7964 24.2616 16.0711C22.9816 15.3244 21.9682 14.3111 21.2216 13.0311C20.4749 11.7297 20.1016 10.2471 20.1016 8.58306C20.1016 6.89773 20.4749 5.41506 21.2216 4.13506C21.9682 2.85506 22.9816 1.8524 24.2616 1.12706C25.5416 0.401729 27.0029 0.0390625 28.6456 0.0390625C30.3096 0.0390625 31.7816 0.401729 33.0616 1.12706C34.3629 1.8524 35.3762 2.85506 36.1016 4.13506C36.8482 5.41506 37.2216 6.89773 37.2216 8.58306C37.2216 10.2471 36.8482 11.7297 36.1016 13.0311C35.3762 14.3111 34.3629 15.3244 33.0616 16.0711C31.7602 16.7964 30.2882 17.1591 28.6456 17.1591ZM28.6456 15.1431C29.8616 15.1431 30.9389 14.8764 31.8776 14.3431C32.8162 13.7884 33.5522 13.0204 34.0856 12.0391C34.6402 11.0364 34.9176 9.8844 34.9176 8.58306C34.9176 7.2604 34.6402 6.1084 34.0856 5.12706C33.5522 4.14573 32.8162 3.3884 31.8776 2.85506C30.9389 2.3004 29.8722 2.02306 28.6776 2.02306C27.4829 2.02306 26.4162 2.3004 25.4776 2.85506C24.5389 3.3884 23.7922 4.14573 23.2376 5.12706C22.6829 6.1084 22.4056 7.2604 22.4056 8.58306C22.4056 9.8844 22.6829 11.0364 23.2376 12.0391C23.7922 13.0204 24.5389 13.7884 25.4776 14.3431C26.4162 14.8764 27.4722 15.1431 28.6456 15.1431Z" fill="#163C51"/>
<path d="M0.664062 16.9992V0.199219H8.08806C9.98673 0.199219 11.4801 0.561886 12.5681 1.28722C13.6774 2.01255 14.2321 3.07922 14.2321 4.48722C14.2321 5.85255 13.7094 6.90855 12.6641 7.65522C11.6187 8.38055 10.2427 8.74322 8.53606 8.74322L8.98406 8.07122C10.9894 8.07122 12.4614 8.44455 13.4001 9.19122C14.3387 9.93789 14.8081 11.0152 14.8081 12.4232C14.8081 13.8739 14.2747 15.0046 13.2081 15.8152C12.1627 16.6046 10.5307 16.9992 8.31206 16.9992H0.664062ZM2.87206 15.2072H8.21606C9.6454 15.2072 10.7227 14.9832 11.4481 14.5352C12.1947 14.0659 12.5681 13.3192 12.5681 12.2952C12.5681 11.2712 12.2374 10.5246 11.5761 10.0552C10.9147 9.58589 9.8694 9.35122 8.44006 9.35122H2.87206V15.2072ZM2.87206 7.65522H7.92806C9.2294 7.65522 10.2214 7.40988 10.9041 6.91922C11.6081 6.42855 11.9601 5.71389 11.9601 4.77522C11.9601 3.83655 11.6081 3.13255 10.9041 2.66322C10.2214 2.19389 9.2294 1.95922 7.92806 1.95922H2.87206V7.65522Z" fill="#163C51"/>
</svg>
