<svg width="231" height="31" viewBox="0 0 231 31" fill="none" xmlns="http://www.w3.org/2000/svg">
<path d="M230.611 6.01953V23.9995H225.966V18.8528H222.123L218.714 23.9995H213.166L217.277 18.1176C216.029 17.6274 215.071 16.9256 214.403 16.0121C213.756 15.0764 213.433 13.9512 213.433 12.6367C213.433 10.5201 214.191 8.89365 215.706 7.75737C217.243 6.59881 219.349 6.01953 222.022 6.01953H230.611ZM222.123 10.2639C221.009 10.2639 220.162 10.4644 219.583 10.8654C219.026 11.2665 218.747 11.9126 218.747 12.8038C218.747 13.695 219.015 14.3523 219.549 14.7756C220.106 15.1766 220.942 15.3771 222.056 15.3771H225.966V10.2639H222.123Z" fill="white"/>
<path d="M190.91 6.01953H196.09V16.7139L204.846 6.01953H209.625V23.9995H204.445V13.3051L195.723 23.9995H190.91V6.01953Z" fill="white"/>
<path d="M187.631 19.7217V27.9431H182.786V23.9995H167.379V6.01953H172.559V19.7217H179.811V6.01953H185.025V19.7217H187.631Z" fill="white"/>
<path d="M154.193 5.75391C156.978 5.75391 159.117 6.42231 160.61 7.75911C162.103 9.07363 162.849 11.0677 162.849 13.7413V24.0012H157.97V21.7621C156.989 23.4331 155.163 24.2686 152.489 24.2686C151.108 24.2686 149.904 24.0346 148.88 23.5668C147.877 23.0989 147.108 22.4528 146.574 21.6284C146.039 20.804 145.771 19.8683 145.771 18.8211C145.771 17.1501 146.395 15.8356 147.643 14.8776C148.913 13.9195 150.862 13.4405 153.492 13.4405H157.636C157.636 12.3042 157.29 11.4353 156.6 10.8337C155.909 10.2099 154.873 9.89799 153.492 9.89799C152.533 9.89799 151.587 10.0539 150.651 10.3659C149.737 10.6555 148.958 11.0565 148.311 11.569L146.44 7.9262C147.42 7.23552 148.59 6.70081 149.949 6.32205C151.33 5.94329 152.745 5.75391 154.193 5.75391ZM153.792 20.7595C154.683 20.7595 155.474 20.559 156.165 20.1579C156.856 19.7346 157.346 19.1219 157.636 18.3198V16.4817H154.06C151.921 16.4817 150.851 17.1835 150.851 18.5872C150.851 19.2556 151.108 19.7903 151.62 20.1913C152.155 20.5701 152.879 20.7595 153.792 20.7595Z" fill="white"/>
<path d="M134.893 5.75391C136.564 5.75391 138.079 6.14381 139.438 6.9236C140.82 7.68113 141.9 8.76171 142.68 10.1653C143.46 11.5467 143.85 13.162 143.85 15.0112C143.85 16.8605 143.46 18.4869 142.68 19.8906C141.9 21.2719 140.82 22.3525 139.438 23.1323C138.079 23.8898 136.564 24.2686 134.893 24.2686C132.598 24.2686 130.794 23.5445 129.479 22.0963V30.4847H124.266V6.02127H129.245V8.09331C130.537 6.53371 132.42 5.75391 134.893 5.75391ZM133.991 19.9908C135.328 19.9908 136.419 19.5452 137.266 18.654C138.135 17.7405 138.569 16.5263 138.569 15.0112C138.569 13.4962 138.135 12.2931 137.266 11.4019C136.419 10.4884 135.328 10.0317 133.991 10.0317C132.654 10.0317 131.551 10.4884 130.682 11.4019C129.836 12.2931 129.412 13.4962 129.412 15.0112C129.412 16.5263 129.836 17.7405 130.682 18.654C131.551 19.5452 132.654 19.9908 133.991 19.9908Z" fill="white"/>
<path d="M121.519 10.2973H115.436V23.9995H110.256V10.2973H104.174V6.01953H121.519V10.2973Z" fill="white"/>
<path d="M95.2565 24.2686C93.3404 24.2686 91.6137 23.8787 90.0764 23.0989C88.5613 22.2968 87.3693 21.1939 86.5004 19.7903C85.6538 18.3867 85.2305 16.7936 85.2305 15.0112C85.2305 13.2288 85.6538 11.6358 86.5004 10.2322C87.3693 8.82854 88.5613 7.73683 90.0764 6.95702C91.6137 6.15495 93.3404 5.75391 95.2565 5.75391C97.1503 5.75391 98.799 6.15495 100.203 6.95702C101.629 7.73683 102.665 8.86197 103.311 10.3324L99.2669 12.5047C98.3311 10.856 96.9832 10.0317 95.2231 10.0317C93.864 10.0317 92.7388 10.4773 91.8476 11.3685C90.9564 12.2597 90.5108 13.4739 90.5108 15.0112C90.5108 16.5486 90.9564 17.7628 91.8476 18.654C92.7388 19.5452 93.864 19.9908 95.2231 19.9908C97.0055 19.9908 98.3534 19.1665 99.2669 17.5177L103.311 19.7235C102.665 21.1494 101.629 22.2634 100.203 23.0655C98.799 23.8675 97.1503 24.2686 95.2565 24.2686Z" fill="white"/>
<path d="M62.9746 6.01953H68.1547V16.7139L76.9108 6.01953H81.6898V23.9995H76.5097V13.3051L67.7871 23.9995H62.9746V6.01953Z" fill="white"/>
<path d="M60.2107 10.2973H50.9867V23.9995H45.8066V6.01953H60.2107V10.2973Z" fill="white"/>
<path d="M41.8105 15.0781C41.8105 15.1449 41.7771 15.6128 41.7102 16.4817H28.1083C28.3533 17.5957 28.9326 18.4758 29.8461 19.1219C30.7596 19.768 31.8959 20.0911 33.2549 20.0911C34.1907 20.0911 35.0151 19.9574 35.728 19.69C36.4633 19.4004 37.1428 18.9548 37.7666 18.3532L40.5405 21.361C38.8472 23.2994 36.3741 24.2686 33.1213 24.2686C31.0938 24.2686 29.3002 23.8787 27.7406 23.0989C26.181 22.2968 24.9779 21.1939 24.1313 19.7903C23.2846 18.3867 22.8613 16.7936 22.8613 15.0112C22.8613 13.2511 23.2735 11.6692 24.0979 10.2656C24.9445 8.83968 26.0919 7.73683 27.5401 6.95702C29.0106 6.15495 30.6482 5.75391 32.4529 5.75391C34.213 5.75391 35.806 6.13267 37.2319 6.89019C38.6578 7.64771 39.7718 8.73943 40.5739 10.1653C41.3983 11.569 41.8105 13.2066 41.8105 15.0781ZM32.4863 9.69746C31.3054 9.69746 30.314 10.0317 29.5119 10.7001C28.7098 11.3685 28.2197 12.2819 28.0414 13.4405H36.8977C36.7195 12.3042 36.2293 11.4019 35.4272 10.7335C34.6252 10.0428 33.6448 9.69746 32.4863 9.69746Z" fill="white"/>
<path d="M11.0345 0.605469C13.1065 0.605469 14.9 0.950809 16.4151 1.64149C17.9524 2.33217 19.1332 3.31249 19.9576 4.58245C20.782 5.85241 21.1941 7.35631 21.1941 9.09415C21.1941 10.8097 20.782 12.3136 19.9576 13.6058C19.1332 14.8758 17.9524 15.8561 16.4151 16.5468C14.9 17.2152 13.1065 17.5494 11.0345 17.5494H6.32224V23.9995H0.908203V0.605469H11.0345ZM10.7337 13.138C12.3601 13.138 13.5967 12.7926 14.4433 12.1019C15.2899 11.389 15.7133 10.3864 15.7133 9.09415C15.7133 7.77963 15.2899 6.77703 14.4433 6.08635C13.5967 5.37339 12.3601 5.01691 10.7337 5.01691H6.32224V13.138H10.7337Z" fill="white"/>
</svg>
