<svg width="88" height="21" viewBox="0 0 88 21" fill="none" xmlns="http://www.w3.org/2000/svg">
<path d="M74.0371 20.183V5.71094H75.9943V12.1062H85.1185V5.71094H87.0757V20.183H85.1185V13.7877H75.9943V20.183H74.0371Z" fill="#163C51"/>
<path d="M55.0586 20.183V5.71094H57.0158V17.2058L66.6913 5.71094H68.428V20.183H66.4708V8.66047L56.8228 20.183H55.0586Z" fill="#163C51"/>
<path d="M41.9746 20.183V5.71094H52.2291V7.42001H43.4356L43.9318 6.92383V20.183H41.9746Z" fill="#163C51"/>
<path d="M30.405 20.3219C29.0083 20.3219 27.7495 20.0095 26.6285 19.3847C25.5258 18.7415 24.6529 17.8685 24.0097 16.7659C23.3665 15.6449 23.0449 14.3677 23.0449 12.9343C23.0449 11.4825 23.3665 10.2053 24.0097 9.10263C24.6529 8 25.5258 7.13628 26.6285 6.51145C27.7311 5.88663 28.9899 5.57422 30.405 5.57422C31.8384 5.57422 33.1064 5.88663 34.209 6.51145C35.3301 7.13628 36.203 8 36.8278 9.10263C37.471 10.2053 37.7926 11.4825 37.7926 12.9343C37.7926 14.3677 37.471 15.6449 36.8278 16.7659C36.203 17.8685 35.3301 18.7415 34.209 19.3847C33.088 20.0095 31.82 20.3219 30.405 20.3219ZM30.405 18.5852C31.4525 18.5852 32.3805 18.3555 33.1891 17.8961C33.9977 17.4183 34.6317 16.7567 35.0912 15.9114C35.569 15.0476 35.8079 14.0553 35.8079 12.9343C35.8079 11.7949 35.569 10.8025 35.0912 9.95717C34.6317 9.11182 33.9977 8.45943 33.1891 8C32.3805 7.5222 31.4617 7.28329 30.4325 7.28329C29.4034 7.28329 28.4846 7.5222 27.676 8C26.8674 8.45943 26.2242 9.11182 25.7464 9.95717C25.2686 10.8025 25.0297 11.7949 25.0297 12.9343C25.0297 14.0553 25.2686 15.0476 25.7464 15.9114C26.2242 16.7567 26.8674 17.4183 27.676 17.8961C28.4846 18.3555 29.3942 18.5852 30.405 18.5852Z" fill="#163C51"/>
<path d="M1.86985 20.3481C1.61257 20.3481 1.36448 20.3298 1.12558 20.293C0.886676 20.2746 0.620206 20.2287 0.326172 20.1552L0.491567 18.3358C0.803978 18.4093 1.1072 18.4461 1.40124 18.4461C2.22821 18.4461 2.88979 18.1245 3.38597 17.4813C3.90053 16.8197 4.28645 15.809 4.54373 14.4491C4.80101 13.0708 4.9664 11.3066 5.03991 9.15644L5.31557 0.886719H18.4093V20.1827H16.397V2.09961L16.9207 2.65093H6.61116L7.10734 2.07205L6.85925 9.10131C6.78574 11.0309 6.64792 12.7032 6.44577 14.1183C6.24362 15.5149 5.94958 16.6819 5.56366 17.6191C5.17774 18.538 4.68156 19.2271 4.07511 19.6866C3.46867 20.1276 2.73358 20.3481 1.86985 20.3481Z" fill="#163C51"/>
</svg>
