<svg width="105" height="26" viewBox="0 0 105 26" fill="none" xmlns="http://www.w3.org/2000/svg">
<path d="M98.601 10.5645C100.42 10.5829 101.799 10.9872 102.736 11.7774C103.691 12.5676 104.169 13.707 104.169 15.1955C104.169 16.7392 103.655 17.9246 102.626 18.7515C101.615 19.5785 100.145 19.9828 98.215 19.9644L92.3711 19.9369V5.46484H94.3283V10.5094L98.601 10.5645ZM98.1048 18.4759C99.4463 18.4943 100.457 18.2278 101.137 17.6765C101.835 17.1068 102.184 16.2798 102.184 15.1955C102.184 14.1113 101.845 13.3211 101.165 12.8249C100.485 12.3103 99.4647 12.0439 98.1048 12.0255L94.3283 11.9704V18.4207L98.1048 18.4759Z" fill="#163C51"/>
<path d="M72.3086 19.9093L72.4464 18.2278C72.5751 18.2462 72.6945 18.2737 72.8048 18.3105C72.9334 18.3289 73.0437 18.338 73.1356 18.338C73.7236 18.338 74.1923 18.1175 74.5414 17.6765C74.909 17.2354 75.1846 16.6473 75.3684 15.9123C75.5522 15.1772 75.6808 14.3502 75.7543 13.4313C75.8278 12.4941 75.8921 11.5569 75.9473 10.6196L76.1954 5.46484H86.8082V19.9369H84.851V6.59504L85.3472 7.17392H77.4634L77.932 6.56747L77.7115 10.7575C77.6563 12.0071 77.5553 13.2016 77.4083 14.341C77.2796 15.4804 77.0683 16.482 76.7742 17.3457C76.4986 18.2094 76.1127 18.8894 75.6165 19.3855C75.1203 19.8633 74.4863 20.1023 73.7144 20.1023C73.4939 20.1023 73.2642 20.0839 73.0253 20.0471C72.8048 20.0104 72.5659 19.9644 72.3086 19.9093Z" fill="#163C51"/>
<path d="M63.4655 20.0758C62.0689 20.0758 60.81 19.7634 59.689 19.1386C58.5864 18.4954 57.7135 17.6224 57.0703 16.5198C56.4271 15.3988 56.1055 14.1216 56.1055 12.6882C56.1055 11.2364 56.4271 9.95917 57.0703 8.85654C57.7135 7.75391 58.5864 6.89018 59.689 6.26536C60.7916 5.64054 62.0505 5.32812 63.4655 5.32812C64.8989 5.32812 66.167 5.64054 67.2696 6.26536C68.3906 6.89018 69.2635 7.75391 69.8883 8.85654C70.5315 9.95917 70.8531 11.2364 70.8531 12.6882C70.8531 14.1216 70.5315 15.3988 69.8883 16.5198C69.2635 17.6224 68.3906 18.4954 67.2696 19.1386C66.1486 19.7634 64.8806 20.0758 63.4655 20.0758ZM63.4655 18.3392C64.513 18.3392 65.4411 18.1094 66.2497 17.65C67.0583 17.1722 67.6923 16.5106 68.1517 15.6653C68.6295 14.8015 68.8684 13.8092 68.8684 12.6882C68.8684 11.5488 68.6295 10.5564 68.1517 9.71108C67.6923 8.86573 67.0583 8.21334 66.2497 7.75391C65.4411 7.2761 64.5222 7.0372 63.4931 7.0372C62.464 7.0372 61.5451 7.2761 60.7365 7.75391C59.9279 8.21334 59.2847 8.86573 58.8069 9.71108C58.3291 10.5564 58.0902 11.5488 58.0902 12.6882C58.0902 13.8092 58.3291 14.8015 58.8069 15.6653C59.2847 16.5106 59.9279 17.1722 60.7365 17.65C61.5451 18.1094 62.4548 18.3392 63.4655 18.3392Z" fill="#163C51"/>
<path d="M46.0836 20.0758C44.834 20.0758 43.7038 19.7909 42.693 19.2213C41.6823 18.6332 40.8737 17.797 40.2672 16.7128C39.6792 15.6101 39.3851 14.2686 39.3851 12.6882C39.3851 11.1077 39.6792 9.7754 40.2672 8.69114C40.8553 7.58852 41.6547 6.75235 42.6654 6.18266C43.6762 5.61297 44.8156 5.32812 46.0836 5.32812C47.4619 5.32812 48.6932 5.64054 49.7774 6.26536C50.88 6.87181 51.7438 7.73553 52.3686 8.85654C52.9934 9.95917 53.3058 11.2364 53.3058 12.6882C53.3058 14.1584 52.9934 15.4448 52.3686 16.5474C51.7438 17.65 50.88 18.5137 49.7774 19.1386C48.6932 19.7634 47.4619 20.0758 46.0836 20.0758ZM38.6133 25.2857V5.46595H40.4878V9.82134L40.2948 12.7157L40.5704 15.6377V25.2857H38.6133ZM45.9458 18.3392C46.9749 18.3392 47.8937 18.1094 48.7023 17.65C49.5109 17.1722 50.1541 16.5106 50.6319 15.6653C51.1097 14.8015 51.3487 13.8092 51.3487 12.6882C51.3487 11.5672 51.1097 10.584 50.6319 9.73864C50.1541 8.89329 49.5109 8.23172 48.7023 7.75391C47.8937 7.2761 46.9749 7.0372 45.9458 7.0372C44.9166 7.0372 43.9886 7.2761 43.1616 7.75391C42.353 8.23172 41.7098 8.89329 41.232 9.73864C40.7726 10.584 40.5429 11.5672 40.5429 12.6882C40.5429 13.8092 40.7726 14.8015 41.232 15.6653C41.7098 16.5106 42.353 17.1722 43.1616 17.65C43.9886 18.1094 44.9166 18.3392 45.9458 18.3392Z" fill="#163C51"/>
<path d="M31.5281 19.938V16.7403L31.4454 16.2166V10.8688C31.4454 9.63757 31.0963 8.69115 30.3979 8.02957C29.718 7.36799 28.698 7.0372 27.3381 7.0372C26.4009 7.0372 25.5096 7.19341 24.6642 7.50582C23.8189 7.81823 23.1022 8.23172 22.5141 8.74628L21.632 7.28529C22.3671 6.66047 23.2492 6.18266 24.2783 5.85187C25.3074 5.50271 26.3917 5.32812 27.5311 5.32812C29.4056 5.32812 30.8482 5.79674 31.8589 6.73398C32.888 7.65284 33.4026 9.05869 33.4026 10.9515V19.938H31.5281ZM26.5387 20.0758C25.4545 20.0758 24.508 19.9012 23.6994 19.552C22.9092 19.1845 22.3028 18.6883 21.8801 18.0635C21.4574 17.4203 21.2461 16.6852 21.2461 15.8582C21.2461 15.1048 21.4207 14.4248 21.7698 13.8184C22.1374 13.1935 22.7255 12.6974 23.534 12.3298C24.361 11.9439 25.4637 11.7509 26.8419 11.7509H31.8313V13.2119H26.8971C25.5004 13.2119 24.5264 13.46 23.9751 13.9562C23.4422 14.4524 23.1757 15.068 23.1757 15.8031C23.1757 16.6301 23.4973 17.2917 24.1405 17.7878C24.7837 18.284 25.6842 18.5321 26.8419 18.5321C27.9446 18.5321 28.891 18.284 29.6812 17.7878C30.4898 17.2733 31.0779 16.5382 31.4454 15.5826L31.8865 16.9333C31.5189 17.8889 30.8757 18.6516 29.9569 19.2213C29.0564 19.7909 27.917 20.0758 26.5387 20.0758Z" fill="#163C51"/>
<path d="M0.263672 19.9366V0.640625H16.4999V19.9366H14.4876V1.85352L15.0113 2.40483H1.75222L2.27597 1.85352V19.9366H0.263672Z" fill="#163C51"/>
</svg>
