<svg width="166" height="20" viewBox="0 0 166 20" fill="none" xmlns="http://www.w3.org/2000/svg">
<path d="M161.883 8.54321C163.095 8.54321 164.001 8.78149 164.6 9.25806C165.212 9.73462 165.519 10.4563 165.519 11.423C165.519 12.2536 165.308 12.9753 164.886 13.588C164.477 14.2007 163.898 14.6773 163.15 15.0177C162.401 15.3445 161.522 15.5079 160.515 15.5079H156.021L158.186 4.78516H159.616L158.881 8.54321H161.883ZM160.515 14.405C161.223 14.405 161.842 14.2892 162.373 14.0577C162.904 13.8127 163.32 13.4791 163.619 13.057C163.919 12.6212 164.069 12.1174 164.069 11.5456C164.069 10.2657 163.204 9.62569 161.475 9.62569H158.656L157.696 14.405H160.515Z" fill="#163C51"/>
<path d="M141.176 15.4874L141.523 14.2416C141.618 14.2552 141.707 14.2756 141.788 14.3028C141.87 14.3165 141.945 14.3233 142.013 14.3233C142.503 14.3233 142.932 14.1054 143.3 13.6697C143.681 13.2204 144.022 12.5668 144.321 11.709C144.634 10.8511 144.947 9.8027 145.261 8.56364L146.2 4.78516H154.063L151.898 15.5079H150.448L152.43 5.5817L152.736 6.05146H146.895L147.323 5.5817L146.547 8.7066C146.248 9.87759 145.948 10.8988 145.649 11.7702C145.363 12.6281 145.05 13.3429 144.709 13.9148C144.382 14.4867 144.015 14.9156 143.606 15.2015C143.211 15.4874 142.755 15.6304 142.238 15.6304C142.061 15.6304 141.891 15.6168 141.727 15.5896C141.564 15.5623 141.38 15.5283 141.176 15.4874Z" fill="#163C51"/>
<path d="M134.975 15.6105C133.981 15.6105 133.117 15.4267 132.381 15.0591C131.66 14.6778 131.095 14.1468 130.686 13.466C130.291 12.7852 130.094 11.9818 130.094 11.0559C130.094 9.8305 130.359 8.7412 130.89 7.78807C131.421 6.82133 132.157 6.06563 133.096 5.52099C134.036 4.96272 135.104 4.68359 136.303 4.68359C137.297 4.68359 138.155 4.86741 138.876 5.23505C139.611 5.60268 140.176 6.1269 140.571 6.80771C140.98 7.48852 141.184 8.29187 141.184 9.21777C141.184 10.4432 140.919 11.5393 140.388 12.5061C139.857 13.4592 139.121 14.2149 138.182 14.7732C137.256 15.3314 136.187 15.6105 134.975 15.6105ZM135.077 14.3238C135.976 14.3238 136.772 14.1128 137.467 13.6907C138.175 13.255 138.726 12.6558 139.121 11.8933C139.53 11.1308 139.734 10.2662 139.734 9.29947C139.734 8.23741 139.421 7.41363 138.794 6.82814C138.182 6.24264 137.317 5.94989 136.201 5.94989C135.316 5.94989 134.519 6.16775 133.811 6.60347C133.103 7.03919 132.545 7.6383 132.136 8.4008C131.741 9.14969 131.544 10.0143 131.544 10.9947C131.544 12.0431 131.85 12.8601 132.463 13.4456C133.089 14.0311 133.961 14.3238 135.077 14.3238Z" fill="#163C51"/>
<path d="M121.956 15.6105C121.03 15.6105 120.233 15.4472 119.566 15.1204C118.913 14.78 118.409 14.2966 118.055 13.6702C117.714 13.0303 117.537 12.261 117.524 11.3623C117.524 10.0415 117.762 8.88417 118.239 7.89019C118.715 6.8826 119.389 6.09967 120.261 5.54141C121.132 4.96953 122.16 4.68359 123.345 4.68359C124.27 4.68359 125.081 4.86741 125.775 5.23505C126.483 5.58907 127.035 6.10648 127.429 6.78729C127.838 7.46809 128.042 8.27826 128.042 9.21777C128.042 10.1437 127.892 10.9947 127.593 11.7708C127.293 12.5469 126.864 13.2209 126.306 13.7928C125.761 14.3647 125.121 14.814 124.386 15.1408C123.651 15.454 122.841 15.6105 121.956 15.6105ZM115.195 19.4707L118.116 4.78572H119.505L118.892 7.86977L118.3 10.0143L118.075 12.261L116.645 19.4707H115.195ZM121.935 14.3238C122.834 14.3238 123.631 14.1128 124.325 13.6907C125.019 13.255 125.564 12.6558 125.959 11.8933C126.367 11.1308 126.572 10.2662 126.572 9.29947C126.572 8.23741 126.265 7.41363 125.653 6.82814C125.04 6.24264 124.168 5.94989 123.038 5.94989C122.153 5.94989 121.357 6.16775 120.649 6.60347C119.954 7.03919 119.403 7.6383 118.994 8.4008C118.599 9.14969 118.402 10.0143 118.402 10.9947C118.402 12.0431 118.708 12.8601 119.321 13.4456C119.934 14.0311 120.805 14.3238 121.935 14.3238Z" fill="#163C51"/>
<path d="M106.607 15.6105C105.695 15.6105 104.884 15.4267 104.176 15.0591C103.468 14.6915 102.917 14.1672 102.522 13.4864C102.127 12.8056 101.93 11.9955 101.93 11.0559C101.93 10.1437 102.079 9.29947 102.379 8.52335C102.679 7.74723 103.101 7.07323 103.645 6.50135C104.19 5.91586 104.83 5.46652 105.565 5.15335C106.314 4.84018 107.124 4.68359 107.996 4.68359C108.935 4.68359 109.732 4.8538 110.385 5.1942C111.039 5.52099 111.543 6.00436 111.897 6.64432C112.251 7.27066 112.428 8.03317 112.428 8.93183C112.428 10.2254 112.189 11.3759 111.713 12.3835C111.236 13.3911 110.562 14.1809 109.691 14.7527C108.819 15.3246 107.791 15.6105 106.607 15.6105ZM106.913 14.3238C107.812 14.3238 108.608 14.1128 109.303 13.6907C110.011 13.255 110.562 12.6558 110.957 11.8933C111.366 11.1308 111.57 10.2662 111.57 9.29947C111.57 8.23741 111.257 7.41363 110.63 6.82814C110.018 6.24264 109.153 5.94989 108.037 5.94989C107.151 5.94989 106.355 6.16775 105.647 6.60347C104.939 7.03919 104.381 7.6383 103.972 8.4008C103.577 9.14969 103.38 10.0143 103.38 10.9947C103.38 12.0431 103.686 12.8601 104.299 13.4456C104.925 14.0311 105.797 14.3238 106.913 14.3238ZM110.447 15.5084L111.059 12.4244L111.672 10.2594L111.876 8.01274L112.53 4.78572H113.98L111.835 15.5084H110.447Z" fill="#163C51"/>
<path d="M88.127 15.5079L90.2715 4.78516H99.9117L97.7672 15.5079H96.3171L98.2574 5.6634L98.5637 6.05146H91.068L91.5174 5.6634L89.5771 15.5079H88.127Z" fill="#163C51"/>
<path d="M68.7207 15.5079L70.8857 4.78516H72.3358L70.5997 13.445L79.423 4.78516H80.8118L78.6673 15.5079H77.1763L78.9532 6.82758L70.13 15.5079H68.7207Z" fill="#163C51"/>
<path d="M53.875 15.4874L54.2222 14.2416C54.3175 14.2552 54.406 14.2756 54.4877 14.3028C54.5694 14.3165 54.6443 14.3233 54.7124 14.3233C55.2026 14.3233 55.6315 14.1054 55.9991 13.6697C56.3804 13.2204 56.7208 12.5668 57.0203 11.709C57.3335 10.8511 57.6467 9.8027 57.9598 8.56364L58.8994 4.78516H66.7627L64.5977 15.5079H63.1476L65.1287 5.5817L65.4351 6.05146H59.5938L60.0227 5.5817L59.2466 8.7066C58.947 9.87759 58.6475 10.8988 58.3479 11.7702C58.062 12.6281 57.7488 13.3429 57.4084 13.9148C57.0816 14.4867 56.714 14.9156 56.3055 15.2015C55.9106 15.4874 55.4545 15.6304 54.9371 15.6304C54.76 15.6304 54.5898 15.6168 54.4265 15.5896C54.2631 15.5623 54.0792 15.5283 53.875 15.4874Z" fill="#163C51"/>
<path d="M50.256 15.5079L52.4006 4.78516H53.8507L51.7061 15.5079H50.256ZM45.5993 8.54321C46.7975 8.54321 47.6962 8.78149 48.2953 9.25806C48.908 9.73462 49.2144 10.4563 49.2144 11.423C49.2144 12.2536 49.0033 12.9753 48.5812 13.588C48.1728 14.2007 47.5941 14.6773 46.8452 15.0177C46.0963 15.3445 45.2181 15.5079 44.2105 15.5079H39.7988L41.9434 4.80558H43.3935L42.6582 8.54321H45.5993ZM44.2105 14.405C44.9185 14.405 45.538 14.2892 46.0691 14.0577C46.6001 13.8127 47.0154 13.4791 47.3149 13.057C47.6145 12.6212 47.7643 12.1174 47.7643 11.5456C47.7643 10.2657 46.8996 9.62569 45.1704 9.62569H42.4336L41.4736 14.405H44.2105Z" fill="#163C51"/>
<path d="M31.527 15.6323C30.002 15.6323 28.8106 15.183 27.9527 14.2843C27.0949 13.3857 26.666 12.0853 26.666 10.3833C26.666 9.25317 26.8362 8.1775 27.1766 7.15629C27.517 6.13508 28.0004 5.20237 28.6267 4.35817C29.2531 3.51397 30.002 2.80593 30.8734 2.23405C31.7448 1.66217 32.7048 1.26731 33.7532 1.04945L38.7367 0.0078125L38.7776 1.25369L34.08 2.23405C32.9907 2.46553 32.024 2.90124 31.1798 3.5412C30.3492 4.18116 29.6684 4.98451 29.1373 5.95126C28.6199 6.918 28.2795 8.0073 28.1161 9.21913L27.6872 8.95362C28.3136 7.78263 29.1237 6.89077 30.1177 6.27805C31.1117 5.66532 32.2214 5.35896 33.4469 5.35896C34.8085 5.35896 35.8705 5.7334 36.633 6.48229C37.4092 7.21756 37.7972 8.25239 37.7972 9.58677C37.7972 10.7441 37.5249 11.779 36.9802 12.6912C36.4492 13.6035 35.7071 14.3252 34.754 14.8562C33.8145 15.3736 32.7388 15.6323 31.527 15.6323ZM31.6291 14.4886C32.5005 14.4886 33.2835 14.2843 33.9779 13.8759C34.6859 13.4538 35.2374 12.8955 35.6322 12.2011C36.0407 11.493 36.245 10.6965 36.245 9.81143C36.245 8.80384 35.959 8.02772 35.3872 7.48308C34.8153 6.92481 34.0187 6.64568 32.9975 6.64568C32.3576 6.64568 31.7448 6.76142 31.1593 6.99289C30.5738 7.22437 30.0496 7.53754 29.5867 7.93241C29.1237 8.32728 28.7561 8.78342 28.4838 9.30083C28.2251 9.81824 28.0957 10.3697 28.0957 10.9552C28.0957 12.0173 28.4089 12.8751 29.0352 13.5286C29.6752 14.1686 30.5398 14.4886 31.6291 14.4886Z" fill="#163C51"/>
<path d="M16.8725 15.6105C15.9602 15.6105 15.15 15.4267 14.442 15.0591C13.7339 14.6915 13.1825 14.1672 12.7876 13.4864C12.3927 12.8056 12.1953 11.9955 12.1953 11.0559C12.1953 10.1437 12.3451 9.29947 12.6446 8.52335C12.9442 7.74723 13.3663 7.07323 13.9109 6.50135C14.4556 5.91586 15.0956 5.46652 15.8308 5.15335C16.5797 4.84018 17.3899 4.68359 18.2613 4.68359C19.2008 4.68359 19.9974 4.8538 20.6509 5.1942C21.3045 5.52099 21.8083 6.00436 22.1623 6.64432C22.5163 7.27066 22.6934 8.03317 22.6934 8.93183C22.6934 10.2254 22.4551 11.3759 21.9785 12.3835C21.5019 13.3911 20.8279 14.1809 19.9565 14.7527C19.0851 15.3246 18.0571 15.6105 16.8725 15.6105ZM17.1788 14.3238C18.0775 14.3238 18.874 14.1128 19.5685 13.6907C20.2765 13.255 20.8279 12.6558 21.2228 11.8933C21.6313 11.1308 21.8355 10.2662 21.8355 9.29947C21.8355 8.23741 21.5224 7.41363 20.896 6.82814C20.2833 6.24264 19.4187 5.94989 18.3022 5.94989C17.4171 5.94989 16.6206 6.16775 15.9125 6.60347C15.2045 7.03919 14.6462 7.6383 14.2377 8.4008C13.8429 9.14969 13.6454 10.0143 13.6454 10.9947C13.6454 12.0431 13.9518 12.8601 14.5645 13.4456C15.1909 14.0311 16.0623 14.3238 17.1788 14.3238ZM20.7122 15.5084L21.3249 12.4244L21.9377 10.2594L22.1419 8.01274L22.7955 4.78572H24.2456L22.1011 15.5084H20.7122Z" fill="#163C51"/>
<path d="M4.40605 15.6319C2.73126 15.6319 1.36284 15.1757 0.300781 14.2634L0.913507 13.2422C1.32199 13.6099 1.82579 13.889 2.4249 14.0796C3.03763 14.2703 3.70482 14.3656 4.42647 14.3656C5.13451 14.3656 5.76085 14.2703 6.3055 14.0796C6.86376 13.8754 7.29948 13.6099 7.61265 13.2831C7.92582 12.9427 8.08241 12.5614 8.08241 12.1393C8.08241 11.6219 7.85774 11.2202 7.40841 10.9343C6.95907 10.6484 6.32592 10.5054 5.50896 10.5054H3.73205L3.89544 9.40248H5.42726C6.35316 9.40248 7.09524 9.23228 7.6535 8.89187C8.22538 8.53785 8.51131 8.08852 8.51131 7.54388C8.51131 7.04008 8.28665 6.64521 7.83731 6.35927C7.4016 6.07333 6.78206 5.93036 5.97871 5.93036C5.42045 5.93036 4.86219 6.00525 4.30393 6.15503C3.75928 6.30481 3.1806 6.51586 2.56787 6.78818L2.15938 5.58315C2.82657 5.26998 3.48696 5.03851 4.14053 4.88873C4.80772 4.73895 5.4613 4.66406 6.10126 4.66406C6.87738 4.66406 7.55818 4.77299 8.14368 4.99085C8.72917 5.20871 9.18531 5.51507 9.5121 5.90994C9.83889 6.30481 10.0023 6.77456 10.0023 7.31921C10.0023 7.79577 9.87293 8.22468 9.61422 8.60594C9.35551 8.98719 8.98107 9.30717 8.49089 9.56587C8.01433 9.81096 7.44926 9.98117 6.79568 10.0765L6.75483 9.81096C7.6535 9.93351 8.34111 10.2058 8.81768 10.6279C9.29424 11.0364 9.53252 11.5743 9.53252 12.2414C9.53252 12.8814 9.30786 13.4601 8.85853 13.9775C8.42281 14.4813 7.81689 14.883 7.04077 15.1825C6.26465 15.4821 5.38641 15.6319 4.40605 15.6319Z" fill="#163C51"/>
</svg>
