<svg width="79" height="20" viewBox="0 0 79 20" fill="none" xmlns="http://www.w3.org/2000/svg">
<path d="M64.8438 5.69141H68.6427V13.5343L75.064 5.69141H78.5688V18.8773H74.7699V11.0344L68.373 18.8773H64.8438V5.69141Z" fill="white"/>
<path d="M62.8042 8.82857H58.3435V18.8773H54.5446V8.82857H50.084V5.69141H62.8042V8.82857Z" fill="white"/>
<path d="M34.3262 5.69308H38.1251V13.536L44.5464 5.69308H48.0512V18.879H44.2523V11.0361L37.8555 18.879H34.3262V5.69308ZM40.9436 4.27156C38.0679 4.27156 36.6219 3.00526 36.6055 0.472656H39.1054C39.1218 1.04453 39.277 1.49387 39.5711 1.82065C39.8816 2.1311 40.3309 2.28633 40.9191 2.28633C41.5073 2.28633 41.9567 2.1311 42.2671 1.82065C42.5939 1.49387 42.7573 1.04453 42.7573 0.472656H45.3062C45.2899 3.00526 43.8357 4.27156 40.9436 4.27156Z" fill="white"/>
<path d="M24.4656 19.0741C23.0768 19.0741 21.8268 18.7882 20.7157 18.2163C19.621 17.6281 18.7632 16.8193 18.1423 15.7899C17.5214 14.7605 17.2109 13.5923 17.2109 12.2851C17.2109 10.978 17.5214 9.80969 18.1423 8.78031C18.7632 7.75093 19.621 6.9503 20.7157 6.37842C21.8268 5.7902 23.0768 5.49609 24.4656 5.49609C25.8545 5.49609 27.0963 5.7902 28.191 6.37842C29.2857 6.9503 30.1436 7.75093 30.7645 8.78031C31.3853 9.80969 31.6958 10.978 31.6958 12.2851C31.6958 13.5923 31.3853 14.7605 30.7645 15.7899C30.1436 16.8193 29.2857 17.6281 28.191 18.2163C27.0963 18.7882 25.8545 19.0741 24.4656 19.0741ZM24.4656 15.937C25.446 15.937 26.2466 15.6102 26.8675 14.9566C27.5047 14.2867 27.8234 13.3962 27.8234 12.2851C27.8234 11.174 27.5047 10.2917 26.8675 9.63812C26.2466 8.96821 25.446 8.63325 24.4656 8.63325C23.4853 8.63325 22.6765 8.96821 22.0392 9.63812C21.402 10.2917 21.0834 11.174 21.0834 12.2851C21.0834 13.3962 21.402 14.2867 22.0392 14.9566C22.6765 15.6102 23.4853 15.937 24.4656 15.937Z" fill="white"/>
<path d="M12.2092 9.93319C13.2549 10.2436 14.0555 10.7502 14.611 11.4528C15.1666 12.1553 15.4444 13.0213 15.4444 14.0507C15.4444 15.5703 14.8643 16.7549 13.7042 17.6045C12.5605 18.4542 10.9184 18.879 8.77789 18.879H0.322266V1.72266H8.31222C10.3056 1.72266 11.8579 2.10663 12.9689 2.87458C14.08 3.64253 14.6356 4.73727 14.6356 6.15879C14.6356 7.00844 14.4231 7.76005 13.9983 8.41363C13.5735 9.05086 12.9771 9.55738 12.2092 9.93319ZM4.26823 8.83028H7.96909C8.83508 8.83028 9.48865 8.65872 9.92982 8.31559C10.371 7.95613 10.5916 7.43327 10.5916 6.74701C10.5916 6.0771 10.3628 5.56241 9.9053 5.20294C9.46414 4.84348 8.81874 4.66374 7.96909 4.66374H4.26823V8.83028ZM8.63084 15.9379C10.4935 15.9379 11.4249 15.2026 11.4249 13.7321C11.4249 12.3106 10.4935 11.5998 8.63084 11.5998H4.26823V15.9379H8.63084Z" fill="white"/>
</svg>
