<svg width="97" height="28" viewBox="0 0 97 28" fill="none" xmlns="http://www.w3.org/2000/svg">
<path d="M86.2302 20.7578V11.6007H82.4537L82.4203 12.737C82.398 13.5168 82.3535 14.2409 82.2866 14.9093C82.2421 15.5777 82.1418 16.1792 81.9858 16.7139C81.8299 17.2264 81.5959 17.6831 81.284 18.0842C80.9944 18.4629 80.5822 18.7748 80.0475 19.0199L72.6617 18.0842C73.2409 18.0842 73.72 17.9393 74.0987 17.6497C74.4775 17.3378 74.7671 16.9145 74.9677 16.3797C75.1905 15.8227 75.3464 15.1878 75.4355 14.4748C75.5469 13.7618 75.6138 12.9932 75.636 12.1688L75.87 5.71875H93.7497V20.7578H86.2302ZM72.127 27.6089V18.0842H96.1893V27.6089H89.2046V23.9995H79.1117V27.6089H72.127Z" fill="white"/>
<path d="M59.2213 24.332C57.1493 24.332 55.3112 23.9309 53.707 23.1288C52.1251 22.3045 50.8775 21.1793 49.964 19.7534C49.0505 18.3275 48.5938 16.6899 48.5938 14.8407C48.5938 12.9914 49.0505 11.3539 49.964 9.92793C50.8775 8.50201 52.1251 7.38801 53.707 6.58593C55.3112 5.78385 57.1493 5.38281 59.2213 5.38281C61.2934 5.38281 63.1315 5.78385 64.7356 6.58593C66.3398 7.38801 67.5875 8.50201 68.4787 9.92793C69.3921 11.3539 69.8489 12.9914 69.8489 14.8407C69.8489 16.6899 69.3921 18.3275 68.4787 19.7534C67.5875 21.1793 66.3398 22.3045 64.7356 23.1288C63.1315 23.9309 61.2934 24.332 59.2213 24.332ZM59.2213 18.45C59.7783 18.45 60.2796 18.3164 60.7252 18.049C61.1708 17.7816 61.5273 17.3806 61.7947 16.8459C62.062 16.2889 62.1957 15.6205 62.1957 14.8407C62.1957 14.0386 62.062 13.3813 61.7947 12.8689C61.5273 12.3342 61.1708 11.9331 60.7252 11.6658C60.2796 11.3984 59.7783 11.2647 59.2213 11.2647C58.6643 11.2647 58.163 11.3984 57.7174 11.6658C57.2718 11.9331 56.9153 12.3342 56.648 12.8689C56.3806 13.3813 56.2469 14.0386 56.2469 14.8407C56.2469 15.6205 56.3806 16.2889 56.648 16.8459C56.9153 17.3806 57.2718 17.7816 57.7174 18.049C58.163 18.3164 58.6643 18.45 59.2213 18.45Z" fill="white"/>
<path d="M24.7793 23.9995L33.4017 12.7035L33.2011 17.0481L24.9798 5.71875H33.5019L37.5457 11.7678L34.4043 12.0017L38.8491 5.71875H46.7697L38.5149 16.6805V12.503L46.9368 23.9995H38.281L34.1035 17.5494L37.2784 17.9839L32.9672 23.9995H24.7793Z" fill="white"/>
<path d="M0.443359 23.9995V0.605469H12.3075C15.2039 0.605469 17.443 1.14019 19.0249 2.20963C20.629 3.27907 21.4311 4.78297 21.4311 6.72133C21.4311 8.61513 20.6959 10.119 19.2254 11.233C17.7549 12.3247 15.772 12.8706 13.2766 12.8706L13.945 11.0659C16.5964 11.0659 18.6795 11.5895 20.1946 12.6367C21.7096 13.6838 22.4671 15.21 22.4671 17.2152C22.4671 19.2873 21.6428 20.936 19.9941 22.1614C18.3453 23.3868 15.9948 23.9995 12.9424 23.9995H0.443359ZM8.1968 18.4852H12.5748C13.2209 18.4852 13.7 18.3292 14.0119 18.0173C14.3461 17.6831 14.5132 17.2152 14.5132 16.6136C14.5132 16.0121 14.3461 15.5665 14.0119 15.2768C13.7 14.9649 13.2209 14.809 12.5748 14.809H8.1968V18.4852ZM8.1968 9.59545H11.5388C12.2072 9.59545 12.6974 9.45063 13.0093 9.16099C13.3212 8.87135 13.4772 8.44803 13.4772 7.89103C13.4772 7.31175 13.3212 6.87729 13.0093 6.58765C12.6974 6.27573 12.2072 6.11977 11.5388 6.11977H8.1968V9.59545Z" fill="white"/>
</svg>
