<svg width="724" height="86" viewBox="0 0 724 86" fill="none" xmlns="http://www.w3.org/2000/svg">
<path d="M704.936 66.9988V50.7489L707.582 53.8666H695.772C687.773 53.8666 681.443 52.2605 676.782 49.0483C672.122 45.7731 669.791 41.1753 669.791 35.2548C669.791 28.9564 672.185 24.0751 676.971 20.611C681.821 17.0839 688.372 15.3203 696.622 15.3203H723.832V66.9988H704.936ZM668.752 66.9988L682.262 47.4422H703.803L691.332 66.9988H668.752ZM704.936 44.419V26.7519L707.582 31.8536H697.095C695.331 31.8536 693.977 32.2001 693.032 32.8929C692.088 33.5227 691.615 34.562 691.615 36.0106C691.615 39.0338 693.442 40.5455 697.095 40.5455H707.582L704.936 44.419Z" fill="#163C51"/>
<path d="M599.166 66.9988V15.3203H620.423V38.6559L638.279 15.3203H657.93V66.9988H636.673V43.5687L618.911 66.9988H599.166Z" fill="#163C51"/>
<path d="M526.354 66.9988V15.3203H547.611V50.2765H560.081V15.3203H581.339V66.9988H526.354ZM568.49 77.2022V66.9988H573.119H560.081V50.2765H588.235V77.2022H568.49Z" fill="#163C51"/>
<path d="M493.088 67.0021V57.838L491.576 55.3816V37.998C491.576 35.4786 490.789 33.5576 489.215 32.2349C487.703 30.9122 485.215 30.2509 481.751 30.2509C479.421 30.2509 477.059 30.6288 474.665 31.3846C472.272 32.0774 470.225 33.0537 468.524 34.3134L461.722 20.2364C464.745 18.3469 468.367 16.8983 472.587 15.8905C476.807 14.8828 480.932 14.3789 484.963 14.3789C493.844 14.3789 500.709 16.3629 505.559 20.3309C510.472 24.2989 512.928 30.5973 512.928 39.2261V67.0021H493.088ZM478.444 67.9469C474.224 67.9469 470.697 67.2226 467.863 65.774C465.029 64.3253 462.887 62.4043 461.439 60.0109C459.99 57.5545 459.266 54.8462 459.266 51.886C459.266 48.5478 460.116 45.7135 461.816 43.3831C463.517 41.0527 466.099 39.2891 469.564 38.0924C473.091 36.8957 477.531 36.2974 482.885 36.2974H493.655V46.5953H486.286C484.018 46.5953 482.349 46.9732 481.279 47.729C480.271 48.4218 479.767 49.4926 479.767 50.9412C479.767 52.1379 480.208 53.1456 481.09 53.9644C482.034 54.7202 483.294 55.0981 484.869 55.0981C486.317 55.0981 487.64 54.7202 488.837 53.9644C490.096 53.1456 491.01 51.886 491.576 50.1854L494.316 56.5153C493.497 60.3573 491.765 63.2231 489.12 65.1126C486.475 67.0021 482.916 67.9469 478.444 67.9469Z" fill="#163C51"/>
<path d="M427.665 67.9469C423.194 67.9469 419.478 67.0021 416.517 65.1126C413.62 63.1601 411.479 60.2314 410.093 56.3263C408.707 52.3583 408.014 47.3196 408.014 41.2101C408.014 34.9747 408.644 29.9045 409.904 25.9995C411.227 22.0315 413.337 19.1027 416.234 17.2132C419.131 15.3237 422.942 14.3789 427.665 14.3789C432.2 14.3789 436.357 15.4811 440.136 17.6856C443.915 19.827 446.939 22.9133 449.206 26.9442C451.473 30.9122 452.607 35.6675 452.607 41.2101C452.607 46.7528 451.473 51.5395 449.206 55.5705C446.939 59.5385 443.915 62.5933 440.136 64.7347C436.357 66.8762 432.2 67.9469 427.665 67.9469ZM393.182 85.3305V15.3237H413.494V22.3149L413.589 41.2101L414.533 60.1054V85.3305H393.182ZM422.564 51.3191C424.138 51.3191 425.555 50.9412 426.815 50.1854C428.075 49.4296 429.083 48.2959 429.838 46.7842C430.594 45.2726 430.972 43.4146 430.972 41.2101C430.972 38.9427 430.594 37.0532 429.838 35.5416C429.083 34.03 428.075 32.8962 426.815 32.1404C425.555 31.3846 424.138 31.0067 422.564 31.0067C420.989 31.0067 419.572 31.3846 418.312 32.1404C417.053 32.8962 416.045 34.03 415.289 35.5416C414.533 37.0532 414.155 38.9427 414.155 41.2101C414.155 43.4146 414.533 45.2726 415.289 46.7842C416.045 48.2959 417.053 49.4296 418.312 50.1854C419.572 50.9412 420.989 51.3191 422.564 51.3191Z" fill="#163C51"/>
<path d="M345.281 66.9988V27.4133L349.911 31.9481H329.504V15.3203H382.316V31.9481H361.909L366.539 27.4133V66.9988H345.281Z" fill="#163C51"/>
<path d="M296.906 67.9469C290.986 67.9469 285.727 66.8132 281.129 64.5458C276.531 62.2783 272.909 59.1291 270.264 55.0981C267.682 51.0042 266.391 46.3434 266.391 41.1157C266.391 35.888 267.682 31.2587 270.264 27.2277C272.909 23.1967 276.531 20.0475 281.129 17.7801C285.727 15.5126 290.986 14.3789 296.906 14.3789C303.205 14.3789 308.59 15.7331 313.062 18.4414C317.534 21.1497 320.62 24.8973 322.321 29.6841L305.787 37.809C304.716 35.4156 303.394 33.6835 301.819 32.6128C300.308 31.5421 298.638 31.0067 296.812 31.0067C295.237 31.0067 293.757 31.3846 292.372 32.1404C291.049 32.8962 289.978 34.03 289.159 35.5416C288.404 36.9902 288.026 38.8482 288.026 41.1157C288.026 43.3831 288.404 45.2726 289.159 46.7842C289.978 48.2959 291.049 49.4296 292.372 50.1854C293.757 50.9412 295.237 51.3191 296.812 51.3191C298.638 51.3191 300.308 50.7837 301.819 49.713C303.394 48.6423 304.716 46.9102 305.787 44.5168L322.321 52.6418C320.62 57.4286 317.534 61.1761 313.062 63.8844C308.59 66.5928 303.205 67.9469 296.906 67.9469Z" fill="#163C51"/>
<path d="M196.332 66.9988V15.3203H217.589V38.6559L235.445 15.3203H255.096V66.9988H233.839V43.5687L216.078 66.9988H196.332Z" fill="#163C51"/>
<path d="M140.311 66.9988V15.3203H185.47V31.9481H156.938L161.568 27.4133V66.9988H140.311Z" fill="#163C51"/>
<path d="M101.457 67.9469C95.1588 67.9469 89.6476 66.7817 84.9238 64.4513C80.263 62.1209 76.6414 58.9402 74.0591 54.9092C71.4767 50.8152 70.1855 46.2174 70.1855 41.1157C70.1855 35.888 71.4452 31.2587 73.9646 27.2277C76.5469 23.1967 80.0426 20.0475 84.4515 17.7801C88.9233 15.5126 93.9306 14.3789 99.4732 14.3789C104.575 14.3789 109.267 15.3867 113.55 17.4021C117.896 19.4176 121.36 22.4094 123.943 26.3774C126.588 30.3454 127.911 35.2582 127.911 41.1157C127.911 41.8715 127.879 42.7218 127.816 43.6665C127.753 44.5483 127.69 45.3671 127.627 46.1229H87.8526V35.825H116.29L108.259 38.5648C108.259 36.5493 107.882 34.8488 107.126 33.4631C106.433 32.0145 105.457 30.9122 104.197 30.1564C102.937 29.3376 101.426 28.9282 99.6621 28.9282C97.8986 28.9282 96.3555 29.3376 95.0328 30.1564C93.7731 30.9122 92.7969 32.0145 92.104 33.4631C91.4112 34.8488 91.0648 36.5493 91.0648 38.5648V41.777C91.0648 43.9814 91.5057 45.871 92.3875 47.4456C93.2692 49.0202 94.5289 50.2169 96.1665 51.0357C97.8041 51.7915 99.7881 52.1694 102.118 52.1694C104.512 52.1694 106.464 51.8545 107.976 51.2246C109.551 50.5948 111.188 49.65 112.889 48.3903L124.037 59.633C121.518 62.3413 118.4 64.4198 114.684 65.8684C111.031 67.2541 106.622 67.9469 101.457 67.9469Z" fill="#163C51"/>
<path d="M0.978516 67.0005V0.867188H32.817C38.9894 0.867188 44.3116 1.87493 48.7835 3.89043C53.3183 5.90592 56.8139 8.80319 59.2703 12.5822C61.7267 16.2983 62.9549 20.7072 62.9549 25.8089C62.9549 30.9106 61.7267 35.3195 59.2703 39.0356C56.8139 42.7516 53.3183 45.6489 48.7835 47.7274C44.3116 49.7429 38.9894 50.7506 32.817 50.7506H13.3549L23.2749 41.2085V67.0005H0.978516ZM23.2749 43.6649L13.3549 33.556H31.3998C34.4861 33.556 36.7535 32.8631 38.2021 31.4775C39.7138 30.0918 40.4696 28.2023 40.4696 25.8089C40.4696 23.4155 39.7138 21.526 38.2021 20.1403C36.7535 18.7547 34.4861 18.0619 31.3998 18.0619H13.3549L23.2749 7.95291V43.6649Z" fill="#163C51"/>
</svg>
