<svg width="254" height="33" viewBox="0 0 254 33" fill="none" xmlns="http://www.w3.org/2000/svg">
<path d="M247.227 26.0003V19.6643L248.127 20.7083H243.159C240.255 20.7083 237.963 20.1203 236.283 18.9443C234.603 17.7443 233.763 16.0403 233.763 13.8323C233.763 11.4803 234.639 9.66828 236.391 8.39628C238.143 7.12428 240.507 6.48828 243.483 6.48828H253.311V26.0003H247.227ZM233.439 26.0003L238.587 18.5843H245.499L240.675 26.0003H233.439ZM247.227 17.6123V10.1963L248.127 11.8883H243.627C242.715 11.8883 242.007 12.0683 241.503 12.4283C240.999 12.7643 240.747 13.3163 240.747 14.0843C240.747 15.5723 241.695 16.3163 243.591 16.3163H248.127L247.227 17.6123Z" fill="#163C51"/>
<path d="M209.076 26.0003V6.48828H215.88V16.7123L224.052 6.48828H230.352V26.0003H223.512V15.7403L215.412 26.0003H209.076Z" fill="#163C51"/>
<path d="M183.447 26.0003V6.48828H190.251V20.5283H196.587V6.48828H203.427V26.0003H183.447ZM199.791 30.0323V25.9643L201.303 26.0003H196.587V20.5283H206.127V30.0323H199.791Z" fill="#163C51"/>
<path d="M172.962 26.0001V22.3641L172.494 21.4641V14.7681C172.494 13.6881 172.158 12.8601 171.486 12.2841C170.838 11.6841 169.794 11.3841 168.354 11.3841C167.418 11.3841 166.47 11.5401 165.51 11.8521C164.55 12.1401 163.734 12.5481 163.062 13.0761L160.758 8.43206C161.862 7.71206 163.182 7.16006 164.718 6.77606C166.278 6.36806 167.826 6.16406 169.362 6.16406C172.53 6.16406 174.978 6.89606 176.706 8.36006C178.458 9.80006 179.334 12.0681 179.334 15.1641V26.0001H172.962ZM167.202 26.3241C165.642 26.3241 164.322 26.0601 163.242 25.5321C162.162 25.0041 161.334 24.2841 160.758 23.3721C160.206 22.4601 159.93 21.4401 159.93 20.3121C159.93 19.1121 160.23 18.0801 160.83 17.2161C161.454 16.3281 162.402 15.6561 163.674 15.2001C164.946 14.7201 166.59 14.4801 168.606 14.4801H173.214V18.0441H169.542C168.438 18.0441 167.658 18.2241 167.202 18.5841C166.77 18.9441 166.554 19.4241 166.554 20.0241C166.554 20.6241 166.782 21.1041 167.238 21.4641C167.694 21.8241 168.318 22.0041 169.11 22.0041C169.854 22.0041 170.526 21.8241 171.126 21.4641C171.75 21.0801 172.206 20.5041 172.494 19.7361L173.43 22.2561C173.07 23.6001 172.362 24.6201 171.306 25.3161C170.274 25.9881 168.906 26.3241 167.202 26.3241Z" fill="#163C51"/>
<path d="M148.965 26.3241C147.309 26.3241 145.893 25.9641 144.717 25.2441C143.541 24.5001 142.641 23.3961 142.017 21.9321C141.417 20.4441 141.117 18.5481 141.117 16.2441C141.117 13.9161 141.405 12.0201 141.981 10.5561C142.557 9.06806 143.421 7.96406 144.573 7.24406C145.749 6.52406 147.213 6.16406 148.965 6.16406C150.741 6.16406 152.349 6.58406 153.789 7.42406C155.253 8.24006 156.405 9.40406 157.245 10.9161C158.109 12.4041 158.541 14.1801 158.541 16.2441C158.541 18.3081 158.109 20.0961 157.245 21.6081C156.405 23.1201 155.253 24.2841 153.789 25.1001C152.349 25.9161 150.741 26.3241 148.965 26.3241ZM136.689 32.9841V6.48806H143.205V9.80006L143.169 16.2441L143.529 22.7241V32.9841H136.689ZM147.525 20.8881C148.293 20.8881 148.977 20.7081 149.577 20.3481C150.201 19.9881 150.693 19.4601 151.053 18.7641C151.437 18.0681 151.629 17.2281 151.629 16.2441C151.629 15.2601 151.437 14.4201 151.053 13.7241C150.693 13.0281 150.201 12.5001 149.577 12.1401C148.977 11.7801 148.293 11.6001 147.525 11.6001C146.757 11.6001 146.061 11.7801 145.437 12.1401C144.837 12.5001 144.345 13.0281 143.961 13.7241C143.601 14.4201 143.421 15.2601 143.421 16.2441C143.421 17.2281 143.601 18.0681 143.961 18.7641C144.345 19.4601 144.837 19.9881 145.437 20.3481C146.061 20.7081 146.757 20.8881 147.525 20.8881Z" fill="#163C51"/>
<path d="M120.972 26.0003V10.4123L122.448 11.9243H114.672V6.48828H134.04V11.9243H126.264L127.776 10.4123V26.0003H120.972Z" fill="#163C51"/>
<path d="M104.54 26.3241C102.38 26.3241 100.448 25.8921 98.7438 25.0281C97.0638 24.1641 95.7438 22.9761 94.7838 21.4641C93.8238 19.9281 93.3438 18.1761 93.3438 16.2081C93.3438 14.2401 93.8238 12.5001 94.7838 10.9881C95.7438 9.47606 97.0638 8.30006 98.7438 7.46006C100.448 6.59606 102.38 6.16406 104.54 6.16406C106.748 6.16406 108.656 6.63206 110.264 7.56806C111.872 8.50406 113.012 9.82406 113.684 11.5281L108.392 14.2281C107.936 13.3161 107.372 12.6561 106.7 12.2481C106.028 11.8161 105.296 11.6001 104.504 11.6001C103.712 11.6001 102.992 11.7801 102.344 12.1401C101.696 12.5001 101.18 13.0281 100.796 13.7241C100.436 14.3961 100.256 15.2241 100.256 16.2081C100.256 17.2161 100.436 18.0681 100.796 18.7641C101.18 19.4601 101.696 19.9881 102.344 20.3481C102.992 20.7081 103.712 20.8881 104.504 20.8881C105.296 20.8881 106.028 20.6841 106.7 20.2761C107.372 19.8441 107.936 19.1721 108.392 18.2601L113.684 20.9601C113.012 22.6641 111.872 23.9841 110.264 24.9201C108.656 25.8561 106.748 26.3241 104.54 26.3241Z" fill="#163C51"/>
<path d="M68.873 26.0003V6.48828H75.677V16.7123L83.849 6.48828H90.149V26.0003H83.3091V15.7403L75.209 26.0003H68.873Z" fill="#163C51"/>
<path d="M49.8535 26.0003V6.48828H66.1975V11.9243H55.1815L56.6575 10.4483V26.0003H49.8535Z" fill="#163C51"/>
<path d="M36.5183 26.3241C34.2143 26.3241 32.1983 25.8921 30.4703 25.0281C28.7663 24.1401 27.4343 22.9401 26.4743 21.4281C25.5383 19.8921 25.0703 18.1521 25.0703 16.2081C25.0703 14.2641 25.5263 12.5361 26.4383 11.0241C27.3743 9.48806 28.6583 8.30006 30.2903 7.46006C31.9223 6.59606 33.7583 6.16406 35.7983 6.16406C37.7183 6.16406 39.4703 6.56006 41.0543 7.35206C42.6383 8.12006 43.8983 9.26006 44.8343 10.7721C45.7703 12.2841 46.2383 14.1201 46.2383 16.2801C46.2383 16.5201 46.2263 16.7961 46.2023 17.1081C46.1783 17.4201 46.1543 17.7081 46.1303 17.9721H30.6863V14.3721H42.4943L39.9023 15.3801C39.9263 14.4921 39.7583 13.7241 39.3983 13.0761C39.0623 12.4281 38.5823 11.9241 37.9583 11.5641C37.3583 11.2041 36.6503 11.0241 35.8343 11.0241C35.0183 11.0241 34.2983 11.2041 33.6743 11.5641C33.0743 11.9241 32.6063 12.4401 32.2703 13.1121C31.9343 13.7601 31.7663 14.5281 31.7663 15.4161V16.4601C31.7663 17.4201 31.9583 18.2481 32.3423 18.9441C32.7503 19.6401 33.3263 20.1801 34.0703 20.5641C34.8143 20.9241 35.7023 21.1041 36.7343 21.1041C37.6943 21.1041 38.5103 20.9721 39.1823 20.7081C39.8783 20.4201 40.5623 19.9881 41.2343 19.4121L44.8343 23.1561C43.8983 24.1881 42.7463 24.9801 41.3783 25.5321C40.0103 26.0601 38.3903 26.3241 36.5183 26.3241Z" fill="#163C51"/>
<path d="M0.960938 26.0008V0.800781H12.4809C14.7849 0.800781 16.7649 1.17278 18.4209 1.91678C20.1009 2.66078 21.3969 3.74078 22.3089 5.15678C23.2209 6.54878 23.6769 8.20478 23.6769 10.1248C23.6769 12.0208 23.2209 13.6648 22.3089 15.0568C21.3969 16.4488 20.1009 17.5288 18.4209 18.2968C16.7649 19.0408 14.7849 19.4128 12.4809 19.4128H4.92094L8.08894 16.3168V26.0008H0.960938ZM8.08894 17.0728L4.92094 13.7968H12.0489C13.5369 13.7968 14.6409 13.4728 15.3609 12.8248C16.1049 12.1768 16.4769 11.2768 16.4769 10.1248C16.4769 8.94878 16.1049 8.03678 15.3609 7.38878C14.6409 6.74078 13.5369 6.41678 12.0489 6.41678H4.92094L8.08894 3.14078V17.0728Z" fill="#163C51"/>
</svg>
