<svg width="101" height="24" viewBox="0 0 101 24" fill="none" xmlns="http://www.w3.org/2000/svg">
<path opacity="0.7" d="M85.7559 23.0031V6.20312H88.0279V13.6271H98.6199V6.20312H100.892V23.0031H98.6199V15.5791H88.0279V23.0031H85.7559Z" fill="#163C51"/>
<path opacity="0.7" d="M63.7246 23.0031V6.20312H65.9966V19.5471L77.2286 6.20312H79.2446V23.0031H76.9726V9.62713L65.7726 23.0031H63.7246Z" fill="#163C51"/>
<path opacity="0.7" d="M48.5371 23.0031V6.20312H60.4411V8.18712H50.2331L50.8091 7.61112V23.0031H48.5371Z" fill="#163C51"/>
<path opacity="0.7" d="M35.1045 23.163C33.4832 23.163 32.0219 22.8003 30.7205 22.075C29.4405 21.3283 28.4272 20.315 27.6805 19.035C26.9339 17.7336 26.5605 16.251 26.5605 14.587C26.5605 12.9016 26.9339 11.419 27.6805 10.139C28.4272 8.85897 29.4405 7.8563 30.7205 7.13097C32.0005 6.40564 33.4619 6.04297 35.1045 6.04297C36.7685 6.04297 38.2405 6.40564 39.5205 7.13097C40.8219 7.8563 41.8352 8.85897 42.5605 10.139C43.3072 11.419 43.6805 12.9016 43.6805 14.587C43.6805 16.251 43.3072 17.7336 42.5605 19.035C41.8352 20.315 40.8219 21.3283 39.5205 22.075C38.2192 22.8003 36.7472 23.163 35.1045 23.163ZM35.1045 21.147C36.3205 21.147 37.3979 20.8803 38.3365 20.347C39.2752 19.7923 40.0112 19.0243 40.5445 18.043C41.0992 17.0403 41.3765 15.8883 41.3765 14.587C41.3765 13.2643 41.0992 12.1123 40.5445 11.131C40.0112 10.1496 39.2752 9.3923 38.3365 8.85897C37.3979 8.3043 36.3312 8.02697 35.1365 8.02697C33.9419 8.02697 32.8752 8.3043 31.9365 8.85897C30.9979 9.3923 30.2512 10.1496 29.6965 11.131C29.1419 12.1123 28.8645 13.2643 28.8645 14.587C28.8645 15.8883 29.1419 17.0403 29.6965 18.043C30.2512 19.0243 30.9979 19.7923 31.9365 20.347C32.8752 20.8803 33.9312 21.147 35.1045 21.147Z" fill="#163C51"/>
<path opacity="0.7" d="M1.9795 23.1936C1.68083 23.1936 1.39283 23.1722 1.1155 23.1296C0.838167 23.1082 0.528833 23.0549 0.1875 22.9696L0.3795 20.8576C0.742167 20.9429 1.09417 20.9856 1.4355 20.9856C2.3955 20.9856 3.1635 20.6122 3.7395 19.8656C4.33683 19.0976 4.78483 17.9242 5.0835 16.3456C5.38217 14.7456 5.57417 12.6976 5.6595 10.2016L5.9795 0.601562H21.1795V23.0016H18.8435V2.00956L19.4515 2.64956H7.4835L8.0595 1.97756L7.7715 10.1376C7.68617 12.3776 7.52617 14.3189 7.2915 15.9616C7.05683 17.5829 6.7155 18.9376 6.2675 20.0256C5.8195 21.0922 5.2435 21.8922 4.5395 22.4256C3.8355 22.9376 2.98217 23.1936 1.9795 23.1936Z" fill="#163C51"/>
</svg>
