<svg width="122" height="30" viewBox="0 0 122 30" fill="none" xmlns="http://www.w3.org/2000/svg">
<path opacity="0.7" d="M114.658 12.1231C116.77 12.1445 118.37 12.6138 119.458 13.5311C120.567 14.4485 121.122 15.7711 121.122 17.4991C121.122 19.2911 120.524 20.6671 119.33 21.6271C118.156 22.5871 116.45 23.0565 114.21 23.0351L107.426 23.0031V6.20312H109.698V12.0591L114.658 12.1231ZM114.082 21.3071C115.639 21.3285 116.812 21.0191 117.602 20.3791C118.412 19.7178 118.818 18.7578 118.818 17.4991C118.818 16.2405 118.423 15.3231 117.634 14.7471C116.844 14.1498 115.66 13.8405 114.082 13.8191L109.698 13.7551V21.2431L114.082 21.3071Z" fill="#163C51"/>
<path opacity="0.7" d="M84.1367 22.9711L84.2967 21.0191C84.446 21.0405 84.5847 21.0725 84.7127 21.1151C84.862 21.1365 84.9901 21.1471 85.0967 21.1471C85.7794 21.1471 86.3234 20.8911 86.7287 20.3791C87.1554 19.8671 87.4754 19.1845 87.6887 18.3311C87.902 17.4778 88.0514 16.5178 88.1367 15.4511C88.2221 14.3631 88.2967 13.2751 88.3607 12.1871L88.6487 6.20312H100.969V23.0031H98.6967V7.51513L99.2727 8.18712H90.1207L90.6647 7.48313L90.4087 12.3471C90.3447 13.7978 90.2274 15.1845 90.0567 16.5071C89.9074 17.8298 89.6621 18.9925 89.3207 19.9951C89.0007 20.9978 88.5527 21.7871 87.9767 22.3631C87.4007 22.9178 86.6647 23.1951 85.7687 23.1951C85.5127 23.1951 85.246 23.1738 84.9687 23.1311C84.7127 23.0885 84.4354 23.0351 84.1367 22.9711Z" fill="#163C51"/>
<path opacity="0.7" d="M73.8702 23.163C72.2488 23.163 70.7875 22.8003 69.4862 22.075C68.2062 21.3283 67.1928 20.315 66.4462 19.035C65.6995 17.7336 65.3262 16.251 65.3262 14.587C65.3262 12.9016 65.6995 11.419 66.4462 10.139C67.1928 8.85897 68.2062 7.8563 69.4862 7.13097C70.7662 6.40564 72.2275 6.04297 73.8702 6.04297C75.5342 6.04297 77.0062 6.40564 78.2862 7.13097C79.5875 7.8563 80.6008 8.85897 81.3262 10.139C82.0728 11.419 82.4462 12.9016 82.4462 14.587C82.4462 16.251 82.0728 17.7336 81.3262 19.035C80.6008 20.315 79.5875 21.3283 78.2862 22.075C76.9848 22.8003 75.5128 23.163 73.8702 23.163ZM73.8702 21.147C75.0862 21.147 76.1635 20.8803 77.1022 20.347C78.0408 19.7923 78.7768 19.0243 79.3102 18.043C79.8648 17.0403 80.1422 15.8883 80.1422 14.587C80.1422 13.2643 79.8648 12.1123 79.3102 11.131C78.7768 10.1496 78.0408 9.3923 77.1022 8.85897C76.1635 8.3043 75.0968 8.02697 73.9022 8.02697C72.7075 8.02697 71.6408 8.3043 70.7022 8.85897C69.7635 9.3923 69.0168 10.1496 68.4622 11.131C67.9075 12.1123 67.6302 13.2643 67.6302 14.587C67.6302 15.8883 67.9075 17.0403 68.4622 18.043C69.0168 19.0243 69.7635 19.7923 70.7022 20.347C71.6408 20.8803 72.6968 21.147 73.8702 21.147Z" fill="#163C51"/>
<path opacity="0.7" d="M53.6915 23.163C52.2409 23.163 50.9289 22.8323 49.7555 22.171C48.5822 21.4883 47.6435 20.5176 46.9395 19.259C46.2569 17.979 45.9155 16.4216 45.9155 14.587C45.9155 12.7523 46.2569 11.2056 46.9395 9.94697C47.6222 8.66697 48.5502 7.6963 49.7235 7.03497C50.8969 6.37364 52.2195 6.04297 53.6915 6.04297C55.2915 6.04297 56.7209 6.40564 57.9795 7.13097C59.2595 7.83497 60.2622 8.83764 60.9875 10.139C61.7129 11.419 62.0755 12.9016 62.0755 14.587C62.0755 16.2936 61.7129 17.787 60.9875 19.067C60.2622 20.347 59.2595 21.3496 57.9795 22.075C56.7209 22.8003 55.2915 23.163 53.6915 23.163ZM45.0195 29.211V6.20297H47.1955V11.259L46.9715 14.619L47.2915 18.011V29.211H45.0195ZM53.5315 21.147C54.7262 21.147 55.7929 20.8803 56.7315 20.347C57.6702 19.7923 58.4169 19.0243 58.9715 18.043C59.5262 17.0403 59.8035 15.8883 59.8035 14.587C59.8035 13.2856 59.5262 12.1443 58.9715 11.163C58.4169 10.1816 57.6702 9.41364 56.7315 8.85897C55.7929 8.3043 54.7262 8.02697 53.5315 8.02697C52.3369 8.02697 51.2595 8.3043 50.2995 8.85897C49.3609 9.41364 48.6142 10.1816 48.0595 11.163C47.5262 12.1443 47.2595 13.2856 47.2595 14.587C47.2595 15.8883 47.5262 17.0403 48.0595 18.043C48.6142 19.0243 49.3609 19.7923 50.2995 20.347C51.2595 20.8803 52.3369 21.147 53.5315 21.147Z" fill="#163C51"/>
<path opacity="0.7" d="M36.7954 23.003V19.291L36.6994 18.683V12.475C36.6994 11.0456 36.294 9.94697 35.4834 9.17897C34.694 8.41097 33.51 8.02697 31.9314 8.02697C30.8434 8.02697 29.8087 8.2083 28.8274 8.57097C27.846 8.93364 27.014 9.41364 26.3314 10.011L25.3074 8.31497C26.1607 7.58964 27.1847 7.03497 28.3794 6.65097C29.574 6.24564 30.8327 6.04297 32.1554 6.04297C34.3314 6.04297 36.006 6.58697 37.1794 7.67497C38.374 8.74164 38.9714 10.3736 38.9714 12.571V23.003H36.7954ZM31.0034 23.163C29.7447 23.163 28.646 22.9603 27.7074 22.555C26.79 22.1283 26.086 21.5523 25.5954 20.827C25.1047 20.0803 24.8594 19.227 24.8594 18.267C24.8594 17.3923 25.062 16.603 25.4674 15.899C25.894 15.1736 26.5767 14.5976 27.5154 14.171C28.4754 13.723 29.7554 13.499 31.3554 13.499H37.1474V15.195H31.4194C29.798 15.195 28.6674 15.483 28.0274 16.059C27.4087 16.635 27.0994 17.3496 27.0994 18.203C27.0994 19.163 27.4727 19.931 28.2194 20.507C28.966 21.083 30.0114 21.371 31.3554 21.371C32.6354 21.371 33.734 21.083 34.6514 20.507C35.59 19.9096 36.2727 19.0563 36.6994 17.947L37.2114 19.515C36.7847 20.6243 36.038 21.5096 34.9714 22.171C33.926 22.8323 32.6034 23.163 31.0034 23.163Z" fill="#163C51"/>
<path opacity="0.7" d="M0.501953 23.0016V0.601562H19.35V23.0016H17.014V2.00956L17.622 2.64956H2.22995L2.83795 2.00956V23.0016H0.501953Z" fill="#163C51"/>
</svg>
