<svg width="254" height="24" viewBox="0 0 254 24" fill="none" xmlns="http://www.w3.org/2000/svg">
<path opacity="0.7" d="M244.311 23.1922C242.583 23.1922 241.047 22.7442 239.703 21.8482C238.359 20.9309 237.303 19.6295 236.535 17.9442C235.767 16.2375 235.383 14.1895 235.383 11.8002C235.383 9.41087 235.767 7.37354 236.535 5.6882C237.303 3.98154 238.359 2.6802 239.703 1.7842C241.047 0.86687 242.583 0.408203 244.311 0.408203C246.039 0.408203 247.575 0.86687 248.919 1.7842C250.263 2.6802 251.319 3.98154 252.087 5.6882C252.876 7.37354 253.271 9.41087 253.271 11.8002C253.271 14.1895 252.876 16.2375 252.087 17.9442C251.319 19.6295 250.263 20.9309 248.919 21.8482C247.575 22.7442 246.039 23.1922 244.311 23.1922ZM244.311 21.0802C245.633 21.0802 246.785 20.7282 247.767 20.0242C248.748 19.2989 249.516 18.2535 250.071 16.8882C250.625 15.5015 250.903 13.8055 250.903 11.8002C250.903 9.79487 250.625 8.10954 250.071 6.7442C249.516 5.35754 248.748 4.3122 247.767 3.6082C246.785 2.88287 245.633 2.5202 244.311 2.5202C243.031 2.5202 241.889 2.88287 240.887 3.6082C239.884 4.3122 239.105 5.35754 238.551 6.7442C237.996 8.10954 237.719 9.79487 237.719 11.8002C237.719 13.8055 237.996 15.5015 238.551 16.8882C239.105 18.2535 239.884 19.2989 240.887 20.0242C241.889 20.7282 243.031 21.0802 244.311 21.0802Z" fill="#163C51"/>
<path opacity="0.7" d="M227.724 22.9996V1.55961L228.748 2.64761H222.444V0.599609H230.028V22.9996H227.724Z" fill="#163C51"/>
<path opacity="0.7" d="M196.842 23.0002V21.3682L206.154 12.2482C207.007 11.4162 207.647 10.6909 208.074 10.0722C208.501 9.4322 208.789 8.83487 208.938 8.2802C209.087 7.72554 209.162 7.20287 209.162 6.7122C209.162 5.41087 208.714 4.38687 207.818 3.6402C206.943 2.89354 205.642 2.5202 203.914 2.5202C202.591 2.5202 201.418 2.72287 200.394 3.1282C199.391 3.53354 198.527 4.16287 197.802 5.0162L196.17 3.6082C197.045 2.5842 198.165 1.79487 199.53 1.2402C200.895 0.685537 202.421 0.408203 204.106 0.408203C205.621 0.408203 206.933 0.653536 208.042 1.1442C209.151 1.61354 210.005 2.30687 210.602 3.2242C211.221 4.14154 211.53 5.21887 211.53 6.4562C211.53 7.18154 211.423 7.8962 211.21 8.6002C211.018 9.3042 210.655 10.0509 210.122 10.8402C209.61 11.6082 208.853 12.4829 207.85 13.4642L199.306 21.8482L198.666 20.9522H212.554V23.0002H196.842Z" fill="#163C51"/>
<path opacity="0.7" d="M186.04 23.1916C184.418 23.1916 182.882 22.9356 181.432 22.4236C180.002 21.8903 178.85 21.1863 177.976 20.3116L179.096 18.4876C179.821 19.2343 180.792 19.8529 182.008 20.3436C183.245 20.8343 184.589 21.0796 186.04 21.0796C187.896 21.0796 189.314 20.6743 190.296 19.8636C191.298 19.0529 191.8 17.9649 191.8 16.5996C191.8 15.2343 191.309 14.1463 190.328 13.3356C189.368 12.5249 187.842 12.1196 185.752 12.1196H184.152V10.4236L191.064 1.75161L191.384 2.64761H178.904V0.599609H193.304V2.23161L186.392 10.9036L185.272 10.1676H186.136C188.824 10.1676 190.829 10.7649 192.152 11.9596C193.496 13.1543 194.168 14.6903 194.168 16.5676C194.168 17.8263 193.869 18.9569 193.272 19.9596C192.674 20.9623 191.768 21.7516 190.552 22.3276C189.357 22.9036 187.853 23.1916 186.04 23.1916Z" fill="#163C51"/>
<path opacity="0.7" d="M149.437 17.1116V15.4476L161.309 0.599609H163.869L152.093 15.4476L150.845 15.0636H168.861V17.1116H149.437ZM162.077 22.9996V17.1116L162.141 15.0636V9.87961H164.381V22.9996H162.077Z" fill="#163C51"/>
<path opacity="0.7" d="M138.767 23.1916C137.167 23.1916 135.642 22.9356 134.191 22.4236C132.741 21.8903 131.589 21.1863 130.735 20.3116L131.855 18.4876C132.559 19.2343 133.519 19.8529 134.735 20.3436C135.973 20.8343 137.306 21.0796 138.735 21.0796C140.634 21.0796 142.074 20.6636 143.055 19.8316C144.058 18.9783 144.559 17.8689 144.559 16.5036C144.559 15.5436 144.325 14.7223 143.855 14.0396C143.407 13.3356 142.639 12.7916 141.551 12.4076C140.463 12.0236 138.97 11.8316 137.071 11.8316H132.303L133.455 0.599609H145.711V2.64761H134.383L135.567 1.52761L134.575 10.9356L133.391 9.78361H137.583C139.845 9.78361 141.658 10.0609 143.023 10.6156C144.389 11.1703 145.37 11.9489 145.967 12.9516C146.586 13.9329 146.895 15.0849 146.895 16.4076C146.895 17.6663 146.597 18.8183 145.999 19.8636C145.402 20.8876 144.506 21.6983 143.311 22.2956C142.117 22.8929 140.602 23.1916 138.767 23.1916Z" fill="#163C51"/>
<path opacity="0.7" d="M121.379 23.1922C119.395 23.1922 117.721 22.7549 116.355 21.8802C114.99 20.9842 113.955 19.7042 113.251 18.0402C112.547 16.3549 112.195 14.3389 112.195 11.9922C112.195 9.45354 112.622 7.33087 113.475 5.6242C114.35 3.8962 115.555 2.59487 117.091 1.7202C118.627 0.845537 120.409 0.408203 122.435 0.408203C123.438 0.408203 124.398 0.504203 125.315 0.696203C126.233 0.888203 127.043 1.19754 127.747 1.6242L126.819 3.4802C126.243 3.0962 125.582 2.82954 124.835 2.6802C124.089 2.50954 123.299 2.4242 122.467 2.4242C120.057 2.4242 118.126 3.1922 116.675 4.7282C115.246 6.2642 114.531 8.55754 114.531 11.6082C114.531 12.0775 114.553 12.6642 114.595 13.3682C114.659 14.0509 114.787 14.7335 114.979 15.4162L114.179 14.8082C114.414 13.6989 114.873 12.7602 115.555 11.9922C116.238 11.2029 117.091 10.6055 118.115 10.2002C119.139 9.79487 120.259 9.5922 121.475 9.5922C122.969 9.5922 124.281 9.86954 125.411 10.4242C126.542 10.9789 127.427 11.7575 128.067 12.7602C128.707 13.7629 129.027 14.9469 129.027 16.3122C129.027 17.6989 128.697 18.9149 128.035 19.9602C127.374 20.9842 126.457 21.7842 125.283 22.3602C124.131 22.9149 122.83 23.1922 121.379 23.1922ZM121.283 21.2402C122.35 21.2402 123.289 21.0482 124.099 20.6642C124.931 20.2589 125.582 19.6935 126.051 18.9682C126.521 18.2215 126.755 17.3575 126.755 16.3762C126.755 14.9042 126.243 13.7309 125.219 12.8562C124.217 11.9815 122.851 11.5442 121.123 11.5442C119.971 11.5442 118.969 11.7575 118.115 12.1842C117.262 12.6109 116.59 13.1975 116.099 13.9442C115.609 14.6695 115.363 15.5015 115.363 16.4402C115.363 17.2509 115.587 18.0295 116.035 18.7762C116.483 19.5015 117.145 20.0989 118.019 20.5682C118.915 21.0162 120.003 21.2402 121.283 21.2402Z" fill="#163C51"/>
<path opacity="0.7" d="M88.9129 22.9996L98.5769 1.62361L99.2809 2.64761H85.4249L86.6089 1.52761V6.83961H84.3369V0.599609H100.785V2.23161L91.4089 22.9996H88.9129Z" fill="#163C51"/>
<path opacity="0.7" d="M73.0824 23.1922C71.2904 23.1922 69.7437 22.9362 68.4424 22.4242C67.1624 21.9122 66.1704 21.1762 65.4664 20.2162C64.7837 19.2349 64.4424 18.0829 64.4424 16.7602C64.4424 15.4802 64.773 14.3922 65.4344 13.4962C66.117 12.5789 67.0984 11.8749 68.3784 11.3842C69.6797 10.8935 71.2477 10.6482 73.0824 10.6482C74.8957 10.6482 76.453 10.8935 77.7544 11.3842C79.0557 11.8749 80.0477 12.5789 80.7304 13.4962C81.4344 14.3922 81.7864 15.4802 81.7864 16.7602C81.7864 18.0829 81.4344 19.2349 80.7304 20.2162C80.0264 21.1762 79.0237 21.9122 77.7224 22.4242C76.421 22.9362 74.8744 23.1922 73.0824 23.1922ZM73.0824 21.2402C75.0664 21.2402 76.613 20.8349 77.7224 20.0242C78.853 19.2135 79.4184 18.1149 79.4184 16.7282C79.4184 15.3415 78.853 14.2535 77.7224 13.4642C76.613 12.6535 75.0664 12.2482 73.0824 12.2482C71.0984 12.2482 69.5517 12.6535 68.4424 13.4642C67.333 14.2535 66.7784 15.3415 66.7784 16.7282C66.7784 18.1149 67.333 19.2135 68.4424 20.0242C69.5517 20.8349 71.0984 21.2402 73.0824 21.2402ZM73.0824 11.9602C71.4184 11.9602 69.9997 11.7362 68.8264 11.2882C67.6744 10.8402 66.789 10.2002 66.1704 9.3682C65.5517 8.51487 65.2424 7.50154 65.2424 6.3282C65.2424 5.09087 65.5624 4.03487 66.2024 3.1602C66.8637 2.2642 67.7811 1.58154 68.9544 1.1122C70.1277 0.64287 71.5037 0.408203 73.0824 0.408203C74.661 0.408203 76.037 0.64287 77.2104 1.1122C78.405 1.58154 79.333 2.2642 79.9944 3.1602C80.6557 4.03487 80.9864 5.09087 80.9864 6.3282C80.9864 7.50154 80.677 8.51487 80.0584 9.3682C79.4397 10.2002 78.533 10.8402 77.3384 11.2882C76.165 11.7362 74.7464 11.9602 73.0824 11.9602ZM73.0824 10.4242C74.8317 10.4242 76.197 10.0615 77.1784 9.3362C78.1597 8.61087 78.6504 7.6402 78.6504 6.4242C78.6504 5.1442 78.1384 4.1522 77.1144 3.4482C76.1117 2.72287 74.7677 2.3602 73.0824 2.3602C71.397 2.3602 70.053 2.72287 69.0504 3.4482C68.0477 4.1522 67.5464 5.13354 67.5464 6.3922C67.5464 7.62954 68.0264 8.61087 68.9864 9.3362C69.9677 10.0615 71.333 10.4242 73.0824 10.4242Z" fill="#163C51"/>
<path opacity="0.7" d="M52.0464 0.408203C54.0304 0.408203 55.7051 0.856203 57.0704 1.7522C58.4358 2.62687 59.4704 3.8962 60.1744 5.5602C60.8784 7.2242 61.2304 9.2402 61.2304 11.6082C61.2304 14.1255 60.7931 16.2482 59.9184 17.9762C59.0651 19.7042 57.8704 21.0055 56.3344 21.8802C54.7984 22.7549 53.0171 23.1922 50.9904 23.1922C49.9878 23.1922 49.0278 23.0962 48.1104 22.9042C47.2144 22.7122 46.4038 22.4029 45.6784 21.9762L46.6064 20.1202C47.1824 20.5042 47.8438 20.7815 48.5904 20.9522C49.3584 21.1015 50.1478 21.1762 50.9584 21.1762C53.3691 21.1762 55.2891 20.4082 56.7184 18.8722C58.1691 17.3362 58.8944 15.0429 58.8944 11.9922C58.8944 11.5015 58.8624 10.9149 58.7984 10.2322C58.7558 9.54954 58.6384 8.86687 58.4464 8.1842L59.2464 8.7922C59.0331 9.90154 58.5744 10.8509 57.8704 11.6402C57.1878 12.4082 56.3344 12.9949 55.3104 13.4002C54.3078 13.8055 53.1878 14.0082 51.9504 14.0082C50.4784 14.0082 49.1664 13.7309 48.0144 13.1762C46.8838 12.6215 45.9984 11.8429 45.3584 10.8402C44.7184 9.83754 44.3984 8.65354 44.3984 7.2882C44.3984 5.8802 44.7291 4.6642 45.3904 3.6402C46.0518 2.6162 46.9584 1.82687 48.1104 1.2722C49.2838 0.696203 50.5958 0.408203 52.0464 0.408203ZM52.1424 2.3602C51.0758 2.3602 50.1264 2.56287 49.2944 2.9682C48.4838 3.3522 47.8438 3.90687 47.3744 4.6322C46.9051 5.35754 46.6704 6.22154 46.6704 7.2242C46.6704 8.6962 47.1718 9.86954 48.1744 10.7442C49.1984 11.6189 50.5744 12.0562 52.3024 12.0562C53.4544 12.0562 54.4571 11.8429 55.3104 11.4162C56.1851 10.9895 56.8571 10.4029 57.3264 9.6562C57.8171 8.90954 58.0624 8.07754 58.0624 7.1602C58.0624 6.3282 57.8384 5.54954 57.3904 4.8242C56.9424 4.09887 56.2811 3.5122 55.4064 3.0642C54.5318 2.59487 53.4438 2.3602 52.1424 2.3602Z" fill="#163C51"/>
<path opacity="0.7" d="M21.7879 22.9996L31.4519 1.62361L32.1559 2.64761H18.2999L19.4839 1.52761V6.83961H17.2119V0.599609H33.6599V2.23161L24.2839 22.9996H21.7879Z" fill="#163C51"/>
<path opacity="0.7" d="M6.28598 18.5836V5.01562H8.30198V18.5836H6.28598ZM0.333984 12.7596V10.8716H14.254V12.7596H0.333984Z" fill="#163C51"/>
</svg>
