<svg width="257" height="31" viewBox="0 0 257 31" fill="none" xmlns="http://www.w3.org/2000/svg">
<path d="M237.844 23.9992V7.19922H240.148L247.764 20.0952H246.804L254.548 7.19922H256.66V23.9992H254.58V9.79122L254.996 9.98322L247.764 21.9512H246.74L239.444 9.85522L239.924 9.75922V23.9992H237.844Z" fill="#406D73"/>
<path d="M222.812 24.1591C221.19 24.1591 219.729 23.7964 218.428 23.0711C217.148 22.3244 216.134 21.3111 215.388 20.0311C214.641 18.7297 214.268 17.2471 214.268 15.5831C214.268 13.8977 214.641 12.4151 215.388 11.1351C216.134 9.85506 217.148 8.8524 218.428 8.12706C219.708 7.40173 221.169 7.03906 222.812 7.03906C224.476 7.03906 225.948 7.40173 227.228 8.12706C228.529 8.8524 229.542 9.85506 230.268 11.1351C231.014 12.4151 231.388 13.8977 231.388 15.5831C231.388 17.2471 231.014 18.7297 230.268 20.0311C229.542 21.3111 228.529 22.3244 227.228 23.0711C225.926 23.7964 224.454 24.1591 222.812 24.1591ZM222.812 22.1431C224.028 22.1431 225.105 21.8764 226.044 21.3431C226.982 20.7884 227.718 20.0204 228.252 19.0391C228.806 18.0364 229.084 16.8844 229.084 15.5831C229.084 14.2604 228.806 13.1084 228.252 12.1271C227.718 11.1457 226.982 10.3884 226.044 9.85506C225.105 9.3004 224.038 9.02306 222.844 9.02306C221.649 9.02306 220.582 9.3004 219.644 9.85506C218.705 10.3884 217.958 11.1457 217.404 12.1271C216.849 13.1084 216.572 14.2604 216.572 15.5831C216.572 16.8844 216.849 18.0364 217.404 19.0391C217.958 20.0204 218.705 20.7884 219.644 21.3431C220.582 21.8764 221.638 22.1431 222.812 22.1431Z" fill="#406D73"/>
<path d="M204.976 22.9112V9.18322H196.88L196.688 12.9272C196.645 14.0579 196.57 15.1672 196.464 16.2552C196.378 17.3432 196.218 18.3459 195.984 19.2632C195.77 20.1592 195.461 20.8952 195.056 21.4712C194.65 22.0259 194.128 22.3459 193.488 22.4312L191.216 22.0152C191.877 22.0366 192.421 21.8019 192.848 21.3112C193.274 20.7992 193.605 20.1059 193.84 19.2312C194.074 18.3566 194.245 17.3646 194.352 16.2552C194.458 15.1246 194.544 13.9726 194.608 12.7992L194.832 7.19922H207.248V22.9112H204.976ZM190.512 28.0632V22.0152H209.872V28.0632H207.728V23.9992H192.656V28.0632H190.512Z" fill="#406D73"/>
<path d="M183.298 23.9992V17.9512L183.714 18.4312H178.018C175.863 18.4312 174.178 17.9619 172.962 17.0232C171.746 16.0846 171.138 14.7192 171.138 12.9272C171.138 11.0072 171.788 9.57789 173.09 8.63922C174.391 7.67922 176.13 7.19922 178.306 7.19922H185.378V23.9992H183.298ZM171.01 23.9992L175.618 17.5352H177.986L173.474 23.9992H171.01ZM183.298 17.2792V8.51122L183.714 9.18322H178.37C176.812 9.18322 175.596 9.48188 174.722 10.0792C173.868 10.6766 173.442 11.6472 173.442 12.9912C173.442 15.4872 175.031 16.7352 178.21 16.7352H183.714L183.298 17.2792Z" fill="#406D73"/>
<path d="M158.178 24.1591C156.727 24.1591 155.415 23.8284 154.242 23.1671C153.069 22.4844 152.13 21.5137 151.426 20.2551C150.743 18.9751 150.402 17.4177 150.402 15.5831C150.402 13.7484 150.743 12.2017 151.426 10.9431C152.109 9.66306 153.037 8.6924 154.21 8.03106C155.383 7.36973 156.706 7.03906 158.178 7.03906C159.778 7.03906 161.207 7.40173 162.466 8.12706C163.746 8.83106 164.749 9.83373 165.474 11.1351C166.199 12.4151 166.562 13.8977 166.562 15.5831C166.562 17.2897 166.199 18.7831 165.474 20.0631C164.749 21.3431 163.746 22.3457 162.466 23.0711C161.207 23.7964 159.778 24.1591 158.178 24.1591ZM149.506 30.2071V7.19906H151.682V12.2551L151.458 15.6151L151.778 19.0071V30.2071H149.506ZM158.018 22.1431C159.213 22.1431 160.279 21.8764 161.218 21.3431C162.157 20.7884 162.903 20.0204 163.458 19.0391C164.013 18.0364 164.29 16.8844 164.29 15.5831C164.29 14.2817 164.013 13.1404 163.458 12.1591C162.903 11.1777 162.157 10.4097 161.218 9.85506C160.279 9.3004 159.213 9.02306 158.018 9.02306C156.823 9.02306 155.746 9.3004 154.786 9.85506C153.847 10.4097 153.101 11.1777 152.546 12.1591C152.013 13.1404 151.746 14.2817 151.746 15.5831C151.746 16.8844 152.013 18.0364 152.546 19.0391C153.101 20.0204 153.847 20.7884 154.786 21.3431C155.746 21.8764 156.823 22.1431 158.018 22.1431Z" fill="#406D73"/>
<path d="M129.191 23.9992V7.19922H131.463V23.9992H129.191ZM119.879 13.1192C121.991 13.1406 123.601 13.6099 124.711 14.5272C125.82 15.4446 126.375 16.7672 126.375 18.4952C126.375 20.2872 125.777 21.6632 124.583 22.6232C123.388 23.5832 121.681 24.0526 119.463 24.0312L112.807 23.9992V7.19922H115.079V13.0552L119.879 13.1192ZM119.303 22.3032C120.881 22.3246 122.065 22.0152 122.855 21.3752C123.665 20.7139 124.071 19.7539 124.071 18.4952C124.071 17.2366 123.676 16.3192 122.887 15.7432C122.097 15.1459 120.903 14.8366 119.303 14.8152L115.079 14.7512V22.2392L119.303 22.3032Z" fill="#406D73"/>
<path d="M89.6133 23.9992V7.19922H91.8853V14.6232H102.477V7.19922H104.749V23.9992H102.477V16.5752H91.8853V23.9992H89.6133Z" fill="#406D73"/>
<path d="M74.5811 24.1591C72.9598 24.1591 71.4984 23.7964 70.1971 23.0711C68.9171 22.3244 67.9038 21.3111 67.1571 20.0311C66.4104 18.7297 66.0371 17.2471 66.0371 15.5831C66.0371 13.8977 66.4104 12.4151 67.1571 11.1351C67.9038 9.85506 68.9171 8.8524 70.1971 8.12706C71.4771 7.40173 72.9384 7.03906 74.5811 7.03906C76.2451 7.03906 77.7171 7.40173 78.9971 8.12706C80.2984 8.8524 81.3118 9.85506 82.0371 11.1351C82.7838 12.4151 83.1571 13.8977 83.1571 15.5831C83.1571 17.2471 82.7838 18.7297 82.0371 20.0311C81.3118 21.3111 80.2984 22.3244 78.9971 23.0711C77.6958 23.7964 76.2238 24.1591 74.5811 24.1591ZM74.5811 22.1431C75.7971 22.1431 76.8744 21.8764 77.8131 21.3431C78.7518 20.7884 79.4878 20.0204 80.0211 19.0391C80.5758 18.0364 80.8531 16.8844 80.8531 15.5831C80.8531 14.2604 80.5758 13.1084 80.0211 12.1271C79.4878 11.1457 78.7518 10.3884 77.8131 9.85506C76.8744 9.3004 75.8078 9.02306 74.6131 9.02306C73.4184 9.02306 72.3518 9.3004 71.4131 9.85506C70.4744 10.3884 69.7278 11.1457 69.1731 12.1271C68.6184 13.1084 68.3411 14.2604 68.3411 15.5831C68.3411 16.8844 68.6184 18.0364 69.1731 19.0391C69.7278 20.0204 70.4744 20.7884 71.4131 21.3431C72.3518 21.8764 73.4078 22.1431 74.5811 22.1431Z" fill="#406D73"/>
<path d="M44.0371 23.9994V7.19942H46.3091V20.5434L57.5411 7.19942H59.5571V23.9994H57.2851V10.6234L46.0851 23.9994H44.0371ZM51.6531 4.76742C50.2451 4.76742 49.1038 4.41542 48.2291 3.71142C47.3758 2.98609 46.9278 1.95142 46.8851 0.607422H48.5171C48.5384 1.46075 48.8371 2.13275 49.4131 2.62342C49.9891 3.11409 50.7358 3.35942 51.6531 3.35942C52.5704 3.35942 53.3171 3.11409 53.8931 2.62342C54.4904 2.13275 54.7998 1.46075 54.8211 0.607422H56.4531C56.4318 1.95142 55.9838 2.98609 55.1091 3.71142C54.2344 4.41542 53.0824 4.76742 51.6531 4.76742Z" fill="#406D73"/>
<path d="M34.2133 23.9991V20.2871L34.1173 19.6791V13.4711C34.1173 12.0417 33.712 10.9431 32.9013 10.1751C32.112 9.40706 30.928 9.02306 29.3493 9.02306C28.2613 9.02306 27.2267 9.2044 26.2453 9.56706C25.264 9.92973 24.432 10.4097 23.7493 11.0071L22.7253 9.31106C23.5787 8.58573 24.6027 8.03106 25.7973 7.64706C26.992 7.24173 28.2507 7.03906 29.5733 7.03906C31.7493 7.03906 33.424 7.58306 34.5973 8.67106C35.792 9.73773 36.3893 11.3697 36.3893 13.5671V23.9991H34.2133ZM28.4213 24.1591C27.1627 24.1591 26.064 23.9564 25.1253 23.5511C24.208 23.1244 23.504 22.5484 23.0133 21.8231C22.5227 21.0764 22.2773 20.2231 22.2773 19.2631C22.2773 18.3884 22.48 17.5991 22.8853 16.8951C23.312 16.1697 23.9947 15.5937 24.9333 15.1671C25.8933 14.7191 27.1733 14.4951 28.7733 14.4951H34.5653V16.1911H28.8373C27.216 16.1911 26.0853 16.4791 25.4453 17.0551C24.8267 17.6311 24.5173 18.3457 24.5173 19.1991C24.5173 20.1591 24.8907 20.9271 25.6373 21.5031C26.384 22.0791 27.4293 22.3671 28.7733 22.3671C30.0533 22.3671 31.152 22.0791 32.0693 21.5031C33.008 20.9057 33.6907 20.0524 34.1173 18.9431L34.6293 20.5111C34.2027 21.6204 33.456 22.5057 32.3893 23.1671C31.344 23.8284 30.0213 24.1591 28.4213 24.1591Z" fill="#406D73"/>
<path d="M9.00989 24.1591C7.55922 24.1591 6.24722 23.8284 5.07389 23.1671C3.90056 22.4844 2.96189 21.5137 2.25789 20.2551C1.57522 18.9751 1.23389 17.4177 1.23389 15.5831C1.23389 13.7484 1.57522 12.2017 2.25789 10.9431C2.94056 9.66306 3.86856 8.6924 5.04189 8.03106C6.21522 7.36973 7.53789 7.03906 9.00989 7.03906C10.6099 7.03906 12.0392 7.40173 13.2979 8.12706C14.5779 8.83106 15.5806 9.83373 16.3059 11.1351C17.0312 12.4151 17.3939 13.8977 17.3939 15.5831C17.3939 17.2897 17.0312 18.7831 16.3059 20.0631C15.5806 21.3431 14.5779 22.3457 13.2979 23.0711C12.0392 23.7964 10.6099 24.1591 9.00989 24.1591ZM0.337891 30.2071V7.19906H2.51389V12.2551L2.28989 15.6151L2.60989 19.0071V30.2071H0.337891ZM8.84989 22.1431C10.0446 22.1431 11.1112 21.8764 12.0499 21.3431C12.9886 20.7884 13.7352 20.0204 14.2899 19.0391C14.8446 18.0364 15.1219 16.8844 15.1219 15.5831C15.1219 14.2817 14.8446 13.1404 14.2899 12.1591C13.7352 11.1777 12.9886 10.4097 12.0499 9.85506C11.1112 9.3004 10.0446 9.02306 8.84989 9.02306C7.65522 9.02306 6.57789 9.3004 5.61789 9.85506C4.67922 10.4097 3.93256 11.1777 3.37789 12.1591C2.84456 13.1404 2.57789 14.2817 2.57789 15.5831C2.57789 16.8844 2.84456 18.0364 3.37789 19.0391C3.93256 20.0204 4.67922 20.7884 5.61789 21.3431C6.57789 21.8764 7.65522 22.1431 8.84989 22.1431Z" fill="#406D73"/>
</svg>
