<svg width="304" height="30" viewBox="0 0 304 30" fill="none" xmlns="http://www.w3.org/2000/svg">
<path opacity="0.7" d="M297.423 12.1231C299.535 12.1445 301.135 12.6138 302.223 13.5311C303.333 14.4485 303.887 15.7711 303.887 17.4991C303.887 19.2911 303.29 20.6671 302.095 21.6271C300.922 22.5871 299.215 23.0565 296.975 23.0351L290.191 23.0031V6.20312H292.463V12.0591L297.423 12.1231ZM296.847 21.3071C298.405 21.3285 299.578 21.0191 300.367 20.3791C301.178 19.7178 301.583 18.7578 301.583 17.4991C301.583 16.2405 301.189 15.3231 300.399 14.7471C299.61 14.1498 298.426 13.8405 296.847 13.8191L292.463 13.7551V21.2431L296.847 21.3071Z" fill="#163C51"/>
<path opacity="0.7" d="M266.902 22.9711L267.062 21.0191C267.212 21.0405 267.35 21.0725 267.478 21.1151C267.628 21.1365 267.756 21.1471 267.862 21.1471C268.545 21.1471 269.089 20.8911 269.494 20.3791C269.921 19.8671 270.241 19.1845 270.454 18.3311C270.668 17.4778 270.817 16.5178 270.902 15.4511C270.988 14.3631 271.062 13.2751 271.126 12.1871L271.414 6.20312H283.734V23.0031H281.462V7.51513L282.038 8.18712H272.886L273.43 7.48313L273.174 12.3471C273.11 13.7978 272.993 15.1845 272.822 16.5071C272.673 17.8298 272.428 18.9925 272.086 19.9951C271.766 20.9978 271.318 21.7871 270.742 22.3631C270.166 22.9178 269.43 23.1951 268.534 23.1951C268.278 23.1951 268.012 23.1738 267.734 23.1311C267.478 23.0885 267.201 23.0351 266.902 22.9711Z" fill="#163C51"/>
<path opacity="0.7" d="M256.636 23.163C255.014 23.163 253.553 22.8003 252.252 22.075C250.972 21.3283 249.958 20.315 249.212 19.035C248.465 17.7336 248.092 16.251 248.092 14.587C248.092 12.9016 248.465 11.419 249.212 10.139C249.958 8.85897 250.972 7.8563 252.252 7.13097C253.532 6.40564 254.993 6.04297 256.636 6.04297C258.3 6.04297 259.772 6.40564 261.052 7.13097C262.353 7.8563 263.366 8.85897 264.092 10.139C264.838 11.419 265.212 12.9016 265.212 14.587C265.212 16.251 264.838 17.7336 264.092 19.035C263.366 20.315 262.353 21.3283 261.052 22.075C259.75 22.8003 258.278 23.163 256.636 23.163ZM256.636 21.147C257.852 21.147 258.929 20.8803 259.868 20.347C260.806 19.7923 261.542 19.0243 262.076 18.043C262.63 17.0403 262.908 15.8883 262.908 14.587C262.908 13.2643 262.63 12.1123 262.076 11.131C261.542 10.1496 260.806 9.3923 259.868 8.85897C258.929 8.3043 257.862 8.02697 256.668 8.02697C255.473 8.02697 254.406 8.3043 253.468 8.85897C252.529 9.3923 251.782 10.1496 251.228 11.131C250.673 12.1123 250.396 13.2643 250.396 14.587C250.396 15.8883 250.673 17.0403 251.228 18.043C251.782 19.0243 252.529 19.7923 253.468 20.347C254.406 20.8803 255.462 21.147 256.636 21.147Z" fill="#163C51"/>
<path opacity="0.7" d="M236.457 23.163C235.007 23.163 233.694 22.8323 232.521 22.171C231.348 21.4883 230.409 20.5176 229.705 19.259C229.023 17.979 228.681 16.4216 228.681 14.587C228.681 12.7523 229.023 11.2056 229.705 9.94697C230.388 8.66697 231.316 7.6963 232.489 7.03497C233.662 6.37364 234.985 6.04297 236.457 6.04297C238.057 6.04297 239.486 6.40564 240.745 7.13097C242.025 7.83497 243.028 8.83764 243.753 10.139C244.478 11.419 244.841 12.9016 244.841 14.587C244.841 16.2936 244.478 17.787 243.753 19.067C243.028 20.347 242.025 21.3496 240.745 22.075C239.486 22.8003 238.057 23.163 236.457 23.163ZM227.785 29.211V6.20297H229.961V11.259L229.737 14.619L230.057 18.011V29.211H227.785ZM236.297 21.147C237.492 21.147 238.558 20.8803 239.497 20.347C240.436 19.7923 241.183 19.0243 241.737 18.043C242.292 17.0403 242.569 15.8883 242.569 14.587C242.569 13.2856 242.292 12.1443 241.737 11.163C241.183 10.1816 240.436 9.41364 239.497 8.85897C238.558 8.3043 237.492 8.02697 236.297 8.02697C235.102 8.02697 234.025 8.3043 233.065 8.85897C232.126 9.41364 231.38 10.1816 230.825 11.163C230.292 12.1443 230.025 13.2856 230.025 14.587C230.025 15.8883 230.292 17.0403 230.825 18.043C231.38 19.0243 232.126 19.7923 233.065 20.347C234.025 20.8803 235.102 21.147 236.297 21.147Z" fill="#163C51"/>
<path opacity="0.7" d="M219.561 23.003V19.291L219.465 18.683V12.475C219.465 11.0456 219.06 9.94697 218.249 9.17897C217.46 8.41097 216.276 8.02697 214.697 8.02697C213.609 8.02697 212.574 8.2083 211.593 8.57097C210.612 8.93364 209.78 9.41364 209.097 10.011L208.073 8.31497C208.926 7.58964 209.95 7.03497 211.145 6.65097C212.34 6.24564 213.598 6.04297 214.921 6.04297C217.097 6.04297 218.772 6.58697 219.945 7.67497C221.14 8.74164 221.737 10.3736 221.737 12.571V23.003H219.561ZM213.769 23.163C212.51 23.163 211.412 22.9603 210.473 22.555C209.556 22.1283 208.852 21.5523 208.361 20.827C207.87 20.0803 207.625 19.227 207.625 18.267C207.625 17.3923 207.828 16.603 208.233 15.899C208.66 15.1736 209.342 14.5976 210.281 14.171C211.241 13.723 212.521 13.499 214.121 13.499H219.913V15.195H214.185C212.564 15.195 211.433 15.483 210.793 16.059C210.174 16.635 209.865 17.3496 209.865 18.203C209.865 19.163 210.238 19.931 210.985 20.507C211.732 21.083 212.777 21.371 214.121 21.371C215.401 21.371 216.5 21.083 217.417 20.507C218.356 19.9096 219.038 19.0563 219.465 17.947L219.977 19.515C219.55 20.6243 218.804 21.5096 217.737 22.171C216.692 22.8323 215.369 23.163 213.769 23.163Z" fill="#163C51"/>
<path opacity="0.7" d="M187.566 23.0031V6.20312H202.67V23.0031H200.398V7.57913L200.974 8.18712H189.262L189.838 7.57913V23.0031H187.566Z" fill="#163C51"/>
<path opacity="0.7" d="M166.611 23.163C164.862 23.163 163.326 22.8003 162.003 22.075C160.681 21.3283 159.646 20.315 158.899 19.035C158.153 17.7336 157.779 16.251 157.779 14.587C157.779 12.923 158.131 11.451 158.835 10.171C159.561 8.89097 160.542 7.8883 161.779 7.16297C163.038 6.4163 164.446 6.04297 166.003 6.04297C167.582 6.04297 168.979 6.40564 170.195 7.13097C171.433 7.83497 172.403 8.83764 173.107 10.139C173.811 11.419 174.163 12.9016 174.163 14.587C174.163 14.6936 174.153 14.811 174.131 14.939C174.131 15.0456 174.131 15.163 174.131 15.291H159.507V13.595H172.915L172.019 14.267C172.019 13.051 171.753 11.9736 171.219 11.035C170.707 10.075 170.003 9.3283 169.107 8.79497C168.211 8.26164 167.177 7.99497 166.003 7.99497C164.851 7.99497 163.817 8.26164 162.899 8.79497C161.982 9.3283 161.267 10.075 160.755 11.035C160.243 11.995 159.987 13.0936 159.987 14.331V14.683C159.987 15.963 160.265 17.0936 160.819 18.075C161.395 19.035 162.185 19.7923 163.187 20.347C164.211 20.8803 165.374 21.147 166.675 21.147C167.699 21.147 168.649 20.9656 169.523 20.603C170.419 20.2403 171.187 19.6856 171.827 18.939L173.107 20.411C172.361 21.307 171.422 21.9896 170.291 22.459C169.182 22.9283 167.955 23.163 166.611 23.163Z" fill="#163C51"/>
<path opacity="0.7" d="M148.266 23.0031V7.57913L148.842 8.18712H141.898V6.20312H156.906V8.18712H149.962L150.538 7.57913V23.0031H148.266Z" fill="#163C51"/>
<path opacity="0.7" d="M123.035 23.0031V6.20312H125.307V19.5471L136.539 6.20312H138.555V23.0031H136.283V9.62713L125.083 23.0031H123.035Z" fill="#163C51"/>
<path opacity="0.7" d="M109.77 23.163C108.319 23.163 107.007 22.8323 105.834 22.171C104.66 21.4883 103.722 20.5176 103.018 19.259C102.335 17.979 101.994 16.4216 101.994 14.587C101.994 12.7523 102.335 11.2056 103.018 9.94697C103.7 8.66697 104.628 7.6963 105.802 7.03497C106.975 6.37364 108.298 6.04297 109.77 6.04297C111.37 6.04297 112.799 6.40564 114.058 7.13097C115.338 7.83497 116.34 8.83764 117.066 10.139C117.791 11.419 118.154 12.9016 118.154 14.587C118.154 16.2936 117.791 17.787 117.066 19.067C116.34 20.347 115.338 21.3496 114.058 22.075C112.799 22.8003 111.37 23.163 109.77 23.163ZM101.098 29.211V6.20297H103.274V11.259L103.05 14.619L103.37 18.011V29.211H101.098ZM109.61 21.147C110.804 21.147 111.871 20.8803 112.81 20.347C113.748 19.7923 114.495 19.0243 115.05 18.043C115.604 17.0403 115.882 15.8883 115.882 14.587C115.882 13.2856 115.604 12.1443 115.05 11.163C114.495 10.1816 113.748 9.41364 112.81 8.85897C111.871 8.3043 110.804 8.02697 109.61 8.02697C108.415 8.02697 107.338 8.3043 106.378 8.85897C105.439 9.41364 104.692 10.1816 104.138 11.163C103.604 12.1443 103.338 13.2856 103.338 14.587C103.338 15.8883 103.604 17.0403 104.138 18.043C104.692 19.0243 105.439 19.7923 106.378 20.347C107.338 20.8803 108.415 21.147 109.61 21.147Z" fill="#163C51"/>
<path opacity="0.7" d="M87.667 23.163C86.0457 23.163 84.5844 22.8003 83.2831 22.075C82.0031 21.3283 80.9897 20.315 80.243 19.035C79.4964 17.7336 79.123 16.251 79.123 14.587C79.123 12.9016 79.4964 11.419 80.243 10.139C80.9897 8.85897 82.0031 7.8563 83.2831 7.13097C84.5631 6.40564 86.0244 6.04297 87.667 6.04297C89.331 6.04297 90.803 6.40564 92.083 7.13097C93.3844 7.8563 94.3977 8.85897 95.123 10.139C95.8697 11.419 96.243 12.9016 96.243 14.587C96.243 16.251 95.8697 17.7336 95.123 19.035C94.3977 20.315 93.3844 21.3283 92.083 22.075C90.7817 22.8003 89.3097 23.163 87.667 23.163ZM87.667 21.147C88.883 21.147 89.9604 20.8803 90.899 20.347C91.8377 19.7923 92.5737 19.0243 93.107 18.043C93.6617 17.0403 93.939 15.8883 93.939 14.587C93.939 13.2643 93.6617 12.1123 93.107 11.131C92.5737 10.1496 91.8377 9.3923 90.899 8.85897C89.9604 8.3043 88.8937 8.02697 87.6991 8.02697C86.5044 8.02697 85.4377 8.3043 84.499 8.85897C83.5604 9.3923 82.8137 10.1496 82.259 11.131C81.7044 12.1123 81.427 13.2643 81.427 14.587C81.427 15.8883 81.7044 17.0403 82.259 18.043C82.8137 19.0243 83.5604 19.7923 84.499 20.347C85.4377 20.8803 86.4937 21.147 87.667 21.147Z" fill="#163C51"/>
<path opacity="0.7" d="M69.6102 23.0031V7.57913L70.1862 8.18712H63.2422V6.20312H78.2502V8.18712H71.3062L71.8822 7.57913V23.0031H69.6102Z" fill="#163C51"/>
<path opacity="0.7" d="M46.9414 23.0031V6.20312H54.3654C56.2641 6.20312 57.7574 6.56579 58.8454 7.29113C59.9547 8.01646 60.5094 9.08313 60.5094 10.4911C60.5094 11.8565 59.9867 12.9125 58.9414 13.6591C57.8961 14.3845 56.5201 14.7471 54.8134 14.7471L55.2614 14.0751C57.2667 14.0751 58.7387 14.4485 59.6774 15.1951C60.6161 15.9418 61.0854 17.0191 61.0854 18.4271C61.0854 19.8778 60.5521 21.0085 59.4854 21.8191C58.4401 22.6085 56.8081 23.0031 54.5894 23.0031H46.9414ZM49.1494 21.2111H54.4934C55.9227 21.2111 57.0001 20.9871 57.7254 20.5391C58.4721 20.0698 58.8454 19.3231 58.8454 18.2991C58.8454 17.2751 58.5147 16.5285 57.8534 16.0591C57.1921 15.5898 56.1467 15.3551 54.7174 15.3551H49.1494V21.2111ZM49.1494 13.6591H54.2054C55.5067 13.6591 56.4987 13.4138 57.1814 12.9231C57.8854 12.4325 58.2374 11.7178 58.2374 10.7791C58.2374 9.84046 57.8854 9.13646 57.1814 8.66713C56.4987 8.19779 55.5067 7.96313 54.2054 7.96313H49.1494V13.6591Z" fill="#163C51"/>
<path opacity="0.7" d="M33.5108 23.163C31.8895 23.163 30.4281 22.8003 29.1268 22.075C27.8468 21.3283 26.8335 20.315 26.0868 19.035C25.3401 17.7336 24.9668 16.251 24.9668 14.587C24.9668 12.9016 25.3401 11.419 26.0868 10.139C26.8335 8.85897 27.8468 7.8563 29.1268 7.13097C30.4068 6.40564 31.8681 6.04297 33.5108 6.04297C35.1748 6.04297 36.6468 6.40564 37.9268 7.13097C39.2281 7.8563 40.2415 8.85897 40.9668 10.139C41.7135 11.419 42.0868 12.9016 42.0868 14.587C42.0868 16.251 41.7135 17.7336 40.9668 19.035C40.2415 20.315 39.2281 21.3283 37.9268 22.075C36.6255 22.8003 35.1535 23.163 33.5108 23.163ZM33.5108 21.147C34.7268 21.147 35.8041 20.8803 36.7428 20.347C37.6815 19.7923 38.4175 19.0243 38.9508 18.043C39.5055 17.0403 39.7828 15.8883 39.7828 14.587C39.7828 13.2643 39.5055 12.1123 38.9508 11.131C38.4175 10.1496 37.6815 9.3923 36.7428 8.85897C35.8041 8.3043 34.7375 8.02697 33.5428 8.02697C32.3481 8.02697 31.2815 8.3043 30.3428 8.85897C29.4041 9.3923 28.6575 10.1496 28.1028 11.131C27.5481 12.1123 27.2708 13.2643 27.2708 14.587C27.2708 15.8883 27.5481 17.0403 28.1028 18.043C28.6575 19.0243 29.4041 19.7923 30.3428 20.347C31.2815 20.8803 32.3375 21.147 33.5108 21.147Z" fill="#163C51"/>
<path opacity="0.7" d="M0.736328 23.0016V0.601562H19.5843V23.0016H17.2483V2.00956L17.8563 2.64956H2.46433L3.07233 2.00956V23.0016H0.736328Z" fill="#163C51"/>
</svg>
