<svg width="275" height="31" viewBox="0 0 275 31" fill="none" xmlns="http://www.w3.org/2000/svg">
<path opacity="0.7" d="M272.756 24.003V20.291L272.66 19.683V13.475C272.66 12.0456 272.255 10.947 271.444 10.179C270.655 9.41097 269.471 9.02697 267.892 9.02697C266.804 9.02697 265.77 9.2083 264.788 9.57097C263.807 9.93364 262.975 10.4136 262.292 11.011L261.268 9.31497C262.122 8.58964 263.146 8.03497 264.34 7.65097C265.535 7.24564 266.794 7.04297 268.116 7.04297C270.292 7.04297 271.967 7.58697 273.14 8.67497C274.335 9.74164 274.932 11.3736 274.932 13.571V24.003H272.756ZM266.964 24.163C265.706 24.163 264.607 23.9603 263.668 23.555C262.751 23.1283 262.047 22.5523 261.556 21.827C261.066 21.0803 260.82 20.227 260.82 19.267C260.82 18.3923 261.023 17.603 261.428 16.899C261.855 16.1736 262.538 15.5976 263.476 15.171C264.436 14.723 265.716 14.499 267.316 14.499H273.108V16.195H267.38C265.759 16.195 264.628 16.483 263.988 17.059C263.37 17.635 263.06 18.3496 263.06 19.203C263.06 20.163 263.434 20.931 264.18 21.507C264.927 22.083 265.972 22.371 267.316 22.371C268.596 22.371 269.695 22.083 270.612 21.507C271.551 20.9096 272.234 20.0563 272.66 18.947L273.172 20.515C272.746 21.6243 271.999 22.5096 270.932 23.171C269.887 23.8323 268.564 24.163 266.964 24.163Z" fill="#163C51"/>
<path opacity="0.7" d="M240.73 24.0031V7.20312H243.002V14.6271H253.594V7.20312H255.866V24.0031H253.594V16.5791H243.002V24.0031H240.73Z" fill="#163C51"/>
<path opacity="0.7" d="M227.3 24.163C225.679 24.163 224.217 23.8003 222.916 23.075C221.636 22.3283 220.623 21.315 219.876 20.035C219.129 18.7336 218.756 17.251 218.756 15.587C218.756 13.9016 219.129 12.419 219.876 11.139C220.623 9.85897 221.636 8.8563 222.916 8.13097C224.196 7.40564 225.657 7.04297 227.3 7.04297C228.964 7.04297 230.436 7.40564 231.716 8.13097C233.017 8.8563 234.031 9.85897 234.756 11.139C235.503 12.419 235.876 13.9016 235.876 15.587C235.876 17.251 235.503 18.7336 234.756 20.035C234.031 21.315 233.017 22.3283 231.716 23.075C230.415 23.8003 228.943 24.163 227.3 24.163ZM227.3 22.147C228.516 22.147 229.593 21.8803 230.532 21.347C231.471 20.7923 232.207 20.0243 232.74 19.043C233.295 18.0403 233.572 16.8883 233.572 15.587C233.572 14.2643 233.295 13.1123 232.74 12.131C232.207 11.1496 231.471 10.3923 230.532 9.85897C229.593 9.3043 228.527 9.02697 227.332 9.02697C226.137 9.02697 225.071 9.3043 224.132 9.85897C223.193 10.3923 222.447 11.1496 221.892 12.131C221.337 13.1123 221.06 14.2643 221.06 15.587C221.06 16.8883 221.337 18.0403 221.892 19.043C222.447 20.0243 223.193 20.7923 224.132 21.347C225.071 21.8803 226.127 22.147 227.3 22.147Z" fill="#163C51"/>
<path opacity="0.7" d="M204.702 24.1938C204.702 24.1938 204.659 24.1938 204.574 24.1938C204.488 24.1938 204.403 24.1938 204.318 24.1938C204.254 24.1938 204.2 24.1938 204.158 24.1938C200.83 24.1725 198.238 23.4151 196.382 21.9218C194.526 20.4285 193.598 18.3058 193.598 15.5538C193.598 12.8445 194.526 10.7538 196.382 9.28181C198.259 7.78848 200.894 7.03115 204.286 7.00981C204.307 7.00981 204.35 7.00981 204.414 7.00981C204.499 7.00981 204.574 7.00981 204.638 7.00981C204.702 7.00981 204.744 7.00981 204.766 7.00981C208.179 7.03115 210.835 7.78848 212.734 9.28181C214.632 10.7538 215.582 12.8445 215.582 15.5538C215.582 18.3271 214.622 20.4605 212.702 21.9538C210.803 23.4471 208.136 24.1938 204.702 24.1938ZM204.67 22.2098C206.568 22.2098 208.158 21.9538 209.438 21.4418C210.718 20.9085 211.688 20.1511 212.35 19.1698C213.011 18.1885 213.342 16.9831 213.342 15.5538C213.342 14.1671 213.011 12.9938 212.35 12.0338C211.688 11.0525 210.718 10.3058 209.438 9.79381C208.158 9.28181 206.568 9.02581 204.67 9.02581C204.648 9.02581 204.584 9.02581 204.478 9.02581C204.392 9.02581 204.339 9.02581 204.318 9.02581C202.462 9.02581 200.904 9.29248 199.646 9.82581C198.387 10.3378 197.438 11.0738 196.798 12.0338C196.158 12.9938 195.838 14.1671 195.838 15.5538C195.838 16.9618 196.158 18.1565 196.798 19.1378C197.459 20.1191 198.419 20.8765 199.678 21.4098C200.936 21.9218 202.483 22.1885 204.318 22.2098C204.36 22.2098 204.424 22.2098 204.51 22.2098C204.595 22.2098 204.648 22.2098 204.67 22.2098ZM203.454 30.2098V0.257812H205.662V30.2098H203.454Z" fill="#163C51"/>
<path opacity="0.7" d="M182.682 24.163C180.932 24.163 179.396 23.8003 178.074 23.075C176.751 22.3283 175.716 21.315 174.97 20.035C174.223 18.7336 173.85 17.251 173.85 15.587C173.85 13.923 174.202 12.451 174.906 11.171C175.631 9.89097 176.612 8.8883 177.85 8.16297C179.108 7.4163 180.516 7.04297 182.074 7.04297C183.652 7.04297 185.05 7.40564 186.266 8.13097C187.503 8.83497 188.474 9.83764 189.178 11.139C189.882 12.419 190.234 13.9016 190.234 15.587C190.234 15.6936 190.223 15.811 190.202 15.939C190.202 16.0456 190.202 16.163 190.202 16.291H175.578V14.595H188.986L188.09 15.267C188.09 14.051 187.823 12.9736 187.29 12.035C186.778 11.075 186.074 10.3283 185.178 9.79497C184.282 9.26164 183.247 8.99497 182.074 8.99497C180.922 8.99497 179.887 9.26164 178.97 9.79497C178.052 10.3283 177.338 11.075 176.826 12.035C176.314 12.995 176.058 14.0936 176.058 15.331V15.683C176.058 16.963 176.335 18.0936 176.89 19.075C177.466 20.035 178.255 20.7923 179.258 21.347C180.282 21.8803 181.444 22.147 182.746 22.147C183.77 22.147 184.719 21.9656 185.594 21.603C186.49 21.2403 187.258 20.6856 187.898 19.939L189.178 21.411C188.431 22.307 187.492 22.9896 186.362 23.459C185.252 23.9283 184.026 24.163 182.682 24.163Z" fill="#163C51"/>
<path opacity="0.7" d="M152.191 23.9711L152.351 22.0191C152.501 22.0405 152.639 22.0725 152.767 22.1151C152.917 22.1365 153.045 22.1471 153.151 22.1471C153.834 22.1471 154.378 21.8911 154.783 21.3791C155.21 20.8671 155.53 20.1845 155.743 19.3311C155.957 18.4778 156.106 17.5178 156.191 16.4511C156.277 15.3631 156.351 14.2751 156.415 13.1871L156.703 7.20312H169.023V24.0031H166.751V8.51513L167.327 9.18712H158.175L158.719 8.48313L158.463 13.3471C158.399 14.7978 158.282 16.1845 158.111 17.5071C157.962 18.8298 157.717 19.9925 157.375 20.9951C157.055 21.9978 156.607 22.7871 156.031 23.3631C155.455 23.9178 154.719 24.1951 153.823 24.1951C153.567 24.1951 153.301 24.1738 153.023 24.1311C152.767 24.0885 152.49 24.0351 152.191 23.9711Z" fill="#163C51"/>
<path opacity="0.7" d="M143.025 24.163C141.276 24.163 139.74 23.8003 138.417 23.075C137.095 22.3283 136.06 21.315 135.313 20.035C134.567 18.7336 134.193 17.251 134.193 15.587C134.193 13.923 134.545 12.451 135.249 11.171C135.975 9.89097 136.956 8.8883 138.193 8.16297C139.452 7.4163 140.86 7.04297 142.417 7.04297C143.996 7.04297 145.393 7.40564 146.609 8.13097C147.847 8.83497 148.817 9.83764 149.521 11.139C150.225 12.419 150.577 13.9016 150.577 15.587C150.577 15.6936 150.567 15.811 150.545 15.939C150.545 16.0456 150.545 16.163 150.545 16.291H135.921V14.595H149.329L148.433 15.267C148.433 14.051 148.167 12.9736 147.633 12.035C147.121 11.075 146.417 10.3283 145.521 9.79497C144.625 9.26164 143.591 8.99497 142.417 8.99497C141.265 8.99497 140.231 9.26164 139.313 9.79497C138.396 10.3283 137.681 11.075 137.169 12.035C136.657 12.995 136.401 14.0936 136.401 15.331V15.683C136.401 16.963 136.679 18.0936 137.233 19.075C137.809 20.035 138.599 20.7923 139.601 21.347C140.625 21.8803 141.788 22.147 143.089 22.147C144.113 22.147 145.063 21.9656 145.937 21.603C146.833 21.2403 147.601 20.6856 148.241 19.939L149.521 21.411C148.775 22.307 147.836 22.9896 146.705 23.459C145.596 23.9283 144.369 24.163 143.025 24.163Z" fill="#163C51"/>
<path opacity="0.7" d="M124.681 24.0031V8.57913L125.256 9.18712H118.312V7.20312H133.321V9.18712H126.377L126.952 8.57913V24.0031H124.681Z" fill="#163C51"/>
<path opacity="0.7" d="M99.84 24.163C98.3893 24.163 97.0773 23.8323 95.904 23.171C94.7306 22.4883 93.792 21.5176 93.088 20.259C92.4053 18.979 92.064 17.4216 92.064 15.587C92.064 13.7523 92.4053 12.2056 93.088 10.947C93.7706 9.66697 94.6986 8.6963 95.872 8.03497C97.0453 7.37364 98.368 7.04297 99.84 7.04297C101.44 7.04297 102.869 7.40564 104.128 8.13097C105.408 8.83497 106.411 9.83764 107.136 11.139C107.861 12.419 108.224 13.9016 108.224 15.587C108.224 17.2936 107.861 18.787 107.136 20.067C106.411 21.347 105.408 22.3496 104.128 23.075C102.869 23.8003 101.44 24.163 99.84 24.163ZM91.168 30.211V7.20297H93.344V12.259L93.12 15.619L93.44 19.011V30.211H91.168ZM99.68 22.147C100.875 22.147 101.941 21.8803 102.88 21.347C103.819 20.7923 104.565 20.0243 105.12 19.043C105.675 18.0403 105.952 16.8883 105.952 15.587C105.952 14.2856 105.675 13.1443 105.12 12.163C104.565 11.1816 103.819 10.4136 102.88 9.85897C101.941 9.3043 100.875 9.02697 99.68 9.02697C98.4853 9.02697 97.408 9.3043 96.448 9.85897C95.5093 10.4136 94.7626 11.1816 94.208 12.163C93.6746 13.1443 93.408 14.2856 93.408 15.587C93.408 16.8883 93.6746 18.0403 94.208 19.043C94.7626 20.0243 95.5093 20.7923 96.448 21.347C97.408 21.8803 98.4853 22.147 99.68 22.147Z" fill="#163C51"/>
<path opacity="0.7" d="M78.5879 24.163C76.8385 24.163 75.3025 23.8003 73.9799 23.075C72.6572 22.3283 71.6225 21.315 70.8759 20.035C70.1292 18.7336 69.7559 17.251 69.7559 15.587C69.7559 13.923 70.1079 12.451 70.8119 11.171C71.5372 9.89097 72.5185 8.8883 73.7559 8.16297C75.0145 7.4163 76.4225 7.04297 77.9799 7.04297C79.5585 7.04297 80.9559 7.40564 82.1719 8.13097C83.4092 8.83497 84.3799 9.83764 85.0839 11.139C85.7879 12.419 86.1399 13.9016 86.1399 15.587C86.1399 15.6936 86.1292 15.811 86.1079 15.939C86.1079 16.0456 86.1079 16.163 86.1079 16.291H71.4839V14.595H84.8919L83.9959 15.267C83.9959 14.051 83.7292 12.9736 83.1959 12.035C82.6839 11.075 81.9799 10.3283 81.0839 9.79497C80.1879 9.26164 79.1532 8.99497 77.9799 8.99497C76.8279 8.99497 75.7932 9.26164 74.8759 9.79497C73.9585 10.3283 73.2439 11.075 72.7319 12.035C72.2199 12.995 71.9639 14.0936 71.9639 15.331V15.683C71.9639 16.963 72.2412 18.0936 72.7959 19.075C73.3719 20.035 74.1612 20.7923 75.1639 21.347C76.1879 21.8803 77.3505 22.147 78.6519 22.147C79.6759 22.147 80.6252 21.9656 81.4999 21.603C82.3959 21.2403 83.1639 20.6856 83.8039 19.939L85.0839 21.411C84.3372 22.307 83.3985 22.9896 82.2679 23.459C81.1585 23.9283 79.9319 24.163 78.5879 24.163Z" fill="#163C51"/>
<path opacity="0.7" d="M46.1055 24.0031V7.20312H48.4095L56.0255 20.0991H55.0655L62.8095 7.20312H64.9215V24.0031H62.8415V9.79513L63.2575 9.98713L56.0255 21.9551H55.0015L47.7055 9.85913L48.1855 9.76312V24.0031H46.1055Z" fill="#163C51"/>
<path opacity="0.7" d="M32.6749 24.163C31.0535 24.163 29.5922 23.8003 28.2909 23.075C27.0109 22.3283 25.9975 21.315 25.2509 20.035C24.5042 18.7336 24.1309 17.251 24.1309 15.587C24.1309 13.9016 24.5042 12.419 25.2509 11.139C25.9975 9.85897 27.0109 8.8563 28.2909 8.13097C29.5709 7.40564 31.0322 7.04297 32.6749 7.04297C34.3389 7.04297 35.8109 7.40564 37.0909 8.13097C38.3922 8.8563 39.4055 9.85897 40.1309 11.139C40.8775 12.419 41.2509 13.9016 41.2509 15.587C41.2509 17.251 40.8775 18.7336 40.1309 20.035C39.4055 21.315 38.3922 22.3283 37.0909 23.075C35.7895 23.8003 34.3175 24.163 32.6749 24.163ZM32.6749 22.147C33.8909 22.147 34.9682 21.8803 35.9069 21.347C36.8455 20.7923 37.5815 20.0243 38.1149 19.043C38.6695 18.0403 38.9469 16.8883 38.9469 15.587C38.9469 14.2643 38.6695 13.1123 38.1149 12.131C37.5815 11.1496 36.8455 10.3923 35.9069 9.85897C34.9682 9.3043 33.9015 9.02697 32.7069 9.02697C31.5122 9.02697 30.4455 9.3043 29.5069 9.85897C28.5682 10.3923 27.8215 11.1496 27.2669 12.131C26.7122 13.1123 26.4349 14.2643 26.4349 15.587C26.4349 16.8883 26.7122 18.0403 27.2669 19.043C27.8215 20.0243 28.5682 20.7923 29.5069 21.347C30.4455 21.8803 31.5015 22.147 32.6749 22.147Z" fill="#163C51"/>
<path opacity="0.7" d="M16.4094 1.60156H18.7454V24.0016H16.4094V1.60156ZM2.39339 24.0016H0.0253906V1.60156H2.39339V24.0016ZM16.6334 13.6656H2.13739V11.5856H16.6334V13.6656Z" fill="#163C51"/>
</svg>
