<svg width="256" height="29" viewBox="0 0 256 29" fill="none" xmlns="http://www.w3.org/2000/svg">
<path opacity="0.7" d="M253.345 23.0031V16.9551L253.761 17.4351H248.065C245.91 17.4351 244.225 16.9658 243.009 16.0271C241.793 15.0885 241.185 13.7231 241.185 11.9311C241.185 10.0111 241.835 8.58179 243.137 7.64313C244.438 6.68313 246.177 6.20312 248.353 6.20312H255.425V23.0031H253.345ZM241.057 23.0031L245.665 16.5391H248.033L243.521 23.0031H241.057ZM253.345 16.2831V7.51513L253.761 8.18712H248.417C246.859 8.18712 245.643 8.48579 244.769 9.08312C243.915 9.68046 243.489 10.6511 243.489 11.9951C243.489 14.4911 245.078 15.7391 248.257 15.7391H253.761L253.345 16.2831Z" fill="#163C51"/>
<path opacity="0.7" d="M220.467 23.0031V6.20312H222.739V19.5471L233.971 6.20312H235.987V23.0031H233.715V9.62713L222.515 23.0031H220.467Z" fill="#163C51"/>
<path opacity="0.7" d="M198.873 23.0031V6.20312H201.145V13.6271H211.737V6.20312H214.009V23.0031H211.737V15.5791H201.145V23.0031H198.873Z" fill="#163C51"/>
<path opacity="0.7" d="M186.291 23.163C184.542 23.163 183.006 22.8003 181.683 22.075C180.36 21.3283 179.326 20.315 178.579 19.035C177.832 17.7336 177.459 16.251 177.459 14.587C177.459 12.923 177.811 11.451 178.515 10.171C179.24 8.89097 180.222 7.8883 181.459 7.16297C182.718 6.4163 184.126 6.04297 185.683 6.04297C187.262 6.04297 188.659 6.40564 189.875 7.13097C191.112 7.83497 192.083 8.83764 192.787 10.139C193.491 11.419 193.843 12.9016 193.843 14.587C193.843 14.6936 193.832 14.811 193.811 14.939C193.811 15.0456 193.811 15.163 193.811 15.291H179.187V13.595H192.595L191.699 14.267C191.699 13.051 191.432 11.9736 190.899 11.035C190.387 10.075 189.683 9.3283 188.787 8.79497C187.891 8.26164 186.856 7.99497 185.683 7.99497C184.531 7.99497 183.496 8.26164 182.579 8.79497C181.662 9.3283 180.947 10.075 180.435 11.035C179.923 11.995 179.667 13.0936 179.667 14.331V14.683C179.667 15.963 179.944 17.0936 180.499 18.075C181.075 19.035 181.864 19.7923 182.867 20.347C183.891 20.8803 185.054 21.147 186.355 21.147C187.379 21.147 188.328 20.9656 189.203 20.603C190.099 20.2403 190.867 19.6856 191.507 18.939L192.787 20.411C192.04 21.307 191.102 21.9896 189.971 22.459C188.862 22.9283 187.635 23.163 186.291 23.163Z" fill="#163C51"/>
<path opacity="0.7" d="M169.767 21.9151V8.18712H161.671L161.479 11.9311C161.436 13.0618 161.361 14.1711 161.255 15.2591C161.169 16.3471 161.009 17.3498 160.775 18.2671C160.561 19.1631 160.252 19.8991 159.847 20.4751C159.441 21.0298 158.919 21.3498 158.279 21.4351L156.007 21.0191C156.668 21.0405 157.212 20.8058 157.639 20.3151C158.065 19.8031 158.396 19.1098 158.631 18.2351C158.865 17.3605 159.036 16.3685 159.143 15.2591C159.249 14.1285 159.335 12.9765 159.399 11.8031L159.623 6.20312H172.039V21.9151H169.767ZM155.303 27.0671V21.0191H174.663V27.0671H172.519V23.0031H157.447V27.0671H155.303Z" fill="#163C51"/>
<path opacity="0.7" d="M151.745 23.0031L145.985 14.6831L147.873 13.5631L154.465 23.0031H151.745ZM142.209 15.5151V13.5631H147.521V15.5151H142.209ZM148.097 14.8431L145.921 14.5231L151.521 6.20312H153.985L148.097 14.8431ZM131.841 23.0031H129.121L135.713 13.5631L137.569 14.6831L131.841 23.0031ZM142.913 23.0031H140.641V6.20312H142.913V23.0031ZM141.345 15.5151H136.065V13.5631H141.345V15.5151ZM135.521 14.8431L129.601 6.20312H132.065L137.633 14.5231L135.521 14.8431Z" fill="#163C51"/>
<path opacity="0.7" d="M118.972 23.163C117.35 23.163 115.889 22.8003 114.588 22.075C113.308 21.3283 112.294 20.315 111.548 19.035C110.801 17.7336 110.428 16.251 110.428 14.587C110.428 12.9016 110.801 11.419 111.548 10.139C112.294 8.85897 113.308 7.8563 114.588 7.13097C115.868 6.40564 117.329 6.04297 118.972 6.04297C120.636 6.04297 122.108 6.40564 123.388 7.13097C124.689 7.8563 125.702 8.85897 126.428 10.139C127.174 11.419 127.548 12.9016 127.548 14.587C127.548 16.251 127.174 17.7336 126.428 19.035C125.702 20.315 124.689 21.3283 123.388 22.075C122.086 22.8003 120.614 23.163 118.972 23.163ZM118.972 21.147C120.188 21.147 121.265 20.8803 122.204 20.347C123.142 19.7923 123.878 19.0243 124.412 18.043C124.966 17.0403 125.244 15.8883 125.244 14.587C125.244 13.2643 124.966 12.1123 124.412 11.131C123.878 10.1496 123.142 9.3923 122.204 8.85897C121.265 8.3043 120.198 8.02697 119.004 8.02697C117.809 8.02697 116.742 8.3043 115.804 8.85897C114.865 9.3923 114.118 10.1496 113.564 11.131C113.009 12.1123 112.732 13.2643 112.732 14.587C112.732 15.8883 113.009 17.0403 113.564 18.043C114.118 19.0243 114.865 19.7923 115.804 20.347C116.742 20.8803 117.798 21.147 118.972 21.147Z" fill="#163C51"/>
<path opacity="0.7" d="M90.3223 23.0016V0.601562H98.7063C100.605 0.601562 102.237 0.910896 103.602 1.52956C104.968 2.1269 106.013 3.00156 106.738 4.15356C107.485 5.28423 107.858 6.66023 107.858 8.28156C107.858 9.86023 107.485 11.2256 106.738 12.3776C106.013 13.5082 104.968 14.3829 103.602 15.0016C102.237 15.6202 100.605 15.9296 98.7063 15.9296H91.6343L92.6903 14.8096V23.0016H90.3223ZM92.6903 15.0016L91.6343 13.8496H98.6423C100.882 13.8496 102.578 13.3696 103.73 12.4096C104.904 11.4282 105.49 10.0522 105.49 8.28156C105.49 6.48956 104.904 5.1029 103.73 4.12156C102.578 3.14023 100.882 2.64956 98.6423 2.64956H91.6343L92.6903 1.52956V15.0016Z" fill="#163C51"/>
<path opacity="0.7" d="M73.1801 23.003V19.291L73.0841 18.683V12.475C73.0841 11.0456 72.6788 9.94697 71.8681 9.17897C71.0788 8.41097 69.8948 8.02697 68.3161 8.02697C67.2281 8.02697 66.1935 8.2083 65.2121 8.57097C64.2308 8.93364 63.3988 9.41364 62.7161 10.011L61.6921 8.31497C62.5455 7.58964 63.5695 7.03497 64.7641 6.65097C65.9588 6.24564 67.2175 6.04297 68.5401 6.04297C70.7161 6.04297 72.3908 6.58697 73.5641 7.67497C74.7588 8.74164 75.3561 10.3736 75.3561 12.571V23.003H73.1801ZM67.3881 23.163C66.1295 23.163 65.0308 22.9603 64.0921 22.555C63.1748 22.1283 62.4708 21.5523 61.9801 20.827C61.4895 20.0803 61.2441 19.227 61.2441 18.267C61.2441 17.3923 61.4468 16.603 61.8521 15.899C62.2788 15.1736 62.9615 14.5976 63.9001 14.171C64.8601 13.723 66.1401 13.499 67.7401 13.499H73.5321V15.195H67.8041C66.1828 15.195 65.0521 15.483 64.4121 16.059C63.7935 16.635 63.4841 17.3496 63.4841 18.203C63.4841 19.163 63.8575 19.931 64.6041 20.507C65.3508 21.083 66.3961 21.371 67.7401 21.371C69.0201 21.371 70.1188 21.083 71.0361 20.507C71.9748 19.9096 72.6575 19.0563 73.0841 17.947L73.5961 19.515C73.1695 20.6243 72.4228 21.5096 71.3561 22.171C70.3108 22.8323 68.9881 23.163 67.3881 23.163Z" fill="#163C51"/>
<path opacity="0.7" d="M50.8231 23.0031V7.57913L51.3991 8.18712H44.4551V6.20312H59.4631V8.18712H52.5191L53.0951 7.57913V23.0031H50.8231Z" fill="#163C51"/>
<path opacity="0.7" d="M39.3989 23.003V19.291L39.3029 18.683V12.475C39.3029 11.0456 38.8976 9.94697 38.0869 9.17897C37.2976 8.41097 36.1136 8.02697 34.5349 8.02697C33.4469 8.02697 32.4122 8.2083 31.4309 8.57097C30.4496 8.93364 29.6176 9.41364 28.9349 10.011L27.9109 8.31497C28.7642 7.58964 29.7882 7.03497 30.9829 6.65097C32.1776 6.24564 33.4362 6.04297 34.7589 6.04297C36.9349 6.04297 38.6096 6.58697 39.7829 7.67497C40.9776 8.74164 41.5749 10.3736 41.5749 12.571V23.003H39.3989ZM33.6069 23.163C32.3482 23.163 31.2496 22.9603 30.3109 22.555C29.3936 22.1283 28.6896 21.5523 28.1989 20.827C27.7082 20.0803 27.4629 19.227 27.4629 18.267C27.4629 17.3923 27.6656 16.603 28.0709 15.899C28.4976 15.1736 29.1802 14.5976 30.1189 14.171C31.0789 13.723 32.3589 13.499 33.9589 13.499H39.7509V15.195H34.0229C32.4016 15.195 31.2709 15.483 30.6309 16.059C30.0122 16.635 29.7029 17.3496 29.7029 18.203C29.7029 19.163 30.0762 19.931 30.8229 20.507C31.5696 21.083 32.6149 21.371 33.9589 21.371C35.2389 21.371 36.3376 21.083 37.2549 20.507C38.1936 19.9096 38.8762 19.0563 39.3029 17.947L39.8149 19.515C39.3882 20.6243 38.6416 21.5096 37.5749 22.171C36.5296 22.8323 35.2069 23.163 33.6069 23.163Z" fill="#163C51"/>
<path opacity="0.7" d="M18.9837 21.8816V2.64956H8.26369L8.07169 8.08956C8.00769 9.7749 7.90102 11.3962 7.75169 12.9536C7.62369 14.4896 7.41035 15.8762 7.11169 17.1136C6.83435 18.3296 6.45036 19.3216 5.95969 20.0896C5.49036 20.8576 4.87169 21.3056 4.10369 21.4336L1.51169 20.9536C2.36502 20.9962 3.06902 20.6869 3.62369 20.0256C4.19969 19.3642 4.63702 18.4362 4.93569 17.2416C5.25569 16.0469 5.49035 14.6496 5.63969 13.0496C5.78902 11.4496 5.89569 9.72156 5.95969 7.86556L6.21569 0.601562H21.3197V21.8816H18.9837ZM0.679688 28.0256L0.711688 20.9536H24.6797V28.0256H22.4717V23.0016H2.91969L2.88769 28.0256H0.679688Z" fill="#163C51"/>
</svg>
