<svg width="81" height="25" viewBox="0 0 81 25" fill="none" xmlns="http://www.w3.org/2000/svg">
<path opacity="0.7" d="M68.3502 24.1903C66.6649 24.1903 65.0969 23.9129 63.6462 23.3583C62.2169 22.7823 60.9689 21.9823 59.9022 20.9583C58.8569 19.9129 58.0356 18.7076 57.4382 17.3423C56.8622 15.9556 56.5742 14.4409 56.5742 12.7983C56.5742 11.1556 56.8622 9.65158 57.4382 8.28625C58.0356 6.89958 58.8569 5.69425 59.9022 4.67025C60.9689 3.62492 62.2169 2.82492 63.6462 2.27025C65.0756 1.69425 66.6435 1.40625 68.3502 1.40625C70.0355 1.40625 71.5929 1.69425 73.0222 2.27025C74.4516 2.82492 75.6889 3.61425 76.7342 4.63825C77.8009 5.66225 78.6222 6.86758 79.1982 8.25425C79.7955 9.64092 80.0942 11.1556 80.0942 12.7983C80.0942 14.4409 79.7955 15.9556 79.1982 17.3423C78.6222 18.7289 77.8009 19.9342 76.7342 20.9583C75.6889 21.9823 74.4516 22.7823 73.0222 23.3583C71.5929 23.9129 70.0355 24.1903 68.3502 24.1903ZM68.3502 22.0783C69.6942 22.0783 70.9315 21.8543 72.0622 21.4063C73.2142 20.9369 74.2062 20.2863 75.0382 19.4543C75.8916 18.6009 76.5529 17.6196 77.0222 16.5103C77.4916 15.3796 77.7262 14.1423 77.7262 12.7983C77.7262 11.4543 77.4916 10.2276 77.0222 9.11825C76.5529 7.98758 75.8916 7.00625 75.0382 6.17425C74.2062 5.32092 73.2142 4.67025 72.0622 4.22225C70.9315 3.75292 69.6942 3.51825 68.3502 3.51825C67.0062 3.51825 65.7582 3.75292 64.6062 4.22225C63.4542 4.67025 62.4516 5.32092 61.5982 6.17425C60.7662 7.00625 60.1049 7.98758 59.6142 9.11825C59.1449 10.2276 58.9102 11.4543 58.9102 12.7983C58.9102 14.1209 59.1449 15.3476 59.6142 16.4783C60.1049 17.6089 60.7662 18.6009 61.5982 19.4543C62.4516 20.2863 63.4542 20.9369 64.6062 21.4063C65.7582 21.8543 67.0062 22.0783 68.3502 22.0783Z" fill="#163C51"/>
<path opacity="0.7" d="M32.1504 24.0016V1.60156H34.4864V20.1616L48.8224 1.60156H50.9664V24.0016H48.6304V5.47356L34.2944 24.0016H32.1504Z" fill="#163C51"/>
<path opacity="0.7" d="M13.3989 22.464C10.7322 22.464 8.44953 22.0907 6.55086 21.344C4.65219 20.576 3.19086 19.4667 2.16686 18.016C1.14286 16.5654 0.630859 14.816 0.630859 12.768C0.630859 10.72 1.14286 8.98137 2.16686 7.55203C3.19086 6.10137 4.65219 4.99203 6.55086 4.22403C8.44953 3.45603 10.7322 3.07203 13.3989 3.07203C13.4202 3.07203 13.4735 3.07203 13.5589 3.07203C13.6442 3.07203 13.7295 3.07203 13.8149 3.07203C13.9002 3.07203 13.9535 3.07203 13.9749 3.07203C16.6629 3.07203 18.9562 3.45603 20.8549 4.22403C22.7535 4.99203 24.2149 6.10137 25.2389 7.55203C26.2629 8.98137 26.7749 10.72 26.7749 12.768C26.7749 14.816 26.2629 16.5654 25.2389 18.016C24.2362 19.4667 22.7855 20.576 20.8869 21.344C18.9882 22.0907 16.7162 22.464 14.0709 22.464C14.0282 22.464 13.9535 22.464 13.8469 22.464C13.7615 22.464 13.6655 22.464 13.5589 22.464C13.4735 22.464 13.4202 22.464 13.3989 22.464ZM13.6549 20.608C13.6975 20.608 13.7402 20.608 13.7829 20.608C13.8255 20.608 13.8575 20.608 13.8789 20.608C16.1189 20.5867 18.0282 20.2774 19.6069 19.68C21.2069 19.0614 22.4229 18.176 23.2549 17.024C24.0869 15.8507 24.5029 14.432 24.5029 12.768C24.5029 11.0827 24.0762 9.66403 23.2229 8.51203C22.3909 7.36003 21.1855 6.48536 19.6069 5.88803C18.0495 5.26936 16.1615 4.96003 13.9429 4.96003C13.9215 4.96003 13.8789 4.96003 13.8149 4.96003C13.7509 4.96003 13.6975 4.96003 13.6549 4.96003C11.3935 4.96003 9.46286 5.2587 7.86286 5.85603C6.26286 6.45336 5.03619 7.3387 4.18286 8.51203C3.32953 9.66403 2.90286 11.0827 2.90286 12.768C2.90286 14.4747 3.32953 15.9147 4.18286 17.088C5.05753 18.24 6.29486 19.1147 7.89486 19.712C9.51619 20.3094 11.4362 20.608 13.6549 20.608ZM12.5989 24.768V0.832031H14.8069V24.768H12.5989Z" fill="#163C51"/>
</svg>
