<svg width="99" height="25" viewBox="0 0 99 25" fill="none" xmlns="http://www.w3.org/2000/svg">
<path opacity="0.7" d="M83.5586 24.0031V7.20312H85.8306V14.6271H96.4226V7.20312H98.6946V24.0031H96.4226V16.5791H85.8306V24.0031H83.5586Z" fill="#163C51"/>
<path opacity="0.7" d="M70.128 24.163C68.5066 24.163 67.0453 23.8003 65.744 23.075C64.464 22.3283 63.4507 21.315 62.704 20.035C61.9573 18.7336 61.584 17.251 61.584 15.587C61.584 13.9016 61.9573 12.419 62.704 11.139C63.4507 9.85897 64.464 8.8563 65.744 8.13097C67.024 7.40564 68.4853 7.04297 70.128 7.04297C71.792 7.04297 73.264 7.40564 74.544 8.13097C75.8453 8.8563 76.8587 9.85897 77.584 11.139C78.3307 12.419 78.704 13.9016 78.704 15.587C78.704 17.251 78.3307 18.7336 77.584 20.035C76.8587 21.315 75.8453 22.3283 74.544 23.075C73.2427 23.8003 71.7706 24.163 70.128 24.163ZM70.128 22.147C71.344 22.147 72.4213 21.8803 73.36 21.347C74.2987 20.7923 75.0347 20.0243 75.568 19.043C76.1227 18.0403 76.4 16.8883 76.4 15.587C76.4 14.2643 76.1227 13.1123 75.568 12.131C75.0347 11.1496 74.2987 10.3923 73.36 9.85897C72.4213 9.3043 71.3547 9.02697 70.16 9.02697C68.9653 9.02697 67.8987 9.3043 66.96 9.85897C66.0213 10.3923 65.2747 11.1496 64.72 12.131C64.1653 13.1123 63.888 14.2643 63.888 15.587C63.888 16.8883 64.1653 18.0403 64.72 19.043C65.2747 20.0243 66.0213 20.7923 66.96 21.347C67.8987 21.8803 68.9547 22.147 70.128 22.147Z" fill="#163C51"/>
<path opacity="0.7" d="M41.1836 24.0014V7.20137H43.4556V20.5454L54.6876 7.20137H56.7036V24.0014H54.4316V10.6254L43.2316 24.0014H41.1836ZM48.7996 4.76937C47.3916 4.76937 46.2503 4.41737 45.3756 3.71338C44.5223 2.98804 44.0743 1.95337 44.0316 0.609375H45.6636C45.6849 1.46271 45.9836 2.13471 46.5596 2.62537C47.1356 3.11604 47.8823 3.36137 48.7996 3.36137C49.7169 3.36137 50.4636 3.11604 51.0396 2.62537C51.6369 2.13471 51.9463 1.46271 51.9676 0.609375H53.5996C53.5783 1.95337 53.1303 2.98804 52.2556 3.71338C51.3809 4.41737 50.2289 4.76937 48.7996 4.76937Z" fill="#163C51"/>
<path opacity="0.7" d="M32.9594 24.003V20.291L32.8634 19.683V13.475C32.8634 12.0456 32.4581 10.947 31.6474 10.179C30.8581 9.41097 29.6741 9.02697 28.0954 9.02697C27.0074 9.02697 25.9728 9.2083 24.9914 9.57097C24.0101 9.93364 23.1781 10.4136 22.4954 11.011L21.4714 9.31497C22.3248 8.58964 23.3488 8.03497 24.5434 7.65097C25.7381 7.24564 26.9968 7.04297 28.3194 7.04297C30.4954 7.04297 32.1701 7.58697 33.3434 8.67497C34.5381 9.74164 35.1354 11.3736 35.1354 13.571V24.003H32.9594ZM27.1674 24.163C25.9088 24.163 24.8101 23.9603 23.8714 23.555C22.9541 23.1283 22.2501 22.5523 21.7594 21.827C21.2688 21.0803 21.0234 20.227 21.0234 19.267C21.0234 18.3923 21.2261 17.603 21.6314 16.899C22.0581 16.1736 22.7408 15.5976 23.6794 15.171C24.6394 14.723 25.9194 14.499 27.5194 14.499H33.3114V16.195H27.5834C25.9621 16.195 24.8314 16.483 24.1914 17.059C23.5728 17.635 23.2634 18.3496 23.2634 19.203C23.2634 20.163 23.6368 20.931 24.3834 21.507C25.1301 22.083 26.1754 22.371 27.5194 22.371C28.7994 22.371 29.8981 22.083 30.8154 21.507C31.7541 20.9096 32.4368 20.0563 32.8634 18.947L33.3754 20.515C32.9488 21.6243 32.2021 22.5096 31.1354 23.171C30.0901 23.8323 28.7674 24.163 27.1674 24.163Z" fill="#163C51"/>
<path opacity="0.7" d="M0.853516 24.0016V1.60156H9.23752C11.1362 1.60156 12.7682 1.9109 14.1335 2.52956C15.4988 3.1269 16.5442 4.00156 17.2695 5.15356C18.0162 6.28423 18.3895 7.66023 18.3895 9.28156C18.3895 10.8602 18.0162 12.2256 17.2695 13.3776C16.5442 14.5082 15.4988 15.3829 14.1335 16.0016C12.7682 16.6202 11.1362 16.9296 9.23752 16.9296H2.16552L3.22152 15.8096V24.0016H0.853516ZM3.22152 16.0016L2.16552 14.8496H9.17352C11.4135 14.8496 13.1095 14.3696 14.2615 13.4096C15.4348 12.4282 16.0215 11.0522 16.0215 9.28156C16.0215 7.48956 15.4348 6.1029 14.2615 5.12156C13.1095 4.14023 11.4135 3.64956 9.17352 3.64956H2.16552L3.22152 2.52956V16.0016Z" fill="#163C51"/>
</svg>
