<svg width="267" height="23" viewBox="0 0 267 23" fill="none" xmlns="http://www.w3.org/2000/svg">
<path d="M263.057 18.0018V13.7058L263.585 14.3058H260.009C258.153 14.3058 256.697 13.9218 255.641 13.1538C254.585 12.3858 254.057 11.2818 254.057 9.84184C254.057 8.30584 254.609 7.12984 255.713 6.31384C256.833 5.49784 258.337 5.08984 260.225 5.08984H266.393V18.0018H263.057ZM253.865 18.0018L257.297 13.0818H261.113L257.849 18.0018H253.865ZM263.057 12.5538V7.17784L263.585 8.13784H260.297C259.529 8.13784 258.929 8.28185 258.497 8.56985C258.081 8.85784 257.873 9.32184 257.873 9.96184C257.873 11.1938 258.665 11.8098 260.249 11.8098H263.585L263.057 12.5538Z" fill="white"/>
<path d="M247.167 18.1944C245.775 18.1944 244.535 17.9144 243.447 17.3544C242.359 16.7784 241.503 15.9864 240.879 14.9784C240.271 13.9704 239.967 12.8264 239.967 11.5464C239.967 10.2504 240.271 9.10644 240.879 8.11444C241.503 7.10644 242.359 6.32244 243.447 5.76244C244.535 5.18644 245.775 4.89844 247.167 4.89844C248.527 4.89844 249.711 5.18644 250.719 5.76244C251.727 6.32244 252.471 7.13044 252.951 8.18644L250.047 9.74644C249.711 9.13844 249.287 8.69044 248.775 8.40244C248.279 8.11444 247.735 7.97044 247.143 7.97044C246.503 7.97044 245.927 8.11444 245.415 8.40244C244.903 8.69044 244.495 9.09844 244.191 9.62644C243.903 10.1544 243.759 10.7944 243.759 11.5464C243.759 12.2984 243.903 12.9384 244.191 13.4664C244.495 13.9944 244.903 14.4024 245.415 14.6904C245.927 14.9784 246.503 15.1224 247.143 15.1224C247.735 15.1224 248.279 14.9864 248.775 14.7144C249.287 14.4264 249.711 13.9704 250.047 13.3464L252.951 14.9304C252.471 15.9704 251.727 16.7784 250.719 17.3544C249.711 17.9144 248.527 18.1944 247.167 18.1944Z" fill="white"/>
<path d="M233.476 9.21784C235.172 9.23384 236.46 9.61784 237.34 10.3698C238.236 11.1058 238.684 12.1538 238.684 13.5138C238.684 14.9378 238.18 16.0498 237.172 16.8498C236.164 17.6338 234.764 18.0258 232.972 18.0258L226.492 18.0018V5.08984H230.212V9.21784H233.476ZM232.636 15.3618C233.356 15.3778 233.908 15.2258 234.292 14.9058C234.676 14.5858 234.868 14.1058 234.868 13.4658C234.868 12.8258 234.676 12.3698 234.292 12.0978C233.908 11.8098 233.356 11.6578 232.636 11.6418L230.212 11.6178V15.3618H232.636Z" fill="white"/>
<path d="M216.407 18.0018V7.29784L217.247 8.16184H212.039V5.08984H224.495V8.16184H219.287L220.127 7.29784V18.0018H216.407Z" fill="white"/>
<path d="M206.891 18.0024V15.4824L206.651 14.9304V10.4184C206.651 9.61844 206.403 8.99444 205.907 8.54644C205.427 8.09844 204.683 7.87444 203.675 7.87444C202.987 7.87444 202.307 7.98644 201.635 8.21044C200.979 8.41844 200.419 8.70644 199.955 9.07444L198.611 6.45844C199.315 5.96244 200.163 5.57844 201.155 5.30644C202.147 5.03444 203.155 4.89844 204.179 4.89844C206.147 4.89844 207.675 5.36244 208.763 6.29044C209.851 7.21844 210.395 8.66644 210.395 10.6344V18.0024H206.891ZM202.955 18.1944C201.947 18.1944 201.083 18.0264 200.363 17.6904C199.643 17.3384 199.091 16.8664 198.707 16.2744C198.323 15.6824 198.131 15.0184 198.131 14.2824C198.131 13.5144 198.315 12.8424 198.683 12.2664C199.067 11.6904 199.667 11.2424 200.483 10.9224C201.299 10.5864 202.363 10.4184 203.675 10.4184H207.107V12.6024H204.083C203.203 12.6024 202.595 12.7464 202.259 13.0344C201.939 13.3224 201.779 13.6824 201.779 14.1144C201.779 14.5944 201.963 14.9784 202.331 15.2664C202.715 15.5384 203.235 15.6744 203.891 15.6744C204.515 15.6744 205.075 15.5304 205.571 15.2424C206.067 14.9384 206.427 14.4984 206.651 13.9224L207.227 15.6504C206.955 16.4824 206.459 17.1144 205.739 17.5464C205.019 17.9784 204.091 18.1944 202.955 18.1944Z" fill="white"/>
<path d="M184.234 18.0018V5.08984H190.834C192.45 5.08984 193.714 5.38584 194.626 5.97784C195.538 6.55384 195.994 7.36984 195.994 8.42584C195.994 9.48184 195.562 10.3138 194.698 10.9218C193.85 11.5138 192.722 11.8098 191.314 11.8098L191.698 10.9458C193.266 10.9458 194.434 11.2338 195.202 11.8098C195.986 12.3858 196.378 13.2258 196.378 14.3298C196.378 15.4658 195.946 16.3618 195.082 17.0178C194.218 17.6738 192.898 18.0018 191.122 18.0018H184.234ZM187.666 15.4578H190.81C191.498 15.4578 192.01 15.3458 192.346 15.1218C192.698 14.8818 192.874 14.5218 192.874 14.0418C192.874 13.5458 192.714 13.1858 192.394 12.9618C192.074 12.7218 191.57 12.6018 190.882 12.6018H187.666V15.4578ZM187.666 10.3938H190.498C191.154 10.3938 191.642 10.2738 191.962 10.0338C192.298 9.79384 192.466 9.44984 192.466 9.00184C192.466 8.53784 192.298 8.19384 191.962 7.96984C191.642 7.74584 191.154 7.63384 190.498 7.63384H187.666V10.3938Z" fill="white"/>
<path d="M174.579 18.1944C173.203 18.1944 171.979 17.9064 170.907 17.3304C169.851 16.7544 169.011 15.9704 168.387 14.9784C167.779 13.9704 167.475 12.8264 167.475 11.5464C167.475 10.2504 167.779 9.10644 168.387 8.11444C169.011 7.10644 169.851 6.32244 170.907 5.76244C171.979 5.18644 173.203 4.89844 174.579 4.89844C175.939 4.89844 177.155 5.18644 178.227 5.76244C179.299 6.32244 180.139 7.09844 180.747 8.09044C181.355 9.08244 181.659 10.2344 181.659 11.5464C181.659 12.8264 181.355 13.9704 180.747 14.9784C180.139 15.9704 179.299 16.7544 178.227 17.3304C177.155 17.9064 175.939 18.1944 174.579 18.1944ZM174.579 15.1224C175.203 15.1224 175.763 14.9784 176.259 14.6904C176.755 14.4024 177.147 13.9944 177.435 13.4664C177.723 12.9224 177.867 12.2824 177.867 11.5464C177.867 10.7944 177.723 10.1544 177.435 9.62644C177.147 9.09844 176.755 8.69044 176.259 8.40244C175.763 8.11444 175.203 7.97044 174.579 7.97044C173.955 7.97044 173.395 8.11444 172.899 8.40244C172.403 8.69044 172.003 9.09844 171.699 9.62644C171.411 10.1544 171.267 10.7944 171.267 11.5464C171.267 12.2824 171.411 12.9224 171.699 13.4664C172.003 13.9944 172.403 14.4024 172.899 14.6904C173.395 14.9784 173.955 15.1224 174.579 15.1224Z" fill="white"/>
<path d="M159.474 18.1944C158.386 18.1944 157.434 17.9544 156.618 17.4744C155.802 16.9944 155.162 16.2664 154.698 15.2904C154.25 14.2984 154.026 13.0504 154.026 11.5464C154.026 10.0264 154.242 8.77844 154.674 7.80244C155.106 6.82644 155.73 6.09844 156.546 5.61844C157.362 5.13844 158.338 4.89844 159.474 4.89844C160.69 4.89844 161.778 5.17844 162.738 5.73844C163.714 6.28244 164.482 7.05044 165.042 8.04244C165.618 9.03444 165.906 10.2024 165.906 11.5464C165.906 12.9064 165.618 14.0824 165.042 15.0744C164.482 16.0664 163.714 16.8344 162.738 17.3784C161.778 17.9224 160.69 18.1944 159.474 18.1944ZM151.842 22.6584V5.09044H155.418V7.73044L155.346 11.5704L155.586 15.3864V22.6584H151.842ZM158.826 15.1224C159.45 15.1224 160.002 14.9784 160.482 14.6904C160.978 14.4024 161.37 13.9944 161.658 13.4664C161.962 12.9224 162.114 12.2824 162.114 11.5464C162.114 10.7944 161.962 10.1544 161.658 9.62644C161.37 9.09844 160.978 8.69044 160.482 8.40244C160.002 8.11444 159.45 7.97044 158.826 7.97044C158.202 7.97044 157.642 8.11444 157.146 8.40244C156.65 8.69044 156.258 9.09844 155.97 9.62644C155.682 10.1544 155.538 10.7944 155.538 11.5464C155.538 12.2824 155.682 12.9224 155.97 13.4664C156.258 13.9944 156.65 14.4024 157.146 14.6904C157.642 14.9784 158.202 15.1224 158.826 15.1224Z" fill="white"/>
<path d="M134.828 18.0018V5.08984H138.548V12.7698L144.836 5.08984H148.268V18.0018H144.548V10.3218L138.284 18.0018H134.828Z" fill="white"/>
<path d="M125.771 18.1944C124.683 18.1944 123.731 17.9544 122.915 17.4744C122.099 16.9944 121.459 16.2664 120.995 15.2904C120.547 14.2984 120.323 13.0504 120.323 11.5464C120.323 10.0264 120.539 8.77844 120.971 7.80244C121.403 6.82644 122.027 6.09844 122.843 5.61844C123.659 5.13844 124.635 4.89844 125.771 4.89844C126.987 4.89844 128.075 5.17844 129.035 5.73844C130.011 6.28244 130.779 7.05044 131.339 8.04244C131.915 9.03444 132.203 10.2024 132.203 11.5464C132.203 12.9064 131.915 14.0824 131.339 15.0744C130.779 16.0664 130.011 16.8344 129.035 17.3784C128.075 17.9224 126.987 18.1944 125.771 18.1944ZM118.139 22.6584V5.09044H121.715V7.73044L121.643 11.5704L121.883 15.3864V22.6584H118.139ZM125.123 15.1224C125.747 15.1224 126.299 14.9784 126.779 14.6904C127.275 14.4024 127.667 13.9944 127.955 13.4664C128.259 12.9224 128.411 12.2824 128.411 11.5464C128.411 10.7944 128.259 10.1544 127.955 9.62644C127.667 9.09844 127.275 8.69044 126.779 8.40244C126.299 8.11444 125.747 7.97044 125.123 7.97044C124.499 7.97044 123.939 8.11444 123.443 8.40244C122.947 8.69044 122.555 9.09844 122.267 9.62644C121.979 10.1544 121.835 10.7944 121.835 11.5464C121.835 12.2824 121.979 12.9224 122.267 13.4664C122.555 13.9944 122.947 14.4024 123.443 14.6904C123.939 14.9784 124.499 15.1224 125.123 15.1224Z" fill="white"/>
<path d="M108.079 18.0018V7.29784L108.919 8.16184H103.711V5.08984H116.167V8.16184H110.959L111.799 7.29784V18.0018H108.079Z" fill="white"/>
<path d="M97.284 18.1944C95.892 18.1944 94.652 17.9144 93.564 17.3544C92.476 16.7784 91.62 15.9864 90.996 14.9784C90.388 13.9704 90.084 12.8264 90.084 11.5464C90.084 10.2504 90.388 9.10644 90.996 8.11444C91.62 7.10644 92.476 6.32244 93.564 5.76244C94.652 5.18644 95.892 4.89844 97.284 4.89844C98.644 4.89844 99.828 5.18644 100.836 5.76244C101.844 6.32244 102.588 7.13044 103.068 8.18644L100.164 9.74644C99.828 9.13844 99.404 8.69044 98.892 8.40244C98.396 8.11444 97.852 7.97044 97.26 7.97044C96.62 7.97044 96.044 8.11444 95.532 8.40244C95.02 8.69044 94.612 9.09844 94.308 9.62644C94.02 10.1544 93.876 10.7944 93.876 11.5464C93.876 12.2984 94.02 12.9384 94.308 13.4664C94.612 13.9944 95.02 14.4024 95.532 14.6904C96.044 14.9784 96.62 15.1224 97.26 15.1224C97.852 15.1224 98.396 14.9864 98.892 14.7144C99.404 14.4264 99.828 13.9704 100.164 13.3464L103.068 14.9304C102.588 15.9704 101.844 16.7784 100.836 17.3544C99.828 17.9144 98.644 18.1944 97.284 18.1944Z" fill="white"/>
<path d="M82.0301 18.1944C80.5581 18.1944 79.2621 17.9064 78.1421 17.3304C77.0381 16.7544 76.1821 15.9704 75.5741 14.9784C74.9661 13.9704 74.6621 12.8264 74.6621 11.5464C74.6621 10.2504 74.9581 9.10644 75.5501 8.11444C76.1581 7.10644 76.9821 6.32244 78.0221 5.76244C79.0621 5.18644 80.2381 4.89844 81.5501 4.89844C82.8141 4.89844 83.9501 5.17044 84.9581 5.71444C85.9821 6.24244 86.7901 7.01044 87.3821 8.01844C87.9741 9.01044 88.2701 10.2024 88.2701 11.5944C88.2701 11.7384 88.2621 11.9064 88.2461 12.0984C88.2301 12.2744 88.2141 12.4424 88.1981 12.6024H77.7101V10.4184H86.2301L84.7901 11.0664C84.7901 10.3944 84.6541 9.81044 84.3821 9.31444C84.1101 8.81844 83.7341 8.43444 83.2541 8.16244C82.7741 7.87444 82.2141 7.73044 81.5741 7.73044C80.9341 7.73044 80.3661 7.87444 79.8701 8.16244C79.3901 8.43444 79.0141 8.82644 78.7421 9.33844C78.4701 9.83444 78.3341 10.4264 78.3341 11.1144V11.6904C78.3341 12.3944 78.4861 13.0184 78.7901 13.5624C79.1101 14.0904 79.5501 14.4984 80.1101 14.7864C80.6861 15.0584 81.3581 15.1944 82.1261 15.1944C82.8141 15.1944 83.4141 15.0904 83.9261 14.8824C84.4541 14.6744 84.9341 14.3624 85.3661 13.9464L87.3581 16.1064C86.7661 16.7784 86.0221 17.2984 85.1261 17.6664C84.2301 18.0184 83.1981 18.1944 82.0301 18.1944Z" fill="white"/>
<path d="M63.9297 18.0018V5.08984H74.2737V8.16184H66.8097L67.6497 7.34584V18.0018H63.9297Z" fill="white"/>
<path d="M54.8192 18.1944C53.3472 18.1944 52.0512 17.9064 50.9312 17.3304C49.8272 16.7544 48.9712 15.9704 48.3632 14.9784C47.7552 13.9704 47.4512 12.8264 47.4512 11.5464C47.4512 10.2504 47.7472 9.10644 48.3392 8.11444C48.9472 7.10644 49.7712 6.32244 50.8112 5.76244C51.8512 5.18644 53.0272 4.89844 54.3392 4.89844C55.6032 4.89844 56.7392 5.17044 57.7472 5.71444C58.7712 6.24244 59.5792 7.01044 60.1712 8.01844C60.7632 9.01044 61.0592 10.2024 61.0592 11.5944C61.0592 11.7384 61.0512 11.9064 61.0352 12.0984C61.0192 12.2744 61.0032 12.4424 60.9872 12.6024H50.4992V10.4184H59.0192L57.5792 11.0664C57.5792 10.3944 57.4432 9.81044 57.1712 9.31444C56.8992 8.81844 56.5232 8.43444 56.0432 8.16244C55.5632 7.87444 55.0032 7.73044 54.3632 7.73044C53.7232 7.73044 53.1552 7.87444 52.6592 8.16244C52.1792 8.43444 51.8032 8.82644 51.5312 9.33844C51.2592 9.83444 51.1232 10.4264 51.1232 11.1144V11.6904C51.1232 12.3944 51.2752 13.0184 51.5792 13.5624C51.8992 14.0904 52.3392 14.4984 52.8992 14.7864C53.4752 15.0584 54.1472 15.1944 54.9152 15.1944C55.6032 15.1944 56.2032 15.0904 56.7152 14.8824C57.2432 14.6744 57.7232 14.3624 58.1552 13.9464L60.1472 16.1064C59.5552 16.7784 58.8112 17.2984 57.9152 17.6664C57.0192 18.0184 55.9872 18.1944 54.8192 18.1944Z" fill="white"/>
<path d="M39.4504 18.1944C38.3624 18.1944 37.4104 17.9544 36.5944 17.4744C35.7784 16.9944 35.1384 16.2664 34.6744 15.2904C34.2264 14.2984 34.0024 13.0504 34.0024 11.5464C34.0024 10.0264 34.2184 8.77844 34.6504 7.80244C35.0824 6.82644 35.7064 6.09844 36.5224 5.61844C37.3384 5.13844 38.3144 4.89844 39.4504 4.89844C40.6664 4.89844 41.7544 5.17844 42.7144 5.73844C43.6904 6.28244 44.4584 7.05044 45.0184 8.04244C45.5944 9.03444 45.8824 10.2024 45.8824 11.5464C45.8824 12.9064 45.5944 14.0824 45.0184 15.0744C44.4584 16.0664 43.6904 16.8344 42.7144 17.3784C41.7544 17.9224 40.6664 18.1944 39.4504 18.1944ZM31.8184 22.6584V5.09044H35.3944V7.73044L35.3224 11.5704L35.5624 15.3864V22.6584H31.8184ZM38.8024 15.1224C39.4264 15.1224 39.9784 14.9784 40.4584 14.6904C40.9544 14.4024 41.3464 13.9944 41.6344 13.4664C41.9384 12.9224 42.0904 12.2824 42.0904 11.5464C42.0904 10.7944 41.9384 10.1544 41.6344 9.62644C41.3464 9.09844 40.9544 8.69044 40.4584 8.40244C39.9784 8.11444 39.4264 7.97044 38.8024 7.97044C38.1784 7.97044 37.6184 8.11444 37.1224 8.40244C36.6264 8.69044 36.2344 9.09844 35.9464 9.62644C35.6584 10.1544 35.5144 10.7944 35.5144 11.5464C35.5144 12.2824 35.6584 12.9224 35.9464 13.4664C36.2344 13.9944 36.6264 14.4024 37.1224 14.6904C37.6184 14.9784 38.1784 15.1224 38.8024 15.1224Z" fill="white"/>
<path d="M25.0862 18.0024V15.4824L24.8462 14.9304V10.4184C24.8462 9.61844 24.5982 8.99444 24.1022 8.54644C23.6222 8.09844 22.8782 7.87444 21.8702 7.87444C21.1822 7.87444 20.5022 7.98644 19.8302 8.21044C19.1742 8.41844 18.6142 8.70644 18.1502 9.07444L16.8062 6.45844C17.5102 5.96244 18.3582 5.57844 19.3502 5.30644C20.3422 5.03444 21.3502 4.89844 22.3742 4.89844C24.3422 4.89844 25.8702 5.36244 26.9582 6.29044C28.0462 7.21844 28.5902 8.66644 28.5902 10.6344V18.0024H25.0862ZM21.1502 18.1944C20.1422 18.1944 19.2782 18.0264 18.5582 17.6904C17.8382 17.3384 17.2862 16.8664 16.9022 16.2744C16.5182 15.6824 16.3262 15.0184 16.3262 14.2824C16.3262 13.5144 16.5102 12.8424 16.8782 12.2664C17.2622 11.6904 17.8622 11.2424 18.6782 10.9224C19.4942 10.5864 20.5582 10.4184 21.8702 10.4184H25.3022V12.6024H22.2782C21.3982 12.6024 20.7902 12.7464 20.4542 13.0344C20.1342 13.3224 19.9742 13.6824 19.9742 14.1144C19.9742 14.5944 20.1582 14.9784 20.5262 15.2664C20.9102 15.5384 21.4302 15.6744 22.0862 15.6744C22.7102 15.6744 23.2702 15.5304 23.7662 15.2424C24.2622 14.9384 24.6222 14.4984 24.8462 13.9224L25.4222 15.6504C25.1502 16.4824 24.6542 17.1144 23.9342 17.5464C23.2142 17.9784 22.2862 18.1944 21.1502 18.1944Z" fill="white"/>
<path d="M0.384766 16.5137L1.58477 13.7297C2.30477 14.1617 3.07277 14.4977 3.88877 14.7377C4.72077 14.9617 5.52877 15.0897 6.31277 15.1217C7.11277 15.1377 7.83277 15.0577 8.47277 14.8817C9.12877 14.7057 9.64877 14.4417 10.0328 14.0897C10.4328 13.7377 10.6328 13.2897 10.6328 12.7457C10.6328 12.1057 10.3688 11.6337 9.84077 11.3297C9.31277 11.0097 8.60877 10.8497 7.72877 10.8497H3.62477V7.92169H7.44077C8.22477 7.92169 8.83277 7.76169 9.26477 7.44169C9.71277 7.12169 9.93677 6.68169 9.93677 6.12169C9.93677 5.64169 9.77677 5.25769 9.45677 4.96969C9.13677 4.66569 8.69677 4.44169 8.13677 4.29769C7.59277 4.15369 6.97677 4.08969 6.28877 4.10569C5.60077 4.12169 4.88877 4.23369 4.15277 4.44169C3.41677 4.64969 2.71277 4.93769 2.04077 5.30569L0.864766 2.30569C1.95277 1.74569 3.09677 1.36169 4.29677 1.15369C5.51277 0.929687 6.68077 0.873688 7.80077 0.985687C8.93677 1.08169 9.96077 1.33769 10.8728 1.75369C11.7848 2.15369 12.5128 2.68169 13.0568 3.33769C13.6008 3.99369 13.8728 4.76969 13.8728 5.66569C13.8728 6.46569 13.6648 7.17769 13.2488 7.80169C12.8328 8.42569 12.2488 8.90569 11.4968 9.24169C10.7608 9.57769 9.91277 9.74569 8.95277 9.74569L9.04877 8.88169C10.1688 8.88169 11.1368 9.07369 11.9528 9.45769C12.7848 9.82569 13.4248 10.3457 13.8728 11.0177C14.3368 11.6737 14.5688 12.4337 14.5688 13.2977C14.5688 14.0977 14.3528 14.8177 13.9208 15.4577C13.5048 16.0817 12.9288 16.6097 12.1928 17.0417C11.4568 17.4737 10.6168 17.7937 9.67277 18.0017C8.72877 18.2097 7.72077 18.2977 6.64877 18.2657C5.59277 18.2337 4.52877 18.0817 3.45677 17.8097C2.38477 17.5217 1.36077 17.0897 0.384766 16.5137Z" fill="white"/>
</svg>
