<svg width="187" height="30" viewBox="0 0 187 30" fill="none" xmlns="http://www.w3.org/2000/svg">
<path d="M177.84 23.163C176.389 23.163 175.077 22.8323 173.904 22.171C172.731 21.4883 171.792 20.5176 171.088 19.259C170.405 17.979 170.064 16.4216 170.064 14.587C170.064 12.7523 170.405 11.2056 171.088 9.94697C171.771 8.66697 172.699 7.6963 173.872 7.03497C175.045 6.37364 176.368 6.04297 177.84 6.04297C179.44 6.04297 180.869 6.40564 182.128 7.13097C183.408 7.83497 184.411 8.83764 185.136 10.139C185.861 11.419 186.224 12.9016 186.224 14.587C186.224 16.2936 185.861 17.787 185.136 19.067C184.411 20.347 183.408 21.3496 182.128 22.075C180.869 22.8003 179.44 23.163 177.84 23.163ZM169.168 29.211V6.20297H171.344V11.259L171.12 14.619L171.44 18.011V29.211H169.168ZM177.68 21.147C178.875 21.147 179.941 20.8803 180.88 20.347C181.819 19.7923 182.565 19.0243 183.12 18.043C183.675 17.0403 183.952 15.8883 183.952 14.587C183.952 13.2856 183.675 12.1443 183.12 11.163C182.565 10.1816 181.819 9.41364 180.88 8.85897C179.941 8.3043 178.875 8.02697 177.68 8.02697C176.485 8.02697 175.408 8.3043 174.448 8.85897C173.509 9.41364 172.763 10.1816 172.208 11.163C171.675 12.1443 171.408 13.2856 171.408 14.587C171.408 15.8883 171.675 17.0403 172.208 18.043C172.763 19.0243 173.509 19.7923 174.448 20.347C175.408 20.8803 176.485 21.147 177.68 21.147Z" fill="#5C7786"/>
<path d="M156.588 23.163C154.839 23.163 153.303 22.8003 151.98 22.075C150.657 21.3283 149.623 20.315 148.876 19.035C148.129 17.7336 147.756 16.251 147.756 14.587C147.756 12.923 148.108 11.451 148.812 10.171C149.537 8.89097 150.519 7.8883 151.756 7.16297C153.015 6.4163 154.423 6.04297 155.98 6.04297C157.559 6.04297 158.956 6.40564 160.172 7.13097C161.409 7.83497 162.38 8.83764 163.084 10.139C163.788 11.419 164.14 12.9016 164.14 14.587C164.14 14.6936 164.129 14.811 164.108 14.939C164.108 15.0456 164.108 15.163 164.108 15.291H149.484V13.595H162.892L161.996 14.267C161.996 13.051 161.729 11.9736 161.196 11.035C160.684 10.075 159.98 9.3283 159.084 8.79497C158.188 8.26164 157.153 7.99497 155.98 7.99497C154.828 7.99497 153.793 8.26164 152.876 8.79497C151.959 9.3283 151.244 10.075 150.732 11.035C150.22 11.995 149.964 13.0936 149.964 14.331V14.683C149.964 15.963 150.241 17.0936 150.796 18.075C151.372 19.035 152.161 19.7923 153.164 20.347C154.188 20.8803 155.351 21.147 156.652 21.147C157.676 21.147 158.625 20.9656 159.5 20.603C160.396 20.2403 161.164 19.6856 161.804 18.939L163.084 20.411C162.337 21.307 161.399 21.9896 160.268 22.459C159.159 22.9283 157.932 23.163 156.588 23.163Z" fill="#5C7786"/>
<path d="M138.243 23.0031V7.57913L138.819 8.18712H131.875V6.20312H146.883V8.18712H139.939L140.515 7.57913V23.0031H138.243Z" fill="#5C7786"/>
<path d="M113.449 23.0031V6.20312H115.721V13.6271H126.313V6.20312H128.585V23.0031H126.313V15.5791H115.721V23.0031H113.449Z" fill="#5C7786"/>
<path d="M100.019 23.163C98.3973 23.163 96.9359 22.8003 95.6346 22.075C94.3546 21.3283 93.3413 20.315 92.5946 19.035C91.8479 17.7336 91.4746 16.251 91.4746 14.587C91.4746 12.9016 91.8479 11.419 92.5946 10.139C93.3413 8.85897 94.3546 7.8563 95.6346 7.13097C96.9146 6.40564 98.3759 6.04297 100.019 6.04297C101.683 6.04297 103.155 6.40564 104.435 7.13097C105.736 7.8563 106.749 8.85897 107.475 10.139C108.221 11.419 108.595 12.9016 108.595 14.587C108.595 16.251 108.221 17.7336 107.475 19.035C106.749 20.315 105.736 21.3283 104.435 22.075C103.133 22.8003 101.661 23.163 100.019 23.163ZM100.019 21.147C101.235 21.147 102.312 20.8803 103.251 20.347C104.189 19.7923 104.925 19.0243 105.459 18.043C106.013 17.0403 106.291 15.8883 106.291 14.587C106.291 13.2643 106.013 12.1123 105.459 11.131C104.925 10.1496 104.189 9.3923 103.251 8.85897C102.312 8.3043 101.245 8.02697 100.051 8.02697C98.8559 8.02697 97.7893 8.3043 96.8506 8.85897C95.9119 9.3923 95.1653 10.1496 94.6106 11.131C94.0559 12.1123 93.7786 13.2643 93.7786 14.587C93.7786 15.8883 94.0559 17.0403 94.6106 18.043C95.1653 19.0243 95.9119 19.7923 96.8506 20.347C97.7893 20.8803 98.8453 21.147 100.019 21.147Z" fill="#5C7786"/>
<path d="M69.8164 22.9711L69.9764 21.0191C70.1257 21.0405 70.2644 21.0725 70.3924 21.1151C70.5417 21.1365 70.6697 21.1471 70.7764 21.1471C71.4591 21.1471 72.0031 20.8911 72.4084 20.3791C72.8351 19.8671 73.1551 19.1845 73.3684 18.3311C73.5817 17.4778 73.7311 16.5178 73.8164 15.4511C73.9017 14.3631 73.9764 13.2751 74.0404 12.1871L74.3284 6.20312H86.6484V23.0031H84.3764V7.51513L84.9524 8.18712H75.8004L76.3444 7.48313L76.0884 12.3471C76.0244 13.7978 75.9071 15.1845 75.7364 16.5071C75.5871 17.8298 75.3417 18.9925 75.0004 19.9951C74.6804 20.9978 74.2324 21.7871 73.6564 22.3631C73.0804 22.9178 72.3444 23.1951 71.4484 23.1951C71.1924 23.1951 70.9257 23.1738 70.6484 23.1311C70.3924 23.0885 70.1151 23.0351 69.8164 22.9711Z" fill="#5C7786"/>
<path d="M59.5499 23.163C57.9285 23.163 56.4672 22.8003 55.1659 22.075C53.8859 21.3283 52.8725 20.315 52.1259 19.035C51.3792 17.7336 51.0059 16.251 51.0059 14.587C51.0059 12.9016 51.3792 11.419 52.1259 10.139C52.8725 8.85897 53.8859 7.8563 55.1659 7.13097C56.4459 6.40564 57.9072 6.04297 59.5499 6.04297C61.2139 6.04297 62.6859 6.40564 63.9659 7.13097C65.2672 7.8563 66.2805 8.85897 67.0059 10.139C67.7525 11.419 68.1259 12.9016 68.1259 14.587C68.1259 16.251 67.7525 17.7336 67.0059 19.035C66.2805 20.315 65.2672 21.3283 63.9659 22.075C62.6645 22.8003 61.1925 23.163 59.5499 23.163ZM59.5499 21.147C60.7659 21.147 61.8432 20.8803 62.7819 20.347C63.7205 19.7923 64.4565 19.0243 64.9899 18.043C65.5445 17.0403 65.8219 15.8883 65.8219 14.587C65.8219 13.2643 65.5445 12.1123 64.9899 11.131C64.4565 10.1496 63.7205 9.3923 62.7819 8.85897C61.8432 8.3043 60.7765 8.02697 59.5819 8.02697C58.3872 8.02697 57.3205 8.3043 56.3819 8.85897C55.4432 9.3923 54.6965 10.1496 54.1419 11.131C53.5872 12.1123 53.3099 13.2643 53.3099 14.587C53.3099 15.8883 53.5872 17.0403 54.1419 18.043C54.6965 19.0243 55.4432 19.7923 56.3819 20.347C57.3205 20.8803 58.3765 21.147 59.5499 21.147Z" fill="#5C7786"/>
<path d="M33.168 23.0031V6.20312H40.592C42.4906 6.20312 43.984 6.56579 45.072 7.29113C46.1813 8.01646 46.736 9.08313 46.736 10.4911C46.736 11.8565 46.2133 12.9125 45.168 13.6591C44.1226 14.3845 42.7466 14.7471 41.04 14.7471L41.488 14.0751C43.4933 14.0751 44.9653 14.4485 45.904 15.1951C46.8426 15.9418 47.312 17.0191 47.312 18.4271C47.312 19.8778 46.7786 21.0085 45.712 21.8191C44.6666 22.6085 43.0346 23.0031 40.816 23.0031H33.168ZM35.376 21.2111H40.72C42.1493 21.2111 43.2266 20.9871 43.952 20.5391C44.6986 20.0698 45.072 19.3231 45.072 18.2991C45.072 17.2751 44.7413 16.5285 44.08 16.0591C43.4186 15.5898 42.3733 15.3551 40.944 15.3551H35.376V21.2111ZM35.376 13.6591H40.432C41.7333 13.6591 42.7253 13.4138 43.408 12.9231C44.112 12.4325 44.464 11.7178 44.464 10.7791C44.464 9.84046 44.112 9.13646 43.408 8.66713C42.7253 8.19779 41.7333 7.96313 40.432 7.96313H35.376V13.6591Z" fill="#5C7786"/>
<path d="M15.4363 23.0016V15.5776L16.0763 16.2176H8.74833C6.95633 16.2176 5.42033 15.9082 4.14033 15.2896C2.88166 14.6709 1.911 13.7962 1.22833 12.6656C0.566995 11.5136 0.236328 10.1376 0.236328 8.53756C0.236328 6.8309 0.598995 5.3909 1.32433 4.21756C2.04966 3.0229 3.07366 2.1269 4.39633 1.52956C5.74033 0.910896 7.29766 0.601562 9.06833 0.601562H17.7723V23.0016H15.4363ZM0.236328 23.0016L5.74033 15.1296H8.17233L2.76433 23.0016H0.236328ZM15.4363 14.9056V1.97756L16.0763 2.64956H9.16433C7.07366 2.64956 5.45233 3.1509 4.30033 4.15356C3.16966 5.1349 2.60433 6.5749 2.60433 8.47356C2.60433 10.3082 3.13766 11.7269 4.20433 12.7296C5.271 13.7109 6.84966 14.2016 8.94033 14.2016H16.0763L15.4363 14.9056Z" fill="#5C7786"/>
</svg>
