<svg width="336" height="30" viewBox="0 0 336 30" fill="none" xmlns="http://www.w3.org/2000/svg">
<path opacity="0.7" d="M318.338 20.3104L319.202 18.6144C320.183 19.4678 321.282 20.1078 322.498 20.5344C323.735 20.9398 324.973 21.1531 326.21 21.1744C327.447 21.1744 328.578 20.9931 329.602 20.6304C330.647 20.2678 331.49 19.7344 332.13 19.0304C332.77 18.3051 333.09 17.4304 333.09 16.4064C333.09 15.1051 332.567 14.1024 331.522 13.3984C330.498 12.6944 329.069 12.3424 327.234 12.3424H322.434V10.4224H327.106C328.685 10.4224 329.911 10.0918 330.786 9.43044C331.682 8.74777 332.13 7.8091 332.13 6.61444C332.13 5.7611 331.874 5.03577 331.362 4.43844C330.871 3.81977 330.189 3.35044 329.314 3.03044C328.461 2.6891 327.501 2.50777 326.434 2.48644C325.367 2.44377 324.258 2.58244 323.106 2.90244C321.975 3.2011 320.877 3.6811 319.81 4.34244L319.042 2.39044C320.365 1.6011 321.741 1.0571 323.17 0.758437C324.599 0.438437 325.986 0.331771 327.33 0.438437C328.674 0.545104 329.879 0.854437 330.946 1.36644C332.034 1.87844 332.898 2.55044 333.538 3.38244C334.178 4.21444 334.498 5.20644 334.498 6.35844C334.498 7.4251 334.221 8.36377 333.666 9.17444C333.133 9.9851 332.375 10.6144 331.394 11.0624C330.434 11.4891 329.293 11.7024 327.97 11.7024L328.098 10.9984C329.591 10.9984 330.882 11.2331 331.97 11.7024C333.079 12.1718 333.933 12.8438 334.53 13.7184C335.149 14.5718 335.458 15.5744 335.458 16.7264C335.458 17.8144 335.181 18.7851 334.626 19.6384C334.093 20.4704 333.346 21.1744 332.386 21.7504C331.447 22.3051 330.391 22.7104 329.218 22.9664C328.045 23.2011 326.818 23.2651 325.538 23.1584C324.258 23.0518 322.999 22.7744 321.762 22.3264C320.525 21.8571 319.383 21.1851 318.338 20.3104Z" fill="#163C51"/>
<path opacity="0.7" d="M297.025 22.9977V0.597656H306.337C308.705 0.597656 310.561 1.08832 311.905 2.06966C313.271 3.02966 313.953 4.44832 313.953 6.32566C313.953 8.18166 313.303 9.58966 312.001 10.5497C310.7 11.4883 308.993 11.9577 306.881 11.9577L307.425 11.1577C309.921 11.1577 311.82 11.6483 313.121 12.6297C314.423 13.611 315.073 15.051 315.073 16.9497C315.073 18.8697 314.391 20.363 313.025 21.4297C311.681 22.475 309.655 22.9977 306.945 22.9977H297.025ZM299.361 21.1097H306.945C308.844 21.1097 310.284 20.7577 311.265 20.0537C312.247 19.3497 312.737 18.2617 312.737 16.7897C312.737 15.339 312.247 14.2723 311.265 13.5897C310.284 12.907 308.844 12.5657 306.945 12.5657H299.361V21.1097ZM299.361 10.7417H306.209C307.937 10.7417 309.26 10.4003 310.177 9.71766C311.116 9.01366 311.585 7.97899 311.585 6.61366C311.585 5.24832 311.116 4.22432 310.177 3.54166C309.26 2.83766 307.937 2.48566 306.209 2.48566H299.361V10.7417Z" fill="#163C51"/>
<path opacity="0.7" d="M279.631 23.1903C277.946 23.1903 276.378 22.9129 274.927 22.3583C273.498 21.7823 272.25 20.9823 271.183 19.9583C270.138 18.9129 269.317 17.7076 268.719 16.3423C268.143 14.9556 267.855 13.4409 267.855 11.7983C267.855 10.1556 268.143 8.65158 268.719 7.28625C269.317 5.89958 270.138 4.69425 271.183 3.67025C272.25 2.62492 273.498 1.82492 274.927 1.27025C276.357 0.69425 277.925 0.40625 279.631 0.40625C281.317 0.40625 282.874 0.69425 284.303 1.27025C285.733 1.82492 286.97 2.61425 288.015 3.63825C289.082 4.66225 289.903 5.86758 290.479 7.25425C291.077 8.64092 291.375 10.1556 291.375 11.7983C291.375 13.4409 291.077 14.9556 290.479 16.3423C289.903 17.7289 289.082 18.9342 288.015 19.9583C286.97 20.9823 285.733 21.7823 284.303 22.3583C282.874 22.9129 281.317 23.1903 279.631 23.1903ZM279.631 21.0783C280.975 21.0783 282.213 20.8543 283.343 20.4063C284.495 19.9369 285.487 19.2863 286.319 18.4543C287.173 17.6009 287.834 16.6196 288.303 15.5103C288.773 14.3796 289.007 13.1423 289.007 11.7983C289.007 10.4543 288.773 9.22758 288.303 8.11825C287.834 6.98758 287.173 6.00625 286.319 5.17425C285.487 4.32092 284.495 3.67025 283.343 3.22225C282.213 2.75292 280.975 2.51825 279.631 2.51825C278.287 2.51825 277.039 2.75292 275.887 3.22225C274.735 3.67025 273.733 4.32092 272.879 5.17425C272.047 6.00625 271.386 6.98758 270.895 8.11825C270.426 9.22758 270.191 10.4543 270.191 11.7983C270.191 13.1209 270.426 14.3476 270.895 15.4783C271.386 16.6089 272.047 17.6009 272.879 18.4543C273.733 19.2863 274.735 19.9369 275.887 20.4063C277.039 20.8543 278.287 21.0783 279.631 21.0783Z" fill="#163C51"/>
<path opacity="0.7" d="M252.329 22.9992V16.9512L252.745 17.4312H247.049C244.894 17.4312 243.209 16.9619 241.993 16.0232C240.777 15.0846 240.169 13.7192 240.169 11.9272C240.169 10.0072 240.82 8.57789 242.121 7.63922C243.422 6.67922 245.161 6.19922 247.337 6.19922H254.409V22.9992H252.329ZM240.041 22.9992L244.649 16.5352H247.017L242.505 22.9992H240.041ZM252.329 16.2792V7.51122L252.745 8.18322H247.401C245.844 8.18322 244.628 8.48188 243.753 9.07922C242.9 9.67655 242.473 10.6472 242.473 11.9912C242.473 14.4872 244.062 15.7352 247.241 15.7352H252.745L252.329 16.2792Z" fill="#163C51"/>
<path opacity="0.7" d="M219.451 22.9992V6.19922H221.723V19.5432L232.955 6.19922H234.971V22.9992H232.699V9.62322L221.499 22.9992H219.451Z" fill="#163C51"/>
<path opacity="0.7" d="M197.857 22.9992V6.19922H200.129V13.6232H210.721V6.19922H212.993V22.9992H210.721V15.5752H200.129V22.9992H197.857Z" fill="#163C51"/>
<path opacity="0.7" d="M185.275 23.1591C183.526 23.1591 181.99 22.7964 180.667 22.0711C179.345 21.3244 178.31 20.3111 177.563 19.0311C176.817 17.7297 176.443 16.2471 176.443 14.5831C176.443 12.9191 176.795 11.4471 177.499 10.1671C178.225 8.88706 179.206 7.8844 180.443 7.15906C181.702 6.4124 183.11 6.03906 184.667 6.03906C186.246 6.03906 187.643 6.40173 188.859 7.12706C190.097 7.83106 191.067 8.83373 191.771 10.1351C192.475 11.4151 192.827 12.8977 192.827 14.5831C192.827 14.6897 192.817 14.8071 192.795 14.9351C192.795 15.0417 192.795 15.1591 192.795 15.2871H178.171V13.5911H191.579L190.683 14.2631C190.683 13.0471 190.417 11.9697 189.883 11.0311C189.371 10.0711 188.667 9.3244 187.771 8.79106C186.875 8.25773 185.841 7.99106 184.667 7.99106C183.515 7.99106 182.481 8.25773 181.563 8.79106C180.646 9.3244 179.931 10.0711 179.419 11.0311C178.907 11.9911 178.651 13.0897 178.651 14.3271V14.6791C178.651 15.9591 178.929 17.0897 179.483 18.0711C180.059 19.0311 180.849 19.7884 181.851 20.3431C182.875 20.8764 184.038 21.1431 185.339 21.1431C186.363 21.1431 187.313 20.9617 188.187 20.5991C189.083 20.2364 189.851 19.6817 190.491 18.9351L191.771 20.4071C191.025 21.3031 190.086 21.9857 188.955 22.4551C187.846 22.9244 186.619 23.1591 185.275 23.1591Z" fill="#163C51"/>
<path opacity="0.7" d="M164.811 23.1591C163.36 23.1591 162.048 22.8284 160.875 22.1671C159.701 21.4844 158.763 20.5137 158.059 19.2551C157.376 17.9751 157.035 16.4177 157.035 14.5831C157.035 12.7484 157.376 11.2017 158.059 9.94306C158.741 8.66306 159.669 7.6924 160.843 7.03106C162.016 6.36973 163.339 6.03906 164.811 6.03906C166.411 6.03906 167.84 6.40173 169.099 7.12706C170.379 7.83106 171.381 8.83373 172.107 10.1351C172.832 11.4151 173.195 12.8977 173.195 14.5831C173.195 16.2897 172.832 17.7831 172.107 19.0631C171.381 20.3431 170.379 21.3457 169.099 22.0711C167.84 22.7964 166.411 23.1591 164.811 23.1591ZM156.139 29.2071V6.19906H158.315V11.2551L158.091 14.6151L158.411 18.0071V29.2071H156.139ZM164.651 21.1431C165.845 21.1431 166.912 20.8764 167.851 20.3431C168.789 19.7884 169.536 19.0204 170.091 18.0391C170.645 17.0364 170.923 15.8844 170.923 14.5831C170.923 13.2817 170.645 12.1404 170.091 11.1591C169.536 10.1777 168.789 9.40973 167.851 8.85506C166.912 8.3004 165.845 8.02306 164.651 8.02306C163.456 8.02306 162.379 8.3004 161.419 8.85506C160.48 9.40973 159.733 10.1777 159.179 11.1591C158.645 12.1404 158.379 13.2817 158.379 14.5831C158.379 15.8844 158.645 17.0364 159.179 18.0391C159.733 19.0204 160.48 19.7884 161.419 20.3431C162.379 20.8764 163.456 21.1431 164.651 21.1431Z" fill="#163C51"/>
<path opacity="0.7" d="M143.557 23.1591C141.807 23.1591 140.271 22.7964 138.949 22.0711C137.626 21.3244 136.591 20.3111 135.845 19.0311C135.098 17.7297 134.725 16.2471 134.725 14.5831C134.725 12.9191 135.077 11.4471 135.781 10.1671C136.506 8.88706 137.487 7.8844 138.725 7.15906C139.983 6.4124 141.391 6.03906 142.949 6.03906C144.527 6.03906 145.925 6.40173 147.141 7.12706C148.378 7.83106 149.349 8.83373 150.053 10.1351C150.757 11.4151 151.109 12.8977 151.109 14.5831C151.109 14.6897 151.098 14.8071 151.077 14.9351C151.077 15.0417 151.077 15.1591 151.077 15.2871H136.453V13.5911H149.861L148.965 14.2631C148.965 13.0471 148.698 11.9697 148.165 11.0311C147.653 10.0711 146.949 9.3244 146.053 8.79106C145.157 8.25773 144.122 7.99106 142.949 7.99106C141.797 7.99106 140.762 8.25773 139.845 8.79106C138.927 9.3244 138.213 10.0711 137.701 11.0311C137.189 11.9911 136.933 13.0897 136.933 14.3271V14.6791C136.933 15.9591 137.21 17.0897 137.765 18.0711C138.341 19.0311 139.13 19.7884 140.133 20.3431C141.157 20.8764 142.319 21.1431 143.621 21.1431C144.645 21.1431 145.594 20.9617 146.469 20.5991C147.365 20.2364 148.133 19.6817 148.773 18.9351L150.053 20.4071C149.306 21.3031 148.367 21.9857 147.237 22.4551C146.127 22.9244 144.901 23.1591 143.557 23.1591Z" fill="#163C51"/>
<path opacity="0.7" d="M116.889 22.9992V6.19922H124.313C126.211 6.19922 127.705 6.56189 128.793 7.28722C129.902 8.01255 130.457 9.07922 130.457 10.4872C130.457 11.8526 129.934 12.9086 128.889 13.6552C127.843 14.3806 126.467 14.7432 124.761 14.7432L125.209 14.0712C127.214 14.0712 128.686 14.4446 129.625 15.1912C130.563 15.9379 131.033 17.0152 131.033 18.4232C131.033 19.8739 130.499 21.0046 129.433 21.8152C128.387 22.6046 126.755 22.9992 124.537 22.9992H116.889ZM119.097 21.2072H124.441C125.87 21.2072 126.947 20.9832 127.673 20.5352C128.419 20.0659 128.793 19.3192 128.793 18.2952C128.793 17.2712 128.462 16.5246 127.801 16.0552C127.139 15.5859 126.094 15.3512 124.665 15.3512H119.097V21.2072ZM119.097 13.6552H124.153C125.454 13.6552 126.446 13.4099 127.129 12.9192C127.833 12.4286 128.185 11.7139 128.185 10.7752C128.185 9.83655 127.833 9.13255 127.129 8.66322C126.446 8.19389 125.454 7.95922 124.153 7.95922H119.097V13.6552Z" fill="#163C51"/>
<path opacity="0.7" d="M103.456 23.1591C101.835 23.1591 100.373 22.7964 99.0721 22.0711C97.7921 21.3244 96.7788 20.3111 96.0321 19.0311C95.2854 17.7297 94.9121 16.2471 94.9121 14.5831C94.9121 12.8977 95.2854 11.4151 96.0321 10.1351C96.7788 8.85506 97.7921 7.8524 99.0721 7.12706C100.352 6.40173 101.813 6.03906 103.456 6.03906C105.12 6.03906 106.592 6.40173 107.872 7.12706C109.173 7.8524 110.187 8.85506 110.912 10.1351C111.659 11.4151 112.032 12.8977 112.032 14.5831C112.032 16.2471 111.659 17.7297 110.912 19.0311C110.187 20.3111 109.173 21.3244 107.872 22.0711C106.571 22.7964 105.099 23.1591 103.456 23.1591ZM103.456 21.1431C104.672 21.1431 105.749 20.8764 106.688 20.3431C107.627 19.7884 108.363 19.0204 108.896 18.0391C109.451 17.0364 109.728 15.8844 109.728 14.5831C109.728 13.2604 109.451 12.1084 108.896 11.1271C108.363 10.1457 107.627 9.3884 106.688 8.85506C105.749 8.3004 104.683 8.02306 103.488 8.02306C102.293 8.02306 101.227 8.3004 100.288 8.85506C99.3494 9.3884 98.6028 10.1457 98.0481 11.1271C97.4934 12.1084 97.2161 13.2604 97.2161 14.5831C97.2161 15.8844 97.4934 17.0364 98.0481 18.0391C98.6028 19.0204 99.3494 19.7884 100.288 20.3431C101.227 20.8764 102.283 21.1431 103.456 21.1431Z" fill="#163C51"/>
<path opacity="0.7" d="M85.4012 22.9992V7.57522L85.9772 8.18322H79.0332V6.19922H94.0412V8.18322H87.0972L87.6732 7.57522V22.9992H85.4012Z" fill="#163C51"/>
<path opacity="0.7" d="M71.5216 23.1591C69.8576 23.1591 68.3643 22.7964 67.0416 22.0711C65.7403 21.3244 64.7163 20.3111 63.9696 19.0311C63.2229 17.7297 62.8496 16.2471 62.8496 14.5831C62.8496 12.8977 63.2229 11.4151 63.9696 10.1351C64.7163 8.85506 65.7403 7.8524 67.0416 7.12706C68.3643 6.40173 69.8576 6.03906 71.5216 6.03906C72.9509 6.03906 74.2416 6.3164 75.3936 6.87106C76.5456 7.42573 77.4523 8.25773 78.1136 9.36706L76.4176 10.5191C75.8416 9.66573 75.1269 9.0364 74.2736 8.63106C73.4203 8.22573 72.4923 8.02306 71.4896 8.02306C70.2949 8.02306 69.2176 8.3004 68.2576 8.85506C67.2976 9.3884 66.5403 10.1457 65.9856 11.1271C65.4309 12.1084 65.1536 13.2604 65.1536 14.5831C65.1536 15.9057 65.4309 17.0577 65.9856 18.0391C66.5403 19.0204 67.2976 19.7884 68.2576 20.3431C69.2176 20.8764 70.2949 21.1431 71.4896 21.1431C72.4923 21.1431 73.4203 20.9404 74.2736 20.5351C75.1269 20.1297 75.8416 19.5111 76.4176 18.6791L78.1136 19.8311C77.4523 20.9191 76.5456 21.7511 75.3936 22.3271C74.2416 22.8817 72.9509 23.1591 71.5216 23.1591Z" fill="#163C51"/>
<path opacity="0.7" d="M51.0499 23.1591C49.4285 23.1591 47.9672 22.7964 46.6659 22.0711C45.3859 21.3244 44.3725 20.3111 43.6259 19.0311C42.8792 17.7297 42.5059 16.2471 42.5059 14.5831C42.5059 12.8977 42.8792 11.4151 43.6259 10.1351C44.3725 8.85506 45.3859 7.8524 46.6659 7.12706C47.9459 6.40173 49.4072 6.03906 51.0499 6.03906C52.7139 6.03906 54.1859 6.40173 55.4659 7.12706C56.7672 7.8524 57.7805 8.85506 58.5059 10.1351C59.2525 11.4151 59.6259 12.8977 59.6259 14.5831C59.6259 16.2471 59.2525 17.7297 58.5059 19.0311C57.7805 20.3111 56.7672 21.3244 55.4659 22.0711C54.1645 22.7964 52.6925 23.1591 51.0499 23.1591ZM51.0499 21.1431C52.2659 21.1431 53.3432 20.8764 54.2819 20.3431C55.2205 19.7884 55.9565 19.0204 56.4899 18.0391C57.0445 17.0364 57.3219 15.8844 57.3219 14.5831C57.3219 13.2604 57.0445 12.1084 56.4899 11.1271C55.9565 10.1457 55.2205 9.3884 54.2819 8.85506C53.3432 8.3004 52.2765 8.02306 51.0819 8.02306C49.8872 8.02306 48.8205 8.3004 47.8819 8.85506C46.9432 9.3884 46.1965 10.1457 45.6419 11.1271C45.0872 12.1084 44.8099 13.2604 44.8099 14.5831C44.8099 15.8844 45.0872 17.0364 45.6419 18.0391C46.1965 19.0204 46.9432 19.7884 47.8819 20.3431C48.8205 20.8764 49.8765 21.1431 51.0499 21.1431Z" fill="#163C51"/>
<path opacity="0.7" d="M34.8136 21.9112V8.18322H26.7176L26.5256 11.9272C26.4829 13.0579 26.4083 14.1672 26.3016 15.2552C26.2163 16.3432 26.0563 17.3459 25.8216 18.2632C25.6083 19.1592 25.2989 19.8952 24.8936 20.4712C24.4883 21.0259 23.9656 21.3459 23.3256 21.4312L21.0536 21.0152C21.7149 21.0366 22.2589 20.8019 22.6856 20.3112C23.1123 19.7992 23.4429 19.1059 23.6776 18.2312C23.9123 17.3566 24.0829 16.3646 24.1896 15.2552C24.2963 14.1246 24.3816 12.9726 24.4456 11.7992L24.6696 6.19922H37.0856V21.9112H34.8136ZM20.3496 27.0632V21.0152H39.7096V27.0632H37.5656V22.9992H22.4936V27.0632H20.3496Z" fill="#163C51"/>
<path opacity="0.7" d="M2.82938 20.7897C3.91738 21.2163 4.94138 21.323 5.90138 21.1097C6.86138 20.875 7.74671 20.1177 8.55738 18.8377L9.64538 17.1097L9.86938 16.8217L18.4454 0.597656H20.8134L10.6374 19.3497C9.95471 20.651 9.14404 21.6217 8.20538 22.2617C7.28804 22.9017 6.30671 23.243 5.26138 23.2857C4.23738 23.3283 3.20271 23.1363 2.15737 22.7097L2.82938 20.7897ZM9.80538 18.9657L0.109375 0.597656H2.63737L11.0854 17.0137L9.80538 18.9657Z" fill="#163C51"/>
</svg>
