<svg width="97" height="28" viewBox="0 0 97 28" fill="none" xmlns="http://www.w3.org/2000/svg">
<path d="M86.2266 21.1193V11.9633H82.4506L82.4172 13.0994C82.3949 13.8791 82.3503 14.6031 82.2835 15.2715C82.239 15.9398 82.1387 16.5413 81.9828 17.0759C81.8268 17.5883 81.5929 18.045 81.281 18.446C80.9914 18.8247 80.5793 19.1366 80.0446 19.3817L72.6597 18.446C73.2389 18.446 73.7178 18.3012 74.0965 18.0116C74.4753 17.6997 74.7649 17.2764 74.9654 16.7418C75.1881 16.1848 75.3441 15.5499 75.4332 14.8371C75.5446 14.1242 75.6114 13.3556 75.6337 12.5313L75.8676 6.08203H93.7452V21.1193H86.2266ZM72.125 27.9696V18.446H96.1846V27.9696H89.2007V24.3607H79.109V27.9696H72.125Z" fill="white"/>
<path d="M59.2201 24.693C57.1483 24.693 55.3104 24.2921 53.7064 23.4901C52.1247 22.6658 50.8772 21.5408 49.9638 20.115C49.0504 18.6893 48.5938 17.0519 48.5938 15.2029C48.5938 13.3538 49.0504 11.7164 49.9638 10.2907C50.8772 8.86493 52.1247 7.75106 53.7064 6.94907C55.3104 6.14709 57.1483 5.74609 59.2201 5.74609C61.2919 5.74609 63.1298 6.14709 64.7337 6.94907C66.3377 7.75106 67.5853 8.86493 68.4764 10.2907C69.3897 11.7164 69.8464 13.3538 69.8464 15.2029C69.8464 17.0519 69.3897 18.6893 68.4764 20.115C67.5853 21.5408 66.3377 22.6658 64.7337 23.4901C63.1298 24.2921 61.2919 24.693 59.2201 24.693ZM59.2201 18.8118C59.777 18.8118 60.2783 18.6781 60.7238 18.4108C61.1694 18.1435 61.5258 17.7425 61.7931 17.2078C62.0605 16.6509 62.1941 15.9826 62.1941 15.2029C62.1941 14.4009 62.0605 13.7437 61.7931 13.2313C61.5258 12.6967 61.1694 12.2957 60.7238 12.0283C60.2783 11.761 59.777 11.6273 59.2201 11.6273C58.6631 11.6273 58.1619 11.761 57.7164 12.0283C57.2708 12.2957 56.9144 12.6967 56.647 13.2313C56.3797 13.7437 56.246 14.4009 56.246 15.2029C56.246 15.9826 56.3797 16.6509 56.647 17.2078C56.9144 17.7425 57.2708 18.1435 57.7164 18.4108C58.1619 18.6781 58.6631 18.8118 59.2201 18.8118Z" fill="white"/>
<path d="M24.7812 24.3607L33.4026 13.066L33.2021 17.4101L24.9817 6.08203H33.5029L37.5462 12.1304L34.4051 12.3643L38.8494 6.08203H46.7691L38.5153 17.0425V12.8655L46.9362 24.3607H38.2814L34.1044 17.9113L37.2789 18.3458L32.9682 24.3607H24.7812Z" fill="white"/>
<path d="M0.449219 24.3601V0.96875H12.3119C15.208 0.96875 17.4469 1.50341 19.0286 2.57273C20.6326 3.64204 21.4346 5.14577 21.4346 7.0839C21.4346 8.97749 20.6994 10.4812 19.2291 11.5951C17.7588 12.6867 15.7761 13.2325 13.281 13.2325L13.9493 11.428C16.6004 11.428 18.6833 11.9515 20.1982 12.9986C21.713 14.0456 22.4705 15.5716 22.4705 17.5766C22.4705 19.6484 21.6462 21.2969 19.9977 22.5222C18.3491 23.7474 15.9989 24.3601 12.9469 24.3601H0.449219ZM8.20176 18.8464H12.5793C13.2253 18.8464 13.7043 18.6904 14.0162 18.3786C14.3503 18.0444 14.5174 17.5766 14.5174 16.9751C14.5174 16.3736 14.3503 15.928 14.0162 15.6384C13.7043 15.3266 13.2253 15.1706 12.5793 15.1706H8.20176V18.8464ZM8.20176 9.95769H11.5434C12.2117 9.95769 12.7018 9.81289 13.0137 9.52328C13.3256 9.23368 13.4815 8.81041 13.4815 8.25347C13.4815 7.67426 13.3256 7.23985 13.0137 6.95024C12.7018 6.63836 12.2117 6.48241 11.5434 6.48241H8.20176V9.95769Z" fill="white"/>
</svg>
