<svg width="235" height="31" viewBox="0 0 235 31" fill="none" xmlns="http://www.w3.org/2000/svg">
<path d="M229.161 23.549V17.6678L229.996 18.6369H225.385C222.689 18.6369 220.562 18.0911 219.002 16.9995C217.443 15.8856 216.663 14.3039 216.663 12.2544C216.663 10.0712 217.476 8.38926 219.102 7.20856C220.729 6.02785 222.923 5.4375 225.685 5.4375H234.808V23.549H229.161ZM216.362 23.549L221.141 16.6653H227.557L223.079 23.549H216.362ZM229.161 15.7631V8.87936L229.996 10.4499H225.819C224.973 10.4499 224.315 10.617 223.848 10.9512C223.38 11.263 223.146 11.7754 223.146 12.4883C223.146 13.8695 224.026 14.5601 225.786 14.5601H229.996L229.161 15.7631Z" fill="#163C51"/>
<path d="M193.748 23.549V5.4375H200.064V14.9277L207.649 5.4375H213.497V23.549H207.148V14.0254L199.629 23.549H193.748Z" fill="#163C51"/>
<path d="M169.958 23.549V5.4375H176.274V18.4698H182.155V5.4375H188.504V23.549H169.958ZM185.129 27.2917V23.5156L186.532 23.549H182.155V18.4698H191.01V27.2917H185.129Z" fill="#163C51"/>
<path d="M160.224 23.549V20.174L159.789 19.3386V13.1232C159.789 12.1207 159.477 11.3521 158.854 10.8175C158.252 10.2605 157.283 9.98206 155.946 9.98206C155.078 9.98206 154.198 10.1269 153.306 10.4165C152.415 10.6838 151.658 11.0625 151.034 11.5526L148.896 7.24193C149.92 6.57361 151.146 6.06123 152.571 5.70479C154.019 5.32608 155.456 5.13672 156.882 5.13672C159.823 5.13672 162.095 5.81618 163.699 7.1751C165.325 8.51175 166.138 10.617 166.138 13.4908V23.549H160.224ZM154.877 23.8498C153.429 23.8498 152.204 23.6047 151.201 23.1146C150.199 22.6245 149.43 21.9562 148.896 21.1096C148.383 20.2631 148.127 19.3163 148.127 18.2693C148.127 17.1554 148.405 16.1975 148.962 15.3955C149.542 14.5712 150.422 13.9474 151.602 13.5242C152.783 13.0786 154.309 12.8558 156.18 12.8558H160.458V16.164H157.049C156.024 16.164 155.3 16.3311 154.877 16.6653C154.476 16.9994 154.276 17.445 154.276 18.0019C154.276 18.5589 154.487 19.0044 154.91 19.3386C155.334 19.6727 155.913 19.8398 156.648 19.8398C157.339 19.8398 157.962 19.6727 158.519 19.3386C159.099 18.9821 159.522 18.4475 159.789 17.7346L160.658 20.0737C160.324 21.3213 159.667 22.2681 158.686 22.9141C157.729 23.5379 156.459 23.8498 154.877 23.8498Z" fill="#163C51"/>
<path d="M137.952 23.8498C136.414 23.8498 135.1 23.5156 134.008 22.8473C132.917 22.1567 132.081 21.1319 131.502 19.773C130.945 18.3918 130.667 16.6319 130.667 14.4932C130.667 12.3323 130.934 10.5724 131.469 9.21349C132.003 7.83229 132.805 6.80752 133.875 6.1392C134.966 5.47088 136.325 5.13672 137.952 5.13672C139.6 5.13672 141.093 5.52657 142.429 6.30628C143.788 7.06372 144.858 8.14417 145.637 9.54765C146.439 10.9289 146.84 12.5774 146.84 14.4932C146.84 16.4091 146.439 18.0688 145.637 19.4722C144.858 20.8757 143.788 21.9562 142.429 22.7136C141.093 23.471 139.6 23.8498 137.952 23.8498ZM126.557 30.0317V5.43746H132.605V8.51175L132.572 14.4932L132.906 20.5081V30.0317H126.557ZM136.615 18.8039C137.328 18.8039 137.963 18.6368 138.52 18.3027C139.099 17.9685 139.556 17.4784 139.89 16.8324C140.246 16.1863 140.424 15.4066 140.424 14.4932C140.424 13.5799 140.246 12.8002 139.89 12.1541C139.556 11.5081 139.099 11.018 138.52 10.6838C137.963 10.3496 137.328 10.1826 136.615 10.1826C135.902 10.1826 135.256 10.3496 134.677 10.6838C134.12 11.018 133.663 11.5081 133.307 12.1541C132.973 12.8002 132.805 13.5799 132.805 14.4932C132.805 15.4066 132.973 16.1863 133.307 16.8324C133.663 17.4784 134.12 17.9685 134.677 18.3027C135.256 18.6368 135.902 18.8039 136.615 18.8039Z" fill="#163C51"/>
<path d="M111.967 23.549V9.07986L113.337 10.4833H106.119V5.4375H124.097V10.4833H116.879L118.283 9.07986V23.549H111.967Z" fill="#163C51"/>
<path d="M96.7147 23.8498C94.7097 23.8498 92.9164 23.4488 91.3347 22.6468C89.7753 21.8448 88.55 20.7421 87.6589 19.3386C86.7678 17.9128 86.3223 16.2866 86.3223 14.4598C86.3223 12.6331 86.7678 11.018 87.6589 9.61448C88.55 8.211 89.7753 7.11941 91.3347 6.3397C92.9164 5.53771 94.7097 5.13672 96.7147 5.13672C98.7642 5.13672 100.535 5.57113 102.028 6.43995C103.52 7.30877 104.579 8.53403 105.202 10.1157L100.29 12.6219C99.8669 11.7754 99.3434 11.1628 98.7197 10.784C98.0959 10.3831 97.4164 10.1826 96.6813 10.1826C95.9461 10.1826 95.2778 10.3496 94.6763 10.6838C94.0748 11.018 93.5958 11.5081 93.2394 12.1541C92.9052 12.7779 92.7382 13.5464 92.7382 14.4598C92.7382 15.3955 92.9052 16.1863 93.2394 16.8324C93.5958 17.4784 94.0748 17.9685 94.6763 18.3027C95.2778 18.6368 95.9461 18.8039 96.6813 18.8039C97.4164 18.8039 98.0959 18.6146 98.7197 18.2358C99.3434 17.8349 99.8669 17.2111 100.29 16.3645L105.202 18.8708C104.579 20.4525 103.52 21.6777 102.028 22.5465C100.535 23.4153 98.7642 23.8498 96.7147 23.8498Z" fill="#163C51"/>
<path d="M63.6074 23.549V5.4375H69.9231V14.9277L77.5085 5.4375H83.3564V23.549H77.0073V14.0254L69.4887 23.549H63.6074Z" fill="#163C51"/>
<path d="M45.9531 23.549V5.4375H61.1241V10.4833H50.8987L52.2688 9.11328V23.549H45.9531Z" fill="#163C51"/>
<path d="M33.5756 23.8498C31.4369 23.8498 29.5656 23.4488 27.9616 22.6468C26.3799 21.8225 25.1435 20.7086 24.2524 19.3052C23.3836 17.8794 22.9492 16.2643 22.9492 14.4598C22.9492 12.6554 23.3725 11.0514 24.219 9.6479C25.0879 8.22214 26.2797 7.11941 27.7946 6.3397C29.3094 5.53771 31.0136 5.13672 32.9072 5.13672C34.6894 5.13672 36.3157 5.5043 37.786 6.23945C39.2563 6.95233 40.4259 8.01051 41.2947 9.41398C42.1635 10.8175 42.5979 12.5217 42.5979 14.5267C42.5979 14.7494 42.5868 15.0056 42.5645 15.2952C42.5422 15.5848 42.5199 15.8522 42.4977 16.0972H28.1621V12.7556H39.1226L36.7167 13.6913C36.7389 12.867 36.583 12.1541 36.2488 11.5526C35.937 10.9511 35.4914 10.4833 34.9122 10.1491C34.3553 9.81498 33.6981 9.6479 32.9406 9.6479C32.1832 9.6479 31.5149 9.81498 30.9357 10.1491C30.3787 10.4833 29.9443 10.9623 29.6324 11.586C29.3206 12.1875 29.1646 12.9004 29.1646 13.7247V14.6937C29.1646 15.5848 29.3428 16.3534 29.6993 16.9994C30.078 17.6455 30.6127 18.1467 31.3033 18.5032C31.9939 18.8373 32.8181 19.0044 33.776 19.0044C34.6671 19.0044 35.4246 18.8819 36.0483 18.6368C36.6944 18.3695 37.3293 17.9685 37.9531 17.4339L41.2947 20.9091C40.4259 21.8671 39.3565 22.6022 38.0867 23.1146C36.8169 23.6047 35.3132 23.8498 33.5756 23.8498Z" fill="#163C51"/>
<path d="M0.569336 23.5476V0.15625H11.2625C13.4011 0.15625 15.239 0.501549 16.7762 1.19215C18.3356 1.88275 19.5386 2.88523 20.3851 4.1996C21.2317 5.49169 21.6549 7.02884 21.6549 8.81103C21.6549 10.5709 21.2317 12.097 20.3851 13.389C19.5386 14.6811 18.3356 15.6836 16.7762 16.3965C15.239 17.0871 13.4011 17.4324 11.2625 17.4324H4.24511L7.18573 14.5586V23.5476H0.569336ZM7.18573 15.2603L4.24511 12.2195H10.8615C12.2427 12.2195 13.2675 11.9187 13.9358 11.3172C14.6264 10.7158 14.9717 9.88035 14.9717 8.81103C14.9717 7.71944 14.6264 6.8729 13.9358 6.2714C13.2675 5.66991 12.2427 5.36917 10.8615 5.36917H4.24511L7.18573 2.3283V15.2603Z" fill="#163C51"/>
</svg>
