<svg width="217" height="44" viewBox="0 0 217 44" fill="none" xmlns="http://www.w3.org/2000/svg">
<path d="M201.333 34.0011V12.0171L202.725 13.4571H192.309V8.36914H216.309V13.4571H205.941L207.333 12.0171V34.0011H201.333Z" fill="#F85F37"/>
<path d="M177.565 34.3361C174.877 34.3361 172.477 33.7761 170.365 32.6561C168.285 31.5041 166.653 29.9361 165.469 27.9521C164.285 25.9681 163.693 23.7121 163.693 21.1841C163.693 18.6241 164.285 16.3681 165.469 14.4161C166.653 12.4321 168.285 10.8801 170.365 9.76008C172.477 8.64008 174.877 8.08008 177.565 8.08008C180.061 8.08008 182.253 8.59208 184.141 9.61608C186.061 10.6081 187.517 12.0801 188.509 14.0321L183.901 16.7201C183.133 15.5041 182.189 14.6081 181.069 14.0321C179.981 13.4561 178.797 13.1681 177.517 13.1681C176.045 13.1681 174.717 13.4881 173.533 14.1281C172.349 14.7681 171.421 15.6961 170.749 16.9121C170.077 18.0961 169.741 19.5201 169.741 21.1841C169.741 22.8481 170.077 24.2881 170.749 25.5041C171.421 26.6881 172.349 27.6001 173.533 28.2401C174.717 28.8801 176.045 29.2001 177.517 29.2001C178.797 29.2001 179.981 28.9121 181.069 28.3361C182.189 27.7601 183.133 26.8641 183.901 25.6481L188.509 28.3361C187.517 30.2561 186.061 31.7441 184.141 32.8001C182.253 33.8241 180.061 34.3361 177.565 34.3361Z" fill="#F85F37"/>
<path d="M150.413 34.0001V28.8161L150.077 27.7121V18.6401C150.077 16.8801 149.549 15.5201 148.493 14.5601C147.437 13.5681 145.837 13.0721 143.693 13.0721C142.253 13.0721 140.829 13.2961 139.421 13.7441C138.045 14.1921 136.877 14.8161 135.917 15.6161L133.565 11.2481C134.941 10.1921 136.573 9.40808 138.461 8.89608C140.381 8.35208 142.365 8.08008 144.413 8.08008C148.125 8.08008 150.989 8.97608 153.005 10.7681C155.053 12.5281 156.077 15.2641 156.077 18.9761V34.0001H150.413ZM142.349 34.3361C140.429 34.3361 138.749 34.0161 137.309 33.3761C135.869 32.7041 134.749 31.7921 133.949 30.6401C133.181 29.4561 132.797 28.1281 132.797 26.6561C132.797 25.2161 133.133 23.9201 133.805 22.7681C134.509 21.6161 135.645 20.7041 137.213 20.0321C138.781 19.3601 140.861 19.0241 143.453 19.0241H150.893V23.0081H143.885C141.837 23.0081 140.461 23.3441 139.757 24.0161C139.053 24.6561 138.701 25.4561 138.701 26.4161C138.701 27.5041 139.133 28.3681 139.997 29.0081C140.861 29.6481 142.061 29.9681 143.597 29.9681C145.069 29.9681 146.381 29.6321 147.533 28.9601C148.717 28.2881 149.565 27.2961 150.077 25.9841L151.085 29.5841C150.509 31.0881 149.469 32.2561 147.965 33.0881C146.493 33.9201 144.621 34.3361 142.349 34.3361Z" fill="#F85F37"/>
<path d="M113.81 34.3361C111.73 34.3361 109.826 33.8561 108.098 32.8961C106.402 31.9361 105.042 30.4961 104.018 28.5761C103.026 26.6241 102.53 24.1601 102.53 21.1841C102.53 18.1761 103.01 15.7121 103.97 13.7921C104.962 11.8721 106.306 10.4481 108.002 9.52008C109.698 8.56008 111.634 8.08008 113.81 8.08008C116.338 8.08008 118.562 8.62408 120.482 9.71208C122.434 10.8001 123.97 12.3201 125.09 14.2721C126.242 16.2241 126.818 18.5281 126.818 21.1841C126.818 23.8401 126.242 26.1601 125.09 28.1441C123.97 30.0961 122.434 31.6161 120.482 32.7041C118.562 33.7921 116.338 34.3361 113.81 34.3361ZM99.6016 43.3121V8.36808H105.314V14.4161L105.122 21.2321L105.602 28.0481V43.3121H99.6016ZM113.138 29.2001C114.578 29.2001 115.858 28.8801 116.978 28.2401C118.13 27.6001 119.042 26.6721 119.714 25.4561C120.386 24.2401 120.722 22.8161 120.722 21.1841C120.722 19.5201 120.386 18.0961 119.714 16.9121C119.042 15.6961 118.13 14.7681 116.978 14.1281C115.858 13.4881 114.578 13.1681 113.138 13.1681C111.698 13.1681 110.402 13.4881 109.25 14.1281C108.098 14.7681 107.186 15.6961 106.514 16.9121C105.842 18.0961 105.506 19.5201 105.506 21.1841C105.506 22.8161 105.842 24.2401 106.514 25.4561C107.186 26.6721 108.098 27.6001 109.25 28.2401C110.402 28.8801 111.698 29.2001 113.138 29.2001Z" fill="#F85F37"/>
<path d="M78.7819 34.4315C76.8299 34.4315 74.8939 34.2075 72.9739 33.7595C71.0859 33.2795 69.3739 32.6075 67.8379 31.7435L69.5179 27.2795C70.7659 27.9835 72.1739 28.5275 73.7419 28.9115C75.3099 29.2955 76.8779 29.4875 78.4459 29.4875C79.7899 29.4875 80.9419 29.3595 81.9019 29.1035C82.8619 28.8155 83.5979 28.3995 84.1099 27.8555C84.6539 27.3115 84.9259 26.6875 84.9259 25.9835C84.9259 24.9595 84.4779 24.1915 83.5819 23.6795C82.7179 23.1355 81.4699 22.8635 79.8379 22.8635H74.8939V18.8315H79.3579C80.3819 18.8315 81.2459 18.7195 81.9499 18.4955C82.6859 18.2715 83.2459 17.9355 83.6299 17.4875C84.0139 17.0395 84.2059 16.5115 84.2059 15.9035C84.2059 15.2955 83.9659 14.7675 83.4859 14.3195C83.0379 13.8395 82.3819 13.4875 81.5179 13.2635C80.6539 13.0075 79.6139 12.8795 78.3979 12.8795C77.1179 12.8795 75.7899 13.0395 74.4139 13.3595C73.0699 13.6795 71.6939 14.1435 70.2859 14.7515L68.7499 10.3355C70.3819 9.59946 71.9659 9.03946 73.5019 8.65546C75.0699 8.23946 76.6219 8.01546 78.1579 7.98346C80.4939 7.88746 82.5739 8.12746 84.3979 8.70346C86.2219 9.27946 87.6619 10.1115 88.7179 11.1995C89.7739 12.2875 90.3019 13.5675 90.3019 15.0395C90.3019 16.2555 89.9179 17.3595 89.1499 18.3515C88.4139 19.3115 87.3899 20.0635 86.0779 20.6075C84.7979 21.1515 83.3259 21.4235 81.6619 21.4235L81.8539 20.1275C84.7019 20.1275 86.9419 20.7035 88.5739 21.8555C90.2059 22.9755 91.0219 24.5115 91.0219 26.4635C91.0219 28.0315 90.4939 29.4235 89.4379 30.6395C88.3819 31.8235 86.9259 32.7515 85.0699 33.4235C83.2459 34.0955 81.1499 34.4315 78.7819 34.4315Z" fill="#F85F37"/>
<path d="M49.0382 34.3361C46.4142 34.3361 44.0783 33.7761 42.0303 32.6561C39.9823 31.5041 38.3662 29.9361 37.1822 27.9521C35.9982 25.9681 35.4062 23.7121 35.4062 21.1841C35.4062 18.6241 35.9982 16.3681 37.1822 14.4161C38.3662 12.4321 39.9823 10.8801 42.0303 9.76008C44.0783 8.64008 46.4142 8.08008 49.0382 8.08008C51.6943 8.08008 54.0462 8.64008 56.0942 9.76008C58.1743 10.8801 59.7902 12.4161 60.9422 14.3681C62.1262 16.3201 62.7183 18.5921 62.7183 21.1841C62.7183 23.7121 62.1262 25.9681 60.9422 27.9521C59.7902 29.9361 58.1743 31.5041 56.0942 32.6561C54.0462 33.7761 51.6943 34.3361 49.0382 34.3361ZM49.0382 29.2001C50.5103 29.2001 51.8223 28.8801 52.9743 28.2401C54.1263 27.6001 55.0223 26.6721 55.6623 25.4561C56.3343 24.2401 56.6702 22.8161 56.6702 21.1841C56.6702 19.5201 56.3343 18.0961 55.6623 16.9121C55.0223 15.6961 54.1263 14.7681 52.9743 14.1281C51.8223 13.4881 50.5263 13.1681 49.0863 13.1681C47.6143 13.1681 46.3022 13.4881 45.1502 14.1281C44.0302 14.7681 43.1343 15.6961 42.4622 16.9121C41.7902 18.0961 41.4543 19.5201 41.4543 21.1841C41.4543 22.8161 41.7902 24.2401 42.4622 25.4561C43.1343 26.6721 44.0302 27.6001 45.1502 28.2401C46.3022 28.8801 47.5982 29.2001 49.0382 29.2001Z" fill="#F85F37"/>
<path d="M0.121094 34.0004V0.400391H15.1451C18.9211 0.400391 21.8651 1.15239 23.9771 2.65639C26.0891 4.12839 27.1451 6.25639 27.1451 9.04039C27.1451 11.7924 26.1371 13.9204 24.1211 15.4244C22.1051 16.8964 19.4491 17.6324 16.1531 17.6324L17.0171 15.9044C20.7611 15.9044 23.6571 16.6564 25.7051 18.1604C27.7531 19.6644 28.7771 21.8404 28.7771 24.6884C28.7771 27.6004 27.7051 29.8884 25.5611 31.5524C23.4171 33.1844 20.2491 34.0004 16.0571 34.0004H0.121094ZM6.26509 29.2004H15.8651C18.0411 29.2004 19.6891 28.8004 20.8091 28.0004C21.9291 27.1684 22.4891 25.9044 22.4891 24.2084C22.4891 22.5124 21.9291 21.2804 20.8091 20.5124C19.6891 19.7124 18.0411 19.3124 15.8651 19.3124H6.26509V29.2004ZM6.26509 14.7524H14.6171C16.6331 14.7524 18.1691 14.3524 19.2251 13.5524C20.2811 12.7204 20.8091 11.5364 20.8091 10.0004C20.8091 8.40039 20.2811 7.20039 19.2251 6.40039C18.1691 5.60039 16.6331 5.20039 14.6171 5.20039H6.26509V14.7524Z" fill="#F85F37"/>
</svg>
