<svg width="253" height="33" viewBox="0 0 253 33" fill="none" xmlns="http://www.w3.org/2000/svg">
<path d="M246.294 25.5472V19.2112L247.194 20.2552H242.226C239.322 20.2552 237.03 19.6672 235.35 18.4912C233.67 17.2912 232.83 15.5872 232.83 13.3792C232.83 11.0272 233.706 9.21516 235.458 7.94316C237.21 6.67116 239.574 6.03516 242.55 6.03516H252.378V25.5472H246.294ZM232.506 25.5472L237.654 18.1312H244.566L239.742 25.5472H232.506ZM246.294 17.1592V9.74316L247.194 11.4352H242.694C241.782 11.4352 241.074 11.6152 240.57 11.9752C240.066 12.3112 239.814 12.8632 239.814 13.6312C239.814 15.1192 240.762 15.8632 242.658 15.8632H247.194L246.294 17.1592Z" fill="#163C51"/>
<path d="M208.143 25.5472V6.03516H214.947V16.2592L223.119 6.03516H229.419V25.5472H222.579V15.2872L214.479 25.5472H208.143Z" fill="#163C51"/>
<path d="M182.514 25.5472V6.03516H189.318V20.0752H195.654V6.03516H202.494V25.5472H182.514ZM198.858 29.5792V25.5112L200.37 25.5472H195.654V20.0752H205.194V29.5792H198.858Z" fill="#163C51"/>
<path d="M172.028 25.5469V21.9109L171.56 21.0109V14.3149C171.56 13.2349 171.224 12.4069 170.552 11.8309C169.904 11.2309 168.86 10.9309 167.42 10.9309C166.484 10.9309 165.536 11.0869 164.576 11.3989C163.616 11.6869 162.8 12.0949 162.128 12.6229L159.824 7.97894C160.928 7.25894 162.248 6.70694 163.784 6.32294C165.344 5.91494 166.892 5.71094 168.428 5.71094C171.596 5.71094 174.044 6.44294 175.772 7.90694C177.524 9.34694 178.4 11.6149 178.4 14.7109V25.5469H172.028ZM166.268 25.8709C164.708 25.8709 163.388 25.6069 162.308 25.0789C161.228 24.5509 160.4 23.8309 159.824 22.9189C159.272 22.0069 158.996 20.9869 158.996 19.8589C158.996 18.6589 159.296 17.6269 159.896 16.7629C160.52 15.8749 161.468 15.2029 162.74 14.7469C164.012 14.2669 165.656 14.0269 167.672 14.0269H172.28V17.5909H168.608C167.504 17.5909 166.724 17.7709 166.268 18.1309C165.836 18.4909 165.62 18.9709 165.62 19.5709C165.62 20.1709 165.848 20.6509 166.304 21.0109C166.76 21.3709 167.384 21.5509 168.176 21.5509C168.92 21.5509 169.592 21.3709 170.192 21.0109C170.816 20.6269 171.272 20.0509 171.56 19.2829L172.496 21.8029C172.136 23.1469 171.428 24.1669 170.372 24.8629C169.34 25.5349 167.972 25.8709 166.268 25.8709Z" fill="#163C51"/>
<path d="M148.032 25.8709C146.376 25.8709 144.96 25.5109 143.784 24.7909C142.608 24.0469 141.708 22.9429 141.084 21.4789C140.484 19.9909 140.184 18.0949 140.184 15.7909C140.184 13.4629 140.472 11.5669 141.048 10.1029C141.624 8.61494 142.488 7.51094 143.64 6.79094C144.816 6.07094 146.28 5.71094 148.032 5.71094C149.808 5.71094 151.416 6.13094 152.856 6.97094C154.32 7.78694 155.472 8.95094 156.312 10.4629C157.176 11.9509 157.608 13.7269 157.608 15.7909C157.608 17.8549 157.176 19.6429 156.312 21.1549C155.472 22.6669 154.32 23.8309 152.856 24.6469C151.416 25.4629 149.808 25.8709 148.032 25.8709ZM135.756 32.5309V6.03494H142.272V9.34694L142.236 15.7909L142.596 22.2709V32.5309H135.756ZM146.592 20.4349C147.36 20.4349 148.044 20.2549 148.644 19.8949C149.268 19.5349 149.76 19.0069 150.12 18.3109C150.504 17.6149 150.696 16.7749 150.696 15.7909C150.696 14.8069 150.504 13.9669 150.12 13.2709C149.76 12.5749 149.268 12.0469 148.644 11.6869C148.044 11.3269 147.36 11.1469 146.592 11.1469C145.824 11.1469 145.128 11.3269 144.504 11.6869C143.904 12.0469 143.412 12.5749 143.028 13.2709C142.668 13.9669 142.488 14.8069 142.488 15.7909C142.488 16.7749 142.668 17.6149 143.028 18.3109C143.412 19.0069 143.904 19.5349 144.504 19.8949C145.128 20.2549 145.824 20.4349 146.592 20.4349Z" fill="#163C51"/>
<path d="M120.038 25.5472V9.95916L121.514 11.4712H113.738V6.03516H133.106V11.4712H125.33L126.842 9.95916V25.5472H120.038Z" fill="#163C51"/>
<path d="M103.606 25.8709C101.446 25.8709 99.5142 25.4389 97.8102 24.5749C96.1302 23.7109 94.8102 22.5229 93.8502 21.0109C92.8902 19.4749 92.4102 17.7229 92.4102 15.7549C92.4102 13.7869 92.8902 12.0469 93.8502 10.5349C94.8102 9.02294 96.1302 7.84694 97.8102 7.00694C99.5142 6.14294 101.446 5.71094 103.606 5.71094C105.814 5.71094 107.722 6.17894 109.33 7.11494C110.938 8.05094 112.078 9.37094 112.75 11.0749L107.458 13.7749C107.002 12.8629 106.438 12.2029 105.766 11.7949C105.094 11.3629 104.362 11.1469 103.57 11.1469C102.778 11.1469 102.058 11.3269 101.41 11.6869C100.762 12.0469 100.246 12.5749 99.8622 13.2709C99.5022 13.9429 99.3222 14.7709 99.3222 15.7549C99.3222 16.7629 99.5022 17.6149 99.8622 18.3109C100.246 19.0069 100.762 19.5349 101.41 19.8949C102.058 20.2549 102.778 20.4349 103.57 20.4349C104.362 20.4349 105.094 20.2309 105.766 19.8229C106.438 19.3909 107.002 18.7189 107.458 17.8069L112.75 20.5069C112.078 22.2109 110.938 23.5309 109.33 24.4669C107.722 25.4029 105.814 25.8709 103.606 25.8709Z" fill="#163C51"/>
<path d="M67.9395 25.5472V6.03516H74.7435V16.2592L82.9155 6.03516H89.2155V25.5472H82.3755V15.2872L74.2755 25.5472H67.9395Z" fill="#163C51"/>
<path d="M48.9199 25.5472V6.03516H65.2639V11.4712H54.2479L55.7239 9.99516V25.5472H48.9199Z" fill="#163C51"/>
<path d="M35.5847 25.8709C33.2807 25.8709 31.2647 25.4389 29.5367 24.5749C27.8327 23.6869 26.5007 22.4869 25.5407 20.9749C24.6047 19.4389 24.1367 17.6989 24.1367 15.7549C24.1367 13.8109 24.5927 12.0829 25.5047 10.5709C26.4407 9.03494 27.7247 7.84694 29.3567 7.00694C30.9887 6.14294 32.8247 5.71094 34.8647 5.71094C36.7847 5.71094 38.5367 6.10694 40.1207 6.89894C41.7047 7.66694 42.9647 8.80694 43.9007 10.3189C44.8367 11.8309 45.3047 13.6669 45.3047 15.8269C45.3047 16.0669 45.2927 16.3429 45.2687 16.6549C45.2447 16.9669 45.2207 17.2549 45.1967 17.5189H29.7527V13.9189H41.5607L38.9687 14.9269C38.9927 14.0389 38.8247 13.2709 38.4647 12.6229C38.1287 11.9749 37.6487 11.4709 37.0247 11.1109C36.4247 10.7509 35.7167 10.5709 34.9007 10.5709C34.0847 10.5709 33.3647 10.7509 32.7407 11.1109C32.1407 11.4709 31.6727 11.9869 31.3367 12.6589C31.0007 13.3069 30.8327 14.0749 30.8327 14.9629V16.0069C30.8327 16.9669 31.0247 17.7949 31.4087 18.4909C31.8167 19.1869 32.3927 19.7269 33.1367 20.1109C33.8807 20.4709 34.7687 20.6509 35.8007 20.6509C36.7607 20.6509 37.5767 20.5189 38.2487 20.2549C38.9447 19.9669 39.6287 19.5349 40.3007 18.9589L43.9007 22.7029C42.9647 23.7349 41.8127 24.5269 40.4447 25.0789C39.0767 25.6069 37.4567 25.8709 35.5847 25.8709Z" fill="#163C51"/>
<path d="M0.0273438 25.5477V0.347656H11.5473C13.8513 0.347656 15.8313 0.719656 17.4873 1.46366C19.1673 2.20766 20.4633 3.28766 21.3753 4.70366C22.2873 6.09566 22.7433 7.75166 22.7433 9.67166C22.7433 11.5677 22.2873 13.2117 21.3753 14.6037C20.4633 15.9957 19.1673 17.0757 17.4873 17.8437C15.8313 18.5877 13.8513 18.9597 11.5473 18.9597H3.98734L7.15534 15.8637V25.5477H0.0273438ZM7.15534 16.6197L3.98734 13.3437H11.1153C12.6033 13.3437 13.7073 13.0197 14.4273 12.3717C15.1713 11.7237 15.5433 10.8237 15.5433 9.67166C15.5433 8.49566 15.1713 7.58366 14.4273 6.93566C13.7073 6.28766 12.6033 5.96366 11.1153 5.96366H3.98734L7.15534 2.68766V16.6197Z" fill="#163C51"/>
</svg>
