<svg width="517" height="1202" viewBox="0 0 517 1202" fill="none" xmlns="http://www.w3.org/2000/svg">
<path d="M91.4561 460.433L232.79 596.914L256.138 104.746L279.486 566.914L423.388 412.408L279.641 610.949V1121.53C279.45 1123.23 278.715 1124.86 277.512 1126.25C276.308 1127.65 274.68 1128.75 272.793 1129.45C267.657 1131.61 261.977 1132.73 256.216 1132.73C250.454 1132.73 244.774 1131.61 239.638 1129.45C237.751 1128.75 236.123 1127.65 234.919 1126.25C233.716 1124.86 232.981 1123.23 232.79 1121.53V648.159L91.4561 460.433Z" fill="#163C51" fill-opacity="0.2"/>
<path opacity="0.5" d="M91.4561 460.433L232.79 596.914L256.138 104.746L279.486 566.914L423.388 412.408L279.641 610.949V1121.53C279.45 1123.23 278.715 1124.86 277.512 1126.25C276.308 1127.65 274.68 1128.75 272.793 1129.45C267.657 1131.61 261.977 1132.73 256.216 1132.73C250.454 1132.73 244.774 1131.61 239.638 1129.45C237.751 1128.75 236.123 1127.65 234.919 1126.25C233.716 1124.86 232.981 1123.23 232.79 1121.53V648.159L91.4561 460.433Z" fill="black" fill-opacity="0.2"/>
<path d="M289.206 313.789C283.668 298.916 282.799 283.122 286.679 267.895C290.56 252.667 299.062 238.508 311.387 226.75C358.083 181.685 445.171 201.771 450.93 207.951C456.689 214.132 455.211 247.93 433.73 270.977C412.25 294.025 362.285 332.587 289.206 313.789Z" fill="#163C51" fill-opacity="0.2"/>
<path opacity="0.1" d="M451.004 207.954C413.967 209.142 378.344 220.033 349.276 239.056C320.208 258.079 299.199 284.25 289.28 313.792C283.717 298.926 282.827 283.132 286.695 267.903C290.562 252.673 299.059 238.511 311.383 226.753C357.768 181.881 445.167 201.774 451.004 207.954Z" fill="black" fill-opacity="0.2"/>
<path d="M228.976 338.842C229.788 322.118 225.259 305.511 215.846 290.695C206.432 275.879 192.466 263.375 175.354 254.443C115.738 223.348 56.6678 241.567 50.8308 251.739C44.9938 261.911 50.3639 266.546 66.3962 290.366C82.4285 314.185 106.088 346.889 148.893 355.967C184.382 363.885 210.142 352.104 228.976 338.842Z" fill="#163C51" fill-opacity="0.2"/>
<path opacity="0.15" d="M228.972 338.842C229.783 322.118 225.255 305.511 215.841 290.695C206.428 275.879 192.462 263.375 175.349 254.443C115.734 223.348 56.6632 241.567 50.8262 251.739C85.2256 246.717 198.775 266.803 228.972 338.842Z" fill="black" fill-opacity="0.2"/>
<path d="M228.972 338.838C198.775 266.735 85.2259 246.714 51.1377 251.606C56.6634 241.177 115.812 223.151 175.661 254.182C192.757 263.172 206.687 275.731 216.046 290.594C225.405 305.456 229.864 322.097 228.972 338.838Z" fill="#163C51" fill-opacity="0.2"/>
<path opacity="0.1" d="M228.972 338.838C198.775 266.735 85.2259 246.714 51.1377 251.606C56.6634 241.177 115.812 223.151 175.661 254.182C192.757 263.172 206.687 275.731 216.046 290.594C225.405 305.456 229.864 322.097 228.972 338.838Z" fill="black" fill-opacity="0.2"/>
<path d="M285.639 171.643C281.021 160.244 280.122 148.039 283.032 136.26C285.943 124.481 292.56 113.547 302.216 104.561C335.915 73.4669 380.899 76.2996 387.203 82.5442C393.507 88.7888 394.985 93.8747 389.46 112.995C383.934 132.115 373.272 154.004 345.954 167.201C337.084 171.92 326.963 174.79 316.458 175.564C305.952 176.337 295.377 174.992 285.639 171.643Z" fill="#163C51" fill-opacity="0.2"/>
<path opacity="0.15" d="M285.639 171.643C281.021 160.244 280.122 148.039 283.032 136.26C285.943 124.481 292.56 113.547 302.216 104.561C335.915 73.4669 380.899 76.2996 387.203 82.5442C362.843 84.733 289.297 117.051 285.639 171.643Z" fill="black" fill-opacity="0.2"/>
<path d="M285.64 171.646C289.298 117.053 362.844 84.8 387.515 82.6112C381.211 76.1734 336.227 73.4696 302.528 104.564C292.82 113.524 286.145 124.447 283.18 136.226C280.214 148.006 281.063 160.225 285.64 171.646Z" fill="#163C51" fill-opacity="0.2"/>
<path opacity="0.1" d="M285.64 171.646C289.298 117.053 362.844 84.8 387.515 82.6112C381.211 76.1734 336.227 73.4696 302.528 104.564C292.82 113.524 286.145 124.447 283.18 136.226C280.214 148.006 281.063 160.225 285.64 171.646Z" fill="black" fill-opacity="0.2"/>
<path d="M128.181 483.298C122.232 478.075 118.056 471.646 116.074 464.66C114.092 457.674 114.376 450.379 116.896 443.512C125.691 419.692 150.907 411.903 155.81 413.963C160.713 416.023 163.592 418.469 166.316 429.929C168.488 436.417 168.98 443.211 167.76 449.867C166.54 456.524 163.634 462.892 159.234 468.555C155.863 472.889 151.283 476.491 145.879 479.056C140.475 481.622 134.406 483.076 128.181 483.298Z" fill="#163C51" fill-opacity="0.2"/>
<path opacity="0.15" d="M128.181 483.298C122.232 478.075 118.056 471.646 116.074 464.66C114.092 457.674 114.376 450.379 116.896 443.512C125.691 419.692 150.907 411.903 155.81 413.963C143.513 420.272 113.55 453.04 128.181 483.298Z" fill="black" fill-opacity="0.2"/>
<path d="M128.18 483.302C113.549 453.044 143.746 420.276 156.198 413.967C150.906 411.843 125.69 419.697 117.285 443.516C114.714 450.355 114.368 457.634 116.281 464.618C118.194 471.603 122.298 478.047 128.18 483.302Z" fill="#163C51" fill-opacity="0.2"/>
<path opacity="0.1" d="M128.18 483.302C113.549 453.044 143.746 420.276 156.198 413.967C150.906 411.843 125.69 419.697 117.285 443.516C114.714 450.355 114.368 457.634 116.281 464.618C118.194 471.603 122.298 478.047 128.18 483.302Z" fill="black" fill-opacity="0.2"/>
<path d="M233.958 211.562C233.958 211.562 239.794 169.588 207.341 143.644C174.887 117.7 130.136 111.004 119.474 117.249C108.812 123.494 107.8 167.27 139.242 193.472C178.156 225.919 225.786 220.704 233.958 211.562Z" fill="#163C51" fill-opacity="0.2"/>
<path opacity="0.1" d="M233.955 211.497C198.388 153.171 119.472 117.248 119.472 117.248C130.134 110.811 173.95 117.248 207.338 143.708C238.936 168.944 234.189 209.373 233.955 211.497Z" fill="black" fill-opacity="0.2"/>
<path d="M258.32 87.4422C258.32 87.4422 283.069 68.7726 280.578 44.4378C278.088 20.103 259.409 0.725318 250.848 0.017162C242.287 -0.690994 219.017 20.6181 220.963 45.0816C223.297 74.6311 249.525 89.116 258.32 87.4422Z" fill="#163C51" fill-opacity="0.2"/>
<path opacity="0.1" d="M258.399 87.4485C271.163 45.9248 250.616 0.0234375 250.616 0.0234375C259.177 0.731593 277.778 19.3367 280.346 44.4441C283.07 68.1995 259.566 86.5472 258.399 87.4485Z" fill="black" fill-opacity="0.2"/>
<path d="M105.695 500.745C105.695 500.745 87.484 477.44 58.0654 475.509C28.6468 473.578 2.41918 485.552 0.162197 492.376C-2.09478 499.2 19.4633 521.732 48.5705 524.178C84.293 527.204 106.162 508.213 105.695 500.745Z" fill="#163C51" fill-opacity="0.2"/>
<path opacity="0.1" d="M105.615 500.742C58.218 483.36 0.15918 492.373 0.15918 492.373C2.41616 485.549 28.0212 473.446 58.0624 475.506C86.7805 477.373 104.758 499.648 105.615 500.742Z" fill="black" fill-opacity="0.2"/>
<path d="M83.1204 447.569C83.1204 447.569 89.7357 422.655 72.2247 405.401C54.7136 388.148 28.2525 381.775 21.4037 384.994C14.5549 388.212 10.5858 414.479 27.552 431.796C48.4875 453.363 77.5169 452.719 83.1204 447.569Z" fill="#163C51" fill-opacity="0.2"/>
<path opacity="0.1" d="M83.1151 447.57C66.0711 410.682 21.3984 385.059 21.3984 385.059C28.2472 381.84 54.3192 387.892 72.2194 405.467C90.1196 423.042 83.4264 446.411 83.1151 447.57Z" fill="black" fill-opacity="0.2"/>
<path d="M389.767 431.216C396.176 426.383 400.932 420.237 403.555 413.4C406.178 406.562 406.577 399.273 404.71 392.267C398.25 367.932 373.579 358.533 368.365 360.078C363.15 361.623 360.582 364.07 356.379 375.336C353.619 381.609 352.497 388.295 353.088 394.953C353.678 401.611 355.967 408.089 359.804 413.962C362.711 418.646 366.964 422.668 372.188 425.676C377.411 428.684 383.448 430.586 389.767 431.216Z" fill="#163C51" fill-opacity="0.2"/>
<path opacity="0.15" d="M389.767 431.216C396.176 426.383 400.931 420.237 403.555 413.4C406.178 406.562 406.576 399.273 404.709 392.267C398.25 367.932 373.579 358.533 368.364 360.078C380.038 367.353 407.122 401.924 389.767 431.216Z" fill="black" fill-opacity="0.2"/>
<path d="M389.764 431.216C407.12 401.925 380.347 367.354 368.284 360.401C373.81 358.663 398.248 368.062 404.707 392.59C406.502 399.547 406.067 406.771 403.446 413.547C400.825 420.322 396.109 426.414 389.764 431.216Z" fill="#163C51" fill-opacity="0.2"/>
<path opacity="0.1" d="M389.764 431.216C407.12 401.925 380.347 367.354 368.284 360.401C373.81 358.663 398.248 368.062 404.707 392.59C406.502 399.547 406.067 406.771 403.446 413.547C400.825 420.322 396.109 426.414 389.764 431.216Z" fill="black" fill-opacity="0.2"/>
<path d="M411.166 445.376C411.166 445.376 429.377 422.136 458.874 420.14C488.37 418.145 514.442 430.183 516.699 437.007C518.956 443.831 497.398 466.364 468.291 468.81C431.946 471.9 410.388 452.844 411.166 445.376Z" fill="#163C51" fill-opacity="0.2"/>
<path opacity="0.1" d="M411.164 445.377C458.561 428.06 516.619 437.008 516.619 437.008C514.363 430.184 488.757 418.081 458.716 420.141C429.765 421.815 411.787 444.283 411.164 445.377Z" fill="black" fill-opacity="0.2"/>
<path d="M432.486 398.376C432.486 398.376 425.871 373.462 443.382 356.209C460.893 338.956 487.354 332.647 494.203 335.866C501.052 339.084 504.943 365.286 488.054 382.604C467.119 404.106 438.09 403.462 432.486 398.376Z" fill="#163C51" fill-opacity="0.2"/>
<path opacity="0.1" d="M432.485 398.378C449.529 361.425 494.201 335.802 494.201 335.802C487.353 332.648 461.203 338.635 443.381 356.21C425.558 373.785 432.173 397.154 432.485 398.378Z" fill="black" fill-opacity="0.2"/>
<path d="M463.311 1106.15C460.269 1105.47 457.115 1105.21 453.972 1105.38C450.201 1105.46 446.544 1106.47 443.466 1108.27C440.509 1109.97 438.211 1112.34 436.85 1115.1C430.329 1107.12 421.839 1100.37 411.94 1095.3C402.04 1090.23 390.956 1086.95 379.414 1085.68C378.666 1080.69 376.277 1075.97 372.508 1072.03C368.74 1068.1 363.736 1065.09 358.043 1063.34C352.35 1061.6 346.187 1061.18 340.225 1062.13C334.263 1063.08 328.732 1065.37 324.235 1068.74C315.839 1059.22 304.614 1051.66 291.646 1046.78C278.678 1041.9 264.407 1039.88 250.215 1040.9C236.023 1041.92 222.391 1045.96 210.639 1052.62C198.887 1059.28 189.413 1068.34 183.135 1078.92C181.759 1076.25 179.568 1073.93 176.777 1072.18C173.987 1070.43 170.694 1069.31 167.222 1068.94C163.75 1068.56 160.22 1068.94 156.978 1070.03C153.736 1071.13 150.895 1072.9 148.735 1075.18C145.876 1078.26 144.391 1082.06 144.533 1085.93C138.134 1084.66 131.578 1084.01 124.998 1084C112.31 1083.97 99.7835 1086.36 88.3919 1090.98C77.0002 1095.6 67.0495 1102.34 59.3122 1110.65C58.069 1107.58 55.7702 1104.87 52.6969 1102.86C49.2959 1100.96 45.3591 1099.82 41.2684 1099.55C37.1776 1099.28 33.0717 1099.89 29.3488 1101.32C26.2283 1102.54 23.4394 1104.27 21.1515 1106.4C18.8637 1108.54 17.1248 1111.04 16.0404 1113.74C15.1091 1116.97 15.0661 1120.33 15.9148 1123.57C16.7634 1126.82 18.482 1129.86 20.9435 1132.48C24.2992 1135.26 28.4408 1137.31 32.9933 1138.43C37.5458 1139.55 42.3653 1139.72 47.0155 1138.92C49.9417 1145.6 54.5215 1151.7 60.4617 1156.83C66.4019 1161.96 73.5718 1166.01 81.5127 1168.72C89.4535 1171.43 97.9905 1172.74 106.577 1172.56C115.164 1172.38 123.612 1170.73 131.38 1167.69C133.812 1170.71 136.965 1173.28 140.645 1175.25C144.324 1177.23 148.452 1178.55 152.775 1179.16C157.097 1179.76 161.524 1179.63 165.781 1178.76C170.038 1177.9 174.037 1176.32 177.531 1174.13C180.557 1180.15 185.376 1185.44 191.539 1189.5C197.702 1193.57 205.009 1196.28 212.777 1197.37C220.546 1198.47 228.525 1197.93 235.971 1195.79C243.416 1193.65 250.086 1189.99 255.358 1185.14C260.702 1190.94 267.787 1195.48 275.911 1198.32C284.035 1201.15 292.914 1202.17 301.665 1201.29C310.416 1200.4 318.734 1197.64 325.793 1193.27C332.852 1188.9 338.405 1183.08 341.901 1176.38C348.043 1180.4 355.306 1183.07 363.022 1184.16C370.739 1185.24 378.661 1184.71 386.062 1182.6C393.462 1180.49 400.103 1176.87 405.374 1172.09C410.645 1167.3 414.377 1161.5 416.226 1155.2C419.695 1157.13 423.621 1158.41 427.741 1158.98C431.86 1159.54 436.078 1159.37 440.111 1158.47C444.143 1157.58 447.897 1155.98 451.12 1153.78C454.343 1151.58 456.961 1148.84 458.797 1145.74C463.496 1145.55 468.03 1144.25 471.865 1142C475.7 1139.74 478.677 1136.63 480.444 1133.02C482.211 1129.42 482.694 1125.47 481.837 1121.64C480.981 1117.81 478.819 1114.27 475.608 1111.43C472.216 1108.72 467.943 1106.88 463.311 1106.15Z" fill="#B16668" fill-opacity="0.2"/>
<path d="M191.148 1114.78C188.011 1111.18 183.383 1108.66 178.145 1107.69C172.907 1106.73 167.425 1107.4 162.741 1109.56C159.18 1106.04 154.562 1103.35 149.35 1101.77C144.138 1100.19 138.515 1099.77 133.044 1100.55C127.574 1101.33 122.448 1103.29 118.18 1106.23C113.913 1109.17 110.654 1112.98 108.729 1117.29C111.575 1113.91 115.346 1111.13 119.734 1109.19C124.122 1107.25 129.003 1106.19 133.98 1106.1C138.956 1106.01 143.888 1106.9 148.372 1108.69C152.856 1110.47 156.766 1113.11 159.784 1116.39L161.263 1115.42C162.658 1114.53 164.205 1113.81 165.854 1113.3C170.452 1111.77 175.538 1111.58 180.286 1112.75C185.033 1113.91 189.163 1116.38 192.004 1119.73C193.518 1121.44 194.651 1123.36 195.351 1125.4C195.357 1121.58 193.884 1117.86 191.148 1114.78Z" fill="#9A4A4D" fill-opacity="0.2"/>
<path d="M293.18 1097.78C296.107 1094.46 300.4 1092.12 305.256 1091.22C310.112 1090.32 315.199 1090.91 319.564 1092.89C322.876 1089.63 327.165 1087.14 332.003 1085.68C336.841 1084.22 342.058 1083.84 347.132 1084.57C352.206 1085.3 356.96 1087.12 360.917 1089.84C364.875 1092.57 367.898 1096.11 369.684 1100.1C367.247 1097.22 364.08 1094.81 360.405 1093.04C356.729 1091.27 352.632 1090.18 348.398 1089.85C344.163 1089.52 339.892 1089.95 335.881 1091.12C331.87 1092.29 328.214 1094.17 325.167 1096.63C324.148 1097.46 323.187 1098.34 322.288 1099.27L320.965 1098.36C319.646 1097.55 318.207 1096.88 316.684 1096.37C312.447 1094.93 307.747 1094.71 303.342 1095.75C298.937 1096.79 295.083 1099.03 292.402 1102.1C290.968 1103.68 289.911 1105.47 289.289 1107.38C289.354 1103.92 290.713 1100.57 293.18 1097.78Z" fill="#9A4A4D" fill-opacity="0.2"/>
<path d="M227.497 1146.32C230.402 1142.96 234.696 1140.61 239.561 1139.71C244.427 1138.81 249.523 1139.42 253.88 1141.42C256.623 1138.69 260.061 1136.5 263.95 1135C267.838 1133.49 272.08 1132.72 276.372 1132.73C282.391 1132.73 288.267 1134.25 293.207 1137.09C298.147 1139.94 301.915 1143.96 304.001 1148.63C301.555 1145.75 298.382 1143.34 294.7 1141.57C291.017 1139.8 286.914 1138.71 282.674 1138.38C278.433 1138.05 274.156 1138.48 270.139 1139.65C266.122 1140.82 262.46 1142.7 259.406 1145.16C258.392 1145.95 257.455 1146.81 256.604 1147.73L255.281 1146.9C253.934 1146.08 252.47 1145.41 250.923 1144.9C246.697 1143.46 242.01 1143.25 237.618 1144.29C233.226 1145.33 229.387 1147.56 226.719 1150.63C225.284 1152.21 224.227 1154 223.605 1155.91C223.633 1152.45 224.997 1149.09 227.497 1146.32Z" fill="#9A4A4D" fill-opacity="0.2"/>
</svg>
