<svg width="1720" height="147" viewBox="0 0 1720 147" fill="none" xmlns="http://www.w3.org/2000/svg">
<g opacity="0.3" filter="url(#filter0_d_435_1856)">
<path d="M1636.93 4.62891V43.2558H1660.78C1722.69 43.2558 1722.69 133.816 1660.78 134.001C1641.74 134.001 1622.52 134.001 1603.85 134.001C1603.85 90.7538 1603.85 47.6914 1603.85 4.62891C1614.76 4.62891 1625.85 4.62891 1636.93 4.62891ZM1660.59 73.0114H1636.93C1636.93 83.546 1636.93 93.8957 1636.93 104.43C1644.51 104.43 1652.83 104.615 1660.59 104.43C1679.81 104.246 1678.7 73.0114 1660.59 73.0114Z" fill="white"/>
</g>
<g opacity="0.3" filter="url(#filter1_d_435_1856)">
<path d="M1517.98 37.1571H1488.59C1487.48 13.3156 1506.89 2.22656 1529.43 2.22656C1557.71 2.22656 1571.94 20.8931 1571.94 39.7445C1571.94 48.2461 1568.25 58.0414 1560.67 63.7708C1573.79 70.7938 1579.34 81.1436 1579.34 95.7442C1579.34 118.662 1562.7 136.404 1529.43 136.404C1501.34 136.404 1484.15 120.879 1484.15 91.863H1513.17C1513.17 102.028 1519.82 108.497 1529.43 108.497C1551.61 108.497 1551.61 79.1106 1529.43 79.1106H1520.38V52.1273H1529.06C1545.33 52.1273 1544.96 29.5796 1529.43 29.5796C1522.23 29.5796 1517.98 32.3518 1517.98 37.1571Z" fill="white"/>
</g>
<g opacity="0.3" filter="url(#filter2_d_435_1856)">
<path d="M1351.05 129.196L1376.37 88.1664C1343.66 65.9883 1352.9 4.81372 1403.73 4.62891C1422.58 4.62891 1441.8 4.62891 1460.47 4.62891C1460.47 47.8762 1460.47 90.9387 1460.47 134.001C1449.75 134.001 1438.47 134.001 1427.38 134.001V95.9287H1410.2L1388.02 134.001H1351.05V129.196ZM1403.73 66.1731H1427.38C1427.38 55.8233 1427.38 44.7343 1427.38 34.1997C1419.62 34.1997 1411.49 34.0149 1403.73 34.1997C1384.88 34.3845 1385.8 66.1731 1403.73 66.1731Z" fill="white"/>
</g>
<g opacity="0.3" filter="url(#filter3_d_435_1856)">
<path d="M1332.66 44.3647C1332.66 52.127 1328.77 61.5527 1322.49 66.7276C1333.03 72.0873 1338.02 81.6978 1338.02 93.1565C1337.83 115.704 1324.15 134.001 1297.73 134.001H1237.11V4.62891H1292.37C1314.73 4.62891 1332.66 22.0018 1332.66 44.3647ZM1295.32 82.6219H1269.08V104.615H1295.51C1308.81 104.615 1308.63 82.6219 1295.32 82.6219ZM1289.78 34.1997H1269.08V55.0841H1289.96C1303.09 55.0841 1303.09 34.1997 1289.78 34.1997Z" fill="white"/>
</g>
<g opacity="0.3" filter="url(#filter4_d_435_1856)">
<path d="M1084.05 69.315C1084.24 25.3285 1117.5 3.15039 1150.4 3.15039C1177.2 3.15039 1206.22 17.751 1211.21 52.3118C1199.93 52.3118 1189.95 52.3118 1178.68 52.3118C1174.06 39.1898 1164.26 33.2756 1150.4 33.2756C1131 33.2756 1118.24 47.8762 1118.24 69.315C1118.24 88.3512 1130.81 104.985 1150.4 105.17C1164.45 105.17 1175.72 98.1466 1179.23 84.2852C1190.32 84.2852 1200.49 84.2852 1211.76 84.2852C1206.96 120.879 1177.94 135.295 1150.4 135.295C1117.5 135.48 1084.24 113.302 1084.05 69.315Z" fill="white"/>
</g>
<g opacity="0.3" filter="url(#filter5_d_435_1856)">
<path d="M898.576 129.196L923.896 88.1664C891.183 65.9883 900.424 4.81372 951.249 4.62891C970.101 4.62891 989.322 4.62891 1007.99 4.62891C1007.99 47.8762 1007.99 90.9387 1007.99 134.001C997.269 134.001 985.995 134.001 974.906 134.001V95.9287H957.718L935.54 134.001H898.576V129.196ZM951.249 66.1731H974.906C974.906 55.8233 974.906 44.7343 974.906 34.1997C967.143 34.1997 959.011 34.0149 951.249 34.1997C932.398 34.3845 933.322 66.1731 951.249 66.1731Z" fill="white"/>
</g>
<g opacity="0.3" filter="url(#filter6_d_435_1856)">
<path d="M858.028 134L850.451 117.736H799.441L791.864 134H759.521V129.195L817.738 2.96484H831.969L890.371 129.195V134H858.028ZM839.731 89.4594L824.761 55.453L810.16 89.4594H839.731Z" fill="white"/>
</g>
<g opacity="0.3" filter="url(#filter7_d_435_1856)">
<path d="M742.754 4.62891V134.001C731.48 134.001 720.206 134.001 708.933 134.001V82.0674H669.012V134.001C657.738 134.001 646.279 134.001 635.19 134.001V4.62891C646.279 4.62891 657.738 4.62891 669.012 4.62891V51.5725H708.933V4.62891C720.206 4.62891 731.48 4.62891 742.754 4.62891Z" fill="white"/>
</g>
<g opacity="0.3" filter="url(#filter8_d_435_1856)">
<path d="M550.262 34.1997H518.474C518.474 24.2196 518.474 14.4242 518.474 4.62891H614.579C614.579 14.4242 614.579 24.2196 614.579 34.1997H582.975V134.001C572.071 134.001 561.166 134.001 550.262 134.001V34.1997Z" fill="white"/>
</g>
<g opacity="0.3" filter="url(#filter9_d_435_1856)">
<path d="M489.476 134L481.899 117.736H430.889L423.312 134H390.969V129.195L449.186 2.96484H463.417L521.82 129.195V134H489.476ZM471.18 89.4594L456.209 55.453L441.609 89.4594H471.18Z" fill="white"/>
</g>
<g opacity="0.3" filter="url(#filter10_d_435_1856)">
<path d="M319.75 134.001C308.661 134.001 297.572 134.001 286.668 134.001C286.668 90.9387 286.668 47.8762 286.668 4.62891C305.335 4.62891 324.556 4.62891 343.592 4.62891C405.506 4.81372 405.506 100.919 343.592 100.919H319.75V134.001ZM343.407 71.1632C361.519 71.1632 362.628 34.3845 343.407 34.1997C335.645 34.0149 327.328 34.1997 319.75 34.1997C319.75 44.7343 319.75 60.6286 319.75 71.1632H343.407Z" fill="white"/>
</g>
<g opacity="0.3" filter="url(#filter11_d_435_1856)">
<path d="M215.082 79.1103H191.425V104.43C199.003 104.43 207.319 104.43 215.082 104.43C233.379 104.43 233.194 79.1103 215.082 79.1103ZM191.425 49.9092H215.267C277.18 49.9092 277.18 133.816 215.267 134.001H158.343V4.62891H251.306V34.1997H191.425V49.9092Z" fill="white"/>
</g>
<g opacity="0.3" filter="url(#filter12_d_435_1856)">
<path d="M133.471 69.4989C133.471 159.135 0.772461 159.135 0.772461 69.4989C0.772461 -19.9528 133.471 -19.9528 133.471 69.4989ZM34.7789 69.4989C34.7789 116.443 99.6498 116.443 99.6498 69.4989C99.6498 22.9249 34.7789 22.9249 34.7789 69.4989Z" fill="white"/>
</g>
<defs>
<filter id="filter0_d_435_1856" x="1603.85" y="2.62891" width="115.359" height="141.373" filterUnits="userSpaceOnUse" color-interpolation-filters="sRGB">
<feFlood flood-opacity="0" result="BackgroundImageFix"/>
<feColorMatrix in="SourceAlpha" type="matrix" values="0 0 0 0 0 0 0 0 0 0 0 0 0 0 0 0 0 0 127 0" result="hardAlpha"/>
<feOffset dx="6" dy="4"/>
<feGaussianBlur stdDeviation="3"/>
<feComposite in2="hardAlpha" operator="out"/>
<feColorMatrix type="matrix" values="0 0 0 0 0 0 0 0 0 0 0 0 0 0 0 0 0 0 0.1 0"/>
<feBlend mode="normal" in2="BackgroundImageFix" result="effect1_dropShadow_435_1856"/>
<feBlend mode="normal" in="SourceGraphic" in2="effect1_dropShadow_435_1856" result="shape"/>
</filter>
<filter id="filter1_d_435_1856" x="1484.15" y="0.226562" width="107.181" height="146.178" filterUnits="userSpaceOnUse" color-interpolation-filters="sRGB">
<feFlood flood-opacity="0" result="BackgroundImageFix"/>
<feColorMatrix in="SourceAlpha" type="matrix" values="0 0 0 0 0 0 0 0 0 0 0 0 0 0 0 0 0 0 127 0" result="hardAlpha"/>
<feOffset dx="6" dy="4"/>
<feGaussianBlur stdDeviation="3"/>
<feComposite in2="hardAlpha" operator="out"/>
<feColorMatrix type="matrix" values="0 0 0 0 0 0 0 0 0 0 0 0 0 0 0 0 0 0 0.1 0"/>
<feBlend mode="normal" in2="BackgroundImageFix" result="effect1_dropShadow_435_1856"/>
<feBlend mode="normal" in="SourceGraphic" in2="effect1_dropShadow_435_1856" result="shape"/>
</filter>
<filter id="filter2_d_435_1856" x="1351.05" y="2.62891" width="121.412" height="141.373" filterUnits="userSpaceOnUse" color-interpolation-filters="sRGB">
<feFlood flood-opacity="0" result="BackgroundImageFix"/>
<feColorMatrix in="SourceAlpha" type="matrix" values="0 0 0 0 0 0 0 0 0 0 0 0 0 0 0 0 0 0 127 0" result="hardAlpha"/>
<feOffset dx="6" dy="4"/>
<feGaussianBlur stdDeviation="3"/>
<feComposite in2="hardAlpha" operator="out"/>
<feColorMatrix type="matrix" values="0 0 0 0 0 0 0 0 0 0 0 0 0 0 0 0 0 0 0.1 0"/>
<feBlend mode="normal" in2="BackgroundImageFix" result="effect1_dropShadow_435_1856"/>
<feBlend mode="normal" in="SourceGraphic" in2="effect1_dropShadow_435_1856" result="shape"/>
</filter>
<filter id="filter3_d_435_1856" x="1237.11" y="2.62891" width="112.91" height="141.373" filterUnits="userSpaceOnUse" color-interpolation-filters="sRGB">
<feFlood flood-opacity="0" result="BackgroundImageFix"/>
<feColorMatrix in="SourceAlpha" type="matrix" values="0 0 0 0 0 0 0 0 0 0 0 0 0 0 0 0 0 0 127 0" result="hardAlpha"/>
<feOffset dx="6" dy="4"/>
<feGaussianBlur stdDeviation="3"/>
<feComposite in2="hardAlpha" operator="out"/>
<feColorMatrix type="matrix" values="0 0 0 0 0 0 0 0 0 0 0 0 0 0 0 0 0 0 0.1 0"/>
<feBlend mode="normal" in2="BackgroundImageFix" result="effect1_dropShadow_435_1856"/>
<feBlend mode="normal" in="SourceGraphic" in2="effect1_dropShadow_435_1856" result="shape"/>
</filter>
<filter id="filter4_d_435_1856" x="1084.05" y="1.15039" width="139.709" height="144.146" filterUnits="userSpaceOnUse" color-interpolation-filters="sRGB">
<feFlood flood-opacity="0" result="BackgroundImageFix"/>
<feColorMatrix in="SourceAlpha" type="matrix" values="0 0 0 0 0 0 0 0 0 0 0 0 0 0 0 0 0 0 127 0" result="hardAlpha"/>
<feOffset dx="6" dy="4"/>
<feGaussianBlur stdDeviation="3"/>
<feComposite in2="hardAlpha" operator="out"/>
<feColorMatrix type="matrix" values="0 0 0 0 0 0 0 0 0 0 0 0 0 0 0 0 0 0 0.1 0"/>
<feBlend mode="normal" in2="BackgroundImageFix" result="effect1_dropShadow_435_1856"/>
<feBlend mode="normal" in="SourceGraphic" in2="effect1_dropShadow_435_1856" result="shape"/>
</filter>
<filter id="filter5_d_435_1856" x="898.576" y="2.62891" width="121.412" height="141.373" filterUnits="userSpaceOnUse" color-interpolation-filters="sRGB">
<feFlood flood-opacity="0" result="BackgroundImageFix"/>
<feColorMatrix in="SourceAlpha" type="matrix" values="0 0 0 0 0 0 0 0 0 0 0 0 0 0 0 0 0 0 127 0" result="hardAlpha"/>
<feOffset dx="6" dy="4"/>
<feGaussianBlur stdDeviation="3"/>
<feComposite in2="hardAlpha" operator="out"/>
<feColorMatrix type="matrix" values="0 0 0 0 0 0 0 0 0 0 0 0 0 0 0 0 0 0 0.1 0"/>
<feBlend mode="normal" in2="BackgroundImageFix" result="effect1_dropShadow_435_1856"/>
<feBlend mode="normal" in="SourceGraphic" in2="effect1_dropShadow_435_1856" result="shape"/>
</filter>
<filter id="filter6_d_435_1856" x="759.521" y="0.964844" width="142.851" height="143.035" filterUnits="userSpaceOnUse" color-interpolation-filters="sRGB">
<feFlood flood-opacity="0" result="BackgroundImageFix"/>
<feColorMatrix in="SourceAlpha" type="matrix" values="0 0 0 0 0 0 0 0 0 0 0 0 0 0 0 0 0 0 127 0" result="hardAlpha"/>
<feOffset dx="6" dy="4"/>
<feGaussianBlur stdDeviation="3"/>
<feComposite in2="hardAlpha" operator="out"/>
<feColorMatrix type="matrix" values="0 0 0 0 0 0 0 0 0 0 0 0 0 0 0 0 0 0 0.1 0"/>
<feBlend mode="normal" in2="BackgroundImageFix" result="effect1_dropShadow_435_1856"/>
<feBlend mode="normal" in="SourceGraphic" in2="effect1_dropShadow_435_1856" result="shape"/>
</filter>
<filter id="filter7_d_435_1856" x="635.19" y="2.62891" width="119.563" height="141.373" filterUnits="userSpaceOnUse" color-interpolation-filters="sRGB">
<feFlood flood-opacity="0" result="BackgroundImageFix"/>
<feColorMatrix in="SourceAlpha" type="matrix" values="0 0 0 0 0 0 0 0 0 0 0 0 0 0 0 0 0 0 127 0" result="hardAlpha"/>
<feOffset dx="6" dy="4"/>
<feGaussianBlur stdDeviation="3"/>
<feComposite in2="hardAlpha" operator="out"/>
<feColorMatrix type="matrix" values="0 0 0 0 0 0 0 0 0 0 0 0 0 0 0 0 0 0 0.1 0"/>
<feBlend mode="normal" in2="BackgroundImageFix" result="effect1_dropShadow_435_1856"/>
<feBlend mode="normal" in="SourceGraphic" in2="effect1_dropShadow_435_1856" result="shape"/>
</filter>
<filter id="filter8_d_435_1856" x="518.474" y="2.62891" width="108.105" height="141.373" filterUnits="userSpaceOnUse" color-interpolation-filters="sRGB">
<feFlood flood-opacity="0" result="BackgroundImageFix"/>
<feColorMatrix in="SourceAlpha" type="matrix" values="0 0 0 0 0 0 0 0 0 0 0 0 0 0 0 0 0 0 127 0" result="hardAlpha"/>
<feOffset dx="6" dy="4"/>
<feGaussianBlur stdDeviation="3"/>
<feComposite in2="hardAlpha" operator="out"/>
<feColorMatrix type="matrix" values="0 0 0 0 0 0 0 0 0 0 0 0 0 0 0 0 0 0 0.1 0"/>
<feBlend mode="normal" in2="BackgroundImageFix" result="effect1_dropShadow_435_1856"/>
<feBlend mode="normal" in="SourceGraphic" in2="effect1_dropShadow_435_1856" result="shape"/>
</filter>
<filter id="filter9_d_435_1856" x="390.969" y="0.964844" width="142.851" height="143.035" filterUnits="userSpaceOnUse" color-interpolation-filters="sRGB">
<feFlood flood-opacity="0" result="BackgroundImageFix"/>
<feColorMatrix in="SourceAlpha" type="matrix" values="0 0 0 0 0 0 0 0 0 0 0 0 0 0 0 0 0 0 127 0" result="hardAlpha"/>
<feOffset dx="6" dy="4"/>
<feGaussianBlur stdDeviation="3"/>
<feComposite in2="hardAlpha" operator="out"/>
<feColorMatrix type="matrix" values="0 0 0 0 0 0 0 0 0 0 0 0 0 0 0 0 0 0 0.1 0"/>
<feBlend mode="normal" in2="BackgroundImageFix" result="effect1_dropShadow_435_1856"/>
<feBlend mode="normal" in="SourceGraphic" in2="effect1_dropShadow_435_1856" result="shape"/>
</filter>
<filter id="filter10_d_435_1856" x="286.668" y="2.62891" width="115.359" height="141.373" filterUnits="userSpaceOnUse" color-interpolation-filters="sRGB">
<feFlood flood-opacity="0" result="BackgroundImageFix"/>
<feColorMatrix in="SourceAlpha" type="matrix" values="0 0 0 0 0 0 0 0 0 0 0 0 0 0 0 0 0 0 127 0" result="hardAlpha"/>
<feOffset dx="6" dy="4"/>
<feGaussianBlur stdDeviation="3"/>
<feComposite in2="hardAlpha" operator="out"/>
<feColorMatrix type="matrix" values="0 0 0 0 0 0 0 0 0 0 0 0 0 0 0 0 0 0 0.1 0"/>
<feBlend mode="normal" in2="BackgroundImageFix" result="effect1_dropShadow_435_1856"/>
<feBlend mode="normal" in="SourceGraphic" in2="effect1_dropShadow_435_1856" result="shape"/>
</filter>
<filter id="filter11_d_435_1856" x="158.343" y="2.62891" width="115.359" height="141.373" filterUnits="userSpaceOnUse" color-interpolation-filters="sRGB">
<feFlood flood-opacity="0" result="BackgroundImageFix"/>
<feColorMatrix in="SourceAlpha" type="matrix" values="0 0 0 0 0 0 0 0 0 0 0 0 0 0 0 0 0 0 127 0" result="hardAlpha"/>
<feOffset dx="6" dy="4"/>
<feGaussianBlur stdDeviation="3"/>
<feComposite in2="hardAlpha" operator="out"/>
<feColorMatrix type="matrix" values="0 0 0 0 0 0 0 0 0 0 0 0 0 0 0 0 0 0 0.1 0"/>
<feBlend mode="normal" in2="BackgroundImageFix" result="effect1_dropShadow_435_1856"/>
<feBlend mode="normal" in="SourceGraphic" in2="effect1_dropShadow_435_1856" result="shape"/>
</filter>
<filter id="filter12_d_435_1856" x="0.772461" y="0.410156" width="144.699" height="146.316" filterUnits="userSpaceOnUse" color-interpolation-filters="sRGB">
<feFlood flood-opacity="0" result="BackgroundImageFix"/>
<feColorMatrix in="SourceAlpha" type="matrix" values="0 0 0 0 0 0 0 0 0 0 0 0 0 0 0 0 0 0 127 0" result="hardAlpha"/>
<feOffset dx="6" dy="4"/>
<feGaussianBlur stdDeviation="3"/>
<feComposite in2="hardAlpha" operator="out"/>
<feColorMatrix type="matrix" values="0 0 0 0 0 0 0 0 0 0 0 0 0 0 0 0 0 0 0.1 0"/>
<feBlend mode="normal" in2="BackgroundImageFix" result="effect1_dropShadow_435_1856"/>
<feBlend mode="normal" in="SourceGraphic" in2="effect1_dropShadow_435_1856" result="shape"/>
</filter>
</defs>
</svg>
