<svg width="1669" height="252" viewBox="0 0 1669 252" fill="none" xmlns="http://www.w3.org/2000/svg">
<g opacity="0.3" filter="url(#filter0_d_435_3136)">
<path d="M1601.06 123.478L1484.57 237.328H1463.45V5.9978C1483.58 5.9978 1503.71 5.9978 1523.84 5.9978V119.188L1640.66 5.00781H1662.11V236.998C1641.98 236.998 1621.52 236.998 1601.06 236.998V123.478Z" fill="white"/>
</g>
<g opacity="0.3" filter="url(#filter1_d_435_3136)">
<path d="M1311.81 58.8H1255.05C1255.05 40.98 1255.05 23.49 1255.05 6H1426.65C1426.65 23.49 1426.65 40.98 1426.65 58.8H1370.22V237C1350.75 237 1331.28 237 1311.81 237V58.8Z" fill="white"/>
</g>
<g opacity="0.3" filter="url(#filter2_d_435_3136)">
<path d="M1004.54 121.499C1004.87 42.9594 1064.27 3.35938 1123.01 3.35938C1170.86 3.35938 1222.67 29.4294 1231.58 91.1394C1211.45 91.1394 1193.63 91.1394 1173.5 91.1394C1165.25 67.7094 1147.76 57.1494 1123.01 57.1494C1088.36 57.1494 1065.59 83.2194 1065.59 121.499C1065.59 155.489 1088.03 185.189 1123.01 185.519C1148.09 185.519 1168.22 172.979 1174.49 148.229C1194.29 148.229 1212.44 148.229 1232.57 148.229C1223.99 213.569 1172.18 239.309 1123.01 239.309C1064.27 239.639 1004.87 200.039 1004.54 121.499Z" fill="white"/>
</g>
<g opacity="0.3" filter="url(#filter3_d_435_3136)">
<path d="M973.989 121.829C973.989 281.879 737.049 281.879 737.049 121.829C737.049 -37.8909 973.989 -37.8909 973.989 121.829ZM797.769 121.829C797.769 205.649 913.599 205.649 913.599 121.829C913.599 38.6691 797.769 38.6691 797.769 121.829Z" fill="white"/>
</g>
<g opacity="0.3" filter="url(#filter4_d_435_3136)">
<path d="M695.618 76.95C695.618 90.81 688.688 107.64 677.468 116.88C696.278 126.45 705.188 143.61 705.188 164.07C704.858 204.33 680.438 237 633.248 237H525.008V6H623.678C663.608 6 695.618 37.02 695.618 76.95ZM628.958 145.26H582.098V184.53H629.288C653.048 184.53 652.718 145.26 628.958 145.26ZM619.058 58.8H582.098V96.09H619.388C642.818 96.09 642.818 58.8 619.058 58.8Z" fill="white"/>
</g>
<g opacity="0.3" filter="url(#filter5_d_435_3136)">
<path d="M480.6 121.829C480.6 281.879 243.66 281.879 243.66 121.829C243.66 -37.8909 480.6 -37.8909 480.6 121.829ZM304.38 121.829C304.38 205.649 420.21 205.649 420.21 121.829C420.21 38.6691 304.38 38.6691 304.38 121.829Z" fill="white"/>
</g>
<g opacity="0.3" filter="url(#filter6_d_435_3136)">
<path d="M198.873 6V237C178.742 237 158.613 237 138.483 237V144.27H67.2025V237C47.0725 237 26.6125 237 6.8125 237V6C26.6125 6 47.0725 6 67.2025 6V89.82H138.483V6C158.613 6 178.742 6 198.873 6Z" fill="white"/>
</g>
<defs>
<filter id="filter0_d_435_3136" x="1457.45" y="3.00781" width="210.66" height="244.32" filterUnits="userSpaceOnUse" color-interpolation-filters="sRGB">
<feFlood flood-opacity="0" result="BackgroundImageFix"/>
<feColorMatrix in="SourceAlpha" type="matrix" values="0 0 0 0 0 0 0 0 0 0 0 0 0 0 0 0 0 0 127 0" result="hardAlpha"/>
<feOffset dy="4"/>
<feGaussianBlur stdDeviation="3"/>
<feComposite in2="hardAlpha" operator="out"/>
<feColorMatrix type="matrix" values="0 0 0 0 0 0 0 0 0 0 0 0 0 0 0 0 0 0 0.1 0"/>
<feBlend mode="normal" in2="BackgroundImageFix" result="effect1_dropShadow_435_3136"/>
<feBlend mode="normal" in="SourceGraphic" in2="effect1_dropShadow_435_3136" result="shape"/>
</filter>
<filter id="filter1_d_435_3136" x="1249.05" y="4" width="183.6" height="243" filterUnits="userSpaceOnUse" color-interpolation-filters="sRGB">
<feFlood flood-opacity="0" result="BackgroundImageFix"/>
<feColorMatrix in="SourceAlpha" type="matrix" values="0 0 0 0 0 0 0 0 0 0 0 0 0 0 0 0 0 0 127 0" result="hardAlpha"/>
<feOffset dy="4"/>
<feGaussianBlur stdDeviation="3"/>
<feComposite in2="hardAlpha" operator="out"/>
<feColorMatrix type="matrix" values="0 0 0 0 0 0 0 0 0 0 0 0 0 0 0 0 0 0 0.1 0"/>
<feBlend mode="normal" in2="BackgroundImageFix" result="effect1_dropShadow_435_3136"/>
<feBlend mode="normal" in="SourceGraphic" in2="effect1_dropShadow_435_3136" result="shape"/>
</filter>
<filter id="filter2_d_435_3136" x="998.536" y="1.35938" width="240.03" height="247.951" filterUnits="userSpaceOnUse" color-interpolation-filters="sRGB">
<feFlood flood-opacity="0" result="BackgroundImageFix"/>
<feColorMatrix in="SourceAlpha" type="matrix" values="0 0 0 0 0 0 0 0 0 0 0 0 0 0 0 0 0 0 127 0" result="hardAlpha"/>
<feOffset dy="4"/>
<feGaussianBlur stdDeviation="3"/>
<feComposite in2="hardAlpha" operator="out"/>
<feColorMatrix type="matrix" values="0 0 0 0 0 0 0 0 0 0 0 0 0 0 0 0 0 0 0.1 0"/>
<feBlend mode="normal" in2="BackgroundImageFix" result="effect1_dropShadow_435_3136"/>
<feBlend mode="normal" in="SourceGraphic" in2="effect1_dropShadow_435_3136" result="shape"/>
</filter>
<filter id="filter3_d_435_3136" x="731.049" y="0.0390625" width="248.94" height="251.828" filterUnits="userSpaceOnUse" color-interpolation-filters="sRGB">
<feFlood flood-opacity="0" result="BackgroundImageFix"/>
<feColorMatrix in="SourceAlpha" type="matrix" values="0 0 0 0 0 0 0 0 0 0 0 0 0 0 0 0 0 0 127 0" result="hardAlpha"/>
<feOffset dy="4"/>
<feGaussianBlur stdDeviation="3"/>
<feComposite in2="hardAlpha" operator="out"/>
<feColorMatrix type="matrix" values="0 0 0 0 0 0 0 0 0 0 0 0 0 0 0 0 0 0 0.1 0"/>
<feBlend mode="normal" in2="BackgroundImageFix" result="effect1_dropShadow_435_3136"/>
<feBlend mode="normal" in="SourceGraphic" in2="effect1_dropShadow_435_3136" result="shape"/>
</filter>
<filter id="filter4_d_435_3136" x="519.008" y="4" width="192.18" height="243" filterUnits="userSpaceOnUse" color-interpolation-filters="sRGB">
<feFlood flood-opacity="0" result="BackgroundImageFix"/>
<feColorMatrix in="SourceAlpha" type="matrix" values="0 0 0 0 0 0 0 0 0 0 0 0 0 0 0 0 0 0 127 0" result="hardAlpha"/>
<feOffset dy="4"/>
<feGaussianBlur stdDeviation="3"/>
<feComposite in2="hardAlpha" operator="out"/>
<feColorMatrix type="matrix" values="0 0 0 0 0 0 0 0 0 0 0 0 0 0 0 0 0 0 0.1 0"/>
<feBlend mode="normal" in2="BackgroundImageFix" result="effect1_dropShadow_435_3136"/>
<feBlend mode="normal" in="SourceGraphic" in2="effect1_dropShadow_435_3136" result="shape"/>
</filter>
<filter id="filter5_d_435_3136" x="237.66" y="0.0390625" width="248.94" height="251.828" filterUnits="userSpaceOnUse" color-interpolation-filters="sRGB">
<feFlood flood-opacity="0" result="BackgroundImageFix"/>
<feColorMatrix in="SourceAlpha" type="matrix" values="0 0 0 0 0 0 0 0 0 0 0 0 0 0 0 0 0 0 127 0" result="hardAlpha"/>
<feOffset dy="4"/>
<feGaussianBlur stdDeviation="3"/>
<feComposite in2="hardAlpha" operator="out"/>
<feColorMatrix type="matrix" values="0 0 0 0 0 0 0 0 0 0 0 0 0 0 0 0 0 0 0.1 0"/>
<feBlend mode="normal" in2="BackgroundImageFix" result="effect1_dropShadow_435_3136"/>
<feBlend mode="normal" in="SourceGraphic" in2="effect1_dropShadow_435_3136" result="shape"/>
</filter>
<filter id="filter6_d_435_3136" x="0.8125" y="4" width="204.06" height="243" filterUnits="userSpaceOnUse" color-interpolation-filters="sRGB">
<feFlood flood-opacity="0" result="BackgroundImageFix"/>
<feColorMatrix in="SourceAlpha" type="matrix" values="0 0 0 0 0 0 0 0 0 0 0 0 0 0 0 0 0 0 127 0" result="hardAlpha"/>
<feOffset dy="4"/>
<feGaussianBlur stdDeviation="3"/>
<feComposite in2="hardAlpha" operator="out"/>
<feColorMatrix type="matrix" values="0 0 0 0 0 0 0 0 0 0 0 0 0 0 0 0 0 0 0.1 0"/>
<feBlend mode="normal" in2="BackgroundImageFix" result="effect1_dropShadow_435_3136"/>
<feBlend mode="normal" in="SourceGraphic" in2="effect1_dropShadow_435_3136" result="shape"/>
</filter>
</defs>
</svg>
