<svg width="521" height="206" viewBox="0 0 521 206" fill="none" xmlns="http://www.w3.org/2000/svg">
<path d="M338.88 155.608L367.896 123.992H374.552V197C368.208 197 361.864 197 355.52 197V164.552L340.024 180.776H337.944L322.552 164.552V197C316.208 197 309.864 197 303.52 197V123.992H310.384L338.88 155.608Z" fill="#19495D"/>
<path d="M289.628 160.705C289.628 211.145 214.956 211.145 214.956 160.705C214.956 110.369 289.628 110.369 289.628 160.705ZM234.092 160.705C234.092 187.121 270.596 187.121 270.596 160.705C270.596 134.497 234.092 134.497 234.092 160.705Z" fill="#19495D"/>
<path d="M151.733 197.21V205.218H136.341V180.882H143.725L168.685 123.266H176.693L202.485 180.882H210.077V205.218H194.789V197.21H151.733ZM172.637 154.362L162.549 180.674H183.141L172.637 154.362Z" fill="#19495D"/>
<path d="M65.291 194.295L79.539 171.207C61.131 158.727 66.331 124.303 94.931 124.199C105.539 124.199 116.355 124.199 126.859 124.199C126.859 148.535 126.859 172.767 126.859 196.999C120.827 196.999 114.483 196.999 108.243 196.999V175.575H98.571L86.091 196.999H65.291V194.295ZM94.931 158.831H108.243C108.243 153.007 108.243 146.767 108.243 140.839C103.875 140.839 99.299 140.735 94.931 140.839C84.323 140.943 84.843 158.831 94.931 158.831Z" fill="#19495D"/>
<path d="M18.8719 196.999C12.6319 196.999 6.39186 196.999 0.255859 196.999C0.255859 172.767 0.255859 148.535 0.255859 124.199C10.7599 124.199 21.5759 124.199 32.2879 124.199C67.1279 124.303 67.1279 178.383 32.2879 178.383H18.8719V196.999ZM32.1839 161.639C42.3759 161.639 42.9999 140.943 32.1839 140.839C27.8159 140.735 23.1359 140.839 18.8719 140.839C18.8719 146.767 18.8719 155.711 18.8719 161.639H32.1839Z" fill="#19495D"/>
<path d="M497.706 93.0001L492.335 81.4721H456.179L450.808 93.0001H427.883V89.5941L469.148 0.121094H479.235L520.631 89.5941V93.0001H497.706ZM484.737 61.4291L474.126 37.3251L463.777 61.4291H484.737Z" fill="#19495D"/>
<path d="M348.64 93.2621V103.349H329.252V72.6951H338.553L369.993 0.121094H380.08L412.568 72.6951H422.131V103.349H402.874V93.2621H348.64ZM374.971 39.2901L362.264 72.4331H388.202L374.971 39.2901Z" fill="#19495D"/>
<path d="M297.84 22.2608V93.0008C289.98 93.0008 281.989 93.0008 273.998 93.0008V1.30078C292.731 1.30078 312.381 1.30078 331.114 1.30078C331.114 9.02978 331.114 14.4008 331.114 22.2608H297.84Z" fill="#19495D"/>
<path d="M252.696 1.30078C252.696 8.11279 252.696 15.1868 252.696 22.2608C239.072 22.2608 232.26 22.2608 218.767 22.2608V35.2298H249.945C249.945 42.1728 249.945 49.1158 249.945 56.0588H218.767C218.767 61.4298 218.767 66.6698 218.767 72.1718C232.26 72.1718 240.12 72.1718 253.875 72.1718C253.875 78.9838 253.875 86.0578 253.875 93.0008C232.391 93.0008 216.671 93.0008 195.449 93.0008C195.449 62.3468 195.449 31.6928 195.449 1.30078C216.671 1.30078 231.212 1.30078 252.696 1.30078Z" fill="#19495D"/>
<path d="M86.9639 47.1519C87.0949 15.9739 110.675 0.253906 133.993 0.253906C152.988 0.253906 173.555 10.6029 177.092 35.0999C169.101 35.0999 162.027 35.0999 154.036 35.0999C150.761 25.7989 143.818 21.6069 133.993 21.6069C120.238 21.6069 111.199 31.9559 111.199 47.1519C111.199 60.6449 120.107 72.4349 133.993 72.5659C143.949 72.5659 151.94 67.5879 154.429 57.7629C162.289 57.7629 169.494 57.7629 177.485 57.7629C174.079 83.7009 153.512 93.9189 133.993 93.9189C110.675 94.0499 87.0949 78.3299 86.9639 47.1519Z" fill="#19495D"/>
<path d="M70.3862 29.4658C70.3862 34.9678 67.6352 41.6488 63.1812 45.3168C70.6482 49.1158 74.1852 55.9278 74.1852 64.0498C74.0542 80.0318 64.3602 93.0008 45.6272 93.0008H2.65918V1.30078H41.8282C57.6792 1.30078 70.3862 13.6148 70.3862 29.4658ZM43.9242 56.5828H25.3222V72.1718H44.0552C53.4872 72.1718 53.3562 56.5828 43.9242 56.5828ZM39.9942 22.2608H25.3222V37.0638H40.1252C49.4262 37.0638 49.4262 22.2608 39.9942 22.2608Z" fill="#19495D"/>
</svg>
