<svg width="91" height="22" viewBox="0 0 91 22" fill="none" xmlns="http://www.w3.org/2000/svg">
<path d="M82.5097 21.6906C80.7097 21.6906 79.0997 21.3306 77.6797 20.6106C76.2797 19.8906 75.1797 18.9006 74.3797 17.6406C73.5797 16.3606 73.1797 14.9006 73.1797 13.2606C73.1797 11.6206 73.5797 10.1706 74.3797 8.91062C75.1797 7.65062 76.2797 6.67062 77.6797 5.97062C79.0997 5.25062 80.7097 4.89062 82.5097 4.89062C84.3497 4.89062 85.9397 5.28062 87.2797 6.06062C88.6197 6.84062 89.5697 7.94063 90.1297 9.36063L85.7197 11.6106C85.3397 10.8506 84.8697 10.3006 84.3097 9.96062C83.7497 9.60062 83.1397 9.42062 82.4797 9.42062C81.8197 9.42062 81.2197 9.57062 80.6797 9.87062C80.1397 10.1706 79.7097 10.6106 79.3897 11.1906C79.0897 11.7506 78.9397 12.4406 78.9397 13.2606C78.9397 14.1006 79.0897 14.8106 79.3897 15.3906C79.7097 15.9706 80.1397 16.4106 80.6797 16.7106C81.2197 17.0106 81.8197 17.1606 82.4797 17.1606C83.1397 17.1606 83.7497 16.9906 84.3097 16.6506C84.8697 16.2906 85.3397 15.7306 85.7197 14.9706L90.1297 17.2206C89.5697 18.6406 88.6197 19.7406 87.2797 20.5206C85.9397 21.3006 84.3497 21.6906 82.5097 21.6906Z" fill="white"/>
<path d="M65.611 21.4206V18.3906L65.221 17.6406V12.0606C65.221 11.1606 64.941 10.4706 64.381 9.99062C63.841 9.49062 62.971 9.24062 61.771 9.24062C60.991 9.24062 60.201 9.37062 59.401 9.63062C58.601 9.87062 57.921 10.2106 57.361 10.6506L55.441 6.78062C56.361 6.18062 57.461 5.72062 58.741 5.40062C60.041 5.06062 61.331 4.89062 62.611 4.89062C65.251 4.89062 67.291 5.50062 68.731 6.72062C70.191 7.92062 70.921 9.81062 70.921 12.3906V21.4206H65.611ZM60.811 21.6906C59.511 21.6906 58.411 21.4706 57.511 21.0306C56.611 20.5906 55.921 19.9906 55.441 19.2306C54.981 18.4706 54.751 17.6206 54.751 16.6806C54.751 15.6806 55.001 14.8206 55.501 14.1006C56.021 13.3606 56.811 12.8006 57.871 12.4206C58.931 12.0206 60.301 11.8206 61.981 11.8206H65.821V14.7906H62.761C61.841 14.7906 61.191 14.9406 60.811 15.2406C60.451 15.5406 60.271 15.9406 60.271 16.4406C60.271 16.9406 60.461 17.3406 60.841 17.6406C61.221 17.9406 61.741 18.0906 62.401 18.0906C63.021 18.0906 63.581 17.9406 64.081 17.6406C64.601 17.3206 64.981 16.8406 65.221 16.2006L66.001 18.3006C65.701 19.4206 65.111 20.2706 64.231 20.8506C63.371 21.4106 62.231 21.6906 60.811 21.6906Z" fill="white"/>
<path d="M34.916 21.4202V5.16016H40.586V11.1902H46.436V5.16016H52.136V21.4202H46.436V15.7202H40.586V21.4202H34.916Z" fill="white"/>
<path d="M11.67 21.84C9.99 21.84 8.44 21.57 7.02 21.03C5.6 20.49 4.36 19.73 3.3 18.75C2.26 17.75 1.45 16.59 0.87 15.27C0.29 13.95 0 12.5 0 10.92C0 9.34 0.29 7.89 0.87 6.57C1.45 5.25 2.26 4.1 3.3 3.12C4.36 2.12 5.6 1.35 7.02 0.810001C8.44 0.270001 9.99 0 11.67 0C13.37 0 14.92 0.270001 16.32 0.810001C17.74 1.35 18.97 2.12 20.01 3.12C21.05 4.1 21.86 5.25 22.44 6.57C23.04 7.89 23.34 9.34 23.34 10.92C23.34 12.5 23.04 13.96 22.44 15.3C21.86 16.62 21.05 17.77 20.01 18.75C18.97 19.73 17.74 20.49 16.32 21.03C14.92 21.57 13.37 21.84 11.67 21.84ZM11.67 16.92C12.47 16.92 13.21 16.78 13.89 16.5C14.59 16.22 15.19 15.82 15.69 15.3C16.21 14.76 16.61 14.12 16.89 13.38C17.19 12.64 17.34 11.82 17.34 10.92C17.34 10 17.19 9.18 16.89 8.46C16.61 7.72 16.21 7.09 15.69 6.57C15.19 6.03 14.59 5.62 13.89 5.34C13.21 5.06 12.47 4.92 11.67 4.92C10.87 4.92 10.12 5.06 9.42 5.34C8.74 5.62 8.14 6.03 7.62 6.57C7.12 7.09 6.72 7.72 6.42 8.46C6.14 9.18 6 10 6 10.92C6 11.82 6.14 12.64 6.42 13.38C6.72 14.12 7.12 14.76 7.62 15.3C8.14 15.82 8.74 16.22 9.42 16.5C10.12 16.78 10.87 16.92 11.67 16.92Z" fill="white"/>
</svg>
