<svg width="136" height="22" viewBox="0 0 136 22" fill="none" xmlns="http://www.w3.org/2000/svg">
<path d="M117.749 20.9983V4.73828H123.419V13.2583L130.229 4.73828H135.479V20.9983H129.779V12.4483L123.029 20.9983H117.749Z" fill="white"/>
<path d="M104.65 20.9983V8.00828L105.88 9.26828H99.4004V4.73828H115.54V9.26828H109.06L110.32 8.00828V20.9983H104.65Z" fill="white"/>
<path d="M90.9579 21.2687C89.1579 21.2687 87.5479 20.9088 86.1279 20.1888C84.7279 19.4688 83.6279 18.4787 82.8279 17.2187C82.0279 15.9387 81.6279 14.4788 81.6279 12.8387C81.6279 11.1988 82.0279 9.74875 82.8279 8.48875C83.6279 7.22875 84.7279 6.24875 86.1279 5.54875C87.5479 4.82875 89.1579 4.46875 90.9579 4.46875C92.7979 4.46875 94.3879 4.85875 95.7279 5.63875C97.0679 6.41875 98.0179 7.51875 98.5779 8.93875L94.1679 11.1887C93.7879 10.4287 93.3179 9.87875 92.7579 9.53875C92.1979 9.17875 91.5879 8.99875 90.9279 8.99875C90.2679 8.99875 89.6679 9.14875 89.1279 9.44875C88.5879 9.74875 88.1579 10.1887 87.8379 10.7687C87.5379 11.3287 87.3879 12.0187 87.3879 12.8387C87.3879 13.6788 87.5379 14.3887 87.8379 14.9687C88.1579 15.5487 88.5879 15.9887 89.1279 16.2887C89.6679 16.5887 90.2679 16.7387 90.9279 16.7387C91.5879 16.7387 92.1979 16.5687 92.7579 16.2287C93.3179 15.8687 93.7879 15.3087 94.1679 14.5487L98.5779 16.7987C98.0179 18.2187 97.0679 19.3188 95.7279 20.0988C94.3879 20.8787 92.7979 21.2687 90.9579 21.2687Z" fill="white"/>
<path d="M70.9446 21.2687C69.1646 21.2687 67.5847 20.9088 66.2047 20.1888C64.8247 19.4688 63.7346 18.4787 62.9346 17.2187C62.1546 15.9387 61.7646 14.4788 61.7646 12.8387C61.7646 11.1988 62.1546 9.74875 62.9346 8.48875C63.7346 7.22875 64.8247 6.24875 66.2047 5.54875C67.5847 4.82875 69.1646 4.46875 70.9446 4.46875C72.7246 4.46875 74.3046 4.82875 75.6846 5.54875C77.0846 6.24875 78.1747 7.22875 78.9547 8.48875C79.7346 9.74875 80.1246 11.1988 80.1246 12.8387C80.1246 14.4788 79.7346 15.9387 78.9547 17.2187C78.1747 18.4787 77.0846 19.4688 75.6846 20.1888C74.3046 20.9088 72.7246 21.2687 70.9446 21.2687ZM70.9446 16.7387C71.6046 16.7387 72.1846 16.5887 72.6846 16.2887C73.2046 15.9887 73.6147 15.5487 73.9146 14.9687C74.2147 14.3687 74.3646 13.6588 74.3646 12.8387C74.3646 12.0187 74.2147 11.3287 73.9146 10.7687C73.6147 10.1887 73.2046 9.74875 72.6846 9.44875C72.1846 9.14875 71.6046 8.99875 70.9446 8.99875C70.3046 8.99875 69.7247 9.14875 69.2047 9.44875C68.7047 9.74875 68.2946 10.1887 67.9746 10.7687C67.6746 11.3287 67.5247 12.0187 67.5247 12.8387C67.5247 13.6588 67.6746 14.3687 67.9746 14.9687C68.2946 15.5487 68.7047 15.9887 69.2047 16.2887C69.7247 16.5887 70.3046 16.7387 70.9446 16.7387Z" fill="white"/>
<path d="M44.1553 20.9983V4.73828H52.8853C54.9853 4.73828 56.6253 5.10828 57.8053 5.84828C58.9853 6.56828 59.5753 7.60828 59.5753 8.96828C59.5753 10.2683 59.0253 11.3083 57.9253 12.0883C56.8453 12.8483 55.3853 13.2283 53.5453 13.2283L54.0553 12.0283C56.0353 12.0283 57.5253 12.3983 58.5253 13.1383C59.5453 13.8583 60.0553 14.9183 60.0553 16.3183C60.0553 17.7583 59.4953 18.8983 58.3753 19.7383C57.2753 20.5783 55.5853 20.9983 53.3053 20.9983H44.1553ZM49.2553 17.3083H52.7953C53.4953 17.3083 54.0153 17.1883 54.3553 16.9483C54.6953 16.6883 54.8653 16.3083 54.8653 15.8083C54.8653 15.2883 54.6953 14.9083 54.3553 14.6683C54.0353 14.4283 53.5353 14.3083 52.8553 14.3083H49.2553V17.3083ZM49.2553 11.2783H52.3753C53.0553 11.2783 53.5553 11.1583 53.8753 10.9183C54.1953 10.6583 54.3553 10.2883 54.3553 9.80828C54.3553 9.32828 54.1953 8.97828 53.8753 8.75828C53.5553 8.51828 53.0553 8.39828 52.3753 8.39828H49.2553V11.2783Z" fill="white"/>
<path d="M32.3021 21.2687C30.5221 21.2687 28.9421 20.9088 27.5621 20.1888C26.1821 19.4688 25.0921 18.4787 24.2921 17.2187C23.5121 15.9387 23.1221 14.4788 23.1221 12.8387C23.1221 11.1988 23.5121 9.74875 24.2921 8.48875C25.0921 7.22875 26.1821 6.24875 27.5621 5.54875C28.9421 4.82875 30.5221 4.46875 32.3021 4.46875C34.0821 4.46875 35.6621 4.82875 37.0421 5.54875C38.4421 6.24875 39.5321 7.22875 40.3121 8.48875C41.0921 9.74875 41.4821 11.1988 41.4821 12.8387C41.4821 14.4788 41.0921 15.9387 40.3121 17.2187C39.5321 18.4787 38.4421 19.4688 37.0421 20.1888C35.6621 20.9088 34.0821 21.2687 32.3021 21.2687ZM32.3021 16.7387C32.9621 16.7387 33.5421 16.5887 34.0421 16.2887C34.5621 15.9887 34.9721 15.5487 35.2721 14.9687C35.5721 14.3687 35.7221 13.6588 35.7221 12.8387C35.7221 12.0187 35.5721 11.3287 35.2721 10.7687C34.9721 10.1887 34.5621 9.74875 34.0421 9.44875C33.5421 9.14875 32.9621 8.99875 32.3021 8.99875C31.6621 8.99875 31.0821 9.14875 30.5621 9.44875C30.0621 9.74875 29.6521 10.1887 29.3321 10.7687C29.0321 11.3287 28.8821 12.0187 28.8821 12.8387C28.8821 13.6588 29.0321 14.3687 29.3321 14.9687C29.6521 15.5487 30.0621 15.9887 30.5621 16.2887C31.0821 16.5887 31.6621 16.7387 32.3021 16.7387Z" fill="white"/>
<path d="M14.1699 0H20.1099V21H14.1699V0ZM6.06988 21H0.129883V0H6.06988V21ZM14.5899 12.81H5.64988V7.89H14.5899V12.81Z" fill="white"/>
</svg>
