<svg width="153" height="27" viewBox="0 0 153 27" fill="none" xmlns="http://www.w3.org/2000/svg">
<path d="M147.05 20.9983V15.7183L147.8 16.5883H143.66C141.24 16.5883 139.33 16.0983 137.93 15.1183C136.53 14.1183 135.83 12.6983 135.83 10.8583C135.83 8.89828 136.56 7.38828 138.02 6.32828C139.48 5.26828 141.45 4.73828 143.93 4.73828H152.12V20.9983H147.05ZM135.56 20.9983L139.85 14.8183H145.61L141.59 20.9983H135.56ZM147.05 14.0083V7.82828L147.8 9.23828H144.05C143.29 9.23828 142.7 9.38828 142.28 9.68828C141.86 9.96828 141.65 10.4283 141.65 11.0683C141.65 12.3083 142.44 12.9283 144.02 12.9283H147.8L147.05 14.0083Z" fill="white"/>
<path d="M126.146 21.2687C124.226 21.2687 122.546 20.9088 121.106 20.1888C119.686 19.4488 118.576 18.4488 117.776 17.1888C116.996 15.9088 116.606 14.4587 116.606 12.8387C116.606 11.2188 116.986 9.77875 117.746 8.51875C118.526 7.23875 119.596 6.24875 120.956 5.54875C122.316 4.82875 123.846 4.46875 125.546 4.46875C127.146 4.46875 128.606 4.79875 129.926 5.45875C131.246 6.09875 132.296 7.04875 133.076 8.30875C133.856 9.56875 134.246 11.0987 134.246 12.8987C134.246 13.0987 134.236 13.3287 134.216 13.5887C134.196 13.8488 134.176 14.0887 134.156 14.3087H121.286V11.3087H131.126L128.966 12.1487C128.986 11.4087 128.846 10.7687 128.546 10.2287C128.266 9.68875 127.866 9.26875 127.346 8.96875C126.846 8.66875 126.256 8.51875 125.576 8.51875C124.896 8.51875 124.296 8.66875 123.776 8.96875C123.276 9.26875 122.886 9.69875 122.606 10.2587C122.326 10.7987 122.186 11.4387 122.186 12.1788V13.0487C122.186 13.8487 122.346 14.5387 122.666 15.1187C123.006 15.6987 123.486 16.1487 124.106 16.4687C124.726 16.7687 125.466 16.9187 126.326 16.9187C127.126 16.9187 127.806 16.8088 128.366 16.5887C128.946 16.3488 129.516 15.9888 130.076 15.5087L133.076 18.6287C132.296 19.4887 131.336 20.1487 130.196 20.6087C129.056 21.0487 127.706 21.2687 126.146 21.2687Z" fill="white"/>
<path d="M107.059 21.2687C105.679 21.2687 104.499 20.9688 103.519 20.3688C102.539 19.7488 101.789 18.8288 101.269 17.6088C100.769 16.3688 100.519 14.7887 100.519 12.8687C100.519 10.9287 100.759 9.34875 101.239 8.12875C101.719 6.88875 102.439 5.96875 103.399 5.36875C104.379 4.76875 105.599 4.46875 107.059 4.46875C108.539 4.46875 109.879 4.81875 111.079 5.51875C112.299 6.19875 113.259 7.16875 113.959 8.42875C114.679 9.66875 115.039 11.1487 115.039 12.8687C115.039 14.5887 114.679 16.0787 113.959 17.3387C113.259 18.5988 112.299 19.5687 111.079 20.2487C109.879 20.9287 108.539 21.2687 107.059 21.2687ZM96.8291 26.8187V4.73875H102.259V7.49875L102.229 12.8687L102.529 18.2688V26.8187H96.8291ZM105.859 16.7387C106.499 16.7387 107.069 16.5887 107.569 16.2887C108.089 15.9887 108.499 15.5487 108.799 14.9687C109.119 14.3887 109.279 13.6887 109.279 12.8687C109.279 12.0487 109.119 11.3487 108.799 10.7687C108.499 10.1887 108.089 9.74875 107.569 9.44875C107.069 9.14875 106.499 8.99875 105.859 8.99875C105.219 8.99875 104.639 9.14875 104.119 9.44875C103.619 9.74875 103.209 10.1887 102.889 10.7687C102.589 11.3487 102.439 12.0487 102.439 12.8687C102.439 13.6887 102.589 14.3887 102.889 14.9687C103.209 15.5487 103.619 15.9887 104.119 16.2887C104.639 16.5887 105.219 16.7387 105.859 16.7387Z" fill="white"/>
<path d="M85.7168 21.2687C83.7968 21.2687 82.1168 20.9088 80.6768 20.1888C79.2568 19.4488 78.1468 18.4488 77.3468 17.1888C76.5668 15.9088 76.1768 14.4587 76.1768 12.8387C76.1768 11.2188 76.5568 9.77875 77.3168 8.51875C78.0968 7.23875 79.1668 6.24875 80.5268 5.54875C81.8868 4.82875 83.4168 4.46875 85.1168 4.46875C86.7168 4.46875 88.1768 4.79875 89.4968 5.45875C90.8168 6.09875 91.8668 7.04875 92.6468 8.30875C93.4268 9.56875 93.8168 11.0987 93.8168 12.8987C93.8168 13.0987 93.8068 13.3287 93.7868 13.5887C93.7668 13.8488 93.7468 14.0887 93.7268 14.3087H80.8568V11.3087H90.6968L88.5368 12.1487C88.5568 11.4087 88.4168 10.7687 88.1168 10.2287C87.8368 9.68875 87.4368 9.26875 86.9168 8.96875C86.4168 8.66875 85.8268 8.51875 85.1468 8.51875C84.4668 8.51875 83.8668 8.66875 83.3468 8.96875C82.8468 9.26875 82.4568 9.69875 82.1768 10.2587C81.8968 10.7987 81.7568 11.4387 81.7568 12.1788V13.0487C81.7568 13.8487 81.9168 14.5387 82.2368 15.1187C82.5768 15.6987 83.0568 16.1487 83.6768 16.4687C84.2968 16.7687 85.0368 16.9187 85.8968 16.9187C86.6968 16.9187 87.3768 16.8088 87.9368 16.5887C88.5168 16.3488 89.0868 15.9888 89.6468 15.5087L92.6468 18.6287C91.8668 19.4887 90.9068 20.1487 89.7668 20.6087C88.6268 21.0487 87.2768 21.2687 85.7168 21.2687Z" fill="white"/>
<path d="M55.3066 20.9983L55.5466 16.3483C55.6866 16.3683 55.8166 16.3883 55.9366 16.4083C56.0566 16.4083 56.1666 16.4083 56.2666 16.4083C56.7666 16.4083 57.1566 16.2883 57.4366 16.0483C57.7366 15.7883 57.9566 15.4383 58.0966 14.9983C58.2566 14.5583 58.3666 14.0483 58.4266 13.4683C58.5066 12.8683 58.5566 12.2183 58.5766 11.5183L58.8166 4.73828H73.5166V20.9983H67.8166V7.97828L69.0766 9.26828H62.5666L63.7666 7.91828L63.5866 11.7583C63.5266 13.2183 63.3966 14.5483 63.1966 15.7483C63.0166 16.9283 62.7266 17.9383 62.3266 18.7783C61.9266 19.6183 61.3766 20.2683 60.6766 20.7283C59.9966 21.1683 59.1266 21.3883 58.0666 21.3883C57.6866 21.3883 57.2566 21.3483 56.7766 21.2683C56.3166 21.2083 55.8266 21.1183 55.3066 20.9983Z" fill="white"/>
<path d="M34.916 20.9983L35.156 16.3483C35.296 16.3683 35.426 16.3883 35.546 16.4083C35.666 16.4083 35.776 16.4083 35.876 16.4083C36.376 16.4083 36.766 16.2883 37.046 16.0483C37.346 15.7883 37.566 15.4383 37.706 14.9983C37.866 14.5583 37.976 14.0483 38.036 13.4683C38.116 12.8683 38.166 12.2183 38.186 11.5183L38.426 4.73828H53.126V20.9983H47.426V7.97828L48.686 9.26828H42.176L43.376 7.91828L43.196 11.7583C43.136 13.2183 43.006 14.5483 42.806 15.7483C42.626 16.9283 42.336 17.9383 41.936 18.7783C41.536 19.6183 40.986 20.2683 40.286 20.7283C39.606 21.1683 38.736 21.3883 37.676 21.3883C37.296 21.3883 36.866 21.3483 36.386 21.2683C35.926 21.2083 35.436 21.1183 34.916 20.9983Z" fill="white"/>
<path d="M27.8268 20.9987V17.9687L27.4368 17.2187V11.6387C27.4368 10.7387 27.1568 10.0487 26.5968 9.56875C26.0568 9.06875 25.1868 8.81875 23.9868 8.81875C23.2068 8.81875 22.4168 8.94875 21.6168 9.20875C20.8168 9.44875 20.1368 9.78875 19.5768 10.2287L17.6568 6.35875C18.5768 5.75875 19.6768 5.29875 20.9568 4.97875C22.2568 4.63875 23.5468 4.46875 24.8268 4.46875C27.4668 4.46875 29.5068 5.07875 30.9468 6.29875C32.4068 7.49875 33.1368 9.38875 33.1368 11.9687V20.9987H27.8268ZM23.0268 21.2687C21.7268 21.2687 20.6268 21.0487 19.7268 20.6087C18.8268 20.1687 18.1368 19.5687 17.6568 18.8087C17.1968 18.0487 16.9668 17.1987 16.9668 16.2587C16.9668 15.2587 17.2168 14.3988 17.7168 13.6788C18.2368 12.9388 19.0268 12.3787 20.0868 11.9987C21.1468 11.5987 22.5168 11.3987 24.1968 11.3987H28.0368V14.3687H24.9768C24.0568 14.3687 23.4068 14.5187 23.0268 14.8187C22.6668 15.1187 22.4868 15.5188 22.4868 16.0188C22.4868 16.5188 22.6768 16.9187 23.0568 17.2187C23.4368 17.5187 23.9568 17.6687 24.6168 17.6687C25.2368 17.6687 25.7968 17.5187 26.2968 17.2187C26.8168 16.8987 27.1968 16.4187 27.4368 15.7787L28.2168 17.8787C27.9168 18.9987 27.3268 19.8488 26.4468 20.4288C25.5868 20.9888 24.4468 21.2687 23.0268 21.2687Z" fill="white"/>
<path d="M0.479492 21V0H15.8695L15.8395 4.71H5.00949L6.32949 3.39V21H0.479492Z" fill="white"/>
</svg>
