<svg width="157" height="22" viewBox="0 0 157 22" fill="none" xmlns="http://www.w3.org/2000/svg">
<path d="M151.336 20.9983V4.73828H157.006V20.9983H151.336ZM143.506 9.77828C145.666 9.79828 147.276 10.2783 148.336 11.2183C149.416 12.1583 149.956 13.4983 149.956 15.2383C149.956 17.0383 149.336 18.4583 148.096 19.4983C146.856 20.5183 145.086 21.0183 142.786 20.9983H134.206V4.73828H139.876V9.77828H143.506ZM142.216 17.0983C142.896 17.0983 143.426 16.9383 143.806 16.6183C144.186 16.2983 144.376 15.8083 144.376 15.1483C144.376 14.4683 144.186 13.9883 143.806 13.7083C143.446 13.4283 142.916 13.2783 142.216 13.2583H139.876V17.0683L142.216 17.0983Z" fill="white"/>
<path d="M121.107 20.9983V8.00828L122.337 9.26828H115.857V4.73828H131.997V9.26828H125.517L126.777 8.00828V20.9983H121.107Z" fill="white"/>
<path d="M108.926 20.9983L103.976 13.4083L108.566 10.7083L115.646 20.9983H108.926ZM97.5264 20.9983V4.73828H103.226V20.9983H97.5264ZM101.546 15.2083V10.7383H107.426V15.2083H101.546ZM109.136 13.4983L103.796 12.9583L109.256 4.73828H115.286L109.136 13.4983Z" fill="white"/>
<path d="M88.7868 20.9987V17.9687L88.3968 17.2187V11.6387C88.3968 10.7387 88.1168 10.0487 87.5568 9.56875C87.0168 9.06875 86.1468 8.81875 84.9468 8.81875C84.1668 8.81875 83.3768 8.94875 82.5768 9.20875C81.7768 9.44875 81.0968 9.78875 80.5368 10.2287L78.6168 6.35875C79.5368 5.75875 80.6368 5.29875 81.9168 4.97875C83.2168 4.63875 84.5068 4.46875 85.7868 4.46875C88.4268 4.46875 90.4668 5.07875 91.9068 6.29875C93.3668 7.49875 94.0968 9.38875 94.0968 11.9687V20.9987H88.7868ZM83.9868 21.2687C82.6868 21.2687 81.5868 21.0487 80.6868 20.6087C79.7868 20.1687 79.0968 19.5687 78.6168 18.8087C78.1568 18.0487 77.9268 17.1987 77.9268 16.2587C77.9268 15.2587 78.1768 14.3988 78.6768 13.6788C79.1968 12.9388 79.9868 12.3787 81.0468 11.9987C82.1068 11.5987 83.4768 11.3987 85.1568 11.3987H88.9968V14.3687H85.9368C85.0168 14.3687 84.3668 14.5187 83.9868 14.8187C83.6268 15.1187 83.4468 15.5188 83.4468 16.0188C83.4468 16.5188 83.6368 16.9187 84.0168 17.2187C84.3968 17.5187 84.9168 17.6687 85.5768 17.6687C86.1968 17.6687 86.7568 17.5187 87.2568 17.2187C87.7768 16.8987 88.1568 16.4187 88.3968 15.7787L89.1768 17.8787C88.8768 18.9987 88.2868 19.8488 87.4068 20.4288C86.5468 20.9888 85.4068 21.2687 83.9868 21.2687Z" fill="white"/>
<path d="M66.0586 20.9983V8.00828L67.2886 9.26828H60.8086V4.73828H76.9486V9.26828H70.4686L71.7286 8.00828V20.9983H66.0586Z" fill="white"/>
<path d="M41.3643 20.9983V4.73828H47.0343V10.7683H52.8843V4.73828H58.5843V20.9983H52.8843V15.2983H47.0343V20.9983H41.3643Z" fill="white"/>
<path d="M29.5111 21.2687C27.7311 21.2687 26.1511 20.9088 24.7711 20.1888C23.3911 19.4688 22.3011 18.4787 21.5011 17.2187C20.7211 15.9387 20.3311 14.4788 20.3311 12.8387C20.3311 11.1988 20.7211 9.74875 21.5011 8.48875C22.3011 7.22875 23.3911 6.24875 24.7711 5.54875C26.1511 4.82875 27.7311 4.46875 29.5111 4.46875C31.2911 4.46875 32.8711 4.82875 34.2511 5.54875C35.6511 6.24875 36.7411 7.22875 37.5211 8.48875C38.3011 9.74875 38.6911 11.1988 38.6911 12.8387C38.6911 14.4788 38.3011 15.9387 37.5211 17.2187C36.7411 18.4787 35.6511 19.4688 34.2511 20.1888C32.8711 20.9088 31.2911 21.2687 29.5111 21.2687ZM29.5111 16.7387C30.1711 16.7387 30.7511 16.5887 31.2511 16.2887C31.7711 15.9887 32.1811 15.5487 32.4811 14.9687C32.7811 14.3687 32.9311 13.6588 32.9311 12.8387C32.9311 12.0187 32.7811 11.3287 32.4811 10.7687C32.1811 10.1887 31.7711 9.74875 31.2511 9.44875C30.7511 9.14875 30.1711 8.99875 29.5111 8.99875C28.8711 8.99875 28.2911 9.14875 27.7711 9.44875C27.2711 9.74875 26.8611 10.1887 26.5411 10.7687C26.2411 11.3287 26.0911 12.0187 26.0911 12.8387C26.0911 13.6588 26.2411 14.3687 26.5411 14.9687C26.8611 15.5487 27.2711 15.9887 27.7711 16.2887C28.2911 16.5887 28.8711 16.7387 29.5111 16.7387Z" fill="white"/>
<path d="M13.4991 21L7.58914 11.01L12.3591 8.19L20.1891 21H13.4991ZM0.119141 21V0H6.02914V21H0.119141ZM4.31914 12.96V8.16H11.9391V12.96H4.31914ZM12.9291 11.13L7.43914 10.53L13.8891 0H20.1291L12.9291 11.13Z" fill="white"/>
</svg>
