<svg width="77" height="22" viewBox="0 0 77 22" fill="none" xmlns="http://www.w3.org/2000/svg">
<path d="M67.358 15.5221L72.3055 6.25391H76.2309V21.0012H72.3055V11.7194L67.358 21.0012H63.4326V6.25391H67.358V15.5221Z" fill="#163C51"/>
<path d="M56.6999 6.25391V21.0012H52.7609V6.25391H56.6999ZM61.443 6.25391V9.29332H48.0859V6.25391H61.443Z" fill="#163C51"/>
<path d="M37.2906 15.5213L42.2381 6.25312H46.1635V21.0004H42.2381V11.7186L37.2906 21.0004H33.3652V6.25312H37.2906V15.5213ZM41.7884 0.324219H44.5824C44.5824 1.10565 44.3871 1.80076 43.9964 2.40956C43.6147 3.00926 43.0695 3.48175 42.3608 3.82704C41.6521 4.16324 40.8161 4.33134 39.853 4.33134C38.39 4.33134 37.2315 3.95879 36.3774 3.2137C35.5323 2.46862 35.1098 1.50546 35.1098 0.324219H37.8903C37.8903 0.796713 38.0357 1.21923 38.3264 1.59178C38.6263 1.96432 39.1351 2.15059 39.853 2.15059C40.5617 2.15059 41.0614 1.96432 41.3522 1.59178C41.643 1.21923 41.7884 0.796713 41.7884 0.324219Z" fill="#163C51"/>
<path d="M16.9961 13.7766V13.4904C16.9961 12.4091 17.1506 11.4142 17.4595 10.5055C17.7684 9.58778 18.2182 8.79272 18.8088 8.12032C19.3995 7.44793 20.1264 6.92546 20.9896 6.55291C21.8528 6.17128 22.8432 5.98047 23.9608 5.98047C25.0785 5.98047 26.0734 6.17128 26.9457 6.55291C27.818 6.92546 28.5495 7.44793 29.1401 8.12032C29.7398 8.79272 30.1941 9.58778 30.5031 10.5055C30.812 11.4142 30.9665 12.4091 30.9665 13.4904V13.7766C30.9665 14.8488 30.812 15.8438 30.5031 16.7615C30.1941 17.6702 29.7398 18.4652 29.1401 19.1467C28.5495 19.8191 27.8226 20.3416 26.9594 20.7141C26.0962 21.0867 25.1057 21.2729 23.9881 21.2729C22.8705 21.2729 21.8755 21.0867 21.0032 20.7141C20.14 20.3416 19.4085 19.8191 18.8088 19.1467C18.2182 18.4652 17.7684 17.6702 17.4595 16.7615C17.1506 15.8438 16.9961 14.8488 16.9961 13.7766ZM20.9214 13.4904V13.7766C20.9214 14.3945 20.976 14.9715 21.085 15.5076C21.194 16.0437 21.3667 16.5162 21.6029 16.9251C21.8483 17.3249 22.1663 17.6384 22.557 17.8655C22.9477 18.0927 23.4247 18.2063 23.9881 18.2063C24.5333 18.2063 25.0012 18.0927 25.392 17.8655C25.7827 17.6384 26.0962 17.3249 26.3324 16.9251C26.5687 16.5162 26.7413 16.0437 26.8503 15.5076C26.9685 14.9715 27.0275 14.3945 27.0275 13.7766V13.4904C27.0275 12.8907 26.9685 12.3273 26.8503 11.8003C26.7413 11.2642 26.5641 10.7917 26.3188 10.3828C26.0825 9.96487 25.769 9.63776 25.3783 9.40151C24.9876 9.16526 24.5151 9.04714 23.9608 9.04714C23.4066 9.04714 22.9341 9.16526 22.5434 9.40151C22.1617 9.63776 21.8483 9.96487 21.6029 10.3828C21.3667 10.7917 21.194 11.2642 21.085 11.8003C20.976 12.3273 20.9214 12.8907 20.9214 13.4904Z" fill="#163C51"/>
<path d="M7.80992 12.2917H2.71243L2.68517 9.48397H6.96488C7.71905 9.48397 8.33693 9.38856 8.81851 9.19774C9.30009 8.99784 9.65901 8.71162 9.89525 8.33908C10.1406 7.95745 10.2633 7.49404 10.2633 6.94885C10.2633 6.33097 10.1451 5.83122 9.90888 5.44959C9.68172 5.06796 9.32281 4.79082 8.83214 4.61818C8.35056 4.44554 7.72814 4.35922 6.96488 4.35922H4.12991V21.001H0.0410156V1.15625H6.96488C8.11886 1.15625 9.15017 1.26529 10.0588 1.48336C10.9765 1.70144 11.7534 2.03309 12.3895 2.47833C13.0255 2.92356 13.5117 3.48692 13.8479 4.1684C14.1841 4.8408 14.3521 5.64041 14.3521 6.56722C14.3521 7.385 14.1659 8.13917 13.7933 8.82974C13.4299 9.52031 12.8529 10.0837 12.0624 10.5198C11.2809 10.956 10.2587 11.1968 8.9957 11.2422L7.80992 12.2917ZM7.63273 21.001H1.5948L3.18947 17.8117H7.63273C8.35056 17.8117 8.93664 17.6981 9.39096 17.4709C9.84528 17.2347 10.1815 16.9167 10.3996 16.5169C10.6176 16.1171 10.7267 15.6582 10.7267 15.1403C10.7267 14.5587 10.6267 14.0544 10.4268 13.6274C10.236 13.2003 9.92706 12.8732 9.49999 12.646C9.07293 12.4098 8.50957 12.2917 7.80992 12.2917H3.87095L3.89821 9.48397H8.80488L9.74533 10.588C10.9538 10.5698 11.9261 10.7833 12.6621 11.2286C13.4072 11.6647 13.9478 12.2326 14.284 12.9323C14.6293 13.6319 14.8019 14.3816 14.8019 15.1812C14.8019 16.4533 14.5248 17.5255 13.9705 18.3978C13.4162 19.261 12.603 19.9107 11.5308 20.3468C10.4677 20.7829 9.16834 21.001 7.63273 21.001Z" fill="#163C51"/>
</svg>
