<svg width="644" height="94" viewBox="0 0 644 94" fill="none" xmlns="http://www.w3.org/2000/svg">
<path d="M619.334 47.9676L574.15 92.1276H565.958V2.39962C573.766 2.39962 581.574 2.39962 589.382 2.39962V46.3036L634.694 2.01562H643.014V91.9996C635.206 91.9996 627.27 91.9996 619.334 91.9996V47.9676Z" fill="#F85F37"/>
<path d="M507.139 22.8784H485.123C485.123 15.9664 485.123 9.18244 485.123 2.39844H551.683C551.683 9.18244 551.683 15.9664 551.683 22.8784H529.795V91.9984C522.243 91.9984 514.691 91.9984 507.139 91.9984V22.8784Z" fill="#F85F37"/>
<path d="M387.954 47.199C388.082 16.735 411.122 1.375 433.906 1.375C452.466 1.375 472.562 11.487 476.018 35.423C468.21 35.423 461.298 35.423 453.49 35.423C450.29 26.335 443.506 22.239 433.906 22.239C420.466 22.239 411.634 32.351 411.634 47.199C411.634 60.383 420.338 71.903 433.906 72.031C443.634 72.031 451.442 67.167 453.874 57.567C461.554 57.567 468.594 57.567 476.402 57.567C473.074 82.911 452.978 92.895 433.906 92.895C411.122 93.023 388.082 77.663 387.954 47.199Z" fill="#F85F37"/>
<path d="M376.105 47.3273C376.105 109.407 284.201 109.407 284.201 47.3273C284.201 -14.6247 376.105 -14.6247 376.105 47.3273ZM307.753 47.3273C307.753 79.8393 352.681 79.8393 352.681 47.3273C352.681 15.0713 307.753 15.0713 307.753 47.3273Z" fill="#F85F37"/>
<path d="M268.131 29.9184C268.131 35.2944 265.443 41.8224 261.091 45.4064C268.387 49.1184 271.843 55.7744 271.843 63.7104C271.715 79.3264 262.243 91.9984 243.939 91.9984H201.955V2.39844H240.227C255.715 2.39844 268.131 14.4304 268.131 29.9184ZM242.275 56.4144H224.099V71.6464H242.403C251.619 71.6464 251.491 56.4144 242.275 56.4144ZM238.435 22.8784H224.099V37.3424H238.563C247.651 37.3424 247.651 22.8784 238.435 22.8784Z" fill="#F85F37"/>
<path d="M184.73 47.3273C184.73 109.407 92.8262 109.407 92.8262 47.3273C92.8262 -14.6247 184.73 -14.6247 184.73 47.3273ZM116.378 47.3273C116.378 79.8393 161.306 79.8393 161.306 47.3273C161.306 15.0713 116.378 15.0713 116.378 47.3273Z" fill="#F85F37"/>
<path d="M75.454 2.39844V91.9984C67.646 91.9984 59.838 91.9984 52.03 91.9984V56.0304H24.382V91.9984C16.574 91.9984 8.63801 91.9984 0.958008 91.9984V2.39844C8.63801 2.39844 16.574 2.39844 24.382 2.39844V34.9104H52.03V2.39844C59.838 2.39844 67.646 2.39844 75.454 2.39844Z" fill="#F85F37"/>
</svg>
