<svg width="560" height="91" viewBox="0 0 560 91" fill="none" xmlns="http://www.w3.org/2000/svg">
<path d="M483.811 87.6724L501.347 59.2564C478.691 43.8964 485.091 1.52839 520.291 1.40039C533.347 1.40039 546.659 1.40039 559.587 1.40039C559.587 31.3524 559.587 61.1764 559.587 91.0004C552.163 91.0004 544.355 91.0004 536.675 91.0004V64.6324H524.771L509.411 91.0004H483.811V87.6724ZM520.291 44.0244H536.675C536.675 36.8564 536.675 29.1764 536.675 21.8804C531.299 21.8804 525.667 21.7524 520.291 21.8804C507.235 22.0084 507.875 44.0244 520.291 44.0244Z" fill="#F85F37"/>
<path d="M471.829 1.40039C471.829 8.0564 471.829 14.9684 471.829 21.8804C458.517 21.8804 451.861 21.8804 438.677 21.8804V34.5524H469.141C469.141 41.3364 469.141 48.1204 469.141 54.9044H438.677C438.677 60.1524 438.677 65.2724 438.677 70.6484C451.861 70.6484 459.541 70.6484 472.981 70.6484C472.981 77.3044 472.981 84.2164 472.981 91.0004C451.989 91.0004 436.629 91.0004 415.893 91.0004C415.893 61.0484 415.893 31.0964 415.893 1.40039C436.629 1.40039 450.837 1.40039 471.829 1.40039Z" fill="#F85F37"/>
<path d="M349.93 91.0004C342.25 91.0004 334.57 91.0004 327.018 91.0004C327.018 61.1764 327.018 31.3524 327.018 1.40039C339.946 1.40039 353.258 1.40039 366.442 1.40039C409.322 1.52839 409.322 68.0884 366.442 68.0884H349.93V91.0004ZM366.314 47.4804C378.858 47.4804 379.626 22.0084 366.314 21.8804C360.938 21.7524 355.178 21.8804 349.93 21.8804C349.93 29.1764 349.93 40.1844 349.93 47.4804H366.314Z" fill="#F85F37"/>
<path d="M306.204 1.40039C306.204 8.0564 306.204 14.9684 306.204 21.8804C292.892 21.8804 286.236 21.8804 273.052 21.8804V34.5524H303.516C303.516 41.3364 303.516 48.1204 303.516 54.9044H273.052C273.052 60.1524 273.052 65.2724 273.052 70.6484C286.236 70.6484 293.916 70.6484 307.356 70.6484C307.356 77.3044 307.356 84.2164 307.356 91.0004C286.364 91.0004 271.004 91.0004 250.268 91.0004C250.268 61.0484 250.268 31.0964 250.268 1.40039C271.004 1.40039 285.212 1.40039 306.204 1.40039Z" fill="#F85F37"/>
<path d="M193.063 38.5201L170.279 91.0001H147.879V87.6721L188.199 0.248047H198.055L238.503 87.6721V91.0001H216.103L193.063 38.5201Z" fill="#F85F37"/>
<path d="M119.728 91.0001L114.48 79.7361H79.1519L73.9039 91.0001H51.5039V87.6721L91.8239 0.248047H101.68L142.128 87.6721V91.0001H119.728ZM107.056 60.1521L96.6879 36.6001L86.5759 60.1521H107.056Z" fill="#F85F37"/>
<path d="M23.6886 21.8804V91.0004C16.0086 91.0004 8.20058 91.0004 0.392578 91.0004V1.40039C18.6966 1.40039 37.8966 1.40039 56.2006 1.40039C56.2006 8.95239 56.2006 14.2004 56.2006 21.8804H23.6886Z" fill="#F85F37"/>
</svg>
