<svg width="1182" height="94" viewBox="0 0 1182 94" fill="none" xmlns="http://www.w3.org/2000/svg">
<path d="M1133.24 2.40039V29.1524H1149.75C1192.63 29.1524 1192.63 91.8724 1149.75 92.0004C1136.57 92.0004 1123.26 92.0004 1110.33 92.0004C1110.33 62.0484 1110.33 32.2244 1110.33 2.40039C1117.88 2.40039 1125.56 2.40039 1133.24 2.40039ZM1149.63 49.7604H1133.24C1133.24 57.0564 1133.24 64.2244 1133.24 71.5204C1138.49 71.5204 1144.25 71.6484 1149.63 71.5204C1162.94 71.3924 1162.17 49.7604 1149.63 49.7604Z" fill="#F85F37"/>
<path d="M1050.85 24.9283H1030.5C1029.73 8.41633 1043.17 0.736328 1058.79 0.736328C1078.37 0.736328 1088.23 13.6643 1088.23 26.7203C1088.23 32.6083 1085.67 39.3923 1080.42 43.3603C1089.51 48.2243 1093.35 55.3923 1093.35 65.5043C1093.35 81.3763 1081.83 93.6643 1058.79 93.6643C1039.33 93.6643 1027.43 82.9123 1027.43 62.8163H1047.53C1047.53 69.8563 1052.13 74.3363 1058.79 74.3363C1074.15 74.3363 1074.15 53.9843 1058.79 53.9843H1052.52V35.2963H1058.53C1069.8 35.2963 1069.54 19.6803 1058.79 19.6803C1053.8 19.6803 1050.85 21.6003 1050.85 24.9283Z" fill="#F85F37"/>
<path d="M935.248 88.6724L952.784 60.2564C930.128 44.8964 936.528 2.52839 971.728 2.40039C984.784 2.40039 998.096 2.40039 1011.02 2.40039C1011.02 32.3524 1011.02 62.1764 1011.02 92.0004C1003.6 92.0004 995.792 92.0004 988.112 92.0004V65.6324H976.208L960.848 92.0004H935.248V88.6724ZM971.728 45.0244H988.112C988.112 37.8564 988.112 30.1764 988.112 22.8804C982.736 22.8804 977.104 22.7524 971.728 22.8804C958.672 23.0084 959.312 45.0244 971.728 45.0244Z" fill="#F85F37"/>
<path d="M922.506 29.9204C922.506 35.2964 919.818 41.8244 915.466 45.4084C922.762 49.1204 926.218 55.7764 926.218 63.7124C926.09 79.3284 916.618 92.0004 898.314 92.0004H856.33V2.40039H894.602C910.09 2.40039 922.506 14.4324 922.506 29.9204ZM896.65 56.4164H878.474V71.6484H896.778C905.994 71.6484 905.866 56.4164 896.65 56.4164ZM892.81 22.8804H878.474V37.3444H892.938C902.026 37.3444 902.026 22.8804 892.81 22.8804Z" fill="#F85F37"/>
<path d="M750.329 47.199C750.457 16.735 773.497 1.375 796.281 1.375C814.841 1.375 834.937 11.487 838.393 35.423C830.585 35.423 823.673 35.423 815.865 35.423C812.665 26.335 805.881 22.239 796.281 22.239C782.841 22.239 774.009 32.351 774.009 47.199C774.009 60.383 782.713 71.903 796.281 72.031C806.009 72.031 813.817 67.167 816.249 57.567C823.929 57.567 830.969 57.567 838.777 57.567C835.449 82.911 815.353 92.895 796.281 92.895C773.497 93.023 750.457 77.663 750.329 47.199Z" fill="#F85F37"/>
<path d="M621.873 88.6724L639.409 60.2564C616.753 44.8964 623.153 2.52839 658.353 2.40039C671.409 2.40039 684.721 2.40039 697.649 2.40039C697.649 32.3524 697.649 62.1764 697.649 92.0004C690.225 92.0004 682.417 92.0004 674.737 92.0004V65.6324H662.833L647.473 92.0004H621.873V88.6724ZM658.353 45.0244H674.737C674.737 37.8564 674.737 30.1764 674.737 22.8804C669.361 22.8804 663.729 22.7524 658.353 22.8804C645.297 23.0084 645.937 45.0244 658.353 45.0244Z" fill="#F85F37"/>
<path d="M593.79 92.0001L588.542 80.7361H553.214L547.966 92.0001H525.566V88.6721L565.886 1.24805H575.742L616.19 88.6721V92.0001H593.79ZM581.118 61.1521L570.75 37.6001L560.638 61.1521H581.118Z" fill="#F85F37"/>
<path d="M513.954 2.40039V92.0004C506.146 92.0004 498.338 92.0004 490.53 92.0004V56.0324H462.882V92.0004C455.074 92.0004 447.138 92.0004 439.458 92.0004V2.40039C447.138 2.40039 455.074 2.40039 462.882 2.40039V34.9124H490.53V2.40039C498.338 2.40039 506.146 2.40039 513.954 2.40039Z" fill="#F85F37"/>
<path d="M380.639 22.8804H358.623C358.623 15.9684 358.623 9.18439 358.623 2.40039H425.183C425.183 9.18439 425.183 15.9684 425.183 22.8804H403.295V92.0004C395.743 92.0004 388.191 92.0004 380.639 92.0004V22.8804Z" fill="#F85F37"/>
<path d="M338.54 92.0001L333.292 80.7361H297.964L292.716 92.0001H270.316V88.6721L310.636 1.24805H320.492L360.94 88.6721V92.0001H338.54ZM325.868 61.1521L315.5 37.6001L305.388 61.1521H325.868Z" fill="#F85F37"/>
<path d="M220.992 92.0004C213.312 92.0004 205.632 92.0004 198.08 92.0004C198.08 62.1764 198.08 32.3524 198.08 2.40039C211.008 2.40039 224.32 2.40039 237.504 2.40039C280.384 2.52839 280.384 69.0884 237.504 69.0884H220.992V92.0004ZM237.376 48.4804C249.92 48.4804 250.688 23.0084 237.376 22.8804C232 22.7524 226.24 22.8804 220.992 22.8804C220.992 30.1764 220.992 41.1844 220.992 48.4804H237.376Z" fill="#F85F37"/>
<path d="M148.501 53.9844H132.117V71.5204C137.365 71.5204 143.125 71.5204 148.501 71.5204C161.173 71.5204 161.045 53.9844 148.501 53.9844ZM132.117 33.7604H148.629C191.509 33.7604 191.509 91.8724 148.629 92.0004H109.205V2.40039H173.589V22.8804H132.117V33.7604Z" fill="#F85F37"/>
<path d="M91.9802 47.3273C91.9802 109.407 0.0761719 109.407 0.0761719 47.3273C0.0761719 -14.6247 91.9802 -14.6247 91.9802 47.3273ZM23.6282 47.3273C23.6282 79.8393 68.5562 79.8393 68.5562 47.3273C68.5562 15.0713 23.6282 15.0713 23.6282 47.3273Z" fill="#F85F37"/>
</svg>
