<svg width="441" height="59" viewBox="0 0 441 59" fill="none" xmlns="http://www.w3.org/2000/svg">
<path d="M409.745 57H395.425V1H420.065C422.945 1 425.585 1.48 427.985 2.44C430.385 3.4 432.358 4.68 433.905 6.28C435.505 7.88 436.838 9.74667 437.905 11.88C439.025 13.96 439.691 16.1467 439.905 18.44C440.171 20.7333 440.171 23.0267 439.905 25.32C439.691 27.6133 439.025 29.8 437.905 31.88C436.838 33.96 435.505 35.8 433.905 37.4C432.358 39 430.385 40.28 427.985 41.24C425.585 42.2 422.945 42.68 420.065 42.68H409.745V57ZM419.985 29.8C421.478 29.8 422.731 29.2667 423.745 28.2C424.811 27.08 425.478 25.7467 425.745 24.2C426.011 22.6 426.038 21.0267 425.825 19.48C425.611 17.9333 424.971 16.6 423.905 15.48C422.891 14.36 421.585 13.8 419.985 13.8C418.971 13.8 417.878 13.8 416.705 13.8C415.585 13.8 414.305 13.8 412.865 13.8C411.478 13.8 410.438 13.8 409.745 13.8V29.8H419.985Z" fill="#F85F37"/>
<path d="M382.416 1V13.8H361.696V21.72H380.736V34.44H361.696V44.28H383.136V57H347.456V1H382.416Z" fill="#F85F37"/>
<path d="M310.774 13.8H297.014V1H338.614V13.8H324.934V57H310.774V13.8Z" fill="#F85F37"/>
<path d="M288.237 1V57H273.597V34.52H256.317V57H241.677V1H256.317V21.32H273.597V1H288.237Z" fill="#F85F37"/>
<path d="M228.351 16.4391C230.004 20.1724 230.831 24.3857 230.831 29.0791C230.831 33.7724 230.004 38.0124 228.351 41.7991C226.697 45.5857 224.511 48.6524 221.791 50.9991C219.124 53.2924 216.057 55.0791 212.591 56.3591C209.177 57.5857 205.684 58.1991 202.111 58.1991C198.537 58.1991 195.017 57.5857 191.551 56.3591C188.137 55.0791 185.071 53.2924 182.351 50.9991C179.684 48.6524 177.524 45.5857 175.871 41.7991C174.217 38.0124 173.391 33.7724 173.391 29.0791C173.391 24.3857 174.217 20.1724 175.871 16.4391C177.524 12.6524 179.684 9.6124 182.351 7.31906C185.071 4.97239 188.137 3.18573 191.551 1.95906C195.017 0.679062 198.537 0.0390625 202.111 0.0390625C205.684 0.0390625 209.177 0.679062 212.591 1.95906C216.057 3.18573 219.124 4.97239 221.791 7.31906C224.511 9.6124 226.697 12.6524 228.351 16.4391ZM188.111 29.0791C188.111 32.3324 188.804 35.1591 190.191 37.5591C191.577 39.9057 193.311 41.6124 195.391 42.6791C197.471 43.7457 199.711 44.2791 202.111 44.2791C204.564 44.2791 206.831 43.7457 208.911 42.6791C210.991 41.6124 212.724 39.9057 214.111 37.5591C215.497 35.1591 216.191 32.3324 216.191 29.0791C216.191 25.8791 215.497 23.1057 214.111 20.7591C212.724 18.3591 210.991 16.6524 208.911 15.6391C206.831 14.5724 204.564 14.0391 202.111 14.0391C199.711 14.0391 197.471 14.5724 195.391 15.6391C193.311 16.6524 191.577 18.3591 190.191 20.7591C188.804 23.1057 188.111 25.8791 188.111 29.0791Z" fill="#F85F37"/>
<path d="M141.078 24.1993L126.838 56.9993H112.838V54.9193L138.038 0.279297H144.198L169.478 54.9193V56.9993H155.478L141.078 24.1993Z" fill="#F85F37"/>
<path d="M106.632 16.4391C108.285 20.1724 109.112 24.3857 109.112 29.0791C109.112 33.7724 108.285 38.0124 106.632 41.7991C104.979 45.5857 102.792 48.6524 100.072 50.9991C97.4052 53.2924 94.3385 55.0791 90.8719 56.3591C87.4585 57.5857 83.9652 58.1991 80.3919 58.1991C76.8185 58.1991 73.2985 57.5857 69.8319 56.3591C66.4185 55.0791 63.3519 53.2924 60.6319 50.9991C57.9652 48.6524 55.8052 45.5857 54.1519 41.7991C52.4985 38.0124 51.6719 33.7724 51.6719 29.0791C51.6719 24.3857 52.4985 20.1724 54.1519 16.4391C55.8052 12.6524 57.9652 9.6124 60.6319 7.31906C63.3519 4.97239 66.4185 3.18573 69.8319 1.95906C73.2985 0.679062 76.8185 0.0390625 80.3919 0.0390625C83.9652 0.0390625 87.4585 0.679062 90.8719 1.95906C94.3385 3.18573 97.4052 4.97239 100.072 7.31906C102.792 9.6124 104.979 12.6524 106.632 16.4391ZM66.3919 29.0791C66.3919 32.3324 67.0852 35.1591 68.4719 37.5591C69.8585 39.9057 71.5919 41.6124 73.6719 42.6791C75.7519 43.7457 77.9919 44.2791 80.3919 44.2791C82.8452 44.2791 85.1119 43.7457 87.1919 42.6791C89.2719 41.6124 91.0052 39.9057 92.3919 37.5591C93.7785 35.1591 94.4719 32.3324 94.4719 29.0791C94.4719 25.8791 93.7785 23.1057 92.3919 20.7591C91.0052 18.3591 89.2719 16.6524 87.1919 15.6391C85.1119 14.5724 82.8452 14.0391 80.3919 14.0391C77.9919 14.0391 75.7519 14.5724 73.6719 15.6391C71.5919 16.6524 69.8585 18.3591 68.4719 20.7591C67.0852 23.1057 66.3919 25.8791 66.3919 29.0791Z" fill="#F85F37"/>
<path d="M41.6286 18.2C41.6286 19.9067 41.2286 21.6667 40.4286 23.48C39.6286 25.2933 38.5619 26.76 37.2286 27.88C41.7086 30.1733 43.9486 33.9867 43.9486 39.32C43.8952 44.44 42.3486 48.68 39.3086 52.04C36.2686 55.3467 32.0019 57 26.5086 57H0.268555V1H24.1886C29.0419 1 33.1486 2.68 36.5086 6.04C39.9219 9.34667 41.6286 13.4 41.6286 18.2ZM25.4686 34.76H14.1086V44.28H25.5486C27.3619 44.28 28.6152 43.5067 29.3086 41.96C30.0552 40.36 30.0552 38.76 29.3086 37.16C28.5619 35.56 27.2819 34.76 25.4686 34.76ZM23.0686 13.8H14.1086V22.84H23.1486C24.9619 22.84 26.2152 22.0933 26.9086 20.6C27.6552 19.0533 27.6552 17.5333 26.9086 16.04C26.1619 14.5467 24.8819 13.8 23.0686 13.8Z" fill="#F85F37"/>
</svg>
