<svg width="417" height="94" viewBox="0 0 417 94" fill="none" xmlns="http://www.w3.org/2000/svg">
<path d="M327.953 47.199C328.081 16.735 351.121 1.375 373.905 1.375C392.465 1.375 412.561 11.487 416.017 35.423C408.209 35.423 401.297 35.423 393.489 35.423C390.289 26.335 383.505 22.239 373.905 22.239C360.465 22.239 351.633 32.351 351.633 47.199C351.633 60.383 360.337 71.903 373.905 72.031C383.633 72.031 391.441 67.167 393.873 57.567C401.553 57.567 408.593 57.567 416.401 57.567C413.073 82.911 392.977 92.895 373.905 92.895C351.121 93.023 328.081 77.663 327.953 47.199Z" fill="#F85F37"/>
<path d="M299.164 91.9981L293.916 80.7341H258.588L253.34 91.9981H230.94V88.6701L271.26 1.24609H281.116L321.564 88.6701V91.9981H299.164ZM286.492 61.1501L276.124 37.5981L266.012 61.1501H286.492Z" fill="#F85F37"/>
<path d="M219.328 2.39844V91.9984C211.52 91.9984 203.712 91.9984 195.904 91.9984V56.0304H168.256V91.9984C160.448 91.9984 152.512 91.9984 144.832 91.9984V2.39844C152.512 2.39844 160.448 2.39844 168.256 2.39844V34.9104H195.904V2.39844C203.712 2.39844 211.52 2.39844 219.328 2.39844Z" fill="#F85F37"/>
<path d="M92.2292 47.3273C92.2292 109.407 0.325195 109.407 0.325195 47.3273C0.325195 -14.6247 92.2292 -14.6247 92.2292 47.3273ZM23.8772 47.3273C23.8772 79.8393 68.8052 79.8393 68.8052 47.3273C68.8052 15.0713 23.8772 15.0713 23.8772 47.3273Z" fill="#F85F37"/>
</svg>
