<svg width="231" height="110" viewBox="0 0 231 110" fill="none" xmlns="http://www.w3.org/2000/svg">
<path d="M208.267 83.5263L226.123 64.0703H230.219V108.998C226.315 108.998 222.411 108.998 218.507 108.998V89.0303L208.971 99.0143H207.691L198.219 89.0303V108.998C194.315 108.998 190.411 108.998 186.507 108.998V64.0703H190.731L208.267 83.5263Z" fill="white"/>
<path d="M163.26 86.9838L140.668 109.064H136.572V64.1998C140.476 64.1998 144.38 64.1998 148.284 64.1998V86.1518L170.94 64.0078H175.1V109C171.196 109 167.228 109 163.26 109V86.9838Z" fill="white"/>
<path d="M107.162 74.4392H96.1543C96.1543 70.9832 96.1543 67.5912 96.1543 64.1992H129.434C129.434 67.5912 129.434 70.9832 129.434 74.4392H118.49V108.999C114.714 108.999 110.938 108.999 107.162 108.999V74.4392Z" fill="white"/>
<path d="M91.9579 86.6617C91.9579 117.702 46.0059 117.702 46.0059 86.6617C46.0059 55.6857 91.9579 55.6857 91.9579 86.6617ZM57.7819 86.6617C57.7819 102.918 80.2459 102.918 80.2459 86.6617C80.2459 70.5337 57.7819 70.5337 57.7819 86.6617Z" fill="white"/>
<path d="M21.6956 94.9192H21.3116L13.1196 108.999H0.767578V107.271L15.2316 85.2552L2.30358 65.9272V64.1992H14.2076L21.3116 75.8472H21.6316L28.7996 64.1992H40.6396V65.9272L27.7116 85.2552L42.2396 107.271V108.999H29.8876L21.6956 94.9192Z" fill="white"/>
<path d="M60.7578 0.199219H72.2138V13.5752H80.4698C101.91 13.5752 101.91 44.9352 80.4698 44.9992H60.7578V0.199219ZM80.4058 23.8792H72.2138V34.7592C74.8378 34.7592 77.7178 34.8232 80.4058 34.7592C87.0618 34.6952 86.6778 23.8792 80.4058 23.8792ZM104.982 44.9992V0.199219H116.438V44.9992H104.982Z" fill="white"/>
<path d="M27.3918 19.5263L45.2478 0.0703125H49.3438V44.9983C45.4398 44.9983 41.5358 44.9983 37.6318 44.9983V25.0303L28.0958 35.0143H26.8158L17.3438 25.0303V44.9983C13.4398 44.9983 9.53584 44.9983 5.63184 44.9983V0.0703125H9.85584L27.3918 19.5263Z" fill="white"/>
</svg>
