<svg width="309" height="110" viewBox="0 0 309 110" fill="none" xmlns="http://www.w3.org/2000/svg">
<path d="M286.579 83.5263L304.435 64.0703H308.531V108.998C304.627 108.998 300.723 108.998 296.819 108.998V89.0303L287.283 99.0143H286.003L276.531 89.0303V108.998C272.627 108.998 268.723 108.998 264.819 108.998V64.0703H269.043L286.579 83.5263Z" fill="white"/>
<path d="M254.476 64.1992C254.476 67.5272 254.476 70.9832 254.476 74.4392C247.82 74.4392 244.492 74.4392 237.9 74.4392V80.7752H253.132C253.132 84.1672 253.132 87.5592 253.132 90.9512H237.9C237.9 93.5752 237.9 96.1352 237.9 98.8232C244.492 98.8232 248.332 98.8232 255.052 98.8232C255.052 102.151 255.052 105.607 255.052 108.999C244.556 108.999 236.876 108.999 226.508 108.999C226.508 94.0232 226.508 79.0472 226.508 64.1992C236.876 64.1992 243.98 64.1992 254.476 64.1992Z" fill="white"/>
<path d="M209.425 108.997L206.801 103.365H189.137L186.513 108.997H175.313V107.333L195.473 63.6211H200.401L220.625 107.333V108.997H209.425ZM203.089 93.5731L197.905 81.7971L192.849 93.5731H203.089Z" fill="white"/>
<path d="M154.288 74.4392H143.28C143.28 70.9832 143.28 67.5912 143.28 64.1992H176.56C176.56 67.5912 176.56 70.9832 176.56 74.4392H165.616V108.999C161.84 108.999 158.064 108.999 154.288 108.999V74.4392Z" fill="white"/>
<path d="M124.385 86.9838L101.793 109.064H97.6973V64.1998C101.601 64.1998 105.505 64.1998 109.409 64.1998V86.1518L132.065 64.0078H136.225V109C132.321 109 128.353 109 124.385 109V86.9838Z" fill="white"/>
<path d="M86.2239 108.999H74.5759V93.3832H72.2719C56.7199 93.3832 51.0879 85.4472 51.0879 69.7032V64.1992H62.8639V69.7032C62.8639 77.3192 63.4399 82.5032 72.3359 82.5032H74.5759V64.1992H86.2239V108.999Z" fill="white"/>
<path d="M0.0078125 86.5995C0.0718124 71.3675 11.5918 63.6875 22.9838 63.6875C32.2638 63.6875 42.3118 68.7435 44.0398 80.7115C40.1358 80.7115 36.6798 80.7115 32.7758 80.7115C31.1758 76.1675 27.7838 74.1195 22.9838 74.1195C16.2638 74.1195 11.8478 79.1755 11.8478 86.5995C11.8478 93.1915 16.1998 98.9515 22.9838 99.0155C27.8478 99.0155 31.7518 96.5835 32.9678 91.7835C36.8078 91.7835 40.3278 91.7835 44.2318 91.7835C42.5678 104.455 32.5198 109.447 22.9838 109.447C11.5918 109.511 0.0718124 101.832 0.0078125 86.5995Z" fill="white"/>
<path d="M57.7578 0.199219H69.2138V13.5752H77.4698C98.9098 13.5752 98.9098 44.9352 77.4698 44.9992H57.7578V0.199219ZM77.4058 23.8792H69.2138V34.7592C71.8378 34.7592 74.7178 34.8232 77.4058 34.7592C84.0618 34.6952 83.6778 23.8792 77.4058 23.8792ZM101.982 44.9992V0.199219H113.438V44.9992H101.982Z" fill="white"/>
<path d="M24.3918 19.5263L42.2478 0.0703125H46.3438V44.9983C42.4398 44.9983 38.5358 44.9983 34.6318 44.9983V25.0303L25.0958 35.0143H23.8158L14.3438 25.0303V44.9983C10.4398 44.9983 6.53584 44.9983 2.63184 44.9983V0.0703125H6.85584L24.3918 19.5263Z" fill="white"/>
</svg>
