<svg width="219" height="110" viewBox="0 0 219 110" fill="none" xmlns="http://www.w3.org/2000/svg">
<path d="M196.329 83.5263L214.185 64.0703H218.281V108.998C214.377 108.998 210.473 108.998 206.569 108.998V89.0303L197.033 99.0143H195.753L186.281 89.0303V108.998C182.377 108.998 178.473 108.998 174.569 108.998V64.0703H178.793L196.329 83.5263Z" fill="white"/>
<path d="M164.227 64.1992C164.227 67.5272 164.227 70.9832 164.227 74.4392C157.571 74.4392 154.243 74.4392 147.651 74.4392V80.7752H162.883C162.883 84.1672 162.883 87.5592 162.883 90.9512H147.651C147.651 93.5752 147.651 96.1352 147.651 98.8232C154.243 98.8232 158.083 98.8232 164.803 98.8232C164.803 102.151 164.803 105.607 164.803 108.999C154.307 108.999 146.627 108.999 136.259 108.999C136.259 94.0232 136.259 79.0472 136.259 64.1992C146.627 64.1992 153.731 64.1992 164.227 64.1992Z" fill="white"/>
<path d="M119.176 108.997L116.552 103.365H98.8885L96.2645 108.997H85.0645V107.333L105.224 63.6211H110.152L130.376 107.333V108.997H119.176ZM112.84 93.5731L107.656 81.7971L102.6 93.5731H112.84Z" fill="white"/>
<path d="M79.2578 64.1992V108.999C75.3538 108.999 71.4498 108.999 67.5458 108.999V91.0152H53.7218V108.999C49.8178 108.999 45.8498 108.999 42.0098 108.999V64.1992C45.8498 64.1992 49.8178 64.1992 53.7218 64.1992V80.4552H67.5458V64.1992C71.4498 64.1992 75.3538 64.1992 79.2578 64.1992Z" fill="white"/>
<path d="M12.2081 75.4632H2.03209C1.64809 67.2072 8.36809 63.3672 16.1761 63.3672C25.9681 63.3672 30.8961 69.8312 30.8961 76.3592C30.8961 79.3032 29.6161 82.6952 26.9921 84.6792C31.5361 87.1112 33.4561 90.6952 33.4561 95.7512C33.4561 103.687 27.6961 109.831 16.1761 109.831C6.44809 109.831 0.496094 104.455 0.496094 94.4072H10.5441C10.5441 97.9272 12.8481 100.167 16.1761 100.167C23.8561 100.167 23.8561 89.9912 16.1761 89.9912H13.0401V80.6472H16.0481C21.6801 80.6472 21.5521 72.8392 16.1761 72.8392C13.6801 72.8392 12.2081 73.7992 12.2081 75.4632Z" fill="white"/>
<path d="M58.7588 0.199219H70.2148V13.5752H78.4708C99.9108 13.5752 99.9108 44.9352 78.4708 44.9992H58.7588V0.199219ZM78.4068 23.8792H70.2148V34.7592C72.8388 34.7592 75.7188 34.8232 78.4068 34.7592C85.0628 34.6952 84.6788 23.8792 78.4068 23.8792ZM102.983 44.9992V0.199219H114.439V44.9992H102.983Z" fill="white"/>
<path d="M25.3918 19.5263L43.2478 0.0703125H47.3438V44.9983C43.4398 44.9983 39.5358 44.9983 35.6318 44.9983V25.0303L26.0958 35.0143H24.8158L15.3438 25.0303V44.9983C11.4398 44.9983 7.53584 44.9983 3.63184 44.9983V0.0703125H7.85584L25.3918 19.5263Z" fill="white"/>
</svg>
