<svg width="34" height="33" viewBox="0 0 34 33" fill="none" xmlns="http://www.w3.org/2000/svg">
<path d="M30.0191 12.562L28.857 17.0959C28.2664 19.4001 27.0604 21.0215 25.6438 22.1617C25.9454 20.5892 25.9386 18.8377 25.4467 16.9182L24.2587 12.2833C24.1883 12.0085 24.1194 11.7398 24.0516 11.4809C24.2871 11.3741 24.5749 11.3403 24.875 11.4207C25.3957 11.5602 25.7123 11.9791 25.7519 12.3862C25.8069 12.953 26.311 13.368 26.8779 13.3129C27.4448 13.2579 27.8597 12.7538 27.8047 12.1869C27.6789 10.891 26.7276 9.78182 25.4088 9.42845C24.7452 9.25063 24.0665 9.28508 23.4595 9.49819L23.4366 9.43686C23.128 8.61684 22.6768 7.74733 21.8257 7.10808C21.3603 6.7585 20.8344 6.49605 20.2721 6.33664C19.229 6.04091 18.2611 6.23097 17.4346 6.50597C16.6669 6.76142 15.7718 7.1807 14.7884 7.64134L14.6898 7.68751C13.061 8.45026 12.4092 8.75105 11.7416 8.96296C11.539 9.02729 11.3347 9.08573 11.1292 9.13822L11.5783 7.39648C12.1841 5.03303 12.487 3.85129 13.2779 3.25721C13.5431 3.05804 13.8403 2.91027 14.1554 2.82093C15.0954 2.55443 16.1638 3.05474 18.3005 4.05535C19.8827 4.7963 20.6738 5.16677 21.4994 5.4288C21.7864 5.51991 22.0762 5.60109 22.3683 5.67221C23.2085 5.87677 24.0709 5.96945 25.7955 6.15481C28.1245 6.40512 29.289 6.53028 29.9756 7.2524C30.2058 7.49449 30.3925 7.77782 30.5269 8.0889C30.9277 9.01683 30.6248 10.1986 30.0191 12.562Z" fill="white"/>
<path fill-rule="evenodd" clip-rule="evenodd" d="M23.4488 17.4303L22.2867 12.8965C21.6809 10.533 21.378 9.35129 20.5871 8.75721C20.3219 8.55804 20.0247 8.41027 19.7096 8.32093C18.7696 8.05443 17.7012 8.55474 15.5645 9.55535C13.9823 10.2963 13.1911 10.6668 12.3656 10.9288C12.0786 11.0199 11.7888 11.1011 11.4967 11.1722C10.6565 11.3768 9.79416 11.4694 8.06954 11.6548C5.74051 11.9051 4.57597 12.0303 3.88938 12.7524C3.65921 12.9945 3.47248 13.2778 3.3381 13.5889C2.93726 14.5168 3.24015 15.6986 3.84593 18.062L5.00801 22.5959C6.37402 27.9253 10.9158 29.6018 13.9678 30.1204C14.8989 30.2786 15.3644 30.3578 16.7783 29.9617C18.1922 29.5656 18.5576 29.2538 19.2883 28.6301C21.6833 26.5856 24.8148 22.7598 23.4488 17.4303ZM8.66355 18.381C8.70306 17.9739 9.01966 17.555 9.54038 17.4155C10.0611 17.276 10.5447 17.4805 10.7825 17.8132C11.1136 18.2766 11.7577 18.3839 12.2211 18.0528C12.6845 17.7217 12.7918 17.0776 12.4607 16.6142C11.7037 15.5548 10.3254 15.0699 9.00657 15.4233C7.68776 15.7766 6.73651 16.8858 6.6107 18.1817C6.55567 18.7486 6.97061 19.2527 7.53748 19.3078C8.10436 19.3628 8.60852 18.9479 8.66355 18.381ZM16.6329 16.2453C16.6724 15.8383 16.989 15.4193 17.5097 15.2798C18.0305 15.1403 18.5141 15.3448 18.7518 15.6775C19.0829 16.1409 19.727 16.2482 20.1904 15.9171C20.6539 15.586 20.7611 14.9419 20.43 14.4785C19.6731 13.4191 18.2947 12.9342 16.9759 13.2876C15.6571 13.641 14.7059 14.7501 14.5801 16.046C14.525 16.6129 14.94 17.117 15.5068 17.1721C16.0737 17.2271 16.5779 16.8122 16.6329 16.2453ZM19.1711 21.4895C19.6285 21.8289 19.724 22.4748 19.3846 22.9322C19.0483 23.3853 18.4111 23.4833 17.9546 23.1549L17.9413 23.1463C17.9216 23.1339 17.8829 23.1106 17.826 23.0814C17.712 23.0227 17.5265 22.9406 17.2744 22.8721C16.7772 22.737 15.9963 22.6477 14.9565 22.9263C13.9167 23.2049 13.2851 23.6727 12.9221 24.0383C12.738 24.2237 12.6183 24.3876 12.549 24.4953C12.5144 24.5491 12.4925 24.5886 12.4816 24.6092L12.4744 24.6234C12.2432 25.136 11.6424 25.3697 11.1246 25.1454C10.602 24.9191 10.3618 24.3119 10.5881 23.7893L11.5344 24.1991C10.5881 23.7893 10.5891 23.7871 10.5891 23.7871L10.5901 23.7848L10.5923 23.7797L10.5978 23.7676L10.6123 23.7366C10.6236 23.7128 10.6383 23.6831 10.6568 23.6481C10.6937 23.578 10.7455 23.4866 10.8146 23.3791C10.9529 23.1643 11.1612 22.8845 11.4587 22.5849C12.0588 21.9807 13.0047 21.314 14.4227 20.9341C15.8406 20.5541 16.9932 20.6585 17.8151 20.8817C18.2225 20.9924 18.5428 21.1306 18.7699 21.2475C18.8835 21.306 18.9741 21.3593 19.0411 21.4015C19.0745 21.4226 19.1022 21.441 19.1239 21.4559L19.152 21.4755L19.1627 21.4833L19.1672 21.4866L19.1692 21.4881L19.1711 21.4895Z" fill="white"/>
</svg>
