<svg width="31" height="30" viewBox="0 0 31 30" fill="none" xmlns="http://www.w3.org/2000/svg">
<path fill-rule="evenodd" clip-rule="evenodd" d="M14.7803 26.2505H16.0303C20.7443 26.2505 23.1013 26.2505 24.5658 24.786C26.0303 23.3216 26.0303 20.9646 26.0303 16.2505V9.99805C25.8488 10.0006 25.594 10.0005 25.4053 10.0005H5.40527C5.21659 10.0005 4.96178 10.0006 4.78027 9.99805V16.2505C4.78027 20.9646 4.78027 23.3216 6.24474 24.786C7.70921 26.2505 10.0662 26.2505 14.7803 26.2505ZM11.7504 13.8971C11.6553 14.1268 11.6553 14.4181 11.6553 15.0005C11.6553 15.5829 11.6553 15.8741 11.7504 16.1038C11.8773 16.4101 12.1206 16.6535 12.4269 16.7803C12.6566 16.8755 12.9478 16.8755 13.5303 16.8755H17.2803C17.8627 16.8755 18.1539 16.8755 18.3836 16.7803C18.6899 16.6535 18.9333 16.4101 19.0601 16.1038C19.1553 15.8741 19.1553 15.5829 19.1553 15.0005C19.1553 14.4181 19.1553 14.1268 19.0601 13.8971C18.9333 13.5908 18.6899 13.3475 18.3836 13.2206C18.1539 13.1255 17.8627 13.1255 17.2803 13.1255H13.5303C12.9478 13.1255 12.6566 13.1255 12.4269 13.2206C12.1206 13.3475 11.8773 13.5908 11.7504 13.8971Z" fill="white"/>
<path d="M2.90527 6.25C2.90527 5.07149 2.90527 4.48223 3.27139 4.11612C3.63751 3.75 4.22676 3.75 5.40527 3.75H25.4053C26.5838 3.75 27.173 3.75 27.5392 4.11612C27.9053 4.48223 27.9053 5.07149 27.9053 6.25C27.9053 7.42851 27.9053 8.01777 27.5392 8.38388C27.173 8.75 26.5838 8.75 25.4053 8.75H5.40527C4.22676 8.75 3.63751 8.75 3.27139 8.38388C2.90527 8.01777 2.90527 7.42851 2.90527 6.25Z" fill="white"/>
</svg>
