<svg width="34" height="33" viewBox="0 0 34 33" fill="none" xmlns="http://www.w3.org/2000/svg">
<path d="M19.6565 6.1875C19.6565 8.08598 18.1174 9.625 16.219 9.625C14.3205 9.625 12.7815 8.08598 12.7815 6.1875C12.7815 4.28902 14.3205 2.75 16.219 2.75C18.1174 2.75 19.6565 4.28902 19.6565 6.1875Z" fill="white"/>
<path fill-rule="evenodd" clip-rule="evenodd" d="M17.6322 14.7857C17.5799 14.7819 17.5143 14.7812 17.2775 14.7812H15.7772L15.6519 16.0346C15.4126 18.4277 15.3294 19.3893 15.5432 20.2992C15.7569 21.2091 16.2597 22.033 17.5396 24.0692L21.0801 29.7012C21.3832 30.1833 21.238 30.82 20.7558 31.1231C20.2737 31.4262 19.637 31.281 19.3339 30.7988L15.7935 25.1668C15.7598 25.1132 15.7265 25.0603 15.6935 25.0078C14.5456 23.1824 13.8373 22.056 13.5353 20.7709C13.2334 19.4859 13.366 18.1619 13.5809 16.0162C13.5871 15.9546 13.5933 15.8924 13.5996 15.8294L13.7043 14.7825C13.0152 14.7861 12.5054 14.7994 12.0939 14.8493C11.5752 14.9123 11.3333 15.0218 11.162 15.1593C10.9906 15.2968 10.8312 15.5091 10.6572 16.0018C10.4739 16.521 10.316 17.2233 10.0811 18.2806L9.66316 20.1612C9.53961 20.7172 8.98874 21.0677 8.43276 20.9442C7.87678 20.8206 7.52623 20.2698 7.64978 19.7138L8.08112 17.7728C8.29905 16.7919 8.48252 15.9662 8.71242 15.3151C8.95639 14.6241 9.28871 14.0179 9.87141 13.5505C10.4541 13.083 11.118 12.8901 11.8454 12.8019C12.5309 12.7187 13.3767 12.7187 14.3815 12.7187L17.2775 12.7188C17.289 12.7188 17.3003 12.7187 17.3114 12.7187C17.4985 12.7187 17.6438 12.7187 17.7798 12.7284C19.3115 12.8383 20.6247 13.8636 21.1027 15.3229C21.1451 15.4524 21.1804 15.5934 21.2257 15.775L21.2339 15.8078C21.3111 16.1165 21.3341 16.2041 21.3553 16.2654C21.6444 17.0987 22.5174 17.5779 23.3756 17.3744C23.4387 17.3595 23.525 17.3318 23.8268 17.2312L24.8304 16.8967C25.3707 16.7166 25.9547 17.0086 26.1348 17.5489C26.3149 18.0892 26.0229 18.6732 25.4826 18.8533L24.479 19.1878C24.464 19.1929 24.4491 19.1978 24.4345 19.2027C24.198 19.2816 24.0164 19.3422 23.8515 19.3813C21.9633 19.829 20.0427 18.7747 19.4067 16.9414C19.3512 16.7812 19.3048 16.5955 19.2444 16.3537C19.2406 16.3387 19.2368 16.3235 19.233 16.308C19.1756 16.0784 19.159 16.0149 19.1427 15.965C18.9254 15.3016 18.3285 14.8356 17.6322 14.7857ZM13.3535 23.2044C13.8274 23.5204 13.9554 24.1606 13.6395 24.6345L9.51452 30.822C9.1986 31.2959 8.55833 31.424 8.08444 31.1081C7.61055 30.7921 7.48249 30.1519 7.79842 29.678L11.9234 23.4905C12.2393 23.0166 12.8796 22.8885 13.3535 23.2044Z" fill="white"/>
<path d="M21.1027 15.3229C20.6247 13.8636 19.3115 12.8383 17.7798 12.7284C17.6438 12.7187 17.4985 12.7187 17.3114 12.7187C17.3003 12.7187 17.289 12.7188 17.2775 12.7188L14.3815 12.7187C13.3767 12.7187 12.5309 12.7187 11.8454 12.8019C11.118 12.8901 10.4541 13.083 9.87141 13.5505C9.28871 14.0179 8.95639 14.6241 8.71242 15.3151C8.48252 15.9662 8.29905 16.7919 8.08112 17.7728L7.64978 19.7138C7.52623 20.2698 7.87678 20.8206 8.43276 20.9442C8.98874 21.0677 9.53961 20.7172 9.66316 20.1612L10.0811 18.2806C10.316 17.2233 10.4739 16.521 10.6572 16.0018C10.8312 15.5091 10.9906 15.2968 11.162 15.1593C11.3333 15.0218 11.5752 14.9123 12.0939 14.8493C12.5054 14.7994 13.0152 14.7861 13.7043 14.7825L13.5996 15.8294C13.5933 15.8924 13.5871 15.9546 13.5809 16.0162C13.366 18.1619 13.2334 19.4859 13.5353 20.7709C13.8373 22.056 14.5456 23.1824 15.6935 25.0078C15.7265 25.0603 15.7598 25.1132 15.7935 25.1668L19.3339 30.7988C19.637 31.281 20.2737 31.4262 20.7558 31.1231C21.238 30.82 21.3832 30.1833 21.0801 29.7012L17.5396 24.0692C16.2597 22.033 15.7569 21.2091 15.5432 20.2992C15.3294 19.3893 15.4126 18.4277 15.6519 16.0346L15.7772 14.7812H17.2775C17.5143 14.7812 17.5799 14.7819 17.6323 14.7857C18.3285 14.8356 18.9254 15.3016 19.1427 15.965C19.159 16.0149 19.1756 16.0784 19.233 16.308C19.2368 16.3235 19.2406 16.3387 19.2444 16.3537C19.3048 16.5955 19.3512 16.7812 19.4067 16.9414C20.0427 18.7747 21.9633 19.829 23.8515 19.3813C24.0164 19.3422 24.198 19.2816 24.4345 19.2027C24.4491 19.1978 24.464 19.1929 24.479 19.1878L25.4826 18.8533C26.0229 18.6732 26.3149 18.0892 26.1348 17.5489C25.9547 17.0086 25.3707 16.7166 24.8304 16.8967L23.8268 17.2312C23.525 17.3318 23.4387 17.3595 23.3756 17.3744C22.5174 17.5779 21.6444 17.0987 21.3553 16.2654M21.1027 15.3229L20.1227 15.6439M21.1027 15.3229C21.1451 15.4524 21.1804 15.5934 21.2257 15.775L21.2339 15.8078C21.3111 16.1165 21.3341 16.2041 21.3553 16.2654M21.3553 16.2654L20.381 16.6034M19.6565 6.1875C19.6565 8.08598 18.1174 9.625 16.219 9.625C14.3205 9.625 12.7815 8.08598 12.7815 6.1875C12.7815 4.28902 14.3205 2.75 16.219 2.75C18.1174 2.75 19.6565 4.28902 19.6565 6.1875ZM13.6395 24.6345C13.9554 24.1606 13.8274 23.5204 13.3535 23.2044C12.8796 22.8885 12.2393 23.0166 11.9234 23.4905L7.79842 29.678C7.48249 30.1519 7.61055 30.7921 8.08444 31.1081C8.55833 31.424 9.1986 31.2959 9.51452 30.822L13.6395 24.6345Z" stroke="white" stroke-linecap="round"/>
</svg>
