<svg width="34" height="33" viewBox="0 0 34 33" fill="none" xmlns="http://www.w3.org/2000/svg">
<path d="M30.0181 12.562L28.856 17.0959C28.2654 19.4001 27.0594 21.0215 25.6428 22.1617C25.9444 20.5892 25.9377 18.8377 25.4457 16.9182L24.2577 12.2833C24.1873 12.0085 24.1184 11.7398 24.0506 11.4809C24.2861 11.3741 24.5739 11.3403 24.874 11.4207C25.3948 11.5602 25.7114 11.9791 25.7509 12.3862C25.8059 12.953 26.3101 13.368 26.8769 13.3129C27.4438 13.2579 27.8588 12.7538 27.8037 12.1869C27.6779 10.891 26.7267 9.78182 25.4079 9.42845C24.7442 9.25063 24.0655 9.28508 23.4585 9.49819L23.4356 9.43686C23.127 8.61684 22.6758 7.74733 21.8247 7.10808C21.3593 6.7585 20.8334 6.49605 20.2711 6.33664C19.2281 6.04091 18.2601 6.23097 17.4336 6.50597C16.6659 6.76142 15.7708 7.1807 14.7874 7.64134L14.6888 7.68751C13.06 8.45026 12.4082 8.75105 11.7406 8.96296C11.538 9.02729 11.3338 9.08573 11.1282 9.13822L11.5773 7.39648C12.1831 5.03303 12.486 3.85129 13.277 3.25721C13.5421 3.05804 13.8393 2.91027 14.1545 2.82093C15.0944 2.55443 16.1628 3.05474 18.2995 4.05535C19.8818 4.7963 20.6729 5.16677 21.4984 5.4288C21.7854 5.51991 22.0752 5.60109 22.3673 5.67221C23.2076 5.87677 24.0699 5.96945 25.7945 6.15481C28.1235 6.40512 29.288 6.53028 29.9746 7.2524C30.2048 7.49449 30.3915 7.77782 30.5259 8.0889C30.9268 9.01683 30.6239 10.1986 30.0181 12.562Z" fill="#163D51"/>
<path fill-rule="evenodd" clip-rule="evenodd" d="M23.4478 17.4303L22.2857 12.8965C21.6799 10.533 21.377 9.35129 20.5861 8.75721C20.3209 8.55804 20.0237 8.41027 19.7086 8.32093C18.7686 8.05443 17.7002 8.55474 15.5635 9.55535C13.9813 10.2963 13.1902 10.6668 12.3647 10.9288C12.0777 11.0199 11.7879 11.1011 11.4957 11.1722C10.6555 11.3768 9.79318 11.4694 8.06856 11.6548C5.73954 11.9051 4.575 12.0303 3.88841 12.7524C3.65823 12.9945 3.47151 13.2778 3.33713 13.5889C2.93628 14.5168 3.23917 15.6986 3.84495 18.062L5.00703 22.5959C6.37304 27.9253 10.9148 29.6018 13.9668 30.1204C14.8979 30.2786 15.3635 30.3578 16.7774 29.9617C18.1912 29.5656 18.5566 29.2538 19.2873 28.6301C21.6823 26.5856 24.8138 22.7598 23.4478 17.4303ZM8.66257 18.381C8.70209 17.9739 9.01868 17.555 9.5394 17.4155C10.0601 17.276 10.5438 17.4805 10.7815 17.8132C11.1126 18.2766 11.7567 18.3839 12.2201 18.0528C12.6835 17.7217 12.7908 17.0776 12.4597 16.6142C11.7028 15.5548 10.3244 15.0699 9.00559 15.4233C7.68679 15.7766 6.73553 16.8858 6.60972 18.1817C6.55469 18.7486 6.96963 19.2527 7.53651 19.3078C8.10339 19.3628 8.60754 18.9479 8.66257 18.381ZM16.6319 16.2453C16.6714 15.8383 16.988 15.4193 17.5088 15.2798C18.0295 15.1403 18.5131 15.3448 18.7509 15.6775C19.082 16.1409 19.726 16.2482 20.1895 15.9171C20.6529 15.586 20.7601 14.9419 20.429 14.4785C19.6721 13.4191 18.2938 12.9342 16.9749 13.2876C15.6561 13.641 14.7049 14.7501 14.5791 16.046C14.5241 16.6129 14.939 17.117 15.5059 17.1721C16.0727 17.2271 16.5769 16.8122 16.6319 16.2453ZM19.1702 21.4895C19.6275 21.8289 19.7231 22.4748 19.3836 22.9322C19.0473 23.3853 18.4102 23.4833 17.9536 23.1549L17.9403 23.1463C17.9206 23.1339 17.8819 23.1106 17.825 23.0814C17.7111 23.0227 17.5255 22.9406 17.2734 22.8721C16.7762 22.737 15.9953 22.6477 14.9555 22.9263C13.9158 23.2049 13.2842 23.6727 12.9211 24.0383C12.737 24.2237 12.6174 24.3876 12.548 24.4953C12.5134 24.5491 12.4915 24.5886 12.4807 24.6092L12.4734 24.6234C12.2422 25.136 11.6414 25.3697 11.1236 25.1454C10.601 24.9191 10.3608 24.3119 10.5872 23.7893L11.5335 24.1991C10.5872 23.7893 10.5881 23.7871 10.5881 23.7871L10.5891 23.7848L10.5914 23.7797L10.5968 23.7676L10.6113 23.7366C10.6226 23.7128 10.6374 23.6831 10.6558 23.6481C10.6927 23.578 10.7445 23.4866 10.8137 23.3791C10.9519 23.1643 11.1602 22.8845 11.4577 22.5849C12.0578 21.9807 13.0038 21.314 14.4217 20.9341C15.8397 20.5541 16.9922 20.6585 17.8141 20.8817C18.2215 20.9924 18.5418 21.1306 18.7689 21.2475C18.8825 21.306 18.9731 21.3593 19.0401 21.4015C19.0736 21.4226 19.1012 21.441 19.1229 21.4559L19.151 21.4755L19.1617 21.4833L19.1662 21.4866L19.1682 21.4881L19.1702 21.4895Z" fill="#163D51"/>
</svg>
