<svg width="31" height="30" viewBox="0 0 31 30" fill="none" xmlns="http://www.w3.org/2000/svg">
<path fill-rule="evenodd" clip-rule="evenodd" d="M14.7812 26.2505H16.0312C20.7453 26.2505 23.1023 26.2505 24.5668 24.786C26.0312 23.3216 26.0312 20.9646 26.0312 16.2505V9.99805C25.8497 10.0006 25.5949 10.0005 25.4062 10.0005H5.40625C5.21756 10.0005 4.96276 10.0006 4.78125 9.99805V16.2505C4.78125 20.9646 4.78125 23.3216 6.24572 24.786C7.71018 26.2505 10.0672 26.2505 14.7812 26.2505ZM11.7514 13.8971C11.6562 14.1268 11.6562 14.4181 11.6562 15.0005C11.6562 15.5829 11.6562 15.8741 11.7514 16.1038C11.8783 16.4101 12.1216 16.6535 12.4279 16.7803C12.6576 16.8755 12.9488 16.8755 13.5312 16.8755H17.2812C17.8637 16.8755 18.1549 16.8755 18.3846 16.7803C18.6909 16.6535 18.9342 16.4101 19.0611 16.1038C19.1562 15.8741 19.1562 15.5829 19.1562 15.0005C19.1562 14.4181 19.1562 14.1268 19.0611 13.8971C18.9342 13.5908 18.6909 13.3475 18.3846 13.2206C18.1549 13.1255 17.8637 13.1255 17.2812 13.1255H13.5312C12.9488 13.1255 12.6576 13.1255 12.4279 13.2206C12.1216 13.3475 11.8783 13.5908 11.7514 13.8971Z" fill="#163C51"/>
<path d="M2.90625 6.25C2.90625 5.07149 2.90625 4.48223 3.27237 4.11612C3.63848 3.75 4.22774 3.75 5.40625 3.75H25.4062C26.5848 3.75 27.174 3.75 27.5401 4.11612C27.9062 4.48223 27.9062 5.07149 27.9062 6.25C27.9062 7.42851 27.9062 8.01777 27.5401 8.38388C27.174 8.75 26.5848 8.75 25.4062 8.75H5.40625C4.22774 8.75 3.63848 8.75 3.27237 8.38388C2.90625 8.01777 2.90625 7.42851 2.90625 6.25Z" fill="#163C51"/>
</svg>
