<svg width="2780" height="1970" viewBox="0 0 2780 1970" fill="none" xmlns="http://www.w3.org/2000/svg">
<path d="M2096.33 1327.28V1310.61H2108.16V1327.28H2096.33Z" fill="#DADADA"/>
<path d="M1882.81 1265.96L1930.14 1266.5V1296.08L1882.27 1295.55L1882.81 1265.96Z" fill="#DADADA"/>
<path d="M1478.89 728.668L1475.66 741.576L1442.86 734.046V720.062L1478.89 728.668Z" fill="#DADADA"/>
<path d="M2085.03 916.374H2076.43V901.314L2085.57 901.852L2085.03 916.374Z" fill="#DADADA"/>
<path d="M1942.51 914.761V904.004H1949.5V914.761H1942.51Z" fill="#DADADA"/>
<path d="M1520.31 1737.11V1717.74L1534.29 1717.21V1736.57L1520.31 1737.11Z" fill="#DADADA"/>
<path d="M1607.97 772.771L1582.69 767.931L1585.38 753.947L1610.66 759.326L1607.97 772.771Z" fill="#DADADA"/>
<path d="M1880.65 1441.84L1874.74 1464.43L1863.98 1461.2L1869.9 1438.61L1880.65 1441.84Z" fill="#DADADA"/>
<path d="M1551.5 746.419L1549.35 758.251L1526.76 755.024L1528.91 742.654L1551.5 746.419Z" fill="#DADADA"/>
<path d="M2193.67 1686.01L2181.84 1686.55L2181.3 1658.05L2193.14 1657.51L2193.67 1686.01Z" fill="#DADADA"/>
<path d="M2329.74 729.744L2330.82 710.92L2371.69 713.609L2363.09 873.346L2320.6 870.657L2323.83 810.419L2305 809.881L2306.62 787.83L2326.52 788.906L2328.67 756.098L2317.91 755.56L2319.52 728.668L2329.74 729.744Z" fill="#DADADA"/>
<path d="M1449.31 1597.81L1486.42 1592.97L1496.64 1672.57L1449.85 1678.49L1442.86 1623.09V1553.17H1443.39L1449.31 1597.81Z" fill="#DADADA"/>
<path d="M2597.05 1315.98L2595.97 1357.4L2353.41 1352.56L2356.1 1220.25L2779.38 1228.86L2777.76 1319.75L2597.05 1315.98Z" fill="#DADADA"/>
<path d="M1442.86 1108.38L1490.72 1105.15L1495.56 1174L1442.86 1177.76V1108.38Z" fill="#DADADA"/>
<path d="M1824.18 1443.45H1753.19L1752.65 1228.86L1707.47 1242.3L1591.84 1243.38L1591.3 1181.53L1650.46 1180.99L1649.39 1105.15L1736.52 1104.08L1737.59 1194.43H1752.11V1180.45H1762.33V1163.78L1915.62 1162.7V1143.88H1928.52V1176.69H1945.2V1163.78H1965.63L1966.17 1214.87L1947.35 1220.25L1838.17 1223.48L1836.02 1215.41H1815.58V1230.47H1823.11L1824.18 1443.45Z" fill="#DADADA"/>
<path d="M2384.6 714.148L2371.69 713.611L2305 709.846L2303.93 723.829L2244.76 720.602L2245.84 706.081L2224.87 705.005L2231.32 588.833L2228.09 588.295L2228.63 576.463L2280.26 579.152L2279.72 587.757L2391.59 594.211L2384.6 714.148Z" fill="#DADADA"/>
<path d="M2007.58 542.578L1989.3 643.69L1837.63 615.723L1853.76 518.375L2007.58 542.578Z" fill="#DADADA"/>
<path d="M2010.81 859.9L2006.51 895.935L1932.29 887.33L1936.59 851.295L2010.81 859.9Z" fill="#DADADA"/>
<path d="M1611.2 840.538L1599.9 880.338L1442.86 836.236V793.209L1611.2 840.538Z" fill="#DADADA"/>
<path d="M1833.86 904.003L1661.22 863.666L1675.74 802.891L1903.24 855.598L1893.03 898.625L1838.17 885.717L1833.86 904.003Z" fill="#DADADA"/>
<path d="M2241.01 877.65L2237.24 909.382L2135.59 898.088L2138.82 866.355L2241.01 877.65Z" fill="#DADADA"/>
<path d="M1442.86 1773.68L1478.35 1769.38L1482.66 1805.41L1442.86 1810.79V1773.68Z" fill="#DADADA"/>
<path d="M1442.86 1830.15L1484.81 1824.78L1490.19 1864.04L1442.86 1870.49V1830.15Z" fill="#DADADA"/>
<path d="M1506.32 1766.15L1974.23 1703.76L1979.61 1741.41L1511.16 1803.26L1506.32 1766.15Z" fill="#DADADA"/>
<path d="M1519.77 1859.73L1514.93 1821.55L1978.54 1758.62L1983.38 1796.81L1519.77 1859.73Z" fill="#DADADA"/>
<path d="M2062.98 1786.05L2000.59 1794.12L1995.75 1755.93L2058.14 1747.86L2062.98 1786.05Z" fill="#DADADA"/>
<path d="M2052.22 1693.01L2057.06 1732.27L1996.83 1739.8L1991.98 1700.54L2052.22 1693.01Z" fill="#DADADA"/>
<path d="M1442.86 1909.75V1887.7L2064.05 1804.88L2066.74 1825.85L1442.86 1909.75Z" fill="#DADADA"/>
<path d="M2726.13 1594.05L2721.83 1681.17L2502.93 1677.95L2501.32 1705.38L2220.03 1699.46L2222.18 1608.03L2183.99 1607.49L2187.76 1426.78L2221.64 1427.32L2223.26 1335.35L2292.1 1336.42L2298.01 1335.35L2303.39 1331.58H2329.21L2335.12 1339.11L2334.59 1367.08L2343.73 1367.62V1353.63L2353.41 1352.56L2595.97 1357.4L2630.93 1360.09V1378.37L2732.58 1381.06L2727.74 1504.23L2692.78 1504.76L2692.25 1592.97L2726.13 1594.05Z" fill="#DADADA"/>
<path d="M1442.86 694.786V642.078L1506.32 659.827L1681.65 701.778L1788.15 724.367L1944.12 752.334L2157.1 778.15L2154.41 799.126L2242.08 808.269L2238.31 834.085L1948.42 808.807L1946.27 832.471L1907.55 826.017L1911.31 801.277L1720.38 765.78L1716.61 785.68L1621.96 766.856L1628.95 735.661L1442.86 694.786Z" fill="#DADADA"/>
<path d="M1478.89 728.67L1475.66 741.578L1401.44 724.905L1404.13 711.459L1478.89 728.67Z" fill="#DADADA"/>
<path d="M1464.37 1334.27H1457.38L1458.46 1317.6L1465.45 1318.13L1464.37 1334.27Z" fill="#DADADA"/>
<path d="M1389.61 709.306L1384.23 725.441L1362.72 718.449L1368.1 702.314L1389.61 709.306Z" fill="#DADADA"/>
<path d="M1170.71 1909.21L1189 1909.75V1920.51L1170.71 1919.97V1909.21Z" fill="#DADADA"/>
<path d="M1415.96 1254.13L1413.28 1314.37L1390.15 1313.29L1391.22 1285.33L1401.44 1285.86L1403.06 1253.59L1415.96 1254.13Z" fill="#DADADA"/>
<path d="M1443.39 1252.52L1443.93 1228.86L1453.61 1229.39L1453.08 1252.52H1443.39Z" fill="#DADADA"/>
<path d="M1427.26 1682.79L1025.5 1734.96L1014.74 1654.82L1417.04 1602.65L1427.26 1682.79Z" fill="#DADADA"/>
<path d="M1449.31 1597.81L1486.42 1592.97L1496.64 1672.57L1449.85 1678.48L1434.25 1552.63L1443.39 1553.17L1449.31 1597.81Z" fill="#DADADA"/>
<path d="M1218.58 1395.58L1261.07 1388.59L1277.74 1488.63L1235.25 1496.16L1218.58 1395.58Z" fill="#DADADA"/>
<path d="M1329.91 871.193L1424.03 881.95L1420.27 904.001L1322.38 903.463L1329.91 871.193Z" fill="#DADADA"/>
<path d="M1313.24 1117.52L1490.72 1105.15L1495.56 1174L1372.94 1182.6L1371.32 1154.1L1315.93 1157.86L1313.24 1117.52Z" fill="#DADADA"/>
<path d="M1443.4 1553.17L1347.66 1548.86L1351.43 1470.34L1447.16 1475.18L1443.4 1553.17Z" fill="#DADADA"/>
<path d="M1511.7 812.571V855.598L1368.64 815.799L1379.93 775.461L1511.7 812.571Z" fill="#DADADA"/>
<path d="M1182.01 457.062L1175.01 484.492L1131.45 472.659L1138.98 445.768L1182.01 457.062Z" fill="#DADADA"/>
<path d="M1326.68 798.05L1297.64 904.541L1269.14 897.011L1273.98 879.801L1203.52 860.439L1194.91 892.171L1153.5 880.876L1163.18 845.379L1098.64 828.169L1108.32 793.747L1084.12 786.755L1111.01 689.945L1287.96 738.888L1282.04 761.477L1317 770.62L1310.55 793.747L1326.68 798.05Z" fill="#DADADA"/>
<path d="M1469.21 1704.84L1474.59 1745.71L975.482 1812.4L970.103 1771.53L1469.21 1704.84Z" fill="#DADADA"/>
<path d="M976.554 1834.99L1478.35 1769.38L1482.66 1805.41L981.395 1871.03L976.554 1834.99Z" fill="#DADADA"/>
<path d="M985.161 1893.08L1484.81 1824.78L1490.19 1864.04L990.54 1932.88L985.161 1893.08Z" fill="#DADADA"/>
<path d="M994.303 1969.45L991.614 1948.48L1511.7 1878.56V1900.07L994.303 1969.45Z" fill="#DADADA"/>
<path d="M0.922974 33.7871L17.0581 0.441406L294.043 158.565L505.411 275.813L558.657 161.254L675.905 224.718L624.273 334.974L936.217 471.584L1330.45 610.883L1506.32 659.826L1511.7 661.44V709.845L1317 666.818L921.695 533.973L497.882 337.663L289.74 219.34L19.2095 44.5438L0.922974 33.7871Z" fill="#DADADA"/>
</svg>
