<svg width="388" height="903" viewBox="0 0 388 903" fill="none" xmlns="http://www.w3.org/2000/svg">
<path d="M89.3393 346.556L260.142 344.973C278.277 505.494 270.338 521.221 270.62 599.898C270.75 640.158 256.824 756.601 257.171 787.989C257.171 789.855 248.819 798.531 235.934 797.273C223.049 796.015 219.318 791.785 219.231 790.462C218.884 785.82 213.765 779.312 213.049 774.714C208.342 744.714 202.789 706.08 198.016 675.386C194.249 652.029 194.786 628.18 199.6 605.017L174.416 487.62C172.246 505.472 170.251 521.155 166.411 539.138L164.589 547.62C163.7 558.075 148.19 560.635 142.897 561.806C128.559 564.8 115.543 561.611 102.289 555.407C89.0356 549.203 82.8751 541.568 82.2894 529.572L82.528 522.63C82.2027 512.674 82.5281 504.453 81.9424 495.06C76.3892 409.203 81.4651 364.148 89.3393 346.556Z" fill="#C8856A"/>
<path d="M260.144 337.66C260.144 337.66 268.105 392.845 271.315 441.543C274.791 501.704 275.045 562.007 272.074 622.195C268.929 680.091 261.532 744.56 261.532 744.56C261.532 744.56 253.723 752.39 231.597 752.043C209.471 751.696 205.068 744.56 205.068 744.56C205.068 744.56 192.052 668.876 191.879 648.507C192.145 634.224 193.838 620.003 196.933 606.056L174.503 492.129C174.503 492.129 168.451 538.55 164.699 547.618C160.946 556.685 146.239 566.034 117.8 558.746C89.3622 551.457 84.5683 546.685 82.3773 529.57C80.1865 512.455 77.5183 439.071 78.0389 406.077C78.5596 373.083 92.2256 334.992 92.2256 334.992L260.144 337.66Z" fill="#455A64"/>
<path d="M106.021 355.167C91.0974 399.419 92.0736 458.031 92.7243 496.795C93.0497 516.079 93.0713 535.059 93.0063 549.81C92.1603 549.268 91.4011 548.725 90.6853 548.161C90.6853 533.671 90.6853 515.385 90.4033 496.838C89.7525 457.901 88.7546 399.05 103.809 354.43L106.021 355.167Z" fill="#37474F"/>
<path d="M100.338 425.688C103.931 425.744 107.462 424.74 110.49 422.803C117.279 418.465 121.856 409.181 124.09 395.189C129.036 364.191 130.945 350.178 130.967 350.048L128.667 349.723C128.667 349.875 126.737 363.866 121.791 394.82C119.622 408.118 115.435 416.881 109.231 420.851C104.893 423.627 99.5568 424.083 92.9841 422.239L92.355 424.408C94.9446 425.199 97.6307 425.63 100.338 425.688Z" fill="#37474F"/>
<path d="M174.546 492.131L181.054 424.104C181.054 424.104 216.716 418.204 232.941 393.605C232.941 393.605 231.206 422.586 189.557 434.386L185.327 488.617L196.824 606.014L174.546 492.131Z" fill="#37474F"/>
<path d="M58.4951 782.455C60.9897 770.415 69.3411 763.149 83.0288 762.932C96.7164 762.715 103.289 779.7 102.552 788.767L58.4951 782.455Z" fill="#263238"/>
<path d="M105.871 654.018C104.564 653.013 103.038 652.33 101.417 652.025C99.7966 651.72 98.1269 651.801 96.5434 652.261C95.1117 652.76 94.3742 653.606 97.9968 655.32L71.9664 792.608C76.0363 794.677 80.6094 795.55 85.1551 795.125L111.186 657.814C109.147 656.972 107.329 655.674 105.871 654.018Z" fill="#E0E0E0"/>
<path opacity="0.1" d="M109.774 654.756C108.466 653.751 106.94 653.069 105.32 652.763C103.699 652.458 102.03 652.539 100.446 652.999C99.8693 653.136 99.3387 653.422 98.9082 653.83C98.4777 654.237 98.1627 654.752 97.995 655.32L71.9646 792.609C71.9122 793.2 72.0171 793.794 72.2685 794.331C72.52 794.868 72.909 795.33 73.3962 795.668C74.6978 796.676 76.219 797.363 77.8361 797.672C79.4532 797.981 81.1204 797.904 82.7021 797.446C83.279 797.31 83.8096 797.023 84.2401 796.616C84.6705 796.208 84.9856 795.694 85.1533 795.125L111.184 657.815C111.241 657.226 111.14 656.632 110.892 656.095C110.645 655.557 110.259 655.096 109.774 654.756Z" fill="black"/>
<path d="M78.1471 759.895C77.7132 764.233 90.5983 766.402 91.4443 761.869C93.4833 763.235 95.0451 764.038 93.6135 770.415C92.1818 776.793 101.726 778.984 100.533 787.942C97.6265 809.895 87.9735 805.188 75.7826 803.669C69.4268 802.888 62.1817 798.289 59.9908 793.148C59.9908 793.148 60.7717 783.322 61.3574 781.001C63.6351 771.934 71.9865 773.452 73.1796 767.205C73.8087 764.038 74.8282 760.111 78.1471 759.895Z" fill="#455A64"/>
<path d="M100.967 651.676C100.388 651.782 99.8469 652.038 99.3977 652.418C98.9485 652.799 98.6072 653.291 98.4078 653.845C98.3157 654.434 98.384 655.037 98.6054 655.59C98.8268 656.144 99.1931 656.627 99.6659 656.99C100.921 658.049 102.408 658.796 104.006 659.173C105.603 659.55 107.268 659.545 108.863 659.159C109.443 659.054 109.984 658.798 110.433 658.417C110.882 658.036 111.224 657.544 111.423 656.99C111.515 656.401 111.447 655.798 111.226 655.245C111.004 654.692 110.638 654.208 110.165 653.845C108.91 652.787 107.423 652.039 105.825 651.662C104.227 651.285 102.563 651.29 100.967 651.676Z" fill="#455A64"/>
<path d="M114.222 655.319C111.686 653.362 108.724 652.029 105.577 651.43C102.431 650.831 99.1868 650.982 96.1089 651.87C94.9863 652.137 93.9546 652.697 93.1199 653.494C92.2851 654.29 91.6772 655.295 91.3584 656.404L90.1002 663.041C89.9928 664.187 90.1913 665.341 90.6752 666.385C91.1592 667.429 91.9114 668.326 92.8551 668.985C95.3946 670.944 98.3607 672.275 101.512 672.87C104.663 673.466 107.911 673.309 110.99 672.412C112.11 672.148 113.14 671.59 113.974 670.798C114.809 670.005 115.418 669.005 115.74 667.9L116.998 661.263C117.103 660.115 116.902 658.96 116.414 657.915C115.926 656.871 115.169 655.975 114.222 655.319Z" fill="#E0E0E0"/>
<path d="M96.1084 651.823C94.9462 651.991 93.8652 652.517 93.0164 653.329C92.1676 654.14 91.5933 655.196 91.3736 656.35C91.1538 657.503 91.2996 658.697 91.7907 659.764C92.2817 660.83 93.0935 661.717 94.1127 662.3C96.6522 664.259 99.6183 665.59 102.77 666.186C105.921 666.781 109.168 666.624 112.247 665.728C113.41 665.563 114.491 665.039 115.34 664.228C116.189 663.417 116.763 662.361 116.981 661.207C117.198 660.054 117.049 658.861 116.554 657.796C116.06 656.732 115.244 655.849 114.221 655.272C111.685 653.315 108.724 651.983 105.577 651.383C102.43 650.784 99.1863 650.935 96.1084 651.823Z" fill="#EBEBEB"/>
<path d="M147.105 567.355C135.76 557.03 113.786 552.54 99.3829 557.594C92.5282 560.002 88.9924 564.101 88.6887 568.7L83.0705 652.583C82.9403 654.557 84.8275 656.922 88.7321 659.221C97.664 663.995 107.761 666.153 117.865 665.447C122.355 664.948 125.001 663.538 125.652 661.651L152.702 581.889C154.177 577.507 152.55 572.301 147.105 567.355Z" fill="#455A64"/>
<path d="M79.0813 602.998V603.259C79.0813 605.775 81.641 609.658 85.7408 613.519C86.3467 614.116 86.9839 614.681 87.6496 615.211C93.724 620.47 100.922 624.269 108.691 626.317C124.222 630.048 142.162 629.723 144.288 624.864C146.413 620.005 148.626 614.907 150.383 610.525C156.39 594.709 161.183 578.458 164.721 561.914C167.411 547.966 169.06 540.07 166.544 539.202L164.721 547.684C164.721 547.684 152.552 562.738 117.65 554.799C103.68 551.588 95.2202 546.772 90.1225 542.239C89.4718 541.653 88.9078 541.067 88.3655 540.503C82.7689 534.668 82.4219 529.657 82.4219 529.657L81.7494 522.694C78.7992 522.347 79.2548 526.881 79.3849 536.49C79.5151 546.1 80.9902 577.423 80.0357 588.204C79.6453 592.413 79.3416 597.922 79.0813 602.998Z" fill="#37474F"/>
<path d="M85.7393 613.455C86.3453 614.052 86.9824 614.617 87.6482 615.147L87.7784 614.192C88.1255 611.546 88.4074 608.856 88.6243 606.188C89.21 599.68 89.4269 593.173 89.3619 586.665C89.2534 576.773 88.7979 566.882 89.1449 556.99C89.3185 552.457 89.6005 547.966 89.9692 543.454C89.9692 543.021 90.0777 542.608 90.1211 542.196C89.4703 541.611 88.9063 541.025 88.364 540.461C88.364 540.916 88.364 541.394 88.2122 541.828C87.735 546.817 87.3807 551.806 87.1493 556.795C86.7371 566.231 86.9324 575.624 87.1493 584.995C87.2794 591.849 87.1493 598.682 86.607 605.494C86.3467 608.162 86.1081 610.787 85.7393 613.455Z" fill="#263238"/>
<path d="M95.8271 558.096C95.2719 558.051 94.7422 557.844 94.3049 557.499C93.8676 557.154 93.5423 556.687 93.37 556.157C93.1977 555.627 93.1862 555.058 93.3369 554.522C93.4875 553.986 93.7936 553.506 94.2165 553.144C94.6394 552.781 95.1603 552.552 95.7133 552.485C96.2663 552.418 96.8267 552.517 97.3238 552.768C97.821 553.019 98.2325 553.412 98.5066 553.897C98.7807 554.382 98.9051 554.937 98.864 555.493C98.8366 555.863 98.7362 556.225 98.5685 556.557C98.4008 556.889 98.1691 557.184 97.8869 557.426C97.6047 557.668 97.2774 557.852 96.9239 557.966C96.5704 558.081 96.1977 558.125 95.8271 558.096ZM95.979 575.58C95.4224 575.539 94.8903 575.335 94.4499 574.992C94.0096 574.649 93.6808 574.184 93.5052 573.654C93.3296 573.124 93.3152 572.555 93.4636 572.017C93.6121 571.479 93.9168 570.997 94.3392 570.632C94.7616 570.268 95.2827 570.037 95.8365 569.968C96.3903 569.9 96.9519 569.997 97.4503 570.248C97.9487 570.499 98.3615 570.892 98.6363 571.378C98.9111 571.864 99.0356 572.42 98.9942 572.977C98.9695 573.346 98.8716 573.707 98.7062 574.039C98.5408 574.371 98.3112 574.666 98.0307 574.908C97.7502 575.151 97.4243 575.335 97.0721 575.45C96.7199 575.565 96.3484 575.609 95.979 575.58ZM93.3326 591.697C93.4204 590.978 93.7815 590.32 94.341 589.86C94.9006 589.4 95.6156 589.173 96.338 589.226C97.0603 589.279 97.7346 589.608 98.2211 590.145C98.7075 590.682 98.9688 591.385 98.9508 592.109C98.9413 592.491 98.8544 592.866 98.6953 593.213C98.5363 593.561 98.3084 593.872 98.0255 594.128C97.7426 594.385 97.4106 594.581 97.0496 594.705C96.6886 594.829 96.3061 594.879 95.9254 594.851C95.5446 594.823 95.1734 594.718 94.8344 594.543C94.4954 594.367 94.1956 594.124 93.9532 593.829C93.7107 593.535 93.5307 593.193 93.424 592.827C93.3174 592.46 93.2863 592.076 93.3326 591.697ZM93.441 609.528C93.9976 609.568 94.5297 609.772 94.9701 610.115C95.4104 610.458 95.7391 610.923 95.9147 611.453C96.0903 611.983 96.1047 612.553 95.9563 613.09C95.8078 613.628 95.5031 614.11 95.0807 614.475C94.6584 614.839 94.1373 615.071 93.5835 615.139C93.0296 615.207 92.468 615.11 91.9696 614.859C91.4712 614.608 91.0585 614.215 90.7837 613.729C90.5089 613.243 90.3843 612.687 90.4258 612.131C90.4504 611.761 90.5483 611.4 90.7137 611.068C90.8791 610.736 91.1087 610.441 91.3892 610.199C91.6697 609.957 91.9956 609.773 92.3478 609.657C92.7 609.542 93.0716 609.498 93.441 609.528Z" fill="#263238"/>
<path d="M95.8477 865.969C94.5678 878.876 92.2035 887.38 87.3011 894.798C82.3987 902.217 73.6567 904.234 64.9582 901.653C56.2597 899.072 45.2835 892.694 43.2662 881.414C41.2488 870.134 42.0298 862.52 44.5026 850.59L95.8477 865.969Z" fill="#263238"/>
<path d="M62.4202 774.625C59.3183 775.471 56.5634 792.152 53.7434 809.462C50.7499 828.031 47.2358 833.541 44.6327 848.747C41.6392 866.1 42.6371 872.022 48.3204 882.847C54.0037 893.671 75.2836 904.886 86.5851 890.2C95.7825 878.204 96.3032 866.491 96.2164 848.985C96.0335 835.108 96.6346 821.232 98.0168 807.423C99.2532 794.408 103.83 782.195 100.75 780.634C100.425 782.543 97.019 797.12 94.6328 795.406C93.5699 795.146 93.4398 793.237 93.8302 789.918C94.1344 788.42 93.8384 786.862 93.0059 785.579C91.9405 784.512 90.5529 783.826 89.058 783.627C85.5439 782.781 80.6849 781.458 77.084 781.024C74.9148 780.742 76.1512 780.764 74.0471 780.547C71.943 780.33 68.0167 779.593 66.1078 780.547C64.9581 781.089 64.828 782.195 64.4809 783.41C64.1339 784.625 63.8085 786.317 63.3747 787.51C63.2011 787.987 62.4853 788.985 61.9864 788.898C61.1404 788.79 60.9885 786.556 61.1187 785.579C61.2488 784.603 61.1187 782.998 61.2922 781.805C61.4657 780.612 61.943 777.749 62.4202 774.625Z" fill="#37474F"/>
<path d="M45.7184 842.891C45.2629 845.385 42.8768 861.047 47.302 864.257C52.0959 867.706 55.328 854.691 55.328 854.691C55.328 854.691 67.02 851.633 83.5277 859.659C82.5515 862.327 84.7858 871.351 89.4713 869.659C94.1568 867.967 96.326 850.852 96.3477 850.591C96.3477 867.359 95.6535 878.639 86.7164 890.288C75.4148 904.973 54.1783 893.737 48.4733 882.934C42.7683 872.131 41.7705 866.21 44.764 848.834C44.9592 847.099 45.2629 844.452 45.7184 842.891Z" fill="#455A64"/>
<path d="M56.5635 855.862C56.2381 862.174 50.6633 859.788 50.0559 850.873C49.2967 837.489 53.1361 824.842 53.7001 809.658C56.4984 792.304 58.7327 774.95 62.377 774.82C62.1166 777.836 61.4009 784.3 61.4009 784.3C61.249 785.58 60.9887 788.833 60.9887 788.833C59.3401 801.849 55.3054 816.903 55.2837 830.33C55.3054 842.066 56.8455 849.549 56.5635 855.862Z" fill="#263238"/>
<path d="M81.4893 859.397C82.921 853.237 85.0035 851.566 86.7388 839.874C88.4742 828.182 93.2464 807.748 96.2616 795.124C97.0859 791.197 100.752 780.915 100.774 780.785C102.943 781.957 103.246 789.158 101.142 796.967C99.0382 804.777 97.6716 809.549 96.2182 817.076C92.5089 831.978 91.4243 847.922 89.0165 856.534C86.6086 865.146 80.0359 865.558 81.4893 859.397Z" fill="#263238"/>
<path d="M82.8994 859.766C82.7301 859.741 82.5678 859.682 82.4221 859.593C73.8848 855.185 64.1145 853.771 54.678 855.58C54.4985 855.645 54.3071 855.671 54.1166 855.656C53.9262 855.642 53.741 855.587 53.5734 855.495C53.4058 855.404 53.2597 855.277 53.1448 855.125C53.0298 854.972 52.9486 854.797 52.9067 854.611C52.8648 854.424 52.8631 854.231 52.9016 854.044C52.9402 853.857 53.0181 853.68 53.1303 853.526C53.2424 853.371 53.3862 853.242 53.5521 853.147C53.718 853.053 53.9021 852.994 54.0923 852.976C64.1885 850.97 74.6678 852.502 83.767 857.315C83.9189 857.402 84.0518 857.519 84.1581 857.658C84.2645 857.798 84.3421 857.957 84.3865 858.126C84.4309 858.296 84.4412 858.472 84.4168 858.646C84.3923 858.819 84.3337 858.986 84.2443 859.137C84.1066 859.362 83.9056 859.542 83.6665 859.654C83.4273 859.766 83.1605 859.805 82.8994 859.766Z" fill="#F0F0F0"/>
<path d="M87.062 847.357L86.6064 847.227C86.4763 847.227 70.6845 839.114 54.2636 842.216C53.9132 842.28 53.5516 842.205 53.2558 842.006C52.96 841.808 52.7534 841.502 52.6801 841.153C52.6169 840.802 52.6957 840.44 52.8991 840.147C53.1024 839.855 53.4138 839.654 53.7647 839.591C71.1183 836.294 87.2355 844.515 87.8646 844.841C88.1775 845.011 88.4117 845.297 88.517 845.637C88.6224 845.977 88.5906 846.345 88.4286 846.663C88.3035 846.908 88.1038 847.108 87.8583 847.232C87.6127 847.357 87.3339 847.401 87.062 847.357Z" fill="#F0F0F0"/>
<path d="M52.8121 831.892C52.5583 831.855 52.3207 831.745 52.1281 831.576C51.9355 831.406 51.7963 831.184 51.7275 830.937C51.6776 830.768 51.6616 830.59 51.6804 830.414C51.6992 830.239 51.7524 830.068 51.837 829.913C51.9216 829.758 52.036 829.621 52.1735 829.51C52.3111 829.4 52.4691 829.317 52.6386 829.267C69.0595 824.43 90.0574 832.89 90.7298 833.258C90.8842 833.346 91.0197 833.464 91.1285 833.604C91.2372 833.744 91.3171 833.905 91.3635 834.076C91.4099 834.248 91.4218 834.427 91.3987 834.603C91.3756 834.779 91.3178 834.949 91.2288 835.102C91.0439 835.406 90.7479 835.626 90.4037 835.715C90.0594 835.804 89.6939 835.755 89.3849 835.579C89.2331 835.579 68.6907 827.336 53.3979 831.848C53.2082 831.906 53.0082 831.921 52.8121 831.892Z" fill="#F0F0F0"/>
<path d="M55.8915 820.678C55.6421 820.638 55.4088 820.53 55.2174 820.365C55.0259 820.2 54.8838 819.986 54.8069 819.745C54.7535 819.577 54.7343 819.4 54.7503 819.225C54.7663 819.049 54.8172 818.879 54.9001 818.723C54.9829 818.567 55.0961 818.43 55.2328 818.319C55.3695 818.207 55.5271 818.125 55.6962 818.075C73.7657 812.392 91.705 822.912 92.3124 823.325C92.5204 823.548 92.6465 823.835 92.6699 824.139C92.6932 824.443 92.6125 824.746 92.441 824.998C92.2695 825.25 92.0174 825.437 91.726 825.527C91.4346 825.617 91.1212 825.605 90.8373 825.494C90.6854 825.385 73.3318 815.298 56.4988 820.57C56.3065 820.649 56.0993 820.686 55.8915 820.678Z" fill="#F0F0F0"/>
<path d="M57.5613 806.926C57.3119 806.895 57.0767 806.793 56.8842 806.631C56.6918 806.469 56.5502 806.255 56.4767 806.015C56.3665 805.678 56.3936 805.312 56.552 804.995C56.7104 804.678 56.9874 804.437 57.3227 804.323C74.2859 798.748 93.5051 809.529 94.1992 809.963C94.3486 810.056 94.4781 810.178 94.5799 810.321C94.6818 810.464 94.754 810.627 94.7923 810.798C94.8307 810.97 94.8345 811.148 94.8034 811.321C94.7723 811.494 94.7071 811.659 94.6114 811.807C94.5185 811.956 94.3969 812.086 94.2534 812.188C94.11 812.289 93.9476 812.362 93.7759 812.4C93.6042 812.438 93.4266 812.442 93.2535 812.411C93.0803 812.38 92.9151 812.315 92.7675 812.219C92.6157 812.219 73.9388 801.677 58.1904 806.861C57.9878 806.927 57.7733 806.95 57.5613 806.926Z" fill="#EBEBEB"/>
<path d="M325.243 844.387C326.024 844.387 327.217 852.955 323.073 856.599C318.193 860.808 303.919 867.749 285.004 865.276C266.088 862.803 260.817 859.094 253.247 852.782C245.676 846.469 238.713 839.766 230.166 837.966C222.227 836.231 210.123 833.064 207.585 830.612C205.047 828.161 205.416 817.25 205.416 817.25L325.243 844.387Z" fill="#263238"/>
<path d="M212.443 769.984C206.76 770.288 209.146 783.607 206.825 789.29C205.078 799.79 204.692 810.471 205.675 821.069C206.716 826.666 223.029 830.093 231.423 833.238C250.035 840.57 266.131 862.132 289.536 860.549C304.113 860.418 320.513 855.668 324.244 848.9C338.908 819.182 266.478 817.924 260.729 775.559C260.447 772.978 258.907 771.655 253.159 771.568C246.651 771.568 238.538 773.043 233.766 778.076C231.836 780.917 233.766 784.822 232.161 787.663C228.517 788.835 226.131 782.414 223.788 780.266C219.818 777.338 210.577 776.969 212.443 769.984Z" fill="#37474F"/>
<path d="M254.591 847.838C251.395 845.086 248.041 842.522 244.548 840.159C244.548 840.159 267.584 849.205 277.845 842.177C284.352 837.643 281.294 832.155 281.12 830.42C280.947 828.684 296.522 821.135 302.942 820.376L305.611 820.246C307.411 821.222 309.559 822.112 310.47 822.589C329.624 832.35 328.886 840.55 324.244 848.923C320.513 855.691 308.626 860.984 289.797 861.027C277.476 861.027 263.485 855.127 254.591 847.838Z" fill="#455A64"/>
<path d="M279.341 825.277C292.79 830.635 287.064 833.152 283.289 833.694C279.515 834.236 260.556 823.347 246.738 812.457C232.335 801.091 219.775 789.095 214.417 784.93C212.421 783.368 210.274 781.46 208.365 779.659C208.712 776.709 208.994 774.019 209.254 772.609C209.422 771.881 209.825 771.229 210.402 770.754C210.979 770.279 211.696 770.009 212.443 769.984L213.181 774.627C214.306 775.629 215.64 776.369 217.085 776.796C219.538 777.443 221.818 778.621 223.766 780.245C225.514 782.731 227.466 785.067 229.602 787.23C241.38 802.024 265.892 819.919 279.341 825.277Z" fill="#263238"/>
<path d="M282.335 831.72C282.028 831.711 281.732 831.604 281.489 831.416C281.355 831.305 281.244 831.169 281.163 831.015C281.081 830.861 281.031 830.693 281.015 830.52C280.999 830.346 281.017 830.172 281.069 830.005C281.12 829.839 281.204 829.685 281.315 829.551C285.09 824.887 296.022 818.705 305.892 819.789C306.066 819.806 306.235 819.858 306.389 819.94C306.543 820.022 306.679 820.134 306.79 820.269C306.901 820.404 306.984 820.559 307.034 820.726C307.085 820.894 307.103 821.069 307.085 821.243C307.068 821.416 307.017 821.585 306.935 821.739C306.853 821.893 306.741 822.029 306.606 822.14C306.471 822.251 306.315 822.334 306.148 822.385C305.981 822.436 305.806 822.453 305.632 822.436C296.391 821.46 286.37 827.533 283.376 831.113C283.262 831.288 283.108 831.434 282.927 831.539C282.746 831.645 282.544 831.707 282.335 831.72Z" fill="#F0F0F0"/>
<path d="M270.579 825.123C270.274 825.123 269.977 825.024 269.733 824.841C269.457 824.623 269.278 824.306 269.233 823.957C269.188 823.608 269.282 823.256 269.494 822.976C273.182 818.247 283.941 811.826 293.854 812.65C294.207 812.678 294.535 812.844 294.767 813.112C294.998 813.38 295.115 813.729 295.091 814.082C295.077 814.258 295.028 814.429 294.948 814.586C294.867 814.743 294.755 814.882 294.62 814.995C294.485 815.109 294.328 815.194 294.159 815.245C293.99 815.297 293.813 815.315 293.637 815.297C284.396 814.559 274.505 820.85 271.598 824.603C271.477 824.759 271.323 824.887 271.147 824.977C270.97 825.067 270.776 825.117 270.579 825.123Z" fill="#F0F0F0"/>
<path d="M259.731 817.618C259.422 817.617 259.123 817.51 258.885 817.315C258.749 817.205 258.636 817.07 258.553 816.917C258.47 816.764 258.417 816.596 258.399 816.423C258.381 816.249 258.397 816.074 258.447 815.907C258.497 815.74 258.579 815.584 258.689 815.449C262.464 810.785 273.397 804.603 283.288 805.688C283.638 805.731 283.956 805.91 284.175 806.186C284.394 806.462 284.496 806.813 284.459 807.163C284.443 807.336 284.393 807.504 284.31 807.658C284.228 807.811 284.116 807.946 283.98 808.056C283.845 808.165 283.689 808.246 283.521 808.294C283.354 808.341 283.179 808.355 283.006 808.334C273.765 807.358 263.744 813.432 260.75 817.011C260.639 817.185 260.489 817.33 260.312 817.435C260.135 817.541 259.936 817.604 259.731 817.618Z" fill="#F0F0F0"/>
<path d="M250.121 810.829C249.817 810.847 249.516 810.755 249.275 810.568C248.992 810.356 248.805 810.042 248.752 809.693C248.699 809.344 248.786 808.988 248.993 808.703C252.572 803.887 263.266 797.271 273.158 797.857C273.484 797.914 273.778 798.09 273.982 798.351C274.187 798.611 274.288 798.938 274.267 799.268C274.245 799.599 274.102 799.91 273.866 800.142C273.629 800.374 273.315 800.51 272.984 800.525C263.743 799.939 253.982 806.447 251.14 810.243C251.026 810.411 250.875 810.552 250.698 810.653C250.521 810.754 250.324 810.814 250.121 810.829Z" fill="#F0F0F0"/>
<path d="M239.796 802.826C239.498 802.847 239.203 802.754 238.971 802.565C238.828 802.466 238.706 802.339 238.613 802.192C238.52 802.044 238.458 801.88 238.429 801.708C238.401 801.536 238.408 801.36 238.448 801.191C238.489 801.021 238.564 800.862 238.668 800.722C243.613 793.932 255.219 789.116 265.132 789.876C265.307 789.884 265.478 789.927 265.636 790.003C265.794 790.079 265.935 790.186 266.05 790.318C266.166 790.449 266.253 790.603 266.308 790.769C266.363 790.935 266.383 791.111 266.368 791.286C266.357 791.459 266.312 791.629 266.235 791.786C266.158 791.942 266.051 792.082 265.92 792.197C265.789 792.312 265.637 792.399 265.472 792.455C265.307 792.511 265.132 792.534 264.958 792.522C256.021 791.915 245.219 796.34 240.815 802.349C240.692 802.499 240.536 802.62 240.36 802.703C240.183 802.786 239.99 802.828 239.796 802.826Z" fill="#F0F0F0"/>
<path d="M273.484 585.903C273.484 588.419 273.354 590.914 273.267 593.408C258.175 591.859 242.936 592.59 228.061 595.578C234.569 590.241 258.3 583.126 273.484 585.903Z" fill="#C8856A"/>
<path d="M272.986 603.259C272.986 605.624 272.791 607.967 272.704 610.288C269.277 609.984 248.171 608.118 238.865 604.387C250.199 603.23 261.6 602.854 272.986 603.259Z" fill="#C8856A"/>
<path d="M106.044 514.321C106.044 514.321 115.198 504.777 132.79 506.903C150.382 509.028 157.562 519.376 157.562 519.376C138.712 510.851 106.044 514.321 106.044 514.321ZM147.476 522.781C137.129 524.842 126.76 525.753 104.092 521.263C114.829 518.66 147.476 522.76 147.476 522.76V522.781Z" fill="#C8856A"/>
<path d="M212.746 593.802C214.611 603.389 212.746 612.912 210.577 623.932C208.041 635.397 206.589 647.075 206.238 658.813C205.891 680.938 213.527 728.01 217.453 750.57C216.585 750.396 215.761 750.179 214.98 749.962C211.011 726.969 203.57 680.743 203.896 658.856C204.238 646.982 205.691 635.166 208.234 623.563C210.403 612.348 212.117 603.476 210.403 594.344C206.802 575.841 196.195 475.211 195.609 425.406H197.93C198.494 474.994 209.08 575.363 212.746 593.802Z" fill="#37474F"/>
<path d="M318.408 250.634C316.391 249.528 312.681 252.803 307.714 257.445C306.493 258.597 305.546 260.007 304.942 261.572C304.338 263.137 304.091 264.818 304.222 266.491C307.6 265.845 310.66 264.07 312.898 261.458C315.544 258.323 317.43 254.618 318.408 250.634Z" fill="#263238"/>
<path d="M329.666 288.599C327.757 287.991 327.02 287.167 329.666 284.716C332.313 282.265 341.141 275.844 341.141 275.844L343.311 279.531C343.311 279.531 333.05 289.336 329.666 288.599Z" fill="black"/>
<path d="M385.979 228.512C384.743 223.045 378.756 219.01 367.953 213.002C362.487 209.9 259.84 162.915 245.545 157.427C226.369 150.073 219.731 149.748 211.271 148.555L231.076 218.208C231.076 218.208 295.914 239.596 323.007 247.926C315.545 256.755 308.972 264.434 302.27 267.449L328.712 289.878C334.569 280.789 370.361 262.568 378.278 250.247C384.114 241.006 387.172 233.826 385.979 228.512Z" fill="#C8856A"/>
<path d="M211.531 148.031C223.592 148.769 238.299 152.066 284.329 172.89C330.36 193.715 364.091 207.185 375.805 217.619C348.212 216.665 335.067 230.374 323.744 247.077L225.761 219.311L211.531 148.031Z" fill="#F85F37"/>
<path d="M353.029 223.41C360.808 221.041 369.006 220.382 377.064 221.479C378.921 221.598 380.746 222.023 382.465 222.737C384.35 224.542 385.637 226.881 386.153 229.44C387.103 228.365 387.627 226.98 387.627 225.546C387.627 224.112 387.103 222.727 386.153 221.652C384.612 220.091 383.441 219.483 381.966 217.878C380.904 216.297 380.023 214.602 379.341 212.824C378.663 211.626 377.728 210.594 376.603 209.803C375.477 209.011 374.19 208.48 372.834 208.247C371.98 208.168 371.136 208.001 370.317 207.748C369.179 207.057 368.166 206.176 367.324 205.145C363.962 202.043 358.647 202.368 354.309 203.583C345.306 206.056 335.111 209.613 328.69 216.36C321.065 223.973 316.535 234.145 315.979 244.906C317.953 246.601 320.397 247.653 322.985 247.922C326.534 242.986 330.396 238.284 334.547 233.843C339.944 229.159 346.23 225.611 353.029 223.41Z" fill="#F85F37"/>
<path opacity="0.4" d="M353.029 223.41C360.808 221.041 369.006 220.382 377.064 221.479C378.921 221.598 380.746 222.023 382.465 222.737C384.35 224.542 385.637 226.881 386.153 229.44C387.103 228.365 387.627 226.98 387.627 225.546C387.627 224.112 387.103 222.727 386.153 221.652C384.612 220.091 383.441 219.483 381.966 217.878C380.904 216.297 380.023 214.602 379.341 212.824C378.663 211.626 377.728 210.594 376.603 209.803C375.477 209.011 374.19 208.48 372.834 208.247C371.98 208.168 371.136 208.001 370.317 207.748C369.179 207.057 368.166 206.176 367.324 205.145C363.962 202.043 358.647 202.368 354.309 203.583C345.306 206.056 335.111 209.613 328.69 216.36C321.065 223.973 316.535 234.145 315.979 244.906C317.953 246.601 320.397 247.653 322.985 247.922C326.534 242.986 330.396 238.284 334.547 233.843C339.944 229.159 346.23 225.611 353.029 223.41Z" fill="white"/>
<path opacity="0.4" d="M317.953 246.295C318.669 245.145 319.667 243.627 320.838 241.957C326.934 233.128 341.511 217.141 359.58 219.093C347.736 221.957 337.628 228.573 329.016 240.156L328.582 240.699C326.63 243.172 324.743 245.666 323.55 247.206L323.007 247.944C321.218 247.789 319.489 247.225 317.953 246.295Z" fill="#F85F37"/>
<path d="M326.695 270.136C323.701 267.468 316.369 260.787 311.727 262.739C304.395 265.841 300.881 268.748 290.035 273.889C282.096 277.641 272.421 282.565 270.36 285.082C265.089 291.372 266.846 307.489 268.972 314.301C271.098 321.112 277.519 318.205 277.519 318.205C278.148 319.594 279.927 322.544 285.545 321.481C285.979 323.65 289.167 326.08 294.222 325.082C294.851 327.381 299.319 328.184 302.313 326.839C306.456 324.973 310.794 319.051 313.397 316.795C316 314.539 317.259 313.693 317.324 312.283C317.324 310.375 315.285 308.444 311.792 308.769C315.954 307.634 319.679 305.276 322.486 302.001C324.672 299.034 326.492 295.815 327.909 292.414C328.967 289.573 330.599 286.981 332.703 284.8C336.564 280.461 330.773 273.954 327.671 270.895L326.695 270.136Z" fill="#C8856A"/>
<path d="M311.619 308.77C310.415 309.355 309.286 310.083 308.257 310.939C307.77 311.386 307.32 311.872 306.912 312.392C306.5 312.934 306.196 313.52 305.741 314.106L305.502 314.409L305.177 314.236C303.111 313.419 300.877 313.121 298.669 313.368C300.875 312.479 303.339 312.479 305.545 313.368L304.96 313.498C305.709 312.3 306.647 311.231 307.736 310.331C308.904 309.539 310.228 309.007 311.619 308.77Z" fill="#AF6152"/>
<path d="M303.852 319.964C304.112 318.879 304.503 317.968 304.698 316.97C304.963 315.972 305.166 314.957 305.305 313.934C305.804 314.944 305.912 316.102 305.609 317.187C305.336 318.277 304.72 319.25 303.852 319.964Z" fill="#AF6152"/>
<path d="M294.049 325.084C292.777 322.441 292.04 319.574 291.88 316.646C291.587 313.727 291.867 310.78 292.704 307.969C292.515 310.86 292.559 313.761 292.834 316.646C293.008 319.487 293.414 322.309 294.049 325.084Z" fill="#AF6152"/>
<path d="M285.457 321.482C284.247 318.18 283.452 314.741 283.093 311.243C282.69 307.748 282.844 304.212 283.548 300.766C283.5 304.236 283.66 307.705 284.025 311.156C284.329 314.605 284.958 318.011 285.457 321.482Z" fill="#AF6152"/>
<path d="M277.432 318.205C274.281 311.593 273.641 304.061 275.631 297.012C275.317 300.562 275.317 304.134 275.631 307.684C275.935 311.235 276.537 314.755 277.432 318.205Z" fill="#AF6152"/>
<path d="M276.132 291.501C276.074 290.627 276.215 289.752 276.544 288.941C276.921 288.102 277.485 287.36 278.193 286.772C279.596 285.75 281.24 285.107 282.965 284.906L280.796 286.143C280.072 286.512 279.389 286.955 278.757 287.466C277.474 288.497 276.555 289.91 276.132 291.501Z" fill="#AF6152"/>
<path d="M284.331 294.69C284.271 293.814 284.42 292.937 284.765 292.13C285.132 291.285 285.698 290.542 286.413 289.961C287.813 288.936 289.46 288.3 291.186 288.117L289.016 289.332C288.304 289.71 287.629 290.153 286.999 290.655C285.714 291.692 284.782 293.101 284.331 294.69Z" fill="#AF6152"/>
<path d="M294.243 299.205C294.183 298.33 294.332 297.453 294.677 296.646C295.044 295.807 295.601 295.064 296.304 294.477C297.713 293.454 299.366 292.819 301.098 292.633L298.928 293.848C298.216 294.225 297.541 294.668 296.911 295.171C295.62 296.202 294.687 297.614 294.243 299.205Z" fill="#AF6152"/>
<path d="M335.763 252.932L324.613 249.179C323.349 248.834 322.021 248.79 320.737 249.05C319.452 249.309 318.247 249.867 317.216 250.676L308.387 258.442C308.001 258.714 307.694 259.085 307.5 259.516C307.305 259.947 307.23 260.423 307.281 260.893C307.411 261.457 307.823 263.604 307.954 264.168C308.084 264.62 308.334 265.028 308.678 265.349C309.022 265.67 309.446 265.892 309.906 265.991L321.034 269.743C322.299 270.099 323.631 270.15 324.92 269.894C326.209 269.638 327.419 269.081 328.453 268.268L337.281 260.524C337.653 260.253 337.949 259.892 338.143 259.474C338.337 259.057 338.421 258.597 338.387 258.138C338.387 257.531 337.823 255.362 337.715 254.798C337.585 254.341 337.335 253.927 336.992 253.6C336.649 253.272 336.225 253.041 335.763 252.932Z" fill="#37474F"/>
<path d="M308.387 258.356L317.216 250.59C318.246 249.781 319.452 249.224 320.737 248.964C322.021 248.704 323.349 248.748 324.613 249.093L335.763 252.846C336.251 252.904 336.708 253.115 337.068 253.45C337.429 253.784 337.674 254.224 337.768 254.707C337.862 255.189 337.8 255.689 337.592 256.135C337.384 256.58 337.039 256.947 336.609 257.184L327.802 264.95C326.768 265.763 325.558 266.319 324.269 266.576C322.98 266.832 321.648 266.781 320.383 266.425L309.255 262.694C308.765 262.64 308.305 262.431 307.942 262.099C307.579 261.766 307.331 261.326 307.234 260.842C307.137 260.359 307.197 259.858 307.404 259.411C307.612 258.964 307.956 258.594 308.387 258.356Z" fill="#455A64"/>
<path d="M324.049 265.557C322.96 265.833 321.82 265.833 320.731 265.557L309.603 261.804C308.887 261.566 308.431 261.197 308.366 260.785C308.301 260.372 308.561 259.874 309.104 259.375L317.932 251.609C318.816 250.918 319.849 250.443 320.948 250.221C322.048 249.999 323.184 250.036 324.266 250.329L335.416 254.017C336.11 254.255 336.566 254.624 336.653 255.036C336.739 255.448 336.457 255.947 335.893 256.446L327.086 264.212C326.201 264.905 325.157 265.367 324.049 265.557Z" fill="#263238"/>
<path d="M319.037 267.837C319.006 267.852 318.973 267.86 318.939 267.86C318.905 267.86 318.872 267.852 318.842 267.837L310.946 265.19C310.853 265.156 310.776 265.087 310.732 264.999C310.688 264.91 310.679 264.808 310.707 264.713C310.719 264.664 310.741 264.617 310.773 264.577C310.804 264.537 310.844 264.505 310.89 264.482C310.935 264.459 310.985 264.447 311.036 264.445C311.087 264.444 311.138 264.454 311.184 264.475L319.189 267.034C319.282 267.069 319.358 267.137 319.402 267.226C319.446 267.314 319.455 267.416 319.427 267.511C319.425 267.559 319.412 267.606 319.391 267.648C319.369 267.691 319.339 267.729 319.303 267.759C319.266 267.79 319.224 267.812 319.178 267.826C319.132 267.839 319.084 267.843 319.037 267.837Z" fill="#455A64"/>
<path d="M328.517 266.232C330.188 266.752 333.875 269.008 335.394 275.668C336.912 282.327 333.463 287.837 329.667 288.683C330.99 289.572 334.201 288.249 338.17 285.277L341.446 282.804C342.748 281.835 343.793 280.56 344.489 279.093C345.185 277.626 345.51 276.01 345.437 274.388C345.401 273.374 345.278 272.365 345.068 271.373C343.745 266.145 342.053 262.284 336.912 258.965L328.517 266.232Z" fill="#263238"/>
<path d="M89.34 355.278C95.1101 328.922 103.895 290.072 104.112 284.258C104.958 260.657 98.8846 243.043 96.6937 228.401C91.8997 196.449 103.895 169.616 111.336 163.325C111.336 163.325 123.288 158.444 132.052 154.778C159.926 143.086 172.095 141.481 191.726 148.271C195.024 149.442 220.859 161.286 220.881 161.286C220.902 161.286 232.226 170.57 242.855 189.486C250.967 203.976 254.959 216.08 253.896 247.121C253.571 256.427 253.202 273.152 253.571 286.406C254.373 314.887 256.521 326.623 260.078 352.48C227.41 372.697 145.002 382.002 89.34 355.278Z" fill="#263238"/>
<path d="M128.864 19.4164C123.444 17.385 117.536 17.0353 111.913 18.4129C106.291 19.7905 101.214 22.8315 97.3459 27.1388C89.732 35.9241 88.3438 48.3536 87.4761 59.9589C85.9576 80.0674 84.873 97.0305 84.5043 117.182C84.3307 126.206 82.9642 135.165 82.4869 144.254C81.923 154.377 81.5469 164.572 81.3589 174.84C81.0036 177.458 81.5878 180.117 83.0075 182.345C84.7065 184.036 86.9519 185.066 89.3416 185.252C100.769 187.135 112.487 184.666 122.183 178.332C129.442 173.642 135.421 167.222 139.586 159.65C143.751 152.078 145.97 143.59 146.045 134.948C146.392 123.213 143.984 111.608 141.706 100.111C140.104 91.6243 138.04 83.2314 135.524 74.9697C133.854 69.7636 131.815 64.666 130.405 59.3732C127.551 48.5241 127.424 37.1376 130.036 26.2277" fill="#263238"/>
<path d="M117.172 19.6152C111.821 24.4181 108.156 30.8136 106.716 37.8582C106.21 39.7161 106.286 41.6845 106.933 43.4981C107.641 44.7919 108.739 45.8287 110.072 46.46C111.405 47.0912 112.903 47.2845 114.352 47.0122C117.247 46.4043 119.87 44.8836 121.836 42.6738C126.295 38.1439 129.145 32.2763 129.949 25.9709C130.296 23.0642 129.84 18.4872 126.999 16.8169C123.81 14.8863 119.471 17.5761 117.172 19.6152Z" fill="#F85F37"/>
<path d="M226.672 59.4195C232.876 44.9943 226.672 25.9487 219.102 17.0116C208.256 3.99634 191.293 -1.40498 165.87 0.308692C146.542 1.58852 123.418 10.3304 119.883 30.2003C102.03 39.3544 108.494 64.1917 113.375 74.6256C123.505 96.5563 137.844 113.671 138.169 125.363L226.672 59.4195Z" fill="#263238"/>
<path d="M117.149 82.3707C123.505 74.323 132.528 76.1451 136.954 82.9347C141.379 89.7243 148.364 87.1213 144.893 76.7091C149.557 74.3013 155.283 69.2687 150.273 50.0713C149.123 45.1472 150.663 36.5355 155.197 32.197C162.811 24.9519 178.103 26.0365 187.019 34.3663C198.494 24.2795 205.999 22.7827 215.219 29.4855C219.665 32.7393 227.149 42.0018 226.672 59.3772C226.281 64.6266 228.19 71.0475 228.537 80.8523C229.839 117.902 219.861 125.993 209.947 130.744C204.069 133.564 200.793 134.106 191.249 134.323L191.726 148.336C191.726 148.336 201.553 159.443 202.963 189.746C153.309 167.447 142.225 150.701 142.225 150.701L139.492 110.419C137.642 111.676 135.472 112.38 133.236 112.449C131 112.518 128.791 111.949 126.867 110.809C116.823 105.364 110.793 90.4185 117.149 82.3707Z" fill="#C8856A"/>
<path d="M180.752 99.6367L198.105 105.06C197.816 106.212 197.292 107.292 196.568 108.233C195.844 109.175 194.934 109.958 193.895 110.533C192.855 111.109 191.709 111.465 190.527 111.579C189.344 111.694 188.151 111.564 187.021 111.199C184.69 110.447 182.737 108.827 181.57 106.674C180.402 104.521 180.109 102 180.752 99.6367Z" fill="#AF6152"/>
<path d="M191.055 111.455C190.959 109.315 190.024 107.298 188.454 105.841C186.883 104.383 184.802 103.603 182.66 103.668C181.999 103.698 181.343 103.808 180.708 103.993C181.032 105.65 181.791 107.191 182.908 108.456C184.025 109.722 185.46 110.667 187.063 111.195C188.355 111.591 189.722 111.68 191.055 111.455Z" fill="#FFA8A7"/>
<path d="M193.094 61.4141L196.587 94.4076L212.834 86.0128L193.094 61.4141Z" fill="#AF6152"/>
<path d="M191.249 134.342C179.34 134.103 153.7 128.485 146.954 112.91C146.954 112.91 148.277 124.147 163.179 132.433C174.915 138.941 191.379 139.765 191.379 139.765L191.249 134.342Z" fill="#AF6152"/>
<path d="M179.969 72.2841C179.908 73.3198 179.54 74.3139 178.914 75.1411C178.288 75.9682 177.43 76.5912 176.45 76.9314C175.47 77.2716 174.411 77.3137 173.407 77.0524C172.403 76.7912 171.499 76.2383 170.809 75.4635C170.119 74.6887 169.674 73.7269 169.53 72.6994C169.386 71.6719 169.55 70.6248 170.001 69.6904C170.452 68.7561 171.17 67.9763 172.064 67.4495C172.958 66.9228 173.988 66.6727 175.023 66.7309C175.713 66.7697 176.389 66.9442 177.011 67.2445C177.633 67.5447 178.19 67.9649 178.649 68.4808C179.109 68.9967 179.462 69.5982 179.688 70.2509C179.915 70.9035 180.01 71.5945 179.969 72.2841Z" fill="#263238"/>
<path d="M219.256 69.6356C219.055 70.6504 218.561 71.5839 217.834 72.3197C217.107 73.0556 216.179 73.5612 215.167 73.7737C214.155 73.9862 213.102 73.8961 212.141 73.5146C211.179 73.1332 210.351 72.4773 209.76 71.6286C209.168 70.7799 208.84 69.776 208.815 68.7419C208.79 67.7078 209.07 66.6892 209.619 65.813C210.169 64.9368 210.965 64.2418 211.907 63.8145C212.849 63.3872 213.896 63.2465 214.917 63.41C215.615 63.5247 216.283 63.7783 216.882 64.1555C217.48 64.5328 217.997 65.0263 218.401 65.6066C218.806 66.187 219.09 66.8426 219.236 67.5346C219.383 68.2266 219.39 68.941 219.256 69.6356Z" fill="#263238"/>
<path d="M216.479 49.072C214.523 48.6754 212.489 49.0719 210.826 50.1743C209.162 51.2767 208.004 52.9947 207.607 54.9505L222.357 57.9657C222.754 56.0071 222.358 53.9709 221.256 52.3037C220.154 50.6365 218.436 49.4743 216.479 49.072Z" fill="#263238"/>
<path d="M167.193 53.6046C166.297 54.0218 165.493 54.6117 164.826 55.3406C164.158 56.0695 163.642 56.9231 163.305 57.8522C162.968 58.7813 162.819 59.7677 162.864 60.7549C162.91 61.7421 163.15 62.7105 163.571 63.6046L177.193 57.2272C176.778 56.3294 176.19 55.5227 175.461 54.8538C174.733 54.185 173.879 53.6671 172.949 53.3303C172.019 52.9934 171.032 52.8442 170.044 52.8913C169.056 52.9384 168.087 53.1808 167.193 53.6046Z" fill="#263238"/>
<path d="M211.272 9.78516L154.872 11.7591C117.302 28.1366 132.963 76.6617 141.163 82.3667C163.484 72.0196 161.206 49.4599 159.102 36.6399C170.946 47.0087 190.36 54.2755 199.406 54.8829C195.068 50.0239 191.12 37.7245 191.12 37.7245C195.339 45.6307 201.778 52.1303 209.645 56.423C223.896 63.9719 233.224 58.2669 233.224 58.2669C233.224 58.2669 236.76 24.0802 211.272 9.78516Z" fill="#263238"/>
<path d="M142.073 144.93C143.392 152.123 145.367 159.181 147.973 166.014C153.049 180.548 155.153 192.262 157.149 223.737C159.145 255.212 152.919 374.323 157.539 409.854C134.134 410.679 96.2377 396.449 78.1249 378.184C78.4069 365.711 81.0099 367.186 88.255 335.082C95.5001 302.978 104.134 300.093 101.747 283.021C99.3613 265.95 80.8147 198.769 93.4394 163.715C101.552 162.379 109.573 160.532 117.453 158.184C139.47 152.066 142.073 144.93 142.073 144.93Z" fill="#F85F37"/>
<path opacity="0.4" d="M142.073 144.93C143.392 152.123 145.367 159.181 147.973 166.014C153.049 180.548 155.153 192.262 157.149 223.737C159.145 255.212 152.919 374.323 157.539 409.854C134.134 410.679 96.2377 396.449 78.1249 378.184C78.4069 365.711 81.0099 367.186 88.255 335.082C95.5001 302.978 104.134 300.093 101.747 283.021C99.3613 265.95 80.8147 198.769 93.4394 163.715C101.552 162.379 109.573 160.532 117.453 158.184C139.47 152.066 142.073 144.93 142.073 144.93Z" fill="white"/>
<path d="M191.922 141.48L192.854 144.648C193.18 153.671 212.377 167.381 226.065 188.227C239.753 209.073 242.638 229.745 242.703 256.991C242.768 284.236 253.44 386.036 256.672 399.247C264.255 393.797 269.488 385.672 271.314 376.514C268.581 360.44 263.722 332.522 261.032 322.782C258.343 313.043 257.974 296.991 257.258 276.86C256.859 268.142 257.091 259.406 257.952 250.722C257.952 250.722 270.273 234.257 261.683 204.843C253.093 175.429 211.488 148.031 211.488 148.031C208.845 147.321 206.166 146.757 203.462 146.339C199.405 145.274 195.519 143.638 191.922 141.48Z" fill="#F85F37"/>
<path opacity="0.4" d="M191.922 141.48L192.854 144.648C193.18 153.671 212.377 167.381 226.065 188.227C239.753 209.073 242.638 229.745 242.703 256.991C242.768 284.236 253.44 386.036 256.672 399.247C264.255 393.797 269.488 385.672 271.314 376.514C268.581 360.44 263.722 332.522 261.032 322.782C258.343 313.043 257.974 296.991 257.258 276.86C256.859 268.142 257.091 259.406 257.952 250.722C257.952 250.722 270.273 234.257 261.683 204.843C253.093 175.429 211.488 148.031 211.488 148.031C208.845 147.321 206.166 146.757 203.462 146.339C199.405 145.274 195.519 143.638 191.922 141.48Z" fill="white"/>
<path d="M141.055 132.414C138.597 141.982 132.765 150.341 124.634 155.95C124.634 155.95 131.77 184.345 131.141 198.445C130.512 212.544 128.213 226.254 132.074 226.015C135.935 225.777 147.519 221.807 147.519 221.807C147.519 221.807 138.647 235.82 139.688 240.093C140.729 244.367 157.042 292.154 157.042 292.154C157.042 292.154 161.163 236.124 159.645 219.79C158.126 203.455 154.048 173.434 147.671 156.405C144.8 148.607 142.587 140.582 141.055 132.414Z" fill="#F85F37"/>
<path d="M244.005 281.241C244.266 265.492 251.099 225.796 251.88 217.878C252.661 209.961 241.251 203.215 241.251 203.215C241.251 203.215 248.04 204.711 250.209 202.911C252.379 201.11 238.127 181.935 226.088 169.397C214.049 156.859 191.381 137.965 191.381 137.965L191.793 148.355C198.356 155.007 204.268 162.271 209.45 170.047C220.057 186.295 239.559 203.757 244.005 281.241Z" fill="#F85F37"/>
<path d="M66.4995 405.729C58.4301 408.029 48.0831 397.985 45.2631 394.493C42.4431 391 46.0657 382.714 47.7794 375.707C49.493 368.701 47.7794 356.857 56.4562 360.176C65.133 363.495 83.3326 386.879 66.4995 405.729Z" fill="#AF6152"/>
<path d="M94.0906 165.078C71.6394 168.397 64.6328 173.256 52.2684 198.115C37.8649 227.052 14.5676 267.334 11.0535 279.894C7.69125 291.586 1.01014 299.916 13.8084 317.703C25.5221 333.972 62.3118 376.597 67.7132 382.779C72.4854 388.311 69.8824 404.146 53.3964 401.803C53.3964 401.803 65.9127 412.866 72.7891 411.651C78.7327 410.589 87.9735 405.383 96.6503 387.4C102.052 376.055 97.5397 367.139 89.3184 354.493C79.5136 339.417 58.3205 297.334 58.3205 297.334L96.108 230.154C96.108 230.154 113.223 185.035 94.0906 165.078Z" fill="#C8856A"/>
<path d="M93.4405 163.758C74.6986 168.096 69.2973 167.359 57.5402 185.884C45.7831 204.409 26.4121 243.172 19.4273 256.513C12.4424 269.854 1.8784 291.763 6.19512 304.799C11.1626 296.86 38.7332 290.635 58.256 297.402L97.7789 231.415C97.7789 231.415 117.584 182.803 93.4405 163.758Z" fill="#F85F37"/>
<path d="M60.1205 301.219C47.5392 298.139 29.7516 301.219 18.103 306.751C15.8037 307.814 11.5954 310.699 11.5954 314.451L13.7646 317.705C12.4349 317.918 11.072 317.713 9.86371 317.119C8.65542 316.524 7.66133 315.57 7.01841 314.386C6.32782 312.785 5.55304 311.221 4.69735 309.701C3.17891 307.532 0.467438 305.991 0.0552902 303.367C-0.313477 301.089 1.22662 299.028 1.98585 296.859C3.28737 293.063 2.31123 288.529 4.63228 285.276C5.47056 284.198 6.5091 283.292 7.69086 282.607C14.1985 278.573 22.051 277.792 29.6215 278.269C41.3569 278.833 53.4827 282.282 61.6172 290.807C62.3551 291.439 62.8387 292.317 62.9784 293.278C63.118 294.24 62.9041 295.219 62.3765 296.035C62.1379 296.599 61.8125 297.228 62.0728 297.792C62.2073 298.031 62.3752 298.251 62.5717 298.443C62.9201 298.988 63.1149 299.618 63.1357 300.265C63.2303 300.993 63.1386 301.733 62.8693 302.416C62.5999 303.099 62.1617 303.702 61.5956 304.169L60.1205 301.219Z" fill="#F85F37"/>
<path opacity="0.4" d="M60.1205 301.219C47.5392 298.139 29.7516 301.219 18.103 306.751C15.8037 307.814 11.5954 310.699 11.5954 314.451L13.7646 317.705C12.4349 317.918 11.072 317.713 9.86371 317.119C8.65542 316.524 7.66133 315.57 7.01841 314.386C6.32782 312.785 5.55304 311.221 4.69735 309.701C3.17891 307.532 0.467438 305.991 0.0552902 303.367C-0.313477 301.089 1.22662 299.028 1.98585 296.859C3.28737 293.063 2.31123 288.529 4.63228 285.276C5.47056 284.198 6.5091 283.292 7.69086 282.607C14.1985 278.573 22.051 277.792 29.6215 278.269C41.3569 278.833 53.4827 282.282 61.6172 290.807C62.3551 291.439 62.8387 292.317 62.9784 293.278C63.118 294.24 62.9041 295.219 62.3765 296.035C62.1379 296.599 61.8125 297.228 62.0728 297.792C62.2073 298.031 62.3752 298.251 62.5717 298.443C62.9201 298.988 63.1149 299.618 63.1357 300.265C63.2303 300.993 63.1386 301.733 62.8693 302.416C62.5999 303.099 62.1617 303.702 61.5956 304.169L60.1205 301.219Z" fill="white"/>
</svg>
