<svg width="396" height="923" viewBox="0 0 396 923" fill="none" xmlns="http://www.w3.org/2000/svg">
<path d="M91.2341 354.787L265.66 353.17C284.179 517.096 276.072 533.156 276.36 613.502C276.492 654.616 262.271 773.529 262.625 805.583C262.625 807.488 254.097 816.349 240.938 815.064C227.78 813.779 223.97 809.46 223.881 808.108C223.527 803.368 218.299 796.722 217.568 792.026C212.761 761.39 207.09 721.937 202.216 690.591C198.369 666.739 198.917 642.385 203.833 618.73L178.115 498.842C175.9 517.074 173.862 533.09 169.941 551.454L168.08 560.115C167.172 570.793 151.333 573.407 145.928 574.603C131.285 577.66 117.994 574.403 104.459 568.068C90.924 561.732 84.6328 553.935 84.0347 541.685L84.2784 534.596C83.9461 524.428 84.2784 516.032 83.6803 506.441C78.0093 418.762 83.1929 372.752 91.2341 354.787Z" fill="#C8856A"/>
<path d="M265.661 345.703C265.661 345.703 273.791 402.058 277.07 451.79C280.62 513.226 280.878 574.809 277.845 636.273C274.633 695.397 267.079 761.233 267.079 761.233C267.079 761.233 259.104 769.23 236.509 768.876C213.914 768.521 209.417 761.233 209.417 761.233C209.417 761.233 196.126 683.944 195.949 663.143C196.221 648.557 197.95 634.034 201.11 619.792L178.205 503.449C178.205 503.449 172.024 550.854 168.192 560.114C164.36 569.373 149.341 578.921 120.299 571.478C91.2577 564.035 86.3621 559.161 84.1247 541.683C81.8873 524.205 79.1626 449.264 79.6943 415.571C80.2259 381.878 94.1818 342.979 94.1818 342.979L265.661 345.703Z" fill="#455A64"/>
<path d="M108.27 363.581C93.0289 408.772 94.0258 468.627 94.6903 508.213C95.0226 527.906 95.0447 547.289 94.9783 562.352C94.1143 561.799 93.339 561.245 92.608 560.669C92.608 545.871 92.608 527.197 92.32 508.257C91.6555 468.494 90.6365 408.395 106.01 362.828L108.27 363.581Z" fill="#37474F"/>
<path d="M102.467 435.596C106.137 435.653 109.743 434.629 112.834 432.65C119.768 428.22 124.442 418.739 126.724 404.45C131.775 372.795 133.724 358.485 133.746 358.352L131.398 358.02C131.398 358.175 129.426 372.463 124.376 404.074C122.161 417.653 117.885 426.603 111.55 430.656C107.119 433.492 101.67 433.957 94.9578 432.074L94.3153 434.289C96.9599 435.097 99.7029 435.537 102.467 435.596Z" fill="#37474F"/>
<path d="M178.249 503.449L184.895 433.98C184.895 433.98 221.313 427.955 237.883 402.834C237.883 402.834 236.111 432.429 193.579 444.48L189.259 499.86L201 619.748L178.249 503.449Z" fill="#37474F"/>
<path d="M59.7352 799.933C62.2827 787.639 70.8113 780.218 84.7893 779.996C98.7673 779.775 105.479 797.12 104.726 806.379L59.7352 799.933Z" fill="#263238"/>
<path d="M108.116 668.771C106.78 667.745 105.222 667.048 103.567 666.736C101.912 666.424 100.207 666.507 98.5903 666.977C97.1282 667.486 96.3751 668.35 100.075 670.1L73.4919 810.301C77.6482 812.414 82.3182 813.305 86.9604 812.871L113.543 672.648C111.461 671.788 109.604 670.462 108.116 668.771Z" fill="#E0E0E0"/>
<path opacity="0.1" d="M112.103 669.523C110.768 668.497 109.209 667.8 107.554 667.488C105.9 667.176 104.195 667.259 102.577 667.729C101.988 667.868 101.446 668.161 101.007 668.577C100.567 668.993 100.246 669.518 100.074 670.099L73.4917 810.3C73.4383 810.903 73.5454 811.51 73.8022 812.059C74.0589 812.607 74.4563 813.078 74.9538 813.423C76.2829 814.453 77.8365 815.154 79.4879 815.47C81.1392 815.785 82.8418 815.707 84.457 815.24C85.0462 815.1 85.588 814.808 86.0276 814.392C86.4672 813.975 86.789 813.45 86.9602 812.87L113.543 672.647C113.601 672.045 113.498 671.439 113.245 670.89C112.992 670.341 112.598 669.87 112.103 669.523Z" fill="black"/>
<path d="M79.8048 776.895C79.3618 781.325 92.5201 783.54 93.384 778.91C95.4663 780.306 97.0613 781.126 95.5993 787.638C94.1372 794.151 103.884 796.388 102.666 805.537C99.6974 827.955 89.8397 823.148 77.3902 821.598C70.8996 820.8 63.5008 816.104 61.2634 810.854C61.2634 810.854 62.0609 800.819 62.659 798.449C64.985 789.189 73.5136 790.74 74.732 784.36C75.3744 781.126 76.4156 777.116 79.8048 776.895Z" fill="#455A64"/>
<path d="M103.108 666.377C102.517 666.485 101.964 666.747 101.505 667.136C101.046 667.524 100.698 668.027 100.494 668.593C100.4 669.194 100.47 669.81 100.696 670.375C100.922 670.94 101.296 671.434 101.779 671.805C103.061 672.885 104.579 673.649 106.211 674.034C107.842 674.419 109.542 674.414 111.171 674.02C111.763 673.912 112.316 673.65 112.775 673.262C113.233 672.873 113.582 672.37 113.785 671.805C113.88 671.203 113.81 670.587 113.584 670.022C113.358 669.457 112.984 668.963 112.501 668.593C111.219 667.512 109.701 666.748 108.069 666.363C106.437 665.978 104.738 665.983 103.108 666.377Z" fill="#455A64"/>
<path d="M116.645 670.101C114.055 668.102 111.031 666.741 107.817 666.129C104.603 665.517 101.291 665.671 98.1477 666.578C97.0012 666.851 95.9477 667.423 95.0952 668.236C94.2428 669.05 93.6219 670.076 93.2964 671.208L92.0115 677.987C91.9019 679.157 92.1045 680.335 92.5987 681.401C93.093 682.468 93.8611 683.384 94.8249 684.056C97.4183 686.056 100.447 687.416 103.665 688.024C106.883 688.632 110.2 688.472 113.344 687.556C114.488 687.286 115.54 686.717 116.392 685.908C117.244 685.098 117.866 684.077 118.195 682.949L119.48 676.17C119.587 674.998 119.381 673.818 118.883 672.752C118.385 671.685 117.613 670.77 116.645 670.101Z" fill="#E0E0E0"/>
<path d="M98.1461 666.531C96.9592 666.703 95.8553 667.24 94.9885 668.069C94.1217 668.898 93.5352 669.976 93.3108 671.154C93.0864 672.332 93.2353 673.551 93.7367 674.64C94.2382 675.73 95.0672 676.635 96.1081 677.231C98.7014 679.231 101.73 680.591 104.948 681.199C108.167 681.807 111.483 681.647 114.627 680.731C115.814 680.563 116.919 680.027 117.786 679.199C118.653 678.371 119.239 677.293 119.461 676.115C119.683 674.937 119.531 673.719 119.026 672.631C118.52 671.544 117.687 670.643 116.643 670.054C114.053 668.055 111.029 666.694 107.815 666.082C104.602 665.47 101.289 665.624 98.1461 666.531Z" fill="#EBEBEB"/>
<path d="M150.226 580.272C138.64 569.728 116.2 565.143 101.491 570.304C94.4909 572.763 90.8801 576.95 90.57 581.646L84.8326 667.308C84.6997 669.324 86.6269 671.739 90.6143 674.087C99.7357 678.962 110.047 681.166 120.365 680.444C124.95 679.935 127.653 678.495 128.317 676.568L155.941 595.114C157.447 590.64 155.786 585.323 150.226 580.272Z" fill="#455A64"/>
<path d="M80.7583 616.669V616.935C80.7583 619.504 83.3723 623.469 87.5591 627.413C88.1779 628.022 88.8286 628.599 89.5084 629.14C95.7116 634.511 103.062 638.391 110.996 640.482C126.857 644.292 145.177 643.96 147.348 638.998C149.519 634.036 151.778 628.83 153.572 624.356C159.706 608.204 164.601 591.608 168.215 574.713C170.962 560.469 172.645 552.405 170.076 551.519L168.215 560.181C168.215 560.181 155.788 575.554 120.145 567.447C105.879 564.168 97.2395 559.25 92.0338 554.621C91.3692 554.022 90.7933 553.424 90.2394 552.848C84.5242 546.89 84.1698 541.772 84.1698 541.772L83.483 534.661C80.4703 534.307 80.9355 538.937 81.0684 548.75C81.2013 558.564 82.7077 590.551 81.733 601.561C81.3343 605.858 81.0242 611.485 80.7583 616.669Z" fill="#37474F"/>
<path d="M87.5585 627.345C88.1773 627.955 88.828 628.531 89.5078 629.073L89.6408 628.098C89.9952 625.395 90.2832 622.648 90.5047 619.924C91.1028 613.278 91.3243 606.632 91.2579 599.987C91.1471 589.885 90.6819 579.784 91.0363 569.683C91.2135 565.053 91.5015 560.467 91.8781 555.86C91.8781 555.417 91.9889 554.996 92.0332 554.575C91.3686 553.977 90.7927 553.379 90.2389 552.803C90.2389 553.268 90.2389 553.755 90.0838 554.198C89.5965 559.293 89.2347 564.388 88.9984 569.483C88.5775 579.119 88.7768 588.711 88.9984 598.281C89.1313 605.281 88.9984 612.259 88.4446 619.215C88.1787 621.94 87.9351 624.62 87.5585 627.345Z" fill="#263238"/>
<path d="M97.8594 570.815C97.2924 570.77 96.7514 570.557 96.3049 570.205C95.8583 569.853 95.5261 569.376 95.3502 568.835C95.1742 568.294 95.1625 567.713 95.3163 567.165C95.4702 566.618 95.7827 566.128 96.2146 565.758C96.6465 565.388 97.1784 565.154 97.7431 565.085C98.3079 565.017 98.8802 565.117 99.3878 565.374C99.8955 565.631 100.316 566.032 100.596 566.527C100.876 567.022 101.003 567.589 100.961 568.157C100.933 568.535 100.83 568.904 100.659 569.243C100.488 569.582 100.251 569.884 99.9629 570.131C99.6746 570.378 99.3404 570.565 98.9794 570.683C98.6184 570.8 98.2378 570.845 97.8594 570.815ZM98.0145 588.669C97.4461 588.628 96.9027 588.42 96.453 588.07C96.0033 587.72 95.6675 587.244 95.4882 586.703C95.3089 586.162 95.2942 585.58 95.4458 585.031C95.5974 584.482 95.9085 583.99 96.3399 583.617C96.7712 583.245 97.3034 583.009 97.8689 582.939C98.4345 582.869 99.0081 582.969 99.517 583.225C100.026 583.481 100.447 583.883 100.728 584.379C101.009 584.875 101.136 585.443 101.094 586.011C101.068 586.389 100.968 586.758 100.8 587.096C100.631 587.435 100.396 587.737 100.11 587.984C99.8232 588.231 99.4905 588.419 99.1308 588.537C98.7711 588.655 98.3917 588.7 98.0145 588.669ZM95.3119 605.129C95.4016 604.394 95.7704 603.723 96.3418 603.253C96.9132 602.783 97.6434 602.552 98.3811 602.606C99.1188 602.66 99.8074 602.996 100.304 603.544C100.801 604.092 101.068 604.81 101.049 605.549C101.04 605.939 100.951 606.323 100.788 606.677C100.626 607.032 100.393 607.35 100.104 607.612C99.8155 607.873 99.4765 608.074 99.1078 608.201C98.7392 608.328 98.3486 608.378 97.9597 608.35C97.5709 608.321 97.1918 608.214 96.8456 608.035C96.4994 607.855 96.1933 607.608 95.9457 607.306C95.6981 607.005 95.5143 606.657 95.4053 606.283C95.2964 605.908 95.2646 605.516 95.3119 605.129ZM95.4227 623.338C95.991 623.379 96.5345 623.587 96.9841 623.937C97.4338 624.287 97.7696 624.763 97.9488 625.304C98.1281 625.845 98.1429 626.427 97.9913 626.976C97.8397 627.525 97.5285 628.017 97.0972 628.39C96.6658 628.762 96.1337 628.998 95.5681 629.068C95.0026 629.138 94.429 629.038 93.92 628.782C93.4111 628.526 92.9896 628.124 92.709 627.628C92.4284 627.132 92.3011 626.564 92.3435 625.996C92.3687 625.618 92.4686 625.249 92.6375 624.911C92.8064 624.572 93.0409 624.27 93.3274 624.023C93.6138 623.776 93.9466 623.588 94.3063 623.47C94.6659 623.352 95.0454 623.307 95.4227 623.338Z" fill="#263238"/>
<path d="M97.8809 885.22C96.5739 898.4 94.1594 907.084 89.153 914.66C84.1466 922.236 75.2192 924.296 66.3362 921.66C57.4532 919.024 46.2443 912.511 44.1841 900.992C42.124 889.473 42.9214 881.697 45.4468 869.514L97.8809 885.22Z" fill="#263238"/>
<path d="M63.7432 791.938C60.5755 792.801 57.7621 809.836 54.8824 827.514C51.8254 846.476 48.2367 852.103 45.5784 867.631C42.5214 885.353 43.5405 891.401 49.3443 902.455C55.1482 913.508 76.8794 924.961 88.4207 909.964C97.8132 897.714 98.3448 885.752 98.2562 867.875C98.0695 853.704 98.6833 839.533 100.095 825.432C101.357 812.14 106.032 799.669 102.886 798.074C102.554 800.023 99.0758 814.909 96.6391 813.159C95.5536 812.893 95.4207 810.944 95.8195 807.555C96.1301 806.025 95.8278 804.434 94.9777 803.124C93.8897 802.034 92.4727 801.334 90.946 801.131C87.3574 800.267 82.3953 798.915 78.718 798.472C76.5028 798.184 77.7655 798.207 75.6167 797.985C73.468 797.764 69.4584 797.01 67.509 797.985C66.335 798.539 66.2021 799.669 65.8476 800.909C65.4932 802.15 65.161 803.878 64.7179 805.096C64.5407 805.583 63.8097 806.602 63.3001 806.514C62.4362 806.403 62.2812 804.121 62.4141 803.124C62.547 802.127 62.414 800.488 62.5913 799.27C62.7685 798.051 63.2559 795.127 63.7432 791.938Z" fill="#37474F"/>
<path d="M46.6875 861.648C46.2223 864.196 43.7856 880.19 48.3047 883.468C53.2003 886.99 56.5009 873.699 56.5009 873.699C56.5009 873.699 68.4409 870.576 85.2987 878.772C84.3019 881.497 86.5836 890.712 91.3684 888.984C96.1533 887.256 98.3685 869.778 98.3906 869.512C98.3906 886.636 97.6818 898.155 88.5551 910.051C77.0138 925.048 55.3269 913.573 49.5008 902.541C43.6748 891.51 42.6558 885.462 45.7128 867.718C45.9122 865.946 46.2223 863.243 46.6875 861.648Z" fill="#455A64"/>
<path d="M57.7644 874.895C57.4321 881.341 51.739 878.905 51.1188 869.8C50.3434 856.132 54.2644 843.218 54.8403 827.711C57.6979 809.989 59.9796 792.268 63.7012 792.135C63.4353 795.214 62.7044 801.815 62.7044 801.815C62.5493 803.122 62.2835 806.445 62.2835 806.445C60.5999 819.736 56.4796 835.11 56.4574 848.822C56.4796 860.806 58.0524 868.449 57.7644 874.895Z" fill="#263238"/>
<path d="M83.216 878.508C84.678 872.217 86.8047 870.511 88.5768 858.571C90.349 846.631 95.2225 825.764 98.3016 812.871C99.1434 808.862 102.887 798.361 102.909 798.229C105.124 799.425 105.435 806.779 103.286 814.754C101.137 822.729 99.7415 827.602 98.2573 835.289C94.4693 850.508 93.3617 866.789 90.9028 875.584C88.4439 884.378 81.7318 884.799 83.216 878.508Z" fill="#263238"/>
<path d="M84.656 878.881C84.4832 878.856 84.3173 878.796 84.1686 878.704C75.4502 874.203 65.4726 872.76 55.836 874.606C55.6527 874.673 55.4572 874.699 55.2627 874.685C55.0682 874.67 54.8791 874.614 54.708 874.52C54.5369 874.426 54.3877 874.297 54.2703 874.142C54.1529 873.986 54.07 873.807 54.0272 873.617C53.9843 873.426 53.9826 873.229 54.022 873.038C54.0613 872.847 54.1409 872.667 54.2555 872.509C54.37 872.351 54.5168 872.219 54.6862 872.122C54.8556 872.026 55.0437 871.966 55.2379 871.948C65.5482 869.899 76.2498 871.463 85.542 876.378C85.6971 876.468 85.8328 876.587 85.9414 876.729C86.05 876.871 86.1293 877.034 86.1747 877.207C86.22 877.38 86.2305 877.56 86.2056 877.737C86.1806 877.915 86.1207 878.085 86.0294 878.239C85.8888 878.469 85.6836 878.653 85.4393 878.767C85.1951 878.881 84.9227 878.921 84.656 878.881Z" fill="#F0F0F0"/>
<path d="M88.9087 866.212L88.4435 866.079C88.3106 866.079 72.1839 857.794 55.4147 860.962C55.0568 861.027 54.6876 860.951 54.3855 860.748C54.0834 860.545 53.8725 860.232 53.7976 859.876C53.733 859.518 53.8135 859.149 54.0212 858.85C54.2289 858.55 54.5468 858.346 54.9052 858.281C72.6269 854.914 89.0859 863.31 89.7283 863.642C90.048 863.816 90.287 864.108 90.3946 864.456C90.5022 864.803 90.4698 865.179 90.3043 865.503C90.1766 865.754 89.9727 865.957 89.7219 866.085C89.4711 866.212 89.1864 866.257 88.9087 866.212Z" fill="#F0F0F0"/>
<path d="M53.9309 850.416C53.6717 850.379 53.429 850.267 53.2324 850.094C53.0358 849.921 52.8936 849.694 52.8233 849.442C52.7724 849.269 52.756 849.087 52.7752 848.908C52.7944 848.728 52.8487 848.555 52.9351 848.396C53.0215 848.238 53.1383 848.098 53.2788 847.985C53.4192 847.871 53.5806 847.787 53.7537 847.736C70.5229 842.796 91.9662 851.436 92.6529 851.812C92.8106 851.902 92.9489 852.022 93.06 852.165C93.1711 852.308 93.2526 852.472 93.3 852.647C93.3474 852.822 93.3596 853.005 93.336 853.185C93.3123 853.365 93.2534 853.538 93.1624 853.695C92.9737 854.005 92.6714 854.23 92.3198 854.321C91.9682 854.412 91.595 854.362 91.2795 854.182C91.1244 854.182 70.1463 845.765 54.5291 850.372C54.3354 850.431 54.1311 850.446 53.9309 850.416Z" fill="#F0F0F0"/>
<path d="M57.0761 838.966C56.8215 838.925 56.5832 838.815 56.3877 838.646C56.1922 838.478 56.0471 838.259 55.9685 838.014C55.914 837.842 55.8944 837.661 55.9108 837.482C55.9271 837.303 55.9791 837.129 56.0637 836.97C56.1483 836.811 56.2639 836.67 56.4035 836.557C56.5431 836.443 56.704 836.359 56.8768 836.308C75.3295 830.504 93.6493 841.248 94.2696 841.669C94.482 841.897 94.6108 842.19 94.6346 842.5C94.6585 842.811 94.5761 843.12 94.4009 843.378C94.2258 843.635 93.9683 843.826 93.6707 843.918C93.3732 844.01 93.0531 843.998 92.7632 843.884C92.6081 843.773 74.8864 833.472 57.6964 838.855C57.4999 838.936 57.2884 838.974 57.0761 838.966Z" fill="#F0F0F0"/>
<path d="M58.7827 824.921C58.5279 824.89 58.2878 824.785 58.0912 824.62C57.8947 824.455 57.7501 824.237 57.6751 823.991C57.5625 823.647 57.5902 823.273 57.7519 822.95C57.9137 822.626 58.1965 822.379 58.539 822.263C75.862 816.57 95.4888 827.58 96.1977 828.023C96.3503 828.118 96.4824 828.242 96.5865 828.388C96.6905 828.535 96.7642 828.701 96.8034 828.876C96.8426 829.051 96.8464 829.233 96.8147 829.409C96.7829 829.586 96.7163 829.755 96.6186 829.906C96.5238 830.058 96.3995 830.19 96.253 830.295C96.1066 830.399 95.9407 830.472 95.7654 830.511C95.5901 830.551 95.4087 830.554 95.2319 830.523C95.0551 830.491 94.8864 830.424 94.7356 830.327C94.5806 830.327 75.5076 819.561 59.4251 824.855C59.2181 824.923 58.9991 824.945 58.7827 824.921Z" fill="#EBEBEB"/>
<path d="M332.14 863.177C332.938 863.177 334.156 871.927 329.925 875.649C324.941 879.946 310.365 887.035 291.048 884.51C271.731 881.984 266.348 878.196 258.617 871.75C250.886 865.304 243.775 858.459 235.047 856.62C226.94 854.848 214.579 851.614 211.987 849.111C209.395 846.607 209.772 835.465 209.772 835.465L332.14 863.177Z" fill="#263238"/>
<path d="M216.948 787.195C211.144 787.505 213.581 801.107 211.211 806.911C209.427 817.633 209.033 828.54 210.037 839.364C211.1 845.079 227.758 848.579 236.331 851.791C255.338 859.278 271.775 881.298 295.677 879.68C310.563 879.548 327.31 874.696 331.12 867.785C346.095 837.436 272.129 836.152 266.259 792.888C265.971 790.252 264.398 788.901 258.528 788.812C251.882 788.812 243.597 790.319 238.724 795.458C236.752 798.36 238.724 802.347 237.084 805.249C233.363 806.446 230.926 799.889 228.534 797.695C224.48 794.705 215.043 794.328 216.948 787.195Z" fill="#37474F"/>
<path d="M259.991 866.701C256.727 863.891 253.302 861.272 249.734 858.859C249.734 858.859 273.26 868.097 283.738 860.919C290.383 856.289 287.26 850.685 287.083 848.913C286.906 847.141 302.811 839.432 309.368 838.656L312.092 838.523C313.931 839.52 316.124 840.428 317.055 840.916C336.615 850.884 335.862 859.258 331.121 867.809C327.311 874.72 315.172 880.125 295.944 880.169C283.361 880.169 269.073 874.144 259.991 866.701Z" fill="#455A64"/>
<path d="M285.266 843.661C299 849.133 293.152 851.702 289.297 852.256C285.443 852.81 266.082 841.69 251.971 830.569C237.262 818.962 224.436 806.711 218.964 802.458C216.926 800.863 214.733 798.914 212.784 797.075C213.138 794.063 213.426 791.316 213.692 789.876C213.863 789.132 214.275 788.466 214.864 787.981C215.453 787.496 216.186 787.22 216.948 787.195L217.702 791.936C218.851 792.959 220.213 793.716 221.689 794.151C224.193 794.812 226.522 796.015 228.512 797.673C230.297 800.212 232.29 802.598 234.471 804.806C246.499 819.914 271.531 838.19 285.266 843.661Z" fill="#263238"/>
<path d="M288.323 850.241C288.01 850.232 287.707 850.123 287.459 849.931C287.323 849.818 287.209 849.679 287.126 849.522C287.043 849.364 286.992 849.192 286.976 849.015C286.959 848.838 286.978 848.66 287.03 848.49C287.083 848.32 287.169 848.163 287.282 848.026C291.137 843.263 302.301 836.95 312.381 838.058C312.558 838.075 312.73 838.127 312.888 838.211C313.045 838.295 313.184 838.41 313.297 838.547C313.41 838.685 313.495 838.844 313.547 839.015C313.599 839.185 313.616 839.364 313.599 839.542C313.581 839.719 313.529 839.892 313.445 840.049C313.361 840.206 313.247 840.345 313.109 840.458C312.971 840.572 312.813 840.656 312.642 840.708C312.471 840.76 312.292 840.778 312.115 840.76C302.678 839.763 292.444 845.966 289.387 849.621C289.27 849.8 289.113 849.949 288.928 850.057C288.744 850.165 288.537 850.228 288.323 850.241Z" fill="#F0F0F0"/>
<path d="M276.316 843.506C276.005 843.506 275.702 843.405 275.453 843.218C275.171 842.996 274.988 842.672 274.942 842.316C274.897 841.96 274.992 841.6 275.209 841.313C278.975 836.484 289.962 829.927 300.086 830.769C300.446 830.797 300.781 830.967 301.018 831.24C301.254 831.514 301.373 831.87 301.348 832.231C301.335 832.411 301.285 832.586 301.202 832.746C301.12 832.906 301.006 833.048 300.868 833.164C300.729 833.28 300.569 833.366 300.397 833.419C300.225 833.472 300.044 833.49 299.864 833.471C290.427 832.718 280.326 839.142 277.358 842.975C277.234 843.135 277.076 843.265 276.896 843.357C276.716 843.449 276.518 843.5 276.316 843.506Z" fill="#F0F0F0"/>
<path d="M265.241 835.841C264.926 835.84 264.621 835.73 264.377 835.531C264.239 835.419 264.123 835.281 264.038 835.125C263.953 834.968 263.9 834.797 263.882 834.62C263.863 834.443 263.88 834.264 263.93 834.093C263.981 833.923 264.065 833.764 264.178 833.626C268.032 828.863 279.197 822.55 289.298 823.657C289.655 823.702 289.98 823.884 290.204 824.166C290.428 824.448 290.532 824.806 290.494 825.164C290.478 825.341 290.426 825.512 290.342 825.669C290.258 825.826 290.143 825.964 290.005 826.075C289.867 826.187 289.707 826.269 289.537 826.318C289.366 826.367 289.187 826.381 289.01 826.36C279.573 825.363 269.339 831.566 266.282 835.221C266.169 835.398 266.016 835.546 265.835 835.654C265.654 835.762 265.451 835.826 265.241 835.841Z" fill="#F0F0F0"/>
<path d="M255.427 828.907C255.116 828.926 254.809 828.832 254.563 828.641C254.275 828.425 254.083 828.104 254.029 827.748C253.975 827.391 254.064 827.028 254.275 826.736C257.93 821.818 268.851 815.062 278.953 815.66C279.286 815.719 279.586 815.898 279.795 816.164C280.004 816.431 280.107 816.764 280.085 817.102C280.063 817.44 279.917 817.757 279.676 817.994C279.434 818.231 279.113 818.37 278.775 818.385C269.339 817.787 259.37 824.432 256.468 828.309C256.351 828.481 256.197 828.624 256.016 828.728C255.836 828.831 255.635 828.893 255.427 828.907Z" fill="#F0F0F0"/>
<path d="M244.882 820.735C244.578 820.757 244.277 820.662 244.041 820.469C243.894 820.368 243.77 820.238 243.675 820.087C243.58 819.937 243.516 819.769 243.487 819.593C243.458 819.418 243.465 819.238 243.507 819.065C243.548 818.892 243.624 818.729 243.73 818.586C248.781 811.653 260.632 806.735 270.756 807.51C270.935 807.518 271.11 807.563 271.271 807.64C271.432 807.718 271.576 807.827 271.694 807.961C271.812 808.096 271.901 808.253 271.957 808.423C272.013 808.592 272.034 808.772 272.019 808.95C272.007 809.128 271.961 809.301 271.883 809.461C271.804 809.621 271.695 809.763 271.561 809.88C271.427 809.998 271.272 810.087 271.103 810.145C270.934 810.202 270.756 810.225 270.579 810.213C261.452 809.592 250.42 814.111 245.923 820.248C245.797 820.402 245.639 820.525 245.458 820.61C245.278 820.694 245.081 820.737 244.882 820.735Z" fill="#F0F0F0"/>
<path d="M279.285 599.213C279.285 601.783 279.152 604.33 279.064 606.878C263.651 605.296 248.089 606.042 232.899 609.093C239.544 603.643 263.779 596.377 279.285 599.213Z" fill="#C8856A"/>
<path d="M278.775 616.935C278.775 619.349 278.576 621.742 278.487 624.112C274.987 623.802 253.433 621.897 243.93 618.087C255.505 616.905 267.148 616.52 278.775 616.935Z" fill="#C8856A"/>
<path d="M108.293 526.11C108.293 526.11 117.641 516.363 135.607 518.534C153.572 520.705 160.904 531.272 160.904 531.272C141.654 522.566 108.293 526.11 108.293 526.11ZM150.604 534.75C140.037 536.854 129.448 537.784 106.299 533.199C117.265 530.541 150.604 534.727 150.604 534.727V534.75Z" fill="#C8856A"/>
<path d="M217.259 607.276C219.164 617.067 217.259 626.792 215.044 638.045C212.455 649.753 210.971 661.679 210.614 673.666C210.259 696.261 218.057 744.331 222.066 767.369C221.18 767.192 220.339 766.97 219.541 766.749C215.487 743.268 207.889 696.061 208.221 673.71C208.571 661.584 210.055 649.518 212.652 637.668C214.867 626.216 216.617 617.156 214.867 607.829C211.19 588.934 200.357 486.17 199.759 435.309H202.129C202.705 485.948 213.516 588.446 217.259 607.276Z" fill="#37474F"/>
<path d="M325.162 256.83C323.102 255.7 319.314 259.045 314.241 263.786C312.995 264.961 312.027 266.401 311.41 268C310.793 269.598 310.542 271.315 310.675 273.023C314.125 272.363 317.249 270.551 319.535 267.884C322.237 264.682 324.163 260.899 325.162 256.83Z" fill="#263238"/>
<path d="M336.66 295.598C334.711 294.977 333.957 294.136 336.66 291.632C339.363 289.129 348.379 282.572 348.379 282.572L350.594 286.338C350.594 286.338 340.116 296.351 336.66 295.598Z" fill="black"/>
<path d="M394.167 234.235C392.904 228.652 386.79 224.532 375.759 218.396C370.176 215.228 265.352 167.247 250.754 161.642C231.172 154.133 224.393 153.8 215.754 152.582L235.979 223.713C235.979 223.713 302.191 245.555 329.859 254.061C322.239 263.077 315.527 270.919 308.682 273.998L335.685 296.903C341.666 287.621 378.217 269.014 386.303 256.431C392.262 246.994 395.385 239.662 394.167 234.235Z" fill="#C8856A"/>
<path d="M216.019 152.051C228.336 152.804 243.355 156.171 290.362 177.437C337.369 198.703 371.815 212.46 383.777 223.115C355.6 222.14 342.176 236.14 330.612 253.197L230.551 224.843L216.019 152.051Z" fill="#F85F37"/>
<path d="M360.518 229.028C368.461 226.609 376.834 225.937 385.062 227.057C386.959 227.179 388.823 227.613 390.578 228.342C392.503 230.185 393.817 232.574 394.344 235.187C395.314 234.089 395.85 232.675 395.85 231.21C395.85 229.745 395.314 228.331 394.344 227.234C392.771 225.639 391.575 225.019 390.069 223.379C388.984 221.765 388.085 220.034 387.388 218.218C386.696 216.995 385.741 215.941 384.591 215.133C383.442 214.325 382.127 213.782 380.743 213.544C379.871 213.464 379.009 213.293 378.173 213.034C377.01 212.329 375.976 211.43 375.116 210.376C371.682 207.208 366.255 207.541 361.825 208.781C352.631 211.307 342.22 214.939 335.663 221.829C327.876 229.604 323.25 239.992 322.682 250.981C324.698 252.712 327.194 253.786 329.837 254.06C333.461 249.02 337.405 244.218 341.644 239.683C347.155 234.9 353.574 231.276 360.518 229.028Z" fill="#F85F37"/>
<path opacity="0.4" d="M360.518 229.028C368.461 226.609 376.834 225.937 385.062 227.057C386.959 227.179 388.823 227.613 390.578 228.342C392.503 230.185 393.817 232.574 394.344 235.187C395.314 234.089 395.85 232.675 395.85 231.21C395.85 229.745 395.314 228.331 394.344 227.234C392.771 225.639 391.575 225.019 390.069 223.379C388.984 221.765 388.085 220.034 387.388 218.218C386.696 216.995 385.741 215.941 384.591 215.133C383.442 214.325 382.127 213.782 380.743 213.544C379.871 213.464 379.009 213.293 378.173 213.034C377.01 212.329 375.976 211.43 375.116 210.376C371.682 207.208 366.255 207.541 361.825 208.781C352.631 211.307 342.22 214.939 335.663 221.829C327.876 229.604 323.25 239.992 322.682 250.981C324.698 252.712 327.194 253.786 329.837 254.06C333.461 249.02 337.405 244.218 341.644 239.683C347.155 234.9 353.574 231.276 360.518 229.028Z" fill="white"/>
<path opacity="0.4" d="M324.699 252.399C325.43 251.225 326.449 249.674 327.645 247.969C333.87 238.953 348.756 222.627 367.209 224.62C355.114 227.544 344.791 234.301 335.997 246.13L335.554 246.684C333.56 249.209 331.633 251.757 330.414 253.329L329.86 254.083C328.034 253.924 326.268 253.348 324.699 252.399Z" fill="#F85F37"/>
<path d="M333.624 276.745C330.567 274.021 323.079 267.198 318.339 269.192C310.852 272.359 307.263 275.328 296.187 280.578C288.079 284.41 278.199 289.439 276.095 292.008C270.712 298.432 272.506 314.891 274.677 321.847C276.848 328.803 283.405 325.835 283.405 325.835C284.047 327.252 285.864 330.265 291.601 329.18C292.044 331.395 295.301 333.876 300.462 332.857C301.105 335.205 305.668 336.025 308.725 334.651C312.956 332.746 317.386 326.699 320.045 324.395C322.703 322.091 323.988 321.227 324.054 319.787C324.054 317.838 321.972 315.866 318.405 316.198C322.655 315.039 326.459 312.631 329.326 309.287C331.558 306.257 333.417 302.97 334.864 299.496C335.945 296.595 337.611 293.948 339.76 291.72C343.703 287.29 337.788 280.644 334.621 277.521L333.624 276.745Z" fill="#C8856A"/>
<path d="M318.229 316.197C316.999 316.795 315.846 317.539 314.795 318.412C314.297 318.869 313.838 319.365 313.422 319.897C313.001 320.45 312.69 321.049 312.225 321.647L311.982 321.957L311.649 321.78C309.54 320.945 307.258 320.641 305.004 320.894C307.256 319.986 309.773 319.986 312.026 320.894L311.428 321.026C312.193 319.803 313.15 318.711 314.263 317.792C315.456 316.983 316.808 316.439 318.229 316.197Z" fill="#AF6152"/>
<path d="M310.298 327.629C310.563 326.521 310.962 325.591 311.161 324.572C311.432 323.552 311.639 322.516 311.782 321.471C312.29 322.502 312.401 323.685 312.092 324.794C311.813 325.906 311.184 326.9 310.298 327.629Z" fill="#AF6152"/>
<path d="M300.285 332.857C298.987 330.158 298.234 327.23 298.07 324.24C297.771 321.26 298.057 318.25 298.912 315.379C298.719 318.331 298.764 321.294 299.045 324.24C299.222 327.141 299.637 330.023 300.285 332.857Z" fill="#AF6152"/>
<path d="M291.514 329.179C290.278 325.807 289.466 322.295 289.099 318.723C288.688 315.154 288.845 311.543 289.564 308.023C289.516 311.567 289.678 315.11 290.052 318.634C290.362 322.156 291.004 325.634 291.514 329.179Z" fill="#AF6152"/>
<path d="M283.318 325.834C280.101 319.082 279.447 311.39 281.48 304.191C281.159 307.817 281.159 311.464 281.48 315.09C281.79 318.717 282.405 322.311 283.318 325.834Z" fill="#AF6152"/>
<path d="M281.989 298.564C281.93 297.672 282.074 296.779 282.41 295.95C282.795 295.093 283.371 294.335 284.093 293.735C285.527 292.691 287.205 292.035 288.967 291.83L286.752 293.093C286.013 293.47 285.315 293.923 284.669 294.444C283.36 295.497 282.421 296.94 281.989 298.564Z" fill="#AF6152"/>
<path d="M290.361 301.821C290.3 300.927 290.452 300.032 290.804 299.208C291.18 298.345 291.757 297.585 292.488 296.992C293.918 295.945 295.599 295.296 297.361 295.109L295.146 296.35C294.419 296.736 293.729 297.188 293.086 297.701C291.773 298.76 290.821 300.199 290.361 301.821Z" fill="#AF6152"/>
<path d="M300.486 306.429C300.425 305.535 300.577 304.639 300.929 303.815C301.304 302.958 301.873 302.2 302.591 301.6C304.03 300.556 305.718 299.906 307.486 299.717L305.271 300.957C304.544 301.343 303.854 301.795 303.211 302.309C301.893 303.362 300.94 304.804 300.486 306.429Z" fill="#AF6152"/>
<path d="M342.885 259.182L331.498 255.35C330.207 254.997 328.852 254.952 327.54 255.217C326.228 255.483 324.997 256.051 323.945 256.878L314.929 264.809C314.534 265.087 314.221 265.466 314.022 265.906C313.823 266.346 313.746 266.832 313.799 267.312C313.932 267.888 314.353 270.081 314.486 270.657C314.619 271.118 314.875 271.535 315.226 271.862C315.577 272.19 316.01 272.416 316.479 272.518L327.843 276.35C329.136 276.713 330.495 276.765 331.812 276.504C333.128 276.242 334.364 275.673 335.419 274.844L344.435 266.935C344.815 266.658 345.118 266.289 345.315 265.863C345.513 265.437 345.599 264.967 345.565 264.498C345.565 263.878 344.989 261.663 344.878 261.087C344.746 260.621 344.491 260.199 344.14 259.864C343.79 259.529 343.356 259.293 342.885 259.182Z" fill="#37474F"/>
<path d="M314.929 264.719L323.945 256.788C324.997 255.962 326.229 255.393 327.541 255.127C328.852 254.862 330.208 254.907 331.499 255.26L342.885 259.092C343.384 259.151 343.851 259.367 344.219 259.709C344.587 260.05 344.837 260.5 344.933 260.992C345.029 261.485 344.966 261.996 344.753 262.45C344.541 262.905 344.189 263.281 343.749 263.523L334.755 271.453C333.7 272.283 332.464 272.851 331.148 273.113C329.831 273.375 328.472 273.322 327.179 272.959L315.815 269.149C315.315 269.094 314.845 268.881 314.474 268.541C314.103 268.201 313.85 267.752 313.751 267.258C313.653 266.765 313.714 266.253 313.925 265.796C314.137 265.34 314.489 264.962 314.929 264.719Z" fill="#455A64"/>
<path d="M330.922 272.073C329.81 272.355 328.645 272.355 327.533 272.073L316.169 268.24C315.438 267.997 314.973 267.62 314.906 267.199C314.84 266.778 315.106 266.269 315.66 265.759L324.676 257.829C325.578 257.124 326.633 256.639 327.755 256.412C328.878 256.185 330.038 256.223 331.144 256.522L342.53 260.288C343.239 260.531 343.704 260.908 343.793 261.329C343.881 261.75 343.593 262.259 343.018 262.769L334.024 270.699C333.12 271.407 332.054 271.879 330.922 272.073Z" fill="#263238"/>
<path d="M325.805 274.399C325.775 274.415 325.74 274.423 325.706 274.423C325.671 274.423 325.637 274.415 325.606 274.399L317.543 271.696C317.448 271.661 317.37 271.591 317.325 271.501C317.279 271.41 317.27 271.306 317.299 271.209C317.311 271.158 317.334 271.111 317.366 271.07C317.398 271.029 317.439 270.996 317.486 270.973C317.532 270.95 317.583 270.937 317.635 270.936C317.687 270.934 317.739 270.944 317.786 270.965L325.961 273.579C326.055 273.614 326.133 273.684 326.179 273.775C326.224 273.865 326.233 273.97 326.204 274.067C326.202 274.115 326.189 274.163 326.167 274.206C326.145 274.25 326.115 274.288 326.077 274.32C326.04 274.351 325.996 274.374 325.95 274.388C325.903 274.401 325.854 274.405 325.805 274.399Z" fill="#455A64"/>
<path d="M335.486 272.761C337.192 273.292 340.958 275.596 342.509 282.397C344.059 289.198 340.537 294.824 336.66 295.688C338.012 296.597 341.29 295.245 345.344 292.21L348.689 289.685C350.019 288.695 351.086 287.393 351.797 285.895C352.507 284.396 352.84 282.747 352.765 281.09C352.728 280.055 352.602 279.025 352.388 278.011C351.037 272.672 349.309 268.729 344.059 265.34L335.486 272.761Z" fill="#263238"/>
<path d="M91.2362 363.691C97.1287 336.776 106.1 297.102 106.322 291.165C107.186 267.064 100.983 249.076 98.7458 234.123C93.8502 201.493 106.1 174.091 113.699 167.667C113.699 167.667 125.904 162.683 134.854 158.939C163.319 146.999 175.747 145.36 195.794 152.293C199.161 153.49 225.545 165.585 225.567 165.585C225.589 165.585 237.152 175.066 248.007 194.382C256.292 209.18 260.368 221.541 259.282 253.241C258.95 262.744 258.573 279.823 258.95 293.358C259.77 322.444 261.963 334.428 265.596 360.834C232.235 381.479 148.079 390.983 91.2362 363.691Z" fill="#263238"/>
<path d="M131.597 20.7092C126.061 18.6346 120.028 18.2775 114.286 19.6843C108.544 21.0912 103.36 24.1967 99.4099 28.5953C91.6345 37.5669 90.2168 50.2601 89.3307 62.1115C87.7801 82.6465 86.6725 99.9695 86.2959 120.549C86.1187 129.764 84.7231 138.913 84.2358 148.195C83.6598 158.532 83.2758 168.944 83.0838 179.429C82.721 182.103 83.3175 184.818 84.7674 187.094C86.5024 188.82 88.7955 189.873 91.2358 190.062C102.906 191.985 114.872 189.464 124.774 182.996C132.186 178.206 138.293 171.65 142.546 163.917C146.799 156.184 149.065 147.516 149.142 138.691C149.496 126.707 147.037 114.856 144.711 103.115C143.075 94.4486 140.968 85.8777 138.398 77.4408C136.692 72.1243 134.61 66.9185 133.17 61.5134C130.255 50.4342 130.126 38.8062 132.793 27.6649" fill="#263238"/>
<path d="M119.657 20.9074C114.193 25.8121 110.449 32.3433 108.979 39.5373C108.462 41.4346 108.54 43.4448 109.201 45.2969C109.923 46.6181 111.045 47.6769 112.406 48.3216C113.767 48.9662 115.297 49.1636 116.777 48.8855C119.733 48.2647 122.412 46.7118 124.419 44.4551C128.973 39.8291 131.883 33.837 132.704 27.3979C133.059 24.4295 132.594 19.7555 129.692 18.0497C126.435 16.0782 122.005 18.8251 119.657 20.9074Z" fill="#F85F37"/>
<path d="M231.482 61.5587C237.817 46.8275 231.482 27.378 223.751 18.2513C212.675 4.96001 195.352 -0.555873 169.39 1.19415C149.652 2.50112 126.038 11.4284 122.427 31.7198C104.196 41.068 110.797 66.4322 115.781 77.0874C126.126 99.4832 140.769 116.961 141.101 128.901L231.482 61.5587Z" fill="#263238"/>
<path d="M119.635 84.997C126.126 76.7786 135.341 78.6393 139.86 85.573C144.379 92.5066 151.512 89.8483 147.968 79.2153C152.731 76.7564 158.579 71.6171 153.462 52.0125C152.288 46.984 153.86 38.1896 158.49 33.7591C166.266 26.3603 181.883 27.4679 190.987 35.9743C202.706 25.6736 210.37 24.1451 219.785 30.9901C224.326 34.3129 231.969 43.7719 231.481 61.5158C231.083 66.8766 233.032 73.4336 233.387 83.4464C234.716 121.282 224.526 129.545 214.402 134.396C208.399 137.276 205.054 137.83 195.307 138.051L195.794 152.362C195.794 152.362 205.829 163.704 207.269 194.65C156.563 171.878 145.243 154.776 145.243 154.776L142.452 113.64C140.563 114.923 138.347 115.643 136.064 115.713C133.781 115.784 131.525 115.203 129.559 114.038C119.303 108.478 113.145 93.2155 119.635 84.997Z" fill="#C8856A"/>
<path d="M184.585 102.629L202.307 108.167C202.011 109.343 201.476 110.447 200.737 111.408C199.997 112.37 199.068 113.169 198.006 113.757C196.945 114.344 195.775 114.708 194.567 114.825C193.36 114.942 192.141 114.809 190.987 114.436C188.606 113.669 186.612 112.014 185.42 109.815C184.228 107.616 183.929 105.043 184.585 102.629Z" fill="#AF6152"/>
<path d="M195.107 114.699C195.009 112.513 194.055 110.453 192.451 108.965C190.847 107.477 188.722 106.68 186.535 106.746C185.859 106.777 185.19 106.889 184.541 107.078C184.872 108.77 185.648 110.344 186.788 111.636C187.929 112.929 189.394 113.894 191.031 114.433C192.351 114.838 193.747 114.929 195.107 114.699Z" fill="#FFA8A7"/>
<path d="M197.191 63.5938L200.758 97.2872L217.35 88.7143L197.191 63.5938Z" fill="#AF6152"/>
<path d="M195.307 138.074C183.145 137.83 156.961 132.093 150.072 116.188C150.072 116.188 151.423 127.662 166.642 136.124C178.626 142.77 195.439 143.612 195.439 143.612L195.307 138.074Z" fill="#AF6152"/>
<path d="M183.787 74.695C183.724 75.7526 183.349 76.7679 182.71 77.6126C182.07 78.4573 181.195 79.0935 180.194 79.4409C179.193 79.7883 178.111 79.8313 177.086 79.5645C176.061 79.2977 175.137 78.7331 174.433 77.9419C173.728 77.1507 173.274 76.1684 173.127 75.1191C172.98 74.0698 173.148 73.0006 173.608 72.0464C174.069 71.0922 174.802 70.2958 175.714 69.7579C176.627 69.22 177.679 68.9646 178.737 69.0241C179.441 69.0636 180.131 69.2418 180.766 69.5485C181.401 69.8551 181.97 70.2842 182.439 70.811C182.909 71.3379 183.269 71.9522 183.5 72.6187C183.732 73.2852 183.829 73.9908 183.787 74.695Z" fill="#263238"/>
<path d="M223.906 71.9917C223.701 73.0281 223.196 73.9814 222.454 74.7328C221.712 75.4842 220.764 76.0006 219.731 76.2176C218.697 76.4346 217.622 76.3425 216.64 75.953C215.658 75.5635 214.812 74.8937 214.209 74.027C213.605 73.1603 213.269 72.1351 213.243 71.0791C213.218 70.023 213.504 68.9828 214.065 68.088C214.627 67.1933 215.439 66.4835 216.401 66.0471C217.363 65.6108 218.432 65.4671 219.476 65.634C220.188 65.7512 220.871 66.0101 221.482 66.3954C222.093 66.7807 222.62 67.2846 223.033 67.8773C223.446 68.47 223.736 69.1395 223.886 69.8461C224.036 70.5528 224.043 71.2824 223.906 71.9917Z" fill="#263238"/>
<path d="M221.07 50.9931C219.072 50.5882 216.996 50.9931 215.297 52.1188C213.598 53.2446 212.415 54.999 212.009 56.9964L227.073 60.0755C227.478 58.0753 227.074 55.996 225.949 54.2934C224.823 52.5909 223.069 51.404 221.07 50.9931Z" fill="#263238"/>
<path d="M170.741 55.6199C169.826 56.0459 169.004 56.6484 168.323 57.3928C167.642 58.1371 167.114 59.0087 166.77 59.9576C166.426 60.9064 166.274 61.9138 166.32 62.9219C166.367 63.93 166.612 64.9189 167.042 65.832L180.953 59.3193C180.529 58.4025 179.928 57.5787 179.184 56.8956C178.44 56.2126 177.568 55.6838 176.619 55.3398C175.669 54.9958 174.661 54.8434 173.652 54.8915C172.643 54.9396 171.654 55.1871 170.741 55.6199Z" fill="#263238"/>
<path d="M215.754 10.875L158.158 12.8908C119.79 29.6157 135.784 79.17 144.158 84.9961C166.952 74.4295 164.626 51.3913 162.478 38.2993C174.573 48.8881 194.399 56.309 203.636 56.9293C199.206 51.9672 195.174 39.407 195.174 39.407C199.483 47.4808 206.059 54.1183 214.092 58.5021C228.646 66.211 238.171 60.385 238.171 60.385C238.171 60.385 241.782 25.4733 215.754 10.875Z" fill="#263238"/>
<path d="M145.088 148.883C146.436 156.229 148.452 163.436 151.114 170.415C156.297 185.257 158.446 197.219 160.484 229.362C162.522 261.504 156.164 383.142 160.883 419.427C136.981 420.269 98.2808 405.737 79.7838 387.085C80.0718 374.347 82.73 375.854 90.1288 343.068C97.5276 310.283 106.344 307.337 103.907 289.903C101.471 272.47 82.5307 203.864 95.4232 168.067C103.708 166.702 111.899 164.816 119.946 162.418C142.43 156.171 145.088 148.883 145.088 148.883Z" fill="#F85F37"/>
<path opacity="0.4" d="M145.088 148.883C146.436 156.229 148.452 163.436 151.114 170.415C156.297 185.257 158.446 197.219 160.484 229.362C162.522 261.504 156.164 383.142 160.883 419.427C136.981 420.269 98.2808 405.737 79.7838 387.085C80.0718 374.347 82.73 375.854 90.1288 343.068C97.5276 310.283 106.344 307.337 103.907 289.903C101.471 272.47 82.5307 203.864 95.4232 168.067C103.708 166.702 111.899 164.816 119.946 162.418C142.43 156.171 145.088 148.883 145.088 148.883Z" fill="white"/>
<path d="M195.993 145.359L196.946 148.594C197.278 157.809 216.883 171.809 230.861 193.097C244.839 214.385 247.785 235.496 247.852 263.319C247.918 291.143 258.817 395.103 262.118 408.593C269.862 403.027 275.205 394.73 277.07 385.378C274.279 368.963 269.317 340.453 266.57 330.507C263.823 320.561 263.447 304.168 262.716 283.611C262.309 274.708 262.546 265.787 263.425 256.918C263.425 256.918 276.007 240.104 267.235 210.066C258.463 180.027 215.975 152.049 215.975 152.049C213.276 151.324 210.54 150.747 207.778 150.321C203.635 149.233 199.667 147.563 195.993 145.359Z" fill="#F85F37"/>
<path opacity="0.4" d="M195.993 145.359L196.946 148.594C197.278 157.809 216.883 171.809 230.861 193.097C244.839 214.385 247.785 235.496 247.852 263.319C247.918 291.143 258.817 395.103 262.118 408.593C269.862 403.027 275.205 394.73 277.07 385.378C274.279 368.963 269.317 340.453 266.57 330.507C263.823 320.561 263.447 304.168 262.716 283.611C262.309 274.708 262.546 265.787 263.425 256.918C263.425 256.918 276.007 240.104 267.235 210.066C258.463 180.027 215.975 152.049 215.975 152.049C213.276 151.324 210.54 150.747 207.778 150.321C203.635 149.233 199.667 147.563 195.993 145.359Z" fill="white"/>
<path d="M144.048 136.102C141.538 145.873 135.583 154.408 127.278 160.137C127.278 160.137 134.566 189.134 133.924 203.533C133.282 217.932 130.934 231.932 134.877 231.688C138.82 231.444 150.649 227.39 150.649 227.39C150.649 227.39 141.589 241.701 142.652 246.065C143.715 250.429 160.374 299.23 160.374 299.23C160.374 299.23 164.583 242.011 163.032 225.33C161.481 208.65 157.317 177.991 150.804 160.602C147.873 152.638 145.613 144.442 144.048 136.102Z" fill="#F85F37"/>
<path d="M249.181 288.084C249.447 272.002 256.425 231.464 257.223 223.378C258.02 215.292 246.368 208.403 246.368 208.403C246.368 208.403 253.302 209.932 255.517 208.093C257.732 206.254 243.178 186.672 230.884 173.868C218.589 161.064 195.44 141.77 195.44 141.77L195.861 152.38C202.563 159.174 208.601 166.591 213.893 174.533C224.725 191.124 244.64 208.957 249.181 288.084Z" fill="#F85F37"/>
<path d="M67.9099 415.217C59.6693 417.566 49.1028 407.309 46.223 403.743C43.3433 400.176 47.0427 391.714 48.7927 384.559C50.5427 377.404 48.7927 365.309 57.6536 368.698C66.5144 372.087 85.1 395.967 67.9099 415.217Z" fill="#AF6152"/>
<path d="M96.0879 169.461C73.1604 172.85 66.0053 177.812 53.3786 203.199C38.6696 232.75 14.8782 273.886 11.2895 286.712C7.85596 298.652 1.03314 307.159 14.1029 325.323C26.0651 341.937 63.6351 385.466 69.151 391.78C74.0244 397.429 71.3662 413.6 54.5305 411.207C54.5305 411.207 67.3123 422.505 74.3346 421.264C80.4042 420.179 89.8411 414.862 98.7019 396.498C104.218 384.913 99.6101 375.808 91.2145 362.893C81.2017 347.498 59.5591 304.523 59.5591 304.523L98.1481 235.917C98.1481 235.917 115.626 189.841 96.0879 169.461Z" fill="#C8856A"/>
<path d="M95.4226 168.109C76.2832 172.54 70.7673 171.787 58.7609 190.705C46.7544 209.622 26.9726 249.208 19.8396 262.832C12.7066 276.455 1.91848 298.829 6.32675 312.143C11.3996 304.035 39.555 297.677 59.4919 304.589L99.8531 237.202C99.8531 237.202 120.078 187.559 95.4226 168.109Z" fill="#F85F37"/>
<path d="M61.3976 308.488C48.5494 305.342 30.3846 308.488 18.4889 314.137C16.1408 315.222 11.8432 318.168 11.8432 322.001L14.0584 325.324C12.7006 325.541 11.3087 325.332 10.0748 324.725C8.84089 324.118 7.82572 323.143 7.16917 321.934C6.46392 320.299 5.67271 318.702 4.79887 317.149C3.24822 314.934 0.47924 313.361 0.0583496 310.681C-0.318237 308.355 1.25453 306.251 2.02985 304.035C3.35898 300.159 2.36214 295.529 4.73242 292.206C5.58848 291.105 6.64905 290.18 7.85588 289.481C14.5015 285.361 22.5206 284.564 30.2517 285.051C42.236 285.627 54.619 289.149 62.9261 297.855C63.6796 298.5 64.1735 299.397 64.316 300.379C64.4586 301.36 64.2402 302.361 63.7014 303.194C63.4577 303.77 63.1255 304.412 63.3913 304.988C63.5286 305.233 63.7001 305.456 63.9008 305.652C64.2565 306.21 64.4555 306.853 64.4767 307.513C64.5733 308.257 64.4797 309.012 64.2046 309.71C63.9296 310.407 63.4821 311.023 62.904 311.501L61.3976 308.488Z" fill="#F85F37"/>
<path opacity="0.4" d="M61.3976 308.488C48.5494 305.342 30.3846 308.488 18.4889 314.137C16.1408 315.222 11.8432 318.168 11.8432 322.001L14.0584 325.324C12.7006 325.541 11.3087 325.332 10.0748 324.725C8.84089 324.118 7.82572 323.143 7.16917 321.934C6.46392 320.299 5.67271 318.702 4.79887 317.149C3.24822 314.934 0.47924 313.361 0.0583496 310.681C-0.318237 308.355 1.25453 306.251 2.02985 304.035C3.35898 300.159 2.36214 295.529 4.73242 292.206C5.58848 291.105 6.64905 290.18 7.85588 289.481C14.5015 285.361 22.5206 284.564 30.2517 285.051C42.236 285.627 54.619 289.149 62.9261 297.855C63.6796 298.5 64.1735 299.397 64.316 300.379C64.4586 301.36 64.2402 302.361 63.7014 303.194C63.4577 303.77 63.1255 304.412 63.3913 304.988C63.5286 305.233 63.7001 305.456 63.9008 305.652C64.2565 306.21 64.4555 306.853 64.4767 307.513C64.5733 308.257 64.4797 309.012 64.2046 309.71C63.9296 310.407 63.4821 311.023 62.904 311.501L61.3976 308.488Z" fill="white"/>
</svg>
