<svg width="597" height="1562" viewBox="0 0 597 1562" fill="none" xmlns="http://www.w3.org/2000/svg">
<g filter="url(#filter0_i_440_6680)">
<path fill-rule="evenodd" clip-rule="evenodd" d="M570 33.2463C570 14.8849 555.115 0 536.754 0H33.2463C14.8849 0 0 14.8849 0 33.2463V1317.62C0 1335.44 14.046 1350.09 31.8477 1350.84L535.355 1372.04C554.249 1372.84 570 1357.73 570 1338.82V435.246C570 416.885 555.115 402 536.754 402H206.945C199.796 402 194 396.204 194 389.055V347.945C194 340.796 199.796 335 206.945 335H536.754C555.115 335 570 320.115 570 301.754V33.2463Z" fill="#163C51"/>
</g>
<path d="M428.838 364.859V380.999H424.668V376.379H421.218L418.158 380.999H413.178L416.868 375.719C415.748 375.279 414.888 374.649 414.288 373.829C413.708 372.989 413.418 371.979 413.418 370.799C413.418 368.899 414.098 367.439 415.458 366.419C416.838 365.379 418.728 364.859 421.128 364.859H428.838ZM421.218 368.669C420.218 368.669 419.458 368.849 418.938 369.209C418.438 369.569 418.188 370.149 418.188 370.949C418.188 371.749 418.428 372.339 418.908 372.719C419.408 373.079 420.158 373.259 421.158 373.259H424.668V368.669H421.218Z" fill="#163C51"/>
<path d="M402.662 364.619C405.162 364.619 407.082 365.219 408.422 366.419C409.762 367.599 410.432 369.389 410.432 371.789V380.999H406.052V378.989C405.172 380.489 403.532 381.239 401.132 381.239C399.892 381.239 398.812 381.029 397.892 380.609C396.992 380.189 396.302 379.609 395.822 378.869C395.342 378.129 395.102 377.289 395.102 376.349C395.102 374.849 395.662 373.669 396.782 372.809C397.922 371.949 399.672 371.519 402.032 371.519H405.752C405.752 370.499 405.442 369.719 404.822 369.179C404.202 368.619 403.272 368.339 402.032 368.339C401.172 368.339 400.322 368.479 399.482 368.759C398.662 369.019 397.962 369.379 397.382 369.839L395.702 366.569C396.582 365.949 397.632 365.469 398.852 365.129C400.092 364.789 401.362 364.619 402.662 364.619ZM402.302 378.089C403.102 378.089 403.812 377.909 404.432 377.549C405.052 377.169 405.492 376.619 405.752 375.899V374.249H402.542C400.622 374.249 399.662 374.879 399.662 376.139C399.662 376.739 399.892 377.219 400.352 377.579C400.832 377.919 401.482 378.089 402.302 378.089Z" fill="#163C51"/>
<path d="M375.562 364.859H380.213V371.159H387.232V364.859H391.912V380.999H387.232V374.969H380.213V380.999H375.562V364.859Z" fill="#163C51"/>
<path d="M369.23 372.569C371.13 373.209 372.08 374.489 372.08 376.409C372.08 377.869 371.53 378.999 370.43 379.799C369.33 380.599 367.69 380.999 365.51 380.999H356.9V364.859H365.15C367.17 364.859 368.75 365.229 369.89 365.969C371.03 366.689 371.6 367.709 371.6 369.029C371.6 369.829 371.39 370.539 370.97 371.159C370.57 371.759 369.99 372.229 369.23 372.569ZM361.19 371.489H364.73C366.37 371.489 367.19 370.909 367.19 369.749C367.19 368.609 366.37 368.039 364.73 368.039H361.19V371.489ZM365.12 377.819C366.84 377.819 367.7 377.229 367.7 376.049C367.7 375.429 367.5 374.979 367.1 374.699C366.7 374.399 366.07 374.249 365.21 374.249H361.19V377.819H365.12Z" fill="#163C51"/>
<path d="M345.064 364.619C347.564 364.619 349.484 365.219 350.824 366.419C352.164 367.599 352.834 369.389 352.834 371.789V380.999H348.454V378.989C347.574 380.489 345.934 381.239 343.534 381.239C342.294 381.239 341.214 381.029 340.294 380.609C339.394 380.189 338.704 379.609 338.224 378.869C337.744 378.129 337.504 377.289 337.504 376.349C337.504 374.849 338.064 373.669 339.184 372.809C340.324 371.949 342.074 371.519 344.434 371.519H348.154C348.154 370.499 347.844 369.719 347.224 369.179C346.604 368.619 345.674 368.339 344.434 368.339C343.574 368.339 342.724 368.479 341.884 368.759C341.064 369.019 340.364 369.379 339.784 369.839L338.104 366.569C338.984 365.949 340.034 365.469 341.254 365.129C342.494 364.789 343.764 364.619 345.064 364.619ZM344.704 378.089C345.504 378.089 346.214 377.909 346.834 377.549C347.454 377.169 347.894 376.619 348.154 375.899V374.249H344.944C343.024 374.249 342.064 374.879 342.064 376.139C342.064 376.739 342.294 377.219 342.754 377.579C343.234 377.919 343.884 378.089 344.704 378.089Z" fill="#163C51"/>
<path d="M334.293 364.859V380.999H329.613V368.699H324.513L324.363 371.549C324.283 373.669 324.083 375.429 323.763 376.829C323.443 378.229 322.923 379.329 322.203 380.129C321.483 380.929 320.483 381.329 319.203 381.329C318.523 381.329 317.713 381.209 316.773 380.969L317.013 377.129C317.333 377.169 317.563 377.189 317.703 377.189C318.403 377.189 318.923 376.939 319.263 376.439C319.623 375.919 319.863 375.269 319.983 374.489C320.103 373.689 320.193 372.639 320.253 371.339L320.493 364.859H334.293Z" fill="#163C51"/>
<path d="M320.399 363.96H310.409L310.439 381H305.609V360H320.429L320.399 363.96Z" fill="#163C51"/>
<path d="M447.873 487.999V484.639L447.723 484.009V478.279C447.723 477.059 447.363 476.119 446.643 475.459C445.943 474.779 444.883 474.439 443.463 474.439C442.523 474.439 441.603 474.599 440.703 474.919C439.803 475.219 439.043 475.629 438.423 476.149L437.223 473.989C438.043 473.329 439.023 472.829 440.163 472.489C441.323 472.129 442.533 471.949 443.793 471.949C445.973 471.949 447.653 472.479 448.833 473.539C450.013 474.599 450.603 476.219 450.603 478.399V487.999H447.873ZM442.653 488.179C441.473 488.179 440.433 487.979 439.533 487.579C438.653 487.179 437.973 486.629 437.493 485.929C437.013 485.209 436.773 484.399 436.773 483.499C436.773 482.639 436.973 481.859 437.373 481.159C437.793 480.459 438.463 479.899 439.383 479.479C440.323 479.059 441.583 478.849 443.163 478.849H448.203V480.919H443.283C441.843 480.919 440.873 481.159 440.373 481.639C439.873 482.119 439.623 482.699 439.623 483.379C439.623 484.159 439.933 484.789 440.553 485.269C441.173 485.729 442.033 485.959 443.133 485.959C444.213 485.959 445.153 485.719 445.953 485.239C446.773 484.759 447.363 484.059 447.723 483.139L448.293 485.119C447.913 486.059 447.243 486.809 446.283 487.369C445.323 487.909 444.113 488.179 442.653 488.179Z" fill="white"/>
<path d="M432.006 488L425.856 480.26L428.226 478.82L435.396 488H432.006ZM420.486 488V472.1H423.366V488H420.486ZM422.496 481.28V478.82H427.746V481.28H422.496ZM428.466 480.38L425.796 480.02L431.886 472.1H434.976L428.466 480.38Z" fill="white"/>
<path d="M398.629 487.97L398.809 485.54C398.949 485.56 399.079 485.58 399.199 485.6C399.319 485.62 399.429 485.63 399.529 485.63C400.169 485.63 400.669 485.41 401.029 484.97C401.409 484.53 401.689 483.95 401.869 483.23C402.049 482.49 402.179 481.66 402.259 480.74C402.339 479.82 402.399 478.9 402.439 477.98L402.709 472.1H414.919V488H412.039V473.78L412.729 474.62H404.569L405.229 473.75L405.019 478.16C404.959 479.56 404.849 480.87 404.689 482.09C404.529 483.31 404.279 484.38 403.939 485.3C403.619 486.22 403.169 486.94 402.589 487.46C402.029 487.98 401.299 488.24 400.399 488.24C400.139 488.24 399.859 488.21 399.559 488.15C399.279 488.11 398.969 488.05 398.629 487.97Z" fill="white"/>
<path d="M385.76 494C385 494 384.26 493.87 383.54 493.61C382.82 493.37 382.2 493.01 381.68 492.53L382.91 490.37C383.31 490.75 383.75 491.04 384.23 491.24C384.71 491.44 385.22 491.54 385.76 491.54C386.46 491.54 387.04 491.36 387.5 491C387.96 490.64 388.39 490 388.79 489.08L389.78 486.89L390.08 486.53L396.32 472.1H399.14L391.43 489.59C390.97 490.71 390.45 491.59 389.87 492.23C389.31 492.87 388.69 493.32 388.01 493.58C387.33 493.86 386.58 494 385.76 494ZM389.54 488.51L382.28 472.1H385.28L391.46 486.26L389.54 488.51Z" fill="white"/>
<path d="M370.301 488V472.1H382.001V474.62H372.491L373.181 473.96V488H370.301Z" fill="white"/>
<path d="M357.893 488.179C356.293 488.179 354.873 487.829 353.633 487.129C352.393 486.429 351.413 485.469 350.693 484.249C349.973 483.009 349.613 481.609 349.613 480.049C349.613 478.469 349.973 477.069 350.693 475.849C351.413 474.629 352.393 473.679 353.633 472.999C354.873 472.299 356.293 471.949 357.893 471.949C359.473 471.949 360.883 472.299 362.123 472.999C363.383 473.679 364.363 474.629 365.063 475.849C365.783 477.049 366.143 478.449 366.143 480.049C366.143 481.629 365.783 483.029 365.063 484.249C364.363 485.469 363.383 486.429 362.123 487.129C360.883 487.829 359.473 488.179 357.893 488.179ZM357.893 485.659C358.913 485.659 359.823 485.429 360.623 484.969C361.443 484.509 362.083 483.859 362.543 483.019C363.003 482.159 363.233 481.169 363.233 480.049C363.233 478.909 363.003 477.929 362.543 477.109C362.083 476.269 361.443 475.619 360.623 475.159C359.823 474.699 358.913 474.469 357.893 474.469C356.873 474.469 355.963 474.699 355.163 475.159C354.363 475.619 353.723 476.269 353.243 477.109C352.763 477.929 352.523 478.909 352.523 480.049C352.523 481.169 352.763 482.159 353.243 483.019C353.723 483.859 354.363 484.509 355.163 484.969C355.963 485.429 356.873 485.659 357.893 485.659Z" fill="white"/>
<path d="M338.858 488.179C337.538 488.179 336.328 487.879 335.228 487.279C334.148 486.659 333.278 485.749 332.618 484.549C331.978 483.349 331.658 481.849 331.658 480.049C331.658 478.249 331.968 476.749 332.588 475.549C333.228 474.349 334.088 473.449 335.168 472.849C336.268 472.249 337.498 471.949 338.858 471.949C340.418 471.949 341.798 472.289 342.998 472.969C344.198 473.649 345.148 474.599 345.848 475.819C346.548 477.019 346.898 478.429 346.898 480.049C346.898 481.669 346.548 483.089 345.848 484.309C345.148 485.529 344.198 486.479 342.998 487.159C341.798 487.839 340.418 488.179 338.858 488.179ZM330.428 493.819V472.099H333.188V476.389L333.008 480.079L333.308 483.769V493.819H330.428ZM338.618 485.659C339.638 485.659 340.548 485.429 341.348 484.969C342.168 484.509 342.808 483.859 343.268 483.019C343.748 482.159 343.988 481.169 343.988 480.049C343.988 478.909 343.748 477.929 343.268 477.109C342.808 476.269 342.168 475.619 341.348 475.159C340.548 474.699 339.638 474.469 338.618 474.469C337.618 474.469 336.708 474.699 335.888 475.159C335.088 475.619 334.448 476.269 333.968 477.109C333.508 477.929 333.278 478.909 333.278 480.049C333.278 481.169 333.508 482.159 333.968 483.019C334.448 483.859 335.088 484.509 335.888 484.969C336.708 485.429 337.618 485.659 338.618 485.659Z" fill="white"/>
<path d="M306.27 488V467H324.36V488H321.42V468.83L322.14 469.61H308.49L309.24 468.83V488H306.27Z" fill="white"/>
<path d="M519.338 612V606.42L519.788 606.96H514.718C512.598 606.96 510.938 606.51 509.738 605.61C508.558 604.71 507.968 603.4 507.968 601.68C507.968 599.84 508.598 598.45 509.858 597.51C511.138 596.57 512.838 596.1 514.958 596.1H521.918V612H519.338ZM507.818 612L512.138 605.91H515.108L510.908 612H507.818ZM519.338 605.52V597.81L519.788 598.62H515.048C513.728 598.62 512.708 598.87 511.988 599.37C511.268 599.85 510.908 600.65 510.908 601.77C510.908 603.85 512.248 604.89 514.928 604.89H519.788L519.338 605.52Z" fill="white"/>
<path d="M488.338 612V596.1H491.218V607.68L500.968 596.1H503.578V612H500.698V600.42L490.978 612H488.338Z" fill="white"/>
<path d="M476.693 612V597.87L477.413 598.62H470.873V596.1H485.393V598.62H478.883L479.573 597.87V612H476.693Z" fill="white"/>
<path d="M465.344 612V606.42L465.794 606.96H460.724C458.604 606.96 456.944 606.51 455.744 605.61C454.564 604.71 453.974 603.4 453.974 601.68C453.974 599.84 454.604 598.45 455.864 597.51C457.144 596.57 458.844 596.1 460.964 596.1H467.924V612H465.344ZM453.824 612L458.144 605.91H461.114L456.914 612H453.824ZM465.344 605.52V597.81L465.794 598.62H461.054C459.734 598.62 458.714 598.87 457.994 599.37C457.274 599.85 456.914 600.65 456.914 601.77C456.914 603.85 458.254 604.89 460.934 604.89H465.794L465.344 605.52Z" fill="white"/>
<path d="M434.344 612V596.1H437.224V607.68L446.974 596.1H449.584V612H446.704V600.42L436.984 612H434.344Z" fill="white"/>
<path d="M422.119 612.179C420.799 612.179 419.589 611.879 418.489 611.279C417.409 610.659 416.539 609.749 415.879 608.549C415.239 607.349 414.919 605.849 414.919 604.049C414.919 602.249 415.229 600.749 415.849 599.549C416.489 598.349 417.349 597.449 418.429 596.849C419.529 596.249 420.759 595.949 422.119 595.949C423.679 595.949 425.059 596.289 426.259 596.969C427.459 597.649 428.409 598.599 429.109 599.819C429.809 601.019 430.159 602.429 430.159 604.049C430.159 605.669 429.809 607.089 429.109 608.309C428.409 609.529 427.459 610.479 426.259 611.159C425.059 611.839 423.679 612.179 422.119 612.179ZM413.689 617.819V596.099H416.449V600.389L416.269 604.079L416.569 607.769V617.819H413.689ZM421.879 609.659C422.899 609.659 423.809 609.429 424.609 608.969C425.429 608.509 426.069 607.859 426.529 607.019C427.009 606.159 427.249 605.169 427.249 604.049C427.249 602.909 427.009 601.929 426.529 601.109C426.069 600.269 425.429 599.619 424.609 599.159C423.809 598.699 422.899 598.469 421.879 598.469C420.879 598.469 419.969 598.699 419.149 599.159C418.349 599.619 417.709 600.269 417.229 601.109C416.769 601.929 416.539 602.909 416.539 604.049C416.539 605.169 416.769 606.159 417.229 607.019C417.709 607.859 418.349 608.509 419.149 608.969C419.969 609.429 420.879 609.659 421.879 609.659Z" fill="white"/>
<path d="M393.387 612V596.1H408.117V612H405.237V597.9L405.927 598.62H395.577L396.267 597.9V612H393.387Z" fill="white"/>
<path d="M380.979 612.179C379.379 612.179 377.959 611.829 376.719 611.129C375.479 610.429 374.499 609.469 373.779 608.249C373.059 607.009 372.699 605.609 372.699 604.049C372.699 602.469 373.059 601.069 373.779 599.849C374.499 598.629 375.479 597.679 376.719 596.999C377.959 596.299 379.379 595.949 380.979 595.949C382.559 595.949 383.969 596.299 385.209 596.999C386.469 597.679 387.449 598.629 388.149 599.849C388.869 601.049 389.229 602.449 389.229 604.049C389.229 605.629 388.869 607.029 388.149 608.249C387.449 609.469 386.469 610.429 385.209 611.129C383.969 611.829 382.559 612.179 380.979 612.179ZM380.979 609.659C381.999 609.659 382.909 609.429 383.709 608.969C384.529 608.509 385.169 607.859 385.629 607.019C386.089 606.159 386.319 605.169 386.319 604.049C386.319 602.909 386.089 601.929 385.629 601.109C385.169 600.269 384.529 599.619 383.709 599.159C382.909 598.699 381.999 598.469 380.979 598.469C379.959 598.469 379.049 598.699 378.249 599.159C377.449 599.619 376.809 600.269 376.329 601.109C375.849 601.929 375.609 602.909 375.609 604.049C375.609 605.169 375.849 606.159 376.329 607.019C376.809 607.859 377.449 608.509 378.249 608.969C379.049 609.429 379.959 609.659 380.979 609.659Z" fill="white"/>
<path d="M361.944 612.179C360.624 612.179 359.414 611.879 358.314 611.279C357.234 610.659 356.364 609.749 355.704 608.549C355.064 607.349 354.744 605.849 354.744 604.049C354.744 602.249 355.054 600.749 355.674 599.549C356.314 598.349 357.174 597.449 358.254 596.849C359.354 596.249 360.584 595.949 361.944 595.949C363.504 595.949 364.884 596.289 366.084 596.969C367.284 597.649 368.234 598.599 368.934 599.819C369.634 601.019 369.984 602.429 369.984 604.049C369.984 605.669 369.634 607.089 368.934 608.309C368.234 609.529 367.284 610.479 366.084 611.159C364.884 611.839 363.504 612.179 361.944 612.179ZM353.514 617.819V596.099H356.274V600.389L356.094 604.079L356.394 607.769V617.819H353.514ZM361.704 609.659C362.724 609.659 363.634 609.429 364.434 608.969C365.254 608.509 365.894 607.859 366.354 607.019C366.834 606.159 367.074 605.169 367.074 604.049C367.074 602.909 366.834 601.929 366.354 601.109C365.894 600.269 365.254 599.619 364.434 599.159C363.634 598.699 362.724 598.469 361.704 598.469C360.704 598.469 359.794 598.699 358.974 599.159C358.174 599.619 357.534 600.269 357.054 601.109C356.594 601.929 356.364 602.909 356.364 604.049C356.364 605.169 356.594 606.159 357.054 607.019C357.534 607.859 358.174 608.509 358.974 608.969C359.794 609.429 360.704 609.659 361.704 609.659Z" fill="white"/>
<path d="M341.757 612.179C340.057 612.179 338.557 611.829 337.257 611.129C335.977 610.429 334.977 609.469 334.257 608.249C333.557 607.029 333.207 605.629 333.207 604.049C333.207 602.469 333.547 601.069 334.227 599.849C334.927 598.629 335.877 597.679 337.077 596.999C338.297 596.299 339.667 595.949 341.187 595.949C342.727 595.949 344.087 596.289 345.267 596.969C346.447 597.649 347.367 598.609 348.027 599.849C348.707 601.069 349.047 602.499 349.047 604.139C349.047 604.259 349.037 604.399 349.017 604.559C349.017 604.719 349.007 604.869 348.987 605.009H335.457V602.939H347.487L346.317 603.659C346.337 602.639 346.127 601.729 345.687 600.929C345.247 600.129 344.637 599.509 343.857 599.069C343.097 598.609 342.207 598.379 341.187 598.379C340.187 598.379 339.297 598.609 338.517 599.069C337.737 599.509 337.127 600.139 336.687 600.959C336.247 601.759 336.027 602.679 336.027 603.719V604.199C336.027 605.259 336.267 606.209 336.747 607.049C337.247 607.869 337.937 608.509 338.817 608.969C339.697 609.429 340.707 609.659 341.847 609.659C342.787 609.659 343.637 609.499 344.397 609.179C345.177 608.859 345.857 608.379 346.437 607.739L348.027 609.599C347.307 610.439 346.407 611.079 345.327 611.519C344.267 611.959 343.077 612.179 341.757 612.179Z" fill="white"/>
<path d="M306.27 612V591H308.73L318.15 606.87H316.83L326.13 591H328.59L328.62 612H325.74L325.71 595.53H326.4L318.12 609.45H316.74L308.4 595.53H309.15V612H306.27Z" fill="white"/>
<path d="M471.492 736V720.1H474.372V731.68L484.122 720.1H486.732V736H483.852V724.42L474.132 736H471.492Z" fill="white"/>
<path d="M465.083 736L458.933 728.26L461.303 726.82L468.473 736H465.083ZM453.562 736V720.1H456.443V736H453.562ZM455.573 729.28V726.82H460.823V729.28H455.573ZM461.543 728.38L458.873 728.02L464.963 720.1H468.053L461.543 728.38Z" fill="white"/>
<path d="M435.135 736V720.1H442.515C444.375 720.1 445.835 720.46 446.895 721.18C447.975 721.88 448.515 722.88 448.515 724.18C448.515 725.48 448.005 726.49 446.985 727.21C445.985 727.91 444.655 728.26 442.995 728.26L443.445 727.48C445.345 727.48 446.755 727.83 447.675 728.53C448.595 729.23 449.055 730.26 449.055 731.62C449.055 733 448.535 734.08 447.495 734.86C446.475 735.62 444.905 736 442.785 736H435.135ZM437.955 733.78H442.575C443.775 733.78 444.675 733.6 445.275 733.24C445.875 732.86 446.175 732.26 446.175 731.44C446.175 730.6 445.895 729.99 445.335 729.61C444.795 729.21 443.935 729.01 442.755 729.01H437.955V733.78ZM437.955 726.94H442.275C443.375 726.94 444.205 726.74 444.765 726.34C445.345 725.92 445.635 725.34 445.635 724.6C445.635 723.84 445.345 723.27 444.765 722.89C444.205 722.51 443.375 722.32 442.275 722.32H437.955V726.94Z" fill="white"/>
<path d="M426.936 736V730.42L427.386 730.96H422.316C420.196 730.96 418.536 730.51 417.336 729.61C416.156 728.71 415.566 727.4 415.566 725.68C415.566 723.84 416.196 722.45 417.456 721.51C418.736 720.57 420.436 720.1 422.556 720.1H429.516V736H426.936ZM415.416 736L419.736 729.91H422.706L418.506 736H415.416ZM426.936 729.52V721.81L427.386 722.62H422.646C421.326 722.62 420.306 722.87 419.586 723.37C418.866 723.85 418.506 724.65 418.506 725.77C418.506 727.85 419.846 728.89 422.526 728.89H427.386L426.936 729.52Z" fill="white"/>
<path d="M408.85 735.999V732.639L408.7 732.009V726.279C408.7 725.059 408.34 724.119 407.62 723.459C406.92 722.779 405.86 722.439 404.44 722.439C403.5 722.439 402.58 722.599 401.68 722.919C400.78 723.219 400.02 723.629 399.4 724.149L398.2 721.989C399.02 721.329 400 720.829 401.14 720.489C402.3 720.129 403.51 719.949 404.77 719.949C406.95 719.949 408.63 720.479 409.81 721.539C410.99 722.599 411.58 724.219 411.58 726.399V735.999H408.85ZM403.63 736.179C402.45 736.179 401.41 735.979 400.51 735.579C399.63 735.179 398.95 734.629 398.47 733.929C397.99 733.209 397.75 732.399 397.75 731.499C397.75 730.639 397.95 729.859 398.35 729.159C398.77 728.459 399.44 727.899 400.36 727.479C401.3 727.059 402.56 726.849 404.14 726.849H409.18V728.919H404.26C402.82 728.919 401.85 729.159 401.35 729.639C400.85 730.119 400.6 730.699 400.6 731.379C400.6 732.159 400.91 732.789 401.53 733.269C402.15 733.729 403.01 733.959 404.11 733.959C405.19 733.959 406.13 733.719 406.93 733.239C407.75 732.759 408.34 732.059 408.7 731.139L409.27 733.119C408.89 734.059 408.22 734.809 407.26 735.369C406.3 735.909 405.09 736.179 403.63 736.179Z" fill="white"/>
<path d="M387.432 736.211C386.232 736.211 385.052 736.061 383.892 735.761C382.752 735.441 381.732 734.991 380.832 734.411L381.702 732.221C382.462 732.701 383.332 733.081 384.312 733.361C385.292 733.621 386.282 733.751 387.282 733.751C388.202 733.751 388.992 733.641 389.652 733.421C390.332 733.201 390.852 732.901 391.212 732.521C391.572 732.121 391.752 731.661 391.752 731.141C391.752 730.401 391.422 729.831 390.762 729.431C390.102 729.031 389.182 728.831 388.002 728.831H385.122V726.761H387.822C388.522 726.761 389.132 726.681 389.652 726.521C390.172 726.361 390.572 726.121 390.852 725.801C391.152 725.461 391.302 725.071 391.302 724.631C391.302 724.151 391.132 723.741 390.792 723.401C390.452 723.061 389.972 722.801 389.352 722.621C388.752 722.441 388.042 722.351 387.222 722.351C386.422 722.371 385.602 722.481 384.762 722.681C383.942 722.881 383.102 723.191 382.242 723.611L381.462 721.361C382.422 720.901 383.362 720.551 384.282 720.311C385.222 720.051 386.152 719.911 387.072 719.891C388.452 719.851 389.682 720.011 390.762 720.371C391.842 720.711 392.692 721.211 393.312 721.871C393.952 722.531 394.272 723.311 394.272 724.211C394.272 724.971 394.032 725.651 393.552 726.251C393.072 726.831 392.432 727.291 391.632 727.631C390.832 727.971 389.912 728.141 388.872 728.141L388.992 727.451C390.772 727.451 392.172 727.801 393.192 728.501C394.212 729.201 394.722 730.151 394.722 731.351C394.722 732.311 394.402 733.161 393.762 733.901C393.122 734.621 392.252 735.191 391.152 735.611C390.072 736.011 388.832 736.211 387.432 736.211Z" fill="white"/>
<path d="M353.895 736V720.1H356.775V731.68L366.525 720.1H369.135V736H366.255V724.42L356.535 736H353.895Z" fill="white"/>
<path d="M341.487 736.179C339.887 736.179 338.467 735.829 337.227 735.129C335.987 734.429 335.007 733.469 334.287 732.249C333.567 731.009 333.207 729.609 333.207 728.049C333.207 726.469 333.567 725.069 334.287 723.849C335.007 722.629 335.987 721.679 337.227 720.999C338.467 720.299 339.887 719.949 341.487 719.949C343.067 719.949 344.477 720.299 345.717 720.999C346.977 721.679 347.957 722.629 348.657 723.849C349.377 725.049 349.737 726.449 349.737 728.049C349.737 729.629 349.377 731.029 348.657 732.249C347.957 733.469 346.977 734.429 345.717 735.129C344.477 735.829 343.067 736.179 341.487 736.179ZM341.487 733.659C342.507 733.659 343.417 733.429 344.217 732.969C345.037 732.509 345.677 731.859 346.137 731.019C346.597 730.159 346.827 729.169 346.827 728.049C346.827 726.909 346.597 725.929 346.137 725.109C345.677 724.269 345.037 723.619 344.217 723.159C343.417 722.699 342.507 722.469 341.487 722.469C340.467 722.469 339.557 722.699 338.757 723.159C337.957 723.619 337.317 724.269 336.837 725.109C336.357 725.929 336.117 726.909 336.117 728.049C336.117 729.169 336.357 730.159 336.837 731.019C337.317 731.859 337.957 732.509 338.757 732.969C339.557 733.429 340.467 733.659 341.487 733.659Z" fill="white"/>
<path d="M306.27 736V715H308.73L318.15 730.87H316.83L326.13 715H328.59L328.62 736H325.74L325.71 719.53H326.4L318.12 733.45H316.74L308.4 719.53H309.15V736H306.27Z" fill="white"/>
<path d="M263.688 355H260.458C260.102 355 259.813 355.289 259.813 355.646V355.722L264.333 359.339V355.646C264.333 355.289 264.044 355 263.688 355Z" fill="#163C51"/>
<path fill-rule="evenodd" clip-rule="evenodd" d="M253.677 363.396C253.677 362.504 254.4 361.781 255.292 361.781C256.183 361.781 256.906 362.504 256.906 363.396C256.906 364.288 256.183 365.01 255.292 365.01C254.4 365.01 253.677 364.288 253.677 363.396Z" fill="#163C51"/>
<path fill-rule="evenodd" clip-rule="evenodd" d="M266.594 365.282L267.603 366.09C268.021 366.424 268.631 366.356 268.965 365.939C269.299 365.521 269.231 364.911 268.814 364.577L258.318 356.18C256.549 354.765 254.035 354.765 252.266 356.18L241.77 364.577C241.352 364.911 241.284 365.521 241.619 365.939C241.953 366.356 242.562 366.424 242.98 366.09L243.99 365.282V378.573H242.375C241.84 378.573 241.406 379.007 241.406 379.542C241.406 380.077 241.84 380.51 242.375 380.51H268.208C268.743 380.51 269.177 380.077 269.177 379.542C269.177 379.007 268.743 378.573 268.208 378.573H266.594V365.282ZM251.74 363.396C251.74 361.434 253.33 359.844 255.292 359.844C257.253 359.844 258.844 361.434 258.844 363.396C258.844 365.358 257.253 366.948 255.292 366.948C253.33 366.948 251.74 365.358 251.74 363.396ZM255.355 368.24C256.214 368.24 256.954 368.239 257.547 368.319C258.182 368.405 258.79 368.597 259.284 369.091C259.778 369.585 259.971 370.193 260.056 370.828C260.131 371.384 260.135 372.069 260.135 372.86C260.135 372.913 260.135 372.966 260.135 373.02L260.135 378.573H258.198V373.083C258.198 372.143 258.196 371.535 258.136 371.086C258.079 370.666 257.988 370.535 257.914 370.461C257.84 370.387 257.709 370.296 257.289 370.239C256.841 370.179 256.232 370.177 255.292 370.177C254.351 370.177 253.743 370.179 253.295 370.239C252.875 370.296 252.743 370.387 252.669 370.461C252.595 370.535 252.504 370.666 252.448 371.086C252.388 371.535 252.385 372.143 252.385 373.083V378.573H250.448L250.448 373.02C250.448 372.161 250.448 371.421 250.528 370.828C250.613 370.193 250.805 369.585 251.299 369.091C251.793 368.597 252.402 368.405 253.037 368.319C253.629 368.239 254.369 368.24 255.228 368.24H255.355Z" fill="#163C51"/>
<path fill-rule="evenodd" clip-rule="evenodd" d="M253.677 363.396C253.677 362.504 254.4 361.781 255.292 361.781C256.183 361.781 256.906 362.504 256.906 363.396C256.906 364.288 256.183 365.01 255.292 365.01C254.4 365.01 253.677 364.288 253.677 363.396Z" fill="#163C51"/>
<path d="M267.019 597.562L265.857 602.096C265.266 604.4 264.06 606.022 262.644 607.162C262.945 605.589 262.939 603.838 262.447 601.918L261.259 597.283C261.188 597.008 261.119 596.74 261.052 596.481C261.287 596.374 261.575 596.34 261.875 596.421C262.396 596.56 262.712 596.979 262.752 597.386C262.807 597.953 263.311 598.368 263.878 598.313C264.445 598.258 264.86 597.754 264.805 597.187C264.679 595.891 263.728 594.782 262.409 594.428C261.745 594.251 261.066 594.285 260.459 594.498L260.437 594.437C260.128 593.617 259.677 592.747 258.826 592.108C258.36 591.759 257.834 591.496 257.272 591.337C256.229 591.041 255.261 591.231 254.435 591.506C253.667 591.761 252.772 592.181 251.788 592.641L251.69 592.688C250.061 593.45 249.409 593.751 248.742 593.963C248.539 594.027 248.335 594.086 248.129 594.138L248.578 592.396C249.184 590.033 249.487 588.851 250.278 588.257C250.543 588.058 250.84 587.91 251.155 587.821C252.095 587.554 253.164 588.055 255.3 589.055C256.883 589.796 257.674 590.167 258.499 590.429C258.786 590.52 259.076 590.601 259.368 590.672C260.209 590.877 261.071 590.969 262.795 591.155C265.125 591.405 266.289 591.53 266.976 592.252C267.206 592.494 267.393 592.778 267.527 593.089C267.928 594.017 267.625 595.199 267.019 597.562Z" fill="white"/>
<path fill-rule="evenodd" clip-rule="evenodd" d="M260.449 602.43L259.287 597.896C258.681 595.533 258.378 594.351 257.587 593.757C257.322 593.558 257.025 593.41 256.71 593.321C255.77 593.054 254.701 593.555 252.564 594.555C250.982 595.296 250.191 595.667 249.366 595.929C249.079 596.02 248.789 596.101 248.497 596.172C247.656 596.377 246.794 596.469 245.07 596.655C242.741 596.905 241.576 597.03 240.889 597.752C240.659 597.994 240.472 598.278 240.338 598.589C239.937 599.517 240.24 600.699 240.846 603.062L242.008 607.596C243.374 612.925 247.916 614.602 250.968 615.12C251.899 615.279 252.364 615.358 253.778 614.962C255.192 614.566 255.558 614.254 256.288 613.63C258.683 611.586 261.815 607.76 260.449 602.43ZM245.664 603.381C245.703 602.974 246.02 602.555 246.54 602.415C247.061 602.276 247.545 602.48 247.782 602.813C248.114 603.277 248.758 603.384 249.221 603.053C249.684 602.722 249.792 602.078 249.461 601.614C248.704 600.555 247.325 600.07 246.007 600.423C244.688 600.777 243.737 601.886 243.611 603.182C243.556 603.749 243.971 604.253 244.537 604.308C245.104 604.363 245.609 603.948 245.664 603.381ZM253.633 601.245C253.672 600.838 253.989 600.419 254.51 600.28C255.03 600.14 255.514 600.345 255.752 600.678C256.083 601.141 256.727 601.248 257.19 600.917C257.654 600.586 257.761 599.942 257.43 599.479C256.673 598.419 255.295 597.934 253.976 598.288C252.657 598.641 251.706 599.75 251.58 601.046C251.525 601.613 251.94 602.117 252.507 602.172C253.074 602.227 253.578 601.812 253.633 601.245ZM256.171 606.489C256.628 606.829 256.724 607.475 256.385 607.932C256.048 608.385 255.411 608.483 254.955 608.155L254.941 608.146C254.922 608.134 254.883 608.111 254.826 608.081C254.712 608.023 254.526 607.941 254.274 607.872C253.777 607.737 252.996 607.648 251.957 607.926C250.917 608.205 250.285 608.673 249.922 609.038C249.738 609.224 249.618 609.388 249.549 609.495C249.514 609.549 249.492 609.589 249.482 609.609L249.474 609.623C249.243 610.136 248.642 610.37 248.125 610.145C247.602 609.919 247.362 609.312 247.588 608.789L248.534 609.199C247.588 608.789 247.589 608.787 247.589 608.787L247.59 608.785L247.592 608.78L247.598 608.768L247.612 608.737C247.624 608.713 247.638 608.683 247.657 608.648C247.694 608.578 247.745 608.487 247.815 608.379C247.953 608.164 248.161 607.884 248.459 607.585C249.059 606.981 250.005 606.314 251.423 605.934C252.841 605.554 253.993 605.658 254.815 605.882C255.222 605.992 255.543 606.131 255.77 606.248C255.883 606.306 255.974 606.359 256.041 606.402C256.075 606.423 256.102 606.441 256.124 606.456L256.152 606.476L256.163 606.483L256.167 606.487L256.169 606.488L256.171 606.489Z" fill="white"/>
<path d="M257.656 465.188C257.656 467.086 256.117 468.625 254.219 468.625C252.32 468.625 250.781 467.086 250.781 465.188C250.781 463.289 252.32 461.75 254.219 461.75C256.117 461.75 257.656 463.289 257.656 465.188Z" fill="white"/>
<path fill-rule="evenodd" clip-rule="evenodd" d="M255.632 473.786C255.58 473.782 255.514 473.781 255.278 473.781H253.777L253.652 475.035C253.413 477.428 253.329 478.389 253.543 479.299C253.757 480.209 254.26 481.033 255.54 483.069L259.08 488.701C259.383 489.183 259.238 489.82 258.756 490.123C258.274 490.426 257.637 490.281 257.334 489.799L253.794 484.167C253.76 484.113 253.726 484.06 253.694 484.008C252.546 482.182 251.837 481.056 251.535 479.771C251.233 478.486 251.366 477.162 251.581 475.016C251.587 474.955 251.593 474.892 251.6 474.829L251.704 473.783C251.015 473.786 250.505 473.799 250.094 473.849C249.575 473.912 249.333 474.022 249.162 474.159C248.991 474.297 248.831 474.509 248.657 475.002C248.474 475.521 248.316 476.223 248.081 477.281L247.663 479.161C247.54 479.717 246.989 480.068 246.433 479.944C245.877 479.821 245.526 479.27 245.65 478.714L246.081 476.773C246.299 475.792 246.483 474.966 246.712 474.315C246.956 473.624 247.289 473.018 247.871 472.55C248.454 472.083 249.118 471.89 249.845 471.802C250.531 471.719 251.377 471.719 252.382 471.719L255.278 471.719C255.289 471.719 255.3 471.719 255.311 471.719C255.498 471.719 255.644 471.719 255.78 471.728C257.311 471.838 258.625 472.864 259.103 474.323C259.145 474.452 259.18 474.593 259.226 474.775L259.234 474.808C259.311 475.116 259.334 475.204 259.355 475.265C259.644 476.099 260.517 476.578 261.376 476.374C261.439 476.359 261.525 476.332 261.827 476.231L262.83 475.897C263.371 475.717 263.955 476.009 264.135 476.549C264.315 477.089 264.023 477.673 263.483 477.853L262.479 478.188C262.464 478.193 262.449 478.198 262.434 478.203C262.198 478.282 262.016 478.342 261.851 478.381C259.963 478.829 258.043 477.775 257.407 475.941C257.351 475.781 257.305 475.596 257.244 475.354C257.241 475.339 257.237 475.323 257.233 475.308C257.176 475.078 257.159 475.015 257.143 474.965C256.925 474.302 256.328 473.836 255.632 473.786ZM251.354 482.204C251.827 482.52 251.955 483.161 251.64 483.635L247.515 489.822C247.199 490.296 246.558 490.424 246.084 490.108C245.611 489.792 245.482 489.152 245.798 488.678L249.923 482.49C250.239 482.017 250.88 481.889 251.354 482.204Z" fill="white"/>
<path d="M259.103 474.323C258.625 472.864 257.311 471.838 255.78 471.728C255.644 471.719 255.499 471.719 255.311 471.719C255.3 471.719 255.289 471.719 255.278 471.719L252.382 471.719C251.377 471.719 250.531 471.719 249.845 471.802C249.118 471.89 248.454 472.083 247.871 472.55C247.289 473.018 246.956 473.624 246.712 474.315C246.483 474.966 246.299 475.792 246.081 476.773L245.65 478.714C245.526 479.27 245.877 479.821 246.433 479.944C246.989 480.068 247.54 479.717 247.663 479.161L248.081 477.281C248.316 476.223 248.474 475.521 248.657 475.002C248.831 474.509 248.991 474.297 249.162 474.159C249.333 474.022 249.575 473.912 250.094 473.849C250.505 473.799 251.015 473.786 251.704 473.783L251.6 474.829C251.593 474.892 251.587 474.955 251.581 475.016C251.366 477.162 251.233 478.486 251.535 479.771C251.837 481.056 252.546 482.182 253.694 484.008C253.726 484.06 253.76 484.113 253.794 484.167L257.334 489.799C257.637 490.281 258.274 490.426 258.756 490.123C259.238 489.82 259.383 489.183 259.08 488.701L255.54 483.069C254.26 481.033 253.757 480.209 253.543 479.299C253.329 478.389 253.413 477.428 253.652 475.035L253.777 473.781H255.278C255.514 473.781 255.58 473.782 255.632 473.786C256.328 473.836 256.925 474.302 257.143 474.965C257.159 475.015 257.176 475.078 257.233 475.308C257.237 475.323 257.241 475.339 257.244 475.354C257.305 475.596 257.351 475.781 257.407 475.941C258.043 477.775 259.963 478.829 261.851 478.381C262.016 478.342 262.198 478.282 262.434 478.203C262.449 478.198 262.464 478.193 262.479 478.188L263.483 477.853C264.023 477.673 264.315 477.089 264.135 476.549C263.955 476.009 263.371 475.717 262.83 475.897L261.827 476.231C261.525 476.332 261.439 476.359 261.376 476.374C260.517 476.578 259.644 476.099 259.355 475.265M259.103 474.323L258.123 474.644M259.103 474.323C259.145 474.452 259.18 474.593 259.226 474.775L259.234 474.808C259.311 475.116 259.334 475.204 259.355 475.265M259.355 475.265L258.381 475.603M257.656 465.188C257.656 467.086 256.117 468.625 254.219 468.625C252.32 468.625 250.781 467.086 250.781 465.188C250.781 463.289 252.32 461.75 254.219 461.75C256.117 461.75 257.656 463.289 257.656 465.188ZM251.64 483.635C251.955 483.161 251.827 482.52 251.354 482.204C250.88 481.889 250.239 482.017 249.923 482.49L245.798 488.678C245.482 489.152 245.611 489.792 246.084 490.108C246.558 490.424 247.199 490.296 247.515 489.822L251.64 483.635Z" stroke="white" stroke-linecap="round"/>
<path fill-rule="evenodd" clip-rule="evenodd" d="M253.781 737.251H255.031C259.745 737.251 262.102 737.251 263.567 735.786C265.031 734.322 265.031 731.965 265.031 727.251V720.998C264.85 721.001 264.595 721.001 264.406 721.001H244.406C244.218 721.001 243.963 721.001 243.781 720.998V727.251C243.781 731.965 243.781 734.322 245.246 735.786C246.71 737.251 249.067 737.251 253.781 737.251ZM250.751 724.897C250.656 725.127 250.656 725.418 250.656 726C250.656 726.583 250.656 726.874 250.751 727.104C250.878 727.41 251.122 727.653 251.428 727.78C251.658 727.875 251.949 727.875 252.531 727.875H256.281C256.864 727.875 257.155 727.875 257.385 727.78C257.691 727.653 257.934 727.41 258.061 727.104C258.156 726.874 258.156 726.583 258.156 726C258.156 725.418 258.156 725.127 258.061 724.897C257.934 724.591 257.691 724.348 257.385 724.221C257.155 724.125 256.864 724.125 256.281 724.125H252.531C251.949 724.125 251.658 724.125 251.428 724.221C251.122 724.348 250.878 724.591 250.751 724.897Z" fill="white"/>
<path d="M241.906 717.25C241.906 716.071 241.906 715.482 242.272 715.116C242.638 714.75 243.228 714.75 244.406 714.75H264.406C265.585 714.75 266.174 714.75 266.54 715.116C266.906 715.482 266.906 716.071 266.906 717.25C266.906 718.429 266.906 719.018 266.54 719.384C266.174 719.75 265.585 719.75 264.406 719.75H244.406C243.228 719.75 242.638 719.75 242.272 719.384C241.906 719.018 241.906 718.429 241.906 717.25Z" fill="white"/>
<path d="M435.104 114.312L442.596 106.148H444.315V124.999H439.401V116.621L435.4 120.81H434.863L430.889 116.621V124.999H425.975V106.148H427.747L435.104 114.312Z" fill="white"/>
<path d="M421.557 111.386C422.112 112.639 422.389 114.053 422.389 115.628C422.389 117.204 422.112 118.627 421.557 119.898C421.002 121.169 420.268 122.198 419.355 122.986C418.46 123.756 417.431 124.355 416.267 124.785C415.121 125.197 413.949 125.403 412.749 125.403C411.55 125.403 410.368 125.197 409.205 124.785C408.059 124.355 407.03 123.756 406.117 122.986C405.222 122.198 404.497 121.169 403.942 119.898C403.387 118.627 403.109 117.204 403.109 115.628C403.109 114.053 403.387 112.639 403.942 111.386C404.497 110.115 405.222 109.094 406.117 108.324C407.03 107.537 408.059 106.937 409.205 106.525C410.368 106.096 411.55 105.881 412.749 105.881C413.949 105.881 415.121 106.096 416.267 106.525C417.431 106.937 418.46 107.537 419.355 108.324C420.268 109.094 421.002 110.115 421.557 111.386ZM408.05 115.628C408.05 116.72 408.283 117.669 408.748 118.475C409.214 119.262 409.796 119.835 410.494 120.193C411.192 120.551 411.944 120.73 412.749 120.73C413.573 120.73 414.334 120.551 415.032 120.193C415.73 119.835 416.312 119.262 416.777 118.475C417.243 117.669 417.475 116.72 417.475 115.628C417.475 114.554 417.243 113.623 416.777 112.836C416.312 112.03 415.73 111.457 415.032 111.117C414.334 110.759 413.573 110.58 412.749 110.58C411.944 110.58 411.192 110.759 410.494 111.117C409.796 111.457 409.214 112.03 408.748 112.836C408.283 113.623 408.05 114.554 408.05 115.628Z" fill="white"/>
<path d="M386.785 125.053V127.121H382.811V120.837H384.717L391.162 105.961H393.229L399.889 120.837H401.849V127.121H397.902V125.053H386.785ZM392.182 113.99L389.577 120.783H394.894L392.182 113.99Z" fill="white"/>
<path d="M364.465 124.302L368.144 118.34C367.374 117.821 366.756 117.15 366.291 116.326C365.825 115.503 365.53 114.653 365.405 113.776C365.297 112.88 365.36 111.985 365.593 111.09C365.825 110.177 366.201 109.363 366.72 108.647C367.257 107.931 367.991 107.349 368.922 106.901C369.871 106.436 370.936 106.203 372.118 106.203H380.361V125H375.555V119.468H373.058L369.835 125H364.465V124.302ZM372.118 115.145H375.555V110.5C375.304 110.5 374.946 110.5 374.481 110.5C374.015 110.5 373.586 110.5 373.192 110.5C372.816 110.5 372.458 110.5 372.118 110.5C371.599 110.5 371.16 110.661 370.802 110.983C370.462 111.305 370.256 111.699 370.184 112.164C370.113 112.612 370.122 113.068 370.211 113.534C370.301 113.981 370.516 114.366 370.856 114.688C371.196 114.993 371.617 115.145 372.118 115.145Z" fill="white"/>
<path d="M352.48 125H347.674V106.203H355.944C356.911 106.203 357.797 106.364 358.603 106.686C359.408 107.009 360.071 107.438 360.59 107.975C361.127 108.512 361.574 109.139 361.932 109.855C362.308 110.553 362.532 111.287 362.604 112.057C362.693 112.827 362.693 113.596 362.604 114.366C362.532 115.136 362.308 115.87 361.932 116.568C361.574 117.266 361.127 117.884 360.59 118.421C360.071 118.958 359.408 119.388 358.603 119.71C357.797 120.032 356.911 120.193 355.944 120.193H352.48V125ZM355.918 115.87C356.419 115.87 356.839 115.691 357.18 115.333C357.538 114.957 357.761 114.509 357.851 113.99C357.94 113.453 357.949 112.925 357.878 112.406C357.806 111.887 357.591 111.439 357.233 111.063C356.893 110.687 356.455 110.5 355.918 110.5C355.577 110.5 355.21 110.5 354.817 110.5C354.441 110.5 354.011 110.5 353.528 110.5C353.062 110.5 352.713 110.5 352.48 110.5V115.87H355.918Z" fill="white"/>
<path d="M445.543 96.9993L444.442 94.6363H437.031L435.93 96.9993H431.23V96.3011L439.689 77.9609H441.757L450.242 96.3011V96.9993H445.543ZM442.884 90.5279L440.709 85.587L438.588 90.5279H442.884Z" fill="white"/>
<path d="M414.988 97.053V99.1207H411.014V92.8372H412.92L419.365 77.9609H421.432L428.092 92.8372H430.052V99.1207H426.105V97.053H414.988ZM420.385 85.9898L417.78 92.7835H423.097L420.385 85.9898Z" fill="white"/>
<path d="M404.575 82.4995V96.9998H399.688V78.2031H411.395V82.4995H404.575Z" fill="white"/>
<path d="M395.32 78.2031V82.4995H388.366V85.1579H394.757V89.4274H388.366V92.7303H395.562V96.9998H383.586V78.2031H395.32Z" fill="white"/>
<path d="M362.182 91.7904C361.627 90.5373 361.35 89.141 361.35 87.6014C361.35 86.0619 361.627 84.6656 362.182 83.4125C362.737 82.1594 363.471 81.1479 364.384 80.3781C365.315 79.6084 366.344 79.0176 367.472 78.6059C368.6 78.1941 369.772 77.9883 370.99 77.9883C373.138 77.9883 375.062 78.5969 376.763 79.8142C378.464 81.0137 379.484 82.7859 379.824 85.131H375.098C374.454 83.2872 373.084 82.3652 370.99 82.3652C369.593 82.3652 368.466 82.8486 367.606 83.8153C366.747 84.7819 366.317 86.044 366.317 87.6014C366.317 89.0336 366.747 90.2598 367.606 91.2802C368.483 92.2827 369.611 92.7929 370.99 92.8108C372.046 92.8108 372.941 92.5512 373.675 92.0321C374.427 91.513 374.928 90.7611 375.179 89.7765H379.905C379.69 91.4592 379.108 92.8824 378.159 94.046C377.228 95.1917 376.154 96.0063 374.937 96.4896C373.72 96.955 372.404 97.1878 370.99 97.1878C369.772 97.1878 368.6 96.9909 367.472 96.597C366.344 96.1853 365.315 95.5945 364.384 94.8248C363.471 94.055 362.737 93.0435 362.182 91.7904Z" fill="white"/>
<path d="M357.951 83.9764C357.951 84.5493 357.817 85.14 357.548 85.7487C357.28 86.3573 356.922 86.8496 356.474 87.2255C357.978 87.9953 358.73 89.2753 358.73 91.0654C358.712 92.784 358.193 94.2072 357.172 95.335C356.152 96.4449 354.72 96.9998 352.876 96.9998H344.068V78.2031H352.097C353.726 78.2031 355.105 78.767 356.233 79.8948C357.378 81.0047 357.951 82.3653 357.951 83.9764ZM352.527 89.5349H348.714V92.7303H352.554C353.162 92.7303 353.583 92.4707 353.816 91.9516C354.066 91.4145 354.066 90.8775 353.816 90.3404C353.565 89.8034 353.136 89.5349 352.527 89.5349ZM351.721 82.4995H348.714V85.5338H351.748C352.357 85.5338 352.777 85.2832 353.01 84.782C353.261 84.2628 353.261 83.7526 353.01 83.2514C352.76 82.7501 352.33 82.4995 351.721 82.4995Z" fill="white"/>
<path d="M317.482 61.8085C328.585 68.2211 328.082 89.8867 316.356 110.206C304.621 130.524 286.115 141.792 275.003 135.38C265.668 129.993 244.25 105.002 251.084 87.9263C252.385 84.6833 267.876 73.7909 271.568 74.423C277.046 75.3666 282.314 79.4707 283.367 77.9133C295.066 60.7 307.286 55.918 317.473 61.7993L317.482 61.8085Z" fill="#31766B"/>
<path d="M299.875 98.6159C301.421 95.2728 301.39 91.9688 299.805 91.2361C298.221 90.5034 295.684 92.6195 294.137 95.9625C292.591 99.3056 292.622 102.61 294.206 103.342C295.791 104.075 298.328 101.959 299.875 98.6159Z" fill="white"/>
<path d="M301.177 85.8817C302.404 79.9454 303.632 74.0091 304.859 68.0729C305.033 67.2301 305.207 66.3781 305.381 65.5353C305.528 64.8116 304.429 64.5093 304.273 65.233C303.045 71.1693 301.818 77.1056 300.59 83.0418C300.416 83.8846 300.242 84.7366 300.068 85.5794C299.922 86.3031 301.021 86.6054 301.177 85.8817Z" fill="#FDFDFD"/>
<path d="M305.014 89.6183C309.952 84.7172 314.89 79.807 319.828 74.9059C320.533 74.2005 321.247 73.4951 321.953 72.7897C322.475 72.2676 321.669 71.4614 321.147 71.9836C316.209 76.8847 311.271 81.7949 306.334 86.696C305.628 87.4014 304.914 88.1068 304.208 88.8122C303.686 89.3343 304.492 90.1405 305.014 89.6183Z" fill="#FDFDFD"/>
<path d="M305.337 97.9698C309.432 96.4032 313.527 94.8275 317.622 93.261L319.372 92.5923C320.049 92.3266 319.756 91.2273 319.069 91.4838C314.974 93.0503 310.879 94.626 306.784 96.1925L305.035 96.8613C304.357 97.1269 304.65 98.2263 305.337 97.9698Z" fill="#FDFDFD"/>
<path d="M294.094 87.9969C293.196 83.4073 292.289 78.8177 291.391 74.2281C291.263 73.5685 291.135 72.8998 290.997 72.2402C290.86 71.5165 289.751 71.8279 289.889 72.5424C290.786 77.1321 291.693 81.7217 292.591 86.3113C292.719 86.9709 292.848 87.6396 292.985 88.2992C293.123 89.0229 294.231 88.7114 294.094 87.9969Z" fill="#FDFDFD"/>
<path d="M302.67 103.523C305.336 104.751 308.002 105.978 310.659 107.215C311.034 107.389 311.41 107.563 311.785 107.737C312.454 108.039 313.031 107.059 312.362 106.748C309.697 105.52 307.031 104.293 304.374 103.056C303.999 102.882 303.623 102.708 303.247 102.534C302.579 102.231 302.001 103.212 302.67 103.523Z" fill="#FDFDFD"/>
<path d="M296.794 107.869C297.481 112.651 298.159 117.424 298.846 122.206L299.139 124.24C299.24 124.964 300.348 124.661 300.247 123.938C299.56 119.156 298.882 114.383 298.195 109.601C298.094 108.923 298.003 108.245 297.902 107.567C297.801 106.843 296.693 107.146 296.794 107.869Z" fill="#FDFDFD"/>
<path d="M290.714 108.259C288.121 115.011 285.529 121.772 282.936 128.523C282.57 129.485 282.194 130.447 281.828 131.409C281.562 132.096 282.671 132.398 282.936 131.711C285.529 124.96 288.121 118.199 290.714 111.447C291.08 110.486 291.456 109.524 291.822 108.562C292.088 107.875 290.98 107.572 290.714 108.259Z" fill="#FDFDFD"/>
<path d="M287.113 104.739C282.532 109.182 277.961 113.615 273.381 118.058C272.73 118.691 272.089 119.314 271.438 119.946C270.907 120.459 271.722 121.265 272.245 120.752C276.825 116.309 281.396 111.875 285.977 107.432C286.627 106.8 287.269 106.177 287.919 105.545C288.45 105.032 287.635 104.226 287.113 104.739Z" fill="#FDFDFD"/>
<path d="M287.838 98.8515C283.395 100.354 278.961 101.856 274.518 103.359C273.886 103.569 273.263 103.78 272.631 104C271.935 104.238 272.237 105.337 272.934 105.108C277.377 103.606 281.81 102.104 286.254 100.601C286.886 100.391 287.509 100.18 288.141 99.9599C288.837 99.7218 288.535 98.6225 287.838 98.8515Z" fill="#FDFDFD"/>
<path d="M290.383 93.7676L282.807 88.8573L281.726 88.1611C281.103 87.758 280.535 88.7474 281.149 89.1505L288.725 94.0607L289.806 94.757C290.429 95.16 290.997 94.1707 290.383 93.7676Z" fill="#FDFDFD"/>
<path d="M316.41 60.6157C318.389 61.6967 320.084 63.2724 321.311 65.1412C322.575 66.9917 323.446 69.0895 324.032 71.2424C325.232 75.5571 325.415 80.1009 325.049 84.5531C324.334 93.485 321.513 102.179 317.464 110.176C313.341 118.137 307.973 125.548 301.093 131.503C297.648 134.443 293.792 137.036 289.395 138.639C287.205 139.427 284.869 139.977 282.441 139.995C280.032 140.059 277.549 139.509 275.333 138.392C273.134 137.238 271.247 135.524 269.882 133.509C268.48 131.512 267.555 129.268 266.914 127.005C265.64 122.452 265.485 117.752 265.878 113.181C266.758 104.02 269.744 95.2439 274.077 87.2739C278.401 79.304 284.237 72.1035 291.392 66.5336C294.964 63.767 298.922 61.4218 303.246 60.066C305.399 59.379 307.643 58.9576 309.906 59.0034C312.169 59.0034 314.422 59.5622 316.41 60.6248V60.6157ZM316.236 60.9363C314.276 59.9653 312.086 59.4889 309.906 59.553C307.716 59.5897 305.573 60.1393 303.539 60.9088C299.472 62.512 295.862 65.1045 292.647 68.0269C289.431 70.9767 286.6 74.3112 284.081 77.8565C281.544 81.3926 279.29 85.112 277.32 88.9779C275.342 92.8438 273.656 96.8471 272.309 100.951C270.954 105.055 269.955 109.269 269.488 113.529C269.002 117.771 269.039 122.104 270.056 126.153C271.036 130.174 273.226 133.903 276.707 135.79C280.179 137.696 284.567 137.503 288.515 136.12C292.509 134.764 296.219 132.41 299.563 129.671C306.251 124.119 311.656 117.01 315.842 109.306C317.949 105.458 319.772 101.437 321.201 97.2776C322.649 93.1278 323.73 88.8313 324.279 84.4615C324.774 80.0918 324.774 75.6121 323.684 71.3248C323.116 69.1995 322.31 67.12 321.055 65.3061C319.836 63.4739 318.169 61.9623 316.236 60.9272V60.9363Z" fill="white"/>
<path d="M252.008 64.8914C240.905 71.304 241.409 92.9696 253.135 113.288C255.279 116.989 269.405 135.98 270.541 133.708C271.897 131.015 255.938 112.308 260.217 110.045C263.496 108.305 279.784 139.388 282.624 137.986C285.959 136.337 265.209 105.227 268.022 103.495C269.661 102.488 291.602 138.197 295.477 135.769C298.848 133.653 273.372 98.5852 275.323 97.2019C279.372 94.3254 295.569 122.633 299.242 120.113C302.549 117.832 278.493 89.3327 277.091 84.8713C275.57 80.0435 297.419 101.672 295.22 96.4507C282.89 67.2457 263.121 58.4696 252.018 64.8822L252.008 64.8914Z" fill="#F85F37"/>
<g opacity="0.6" filter="url(#filter1_di_440_6680)">
<path d="M18.1362 852.534C18.1362 852.534 171.056 809.053 191.676 890.935C212.295 972.817 198.848 1006.29 231.271 1029.3C263.545 1052.31 376.205 996.874 408.181 1050.22C440.156 1103.56 426.41 1139.12 470.936 1147.49C515.163 1155.56 569.999 1191.27 569.999 1191.27L570 1336.5L18.1367 1336.5L18.1362 852.534Z" fill="#31766B" fill-opacity="0.62" shape-rendering="crispEdges"/>
</g>
<g opacity="0.6" filter="url(#filter2_di_440_6680)">
<path d="M18.0003 911.677C18.0003 911.677 133.92 868.196 154.54 950.078C175.159 1031.96 161.712 1065.43 194.135 1088.44C226.409 1111.45 339.07 1056.02 371.045 1109.36C403.02 1162.7 389.274 1198.26 433.8 1206.63C478.027 1214.7 507.684 1216.43 532.864 1250.41C563.19 1291.34 532.864 1380.86 532.864 1380.86L18.0003 1380.86L18.0003 911.677Z" fill="#31766B" fill-opacity="0.62" shape-rendering="crispEdges"/>
</g>
<defs>
<filter id="filter0_i_440_6680" x="-14.6509" y="0" width="584.651" height="1382.22" filterUnits="userSpaceOnUse" color-interpolation-filters="sRGB">
<feFlood flood-opacity="0" result="BackgroundImageFix"/>
<feBlend mode="normal" in="SourceGraphic" in2="BackgroundImageFix" result="shape"/>
<feColorMatrix in="SourceAlpha" type="matrix" values="0 0 0 0 0 0 0 0 0 0 0 0 0 0 0 0 0 0 127 0" result="hardAlpha"/>
<feOffset dx="-14.6509" dy="10.1429"/>
<feGaussianBlur stdDeviation="31"/>
<feComposite in2="hardAlpha" operator="arithmetic" k2="-1" k3="1"/>
<feColorMatrix type="matrix" values="0 0 0 0 0.230529 0 0 0 0 0.543859 0 0 0 0 0.43106 0 0 0 0.17 0"/>
<feBlend mode="normal" in2="shape" result="effect1_innerShadow_440_6680"/>
</filter>
<filter id="filter1_di_440_6680" x="6.96042" y="823.77" width="590.049" height="533.686" filterUnits="userSpaceOnUse" color-interpolation-filters="sRGB">
<feFlood flood-opacity="0" result="BackgroundImageFix"/>
<feColorMatrix in="SourceAlpha" type="matrix" values="0 0 0 0 0 0 0 0 0 0 0 0 0 0 0 0 0 0 127 0" result="hardAlpha"/>
<feOffset dx="7.91654" dy="1.86272"/>
<feGaussianBlur stdDeviation="9.54642"/>
<feComposite in2="hardAlpha" operator="out"/>
<feColorMatrix type="matrix" values="0 0 0 0 0 0 0 0 0 0 0 0 0 0 0 0 0 0 0.25 0"/>
<feBlend mode="normal" in2="BackgroundImageFix" result="effect1_dropShadow_440_6680"/>
<feBlend mode="normal" in="SourceGraphic" in2="effect1_dropShadow_440_6680" result="shape"/>
<feColorMatrix in="SourceAlpha" type="matrix" values="0 0 0 0 0 0 0 0 0 0 0 0 0 0 0 0 0 0 127 0" result="hardAlpha"/>
<feOffset dx="-4.65679" dy="-6.51951"/>
<feGaussianBlur stdDeviation="5.35531"/>
<feComposite in2="hardAlpha" operator="arithmetic" k2="-1" k3="1"/>
<feColorMatrix type="matrix" values="0 0 0 0 0 0 0 0 0 0 0 0 0 0 0 0 0 0 0.16 0"/>
<feBlend mode="normal" in2="shape" result="effect2_innerShadow_440_6680"/>
</filter>
<filter id="filter2_di_440_6680" x="6.82371" y="882.912" width="566.527" height="518.899" filterUnits="userSpaceOnUse" color-interpolation-filters="sRGB">
<feFlood flood-opacity="0" result="BackgroundImageFix"/>
<feColorMatrix in="SourceAlpha" type="matrix" values="0 0 0 0 0 0 0 0 0 0 0 0 0 0 0 0 0 0 127 0" result="hardAlpha"/>
<feOffset dx="7.91654" dy="1.86272"/>
<feGaussianBlur stdDeviation="9.54642"/>
<feComposite in2="hardAlpha" operator="out"/>
<feColorMatrix type="matrix" values="0 0 0 0 0 0 0 0 0 0 0 0 0 0 0 0 0 0 0.25 0"/>
<feBlend mode="normal" in2="BackgroundImageFix" result="effect1_dropShadow_440_6680"/>
<feBlend mode="normal" in="SourceGraphic" in2="effect1_dropShadow_440_6680" result="shape"/>
<feColorMatrix in="SourceAlpha" type="matrix" values="0 0 0 0 0 0 0 0 0 0 0 0 0 0 0 0 0 0 127 0" result="hardAlpha"/>
<feOffset dx="-4.65679" dy="-6.51951"/>
<feGaussianBlur stdDeviation="5.35531"/>
<feComposite in2="hardAlpha" operator="arithmetic" k2="-1" k3="1"/>
<feColorMatrix type="matrix" values="0 0 0 0 0 0 0 0 0 0 0 0 0 0 0 0 0 0 0.16 0"/>
<feBlend mode="normal" in2="shape" result="effect2_innerShadow_440_6680"/>
</filter>
</defs>
</svg>
