<svg width="140" height="33" viewBox="0 0 140 33" fill="none" xmlns="http://www.w3.org/2000/svg">
<path d="M137.125 15.2852C136.341 15.2852 135.669 15.0192 135.109 14.4872C134.549 13.9272 134.269 13.2273 134.269 12.3873C134.269 11.5473 134.549 10.8613 135.109 10.3293C135.669 9.79725 136.341 9.53125 137.125 9.53125C137.881 9.53125 138.525 9.79725 139.057 10.3293C139.617 10.8613 139.897 11.5473 139.897 12.3873C139.897 13.2273 139.617 13.9272 139.057 14.4872C138.525 15.0192 137.881 15.2852 137.125 15.2852ZM137.125 32.2533C136.341 32.2533 135.669 31.9872 135.109 31.4552C134.549 30.8953 134.269 30.1953 134.269 29.3553C134.269 28.5153 134.549 27.8293 135.109 27.2973C135.669 26.7653 136.341 26.4993 137.125 26.4993C137.881 26.4993 138.525 26.7653 139.057 27.2973C139.617 27.8293 139.897 28.5153 139.897 29.3553C139.897 30.1953 139.617 30.8953 139.057 31.4552C138.525 31.9872 137.881 32.2533 137.125 32.2533Z" fill="#163C51"/>
<path d="M124.428 31.9999V0.835938H128.46V31.9999H124.428Z" fill="#163C51"/>
<path d="M112.697 32.001V9.74103H116.729V32.001H112.697ZM114.713 5.45703C113.929 5.45703 113.271 5.20503 112.739 4.70103C112.235 4.19703 111.983 3.58103 111.983 2.85303C111.983 2.09703 112.235 1.46703 112.739 0.963032C113.271 0.459032 113.929 0.207031 114.713 0.207031C115.497 0.207031 116.141 0.459032 116.645 0.963032C117.177 1.43903 117.443 2.04103 117.443 2.76903C117.443 3.52503 117.191 4.16903 116.687 4.70103C116.183 5.20503 115.525 5.45703 114.713 5.45703Z" fill="#163C51"/>
<path d="M101.414 32.0013V27.2973L101.204 26.4153V18.3933C101.204 16.6853 100.7 15.3693 99.692 14.4453C98.712 13.4933 97.228 13.0173 95.24 13.0173C93.924 13.0173 92.636 13.2413 91.376 13.6893C90.116 14.1093 89.052 14.6833 88.184 15.4113L86.504 12.3873C87.652 11.4633 89.024 10.7633 90.62 10.2873C92.244 9.78325 93.938 9.53125 95.702 9.53125C98.754 9.53125 101.106 10.2732 102.758 11.7572C104.41 13.2413 105.236 15.5093 105.236 18.5613V32.0013H101.414ZM94.106 32.2533C92.454 32.2533 90.998 31.9732 89.738 31.4132C88.506 30.8533 87.554 30.0833 86.882 29.1033C86.21 28.0953 85.874 26.9613 85.874 25.7013C85.874 24.4973 86.154 23.4053 86.714 22.4253C87.302 21.4453 88.24 20.6613 89.528 20.0733C90.844 19.4853 92.608 19.1913 94.82 19.1913H101.876V22.0893H94.988C92.972 22.0893 91.614 22.4253 90.914 23.0973C90.214 23.7693 89.864 24.5812 89.864 25.5332C89.864 26.6252 90.298 27.5073 91.166 28.1793C92.034 28.8233 93.238 29.1453 94.778 29.1453C96.29 29.1453 97.606 28.8093 98.726 28.1373C99.874 27.4653 100.7 26.4853 101.204 25.1973L102.002 27.9692C101.47 29.2852 100.532 30.3353 99.188 31.1193C97.844 31.8753 96.15 32.2533 94.106 32.2533Z" fill="#163C51"/>
<path d="M71.0628 9.53125C72.8548 9.53125 74.4368 9.88125 75.8088 10.5812C77.1808 11.2813 78.2448 12.3453 79.0008 13.7733C79.7848 15.2013 80.1768 17.0073 80.1768 19.1913V32.0013H76.1448V19.6533C76.1448 17.4973 75.6408 15.8733 74.6328 14.7812C73.6248 13.6892 72.2108 13.1432 70.3908 13.1432C69.0468 13.1432 67.8708 13.4232 66.8628 13.9832C65.8548 14.5433 65.0708 15.3693 64.5108 16.4613C63.9788 17.5532 63.7128 18.9113 63.7128 20.5353V32.0013H59.6808V19.6533C59.6808 17.4973 59.1768 15.8733 58.1688 14.7812C57.1888 13.6892 55.7748 13.1432 53.9268 13.1432C52.6108 13.1432 51.4488 13.4232 50.4408 13.9832C49.4328 14.5433 48.6488 15.3693 48.0888 16.4613C47.5288 17.5532 47.2488 18.9113 47.2488 20.5353V32.0013H43.2168V9.74125H47.0808V15.6632L46.4508 14.1513C47.1508 12.6953 48.2288 11.5612 49.6848 10.7492C51.1408 9.93725 52.8348 9.53125 54.7668 9.53125C56.8948 9.53125 58.7288 10.0633 60.2688 11.1273C61.8088 12.1633 62.8168 13.7453 63.2928 15.8733L61.6548 15.2013C62.3268 13.4932 63.5028 12.1213 65.1828 11.0853C66.8628 10.0493 68.8228 9.53125 71.0628 9.53125Z" fill="#163C51"/>
<path d="M25.7109 22.2145V18.7285H37.0089V22.2145H25.7109Z" fill="#163C51"/>
<path d="M4.23216 15.2856H19.3522V18.8556H4.23216V15.2856ZM4.61016 28.3476H21.7462V32.0016H0.410156V2.60156H21.1582V6.25556H4.61016V28.3476Z" fill="#163C51"/>
</svg>
