<svg width="1930" height="1239" viewBox="0 0 1930 1239" fill="none" xmlns="http://www.w3.org/2000/svg">
<g clip-path="url(#clip0_435_1322)">
<path d="M372.203 1239C372.203 1239 278.832 809.692 454.665 765.413C630.499 721.135 702.373 750.012 751.786 680.386C801.199 611.08 682.158 369.153 796.707 300.49C911.256 231.826 987.621 261.345 1005.59 165.729C1022.92 70.755 1099.6 -47 1099.6 -47H1379.72V1239H372.203Z" fill="#E6FAF9"/>
<path d="M1929.68 -47V1239H1120.14L1124.63 828.622C1124.63 828.622 1169.87 725.306 1100.89 547.55C1031.9 370.116 1379.4 -47 1379.4 -47H1929.68Z" fill="url(#paint0_linear_435_1322)"/>
<path opacity="0.3" d="M1505.82 -47C1505.82 -47 1541.11 164.446 1664.32 158.991C1881.23 149.365 1929.68 364.982 1929.68 364.982L1930 195.248C1930 195.248 1816.41 75.8887 1710.85 71.0758C1605.29 65.9421 1594.7 -47 1594.7 -47H1505.82Z" fill="white"/>
<path d="M1354.37 294.07H1261.64V752.577H1354.37V294.07Z" fill="url(#paint1_linear_435_1322)"/>
<path d="M1459.29 416H1366.56V752.58H1459.29V416Z" fill="url(#paint2_linear_435_1322)"/>
<path d="M1590.85 212.574H1498.12V765.413H1590.85V212.574Z" fill="url(#paint3_linear_435_1322)"/>
<path d="M1863.9 409.581V752.579H1622.61V464.127H1707.32V283.805H1800.37V409.581H1863.9Z" fill="url(#paint4_linear_435_1322)"/>
<path opacity="0.5" d="M1691.28 435.889C1691.28 442.948 1689.35 449.686 1686.14 455.461H1474.37C1471.16 449.365 1469.56 442.306 1469.56 434.926C1469.56 410.541 1489.45 390.648 1513.84 390.648C1516.73 390.648 1519.62 390.969 1522.18 391.61C1522.82 390.006 1523.14 388.402 1524.11 387.118C1534.38 364.979 1560.69 355.033 1582.83 365.3C1591.49 369.15 1598.23 375.888 1602.72 383.589C1608.17 378.455 1615.55 375.247 1623.58 375.247C1637.05 375.247 1648.28 383.91 1652.45 396.102C1674.27 396.423 1691.28 414.07 1691.28 435.889Z" fill="white"/>
<path opacity="0.5" d="M1827 223.161C1827 232.787 1824.44 241.771 1820.27 249.471H1535.34C1531.17 241.129 1528.6 231.824 1528.6 221.877C1528.6 188.829 1555.23 162.198 1588.28 162.198C1592.13 162.198 1595.98 162.519 1599.83 163.16C1600.47 161.235 1601.44 158.989 1602.4 157.064C1616.2 127.224 1651.49 114.069 1681.65 127.866C1693.2 133.321 1702.51 141.984 1708.6 152.251C1715.98 145.192 1725.93 141.021 1736.84 141.021C1754.81 141.021 1770.21 152.893 1775.67 168.936C1804.22 170.219 1827 193.963 1827 223.161Z" fill="white"/>
<path opacity="0.5" d="M1488.81 301.132C1488.81 309.795 1486.57 317.816 1482.72 324.875H1226.02C1222.17 317.496 1219.93 309.153 1219.93 300.169C1219.93 270.329 1243.99 246.265 1273.83 246.265C1277.36 246.265 1280.89 246.586 1284.1 247.228C1284.74 245.302 1285.38 243.377 1286.35 241.773C1298.86 214.821 1330.63 202.949 1357.58 215.463C1368.17 220.275 1376.19 227.976 1381.64 237.602C1388.38 231.185 1397.04 227.334 1406.99 227.334C1423.36 227.334 1437.15 237.923 1441.97 252.682C1468.28 253.645 1488.81 275.142 1488.81 301.132Z" fill="white"/>
<path d="M1929.68 581.883V996.753C1619.72 975.897 811.467 945.416 811.467 945.416C811.467 945.416 1030.62 561.348 1244.95 570.012C1459.61 578.675 1406.35 678.462 1534.37 679.103C1662.08 679.424 1723.04 541.134 1929.68 581.883Z" fill="url(#paint5_linear_435_1322)"/>
<path d="M363.219 1054.51C356.48 1094.93 394.022 1120.6 429.317 1127.66C425.466 1156.54 423.22 1185.42 423.541 1213.65C423.541 1218.78 430.921 1219.11 431.563 1213.97C434.771 1186.38 437.98 1158.78 441.189 1131.51C457.553 1134.08 474.879 1126.7 489.639 1120.6C506.003 1113.86 522.047 1106.48 532.635 1091.72C533.598 1090.44 532.956 1088.84 531.993 1088.2C501.832 1069.26 463.328 1089.16 443.435 1115.79C446.002 1097.5 448.569 1079.21 451.777 1060.92C472.954 1063.49 494.131 1063.17 514.025 1053.86C521.405 1050.33 548.678 1035.9 543.544 1024.99C540.336 1018.25 527.18 1020.82 521.405 1021.14C511.137 1021.46 500.869 1022.74 490.923 1025.63C477.126 1029.48 464.291 1036.22 454.665 1046.48C457.553 1032.69 460.441 1018.57 463.97 1004.77C463.97 1004.45 464.291 1004.13 464.291 1003.49C482.901 1005.09 504.72 999.959 522.367 994.826C536.806 990.654 547.395 981.67 550.924 966.911C551.245 965.627 550.603 964.023 549.32 963.702C519.159 955.36 490.923 966.911 468.462 986.804C472.954 970.761 477.767 955.039 482.901 939.638C515.308 952.793 553.491 926.804 572.743 902.418C573.706 901.135 573.064 899.21 571.46 898.889C543.224 892.472 510.816 899.531 489.639 919.745C494.452 905.948 499.586 892.151 505.041 878.354C505.362 878.675 506.003 878.996 506.645 878.996C515.308 879.317 523.009 882.204 531.672 880.6C539.694 878.996 547.716 876.108 555.096 872.899C562.155 869.691 569.534 865.52 575.952 860.386C582.369 855.252 587.824 849.156 591.353 841.776C592.316 841.455 592.316 840.172 591.353 839.851C591.032 839.851 591.032 839.851 590.712 839.851C590.391 839.851 590.07 839.53 589.749 839.851C562.796 835.359 531.673 847.231 510.495 864.557C515.95 850.439 521.726 836.642 527.501 822.525C542.582 800.706 555.737 769.262 545.149 742.952L544.507 741.347L541.619 736.855L541.298 737.176C531.031 748.085 520.763 759.316 517.875 774.396C515.308 788.514 517.875 803.915 522.047 817.391C514.667 832.15 507.608 847.231 501.19 862.632C500.549 848.514 497.661 834.396 492.527 821.241C487.072 807.444 478.088 790.118 463.007 785.305L460.12 784.343L458.515 790.118C453.061 823.487 471.992 852.685 496.377 874.824C489.96 890.547 484.185 906.269 478.73 922.312C477.125 894.076 462.366 856.215 434.771 849.477C434.451 846.589 429.958 846.589 429.958 849.477C429.638 867.766 431.884 886.696 440.868 903.06C447.927 915.894 460.12 929.37 474.879 932.9C474.879 932.9 474.879 932.9 474.879 933.221C474.879 933.542 474.879 933.862 474.879 934.183C470.387 948.301 465.895 962.74 462.045 977.178C459.799 968.515 454.665 960.173 449.531 953.114C439.264 939.317 426.429 926.804 409.102 922.632C407.819 922.312 405.894 923.274 406.214 924.878C406.535 940.28 407.819 955.36 417.445 967.553C427.071 980.066 442.151 990.334 456.911 996.109C455.948 999.638 454.986 1003.17 454.023 1006.7C451.456 1016.96 448.889 1026.91 446.643 1037.5C443.435 1028.52 437.98 1020.17 432.204 1012.15C421.295 997.392 410.386 982.633 391.134 979.745C389.85 979.424 388.567 981.029 388.567 982.312C389.209 1001.24 389.85 1021.46 401.081 1037.5C410.065 1050.65 425.466 1059.64 441.189 1062.21C437.338 1080.49 433.809 1098.78 431.242 1117.39C420.653 1087.55 396.909 1063.49 366.748 1053.86C364.823 1051.94 363.539 1052.9 363.219 1054.51Z" fill="url(#paint6_linear_435_1322)"/>
<path d="M392.096 1094.29C402.685 1085.63 398.513 1076.64 401.08 1072.47C414.236 1084.02 424.503 1099.1 430.6 1116.11L428.995 1127.66C410.385 1124.13 391.454 1115.15 378.299 1101.67C383.112 1100.07 387.604 1097.82 392.096 1094.29Z" fill="url(#paint7_linear_435_1322)"/>
<path d="M499.906 862.313C499.264 866.164 498.943 871.297 495.735 874.185C486.751 865.843 478.408 856.538 471.67 846.591C471.991 845.95 472.633 845.629 473.274 845.308C475.52 844.345 477.766 845.629 480.012 845.308C487.392 844.024 486.109 836.645 488.997 831.832C490.28 829.907 492.205 827.982 494.451 827.34C497.66 836.966 499.906 847.233 500.548 857.501C500.227 859.105 499.906 860.709 499.906 862.313Z" fill="url(#paint8_linear_435_1322)"/>
<path d="M528.464 820.922C527.822 821.242 526.859 821.243 525.897 821.243C523.971 821.243 522.046 820.601 520.763 819.638C521.084 818.996 521.405 818.034 522.046 817.392C518.196 803.595 515.629 788.194 517.875 774.397C518.196 773.114 518.517 771.83 518.838 770.547C522.046 772.472 523.33 777.285 525.897 779.852C531.993 785.948 540.015 778.248 547.395 778.248C544.186 793.328 536.485 808.408 528.464 820.922Z" fill="url(#paint9_linear_435_1322)"/>
<path d="M538.41 867.768C543.544 870.976 548.036 873.222 551.245 874.506C544.827 877.073 538.41 879.319 531.672 880.602C522.688 882.206 515.308 879.319 506.644 878.998C506.003 878.998 505.361 878.677 505.04 878.356C505.04 878.356 507.286 871.618 510.816 863.917C516.912 858.784 524.292 854.292 531.672 850.441C531.993 856.538 532.634 864.238 538.41 867.768Z" fill="url(#paint10_linear_435_1322)"/>
<path d="M527.501 899.531C527.18 903.702 527.18 909.157 527.501 916.858C527.821 926.483 531.672 930.975 536.485 933.221C519.479 942.526 500.227 947.018 482.9 939.639L489.639 919.745C499.906 909.799 513.383 903.061 527.501 899.531Z" fill="url(#paint11_linear_435_1322)"/>
<path d="M507.928 987.768C510.174 991.618 513.062 994.506 515.629 996.752C499.265 1000.92 480.334 1004.77 463.97 1003.49L468.462 986.806C480.655 975.896 495.094 967.554 510.174 963.383C508.891 969.479 503.115 978.784 507.928 987.768Z" fill="url(#paint12_linear_435_1322)"/>
<path d="M454.343 1046.48C463.969 1036.22 476.804 1029.48 490.601 1025.63C493.489 1024.99 496.377 1024.34 499.264 1023.7C498.623 1027.55 494.772 1032.69 492.526 1038.78C488.997 1048.09 497.018 1053.54 505.361 1057.39C488.034 1063.17 469.745 1063.17 451.776 1060.92L454.343 1046.8C454.022 1048.09 453.702 1049.69 454.343 1046.48Z" fill="url(#paint13_linear_435_1322)"/>
<path d="M482.259 1085.31C480.975 1089.8 478.408 1096.22 478.408 1104.88C478.408 1112.26 483.863 1117.07 488.997 1120.92C474.237 1127.02 457.231 1134.4 440.867 1131.51L442.792 1115.79C452.739 1102.63 466.857 1091.4 482.259 1085.31Z" fill="url(#paint14_linear_435_1322)"/>
<path d="M458.194 891.834C461.723 885.096 463.007 878.999 464.29 874.828C472.633 889.267 477.125 906.914 478.087 921.994L474.237 932.903C474.237 932.903 474.237 932.903 474.237 932.583C459.477 929.374 447.284 915.577 440.225 902.743C439.904 902.101 439.584 901.459 439.263 900.818C446.322 900.497 454.343 899.534 458.194 891.834Z" fill="url(#paint15_linear_435_1322)"/>
<path d="M416.803 966.913C416.161 966.271 415.84 965.309 415.198 964.667C420.974 961.458 429.637 962.421 434.45 957.287C438.621 952.795 436.054 943.49 436.054 937.715C440.867 942.207 445.039 947.341 449.21 952.795C454.344 959.854 459.478 968.196 461.724 976.86L456.59 995.79C441.509 989.694 426.429 979.426 416.803 966.913Z" fill="url(#paint16_linear_435_1322)"/>
<path d="M400.76 1036.22C400.118 1035.25 399.476 1034.29 399.155 1033.65C402.364 1031.08 405.893 1028.84 409.102 1026.91C419.049 1020.82 414.878 1003.17 421.937 998.355C425.466 1002.53 428.675 1006.7 431.883 1011.19C437.659 1019.21 443.114 1027.55 446.322 1036.54L440.868 1060.6C425.145 1058.68 409.744 1049.37 400.76 1036.22Z" fill="url(#paint17_linear_435_1322)"/>
<path opacity="0.4" d="M533.277 769.903C535.202 762.203 536.806 753.86 539.694 746.481C539.694 746.16 540.336 746.481 540.336 746.801C539.373 755.465 536.485 764.449 534.239 772.791C532.314 780.492 530.389 788.513 527.822 796.214C527.501 796.855 526.539 796.534 526.86 795.893C528.464 787.23 531.031 778.566 533.277 769.903Z" fill="url(#paint18_linear_435_1322)"/>
<path opacity="0.4" d="M464.291 794.61C470.387 804.557 474.559 816.108 479.051 827.017C483.543 838.568 488.677 850.44 491.885 862.632C492.206 863.595 490.923 863.916 490.602 862.953C486.11 851.723 482.901 839.851 478.088 828.621C473.596 817.391 467.82 806.482 463.328 795.252C463.007 794.61 463.97 794.289 464.291 794.61Z" fill="url(#paint19_linear_435_1322)"/>
<path opacity="0.4" d="M437.98 856.533C445.039 864.233 450.173 874.501 454.985 883.806C459.798 893.752 465.253 904.982 466.857 915.892C466.857 916.854 465.895 916.854 465.574 916.212C461.082 906.266 458.194 895.677 453.381 885.731C448.568 875.784 442.151 867.121 437.338 857.174C436.696 856.854 437.659 856.212 437.98 856.533Z" fill="url(#paint20_linear_435_1322)"/>
<path opacity="0.4" d="M524.292 866.16C540.977 856.855 560.55 853.967 576.914 844.341C577.235 844.02 577.877 844.662 577.556 844.983C572.743 851.079 562.796 853.325 556.058 855.892C546.111 859.743 535.843 865.197 525.255 867.764C524.292 868.085 523.33 866.801 524.292 866.16Z" fill="url(#paint21_linear_435_1322)"/>
<path opacity="0.4" d="M495.736 923.917C504.078 917.179 514.988 913.328 524.934 910.44C536.165 907.232 547.716 904.023 559.267 901.777C559.909 901.777 560.229 902.74 559.588 902.74C548.999 906.269 537.769 908.515 526.859 911.724C515.95 914.932 506.324 919.425 496.698 925.2C495.736 925.842 494.773 924.558 495.736 923.917Z" fill="url(#paint22_linear_435_1322)"/>
<path opacity="0.4" d="M414.236 932.258C423.541 948.943 436.376 963.06 445.36 980.066C445.681 980.708 444.718 981.349 444.397 980.708C438.301 972.365 433.167 963.381 427.071 955.039C421.937 947.98 415.52 941.242 413.274 932.9C412.953 932.258 413.915 931.616 414.236 932.258Z" fill="url(#paint23_linear_435_1322)"/>
<path opacity="0.4" d="M481.938 987.125C485.468 984.879 488.997 984.558 492.848 983.916C498.944 982.954 505.04 981.35 510.816 979.424C520.442 975.895 529.747 973.007 540.015 971.082C540.335 971.082 540.335 971.403 540.015 971.724C530.068 973.97 520.442 978.783 510.495 982.312C501.511 985.521 491.885 985.842 482.901 989.371C481.617 989.371 480.655 987.767 481.938 987.125Z" fill="url(#paint24_linear_435_1322)"/>
<path opacity="0.4" d="M399.155 987.768C404.931 994.827 409.744 1003.49 414.557 1011.19C419.049 1018.57 424.183 1026.27 426.429 1034.61C426.749 1035.58 425.466 1036.22 424.824 1035.25C420.011 1026.91 416.161 1018.25 411.027 1010.23C406.535 1002.85 401.08 995.789 397.551 988.089C397.551 987.447 398.513 987.126 399.155 987.768Z" fill="url(#paint25_linear_435_1322)"/>
<path opacity="0.4" d="M471.992 1041.03C477.126 1040.06 482.259 1039.74 487.072 1038.46C491.885 1037.18 496.057 1034.93 500.87 1033.65C509.212 1030.76 518.196 1030.12 526.86 1027.23C527.18 1027.23 527.501 1027.55 527.181 1027.55C518.838 1032.69 508.57 1033.01 499.586 1036.21C490.602 1039.42 481.939 1042.95 472.313 1042.63C471.029 1042.63 471.029 1041.03 471.992 1041.03Z" fill="url(#paint26_linear_435_1322)"/>
<path opacity="0.4" d="M460.12 1111.29C469.425 1106.16 479.372 1102.31 489.318 1098.14C497.982 1094.29 506.966 1090.12 516.913 1089.8C517.554 1089.8 517.554 1090.44 516.913 1090.44C497.019 1094.29 480.013 1106.16 461.082 1112.26C460.12 1112.58 459.478 1111.62 460.12 1111.29Z" fill="url(#paint27_linear_435_1322)"/>
<path d="M1929.68 661.132V927.124L824.301 877.07C824.301 877.07 808.258 768.62 911.576 737.817C918.956 735.571 926.015 733.967 932.754 732.363C1021.95 714.074 1068.48 758.031 1068.48 758.031C1068.48 758.031 1116.29 711.828 1207.41 711.507C1213.83 711.507 1220.57 711.828 1227.63 712.149C1331.91 719.208 1366.88 769.903 1366.88 769.903C1366.88 769.903 1457.69 725.304 1529.24 758.031C1528.92 758.352 1754.81 589.581 1929.68 661.132Z" fill="#56AFA3"/>
<path d="M1929.68 706.693V927.443L824.301 877.39C824.301 877.39 808.258 768.939 911.576 738.137C918.956 735.891 926.015 734.287 932.754 732.682C937.566 762.843 953.61 796.854 1005.27 788.833C1093.83 775.036 1200.35 726.265 1261.96 741.346C1323.57 756.426 1383.25 797.817 1512.56 793.325C1633.52 789.153 1777.27 675.249 1929.68 706.693Z" fill="url(#paint28_linear_435_1322)"/>
<path d="M1929.68 898.249V1239.32H317.335C317.335 1239.32 448.569 1104.88 640.766 980.71C820.451 864.559 1053.08 758.034 1280.89 779.532C1460.58 796.537 1617.16 824.131 1742.29 851.725C1816.41 867.768 1879.3 884.132 1929.68 898.249Z" fill="#5FC692"/>
<path opacity="0.2" d="M1280.89 779.532C1124.95 764.773 966.444 810.014 824.301 877.394C824.301 877.394 717.453 977.823 811.145 983.598C904.838 989.374 940.133 880.603 1050.51 870.977C1160.89 861.351 1189.77 925.202 1308.16 901.779C1426.56 878.357 1367.2 828.624 1493.62 851.405C1620.04 874.185 1834.06 958.892 1929.68 898.25C1879.3 884.132 1816.41 867.768 1742.29 851.725C1617.16 824.132 1460.25 796.538 1280.89 779.532Z" fill="white"/>
<path d="M1929.68 898.25V1239.32H317.335C317.335 1239.32 448.569 1104.88 640.766 980.711C642.692 1026.91 660.339 1096.22 750.502 1096.54C884.944 1096.86 917.993 1041.03 1022.6 1043.92C1127.2 1046.49 1288.59 1141.46 1413.09 1116.11C1535.34 1091.09 1722.72 976.54 1742.29 852.047C1816.41 867.769 1879.3 884.133 1929.68 898.25Z" fill="url(#paint29_linear_435_1322)"/>
<path d="M372.203 1239C372.203 1239 403.969 1109.69 630.499 1131.83C857.029 1153.97 951.364 1203.39 1093.83 1166.17C1236.29 1129.27 1536.94 960.817 1664.65 1239H372.203Z" fill="url(#paint30_linear_435_1322)"/>
<path d="M1505.82 1092.05C1449.67 1159.75 1298.54 1198.57 1103.13 1217.5C976.711 1230.02 890.72 1196.33 837.777 1161.99C780.663 1152.05 714.565 1140.18 630.178 1131.83C403.647 1109.69 371.882 1239 371.882 1239H1664.32C1624.86 1153.01 1568.71 1109.69 1505.82 1092.05Z" fill="url(#paint31_linear_435_1322)"/>
<path d="M297.762 1043.6C297.762 1043.6 293.591 999.962 324.073 953.117C345.571 920.068 384.074 885.736 453.381 863.918C453.381 863.918 450.814 902.1 425.787 944.774C404.289 981.673 365.785 1022.42 297.762 1043.6Z" fill="url(#paint32_linear_435_1322)"/>
<path d="M424.183 904.026C415.52 917.182 406.215 930.016 396.91 942.85C387.604 955.685 377.658 967.877 367.711 980.07C357.443 992.262 347.176 1004.13 335.624 1015.04C324.394 1025.95 312.522 1036.86 298.725 1045.2C297.762 1045.85 296.479 1045.52 296.158 1044.56C295.516 1043.6 295.837 1042.32 296.8 1042C310.276 1033.97 322.148 1023.71 333.378 1012.8C344.929 1001.89 355.518 990.337 365.786 978.466C376.053 966.594 386 954.401 395.626 941.888C405.252 929.374 414.557 916.54 423.541 903.705C423.541 903.385 423.862 903.385 424.183 903.705C424.504 903.705 424.504 903.706 424.183 904.026Z" fill="#ACEBB7"/>
<path d="M297.762 1043.6C297.762 1043.6 293.591 999.961 324.073 953.116C339.795 984.56 400.118 957.929 425.787 944.773C404.289 981.672 365.785 1022.42 297.762 1043.6Z" fill="url(#paint33_linear_435_1322)"/>
<path d="M245.14 985.844C245.14 985.844 222.038 948.304 229.097 892.796C233.91 853.651 253.483 805.843 306.105 755.789C306.105 755.789 320.544 791.404 317.014 840.496C313.805 883.491 297.12 936.753 245.14 985.844Z" fill="url(#paint34_linear_435_1322)"/>
<path d="M297.441 804.881C295.516 820.603 292.949 836.004 290.061 851.726C287.174 867.127 283.965 882.849 280.115 897.93C276.264 913.331 272.093 928.411 266.638 943.492C261.184 958.251 255.408 973.332 246.745 986.808C246.103 987.77 244.819 988.091 244.178 987.449C243.215 986.808 242.894 985.524 243.536 984.882C252.199 972.048 258.296 957.289 263.75 942.529C269.205 927.77 273.697 912.689 277.869 897.609C282.04 882.529 285.569 867.127 288.457 851.726C291.666 836.325 294.233 820.603 296.8 805.202C296.8 804.881 297.12 804.881 297.441 804.881Z" fill="#ACEBB7"/>
<path d="M245.14 985.845C245.14 985.845 222.038 948.304 229.097 892.796C257.012 913.973 299.687 863.598 316.693 840.496C313.805 883.491 297.12 936.754 245.14 985.845Z" fill="url(#paint35_linear_435_1322)"/>
<path d="M420.332 1166.81C412.952 1172.26 404.931 1177.4 396.267 1181.89C313.163 1225.53 313.805 1136.33 372.203 1114.19C372.203 1114.19 393.7 1107.45 420.011 1096.54C455.306 1081.78 499.586 1059.96 511.779 1037.82C511.779 1037.82 485.789 1118.68 420.332 1166.81Z" fill="url(#paint36_linear_435_1322)"/>
<path d="M468.783 1089.8C459.478 1100.07 449.531 1109.69 439.264 1118.68C428.996 1127.66 418.087 1136.33 406.535 1144.35C400.76 1148.2 394.984 1151.73 388.888 1155.26C382.791 1158.47 376.374 1161.35 369.957 1163.6C363.219 1165.84 356.481 1167.45 349.422 1167.77C347.496 1167.77 345.892 1167.77 343.967 1167.77C342.042 1167.45 340.437 1167.45 338.512 1167.13C336.908 1166.81 334.983 1166.49 333.378 1165.84C331.774 1165.2 330.17 1164.56 328.245 1164.24C326.961 1164.24 326.319 1163.28 326.319 1161.99C326.319 1160.71 327.282 1160.07 328.565 1160.07C328.886 1160.07 329.528 1160.39 329.528 1160.39C330.811 1161.35 332.416 1161.67 334.02 1162.32L338.833 1163.6C340.437 1163.92 342.042 1163.92 343.646 1164.24C345.25 1164.24 346.855 1164.24 348.78 1164.24C355.518 1163.92 362.256 1162.64 368.673 1160.39C375.091 1158.47 381.508 1155.58 387.604 1152.37C393.701 1149.16 399.476 1145.63 405.252 1142.1C416.803 1134.72 427.713 1126.06 437.98 1117.07C448.248 1108.09 458.516 1098.46 467.821 1088.52C468.141 1088.2 468.462 1088.2 468.462 1088.52C469.104 1089.48 469.104 1089.8 468.783 1089.8Z" fill="#ACEBB7"/>
<path d="M420.332 1166.81C412.952 1172.26 404.931 1177.4 396.267 1181.89C313.163 1225.52 313.805 1136.33 372.203 1114.19C372.203 1114.19 393.7 1107.45 420.011 1096.54C407.498 1113.22 386 1143.06 420.332 1166.81Z" fill="url(#paint37_linear_435_1322)"/>
<path d="M406.535 1188.3C386.321 1173.87 359.368 1174.83 335.624 1179.64C354.876 1163.28 372.203 1144.99 386.963 1124.45C395.626 1112.26 403.648 1099.43 410.707 1085.95C416.161 1075.36 421.616 1064.13 423.22 1052.26C431.563 992.902 348.78 1012.47 323.111 1026.27C314.126 1031.08 305.463 1036.86 297.441 1042.96C303.538 1034.29 308.993 1025.31 313.806 1015.68C325.677 991.939 321.506 975.897 312.843 949.907C304.821 925.843 282.682 914.292 258.296 914.292C232.306 914.292 206.958 925.843 186.422 940.923C176.475 948.303 167.491 956.645 159.791 965.95C152.411 974.934 145.672 984.56 140.218 995.148C146.314 953.436 146.956 904.345 107.49 879.96C69.6276 856.537 23.744 884.131 3.85037 918.463C2.56692 921.03 1.28346 923.276 0 925.843V1239.64H427.071C429.638 1219.75 423.22 1200.18 406.535 1188.3Z" fill="url(#paint38_linear_435_1322)"/>
<path d="M317.335 1239H0V925.202C1.28346 922.635 2.56692 920.389 3.85037 917.822C23.4231 883.491 69.3067 855.576 107.49 879.319C146.956 903.705 146.314 952.796 140.218 994.507C145.672 983.919 152.09 974.293 159.791 965.309C168.454 1060.93 201.503 1204.67 317.335 1239Z" fill="url(#paint39_linear_435_1322)"/>
<path d="M1903.69 741.989C1864.54 747.444 1830.85 771.187 1811.28 805.198C1811.92 782.096 1811.92 758.994 1811.28 736.214C1830.85 736.855 1851.71 729.155 1865.51 715.358C1882.51 698.352 1887.97 673.967 1892.78 651.186C1893.1 649.582 1891.82 647.657 1890.21 647.657C1866.47 647.015 1849.78 662.416 1833.42 678.138C1824.44 686.48 1816.41 695.785 1810.32 705.732C1809.68 692.577 1809.03 679.742 1808.07 666.908C1807.75 662.416 1807.43 657.924 1807.11 653.432C1826.36 649.903 1846.9 640.598 1861.33 627.443C1875.77 614.287 1880.59 596.319 1884.44 578.03C1884.76 576.105 1882.83 574.822 1881.23 574.822C1859.41 576.105 1841.12 588.619 1825.72 603.057C1817.7 610.437 1810 619.421 1805.18 629.368C1803.58 611.079 1801.33 592.79 1798.77 574.501C1799.09 574.18 1799.09 573.859 1799.09 573.538V573.217C1817.7 572.255 1835.67 558.458 1846.9 544.661C1861.33 527.014 1868.39 504.233 1871.92 482.094C1872.56 478.243 1866.79 477.602 1866.15 481.131C1831.17 483.377 1804.86 526.051 1796.84 559.741C1793.63 539.207 1790.1 518.672 1785.93 498.458C1820.26 476.96 1849.78 445.837 1850.43 404.125L1849.78 396.745L1846.25 397.066C1827 399.954 1812.24 418.885 1802.62 434.286C1793.31 449.045 1786.57 465.73 1782.72 482.735C1778.23 462.842 1773.1 442.949 1767.32 423.377C1775.02 407.655 1781.44 389.366 1781.76 372.039C1781.76 353.109 1771.81 337.066 1761.55 321.665C1761.55 321.344 1761.22 321.344 1761.22 321.344L1756.73 326.157L1755.45 328.082C1736.84 357.601 1745.82 398.671 1759.3 428.51C1763.15 446.799 1767 464.767 1770.85 483.056C1749.03 457.388 1714.06 436.211 1680.37 435.89C1680.05 435.569 1679.4 435.569 1679.08 435.89C1678.76 435.89 1678.76 435.89 1678.44 435.89C1677.16 435.89 1677.16 437.815 1678.12 438.136C1680.69 447.762 1686.14 456.425 1692.56 464.126C1698.98 471.826 1707 478.564 1715.02 484.019C1723.04 489.794 1732.35 494.928 1741.65 498.458C1751.92 502.308 1761.87 500.704 1772.46 501.987C1773.42 501.987 1774.06 501.987 1774.7 501.345C1778.23 518.992 1781.12 536.961 1784.01 554.929C1762.83 525.73 1724.97 510.008 1689.67 511.613C1687.75 511.613 1686.46 514.18 1687.43 515.784C1705.39 549.474 1746.14 589.581 1788.18 580.597C1791.07 600.49 1793.63 620.704 1795.24 640.919C1772.45 612.041 1740.69 591.506 1702.19 595.357C1700.58 595.678 1699.62 597.282 1699.62 598.886C1700.9 617.817 1711.49 630.972 1728.18 638.993C1748.39 648.94 1774.06 659.849 1796.84 662.095C1796.84 662.737 1796.84 663.058 1796.84 663.7C1798.12 681.347 1798.77 698.994 1798.77 716.32C1789.14 701.882 1775.02 690.652 1759.3 682.951C1747.75 677.496 1735.56 673.646 1723.36 670.758C1716.62 669.154 1701.22 663.058 1695.77 670.758C1687.1 682.951 1716.95 706.374 1725.29 712.149C1747.11 727.55 1773.1 732.684 1799.09 734.288C1799.09 757.069 1798.44 779.85 1797.48 802.631C1779.19 765.732 1736.84 733.326 1696.09 749.69C1694.48 750.331 1693.52 752.256 1694.48 753.861C1704.11 774.075 1721.76 786.588 1740.37 798.139C1757.05 808.727 1776.31 821.562 1796.84 821.883C1794.92 855.894 1792.67 889.905 1790.42 924.237C1790.1 930.654 1798.77 931.616 1800.05 925.52C1806.47 891.188 1810.32 855.573 1811.6 819.958C1855.88 819.316 1906.9 796.214 1907.54 745.839C1906.9 743.593 1905.61 741.989 1903.69 741.989Z" fill="url(#paint40_linear_435_1322)"/>
<path d="M1862.94 787.232C1851.71 774.398 1858.77 764.451 1856.84 758.676C1838.23 769.906 1822.51 785.949 1811.6 805.2L1810.96 819.639C1834.38 819.318 1859.41 812.58 1878.02 799.104C1872.88 796.216 1867.75 792.687 1862.94 787.232Z" fill="url(#paint41_linear_435_1322)"/>
<path d="M1783.36 482.418C1783.36 487.23 1782.72 493.648 1785.93 497.819C1798.77 489.797 1810.96 480.172 1820.91 469.583C1820.58 468.941 1819.94 468.3 1819.3 467.658C1817.05 466.054 1813.85 467.016 1811.28 466.054C1802.62 463.166 1805.82 454.182 1803.58 447.765C1802.62 444.877 1800.37 442.31 1797.8 441.348C1791.71 452.578 1786.89 464.449 1783.68 476.642C1783.36 478.246 1783.36 480.492 1783.36 482.418Z" fill="url(#paint42_linear_435_1322)"/>
<path d="M1757.7 425.945C1758.66 426.266 1759.62 426.907 1760.58 426.907C1763.15 427.549 1765.4 426.907 1767.32 425.945C1767 424.982 1766.68 423.699 1766.36 422.736C1774.06 407.014 1780.48 388.725 1780.8 371.399C1780.8 369.795 1780.8 368.19 1780.48 366.586C1776.31 368.19 1773.42 373.645 1769.89 376.533C1761.22 382.629 1753.2 371.399 1744.22 369.795C1744.54 389.046 1750.32 409.26 1757.7 425.945Z" fill="url(#paint43_linear_435_1322)"/>
<path d="M1735.23 480.811C1728.18 483.698 1722.4 485.303 1718.23 486.265C1725.29 490.757 1732.67 495.249 1740.37 498.137C1750.64 501.987 1760.58 500.383 1771.17 501.666C1772.13 501.666 1772.78 501.666 1773.42 501.025C1773.42 501.025 1772.13 492.362 1769.57 482.415C1763.15 474.714 1755.45 467.655 1747.11 461.238C1745.5 468.618 1742.94 477.602 1735.23 480.811Z" fill="url(#paint44_linear_435_1322)"/>
<path d="M1741.65 521.559C1741.01 526.692 1740.05 533.43 1737.8 542.735C1735.23 554.286 1729.46 559.099 1723.36 560.703C1741.97 575.784 1764.11 585.089 1786.89 580.276L1783.04 554.607C1772.78 539.848 1758.02 528.938 1741.65 521.559Z" fill="url(#paint45_linear_435_1322)"/>
<path d="M1746.14 632.898C1742.61 637.07 1738.76 639.957 1734.91 642.203C1753.84 650.866 1775.98 659.85 1795.88 661.776L1794.27 640.599C1781.76 624.556 1766.36 611.401 1748.71 603.059C1748.71 610.438 1753.84 622.952 1746.14 632.898Z" fill="url(#paint46_linear_435_1322)"/>
<path d="M1798.12 715.681C1788.5 701.242 1774.38 690.012 1758.66 682.312C1755.45 680.708 1752.24 679.424 1748.71 678.141C1748.71 682.954 1752.24 690.012 1753.52 698.034C1755.77 710.226 1744.86 715.039 1733.95 717.927C1753.52 728.836 1775.66 732.687 1798.12 733.97L1797.8 716.323C1798.12 717.927 1798.12 719.852 1798.12 715.681Z" fill="url(#paint47_linear_435_1322)"/>
<path d="M1755.77 756.75C1756.09 762.205 1758.34 770.868 1756.41 781.135C1754.81 790.119 1747.43 794.611 1740.05 798.141C1756.73 808.729 1775.66 821.243 1796.2 821.563L1797.16 802.312C1787.86 784.344 1773.1 767.338 1755.77 756.75Z" fill="url(#paint48_linear_435_1322)"/>
<path d="M1827 527.655C1824.43 518.992 1823.79 510.97 1823.15 505.516C1810 520.917 1800.37 541.452 1796.2 559.42L1798.77 573.217V572.896C1817.38 571.933 1835.34 558.136 1846.57 544.34C1847.22 543.698 1847.54 543.056 1848.18 542.414C1839.51 540.489 1830.21 537.601 1827 527.655Z" fill="url(#paint49_linear_435_1322)"/>
<path d="M1861.01 627.443C1861.98 626.801 1862.62 625.838 1863.58 625.197C1857.16 620.063 1846.57 619.1 1842.08 611.721C1838.23 605.624 1843.05 594.394 1844.65 587.656C1837.91 592.148 1831.49 597.282 1825.4 603.057C1817.38 610.437 1809.68 619.421 1804.86 629.368L1806.79 653.432C1826.04 649.903 1846.57 640.598 1861.01 627.443Z" fill="url(#paint50_linear_435_1322)"/>
<path d="M1865.51 715.36C1866.47 714.397 1867.43 713.435 1868.07 712.472C1864.86 708.622 1860.69 705.413 1857.48 702.204C1846.9 692.9 1855.56 672.044 1847.86 664.664C1842.72 668.835 1837.91 673.327 1833.1 678.14C1824.11 686.482 1816.09 695.466 1810 705.734L1811.28 736.215C1830.85 736.857 1851.71 729.157 1865.51 715.36Z" fill="url(#paint51_linear_435_1322)"/>
<path opacity="0.4" d="M1762.83 363.054C1762.19 353.107 1762.19 342.84 1760.26 333.214C1760.26 332.573 1759.3 332.893 1759.3 333.214C1758.66 344.123 1759.94 355.353 1760.9 366.263C1761.55 376.209 1762.19 386.156 1763.79 396.102C1763.79 397.065 1765.4 396.744 1765.08 395.782C1765.08 385.193 1763.79 374.284 1762.83 363.054Z" fill="url(#paint52_linear_435_1322)"/>
<path opacity="0.4" d="M1841.12 408.294C1831.49 419.203 1823.79 432.038 1816.41 444.23C1808.39 457.385 1799.41 470.541 1793.31 484.658C1792.99 485.621 1794.27 486.263 1794.6 485.621C1802.62 472.787 1809.03 459.31 1817.06 446.476C1825.08 433.642 1834.38 421.77 1842.08 408.936C1842.72 408.615 1841.76 407.652 1841.12 408.294Z" fill="url(#paint53_linear_435_1322)"/>
<path opacity="0.4" d="M1859.73 489.152C1849.46 496.852 1840.8 508.082 1833.42 518.35C1825.4 529.259 1816.41 541.772 1812.24 554.607C1811.92 555.569 1813.2 555.89 1813.85 555.249C1821.55 544.339 1827.32 531.826 1835.34 520.917C1843.37 510.008 1852.99 500.703 1861.01 490.114C1861.01 489.473 1860.05 488.831 1859.73 489.152Z" fill="url(#paint54_linear_435_1322)"/>
<path opacity="0.4" d="M1752.56 482.093C1734.59 467.333 1711.17 459.312 1693.52 444.231C1692.88 443.91 1692.24 444.231 1692.56 444.873C1696.73 453.536 1708.6 458.349 1716.3 462.841C1727.53 469.9 1739.09 478.563 1751.28 483.697C1752.24 484.339 1753.85 482.734 1752.56 482.093Z" fill="url(#paint55_linear_435_1322)"/>
<path opacity="0.4" d="M1774.7 558.136C1766.04 548.189 1753.84 541.131 1742.29 535.355C1729.46 528.938 1716.3 522.521 1702.83 517.387C1702.19 517.066 1701.54 518.35 1702.19 518.67C1714.38 525.408 1727.53 530.542 1739.73 536.638C1752.24 543.056 1762.83 550.435 1773.42 559.419C1774.38 560.382 1775.66 559.099 1774.7 558.136Z" fill="url(#paint56_linear_435_1322)"/>
<path opacity="0.4" d="M1871.92 586.051C1857.16 604.34 1838.23 618.779 1823.47 637.388C1822.83 638.03 1823.79 638.993 1824.43 638.351C1833.42 629.367 1842.08 619.741 1851.39 610.757C1859.09 603.377 1868.39 596.639 1873.21 587.014C1873.53 586.051 1872.56 585.088 1871.92 586.051Z" fill="url(#paint57_linear_435_1322)"/>
<path opacity="0.4" d="M1777.91 637.707C1774.38 634.499 1770.21 632.895 1765.4 631.29C1758.02 628.723 1751.28 625.515 1744.54 621.665C1733.31 615.247 1723.04 609.472 1711.17 605.301C1710.85 605.301 1710.53 605.622 1711.17 605.942C1723.04 610.755 1733.31 618.777 1744.54 625.194C1754.81 630.969 1766.36 633.857 1776.31 639.633C1777.59 640.595 1778.87 638.67 1777.91 637.707Z" fill="url(#paint58_linear_435_1322)"/>
<path opacity="0.4" d="M1878.02 656.638C1869.36 664.018 1861.66 673.323 1853.95 681.665C1846.9 689.687 1839.2 698.029 1834.38 707.655C1833.74 708.617 1835.34 709.901 1835.99 708.938C1843.69 699.954 1850.1 690.329 1858.13 681.665C1865.18 673.965 1873.21 666.264 1879.3 657.922C1879.94 656.638 1878.66 655.997 1878.02 656.638Z" fill="url(#paint59_linear_435_1322)"/>
<path opacity="0.4" d="M1777.91 705.089C1771.81 702.843 1766.04 701.239 1760.26 698.672C1754.81 696.105 1749.99 692.576 1744.54 689.688C1734.91 684.233 1724.33 681.666 1714.38 676.533C1714.06 676.212 1713.74 676.854 1714.06 677.174C1723.04 685.196 1735.56 687.763 1745.82 693.859C1755.77 699.955 1765.72 706.052 1777.59 707.656C1778.87 707.656 1778.87 705.731 1777.91 705.089Z" fill="url(#paint60_linear_435_1322)"/>
<path opacity="0.4" d="M1776.95 793.002C1767 784.66 1755.45 777.922 1744.54 770.863C1734.91 764.446 1724.97 757.066 1713.1 754.82C1712.45 754.82 1712.45 755.462 1712.77 755.783C1735.88 764.767 1754.17 782.735 1775.98 794.286C1776.95 794.928 1777.91 793.644 1776.95 793.002Z" fill="url(#paint61_linear_435_1322)"/>
<path d="M1915.88 737.497C1836.31 733.326 1773.1 799.102 1755.45 872.899C1753.52 881.241 1751.92 889.905 1751.28 898.568C1737.16 896.001 1722.72 896.001 1708.92 898.247C1686.46 901.776 1664.97 911.723 1647.32 926.482C1616.51 952.472 1601.75 992.579 1605.93 1032.37C1608.17 1053.54 1615.55 1073.76 1627.42 1091.08C1585.07 1086.27 1541.43 1104.56 1515.76 1139.21C1494.59 1167.77 1488.81 1205.31 1497.79 1239.32H1930V739.101C1925.19 738.139 1920.37 737.818 1915.88 737.497Z" fill="url(#paint62_linear_435_1322)"/>
<path d="M1929.68 1055.15V1239.32H1497.47C1488.81 1205.31 1494.59 1167.45 1515.44 1139.21C1540.79 1104.88 1584.75 1086.27 1627.1 1091.08C1614.91 1073.76 1607.53 1053.54 1605.61 1032.36C1601.43 992.578 1616.19 952.471 1647 926.482C1664.64 911.722 1686.14 901.776 1708.6 898.246C1717.27 949.583 1757.7 1095.57 1929.68 1055.15Z" fill="url(#paint63_linear_435_1322)"/>
</g>
<defs>
<linearGradient id="paint0_linear_435_1322" x1="1509.52" y1="-47.5702" x2="1515.17" y2="1240.95" gradientUnits="userSpaceOnUse">
<stop offset="0.1159" stop-color="#BEEAE7"/>
<stop offset="0.2068" stop-color="#D0F0EE"/>
<stop offset="0.3488" stop-color="#E5F7F5"/>
<stop offset="0.5076" stop-color="#F4FBFB"/>
<stop offset="0.6953" stop-color="#FCFEFE"/>
<stop offset="0.9842" stop-color="white"/>
</linearGradient>
<linearGradient id="paint1_linear_435_1322" x1="1323.51" y1="376.841" x2="1278.35" y2="807.418" gradientUnits="userSpaceOnUse">
<stop stop-color="#B9EAE6"/>
<stop offset="0.1" stop-color="#C8EFEC"/>
<stop offset="0.2955" stop-color="#E0F6F4"/>
<stop offset="0.5025" stop-color="#F2FBFA"/>
<stop offset="0.7268" stop-color="#FCFEFE"/>
<stop offset="1" stop-color="white"/>
</linearGradient>
<linearGradient id="paint2_linear_435_1322" x1="1433.71" y1="386.956" x2="1388.51" y2="817.87" gradientUnits="userSpaceOnUse">
<stop stop-color="#B9EAE6"/>
<stop offset="0.1" stop-color="#C8EFEC"/>
<stop offset="0.2955" stop-color="#E0F6F4"/>
<stop offset="0.5025" stop-color="#F2FBFA"/>
<stop offset="0.7268" stop-color="#FCFEFE"/>
<stop offset="1" stop-color="white"/>
</linearGradient>
<linearGradient id="paint3_linear_435_1322" x1="1553.98" y1="398.524" x2="1508.83" y2="828.94" gradientUnits="userSpaceOnUse">
<stop stop-color="#B9EAE6"/>
<stop offset="0.1" stop-color="#C8EFEC"/>
<stop offset="0.2955" stop-color="#E0F6F4"/>
<stop offset="0.5025" stop-color="#F2FBFA"/>
<stop offset="0.7268" stop-color="#FCFEFE"/>
<stop offset="1" stop-color="white"/>
</linearGradient>
<linearGradient id="paint4_linear_435_1322" x1="1763.21" y1="418.336" x2="1717.96" y2="849.719" gradientUnits="userSpaceOnUse">
<stop stop-color="#B9EAE6"/>
<stop offset="0.1" stop-color="#C8EFEC"/>
<stop offset="0.2955" stop-color="#E0F6F4"/>
<stop offset="0.5025" stop-color="#F2FBFA"/>
<stop offset="0.7268" stop-color="#FCFEFE"/>
<stop offset="1" stop-color="white"/>
</linearGradient>
<linearGradient id="paint5_linear_435_1322" x1="1375.97" y1="640.852" x2="1365.87" y2="1249.8" gradientUnits="userSpaceOnUse">
<stop stop-color="#B9EAE6"/>
<stop offset="0.1" stop-color="#C8EFEC"/>
<stop offset="0.2955" stop-color="#E0F6F4"/>
<stop offset="0.5025" stop-color="#F2FBFA"/>
<stop offset="0.7268" stop-color="#FCFEFE"/>
<stop offset="1" stop-color="white"/>
</linearGradient>
<linearGradient id="paint6_linear_435_1322" x1="408.108" y1="1202.29" x2="584.893" y2="628.51" gradientUnits="userSpaceOnUse">
<stop offset="0.2972" stop-color="#216A7A"/>
<stop offset="0.3559" stop-color="#25717B"/>
<stop offset="0.8315" stop-color="#47AB87"/>
</linearGradient>
<linearGradient id="paint7_linear_435_1322" x1="396.496" y1="1148.24" x2="416.928" y2="1056.07" gradientUnits="userSpaceOnUse">
<stop offset="0.2997" stop-color="#163C51"/>
<stop offset="1" stop-color="#163C51" stop-opacity="0"/>
</linearGradient>
<linearGradient id="paint8_linear_435_1322" x1="481.336" y1="869.756" x2="494.443" y2="827.216" gradientUnits="userSpaceOnUse">
<stop offset="0.2997" stop-color="#163C51"/>
<stop offset="1" stop-color="#163C51" stop-opacity="0"/>
</linearGradient>
<linearGradient id="paint9_linear_435_1322" x1="516.513" y1="847.788" x2="537.238" y2="754.305" gradientUnits="userSpaceOnUse">
<stop offset="0.2997" stop-color="#163C51"/>
<stop offset="1" stop-color="#163C51" stop-opacity="0"/>
</linearGradient>
<linearGradient id="paint10_linear_435_1322" x1="522.282" y1="902.251" x2="536.537" y2="837.952" gradientUnits="userSpaceOnUse">
<stop offset="0.2997" stop-color="#163C51"/>
<stop offset="1" stop-color="#163C51" stop-opacity="0"/>
</linearGradient>
<linearGradient id="paint11_linear_435_1322" x1="501.28" y1="973.63" x2="522.52" y2="877.82" gradientUnits="userSpaceOnUse">
<stop offset="0.2997" stop-color="#163C51"/>
<stop offset="1" stop-color="#163C51" stop-opacity="0"/>
</linearGradient>
<linearGradient id="paint12_linear_435_1322" x1="481.693" y1="1036.15" x2="502.628" y2="941.715" gradientUnits="userSpaceOnUse">
<stop offset="0.2997" stop-color="#163C51"/>
<stop offset="1" stop-color="#163C51" stop-opacity="0"/>
</linearGradient>
<linearGradient id="paint13_linear_435_1322" x1="470.672" y1="1092.64" x2="490.679" y2="1002.39" gradientUnits="userSpaceOnUse">
<stop offset="0.2997" stop-color="#163C51"/>
<stop offset="1" stop-color="#163C51" stop-opacity="0"/>
</linearGradient>
<linearGradient id="paint14_linear_435_1322" x1="490.426" y1="1113.47" x2="444.945" y2="1105.26" gradientUnits="userSpaceOnUse">
<stop offset="0.2997" stop-color="#163C51"/>
<stop offset="1" stop-color="#163C51" stop-opacity="0"/>
</linearGradient>
<linearGradient id="paint15_linear_435_1322" x1="448.433" y1="958.603" x2="471.614" y2="854.04" gradientUnits="userSpaceOnUse">
<stop offset="0.2997" stop-color="#163C51"/>
<stop offset="1" stop-color="#163C51" stop-opacity="0"/>
</linearGradient>
<linearGradient id="paint16_linear_435_1322" x1="427.547" y1="1019.4" x2="449.756" y2="919.219" gradientUnits="userSpaceOnUse">
<stop offset="0.2997" stop-color="#163C51"/>
<stop offset="1" stop-color="#163C51" stop-opacity="0"/>
</linearGradient>
<linearGradient id="paint17_linear_435_1322" x1="410.931" y1="1087.76" x2="435.289" y2="977.883" gradientUnits="userSpaceOnUse">
<stop offset="0.2997" stop-color="#163C51"/>
<stop offset="1" stop-color="#163C51" stop-opacity="0"/>
</linearGradient>
<linearGradient id="paint18_linear_435_1322" x1="535.935" y1="771.929" x2="531.151" y2="771.066" gradientUnits="userSpaceOnUse">
<stop offset="0.0746321" stop-color="#D0EAE8"/>
<stop offset="0.2404" stop-color="#E5F3F2"/>
<stop offset="0.4259" stop-color="#F4FAF9"/>
<stop offset="0.6458" stop-color="#FCFEFE"/>
<stop offset="0.9842" stop-color="white"/>
</linearGradient>
<linearGradient id="paint19_linear_435_1322" x1="497.038" y1="832.583" x2="457.684" y2="825.485" gradientUnits="userSpaceOnUse">
<stop offset="0.0746321" stop-color="#D0EAE8"/>
<stop offset="0.2404" stop-color="#E5F3F2"/>
<stop offset="0.4259" stop-color="#F4FAF9"/>
<stop offset="0.6458" stop-color="#FCFEFE"/>
<stop offset="0.9842" stop-color="white"/>
</linearGradient>
<linearGradient id="paint20_linear_435_1322" x1="471.23" y1="890.043" x2="432.206" y2="883.004" gradientUnits="userSpaceOnUse">
<stop offset="0.0746321" stop-color="#D0EAE8"/>
<stop offset="0.2404" stop-color="#E5F3F2"/>
<stop offset="0.4259" stop-color="#F4FAF9"/>
<stop offset="0.6458" stop-color="#FCFEFE"/>
<stop offset="0.9842" stop-color="white"/>
</linearGradient>
<linearGradient id="paint21_linear_435_1322" x1="574.932" y1="860.495" x2="526.703" y2="851.796" gradientUnits="userSpaceOnUse">
<stop offset="0.0746321" stop-color="#D0EAE8"/>
<stop offset="0.2404" stop-color="#E5F3F2"/>
<stop offset="0.4259" stop-color="#F4FAF9"/>
<stop offset="0.6458" stop-color="#FCFEFE"/>
<stop offset="0.9842" stop-color="white"/>
</linearGradient>
<linearGradient id="paint22_linear_435_1322" x1="556.844" y1="918.747" x2="498.313" y2="908.19" gradientUnits="userSpaceOnUse">
<stop offset="0.0746321" stop-color="#D0EAE8"/>
<stop offset="0.2404" stop-color="#E5F3F2"/>
<stop offset="0.4259" stop-color="#F4FAF9"/>
<stop offset="0.6458" stop-color="#FCFEFE"/>
<stop offset="0.9842" stop-color="white"/>
</linearGradient>
<linearGradient id="paint23_linear_435_1322" x1="449.171" y1="960.028" x2="409.311" y2="952.838" gradientUnits="userSpaceOnUse">
<stop offset="0.0746321" stop-color="#D0EAE8"/>
<stop offset="0.2404" stop-color="#E5F3F2"/>
<stop offset="0.4259" stop-color="#F4FAF9"/>
<stop offset="0.6458" stop-color="#FCFEFE"/>
<stop offset="0.9842" stop-color="white"/>
</linearGradient>
<linearGradient id="paint24_linear_435_1322" x1="537.458" y1="984.713" x2="483.639" y2="975.005" gradientUnits="userSpaceOnUse">
<stop offset="0.0746321" stop-color="#D0EAE8"/>
<stop offset="0.2404" stop-color="#E5F3F2"/>
<stop offset="0.4259" stop-color="#F4FAF9"/>
<stop offset="0.6458" stop-color="#FCFEFE"/>
<stop offset="0.9842" stop-color="white"/>
</linearGradient>
<linearGradient id="paint25_linear_435_1322" x1="430.155" y1="1014.85" x2="394.043" y2="1008.33" gradientUnits="userSpaceOnUse">
<stop offset="0.0746321" stop-color="#D0EAE8"/>
<stop offset="0.2404" stop-color="#E5F3F2"/>
<stop offset="0.4259" stop-color="#F4FAF9"/>
<stop offset="0.6458" stop-color="#FCFEFE"/>
<stop offset="0.9842" stop-color="white"/>
</linearGradient>
<linearGradient id="paint26_linear_435_1322" x1="524.989" y1="1039.46" x2="473.384" y2="1030.15" gradientUnits="userSpaceOnUse">
<stop offset="0.0746321" stop-color="#D0EAE8"/>
<stop offset="0.2404" stop-color="#E5F3F2"/>
<stop offset="0.4259" stop-color="#F4FAF9"/>
<stop offset="0.6458" stop-color="#FCFEFE"/>
<stop offset="0.9842" stop-color="white"/>
</linearGradient>
<linearGradient id="paint27_linear_435_1322" x1="514.163" y1="1105.88" x2="462.471" y2="1096.55" gradientUnits="userSpaceOnUse">
<stop offset="0.0746321" stop-color="#D0EAE8"/>
<stop offset="0.2404" stop-color="#E5F3F2"/>
<stop offset="0.4259" stop-color="#F4FAF9"/>
<stop offset="0.6458" stop-color="#FCFEFE"/>
<stop offset="0.9842" stop-color="white"/>
</linearGradient>
<linearGradient id="paint28_linear_435_1322" x1="823.403" y1="814.248" x2="1929.68" y2="814.248" gradientUnits="userSpaceOnUse">
<stop offset="0.2997" stop-color="#163C51"/>
<stop offset="1" stop-color="#163C51" stop-opacity="0"/>
</linearGradient>
<linearGradient id="paint29_linear_435_1322" x1="774.78" y1="609.207" x2="1410.66" y2="1446.97" gradientUnits="userSpaceOnUse">
<stop offset="0.2997" stop-color="#163C51"/>
<stop offset="1" stop-color="#163C51" stop-opacity="0"/>
</linearGradient>
<linearGradient id="paint30_linear_435_1322" x1="1020.53" y1="1325.87" x2="1013.8" y2="1076.91" gradientUnits="userSpaceOnUse">
<stop offset="0.122" stop-color="#216A7A"/>
<stop offset="0.1999" stop-color="#25717B"/>
<stop offset="0.8315" stop-color="#47AB87"/>
</linearGradient>
<linearGradient id="paint31_linear_435_1322" x1="1020.39" y1="1320.66" x2="1014.17" y2="1090.43" gradientUnits="userSpaceOnUse">
<stop offset="0.2997" stop-color="#163C51"/>
<stop offset="1" stop-color="#163C51" stop-opacity="0"/>
</linearGradient>
<linearGradient id="paint32_linear_435_1322" x1="477.401" y1="919.127" x2="242.945" y2="998.576" gradientUnits="userSpaceOnUse">
<stop offset="0.2047" stop-color="#6EE383"/>
<stop offset="0.2645" stop-color="#68DB84"/>
<stop offset="0.4825" stop-color="#56C085"/>
<stop offset="0.6783" stop-color="#4BB187"/>
<stop offset="0.8315" stop-color="#47AB87"/>
</linearGradient>
<linearGradient id="paint33_linear_435_1322" x1="290.158" y1="1072.09" x2="396.353" y2="918.585" gradientUnits="userSpaceOnUse">
<stop offset="0.2997" stop-color="#163C51"/>
<stop offset="1" stop-color="#163C51" stop-opacity="0"/>
</linearGradient>
<linearGradient id="paint34_linear_435_1322" x1="351.921" y1="795.185" x2="176.158" y2="969.506" gradientUnits="userSpaceOnUse">
<stop offset="0.2047" stop-color="#6EE383"/>
<stop offset="0.2645" stop-color="#68DB84"/>
<stop offset="0.4825" stop-color="#56C085"/>
<stop offset="0.6783" stop-color="#4BB187"/>
<stop offset="0.8315" stop-color="#47AB87"/>
</linearGradient>
<linearGradient id="paint35_linear_435_1322" x1="250.854" y1="1014.83" x2="278.868" y2="830.284" gradientUnits="userSpaceOnUse">
<stop offset="0.2997" stop-color="#163C51"/>
<stop offset="1" stop-color="#163C51" stop-opacity="0"/>
</linearGradient>
<linearGradient id="paint36_linear_435_1322" x1="540.106" y1="1075.56" x2="214.77" y2="1206.01" gradientUnits="userSpaceOnUse">
<stop offset="0.2047" stop-color="#6EE383"/>
<stop offset="0.2645" stop-color="#68DB84"/>
<stop offset="0.4825" stop-color="#56C085"/>
<stop offset="0.6783" stop-color="#4BB187"/>
<stop offset="0.8315" stop-color="#47AB87"/>
</linearGradient>
<linearGradient id="paint37_linear_435_1322" x1="293.431" y1="1190.39" x2="461.498" y2="1111.72" gradientUnits="userSpaceOnUse">
<stop offset="0.2997" stop-color="#163C51"/>
<stop offset="1" stop-color="#163C51" stop-opacity="0"/>
</linearGradient>
<linearGradient id="paint38_linear_435_1322" x1="450.683" y1="889.223" x2="11.075" y2="1234.64" gradientUnits="userSpaceOnUse">
<stop offset="0.2047" stop-color="#6EE383"/>
<stop offset="0.2645" stop-color="#68DB84"/>
<stop offset="0.4825" stop-color="#56C085"/>
<stop offset="0.6783" stop-color="#4BB187"/>
<stop offset="0.8315" stop-color="#47AB87"/>
</linearGradient>
<linearGradient id="paint39_linear_435_1322" x1="1.19972" y1="1195.58" x2="238.947" y2="1013.9" gradientUnits="userSpaceOnUse">
<stop offset="0.2997" stop-color="#163C51"/>
<stop offset="1" stop-color="#163C51" stop-opacity="0"/>
</linearGradient>
<linearGradient id="paint40_linear_435_1322" x1="1820.14" y1="914.841" x2="1731.25" y2="180.363" gradientUnits="userSpaceOnUse">
<stop offset="0.2972" stop-color="#216A7A"/>
<stop offset="0.3559" stop-color="#25717B"/>
<stop offset="0.8315" stop-color="#47AB87"/>
</linearGradient>
<linearGradient id="paint41_linear_435_1322" x1="1846.04" y1="851.833" x2="1841.42" y2="735.6" gradientUnits="userSpaceOnUse">
<stop offset="0.2997" stop-color="#163C51"/>
<stop offset="1" stop-color="#163C51" stop-opacity="0"/>
</linearGradient>
<linearGradient id="paint42_linear_435_1322" x1="1804.08" y1="495.566" x2="1797.49" y2="441.112" gradientUnits="userSpaceOnUse">
<stop offset="0.2997" stop-color="#163C51"/>
<stop offset="1" stop-color="#163C51" stop-opacity="0"/>
</linearGradient>
<linearGradient id="paint43_linear_435_1322" x1="1766.23" y1="461.23" x2="1761.55" y2="343.334" gradientUnits="userSpaceOnUse">
<stop offset="0.2997" stop-color="#163C51"/>
<stop offset="1" stop-color="#163C51" stop-opacity="0"/>
</linearGradient>
<linearGradient id="paint44_linear_435_1322" x1="1747.32" y1="526.014" x2="1744.09" y2="444.92" gradientUnits="userSpaceOnUse">
<stop offset="0.2997" stop-color="#163C51"/>
<stop offset="1" stop-color="#163C51" stop-opacity="0"/>
</linearGradient>
<linearGradient id="paint45_linear_435_1322" x1="1757.17" y1="617.169" x2="1752.37" y2="496.334" gradientUnits="userSpaceOnUse">
<stop offset="0.2997" stop-color="#163C51"/>
<stop offset="1" stop-color="#163C51" stop-opacity="0"/>
</linearGradient>
<linearGradient id="paint46_linear_435_1322" x1="1767.24" y1="697.276" x2="1762.51" y2="578.17" gradientUnits="userSpaceOnUse">
<stop offset="0.2997" stop-color="#163C51"/>
<stop offset="1" stop-color="#163C51" stop-opacity="0"/>
</linearGradient>
<linearGradient id="paint47_linear_435_1322" x1="1768.25" y1="768.189" x2="1763.73" y2="654.369" gradientUnits="userSpaceOnUse">
<stop offset="0.2997" stop-color="#163C51"/>
<stop offset="1" stop-color="#163C51" stop-opacity="0"/>
</linearGradient>
<linearGradient id="paint48_linear_435_1322" x1="1739.74" y1="789.119" x2="1796.69" y2="789.119" gradientUnits="userSpaceOnUse">
<stop offset="0.2997" stop-color="#163C51"/>
<stop offset="1" stop-color="#163C51" stop-opacity="0"/>
</linearGradient>
<linearGradient id="paint49_linear_435_1322" x1="1824.54" y1="610.501" x2="1819.3" y2="478.631" gradientUnits="userSpaceOnUse">
<stop offset="0.2997" stop-color="#163C51"/>
<stop offset="1" stop-color="#163C51" stop-opacity="0"/>
</linearGradient>
<linearGradient id="paint50_linear_435_1322" x1="1836.57" y1="688.799" x2="1831.55" y2="562.457" gradientUnits="userSpaceOnUse">
<stop offset="0.2997" stop-color="#163C51"/>
<stop offset="1" stop-color="#163C51" stop-opacity="0"/>
</linearGradient>
<linearGradient id="paint51_linear_435_1322" x1="1841.77" y1="775.336" x2="1836.26" y2="636.766" gradientUnits="userSpaceOnUse">
<stop offset="0.2997" stop-color="#163C51"/>
<stop offset="1" stop-color="#163C51" stop-opacity="0"/>
</linearGradient>
<linearGradient id="paint52_linear_435_1322" x1="1759.27" y1="364.99" x2="1765.26" y2="364.99" gradientUnits="userSpaceOnUse">
<stop offset="0.0746321" stop-color="#D0EAE8"/>
<stop offset="0.2404" stop-color="#E5F3F2"/>
<stop offset="0.4259" stop-color="#F4FAF9"/>
<stop offset="0.6458" stop-color="#FCFEFE"/>
<stop offset="0.9842" stop-color="white"/>
</linearGradient>
<linearGradient id="paint53_linear_435_1322" x1="1793.17" y1="447.051" x2="1842.45" y2="447.051" gradientUnits="userSpaceOnUse">
<stop offset="0.0746321" stop-color="#D0EAE8"/>
<stop offset="0.2404" stop-color="#E5F3F2"/>
<stop offset="0.4259" stop-color="#F4FAF9"/>
<stop offset="0.6458" stop-color="#FCFEFE"/>
<stop offset="0.9842" stop-color="white"/>
</linearGradient>
<linearGradient id="paint54_linear_435_1322" x1="1811.89" y1="522.382" x2="1860.76" y2="522.382" gradientUnits="userSpaceOnUse">
<stop offset="0.0746321" stop-color="#D0EAE8"/>
<stop offset="0.2404" stop-color="#E5F3F2"/>
<stop offset="0.4259" stop-color="#F4FAF9"/>
<stop offset="0.6458" stop-color="#FCFEFE"/>
<stop offset="0.9842" stop-color="white"/>
</linearGradient>
<linearGradient id="paint55_linear_435_1322" x1="1692.61" y1="463.862" x2="1752.99" y2="463.862" gradientUnits="userSpaceOnUse">
<stop offset="0.0746321" stop-color="#D0EAE8"/>
<stop offset="0.2404" stop-color="#E5F3F2"/>
<stop offset="0.4259" stop-color="#F4FAF9"/>
<stop offset="0.6458" stop-color="#FCFEFE"/>
<stop offset="0.9842" stop-color="white"/>
</linearGradient>
<linearGradient id="paint56_linear_435_1322" x1="1701.8" y1="538.458" x2="1775.08" y2="538.458" gradientUnits="userSpaceOnUse">
<stop offset="0.0746321" stop-color="#D0EAE8"/>
<stop offset="0.2404" stop-color="#E5F3F2"/>
<stop offset="0.4259" stop-color="#F4FAF9"/>
<stop offset="0.6458" stop-color="#FCFEFE"/>
<stop offset="0.9842" stop-color="white"/>
</linearGradient>
<linearGradient id="paint57_linear_435_1322" x1="1823.34" y1="612.074" x2="1873.25" y2="612.074" gradientUnits="userSpaceOnUse">
<stop offset="0.0746321" stop-color="#D0EAE8"/>
<stop offset="0.2404" stop-color="#E5F3F2"/>
<stop offset="0.4259" stop-color="#F4FAF9"/>
<stop offset="0.6458" stop-color="#FCFEFE"/>
<stop offset="0.9842" stop-color="white"/>
</linearGradient>
<linearGradient id="paint58_linear_435_1322" x1="1710.87" y1="622.693" x2="1778.26" y2="622.693" gradientUnits="userSpaceOnUse">
<stop offset="0.0746321" stop-color="#D0EAE8"/>
<stop offset="0.2404" stop-color="#E5F3F2"/>
<stop offset="0.4259" stop-color="#F4FAF9"/>
<stop offset="0.6458" stop-color="#FCFEFE"/>
<stop offset="0.9842" stop-color="white"/>
</linearGradient>
<linearGradient id="paint59_linear_435_1322" x1="1834.4" y1="682.711" x2="1879.62" y2="682.711" gradientUnits="userSpaceOnUse">
<stop offset="0.0746321" stop-color="#D0EAE8"/>
<stop offset="0.2404" stop-color="#E5F3F2"/>
<stop offset="0.4259" stop-color="#F4FAF9"/>
<stop offset="0.6458" stop-color="#FCFEFE"/>
<stop offset="0.9842" stop-color="white"/>
</linearGradient>
<linearGradient id="paint60_linear_435_1322" x1="1714.02" y1="691.817" x2="1778.63" y2="691.817" gradientUnits="userSpaceOnUse">
<stop offset="0.0746321" stop-color="#D0EAE8"/>
<stop offset="0.2404" stop-color="#E5F3F2"/>
<stop offset="0.4259" stop-color="#F4FAF9"/>
<stop offset="0.6458" stop-color="#FCFEFE"/>
<stop offset="0.9842" stop-color="white"/>
</linearGradient>
<linearGradient id="paint61_linear_435_1322" x1="1712.61" y1="774.724" x2="1777.34" y2="774.724" gradientUnits="userSpaceOnUse">
<stop offset="0.0746321" stop-color="#D0EAE8"/>
<stop offset="0.2404" stop-color="#E5F3F2"/>
<stop offset="0.4259" stop-color="#F4FAF9"/>
<stop offset="0.6458" stop-color="#FCFEFE"/>
<stop offset="0.9842" stop-color="white"/>
</linearGradient>
<linearGradient id="paint62_linear_435_1322" x1="1590.54" y1="827.006" x2="1873.15" y2="1199.33" gradientUnits="userSpaceOnUse">
<stop offset="0.2047" stop-color="#6EE383"/>
<stop offset="0.2645" stop-color="#68DB84"/>
<stop offset="0.4825" stop-color="#56C085"/>
<stop offset="0.6783" stop-color="#4BB187"/>
<stop offset="0.8315" stop-color="#47AB87"/>
</linearGradient>
<linearGradient id="paint63_linear_435_1322" x1="1805.66" y1="1214.77" x2="1466.98" y2="965.801" gradientUnits="userSpaceOnUse">
<stop offset="0.2997" stop-color="#163C51"/>
<stop offset="1" stop-color="#163C51" stop-opacity="0"/>
</linearGradient>
<clipPath id="clip0_435_1322">
<rect width="1930" height="1239" fill="white"/>
</clipPath>
</defs>
</svg>
