<svg width="726" height="371" viewBox="0 0 726 371" fill="none" xmlns="http://www.w3.org/2000/svg">
<path fill-rule="evenodd" clip-rule="evenodd" d="M726 368.077H2.14478C2.14478 368.077 96.4989 261.104 234.685 162.301C363.874 69.8809 531.128 -14.8801 694.921 2.22525C705.391 3.32185 715.752 4.47379 726 5.67658V368.077Z" fill="#5FC692"/>
<path opacity="0.2" fill-rule="evenodd" clip-rule="evenodd" d="M726 96.659C722.455 97.648 718.642 98.5971 714.53 99.4973C668.748 109.52 641.583 99.4585 613.908 89.2074C590.123 80.3976 565.961 71.448 529.282 74.9881C489.843 78.7944 463.737 102.084 439.184 123.988C414.331 146.16 391.07 166.912 357.184 164.6C289.821 160.004 366.642 80.0941 366.642 80.0941C468.84 26.4802 582.803 -9.51774 694.921 2.22627C705.388 3.32457 715.749 4.47838 726 5.68319V96.659Z" fill="white"/>
<path fill-rule="evenodd" clip-rule="evenodd" d="M726 370.596H-0.00012207C-0.00012207 370.596 115.281 241.82 254.69 148.523C256.036 185.287 261.823 234.534 324.873 234.79C374.031 234.923 403.804 222.842 431.48 211.612C456.736 201.363 480.246 191.824 515.147 192.92C544.901 193.751 581.228 206.748 619.715 220.518C654.463 232.951 690.973 246.014 726 251.323V370.596Z" fill="url(#paint0_linear_454_7584)"/>
<defs>
<linearGradient id="paint0_linear_454_7584" x1="340.713" y1="-139.432" x2="844.641" y2="461.325" gradientUnits="userSpaceOnUse">
<stop offset="0.2997" stop-color="#163C51"/>
<stop offset="1" stop-color="#163C51" stop-opacity="0"/>
</linearGradient>
</defs>
</svg>
