<svg width="56" height="34" viewBox="0 0 56 34" fill="none" xmlns="http://www.w3.org/2000/svg">
<path d="M2.71224 0.93762C2.74261 0.925806 2.77197 0.920795 2.7841 0.918766C2.80147 0.915859 2.82039 0.913507 2.83929 0.91151C2.8774 0.907488 2.92593 0.903831 2.98292 0.900404C3.09746 0.893518 3.25615 0.886978 3.45475 0.880726C3.85248 0.868206 4.41752 0.856609 5.1251 0.845921C6.54063 0.824528 8.53106 0.806686 10.9043 0.792366C15.6511 0.763718 21.9317 0.749126 28.2128 0.748417C34.494 0.747704 40.7762 0.760868 45.5262 0.787739C47.901 0.80117 49.8934 0.818035 51.3113 0.83831C52.0201 0.848446 52.5863 0.859447 52.9854 0.871334C53.1846 0.87727 53.3439 0.883476 53.459 0.890003C53.5162 0.893253 53.5649 0.896708 53.603 0.900488L53.6045 0.90064C53.6303 0.903194 53.6833 0.908436 53.7264 0.923838L53.7264 0.923805L53.7303 0.925266C54.3846 1.17146 55.0486 1.7075 55.4014 2.29378C55.4015 2.29395 55.4016 2.29412 55.4017 2.29428L55.6845 2.76031L55.7208 2.82008V2.89V16.9523V31.0147V31.0832L55.6859 31.1421L55.4026 31.6204L55.4009 31.6232C55.2065 31.9416 54.9051 32.2485 54.5778 32.4942C54.2513 32.7393 53.8796 32.938 53.5342 33.0225L53.5331 33.0227C53.499 33.0309 53.4552 33.034 53.4275 33.0359C53.391 33.0383 53.3438 33.0407 53.2871 33.0429C53.1735 33.0473 53.0159 33.0515 52.818 33.0556C52.4219 33.0637 51.8599 33.0712 51.1562 33.0782C49.7486 33.092 47.7713 33.1036 45.4147 33.1129C40.7011 33.1314 34.4682 33.1406 28.2354 33.1406C22.0026 33.1406 15.7697 33.1314 11.0562 33.1129C8.69947 33.1036 6.72223 33.092 5.31464 33.0782C4.61096 33.0712 4.04894 33.0637 3.65282 33.0556C3.45493 33.0515 3.2973 33.0473 3.18368 33.0429C3.12704 33.0407 3.07978 33.0383 3.04327 33.0359C3.01566 33.034 2.97177 33.0309 2.93775 33.0227L2.93775 33.0227L2.93658 33.0224C2.59124 32.938 2.21948 32.7393 1.89297 32.4942C1.56571 32.2485 1.26435 31.9416 1.06994 31.6232L1.06992 31.6232L1.06821 31.6203L0.784908 31.1421L0.75 31.0832V31.0147V16.9523V2.89V2.82008L0.786274 2.76031L1.06799 2.29611C1.06825 2.29566 1.06852 2.29521 1.06879 2.29476C1.4093 1.71859 2.07317 1.18356 2.71224 0.93762ZM2.71224 0.93762C2.71195 0.937733 2.71166 0.937847 2.71138 0.93796L2.80282 1.17064L2.71311 0.937288C2.71282 0.937399 2.71253 0.93751 2.71224 0.93762ZM53.418 3.2761L53.1564 3.07786L52.8628 2.85534H28.2354H3.60798L3.31439 3.07785L3.16338 2.87861L3.31439 3.07786L3.05282 3.2761V16.9523V30.6286L3.31439 30.8268L3.60798 31.0494H28.2354H52.8628L53.1564 30.8268L53.418 30.6286V16.9523V3.2761Z" fill="#163C51" stroke="#163C51" stroke-width="0.5"/>
<path d="M7.23288 6.80538L6.92383 7.02173V16.9508V26.8798L7.23288 27.0962C7.51618 27.3011 7.87675 27.3125 17.29 27.3125C26.9608 27.3125 27.051 27.3125 27.3858 27.0734L27.7206 26.8457V16.9508V7.05589L27.3858 6.82816C27.051 6.58904 26.9608 6.58904 17.29 6.58904C7.87675 6.58904 7.51618 6.60043 7.23288 6.80538ZM25.9178 16.9508V25.7184H17.29H8.66226V16.9508V8.18315H17.29H25.9178V16.9508Z" fill="#163C51"/>
<path d="M16.0403 10.5067C13.761 11.1671 12.4347 13.0231 12.7952 15.0613C12.9369 15.8015 13.3618 16.6213 13.864 17.0881C14.0443 17.2589 14.1988 17.4183 14.1988 17.4411C14.1988 17.4639 13.8254 17.703 13.3747 17.9649C11.4302 19.0694 10.0781 21.1645 10.0781 23.0661C10.0781 23.5329 10.1425 23.7151 10.3614 23.8973C10.6318 24.125 10.7735 24.125 17.3151 24.125H23.9984L24.3075 23.8403C24.4878 23.6923 24.6294 23.4418 24.6294 23.2824C24.6294 22.77 24.2689 21.3467 23.9984 20.7888C23.4447 19.6387 22.2343 18.4431 21.0496 17.8396L20.3799 17.498L20.7791 17.0881C21.0109 16.8604 21.3457 16.3936 21.526 16.0406C21.8093 15.5168 21.8608 15.2549 21.8608 14.3895C21.8608 13.5014 21.8093 13.285 21.5003 12.7157C21.0238 11.8503 20.161 11.0874 19.2467 10.7231C18.3711 10.3587 16.8902 10.2562 16.0403 10.5067ZM18.4483 12.1805C19.221 12.488 19.4656 12.6929 19.8133 13.3647C20.7019 15.0272 19.4013 16.849 17.3409 16.849C15.7055 16.849 14.5723 15.8356 14.5723 14.3781C14.5723 12.6132 16.6327 11.4518 18.4483 12.1805ZM19.6717 18.9897C20.161 19.206 20.8435 19.6273 21.1912 19.9348C21.7707 20.4472 22.4532 21.5061 22.6463 22.2121L22.7236 22.5309H17.3151H11.9067L12.0355 22.0982C12.4991 20.5952 13.8512 19.3085 15.5252 18.762C16.0532 18.6025 16.4781 18.557 17.4954 18.5798C18.6673 18.6025 18.8604 18.6367 19.6717 18.9897Z" fill="#163C51"/>
<path d="M34.7005 11.8631C34.3399 12.2047 34.3399 12.6374 34.7134 12.9448L35.0095 13.1953H41.8345H48.6723L48.9427 12.9334C49.3033 12.5918 49.3033 12.1591 48.9298 11.8517L48.6337 11.6012H41.8087H34.9709L34.7005 11.8631Z" fill="#163C51"/>
<path d="M34.7005 16.4178C34.3399 16.7594 34.3399 17.1921 34.7134 17.4995L35.0095 17.75H41.8345H48.6723L48.9427 17.4881C49.3033 17.1465 49.3033 16.7138 48.9298 16.4064L48.6337 16.1559H41.8087H34.9709L34.7005 16.4178Z" fill="#163C51"/>
<path d="M34.7005 20.9725C34.3399 21.3141 34.3399 21.7467 34.7134 22.0542L35.0095 22.3047H41.8345H48.6723L48.9427 22.0428C49.3033 21.7012 49.3033 21.2685 48.9298 20.9611L48.6337 20.7106H41.8087H34.9709L34.7005 20.9725Z" fill="#163C51"/>
</svg>
