<svg width="56" height="34" viewBox="0 0 56 34" fill="none" xmlns="http://www.w3.org/2000/svg">
<path d="M2.71224 0.939573C2.74261 0.927759 2.77197 0.922749 2.7841 0.920719C2.80147 0.917812 2.82039 0.915461 2.83929 0.913464C2.8774 0.909441 2.92593 0.905785 2.98292 0.902357C3.09746 0.895472 3.25615 0.888931 3.45475 0.882679C3.85248 0.870159 4.41752 0.858562 5.1251 0.847874C6.54063 0.826481 8.53106 0.80864 10.9043 0.794319C15.6511 0.765671 21.9317 0.75108 28.2128 0.75037C34.494 0.749657 40.7762 0.762821 45.5262 0.789692C47.901 0.803123 49.8934 0.819988 51.3113 0.840263C52.0201 0.850399 52.5863 0.861401 52.9854 0.873287C53.1846 0.879223 53.3439 0.885429 53.459 0.891956C53.5162 0.895206 53.5649 0.898661 53.603 0.902441L53.6045 0.902594C53.6303 0.905148 53.6833 0.910389 53.7264 0.925791L53.7264 0.925758L53.7303 0.927219C54.3846 1.17341 55.0486 1.70946 55.4014 2.29573C55.4015 2.2959 55.4016 2.29607 55.4017 2.29624L55.6845 2.76226L55.7208 2.82203V2.89195V16.9543V31.0166V31.0851L55.6859 31.1441L55.4026 31.6223L55.4009 31.6252C55.2065 31.9435 54.9051 32.2505 54.5778 32.4961C54.2513 32.7412 53.8796 32.9399 53.5342 33.0244L53.5331 33.0247C53.499 33.0328 53.4552 33.0359 53.4275 33.0378C53.391 33.0403 53.3438 33.0426 53.2871 33.0448C53.1735 33.0492 53.0159 33.0535 52.818 33.0575C52.4219 33.0656 51.8599 33.0732 51.1562 33.0801C49.7486 33.094 47.7713 33.1056 45.4147 33.1148C40.7011 33.1333 34.4682 33.1426 28.2354 33.1426C22.0026 33.1426 15.7697 33.1333 11.0562 33.1148C8.69947 33.1056 6.72223 33.094 5.31464 33.0801C4.61096 33.0732 4.04894 33.0656 3.65282 33.0575C3.45493 33.0535 3.2973 33.0492 3.18368 33.0448C3.12704 33.0426 3.07978 33.0403 3.04327 33.0378C3.01566 33.0359 2.97177 33.0328 2.93775 33.0247L2.93775 33.0247L2.93658 33.0244C2.59124 32.9399 2.21948 32.7412 1.89297 32.4961C1.56571 32.2505 1.26435 31.9435 1.06994 31.6252L1.06992 31.6252L1.06821 31.6223L0.784908 31.1441L0.75 31.0851V31.0166V16.9543V2.89195V2.82203L0.786274 2.76226L1.06799 2.29806C1.06825 2.29761 1.06852 2.29716 1.06879 2.29671C1.4093 1.72054 2.07317 1.18552 2.71224 0.939573ZM2.71224 0.939573C2.71195 0.939686 2.71166 0.9398 2.71138 0.939913L2.80282 1.17259L2.71311 0.939241C2.71282 0.939352 2.71253 0.939463 2.71224 0.939573ZM53.418 3.27806L53.1564 3.07981L52.8628 2.85729H28.2354H3.60798L3.31439 3.07981L3.16338 2.88057L3.31439 3.07981L3.05282 3.27806V16.9543V30.6305L3.31439 30.8288L3.60798 31.0513H28.2354H52.8628L53.1564 30.8288L53.418 30.6305V16.9543V3.27806Z" fill="#163C51" stroke="#163C51" stroke-width="0.5"/>
<path d="M7.23386 6.80929L6.9248 7.02563V16.9547V26.8837L7.23386 27.1001C7.51716 27.305 7.87772 27.3164 17.291 27.3164C26.9618 27.3164 27.052 27.3164 27.3868 27.0773L27.7216 26.8496V16.9547V7.05979L27.3868 6.83206C27.052 6.59295 26.9618 6.59295 17.291 6.59295C7.87772 6.59295 7.51716 6.60433 7.23386 6.80929ZM25.9188 16.9547V25.7223H17.291H8.66324V16.9547V8.18706H17.291H25.9188V16.9547Z" fill="#163C51"/>
<path d="M16.0403 10.5106C13.761 11.171 12.4347 13.0271 12.7952 15.0652C12.9369 15.8054 13.3618 16.6252 13.864 17.092C14.0443 17.2628 14.1988 17.4222 14.1988 17.445C14.1988 17.4678 13.8254 17.7069 13.3747 17.9688C11.4302 19.0733 10.0781 21.1684 10.0781 23.07C10.0781 23.5368 10.1425 23.719 10.3614 23.9012C10.6318 24.1289 10.7735 24.1289 17.3151 24.1289H23.9984L24.3075 23.8442C24.4878 23.6962 24.6294 23.4457 24.6294 23.2863C24.6294 22.7739 24.2689 21.3506 23.9984 20.7927C23.4447 19.6426 22.2343 18.447 21.0496 17.8435L20.3799 17.502L20.7791 17.092C21.0109 16.8643 21.3457 16.3975 21.526 16.0445C21.8093 15.5207 21.8608 15.2588 21.8608 14.3934C21.8608 13.5053 21.8093 13.2889 21.5003 12.7196C21.0238 11.8542 20.161 11.0913 19.2467 10.727C18.3711 10.3626 16.8902 10.2601 16.0403 10.5106ZM18.4483 12.1844C19.221 12.4919 19.4656 12.6968 19.8133 13.3686C20.7019 15.0311 19.4013 16.8529 17.3409 16.8529C15.7055 16.8529 14.5723 15.8395 14.5723 14.382C14.5723 12.6171 16.6327 11.4557 18.4483 12.1844ZM19.6717 18.9936C20.161 19.2099 20.8435 19.6312 21.1912 19.9387C21.7707 20.4511 22.4532 21.51 22.6463 22.216L22.7236 22.5348H17.3151H11.9067L12.0355 22.1021C12.4991 20.5991 13.8512 19.3124 15.5252 18.7659C16.0532 18.6064 16.4781 18.5609 17.4954 18.5837C18.6673 18.6064 18.8604 18.6406 19.6717 18.9936Z" fill="#163C51"/>
<path d="M34.7005 11.865C34.3399 12.2066 34.3399 12.6393 34.7134 12.9468L35.0095 13.1973H41.8345H48.6723L48.9427 12.9354C49.3033 12.5938 49.3033 12.1611 48.9298 11.8537L48.6337 11.6032H41.8087H34.9709L34.7005 11.865Z" fill="#163C51"/>
<path d="M34.7005 16.4178C34.3399 16.7594 34.3399 17.1921 34.7134 17.4995L35.0095 17.75H41.8345H48.6723L48.9427 17.4881C49.3033 17.1465 49.3033 16.7138 48.9298 16.4064L48.6337 16.1559H41.8087H34.9709L34.7005 16.4178Z" fill="#163C51"/>
<path d="M34.7005 20.9725C34.3399 21.3141 34.3399 21.7467 34.7134 22.0542L35.0095 22.3047H41.8345H48.6723L48.9427 22.0428C49.3033 21.7012 49.3033 21.2685 48.9298 20.9611L48.6337 20.7106H41.8087H34.9709L34.7005 20.9725Z" fill="#163C51"/>
</svg>
