<svg width="36" height="46" viewBox="0 0 36 46" fill="none" xmlns="http://www.w3.org/2000/svg">
<path d="M15.6181 0.126375C10.7737 0.941343 6.96343 4.11177 5.68209 8.40526C5.43481 9.23017 5.38985 9.5979 5.37861 10.9098C5.36737 12.6192 5.49101 13.3646 6.01928 14.6865C7.51418 18.4731 10.9648 21.1367 15.4832 22.0013C17.3265 22.3492 19.9342 22.2001 21.8899 21.6336C27.1726 20.0931 30.7581 15.4319 30.4547 10.4626C30.1624 5.69201 26.3184 1.51778 21.1031 0.315208C19.6757 -0.0127659 17.0118 -0.102215 15.6181 0.126375ZM20.7097 3.54527C23.1151 4.26085 24.9472 5.70195 26.0037 7.67974C26.6668 8.93201 26.8242 9.57802 26.8242 11.0589C26.8242 12.6192 26.6668 13.2454 25.8801 14.6467C24.7673 16.6444 22.8565 18.0457 20.2939 18.7216C19.4509 18.9402 19.0912 18.98 17.8998 18.98C16.7084 18.98 16.3487 18.9402 15.5057 18.7216C12.6733 17.9762 10.6051 16.3264 9.53735 13.951C8.8742 12.5 8.73932 10.5719 9.20015 9.07115C10.0544 6.24857 12.5271 4.11177 15.8204 3.34649C16.4498 3.19741 16.9219 3.1676 18.1246 3.19741C19.4846 3.22723 19.7544 3.25704 20.7097 3.54527Z" fill="#163C51"/>
<path d="M16.5313 23.7678C12.4049 24.1651 8.53755 26.1614 5.5766 29.429C1.95958 33.4117 0 38.7452 0 44.5951V45.916H1.37257H2.73651L2.7883 44.0985C2.89189 40.9799 3.34941 38.8346 4.45438 36.3714C7.62251 29.3098 14.5199 25.5854 21.2273 27.3036C27.2874 28.8629 31.8971 34.4446 32.9417 41.4963C33.0107 41.983 33.097 43.1847 33.1229 44.1481L33.1747 45.916H34.5387H35.9112V44.6845C35.9112 37.5037 33.0194 31.1671 27.9434 27.2043C24.7149 24.6816 20.4245 23.3904 16.5313 23.7678Z" fill="#163C51"/>
<line y1="44.5" x2="35.5943" y2="44.5" stroke="#163C51" stroke-width="3"/>
</svg>
