<svg width="257" height="16" viewBox="0 0 257 16" fill="none" xmlns="http://www.w3.org/2000/svg">
<path opacity="0.7" d="M248.744 11.8488C247.831 11.8488 247.021 11.665 246.313 11.2974C245.605 10.9297 245.054 10.4055 244.659 9.72471C244.264 9.0439 244.066 8.23374 244.066 7.29423C244.066 6.38195 244.216 5.53775 244.516 4.76163C244.815 3.98551 245.237 3.31151 245.782 2.73963C246.327 2.15414 246.967 1.7048 247.702 1.39163C248.451 1.07846 249.261 0.921875 250.132 0.921875C251.072 0.921875 251.868 1.09208 252.522 1.43248C253.176 1.75927 253.679 2.24264 254.033 2.8826C254.387 3.50894 254.564 4.27145 254.564 5.17011C254.564 6.46364 254.326 7.61421 253.85 8.6218C253.373 9.6294 252.699 10.4191 251.828 10.991C250.956 11.5629 249.928 11.8488 248.744 11.8488ZM249.05 10.5621C249.949 10.5621 250.745 10.3511 251.44 9.92895C252.148 9.49324 252.699 8.89413 253.094 8.13162C253.502 7.36912 253.707 6.50449 253.707 5.53775C253.707 4.47569 253.393 3.65191 252.767 3.06642C252.154 2.48092 251.29 2.18818 250.173 2.18818C249.288 2.18818 248.492 2.40603 247.784 2.84175C247.076 3.27747 246.517 3.87658 246.109 4.63908C245.714 5.38797 245.517 6.25259 245.517 7.23296C245.517 8.2814 245.823 9.09837 246.436 9.68386C247.062 10.2694 247.933 10.5621 249.05 10.5621ZM252.583 11.7467L253.196 8.66265L253.809 6.49769L254.013 4.25102L254.667 1.024H256.117L253.972 11.7467H252.583Z" fill="#163C51"/>
<path opacity="0.7" d="M236.892 11.7461L238.852 1.90168L239.138 2.28974H234.727L234.972 1.02344H244.571L244.306 2.28974H239.853L240.302 1.90168L238.342 11.7461H236.892Z" fill="#163C51"/>
<path opacity="0.7" d="M221.088 11.7461L223.232 1.02344H224.683L223.743 5.76186H230.483L231.443 1.02344H232.893L230.749 11.7461H229.298L230.238 7.00773H223.498L222.538 11.7461H221.088Z" fill="#163C51"/>
<path opacity="0.7" d="M209.188 15.8106C208.684 15.8106 208.201 15.7221 207.738 15.5451C207.275 15.3817 206.907 15.1502 206.635 14.8506L207.411 13.7886C207.642 14.0337 207.915 14.2243 208.228 14.3604C208.541 14.4966 208.895 14.5647 209.29 14.5647C209.753 14.5647 210.175 14.4353 210.556 14.1766C210.951 13.9315 211.36 13.4822 211.782 12.8286L212.864 11.1743L213.048 10.97L219.42 1.02344H220.911L213.068 13.135C212.619 13.8158 212.197 14.3468 211.802 14.7281C211.407 15.123 210.999 15.4021 210.577 15.5655C210.168 15.7289 209.705 15.8106 209.188 15.8106ZM212.619 12.0525L209.862 1.02344H211.332L213.742 10.8679L212.619 12.0525Z" fill="#163C51"/>
<path opacity="0.7" d="M200.355 11.8488C199.443 11.8488 198.632 11.665 197.924 11.2974C197.216 10.9297 196.665 10.4055 196.27 9.72471C195.875 9.0439 195.678 8.23374 195.678 7.29423C195.678 6.38195 195.828 5.53775 196.127 4.76163C196.427 3.98551 196.849 3.31151 197.393 2.73963C197.938 2.15414 198.578 1.7048 199.313 1.39163C200.062 1.07846 200.872 0.921875 201.744 0.921875C202.683 0.921875 203.48 1.09208 204.133 1.43248C204.787 1.75927 205.291 2.24264 205.645 2.8826C205.999 3.50894 206.176 4.27145 206.176 5.17011C206.176 6.46364 205.938 7.61421 205.461 8.6218C204.984 9.6294 204.31 10.4191 203.439 10.991C202.568 11.5629 201.539 11.8488 200.355 11.8488ZM200.661 10.5621C201.56 10.5621 202.356 10.3511 203.051 9.92895C203.759 9.49324 204.31 8.89413 204.705 8.13162C205.114 7.36912 205.318 6.50449 205.318 5.53775C205.318 4.47569 205.005 3.65191 204.378 3.06642C203.766 2.48092 202.901 2.18818 201.785 2.18818C200.9 2.18818 200.103 2.40603 199.395 2.84175C198.687 3.27747 198.129 3.87658 197.72 4.63908C197.325 5.38797 197.128 6.25259 197.128 7.23296C197.128 8.2814 197.434 9.09837 198.047 9.68386C198.673 10.2694 199.545 10.5621 200.661 10.5621ZM204.195 11.7467L204.807 8.66265L205.42 6.49769L205.624 4.25102L206.278 1.024H207.728L205.583 11.7467H204.195Z" fill="#163C51"/>
<path opacity="0.7" d="M192.052 11.7461L188.763 6.41543L189.968 5.86398L193.706 11.7461H192.052ZM184.168 11.7461L186.333 1.02344H187.783L185.618 11.7461H184.168ZM186.149 6.96688L186.374 5.72101H189.825L189.601 6.96688H186.149ZM190.009 6.53797L188.6 6.33373L193.972 1.02344H195.606L190.009 6.53797Z" fill="#163C51"/>
<path opacity="0.7" d="M180.224 11.7461L176.935 6.41543L178.14 5.86398L181.878 11.7461H180.224ZM172.34 11.7461L174.505 1.02344H175.955L173.79 11.7461H172.34ZM174.321 6.96688L174.546 5.72101H177.997L177.773 6.96688H174.321ZM178.181 6.53797L176.772 6.33373L182.143 1.02344H183.777L178.181 6.53797Z" fill="#163C51"/>
<path opacity="0.7" d="M162.997 11.8488C162.085 11.8488 161.275 11.665 160.567 11.2974C159.859 10.9297 159.307 10.4055 158.913 9.72471C158.518 9.0439 158.32 8.23374 158.32 7.29423C158.32 6.38195 158.47 5.53775 158.77 4.76163C159.069 3.98551 159.491 3.31151 160.036 2.73963C160.581 2.15414 161.221 1.7048 161.956 1.39163C162.705 1.07846 163.515 0.921875 164.386 0.921875C165.326 0.921875 166.122 1.09208 166.776 1.43248C167.429 1.75927 167.933 2.24264 168.287 2.8826C168.641 3.50894 168.818 4.27145 168.818 5.17011C168.818 6.46364 168.58 7.61421 168.104 8.6218C167.627 9.6294 166.953 10.4191 166.082 10.991C165.21 11.5629 164.182 11.8488 162.997 11.8488ZM163.304 10.5621C164.202 10.5621 164.999 10.3511 165.693 9.92895C166.401 9.49324 166.953 8.89413 167.348 8.13162C167.756 7.36912 167.961 6.50449 167.961 5.53775C167.961 4.47569 167.647 3.65191 167.021 3.06642C166.408 2.48092 165.544 2.18818 164.427 2.18818C163.542 2.18818 162.746 2.40603 162.038 2.84175C161.329 3.27747 160.771 3.87658 160.363 4.63908C159.968 5.38797 159.77 6.25259 159.77 7.23296C159.77 8.2814 160.077 9.09837 160.69 9.68386C161.316 10.2694 162.187 10.5621 163.304 10.5621ZM166.837 11.7467L167.45 8.66265L168.063 6.49769L168.267 4.25102L168.92 1.024H170.371L168.226 11.7467H166.837Z" fill="#163C51"/>
<path opacity="0.7" d="M145.302 11.7461L147.262 1.90168L147.548 2.28974H143.137L143.382 1.02344H152.981L152.716 2.28974H148.263L148.713 1.90168L146.752 11.7461H145.302Z" fill="#163C51"/>
<path opacity="0.7" d="M136.078 11.8488C135.057 11.8488 134.165 11.665 133.403 11.2974C132.654 10.9161 132.075 10.3851 131.667 9.70429C131.272 9.02348 131.074 8.21332 131.074 7.27381C131.074 6.04835 131.333 4.95906 131.85 4.00593C132.368 3.0528 133.076 2.30391 133.974 1.75927C134.873 1.20101 135.888 0.921875 137.018 0.921875C137.971 0.921875 138.795 1.10569 139.489 1.47333C140.183 1.82735 140.721 2.34476 141.103 3.02557C141.497 3.70638 141.695 4.52334 141.695 5.47647C141.695 5.69433 141.681 5.919 141.654 6.15047C141.627 6.36833 141.593 6.57938 141.552 6.78362H132.136L132.32 5.70114H140.878L140.286 6.10962C140.422 5.25181 140.36 4.53015 140.102 3.94466C139.843 3.35916 139.441 2.91664 138.897 2.61708C138.366 2.30391 137.726 2.14733 136.977 2.14733C136.105 2.14733 135.329 2.36519 134.648 2.8009C133.968 3.223 133.437 3.81531 133.055 4.57781C132.674 5.3267 132.483 6.20494 132.483 7.21253C132.483 8.28821 132.79 9.11879 133.403 9.70429C134.029 10.2762 134.962 10.5621 136.201 10.5621C136.922 10.5621 137.59 10.4464 138.202 10.2149C138.815 9.9698 139.319 9.63621 139.714 9.21411L140.367 10.2557C139.863 10.7595 139.23 11.1544 138.468 11.4403C137.719 11.7127 136.922 11.8488 136.078 11.8488Z" fill="#163C51"/>
<path opacity="0.7" d="M117.252 11.7461L119.396 1.02344H120.847L119.907 5.76186H126.647L127.607 1.02344H129.057L126.913 11.7461H125.462L126.402 7.00773H119.662L118.702 11.7461H117.252Z" fill="#163C51"/>
<path opacity="0.7" d="M105.143 11.8488C104.122 11.8488 103.237 11.665 102.488 11.2974C101.752 10.9161 101.18 10.3851 100.772 9.70429C100.377 9.02348 100.18 8.22013 100.18 7.29423C100.18 6.06878 100.445 4.97949 100.976 4.02636C101.507 3.05961 102.243 2.30391 103.182 1.75927C104.135 1.20101 105.218 0.921875 106.43 0.921875C107.423 0.921875 108.274 1.10569 108.983 1.47333C109.704 1.82735 110.262 2.35838 110.657 3.06642L109.432 3.78127C109.132 3.23662 108.717 2.83494 108.186 2.57624C107.669 2.31753 107.042 2.18818 106.307 2.18818C105.408 2.18818 104.605 2.40603 103.897 2.84175C103.189 3.27747 102.631 3.87658 102.222 4.63908C101.827 5.38797 101.63 6.25259 101.63 7.23296C101.63 8.2814 101.936 9.09837 102.549 9.68386C103.175 10.2694 104.06 10.5621 105.204 10.5621C105.898 10.5621 106.538 10.4328 107.124 10.174C107.723 9.90172 108.213 9.51366 108.594 9.00986L109.636 9.80641C109.173 10.4464 108.54 10.9502 107.737 11.3178C106.933 11.6718 106.069 11.8488 105.143 11.8488Z" fill="#163C51"/>
<path opacity="0.7" d="M90.7943 11.8488C89.882 11.8488 89.0719 11.665 88.3638 11.2974C87.6558 10.9297 87.1044 10.4055 86.7095 9.72471C86.3146 9.0439 86.1172 8.23374 86.1172 7.29423C86.1172 6.38195 86.267 5.53775 86.5665 4.76163C86.8661 3.98551 87.2882 3.31151 87.8328 2.73963C88.3775 2.15414 89.0174 1.7048 89.7527 1.39163C90.5016 1.07846 91.3117 0.921875 92.1832 0.921875C93.1227 0.921875 93.9192 1.09208 94.5728 1.43248C95.2264 1.75927 95.7302 2.24264 96.0842 2.8826C96.4382 3.50894 96.6152 4.27145 96.6152 5.17011C96.6152 6.46364 96.3769 7.61421 95.9004 8.6218C95.4238 9.6294 94.7498 10.4191 93.8784 10.991C93.007 11.5629 91.9789 11.8488 90.7943 11.8488ZM91.1007 10.5621C91.9994 10.5621 92.7959 10.3511 93.4903 9.92895C94.1984 9.49324 94.7498 8.89413 95.1447 8.13162C95.5532 7.36912 95.7574 6.50449 95.7574 5.53775C95.7574 4.47569 95.4442 3.65191 94.8179 3.06642C94.2052 2.48092 93.3405 2.18818 92.224 2.18818C91.339 2.18818 90.5424 2.40603 89.8344 2.84175C89.1263 3.27747 88.5681 3.87658 88.1596 4.63908C87.7647 5.38797 87.5673 6.25259 87.5673 7.23296C87.5673 8.2814 87.8737 9.09837 88.4864 9.68386C89.1127 10.2694 89.9842 10.5621 91.1007 10.5621ZM94.6341 11.7467L95.2468 8.66265L95.8595 6.49769L96.0638 4.25102L96.7173 1.024H98.1675L96.0229 11.7467H94.6341Z" fill="#163C51"/>
<path opacity="0.7" d="M73.6309 11.7461L75.7958 1.02344H80.473C81.6031 1.02344 82.4609 1.22768 83.0464 1.63616C83.6319 2.03103 83.9247 2.61653 83.9247 3.39265C83.9247 4.30493 83.5434 5.04701 82.7809 5.61889C82.0184 6.17715 81.0176 6.45628 79.7785 6.45628L80.0441 6.06822C81.1742 6.06822 81.998 6.25884 82.5154 6.6401C83.0464 7.00773 83.3119 7.59323 83.3119 8.39658C83.3119 9.44502 82.8898 10.2688 82.0456 10.8679C81.2151 11.4534 80.0645 11.7461 78.5939 11.7461H73.6309ZM75.2852 10.6024H78.6756C79.6832 10.6024 80.4662 10.405 81.0244 10.0101C81.5963 9.61522 81.8822 9.06377 81.8822 8.35573C81.8822 7.8247 81.7052 7.44345 81.3512 7.21197C80.9972 6.9805 80.4253 6.86476 79.6356 6.86476H76.0409L75.2852 10.6024ZM76.2452 5.78228H79.4518C80.3504 5.78228 81.0721 5.59165 81.6167 5.2104C82.175 4.81553 82.4541 4.29131 82.4541 3.63774C82.4541 3.13394 82.2635 2.7595 81.8822 2.51441C81.5146 2.26931 80.9563 2.14677 80.2075 2.14677H76.9804L76.2452 5.78228Z" fill="#163C51"/>
<path opacity="0.7" d="M56.3851 15.8106C55.8813 15.8106 55.3979 15.7221 54.9349 15.5451C54.472 15.3817 54.1044 15.1502 53.832 14.8506L54.6081 13.7886C54.8396 14.0337 55.1119 14.2243 55.4251 14.3604C55.7383 14.4966 56.0923 14.5647 56.4872 14.5647C56.9501 14.5647 57.3722 14.4353 57.7535 14.1766C58.1483 13.9315 58.5568 13.4822 58.9789 12.8286L60.0614 11.1743L60.2452 10.97L66.6176 1.02344H68.1086L60.2657 13.135C59.8163 13.8158 59.3942 14.3468 58.9994 14.7281C58.6045 15.123 58.196 15.4021 57.7739 15.5655C57.3654 15.7289 56.9025 15.8106 56.3851 15.8106ZM59.8163 12.0525L57.0591 1.02344H58.5296L60.9397 10.8679L59.8163 12.0525Z" fill="#163C51"/>
<path opacity="0.7" d="M37.4883 11.7461L39.6533 1.02344H41.1034L39.3673 9.6833L48.1906 1.02344H49.5794L47.4349 11.7461H45.9439L47.7208 3.06586L38.8976 11.7461H37.4883Z" fill="#163C51"/>
<path opacity="0.7" d="M22.6445 11.7257L22.9917 10.4798C23.0871 10.4935 23.1756 10.5139 23.2573 10.5411C23.339 10.5547 23.4138 10.5615 23.4819 10.5615C23.9721 10.5615 24.401 10.3437 24.7686 9.90797C25.1499 9.45864 25.4903 8.80506 25.7899 7.94725C26.103 7.08943 26.4162 6.04099 26.7294 4.80192L27.6689 1.02344H35.5322L33.3672 11.7461H31.9171L33.8983 1.81998L34.2046 2.28974H28.3633L28.7922 1.81998L28.0161 4.94489C27.7165 6.11587 27.417 7.13709 27.1174 8.00852C26.8315 8.86634 26.5183 9.58118 26.1779 10.1531C25.8511 10.7249 25.4835 11.1538 25.075 11.4398C24.6801 11.7257 24.224 11.8687 23.7066 11.8687C23.5296 11.8687 23.3594 11.8551 23.196 11.8278C23.0326 11.8006 22.8488 11.7666 22.6445 11.7257Z" fill="#163C51"/>
<path opacity="0.7" d="M18.1994 11.8488C17.1782 11.8488 16.2932 11.665 15.5443 11.2974C14.809 10.9161 14.2371 10.3851 13.8286 9.70429C13.4338 9.02348 13.2363 8.22013 13.2363 7.29423C13.2363 6.06878 13.5018 4.97949 14.0329 4.02636C14.5639 3.05961 15.2992 2.30391 16.2387 1.75927C17.1918 1.20101 18.2743 0.921875 19.4861 0.921875C20.4801 0.921875 21.3311 1.10569 22.0392 1.47333C22.7608 1.82735 23.3191 2.35838 23.714 3.06642L22.4885 3.78127C22.1889 3.23662 21.7737 2.83494 21.2426 2.57624C20.7252 2.31753 20.0989 2.18818 19.3636 2.18818C18.4649 2.18818 17.6616 2.40603 16.9535 2.84175C16.2455 3.27747 15.6872 3.87658 15.2787 4.63908C14.8839 5.38797 14.6864 6.25259 14.6864 7.23296C14.6864 8.2814 14.9928 9.09837 15.6055 9.68386C16.2319 10.2694 17.1169 10.5621 18.2607 10.5621C18.9551 10.5621 19.5951 10.4328 20.1806 10.174C20.7797 9.90172 21.2699 9.51366 21.6511 9.00986L22.6927 9.80641C22.2298 10.4464 21.5966 10.9502 20.7933 11.3178C19.9899 11.6718 19.1253 11.8488 18.1994 11.8488Z" fill="#163C51"/>
<path opacity="0.7" d="M5.53519 11.8488C4.51398 11.8488 3.62212 11.665 2.85961 11.2974C2.11072 10.9161 1.53204 10.3851 1.12355 9.70429C0.728686 9.02348 0.53125 8.21332 0.53125 7.27381C0.53125 6.04835 0.78996 4.95906 1.30737 4.00593C1.82479 3.0528 2.53282 2.30391 3.43149 1.75927C4.33015 1.20101 5.34455 0.921875 6.47469 0.921875C7.42782 0.921875 8.25161 1.10569 8.94603 1.47333C9.64045 1.82735 10.1783 2.34476 10.5595 3.02557C10.9544 3.70638 11.1518 4.52334 11.1518 5.47647C11.1518 5.69433 11.1382 5.919 11.111 6.15047C11.0838 6.36833 11.0497 6.57938 11.0089 6.78362H1.59331L1.77713 5.70114H10.3349L9.74257 6.10962C9.87873 5.25181 9.81746 4.53015 9.55875 3.94466C9.30005 3.35916 8.89837 2.91664 8.35372 2.61708C7.82269 2.30391 7.18273 2.14733 6.43385 2.14733C5.56241 2.14733 4.78629 2.36519 4.10549 2.8009C3.42468 3.223 2.89365 3.81531 2.5124 4.57781C2.13115 5.3267 1.94052 6.20494 1.94052 7.21253C1.94052 8.28821 2.24689 9.11879 2.85961 9.70429C3.48595 10.2762 4.41866 10.5621 5.65773 10.5621C6.37939 10.5621 7.04658 10.4464 7.6593 10.2149C8.27203 9.9698 8.77582 9.63621 9.17069 9.21411L9.82426 10.2557C9.32047 10.7595 8.68732 11.1544 7.92481 11.4403C7.17592 11.7127 6.37939 11.8488 5.53519 11.8488Z" fill="#163C51"/>
</svg>
