<svg width="32" height="65" viewBox="0 0 32 65" fill="none" xmlns="http://www.w3.org/2000/svg">
<path d="M19.9242 0.189487C23.2784 1.094 25.3764 4.52359 24.5347 7.72706C23.9568 9.98833 22.3111 11.6969 20.1378 12.3124C15.4645 13.6566 11.0801 9.27226 12.4243 4.59897C13.3414 1.38294 16.7961 -0.652208 19.9242 0.189487Z" fill="white"/>
<path d="M20.2191 14.4236C21.3875 14.8131 22.4176 15.6171 23.0457 16.6472C23.1714 16.8482 23.7116 17.5643 24.2392 18.2175C26.8522 21.4587 30.7341 27.3757 31.425 29.1847C32.2541 31.3706 30.621 33.7575 28.0959 34.0087C27.1663 34.0967 26.1487 33.6947 25.5457 33.0037C25.2944 32.7148 24.5533 31.5716 23.9126 30.4661C23.2593 29.3731 22.7317 28.5063 22.7317 28.5566C22.7317 28.6068 22.2794 31.6972 21.7267 35.4409C20.6965 42.4006 20.5835 42.9031 19.9176 43.7825C19.7041 44.0588 19.5533 44.5739 19.3523 45.7297C18.3348 51.5085 16.5509 57.3375 14.4529 61.7345C13.4856 63.7319 12.5057 64.4606 10.9982 64.2721C9.64141 64.1214 8.4354 63.1917 7.81983 61.8475C7.30477 60.7295 7.41783 59.9129 8.4354 57.6014C9.86754 54.3099 10.9731 50.8175 11.8022 46.8729L12.1916 45.0513L11.6389 44.486C10.8977 43.7197 10.6339 43.2925 10.3072 42.4006C9.74191 40.8931 9.79217 40.2272 10.9102 32.7399C11.463 29.0088 11.9027 25.931 11.865 25.9059C11.8022 25.8305 9.4781 27.6269 7.46808 29.3103C5.345 31.0817 5.10631 31.2198 3.82492 31.2198C2.64403 31.2198 1.95309 30.9435 1.12396 30.1395C-0.270494 28.7827 -0.38356 26.8732 0.872704 25.5415C2.07872 24.2602 7.12889 20.2778 9.85498 18.4437C11.8273 17.1246 14.7921 15.3533 16.0735 14.7251C16.9403 14.3106 17.1287 14.2729 18.2719 14.2352C19.2267 14.2101 19.6915 14.2477 20.2191 14.4236Z" fill="white"/>
<path d="M23.2357 47.4364C27.4065 51.5067 30.3085 55.0243 30.9115 56.7579C31.2381 57.6624 31.1879 58.8684 30.7984 59.6222C30.1452 60.891 28.6879 61.6573 27.1678 61.5191C25.7734 61.3809 25.3588 61.0543 23.889 58.9438C22.997 57.675 21.4141 56.0041 19.9317 54.7856C19.2785 54.2454 18.9644 53.9062 19.0021 53.7806C19.0398 53.6675 19.2659 52.9263 19.5172 52.1349C20.0197 50.5897 20.6604 47.5872 20.7986 46.1927C20.8488 45.7279 20.9242 45.351 20.987 45.351C21.0373 45.351 22.0548 46.2932 23.2357 47.4364Z" fill="white"/>
</svg>
