<svg width="701" height="570" viewBox="0 0 701 570" fill="none" xmlns="http://www.w3.org/2000/svg">
<path fill-rule="evenodd" clip-rule="evenodd" d="M0 553.608L700.162 569.673V144.639C643.438 127.046 572.622 106.654 489.162 86.6621C355.355 54.0085 189.62 21.3548 0 0V553.608Z" fill="#5FC692"/>
<path opacity="0.2" fill-rule="evenodd" clip-rule="evenodd" d="M0 149.102C0.107007 149.079 0.214078 149.056 0.321215 149.032C58.3057 136.337 78.4275 117.44 94.3647 102.473C115.071 83.0271 128.713 70.2149 209.153 86.2566C245.434 93.4919 288.121 105.74 333.376 118.724C465.684 156.686 619.934 200.944 700.161 144.634C643.436 127.041 572.621 106.649 489.161 86.6565C355.366 54.0057 189.323 21.3549 0 0V149.102Z" fill="white"/>
<path fill-rule="evenodd" clip-rule="evenodd" d="M0 558.789L700.162 569.591V144.558C643.438 126.965 572.623 106.573 489.162 86.9805C467.123 242.12 256.123 384.864 118.468 416.051C81.2491 424.438 41.1017 422.255 0 414.464V558.789Z" fill="url(#paint0_linear_436_4965)"/>
<defs>
<linearGradient id="paint0_linear_436_4965" x1="198.646" y1="-215.639" x2="822.573" y2="70.809" gradientUnits="userSpaceOnUse">
<stop offset="0.2997" stop-color="#163C51"/>
<stop offset="1" stop-color="#163C51" stop-opacity="0"/>
</linearGradient>
</defs>
</svg>
