<svg width="45" height="50" viewBox="0 0 45 50" fill="none" xmlns="http://www.w3.org/2000/svg">
<path d="M43.1827 46.773C42.5656 47.479 42.0306 47.8751 41.193 48.2282V48.2282L41.1908 48.2291L40.5941 48.4773L40.5019 48.5156H40.402H22.5H4.59796H4.49811L4.40593 48.4773L3.80919 48.2291L3.80919 48.2291L3.80704 48.2282C2.96943 47.8751 2.43441 47.479 1.81743 46.7731C1.25487 46.1328 0.942677 45.5338 0.679539 44.6674L0.679465 44.6675L0.677067 44.659C0.579273 44.3155 0.543584 43.904 0.523057 41.663C0.502188 39.3847 0.5 35.1573 0.5 27.1007C0.5 19.044 0.502188 14.8166 0.523057 12.5383C0.543584 10.2973 0.579273 9.8858 0.677048 9.54228L0.678324 9.53794C1.22996 7.66475 2.54959 6.27888 4.29893 5.80464C4.73693 5.68447 5.35641 5.63973 6.16 5.63973H6.85997L6.87996 4.99605C6.87997 4.99561 6.87998 4.99516 6.88 4.99472C6.89293 4.49369 6.90609 4.161 6.95538 3.88108C7.00812 3.5816 7.09929 3.3565 7.2308 3.06661C7.75924 1.87883 8.85498 0.897621 10.0139 0.60751L10.0178 0.60656C11.4532 0.259544 13.0676 0.769779 14.0339 1.89791C14.8499 2.84689 15.1459 3.82798 15.1459 5.28474V5.63973H22.4912H29.8524L29.8719 5.03874L29.8721 5.03418C29.8991 4.38195 29.9632 3.85943 30.1066 3.39416C30.2528 2.91994 30.4738 2.52931 30.7834 2.12893L30.7836 2.12874C32.7142 -0.365334 36.3647 0.0946999 37.7119 2.96452C37.8683 3.28777 37.9767 3.52176 38.0364 3.82861C38.092 4.11405 38.1029 4.45347 38.1199 4.98372L38.12 4.98436L38.1401 5.63973H38.8576C39.6586 5.63973 40.2958 5.68424 40.7073 5.79474L40.7089 5.79519C42.4524 6.26989 43.7705 7.67625 44.3215 9.53724L44.3229 9.54229C44.4207 9.8858 44.4564 10.2973 44.4769 12.5383C44.4978 14.8166 44.5 19.044 44.5 27.1007C44.5 35.1573 44.4978 39.3847 44.4769 41.663C44.4564 43.904 44.4207 44.3155 44.3229 44.659L44.323 44.6591L44.3205 44.6674C44.0573 45.5338 43.7452 46.1328 43.1827 46.773ZM43.1827 46.773C43.1825 46.7732 43.1823 46.7734 43.1821 46.7736L42.8065 46.4436L43.183 46.7726C43.1829 46.7727 43.1828 46.7729 43.1827 46.773ZM9.237 11.2209C8.05477 10.6331 7.20731 9.48745 6.94199 8.14919L6.94192 8.14883L6.91708 8.02302L6.45034 8.02784C6.44958 8.02785 6.44883 8.02787 6.44807 8.02788C5.9722 8.03703 5.39486 8.07321 5.17123 8.10531C4.33132 8.23401 3.54295 8.84576 3.13103 9.74879L2.90335 10.2489L2.87774 14.0678L2.85479 17.4992H22.5H42.1452L42.1223 14.0678L42.0966 10.2489L41.8695 9.74992C41.8694 9.74969 41.8693 9.74946 41.8692 9.74923C41.571 9.10022 41.2049 8.6921 40.7083 8.4315C40.1953 8.1623 39.4917 8.02325 38.4701 8.01874C38.4698 8.01874 38.4695 8.01873 38.4693 8.01873L38.0838 8.01874L38.0581 8.14883L38.058 8.14919C37.7927 9.48745 36.9452 10.6331 35.763 11.2209C35.4909 11.3564 35.2747 11.456 34.993 11.5075C34.7323 11.5552 34.4311 11.5582 33.9959 11.5582C33.5537 11.5582 33.2514 11.5555 32.992 11.5055C32.7111 11.4514 32.4982 11.3461 32.2317 11.2087C30.9924 10.5746 30.1618 9.41003 29.9177 8.01874H22.5088H15.0666C15.0613 8.0608 15.0582 8.09615 15.0582 8.11631C15.0582 8.21524 15.0324 8.31555 15.0175 8.37021C14.9981 8.44153 14.972 8.52199 14.9424 8.60506C14.8834 8.7702 14.8032 8.96549 14.7135 9.15396C14.3152 10.037 13.5327 10.8483 12.6992 11.2586L12.696 11.2601C12.4546 11.3768 12.2527 11.4634 11.9796 11.5098C11.7282 11.5525 11.4314 11.5582 11.0041 11.5582C10.5689 11.5582 10.2677 11.5552 10.0069 11.5075C9.72531 11.456 9.50914 11.3564 9.237 11.2209ZM9.237 11.2209L9.45959 10.7732M9.237 11.2209C9.23689 11.2209 9.23679 11.2208 9.23669 11.2208L9.45959 10.7732M9.45959 10.7732C8.42408 10.2584 7.66939 9.2471 7.43245 8.05196L12.4784 10.81C12.022 11.0306 11.8729 11.0582 11.0041 11.0582C10.109 11.0582 9.9949 11.0398 9.45959 10.7732ZM11.784 3.15951L11.7818 3.15827C10.9151 2.68333 9.83552 3.0522 9.40973 4.03941L9.40981 4.03944L9.40599 4.04786C9.29437 4.29404 9.26633 4.39326 9.26633 6.09377C9.26633 7.1379 9.28194 7.65216 9.35185 7.9798C9.40782 8.24209 9.49199 8.36791 9.73956 8.62322L9.73959 8.6232L9.74362 8.62745C10.6208 9.55358 12.0373 9.30993 12.574 8.09775L12.5747 8.09621C12.6567 7.91275 12.6897 7.8235 12.7114 7.60495C12.7369 7.34804 12.7418 6.94489 12.7418 6.13973C12.7418 5.67794 12.731 5.22108 12.7149 4.85878C12.7068 4.6774 12.6976 4.52244 12.6879 4.40385C12.6831 4.34443 12.6784 4.29679 12.6741 4.26096C12.671 4.23585 12.6688 4.22193 12.6679 4.21639C12.562 3.83982 12.1973 3.38321 11.784 3.15951ZM34.7041 3.10771L34.7009 3.10617C34.3961 2.95983 34.0058 2.92462 33.6234 3.00828C33.2405 3.09206 32.9115 3.28471 32.7111 3.53669L32.7098 3.53834C32.4781 3.82705 32.3926 3.97162 32.3383 4.24199C32.2734 4.5656 32.2582 5.05724 32.2582 6.0478C32.2582 6.8988 32.2631 7.32584 32.2888 7.59534C32.3108 7.82585 32.3442 7.91473 32.4253 8.09621L32.426 8.09775C32.9627 9.30993 34.3792 9.55358 35.2564 8.62745L35.2564 8.62743L35.2604 8.62322C35.508 8.36791 35.5922 8.24209 35.6481 7.9798C35.7181 7.65215 35.7337 7.1379 35.7337 6.09377C35.7337 5.20865 35.7309 4.77062 35.7061 4.49678C35.6852 4.26635 35.6533 4.18524 35.57 4.00703L35.57 4.00706L35.5663 3.99887C35.3684 3.55455 35.1202 3.30384 34.7041 3.10771ZM41.9013 44.3853L41.9012 44.3853L41.9034 44.3805L42.0959 43.9547V31.7433V19.9235L22.517 19.8966C22.5169 19.8966 22.5169 19.8966 22.5169 19.8966C14.4343 19.8874 9.41417 19.8874 6.41149 19.9023C4.9094 19.9098 3.91587 19.921 3.29733 19.9365C3.13602 19.9406 3.00214 19.9449 2.89263 19.9494C2.89083 20.1001 2.88916 20.2882 2.88762 20.511C2.88324 21.1444 2.87995 22.0536 2.87775 23.1715C2.87337 25.407 2.87337 28.4747 2.87775 31.8346L2.90385 43.9542L3.09661 44.3805L3.09664 44.3805L3.09875 44.3853C3.36086 44.9815 3.81147 45.4716 4.3802 45.7976L4.81727 46.0447H22.5H40.1913L40.5887 45.8365C40.5891 45.8363 40.5894 45.8361 40.5897 45.836C41.107 45.5608 41.6366 44.9873 41.9013 44.3853Z" fill="#163C51" stroke="#163C51"/>
<path d="M17.3485 21.5568C17.0326 21.9429 16.0322 23.5334 15.8742 23.8919C15.4355 24.9216 15.883 26.2179 16.8659 26.7419L17.1993 26.9257L17.173 27.7256L17.1467 28.5254L14.9528 28.5714C12.8906 28.6173 12.7326 28.6265 12.3904 28.8196C12.1885 28.9391 11.9252 29.1689 11.8024 29.3344C11.3022 30.0239 11.311 29.9044 11.311 35.1906V40.0631H10.9863C10.0297 40.0631 9.2926 41.2582 9.65239 42.2419C9.77525 42.5913 10.1526 43.005 10.4948 43.1521C10.9161 43.3451 34.0834 43.3451 34.5046 43.1521C34.8469 43.005 35.2242 42.5913 35.3471 42.2419C35.7069 41.2582 34.9697 40.0631 34.0132 40.0631H33.6885V35.163V30.2721L33.4779 29.8125C33.3726 29.5551 33.1357 29.2149 32.9601 29.0586C32.3985 28.5438 32.0124 28.4794 29.3271 28.4794H26.9314V27.698V26.9166L27.2648 26.6959C27.7124 26.4017 28.0371 26.0156 28.195 25.6111C28.3706 25.1882 28.3793 24.3424 28.2214 23.9471C28.081 23.6069 26.8261 21.6671 26.633 21.5016C26.5628 21.4373 26.3522 21.4005 26.1679 21.4189C25.8608 21.4465 25.7993 21.5016 25.1938 22.4118C24.834 22.945 24.4479 23.5794 24.3338 23.8368C23.8512 24.9032 24.2724 26.1995 25.2904 26.7419L25.615 26.9166V27.6888V28.461L22.1575 28.5254C20.2532 28.5622 18.6561 28.5622 18.6034 28.5346C18.542 28.4978 18.5069 28.1577 18.5069 27.698V26.9166L18.8404 26.6959C19.2879 26.4017 19.6126 26.0156 19.7706 25.6111C19.9285 25.2158 19.9548 24.3792 19.8232 24.0114C19.7179 23.7264 18.5859 21.9337 18.305 21.6028C18.0769 21.3454 17.5416 21.327 17.3485 21.5568ZM18.1997 23.9471C18.621 24.609 18.6473 25.0043 18.2963 25.3169C17.8136 25.7582 17.1028 25.4456 17.1028 24.7929C17.1028 24.5171 17.6732 23.4231 17.8136 23.4231C17.8399 23.4231 18.0155 23.6621 18.1997 23.9471ZM26.6242 23.9471C27.0455 24.609 27.0718 25.0043 26.7208 25.3169C26.2381 25.7582 25.5273 25.4456 25.5273 24.7929C25.5273 24.5171 26.0977 23.4231 26.2381 23.4231C26.2644 23.4231 26.4399 23.6621 26.6242 23.9471ZM32.065 30.1802C32.2493 30.3641 32.2844 30.4928 32.2844 30.9708C32.2844 31.5224 32.2757 31.55 31.9246 31.8902C30.9155 32.8647 29.3973 32.6808 28.5285 31.4949C27.9406 30.6675 27.5983 30.6675 27.0016 31.4857C26.554 32.1016 25.9836 32.4418 25.3079 32.5061C24.4391 32.5797 23.7371 32.1844 23.0438 31.2099C22.7104 30.741 22.3593 30.741 21.982 31.2007C21.3765 31.9453 21.0518 32.2303 20.6481 32.3774C19.595 32.7544 18.6999 32.4234 17.9189 31.3753C17.4538 30.7594 17.1467 30.695 16.7693 31.1455C16.0585 31.9913 15.7865 32.2303 15.3828 32.3774C14.7334 32.6073 14.2332 32.5705 13.6101 32.2395C12.9169 31.881 12.715 31.5868 12.715 30.9433C12.715 30.4284 12.8028 30.2354 13.1099 30.0607C13.2328 29.9871 16.0146 29.9596 22.5699 29.9504H31.8544L32.065 30.1802ZM18.7614 33.784C19.4546 34.0138 20.5165 33.9863 21.1395 33.7289C21.4028 33.6277 21.824 33.3795 22.061 33.1864L22.4997 32.8371L22.9385 33.1864C23.6318 33.738 24.2022 33.9311 25.1324 33.9311C26.0626 33.9311 26.633 33.738 27.3263 33.1864L27.765 32.8371L28.2038 33.1864C28.8883 33.738 29.4675 33.9311 30.3977 33.9311C31.0471 33.9403 31.284 33.8943 31.7404 33.7013L32.2844 33.4622V34.7217V35.9812L32.0036 36.2662C31.0822 37.1948 29.4763 37.1396 28.7304 36.1651C27.8265 34.9792 27.7036 34.9792 26.7997 36.1651C26.0187 37.1856 24.2461 37.1856 23.465 36.1651C22.5612 34.9883 22.4471 34.9883 21.5871 36.1099C21.1834 36.634 20.5604 36.9373 19.8583 36.9373C19.1299 36.9373 18.5069 36.5972 18.0242 35.9353C17.8312 35.6687 17.603 35.4112 17.5152 35.3653C17.2257 35.1906 16.8659 35.3653 16.5412 35.8341C15.9971 36.6248 15.4355 36.9373 14.5579 36.9373C13.9787 36.9373 13.2855 36.6156 12.9344 36.1835C12.7238 35.9261 12.715 35.8617 12.715 34.685V33.4531L13.1099 33.6277C13.7857 33.9311 14.5316 34.0322 15.181 33.9127C15.8216 33.8024 16.7079 33.3795 17.0063 33.0393L17.2081 32.8187L17.7346 33.2232C18.0242 33.4439 18.4893 33.7013 18.7614 33.784ZM17.6557 37.6085C18.7701 38.5002 20.262 38.6473 21.5257 37.9854C21.7714 37.8567 22.0697 37.6544 22.2014 37.5257C22.3242 37.4062 22.4471 37.3051 22.491 37.3051C22.5261 37.3051 22.7016 37.4246 22.8771 37.5809C23.0526 37.728 23.4387 37.967 23.7283 38.1049C24.1934 38.3347 24.3601 38.3623 25.1324 38.3623C25.9046 38.3623 26.0714 38.3347 26.5365 38.1049C26.8261 37.967 27.2122 37.7188 27.4053 37.5625C27.6334 37.3694 27.7826 37.3051 27.8528 37.3602C28.9848 38.2244 29.3446 38.3623 30.4416 38.3623C31.1612 38.3623 31.3455 38.3255 31.7842 38.1141L32.2844 37.8659V38.9691V40.0631H22.4997H12.715V38.9691V37.8659L13.1977 38.0957C14.3648 38.6565 16.2252 38.3531 16.9712 37.489C17.1818 37.2499 17.2081 37.2499 17.6557 37.6085ZM33.9957 41.6719C33.9957 41.8558 33.9255 41.8558 22.5524 41.8834C15.5232 41.8926 11.0652 41.865 11.0214 41.819C10.9775 41.7731 10.9599 41.6627 10.9863 41.5892C11.0389 41.4513 12.1534 41.4421 22.5173 41.4605C33.9255 41.4881 33.9957 41.4881 33.9957 41.6719Z" fill="#163C51"/>
</svg>
