<svg width="36" height="37" viewBox="0 0 36 37" fill="none" xmlns="http://www.w3.org/2000/svg">
<path d="M20.4393 2.45986C19.5572 2.7426 18.6286 3.20849 17.8805 3.74047C16.7879 4.51733 16.8697 4.41485 10.4399 13.0346C6.86318 17.8387 4.34819 21.2673 4.31751 21.3914C4.13863 22.0915 4.86355 22.698 5.57773 22.4527C5.83633 22.3609 6.14505 21.9607 11.8747 14.2753C18.0077 6.04737 18.2089 5.79178 19.0585 5.19103C21.1648 3.68316 24.0208 3.4564 26.3312 4.59629C28.9375 5.88046 30.2387 8.64163 29.5599 11.4227C29.2693 12.6422 29.4906 12.3143 21.5963 22.9268C13.6817 33.5742 14.0905 33.0618 13.0528 33.5917C10.8595 34.7045 8.1635 33.9854 7.03729 31.983C6.41219 30.8656 6.36302 29.5911 6.90439 28.4184C7.05738 28.0846 9.03044 25.3926 14.3116 18.2955C22.3264 7.53593 21.6969 8.30754 22.6316 8.12715C23.2543 8.00489 23.7113 8.07554 24.2141 8.35576C24.7789 8.6805 25.0961 9.11992 25.2095 9.7282C25.3755 10.6195 25.8106 9.95893 19.1832 18.8897C15.8507 23.3803 13.2358 26.9584 13.2213 27.0608C13.1266 27.5271 13.4266 27.9822 13.912 28.0974C14.2639 28.1814 14.421 28.1583 14.717 27.9786C14.8736 27.8808 16.5902 25.6168 20.5282 20.334C23.5995 16.2098 26.2888 12.5619 26.5025 12.2292C27.1567 11.2286 27.3456 10.402 27.1526 9.36616C26.9156 8.05807 26.0427 7.01802 24.7535 6.5229C23.9338 6.20201 23.2709 6.14481 22.3286 6.32038C21.6776 6.43544 21.5131 6.49101 21.0916 6.7191C20.8225 6.86271 20.4456 7.11364 20.2524 7.26803C19.9849 7.49236 18.22 9.82152 12.6323 17.3309C6.24466 25.9241 5.33509 27.1778 5.09542 27.6961C4.32111 29.4232 4.37715 31.2759 5.26323 32.8557C6.28967 34.6835 8.26079 35.843 10.5355 35.9613C11.0519 35.9897 11.3033 35.9678 12.1211 35.8092C13.1923 35.6034 13.638 35.4331 14.5065 34.8974C15.5565 34.2531 15.3219 34.5461 23.2527 23.8769C30.0694 14.6991 30.6736 13.8636 30.9668 13.2357C31.4504 12.1859 31.6788 11.2461 31.7363 10.0389C31.7677 9.34133 31.4794 7.79355 31.1964 7.10473C29.906 4.00502 26.8379 2.04665 23.243 2.02473C22.6031 2.01931 21.0539 2.2581 20.4393 2.45986Z" fill="#163C51"/>
</svg>
