<svg width="693" height="355" viewBox="0 0 693 355" fill="none" xmlns="http://www.w3.org/2000/svg">
<path fill-rule="evenodd" clip-rule="evenodd" d="M0 352.193H690.714C690.714 352.193 600.679 250.119 468.82 155.839C345.546 67.6507 185.95 -13.2296 29.6561 3.09266C19.6656 4.13905 9.77923 5.23825 0 6.38596V352.193Z" fill="#5FC692"/>
<path opacity="0.2" fill-rule="evenodd" clip-rule="evenodd" d="M0 93.2022C3.38257 94.146 7.02157 95.0516 10.9451 95.9106C54.6303 105.475 80.5517 95.8735 106.96 86.0918C129.656 77.6853 152.711 69.1455 187.711 72.5235C225.344 76.1555 250.255 98.3789 273.684 119.28C297.399 140.437 319.595 160.238 351.93 158.033C416.209 153.647 342.905 77.3958 342.905 77.3958C245.386 26.2366 136.641 -8.11322 29.6563 3.09309C19.6682 4.14111 9.78165 5.24209 0 6.39174V93.2022Z" fill="white"/>
<path fill-rule="evenodd" clip-rule="evenodd" d="M0 354.596H692.76C692.76 354.596 582.758 231.717 449.731 142.691C448.447 177.772 442.925 224.764 382.761 225.008C335.854 225.135 307.444 213.607 281.035 202.891C256.936 193.112 234.502 184.009 201.199 185.055C172.807 185.848 138.144 198.25 101.419 211.39C68.2614 223.253 33.423 235.718 0 240.784V354.596Z" fill="url(#paint0_linear_436_4955)"/>
<defs>
<linearGradient id="paint0_linear_436_4955" x1="367.647" y1="-132.08" x2="-113.209" y2="441.171" gradientUnits="userSpaceOnUse">
<stop offset="0.2997" stop-color="#163C51"/>
<stop offset="1" stop-color="#163C51" stop-opacity="0"/>
</linearGradient>
</defs>
</svg>
