<svg width="23" height="24" viewBox="0 0 23 24" fill="none" xmlns="http://www.w3.org/2000/svg">
<path d="M5.0436 16.3909H17.6526C18.3214 16.3909 18.9628 16.6566 19.4358 17.1296C19.9087 17.6025 20.1744 18.2439 20.1744 18.9127V23.9563H22.6962V18.9127C22.6962 17.5751 22.1648 16.2922 21.2189 15.3464C20.2731 14.4005 18.9902 13.8691 17.6526 13.8691H5.0436C3.70595 13.8691 2.42309 14.4005 1.47723 15.3464C0.531377 16.2922 0 17.5751 0 18.9127V23.9563H2.5218V18.9127C2.5218 18.2439 2.78749 17.6025 3.26042 17.1296C3.73334 16.6566 4.37477 16.3909 5.0436 16.3909Z" fill="#163C51"/>
<path fill-rule="evenodd" clip-rule="evenodd" d="M11.3475 10.0872C11.8442 10.0872 12.3361 9.98935 12.795 9.79925C13.254 9.60915 13.671 9.33052 14.0222 8.97927C14.3735 8.62801 14.6521 8.21101 14.8422 7.75207C15.0323 7.29313 15.1302 6.80125 15.1302 6.3045C15.1302 5.80774 15.0323 5.31586 14.8422 4.85692C14.6521 4.39798 14.3735 3.98098 14.0222 3.62972C13.671 3.27847 13.254 2.99984 12.795 2.80974C12.3361 2.61964 11.8442 2.5218 11.3475 2.5218C10.3442 2.5218 9.38209 2.92033 8.67269 3.62972C7.9633 4.33912 7.56477 5.30126 7.56477 6.3045C7.56477 7.30773 7.9633 8.26987 8.67269 8.97927C9.38209 9.68866 10.3442 10.0872 11.3475 10.0872ZM11.3475 12.609C13.0195 12.609 14.6231 11.9448 15.8054 10.7624C16.9877 9.58013 17.652 7.97655 17.652 6.3045C17.652 4.63244 16.9877 3.02887 15.8054 1.84654C14.6231 0.664222 13.0195 0 11.3475 0C9.67541 0 8.07184 0.664222 6.88951 1.84654C5.70719 3.02887 5.04297 4.63244 5.04297 6.3045C5.04297 7.97655 5.70719 9.58013 6.88951 10.7624C8.07184 11.9448 9.67541 12.609 11.3475 12.609Z" fill="#163C51"/>
</svg>
