<svg width="286" height="303" viewBox="0 0 286 303" fill="none" xmlns="http://www.w3.org/2000/svg">
<path d="M63.5556 207.338H222.444C230.872 207.338 238.955 210.686 244.915 216.646C250.874 222.605 254.222 230.688 254.222 239.116V302.672H286V239.116C286 222.26 279.304 206.095 267.385 194.176C255.466 182.257 239.3 175.561 222.444 175.561H63.5556C46.6996 175.561 30.534 182.257 18.615 194.176C6.69601 206.095 0 222.26 0 239.116V302.672H31.7778V239.116C31.7778 230.688 35.1258 222.605 41.0853 216.646C47.0448 210.686 55.1276 207.338 63.5556 207.338Z" fill="#163C51"/>
<path fill-rule="evenodd" clip-rule="evenodd" d="M143.018 127.904C149.277 127.904 155.476 126.671 161.259 124.276C167.042 121.88 172.297 118.369 176.723 113.943C181.149 109.517 184.66 104.262 187.056 98.4787C189.451 92.6955 190.684 86.4971 190.684 80.2374C190.684 73.9777 189.451 67.7794 187.056 61.9962C184.66 56.213 181.149 50.9582 176.723 46.532C172.297 42.1057 167.042 38.5946 161.259 36.1992C155.476 33.8037 149.277 32.5707 143.018 32.5707C130.376 32.5707 118.251 37.5928 109.312 46.532C100.373 55.4712 95.351 67.5954 95.351 80.2374C95.351 92.8794 100.373 105.004 109.312 113.943C118.251 122.882 130.376 127.904 143.018 127.904ZM143.018 159.682C164.088 159.682 184.295 151.312 199.193 136.413C214.092 121.514 222.462 101.307 222.462 80.2374C222.462 59.1674 214.092 38.9604 199.193 24.0617C184.295 9.16298 164.088 0.792969 143.018 0.792969C121.948 0.792969 101.741 9.16298 86.842 24.0617C71.9433 38.9604 63.5732 59.1674 63.5732 80.2374C63.5732 101.307 71.9433 121.514 86.842 136.413C101.741 151.312 121.948 159.682 143.018 159.682Z" fill="#163C51"/>
</svg>
