<svg width="570" height="1373" viewBox="0 0 570 1373" fill="none" xmlns="http://www.w3.org/2000/svg">
<g filter="url(#filter0_i_440_6542)">
<path fill-rule="evenodd" clip-rule="evenodd" d="M570 33.2463C570 14.8849 555.115 0 536.754 0H33.2463C14.8849 0 0 14.8849 0 33.2463V1317.62C0 1335.44 14.046 1350.09 31.8477 1350.84L535.355 1372.04C554.249 1372.84 570 1357.73 570 1338.82V435.246C570 416.885 555.115 402 536.754 402H206.945C199.796 402 194 396.204 194 389.055V347.945C194 340.796 199.796 335 206.945 335H536.754C555.115 335 570 320.115 570 301.754V33.2463Z" fill="#163C51"/>
</g>
<defs>
<filter id="filter0_i_440_6542" x="-14.6509" y="0" width="584.651" height="1382.22" filterUnits="userSpaceOnUse" color-interpolation-filters="sRGB">
<feFlood flood-opacity="0" result="BackgroundImageFix"/>
<feBlend mode="normal" in="SourceGraphic" in2="BackgroundImageFix" result="shape"/>
<feColorMatrix in="SourceAlpha" type="matrix" values="0 0 0 0 0 0 0 0 0 0 0 0 0 0 0 0 0 0 127 0" result="hardAlpha"/>
<feOffset dx="-14.6509" dy="10.1429"/>
<feGaussianBlur stdDeviation="31"/>
<feComposite in2="hardAlpha" operator="arithmetic" k2="-1" k3="1"/>
<feColorMatrix type="matrix" values="0 0 0 0 0.230529 0 0 0 0 0.543859 0 0 0 0 0.43106 0 0 0 0.17 0"/>
<feBlend mode="normal" in2="shape" result="effect1_innerShadow_440_6542"/>
</filter>
</defs>
</svg>
