<svg width="694" height="355" viewBox="0 0 694 355" fill="none" xmlns="http://www.w3.org/2000/svg">
<path fill-rule="evenodd" clip-rule="evenodd" d="M0.580078 352.193H691.294C691.294 352.193 601.259 250.119 469.4 155.839C346.126 67.6507 186.53 -13.2296 30.2362 3.09266C20.2457 4.13905 10.3593 5.23825 0.580078 6.38596V352.193Z" fill="#5FC692"/>
<path opacity="0.2" fill-rule="evenodd" clip-rule="evenodd" d="M0.580078 93.2022C3.96265 94.146 7.60165 95.0516 11.5252 95.9106C55.2104 105.475 81.1317 95.8735 107.54 86.0918C130.236 77.6853 153.291 69.1455 188.291 72.5235C225.924 76.1555 250.835 98.3789 274.264 119.28C297.979 140.437 320.176 160.238 352.51 158.033C416.789 153.647 343.485 77.3958 343.485 77.3958C245.966 26.2366 137.221 -8.11322 30.2364 3.09309C20.2483 4.14111 10.3617 5.24209 0.580078 6.39174V93.2022Z" fill="white"/>
<path fill-rule="evenodd" clip-rule="evenodd" d="M0.580078 354.596H693.34C693.34 354.596 583.338 231.717 450.311 142.691C449.027 177.772 443.505 224.764 383.341 225.008C336.434 225.135 308.025 213.607 281.615 202.891C257.516 193.112 235.082 184.009 201.779 185.055C173.387 185.848 138.724 198.25 101.999 211.39C68.8415 223.253 34.0031 235.718 0.580078 240.784V354.596Z" fill="url(#paint0_linear_435_4877)"/>
<defs>
<linearGradient id="paint0_linear_435_4877" x1="368.227" y1="-132.08" x2="-112.629" y2="441.171" gradientUnits="userSpaceOnUse">
<stop offset="0.2997" stop-color="#163C51"/>
<stop offset="1" stop-color="#163C51" stop-opacity="0"/>
</linearGradient>
</defs>
</svg>
