<svg width="32" height="32" viewBox="0 0 32 32" fill="none" xmlns="http://www.w3.org/2000/svg">
<path d="M14.7307 0.0315723C12.4234 0.249239 10.6696 0.740543 8.75416 1.70449C7.2305 2.46322 5.99291 3.3712 4.68069 4.6772C3.28763 6.07648 2.40452 7.30785 1.57117 9.03674C0.588562 11.0641 0.0972579 13.0791 0.0101914 15.3802C-0.0830942 18.0295 0.464181 20.5544 1.6458 22.9301C2.47293 24.603 3.33116 25.7846 4.68069 27.1404C6.0551 28.5086 7.24293 29.3606 8.91586 30.1815C10.085 30.7536 10.8375 31.0335 12.0254 31.332C15.1349 32.1156 18.2631 31.9601 21.2855 30.8904C22.1127 30.5982 23.6052 29.8767 24.308 29.429C28.0518 27.0533 30.6701 23.2783 31.5158 19.0494C31.7522 17.8802 31.8019 17.3267 31.8019 15.9088C31.8019 14.4908 31.7522 13.9373 31.5158 12.7682C30.6949 8.65116 28.1887 4.95705 24.6189 2.59382C23.8042 2.05276 22.0629 1.18831 21.1985 0.889801C19.9298 0.454468 18.63 0.174612 17.3116 0.05023C16.6772 -0.00574112 15.2406 -0.0181789 14.7307 0.0315723ZM17.9024 2.25799C20.9062 2.71198 23.4933 4.01798 25.6451 6.17598C27.8155 8.34021 29.1029 10.9025 29.5755 13.9809C29.7248 14.9573 29.7248 16.8603 29.5755 17.8367C29.2086 20.2372 28.3379 22.3144 26.9013 24.2423C26.3354 25.001 25.0045 26.3319 24.2458 26.8978C21.7333 28.7698 19.0156 29.6777 15.9123 29.6777C12.8152 29.6777 10.085 28.7635 7.5912 26.8978C4.718 24.7398 2.81498 21.5121 2.25526 17.8367C2.09979 16.8479 2.09979 14.951 2.24905 13.9809C2.96424 9.36013 5.72549 5.56652 9.84871 3.53289C11.4408 2.74929 12.896 2.35127 14.9483 2.13983C15.4334 2.09007 17.2618 2.1647 17.9024 2.25799Z" fill="#F85F37"/>
<path d="M15.5831 6.41887C15.2908 6.5246 15.0794 6.71739 14.955 6.98481C14.8679 7.16516 14.8555 7.74353 14.8555 11.6615V16.1392L14.9985 16.3942C15.1042 16.5932 15.7572 17.1467 17.8717 18.8383C19.3767 20.0386 20.6827 21.0585 20.776 21.1082C20.8693 21.158 21.0807 21.1953 21.2486 21.1953C22.0011 21.1953 22.4862 20.3806 22.1504 19.6779C22.0758 19.5224 21.3792 18.9254 19.5135 17.4328L16.9699 15.3992L16.9575 11.22L16.9388 7.03456L16.7647 6.81067C16.4662 6.41887 16.006 6.2634 15.5831 6.41887Z" fill="#F85F37"/>
</svg>
