<svg width="50" height="34" viewBox="0 0 50 34" fill="none" xmlns="http://www.w3.org/2000/svg">
<path d="M2.4935 0.941772C2.52551 0.927698 2.55616 0.921854 2.56756 0.919697C2.58455 0.916483 2.60258 0.913965 2.61994 0.911894C2.65495 0.907711 2.69891 0.903982 2.74967 0.90053C2.85183 0.893583 2.99283 0.88702 3.16863 0.88076C3.52084 0.868221 4.02086 0.856621 4.64662 0.845928C5.89856 0.824532 7.6588 0.80669 9.75737 0.792366C13.9548 0.763718 19.5084 0.749126 25.0625 0.748417C30.6166 0.747704 36.1717 0.760868 40.3719 0.787739C42.4719 0.801174 44.2339 0.818035 45.4879 0.838318C46.1147 0.848454 46.6158 0.859463 46.9691 0.871365C47.1455 0.877308 47.2869 0.883533 47.3895 0.890114C47.4405 0.893387 47.4845 0.896906 47.5194 0.900824C47.5245 0.9014 47.5297 0.90201 47.5349 0.902658C47.5472 0.9042 47.5594 0.905962 47.5711 0.908018C47.5828 0.910093 47.6117 0.915304 47.6418 0.927473L47.6418 0.927435L47.646 0.929213C48.2345 1.17967 48.8238 1.72069 49.1349 2.30517C49.135 2.30536 49.1351 2.30556 49.1352 2.30575L49.3853 2.7718L49.415 2.82717V2.89V16.9523V31.0147V31.0762L49.3864 31.1307L49.1359 31.6089L49.1344 31.6117C48.9629 31.9294 48.696 32.2374 48.4044 32.4848C48.1146 32.7309 47.7811 32.9336 47.4667 33.0206L47.4654 33.0209C47.4299 33.0305 47.3861 33.0339 47.3628 33.0357L47.3624 33.0357C47.3293 33.0382 47.2868 33.0406 47.2365 33.0428C47.1354 33.0473 46.9956 33.0515 46.8205 33.0556C46.4699 33.0637 45.9727 33.0712 45.3504 33.0782C44.1056 33.092 42.3571 33.1036 40.2732 33.1129C36.1052 33.1314 30.5938 33.1406 25.0825 33.1406C19.5712 33.1406 14.0597 33.1314 9.89176 33.1129C7.80786 33.1036 6.05936 33.092 4.81454 33.0782C4.19226 33.0712 3.69504 33.0637 3.34445 33.0556C3.16935 33.0515 3.02952 33.0473 2.92848 33.0428C2.87816 33.0406 2.83571 33.0382 2.80257 33.0357L2.80219 33.0357C2.77888 33.0339 2.73504 33.0305 2.69956 33.0209L2.69956 33.0209L2.69826 33.0206C2.3839 32.9336 2.05032 32.7309 1.76051 32.4848C1.46899 32.2374 1.20206 31.9294 1.03053 31.6117L1.03051 31.6117L1.02905 31.6089L0.778542 31.1307L0.75 31.0762V31.0147V16.9523V2.89V2.82717L0.77971 2.7718L1.02886 2.30751C1.02908 2.30708 1.0293 2.30665 1.02953 2.30623C1.32965 1.73187 1.91867 1.192 2.4935 0.941772ZM2.4935 0.941772C2.49319 0.941908 2.49289 0.942047 2.49258 0.942184L2.59411 1.17064L2.49443 0.94137C2.49412 0.941504 2.49381 0.941637 2.4935 0.941772ZM47.3209 3.26687L47.0893 3.06843L46.8407 2.85534H25.0825H3.32424L3.07563 3.06843L2.84411 3.26687V16.9523V30.6378L3.07563 30.8363L3.32424 31.0494H25.0825H46.8407L47.0893 30.8363L47.3209 30.6378V16.9523V3.26687Z" fill="#163C51" stroke="#163C51" stroke-width="0.5"/>
<path d="M6.51156 6.80538L6.23828 7.02173V16.9508V26.8798L6.51156 27.0962C6.76206 27.3011 7.08088 27.3125 15.4044 27.3125C23.9557 27.3125 24.0354 27.3125 24.3315 27.0734L24.6275 26.8457V16.9508V7.05589L24.3315 6.82816C24.0354 6.58904 23.9557 6.58904 15.4044 6.58904C7.08088 6.58904 6.76206 6.60043 6.51156 6.80538ZM23.0334 16.9508V25.7184H15.4044H7.77546V16.9508V8.18315H15.4044H23.0334V16.9508Z" fill="#163C51"/>
<path d="M14.2993 10.5067C12.2839 11.1671 11.1111 13.0231 11.4299 15.0613C11.5552 15.8015 11.9309 16.6213 12.375 17.0881C12.5344 17.2589 12.671 17.4183 12.671 17.4411C12.671 17.4639 12.3408 17.703 11.9423 17.9649C10.2229 19.0694 9.02734 21.1645 9.02734 23.0661C9.02734 23.5329 9.08428 23.7151 9.27785 23.8973C9.51696 24.125 9.64222 24.125 15.4266 24.125H21.3362L21.6094 23.8403C21.7689 23.6923 21.8941 23.4418 21.8941 23.2824C21.8941 22.77 21.5753 21.3467 21.3362 20.7888C20.8465 19.6387 19.7762 18.4431 18.7287 17.8396L18.1366 17.498L18.4895 17.0881C18.6945 16.8604 18.9905 16.3936 19.15 16.0406C19.4005 15.5168 19.446 15.2549 19.446 14.3895C19.446 13.5014 19.4005 13.285 19.1272 12.7157C18.7059 11.8503 17.943 11.0874 17.1345 10.7231C16.3603 10.3587 15.0508 10.2562 14.2993 10.5067ZM16.4286 12.1805C17.1118 12.488 17.3281 12.6929 17.6356 13.3647C18.4212 15.0272 17.2712 16.849 15.4493 16.849C14.0033 16.849 13.0012 15.8356 13.0012 14.3781C13.0012 12.6132 14.8231 11.4518 16.4286 12.1805ZM17.5103 18.9897C17.943 19.206 18.5465 19.6273 18.8539 19.9348C19.3663 20.4472 19.9698 21.5061 20.1406 22.2121L20.2089 22.5309H15.4266H10.6442L10.7581 22.0982C11.168 20.5952 12.3636 19.3085 13.8438 18.762C14.3107 18.6025 14.6864 18.557 15.586 18.5798C16.6222 18.6025 16.7929 18.6367 17.5103 18.9897Z" fill="#163C51"/>
<path d="M30.7983 11.8631C30.4794 12.2047 30.4794 12.6374 30.8096 12.9448L31.0715 13.1953H37.1064H43.1526L43.3917 12.9334C43.7106 12.5918 43.7106 12.1591 43.3804 11.8517L43.1185 11.6012H37.0836H31.0374L30.7983 11.8631Z" fill="#163C51"/>
<path d="M30.7983 16.4178C30.4794 16.7594 30.4794 17.1921 30.8096 17.4995L31.0715 17.75H37.1064H43.1526L43.3917 17.4881C43.7106 17.1465 43.7106 16.7138 43.3804 16.4064L43.1185 16.1559H37.0836H31.0374L30.7983 16.4178Z" fill="#163C51"/>
<path d="M30.7983 20.9725C30.4794 21.3141 30.4794 21.7467 30.8096 22.0542L31.0715 22.3047H37.1064H43.1526L43.3917 22.0428C43.7106 21.7012 43.7106 21.2685 43.3804 20.9611L43.1185 20.7106H37.0836H31.0374L30.7983 20.9725Z" fill="#163C51"/>
</svg>
