<svg width="36" height="37" viewBox="0 0 36 37" fill="none" xmlns="http://www.w3.org/2000/svg">
<path d="M20.4393 1.84463C19.5572 2.12736 18.6286 2.59325 17.8805 3.12523C16.7879 3.90209 16.8697 3.79962 10.4399 12.4193C6.86318 17.2235 4.34819 20.652 4.31751 20.7761C4.13863 21.4762 4.86355 22.0827 5.57773 21.8375C5.83633 21.7457 6.14505 21.3454 11.8747 13.66C18.0077 5.43213 18.2089 5.17654 19.0585 4.5758C21.1648 3.06793 24.0208 2.84116 26.3312 3.98105C28.9375 5.26523 30.2387 8.0264 29.5599 10.8075C29.2693 12.0269 29.4906 11.6991 21.5963 22.3115C13.6817 32.959 14.0905 32.4466 13.0528 32.9764C10.8595 34.0892 8.1635 33.3701 7.03729 31.3678C6.41219 30.2504 6.36302 28.9759 6.90439 27.8032C7.05738 27.4693 9.03044 24.7774 14.3116 17.6803C22.3264 6.9207 21.6969 7.6923 22.6316 7.51192C23.2543 7.38966 23.7113 7.46031 24.2141 7.74053C24.7789 8.06527 25.0961 8.50469 25.2095 9.11296C25.3755 10.0043 25.8106 9.3437 19.1832 18.2744C15.8507 22.7651 13.2358 26.3431 13.2213 26.4455C13.1266 26.9119 13.4266 27.367 13.912 27.4821C14.2639 27.5661 14.421 27.5431 14.717 27.3633C14.8736 27.2656 16.5902 25.0015 20.5282 19.7188C23.5995 15.5946 26.2888 11.9466 26.5025 11.6139C27.1567 10.6134 27.3456 9.78679 27.1526 8.75092C26.9156 7.44283 26.0427 6.40279 24.7535 5.90766C23.9338 5.58678 23.2709 5.52957 22.3286 5.70515C21.6776 5.82021 21.5131 5.87578 21.0916 6.10386C20.8225 6.24748 20.4456 6.49841 20.2524 6.65279C19.9849 6.87712 18.22 9.20628 12.6323 16.7157C6.24466 25.3088 5.33509 26.5626 5.09542 27.0808C4.32111 28.8079 4.37715 30.6607 5.26323 32.2405C6.28967 34.0682 8.26079 35.2277 10.5355 35.346C11.0519 35.3745 11.3033 35.3526 12.1211 35.194C13.1923 34.9882 13.638 34.8179 14.5065 34.2822C15.5565 33.6379 15.3219 33.9308 23.2527 23.2617C30.0694 14.0838 30.6736 13.2484 30.9668 12.6205C31.4504 11.5707 31.6788 10.6308 31.7363 9.42365C31.7677 8.7261 31.4794 7.17832 31.1964 6.48949C29.906 3.38979 26.8379 1.43141 23.243 1.4095C22.6031 1.40408 21.0539 1.64286 20.4393 1.84463Z" fill="#163C51"/>
</svg>
