<svg width="693" height="354" viewBox="0 0 693 354" fill="none" xmlns="http://www.w3.org/2000/svg">
<path fill-rule="evenodd" clip-rule="evenodd" d="M0.957031 351.198H690.274C690.274 351.198 600.422 249.33 468.829 155.241C345.805 67.2307 186.531 -13.486 30.5531 2.80323C20.5829 3.84751 10.7165 4.94448 0.957031 6.08988V351.198Z" fill="#5FC692"/>
<path opacity="0.2" fill-rule="evenodd" clip-rule="evenodd" d="M0.957031 92.7306C4.33278 93.6724 7.96442 94.5762 11.88 95.4335C55.4769 104.978 81.3459 95.3965 107.701 85.6346C130.351 77.2451 153.36 68.7225 188.289 72.0937C225.846 75.7184 250.706 97.8969 274.088 118.756C297.755 139.87 319.906 159.631 352.176 157.43C416.324 153.054 343.168 76.9561 343.168 76.9561C245.847 25.9003 137.321 -8.38001 30.5534 2.80364C20.5855 3.84954 10.7189 4.9483 0.957031 6.09562V92.7306Z" fill="white"/>
<path fill-rule="evenodd" clip-rule="evenodd" d="M0.957031 353.597H692.317C692.317 353.597 582.536 230.966 449.779 142.121C448.497 177.131 442.986 224.028 382.944 224.271C336.132 224.398 307.78 212.894 281.424 202.199C257.373 192.44 234.985 183.355 201.749 184.399C173.415 185.19 138.822 197.567 102.17 210.681C69.0804 222.52 34.3124 234.96 0.957031 240.016V353.597Z" fill="url(#paint0_linear_435_4655)"/>
<defs>
<linearGradient id="paint0_linear_435_4655" x1="367.86" y1="-132.095" x2="-112.023" y2="439.997" gradientUnits="userSpaceOnUse">
<stop offset="0.2997" stop-color="#163C51"/>
<stop offset="1" stop-color="#163C51" stop-opacity="0"/>
</linearGradient>
</defs>
</svg>
