<svg width="694" height="355" viewBox="0 0 694 355" fill="none" xmlns="http://www.w3.org/2000/svg">
<path fill-rule="evenodd" clip-rule="evenodd" d="M0.224609 352.191H691.287C691.287 352.191 601.208 250.065 469.282 155.738C345.945 67.5047 186.269 -13.4164 29.8957 2.91404C19.9002 3.96096 10.0088 5.06071 0.224609 6.20901V352.191Z" fill="#5FC692"/>
<path opacity="0.2" fill-rule="evenodd" clip-rule="evenodd" d="M0.224609 93.0691C3.60889 94.0134 7.24973 94.9194 11.1752 95.7789C54.8825 105.348 80.817 95.7418 107.239 85.9552C129.946 77.5444 153.013 69.0003 188.031 72.38C225.683 76.0138 250.606 98.2485 274.047 119.16C297.774 140.327 319.982 160.139 352.332 157.932C416.644 153.545 343.302 77.2547 343.302 77.2547C245.735 26.0696 136.934 -8.29749 29.8959 2.91448C19.9028 3.96302 10.0112 5.06456 0.224609 6.21479V93.0691Z" fill="white"/>
<path fill-rule="evenodd" clip-rule="evenodd" d="M0.224609 354.598H693.335C693.335 354.598 583.277 231.656 450.183 142.586C448.898 177.684 443.373 224.7 383.179 224.944C336.249 225.072 307.824 213.538 281.402 202.816C257.29 193.032 234.845 183.924 201.526 184.971C173.119 185.764 138.439 198.173 101.694 211.319C68.5205 223.189 33.6645 235.66 0.224609 240.729V354.598Z" fill="url(#paint0_linear_435_4826)"/>
<defs>
<linearGradient id="paint0_linear_435_4826" x1="368.057" y1="-132.324" x2="-113.042" y2="441.217" gradientUnits="userSpaceOnUse">
<stop offset="0.2997" stop-color="#163C51"/>
<stop offset="1" stop-color="#163C51" stop-opacity="0"/>
</linearGradient>
</defs>
</svg>
