<svg width="699" height="569" viewBox="0 0 699 569" fill="none" xmlns="http://www.w3.org/2000/svg">
<path fill-rule="evenodd" clip-rule="evenodd" d="M0 552.675L698.746 568.706V144.533C642.137 126.975 571.465 106.624 488.173 86.6725C354.637 54.0848 189.237 21.4972 0 0.185547V552.675Z" fill="#5FC692"/>
<path opacity="0.2" fill-rule="evenodd" clip-rule="evenodd" d="M0 148.986C0.106806 148.963 0.213677 148.94 0.320614 148.916C58.1879 136.247 78.269 117.388 94.174 102.451C114.838 83.0448 128.453 70.2585 208.73 86.2678C244.937 93.4885 287.539 105.712 332.702 118.67C464.743 156.555 618.68 200.723 698.745 144.527C642.136 126.969 571.464 106.619 488.172 86.6669C354.648 54.0821 188.94 21.4973 0 0.185547V148.986Z" fill="white"/>
<path fill-rule="evenodd" clip-rule="evenodd" d="M0 557.843L698.746 568.623V144.449C642.137 126.892 571.465 106.541 488.173 86.9883C466.178 241.814 255.605 384.269 118.228 415.394C81.0846 423.763 41.0186 421.585 0 413.81V557.843Z" fill="url(#paint0_linear_435_4601)"/>
<defs>
<linearGradient id="paint0_linear_435_4601" x1="198.244" y1="-215.019" x2="820.91" y2="70.8493" gradientUnits="userSpaceOnUse">
<stop offset="0.2997" stop-color="#163C51"/>
<stop offset="1" stop-color="#163C51" stop-opacity="0"/>
</linearGradient>
</defs>
</svg>
