<svg width="36" height="37" viewBox="0 0 36 37" fill="none" xmlns="http://www.w3.org/2000/svg">
<path d="M20.4393 1.84268C19.5572 2.12541 18.6286 2.5913 17.8805 3.12328C16.7879 3.90014 16.8697 3.79767 10.4399 12.4174C6.86318 17.2215 4.34819 20.6501 4.31751 20.7742C4.13863 21.4743 4.86355 22.0808 5.57773 21.8356C5.83633 21.7438 6.14505 21.3435 11.8747 13.6581C18.0077 5.43018 18.2089 5.17459 19.0585 4.57384C21.1648 3.06598 24.0208 2.83921 26.3312 3.9791C28.9375 5.26327 30.2387 8.02444 29.5599 10.8055C29.2693 12.025 29.4906 11.6971 21.5963 22.3096C13.6817 32.957 14.0905 32.4446 13.0528 32.9745C10.8595 34.0873 8.1635 33.3682 7.03729 31.3658C6.41219 30.2484 6.36302 28.9739 6.90439 27.8012C7.05738 27.4674 9.03044 24.7754 14.3116 17.6783C22.3264 6.91874 21.6969 7.69035 22.6316 7.50997C23.2543 7.38771 23.7113 7.45835 24.2141 7.73858C24.7789 8.06332 25.0961 8.50274 25.2095 9.11101C25.3755 10.0023 25.8106 9.34175 19.1832 18.2725C15.8507 22.7631 13.2358 26.3412 13.2213 26.4436C13.1266 26.9099 13.4266 27.365 13.912 27.4802C14.2639 27.5642 14.421 27.5412 14.717 27.3614C14.8736 27.2636 16.5902 24.9996 20.5282 19.7168C23.5995 15.5926 26.2888 11.9447 26.5025 11.612C27.1567 10.6114 27.3456 9.78484 27.1526 8.74897C26.9156 7.44088 26.0427 6.40083 24.7535 5.90571C23.9338 5.58482 23.2709 5.52762 22.3286 5.70319C21.6776 5.81825 21.5131 5.87382 21.0916 6.10191C20.8225 6.24552 20.4456 6.49646 20.2524 6.65084C19.9849 6.87517 18.22 9.20433 12.6323 16.7137C6.24466 25.3069 5.33509 26.5606 5.09542 27.0789C4.32111 28.806 4.37715 30.6588 5.26323 32.2385C6.28967 34.0663 8.26079 35.2258 10.5355 35.3441C11.0519 35.3725 11.3033 35.3506 12.1211 35.192C13.1923 34.9862 13.638 34.8159 14.5065 34.2802C15.5565 33.6359 15.3219 33.9289 23.2527 23.2597C30.0694 14.0819 30.6736 13.2464 30.9668 12.6185C31.4504 11.5688 31.6788 10.6289 31.7363 9.4217C31.7677 8.72414 31.4794 7.17637 31.1964 6.48754C29.906 3.38784 26.8379 1.42946 23.243 1.40755C22.6031 1.40212 21.0539 1.64091 20.4393 1.84268Z" fill="#163C51"/>
</svg>
