<svg width="207" height="81" viewBox="0 0 207 81" fill="none" xmlns="http://www.w3.org/2000/svg">
<path d="M191.104 55.3116L198.596 47.1484H200.315V65.9988H195.401V57.6209L191.4 61.8099H190.863L186.889 57.6209V65.9988H181.975V47.1484H183.747L191.104 55.3116Z" fill="white"/>
<path d="M177.557 52.3856C178.112 53.6387 178.389 55.0529 178.389 56.6283C178.389 58.2036 178.112 59.6268 177.557 60.8978C177.002 62.1688 176.268 63.1982 175.355 63.9859C174.46 64.7556 173.431 65.3553 172.267 65.785C171.121 66.1967 169.949 66.4026 168.749 66.4026C167.55 66.4026 166.368 66.1967 165.205 65.785C164.059 65.3553 163.03 64.7556 162.117 63.9859C161.222 63.1982 160.497 62.1688 159.942 60.8978C159.387 59.6268 159.109 58.2036 159.109 56.6283C159.109 55.0529 159.387 53.6387 159.942 52.3856C160.497 51.1146 161.222 50.0942 162.117 49.3244C163.03 48.5368 164.059 47.9371 165.205 47.5253C166.368 47.0957 167.55 46.8809 168.749 46.8809C169.949 46.8809 171.121 47.0957 172.267 47.5253C173.431 47.9371 174.46 48.5368 175.355 49.3244C176.268 50.0942 177.002 51.1146 177.557 52.3856ZM164.05 56.6283C164.05 57.7203 164.283 58.6691 164.748 59.4746C165.214 60.2623 165.796 60.8352 166.494 61.1932C167.192 61.5512 167.944 61.7303 168.749 61.7303C169.573 61.7303 170.334 61.5512 171.032 61.1932C171.73 60.8352 172.312 60.2623 172.777 59.4746C173.243 58.6691 173.475 57.7203 173.475 56.6283C173.475 55.5542 173.243 54.6233 172.777 53.8356C172.312 53.0301 171.73 52.4572 171.032 52.1171C170.334 51.7591 169.573 51.58 168.749 51.58C167.944 51.58 167.192 51.7591 166.494 52.1171C165.796 52.4572 165.214 53.0301 164.748 53.8356C164.283 54.6233 164.05 55.5542 164.05 56.6283Z" fill="white"/>
<path d="M142.785 66.053V68.1207H138.811V61.8372H140.717L147.162 46.9609H149.229L155.889 61.8372H157.849V68.1207H153.902V66.053H142.785ZM148.182 54.9898L145.577 61.7835H150.894L148.182 54.9898Z" fill="white"/>
<path d="M120.465 65.3017L124.144 59.3404C123.374 58.8213 122.756 58.15 122.291 57.3265C121.825 56.503 121.53 55.6527 121.405 54.7755C121.297 53.8804 121.36 52.9853 121.593 52.0903C121.825 51.1773 122.201 50.3628 122.72 49.6467C123.257 48.9306 123.991 48.3488 124.922 47.9013C125.871 47.4358 126.936 47.2031 128.118 47.2031H136.361V65.9998H131.555V60.4682H129.058L125.835 65.9998H120.465V65.3017ZM128.118 56.145H131.555V51.4995C131.304 51.4995 130.946 51.4995 130.481 51.4995C130.015 51.4995 129.586 51.4995 129.192 51.4995C128.816 51.4995 128.458 51.4995 128.118 51.4995C127.599 51.4995 127.16 51.6606 126.802 51.9829C126.462 52.3051 126.256 52.6989 126.184 53.1644C126.113 53.6119 126.122 54.0684 126.211 54.5338C126.301 54.9814 126.516 55.3663 126.856 55.6885C127.196 55.9928 127.617 56.145 128.118 56.145Z" fill="white"/>
<path d="M108.48 65.9998H103.674V47.2031H111.944C112.911 47.2031 113.797 47.3642 114.603 47.6865C115.408 48.0087 116.071 48.4383 116.59 48.9754C117.127 49.5124 117.574 50.139 117.932 50.8551C118.308 51.5532 118.532 52.2872 118.604 53.057C118.693 53.8267 118.693 54.5965 118.604 55.3663C118.532 56.136 118.308 56.87 117.932 57.5682C117.574 58.2663 117.127 58.8839 116.59 59.421C116.071 59.958 115.408 60.3877 114.603 60.7099C113.797 61.0321 112.911 61.1932 111.944 61.1932H108.48V65.9998ZM111.918 56.87C112.419 56.87 112.839 56.691 113.18 56.333C113.538 55.957 113.761 55.5095 113.851 54.9903C113.94 54.4533 113.949 53.9252 113.878 53.406C113.806 52.8869 113.591 52.4393 113.233 52.0634C112.893 51.6875 112.455 51.4995 111.918 51.4995C111.577 51.4995 111.21 51.4995 110.817 51.4995C110.441 51.4995 110.011 51.4995 109.528 51.4995C109.062 51.4995 108.713 51.4995 108.48 51.4995V56.87H111.918Z" fill="white"/>
<path d="M201.543 37.9993L200.442 35.6363H193.031L191.93 37.9993H187.23V37.3011L195.689 18.9609H197.757L206.242 37.3011V37.9993H201.543ZM198.884 31.5279L196.709 26.587L194.588 31.5279H198.884Z" fill="white"/>
<path d="M170.988 38.053V40.1207H167.014V33.8372H168.92L175.365 18.9609H177.432L184.092 33.8372H186.052V40.1207H182.105V38.053H170.988ZM176.385 26.9898L173.78 33.7835H179.097L176.385 26.9898Z" fill="white"/>
<path d="M160.575 23.4995V37.9998H155.688V19.2031H167.395V23.4995H160.575Z" fill="white"/>
<path d="M151.32 19.2031V23.4995H144.366V26.1579H150.757V30.4274H144.366V33.7303H151.562V37.9998H139.586V19.2031H151.32Z" fill="white"/>
<path d="M118.182 32.7904C117.627 31.5373 117.35 30.141 117.35 28.6014C117.35 27.0619 117.627 25.6656 118.182 24.4125C118.737 23.1594 119.471 22.1479 120.384 21.3781C121.315 20.6084 122.344 20.0176 123.472 19.6059C124.6 19.1941 125.772 18.9883 126.99 18.9883C129.138 18.9883 131.062 19.5969 132.763 20.8142C134.464 22.0137 135.484 23.7859 135.824 26.131H131.098C130.454 24.2872 129.084 23.3652 126.99 23.3652C125.593 23.3652 124.466 23.8486 123.606 24.8153C122.747 25.7819 122.317 27.044 122.317 28.6014C122.317 30.0336 122.747 31.2598 123.606 32.2802C124.483 33.2827 125.611 33.7929 126.99 33.8108C128.046 33.8108 128.941 33.5512 129.675 33.0321C130.427 32.513 130.928 31.7611 131.179 30.7765H135.905C135.69 32.4592 135.108 33.8824 134.159 35.046C133.228 36.1917 132.154 37.0063 130.937 37.4896C129.72 37.955 128.404 38.1878 126.99 38.1878C125.772 38.1878 124.6 37.9909 123.472 37.597C122.344 37.1853 121.315 36.5945 120.384 35.8248C119.471 35.055 118.737 34.0435 118.182 32.7904Z" fill="white"/>
<path d="M113.951 24.9764C113.951 25.5493 113.817 26.14 113.548 26.7487C113.28 27.3573 112.922 27.8496 112.474 28.2255C113.978 28.9953 114.73 30.2753 114.73 32.0654C114.712 33.784 114.193 35.2072 113.172 36.335C112.152 37.4449 110.72 37.9998 108.876 37.9998H100.068V19.2031H108.097C109.726 19.2031 111.105 19.767 112.233 20.8948C113.378 22.0047 113.951 23.3653 113.951 24.9764ZM108.527 30.5349H104.714V33.7303H108.554C109.162 33.7303 109.583 33.4707 109.816 32.9516C110.066 32.4145 110.066 31.8775 109.816 31.3404C109.565 30.8034 109.136 30.5349 108.527 30.5349ZM107.721 23.4995H104.714V26.5338H107.748C108.357 26.5338 108.777 26.2832 109.01 25.782C109.261 25.2628 109.261 24.7526 109.01 24.2514C108.76 23.7501 108.33 23.4995 107.721 23.4995Z" fill="white"/>
<path d="M73.4824 2.80851C84.5854 9.22115 84.0816 30.8867 72.3556 51.2055C60.6205 71.5244 42.1155 82.7924 31.0033 76.3798C21.6683 70.9931 0.250129 46.0022 7.08417 28.9263C8.38502 25.6833 23.8761 14.7909 27.568 15.423C33.0462 16.3666 38.3137 20.4707 39.3672 18.9133C51.0657 1.7 63.2863 -3.08196 73.4733 2.79934L73.4824 2.80851Z" fill="#31766B"/>
<path d="M55.8746 39.6159C57.4207 36.2728 57.3897 32.9688 55.8055 32.2361C54.2212 31.5034 51.6835 33.6195 50.1374 36.9625C48.5913 40.3056 48.6222 43.6096 50.2065 44.3423C51.7908 45.075 54.3284 42.9589 55.8746 39.6159Z" fill="white"/>
<path d="M57.1766 26.8817C58.4041 20.9454 59.6317 15.0091 60.8593 9.07287C61.0333 8.23007 61.2074 7.37814 61.3814 6.53534C61.528 5.81163 60.4287 5.5093 60.273 6.23301C59.0454 12.1693 57.8178 18.1056 56.5903 24.0418C56.4162 24.8846 56.2422 25.7366 56.0681 26.5794C55.9215 27.3031 57.0208 27.6054 57.1766 26.8817Z" fill="#FDFDFD"/>
<path d="M61.0143 30.6183C65.9521 25.7172 70.8898 20.807 75.8275 15.9059C76.5329 15.2005 77.2475 14.4951 77.9529 13.7897C78.475 13.2676 77.6689 12.4614 77.1467 12.9836C72.209 17.8847 67.2712 22.7949 62.3335 27.696C61.6281 28.4014 60.9136 29.1068 60.2082 29.8122C59.686 30.3343 60.4922 31.1405 61.0143 30.6183Z" fill="#FDFDFD"/>
<path d="M61.3371 38.9698C65.432 37.4032 69.5269 35.8275 73.6218 34.261L75.3716 33.5923C76.0495 33.3266 75.7563 32.2273 75.0693 32.4838C70.9743 34.0503 66.8794 35.626 62.7845 37.1925L61.0348 37.8613C60.3568 38.1269 60.65 39.2263 61.3371 38.9698Z" fill="#FDFDFD"/>
<path d="M50.0936 28.9969C49.1958 24.4073 48.2889 19.8177 47.3911 15.2281C47.2629 14.5685 47.1346 13.8998 46.9972 13.2402C46.8598 12.5165 45.7513 12.8279 45.8887 13.5424C46.7865 18.1321 47.6934 22.7217 48.5912 27.3113C48.7194 27.9709 48.8477 28.6396 48.9851 29.2992C49.1225 30.0229 50.231 29.7114 50.0936 28.9969Z" fill="#FDFDFD"/>
<path d="M58.6702 44.5231C61.3361 45.7507 64.0019 46.9783 66.6585 48.215C67.0341 48.3891 67.4097 48.5631 67.7853 48.7372C68.4541 49.0395 69.0312 48.0593 68.3625 47.7478C65.6966 46.5202 63.0308 45.2926 60.3742 44.0559C59.9986 43.8818 59.623 43.7078 59.2474 43.5337C58.5786 43.2314 58.0015 44.2117 58.6702 44.5231Z" fill="#FDFDFD"/>
<path d="M52.7936 48.8693C53.4806 53.6513 54.1586 58.4241 54.8456 63.2061L55.1388 65.2398C55.2395 65.9635 56.348 65.6613 56.2472 64.9376C55.5602 60.1556 54.8823 55.3827 54.1952 50.6007C54.0944 49.9228 54.0028 49.2449 53.9021 48.567C53.8013 47.8433 52.6928 48.1456 52.7936 48.8693Z" fill="#FDFDFD"/>
<path d="M46.714 49.2594C44.1215 56.011 41.5289 62.7718 38.9364 69.5234C38.5699 70.4852 38.1943 71.4472 37.8279 72.4091C37.5622 73.0961 38.6707 73.3985 38.9364 72.7114C41.5289 65.9598 44.1215 59.199 46.714 52.4475C47.0804 51.4856 47.456 50.5236 47.8225 49.5617C48.0881 48.8747 46.9797 48.5724 46.714 49.2594Z" fill="#FDFDFD"/>
<path d="M43.1128 45.7385C38.5323 50.1816 33.961 54.6154 29.3806 59.0585C28.7302 59.6906 28.0889 60.3135 27.4385 60.9456C26.9072 61.4586 27.7225 62.2648 28.2446 61.7518C32.8251 57.3087 37.3964 52.8749 41.9768 48.4318C42.6273 47.7997 43.2685 47.1768 43.9189 46.5447C44.4503 46.0317 43.635 45.2255 43.1128 45.7385Z" fill="#FDFDFD"/>
<path d="M43.8383 39.8515C39.3953 41.3539 34.9614 42.8563 30.5184 44.3587C29.8863 44.5694 29.2633 44.7801 28.6312 44.9999C27.935 45.2381 28.2373 46.3374 28.9335 46.1084C33.3766 44.606 37.8105 43.1036 42.2535 41.6012C42.8856 41.3905 43.5086 41.1798 44.1407 40.9599C44.8369 40.7218 44.5346 39.6225 43.8383 39.8515Z" fill="#FDFDFD"/>
<path d="M46.3827 34.7676L38.8067 29.8573L37.7257 29.1611C37.1027 28.758 36.5348 29.7474 37.1485 30.1505L44.7246 35.0607L45.8056 35.757C46.4285 36.16 46.9965 35.1707 46.3827 34.7676Z" fill="#FDFDFD"/>
<path d="M72.41 1.61572C74.3888 2.69671 76.0836 4.27239 77.3111 6.14121C78.5753 7.99172 79.4456 10.0895 80.0319 12.2424C81.232 16.5571 81.4152 21.1009 81.0488 25.5531C80.3342 34.485 77.5127 43.1787 73.4635 51.1762C69.3411 59.1371 63.9728 66.5482 57.093 72.5028C53.6485 75.4434 49.7917 78.036 45.3945 79.6392C43.2051 80.427 40.869 80.9766 38.4414 80.995C36.0321 81.0591 33.5495 80.5094 31.3325 79.3918C29.1339 78.2375 27.2467 76.5244 25.8818 74.509C24.4802 72.5119 23.5549 70.2675 22.9136 68.0048C21.6403 63.4518 21.4845 58.7523 21.8785 54.181C22.7579 45.0201 25.7444 36.2439 30.0775 28.2739C34.4014 20.304 40.2369 13.1035 47.3916 7.53363C50.9644 4.76704 54.9219 2.42185 59.2458 1.06603C61.3986 0.378965 63.643 -0.0424123 65.9058 0.00339228C68.1685 0.00339228 70.4221 0.56217 72.41 1.62484V1.61572ZM72.236 1.93633C70.2755 0.965274 68.0861 0.488898 65.9058 0.553024C63.7163 0.589668 61.5727 1.1393 59.539 1.90882C55.4715 3.51198 51.8621 6.10454 48.6466 9.02687C45.4312 11.9767 42.6004 15.3112 40.0812 18.8565C37.5436 22.3926 35.29 26.112 33.3204 29.9779C31.3417 33.8438 29.6561 37.8471 28.3094 41.9512C26.9536 46.0553 25.9551 50.2693 25.4879 54.5291C25.0023 58.7706 25.039 63.1037 26.0558 67.1528C27.036 71.1745 29.2255 74.903 32.7067 76.7901C36.1786 78.6956 40.5667 78.5032 44.5151 77.1199C48.5092 75.7641 52.2194 73.4097 55.5631 70.6706C62.2506 65.1191 67.6555 58.0103 71.8421 50.3059C73.9491 46.4583 75.7721 42.4367 77.2012 38.2776C78.6486 34.1278 79.7296 29.8313 80.2793 25.4615C80.7739 21.0918 80.7739 16.6121 79.6838 12.3248C79.1158 10.1995 78.3097 8.11996 77.0546 6.3061C75.8362 4.47392 74.1689 2.96234 72.236 1.92716V1.93633Z" fill="white"/>
<path d="M8.00839 5.89136C-3.09463 12.304 -2.59078 33.9696 9.13518 54.2885C11.2788 57.9895 25.405 76.98 26.5409 74.7081C27.8967 72.0148 11.9384 53.3082 16.2166 51.0455C19.4962 49.3049 35.7843 80.3879 38.6241 78.9862C41.9587 77.3373 21.2093 46.2269 24.0217 44.4955C25.6615 43.4878 47.6018 79.197 51.4769 76.7693C54.8481 74.6531 29.3716 39.5852 31.3229 38.2019C35.372 35.3254 51.5685 63.6325 55.242 61.1133C58.5491 58.8322 34.4926 30.3327 33.091 25.8713C31.5703 21.0435 53.419 42.6724 51.2204 37.4507C38.8898 8.24573 19.1206 -0.530444 8.01755 5.88219L8.00839 5.89136Z" fill="#F85F37"/>
</svg>
