<svg width="701" height="571" viewBox="0 0 701 571" fill="none" xmlns="http://www.w3.org/2000/svg">
<path fill-rule="evenodd" clip-rule="evenodd" d="M0.230469 554.439L700.746 570.511V145.263C643.993 127.661 573.142 107.259 489.639 87.2567C355.765 54.5865 189.946 21.9164 0.230469 0.550781V554.439Z" fill="#5FC692"/>
<path opacity="0.2" fill-rule="evenodd" clip-rule="evenodd" d="M0.230469 149.728C0.337525 149.705 0.444646 149.682 0.551832 149.658C58.5657 136.957 78.6976 118.05 94.6428 103.076C115.359 83.6199 129.009 70.8011 209.489 86.851C245.788 94.09 288.497 106.344 333.775 119.335C466.15 157.316 620.477 201.596 700.745 145.258C643.992 127.656 573.141 107.253 489.639 87.2511C355.776 54.5838 189.649 21.9165 0.230469 0.550781V149.728Z" fill="white"/>
<path fill-rule="evenodd" clip-rule="evenodd" d="M0.230469 559.621L700.746 570.429V145.181C643.993 127.579 573.143 107.176 489.64 87.5742C467.589 242.792 256.483 385.608 118.758 416.811C81.5205 425.202 41.3529 423.018 0.230469 415.224V559.621Z" fill="url(#paint0_linear_435_4840)"/>
<defs>
<linearGradient id="paint0_linear_435_4840" x1="198.977" y1="-215.198" x2="823.219" y2="71.3944" gradientUnits="userSpaceOnUse">
<stop offset="0.2997" stop-color="#163C51"/>
<stop offset="1" stop-color="#163C51" stop-opacity="0"/>
</linearGradient>
</defs>
</svg>
