<svg width="45" height="50" viewBox="0 0 45 50" fill="none" xmlns="http://www.w3.org/2000/svg">
<path d="M10.7246 20V12.2857C10.7246 9.55777 11.9502 6.94156 14.1316 5.01262C16.3131 3.08367 19.2719 2 22.3569 2C25.442 2 28.4008 3.08367 30.5823 5.01262C32.7637 6.94156 33.9893 9.55777 33.9893 12.2857V20" stroke="#163C51" stroke-width="3" stroke-linecap="round"/>
<path d="M2 20H42.7132V43.1429C42.7132 44.5068 42.1004 45.8149 41.0097 46.7794C39.9189 47.7439 38.4396 48.2857 36.897 48.2857H7.81617C6.27363 48.2857 4.79426 47.7439 3.70352 46.7794C2.61277 45.8149 2 44.5068 2 43.1429V20Z" stroke="#163C51" stroke-width="3" stroke-linejoin="round"/>
<path d="M29.627 34.1445H29.6551V34.1702H29.627V34.1445Z" stroke="#163C51" stroke-width="6" stroke-linejoin="round"/>
</svg>
