<svg width="218" height="20" viewBox="0 0 218 20" fill="none" xmlns="http://www.w3.org/2000/svg">
<path opacity="0.7" d="M1.01367 18.3008H217.592V19.322H1.01367V18.3008Z" fill="#163C51"/>
<path opacity="0.7" d="M212.957 8.27078C214.236 8.27078 215.203 8.53629 215.857 9.06732C216.524 9.58474 216.858 10.3609 216.858 11.3957C216.858 12.2671 216.626 13.0296 216.163 13.6832C215.714 14.3368 215.081 14.8474 214.264 15.215C213.447 15.569 212.48 15.746 211.363 15.746H205.686L207.891 4.75781H211.057L210.363 8.27078H212.957ZM211.363 13.4994C211.826 13.4994 212.228 13.4245 212.569 13.2747C212.909 13.1113 213.174 12.8867 213.365 12.6007C213.556 12.3148 213.651 11.9744 213.651 11.5795C213.651 10.7489 213.106 10.3336 212.017 10.3336H209.954L209.321 13.4994H211.363Z" fill="#163C51"/>
<path opacity="0.7" d="M199.159 15.9088C198.029 15.9088 197.041 15.7045 196.197 15.296C195.367 14.8876 194.72 14.3157 194.257 13.5804C193.794 12.8451 193.562 11.9805 193.562 10.9865C193.562 9.76107 193.848 8.67178 194.42 7.71865C194.992 6.75191 195.782 5.9894 196.79 5.43114C197.797 4.87288 198.955 4.59375 200.262 4.59375C201.433 4.59375 202.447 4.83884 203.305 5.32902C204.163 5.80559 204.796 6.48639 205.204 7.37144L202.508 8.71944C202.277 8.20203 201.95 7.82758 201.528 7.59611C201.119 7.35102 200.629 7.22847 200.057 7.22847C199.431 7.22847 198.873 7.38506 198.383 7.69823C197.892 7.99779 197.504 8.41989 197.218 8.96453C196.933 9.49556 196.79 10.1151 196.79 10.8231C196.79 11.572 197.007 12.1711 197.443 12.6205C197.892 13.0562 198.526 13.274 199.343 13.274C199.901 13.274 200.411 13.1583 200.874 12.9268C201.337 12.6817 201.725 12.3073 202.039 11.8035L204.387 13.274C203.87 14.1046 203.148 14.7514 202.222 15.2143C201.31 15.6773 200.289 15.9088 199.159 15.9088Z" fill="#163C51"/>
<path opacity="0.7" d="M186.296 15.9088C185.153 15.9088 184.159 15.7045 183.314 15.296C182.484 14.8876 181.837 14.3157 181.374 13.5804C180.911 12.8451 180.68 11.9805 180.68 10.9865C180.68 9.76107 180.952 8.67178 181.497 7.71865C182.055 6.75191 182.817 5.9894 183.784 5.43114C184.765 4.87288 185.888 4.59375 187.154 4.59375C188.23 4.59375 189.156 4.79799 189.932 5.20647C190.708 5.60134 191.307 6.1596 191.729 6.88126C192.165 7.5893 192.383 8.44031 192.383 9.43429C192.383 9.72023 192.362 10.0062 192.321 10.2921C192.294 10.578 192.253 10.8504 192.199 11.1091H183.11L183.437 9.25047H190.708L189.401 9.82235C189.51 9.20962 189.476 8.69902 189.299 8.29053C189.122 7.86843 188.836 7.54845 188.441 7.33059C188.046 7.09912 187.569 6.98338 187.011 6.98338C186.317 6.98338 185.724 7.15358 185.234 7.49399C184.758 7.82078 184.397 8.27691 184.152 8.86241C183.907 9.4479 183.784 10.1083 183.784 10.8436C183.784 11.6878 184.016 12.3209 184.479 12.743C184.955 13.1515 185.67 13.3557 186.623 13.3557C187.181 13.3557 187.719 13.2672 188.237 13.0902C188.754 12.9132 189.197 12.6613 189.564 12.3345L190.892 14.4382C190.252 14.942 189.53 15.3165 188.727 15.5616C187.937 15.793 187.127 15.9088 186.296 15.9088Z" fill="#163C51"/>
<path opacity="0.7" d="M172.312 15.746L174.089 6.63684L174.661 7.37211H170.27L170.801 4.75781H181.401L180.87 7.37211H176.397L177.275 6.63684L175.498 15.746H172.312Z" fill="#163C51"/>
<path opacity="0.7" d="M155.441 15.7487L157.647 4.76051H160.833L159.465 11.4392L166.103 4.76051H169.105L166.92 15.7487H163.713L165.102 9.0496L158.464 15.7487H155.441ZM163.57 3.55549C162.345 3.55549 161.467 3.28997 160.936 2.75894C160.404 2.22791 160.234 1.44498 160.425 0.410156H162.488C162.392 0.900338 162.461 1.28159 162.692 1.55391C162.923 1.82624 163.277 1.9624 163.754 1.9624C164.231 1.9624 164.619 1.83304 164.918 1.57434C165.231 1.30201 165.442 0.913953 165.551 0.410156H167.655C167.464 1.47222 167.029 2.26195 166.348 2.77937C165.667 3.29678 164.741 3.55549 163.57 3.55549Z" fill="#163C51"/>
<path opacity="0.7" d="M143.755 19.8717C143.197 19.8717 142.646 19.7832 142.101 19.6062C141.543 19.4292 141.1 19.1977 140.773 18.9118L142.244 16.6243C142.475 16.8285 142.734 16.9919 143.02 17.1145C143.32 17.237 143.646 17.2983 144 17.2983C144.409 17.2983 144.763 17.1962 145.063 16.9919C145.376 16.7877 145.682 16.4405 145.982 15.9503L146.86 14.5614L147.146 14.2346L152.946 4.75781H156.092L148.78 16.4813C148.235 17.3391 147.711 18.0131 147.207 18.5033C146.717 19.0071 146.193 19.3611 145.634 19.5654C145.09 19.7696 144.463 19.8717 143.755 19.8717ZM146.186 16.1749L143.551 4.75781H146.737L148.739 13.9487L146.186 16.1749Z" fill="#163C51"/>
<path opacity="0.7" d="M135.981 15.9088C135.096 15.9088 134.32 15.7386 133.652 15.3982C132.999 15.0578 132.509 14.5335 132.182 13.8255C131.855 13.1038 131.739 12.1779 131.835 11.0478C131.916 9.74065 132.182 8.6037 132.631 7.63696C133.094 6.67021 133.72 5.92132 134.51 5.39029C135.3 4.85926 136.233 4.59375 137.308 4.59375C138.166 4.59375 138.956 4.79118 139.677 5.18605C140.399 5.5673 140.978 6.12556 141.414 6.86084C141.849 7.58249 142.067 8.46754 142.067 9.51598C142.067 10.4283 141.911 11.2793 141.597 12.069C141.284 12.8451 140.848 13.5191 140.29 14.091C139.746 14.6629 139.106 15.1122 138.37 15.439C137.635 15.7522 136.838 15.9088 135.981 15.9088ZM128.158 19.7077L131.14 4.75714H134.163L133.714 6.94253L133.019 10.2104L132.59 13.4783L131.344 19.7077H128.158ZM135.613 13.274C136.253 13.274 136.811 13.1243 137.288 12.8247C137.764 12.5115 138.139 12.0894 138.411 11.5584C138.697 11.0138 138.84 10.3806 138.84 9.65895C138.84 8.91007 138.622 8.31776 138.186 7.88205C137.751 7.44633 137.131 7.22847 136.328 7.22847C135.715 7.22847 135.164 7.38506 134.674 7.69823C134.183 7.99779 133.802 8.41989 133.53 8.96453C133.257 9.49556 133.121 10.1219 133.121 10.8436C133.121 11.5924 133.339 12.1847 133.775 12.6205C134.211 13.0562 134.823 13.274 135.613 13.274Z" fill="#163C51"/>
<path opacity="0.7" d="M114.414 15.746L116.62 4.75781H119.806L118.438 11.4365L125.076 4.75781H128.078L125.892 15.746H122.686L124.075 9.0469L117.437 15.746H114.414Z" fill="#163C51"/>
<path opacity="0.7" d="M107.219 15.9088C106.334 15.9088 105.558 15.7386 104.891 15.3982C104.237 15.0578 103.747 14.5335 103.42 13.8255C103.093 13.1038 102.978 12.1779 103.073 11.0478C103.155 9.74065 103.42 8.6037 103.869 7.63696C104.332 6.67021 104.959 5.92132 105.748 5.39029C106.538 4.85926 107.471 4.59375 108.547 4.59375C109.404 4.59375 110.194 4.79118 110.916 5.18605C111.637 5.5673 112.216 6.12556 112.652 6.86084C113.088 7.58249 113.305 8.46754 113.305 9.51598C113.305 10.4283 113.149 11.2793 112.836 12.069C112.522 12.8451 112.087 13.5191 111.528 14.091C110.984 14.6629 110.344 15.1122 109.609 15.439C108.873 15.7522 108.077 15.9088 107.219 15.9088ZM99.3965 19.7077L102.378 4.75714H105.401L104.952 6.94253L104.257 10.2104L103.829 13.4783L102.583 19.7077H99.3965ZM106.851 13.274C107.491 13.274 108.05 13.1243 108.526 12.8247C109.003 12.5115 109.377 12.0894 109.649 11.5584C109.935 11.0138 110.078 10.3806 110.078 9.65895C110.078 8.91007 109.86 8.31776 109.425 7.88205C108.989 7.44633 108.37 7.22847 107.566 7.22847C106.953 7.22847 106.402 7.38506 105.912 7.69823C105.422 7.99779 105.04 8.41989 104.768 8.96453C104.496 9.49556 104.36 10.1219 104.36 10.8436C104.36 11.5924 104.577 12.1847 105.013 12.6205C105.449 13.0562 106.062 13.274 106.851 13.274Z" fill="#163C51"/>
<path opacity="0.7" d="M91.5912 15.746L93.3681 6.63684L93.94 7.37211H89.5488L90.0798 4.75781H100.68L100.149 7.37211H95.6761L96.5543 6.63684L94.7774 15.746H91.5912Z" fill="#163C51"/>
<path opacity="0.7" d="M82.7369 15.9088C81.6067 15.9088 80.6195 15.7045 79.7753 15.296C78.9448 14.8876 78.298 14.3157 77.8351 13.5804C77.3721 12.8451 77.1406 11.9805 77.1406 10.9865C77.1406 9.76107 77.4266 8.67178 77.9984 7.71865C78.5703 6.75191 79.3601 5.9894 80.3677 5.43114C81.3753 4.87288 82.5326 4.59375 83.8398 4.59375C85.0108 4.59375 86.0252 4.83884 86.883 5.32902C87.7408 5.80559 88.3739 6.48639 88.7824 7.37144L86.0864 8.71944C85.855 8.20203 85.5282 7.82758 85.1061 7.59611C84.6976 7.35102 84.2074 7.22847 83.6355 7.22847C83.0092 7.22847 82.4509 7.38506 81.9607 7.69823C81.4706 7.99779 81.0825 8.41989 80.7966 8.96453C80.5106 9.49556 80.3677 10.1151 80.3677 10.8231C80.3677 11.572 80.5855 12.1711 81.0212 12.6205C81.4706 13.0562 82.1037 13.274 82.9207 13.274C83.4789 13.274 83.9896 13.1583 84.4525 12.9268C84.9154 12.6817 85.3035 12.3073 85.6167 11.8035L87.9655 13.274C87.448 14.1046 86.7264 14.7514 85.8005 15.2143C84.8882 15.6773 83.867 15.9088 82.7369 15.9088Z" fill="#163C51"/>
<path opacity="0.7" d="M69.8745 15.9088C68.7307 15.9088 67.7367 15.7045 66.8925 15.296C66.0619 14.8876 65.4152 14.3157 64.9522 13.5804C64.4893 12.8451 64.2578 11.9805 64.2578 10.9865C64.2578 9.76107 64.5301 8.67178 65.0748 7.71865C65.633 6.75191 66.3955 5.9894 67.3623 5.43114C68.3427 4.87288 69.466 4.59375 70.7323 4.59375C71.808 4.59375 72.7339 4.79799 73.51 5.20647C74.2861 5.60134 74.8852 6.1596 75.3073 6.88126C75.743 7.5893 75.9609 8.44031 75.9609 9.43429C75.9609 9.72023 75.9405 10.0062 75.8996 10.2921C75.8724 10.578 75.8315 10.8504 75.7771 11.1091H66.6883L67.0151 9.25047H74.2861L72.979 9.82235C73.0879 9.20962 73.0538 8.69902 72.8768 8.29053C72.6998 7.86843 72.4139 7.54845 72.019 7.33059C71.6241 7.09912 71.1476 6.98338 70.5893 6.98338C69.8949 6.98338 69.3026 7.15358 68.8124 7.49399C68.3358 7.82078 67.975 8.27691 67.7299 8.86241C67.4848 9.4479 67.3623 10.1083 67.3623 10.8436C67.3623 11.6878 67.5938 12.3209 68.0567 12.743C68.5333 13.1515 69.2481 13.3557 70.2013 13.3557C70.7595 13.3557 71.2974 13.2672 71.8148 13.0902C72.3322 12.9132 72.7747 12.6613 73.1423 12.3345L74.4699 14.4382C73.83 14.942 73.1083 15.3165 72.305 15.5616C71.5152 15.793 70.7051 15.9088 69.8745 15.9088Z" fill="#163C51"/>
<path opacity="0.7" d="M53.9785 15.746L56.1843 4.75781H64.9667L64.4561 7.37211H58.0838L58.9416 6.67769L57.1647 15.746H53.9785Z" fill="#163C51"/>
<path opacity="0.7" d="M46.9155 15.9088C45.7717 15.9088 44.7778 15.7045 43.9336 15.296C43.103 14.8876 42.4562 14.3157 41.9933 13.5804C41.5303 12.8451 41.2988 11.9805 41.2988 10.9865C41.2988 9.76107 41.5712 8.67178 42.1158 7.71865C42.6741 6.75191 43.4366 5.9894 44.4033 5.43114C45.3837 4.87288 46.507 4.59375 47.7733 4.59375C48.849 4.59375 49.7749 4.79799 50.551 5.20647C51.3271 5.60134 51.9262 6.1596 52.3483 6.88126C52.784 7.5893 53.0019 8.44031 53.0019 9.43429C53.0019 9.72023 52.9815 10.0062 52.9406 10.2921C52.9134 10.578 52.8725 10.8504 52.8181 11.1091H43.7293L44.0561 9.25047H51.3271L50.02 9.82235C50.1289 9.20962 50.0949 8.69902 49.9178 8.29053C49.7408 7.86843 49.4549 7.54845 49.06 7.33059C48.6652 7.09912 48.1886 6.98338 47.6303 6.98338C46.9359 6.98338 46.3436 7.15358 45.8534 7.49399C45.3769 7.82078 45.016 8.27691 44.771 8.86241C44.5259 9.4479 44.4033 10.1083 44.4033 10.8436C44.4033 11.6878 44.6348 12.3209 45.0977 12.743C45.5743 13.1515 46.2891 13.3557 47.2423 13.3557C47.8005 13.3557 48.3384 13.2672 48.8558 13.0902C49.3732 12.9132 49.8157 12.6613 50.1834 12.3345L51.5109 14.4382C50.871 14.942 50.1493 15.3165 49.346 15.5616C48.5562 15.793 47.7461 15.9088 46.9155 15.9088Z" fill="#163C51"/>
<path opacity="0.7" d="M33.8596 15.9088C32.9745 15.9088 32.1984 15.7386 31.5312 15.3982C30.8777 15.0578 30.3875 14.5335 30.0607 13.8255C29.7339 13.1038 29.6182 12.1779 29.7135 11.0478C29.7952 9.74065 30.0607 8.6037 30.51 7.63696C30.973 6.67021 31.5993 5.92132 32.389 5.39029C33.1788 4.85926 34.1115 4.59375 35.1872 4.59375C36.045 4.59375 36.8347 4.79118 37.5564 5.18605C38.278 5.5673 38.8567 6.12556 39.2924 6.86084C39.7281 7.58249 39.946 8.46754 39.946 9.51598C39.946 10.4283 39.7894 11.2793 39.4762 12.069C39.1631 12.8451 38.7274 13.5191 38.1691 14.091C37.6244 14.6629 36.9845 15.1122 36.2492 15.439C35.5139 15.7522 34.7174 15.9088 33.8596 15.9088ZM26.0371 19.7077L29.019 4.75714H32.0418L31.5925 6.94253L30.8981 10.2104L30.4692 13.4783L29.2233 19.7077H26.0371ZM33.492 13.274C34.1319 13.274 34.6902 13.1243 35.1667 12.8247C35.6433 12.5115 36.0177 12.0894 36.2901 11.5584C36.576 11.0138 36.719 10.3806 36.719 9.65895C36.719 8.91007 36.5011 8.31776 36.0654 7.88205C35.6297 7.44633 35.0101 7.22847 34.2068 7.22847C33.5941 7.22847 33.0426 7.38506 32.5524 7.69823C32.0623 7.99779 31.681 8.41989 31.4087 8.96453C31.1364 9.49556 31.0002 10.1219 31.0002 10.8436C31.0002 11.5924 31.2181 12.1847 31.6538 12.6205C32.0895 13.0562 32.7022 13.274 33.492 13.274Z" fill="#163C51"/>
<path opacity="0.7" d="M17.5763 15.9088C16.7321 15.9088 15.9492 15.7181 15.2275 15.3369C14.5059 14.942 13.9272 14.3769 13.4915 13.6417C13.0558 12.9064 12.8379 12.0214 12.8379 10.9865C12.8379 10.0606 12.9877 9.20962 13.2872 8.4335C13.6004 7.65738 14.0361 6.98338 14.5944 6.4115C15.1526 5.83963 15.7994 5.3971 16.5347 5.08393C17.2699 4.75714 18.0597 4.59375 18.9039 4.59375C19.8162 4.59375 20.5991 4.76395 21.2527 5.10435C21.9062 5.44476 22.3896 5.97579 22.7028 6.69744C23.0296 7.40548 23.1453 8.32457 23.05 9.45471C22.9819 10.7482 22.7164 11.8852 22.2535 12.8656C21.7905 13.8323 21.1642 14.5812 20.3744 15.1122C19.5983 15.6432 18.6656 15.9088 17.5763 15.9088ZM18.5567 13.274C19.183 13.274 19.7345 13.1243 20.211 12.8247C20.7012 12.5115 21.0825 12.0894 21.3548 11.5584C21.6407 11.0138 21.7837 10.3806 21.7837 9.65895C21.7837 8.91007 21.559 8.31776 21.1097 7.88205C20.674 7.44633 20.0613 7.22847 19.2715 7.22847C18.6588 7.22847 18.1073 7.38506 17.6172 7.69823C17.127 7.99779 16.7389 8.41989 16.453 8.96453C16.1807 9.49556 16.0445 10.1219 16.0445 10.8436C16.0445 11.5924 16.2624 12.1847 16.6981 12.6205C17.1474 13.0562 17.7669 13.274 18.5567 13.274ZM20.7421 15.7454L21.171 13.56L21.8858 10.2921L22.3147 7.02423L22.7641 4.75714H25.9502L23.7648 15.7454H20.7421Z" fill="#163C51"/>
<path opacity="0.7" d="M5.13876 15.9514C3.51844 15.9514 2.01385 15.577 0.625 14.8281L1.68706 12.6835C2.15001 12.9422 2.69466 13.1465 3.321 13.2963C3.94734 13.4324 4.59411 13.5005 5.2613 13.5005C5.83318 13.5005 6.31655 13.446 6.71142 13.3371C7.10629 13.2146 7.41265 13.0512 7.63051 12.8469C7.84837 12.6291 7.95729 12.3772 7.95729 12.0912C7.95729 11.7781 7.82794 11.5398 7.56924 11.3764C7.31053 11.213 6.92927 11.1313 6.42548 11.1313H4.17882L4.48518 9.15014H6.3642C6.96331 9.15014 7.43307 9.04802 7.77348 8.84377C8.1275 8.63953 8.3045 8.36721 8.3045 8.02681C8.3045 7.70002 8.15473 7.44812 7.85517 7.27111C7.56923 7.0941 7.11309 7.0056 6.48675 7.0056C5.96933 7.0056 5.45192 7.07368 4.93451 7.20984C4.4171 7.346 3.8316 7.55705 3.17802 7.84299L2.50403 5.45335C3.19845 5.1538 3.9133 4.92914 4.64857 4.77936C5.38385 4.62958 6.09869 4.55469 6.79311 4.55469C7.7054 4.55469 8.50875 4.67723 9.20317 4.92233C9.91121 5.16742 10.4627 5.51463 10.8575 5.96396C11.2524 6.39968 11.4498 6.91709 11.4498 7.5162C11.4498 8.03361 11.2933 8.50337 10.9801 8.92547C10.6805 9.34757 10.2584 9.68798 9.71378 9.94668C9.16913 10.2054 8.54279 10.3552 7.83475 10.396L7.75305 9.80371C8.74703 9.87179 9.53677 10.1305 10.1223 10.5798C10.7214 11.0156 11.0209 11.6079 11.0209 12.3567C11.0209 13.0375 10.7622 13.6503 10.2448 14.1949C9.74101 14.7396 9.04659 15.1685 8.16154 15.4816C7.2901 15.7948 6.28251 15.9514 5.13876 15.9514Z" fill="#163C51"/>
</svg>
