<svg width="33" height="34" viewBox="0 0 33 34" fill="none" xmlns="http://www.w3.org/2000/svg">
<path d="M12.4159 0.0277138C6.30702 0.682541 1.41305 5.16294 0.206788 11.2029C-0.0689292 12.5901 -0.0689292 14.9337 0.206788 16.3209C0.758221 19.078 2.05926 21.5336 3.98928 23.4636C5.97099 25.4454 8.3232 26.7033 11.1665 27.2978C12.4934 27.5822 14.949 27.5822 16.3104 27.3064C17.8613 26.9963 19.507 26.3759 20.6788 25.6608C20.9976 25.4712 21.2905 25.3075 21.3164 25.3075C21.3508 25.3075 23.0224 26.9532 25.0385 28.9521C29.2001 33.0965 29.0967 33.019 30.2944 33.0103C31.156 33.0103 31.673 32.8036 32.233 32.2435C32.7931 31.6835 32.9999 31.1665 32.9999 30.3049C32.9999 29.09 33.086 29.202 28.9244 25.0232C25.3832 21.4733 25.2626 21.3355 25.3746 21.1459C26.2965 19.6898 26.9513 18.0527 27.296 16.3036C27.5717 14.9509 27.5717 12.5901 27.296 11.2029C26.1845 5.61959 21.9281 1.34598 16.3793 0.234501C15.5349 0.0621758 13.2086 -0.0584488 12.4159 0.0277138ZM15.2161 4.24101C17.2409 4.54258 19.0848 5.48174 20.5581 6.9551C23.4273 9.82428 24.2028 14.1754 22.4968 17.7942C21.9626 18.9229 21.4025 19.7242 20.5581 20.5686C17.689 23.4292 13.3378 24.2133 9.73625 22.5159C6.73783 21.0942 4.71304 18.4146 4.23053 15.2266C3.60155 11.1167 5.64358 7.11019 9.34853 5.1974C11.1838 4.24963 13.1655 3.92221 15.2161 4.24101Z" fill="#F85F37"/>
</svg>
