<svg width="284" height="23" viewBox="0 0 284 23" fill="none" xmlns="http://www.w3.org/2000/svg">
<path d="M271.196 18V4.75H273.596V14.4L281.721 4.75H283.896V18H281.496V8.35L273.396 18H271.196Z" fill="#163C51" fill-opacity="0.67"/>
<path d="M265.855 18L260.73 11.55L262.705 10.35L268.68 18H265.855ZM256.255 18V4.75H258.655V18H256.255ZM257.93 12.4V10.35H262.305V12.4H257.93ZM262.905 11.65L260.68 11.35L265.755 4.75H268.33L262.905 11.65Z" fill="#163C51" fill-opacity="0.67"/>
<path d="M240.898 18V4.75H247.048C248.598 4.75 249.815 5.05 250.698 5.65C251.598 6.23333 252.048 7.06667 252.048 8.15C252.048 9.23333 251.623 10.075 250.773 10.675C249.94 11.2583 248.832 11.55 247.448 11.55L247.823 10.9C249.407 10.9 250.582 11.1917 251.348 11.775C252.115 12.3583 252.498 13.2167 252.498 14.35C252.498 15.5 252.065 16.4 251.198 17.05C250.348 17.6833 249.04 18 247.273 18H240.898ZM243.248 16.15H247.098C248.098 16.15 248.848 16 249.348 15.7C249.848 15.3833 250.098 14.8833 250.098 14.2C250.098 13.5 249.865 12.9917 249.398 12.675C248.948 12.3417 248.232 12.175 247.248 12.175H243.248V16.15ZM243.248 10.45H246.848C247.765 10.45 248.457 10.2833 248.923 9.95C249.407 9.6 249.648 9.11667 249.648 8.5C249.648 7.86667 249.407 7.39167 248.923 7.075C248.457 6.75833 247.765 6.6 246.848 6.6H243.248V10.45Z" fill="#163C51" fill-opacity="0.67"/>
<path d="M234.066 18V13.35L234.441 13.8H230.216C228.449 13.8 227.066 13.425 226.066 12.675C225.082 11.925 224.591 10.8333 224.591 9.4C224.591 7.86667 225.116 6.70833 226.166 5.925C227.232 5.14167 228.649 4.75 230.416 4.75H236.216V18H234.066ZM224.466 18L228.066 12.925H230.541L227.041 18H224.466ZM234.066 12.6V6.175L234.441 6.85H230.491C229.391 6.85 228.541 7.05833 227.941 7.475C227.341 7.875 227.041 8.54167 227.041 9.475C227.041 11.2083 228.157 12.075 230.391 12.075H234.441L234.066 12.6Z" fill="#163C51" fill-opacity="0.67"/>
<path d="M218.994 18V15.2L218.869 14.675V9.9C218.869 8.88333 218.569 8.1 217.969 7.55C217.386 6.98333 216.502 6.7 215.319 6.7C214.536 6.7 213.769 6.83333 213.019 7.1C212.269 7.35 211.636 7.69167 211.119 8.125L210.119 6.325C210.802 5.775 211.619 5.35833 212.569 5.075C213.536 4.775 214.544 4.625 215.594 4.625C217.411 4.625 218.811 5.06667 219.794 5.95C220.777 6.83333 221.269 8.18333 221.269 10V18H218.994ZM214.644 18.15C213.661 18.15 212.794 17.9833 212.044 17.65C211.311 17.3167 210.744 16.8583 210.344 16.275C209.944 15.675 209.744 15 209.744 14.25C209.744 13.5333 209.911 12.8833 210.244 12.3C210.594 11.7167 211.152 11.25 211.919 10.9C212.702 10.55 213.752 10.375 215.069 10.375H219.269V12.1H215.169C213.969 12.1 213.161 12.3 212.744 12.7C212.327 13.1 212.119 13.5833 212.119 14.15C212.119 14.8 212.377 15.325 212.894 15.725C213.411 16.1083 214.127 16.3 215.044 16.3C215.944 16.3 216.727 16.1 217.394 15.7C218.077 15.3 218.569 14.7167 218.869 13.95L219.344 15.6C219.027 16.3833 218.469 17.0083 217.669 17.475C216.869 17.925 215.861 18.15 214.644 18.15Z" fill="#163C51" fill-opacity="0.67"/>
<path d="M201.146 18.1753C200.146 18.1753 199.162 18.0503 198.195 17.8003C197.245 17.5336 196.396 17.1586 195.646 16.6753L196.37 14.8503C197.004 15.2503 197.729 15.567 198.545 15.8003C199.362 16.017 200.187 16.1253 201.021 16.1253C201.787 16.1253 202.445 16.0336 202.995 15.8503C203.562 15.667 203.995 15.417 204.295 15.1003C204.595 14.767 204.745 14.3836 204.745 13.9503C204.745 13.3336 204.47 12.8586 203.92 12.5253C203.37 12.192 202.604 12.0253 201.62 12.0253H199.221V10.3003H201.471C202.054 10.3003 202.562 10.2336 202.995 10.1003C203.429 9.96698 203.762 9.76698 203.995 9.50031C204.245 9.21698 204.37 8.89198 204.37 8.52531C204.37 8.12531 204.229 7.78365 203.945 7.50031C203.662 7.21698 203.262 7.00031 202.745 6.85031C202.245 6.70031 201.654 6.62531 200.971 6.62531C200.304 6.64198 199.62 6.73364 198.92 6.90031C198.237 7.06698 197.537 7.32531 196.82 7.67531L196.17 5.80031C196.97 5.41698 197.754 5.12531 198.521 4.92531C199.304 4.70865 200.079 4.59198 200.846 4.57531C201.996 4.54198 203.02 4.67531 203.92 4.97531C204.82 5.25865 205.529 5.67531 206.045 6.22531C206.579 6.77531 206.846 7.42531 206.846 8.17531C206.846 8.80865 206.645 9.37531 206.245 9.87531C205.845 10.3586 205.312 10.742 204.646 11.0253C203.979 11.3086 203.212 11.4503 202.346 11.4503L202.445 10.8753C203.929 10.8753 205.095 11.167 205.945 11.7503C206.795 12.3336 207.221 13.1253 207.221 14.1253C207.221 14.9253 206.954 15.6336 206.42 16.2503C205.887 16.8503 205.162 17.3253 204.245 17.6753C203.345 18.0086 202.312 18.1753 201.146 18.1753Z" fill="#163C51" fill-opacity="0.67"/>
<path d="M180.759 18.15C179.342 18.15 178.092 17.8583 177.009 17.275C175.942 16.6917 175.109 15.8917 174.509 14.875C173.925 13.8583 173.634 12.6917 173.634 11.375C173.634 10.0583 173.917 8.89167 174.484 7.875C175.067 6.85833 175.859 6.06667 176.859 5.5C177.875 4.91667 179.017 4.625 180.284 4.625C181.567 4.625 182.701 4.90833 183.684 5.475C184.667 6.04167 185.434 6.84167 185.984 7.875C186.55 8.89167 186.834 10.0833 186.834 11.45C186.834 11.55 186.826 11.6667 186.809 11.8C186.809 11.9333 186.8 12.0583 186.784 12.175H175.509V10.45H185.534L184.559 11.05C184.576 10.2 184.4 9.44167 184.034 8.775C183.667 8.10833 183.159 7.59167 182.509 7.225C181.875 6.84167 181.134 6.65 180.284 6.65C179.45 6.65 178.709 6.84167 178.059 7.225C177.409 7.59167 176.9 8.11667 176.534 8.8C176.167 9.46667 175.984 10.2333 175.984 11.1V11.5C175.984 12.3833 176.184 13.175 176.584 13.875C177 14.5583 177.576 15.0917 178.309 15.475C179.042 15.8583 179.884 16.05 180.834 16.05C181.617 16.05 182.325 15.9167 182.959 15.65C183.609 15.3833 184.175 14.9833 184.659 14.45L185.984 16C185.384 16.7 184.634 17.2333 183.734 17.6C182.85 17.9667 181.859 18.15 180.759 18.15Z" fill="#163C51" fill-opacity="0.67"/>
<path d="M167.792 18V4.75H170.192V18H167.792ZM160.667 9.25C162.351 9.26667 163.626 9.65 164.492 10.4C165.376 11.15 165.817 12.2083 165.817 13.575C165.817 15.0083 165.334 16.1167 164.367 16.9C163.417 17.6667 162.051 18.0417 160.267 18.025L154.692 18V4.75H157.092V9.225L160.667 9.25ZM160.092 16.2C161.159 16.2167 161.976 16 162.542 15.55C163.109 15.1 163.392 14.4333 163.392 13.55C163.392 12.6833 163.109 12.05 162.542 11.65C161.992 11.25 161.176 11.0417 160.092 11.025L157.092 10.975V16.175L160.092 16.2Z" fill="#163C51" fill-opacity="0.67"/>
<path d="M137.676 18V4.75H140.076V10.375H147.626V4.75H150.026V18H147.626V12.45H140.076V18H137.676Z" fill="#163C51" fill-opacity="0.67"/>
<path d="M120.659 18V4.75H123.059V10.375H130.609V4.75H133.009V18H130.609V12.45H123.059V18H120.659Z" fill="#163C51" fill-opacity="0.67"/>
<path d="M110.861 18.15C109.445 18.15 108.195 17.8583 107.111 17.275C106.045 16.6917 105.211 15.8917 104.611 14.875C104.028 13.8583 103.736 12.6917 103.736 11.375C103.736 10.0583 104.02 8.89167 104.586 7.875C105.17 6.85833 105.961 6.06667 106.961 5.5C107.978 4.91667 109.12 4.625 110.386 4.625C111.67 4.625 112.803 4.90833 113.786 5.475C114.77 6.04167 115.536 6.84167 116.086 7.875C116.653 8.89167 116.936 10.0833 116.936 11.45C116.936 11.55 116.928 11.6667 116.911 11.8C116.911 11.9333 116.903 12.0583 116.886 12.175H105.611V10.45H115.636L114.661 11.05C114.678 10.2 114.503 9.44167 114.136 8.775C113.77 8.10833 113.261 7.59167 112.611 7.225C111.978 6.84167 111.236 6.65 110.386 6.65C109.553 6.65 108.811 6.84167 108.161 7.225C107.511 7.59167 107.003 8.11667 106.636 8.8C106.27 9.46667 106.086 10.2333 106.086 11.1V11.5C106.086 12.3833 106.286 13.175 106.686 13.875C107.103 14.5583 107.678 15.0917 108.411 15.475C109.145 15.8583 109.986 16.05 110.936 16.05C111.72 16.05 112.428 15.9167 113.061 15.65C113.711 15.3833 114.278 14.9833 114.761 14.45L116.086 16C115.486 16.7 114.736 17.2333 113.836 17.6C112.953 17.9667 111.961 18.15 110.861 18.15Z" fill="#163C51" fill-opacity="0.67"/>
<path d="M90.2258 15.9L89.6758 16.525V4.75H92.0758V16.525L91.4758 15.9H98.4758L97.9008 16.525V4.75H100.301V18H81.4258V4.75H83.8258V16.525L83.2508 15.9H90.2258Z" fill="#163C51" fill-opacity="0.67"/>
<path d="M71.2389 18.15C70.1389 18.15 69.1305 17.9 68.2139 17.4C67.3139 16.8833 66.5888 16.125 66.0388 15.125C65.5055 14.125 65.2389 12.875 65.2389 11.375C65.2389 9.875 65.4972 8.625 66.0139 7.625C66.5472 6.625 67.2638 5.875 68.1638 5.375C69.0805 4.875 70.1055 4.625 71.2389 4.625C72.5389 4.625 73.6888 4.90833 74.6888 5.475C75.6888 6.04167 76.4805 6.83333 77.0638 7.85C77.6472 8.85 77.9388 10.025 77.9388 11.375C77.9388 12.725 77.6472 13.9083 77.0638 14.925C76.4805 15.9417 75.6888 16.7333 74.6888 17.3C73.6888 17.8667 72.5389 18.15 71.2389 18.15ZM64.2139 22.85V4.75H66.5139V8.325L66.3639 11.4L66.6139 14.475V22.85H64.2139ZM71.0388 16.05C71.8888 16.05 72.6472 15.8583 73.3138 15.475C73.9972 15.0917 74.5305 14.55 74.9138 13.85C75.3138 13.1333 75.5139 12.3083 75.5139 11.375C75.5139 10.425 75.3138 9.60833 74.9138 8.925C74.5305 8.225 73.9972 7.68333 73.3138 7.3C72.6472 6.91667 71.8888 6.725 71.0388 6.725C70.2055 6.725 69.4472 6.91667 68.7639 7.3C68.0972 7.68333 67.5638 8.225 67.1638 8.925C66.7805 9.60833 66.5889 10.425 66.5889 11.375C66.5889 12.3083 66.7805 13.1333 67.1638 13.85C67.5638 14.55 68.0972 15.0917 68.7639 15.475C69.4472 15.8583 70.2055 16.05 71.0388 16.05Z" fill="#163C51" fill-opacity="0.67"/>
<path d="M54.416 18.15C52.9993 18.15 51.7493 17.8583 50.666 17.275C49.5993 16.6917 48.766 15.8917 48.166 14.875C47.5827 13.8583 47.291 12.6917 47.291 11.375C47.291 10.0583 47.5744 8.89167 48.141 7.875C48.7244 6.85833 49.516 6.06667 50.516 5.5C51.5327 4.91667 52.6743 4.625 53.941 4.625C55.2243 4.625 56.3577 4.90833 57.341 5.475C58.3243 6.04167 59.091 6.84167 59.641 7.875C60.2077 8.89167 60.491 10.0833 60.491 11.45C60.491 11.55 60.4827 11.6667 60.466 11.8C60.466 11.9333 60.4577 12.0583 60.441 12.175H49.166V10.45H59.191L58.216 11.05C58.2327 10.2 58.0577 9.44167 57.691 8.775C57.3243 8.10833 56.816 7.59167 56.166 7.225C55.5327 6.84167 54.791 6.65 53.941 6.65C53.1077 6.65 52.366 6.84167 51.716 7.225C51.066 7.59167 50.5577 8.11667 50.191 8.8C49.8243 9.46667 49.641 10.2333 49.641 11.1V11.5C49.641 12.3833 49.841 13.175 50.241 13.875C50.6577 14.5583 51.2327 15.0917 51.966 15.475C52.6993 15.8583 53.541 16.05 54.491 16.05C55.2743 16.05 55.9827 15.9167 56.616 15.65C57.266 15.3833 57.8327 14.9833 58.316 14.45L59.641 16C59.041 16.7 58.291 17.2333 57.391 17.6C56.5077 17.9667 55.516 18.15 54.416 18.15Z" fill="#163C51" fill-opacity="0.67"/>
<path d="M33.1592 18V4.75H39.3092C40.8592 4.75 42.0758 5.05 42.9592 5.65C43.8592 6.23333 44.3092 7.06667 44.3092 8.15C44.3092 9.23333 43.8842 10.075 43.0342 10.675C42.2008 11.2583 41.0925 11.55 39.7092 11.55L40.0842 10.9C41.6675 10.9 42.8425 11.1917 43.6092 11.775C44.3758 12.3583 44.7592 13.2167 44.7592 14.35C44.7592 15.5 44.3258 16.4 43.4592 17.05C42.6092 17.6833 41.3008 18 39.5342 18H33.1592ZM35.5092 16.15H39.3592C40.3592 16.15 41.1092 16 41.6092 15.7C42.1092 15.3833 42.3592 14.8833 42.3592 14.2C42.3592 13.5 42.1258 12.9917 41.6592 12.675C41.2092 12.3417 40.4925 12.175 39.5092 12.175H35.5092V16.15ZM35.5092 10.45H39.1092C40.0258 10.45 40.7175 10.2833 41.1842 9.95C41.6675 9.6 41.9092 9.11667 41.9092 8.5C41.9092 7.86667 41.6675 7.39167 41.1842 7.075C40.7175 6.75833 40.0258 6.6 39.1092 6.6H35.5092V10.45Z" fill="#163C51" fill-opacity="0.67"/>
<path d="M26.5625 18V15.2L26.4375 14.675V9.9C26.4375 8.88333 26.1375 8.1 25.5375 7.55C24.9541 6.98333 24.0708 6.7 22.8875 6.7C22.1041 6.7 21.3375 6.83333 20.5875 7.1C19.8375 7.35 19.2042 7.69167 18.6875 8.125L17.6875 6.325C18.3708 5.775 19.1875 5.35833 20.1375 5.075C21.1041 4.775 22.1125 4.625 23.1625 4.625C24.9791 4.625 26.3792 5.06667 27.3625 5.95C28.3458 6.83333 28.8375 8.18333 28.8375 10V18H26.5625ZM22.2125 18.15C21.2292 18.15 20.3625 17.9833 19.6125 17.65C18.8792 17.3167 18.3125 16.8583 17.9125 16.275C17.5125 15.675 17.3125 15 17.3125 14.25C17.3125 13.5333 17.4792 12.8833 17.8125 12.3C18.1625 11.7167 18.7208 11.25 19.4875 10.9C20.2708 10.55 21.3208 10.375 22.6375 10.375H26.8375V12.1H22.7375C21.5375 12.1 20.7292 12.3 20.3125 12.7C19.8958 13.1 19.6875 13.5833 19.6875 14.15C19.6875 14.8 19.9458 15.325 20.4625 15.725C20.9792 16.1083 21.6958 16.3 22.6125 16.3C23.5125 16.3 24.2958 16.1 24.9625 15.7C25.6458 15.3 26.1375 14.7167 26.4375 13.95L26.9125 15.6C26.5958 16.3833 26.0375 17.0083 25.2375 17.475C24.4375 17.925 23.4292 18.15 22.2125 18.15Z" fill="#163C51" fill-opacity="0.67"/>
<path d="M0.873047 16.0995L1.74805 14.2495C2.51471 14.8495 3.3564 15.2995 4.27307 15.5995C5.2064 15.8995 6.1314 16.0578 7.04807 16.0745C7.96473 16.0745 8.80639 15.9495 9.57306 15.6995C10.3564 15.4495 10.9814 15.0745 11.4481 14.5745C11.9147 14.0745 12.1481 13.4578 12.1481 12.7245C12.1481 11.8245 11.7814 11.1412 11.0481 10.6745C10.3314 10.2078 9.3314 9.9745 8.04807 9.9745H4.14807V7.9495H7.87305C8.98971 7.9495 9.85639 7.7245 10.4731 7.2745C11.1064 6.80783 11.4231 6.16616 11.4231 5.3495C11.4231 4.73283 11.2314 4.21616 10.8481 3.7995C10.4814 3.36616 9.97306 3.04116 9.32306 2.8245C8.68973 2.60783 7.96474 2.4995 7.14807 2.4995C6.34807 2.48283 5.52307 2.59116 4.67307 2.8245C3.82306 3.04116 3.00639 3.39116 2.22305 3.8745L1.42307 1.8245C2.48973 1.2245 3.59805 0.80783 4.74805 0.574497C5.91471 0.324497 7.03971 0.249498 8.12305 0.349498C9.20638 0.432831 10.1814 0.682831 11.0481 1.0995C11.9314 1.4995 12.6314 2.03283 13.1481 2.6995C13.6814 3.3495 13.9481 4.13283 13.9481 5.0495C13.9481 5.88283 13.7314 6.6245 13.2981 7.2745C12.8647 7.90783 12.2647 8.3995 11.498 8.7495C10.7314 9.08283 9.83973 9.2495 8.82306 9.2495L8.92307 8.5745C10.0897 8.5745 11.0981 8.76616 11.9481 9.1495C12.8147 9.51616 13.4814 10.0412 13.9481 10.7245C14.4314 11.4078 14.6731 12.1995 14.6731 13.0995C14.6731 13.9495 14.4564 14.7078 14.0231 15.3745C13.5897 16.0245 12.998 16.5745 12.248 17.0245C11.5147 17.4578 10.6731 17.7745 9.72305 17.9745C8.78972 18.1745 7.8064 18.2412 6.77307 18.1745C5.73974 18.1078 4.71473 17.9078 3.69806 17.5745C2.69806 17.2412 1.75638 16.7495 0.873047 16.0995Z" fill="#163C51" fill-opacity="0.67"/>
</svg>
