<svg width="49" height="35" viewBox="0 0 49 35" fill="none" xmlns="http://www.w3.org/2000/svg">
<path d="M2.41406 6.637C2.41406 5.45485 2.93751 4.32111 3.86926 3.4852C4.801 2.6493 6.06472 2.17969 7.3824 2.17969H42.1608C43.4785 2.17969 44.7422 2.6493 45.6739 3.4852C46.6057 4.32111 47.1291 5.45485 47.1291 6.637V28.9236C47.1291 30.1057 46.6057 31.2394 45.6739 32.0753C44.7422 32.9113 43.4785 33.3809 42.1608 33.3809H7.3824C6.06472 33.3809 4.801 32.9113 3.86926 32.0753C2.93751 31.2394 2.41406 30.1057 2.41406 28.9236V6.637Z" stroke="#163C51" stroke-width="3.06363" stroke-linecap="round" stroke-linejoin="round"/>
<path d="M2.41406 6.63672L24.7716 20.0086L47.1291 6.63672" stroke="#163C51" stroke-width="3.06363" stroke-linecap="round" stroke-linejoin="round"/>
</svg>
