<svg width="409" height="33" viewBox="0 0 409 33" fill="none" xmlns="http://www.w3.org/2000/svg">
<path d="M390.225 25.9999V6.91992H393.681V20.8159L405.381 6.91992H408.513V25.9999H405.057V12.1039L393.393 25.9999H390.225Z" fill="#F85F37"/>
<path d="M382.533 25.9999L375.153 16.7119L377.997 14.9839L386.601 25.9999H382.533ZM368.709 25.9999V6.91992H372.165V25.9999H368.709ZM371.121 17.9359V14.9839H377.421V17.9359H371.121ZM378.285 16.8559L375.081 16.4239L382.389 6.91992H386.097L378.285 16.8559Z" fill="#F85F37"/>
<path d="M346.596 25.9999V6.91992H355.452C357.684 6.91992 359.436 7.35192 360.708 8.21592C362.004 9.05592 362.652 10.2559 362.652 11.8159C362.652 13.3759 362.04 14.5879 360.816 15.4519C359.616 16.2919 358.02 16.7119 356.028 16.7119L356.568 15.7759C358.848 15.7759 360.54 16.1959 361.644 17.0359C362.748 17.8759 363.3 19.1119 363.3 20.7439C363.3 22.3999 362.676 23.6959 361.428 24.6319C360.204 25.5439 358.32 25.9999 355.776 25.9999H346.596ZM349.98 23.3359H355.524C356.964 23.3359 358.044 23.1199 358.764 22.6879C359.484 22.2319 359.844 21.5119 359.844 20.5279C359.844 19.5199 359.508 18.7879 358.836 18.3319C358.188 17.8519 357.156 17.6119 355.74 17.6119H349.98V23.3359ZM349.98 15.1279H355.164C356.484 15.1279 357.48 14.8879 358.152 14.4079C358.848 13.9039 359.196 13.2079 359.196 12.3199C359.196 11.4079 358.848 10.7239 358.152 10.2679C357.48 9.81192 356.484 9.58392 355.164 9.58392H349.98V15.1279Z" fill="#F85F37"/>
<path d="M336.756 25.9999V19.3039L337.296 19.9519H331.212C328.668 19.9519 326.676 19.4119 325.236 18.3319C323.82 17.2519 323.112 15.6799 323.112 13.6159C323.112 11.4079 323.868 9.73992 325.38 8.61192C326.916 7.48392 328.956 6.91992 331.5 6.91992H339.852V25.9999H336.756ZM322.932 25.9999L328.116 18.6919H331.68L326.64 25.9999H322.932ZM336.756 18.2239V8.97192L337.296 9.94392H331.608C330.024 9.94392 328.8 10.2439 327.936 10.8439C327.072 11.4199 326.64 12.3799 326.64 13.7239C326.64 16.2199 328.248 17.4679 331.464 17.4679H337.296L336.756 18.2239Z" fill="#F85F37"/>
<path d="M315.052 26.0002V21.9682L314.872 21.2122V14.3362C314.872 12.8722 314.44 11.7442 313.576 10.9522C312.736 10.1362 311.464 9.72823 309.76 9.72823C308.632 9.72823 307.528 9.92023 306.448 10.3042C305.368 10.6642 304.456 11.1562 303.712 11.7802L302.272 9.18824C303.256 8.39624 304.432 7.79624 305.8 7.38824C307.192 6.95623 308.644 6.74023 310.156 6.74023C312.772 6.74023 314.788 7.37623 316.204 8.64823C317.62 9.92023 318.328 11.8642 318.328 14.4802V26.0002H315.052ZM308.788 26.2162C307.372 26.2162 306.124 25.9762 305.044 25.4962C303.988 25.0162 303.172 24.3562 302.596 23.5162C302.02 22.6522 301.732 21.6802 301.732 20.6002C301.732 19.5682 301.972 18.6322 302.452 17.7922C302.956 16.9522 303.76 16.2802 304.864 15.7762C305.992 15.2722 307.504 15.0202 309.4 15.0202H315.448V17.5042H309.544C307.816 17.5042 306.652 17.7922 306.052 18.3682C305.452 18.9442 305.152 19.6402 305.152 20.4562C305.152 21.3922 305.524 22.1482 306.268 22.7242C307.012 23.2762 308.044 23.5522 309.364 23.5522C310.66 23.5522 311.788 23.2642 312.748 22.6882C313.732 22.1122 314.44 21.2722 314.872 20.1682L315.556 22.5442C315.1 23.6722 314.296 24.5722 313.144 25.2442C311.992 25.8922 310.54 26.2162 308.788 26.2162Z" fill="#F85F37"/>
<path d="M289.35 26.2514C287.91 26.2514 286.494 26.0714 285.102 25.7114C283.734 25.3274 282.51 24.7874 281.43 24.0914L282.474 21.4634C283.386 22.0394 284.43 22.4954 285.606 22.8314C286.782 23.1434 287.97 23.2994 289.17 23.2994C290.274 23.2994 291.222 23.1674 292.014 22.9034C292.83 22.6394 293.454 22.2794 293.886 21.8234C294.318 21.3434 294.534 20.7914 294.534 20.1674C294.534 19.2794 294.138 18.5954 293.346 18.1154C292.554 17.6354 291.45 17.3954 290.034 17.3954H286.578V14.9114H289.818C290.658 14.9114 291.39 14.8154 292.014 14.6234C292.638 14.4314 293.118 14.1434 293.454 13.7594C293.814 13.3514 293.994 12.8834 293.994 12.3554C293.994 11.7794 293.79 11.2874 293.382 10.8794C292.974 10.4714 292.398 10.1594 291.654 9.94336C290.934 9.72736 290.082 9.61936 289.098 9.61936C288.138 9.64336 287.154 9.77536 286.146 10.0154C285.162 10.2554 284.154 10.6274 283.122 11.1314L282.186 8.43136C283.338 7.87936 284.466 7.45936 285.57 7.17136C286.698 6.85936 287.814 6.69136 288.918 6.66736C290.574 6.61936 292.05 6.81136 293.346 7.24336C294.642 7.65136 295.662 8.25136 296.406 9.04336C297.174 9.83536 297.558 10.7714 297.558 11.8514C297.558 12.7634 297.27 13.5794 296.694 14.2994C296.118 14.9954 295.35 15.5474 294.39 15.9554C293.43 16.3634 292.326 16.5674 291.078 16.5674L291.222 15.7394C293.358 15.7394 295.038 16.1594 296.262 16.9994C297.486 17.8394 298.098 18.9794 298.098 20.4194C298.098 21.5714 297.714 22.5914 296.946 23.4794C296.178 24.3434 295.134 25.0274 293.814 25.5314C292.518 26.0114 291.03 26.2514 289.35 26.2514Z" fill="#F85F37"/>
<path d="M259.992 26.2162C257.952 26.2162 256.152 25.7962 254.592 24.9562C253.056 24.1162 251.856 22.9642 250.992 21.5002C250.152 20.0362 249.732 18.3562 249.732 16.4602C249.732 14.5642 250.14 12.8842 250.956 11.4202C251.796 9.95623 252.936 8.81624 254.376 8.00024C255.84 7.16023 257.484 6.74023 259.308 6.74023C261.156 6.74023 262.788 7.14823 264.204 7.96423C265.62 8.78024 266.724 9.93224 267.516 11.4202C268.332 12.8842 268.74 14.6002 268.74 16.5682C268.74 16.7122 268.728 16.8802 268.704 17.0722C268.704 17.2642 268.692 17.4442 268.668 17.6122H252.432V15.1282H266.868L265.464 15.9922C265.488 14.7682 265.236 13.6762 264.708 12.7162C264.18 11.7562 263.448 11.0122 262.512 10.4842C261.6 9.93223 260.532 9.65623 259.308 9.65623C258.108 9.65623 257.04 9.93223 256.104 10.4842C255.168 11.0122 254.436 11.7682 253.908 12.7522C253.38 13.7122 253.116 14.8162 253.116 16.0642V16.6402C253.116 17.9122 253.404 19.0522 253.98 20.0602C254.58 21.0442 255.408 21.8122 256.464 22.3642C257.52 22.9162 258.732 23.1922 260.1 23.1922C261.228 23.1922 262.248 23.0002 263.16 22.6162C264.096 22.2322 264.912 21.6562 265.608 20.8882L267.516 23.1202C266.652 24.1282 265.572 24.8962 264.276 25.4242C263.004 25.9522 261.576 26.2162 259.992 26.2162Z" fill="#F85F37"/>
<path d="M241.323 25.9999V6.91992H244.779V25.9999H241.323ZM231.063 13.3999C233.487 13.4239 235.323 13.9759 236.571 15.0559C237.843 16.1359 238.479 17.6599 238.479 19.6279C238.479 21.6919 237.783 23.2879 236.391 24.4159C235.023 25.5199 233.055 26.0599 230.487 26.0359L222.459 25.9999V6.91992H225.915V13.3639L231.063 13.3999ZM230.235 23.4079C231.771 23.4319 232.947 23.1199 233.763 22.4719C234.579 21.8239 234.987 20.8639 234.987 19.5919C234.987 18.3439 234.579 17.4319 233.763 16.8559C232.971 16.2799 231.795 15.9799 230.235 15.9559L225.915 15.8839V23.3719L230.235 23.4079Z" fill="#F85F37"/>
<path d="M197.955 25.9999V6.91992H201.411V15.0199H212.283V6.91992H215.739V25.9999H212.283V18.0079H201.411V25.9999H197.955Z" fill="#F85F37"/>
<path d="M173.451 25.9999V6.91992H176.907V15.0199H187.779V6.91992H191.235V25.9999H187.779V18.0079H176.907V25.9999H173.451Z" fill="#F85F37"/>
<path d="M159.34 26.2162C157.3 26.2162 155.5 25.7962 153.94 24.9562C152.404 24.1162 151.204 22.9642 150.34 21.5002C149.5 20.0362 149.08 18.3562 149.08 16.4602C149.08 14.5642 149.488 12.8842 150.304 11.4202C151.144 9.95623 152.284 8.81624 153.724 8.00024C155.188 7.16023 156.832 6.74023 158.656 6.74023C160.504 6.74023 162.136 7.14823 163.552 7.96423C164.968 8.78024 166.072 9.93224 166.864 11.4202C167.68 12.8842 168.088 14.6002 168.088 16.5682C168.088 16.7122 168.076 16.8802 168.052 17.0722C168.052 17.2642 168.04 17.4442 168.016 17.6122H151.78V15.1282H166.216L164.812 15.9922C164.836 14.7682 164.584 13.6762 164.056 12.7162C163.528 11.7562 162.796 11.0122 161.86 10.4842C160.948 9.93223 159.88 9.65623 158.656 9.65623C157.456 9.65623 156.388 9.93223 155.452 10.4842C154.516 11.0122 153.784 11.7682 153.256 12.7522C152.728 13.7122 152.464 14.8162 152.464 16.0642V16.6402C152.464 17.9122 152.752 19.0522 153.328 20.0602C153.928 21.0442 154.756 21.8122 155.812 22.3642C156.868 22.9162 158.08 23.1922 159.448 23.1922C160.576 23.1922 161.596 23.0002 162.508 22.6162C163.444 22.2322 164.26 21.6562 164.956 20.8882L166.864 23.1202C166 24.1282 164.92 24.8962 163.624 25.4242C162.352 25.9522 160.924 26.2162 159.34 26.2162Z" fill="#F85F37"/>
<path d="M129.627 22.9759L128.835 23.8759V6.91992H132.291V23.8759L131.427 22.9759H141.507L140.679 23.8759V6.91992H144.135V25.9999H116.955V6.91992H120.411V23.8759L119.583 22.9759H129.627Z" fill="#F85F37"/>
<path d="M102.286 26.2162C100.702 26.2162 99.2499 25.8562 97.9299 25.1362C96.6339 24.3922 95.5899 23.3002 94.7979 21.8602C94.0299 20.4202 93.6459 18.6202 93.6459 16.4602C93.6459 14.3002 94.0179 12.5002 94.7619 11.0602C95.5299 9.62023 96.5619 8.54023 97.8579 7.82024C99.1779 7.10023 100.654 6.74023 102.286 6.74023C104.158 6.74023 105.814 7.14823 107.254 7.96423C108.694 8.78024 109.834 9.92023 110.674 11.3842C111.514 12.8242 111.934 14.5162 111.934 16.4602C111.934 18.4042 111.514 20.1082 110.674 21.5722C109.834 23.0362 108.694 24.1762 107.254 24.9922C105.814 25.8082 104.158 26.2162 102.286 26.2162ZM92.1699 32.9842V6.92023H95.4819V12.0682L95.2659 16.4962L95.6259 20.9242V32.9842H92.1699ZM101.998 23.1922C103.222 23.1922 104.314 22.9162 105.274 22.3642C106.258 21.8122 107.026 21.0322 107.578 20.0242C108.154 18.9922 108.442 17.8042 108.442 16.4602C108.442 15.0922 108.154 13.9162 107.578 12.9322C107.026 11.9242 106.258 11.1442 105.274 10.5922C104.314 10.0402 103.222 9.76423 101.998 9.76423C100.798 9.76423 99.7059 10.0402 98.7219 10.5922C97.7619 11.1442 96.9939 11.9242 96.4179 12.9322C95.8659 13.9162 95.5899 15.0922 95.5899 16.4602C95.5899 17.8042 95.8659 18.9922 96.4179 20.0242C96.9939 21.0322 97.7619 21.8122 98.7219 22.3642C99.7059 22.9162 100.798 23.1922 101.998 23.1922Z" fill="#F85F37"/>
<path d="M78.0588 26.2162C76.0188 26.2162 74.2188 25.7962 72.6588 24.9562C71.1228 24.1162 69.9228 22.9642 69.0588 21.5002C68.2188 20.0362 67.7988 18.3562 67.7988 16.4602C67.7988 14.5642 68.2068 12.8842 69.0228 11.4202C69.8628 9.95623 71.0028 8.81624 72.4428 8.00024C73.9068 7.16023 75.5508 6.74023 77.3748 6.74023C79.2228 6.74023 80.8548 7.14823 82.2708 7.96423C83.6868 8.78024 84.7908 9.93224 85.5828 11.4202C86.3988 12.8842 86.8068 14.6002 86.8068 16.5682C86.8068 16.7122 86.7948 16.8802 86.7708 17.0722C86.7708 17.2642 86.7588 17.4442 86.7348 17.6122H70.4988V15.1282H84.9348L83.5308 15.9922C83.5548 14.7682 83.3028 13.6762 82.7748 12.7162C82.2468 11.7562 81.5148 11.0122 80.5788 10.4842C79.6668 9.93223 78.5988 9.65623 77.3748 9.65623C76.1748 9.65623 75.1068 9.93223 74.1708 10.4842C73.2348 11.0122 72.5028 11.7682 71.9748 12.7522C71.4468 13.7122 71.1828 14.8162 71.1828 16.0642V16.6402C71.1828 17.9122 71.4708 19.0522 72.0468 20.0602C72.6468 21.0442 73.4748 21.8122 74.5308 22.3642C75.5868 22.9162 76.7988 23.1922 78.1668 23.1922C79.2948 23.1922 80.3148 23.0002 81.2268 22.6162C82.1628 22.2322 82.9788 21.6562 83.6748 20.8882L85.5828 23.1202C84.7188 24.1282 83.6388 24.8962 82.3428 25.4242C81.0708 25.9522 79.6428 26.2162 78.0588 26.2162Z" fill="#F85F37"/>
<path d="M47.4512 25.9999V6.91992H56.3072C58.5392 6.91992 60.2912 7.35192 61.5632 8.21592C62.8592 9.05592 63.5072 10.2559 63.5072 11.8159C63.5072 13.3759 62.8952 14.5879 61.6712 15.4519C60.4712 16.2919 58.8752 16.7119 56.8832 16.7119L57.4232 15.7759C59.7032 15.7759 61.3952 16.1959 62.4992 17.0359C63.6032 17.8759 64.1552 19.1119 64.1552 20.7439C64.1552 22.3999 63.5312 23.6959 62.2832 24.6319C61.0592 25.5439 59.1752 25.9999 56.6312 25.9999H47.4512ZM50.8352 23.3359H56.3792C57.8192 23.3359 58.8992 23.1199 59.6192 22.6879C60.3392 22.2319 60.6992 21.5119 60.6992 20.5279C60.6992 19.5199 60.3632 18.7879 59.6912 18.3319C59.0432 17.8519 58.0112 17.6119 56.5952 17.6119H50.8352V23.3359ZM50.8352 15.1279H56.0192C57.3392 15.1279 58.3352 14.8879 59.0072 14.4079C59.7032 13.9039 60.0512 13.2079 60.0512 12.3199C60.0512 11.4079 59.7032 10.7239 59.0072 10.2679C58.3352 9.81192 57.3392 9.58392 56.0192 9.58392H50.8352V15.1279Z" fill="#F85F37"/>
<path d="M37.9509 26.0002V21.9682L37.7709 21.2122V14.3362C37.7709 12.8722 37.3389 11.7442 36.4749 10.9522C35.6349 10.1362 34.3629 9.72823 32.6589 9.72823C31.5309 9.72823 30.4269 9.92023 29.3469 10.3042C28.2669 10.6642 27.3549 11.1562 26.6109 11.7802L25.1709 9.18824C26.1549 8.39624 27.3309 7.79624 28.6989 7.38824C30.0909 6.95623 31.5429 6.74023 33.0549 6.74023C35.6709 6.74023 37.6869 7.37623 39.1029 8.64823C40.5189 9.92023 41.2269 11.8642 41.2269 14.4802V26.0002H37.9509ZM31.6869 26.2162C30.2709 26.2162 29.0229 25.9762 27.9429 25.4962C26.8869 25.0162 26.0709 24.3562 25.4949 23.5162C24.9189 22.6522 24.6309 21.6802 24.6309 20.6002C24.6309 19.5682 24.8709 18.6322 25.3509 17.7922C25.8549 16.9522 26.6588 16.2802 27.7628 15.7762C28.8908 15.2722 30.4029 15.0202 32.2989 15.0202H38.3469V17.5042H32.4429C30.7149 17.5042 29.5509 17.7922 28.9509 18.3682C28.3509 18.9442 28.0509 19.6402 28.0509 20.4562C28.0509 21.3922 28.4229 22.1482 29.1669 22.7242C29.9109 23.2762 30.9429 23.5522 32.2629 23.5522C33.5589 23.5522 34.6869 23.2642 35.6469 22.6882C36.6309 22.1122 37.3389 21.2722 37.7709 20.1682L38.4549 22.5442C37.9989 23.6722 37.1949 24.5722 36.0429 25.2442C34.8909 25.8922 33.4389 26.2162 31.6869 26.2162Z" fill="#F85F37"/>
<path d="M0.869141 23.2519L2.13425 20.5771C3.24273 21.4446 4.45965 22.0953 5.785 22.529C7.13446 22.9628 8.47186 23.1917 9.79721 23.2158C11.1226 23.2158 12.3395 23.0351 13.448 22.6736C14.5805 22.3121 15.4842 21.77 16.1589 21.047C16.8336 20.3241 17.171 19.4325 17.171 18.3722C17.171 17.071 16.6409 16.083 15.5806 15.4083C14.5444 14.7335 13.0985 14.3962 11.243 14.3962H5.60428V11.4683H10.99C12.6045 11.4683 13.8576 11.143 14.7492 10.4924C15.6649 9.81766 16.1228 8.88991 16.1228 7.70914C16.1228 6.81754 15.8457 6.07052 15.2914 5.46809C14.7613 4.84156 14.0263 4.37166 13.0865 4.05839C12.1708 3.74513 11.1226 3.58849 9.9418 3.58849C8.78513 3.5644 7.59231 3.72103 6.36334 4.05839C5.13438 4.37166 3.95359 4.8777 2.82101 5.57653L1.66434 2.61255C3.20657 1.74505 4.80905 1.14261 6.47177 0.805248C8.15859 0.443788 9.78517 0.335349 11.3515 0.479933C12.9178 0.60042 14.3275 0.96188 15.5806 1.56431C16.8577 2.14265 17.8698 2.91377 18.6169 3.87766C19.388 4.81746 19.7735 5.95004 19.7735 7.27539C19.7735 8.48026 19.4602 9.55259 18.8337 10.4924C18.2072 11.4081 17.3397 12.119 16.2312 12.625C15.1227 13.107 13.8335 13.3479 12.3636 13.3479L12.5082 12.372C14.195 12.372 15.6529 12.6491 16.8818 13.2033C18.1349 13.7335 19.0988 14.4926 19.7735 15.4805C20.4724 16.4685 20.8217 17.6132 20.8217 18.9144C20.8217 20.1434 20.5085 21.2398 19.882 22.2037C19.2554 23.1435 18.4 23.9387 17.3156 24.5893C16.2553 25.2159 15.0384 25.6737 13.6648 25.9629C12.3154 26.2521 10.8936 26.3485 9.3996 26.2521C7.90556 26.1557 6.42358 25.8665 4.95364 25.3846C3.5078 24.9026 2.1463 24.1917 0.869141 23.2519Z" fill="#F85F37"/>
</svg>
