<svg width="37" height="46" viewBox="0 0 37 46" fill="none" xmlns="http://www.w3.org/2000/svg">
<path d="M16.1406 0.126375C11.2962 0.941343 7.48589 4.11177 6.20455 8.40526C5.95727 9.23017 5.91231 9.5979 5.90107 10.9098C5.88983 12.6192 6.01347 13.3646 6.54174 14.6865C8.03664 18.4731 11.4873 21.1367 16.0057 22.0013C17.849 22.3492 20.4566 22.2001 22.4124 21.6336C27.6951 20.0931 31.2806 15.4319 30.9771 10.4626C30.6849 5.69201 26.8409 1.51778 21.6256 0.315208C20.1981 -0.0127659 17.5343 -0.102215 16.1406 0.126375ZM21.2322 3.54527C23.6375 4.26085 25.4696 5.70195 26.5262 7.67974C27.1893 8.93201 27.3467 9.57802 27.3467 11.0589C27.3467 12.6192 27.1893 13.2454 26.4025 14.6467C25.2898 16.6444 23.379 18.0457 20.8163 18.7216C19.9733 18.9402 19.6137 18.98 18.4222 18.98C17.2308 18.98 16.8711 18.9402 16.0282 18.7216C13.1957 17.9762 11.1276 16.3264 10.0598 13.951C9.39666 12.5 9.26178 10.5719 9.72262 9.07115C10.5768 6.24857 13.0496 4.11177 16.3429 3.34649C16.9723 3.19741 17.4444 3.1676 18.647 3.19741C20.0071 3.22723 20.2768 3.25704 21.2322 3.54527Z" fill="#163C51"/>
<path d="M17.0547 23.7698C12.9284 24.1671 9.06099 26.1634 6.10004 29.431C2.48302 33.4137 0.523438 38.7471 0.523438 44.597V45.918H1.89601H3.25994L3.31174 44.1004C3.41533 40.9818 3.87285 38.8365 4.97781 36.3734C8.14594 29.3118 15.0433 25.5873 21.7508 27.3055C27.8108 28.8649 32.4206 34.4466 33.4651 41.4983C33.5342 41.9849 33.6205 43.1867 33.6464 44.1501L33.6982 45.918H35.0621H36.4347V44.6864C36.4347 37.5056 33.5428 31.1691 28.4669 27.2062C25.2383 24.6835 20.948 23.3924 17.0547 23.7698Z" fill="#163C51"/>
<line x1="0.523437" y1="44.5" x2="36.1177" y2="44.5" stroke="#163C51" stroke-width="3"/>
</svg>
