<svg width="54" height="35" viewBox="0 0 54 35" fill="none" xmlns="http://www.w3.org/2000/svg">
<path d="M2 6.70067C2 5.54307 2.57968 4.43288 3.61153 3.61434C4.64337 2.79579 6.04285 2.33594 7.5021 2.33594H46.0168C47.4761 2.33594 48.8755 2.79579 49.9074 3.61434C50.9392 4.43288 51.5189 5.54307 51.5189 6.70067V28.5243C51.5189 29.6819 50.9392 30.7921 49.9074 31.6107C48.8755 32.4292 47.4761 32.8891 46.0168 32.8891H7.5021C6.04285 32.8891 4.64337 32.4292 3.61153 31.6107C2.57968 30.7921 2 29.6819 2 28.5243V6.70067Z" stroke="#163C51" stroke-width="3" stroke-linecap="round" stroke-linejoin="round"/>
<path d="M2 6.70117L26.7595 19.7954L51.5189 6.70117" stroke="#163C51" stroke-width="3" stroke-linecap="round" stroke-linejoin="round"/>
</svg>
