<svg width="45" height="53" viewBox="0 0 45 53" fill="none" xmlns="http://www.w3.org/2000/svg">
<path d="M11.3293 15.8642L15.4689 9.07365C16.9327 6.67235 19.4154 4.88359 22.3708 4.10087C25.3261 3.31816 28.5121 3.60561 31.2278 4.89999C33.9435 6.19437 35.9664 8.38965 36.8516 11.0029C37.7368 13.6161 37.4117 16.4333 35.9479 18.8346L34.2313 22.502" stroke="#163C51" stroke-width="3" stroke-linecap="round"/>
<path d="M2 23.0273H42.7132V46.1702C42.7132 47.5342 42.1004 48.8423 41.0097 49.8067C39.9189 50.7712 38.4396 51.3131 36.897 51.3131H7.81617C6.27363 51.3131 4.79426 50.7712 3.70352 49.8067C2.61277 48.8423 2 47.5342 2 46.1702V23.0273Z" stroke="#163C51" stroke-width="3" stroke-linejoin="round"/>
<path d="M29.627 37.1719H29.6551V37.1976H29.627V37.1719Z" stroke="#163C51" stroke-width="6" stroke-linejoin="round"/>
</svg>
