<svg width="41" height="54" viewBox="0 0 41 54" fill="none" xmlns="http://www.w3.org/2000/svg">
<path d="M10.8386 16.2355L14.5766 9.30085C15.8984 6.84861 18.1402 5.02191 20.8089 4.2226C23.4776 3.42328 26.3545 3.71683 28.8067 5.03866C31.2589 6.3605 33.0856 8.60234 33.885 11.271C34.6843 13.9397 34.3907 16.8166 33.0689 19.2688L31.5189 23.014" stroke="#163C51" stroke-width="3.06363" stroke-linecap="round"/>
<path d="M2.41406 23.5508H39.1776V47.1845C39.1776 48.5774 38.6243 49.9133 37.6394 50.8982C36.6545 51.8831 35.3186 52.4365 33.9257 52.4365H7.666C6.2731 52.4365 4.93725 51.8831 3.95232 50.8982C2.96739 49.9133 2.41406 48.5774 2.41406 47.1845V23.5508Z" stroke="#163C51" stroke-width="3.06363" stroke-linejoin="round"/>
<path d="M27.3613 37.9922H27.387V38.0179H27.3613V37.9922Z" stroke="#163C51" stroke-width="6.12726" stroke-linejoin="round"/>
</svg>
