<svg width="30" height="40" viewBox="0 0 30 40" fill="none" xmlns="http://www.w3.org/2000/svg">
<path d="M13.1717 0.107155C6.62547 0.88858 1.3424 5.85062 0.174565 12.2974C-0.000213186 13.2976 -0.0558245 15.1183 0.0633426 16.0482C0.547955 19.8616 3.2888 25.7144 7.57086 32.0674C9.77943 35.3416 12.1469 38.2563 13.41 39.2643C14.7686 40.3427 15.5153 40.2568 16.9771 38.8658C18.431 37.4827 20.3694 35.0368 22.427 31.9893C26.7329 25.5972 29.434 19.8694 29.9425 16.0482C30.0537 15.1808 29.9981 13.2663 29.8233 12.2974C29.2195 8.97632 27.4797 5.90533 24.9692 3.72515C21.7279 0.912022 17.4379 -0.400772 13.1717 0.107155ZM17.2234 2.52957C19.7338 2.96717 22.0298 4.16275 23.9047 5.9991C25.7716 7.83545 26.8441 9.78901 27.4082 12.3599C27.6386 13.4383 27.6624 15.5637 27.4479 16.5483C26.6773 20.0726 24.1271 25.2378 20.5124 30.5905C18.7885 33.1458 16.3416 36.2637 15.277 37.2639L14.991 37.5374L14.2522 36.795C10.4627 32.9504 5.02864 24.1281 3.22524 18.9004C2.53407 16.8765 2.31957 15.6888 2.39107 14.1415C2.66118 8.16364 7.39609 3.17034 13.5054 2.41236C14.3237 2.31077 16.3336 2.3811 17.2234 2.52957Z" fill="#F85F37"/>
<path d="M13.2333 6.39466C10.1743 7.05529 7.768 9.163 6.72213 12.1122C6.10876 13.8267 6.09304 15.9816 6.67495 17.759C7.39841 19.9454 9.20706 21.9666 11.3303 22.9496C13.7287 24.0586 16.5046 24.0114 18.8951 22.8317C19.8702 22.3519 20.5229 21.8565 21.3407 21.0071C22.5439 19.7566 23.2516 18.4039 23.6134 16.658C23.7942 15.8165 23.7942 14.275 23.6212 13.3706C22.9843 10.036 20.4836 7.36201 17.2202 6.4969C16.1586 6.21378 14.2791 6.16659 13.2333 6.39466ZM16.4731 8.75404C19.3748 9.44613 21.3801 11.9707 21.3879 14.9278C21.3879 16.3434 21.0812 17.3815 20.3027 18.5533C19.3355 20.0161 17.8335 20.9914 16.0642 21.2981C15.1992 21.4475 14.806 21.4475 13.941 21.2981C12.1717 20.9914 10.6697 20.0161 9.70247 18.5533C8.92397 17.3736 8.60942 16.3355 8.61728 14.9278C8.63301 11.9785 10.6225 9.46185 13.4928 8.75404C14.3342 8.54956 15.6238 8.54956 16.4731 8.75404Z" fill="#F85F37"/>
</svg>
