<svg width="701" height="571" viewBox="0 0 701 571" fill="none" xmlns="http://www.w3.org/2000/svg">
<path fill-rule="evenodd" clip-rule="evenodd" d="M0.583984 554.452L700.746 570.516V145.483C644.022 127.89 573.206 107.498 489.746 87.5059C355.939 54.8522 190.204 22.1985 0.583984 0.84375V554.452Z" fill="#5FC692"/>
<path opacity="0.2" fill-rule="evenodd" clip-rule="evenodd" d="M0.583984 149.946C0.690991 149.923 0.798063 149.899 0.9052 149.876C58.8897 137.181 79.0115 118.284 94.9487 103.317C115.655 83.8709 129.297 71.0586 209.737 87.1004C246.018 94.3357 288.705 106.584 333.96 119.568C466.268 157.53 620.518 201.788 700.745 145.478C644.02 127.884 573.205 107.492 489.745 87.5002C355.95 54.8494 189.907 22.1987 0.583984 0.84375V149.946Z" fill="white"/>
<path fill-rule="evenodd" clip-rule="evenodd" d="M0.583984 559.632L700.746 570.435V145.402C644.022 127.809 573.207 107.417 489.746 87.8242C467.707 242.963 256.707 385.707 119.052 416.895C81.833 425.282 41.6857 423.099 0.583984 415.308V559.632Z" fill="url(#paint0_linear_435_4851)"/>
<defs>
<linearGradient id="paint0_linear_435_4851" x1="199.23" y1="-214.795" x2="823.157" y2="71.6527" gradientUnits="userSpaceOnUse">
<stop offset="0.2997" stop-color="#163C51"/>
<stop offset="1" stop-color="#163C51" stop-opacity="0"/>
</linearGradient>
</defs>
</svg>
