<svg width="228" height="19" viewBox="0 0 228 19" fill="none" xmlns="http://www.w3.org/2000/svg">
<path d="M214.557 18V4.75H216.957V14.4L225.082 4.75H227.257V18H224.857V8.35L216.757 18H214.557Z" fill="#163C51"/>
<path d="M209.215 18L204.09 11.55L206.065 10.35L212.04 18H209.215ZM199.615 18V4.75H202.015V18H199.615ZM201.29 12.4V10.35H205.665V12.4H201.29ZM206.265 11.65L204.04 11.35L209.115 4.75H211.69L206.265 11.65Z" fill="#163C51"/>
<path d="M184.258 18V4.75H190.408C191.958 4.75 193.174 5.05 194.058 5.65C194.958 6.23333 195.408 7.06667 195.408 8.15C195.408 9.23333 194.983 10.075 194.133 10.675C193.299 11.2583 192.191 11.55 190.808 11.55L191.183 10.9C192.766 10.9 193.941 11.1917 194.708 11.775C195.474 12.3583 195.858 13.2167 195.858 14.35C195.858 15.5 195.424 16.4 194.558 17.05C193.708 17.6833 192.399 18 190.633 18H184.258ZM186.608 16.15H190.458C191.458 16.15 192.208 16 192.708 15.7C193.208 15.3833 193.458 14.8833 193.458 14.2C193.458 13.5 193.224 12.9917 192.758 12.675C192.308 12.3417 191.591 12.175 190.608 12.175H186.608V16.15ZM186.608 10.45H190.208C191.124 10.45 191.816 10.2833 192.283 9.95C192.766 9.6 193.008 9.11667 193.008 8.5C193.008 7.86667 192.766 7.39167 192.283 7.075C191.816 6.75833 191.124 6.6 190.208 6.6H186.608V10.45Z" fill="#163C51"/>
<path d="M177.426 18V13.35L177.801 13.8H173.576C171.81 13.8 170.426 13.425 169.426 12.675C168.443 11.925 167.951 10.8333 167.951 9.4C167.951 7.86667 168.476 6.70833 169.526 5.925C170.593 5.14167 172.01 4.75 173.776 4.75H179.576V18H177.426ZM167.826 18L171.426 12.925H173.901L170.401 18H167.826ZM177.426 12.6V6.175L177.801 6.85H173.851C172.751 6.85 171.901 7.05833 171.301 7.475C170.701 7.875 170.401 8.54167 170.401 9.475C170.401 11.2083 171.518 12.075 173.751 12.075H177.801L177.426 12.6Z" fill="#163C51"/>
<path d="M162.354 18V15.2L162.229 14.675V9.9C162.229 8.88333 161.929 8.1 161.329 7.55C160.745 6.98333 159.862 6.7 158.679 6.7C157.895 6.7 157.129 6.83333 156.379 7.1C155.629 7.35 154.995 7.69167 154.479 8.125L153.479 6.325C154.162 5.775 154.979 5.35833 155.929 5.075C156.895 4.775 157.904 4.625 158.954 4.625C160.77 4.625 162.17 5.06667 163.154 5.95C164.137 6.83333 164.629 8.18333 164.629 10V18H162.354ZM158.004 18.15C157.02 18.15 156.154 17.9833 155.404 17.65C154.67 17.3167 154.104 16.8583 153.704 16.275C153.304 15.675 153.104 15 153.104 14.25C153.104 13.5333 153.27 12.8833 153.604 12.3C153.954 11.7167 154.512 11.25 155.279 10.9C156.062 10.55 157.112 10.375 158.429 10.375H162.629V12.1H158.529C157.329 12.1 156.52 12.3 156.104 12.7C155.687 13.1 155.479 13.5833 155.479 14.15C155.479 14.8 155.737 15.325 156.254 15.725C156.77 16.1083 157.487 16.3 158.404 16.3C159.304 16.3 160.087 16.1 160.754 15.7C161.437 15.3 161.929 14.7167 162.229 13.95L162.704 15.6C162.387 16.3833 161.829 17.0083 161.029 17.475C160.229 17.925 159.22 18.15 158.004 18.15Z" fill="#163C51"/>
<path d="M144.506 18.1753C143.506 18.1753 142.523 18.0503 141.556 17.8003C140.606 17.5336 139.756 17.1586 139.006 16.6753L139.731 14.8503C140.364 15.2503 141.089 15.567 141.906 15.8003C142.723 16.017 143.548 16.1253 144.381 16.1253C145.148 16.1253 145.806 16.0336 146.356 15.8503C146.923 15.667 147.356 15.417 147.656 15.1003C147.956 14.767 148.106 14.3836 148.106 13.9503C148.106 13.3336 147.831 12.8586 147.281 12.5253C146.731 12.192 145.964 12.0253 144.981 12.0253H142.581V10.3003H144.831C145.414 10.3003 145.923 10.2336 146.356 10.1003C146.789 9.96698 147.123 9.76698 147.356 9.50031C147.606 9.21698 147.731 8.89198 147.731 8.52531C147.731 8.12531 147.589 7.78365 147.306 7.50031C147.023 7.21698 146.623 7.00031 146.106 6.85031C145.606 6.70031 145.014 6.62531 144.331 6.62531C143.664 6.64198 142.981 6.73364 142.281 6.90031C141.598 7.06698 140.898 7.32531 140.181 7.67531L139.531 5.80031C140.331 5.41698 141.114 5.12531 141.881 4.92531C142.664 4.70865 143.439 4.59198 144.206 4.57531C145.356 4.54198 146.381 4.67531 147.281 4.97531C148.181 5.25865 148.889 5.67531 149.406 6.22531C149.939 6.77531 150.206 7.42531 150.206 8.17531C150.206 8.80865 150.006 9.37531 149.606 9.87531C149.206 10.3586 148.673 10.742 148.006 11.0253C147.339 11.3086 146.573 11.4503 145.706 11.4503L145.806 10.8753C147.289 10.8753 148.456 11.167 149.306 11.7503C150.156 12.3336 150.581 13.1253 150.581 14.1253C150.581 14.9253 150.314 15.6336 149.781 16.2503C149.248 16.8503 148.523 17.3253 147.606 17.6753C146.706 18.0086 145.673 18.1753 144.506 18.1753Z" fill="#163C51"/>
<path d="M124.119 18.15C122.702 18.15 121.452 17.8583 120.369 17.275C119.302 16.6917 118.469 15.8917 117.869 14.875C117.286 13.8583 116.994 12.6917 116.994 11.375C116.994 10.0583 117.277 8.89167 117.844 7.875C118.427 6.85833 119.219 6.06667 120.219 5.5C121.236 4.91667 122.377 4.625 123.644 4.625C124.927 4.625 126.061 4.90833 127.044 5.475C128.027 6.04167 128.794 6.84167 129.344 7.875C129.911 8.89167 130.194 10.0833 130.194 11.45C130.194 11.55 130.186 11.6667 130.169 11.8C130.169 11.9333 130.161 12.0583 130.144 12.175H118.869V10.45H128.894L127.919 11.05C127.936 10.2 127.761 9.44167 127.394 8.775C127.027 8.10833 126.519 7.59167 125.869 7.225C125.236 6.84167 124.494 6.65 123.644 6.65C122.811 6.65 122.069 6.84167 121.419 7.225C120.769 7.59167 120.261 8.11667 119.894 8.8C119.527 9.46667 119.344 10.2333 119.344 11.1V11.5C119.344 12.3833 119.544 13.175 119.944 13.875C120.361 14.5583 120.936 15.0917 121.669 15.475C122.402 15.8583 123.244 16.05 124.194 16.05C124.977 16.05 125.686 15.9167 126.319 15.65C126.969 15.3833 127.536 14.9833 128.019 14.45L129.344 16C128.744 16.7 127.994 17.2333 127.094 17.6C126.211 17.9667 125.219 18.15 124.119 18.15Z" fill="#163C51"/>
<path d="M111.153 18V4.75H113.553V18H111.153ZM104.028 9.25C105.711 9.26667 106.986 9.65 107.853 10.4C108.736 11.15 109.178 12.2083 109.178 13.575C109.178 15.0083 108.694 16.1167 107.728 16.9C106.778 17.6667 105.411 18.0417 103.628 18.025L98.0527 18V4.75H100.453V9.225L104.028 9.25ZM103.453 16.2C104.519 16.2167 105.336 16 105.903 15.55C106.469 15.1 106.753 14.4333 106.753 13.55C106.753 12.6833 106.469 12.05 105.903 11.65C105.353 11.25 104.536 11.0417 103.453 11.025L100.453 10.975V16.175L103.453 16.2Z" fill="#163C51"/>
<path d="M81.0352 18V4.75H83.4352V10.375H90.9852V4.75H93.3852V18H90.9852V12.45H83.4352V18H81.0352Z" fill="#163C51"/>
<path d="M65.6797 18V4.75H71.8297C73.3797 4.75 74.5964 5.05 75.4797 5.65C76.3797 6.23333 76.8297 7.06667 76.8297 8.15C76.8297 9.23333 76.4047 10.075 75.5547 10.675C74.7214 11.2583 73.613 11.55 72.2297 11.55L72.6047 10.9C74.188 10.9 75.363 11.1917 76.1297 11.775C76.8964 12.3583 77.2797 13.2167 77.2797 14.35C77.2797 15.5 76.8464 16.4 75.9797 17.05C75.1297 17.6833 73.8214 18 72.0547 18H65.6797ZM68.0297 16.15H71.8797C72.8797 16.15 73.6297 16 74.1297 15.7C74.6297 15.3833 74.8797 14.8833 74.8797 14.2C74.8797 13.5 74.6464 12.9917 74.1797 12.675C73.7297 12.3417 73.013 12.175 72.0297 12.175H68.0297V16.15ZM68.0297 10.45H71.6297C72.5464 10.45 73.238 10.2833 73.7047 9.95C74.188 9.6 74.4297 9.11667 74.4297 8.5C74.4297 7.86667 74.188 7.39167 73.7047 7.075C73.238 6.75833 72.5464 6.6 71.6297 6.6H68.0297V10.45Z" fill="#163C51"/>
<path d="M48.3203 18V4.75H50.7203V14.4L58.8453 4.75H61.0203V18H58.6203V8.35L50.5203 18H48.3203Z" fill="#163C51"/>
<path d="M38.6176 18V6.225L39.2176 6.85H33.7676V4.75H45.8676V6.85H40.4426L41.0176 6.225V18H38.6176Z" fill="#163C51"/>
<path d="M30.8695 18L25.7445 11.55L27.7195 10.35L33.6945 18H30.8695ZM21.2695 18V4.75H23.6695V18H21.2695ZM22.9445 12.4V10.35H27.3195V12.4H22.9445ZM27.9195 11.65L25.6945 11.35L30.7695 4.75H33.3445L27.9195 11.65Z" fill="#163C51"/>
<path d="M0.300781 18L8.22578 0.5H10.7008L18.6508 18H16.0258L8.95078 1.9H9.95078L2.87578 18H0.300781ZM3.67578 13.625L4.35078 11.625H14.2008L14.9258 13.625H3.67578Z" fill="#163C51"/>
</svg>
