<svg width="93" height="93" viewBox="0 0 93 93" fill="none" xmlns="http://www.w3.org/2000/svg">
<path d="M83.8604 3.20307C96.5318 10.5215 95.9567 35.2472 82.5745 58.4362C69.1818 81.6251 48.0629 94.4846 35.3812 87.1662C24.7276 81.0188 0.284121 52.4978 8.08346 33.0099C9.56806 29.3089 27.2473 16.878 31.4606 17.5994C37.7126 18.6763 43.7241 23.36 44.9265 21.5827C58.2773 1.93798 72.2242 -3.51943 83.85 3.19261L83.8604 3.20307Z" fill="#31766B"/>
<path d="M63.763 45.2138C65.5275 41.3986 65.4922 37.6278 63.6841 36.7916C61.8761 35.9554 58.9799 38.3704 57.2154 42.1856C55.4509 46.0009 55.4862 49.7716 57.2943 50.6078C59.1023 51.444 61.9985 49.029 63.763 45.2138Z" fill="white"/>
<path d="M65.252 30.6791C66.653 23.9044 68.0539 17.1296 69.4549 10.3548C69.6535 9.39299 69.8522 8.42073 70.0508 7.45888C70.2181 6.63294 68.9635 6.28791 68.7858 7.11385C67.3848 13.8886 65.9839 20.6634 64.5829 27.4381C64.3843 28.4 64.1856 29.3723 63.987 30.3342C63.8197 31.1601 65.0743 31.5051 65.252 30.6791Z" fill="#FDFDFD"/>
<path d="M69.6326 34.9437C75.2678 29.3503 80.9029 23.7465 86.5381 18.1531C87.3431 17.3481 88.1586 16.5431 88.9637 15.738C89.5596 15.1421 88.6395 14.2221 88.0436 14.818C82.4084 20.4114 76.7733 26.0152 71.1381 31.6085C70.3331 32.4136 69.5176 33.2186 68.7125 34.0236C68.1166 34.6195 69.0366 35.5396 69.6326 34.9437Z" fill="#FDFDFD"/>
<path d="M69.9995 44.4773C74.6728 42.6895 79.3461 40.8912 84.0195 39.1034L86.0164 38.3403C86.79 38.0371 86.4555 36.7825 85.6713 37.0752C80.998 38.863 76.3247 40.6612 71.6513 42.449L69.6545 43.2122C68.8808 43.5154 69.2154 44.77 69.9995 44.4773Z" fill="#FDFDFD"/>
<path d="M57.1706 33.0932C56.146 27.8553 55.111 22.6175 54.0864 17.3796C53.9401 16.6268 53.7937 15.8636 53.6369 15.1109C53.48 14.2849 52.215 14.6404 52.3718 15.4558C53.3964 20.6937 54.4314 25.9317 55.456 31.1696C55.6024 31.9223 55.7487 32.6855 55.9056 33.4382C56.0624 34.2642 57.3274 33.9087 57.1706 33.0932Z" fill="#FDFDFD"/>
<path d="M66.9563 50.8155C69.9987 52.2164 73.0411 53.6174 76.073 55.0288C76.5017 55.2275 76.9303 55.4261 77.3589 55.6248C78.1222 55.9698 78.7808 54.8511 78.0176 54.4956C74.9752 53.0947 71.9329 51.6937 68.901 50.2823C68.4723 50.0836 68.0436 49.885 67.615 49.6863C66.8518 49.3413 66.1931 50.46 66.9563 50.8155Z" fill="#FDFDFD"/>
<path d="M60.2545 55.7713C61.0386 61.2288 61.8122 66.6758 62.5964 72.1333L62.9309 74.4542C63.0459 75.2801 64.311 74.9352 64.1959 74.1092C63.4118 68.6518 62.6382 63.2048 61.854 57.7473C61.739 56.9737 61.6345 56.2 61.5195 55.4264C61.4045 54.6004 60.1394 54.9454 60.2545 55.7713Z" fill="#FDFDFD"/>
<path d="M53.3128 56.2205C50.3541 63.9258 47.3953 71.6415 44.4366 79.3467C44.0184 80.4445 43.5898 81.5423 43.1716 82.64C42.8684 83.4242 44.1334 83.7692 44.4366 82.9851C47.3953 75.2798 50.3541 67.5641 53.3128 59.8589C53.731 58.7611 54.1597 57.6633 54.5778 56.5656C54.881 55.7814 53.616 55.4364 53.3128 56.2205Z" fill="#FDFDFD"/>
<path d="M49.2037 52.1953C43.9763 57.2659 38.7593 62.3261 33.5319 67.3967C32.7896 68.1181 32.0577 68.829 31.3154 69.5504C30.7091 70.1359 31.6395 71.0559 32.2355 70.4704C37.4629 65.3998 42.6799 60.3397 47.9073 55.2691C48.6496 54.5477 49.3815 53.8367 50.1238 53.1154C50.7301 52.5299 49.7997 51.6098 49.2037 52.1953Z" fill="#FDFDFD"/>
<path d="M50.0294 45.4848C44.9588 47.1994 39.8987 48.914 34.828 50.6286C34.1067 50.8691 33.3957 51.1095 32.6743 51.3605C31.8797 51.6323 32.2248 52.8868 33.0193 52.6255C38.0899 50.9109 43.1501 49.1963 48.2207 47.4817C48.9421 47.2412 49.6531 47.0007 50.3744 46.7498C51.169 46.478 50.824 45.2234 50.0294 45.4848Z" fill="#FDFDFD"/>
<path d="M52.9372 39.6784L44.291 34.0745L43.0574 33.2799C42.3464 32.8199 41.6982 33.9491 42.3987 34.4091L51.0449 40.0129L52.2786 40.8075C52.9895 41.2675 53.6377 40.1384 52.9372 39.6784Z" fill="#FDFDFD"/>
<path d="M82.638 1.84394C84.8963 3.07762 86.8304 4.87586 88.2314 7.00866C89.6742 9.12054 90.6674 11.5147 91.3365 13.9716C92.7061 18.8958 92.9152 24.0814 92.497 29.1625C91.6815 39.356 88.4614 49.2777 83.8403 58.4048C79.1357 67.4901 73.0091 75.9481 65.1575 82.7438C61.2264 86.0998 56.8249 89.0585 51.8066 90.8882C49.3079 91.7873 46.6419 92.4145 43.8713 92.4355C41.1217 92.5086 38.2884 91.8813 35.7584 90.6059C33.2492 89.2885 31.0955 87.3335 29.5377 85.0334C27.9381 82.7542 26.8822 80.1928 26.1503 77.6104C24.6971 72.4144 24.5193 67.051 24.9689 61.834C25.9726 51.3791 29.3809 41.3634 34.326 32.2676C39.2607 23.1719 45.9205 14.9543 54.0858 8.59775C58.1632 5.44038 62.6797 2.76393 67.6144 1.21661C70.0713 0.432494 72.6327 -0.048403 75.2151 0.00387144C77.7974 0.00387144 80.3693 0.641576 82.638 1.85434V1.84394ZM82.4394 2.20984C80.2021 1.10162 77.7033 0.557955 75.2151 0.631139C72.7164 0.672958 70.2699 1.30023 67.9489 2.17844C63.307 4.00805 59.1877 6.9668 55.5181 10.3019C51.8484 13.6684 48.6178 17.4739 45.7428 21.52C42.8468 25.5556 40.2749 29.8003 38.0271 34.2122C35.7688 38.6242 33.8451 43.193 32.3082 47.8768C30.7609 52.5605 29.6213 57.3698 29.0881 62.2313C28.534 67.0719 28.5758 72.0171 29.7363 76.6381C30.855 81.2278 33.3537 85.483 37.3266 87.6367C41.289 89.8113 46.2969 89.5918 50.8029 88.0131C55.3613 86.4657 59.5955 83.7788 63.4115 80.6528C71.0436 74.3171 77.2119 66.2042 81.9898 57.4116C84.3945 53.0206 86.475 48.4309 88.1059 43.6843C89.7578 38.9483 90.9915 34.0449 91.6188 29.058C92.1833 24.071 92.1834 18.9586 90.9392 14.0657C90.291 11.6402 89.371 9.2669 87.9387 7.19684C86.5482 5.10586 84.6454 3.38077 82.4394 2.19937V2.20984Z" fill="white"/>
<path d="M9.13957 6.72755C-3.53174 14.046 -2.95673 38.7718 10.4255 61.9607C12.872 66.1845 28.9934 87.8574 30.2898 85.2646C31.8371 82.1909 13.6247 60.842 18.5072 58.2597C22.25 56.2732 40.8388 91.7466 44.0798 90.147C47.8854 88.2652 24.2051 52.7604 27.4147 50.7844C29.2861 49.6344 54.3256 90.3875 58.748 87.617C62.5954 85.2019 33.5204 45.1806 35.7472 43.6019C40.3683 40.3191 58.8525 72.6246 63.0449 69.7496C66.8192 67.1463 39.3646 34.6212 37.765 29.5296C36.0295 24.0199 60.9644 48.7039 58.4552 42.7446C44.383 9.41447 21.8213 -0.601333 9.15002 6.71709L9.13957 6.72755Z" fill="#F85F37"/>
</svg>
