<svg width="1124" height="373" viewBox="0 0 1124 373" fill="none" xmlns="http://www.w3.org/2000/svg">
<path d="M0.664062 92.9188V351.358H1104.59C1104.59 351.358 1014.74 249.49 883.148 155.401C760.123 67.3909 600.85 -13.3258 444.872 2.96339C321.847 15.8489 214.64 36.7575 128.961 57.666C78.2137 69.8222 35.1549 82.2214 0.664062 92.9188Z" fill="#5FC692"/>
<path opacity="0.2" d="M444.872 2.9638C551.641 -8.21986 660.166 26.0605 757.487 77.1163C757.487 77.1163 830.643 153.214 766.495 157.59C702.346 161.966 678.18 79.5475 602.608 72.2538C527.036 64.9601 507.264 113.342 426.199 95.5936C345.134 77.8457 385.777 40.1616 299.22 57.4233C212.663 74.685 66.1317 138.869 0.664856 92.9193C35.1558 82.2219 78.2145 69.8226 128.962 57.6664C214.64 36.7579 322.067 15.8493 444.872 2.9638Z" fill="white"/>
<path d="M0.664307 92.9198V372.496H1124C1124 372.496 1014.74 249.491 883.148 155.402C881.83 190.412 869.747 242.927 808.015 243.17C715.966 243.413 693.338 201.109 621.72 203.298C550.102 205.243 439.6 277.207 354.361 258C270.66 239.037 142.363 152.242 128.962 57.9102C78.214 69.8232 35.1553 82.2224 0.664307 92.9198Z" fill="url(#paint0_linear_435_4623)"/>
<defs>
<linearGradient id="paint0_linear_435_4623" x1="791.393" y1="-126.096" x2="298.643" y2="460.505" gradientUnits="userSpaceOnUse">
<stop offset="0.2997" stop-color="#163C51"/>
<stop offset="1" stop-color="#163C51" stop-opacity="0"/>
</linearGradient>
</defs>
</svg>
