<svg width="43" height="43" viewBox="0 0 43 43" fill="none" xmlns="http://www.w3.org/2000/svg">
<g clip-path="url(#clip0_441_7024)">
<path d="M16.0762 35.4355C16.0762 36.8403 16.6342 38.1875 17.6275 39.1808C18.6208 40.1741 19.968 40.7321 21.3728 40.7321C22.7775 40.7321 24.1247 40.1741 25.118 39.1808C26.1113 38.1875 26.6693 36.8403 26.6693 35.4355H23.1559C23.1559 35.9085 22.9681 36.362 22.6337 36.6964C22.2992 37.0309 21.8457 37.2187 21.3728 37.2187C20.8998 37.2187 20.4463 37.0309 20.1119 36.6964C19.7774 36.362 19.5896 35.9085 19.5896 35.4355H16.0762Z" fill="#163C51"/>
<path fill-rule="evenodd" clip-rule="evenodd" d="M9.0152 15.879C9.0337 12.6013 10.3535 9.46513 12.6843 7.1605C13.8384 6.01937 15.2059 5.11672 16.7089 4.5041C18.2118 3.89148 19.8207 3.58088 21.4436 3.59004C23.0666 3.5992 24.6719 3.92793 26.1678 4.55748C27.6637 5.18702 29.021 6.10504 30.1621 7.25913C31.3033 8.41322 32.2059 9.78077 32.8185 11.2837C33.4311 12.7866 33.7417 14.3955 33.7326 16.0185L33.865 19.4895C33.8757 19.7595 33.9481 20.0235 34.0769 20.261L36.7128 25.1462C37.0901 25.8446 37.2796 26.6289 37.2627 27.4224C37.2458 28.216 37.0231 28.9915 36.6164 29.6732C36.2098 30.3548 35.6331 30.9191 34.9428 31.3109C34.2525 31.7027 33.4723 31.9085 32.6786 31.9082H10.0763C9.28399 31.9082 8.50518 31.7031 7.81556 31.3131C7.12595 30.923 6.549 30.3611 6.14079 29.682C5.73258 29.003 5.507 28.2299 5.48599 27.4379C5.46498 26.6459 5.64924 25.8619 6.02087 25.1621L8.63208 20.2434C8.75316 20.0147 8.82248 19.7621 8.83512 19.5036L9.0152 15.879ZM12.5639 15.4729C12.7031 13.2326 13.6905 11.1294 15.3252 9.59121C16.96 8.05301 19.1193 7.19533 21.3639 7.19263C23.6086 7.18993 25.77 8.04242 27.4084 9.57668C29.0469 11.1109 30.0393 13.2117 30.1839 15.4517H30.175L30.3357 19.6254C30.3675 20.4341 30.5829 21.225 30.9678 21.9383L33.6055 26.8235C33.6919 26.984 33.7352 27.1641 33.7312 27.3463C33.7271 27.5286 33.676 27.7066 33.5826 27.8632C33.4892 28.0197 33.3568 28.1493 33.1984 28.2394C33.0399 28.3295 32.8608 28.377 32.6786 28.3772H10.0763C9.8933 28.3769 9.71348 28.3294 9.5543 28.2392C9.39511 28.1489 9.26197 28.019 9.1678 27.8622C9.07363 27.7053 9.02163 27.5267 9.01686 27.3438C9.01208 27.1608 9.0547 26.9798 9.14055 26.8182L11.75 21.8994C12.1147 21.213 12.3239 20.4547 12.3626 19.6784L12.5445 16.0185L12.5463 15.9814L12.571 15.4712H12.5639V15.4729Z" fill="#163C51"/>
</g>
<defs>
<clipPath id="clip0_441_7024">
<rect width="42.3727" height="42.3727" fill="white" transform="translate(0.1875 0.126953)"/>
</clipPath>
</defs>
</svg>
