<svg width="1605" height="1062" viewBox="0 0 1605 1062" fill="none" xmlns="http://www.w3.org/2000/svg">
<path d="M921.122 738.607L926.5 749.364L698.458 752.591L695.231 741.834L921.122 738.607Z" fill="#C5E1B2" fill-opacity="0.35"/>
<path d="M1058.27 749.366L985.125 749.903L994.806 737.533L1305.67 750.441L1533.18 764.963L1534.25 768.728L1263.19 756.895L1058.27 749.366Z" fill="#C5E1B2" fill-opacity="0.35"/>
<path d="M906.06 457.322L1012.55 476.684L1009.86 491.744L1002.87 498.198L901.219 480.987L906.06 457.322Z" fill="#C5E1B2" fill-opacity="0.35"/>
<path d="M919.507 386.865L1027.07 406.765L1024.39 418.06L917.356 397.622L919.507 386.865Z" fill="#C5E1B2" fill-opacity="0.35"/>
<path d="M931.341 327.703L1040.52 349.754L1037.83 359.973L929.19 338.998L931.341 327.703Z" fill="#C5E1B2" fill-opacity="0.35"/>
<path d="M950.166 223.9L964.688 226.59L953.931 281.449L940.485 278.759L950.166 223.9Z" fill="#C5E1B2" fill-opacity="0.35"/>
<path d="M955.545 272.305L1053.97 290.591L1051.82 299.734L953.932 281.448L955.545 272.305Z" fill="#C5E1B2" fill-opacity="0.35"/>
<path d="M942.635 118.486L932.416 177.11L806.025 153.446L780.209 282.526L760.847 278.761L805.487 85.1406L942.635 118.486Z" fill="#C5E1B2" fill-opacity="0.35"/>
<path d="M902.297 405.689L888.313 477.759L795.268 462.161L801.722 427.202L772.679 422.362L768.376 439.035L732.879 432.581L743.098 377.184L750.628 377.721L902.297 405.689Z" fill="#C5E1B2" fill-opacity="0.35"/>
<path d="M587.129 374.494L708.68 401.385L707.604 409.453L569.918 380.41L588.205 298.121L672.107 320.71L667.266 344.913L597.886 329.315L587.129 374.494Z" fill="#C5E1B2" fill-opacity="0.35"/>
<path d="M1072.25 193.784L1062.03 245.954L950.164 223.903L957.693 181.414L969.526 124.941L1048.05 145.379L1072.25 193.784Z" fill="#C5E1B2" fill-opacity="0.35"/>
<path d="M1134.1 277.147L1117.43 375.033L1055.58 364.276L1091.08 211.531L1134.1 277.147Z" fill="#C5E1B2" fill-opacity="0.35"/>
<path d="M1135.72 866.613H1149.7L1137.33 878.446L1144.32 883.824L1134.11 896.194H1123.89L1115.82 890.816L1115.28 880.597L1124.42 870.916L1135.72 866.613Z" fill="#C5E1B2" fill-opacity="0.35"/>
<path d="M1105.6 970.415L1105.06 954.28L1117.97 952.666L1127.11 968.263L1115.28 978.482L1109.36 977.944L1105.6 970.415Z" fill="#C5E1B2" fill-opacity="0.35"/>
<path d="M1103.98 924.7L1104.52 913.944L1115.82 908.027L1130.34 924.7L1112.59 936.533L1107.75 932.23L1103.98 924.7Z" fill="#C5E1B2" fill-opacity="0.35"/>
<path d="M1103.98 1011.83L1104.52 993.006L1116.35 994.082L1126.57 1007.53L1115.28 1018.28H1107.75L1103.98 1011.83Z" fill="#C5E1B2" fill-opacity="0.35"/>
<path d="M1102.91 1051.63L1103.99 1034.42L1115.82 1036.03L1126.58 1050.55L1209.94 1051.09L1214.78 1037.64L1220.16 1038.18L1219.08 1061.85L1108.29 1058.62L1102.91 1051.63Z" fill="#C5E1B2" fill-opacity="0.35"/>
<path d="M1454.11 774.106L1536.4 781.635L1539.09 792.392L1540.71 812.292L1536.4 826.275L1056.65 813.367L1015.78 857.47L1000.72 858.008L999.106 759.584L1267.49 766.576L1454.11 774.106Z" fill="#C5E1B2" fill-opacity="0.35"/>
<path d="M1604.71 300.274L1588.04 361.049L1353 298.122L1348.16 392.781L1322.35 380.949L1313.2 361.049L1317.51 253.482L1155.08 238.423L1123.89 203.463L1132.49 166.891L1604.71 300.274Z" fill="#C5E1B2" fill-opacity="0.35"/>
<path d="M532.806 0.162109L805.488 85.1399L757.083 293.282L674.795 272.844L542.487 20.5998L532.806 0.162109Z" fill="#C5E1B2" fill-opacity="0.35"/>
<path d="M12.7205 197.009L51.9824 207.766L44.4528 234.657L88.0173 246.49L306.916 300.273L336.497 226.052L80.4876 144.839L70.8066 177.647L22.4016 163.125L36.9231 113.645L360.699 210.993L314.983 322.862L0.350342 241.111L12.7205 197.009Z" fill="#C5E1B2" fill-opacity="0.35"/>
</svg>
