<svg width="265" height="140" viewBox="0 0 265 140" fill="none" xmlns="http://www.w3.org/2000/svg">
<path d="M0 0H265V114.782C265 128.71 253.71 140 239.782 140H25.218C11.2905 140 0 128.71 0 114.782V0Z" fill="#163C51"/>
<path d="M28.8558 91.2007C28.7433 91.2225 28.4974 91.3183 28.3098 91.4097C27.6763 91.7276 27.1678 92.42 27.0469 93.1255C26.9844 93.4869 26.9844 107.622 27.0469 107.984C27.1177 108.397 27.372 108.898 27.6679 109.212C27.9597 109.516 28.1723 109.66 28.5807 109.826L28.8558 109.939L32.4987 109.952C36.6458 109.965 36.4041 109.982 36.725 109.612C37.1001 109.177 37.1001 108.654 36.725 108.219C36.4082 107.853 36.6292 107.87 32.682 107.87H29.2059L29.1059 107.761L29.0017 107.657V100.554V93.4521L29.1059 93.3476L29.2059 93.2387H32.682C36.6292 93.2387 36.4082 93.2561 36.725 92.8903C36.825 92.7771 36.9292 92.6029 36.9543 92.5071C37.0626 92.1326 36.9876 91.8017 36.725 91.4968C36.4082 91.1267 36.6417 91.1485 32.6112 91.1528C30.5939 91.1572 28.9725 91.1746 28.8558 91.2007Z" fill="white"/>
<path d="M40.3393 96.0827C40.2601 96.1089 40.0975 96.2308 39.985 96.3527C39.6891 96.6575 39.6099 96.9798 39.7224 97.3935C39.7641 97.5415 39.935 97.7462 40.6894 98.5387L41.6064 99.5098H36.7381C33.0369 99.5098 31.824 99.5229 31.6948 99.5621C31.3364 99.6753 31.0029 100.154 31.0029 100.555C31.0029 100.956 31.3364 101.435 31.6948 101.548C31.824 101.587 33.0369 101.6 36.7381 101.6H41.6064L40.6894 102.567C39.935 103.364 39.7641 103.568 39.7224 103.716C39.6099 104.13 39.6891 104.452 39.985 104.762C40.3018 105.092 40.7061 105.171 41.0937 104.979C41.177 104.94 42.0273 104.082 43.0735 102.98C44.7699 101.208 44.9158 101.038 44.9658 100.847C45.0283 100.607 45.0075 100.329 44.9074 100.115C44.8699 100.028 44.0488 99.1397 42.9943 98.0467C41.423 96.4093 41.127 96.1219 40.9812 96.0784C40.7727 96.0174 40.5352 96.0174 40.3393 96.0827Z" fill="white"/>
<path d="M115.716 107.32V98.74H110.656L110.536 101.08C110.509 101.787 110.462 102.48 110.396 103.16C110.342 103.84 110.242 104.467 110.096 105.04C109.962 105.6 109.769 106.06 109.516 106.42C109.262 106.767 108.936 106.967 108.536 107.02L107.116 106.76C107.529 106.773 107.869 106.627 108.136 106.32C108.402 106 108.609 105.567 108.756 105.02C108.902 104.473 109.009 103.853 109.076 103.16C109.142 102.453 109.196 101.733 109.236 101L109.376 97.5H117.136V107.32H115.716ZM106.676 110.54V106.76H118.776V110.54H117.436V108H108.016V110.54H106.676Z" fill="white"/>
<path d="M100.18 108.1C99.1665 108.1 98.2532 107.874 97.4398 107.42C96.6398 106.954 96.0065 106.32 95.5398 105.52C95.0732 104.707 94.8398 103.78 94.8398 102.74C94.8398 101.687 95.0732 100.76 95.5398 99.9604C96.0065 99.1604 96.6398 98.5337 97.4398 98.0804C98.2398 97.6271 99.1532 97.4004 100.18 97.4004C101.22 97.4004 102.14 97.6271 102.94 98.0804C103.753 98.5337 104.387 99.1604 104.84 99.9604C105.307 100.76 105.54 101.687 105.54 102.74C105.54 103.78 105.307 104.707 104.84 105.52C104.387 106.32 103.753 106.954 102.94 107.42C102.127 107.874 101.207 108.1 100.18 108.1ZM100.18 106.84C100.94 106.84 101.613 106.674 102.2 106.34C102.787 105.994 103.247 105.514 103.58 104.9C103.927 104.274 104.1 103.554 104.1 102.74C104.1 101.914 103.927 101.194 103.58 100.58C103.247 99.9671 102.787 99.4937 102.2 99.1604C101.613 98.8137 100.947 98.6404 100.2 98.6404C99.4532 98.6404 98.7865 98.8137 98.1998 99.1604C97.6132 99.4937 97.1465 99.9671 96.7998 100.58C96.4532 101.194 96.2798 101.914 96.2798 102.74C96.2798 103.554 96.4532 104.274 96.7998 104.9C97.1465 105.514 97.6132 105.994 98.1998 106.34C98.7865 106.674 99.4465 106.84 100.18 106.84Z" fill="white"/>
<path d="M83.9824 108L88.4224 102.24L88.4024 102.94L84.1824 97.5H85.7824L89.2424 102L88.6424 101.98L92.1024 97.5H93.6624L89.4024 103L89.4224 102.24L93.9024 108H92.2824L88.6224 103.2L89.1824 103.28L85.5824 108H83.9824Z" fill="white"/>
<path d="M80.24 108V97.5H81.66V108H80.24ZM74.42 101.2C75.74 101.213 76.7467 101.507 77.44 102.08C78.1333 102.653 78.48 103.48 78.48 104.56C78.48 105.68 78.1067 106.54 77.36 107.14C76.6133 107.74 75.5467 108.033 74.16 108.02L70 108V97.5H71.42V101.16L74.42 101.2ZM74.06 106.94C75.0467 106.953 75.7867 106.76 76.28 106.36C76.7867 105.947 77.04 105.347 77.04 104.56C77.04 103.773 76.7933 103.2 76.3 102.84C75.8067 102.467 75.06 102.273 74.06 102.26L71.42 102.22V106.9L74.06 106.94Z" fill="white"/>
<path d="M55.3594 108V94H61.1794C62.6594 94 63.8194 94.3067 64.6594 94.92C65.5127 95.52 65.9394 96.4067 65.9394 97.58C65.9394 98.74 65.5327 99.62 64.7194 100.22C63.906 100.807 62.8394 101.1 61.5194 101.1L61.8594 100.6C63.4194 100.6 64.606 100.907 65.4194 101.52C66.2327 102.133 66.6394 103.033 66.6394 104.22C66.6394 105.42 66.2127 106.353 65.3594 107.02C64.5194 107.673 63.2527 108 61.5594 108H55.3594ZM56.8194 106.82H61.5594C62.746 106.82 63.646 106.6 64.2594 106.16C64.8727 105.72 65.1794 105.04 65.1794 104.12C65.1794 103.213 64.8727 102.547 64.2594 102.12C63.646 101.693 62.746 101.48 61.5594 101.48H56.8194V106.82ZM56.8194 100.34H61.0994C62.1794 100.34 63.006 100.127 63.5794 99.7C64.166 99.26 64.4594 98.6133 64.4594 97.76C64.4594 96.9067 64.166 96.2667 63.5794 95.84C63.006 95.4 62.1794 95.18 61.0994 95.18H56.8194V100.34Z" fill="white"/>
</svg>
