<svg width="144" height="25" viewBox="0 0 144 25" fill="none" xmlns="http://www.w3.org/2000/svg">
<path opacity="0.7" d="M141.571 23.9991V20.2871L141.475 19.6791V13.4711C141.475 12.0417 141.069 10.9431 140.259 10.1751C139.469 9.40706 138.285 9.02306 136.707 9.02306C135.619 9.02306 134.584 9.2044 133.603 9.56706C132.621 9.92973 131.789 10.4097 131.107 11.0071L130.083 9.31106C130.936 8.58573 131.96 8.03106 133.155 7.64706C134.349 7.24173 135.608 7.03906 136.931 7.03906C139.107 7.03906 140.781 7.58306 141.955 8.67106C143.149 9.73773 143.747 11.3697 143.747 13.5671V23.9991H141.571ZM135.779 24.1591C134.52 24.1591 133.421 23.9564 132.483 23.5511C131.565 23.1244 130.861 22.5484 130.371 21.8231C129.88 21.0764 129.635 20.2231 129.635 19.2631C129.635 18.3884 129.837 17.5991 130.243 16.8951C130.669 16.1697 131.352 15.5937 132.291 15.1671C133.251 14.7191 134.531 14.4951 136.131 14.4951H141.923V16.1911H136.195C134.573 16.1911 133.443 16.4791 132.803 17.0551C132.184 17.6311 131.875 18.3457 131.875 19.1991C131.875 20.1591 132.248 20.9271 132.995 21.5031C133.741 22.0791 134.787 22.3671 136.131 22.3671C137.411 22.3671 138.509 22.0791 139.427 21.5031C140.365 20.9057 141.048 20.0524 141.475 18.9431L141.987 20.5111C141.56 21.6204 140.813 22.5057 139.747 23.1671C138.701 23.8284 137.379 24.1591 135.779 24.1591Z" fill="#163C51"/>
<path opacity="0.7" d="M111.702 23.9992L118.806 14.7832L118.774 15.9032L112.022 7.19922H114.582L120.118 14.3992L119.158 14.3672L124.694 7.19922H127.19L120.374 15.9992L120.406 14.7832L127.574 23.9992H124.982L119.126 16.3192L120.022 16.4472L114.262 23.9992H111.702Z" fill="#163C51"/>
<path opacity="0.7" d="M105.915 23.9991V20.2871L105.819 19.6791V13.4711C105.819 12.0417 105.413 10.9431 104.603 10.1751C103.813 9.40706 102.629 9.02306 101.051 9.02306C99.9625 9.02306 98.9278 9.2044 97.9465 9.56706C96.9652 9.92973 96.1332 10.4097 95.4505 11.0071L94.4265 9.31106C95.2798 8.58573 96.3038 8.03106 97.4985 7.64706C98.6932 7.24173 99.9518 7.03906 101.275 7.03906C103.451 7.03906 105.125 7.58306 106.299 8.67106C107.493 9.73773 108.091 11.3697 108.091 13.5671V23.9991H105.915ZM100.123 24.1591C98.8638 24.1591 97.7652 23.9564 96.8265 23.5511C95.9092 23.1244 95.2052 22.5484 94.7145 21.8231C94.2238 21.0764 93.9785 20.2231 93.9785 19.2631C93.9785 18.3884 94.1812 17.5991 94.5865 16.8951C95.0132 16.1697 95.6958 15.5937 96.6345 15.1671C97.5945 14.7191 98.8745 14.4951 100.475 14.4951H106.267V16.1911H100.539C98.9172 16.1911 97.7865 16.4791 97.1465 17.0551C96.5278 17.6311 96.2185 18.3457 96.2185 19.1991C96.2185 20.1591 96.5918 20.9271 97.3385 21.5031C98.0852 22.0791 99.1305 22.3671 100.475 22.3671C101.755 22.3671 102.853 22.0791 103.771 21.5031C104.709 20.9057 105.392 20.0524 105.819 18.9431L106.331 20.5111C105.904 21.6204 105.157 22.5057 104.091 23.1671C103.045 23.8284 101.723 24.1591 100.123 24.1591Z" fill="#163C51"/>
<path opacity="0.7" d="M76.0459 23.9992L83.1499 14.7832L83.1179 15.9032L76.3659 7.19922H78.9259L84.4619 14.3992L83.5019 14.3672L89.0379 7.19922H91.5339L84.7179 15.9992L84.7499 14.7832L91.9179 23.9992H89.3259L83.4699 16.3192L84.3659 16.4472L78.6059 23.9992H76.0459Z" fill="#163C51"/>
<path opacity="0.7" d="M70.2583 23.9991V20.2871L70.1623 19.6791V13.4711C70.1623 12.0417 69.7569 10.9431 68.9463 10.1751C68.1569 9.40706 66.9729 9.02306 65.3943 9.02306C64.3063 9.02306 63.2716 9.2044 62.2903 9.56706C61.3089 9.92973 60.4769 10.4097 59.7943 11.0071L58.7703 9.31106C59.6236 8.58573 60.6476 8.03106 61.8423 7.64706C63.0369 7.24173 64.2956 7.03906 65.6183 7.03906C67.7943 7.03906 69.4689 7.58306 70.6423 8.67106C71.8369 9.73773 72.4343 11.3697 72.4343 13.5671V23.9991H70.2583ZM64.4663 24.1591C63.2076 24.1591 62.1089 23.9564 61.1703 23.5511C60.2529 23.1244 59.5489 22.5484 59.0583 21.8231C58.5676 21.0764 58.3223 20.2231 58.3223 19.2631C58.3223 18.3884 58.5249 17.5991 58.9303 16.8951C59.3569 16.1697 60.0396 15.5937 60.9783 15.1671C61.9383 14.7191 63.2183 14.4951 64.8183 14.4951H70.6103V16.1911H64.8823C63.2609 16.1911 62.1303 16.4791 61.4903 17.0551C60.8716 17.6311 60.5623 18.3457 60.5623 19.1991C60.5623 20.1591 60.9356 20.9271 61.6823 21.5031C62.4289 22.0791 63.4743 22.3671 64.8183 22.3671C66.0983 22.3671 67.1969 22.0791 68.1143 21.5031C69.0529 20.9057 69.7356 20.0524 70.1623 18.9431L70.6743 20.5111C70.2476 21.6204 69.5009 22.5057 68.4343 23.1671C67.3889 23.8284 66.0663 24.1591 64.4663 24.1591Z" fill="#163C51"/>
<path opacity="0.7" d="M40.3896 23.9992L47.4936 14.7832L47.4616 15.9032L40.7096 7.19922H43.2696L48.8056 14.3992L47.8456 14.3672L53.3816 7.19922H55.8776L49.0616 15.9992L49.0936 14.7832L56.2617 23.9992H53.6696L47.8136 16.3192L48.7096 16.4472L42.9496 23.9992H40.3896Z" fill="#163C51"/>
<path opacity="0.7" d="M34.3558 23.9999V7.19986H36.6278V23.9999H34.3558ZM35.5078 3.48786C35.0384 3.48786 34.6438 3.32786 34.3238 3.00786C34.0038 2.68786 33.8438 2.30386 33.8438 1.85586C33.8438 1.40786 34.0038 1.03453 34.3238 0.735859C34.6438 0.415859 35.0384 0.255859 35.5078 0.255859C35.9771 0.255859 36.3718 0.405193 36.6918 0.703859C37.0118 1.00253 37.1718 1.37586 37.1718 1.82386C37.1718 2.29319 37.0118 2.68786 36.6918 3.00786C36.3931 3.32786 35.9984 3.48786 35.5078 3.48786Z" fill="#163C51"/>
<path opacity="0.7" d="M21.41 7.03906C22.7753 7.03906 23.9593 7.30573 24.962 7.83906C25.986 8.35106 26.7753 9.1404 27.33 10.2071C27.906 11.2737 28.194 12.6177 28.194 14.2391V23.9991H25.922V14.4631C25.922 12.6924 25.4953 11.3591 24.642 10.4631C23.81 9.54573 22.626 9.08706 21.09 9.08706C19.938 9.08706 18.9353 9.3324 18.082 9.82306C17.25 10.2924 16.5993 10.9857 16.13 11.9031C15.682 12.7991 15.458 13.8871 15.458 15.1671V23.9991H13.186V14.4631C13.186 12.6924 12.7593 11.3591 11.906 10.4631C11.0526 9.54573 9.85797 9.08706 8.32197 9.08706C7.1913 9.08706 6.1993 9.3324 5.34597 9.82306C4.49264 10.2924 3.8313 10.9857 3.36197 11.9031C2.91397 12.7991 2.68997 13.8871 2.68997 15.1671V23.9991H0.417969V7.19906H2.59397V11.7431L2.24197 10.9431C2.75397 9.72706 3.5753 8.77773 4.70597 8.09506C5.85797 7.39106 7.21264 7.03906 8.76997 7.03906C10.4126 7.03906 11.81 7.45506 12.962 8.28706C14.114 9.09773 14.8606 10.3244 15.202 11.9671L14.306 11.6151C14.7966 10.2497 15.6606 9.15106 16.898 8.31906C18.1566 7.46573 19.6606 7.03906 21.41 7.03906Z" fill="#163C51"/>
</svg>
