<svg width="272" height="31" viewBox="0 0 272 31" fill="none" xmlns="http://www.w3.org/2000/svg">
<path opacity="0.7" d="M264.449 7.03906C265.814 7.03906 266.998 7.30573 268.001 7.83906C269.025 8.35106 269.814 9.1404 270.369 10.2071C270.945 11.2737 271.233 12.6177 271.233 14.2391V23.9991H268.961V14.4631C268.961 12.6924 268.534 11.3591 267.681 10.4631C266.849 9.54573 265.665 9.08706 264.129 9.08706C262.977 9.08706 261.974 9.3324 261.121 9.82306C260.289 10.2924 259.638 10.9857 259.169 11.9031C258.721 12.7991 258.497 13.8871 258.497 15.1671V23.9991H256.225V14.4631C256.225 12.6924 255.798 11.3591 254.945 10.4631C254.092 9.54573 252.897 9.08706 251.361 9.08706C250.23 9.08706 249.238 9.3324 248.385 9.82306C247.532 10.2924 246.87 10.9857 246.401 11.9031C245.953 12.7991 245.729 13.8871 245.729 15.1671V23.9991H243.457V7.19906H245.633V11.7431L245.281 10.9431C245.793 9.72706 246.614 8.77773 247.745 8.09506C248.897 7.39106 250.252 7.03906 251.809 7.03906C253.452 7.03906 254.849 7.45506 256.001 8.28706C257.153 9.09773 257.9 10.3244 258.241 11.9671L257.345 11.6151C257.836 10.2497 258.7 9.15106 259.937 8.31906C261.196 7.46573 262.7 7.03906 264.449 7.03906Z" fill="#163C51"/>
<path opacity="0.7" d="M230.242 24.1591C228.621 24.1591 227.16 23.7964 225.858 23.0711C224.578 22.3244 223.565 21.3111 222.818 20.0311C222.072 18.7297 221.698 17.2471 221.698 15.5831C221.698 13.8977 222.072 12.4151 222.818 11.1351C223.565 9.85506 224.578 8.8524 225.858 8.12706C227.138 7.40173 228.6 7.03906 230.242 7.03906C231.906 7.03906 233.378 7.40173 234.658 8.12706C235.96 8.8524 236.973 9.85506 237.698 11.1351C238.445 12.4151 238.818 13.8977 238.818 15.5831C238.818 17.2471 238.445 18.7297 237.698 20.0311C236.973 21.3111 235.96 22.3244 234.658 23.0711C233.357 23.7964 231.885 24.1591 230.242 24.1591ZM230.242 22.1431C231.458 22.1431 232.536 21.8764 233.474 21.3431C234.413 20.7884 235.149 20.0204 235.682 19.0391C236.237 18.0364 236.514 16.8844 236.514 15.5831C236.514 14.2604 236.237 13.1084 235.682 12.1271C235.149 11.1457 234.413 10.3884 233.474 9.85506C232.536 9.3004 231.469 9.02306 230.274 9.02306C229.08 9.02306 228.013 9.3004 227.074 9.85506C226.136 10.3884 225.389 11.1457 224.834 12.1271C224.28 13.1084 224.002 14.2604 224.002 15.5831C224.002 16.8844 224.28 18.0364 224.834 19.0391C225.389 20.0204 226.136 20.7884 227.074 21.3431C228.013 21.8764 229.069 22.1431 230.242 22.1431Z" fill="#163C51"/>
<path opacity="0.7" d="M212.62 24.1591C210.956 24.1591 209.463 23.7964 208.14 23.0711C206.839 22.3244 205.815 21.3111 205.068 20.0311C204.322 18.7297 203.948 17.2471 203.948 15.5831C203.948 13.8977 204.322 12.4151 205.068 11.1351C205.815 9.85506 206.839 8.8524 208.14 8.12706C209.463 7.40173 210.956 7.03906 212.62 7.03906C214.05 7.03906 215.34 7.3164 216.492 7.87106C217.644 8.42573 218.551 9.25773 219.212 10.3671L217.516 11.5191C216.94 10.6657 216.226 10.0364 215.372 9.63106C214.519 9.22573 213.591 9.02306 212.588 9.02306C211.394 9.02306 210.316 9.3004 209.356 9.85506C208.396 10.3884 207.639 11.1457 207.084 12.1271C206.53 13.1084 206.252 14.2604 206.252 15.5831C206.252 16.9057 206.53 18.0577 207.084 19.0391C207.639 20.0204 208.396 20.7884 209.356 21.3431C210.316 21.8764 211.394 22.1431 212.588 22.1431C213.591 22.1431 214.519 21.9404 215.372 21.5351C216.226 21.1297 216.94 20.5111 217.516 19.6791L219.212 20.8311C218.551 21.9191 217.644 22.7511 216.492 23.3271C215.34 23.8817 214.05 24.1591 212.62 24.1591Z" fill="#163C51"/>
<path opacity="0.7" d="M199.556 24.1599C199.087 24.1599 198.682 23.9892 198.34 23.6479C198.02 23.3065 197.86 22.8905 197.86 22.3999C197.86 21.8879 198.02 21.4719 198.34 21.1519C198.682 20.8319 199.087 20.6719 199.556 20.6719C200.026 20.6719 200.42 20.8319 200.74 21.1519C201.082 21.4719 201.252 21.8879 201.252 22.3999C201.252 22.8905 201.082 23.3065 200.74 23.6479C200.42 23.9892 200.026 24.1599 199.556 24.1599Z" fill="#163C51"/>
<path opacity="0.7" d="M190.738 23.9999V0.255859H193.01V23.9999H190.738Z" fill="#163C51"/>
<path opacity="0.7" d="M182.145 23.9999V7.19986H184.417V23.9999H182.145ZM183.297 3.48786C182.827 3.48786 182.433 3.32786 182.113 3.00786C181.793 2.68786 181.633 2.30386 181.633 1.85586C181.633 1.40786 181.793 1.03453 182.113 0.735859C182.433 0.415859 182.827 0.255859 183.297 0.255859C183.766 0.255859 184.161 0.405193 184.481 0.703859C184.801 1.00253 184.961 1.37586 184.961 1.82386C184.961 2.29319 184.801 2.68786 184.481 3.00786C184.182 3.32786 183.787 3.48786 183.297 3.48786Z" fill="#163C51"/>
<path opacity="0.7" d="M173.797 23.9991V20.2871L173.701 19.6791V13.4711C173.701 12.0417 173.296 10.9431 172.485 10.1751C171.696 9.40706 170.512 9.02306 168.933 9.02306C167.845 9.02306 166.811 9.2044 165.829 9.56706C164.848 9.92973 164.016 10.4097 163.333 11.0071L162.309 9.31106C163.163 8.58573 164.187 8.03106 165.381 7.64706C166.576 7.24173 167.835 7.03906 169.157 7.03906C171.333 7.03906 173.008 7.58306 174.181 8.67106C175.376 9.73773 175.973 11.3697 175.973 13.5671V23.9991H173.797ZM168.005 24.1591C166.747 24.1591 165.648 23.9564 164.709 23.5511C163.792 23.1244 163.088 22.5484 162.597 21.8231C162.107 21.0764 161.861 20.2231 161.861 19.2631C161.861 18.3884 162.064 17.5991 162.469 16.8951C162.896 16.1697 163.579 15.5937 164.517 15.1671C165.477 14.7191 166.757 14.4951 168.357 14.4951H174.149V16.1911H168.421C166.8 16.1911 165.669 16.4791 165.029 17.0551C164.411 17.6311 164.101 18.3457 164.101 19.1991C164.101 20.1591 164.475 20.9271 165.221 21.5031C165.968 22.0791 167.013 22.3671 168.357 22.3671C169.637 22.3671 170.736 22.0791 171.653 21.5031C172.592 20.9057 173.275 20.0524 173.701 18.9431L174.213 20.5111C173.787 21.6204 173.04 22.5057 171.973 23.1671C170.928 23.8284 169.605 24.1591 168.005 24.1591Z" fill="#163C51"/>
<path opacity="0.7" d="M150.324 7.03906C151.689 7.03906 152.873 7.30573 153.876 7.83906C154.9 8.35106 155.689 9.1404 156.244 10.2071C156.82 11.2737 157.108 12.6177 157.108 14.2391V23.9991H154.836V14.4631C154.836 12.6924 154.409 11.3591 153.556 10.4631C152.724 9.54573 151.54 9.08706 150.004 9.08706C148.852 9.08706 147.849 9.3324 146.996 9.82306C146.164 10.2924 145.513 10.9857 145.044 11.9031C144.596 12.7991 144.372 13.8871 144.372 15.1671V23.9991H142.1V14.4631C142.1 12.6924 141.673 11.3591 140.82 10.4631C139.967 9.54573 138.772 9.08706 137.236 9.08706C136.105 9.08706 135.113 9.3324 134.26 9.82306C133.407 10.2924 132.745 10.9857 132.276 11.9031C131.828 12.7991 131.604 13.8871 131.604 15.1671V23.9991H129.332V7.19906H131.508V11.7431L131.156 10.9431C131.668 9.72706 132.489 8.77773 133.62 8.09506C134.772 7.39106 136.127 7.03906 137.684 7.03906C139.327 7.03906 140.724 7.45506 141.876 8.28706C143.028 9.09773 143.775 10.3244 144.116 11.9671L143.22 11.6151C143.711 10.2497 144.575 9.15106 145.812 8.31906C147.071 7.46573 148.575 7.03906 150.324 7.03906Z" fill="#163C51"/>
<path opacity="0.7" d="M109.582 30.4002C107.384 30.4002 105.379 30.0375 103.566 29.3122C101.752 28.6082 100.184 27.6055 98.8616 26.3042C97.5603 25.0242 96.547 23.4989 95.8216 21.7282C95.1176 19.9362 94.7656 17.9842 94.7656 15.8722C94.7656 13.7389 95.1176 11.7975 95.8216 10.0482C96.547 8.27754 97.571 6.7522 98.8936 5.4722C100.238 4.17087 101.827 3.1682 103.662 2.4642C105.496 1.7602 107.512 1.4082 109.71 1.4082C111.886 1.4082 113.87 1.74954 115.662 2.4322C117.475 3.11487 119.043 4.08554 120.366 5.3442C121.688 6.58154 122.702 8.0642 123.406 9.7922C124.131 11.5202 124.494 13.4295 124.494 15.5202C124.494 17.3122 124.28 18.8589 123.854 20.1602C123.448 21.4402 122.851 22.4322 122.062 23.1362C121.272 23.8189 120.323 24.1602 119.214 24.1602C118.126 24.1602 117.251 23.8295 116.59 23.1682C115.928 22.5069 115.598 21.5789 115.598 20.3842V17.8562L115.854 15.8082L115.534 12.6082V7.7762H117.614V19.9042C117.614 20.8002 117.806 21.4295 118.19 21.7922C118.574 22.1549 119.043 22.3362 119.598 22.3362C120.259 22.3362 120.835 22.0695 121.326 21.5362C121.816 21.0029 122.19 20.2349 122.446 19.2322C122.723 18.2082 122.862 16.9815 122.862 15.5522C122.862 13.6749 122.542 11.9682 121.902 10.4322C121.262 8.8962 120.355 7.57354 119.182 6.4642C118.008 5.35487 116.622 4.5122 115.022 3.9362C113.422 3.33887 111.651 3.0402 109.71 3.0402C107.768 3.0402 105.987 3.34954 104.366 3.9682C102.744 4.58687 101.347 5.4722 100.174 6.6242C99.0216 7.75487 98.1256 9.10954 97.4856 10.6882C96.8456 12.2455 96.5256 13.9735 96.5256 15.8722C96.5256 17.7709 96.835 19.5095 97.4536 21.0882C98.0936 22.6669 98.9896 24.0215 100.142 25.1522C101.294 26.3042 102.67 27.1895 104.27 27.8082C105.87 28.4482 107.64 28.7682 109.582 28.7682C110.542 28.7682 111.566 28.6509 112.654 28.4162C113.763 28.1815 114.787 27.8295 115.726 27.3602L116.27 28.9282C115.31 29.4189 114.222 29.7815 113.006 30.0162C111.79 30.2722 110.648 30.4002 109.582 30.4002ZM109.198 24.1602C107.683 24.1602 106.328 23.8082 105.134 23.1042C103.939 22.3789 102.99 21.3975 102.286 20.1602C101.603 18.9015 101.262 17.4722 101.262 15.8722C101.262 14.2722 101.603 12.8535 102.286 11.6162C102.99 10.3789 103.939 9.4082 105.134 8.7042C106.328 8.0002 107.683 7.6482 109.198 7.6482C110.67 7.6482 111.971 7.97887 113.102 8.6402C114.254 9.30154 115.15 10.2509 115.79 11.4882C116.451 12.7042 116.782 14.1655 116.782 15.8722C116.782 17.5789 116.451 19.0509 115.79 20.2882C115.15 21.5255 114.264 22.4855 113.134 23.1682C112.003 23.8295 110.691 24.1602 109.198 24.1602ZM109.486 22.3042C110.638 22.3042 111.672 22.0375 112.59 21.5042C113.528 20.9709 114.254 20.2242 114.766 19.2642C115.299 18.2829 115.566 17.1522 115.566 15.8722C115.566 14.5709 115.299 13.4509 114.766 12.5122C114.254 11.5522 113.528 10.8162 112.59 10.3042C111.672 9.77087 110.638 9.5042 109.486 9.5042C108.291 9.5042 107.235 9.77087 106.318 10.3042C105.4 10.8162 104.675 11.5522 104.142 12.5122C103.63 13.4722 103.374 14.5922 103.374 15.8722C103.374 17.1522 103.63 18.2722 104.142 19.2322C104.675 20.1922 105.4 20.9495 106.318 21.5042C107.235 22.0375 108.291 22.3042 109.486 22.3042Z" fill="#163C51"/>
<path opacity="0.7" d="M87.6758 23.9999V0.255859H89.9478V23.9999H87.6758Z" fill="#163C51"/>
<path opacity="0.7" d="M79.0823 23.9999V7.19986H81.3543V23.9999H79.0823ZM80.2343 3.48786C79.765 3.48786 79.3703 3.32786 79.0503 3.00786C78.7303 2.68786 78.5703 2.30386 78.5703 1.85586C78.5703 1.40786 78.7303 1.03453 79.0503 0.735859C79.3703 0.415859 79.765 0.255859 80.2343 0.255859C80.7036 0.255859 81.0983 0.405193 81.4183 0.703859C81.7383 1.00253 81.8983 1.37586 81.8983 1.82386C81.8983 2.29319 81.7383 2.68786 81.4183 3.00786C81.1196 3.32786 80.725 3.48786 80.2343 3.48786Z" fill="#163C51"/>
<path opacity="0.7" d="M70.7348 23.9991V20.2871L70.6388 19.6791V13.4711C70.6388 12.0417 70.2335 10.9431 69.4228 10.1751C68.6335 9.40706 67.4495 9.02306 65.8708 9.02306C64.7828 9.02306 63.7482 9.2044 62.7668 9.56706C61.7855 9.92973 60.9535 10.4097 60.2708 11.0071L59.2468 9.31106C60.1002 8.58573 61.1242 8.03106 62.3188 7.64706C63.5135 7.24173 64.7722 7.03906 66.0948 7.03906C68.2708 7.03906 69.9455 7.58306 71.1188 8.67106C72.3135 9.73773 72.9108 11.3697 72.9108 13.5671V23.9991H70.7348ZM64.9428 24.1591C63.6842 24.1591 62.5855 23.9564 61.6468 23.5511C60.7295 23.1244 60.0255 22.5484 59.5348 21.8231C59.0442 21.0764 58.7988 20.2231 58.7988 19.2631C58.7988 18.3884 59.0015 17.5991 59.4068 16.8951C59.8335 16.1697 60.5162 15.5937 61.4548 15.1671C62.4148 14.7191 63.6948 14.4951 65.2948 14.4951H71.0868V16.1911H65.3588C63.7375 16.1911 62.6068 16.4791 61.9668 17.0551C61.3482 17.6311 61.0388 18.3457 61.0388 19.1991C61.0388 20.1591 61.4122 20.9271 62.1588 21.5031C62.9055 22.0791 63.9508 22.3671 65.2948 22.3671C66.5748 22.3671 67.6735 22.0791 68.5908 21.5031C69.5295 20.9057 70.2122 20.0524 70.6388 18.9431L71.1508 20.5111C70.7242 21.6204 69.9775 22.5057 68.9108 23.1671C67.8655 23.8284 66.5428 24.1591 64.9428 24.1591Z" fill="#163C51"/>
<path opacity="0.7" d="M40.8662 23.9992L47.9702 14.7832L47.9382 15.9032L41.1862 7.19922H43.7462L49.2822 14.3992L48.3222 14.3672L53.8582 7.19922H56.3542L49.5382 15.9992L49.5702 14.7832L56.7382 23.9992H54.1462L48.2902 16.3192L49.1862 16.4472L43.4262 23.9992H40.8662Z" fill="#163C51"/>
<path opacity="0.7" d="M34.8323 23.9999V7.19986H37.1043V23.9999H34.8323ZM35.9843 3.48786C35.515 3.48786 35.1203 3.32786 34.8003 3.00786C34.4803 2.68786 34.3203 2.30386 34.3203 1.85586C34.3203 1.40786 34.4803 1.03453 34.8003 0.735859C35.1203 0.415859 35.515 0.255859 35.9843 0.255859C36.4536 0.255859 36.8483 0.405193 37.1683 0.703859C37.4883 1.00253 37.6483 1.37586 37.6483 1.82386C37.6483 2.29319 37.4883 2.68786 37.1683 3.00786C36.8696 3.32786 36.475 3.48786 35.9843 3.48786Z" fill="#163C51"/>
<path opacity="0.7" d="M21.8865 7.03906C23.2519 7.03906 24.4359 7.30573 25.4385 7.83906C26.4625 8.35106 27.2519 9.1404 27.8065 10.2071C28.3825 11.2737 28.6705 12.6177 28.6705 14.2391V23.9991H26.3985V14.4631C26.3985 12.6924 25.9719 11.3591 25.1185 10.4631C24.2865 9.54573 23.1025 9.08706 21.5665 9.08706C20.4145 9.08706 19.4119 9.3324 18.5585 9.82306C17.7265 10.2924 17.0759 10.9857 16.6065 11.9031C16.1585 12.7991 15.9345 13.8871 15.9345 15.1671V23.9991H13.6625V14.4631C13.6625 12.6924 13.2359 11.3591 12.3825 10.4631C11.5292 9.54573 10.3345 9.08706 8.79853 9.08706C7.66786 9.08706 6.67586 9.3324 5.82253 9.82306C4.9692 10.2924 4.30786 10.9857 3.83853 11.9031C3.39053 12.7991 3.16653 13.8871 3.16653 15.1671V23.9991H0.894531V7.19906H3.07053V11.7431L2.71853 10.9431C3.23053 9.72706 4.05186 8.77773 5.18253 8.09506C6.33453 7.39106 7.6892 7.03906 9.24653 7.03906C10.8892 7.03906 12.2865 7.45506 13.4385 8.28706C14.5905 9.09773 15.3372 10.3244 15.6785 11.9671L14.7825 11.6151C15.2732 10.2497 16.1372 9.15106 17.3745 8.31906C18.6332 7.46573 20.1372 7.03906 21.8865 7.03906Z" fill="#163C51"/>
</svg>
