<svg width="606" height="587" viewBox="0 0 606 587" fill="none" xmlns="http://www.w3.org/2000/svg">
<g clip-path="url(#clip0_435_1434)">
<path d="M451.387 38.1155C457.069 38.1155 461.676 32.0236 461.676 24.5089C461.676 16.9942 457.069 10.9023 451.387 10.9023C445.704 10.9023 441.098 16.9942 441.098 24.5089C441.098 32.0236 445.704 38.1155 451.387 38.1155Z" fill="#995C5F"/>
<path d="M468.741 60.2389C477.214 58.6102 474.837 67.4494 477.961 65.0912C495.092 52.1123 503.327 34.2643 493.004 17.3494C473.071 3.04722 450.727 56.1332 468.741 60.2389Z" fill="#995C5F"/>
<path d="M533.447 513.518C522.75 529.721 545.332 540.952 553.227 526.65C561.122 512.331 539.831 503.865 533.447 513.518Z" fill="#808080"/>
<path d="M541.103 517.234C541.103 517.234 538.149 528.33 548.149 531.825" stroke="#9D9FA7" stroke-width="1.14765" stroke-miterlimit="10"/>
<path d="M549.559 522.658C545.535 525.525 543.327 521.199 546.978 517.84C550.628 514.481 552.156 520.826 549.559 522.658Z" stroke="#9D9FA7" stroke-width="1.14765" stroke-miterlimit="10"/>
<path d="M551.358 510.054C547.929 493.615 543.65 471.186 543.599 461.447C543.514 445.177 526.026 417.37 502.748 411.89C479.454 406.41 479.59 425.073 479.59 425.073C475.107 454.339 509.693 478.125 526.654 520.573C536.061 520.912 544.448 516.603 551.358 510.054Z" fill="#C2C2C2"/>
<path d="M559.305 522.594C559.305 522.594 574.076 543.733 577.319 555.032C554.483 564.788 513.717 584.451 513.717 584.451C513.717 584.451 509.302 573.372 515.551 564.499C535.11 553.522 529.388 534.809 529.388 534.809L559.305 522.594Z" fill="#F8572D"/>
<path d="M520.745 560.578C520.745 560.578 527.503 562.173 530.525 562.953" stroke="white" stroke-width="1.14765" stroke-miterlimit="10"/>
<path d="M526.214 554.457L535.688 555" stroke="white" stroke-width="1.14765" stroke-miterlimit="10"/>
<path d="M529.406 546.924L538.116 546.211" stroke="white" stroke-width="1.14765" stroke-miterlimit="10"/>
<path d="M530.22 540.427L537.368 539.527" stroke="white" stroke-width="1.14765" stroke-miterlimit="10"/>
<path d="M570.562 540.461C570.562 540.461 561.139 545.432 565.485 556.069" stroke="#B52229" stroke-width="1.14765" stroke-linecap="round" stroke-linejoin="round"/>
<path d="M535.654 532.418C535.654 532.418 545.281 552.081 526.214 567.232" stroke="#B52229" stroke-width="1.14765" stroke-linecap="round" stroke-linejoin="round"/>
<path d="M515.55 564.499C526.96 562.989 530.797 573.169 530.797 573.169C532.648 572.999 565.468 558.917 575.757 550.129C576.504 551.961 577.251 553.794 577.998 555.626C567.76 562.192 558.371 567.553 551.206 571.489C536.451 579.582 529.15 582.483 521.204 584.434C517.299 585.401 514.022 585.927 511.815 586.232C511.509 585.537 511.102 584.57 510.677 583.382C510.083 581.736 509.438 579.683 509.251 577.97C508.793 573.762 510.304 568.181 515.55 564.499Z" fill="white"/>
<path d="M501.238 421.816C501.238 421.816 529.796 440.665 532.156 466.657C534.533 492.649 544.432 515.485 544.432 515.485" stroke="#9D9FA7" stroke-width="1.14765" stroke-miterlimit="10"/>
<path d="M489.658 459.614C489.658 459.614 511.951 466.706 524.872 446.211" stroke="#9D9FA7" stroke-width="1.14765" stroke-miterlimit="10"/>
<path d="M477.077 400.692C459.488 427.312 496.603 445.787 509.575 422.256C522.546 398.724 487.553 384.812 477.077 400.692Z" fill="#808080"/>
<path d="M489.658 406.801C489.658 406.801 484.802 425.022 501.238 430.773" stroke="#9D9FA7" stroke-width="1.14765" stroke-miterlimit="10"/>
<path d="M460.811 361.602C453.867 436.862 517.129 429.414 509.183 366.573L460.811 361.602Z" fill="#C2C2C2"/>
<path d="M495.516 365.285C495.516 365.285 490.066 400.879 501.238 406.8" stroke="#9D9FA7" stroke-width="1.14765" stroke-miterlimit="10"/>
<path d="M505.482 418.793C498.861 423.493 495.244 416.401 501.238 410.887C507.214 405.356 509.744 415.79 505.482 418.793Z" stroke="#9D9FA7" stroke-width="1.14765" stroke-miterlimit="10"/>
<path d="M446.191 497.939C446.259 494.529 446.344 491.424 446.446 488.676C447.329 464.296 449.519 450.978 445.784 430.992C443.73 419.998 440.69 411.312 438.517 405.849C439.536 391.886 440.538 377.94 441.556 363.977C423.898 363.451 415.086 364.707 397.293 360.312C390.026 430.178 404.78 449.994 414.543 497.685C425.121 498.703 435.75 498.804 446.191 497.939Z" fill="#FFCFC4"/>
<path d="M414.544 497.703C416.632 507.866 418.483 519.301 419.841 532.771L446.736 533.84C446.056 519.708 446.005 507.56 446.192 497.958C435.733 498.823 425.105 498.721 414.544 497.703Z" fill="white"/>
<path d="M448.994 530.685C448.994 530.685 455.191 555.726 454.155 567.416C429.332 568.332 384.22 572.048 384.22 572.048C384.22 572.048 384.084 560.121 393.1 554.081C415.308 550.857 416.683 531.33 416.683 531.33L448.994 530.668V530.685Z" fill="#F8572D"/>
<path d="M400.689 552.113C400.689 552.113 406.649 555.693 409.281 557.339" stroke="white" stroke-width="1.14765" stroke-miterlimit="10"/>
<path d="M407.77 547.922L416.632 551.315" stroke="white" stroke-width="1.14765" stroke-miterlimit="10"/>
<path d="M413.101 541.711L421.607 543.679" stroke="white" stroke-width="1.14765" stroke-miterlimit="10"/>
<path d="M415.852 535.773L422.932 537.08" stroke="white" stroke-width="1.14765" stroke-miterlimit="10"/>
<path d="M453.085 551.383C453.085 551.383 442.507 552.655 442.745 564.124" stroke="#B52229" stroke-width="1.14765" stroke-linecap="round" stroke-linejoin="round"/>
<path d="M423.391 531.363C423.391 531.363 425.31 553.181 402.083 560.46" stroke="#B52229" stroke-width="1.14765" stroke-linecap="round" stroke-linejoin="round"/>
<path d="M393.1 554.098C404.289 556.795 404.204 567.67 404.204 567.67C406.004 568.179 441.693 566.822 454.461 562.309C454.495 564.294 454.546 566.262 454.58 568.247C442.661 570.69 431.982 572.336 423.866 573.439C407.193 575.695 399.332 575.78 391.199 574.762C387.209 574.253 383.966 573.574 381.776 573.082C381.742 572.319 381.708 571.267 381.742 570.012C381.776 568.264 381.928 566.109 382.353 564.447C383.439 560.358 386.852 555.692 393.066 554.132L393.1 554.098Z" fill="white"/>
<path d="M416.361 507.307C416.361 507.307 437.058 511.209 446.108 506.934" stroke="#B3DBF9" stroke-width="1.14765" stroke-miterlimit="10"/>
<path d="M373.014 124.487C373.014 124.487 371.181 111.203 368.889 103.484C372.573 100.158 374.967 81.8013 370.892 79.6637C366.444 77.3393 363.133 87.1286 363.133 87.1286C363.133 87.1286 359.567 60.6111 353.778 61.6799C348.854 62.5961 354.372 82.1916 354.372 82.1916C354.372 82.1916 348.735 61.6629 343.709 62.5452C339.872 63.2238 347.529 83.9899 347.529 83.9899C347.529 83.9899 341.451 62.7318 335.135 66.1419C331.179 68.2796 341.06 88.3841 341.06 88.3841C341.06 88.3841 333.658 71.7406 330.381 73.539C326.815 75.4901 331.434 99.0386 340.568 108.166C343.064 110.66 345.509 129.17 345.509 129.17L373.031 124.47L373.014 124.487Z" fill="#FFCFC4"/>
<path d="M363.115 87.1275C363.115 87.1275 356.035 86.7373 356.035 95.7292" stroke="#762F0E" stroke-width="1.14765" stroke-linecap="round" stroke-linejoin="round"/>
<path d="M356.765 79.1562C356.765 79.1562 342.01 80.8189 336.747 84.246" stroke="#762F0E" stroke-width="1.14765" stroke-linecap="round" stroke-linejoin="round"/>
<path d="M387.141 148.698C386.886 151.192 386.665 153.686 386.462 156.18C371.317 118.058 368.889 103.484 368.889 103.484L340.551 108.184C340.551 108.184 339.414 232.611 403.899 209.86C413.339 208.062 421.166 185.531 426.446 164.782C411.335 164.222 396.903 161.151 387.158 148.698H387.141Z" fill="#FFCFC4"/>
<path d="M432.253 80.7852C397.328 87.1473 390.248 117.177 387.141 148.699C396.903 161.152 411.318 164.223 426.429 164.783C431.081 146.494 433.73 129.596 433.73 129.596L432.253 80.7852Z" fill="#556CCE"/>
<path d="M386.462 156.18L388.397 163.187" stroke="#762F0E" stroke-width="1.14765" stroke-linecap="round" stroke-linejoin="round"/>
<path d="M547.166 144.817C543.685 115.602 535.382 88.9316 502.715 82.9766L501.238 131.787C501.238 131.787 503.361 145.275 507.13 161.206C521.732 160.29 537.895 155.98 547.183 144.8L547.166 144.817Z" fill="#556CCE"/>
<path d="M517.128 371.783L518.622 239.28C483.493 239.28 445.852 237.125 410.723 237.125C407.989 264.66 401.198 291.619 398.464 319.155C397.53 328.52 395.917 340.701 394.101 353.171C393.676 356.106 393.286 358.889 392.912 361.586C410.4 367.117 432.574 371.732 450.164 373.377L459.791 304.004C459.791 304.004 456.599 342.618 456.277 372.919C475.021 376.974 495.497 378.925 517.128 371.783Z" fill="#163C51"/>
<path d="M517.128 243.133C517.128 243.133 466.515 266.105 410.18 245.746" stroke="#0A0F22" stroke-width="1.14765" stroke-linecap="round" stroke-linejoin="round"/>
<path d="M459.793 304.682L440.539 301.594" stroke="#0A0F22" stroke-width="1.14765" stroke-linecap="round" stroke-linejoin="round"/>
<path d="M521.73 247.9C514.82 258.945 496.517 255.993 472.339 248.579C448.348 241.216 418.975 241.301 405.426 237.144C402.098 189.284 402.557 164.819 399.314 117.009C398.142 99.8569 416.938 84.3841 433.984 80.0578C442.728 77.8353 452.848 76.2066 464.172 75.986C476.431 75.7485 495.821 80.0239 509.081 85.3172C532.274 94.5805 532.41 120.148 532.274 138.878C531.917 187.774 523.717 201.414 521.73 247.917V247.9Z" fill="#556CCE"/>
<path d="M479.59 47.5859L478.571 79.2102L475.923 81.0255C468.316 86.2171 458.18 86.1153 450.692 80.7371L450.726 52.2176L479.59 47.5859Z" fill="#FFCFC4"/>
<path d="M483.631 78.6148C484.803 83.2974 474.785 90.7623 461.712 89.3711C448.638 87.9629 443.765 80.7694 445.769 77.9531" stroke="#3348A3" stroke-width="1.14765" stroke-linecap="round" stroke-linejoin="round"/>
<path d="M443.255 252.973L443.662 292.588L449.469 293.402L451.965 254.194" stroke="#0A0F22" stroke-width="1.14765" stroke-linecap="round" stroke-linejoin="round"/>
<path d="M400.231 131.43L403.882 209.863" stroke="#3348A3" stroke-width="1.14765" stroke-linecap="round" stroke-linejoin="round"/>
<path d="M395.342 344.469C395.342 344.469 434.647 354.275 452.73 354.903" stroke="#0A0F22" stroke-width="1.14765" stroke-linecap="round" stroke-linejoin="round"/>
<path d="M456.735 354.902H517.129" stroke="#0A0F22" stroke-width="1.14765" stroke-linecap="round" stroke-linejoin="round"/>
<path d="M561.954 126.694C561.954 126.694 563.787 113.41 566.079 105.691C562.395 102.365 560.001 84.0084 564.076 81.8707C568.524 79.5464 571.835 89.3356 571.835 89.3356C571.835 89.3356 575.401 62.8181 581.19 63.8869C586.114 64.8031 580.596 84.3986 580.596 84.3986C580.596 84.3986 586.233 63.87 591.259 64.7522C595.096 65.4308 587.439 86.197 587.439 86.197C587.439 86.197 593.517 64.9388 599.833 68.3489C603.789 70.4866 593.907 90.5911 593.907 90.5911C593.907 90.5911 601.31 73.9477 604.587 75.746C608.153 77.6971 603.534 101.246 594.4 110.373C591.904 112.867 589.459 131.377 589.459 131.377L561.937 126.677L561.954 126.694Z" fill="#FFCFC4"/>
<path d="M571.853 89.3345C571.853 89.3345 578.933 88.9443 578.933 97.9362" stroke="#762F0E" stroke-width="1.14765" stroke-linecap="round" stroke-linejoin="round"/>
<path d="M578.202 81.3633C578.202 81.3633 592.957 83.0259 598.22 86.453" stroke="#762F0E" stroke-width="1.14765" stroke-linecap="round" stroke-linejoin="round"/>
<path d="M566.08 105.691C566.08 105.691 562.939 120.316 548.507 158.387C548.134 153.857 547.709 149.31 547.166 144.832C537.879 156.012 521.732 160.321 507.113 161.237C512.343 183.327 527.742 212.067 538.065 214.035C592.72 229.491 594.401 110.408 594.401 110.408L566.063 105.708L566.08 105.691Z" fill="#FFCFC4"/>
<path d="M548.506 158.387L546.57 165.394" stroke="#762F0E" stroke-width="1.14765" stroke-linecap="round" stroke-linejoin="round"/>
<path d="M507.129 161.237H501.238L489.658 120.332" stroke="#3348A3" stroke-width="1.14765" stroke-linecap="round" stroke-linejoin="round"/>
<path d="M498.385 150.768C498.385 150.768 537.843 149.547 545.603 134.125" stroke="#3348A3" stroke-width="1.14765" stroke-linecap="round" stroke-linejoin="round"/>
<path d="M388.396 139.32C388.396 139.32 395.324 147.142 400.231 147.057" stroke="#3348A3" stroke-width="1.14765" stroke-linecap="round" stroke-linejoin="round"/>
<path d="M405.069 231.797C405.069 231.797 452.1 233.697 466.651 240.195C481.202 246.693 515.652 251.443 522.002 242.417" stroke="#3348A3" stroke-width="1.14765" stroke-linecap="round" stroke-linejoin="round"/>
<path d="M441.745 33.8766C438.536 52.7765 434.988 67.5368 454.734 70.1834C468.537 72.0327 480.168 60.5129 483.377 41.5961C486.586 22.6961 485.261 11.2951 471.543 8.97081C457.824 6.64649 444.954 14.9597 441.745 33.8596V33.8766Z" fill="#FFCFC4"/>
<path d="M449.335 42.6484C445.43 38.4918 443.715 44.0566 448.027 47.4667" stroke="#59240B" stroke-width="1.14765" stroke-linecap="round" stroke-linejoin="round"/>
<path d="M461.678 70.3872C461.678 70.3872 457.637 71.2864 451.151 69.5898" stroke="#59240B" stroke-width="1.14765" stroke-linecap="round" stroke-linejoin="round"/>
<path d="M476.737 45.8194C474.496 50.1626 475.209 54.9639 478.299 56.5757C481.406 58.1705 485.736 55.9479 487.96 51.6047C490.201 47.2615 489.488 42.4601 486.398 40.8484C483.291 39.2536 478.961 41.4761 476.737 45.8194Z" fill="#FFCFC4"/>
<path d="M454.378 39.8162C454.089 40.919 454.446 41.9539 455.142 42.1236C455.838 42.3102 456.653 41.5637 456.925 40.4609C457.196 39.3582 456.857 38.3402 456.161 38.1536C455.465 37.967 454.65 38.7135 454.378 39.8162Z" fill="#0A0F22"/>
<path d="M443.376 37.66C443.104 38.7628 443.444 39.7807 444.14 39.9673C444.853 40.154 445.651 39.4075 445.923 38.3047C446.194 37.2019 445.855 36.167 445.159 35.9973C444.445 35.8107 443.647 36.5572 443.376 37.66Z" fill="#0A0F22"/>
<path d="M460.134 33.7912C460.134 33.7912 457.791 31.1615 455.465 31.7553" stroke="#59240B" stroke-width="1.14765" stroke-linecap="round" stroke-linejoin="round"/>
<path d="M447.941 30.7745C447.941 30.7745 445.751 29.8244 444.376 31.3174" stroke="#59240B" stroke-width="1.14765" stroke-linecap="round" stroke-linejoin="round"/>
<path d="M454.207 52.4707C454.207 52.4707 449.946 55.9317 446.363 51.6055" stroke="#59240B" stroke-width="1.14765" stroke-linecap="round" stroke-linejoin="round"/>
<path d="M484.854 40.3225C484.854 40.3225 478.164 43.3424 476.857 48.7036C472.952 44.53 474.938 36.9463 476.466 35.3176C477.995 33.6889 471.543 28.8197 475.023 24.171C463.121 27.9544 457.892 23.6281 457.671 22.1182C444.343 26.665 440.387 20.0314 440.658 14.5345C440.896 9.61438 445.633 0.452845 468.181 0.99575C490.729 1.53866 492.359 12.6852 493.004 17.7749C496.79 26.4445 495.873 41.8494 484.837 40.3225H484.854Z" fill="#995C5F"/>
<path d="M484.853 15.4006C484.853 15.4006 478.996 13.1272 475.447 17.0293" stroke="#6E4244" stroke-width="1.14765" stroke-linecap="round" stroke-linejoin="round"/>
<path d="M475.431 7.39214C475.431 7.39214 463.478 5.22052 462.035 12.1595" stroke="#6E4244" stroke-width="1.14765" stroke-linecap="round" stroke-linejoin="round"/>
<path d="M450.031 15.8908C450.031 15.8908 446.584 6.74626 456.415 6.10156" stroke="#6E4244" stroke-width="1.14765" stroke-linecap="round" stroke-linejoin="round"/>
<path d="M481.408 26.4453C481.408 26.4453 486.434 27.5142 491.154 26.4453" stroke="#6E4244" stroke-width="1.14765" stroke-linecap="round" stroke-linejoin="round"/>
<path d="M482.358 33.1953C482.358 33.1953 488.08 36.8769 493.344 35.316" stroke="#6E4244" stroke-width="1.14765" stroke-linecap="round" stroke-linejoin="round"/>
<path d="M456.414 15.8925C456.414 15.8925 454.003 9.3607 461.202 7.07031" stroke="#6E4244" stroke-width="1.14765" stroke-linecap="round" stroke-linejoin="round"/>
<path d="M229.613 541.713C206.556 541.713 187.777 509.902 187.777 470.796C187.777 431.69 206.539 399.879 229.613 399.879C252.687 399.879 271.448 431.69 271.448 470.796C271.448 509.902 252.687 541.713 229.613 541.713ZM229.613 404.697C209.204 404.697 192.599 434.353 192.599 470.796C192.599 507.239 209.204 536.895 229.613 536.895C250.021 536.895 266.626 507.239 266.626 470.796C266.626 434.353 250.021 404.697 229.613 404.697Z" fill="#808080"/>
<path d="M229.002 489.17C234.843 489.17 239.579 480.944 239.579 470.796C239.579 460.648 234.843 452.422 229.002 452.422C223.16 452.422 218.424 460.648 218.424 470.796C218.424 480.944 223.16 489.17 229.002 489.17Z" fill="#C2C2C2"/>
<path d="M49.5189 495.94L57.7876 483.793C57.7876 483.793 81.2351 496.585 80.6409 496.992C80.0466 497.383 72.1685 512.346 72.1685 512.346L49.502 495.94H49.5189Z" fill="white"/>
<path d="M228.746 152.112C242.465 150.415 257.1 174.388 260.683 197.325C262.958 208.234 272.381 213.901 272.381 213.901C272.381 213.901 228.814 256.333 182.326 223.198C187.861 217.99 194.245 193.966 190.068 179.664C185.892 165.362 199.084 141.779 228.746 152.112Z" fill="#59240B"/>
<path d="M117.166 543.125V512.281C117.166 501.423 120.613 495.281 124.823 495.281" stroke="#666666" stroke-width="2.87421" stroke-miterlimit="10" stroke-linecap="round"/>
<path d="M148.05 542.868C148.05 558.137 140.936 570.505 132.141 570.505C123.346 570.505 116.232 558.137 116.232 542.868C116.232 527.599 123.346 515.23 132.141 515.23C140.936 515.23 148.05 527.599 148.05 542.868Z" fill="#F2F2F2"/>
<path d="M130.035 575.648C118.744 575.648 109.898 561.244 109.898 542.854C109.898 524.463 118.744 510.059 130.035 510.059C141.326 510.059 150.172 524.463 150.172 542.854C150.172 561.244 141.326 575.648 130.035 575.648ZM132.158 520.374C125.824 520.374 120.493 530.672 120.493 542.854C120.493 555.035 125.841 565.333 132.158 565.333C138.474 565.333 143.822 555.035 143.822 542.854C143.822 530.672 138.474 520.374 132.158 520.374Z" fill="#163C51"/>
<path d="M139.255 542.871C139.255 549.691 136.079 555.222 132.14 555.222C128.201 555.222 125.026 549.691 125.026 542.871C125.026 536.05 128.201 530.52 132.14 530.52C136.079 530.52 139.255 536.05 139.255 542.871Z" fill="#999999"/>
<path d="M135.705 542.867C135.705 546.277 134.109 549.043 132.157 549.043C130.204 549.043 128.608 546.277 128.608 542.867C128.608 539.457 130.204 536.691 132.157 536.691C134.109 536.691 135.705 539.457 135.705 542.867Z" fill="#F2F2F2"/>
<path d="M124.822 495.262C129.033 495.262 132.48 501.403 132.48 508.919V543.122" stroke="#666666" stroke-width="2.87421" stroke-miterlimit="10" stroke-linecap="round"/>
<path d="M224.335 562.771C209.597 562.771 195.861 552.982 185.623 535.185C175.691 517.931 170.224 495.061 170.224 470.8C170.224 446.539 175.691 423.686 185.623 406.415C195.861 388.617 209.614 378.828 224.335 378.828C239.055 378.828 252.808 388.617 263.046 406.415C272.979 423.669 278.446 446.539 278.446 470.8C278.446 495.061 272.979 517.914 263.046 535.185C252.808 552.982 239.055 562.771 224.335 562.771ZM226.338 388.634C200.921 388.634 180.258 425.501 180.258 470.8C180.258 516.098 200.938 552.965 226.338 552.965C251.738 552.965 272.418 516.098 272.418 470.8C272.418 425.501 251.738 388.634 226.338 388.634Z" fill="#C2C2C2"/>
<path d="M224.334 567.658C208.816 567.658 194.333 557.343 183.552 538.613C173.093 520.442 167.337 496.351 167.337 470.817C167.337 445.284 173.093 421.192 183.552 403.022C194.333 384.292 208.816 373.977 224.334 373.977C239.853 373.977 254.336 384.292 265.117 403.022C275.576 421.192 281.332 445.284 281.332 470.817C281.332 496.351 275.576 520.442 265.117 538.613C254.336 557.343 239.853 567.658 224.334 567.658ZM226.457 384.275C199.698 384.275 177.932 423.093 177.932 470.8C177.932 518.508 199.698 557.326 226.457 557.326C253.215 557.326 274.982 518.508 274.982 470.8C274.982 423.093 253.215 384.275 226.457 384.275Z" fill="#163C51"/>
<path d="M330.111 304.262H226.982V407.312H330.111V304.262Z" fill="#546919"/>
<path d="M130.478 495.941H120.851V386.444C120.851 363.744 136.386 345.285 155.487 345.285H226.475V354.905H155.487C141.7 354.905 130.478 369.054 130.478 386.444V495.941Z" fill="#808080"/>
<path d="M213.451 350.104H144.348C141.699 350.104 139.56 347.966 139.56 345.32C139.56 342.673 141.699 340.535 144.348 340.535H213.451C216.1 340.535 218.239 342.673 218.239 345.32C218.239 347.966 216.1 350.104 213.451 350.104Z" fill="#6383EF"/>
<path d="M297.989 402.34H128.406V411.959H297.989V402.34Z" fill="#808080"/>
<path d="M298.889 468.949H127.557V478.569H298.889V468.949Z" fill="#808080"/>
<path d="M208.491 282.201C207.388 323.14 217.575 342.328 185.434 342.718C153.294 343.108 142.75 344.466 142.75 344.466L136.247 321.273L170.035 312.536L173.057 269.375L208.491 282.218V282.201Z" fill="#FFCFC4"/>
<path d="M211.087 243.386C209.848 220.227 178.556 233.512 171.799 252.734C168.675 261.59 165.975 268.037 164.107 287.938C177.351 294.249 196.027 287.938 209.797 289.482C211.902 269.462 211.784 256.619 211.087 243.386Z" fill="#FDD748"/>
<path d="M210.443 283.087C210.443 283.087 180 284.58 164.872 281.102" stroke="#FDB948" stroke-width="1.14765" stroke-linecap="round" stroke-linejoin="round"/>
<path d="M138.029 320.953C100.336 325.975 99.5212 354.206 105.956 357.056C110.914 359.245 108.978 342.177 108.978 342.177C108.978 342.177 106.584 357.701 112.102 361.773C116.33 364.895 116.585 349.354 116.585 349.354C116.585 349.354 110.031 365.709 115.176 366.981C120.32 368.254 124.174 352.917 124.174 352.917C124.174 352.917 123.988 367.762 128.317 366.591C132.647 365.404 133.02 351.865 133.02 351.865C133.02 351.865 143.038 351.169 150.016 344.145" fill="#FFCFC4"/>
<path d="M108.793 354.546V346.742" stroke="#762F0E" stroke-width="1.14765" stroke-linecap="round" stroke-linejoin="round"/>
<path d="M113.258 361.741L116.008 349" stroke="#762F0E" stroke-width="1.14765" stroke-linecap="round" stroke-linejoin="round"/>
<path d="M123.715 354.548L124.581 349" stroke="#762F0E" stroke-width="1.14765" stroke-linecap="round" stroke-linejoin="round"/>
<path d="M170.017 312.519L181.138 311.094" stroke="#762F0E" stroke-width="1.14765" stroke-linecap="round" stroke-linejoin="round"/>
<path d="M150.016 339.582C156.111 352.968 143.428 359.856 139.234 358.482C135.024 357.108 143.309 345.876 143.309 345.876" fill="#FFCFC4"/>
<path d="M144.719 343.992L139.625 351.78" stroke="#762F0E" stroke-width="1.14765" stroke-linecap="round" stroke-linejoin="round"/>
<path d="M13.4219 489.035C18.7702 484.353 27.0048 482.469 37.1072 489.527C47.2095 496.585 51.6749 491.19 51.6749 491.19L75.1734 509.157C75.1734 509.157 67.3122 528.107 61.7942 529.363C56.2761 530.618 13.4389 489.052 13.4389 489.052L13.4219 489.035Z" fill="#163C51"/>
<path d="M9.19531 491.649L14.6115 488.086C14.6115 488.086 22.8632 491.869 28.3643 497.672C33.8654 503.474 53.272 519.337 53.272 519.337L39.0778 521.407L9.21229 491.649H9.19531Z" fill="#39436C"/>
<path d="M15.3243 505.019C4.88237 491.43 5.20496 482.336 30.2316 504.85C55.2582 527.363 48.229 528.67 41.6243 526.973C35.0026 525.277 19.501 510.448 15.3243 505.036V505.019Z" fill="#4F587D"/>
<path d="M39.8249 491.172C39.8249 491.172 44.7487 497.823 39.4004 507.747" stroke="#39436C" stroke-width="1.14765" stroke-linecap="round" stroke-linejoin="round"/>
<path d="M44.2894 484.368L89.5546 383.082C92.8315 373.107 102.136 366.371 112.646 366.371H228.016V404.137H135.567L94.02 507.119L44.2725 484.368H44.2894Z" fill="#F85F37"/>
<path d="M117.061 483.995L151.239 383.082C154.516 373.107 163.82 366.371 174.33 366.371H289.7V379.57C289.7 393.143 278.698 404.137 265.115 404.137H197.268L164.907 507.747L117.061 483.995Z" fill="#F85F37"/>
<path d="M144.719 402.95C152.003 377.654 158.081 364.014 188.405 366.372" stroke="#B52229" stroke-width="1.14765" stroke-linecap="round" stroke-linejoin="round"/>
<path d="M124.82 495.074L128.59 489.543C128.59 489.543 153.311 501.3 152.716 501.69C152.122 502.081 147.487 511.48 147.487 511.48L124.82 495.074Z" fill="white"/>
<path d="M88.5859 489.035C93.9342 484.353 102.169 482.469 112.271 489.527C122.374 496.585 124.818 491.19 124.818 491.19L150.32 509.157C150.32 509.157 142.459 528.107 136.941 529.363C131.423 530.618 88.5859 489.052 88.5859 489.052V489.035Z" fill="#163C51"/>
<path d="M84.3594 491.649L89.7756 488.086C89.7756 488.086 98.0272 491.869 103.528 497.672C109.029 503.474 128.436 519.337 128.436 519.337L114.242 521.407L84.3764 491.649H84.3594Z" fill="#39436C"/>
<path d="M90.4883 505.019C80.0464 491.43 80.369 482.336 105.396 504.85C130.422 527.363 123.393 528.67 116.788 526.973C110.167 525.277 94.6651 510.448 90.4883 505.036V505.019Z" fill="#4F587D"/>
<path d="M114.99 491.172C114.99 491.172 119.914 497.823 114.565 507.747" stroke="#39436C" stroke-width="1.14765" stroke-linecap="round" stroke-linejoin="round"/>
<path d="M2.94685 511.484H60.0462L77.1947 531.64L75.0554 537.697H24.5947L0.943359 517.049L2.94685 511.484Z" fill="#808080"/>
<path d="M2.94685 511.484H60.0462L77.1947 531.64L75.0554 537.697L57.788 516.404L0.943359 517.049L2.94685 511.484Z" fill="#C2C2C2"/>
<path d="M57.7891 516.404L60.0472 511.484" stroke="#9D9FA7" stroke-width="1.14765" stroke-miterlimit="10"/>
<path d="M90.6588 511.484H147.758L164.907 531.64L162.767 537.697H112.29L88.6553 517.049L90.6588 511.484Z" fill="#808080"/>
<path d="M90.6588 511.484H147.758L164.907 531.64L162.767 537.697L145.5 516.404L88.6553 517.049L90.6588 511.484Z" fill="#C2C2C2"/>
<path d="M145.501 516.404L147.759 511.484" stroke="#9D9FA7" stroke-width="1.14765" stroke-miterlimit="10"/>
<path d="M177.08 366.098C197.743 286.868 159.032 304.258 180.306 253.903C185.298 242.112 192.174 233.951 204.127 228.556C246.183 209.572 284.64 231.576 279.224 264.558C277.187 276.926 277.832 282.847 278.545 302.646C279.699 334.83 287.442 342.719 293.282 369.406C275.2 379.043 261.396 379.755 251.854 378.398C236.166 376.159 226.641 367.574 203.94 365.877C196.64 365.335 181.155 365.691 177.08 366.098Z" fill="#FDD748"/>
<path d="M243.314 222.162C231.955 220.364 218.457 222.111 204.127 228.575C202.751 229.203 201.461 229.848 200.222 230.526C201.274 237.889 203.974 253.176 208.898 258.299C232.753 244.37 241.123 227.574 243.297 222.162H243.314Z" fill="#FFCFC4"/>
<path d="M372.591 260.691H352.777C348.97 260.691 345.884 263.775 345.884 267.58V269.022C345.884 272.826 348.97 275.91 352.777 275.91H372.591C376.398 275.91 379.485 272.826 379.485 269.022V267.58C379.485 263.775 376.398 260.691 372.591 260.691Z" fill="#163C51"/>
<path d="M221.53 543.121V512.277C221.53 501.419 224.977 495.277 229.188 495.277" stroke="#808080" stroke-width="2.87421" stroke-miterlimit="10" stroke-linecap="round"/>
<path d="M236.506 570.505C245.292 570.505 252.415 558.131 252.415 542.868C252.415 527.604 245.292 515.23 236.506 515.23C227.719 515.23 220.597 527.604 220.597 542.868C220.597 558.131 227.719 570.505 236.506 570.505Z" fill="#F2F2F2"/>
<path d="M234.384 575.644C223.093 575.644 214.247 561.241 214.247 542.85C214.247 524.459 223.093 510.055 234.384 510.055C245.675 510.055 254.521 524.459 254.521 542.85C254.521 561.241 245.675 575.644 234.384 575.644ZM236.506 520.37C230.173 520.37 224.842 530.668 224.842 542.85C224.842 555.031 230.19 565.329 236.506 565.329C242.822 565.329 248.171 555.031 248.171 542.85C248.171 530.668 242.822 520.37 236.506 520.37Z" fill="#163C51"/>
<path d="M236.506 555.218C240.435 555.218 243.62 549.688 243.62 542.867C243.62 536.045 240.435 530.516 236.506 530.516C232.577 530.516 229.392 536.045 229.392 542.867C229.392 549.688 232.577 555.218 236.506 555.218Z" fill="#999999"/>
<path d="M240.054 542.867C240.054 546.277 238.458 549.043 236.506 549.043C234.553 549.043 232.957 546.277 232.957 542.867C232.957 539.457 234.553 536.691 236.506 536.691C238.458 536.691 240.054 539.457 240.054 542.867Z" fill="#F2F2F2"/>
<path d="M334.608 478.566H228.984C226.318 478.566 224.179 476.411 224.179 473.765C224.179 471.118 226.335 468.946 228.984 468.946H324.981V285.359C324.981 273.415 333.335 263.711 343.607 263.711H352.181C354.847 263.711 356.986 265.866 356.986 268.529C356.986 271.193 354.83 273.331 352.181 273.331H343.607C338.734 273.331 334.608 278.844 334.608 285.359V478.566Z" fill="#808080"/>
<path d="M327.393 560.902C312.961 560.902 299.497 551.3 289.462 533.876C279.733 516.961 274.368 494.566 274.368 470.797C274.368 447.028 279.733 424.633 289.462 407.718C299.497 390.294 312.961 380.691 327.393 380.691C341.825 380.691 355.289 390.294 365.323 407.718C375.052 424.633 380.417 447.028 380.417 470.797C380.417 494.566 375.052 516.961 365.323 533.876C355.289 551.3 341.825 560.902 327.393 560.902ZM329.362 390.294C304.471 390.294 284.216 426.414 284.216 470.797C284.216 515.179 304.471 551.3 329.362 551.3C354.253 551.3 374.509 515.179 374.509 470.797C374.509 426.414 354.253 390.294 329.362 390.294Z" fill="#C2C2C2"/>
<path d="M326.782 567.654C311.263 567.654 296.78 557.339 285.999 538.609C275.54 520.438 269.784 496.347 269.784 470.813C269.784 445.28 275.54 421.188 285.999 403.018C296.78 384.288 311.263 373.973 326.782 373.973C342.3 373.973 356.783 384.288 367.564 403.018C378.023 421.188 383.779 445.28 383.779 470.813C383.779 496.347 378.023 520.438 367.564 538.609C356.783 557.339 342.3 567.654 326.782 567.654ZM328.904 384.271C302.146 384.271 280.379 423.089 280.379 470.797C280.379 518.504 302.146 557.322 328.904 557.322C355.662 557.322 377.429 518.504 377.429 470.797C377.429 423.089 355.662 384.271 328.904 384.271Z" fill="#163C51"/>
<path d="M341.587 470.796C341.587 480.941 336.85 489.17 331.009 489.17C325.169 489.17 320.432 480.941 320.432 470.796C320.432 460.65 325.169 452.422 331.009 452.422C336.85 452.422 341.587 460.65 341.587 470.796Z" fill="#C2C2C2"/>
<path d="M336.289 470.797C336.289 475.87 333.929 479.992 331.009 479.992C328.089 479.992 325.729 475.87 325.729 470.797C325.729 465.724 328.089 461.602 331.009 461.602C333.929 461.602 336.289 465.724 336.289 470.797Z" fill="#808080"/>
<path d="M229.188 495.262C233.399 495.262 236.846 501.403 236.846 508.919V543.122" stroke="#808080" stroke-width="2.87421" stroke-miterlimit="10" stroke-linecap="round"/>
<path d="M331.434 541.713C308.377 541.713 289.599 509.902 289.599 470.796C289.599 431.69 308.36 399.879 331.434 399.879C354.508 399.879 373.27 431.69 373.27 470.796C373.27 509.902 354.508 541.713 331.434 541.713ZM331.434 404.697C311.026 404.697 294.421 434.353 294.421 470.796C294.421 507.239 311.026 536.895 331.434 536.895C351.843 536.895 368.448 507.239 368.448 470.796C368.448 434.353 351.843 404.697 331.434 404.697Z" fill="#808080"/>
<path d="M195.842 233.31C195.842 233.31 197.794 255.637 207.387 262.339C228.628 253.788 245.182 234.651 248.747 223.352" stroke="#FDB948" stroke-width="1.14765" stroke-linecap="round" stroke-linejoin="round"/>
<path d="M233.808 495.938H224.181V386.44C224.181 363.74 239.716 345.281 258.817 345.281H329.805V354.901H258.817C245.031 354.901 233.808 369.05 233.808 386.44V495.938Z" fill="#808080"/>
<path d="M315.644 350.1H246.541C243.892 350.1 241.753 347.962 241.753 345.316C241.753 342.669 243.892 340.531 246.541 340.531H315.644C318.293 340.531 320.432 342.669 320.432 345.316C320.432 347.962 318.293 350.1 315.644 350.1Z" fill="#6383EF"/>
<path d="M210.988 231.292L207.117 214.139L235.319 192.559L234.147 226.643L210.988 231.292Z" fill="#FFCFC4"/>
<path d="M193.483 180.97C191.293 199.921 190.834 214.444 208.288 215.818C222.007 217.006 232.975 204.197 235.166 185.246C237.356 166.295 235.42 155.148 221.701 153.961C207.983 152.773 195.673 162.02 193.5 180.97H193.483Z" fill="#FFCFC4"/>
<path d="M211.685 187.232C211.549 188.369 212.041 189.353 212.771 189.421C213.501 189.489 214.214 188.606 214.333 187.47C214.469 186.333 213.977 185.349 213.247 185.281C212.517 185.213 211.804 186.095 211.685 187.232Z" fill="#0A0F22"/>
<path d="M196.692 185.923C196.557 187.06 197.049 188.044 197.779 188.112C198.509 188.18 199.222 187.298 199.341 186.161C199.477 185.024 198.985 184.04 198.255 183.972C197.524 183.905 196.811 184.787 196.692 185.923Z" fill="#0A0F22"/>
<path d="M203.262 189.522C200.817 188.809 200.036 192.61 202.667 193.475" stroke="#762F0E" stroke-width="1.14765" stroke-linecap="round" stroke-linejoin="round"/>
<path d="M207.099 197.939C206.2 199.618 201.802 200.619 200.07 197.328" stroke="#762F0E" stroke-width="1.14765" stroke-linecap="round" stroke-linejoin="round"/>
<path d="M221.888 211.918C221.888 211.918 212.601 217.432 203.585 215.43" stroke="#762F0E" stroke-width="1.14765" stroke-linecap="round" stroke-linejoin="round"/>
<path d="M231.701 188.909C229.154 193.099 229.494 197.901 232.431 199.631C235.386 201.362 239.834 199.36 242.364 195.169C244.894 190.979 244.571 186.177 241.634 184.447C238.696 182.716 234.231 184.718 231.701 188.909Z" fill="#FFCFC4"/>
<path d="M217.389 181.158C217.389 181.158 214.842 178.834 212.601 179.682" stroke="#762F0E" stroke-width="1.14765" stroke-linecap="round" stroke-linejoin="round"/>
<path d="M200.698 179.255C200.698 179.255 198.457 178.56 197.218 180.205" stroke="#762F0E" stroke-width="1.14765" stroke-linecap="round" stroke-linejoin="round"/>
<path d="M209.153 226.438L209.9 232.783" stroke="#762F0E" stroke-width="1.14765" stroke-linecap="round" stroke-linejoin="round"/>
<path d="M234.64 223.199L234.826 230.325" stroke="#762F0E" stroke-width="1.14765" stroke-linecap="round" stroke-linejoin="round"/>
<path d="M296.203 270.211C319.447 303.939 328.344 342.333 296.203 342.723C264.062 343.113 238.085 344.47 238.085 344.47L231.582 321.278L276.134 311.828L259.987 280.713L296.186 270.211H296.203Z" fill="#FFCFC4"/>
<path d="M271.024 235.822C258.443 219.824 235.148 255.893 241.906 268.312C241.906 268.312 249.818 279.849 258.307 295.389C268.579 286.855 284.505 277.422 296.186 270.229C287.833 254.468 278.206 244.967 271.007 235.822H271.024Z" fill="#FDD748"/>
<path d="M241.905 268.312L257.067 295.39L266.117 289.605" stroke="#FDB948" stroke-width="1.14765" stroke-linecap="round" stroke-linejoin="round"/>
<path d="M292.4 263.594C292.4 263.594 265.285 276.793 254.028 288.805" stroke="#FDB948" stroke-width="1.14765" stroke-linecap="round" stroke-linejoin="round"/>
<path d="M234.078 321.227C208.457 322.787 187.098 345.725 191.139 351.494C195.18 357.245 204.314 342.179 204.314 342.179C204.314 342.179 195.723 355.989 198.372 360.519C201.02 365.049 211.921 349.356 211.921 349.356C211.921 349.356 205.367 365.711 210.512 366.983C215.656 368.256 219.51 352.919 219.51 352.919C219.51 352.919 219.324 367.764 223.653 366.593C227.983 365.422 228.356 351.867 228.356 351.867C228.356 351.867 238.374 351.171 245.352 344.147" fill="#FFCFC4"/>
<path d="M201.921 344.472L206.539 338.941" stroke="#762F0E" stroke-width="1.14765" stroke-linecap="round" stroke-linejoin="round"/>
<path d="M210.767 352.496L213.127 345.879" stroke="#762F0E" stroke-width="1.14765" stroke-linecap="round" stroke-linejoin="round"/>
<path d="M219.052 354.548L219.918 349" stroke="#762F0E" stroke-width="1.14765" stroke-linecap="round" stroke-linejoin="round"/>
<path d="M272.807 312.523L284.777 309.656" stroke="#762F0E" stroke-width="1.14765" stroke-linecap="round" stroke-linejoin="round"/>
<path d="M181.768 250.719C181.768 250.719 168.117 278.237 176.063 292.709" stroke="#FDB948" stroke-width="1.14765" stroke-linecap="round" stroke-linejoin="round"/>
<path d="M192.412 171.842C192.412 171.842 204.773 173.471 209.153 173.793L215.164 164.7L213.007 173.793L225.181 176.711L228.814 167.94C228.169 171.164 227.626 175.948 228.492 181.581C229.035 185.11 229.986 188.096 230.92 190.403C231.293 189.504 231.888 188.384 232.923 187.383C234.485 185.873 237.168 184.38 241.65 184.431C254.894 153.842 206.08 131.226 192.429 171.842H192.412Z" fill="#59240B"/>
<path d="M227.355 157.879C227.355 157.879 222.075 165.683 221.209 171.842" stroke="#3D120A" stroke-width="1.14765" stroke-linecap="round" stroke-linejoin="round"/>
<path d="M214.162 157.879C214.162 157.879 206.521 160.797 207.099 168.924" stroke="#3D120A" stroke-width="1.14765" stroke-linecap="round" stroke-linejoin="round"/>
<path d="M205.079 156.574C205.079 156.574 200.07 161.121 200.07 166.974" stroke="#3D120A" stroke-width="1.14765" stroke-linecap="round" stroke-linejoin="round"/>
<path d="M235.911 164.871C235.911 164.871 234.638 174.067 234.638 179.665" stroke="#3D120A" stroke-width="1.14765" stroke-linecap="round" stroke-linejoin="round"/>
<path d="M241.497 170.164V179.105" stroke="#3D120A" stroke-width="1.14765" stroke-linecap="round" stroke-linejoin="round"/>
<path d="M246.049 170.164C246.049 170.164 251.329 180.717 251.94 190.421C252.552 200.126 256.779 208.235 256.779 208.235" stroke="#3D120A" stroke-width="1.14765" stroke-linecap="round" stroke-linejoin="round"/>
<path d="M247.355 199.496C247.355 199.496 251.668 209.811 254.877 213.9" stroke="#3D120A" stroke-width="1.14765" stroke-linecap="round" stroke-linejoin="round"/>
<path d="M241.497 203.043C241.497 203.043 243.365 211.899 247.355 215.886" stroke="#3D120A" stroke-width="1.14765" stroke-linecap="round" stroke-linejoin="round"/>
<path d="M192.412 221.553L194.348 215.887" stroke="#3D120A" stroke-width="1.14765" stroke-linecap="round" stroke-linejoin="round"/>
<path d="M200.069 215.887L197.217 226.439" stroke="#3D120A" stroke-width="1.14765" stroke-linecap="round" stroke-linejoin="round"/>
<path d="M179.627 540.442C177.132 540.442 174.636 539.798 172.31 538.508L154.21 528.482C151.884 527.192 151.052 524.274 152.343 521.95C153.633 519.625 156.553 518.777 158.88 520.084L176.979 530.11C178.897 531.179 180.595 530.857 181.682 530.399C183.855 529.483 185.621 527.226 186.419 524.342L203.279 463.367C205.52 455.274 211.972 449.828 219.341 449.828H228.968C231.633 449.828 233.773 451.983 233.773 454.629C233.773 457.276 231.616 459.431 228.968 459.431H219.341C216.352 459.431 213.619 462.027 212.549 465.912L195.689 526.887C194.093 532.672 190.341 537.168 185.4 539.238C183.516 540.035 181.563 540.425 179.611 540.425L179.627 540.442Z" fill="#808080"/>
<path d="M123.021 466.402C123.021 466.402 156.231 479.517 170.697 489.187" stroke="#B52229" stroke-width="1.14765" stroke-linecap="round" stroke-linejoin="round"/>
<path d="M52.3213 466.402C52.3213 466.402 92.0345 476.107 103.512 483.64" stroke="#B52229" stroke-width="1.14765" stroke-linecap="round" stroke-linejoin="round"/>
</g>
<defs>
<clipPath id="clip0_435_1434">
<rect width="604.866" height="585.269" fill="white" transform="translate(0.943359 0.980469)"/>
</clipPath>
</defs>
</svg>
