<svg width="4481" height="2286" viewBox="0 0 4481 2286" fill="none" xmlns="http://www.w3.org/2000/svg">
<path d="M2260.72 1260.36L2205.86 1264.13M3853.24 1772.38L3885.51 1776.15L3907.03 1772.92L3923.16 1765.93L4107.64 1606.19L4454.01 1404.5L4477.67 1395.9M4159.27 2236.53L4173.79 2279.02" stroke="#D9D9D9" stroke-width="14.0648"/>
<path d="M2814.69 392.84L2950.22 431.564L3435.89 566.56L3517.64 582.157L3585.4 590.225L3770.42 600.444" stroke="#D9D9D9" stroke-width="14.0648"/>
<path d="M3953.82 1102.24L3960.81 1027.48M2808.77 1033.4L2807.7 1065.67L2818.99 1278.65L2831.9 1653.52M2538.24 1036.09L2536.63 1068.9L2537.7 1171.62L2711.96 1175.39M2205.86 1643.84L2232.75 1641.15" stroke="#D9D9D9" stroke-width="14.0648"/>
<path d="M3666.08 644.545L3677.91 687.572L3713.95 727.371L3738.69 731.674M2870.09 799.979L2963.67 808.584M2864.71 828.484L2920.1 836.014M3442.88 1181.84L3404.69 1178.61" stroke="#D9D9D9" stroke-width="14.0648"/>
<path d="M2933.01 1337.81L3079.3 1341.58L3287.44 1343.73L3560.12 1350.18" stroke="#D9D9D9" stroke-width="14.0648"/>
<path d="M2935.16 1209.81L3080.92 1214.65L3516.56 1222.72" stroke="#D9D9D9" stroke-width="14.0648"/>
<path d="M2934.09 1294.25L3079.84 1298.01L3288.52 1305L3560.66 1311.46" stroke="#D9D9D9" stroke-width="14.0648"/>
<path d="M2930.32 1377.61L3078.76 1382.99L3286.9 1386.22L3559.05 1386.76" stroke="#D9D9D9" stroke-width="14.0648"/>
<path d="M2934.63 1251.76L3080.38 1256.6L3289.6 1260.9L3547.22 1264.13" stroke="#D9D9D9" stroke-width="14.0648"/>
<path d="M4454.54 7.21094L4428.19 102.945M2689.37 135.753L2694.21 112.626L2720.57 19.5811L2845.88 51.8512M2559.76 687.033L2450.04 664.982" stroke="#D9D9D9" stroke-width="14.0648"/>
<path d="M2205.86 332.062L2251.04 346.046L2209.62 460.605L2205.86 459.529M2814.69 392.838L2789.41 511.161L2686.14 491.261M2950.22 431.562L2937.85 490.186M2937.85 490.186L2889.44 698.865M2937.85 490.186L2994.32 576.239L3148.14 585.92M2889.44 698.865L2876.54 761.792M2889.44 698.865L2782.95 677.89M2876.54 761.792L2864.7 828.483L2642.04 791.373L2566.21 776.851M2876.54 761.792L2769.51 742.43M2916.87 581.618L2817.38 563.869M2209.08 568.172L2356.99 606.358M3044.88 579.466L3043.27 638.628L3142.76 644.544M2252.65 579.466L2238.13 621.955L2344.08 648.309M2559.75 687.033L2563.52 664.444L2578.04 644.544L2561.37 610.123M2902.89 638.628L2794.25 617.652M2205.86 669.822L2370.44 708.009L2417.23 747.808L2467.78 733.287L2544.69 748.346M2931.93 732.211L2939.46 687.033M2931.93 732.211L2884.6 723.068M2931.93 732.211L2923.33 783.843M2963.67 808.584L3031.43 819.878L3043.27 839.778L3029.82 1035.55M3064.24 974.237L3133.62 979.077L3145.45 811.811M3064.24 974.237L3055.1 973.699L3066.39 816.113M3064.24 974.237L3059.94 1037.16M2377.43 976.388L2396.79 883.88L2368.28 865.056L2205.86 822.029M3408.99 1056.53L3404.69 1178.61L2969.04 1170.01L2942.15 1182.38L2935.16 1209.81L2933.01 1337.81L2930.32 1377.61L2923.87 1806.8M3542.91 1821.86L3557.44 1441.61L3560.66 1311.46L3554.75 1285.1L3547.22 1264.13L3537.54 1245.84L3516.56 1222.72L3481.06 1209.27L3459.01 1196.9L3442.88 1181.84L3432.66 1166.78L3428.89 1149.03L3435.35 1058.14M3949.52 1330.28L3860.77 1173.24M3926.39 1186.68L3995.23 1303.39M3992.01 1199.59L4036.65 1279.19M4078.06 1254.99L4054.93 1207.66M3684.9 1327.06L3811.29 1327.59M3683.29 1377.07L3806.99 1380.3M3556.36 1470.12L3524.09 1469.04L3525.17 1421.18H3503.11L3411.68 1416.87M3680.06 1428.17L3822.59 1427.09M3677.37 1479.26H3823.66M3674.15 1531.43L3824.2 1530.89M3671.46 1583.06L3824.74 1581.99M3668.23 1633.62L3825.81 1633.08M3670.92 1684.18L3826.35 1685.25M3918.86 2196.73L3928 2253.74M3918.86 2196.73L4056.55 2174.14L4068.92 2182.75L4074.29 2196.2L4065.69 2221.47L3914.02 2256.97L3895.73 2277.95L3891.43 2279.02M3918.86 2196.73L3909.72 2199.96M3909.72 2199.96L3865.08 2259.12L3857.55 2265.58M3909.72 2199.96L3896.81 2179.52L3894.66 2151.02L3884.98 2141.34L3829.04 2220.4L3830.12 2234.38L3857.55 2265.58M3857.55 2265.58L3834.96 2278.48L3812.91 2277.95L3805.91 2279.02M3857.55 2265.58L3880.67 2279.02" stroke="#D9D9D9" stroke-width="14.0648"/>
<path d="M3285.29 310.01L3292.28 277.202L3361.13 31.4121M3135.77 221.268L3153.52 160.492M2325.79 263.219L2317.73 289.573L2245.12 481.041L2215 552.036L2205.86 575.7M2376.89 275.051L2372.05 303.556L2559.75 687.032M3865.61 775.775L3869.38 762.867M2205.86 934.436L2377.43 976.387L2625.91 986.068M3435.35 1058.14L3440.19 973.698M3438.57 998.976L3548.29 1007.04L3544.53 1064.59M2299.44 1043.08L2296.21 1074.81L2283.31 1259.29L2270.4 1504.54L2275.78 1548.64L2269.32 1740.65M4054.93 1207.66L3992.01 1199.59L3860.77 1173.23M3860.77 1173.23L3812.91 1170.01L3811.29 1190.98M3860.77 1173.23L3897.35 1156.02L3931.23 1157.1L4120.55 1182.92L4232.96 1187.22L4230.8 1206.04M3905.41 1356.1L4078.06 1254.98M3502.04 1530.89L3501.5 1596.51L3514.41 1675.57L3512.26 1821.32M3712.33 1770.23L3773.64 1768.62L3853.24 1772.38M3607.45 1794.97L3577.87 1821.32L3058.86 1824.01L3012.07 1839.07H2958.29L2923.87 1806.8" stroke="#D9D9D9" stroke-width="14.0648"/>
<path d="M3153.52 160.494L3212.15 174.477L3275.07 157.805L3317.56 7.21094M2959.9 7.21094L2948.61 49.162L3230.97 122.307L3261.63 7.21094M2828.13 175.015L2832.97 148.123L2848.57 81.9699L2845.88 51.8512L2857.71 7.21094M2631.29 7.21094L2602.24 109.937M2283.31 1259.29L2260.72 1260.36M4477.67 2075.72L4422.81 2077.33M4422.81 2077.33L4416.89 2013.87M4422.81 2077.33L4424.42 2169.84M4416.89 2013.87L4417.43 1955.25L4477.67 1955.78M4416.89 2013.87L4477.67 2013.33M4364.72 2029.47L4417.97 2025.7M4138.3 2243.53L4124.85 2187.05L4343.21 2144.03" stroke="#D9D9D9" stroke-width="14.0648"/>
<path d="M4477.67 1161.4L3707.49 1073.74L3663.39 1072.12L3435.35 1058.14L3029.82 1035.55L2808.77 1033.4L2538.24 1036.09L2299.44 1043.08L2205.86 1048.46" stroke="#D9D9D9" stroke-width="14.0648"/>
<path d="M2260.72 1260.36L2163.37 1267.36L2136.48 1275.96L2050.42 1282.42L2040.2 1271.12L2035.9 1211.42L2071.94 1208.73" stroke="#D9D9D9" stroke-width="14.0648"/>
<path d="M1828.3 1075.89L1851.96 1266.82M1851.96 1266.82L1917.58 1258.21L2067.1 1472.27M1851.96 1266.82L1836.9 1312L1828.3 1448.61L1879.93 1524.98M1783.66 1079.11L1784.73 1122.68L1773.98 1517.45M1773.98 1517.45L1791.72 1686.33L2232.75 1641.15M1773.98 1517.45L1609.94 1515.3M1047.36 1202.82L1062.42 1265.2L1272.18 2060.66M1272.18 2060.66L600.959 2245.68L513.83 2279.02M1272.18 2060.66L1689.54 1962.78M1884.23 1262.52L1943.39 1584.14" stroke="#D9D9D9" stroke-width="14.0648"/>
<path d="M763.385 22.2703L1250.66 304.633L1278.63 254.615L1145.79 177.167L869.338 34.6405L782.209 7.21094M637.532 7.21094L662.81 45.935L680.021 77.1294M876.868 10.9758L1171.06 73.3645L1214.09 94.3401L1296.92 183.083L1351.24 225.034L1401.26 252.463L1467.95 287.423L1424.38 389.611L1622.31 485.346L1717.5 528.91L1835.29 569.786L2105.82 656.377L2171.44 661.755L2274.7 685.958M664.424 189.537L724.661 222.882L714.442 242.244L882.784 344.971M1924.57 244.934L1971.36 259.455M1971.36 259.455L1937.48 389.073L2209.62 460.605L2251.03 346.046L1971.36 259.455ZM1341.02 1069.43L1330.8 1005.43L1377.05 834.938L1443.21 578.391L1438.9 564.407L1237.75 502.018L1101.68 468.673L1073.18 440.705L1106.52 361.106L1014.55 306.247M1858.95 485.883L1957.91 514.389M1957.91 514.389L1953.07 534.288L2141.32 588.61L2153.69 550.961L1962.76 495.564L1957.91 514.389ZM2095.6 793.525L1863.79 719.841L1820.23 670.898L1716.97 634.326L1466.33 528.91M2209.08 568.172L2274.7 584.845M2252.65 579.467L2238.13 621.955L2274.7 631.099M2274.7 840.316L2131.1 802.668M723.048 922.067L637.532 1223.25L455.744 1178.61L424.55 1287.26M830.077 1175.39L823.623 1173.24L726.275 1195.82L714.98 1227.56L726.812 1282.95" stroke="#D9D9D9" stroke-width="14.0648"/>
<path d="M821.471 7.21094L876.868 10.9758M683.786 7.21094L677.332 29.8M1479.24 39.481L1462.03 96.4914M1945.01 162.107L1939.63 186.848L1935.33 200.293L1924.57 244.934L1858.95 485.883L1835.29 569.785M2274.7 403.057L2245.12 481.043L2215 552.037L2171.44 661.755M1525.5 962.942L1560.99 969.934L1602.94 975.85L1663.72 987.683L1698.14 1017.8M1698.14 1017.8L1706.21 975.85L1724.49 959.715M1698.14 1017.8L1701.37 1024.79L1707.82 1086.64M1698.14 1017.8L1341.02 1069.43L1285.62 1078.58L1010.79 1005.43L723.048 922.067L458.971 848.921L388.515 870.973M1724.49 959.715L1799.25 950.572L1863.79 719.841M1724.49 959.715L1701.37 929.059L1680.39 915.075L1586.27 890.872L1377.05 834.938M2075.7 1055.45L2070.86 1029.1L2067.63 984.456L2103.13 909.697M2103.13 909.697L2089.68 815.038L2095.6 793.524M2103.13 909.697L2274.7 951.11M2274.7 1423.87L2270.4 1504.54L2274.7 1538.96M2274.7 1581.99L2269.32 1740.65" stroke="#D9D9D9" stroke-width="14.0648"/>
<path d="M2274.7 1044.15L2075.7 1055.45L1783.66 1079.11L1707.82 1086.64L1510.97 1113L1334.57 1144.19L1162.46 1177.54L1047.36 1202.82L940.333 1228.09L107.765 1439.46L2.88775 1470.66" stroke="#D9D9D9" stroke-width="14.0648"/>
</svg>
