<svg width="4478" height="2274" viewBox="0 0 4478 2274" fill="none" xmlns="http://www.w3.org/2000/svg">
<path d="M3633.34 1921.28L3344.53 2004.64L3090.13 2035.3L2853.48 2078.86" stroke="#CCCCCC" stroke-width="1.94796"/>
<path d="M3741.99 308.314L3735.53 229.253M3741.99 308.314L3598.92 366.938L3518.25 341.66M3741.99 308.314L3832.88 274.969M3735.53 229.253L3772.64 106.626L3779.64 102.324M3735.53 229.253L3707.03 125.988L3779.64 102.324M3779.64 102.324L3831.81 11.9676L3834.5 1.21094M2534.55 1.21094L2464.09 46.389M2847.57 75.9699L2881.45 77.5834L2952.45 24.8756M3094.97 81.3482L3085.29 114.156L3119.18 123.837L3118.1 127.064M4226.04 108.778L4320.16 134.056M3116.49 131.905L3092.28 215.807M4314.24 157.183L4303.49 196.983M4399.22 181.385L4293.81 151.805L4263.69 257.758M2301.13 237.858L2308.12 213.118L2331.79 219.034M4295.42 224.95L4290.04 234.093L4248.63 398.133L4245.94 416.419M4445.48 241.085L4476.67 251.842M3757.05 384.687L3753.28 447.075L3512.33 402.973M3146.07 506.775L3128.32 578.845M3484.9 523.986L3642.49 557.331M2768.51 736.43L2753.45 733.741M3670.99 853.678L3636.04 991.901M3637.65 949.413L3660.78 851.527L3681.75 855.829M3639.26 942.421L3627.97 940.269L3616.67 992.977L3649.48 999.431L3652.17 985.447L3704.34 997.818M3787.17 972.539L3829.12 1031.7M3853.32 1035.47V1048.37L3850.63 1066.12M3853.32 1035.47L3852.24 977.38L3789.86 962.321L3783.4 985.447L3751.67 978.993L3745.22 1019.33L3853.32 1035.47ZM3709.18 1049.99L3703.8 1083.33M3703.8 1083.33L3699.5 1116.14L3777.49 1126.9M3703.8 1083.33L3695.73 1084.95L3689.82 1088.17L3687.13 1096.24L3685.52 1124.21L3654.86 1122.6L3624.74 1119.91M2335.55 1066.66L2295.21 1068.81L2281.77 1061.28L2204.86 1066.12M3777.49 1126.9L3776.41 1172.61M3777.49 1126.9L3842.56 1129.59L3896.35 1134.97V1162.93L3900.11 1166.7L4096.96 1192.51L4110.4 1198.43L4120.09 1206.5L4137.83 1240.92M3617.75 1197.35L3603.23 1195.74M3603.23 1195.74L3596.77 1275.34L3588.17 1274.8L3601.61 1100.01M3603.23 1195.74L3606.99 1153.79L3621.51 1154.87M4137.83 1240.92L3991.54 1329.12M4137.83 1240.92L4201.3 1210.26L4201.84 1204.35L4133.53 1203.27V1196.82L4201.84 1198.43L4203.45 1179.61M3844.18 1366.23L3934 1361.93L3991.54 1329.12M3991.54 1329.12L3994.77 1335.04M2817.99 1272.65L2826.06 1276.42M4035.65 1273.19L4046.94 1295.24M2853.49 2078.86L2880.38 2042.83L2870.7 1877.18L2845.96 1280.18M3994.23 1297.39L4006.6 1319.44M3873.76 1301.16L3821.05 1324.82L3810.29 1325.36M3948.52 1324.28L3961.42 1346.87M3502.11 1415.18L3501.04 1524.9M3592.47 1456.59L3555.36 1456.05M3576.87 1794.35V1815.33M3642.49 1966.46L3652.17 2010.56L3689.28 2006.26L3695.2 2041.22L3716.17 2038.53L3717.79 2050.36L3660.24 2059.5M3674.22 2136.95L3669.92 2130.5L3658.62 2048.75M2859.4 2124.58L2856.71 2105.22M4103.41 2273.02L4163.65 2246.67L4297.03 2197.19L4476.67 2175.67M3834.5 2273.02L3819.44 2247.74L3787.7 2221.39M3939.37 2273.02L3963.58 2264.42M3963.58 2264.42L4091.58 2223.54M3963.58 2264.42L3966.27 2273.02" stroke="#CCCCCC" stroke-width="1.94796"/>
<path d="M3118.1 127.065L3113.8 125.451L3112.18 130.83L3116.49 131.905M4320.16 134.057L4314.24 157.183M4303.49 196.983L4295.42 224.95M4387.93 222.261L4445.47 241.086M2567.9 717.069L2564.67 735.355M3628.5 989.213L3637.65 949.413M3611.29 1105.38L3606.99 1153.79M2826.06 1276.42L2845.96 1280.18M3638.19 1943.87L3642.49 1966.46M3652.17 2010.56L3627.97 2012.71M3658.62 2048.75L3633.34 2052.51M2853.49 2078.86L2856.71 2105.22M2864.24 2164.38L2870.7 2202.03" stroke="#CCCCCC" stroke-width="1.94796"/>
<path d="M4263.69 257.758L4220.12 414.805M4220.12 414.805L4066.3 416.957M4220.12 414.805L4245.94 416.419L4412.67 420.184M4066.3 416.957L3913.02 402.435L3903.88 397.595L3901.19 391.141L3922.7 304.012M4066.3 416.957L3922.7 304.012M3922.7 304.012L3985.09 99.6346M3985.09 99.6346L3998.54 39.935M3985.09 99.6346L4387.93 222.261L4399.22 181.385L4476.67 207.201M3998.54 39.935L4009.29 1.21094M3998.54 39.935L4201.3 101.786M3832.88 274.969L3857.08 187.302M3857.08 187.302L3861.93 160.948M3857.08 187.302L3738.76 219.572M3861.93 160.948L3883.98 72.205M3861.93 160.948L3807.07 174.394L3746.29 194.293M3883.98 72.205L3906.03 1.21094M3883.98 72.205L3779.64 102.324L3838.26 254.531M2325.33 1.21094L2324.8 5.51361M2308.66 1.21094L2389.34 23.8M2389.34 23.8L2464.09 46.389L2606.62 86.1887L2693.21 106.626L2831.97 142.123L3291.28 271.204L3463.93 317.995L3518.25 341.66M2389.34 23.8L2367.28 95.3319L2340.93 82.9617L2204.86 44.7755M3956.58 192.68L3938.3 179.772L3944.21 154.494L3952.82 125.988L3977.02 125.451M2308.12 213.118L2204.86 184.612M2290.37 274.969L2301.13 237.858M2290.37 274.969L2204.86 252.917M2290.37 274.969L2316.73 283.574L2371.05 297.558L2586.18 363.173L2807.23 418.57L2942.77 455.143L3665.08 638.544M3665.08 638.544L3667.23 569.702L3532.23 564.861L3455.32 541.734M3665.08 638.544L3722.09 644.461M4476.67 351.879L4412.67 420.184M4412.67 420.184L4476.67 421.259M3598.92 366.938L3757.05 384.687L3785.55 385.225L3794.16 382.535L3802.76 373.93L3809.22 348.114L3850.09 357.257L3904.95 372.317M3360.66 495.481L3185.87 449.227M3310.65 503.548L3455.32 541.734M3455.32 541.734L3459.63 518.607M2788.41 505.162L2777.11 611.653L2740 802.046M3722.09 644.461L3750.06 655.217L3776.41 662.209M3722.09 644.461L3712.95 721.371L3652.17 985.447M3776.41 662.209L3785.02 628.326L3794.7 618.645L3807.07 615.418L3889.36 621.872L3994.23 641.234L3998 628.863L4001.76 611.115L4071.68 627.25L4277.67 647.15L4476.67 650.377M3776.41 662.209L3759.74 760.095L3704.34 997.818L3698.96 1037.08L3701.65 1041.92L3709.18 1049.99L3850.63 1066.12L3955.51 1075.27L4476.67 1130.12M2558.75 681.033L2567.9 717.068M2828.21 747.187L2840.04 683.185M2565.75 731.052L2558.75 730.514L2543.69 742.346M2564.67 735.355L2565.21 770.852M2654.49 787.524L2659.87 758.481L2869.08 793.979M2335.55 1066.66L2773.89 1059.67H2909.96L3231.05 1070.96L3406.92 1079.03L3432.2 1079.57L3612.37 1090.33L3616.67 1091.94L3620.98 1095.7L3625.28 1105.92L3624.74 1119.91L3592.47 1456.59M3592.47 1456.59L3576.87 1794.35L3562.89 1793.81M3592.47 1456.59L3658.62 1457.13M3685.52 1124.21L3672.61 1231.24L3646.25 1658.28L3650.02 1675.49L3658.09 1695.39L3669.38 1708.3L3681.21 1717.98L3705.95 1729.27L3731.23 1736.26L3772.64 1742.72M3080.45 1166.16L3077.23 1399.58M3290.75 1170.46L3284.83 1402.81M3806.53 1367.85L3844.18 1366.23V1766.38M3410.68 1410.87L3376.26 1406.03L3077.23 1395.28M3844.71 1514.68L3823.2 1515.75M3606.45 1788.97L3628.51 1829.31L3627.43 1887.4L3638.19 1943.87M2723.33 2273.02L2762.59 2232.15L2870.7 2202.03" stroke="#CCCCCC" stroke-width="1.94796"/>
<path d="M3627.97 2012.71L2859.4 2124.58L2800.78 2134.26M3633.34 2052.51L2864.24 2164.38L2801.85 2171.91" stroke="#CCCCCC" stroke-width="1.94796"/>
<path d="M1187.27 1.21094L1181.9 21.6486M101.387 1.21094L91.1682 41.0107L1.88775 436.857M1170.06 67.3645L1144.79 171.167M2273.7 1061.82L2109.66 1072.58L1936.48 1087.64L1832.14 1102.7L1783.73 1116.68L1499.76 1173.69L1061.42 1259.21L1.88775 1514.14" stroke="#CCCCCC" stroke-width="1.94796"/>
</svg>
