<svg width="34" height="56" viewBox="0 0 34 56" fill="none" xmlns="http://www.w3.org/2000/svg">
<g clip-path="url(#clip0_441_7012)">
<path d="M17.9602 16.5596C17.9602 16.1936 17.8148 15.8427 17.556 15.5839C17.2973 15.3251 16.9463 15.1797 16.5803 15.1797C16.2143 15.1797 15.8633 15.3251 15.6045 15.5839C15.3457 15.8427 15.2003 16.1936 15.2003 16.5596V26.2193H5.51862C5.15263 26.2193 4.80164 26.3646 4.54285 26.6234C4.28406 26.8822 4.13867 27.2332 4.13867 27.5992C4.13867 27.9652 4.28406 28.3162 4.54285 28.575C4.80164 28.8338 5.15263 28.9792 5.51862 28.9792H15.2003V38.6388C15.2003 39.0048 15.3457 39.3558 15.6045 39.6146C15.8633 39.8733 16.2143 40.0187 16.5803 40.0187C16.9463 40.0187 17.2973 39.8733 17.556 39.6146C17.8148 39.3558 17.9602 39.0048 17.9602 38.6388V28.9792H27.5978C27.9638 28.9792 28.3147 28.8338 28.5735 28.575C28.8323 28.3162 28.9777 27.9652 28.9777 27.5992C28.9777 27.2332 28.8323 26.8822 28.5735 26.6234C28.3147 26.3646 27.9638 26.2193 27.5978 26.2193H17.9602V16.5596Z" fill="white"/>
</g>
<defs>
<clipPath id="clip0_441_7012">
<rect width="33.1187" height="55.1979" fill="white"/>
</clipPath>
</defs>
</svg>
