<svg width="41" height="68" viewBox="0 0 41 68" fill="none" xmlns="http://www.w3.org/2000/svg">
<g clip-path="url(#clip0_441_6993)">
<path d="M22.452 20.4722C22.452 19.8958 22.223 19.343 21.8154 18.9354C21.4079 18.5278 20.8551 18.2988 20.2786 18.2988C19.7022 18.2988 19.1494 18.5278 18.7418 18.9354C18.3342 19.343 18.1052 19.8958 18.1052 20.4722V31.6859H6.86479C6.28837 31.6859 5.73556 31.9149 5.32798 32.3225L5.68153 32.676L5.32798 32.3225C4.92039 32.7301 4.69141 33.2829 4.69141 33.8593C4.69141 34.4357 4.92039 34.9885 5.32798 35.3961C5.73556 35.8037 6.28837 36.0327 6.86479 36.0327H18.1052V47.2463C18.1052 47.8228 18.3342 48.3756 18.7418 48.7832C19.1494 49.1908 19.7022 49.4197 20.2786 49.4197C20.8551 49.4197 21.4079 49.1908 21.8154 48.7832C22.223 48.3756 22.452 47.8228 22.452 47.2463V36.0327H33.6389C34.2153 36.0327 34.7682 35.8037 35.1757 35.3961C35.5833 34.9885 35.8123 34.4357 35.8123 33.8593C35.8123 33.2829 35.5833 32.7301 35.1757 32.3225C34.7682 31.9149 34.2153 31.6859 33.6389 31.6859H22.452V20.4722Z" fill="white" stroke="white"/>
</g>
<defs>
<clipPath id="clip0_441_6993">
<rect width="40.1612" height="66.9353" fill="white" transform="translate(0.171875 0.390625)"/>
</clipPath>
</defs>
</svg>
