<svg width="41" height="67" viewBox="0 0 41 67" fill="none" xmlns="http://www.w3.org/2000/svg">
<g clip-path="url(#clip0_441_6742)">
<path d="M22.2792 20.0816C22.2792 19.5052 22.0502 18.9524 21.6426 18.5448C21.235 18.1372 20.6822 17.9082 20.1058 17.9082C19.5294 17.9082 18.9766 18.1372 18.569 18.5448C18.1614 18.9524 17.9324 19.5052 17.9324 20.0816V31.2953H6.69194C6.11552 31.2953 5.56271 31.5243 5.15512 31.9318L5.50868 32.2854L5.15512 31.9318C4.74754 32.3394 4.51855 32.8922 4.51855 33.4687C4.51855 34.0451 4.74754 34.5979 5.15512 35.0055C5.56271 35.4131 6.11552 35.642 6.69194 35.642H17.9324V46.8557C17.9324 47.4321 18.1614 47.985 18.569 48.3925C18.9766 48.8001 19.5294 49.0291 20.1058 49.0291C20.6822 49.0291 21.235 48.8001 21.6426 48.3925C22.0502 47.985 22.2792 47.4321 22.2792 46.8557V35.642H33.4661C34.0425 35.642 34.5953 35.4131 35.0029 35.0055C35.4105 34.5979 35.6395 34.0451 35.6395 33.4687C35.6395 32.8922 35.4105 32.3394 35.0029 31.9318C34.5953 31.5243 34.0425 31.2953 33.4661 31.2953H22.2792V20.0816Z" fill="white" stroke="white"/>
</g>
<defs>
<clipPath id="clip0_441_6742">
<rect width="40.1612" height="66.9353" fill="white"/>
</clipPath>
</defs>
</svg>
