<svg width="31" height="51" viewBox="0 0 31 51" fill="none" xmlns="http://www.w3.org/2000/svg">
<g clip-path="url(#clip0_441_7036)">
<path d="M9.10414 29.262H21.7131C22.382 29.262 23.0234 29.5277 23.4963 30.0007C23.9692 30.4736 24.2349 31.115 24.2349 31.7838V36.8274H26.7567V31.7838C26.7567 30.4462 26.2254 29.1633 25.2795 28.2175C24.3336 27.2716 23.0508 26.7402 21.7131 26.7402H9.10414C7.7665 26.7402 6.48364 27.2716 5.53778 28.2175C4.59192 29.1633 4.06055 30.4462 4.06055 31.7838V36.8274H6.58235V31.7838C6.58235 31.115 6.84803 30.4736 7.32096 30.0007C7.79389 29.5277 8.43532 29.262 9.10414 29.262Z" fill="#163C51"/>
<path fill-rule="evenodd" clip-rule="evenodd" d="M15.41 22.9583C15.9067 22.9583 16.3986 22.8604 16.8575 22.6703C17.3165 22.4802 17.7335 22.2016 18.0847 21.8504C18.436 21.4991 18.7146 21.0821 18.9047 20.6232C19.0948 20.1642 19.1927 19.6723 19.1927 19.1756C19.1927 18.6788 19.0948 18.187 18.9047 17.728C18.7146 17.2691 18.436 16.8521 18.0847 16.5008C17.7335 16.1496 17.3165 15.8709 16.8575 15.6808C16.3986 15.4907 15.9067 15.3929 15.41 15.3929C14.4067 15.3929 13.4446 15.7914 12.7352 16.5008C12.0258 17.2102 11.6273 18.1724 11.6273 19.1756C11.6273 20.1788 12.0258 21.141 12.7352 21.8504C13.4446 22.5598 14.4067 22.9583 15.41 22.9583ZM15.41 25.4801C17.082 25.4801 18.6856 24.8159 19.8679 23.6335C21.0502 22.4512 21.7145 20.8476 21.7145 19.1756C21.7145 17.5035 21.0502 15.9 19.8679 14.7176C18.6856 13.5353 17.082 12.8711 15.41 12.8711C13.7379 12.8711 12.1343 13.5353 10.952 14.7176C9.76969 15.9 9.10547 17.5035 9.10547 19.1756C9.10547 20.8476 9.76969 22.4512 10.952 23.6335C12.1343 24.8159 13.7379 25.4801 15.41 25.4801Z" fill="#163C51"/>
</g>
<defs>
<clipPath id="clip0_441_7036">
<rect width="30.2616" height="30.2616" fill="white" transform="translate(0.279297 10.3477)"/>
</clipPath>
</defs>
</svg>
