<svg width="266" height="62" viewBox="0 0 266 62" fill="none" xmlns="http://www.w3.org/2000/svg">
<path d="M33.7083 25.3757H43.2917C43.8 25.3757 44.2875 25.5776 44.647 25.937C45.0064 26.2965 45.2083 26.784 45.2083 27.2923V31.1257H47.125V27.2923C47.125 26.2757 46.7211 25.3006 46.0022 24.5817C45.2834 23.8629 44.3083 23.459 43.2917 23.459H33.7083C32.6917 23.459 31.7166 23.8629 30.9978 24.5817C30.2789 25.3006 29.875 26.2757 29.875 27.2923V31.1257H31.7917V27.2923C31.7917 26.784 31.9936 26.2965 32.353 25.937C32.7125 25.5776 33.2 25.3757 33.7083 25.3757Z" fill="white"/>
<path fill-rule="evenodd" clip-rule="evenodd" d="M38.4997 20.5846C38.8772 20.5846 39.2511 20.5103 39.5999 20.3658C39.9487 20.2213 40.2656 20.0095 40.5326 19.7426C40.7996 19.4756 41.0113 19.1587 41.1558 18.8099C41.3003 18.461 41.3747 18.0872 41.3747 17.7096C41.3747 17.3321 41.3003 16.9582 41.1558 16.6094C41.0113 16.2606 40.7996 15.9437 40.5326 15.6767C40.2656 15.4097 39.9487 15.198 39.5999 15.0535C39.2511 14.909 38.8772 14.8346 38.4997 14.8346C37.7372 14.8346 37.0059 15.1375 36.4667 15.6767C35.9276 16.2159 35.6247 16.9471 35.6247 17.7096C35.6247 18.4721 35.9276 19.2034 36.4667 19.7426C37.0059 20.2817 37.7372 20.5846 38.4997 20.5846ZM38.4997 22.5013C39.7705 22.5013 40.9893 21.9965 41.8879 21.0979C42.7865 20.1992 43.2913 18.9805 43.2913 17.7096C43.2913 16.4388 42.7865 15.22 41.8879 14.3214C40.9893 13.4228 39.7705 12.918 38.4997 12.918C37.2288 12.918 36.0101 13.4228 35.1115 14.3214C34.2128 15.22 33.708 16.4388 33.708 17.7096C33.708 18.9805 34.2128 20.1992 35.1115 21.0979C36.0101 21.9965 37.2288 22.5013 38.4997 22.5013Z" fill="white"/>
</svg>
