<svg width="457" height="43" viewBox="0 0 457 43" fill="none" xmlns="http://www.w3.org/2000/svg">
<path d="M443.264 34.3343C441.388 34.3343 439.708 33.9703 438.224 33.2423C436.768 32.5143 435.634 31.4083 434.822 29.9243C434.01 28.4123 433.604 26.4943 433.604 24.1703V11.4023H440.156V23.2043C440.156 25.0803 440.548 26.4663 441.332 27.3623C442.144 28.2303 443.278 28.6643 444.734 28.6643C445.742 28.6643 446.638 28.4543 447.422 28.0343C448.206 27.5863 448.822 26.9143 449.27 26.0183C449.718 25.0943 449.941 23.9463 449.941 22.5743V11.4023H456.493V33.9983H450.277V27.7823L451.411 29.5883C450.655 31.1563 449.536 32.3463 448.052 33.1583C446.596 33.9423 445 34.3343 443.264 34.3343Z" fill="#163C51"/>
<path d="M415.643 33.9984V11.4024H421.901V17.7864L421.019 15.9384C421.691 14.3424 422.769 13.1384 424.253 12.3264C425.737 11.4864 427.543 11.0664 429.671 11.0664V17.1144C429.391 17.0864 429.139 17.0724 428.915 17.0724C428.691 17.0444 428.453 17.0304 428.201 17.0304C426.409 17.0304 424.953 17.5484 423.833 18.5844C422.741 19.5924 422.195 21.1744 422.195 23.3304V33.9984H415.643Z" fill="#163C51"/>
<path d="M407.128 34.3355C406.008 34.3355 405.042 33.9575 404.23 33.2015C403.446 32.4175 403.054 31.4235 403.054 30.2195C403.054 29.0155 403.446 28.0495 404.23 27.3215C405.042 26.5655 406.008 26.1875 407.128 26.1875C408.276 26.1875 409.242 26.5655 410.026 27.3215C410.81 28.0495 411.202 29.0155 411.202 30.2195C411.202 31.4235 410.81 32.4175 410.026 33.2015C409.242 33.9575 408.276 34.3355 407.128 34.3355Z" fill="#163C51"/>
<path d="M392.018 33.9999V2.83594H398.57V33.9999H392.018Z" fill="#163C51"/>
<path d="M379.384 33.9993V11.4033H385.936V33.9993H379.384ZM382.66 8.25331C381.456 8.25331 380.476 7.90331 379.72 7.20331C378.964 6.50331 378.586 5.63531 378.586 4.59931C378.586 3.56331 378.964 2.69531 379.72 1.99531C380.476 1.29531 381.456 0.945312 382.66 0.945312C383.864 0.945312 384.844 1.28131 385.6 1.95331C386.356 2.59731 386.734 3.43732 386.734 4.47332C386.734 5.56531 386.356 6.47531 385.6 7.20331C384.872 7.90331 383.892 8.25331 382.66 8.25331Z" fill="#163C51"/>
<path d="M367.322 33.9984V29.5884L366.902 28.6224V20.7264C366.902 19.3264 366.468 18.2344 365.6 17.4504C364.76 16.6664 363.458 16.2744 361.694 16.2744C360.49 16.2744 359.3 16.4704 358.124 16.8624C356.976 17.2264 355.996 17.7304 355.184 18.3744L352.832 13.7964C354.064 12.9284 355.548 12.2564 357.284 11.7804C359.02 11.3044 360.784 11.0664 362.576 11.0664C366.02 11.0664 368.694 11.8784 370.598 13.5024C372.502 15.1264 373.454 17.6604 373.454 21.1044V33.9984H367.322ZM360.434 34.3344C358.67 34.3344 357.158 34.0404 355.898 33.4524C354.638 32.8364 353.672 32.0104 353 30.9744C352.328 29.9384 351.992 28.7764 351.992 27.4884C351.992 26.1444 352.314 24.9684 352.958 23.9604C353.63 22.9524 354.68 22.1684 356.108 21.6084C357.536 21.0204 359.398 20.7264 361.694 20.7264H367.7V24.5484H362.408C360.868 24.5484 359.804 24.8004 359.216 25.3044C358.656 25.8084 358.376 26.4384 358.376 27.1944C358.376 28.0344 358.698 28.7064 359.342 29.2104C360.014 29.6864 360.924 29.9244 362.072 29.9244C363.164 29.9244 364.144 29.6724 365.012 29.1684C365.88 28.6364 366.51 27.8664 366.902 26.8584L367.91 29.8824C367.434 31.3384 366.566 32.4444 365.306 33.2004C364.046 33.9564 362.422 34.3344 360.434 34.3344Z" fill="#163C51"/>
<path d="M338.35 11.0664C340.142 11.0664 341.724 11.4304 343.096 12.1584C344.496 12.8584 345.588 13.9504 346.372 15.4344C347.184 16.8904 347.59 18.7664 347.59 21.0624V33.9984H341.038V22.0704C341.038 20.2504 340.66 18.9064 339.904 18.0384C339.148 17.1704 338.084 16.7364 336.712 16.7364C335.76 16.7364 334.906 16.9604 334.15 17.4084C333.394 17.8284 332.806 18.4724 332.386 19.3404C331.966 20.2084 331.756 21.3144 331.756 22.6584V33.9984H325.204V22.0704C325.204 20.2504 324.826 18.9064 324.07 18.0384C323.342 17.1704 322.292 16.7364 320.92 16.7364C319.968 16.7364 319.114 16.9604 318.358 17.4084C317.602 17.8284 317.014 18.4724 316.594 19.3404C316.174 20.2084 315.964 21.3144 315.964 22.6584V33.9984H309.412V11.4024H315.67V17.5764L314.494 15.7704C315.278 14.2304 316.384 13.0684 317.812 12.2844C319.268 11.4724 320.92 11.0664 322.768 11.0664C324.84 11.0664 326.646 11.5984 328.186 12.6624C329.754 13.6984 330.79 15.2944 331.294 17.4504L328.984 16.8204C329.74 15.0564 330.944 13.6564 332.596 12.6204C334.276 11.5844 336.194 11.0664 338.35 11.0664Z" fill="#163C51"/>
<path d="M284.709 42.6517C281.685 42.6517 278.941 42.1617 276.477 41.1817C274.013 40.2297 271.885 38.8857 270.093 37.1497C268.329 35.4137 266.957 33.3697 265.977 31.0177C265.025 28.6657 264.549 26.1037 264.549 23.3317C264.549 20.5877 265.025 18.0537 265.977 15.7297C266.957 13.4057 268.343 11.3757 270.135 9.63969C271.927 7.90369 274.069 6.55969 276.561 5.60769C279.053 4.65569 281.825 4.17969 284.877 4.17969C287.817 4.17969 290.505 4.64169 292.941 5.56569C295.377 6.46169 297.477 7.73569 299.241 9.38769C301.005 11.0397 302.363 12.9857 303.315 15.2257C304.267 17.4377 304.743 19.8597 304.743 22.4917C304.743 24.9837 304.379 27.1117 303.651 28.8757C302.951 30.6397 301.957 31.9837 300.669 32.9077C299.381 33.8317 297.869 34.2937 296.133 34.2937C294.229 34.2937 292.717 33.7337 291.597 32.6137C290.477 31.4937 289.917 29.8557 289.917 27.6997V25.7677L290.043 23.4997L289.665 17.4097V13.3777H295.377V26.9857C295.377 27.9937 295.573 28.6937 295.965 29.0857C296.357 29.4777 296.833 29.6737 297.393 29.6737C298.037 29.6737 298.583 29.4217 299.031 28.9177C299.507 28.4137 299.871 27.6437 300.123 26.6077C300.375 25.5437 300.501 24.1997 300.501 22.5757C300.501 20.4477 300.123 18.5017 299.367 16.7377C298.639 14.9737 297.575 13.4477 296.175 12.1597C294.803 10.8717 293.151 9.89169 291.219 9.21969C289.315 8.51969 287.201 8.16969 284.877 8.16969C282.553 8.16969 280.425 8.54769 278.493 9.30369C276.561 10.0597 274.909 11.1237 273.537 12.4957C272.165 13.8397 271.101 15.4357 270.345 17.2837C269.617 19.1317 269.253 21.1477 269.253 23.3317C269.253 25.5717 269.617 27.6297 270.345 29.5057C271.073 31.3537 272.109 32.9497 273.453 34.2937C274.825 35.6657 276.463 36.7297 278.367 37.4857C280.271 38.2417 282.385 38.6197 284.709 38.6197C286.053 38.6197 287.439 38.4657 288.867 38.1577C290.295 37.8777 291.667 37.4157 292.983 36.7717L294.327 40.6357C293.039 41.2797 291.527 41.7697 289.791 42.1057C288.083 42.4697 286.389 42.6517 284.709 42.6517ZM283.197 34.2937C281.405 34.2937 279.767 33.8597 278.283 32.9917C276.827 32.0957 275.665 30.8497 274.797 29.2537C273.929 27.6297 273.495 25.7677 273.495 23.6677C273.495 21.5677 273.915 19.7197 274.755 18.1237C275.623 16.5277 276.785 15.2957 278.241 14.4277C279.725 13.5317 281.377 13.0837 283.197 13.0837C285.045 13.0837 286.627 13.5037 287.943 14.3437C289.259 15.1837 290.267 16.3877 290.967 17.9557C291.667 19.5237 292.017 21.4277 292.017 23.6677C292.017 25.8797 291.681 27.7837 291.009 29.3797C290.337 30.9757 289.343 32.1937 288.027 33.0337C286.739 33.8737 285.129 34.2937 283.197 34.2937ZM284.499 29.4637C285.507 29.4637 286.403 29.2397 287.187 28.7917C287.999 28.3157 288.629 27.6437 289.077 26.7757C289.525 25.9077 289.749 24.8717 289.749 23.6677C289.749 22.4357 289.525 21.3997 289.077 20.5597C288.629 19.7197 287.999 19.0757 287.187 18.6277C286.403 18.1797 285.507 17.9557 284.499 17.9557C283.491 17.9557 282.595 18.1797 281.811 18.6277C281.027 19.0757 280.411 19.7337 279.963 20.6017C279.515 21.4417 279.291 22.4637 279.291 23.6677C279.291 24.8717 279.515 25.9077 279.963 26.7757C280.411 27.6157 281.027 28.2737 281.811 28.7497C282.595 29.2257 283.491 29.4637 284.499 29.4637Z" fill="#163C51"/>
<path d="M234.846 27.8237V23.2457L248.706 4.59766H255.846L242.28 23.2457L238.962 22.2797H262.104V27.8237H234.846ZM250.68 33.9977V27.8237L250.89 22.2797V16.7777H257.316V33.9977H250.68Z" fill="#163C51"/>
<path d="M219.86 34.5017C217.816 34.5017 215.786 34.2357 213.77 33.7037C211.754 33.1437 210.046 32.3597 208.646 31.3517L211.292 26.1437C212.412 26.9557 213.714 27.5997 215.198 28.0757C216.682 28.5517 218.18 28.7897 219.692 28.7897C221.4 28.7897 222.744 28.4537 223.724 27.7817C224.704 27.1097 225.194 26.1857 225.194 25.0097C225.194 23.8897 224.76 23.0077 223.892 22.3637C223.024 21.7197 221.624 21.3977 219.692 21.3977H216.584V16.9037L224.774 7.62166L225.53 10.0577H210.116V4.59766H230.696V9.00766L222.548 18.2897L219.104 16.3157H221.078C224.69 16.3157 227.42 17.1277 229.268 18.7517C231.116 20.3757 232.04 22.4617 232.04 25.0097C232.04 26.6617 231.606 28.2157 230.738 29.6717C229.87 31.0997 228.54 32.2617 226.748 33.1577C224.956 34.0537 222.66 34.5017 219.86 34.5017Z" fill="#163C51"/>
<path d="M187.298 27.2777L186.92 19.4237L200.99 4.59766H208.55L195.866 18.2477L192.086 22.2797L187.298 27.2777ZM181.208 33.9977V4.59766H187.97V33.9977H181.208ZM201.326 33.9977L190.868 21.1877L195.32 16.3577L209.264 33.9977H201.326Z" fill="#163C51"/>
<path d="M161.335 33.9977V10.1417H151.927V4.59766H177.547V10.1417H168.139V33.9977H161.335Z" fill="#163C51"/>
<path d="M140.761 34.3344C138.353 34.3344 136.211 33.8304 134.335 32.8224C132.487 31.8144 131.017 30.4424 129.925 28.7064C128.861 26.9424 128.329 24.9404 128.329 22.7004C128.329 20.4324 128.861 18.4304 129.925 16.6944C131.017 14.9304 132.487 13.5584 134.335 12.5784C136.211 11.5704 138.353 11.0664 140.761 11.0664C143.141 11.0664 145.269 11.5704 147.145 12.5784C149.021 13.5584 150.491 14.9164 151.555 16.6524C152.619 18.3884 153.151 20.4044 153.151 22.7004C153.151 24.9404 152.619 26.9424 151.555 28.7064C150.491 30.4424 149.021 31.8144 147.145 32.8224C145.269 33.8304 143.141 34.3344 140.761 34.3344ZM140.761 28.9584C141.853 28.9584 142.833 28.7064 143.701 28.2024C144.569 27.6984 145.255 26.9844 145.759 26.0604C146.263 25.1084 146.515 23.9884 146.515 22.7004C146.515 21.3844 146.263 20.2644 145.759 19.3404C145.255 18.4164 144.569 17.7024 143.701 17.1984C142.833 16.6944 141.853 16.4424 140.761 16.4424C139.669 16.4424 138.689 16.6944 137.821 17.1984C136.953 17.7024 136.253 18.4164 135.721 19.3404C135.217 20.2644 134.965 21.3844 134.965 22.7004C134.965 23.9884 135.217 25.1084 135.721 26.0604C136.253 26.9844 136.953 27.6984 137.821 28.2024C138.689 28.7064 139.669 28.9584 140.761 28.9584Z" fill="#163C51"/>
<path d="M114.541 11.0664C116.333 11.0664 117.929 11.4304 119.329 12.1584C120.757 12.8584 121.877 13.9504 122.689 15.4344C123.501 16.8904 123.907 18.7664 123.907 21.0624V33.9984H117.355V22.0704C117.355 20.2504 116.949 18.9064 116.137 18.0384C115.353 17.1704 114.233 16.7364 112.777 16.7364C111.741 16.7364 110.803 16.9604 109.963 17.4084C109.151 17.8284 108.507 18.4864 108.031 19.3824C107.583 20.2784 107.359 21.4264 107.359 22.8264V33.9984H100.807V11.4024H107.065V17.6604L105.889 15.7704C106.701 14.2584 107.863 13.0964 109.375 12.2844C110.887 11.4724 112.609 11.0664 114.541 11.0664Z" fill="#163C51"/>
<path d="M85.5016 11.0679C87.2936 11.0679 88.8896 11.4319 90.2896 12.1599C91.7176 12.8599 92.8376 13.9519 93.6496 15.4359C94.4616 16.8919 94.8676 18.7679 94.8676 21.0639V33.9999H88.3156V22.0719C88.3156 20.2519 87.9096 18.9079 87.0976 18.0399C86.3136 17.1719 85.1936 16.7379 83.7376 16.7379C82.7016 16.7379 81.7636 16.9619 80.9236 17.4099C80.1116 17.8299 79.4676 18.4879 78.9916 19.3839C78.5436 20.2799 78.3196 21.4279 78.3196 22.8279V33.9999H71.7676V2.83594H78.3196V17.6619L76.8496 15.7719C77.6616 14.2599 78.8236 13.0979 80.3356 12.2859C81.8476 11.4739 83.5696 11.0679 85.5016 11.0679Z" fill="#163C51"/>
<path d="M57.9955 34.3344C55.5595 34.3344 53.3895 33.8444 51.4855 32.8644C49.5815 31.8564 48.0835 30.4704 46.9915 28.7064C45.9275 26.9424 45.3955 24.9404 45.3955 22.7004C45.3955 20.4324 45.9275 18.4304 46.9915 16.6944C48.0835 14.9304 49.5815 13.5584 51.4855 12.5784C53.3895 11.5704 55.5595 11.0664 57.9955 11.0664C60.3755 11.0664 62.4475 11.5704 64.2115 12.5784C65.9755 13.5584 67.2775 14.9724 68.1175 16.8204L63.0355 19.5504C62.4475 18.4864 61.7055 17.7024 60.8095 17.1984C59.9415 16.6944 58.9895 16.4424 57.9535 16.4424C56.8335 16.4424 55.8255 16.6944 54.9295 17.1984C54.0335 17.7024 53.3195 18.4164 52.7875 19.3404C52.2835 20.2644 52.0315 21.3844 52.0315 22.7004C52.0315 24.0164 52.2835 25.1364 52.7875 26.0604C53.3195 26.9844 54.0335 27.6984 54.9295 28.2024C55.8255 28.7064 56.8335 28.9584 57.9535 28.9584C58.9895 28.9584 59.9415 28.7204 60.8095 28.2444C61.7055 27.7404 62.4475 26.9424 63.0355 25.8504L68.1175 28.6224C67.2775 30.4424 65.9755 31.8564 64.2115 32.8644C62.4475 33.8444 60.3755 34.3344 57.9955 34.3344Z" fill="#163C51"/>
<path d="M31.7934 34.3344C29.2174 34.3344 26.9494 33.8304 24.9894 32.8224C23.0574 31.8144 21.5594 30.4424 20.4954 28.7064C19.4314 26.9424 18.8994 24.9404 18.8994 22.7004C18.8994 20.4324 19.4174 18.4304 20.4534 16.6944C21.5174 14.9304 22.9594 13.5584 24.7794 12.5784C26.5994 11.5704 28.6574 11.0664 30.9534 11.0664C33.1654 11.0664 35.1534 11.5424 36.9174 12.4944C38.7094 13.4184 40.1234 14.7624 41.1594 16.5264C42.1954 18.2624 42.7134 20.3484 42.7134 22.7844C42.7134 23.0364 42.6994 23.3304 42.6714 23.6664C42.6434 23.9744 42.6154 24.2684 42.5874 24.5484H24.2334V20.7264H39.1434L36.6234 21.8604C36.6234 20.6844 36.3854 19.6624 35.9094 18.7944C35.4334 17.9264 34.7754 17.2544 33.9354 16.7784C33.0954 16.2744 32.1154 16.0224 30.9954 16.0224C29.8754 16.0224 28.8814 16.2744 28.0134 16.7784C27.1734 17.2544 26.5154 17.9404 26.0394 18.8364C25.5634 19.7044 25.3254 20.7404 25.3254 21.9444V22.9524C25.3254 24.1844 25.5914 25.2764 26.1234 26.2284C26.6834 27.1524 27.4534 27.8664 28.4334 28.3704C29.4414 28.8464 30.6174 29.0844 31.9614 29.0844C33.1654 29.0844 34.2154 28.9024 35.1114 28.5384C36.0354 28.1744 36.8754 27.6284 37.6314 26.9004L41.1174 30.6804C40.0814 31.8564 38.7794 32.7664 37.2114 33.4104C35.6434 34.0264 33.8374 34.3344 31.7934 34.3344Z" fill="#163C51"/>
<path d="M12.2649 34.3362C9.60491 34.3362 7.53291 33.6642 6.04891 32.3202C4.56491 30.9482 3.82291 28.9182 3.82291 26.2302V6.40625H10.3749V26.1462C10.3749 27.0982 10.6269 27.8403 11.1309 28.3723C11.6349 28.8763 12.3209 29.1282 13.1889 29.1282C14.2249 29.1282 15.1069 28.8482 15.8349 28.2882L17.5989 32.9083C16.9269 33.3843 16.1149 33.7482 15.1629 34.0002C14.2389 34.2243 13.2729 34.3362 12.2649 34.3362ZM0.336914 16.9482V11.9082H16.0029V16.9482H0.336914Z" fill="#163C51"/>
</svg>
