<svg width="86" height="111" viewBox="0 0 86 111" fill="none" xmlns="http://www.w3.org/2000/svg">
<path fill-rule="evenodd" clip-rule="evenodd" d="M13.1684 12.1179C20.2464 5.27874 29.6259 1.00154 39.2876 0.198207C42.3055 -0.0623325 43.4562 -0.0623325 46.3656 0.176496C66.5357 1.84829 82.6023 16.9162 85.6854 37.0429C86.0545 39.5397 86.1196 45.6624 85.7722 48.5935C84.1656 62.641 76.2842 78.1648 62.6493 94.1012C58.307 99.2034 48.7756 108.605 46.5393 110.038C44.5418 111.319 41.4587 111.319 39.4612 110.038C37.2249 108.605 27.6935 99.2034 23.3512 94.1012C9.71626 78.1648 1.83493 62.641 0.228265 48.5935C-0.119122 45.6624 -0.0539868 39.5397 0.315112 37.0429C1.81322 27.3378 6.17726 18.892 13.1684 12.1179Z" fill="#F85F37"/>
</svg>
