<svg width="50" height="42" viewBox="0 0 50 42" fill="none" xmlns="http://www.w3.org/2000/svg">
<path d="M45.608 0.118847C45.3439 0.196507 41.6659 1.56525 37.4402 3.16696C33.2145 4.76867 23.6185 8.39923 16.1159 11.2435C8.61328 14.0877 2.18664 16.5437 1.84428 16.7087C1.16934 17.0291 0.474832 17.6406 0.220506 18.126C-0.0240389 18.6114 -0.0729478 19.3006 0.112906 19.8636C0.318324 20.4655 1.06174 21.1935 1.8345 21.5527C2.12795 21.6886 4.42667 22.3875 6.94059 23.0962L11.5087 24.397L13.9639 31.3863C15.5877 35.9973 16.5463 38.56 16.7615 38.9289C17.1821 39.6084 17.8473 40.2102 18.5613 40.55C19.0309 40.7733 19.2265 40.8024 20.0775 40.8024C20.8992 40.8024 21.1437 40.7636 21.5644 40.5694C22.3762 40.2102 22.7577 39.8996 25.7021 37.2107C27.228 35.8225 28.4996 34.6868 28.5485 34.6868C28.5877 34.6868 30.3973 36.104 32.5689 37.8416C34.7306 39.5696 36.7261 41.1324 36.9804 41.3072C38.0467 42.0255 39.6411 42.21 40.6877 41.744C41.5681 41.3654 42.4093 40.4044 42.7713 39.3948C42.8593 39.1521 44.5222 31.1824 46.4688 21.6789C49.6772 5.97239 50 4.31243 50 3.4776C49.9902 1.905 49.4522 0.953682 48.2393 0.361534C47.4763 -0.00734711 46.4199 -0.10442 45.608 0.118847ZM47.0068 3.01164C47.0752 3.07959 47.1242 3.26403 47.1242 3.42906C47.1242 3.93384 40.0813 38.2591 39.9052 38.6085C39.4552 39.521 39.2205 39.4045 35.7969 36.6768C26.4357 29.2118 24.1859 27.3868 24.1859 27.2897C24.1859 27.2315 27.5997 23.5912 31.7668 19.1938C35.9338 14.8061 39.4259 11.0882 39.5237 10.9426C39.7585 10.5834 39.7585 9.87474 39.5237 9.46704C39.3281 9.12728 38.6238 8.71957 38.2423 8.71957C37.988 8.71957 36.8631 9.2826 22.0045 16.8155L12.4966 21.6401L8.09484 20.3975C5.67874 19.718 3.69304 19.1356 3.69304 19.1064C3.69304 19.0773 6.51997 17.9901 9.98273 16.6893C13.4357 15.3788 18.2679 13.5538 20.7133 12.6219C23.1588 11.6997 26.5335 10.4184 28.1964 9.78738C31.7276 8.44776 46.0286 3.04076 46.2438 2.9631C46.5079 2.86603 46.8894 2.89515 47.0068 3.01164ZM30.9157 15.8254C28.9594 17.8639 20.772 26.5423 20.6742 26.7073C20.596 26.8238 20.0873 28.7361 19.5297 30.9494C18.982 33.1627 18.5124 35.0265 18.4733 35.0945C18.444 35.1527 17.5245 32.6676 16.4289 29.571C15.3431 26.4646 14.4628 23.9213 14.4726 23.9116C14.5215 23.8728 23.8826 19.1356 27.4139 17.3591C29.3507 16.3787 30.9744 15.5438 31.0331 15.505C31.082 15.4565 31.1701 15.4176 31.219 15.4176C31.2777 15.4176 31.1407 15.6021 30.9157 15.8254ZM24.5576 31.4251C25.4575 32.1434 26.1911 32.755 26.1814 32.7841C26.1716 32.8715 20.997 37.5698 20.9579 37.531C20.9383 37.5116 21.3198 35.9293 21.7991 34.0072C22.2686 32.0852 22.6893 30.4155 22.7186 30.2893C22.748 30.1631 22.8066 30.0758 22.8458 30.0952C22.8849 30.1146 23.6577 30.7067 24.5576 31.4251Z" fill="#163C51"/>
</svg>
