<svg width="44" height="44" viewBox="0 0 44 44" fill="none" xmlns="http://www.w3.org/2000/svg">
<path d="M30.6619 0.146355C29.2161 0.227661 28.8787 0.308968 28.3807 0.650459C26.9187 1.65868 26.6296 3.70763 27.7381 5.05733C28.4931 5.95172 29.2161 6.17938 31.4812 6.17938H33.4894L30.9993 8.69991C29.6337 10.0821 28.4449 11.2204 28.3807 11.2204C28.3003 11.2204 27.9308 10.9928 27.5292 10.7326C26.4368 9.96831 24.3162 8.99262 22.7257 8.5373C13.6329 5.90293 4.04197 10.9928 0.95746 20.083C-1.30773 26.7339 0.523701 34.2305 5.63242 39.109C13.2794 46.4266 25.6014 45.4022 32.0435 36.9137C33.7786 34.6208 35.112 31.4498 35.5136 28.6528C35.7867 26.7177 35.626 23.1889 35.1923 21.5465C34.7425 19.8065 34.0195 18.0178 33.2484 16.7494L32.6219 15.6924L35.2244 13.0417C36.6542 11.5945 37.8752 10.4074 37.9394 10.4074C38.0197 10.4074 38.0679 11.4318 38.0679 12.684C38.0679 14.6354 38.1161 15.0582 38.3892 15.5948C39.4817 17.7738 42.6304 17.7413 43.6747 15.5623C44.0121 14.8468 44.0281 14.7004 43.9799 8.42347L43.9317 2.01643L43.5301 1.43102C43.3212 1.10578 42.8554 0.650459 42.5019 0.422798L41.8593 0L37.104 0.0325241C34.5015 0.0487823 31.5937 0.0975685 30.6619 0.146355ZM20.7658 14.3101C25.8263 15.5623 29.4088 20.0017 29.6659 25.368C29.8265 28.8805 28.6698 31.9214 26.244 34.3769C24.9267 35.7103 23.7539 36.4746 22.0189 37.0925C18.9183 38.1983 15.6571 38.0682 12.6529 36.686C9.88968 35.4339 7.6245 32.7995 6.59633 29.661C5.00588 24.8801 6.53207 19.7415 10.4841 16.538C13.3758 14.1963 17.0387 13.3995 20.7658 14.3101Z" fill="#163C51"/>
</svg>
