<svg width="43" height="53" viewBox="0 0 43 53" fill="none" xmlns="http://www.w3.org/2000/svg">
<path d="M7.61302 21.0556V2L1.52344 7.44444M1.52344 37.3889C1.52344 35.9449 2.16502 34.5601 3.30703 33.5391C4.44905 32.5181 5.99796 31.9444 7.61302 31.9444C9.22807 31.9444 10.777 32.5181 11.919 33.5391C13.061 34.5601 13.7026 35.9449 13.7026 37.3889C13.7026 38.9977 11.8727 41.3633 10.6578 42.8333L1.52344 51H13.7026M28.9265 31.9444C28.9265 33.0213 29.2837 34.0739 29.9528 34.9692C30.622 35.8646 31.573 36.5624 32.6857 36.9745C33.7985 37.3865 35.0229 37.4944 36.2041 37.2843C37.3854 37.0742 38.4705 36.5557 39.3221 35.7942C40.1738 35.0328 40.7537 34.0627 40.9887 33.0066C41.2237 31.9505 41.1031 30.8558 40.6422 29.8609C40.1813 28.8661 39.4007 28.0158 38.3993 27.4176C37.3979 26.8193 36.2205 26.5 35.0161 26.5C36.2205 26.5 37.3979 26.1807 38.3993 25.5824C39.4007 24.9842 40.1813 24.1339 40.6422 23.1391C41.1031 22.1442 41.2237 21.0495 40.9887 19.9934C40.7537 18.9373 40.1738 17.9672 39.3221 17.2058C38.4705 16.4443 37.3854 15.9258 36.2041 15.7157C35.0229 15.5056 33.7985 15.6135 32.6857 16.0255C31.573 16.4376 30.622 17.1355 29.9528 18.0308C29.2837 18.9261 28.9265 19.9787 28.9265 21.0556M3.04583 21.0556H12.1802" stroke="#163C51" stroke-width="3" stroke-linecap="round" stroke-linejoin="round"/>
</svg>
