<svg width="24" height="35" viewBox="0 0 24 35" fill="none" xmlns="http://www.w3.org/2000/svg">
<path d="M10.6048 0.0949364C5.32741 0.664555 0.934956 4.82067 0.136328 10C-0.781015 15.8861 3.01787 21.5506 8.92124 23.0907L9.79541 23.3228V25.1055V26.8776H7.9931C6.38506 26.8776 6.14762 26.8987 5.71593 27.0992C5.02523 27.4367 4.66908 28.0063 4.66908 28.8291C4.66908 29.3776 4.72304 29.5464 4.98206 29.9156C5.51088 30.6646 5.8994 30.7806 7.9931 30.7806H9.79541V32.0992C9.79541 33.6076 9.89254 33.9346 10.4753 34.4409C10.8207 34.7363 11.4466 35 11.792 35C12.1373 35 12.7633 34.7363 13.1086 34.4409C13.6914 33.9346 13.7886 33.6076 13.7886 32.0992V30.7806H15.6556C17.2313 30.7806 17.5766 30.7489 17.9436 30.5802C18.5372 30.3165 18.8717 29.9262 19.0228 29.346C19.2494 28.4705 19.0012 27.7848 18.2566 27.2257L17.8572 26.9304L15.8175 26.8987L13.7886 26.8671V25.1266C13.7886 23.8291 13.8209 23.3755 13.9289 23.3544C13.9936 23.3333 14.5008 23.2173 15.0297 23.0907C16.9723 22.6371 19.3574 21.2658 20.728 19.8101C23.6203 16.7616 24.6995 12.4367 23.5448 8.53375C22.1849 3.94515 18.1163 0.611813 13.2705 0.0949364C12.0402 -0.0316467 11.8459 -0.0316467 10.6048 0.0949364ZM14.4685 4.33544C16.8428 5.09494 18.7314 6.93038 19.584 9.31434C19.8646 10.0949 19.8862 10.2743 19.8862 11.7405C19.8754 13.1751 19.8538 13.3966 19.584 14.1667C18.699 16.7405 16.4866 18.7342 13.8101 19.346C12.7741 19.5886 11.0365 19.5675 9.96809 19.2932C8.58668 18.9346 7.51824 18.3228 6.38506 17.2257C5.56484 16.424 5.3382 16.1181 4.90651 15.2743C4.28056 14.019 4.05392 13.0907 4.05392 11.7405C4.05392 10.0211 4.51799 8.5865 5.52167 7.22574C6.62248 5.70675 8.1334 4.69409 10.0221 4.19831C11.1876 3.8924 13.2921 3.95569 14.4685 4.33544Z" fill="#52747F"/>
</svg>
