<svg width="264" height="588" viewBox="0 0 264 588" fill="none" xmlns="http://www.w3.org/2000/svg">
<path d="M184.424 445.26C148.81 437.521 111.254 448.871 82.1068 474.581C91.0328 452.949 99.4075 431.107 107.114 409.356C123.7 416.41 144.412 416 161.269 407.501C182.046 397.024 195.573 375.765 207.967 355.811C208.824 354.4 208.419 352.157 207.041 351.628C186.871 343.199 166.951 352.265 147.191 361.739C136.447 366.667 126.181 372.822 117.337 380.218C121.555 367.568 125.656 355.222 129.481 342.77C130.834 338.417 132.187 334.064 133.539 329.711C151.361 332.716 172.379 330.684 189.555 323.002C206.73 315.321 217.38 299.918 227.318 283.894C228.292 282.179 227.103 280.331 225.724 279.803C206.511 273.828 186.26 279.635 167.792 288.213C158.224 292.548 148.35 298.505 140.609 306.324C145.86 288.503 150.56 270.471 154.984 252.333C155.376 252.135 155.493 251.832 155.609 251.529L155.725 251.225C172.065 256.446 192.506 249.321 207.157 239.975C225.961 228.047 240.285 208.833 251.344 189.063C253.291 185.634 248.561 183.124 246.73 186.25C215.864 176.851 177.786 208.532 158.681 237.744C163.368 217.271 167.779 196.692 171.523 176.205C208.816 167.19 245.464 147.488 261.136 108.261L263.26 101.072L260.111 100.212C242.522 96.6002 222.977 109.637 209.122 121.027C195.776 131.917 183.938 145.473 174.465 160.283C177.817 139.994 180.617 119.494 182.749 99.0851C195.066 86.7567 207.21 71.5786 213.766 55.3022C220.629 37.4031 217.898 18.9576 214.658 1.01307C214.775 0.709698 214.499 0.604022 214.499 0.604022L208.895 3.67471L207.094 5.07209C180.402 26.8514 173.233 68.643 173.996 101.296C170.674 119.857 167.469 138.115 164.148 156.675C154.705 125.217 132.33 93.6728 103.497 82.2702C103.338 81.8611 102.786 81.6497 102.394 81.8474C102.119 81.7417 102.119 81.7416 101.843 81.6359C100.74 81.2131 100.042 83.0334 100.753 83.6539C99.4693 93.6007 101.016 103.589 103.738 112.984C106.461 122.379 110.911 131.392 115.826 139.192C120.625 147.296 126.759 155.215 133.475 161.618C140.902 168.641 150.031 170.401 158.664 175.103C159.491 175.42 160.042 175.631 160.826 175.236C157.462 193.084 153.429 211.025 149.397 228.965C141.785 194.381 114.951 167.043 84.0424 156.932C82.3881 156.298 80.355 158.302 80.6005 160.136C83.8269 197.909 104.302 249.256 143.676 254.609C138.946 274.369 133.824 294.327 127.875 313.968C118.768 279.16 98.9172 249.279 64.4368 240.235C62.942 240.01 61.5333 241.209 60.9518 242.726C55.192 261.048 59.5213 276.975 70.9501 290.056C84.7137 306.12 102.816 324.891 121.576 334.52C121.344 335.126 121.227 335.43 120.995 336.037C115.7 353.145 109.854 370.042 103.573 386.424C100.536 369.601 92.4764 354.332 81.7584 341.871C73.8104 332.909 64.7293 325.251 55.2994 318.504C50.0912 314.767 39.0674 303.929 31.5888 309.413C19.7249 318.087 36.8745 350.064 41.9491 358.273C55.114 380.023 75.585 393.44 97.3355 403.519C89.0772 425.058 80.2675 446.386 71.182 467.608C68.843 426.695 44.1977 382.101 3.25111 384.149C1.63995 384.227 0.114955 385.73 0.360494 387.564C1.30383 409.848 11.9315 427.493 23.735 444.546C34.2333 460.054 46.1229 478.531 63.6517 485.599C49.6682 517.123 35.4089 548.54 21.0333 580.261C18.4313 586.223 25.5264 589.987 28.8392 584.646C46.7989 554.299 63.0182 521.893 77.0319 488.642C115.312 502.622 167.524 497.587 186.336 450.169C186.599 447.834 186.078 445.894 184.424 445.26Z" fill="#183342" fill-opacity="0.2"/>
</svg>
