<svg width="25" height="25" viewBox="0 0 25 25" fill="none" xmlns="http://www.w3.org/2000/svg">
<path d="M13.8215 1.37995C13.8215 1.01396 13.6762 0.662967 13.4174 0.404177C13.1586 0.145387 12.8076 0 12.4416 0C12.0756 0 11.7246 0.145387 11.4658 0.404177C11.207 0.662967 11.0617 1.01396 11.0617 1.37995V11.0396H1.37995C1.01396 11.0396 0.662967 11.185 0.404177 11.4438C0.145387 11.7025 0 12.0535 0 12.4195C0 12.7855 0.145387 13.1365 0.404177 13.3953C0.662967 13.6541 1.01396 13.7995 1.37995 13.7995H11.0617V23.4591C11.0617 23.8251 11.207 24.1761 11.4658 24.4349C11.7246 24.6937 12.0756 24.839 12.4416 24.839C12.8076 24.839 13.1586 24.6937 13.4174 24.4349C13.6762 24.1761 13.8215 23.8251 13.8215 23.4591V13.7995H23.4591C23.8251 13.7995 24.1761 13.6541 24.4349 13.3953C24.6937 13.1365 24.839 12.7855 24.839 12.4195C24.839 12.0535 24.6937 11.7025 24.4349 11.4438C24.1761 11.185 23.8251 11.0396 23.4591 11.0396H13.8215V1.37995Z" fill="white"/>
</svg>
