<svg width="364" height="626" viewBox="0 0 364 626" fill="none" xmlns="http://www.w3.org/2000/svg">
<path d="M218.725 500.22C176.664 483.169 129.527 487.438 90.5356 510.022C104.438 487.417 117.702 464.443 130.143 441.42C149.239 453.296 174.401 457.613 196.044 451.814C222.719 444.666 242.144 423.548 260.01 403.657C261.251 402.245 261.079 399.594 259.484 398.673C236.24 384.402 210.805 390.138 185.505 396.378C171.78 399.516 158.461 404.163 146.687 410.554C153.602 397.104 160.333 383.972 166.744 370.656C169.004 366.005 171.264 361.353 173.524 356.702C194.696 364.246 220.46 366.783 242.372 361.99C264.284 357.198 279.387 342.093 293.717 326.116C295.141 324.386 293.963 322.004 292.368 321.083C269.933 309.832 244.56 311.775 220.954 317.291C208.74 320.024 195.924 324.537 185.426 331.665C194.332 312.557 202.599 293.079 210.547 273.418C211.05 273.283 211.234 272.964 211.418 272.645L211.603 272.326C230.662 282.054 256.453 278.65 275.542 271.377C300.034 262.118 320.133 243.516 336.355 223.526C339.203 220.065 333.828 216.111 331.164 219.253C295.093 201.406 244.427 228.737 217.106 257.635C225.706 235.371 233.986 212.924 241.444 190.427C287.929 188.76 335.155 174.758 359.742 133.646L363.34 125.939L359.646 124.231C338.843 116.05 313.296 126.401 294.881 136.19C277.153 145.525 260.872 158.249 247.28 172.949C254.234 150.587 260.551 127.857 266.044 105.077C282.729 93.8629 299.612 79.3598 309.879 62.3136C320.748 43.4878 320.067 21.8228 318.699 0.611649C318.883 0.292567 318.564 0.108391 318.564 0.108391L311.334 2.31541L308.952 3.49295C273.497 22.1634 258.851 68.1641 255.12 105.576C248.448 125.975 241.961 146.054 235.289 166.452C228.329 128.398 205.707 87.2584 172.387 67.5957C172.252 67.0924 171.614 66.7239 171.111 66.8587C170.792 66.6745 170.792 66.6745 170.473 66.4902C169.196 65.7533 168.091 67.6679 168.864 68.5396C165.89 79.5859 166.34 91.3329 168.301 102.675C170.261 114.018 174.37 125.324 179.215 135.354C183.877 145.703 190.182 156.151 197.41 165.004C205.41 174.728 216.223 178.843 226.016 186.199C226.973 186.752 227.611 187.12 228.618 186.85C221.995 206.426 214.551 225.953 207.106 245.48C202.811 204.284 174.185 166.911 138.164 148.241C136.25 147.136 133.5 148.952 133.536 151.1C132.062 194.92 149.558 258.202 196.517 273.401C187.967 294.842 178.913 316.418 168.903 337.441C162.828 295.644 143.028 256.985 102.527 238.706C100.747 238.104 98.8688 239.147 97.9477 240.743C88.355 260.305 91.3317 279.467 103.319 297.024C117.71 318.522 136.974 344.108 158.34 359.422C157.971 360.06 157.787 360.379 157.418 361.017C148.563 379.304 139.069 397.222 129.121 414.452C127.838 394.567 120.246 375.293 109.032 358.608C100.676 346.551 90.7618 335.722 80.2944 325.849C74.5147 320.385 62.6988 305.48 52.853 310.006C37.2372 317.157 53.4642 357.583 58.4445 368.116C71.2998 395.96 94.1983 415.987 119.123 432.505C106.044 455.16 92.3257 477.446 78.2887 499.548C81.2862 452.353 57.7729 395.808 7.8534 388.684C5.88953 388.401 3.82693 389.763 3.86308 391.911C1.82974 417.54 12.1951 440.117 24.0702 462.289C34.5834 482.398 46.3598 506.215 66.5972 518.324C45.1551 551.042 23.3939 583.575 1.44859 616.427C-2.5549 622.624 5.50779 628.556 10.2843 623.23C36.3778 592.773 60.6554 559.566 82.3804 524.884C126.783 549.669 190.782 555.987 220.343 506.26C220.994 503.658 220.639 501.326 218.725 500.22Z" fill="#183342" fill-opacity="0.2"/>
</svg>
