<svg width="29" height="26" viewBox="0 0 29 26" fill="none" xmlns="http://www.w3.org/2000/svg">
<path d="M22.6866 0H19.4574C19.1007 0 18.8116 0.289149 18.8116 0.645833V0.721922L23.3324 4.33859V0.645833C23.3324 0.289149 23.0432 0 22.6866 0Z" fill="#163C51"/>
<path fill-rule="evenodd" clip-rule="evenodd" d="M12.6761 8.39583C12.6761 7.50412 13.399 6.78125 14.2907 6.78125C15.1824 6.78125 15.9053 7.50412 15.9053 8.39583C15.9053 9.28754 15.1824 10.0104 14.2907 10.0104C13.399 10.0104 12.6761 9.28754 12.6761 8.39583Z" fill="#163C51"/>
<path fill-rule="evenodd" clip-rule="evenodd" d="M25.5928 10.2823L26.6022 11.0898C27.02 11.424 27.6296 11.3563 27.9639 10.9385C28.2981 10.5207 28.2303 9.91109 27.8126 9.57687L17.3166 1.18009C15.5476 -0.235134 13.0339 -0.235134 11.2649 1.18009L0.768886 9.57687C0.351101 9.91109 0.283364 10.5207 0.617592 10.9385C0.95182 11.3563 1.56145 11.424 1.97923 11.0898L2.98864 10.2823V23.5729H1.37406C0.839033 23.5729 0.405309 24.0066 0.405309 24.5417C0.405309 25.0767 0.839033 25.5104 1.37406 25.5104H27.2074C27.7424 25.5104 28.1761 25.0767 28.1761 24.5417C28.1761 24.0066 27.7424 23.5729 27.2074 23.5729H25.5928V10.2823ZM10.7386 8.39583C10.7386 6.43407 12.329 4.84375 14.2907 4.84375C16.2525 4.84375 17.8428 6.43407 17.8428 8.39583C17.8428 10.3576 16.2525 11.9479 14.2907 11.9479C12.329 11.9479 10.7386 10.3576 10.7386 8.39583ZM14.3545 13.2396C15.2133 13.2395 15.9532 13.2395 16.5458 13.3192C17.1808 13.4045 17.7895 13.5971 18.2833 14.0908C18.777 14.5845 18.9695 15.1933 19.0549 15.8283C19.1296 16.3838 19.1342 17.0689 19.1345 17.8599C19.1345 17.9127 19.1345 17.9659 19.1345 18.0196L19.1345 23.5729H17.197V18.0833C17.197 17.1426 17.1949 16.5345 17.1347 16.0865C17.0782 15.6663 16.987 15.5346 16.9132 15.4608C16.8395 15.3871 16.7078 15.2959 16.2876 15.2394C15.8396 15.1791 15.2315 15.1771 14.2907 15.1771C13.35 15.1771 12.7419 15.1791 12.2938 15.2394C11.8737 15.2959 11.742 15.3871 11.6682 15.4608C11.5945 15.5346 11.5033 15.6663 11.4468 16.0865C11.3865 16.5345 11.3845 17.1426 11.3845 18.0833V23.5729H9.44698L9.44697 18.0196C9.44693 17.1608 9.44688 16.4208 9.52655 15.8283C9.61193 15.1933 9.80446 14.5845 10.2982 14.0908C10.7919 13.5971 11.4006 13.4045 12.0357 13.3192C12.6282 13.2395 13.3682 13.2395 14.227 13.2396H14.3545Z" fill="#163C51"/>
<path fill-rule="evenodd" clip-rule="evenodd" d="M12.6761 8.39583C12.6761 7.50412 13.399 6.78125 14.2907 6.78125C15.1824 6.78125 15.9053 7.50412 15.9053 8.39583C15.9053 9.28754 15.1824 10.0104 14.2907 10.0104C13.399 10.0104 12.6761 9.28754 12.6761 8.39583Z" fill="#163C51"/>
</svg>
