<svg width="216" height="569" viewBox="0 0 216 569" fill="none" xmlns="http://www.w3.org/2000/svg">
<path d="M212.093 392.891C175.542 397.984 144.085 420.153 125.81 451.91C126.409 430.339 126.409 408.769 125.81 387.498C144.085 388.097 163.559 380.907 176.441 368.025C192.32 352.147 197.413 329.378 201.907 308.107C202.206 306.609 201.008 304.811 199.51 304.811C177.34 304.212 161.761 318.592 146.482 333.272C138.093 341.062 130.603 349.75 124.911 359.037C124.312 346.754 123.712 334.77 122.814 322.787C122.514 318.592 122.215 314.398 121.915 310.204C139.891 306.909 159.065 298.22 172.546 285.937C186.028 273.654 190.522 256.877 194.117 239.8C194.417 238.003 192.619 236.805 191.121 236.805C170.749 238.003 153.672 249.687 139.291 263.168C131.802 270.059 124.611 278.448 120.117 287.735C118.619 270.658 116.522 253.582 114.125 236.505C114.425 236.205 114.425 235.906 114.425 235.606V235.307C131.802 234.408 148.579 221.525 159.065 208.643C172.546 192.166 179.138 170.895 182.433 150.223C183.032 146.628 177.64 146.029 177.04 149.324C144.384 151.422 119.818 191.267 112.328 222.724C109.332 203.55 106.036 184.376 102.142 165.502C134.198 145.43 161.761 116.37 162.36 77.423L161.761 70.5324L158.466 70.832C140.49 73.5283 126.708 91.2041 117.721 105.584C109.032 119.365 102.741 134.944 99.1456 150.822C94.9513 132.248 90.1578 113.673 84.7651 95.3984C91.9553 80.7185 97.9472 63.6419 98.2468 47.464C98.2468 29.7883 88.9594 14.8088 79.3724 0.428491C79.3724 0.128902 79.0729 0.128906 79.0729 0.128906L74.8784 4.62275L73.68 6.42028C56.3035 33.9825 64.6922 72.3299 77.2752 100.192C80.8703 117.268 84.4656 134.045 88.0607 151.122C67.6882 127.155 35.0323 107.382 3.57482 107.082C3.27522 106.783 2.67596 106.783 2.37636 107.082C2.07677 107.082 2.07673 107.082 1.77713 107.082C0.578754 107.082 0.578827 108.88 1.47761 109.179C3.87437 118.167 8.96749 126.256 14.9594 133.446C20.9513 140.636 28.4412 146.928 35.9311 152.021C43.4209 157.413 52.1092 162.207 60.7974 165.502C70.3845 169.097 79.672 167.599 89.5587 168.798C90.4575 168.798 91.0565 168.798 91.6557 168.199C94.9512 184.676 97.6477 201.453 100.344 218.23C80.5708 190.967 45.2184 176.288 12.263 177.785C10.4654 177.785 9.26716 180.182 10.1659 181.68C26.9433 213.137 64.9918 250.586 104.239 242.197C106.935 260.772 109.332 279.646 110.83 298.52C89.5586 271.557 59.8987 252.383 23.9473 255.978C22.4493 256.278 21.5505 257.776 21.5505 259.274C22.7489 276.95 32.6354 289.233 48.2144 296.722C67.0889 306.01 91.0566 316.196 112.328 318.293C112.328 318.892 112.328 319.192 112.328 319.791C113.526 336.268 114.125 352.746 114.125 368.923C105.137 355.442 91.9553 344.956 77.2752 337.766C66.4897 332.673 55.1051 329.078 43.7205 326.382C37.429 324.884 23.0485 319.192 17.9554 326.382C9.86628 337.766 37.7287 359.636 45.5182 365.029C65.8906 379.409 90.1578 384.203 114.425 385.701C114.425 406.971 113.826 428.242 112.927 449.513C95.8502 415.06 56.3035 384.802 18.2549 400.081C16.7569 400.68 15.8581 402.478 16.7569 403.975C25.7448 422.85 42.2226 434.534 59.5992 445.319C75.1781 455.205 93.1538 467.189 112.328 467.488C110.53 499.245 108.433 531.001 106.336 563.057C106.036 569.049 114.125 569.948 115.324 564.256C121.316 532.2 124.911 498.945 126.109 465.691C167.453 465.092 215.089 443.521 215.688 396.486C215.089 394.389 213.891 392.891 212.093 392.891Z" fill="#183342" fill-opacity="0.2"/>
</svg>
