<svg width="286" height="541" viewBox="0 0 286 541" fill="none" xmlns="http://www.w3.org/2000/svg">
<path d="M278.712 345.309C244.725 359.689 220.077 389.245 210.644 424.649C205.64 403.658 200.057 382.823 193.973 362.432C211.781 358.281 228.73 346.295 237.839 330.518C249.067 311.071 248.094 287.76 246.929 266.051C246.831 264.526 245.208 263.1 243.761 263.488C222.191 268.647 210.865 286.569 199.906 304.704C193.819 314.399 188.833 324.729 185.739 335.173C181.981 323.464 178.3 312.044 174.331 300.701C172.956 296.727 171.581 292.753 170.206 288.78C186.716 280.944 202.988 267.589 212.831 252.235C222.675 236.881 222.673 219.513 221.726 202.088C221.55 200.274 219.504 199.582 218.057 199.969C198.689 206.4 185.218 222.105 174.816 238.849C169.365 247.444 164.591 257.407 162.654 267.541C156.787 251.434 150.342 235.482 143.607 219.608C143.819 219.241 143.741 218.952 143.664 218.662L143.586 218.373C160.138 213.007 173.009 196.222 179.804 181.064C188.561 161.659 189.423 139.407 187.256 118.587C186.904 114.959 181.54 115.776 181.814 119.114C150.814 129.592 137.397 174.438 138.304 206.762C130.447 189.017 122.302 171.349 113.655 154.126C139.424 126.441 158.526 91.2371 149.025 53.4624L146.663 46.9618L143.557 48.104C126.892 55.3609 118.154 76.0014 113.195 92.2179C108.369 107.778 106.324 124.454 106.961 140.722C98.1024 123.866 88.6648 107.165 78.7259 90.9084C81.8718 74.8678 83.2397 56.8222 79.342 41.1181C74.7672 24.0446 61.9192 11.9793 48.937 0.570328C48.8594 0.280946 48.5701 0.358471 48.5701 0.358471L45.6817 5.78478L44.9893 7.83125C35.3385 38.9517 53.3664 73.8213 72.7319 97.477C80.6242 113.041 88.4392 128.316 96.3316 143.88C70.4501 126.003 33.7893 115.355 3.32619 123.208C2.95927 122.996 2.38042 123.151 2.16858 123.518C1.87919 123.596 1.87915 123.596 1.58977 123.673C0.432219 123.983 0.897523 125.72 1.84322 125.776C6.4845 133.837 13.4976 140.333 21.1463 145.727C28.795 151.121 37.658 155.26 46.2108 158.241C54.8412 161.511 64.474 163.892 73.7192 164.827C83.91 165.818 92.4934 161.967 102.353 160.566C103.222 160.334 103.8 160.178 104.224 159.445C111.672 174.508 118.619 190.015 125.565 205.523C99.4096 184.307 61.4625 179.277 30.0176 189.253C28.2813 189.718 27.7442 192.344 29.0001 193.558C53.3474 219.601 99.7918 245.926 135.53 227.665C142.942 244.909 150.142 262.519 156.474 280.363C128.949 259.824 95.3375 248.98 61.5416 261.758C60.1722 262.435 59.6917 264.114 60.0794 265.561C65.8118 282.324 78.5406 291.63 95.5272 294.833C116.162 298.918 141.95 302.554 163.039 299.074C163.194 299.653 163.271 299.942 163.427 300.521C168.849 316.127 173.692 331.888 177.879 347.514C165.708 336.818 150.262 330.102 134.221 326.956C122.485 324.828 110.557 324.302 98.8628 324.644C92.398 324.826 77.0342 323.05 73.9756 331.313C69.1087 344.403 101.682 358.317 110.602 361.509C134.002 370.127 158.683 368.476 182.511 363.642C188.016 384.188 192.943 404.889 197.58 425.668C172.168 396.809 126.137 377.817 93.3396 402.423C92.0478 403.39 91.6449 405.359 92.9007 406.573C106.467 422.478 125.408 429.499 144.984 435.419C162.59 440.936 183.055 447.859 201.654 443.186C208.136 474.326 214.33 505.543 220.601 537.05C221.862 542.915 229.908 541.689 229.593 535.881C227.084 503.366 221.949 470.314 214.5 437.883C254.28 426.604 294.71 393.439 283.115 347.851C281.994 345.981 280.448 344.844 278.712 345.309Z" fill="#183342" fill-opacity="0.2"/>
</svg>
