<svg width="267" height="376" viewBox="0 0 267 376" fill="none" xmlns="http://www.w3.org/2000/svg">
<path d="M10.3378 215.927C33.2299 233.769 45.9379 261.239 45.8975 290.055C53.9716 275.128 62.4539 260.436 71.2265 246.184C58.5435 239.405 48.1072 226.85 44.3986 213.01C39.8275 195.951 45.3121 178.441 50.6158 162.186C51.0008 161.048 52.5239 160.295 53.5442 160.884C68.88 169.194 73.8359 185.114 78.4701 201.121C81.1206 209.725 82.8056 218.588 83.0305 227.152C88.2689 219.022 93.3894 211.095 98.7139 203.287C100.567 200.548 102.421 197.809 104.274 195.07C93.3266 185.757 83.6836 172.299 79.3313 158.631C74.9789 144.964 78.5154 131.77 82.7819 118.725C83.2847 117.383 84.9802 117.274 86.0005 117.863C99.4051 126.69 106.442 141.363 110.935 156.201C113.327 163.839 114.925 172.38 114.334 180.473C122.07 169.431 130.213 158.625 138.561 147.936C138.474 147.614 138.592 147.41 138.71 147.206L138.828 147.002C127.346 139.557 120.985 124.185 118.909 111.288C116.206 94.7632 120.081 77.6836 125.965 62.308C126.971 59.6238 130.879 61.3364 129.992 63.8166C151.409 78.0864 152.473 114.886 145.204 139.257C154.785 127.375 164.569 115.612 174.644 104.288C160.703 78.011 153.357 47.3792 168.264 20.6168L171.382 16.1593L173.509 17.6592C184.692 26.5644 187.128 44.0228 187.595 57.3517C188.093 70.1546 186.252 83.2394 182.457 95.4679C192.618 84.466 203.187 73.6998 214.046 63.3732C214.922 50.5472 217.556 36.56 223.713 25.4234C230.664 13.3843 242.88 6.83384 255.065 0.809321C255.183 0.605269 255.387 0.723055 255.387 0.723055L256.477 5.43323L256.586 7.12882C257.583 32.7347 236.79 55.5546 217.263 69.5833C208.099 79.8006 199.053 89.8137 189.889 100.031C213.19 91.718 243.207 91.092 264.751 103.258C265.073 103.172 265.481 103.408 265.567 103.729C265.771 103.847 265.771 103.847 265.975 103.965C266.792 104.436 266.085 105.661 265.355 105.511C260.188 110.69 253.538 114.197 246.63 116.738C239.721 119.279 232.146 120.619 225.042 121.142C217.82 121.87 210.017 121.718 202.804 120.546C194.86 119.225 189.123 114.553 181.918 111.481C181.306 111.128 180.898 110.892 180.726 110.248C172.001 120.175 163.567 130.542 155.134 140.908C179.322 130.115 209.173 134.018 231.03 147.998C232.255 148.705 232.128 150.808 230.927 151.475C207.13 166.303 166.489 176.848 143.056 155.701C133.915 167.292 124.861 179.205 116.419 191.471C141.51 181.471 169.251 180.075 192.324 196.661C193.226 197.454 193.249 198.828 192.66 199.848C184.893 211.416 173.329 215.894 159.773 214.869C143.266 213.773 122.936 211.286 107.623 204.349C107.387 204.757 107.27 204.961 107.034 205.37C99.7382 216.121 92.8506 227.108 86.4889 238.127C97.9121 232.479 111.014 230.521 123.84 231.397C133.189 232.169 142.357 234.197 151.171 236.838C156.045 238.291 168.078 240.069 168.72 246.969C169.753 257.904 142.175 261.844 134.749 262.453C115.219 264.237 96.8051 257.959 79.6875 249.436C71.323 263.924 63.3666 278.647 55.6143 293.488C80.7936 276.738 119.628 271.68 139.535 297.048C140.319 298.046 140.225 299.623 139.023 300.29C125.48 309.611 109.662 311.089 93.5856 311.602C79.087 312.21 62.1313 313.303 48.9539 305.967C37.6904 328.304 26.631 350.758 15.4538 373.416C13.3016 377.615 7.4387 375.046 8.86085 370.698C17.3854 346.508 28.0136 322.445 40.2742 299.324C12.3501 282.657 -11.6126 249.234 6.47542 216.962C7.7082 215.769 9.11351 215.22 10.3378 215.927Z" fill="#183342" fill-opacity="0.2"/>
</svg>
