<svg width="179" height="446" viewBox="0 0 179 446" fill="none" xmlns="http://www.w3.org/2000/svg">
<path d="M175.129 304.771C146.562 309.9 122.524 328.292 109.142 353.812C108.947 336.842 108.282 319.891 107.156 303.193C121.536 303.1 136.618 296.849 146.345 286.328C158.334 273.361 161.634 255.31 164.51 238.456C164.699 237.269 163.702 235.894 162.525 235.94C145.084 236.152 133.284 247.934 121.729 259.941C115.377 266.321 109.759 273.38 105.572 280.854C104.722 271.22 103.882 261.821 102.806 252.431C102.441 249.144 102.077 245.857 101.712 242.57C115.737 239.426 130.537 232.007 140.753 221.939C150.969 211.87 153.984 198.547 156.283 185.016C156.463 183.594 155.013 182.708 153.836 182.754C137.863 184.324 124.803 194.032 113.917 205.071C108.244 210.717 102.852 217.531 99.6062 224.968C97.9025 211.594 95.7279 198.239 93.3178 184.893C93.544 184.648 93.5349 184.412 93.5257 184.177L93.5164 183.942C107.144 182.699 119.932 172.058 127.775 161.611C137.862 148.246 142.386 131.327 144.339 114.98C144.699 112.137 140.442 111.832 140.073 114.44C114.474 117.095 96.3965 149.166 91.4803 174.118C88.5347 159.142 85.3537 144.176 81.711 129.463C106.284 112.701 127.049 89.0132 126.319 58.3878L125.636 52.9912L123.055 53.3282C109.012 56.0014 98.7265 70.3172 92.1066 81.8953C85.7037 92.9933 81.2397 105.43 78.9039 118.019C75.035 103.551 70.6953 89.102 65.8939 74.9065C71.0919 63.1484 75.2742 49.5437 75.0108 36.8208C74.4659 22.93 66.7053 11.4444 58.7278 0.438998C58.7185 0.20356 58.4831 0.212799 58.4831 0.212799L55.3255 3.87369L54.439 5.32327C41.6332 27.5193 49.408 57.3967 60.1556 78.9045C63.5074 92.2136 66.8501 105.287 70.2019 118.596C53.4528 100.389 27.18 85.8574 2.44926 86.5919C2.20458 86.3657 1.73364 86.3842 1.50743 86.6289C1.27199 86.6381 1.27196 86.6381 1.03652 86.6473C0.0947502 86.6843 0.15023 88.0969 0.865794 88.3046C3.02645 95.2939 7.27837 101.494 12.2089 106.959C17.1394 112.425 23.2195 117.138 29.2626 120.91C35.3149 124.917 42.2905 128.416 49.2199 130.738C56.8649 133.268 64.1176 131.804 71.9241 132.441C72.6304 132.413 73.1012 132.395 73.5536 131.905C76.6515 144.753 79.2878 157.854 81.9241 170.956C65.5443 150.141 37.3094 139.694 11.457 141.887C10.0443 141.943 9.17654 143.863 9.92905 145.013C24.0837 169.216 55.1395 197.473 85.7238 189.671C88.4155 204.185 90.881 218.943 92.6401 233.73C75.0924 213.196 51.1924 199.043 23.0501 202.976C21.8822 203.258 21.222 204.463 21.2682 205.64C22.755 219.494 30.9032 228.842 43.3772 234.248C58.4964 240.964 77.6459 248.23 94.427 249.222C94.4454 249.693 94.4547 249.929 94.4731 250.4C95.923 263.312 96.9018 276.242 97.4006 288.956C89.9217 278.638 79.2389 270.805 67.4806 265.607C58.8476 261.937 49.7899 259.463 40.76 257.695C35.7695 256.711 24.2928 252.681 20.512 258.489C14.5061 267.685 37.0765 284.013 43.3643 288.011C59.8178 298.684 79.0364 301.702 98.1534 302.131C98.8093 318.847 98.9942 335.582 98.9437 352.326C84.4612 325.777 52.4498 303.217 23.0197 316.398C21.861 316.915 21.2101 318.355 21.9626 319.504C29.6078 334.06 42.9175 342.734 56.9057 350.674C69.4535 357.963 83.9495 366.826 99.027 366.471C98.5935 391.482 97.9245 416.504 97.2648 441.76C97.2141 446.478 103.599 446.935 104.365 442.425C108.086 417.048 109.885 390.804 109.802 364.633C142.274 362.887 179.045 344.467 178.065 307.485C177.53 305.855 176.542 304.715 175.129 304.771Z" fill="#183342" fill-opacity="0.2"/>
</svg>
