<svg width="44" height="75" viewBox="0 0 44 75" fill="none" xmlns="http://www.w3.org/2000/svg">
<path d="M42.1438 33.0608L10.7672 1.83656C10.1821 1.2543 9.48747 0.792425 8.723 0.477308C7.95852 0.162191 7.13916 0 6.3117 0C4.64058 0 3.0379 0.66063 1.85623 1.83656C1.27113 2.41882 0.806996 3.11007 0.490341 3.87083C0.173687 4.63159 0.0107162 5.44696 0.0107162 6.27041C0.0107162 7.93342 0.674564 9.52832 1.85623 10.7043L28.8401 37.4947L1.85623 64.2851C1.26805 64.8656 0.801207 65.5563 0.482617 66.3173C0.164028 67.0783 0 67.8945 0 68.7189C0 69.5433 0.164028 70.3596 0.482617 71.1206C0.801207 71.8816 1.26805 72.5722 1.85623 73.1528C2.4396 73.7381 3.13366 74.2027 3.89837 74.5197C4.66307 74.8368 5.48329 75 6.3117 75C7.14012 75 7.96034 74.8368 8.72505 74.5197C9.48975 74.2027 10.1838 73.7381 10.7672 73.1528L42.1438 41.9285C42.7319 41.348 43.1988 40.6573 43.5174 39.8963C43.836 39.1353 44 38.3191 44 37.4947C44 36.6703 43.836 35.854 43.5174 35.093C43.1988 34.3321 42.7319 33.6414 42.1438 33.0608Z" fill="#163C51"/>
</svg>
