<svg width="50" height="50" viewBox="0 0 50 50" fill="none" xmlns="http://www.w3.org/2000/svg">
<path d="M5.97773 22.7977V25.3748V44.5624C5.97773 45.7665 6.41627 46.9055 7.17282 47.7323C7.92665 48.5561 8.92906 49 9.95337 49H39.8072C40.8315 49 41.8339 48.5561 42.5878 47.7323C43.3443 46.9055 43.7828 45.7665 43.7828 44.5624V25.3748V22.7977L45.5211 24.7003L47.6634 27.0452L5.97773 22.7977ZM5.97773 22.7977L4.23946 24.7003M5.97773 22.7977L4.23946 24.7003M4.23946 24.7003L2.09714 27.0452C2.09713 27.0452 2.09711 27.0452 2.0971 27.0452C2.03121 27.1172 1.95784 27.1691 1.88375 27.2026C1.80996 27.236 1.73444 27.2518 1.66064 27.2518C1.51552 27.2518 1.35629 27.1896 1.22414 27.0452C1.15807 26.973 1.10148 26.8825 1.0615 26.777C1.02149 26.6715 1 26.5557 1 26.437C1 26.3182 1.02149 26.2024 1.0615 26.0969C1.10147 25.9914 1.15804 25.901 1.22409 25.8288C1.22411 25.8288 1.22412 25.8288 1.22414 25.8288L23.2728 1.73656C23.7155 1.25283 24.296 1 24.8803 1C25.4646 1 26.045 1.25279 26.4877 1.73645C26.4877 1.73648 26.4878 1.73652 26.4878 1.73656L34.0938 10.0488L35.8316 11.9479V9.37369V4.68646C35.8316 4.44372 35.9206 4.22683 36.0551 4.07987C36.1868 3.93588 36.3455 3.87392 36.4901 3.87392H39.8072C39.9518 3.87392 40.1105 3.93588 40.2422 4.07987C40.3767 4.22683 40.4657 4.44372 40.4657 4.68646V16.6239V17.0125M4.23946 24.7003L40.4657 17.0125M40.4657 17.0125L40.7281 17.2991M40.4657 17.0125L40.7281 17.2991M40.7281 17.2991L48.5364 25.8288C48.5365 25.8288 48.5365 25.8289 48.5366 25.8289C48.6714 25.9763 48.7606 26.1937 48.7606 26.437C48.7606 26.6803 48.6713 26.8978 48.5364 27.0452C48.4043 27.1896 48.245 27.2518 48.0999 27.2518C47.955 27.2518 47.796 27.1897 47.664 27.0457L40.7281 17.2991ZM42.4657 21.7497V21.3613L42.2035 21.0747L25.618 2.94924L24.8803 2.14299L24.1425 2.94924L7.55707 21.0747L7.29482 21.3613V21.7497V44.5624C7.29482 45.2811 7.55525 45.9862 8.04285 46.5191C8.53317 47.055 9.21818 47.3749 9.95337 47.3749H39.8072C40.5424 47.3749 41.2274 47.055 41.7177 46.5191C42.2053 45.9862 42.4657 45.2811 42.4657 44.5624V21.7497Z" fill="#163C51" stroke="#163C51" stroke-width="2"/>
</svg>
