<svg width="44" height="53" viewBox="0 0 44 53" fill="none" xmlns="http://www.w3.org/2000/svg">
<path d="M8.08958 21.0556V2L2 7.44444M2 37.3889C2 35.9449 2.64158 34.5601 3.7836 33.5391C4.92561 32.5181 6.47452 31.9444 8.08958 31.9444C9.70464 31.9444 11.2535 32.5181 12.3956 33.5391C13.5376 34.5601 14.1792 35.9449 14.1792 37.3889C14.1792 38.9977 12.3492 41.3633 11.1344 42.8333L2 51H14.1792M29.4031 31.9444C29.4031 33.0213 29.7603 34.0739 30.4294 34.9692C31.0985 35.8645 32.0496 36.5624 33.1623 36.9745C34.275 37.3865 35.4994 37.4944 36.6807 37.2843C37.862 37.0742 38.947 36.5557 39.7987 35.7942C40.6503 35.0328 41.2303 34.0627 41.4653 33.0066C41.7002 31.9505 41.5796 30.8558 41.1187 29.8609C40.6578 28.8661 39.8773 28.0158 38.8759 27.4176C37.8745 26.8193 36.6971 26.5 35.4927 26.5C36.6971 26.5 37.8745 26.1807 38.8759 25.5824C39.8773 24.9842 40.6578 24.1339 41.1187 23.1391C41.5796 22.1442 41.7002 21.0495 41.4653 19.9934C41.2303 18.9373 40.6503 17.9672 39.7987 17.2058C38.947 16.4443 37.862 15.9258 36.6807 15.7157C35.4994 15.5056 34.275 15.6135 33.1623 16.0255C32.0496 16.4376 31.0985 17.1355 30.4294 18.0308C29.7603 18.9261 29.4031 19.9787 29.4031 21.0556M3.52239 21.0556H12.6568" stroke="#163C51" stroke-width="3" stroke-linecap="round" stroke-linejoin="round"/>
</svg>
