<svg width="15" height="10" viewBox="0 0 15 10" fill="none" xmlns="http://www.w3.org/2000/svg">
<path d="M8.38784 9.57813L14.6327 2.44709C14.7491 2.31411 14.8415 2.15624 14.9045 1.9825C14.9676 1.80876 15 1.62254 15 1.43448C15 1.05468 14.8679 0.690431 14.6327 0.42187C14.5162 0.288893 14.378 0.183408 14.2258 0.111441C14.0737 0.0394742 13.9106 0.00243551 13.7459 0.00243551C13.4133 0.00243551 13.0943 0.15331 12.8591 0.42187L7.50107 6.55457L2.14298 0.42187C2.02687 0.288194 1.88874 0.182092 1.73654 0.109686C1.58434 0.037279 1.42109 0 1.25621 0C1.09133 0 0.928086 0.037279 0.775887 0.109686C0.623689 0.182092 0.485554 0.288194 0.369446 0.42187C0.252381 0.554455 0.159463 0.712195 0.0960541 0.885992C0.0326452 1.05979 9.53674e-07 1.2462 9.53674e-07 1.43448C9.53674e-07 1.62275 0.0326452 1.80917 0.0960541 1.98297C0.159463 2.15676 0.252381 2.3145 0.369446 2.44709L6.6143 9.57813C6.7304 9.71181 6.86854 9.81791 7.02074 9.89032C7.17294 9.96272 7.33619 10 7.50107 10C7.66595 10 7.82919 9.96272 7.98139 9.89032C8.13359 9.81791 8.27173 9.71181 8.38784 9.57813Z" fill="white"/>
</svg>
