<svg width="29" height="26" viewBox="0 0 29 26" fill="none" xmlns="http://www.w3.org/2000/svg">
<path d="M22.6875 0H19.4584C19.1017 0 18.8125 0.289149 18.8125 0.645833V0.721922L23.3334 4.33859V0.645833C23.3334 0.289149 23.0442 0 22.6875 0Z" fill="white"/>
<path fill-rule="evenodd" clip-rule="evenodd" d="M12.6771 8.39583C12.6771 7.50412 13.4 6.78125 14.2917 6.78125C15.1834 6.78125 15.9063 7.50412 15.9063 8.39583C15.9063 9.28754 15.1834 10.0104 14.2917 10.0104C13.4 10.0104 12.6771 9.28754 12.6771 8.39583Z" fill="white"/>
<path fill-rule="evenodd" clip-rule="evenodd" d="M25.5938 10.2823L26.6032 11.0898C27.021 11.424 27.6306 11.3563 27.9648 10.9385C28.2991 10.5207 28.2313 9.91109 27.8135 9.57687L17.3176 1.18009C15.5485 -0.235134 13.0349 -0.235134 11.2658 1.18009L0.769862 9.57687C0.352077 9.91109 0.284341 10.5207 0.618569 10.9385C0.952797 11.3563 1.56242 11.424 1.98021 11.0898L2.98962 10.2823V23.5729H1.37504C0.84001 23.5729 0.406286 24.0066 0.406286 24.5417C0.406286 25.0767 0.84001 25.5104 1.37504 25.5104H27.2084C27.7434 25.5104 28.1771 25.0767 28.1771 24.5417C28.1771 24.0066 27.7434 23.5729 27.2084 23.5729H25.5938V10.2823ZM10.7396 8.39583C10.7396 6.43407 12.3299 4.84375 14.2917 4.84375C16.2535 4.84375 17.8438 6.43407 17.8438 8.39583C17.8438 10.3576 16.2535 11.9479 14.2917 11.9479C12.3299 11.9479 10.7396 10.3576 10.7396 8.39583ZM14.3555 13.2396C15.2143 13.2395 15.9542 13.2395 16.5468 13.3192C17.1818 13.4045 17.7905 13.5971 18.2842 14.0908C18.778 14.5845 18.9705 15.1933 19.0559 15.8283C19.1306 16.3838 19.1352 17.0689 19.1354 17.8599C19.1355 17.9127 19.1355 17.9659 19.1355 18.0196L19.1355 23.5729H17.198V18.0833C17.198 17.1426 17.1959 16.5345 17.1357 16.0865C17.0792 15.6663 16.988 15.5346 16.9142 15.4608C16.8405 15.3871 16.7088 15.2959 16.2886 15.2394C15.8405 15.1791 15.2324 15.1771 14.2917 15.1771C13.351 15.1771 12.7429 15.1791 12.2948 15.2394C11.8746 15.2959 11.7429 15.3871 11.6692 15.4608C11.5954 15.5346 11.5042 15.6663 11.4477 16.0865C11.3875 16.5345 11.3855 17.1426 11.3855 18.0833V23.5729H9.44795L9.44795 18.0196C9.4479 17.1608 9.44786 16.4208 9.52752 15.8283C9.6129 15.1933 9.80544 14.5845 10.2992 14.0908C10.7929 13.5971 11.4016 13.4045 12.0367 13.3192C12.6292 13.2395 13.3691 13.2395 14.2279 13.2396H14.3555Z" fill="white"/>
<path fill-rule="evenodd" clip-rule="evenodd" d="M12.6771 8.39583C12.6771 7.50412 13.4 6.78125 14.2917 6.78125C15.1834 6.78125 15.9063 7.50412 15.9063 8.39583C15.9063 9.28754 15.1834 10.0104 14.2917 10.0104C13.4 10.0104 12.6771 9.28754 12.6771 8.39583Z" fill="white"/>
</svg>
