<svg width="44" height="75" viewBox="0 0 44 75" fill="none" xmlns="http://www.w3.org/2000/svg">
<path d="M1.85623 41.9392L33.2328 73.1634C33.8179 73.7457 34.5125 74.2076 35.277 74.5227C36.0415 74.8378 36.8608 75 37.6883 75C39.3594 75 40.9621 74.3394 42.1438 73.1634C42.7289 72.5812 43.193 71.8899 43.5097 71.1292C43.8263 70.3684 43.9893 69.553 43.9893 68.7296C43.9893 67.0666 43.3254 65.4717 42.1438 64.2957L15.1599 37.5053L42.1438 10.7149C42.732 10.1344 43.1988 9.44368 43.5174 8.68269C43.836 7.92169 44 7.10546 44 6.28107C44 5.45667 43.836 4.64043 43.5174 3.87943C43.1988 3.11844 42.732 2.42776 42.1438 1.84722C41.5604 1.2619 40.8663 0.79731 40.1016 0.48027C39.3369 0.163223 38.5167 -4.79364e-07 37.6883 -5.51787e-07C36.8599 -6.24209e-07 36.0397 0.163223 35.275 0.48027C34.5103 0.797309 33.8162 1.2619 33.2328 1.84722L1.85624 33.0715C1.26806 33.652 0.801204 34.3427 0.482616 35.1037C0.164024 35.8647 3.34996e-06 36.6809 3.27789e-06 37.5053C3.20582e-06 38.3297 0.164024 39.146 0.482616 39.907C0.801204 40.6679 1.26806 41.3586 1.85623 41.9392Z" fill="#163C51"/>
</svg>
