<svg width="56" height="34" viewBox="0 0 56 34" fill="none" xmlns="http://www.w3.org/2000/svg">
<path d="M2.71224 1.32434C2.74261 1.31252 2.77197 1.30751 2.7841 1.30548C2.80147 1.30258 2.82039 1.30023 2.83929 1.29823C2.8774 1.29421 2.92593 1.29055 2.98292 1.28712C3.09746 1.28024 3.25615 1.2737 3.45475 1.26744C3.85248 1.25492 4.41752 1.24333 5.1251 1.23264C6.54063 1.21125 8.53106 1.19341 10.9043 1.17908C15.6511 1.15044 21.9317 1.13585 28.2128 1.13514C34.494 1.13442 40.7762 1.14759 45.5262 1.17446C47.901 1.18789 49.8934 1.20475 51.3113 1.22503C52.0201 1.23516 52.5863 1.24617 52.9854 1.25805C53.1846 1.26399 53.3439 1.2702 53.459 1.27672C53.5162 1.27997 53.5649 1.28343 53.603 1.28721L53.6045 1.28736C53.6303 1.28991 53.6833 1.29515 53.7264 1.31056L53.7264 1.31052L53.7303 1.31199C54.3846 1.55818 55.0486 2.09422 55.4014 2.68049C55.4015 2.68066 55.4016 2.68083 55.4017 2.681L55.6845 3.14702L55.7208 3.2068V3.27672V17.3391V31.4014V31.4699L55.6859 31.5288L55.4026 32.0071L55.4009 32.0099C55.2065 32.3283 54.9051 32.6352 54.5778 32.8809C54.2513 33.126 53.8796 33.3247 53.5342 33.4092L53.5331 33.4095C53.499 33.4176 53.4552 33.4207 53.4275 33.4226C53.391 33.4251 53.3438 33.4274 53.2871 33.4296C53.1735 33.434 53.0159 33.4382 52.818 33.4423C52.4219 33.4504 51.8599 33.4579 51.1562 33.4649C49.7486 33.4788 47.7713 33.4903 45.4147 33.4996C40.7011 33.5181 34.4682 33.5273 28.2354 33.5273C22.0026 33.5273 15.7697 33.5181 11.0562 33.4996C8.69947 33.4903 6.72223 33.4788 5.31464 33.4649C4.61096 33.4579 4.04894 33.4504 3.65282 33.4423C3.45493 33.4382 3.2973 33.434 3.18368 33.4296C3.12704 33.4274 3.07978 33.4251 3.04327 33.4226C3.01566 33.4207 2.97177 33.4176 2.93775 33.4095L2.93775 33.4095L2.93658 33.4092C2.59124 33.3247 2.21948 33.126 1.89297 32.8809C1.56571 32.6352 1.26435 32.3283 1.06994 32.0099L1.06992 32.01L1.06821 32.0071L0.784908 31.5288L0.75 31.4699V31.4014V17.3391V3.27672V3.2068L0.786274 3.14702L1.06799 2.68283C1.06825 2.68238 1.06852 2.68192 1.06879 2.68147C1.4093 2.10531 2.07317 1.57028 2.71224 1.32434ZM2.71224 1.32434C2.71195 1.32445 2.71166 1.32457 2.71138 1.32468L2.80282 1.55736L2.71311 1.32401C2.71282 1.32412 2.71253 1.32423 2.71224 1.32434ZM53.418 3.66282L53.1564 3.46457L52.8628 3.24206H28.2354H3.60798L3.31439 3.46457L3.16338 3.26533L3.31439 3.46457L3.05282 3.66282V17.3391V31.0153L3.31439 31.2136L3.60798 31.4361H28.2354H52.8628L53.1564 31.2136L53.418 31.0153V17.3391V3.66282Z" fill="#163C51" stroke="#163C51" stroke-width="0.5"/>
</svg>
