<svg width="39" height="53" viewBox="0 0 39 53" fill="none" xmlns="http://www.w3.org/2000/svg">
<path d="M7.38461 21.0556V2L2 7.44444M2 37.3889C2 35.9449 2.56731 34.5601 3.57712 33.5391C4.58693 32.5181 5.95653 31.9444 7.38461 31.9444C8.8127 31.9444 10.1823 32.5181 11.1921 33.5391C12.2019 34.5601 12.7692 35.9449 12.7692 37.3889C12.7692 38.9977 11.1512 41.3633 10.0769 42.8333L2 51H12.7692M26.2308 31.9444C26.2308 33.0213 26.5466 34.0739 27.1382 34.9692C27.7299 35.8645 28.5709 36.5624 29.5548 36.9745C30.5387 37.3865 31.6214 37.4944 32.6659 37.2843C33.7104 37.0742 34.6698 36.5557 35.4229 35.7942C36.1759 35.0328 36.6888 34.0627 36.8965 33.0066C37.1043 31.9505 36.9977 30.8558 36.5901 29.8609C36.1826 28.8661 35.4924 28.0158 34.6069 27.4176C33.7214 26.8193 32.6804 26.5 31.6154 26.5C32.6804 26.5 33.7214 26.1807 34.6069 25.5824C35.4924 24.9842 36.1826 24.1339 36.5901 23.1391C36.9977 22.1442 37.1043 21.0495 36.8965 19.9934C36.6888 18.9373 36.1759 17.9672 35.4229 17.2058C34.6698 16.4443 33.7104 15.9258 32.6659 15.7157C31.6214 15.5056 30.5387 15.6135 29.5548 16.0255C28.5709 16.4376 27.7299 17.1355 27.1382 18.0308C26.5466 18.9261 26.2308 19.9787 26.2308 21.0556M3.34615 21.0556H11.4231" stroke="#163C51" stroke-width="3" stroke-linecap="round" stroke-linejoin="round"/>
</svg>
